solid frontAndBack 
facet normal -0.000000 -1.000000 0.000000 
outer loop 
vertex 25.999998 -27.000006 0.000000 
vertex 25.999998 -27.000006 10.000000 
vertex -10.000001 -27.000004 10.000000 
endloop 
endfacet 
facet normal -0.000000 -1.000000 0.000000 
outer loop 
vertex 25.999998 -27.000006 0.000000 
vertex -10.000001 -27.000004 10.000000 
vertex -10.000001 -27.000004 0.000000 
endloop 
endfacet 
facet normal 0.000000 1.000000 0.000000 
outer loop 
vertex -9.999999 13.000000 0.000000 
vertex -9.999999 13.000000 10.000000 
vertex 26.000000 12.999999 10.000000 
endloop 
endfacet 
facet normal 0.000000 1.000000 0.000000 
outer loop 
vertex -9.999999 13.000000 0.000000 
vertex 26.000000 12.999999 10.000000 
vertex 26.000000 12.999999 0.000000 
endloop 
endfacet 
facet normal -1.000000 0.000000 0.000000 
outer loop 
vertex -10.000000 0.076121 0.000000 
vertex -10.000000 0.076121 10.000000 
vertex -9.999999 13.000000 10.000000 
endloop 
endfacet 
facet normal -1.000000 0.000000 0.000000 
outer loop 
vertex -10.000000 0.076121 0.000000 
vertex -9.999999 13.000000 10.000000 
vertex -9.999999 13.000000 0.000000 
endloop 
endfacet 
endsolid frontAndBack 
