solid bottom
facet normal 0.000000 0.000000 -1.000000
outer loop
vertex -2.000000 0.3950000 0.000000
vertex 4.000000 0.3950000 0.000000
vertex 4.000000 -0.3950000 0.000000
endloop
endfacet
facet normal 0.000000 0.000000 -1.000000
outer loop
vertex -2.000000 0.3950000 0.000000
vertex 4.000000 -0.3950000 0.000000
vertex -2.000000 -0.3950000 0.000000
endloop
endfacet
endsolid bottom
solid frontAndBack
facet normal 0.000000 1.000000 0.000000
outer loop
vertex -2.000000 0.395000 0.000000
vertex -2.000000 0.395000 0.045000
vertex 4.000000 0.395000 0.045000
endloop
endfacet
facet normal 0.000000 1.000000 0.000000
outer loop
vertex -2.000000 0.395000 0.000000
vertex 4.000000 0.395000 0.045000
vertex 4.000000 0.395000 0.000000
endloop
endfacet
facet normal 0.000000 -1.000000 0.000000
outer loop
vertex 4.000000 -0.395000 0.000000
vertex 4.000000 -0.395000 0.045000
vertex -2.000000 -0.395000 0.045000
endloop
endfacet
facet normal 0.000000 -1.000000 0.000000
outer loop
vertex 4.000000 -0.395000 0.000000
vertex -2.000000 -0.395000 0.045000
vertex -2.000000 -0.395000 0.000000
endloop
endfacet
endsolid frontAndBack
solid outlet
facet normal 1.000000 0.000000 0.000000
outer loop
vertex 4.000000 0.395000 0.000000
vertex 4.000000 0.395000 0.045000
vertex 4.000000 -0.395000 0.045000
endloop
endfacet
facet normal 1.000000 0.000000 0.000000
outer loop
vertex 4.000000 0.395000 0.000000
vertex 4.000000 -0.395000 0.045000
vertex 4.000000 -0.395000 0.000000
endloop
endfacet
endsolid outlet
solid inlet
facet normal -1.000000 0.000000 0.000000
outer loop
vertex -2.000000 -0.395000 0.000000
vertex -2.000000 -0.395000 0.045000
vertex -2.000000 0.395000 0.045000
endloop
endfacet
facet normal -1.000000 0.000000 0.000000
outer loop
vertex -2.000000 -0.395000 0.000000
vertex -2.000000 0.395000 0.045000
vertex -2.000000 0.395000 0.000000
endloop
endfacet
endsolid inlet
solid top
facet normal 0.000000 0.000000 1.000000
outer loop
vertex 4.000000 0.395000 0.045000
vertex -2.000000 0.395000 0.045000
vertex -2.000000 -0.395000 0.045000
endloop
endfacet
facet normal 0.000000 0.000000 1.000000
outer loop
vertex 4.000000 0.395000 0.045000
vertex -2.000000 -0.395000 0.045000
vertex 4.000000 -0.395000 0.045000
endloop
endfacet
endsolid top
solid cylinder
facet normal 0.000000 0.000000 -1.000000
outer loop
vertex 0.210248 -0.109840 0.000000
vertex 0.200248 -0.127160 0.000000
vertex -0.200248 0.127160 0.000000
endloop
endfacet
facet normal 0.000000 0.000000 -1.000000
outer loop
vertex -0.200248 0.127160 0.000000
vertex 0.200248 -0.127160 0.000000
vertex -0.210248 0.109840 0.000000
endloop
endfacet
facet normal 0.500000 0.866026 0.000000
outer loop
vertex 0.210248 -0.109840 0.002087
vertex 0.210248 -0.109840 0.000000
vertex -0.200248 0.127160 0.002087
endloop
endfacet
facet normal 0.500000 0.866025 0.000000
outer loop
vertex -0.200248 0.127160 0.002087
vertex 0.210248 -0.109840 0.000000
vertex -0.200248 0.127160 0.000000
endloop
endfacet
facet normal -0.234237 -0.405497 -0.883576
outer loop
vertex 0.198574 -0.130059 0.003861
vertex 0.130113 -0.090638 0.003919
vertex 0.200248 -0.127160 0.002087
endloop
endfacet
facet normal -0.235101 -0.407207 -0.882559
outer loop
vertex 0.200248 -0.127160 0.002087
vertex 0.130113 -0.090638 0.003919
vertex 0.061697 -0.051138 0.003919
endloop
endfacet
facet normal -0.235102 -0.407208 -0.882558
outer loop
vertex 0.200248 -0.127160 0.002087
vertex 0.061697 -0.051138 0.003919
vertex -0.006719 -0.011638 0.003919
endloop
endfacet
facet normal -0.300808 -0.521014 -0.798786
outer loop
vertex -0.006719 -0.011638 0.003919
vertex 0.061697 -0.051138 0.003919
vertex -0.008275 -0.014333 0.006263
endloop
endfacet
facet normal -0.300808 -0.521015 -0.798785
outer loop
vertex -0.006719 -0.011638 0.003919
vertex -0.008275 -0.014333 0.006263
vertex -0.076691 0.025167 0.006263
endloop
endfacet
facet normal -0.359210 -0.622170 -0.695610
outer loop
vertex -0.076691 0.025167 0.006263
vertex -0.008275 -0.014333 0.006263
vertex -0.078047 0.022820 0.009062
endloop
endfacet
facet normal -0.359210 -0.622170 -0.695610
outer loop
vertex -0.076691 0.025167 0.006263
vertex -0.078047 0.022820 0.009062
vertex -0.146463 0.062320 0.009062
endloop
endfacet
facet normal -0.408887 -0.708213 -0.575539
outer loop
vertex -0.146463 0.062320 0.009062
vertex -0.078047 0.022820 0.009062
vertex -0.147584 0.060378 0.012248
endloop
endfacet
facet normal -0.408559 -0.708404 -0.575537
outer loop
vertex -0.146463 0.062320 0.009062
vertex -0.147584 0.060378 0.012248
vertex -0.215888 0.100072 0.011878
endloop
endfacet
facet normal -0.444562 -0.769268 -0.458903
outer loop
vertex -0.215888 0.100072 0.011878
vertex -0.147584 0.060378 0.012248
vertex -0.216757 0.098566 0.015243
endloop
endfacet
facet normal -0.448234 -0.777284 -0.441493
outer loop
vertex -0.216757 0.098566 0.015243
vertex -0.147584 0.060378 0.012248
vertex -0.148444 0.058888 0.015744
endloop
endfacet
facet normal -0.474197 -0.820442 -0.319393
outer loop
vertex -0.216757 0.098566 0.015243
vertex -0.148444 0.058888 0.015744
vertex -0.217362 0.097518 0.018833
endloop
endfacet
facet normal -0.477019 -0.827291 -0.296720
outer loop
vertex -0.217362 0.097518 0.018833
vertex -0.148444 0.058888 0.015744
vertex -0.149022 0.057887 0.019465
endloop
endfacet
facet normal -0.492948 -0.852778 -0.172548
outer loop
vertex -0.217362 0.097518 0.018833
vertex -0.149022 0.057887 0.019465
vertex -0.217689 0.096952 0.022564
endloop
endfacet
facet normal -0.494213 -0.857207 -0.144742
outer loop
vertex -0.217689 0.096952 0.022564
vertex -0.149022 0.057887 0.019465
vertex -0.149304 0.057398 0.023320
endloop
endfacet
facet normal -0.500386 -0.865530 -0.021744
outer loop
vertex -0.217689 0.096952 0.022564
vertex -0.149304 0.057398 0.023320
vertex -0.217730 0.096881 0.026352
endloop
endfacet
facet normal -0.499395 -0.866308 0.010750
outer loop
vertex -0.217730 0.096881 0.026352
vertex -0.149304 0.057398 0.023320
vertex -0.149283 0.057435 0.027216
endloop
endfacet
facet normal -0.496341 -0.858405 0.129561
outer loop
vertex -0.217730 0.096881 0.026352
vertex -0.149283 0.057435 0.027216
vertex -0.217484 0.097306 0.030108
endloop
endfacet
facet normal -0.492439 -0.854373 0.165985
outer loop
vertex -0.217484 0.097306 0.030108
vertex -0.149283 0.057435 0.027216
vertex -0.148959 0.057995 0.031058
endloop
endfacet
facet normal -0.480908 -0.831568 0.277888
outer loop
vertex -0.217484 0.097306 0.030108
vertex -0.148959 0.057995 0.031058
vertex -0.216958 0.098218 0.033747
endloop
endfacet
facet normal -0.473513 -0.821691 0.317190
outer loop
vertex -0.216958 0.098218 0.033747
vertex -0.148959 0.057995 0.031058
vertex -0.148342 0.059065 0.034753
endloop
endfacet
facet normal -0.454443 -0.785634 0.419835
outer loop
vertex -0.216958 0.098218 0.033747
vertex -0.148342 0.059065 0.034753
vertex -0.216163 0.099595 0.037185
endloop
endfacet
facet normal -0.443074 -0.769061 0.460685
outer loop
vertex -0.216163 0.099595 0.037185
vertex -0.148342 0.059065 0.034753
vertex -0.147444 0.060619 0.038211
endloop
endfacet
facet normal -0.417554 -0.721656 0.552142
outer loop
vertex -0.216163 0.099595 0.037185
vertex -0.147444 0.060619 0.038211
vertex -0.215117 0.101406 0.040343
endloop
endfacet
facet normal -0.401864 -0.697759 0.592991
outer loop
vertex -0.215117 0.101406 0.040343
vertex -0.147444 0.060619 0.038211
vertex -0.146289 0.062620 0.041348
endloop
endfacet
facet normal -0.371084 -0.641100 0.671780
outer loop
vertex -0.215117 0.101406 0.040343
vertex -0.146289 0.062620 0.041348
vertex -0.213845 0.103610 0.043149
endloop
endfacet
facet normal -0.350878 -0.609515 0.710898
outer loop
vertex -0.213845 0.103610 0.043149
vertex -0.146289 0.062620 0.041348
vertex -0.144904 0.065019 0.044088
endloop
endfacet
facet normal -0.316111 -0.545820 0.775986
outer loop
vertex -0.187315 0.090877 0.045000
vertex -0.212706 0.105582 0.045000
vertex -0.213845 0.103610 0.043149
endloop
endfacet
facet normal -0.316110 -0.545820 0.775987
outer loop
vertex -0.187315 0.090877 0.045000
vertex -0.213845 0.103610 0.043149
vertex -0.144904 0.065019 0.044088
endloop
endfacet
facet normal -0.291359 -0.506474 0.811538
outer loop
vertex -0.187315 0.090877 0.045000
vertex -0.144904 0.065019 0.044088
vertex -0.144271 0.066115 0.045000
endloop
endfacet
facet normal 0.292941 0.505560 0.811539
outer loop
vertex -0.172359 0.116781 0.045000
vertex -0.129393 0.091885 0.045000
vertex -0.128760 0.092981 0.044088
endloop
endfacet
facet normal 0.314640 0.546669 0.775986
outer loop
vertex -0.172359 0.116781 0.045000
vertex -0.128760 0.092981 0.044088
vertex -0.196651 0.133390 0.043149
endloop
endfacet
facet normal 0.314638 0.546669 0.775987
outer loop
vertex -0.172359 0.116781 0.045000
vertex -0.196651 0.133390 0.043149
vertex -0.197790 0.131418 0.045000
endloop
endfacet
facet normal 0.352415 0.608626 0.710900
outer loop
vertex -0.196651 0.133390 0.043149
vertex -0.128760 0.092981 0.044088
vertex -0.127375 0.095380 0.041348
endloop
endfacet
facet normal 0.369665 0.641919 0.671780
outer loop
vertex -0.196651 0.133390 0.043149
vertex -0.127375 0.095380 0.041348
vertex -0.195379 0.135594 0.040343
endloop
endfacet
facet normal 0.403346 0.696906 0.592988
outer loop
vertex -0.195379 0.135594 0.040343
vertex -0.127375 0.095380 0.041348
vertex -0.126220 0.097381 0.038211
endloop
endfacet
facet normal 0.416195 0.722438 0.552146
outer loop
vertex -0.195379 0.135594 0.040343
vertex -0.126220 0.097381 0.038211
vertex -0.194333 0.137405 0.037185
endloop
endfacet
facet normal 0.444489 0.768244 0.460685
outer loop
vertex -0.194333 0.137405 0.037185
vertex -0.126220 0.097381 0.038211
vertex -0.125322 0.098935 0.034753
endloop
endfacet
facet normal 0.453157 0.786376 0.419835
outer loop
vertex -0.194333 0.137405 0.037185
vertex -0.125322 0.098935 0.034753
vertex -0.193538 0.138782 0.033747
endloop
endfacet
facet normal 0.474850 0.820920 0.317188
outer loop
vertex -0.193538 0.138782 0.033747
vertex -0.125322 0.098935 0.034753
vertex -0.124705 0.100005 0.031058
endloop
endfacet
facet normal 0.479704 0.832262 0.277893
outer loop
vertex -0.193538 0.138782 0.033747
vertex -0.124705 0.100005 0.031058
vertex -0.193012 0.139694 0.030108
endloop
endfacet
facet normal 0.493689 0.853652 0.165981
outer loop
vertex -0.193012 0.139694 0.030108
vertex -0.124705 0.100005 0.031058
vertex -0.124381 0.100565 0.027216
endloop
endfacet
facet normal 0.495231 0.859046 0.129561
outer loop
vertex -0.193012 0.139694 0.030108
vertex -0.124381 0.100565 0.027216
vertex -0.192766 0.140119 0.026352
endloop
endfacet
facet normal 0.500547 0.865643 0.010748
outer loop
vertex -0.192766 0.140119 0.026352
vertex -0.124381 0.100565 0.027216
vertex -0.124360 0.100602 0.023320
endloop
endfacet
facet normal 0.499377 0.866112 -0.021747
outer loop
vertex -0.192766 0.140119 0.026352
vertex -0.124360 0.100602 0.023320
vertex -0.192808 0.140048 0.022564
endloop
endfacet
facet normal 0.495257 0.856604 -0.144740
outer loop
vertex -0.192808 0.140048 0.022564
vertex -0.124360 0.100602 0.023320
vertex -0.124642 0.100113 0.019465
endloop
endfacet
facet normal 0.492053 0.853295 -0.172545
outer loop
vertex -0.192808 0.140048 0.022564
vertex -0.124642 0.100113 0.019465
vertex -0.193134 0.139482 0.018833
endloop
endfacet
facet normal 0.477945 0.826757 -0.296718
outer loop
vertex -0.193134 0.139482 0.018833
vertex -0.124642 0.100113 0.019465
vertex -0.125220 0.099112 0.015744
endloop
endfacet
facet normal 0.473425 0.820887 -0.319396
outer loop
vertex -0.193134 0.139482 0.018833
vertex -0.125220 0.099112 0.015744
vertex -0.193739 0.138434 0.015243
endloop
endfacet
facet normal 0.449031 0.776825 -0.441491
outer loop
vertex -0.193739 0.138434 0.015243
vertex -0.125220 0.099112 0.015744
vertex -0.126080 0.097622 0.012248
endloop
endfacet
facet normal 0.443926 0.769638 -0.458898
outer loop
vertex -0.193739 0.138434 0.015243
vertex -0.126080 0.097622 0.012248
vertex -0.194608 0.136928 0.011878
endloop
endfacet
facet normal 0.409216 0.708023 -0.575539
outer loop
vertex -0.194608 0.136928 0.011878
vertex -0.126080 0.097622 0.012248
vertex -0.127202 0.095681 0.009062
endloop
endfacet
facet normal 0.404226 0.700710 -0.587883
outer loop
vertex -0.194608 0.136928 0.011878
vertex -0.127202 0.095681 0.009062
vertex -0.195722 0.135000 0.008813
endloop
endfacet
facet normal 0.359464 0.622023 -0.695609
outer loop
vertex -0.195722 0.135000 0.008813
vertex -0.127202 0.095681 0.009062
vertex -0.128557 0.093333 0.006263
endloop
endfacet
facet normal 0.355250 0.615704 -0.703354
outer loop
vertex -0.195722 0.135000 0.008813
vertex -0.128557 0.093333 0.006263
vertex -0.197054 0.132692 0.006120
endloop
endfacet
facet normal 0.300983 0.520914 -0.798785
outer loop
vertex -0.197054 0.132692 0.006120
vertex -0.128557 0.093333 0.006263
vertex -0.130113 0.090638 0.003919
endloop
endfacet
facet normal 0.298118 0.516558 -0.802679
outer loop
vertex -0.197054 0.132692 0.006120
vertex -0.130113 0.090638 0.003919
vertex -0.198574 0.130059 0.003861
endloop
endfacet
facet normal 0.234237 0.405497 -0.883575
outer loop
vertex -0.198574 0.130059 0.003861
vertex -0.130113 0.090638 0.003919
vertex -0.200248 0.127160 0.002087
endloop
endfacet
facet normal 0.235101 0.407208 -0.882558
outer loop
vertex -0.200248 0.127160 0.002087
vertex -0.130113 0.090638 0.003919
vertex -0.061697 0.051138 0.003919
endloop
endfacet
facet normal 0.235101 0.407207 -0.882559
outer loop
vertex -0.200248 0.127160 0.002087
vertex -0.061697 0.051138 0.003919
vertex 0.006719 0.011638 0.003919
endloop
endfacet
facet normal 0.300808 0.521015 -0.798786
outer loop
vertex 0.006719 0.011638 0.003919
vertex -0.061697 0.051138 0.003919
vertex 0.008275 0.014333 0.006263
endloop
endfacet
facet normal 0.300808 0.521015 -0.798785
outer loop
vertex 0.006719 0.011638 0.003919
vertex 0.008275 0.014333 0.006263
vertex 0.076691 -0.025167 0.006263
endloop
endfacet
facet normal 0.359210 0.622170 -0.695610
outer loop
vertex 0.076691 -0.025167 0.006263
vertex 0.008275 0.014333 0.006263
vertex 0.078047 -0.022819 0.009062
endloop
endfacet
facet normal 0.359210 0.622170 -0.695609
outer loop
vertex 0.076691 -0.025167 0.006263
vertex 0.078047 -0.022819 0.009062
vertex 0.146463 -0.062319 0.009062
endloop
endfacet
facet normal 0.408887 0.708213 -0.575540
outer loop
vertex 0.146463 -0.062319 0.009062
vertex 0.078047 -0.022819 0.009062
vertex 0.147584 -0.060378 0.012248
endloop
endfacet
facet normal 0.408558 0.708403 -0.575539
outer loop
vertex 0.146463 -0.062319 0.009062
vertex 0.147584 -0.060378 0.012248
vertex 0.215888 -0.100072 0.011878
endloop
endfacet
facet normal 0.444562 0.769268 -0.458903
outer loop
vertex 0.215888 -0.100072 0.011878
vertex 0.147584 -0.060378 0.012248
vertex 0.216757 -0.098566 0.015243
endloop
endfacet
facet normal 0.448233 0.777284 -0.441493
outer loop
vertex 0.216757 -0.098566 0.015243
vertex 0.147584 -0.060378 0.012248
vertex 0.148444 -0.058888 0.015744
endloop
endfacet
facet normal 0.474196 0.820441 -0.319396
outer loop
vertex 0.216757 -0.098566 0.015243
vertex 0.148444 -0.058888 0.015744
vertex 0.217362 -0.097518 0.018833
endloop
endfacet
facet normal 0.477019 0.827291 -0.296717
outer loop
vertex 0.217362 -0.097518 0.018833
vertex 0.148444 -0.058888 0.015744
vertex 0.149022 -0.057887 0.019465
endloop
endfacet
facet normal 0.492948 0.852778 -0.172548
outer loop
vertex 0.217362 -0.097518 0.018833
vertex 0.149022 -0.057887 0.019465
vertex 0.217689 -0.096952 0.022564
endloop
endfacet
facet normal 0.494213 0.857206 -0.144745
outer loop
vertex 0.217689 -0.096952 0.022564
vertex 0.149022 -0.057887 0.019465
vertex 0.149304 -0.057398 0.023320
endloop
endfacet
facet normal 0.500386 0.865530 -0.021744
outer loop
vertex 0.217689 -0.096952 0.022564
vertex 0.149304 -0.057398 0.023320
vertex 0.217730 -0.096881 0.026352
endloop
endfacet
facet normal 0.499395 0.866308 0.010753
outer loop
vertex 0.217730 -0.096881 0.026352
vertex 0.149304 -0.057398 0.023320
vertex 0.149283 -0.057435 0.027216
endloop
endfacet
facet normal 0.496341 0.858405 0.129558
outer loop
vertex 0.217730 -0.096881 0.026352
vertex 0.149283 -0.057435 0.027216
vertex 0.217484 -0.097306 0.030108
endloop
endfacet
facet normal 0.492439 0.854372 0.165988
outer loop
vertex 0.217484 -0.097306 0.030108
vertex 0.149283 -0.057435 0.027216
vertex 0.148959 -0.057995 0.031058
endloop
endfacet
facet normal 0.480909 0.831569 0.277885
outer loop
vertex 0.217484 -0.097306 0.030108
vertex 0.148959 -0.057995 0.031058
vertex 0.216958 -0.098218 0.033747
endloop
endfacet
facet normal 0.473512 0.821691 0.317192
outer loop
vertex 0.216958 -0.098218 0.033747
vertex 0.148959 -0.057995 0.031058
vertex 0.148342 -0.059065 0.034753
endloop
endfacet
facet normal 0.454443 0.785635 0.419832
outer loop
vertex 0.216958 -0.098218 0.033747
vertex 0.148342 -0.059065 0.034753
vertex 0.216163 -0.099595 0.037185
endloop
endfacet
facet normal 0.443074 0.769061 0.460685
outer loop
vertex 0.216163 -0.099595 0.037185
vertex 0.148342 -0.059065 0.034753
vertex 0.147444 -0.060619 0.038211
endloop
endfacet
facet normal 0.417554 0.721655 0.552144
outer loop
vertex 0.216163 -0.099595 0.037185
vertex 0.147444 -0.060619 0.038211
vertex 0.215117 -0.101406 0.040343
endloop
endfacet
facet normal 0.401864 0.697759 0.592991
outer loop
vertex 0.215117 -0.101406 0.040343
vertex 0.147444 -0.060619 0.038211
vertex 0.146289 -0.062620 0.041348
endloop
endfacet
facet normal 0.371085 0.641101 0.671778
outer loop
vertex 0.215117 -0.101406 0.040343
vertex 0.146289 -0.062620 0.041348
vertex 0.213845 -0.103610 0.043149
endloop
endfacet
facet normal 0.350878 0.609515 0.710898
outer loop
vertex 0.213845 -0.103610 0.043149
vertex 0.146289 -0.062620 0.041348
vertex 0.144904 -0.065019 0.044088
endloop
endfacet
facet normal 0.316110 0.545820 0.775987
outer loop
vertex 0.213845 -0.103610 0.043149
vertex 0.144904 -0.065019 0.044088
vertex 0.187315 -0.090877 0.045000
endloop
endfacet
facet normal 0.316110 0.545818 0.775988
outer loop
vertex 0.213845 -0.103610 0.043149
vertex 0.187315 -0.090877 0.045000
vertex 0.212706 -0.105582 0.045000
endloop
endfacet
facet normal 0.291357 0.506473 0.811539
outer loop
vertex 0.144271 -0.066115 0.045000
vertex 0.187315 -0.090877 0.045000
vertex 0.144904 -0.065019 0.044088
endloop
endfacet
facet normal -0.292946 -0.505566 0.811533
outer loop
vertex 0.128760 -0.092981 0.044088
vertex 0.172359 -0.116781 0.045000
vertex 0.129393 -0.091885 0.045000
endloop
endfacet
facet normal -0.314639 -0.546668 0.775988
outer loop
vertex 0.128760 -0.092981 0.044088
vertex 0.196651 -0.133390 0.043149
vertex 0.197790 -0.131418 0.045000
endloop
endfacet
facet normal -0.314637 -0.546668 0.775988
outer loop
vertex 0.128760 -0.092981 0.044088
vertex 0.197790 -0.131418 0.045000
vertex 0.172359 -0.116781 0.045000
endloop
endfacet
facet normal -0.352417 -0.608628 0.710897
outer loop
vertex 0.196651 -0.133390 0.043149
vertex 0.128760 -0.092981 0.044088
vertex 0.127375 -0.095380 0.041348
endloop
endfacet
facet normal -0.369666 -0.641920 0.671778
outer loop
vertex 0.196651 -0.133390 0.043149
vertex 0.127375 -0.095380 0.041348
vertex 0.195379 -0.135594 0.040343
endloop
endfacet
facet normal -0.403345 -0.696903 0.592992
outer loop
vertex 0.195379 -0.135594 0.040343
vertex 0.127375 -0.095380 0.041348
vertex 0.126220 -0.097381 0.038211
endloop
endfacet
facet normal -0.416195 -0.722438 0.552146
outer loop
vertex 0.195379 -0.135594 0.040343
vertex 0.126220 -0.097381 0.038211
vertex 0.194333 -0.137405 0.037185
endloop
endfacet
facet normal -0.444490 -0.768246 0.460681
outer loop
vertex 0.194333 -0.137405 0.037185
vertex 0.126220 -0.097381 0.038211
vertex 0.125322 -0.098935 0.034753
endloop
endfacet
facet normal -0.453157 -0.786376 0.419835
outer loop
vertex 0.194333 -0.137405 0.037185
vertex 0.125322 -0.098935 0.034753
vertex 0.193538 -0.138782 0.033747
endloop
endfacet
facet normal -0.474849 -0.820918 0.317193
outer loop
vertex 0.193538 -0.138782 0.033747
vertex 0.125322 -0.098935 0.034753
vertex 0.124705 -0.100005 0.031058
endloop
endfacet
facet normal -0.479704 -0.832262 0.277893
outer loop
vertex 0.193538 -0.138782 0.033747
vertex 0.124705 -0.100005 0.031058
vertex 0.193012 -0.139694 0.030108
endloop
endfacet
facet normal -0.493689 -0.853652 0.165982
outer loop
vertex 0.193012 -0.139694 0.030108
vertex 0.124705 -0.100005 0.031058
vertex 0.124381 -0.100565 0.027216
endloop
endfacet
facet normal -0.495231 -0.859046 0.129561
outer loop
vertex 0.193012 -0.139694 0.030108
vertex 0.124381 -0.100565 0.027216
vertex 0.192766 -0.140119 0.026352
endloop
endfacet
facet normal -0.500547 -0.865643 0.010748
outer loop
vertex 0.192766 -0.140119 0.026352
vertex 0.124381 -0.100565 0.027216
vertex 0.124360 -0.100602 0.023320
endloop
endfacet
facet normal -0.499377 -0.866112 -0.021747
outer loop
vertex 0.192766 -0.140119 0.026352
vertex 0.124360 -0.100602 0.023320
vertex 0.192808 -0.140048 0.022564
endloop
endfacet
facet normal -0.495257 -0.856604 -0.144740
outer loop
vertex 0.192808 -0.140048 0.022564
vertex 0.124360 -0.100602 0.023320
vertex 0.124642 -0.100113 0.019465
endloop
endfacet
facet normal -0.492053 -0.853295 -0.172545
outer loop
vertex 0.192808 -0.140048 0.022564
vertex 0.124642 -0.100113 0.019465
vertex 0.193134 -0.139482 0.018833
endloop
endfacet
facet normal -0.477945 -0.826757 -0.296719
outer loop
vertex 0.193134 -0.139482 0.018833
vertex 0.124642 -0.100113 0.019465
vertex 0.125220 -0.099112 0.015744
endloop
endfacet
facet normal -0.473425 -0.820887 -0.319396
outer loop
vertex 0.193134 -0.139482 0.018833
vertex 0.125220 -0.099112 0.015744
vertex 0.193739 -0.138434 0.015243
endloop
endfacet
facet normal -0.449032 -0.776825 -0.441491
outer loop
vertex 0.193739 -0.138434 0.015243
vertex 0.125220 -0.099112 0.015744
vertex 0.126080 -0.097622 0.012248
endloop
endfacet
facet normal -0.443924 -0.769636 -0.458903
outer loop
vertex 0.193739 -0.138434 0.015243
vertex 0.126080 -0.097622 0.012248
vertex 0.194608 -0.136928 0.011878
endloop
endfacet
facet normal -0.409218 -0.708025 -0.575536
outer loop
vertex 0.194608 -0.136928 0.011878
vertex 0.126080 -0.097622 0.012248
vertex 0.127202 -0.095680 0.009062
endloop
endfacet
facet normal -0.404225 -0.700708 -0.587887
outer loop
vertex 0.194608 -0.136928 0.011878
vertex 0.127202 -0.095680 0.009062
vertex 0.195722 -0.135000 0.008813
endloop
endfacet
facet normal -0.359465 -0.622025 -0.695608
outer loop
vertex 0.195722 -0.135000 0.008813
vertex 0.127202 -0.095680 0.009062
vertex 0.128557 -0.093333 0.006263
endloop
endfacet
facet normal -0.355252 -0.615706 -0.703351
outer loop
vertex 0.195722 -0.135000 0.008813
vertex 0.128557 -0.093333 0.006263
vertex 0.197054 -0.132692 0.006120
endloop
endfacet
facet normal -0.300983 -0.520914 -0.798785
outer loop
vertex 0.197054 -0.132692 0.006120
vertex 0.128557 -0.093333 0.006263
vertex 0.130113 -0.090638 0.003919
endloop
endfacet
facet normal -0.298118 -0.516557 -0.802679
outer loop
vertex 0.197054 -0.132692 0.006120
vertex 0.130113 -0.090638 0.003919
vertex 0.198574 -0.130059 0.003861
endloop
endfacet
facet normal 0.404722 0.700429 -0.587876
outer loop
vertex 0.215888 -0.100072 0.011878
vertex 0.214774 -0.102000 0.008813
vertex 0.146463 -0.062319 0.009062
endloop
endfacet
facet normal 0.358956 0.622319 -0.695608
outer loop
vertex 0.146463 -0.062319 0.009062
vertex 0.214774 -0.102000 0.008813
vertex 0.145107 -0.064667 0.006263
endloop
endfacet
facet normal 0.359210 0.622170 -0.695610
outer loop
vertex 0.146463 -0.062319 0.009062
vertex 0.145107 -0.064667 0.006263
vertex 0.076691 -0.025167 0.006263
endloop
endfacet
facet normal 0.300808 0.521015 -0.798786
outer loop
vertex 0.076691 -0.025167 0.006263
vertex 0.145107 -0.064667 0.006263
vertex 0.075135 -0.027862 0.003919
endloop
endfacet
facet normal 0.300808 0.521015 -0.798785
outer loop
vertex 0.076691 -0.025167 0.006263
vertex 0.075135 -0.027862 0.003919
vertex 0.006719 0.011638 0.003919
endloop
endfacet
facet normal 0.235100 0.407204 -0.882560
outer loop
vertex 0.006719 0.011638 0.003919
vertex 0.075135 -0.027862 0.003919
vertex -0.200248 0.127160 0.002087
endloop
endfacet
facet normal 0.355590 0.615508 -0.703354
outer loop
vertex 0.214774 -0.102000 0.008813
vertex 0.213442 -0.104308 0.006120
vertex 0.145107 -0.064667 0.006263
endloop
endfacet
facet normal 0.300633 0.521116 -0.798786
outer loop
vertex 0.145107 -0.064667 0.006263
vertex 0.213442 -0.104308 0.006120
vertex 0.143551 -0.067362 0.003919
endloop
endfacet
facet normal 0.300808 0.521015 -0.798786
outer loop
vertex 0.145107 -0.064667 0.006263
vertex 0.143551 -0.067362 0.003919
vertex 0.075135 -0.027862 0.003919
endloop
endfacet
facet normal 0.235101 0.407207 -0.882559
outer loop
vertex 0.075135 -0.027862 0.003919
vertex 0.143551 -0.067362 0.003919
vertex -0.200248 0.127160 0.002087
endloop
endfacet
facet normal 0.298293 0.516457 -0.802679
outer loop
vertex 0.213442 -0.104308 0.006120
vertex 0.211922 -0.106941 0.003861
vertex 0.143551 -0.067362 0.003919
endloop
endfacet
facet normal 0.239094 0.414306 -0.878171
outer loop
vertex 0.143551 -0.067362 0.003919
vertex 0.211922 -0.106941 0.003861
vertex -0.200248 0.127160 0.002087
endloop
endfacet
facet normal 0.234144 0.405549 -0.883576
outer loop
vertex 0.211922 -0.106941 0.003861
vertex 0.210248 -0.109840 0.002087
vertex -0.200248 0.127160 0.002087
endloop
endfacet
facet normal -0.404722 -0.700429 -0.587876
outer loop
vertex -0.215888 0.100072 0.011878
vertex -0.214774 0.102000 0.008813
vertex -0.146463 0.062320 0.009062
endloop
endfacet
facet normal -0.358956 -0.622317 -0.695609
outer loop
vertex -0.146463 0.062320 0.009062
vertex -0.214774 0.102000 0.008813
vertex -0.145107 0.064667 0.006263
endloop
endfacet
facet normal -0.359210 -0.622170 -0.695610
outer loop
vertex -0.146463 0.062320 0.009062
vertex -0.145107 0.064667 0.006263
vertex -0.076691 0.025167 0.006263
endloop
endfacet
facet normal -0.300808 -0.521014 -0.798786
outer loop
vertex -0.076691 0.025167 0.006263
vertex -0.145107 0.064667 0.006263
vertex -0.075135 0.027862 0.003919
endloop
endfacet
facet normal -0.300808 -0.521015 -0.798785
outer loop
vertex -0.076691 0.025167 0.006263
vertex -0.075135 0.027862 0.003919
vertex -0.006719 -0.011638 0.003919
endloop
endfacet
facet normal -0.235100 -0.407205 -0.882560
outer loop
vertex -0.006719 -0.011638 0.003919
vertex -0.075135 0.027862 0.003919
vertex 0.200248 -0.127160 0.002087
endloop
endfacet
facet normal -0.355590 -0.615508 -0.703354
outer loop
vertex -0.214774 0.102000 0.008813
vertex -0.213442 0.104308 0.006120
vertex -0.145107 0.064667 0.006263
endloop
endfacet
facet normal -0.300633 -0.521115 -0.798786
outer loop
vertex -0.145107 0.064667 0.006263
vertex -0.213442 0.104308 0.006120
vertex -0.143551 0.067362 0.003919
endloop
endfacet
facet normal -0.300808 -0.521014 -0.798786
outer loop
vertex -0.145107 0.064667 0.006263
vertex -0.143551 0.067362 0.003919
vertex -0.075135 0.027862 0.003919
endloop
endfacet
facet normal -0.235101 -0.407207 -0.882559
outer loop
vertex -0.075135 0.027862 0.003919
vertex -0.143551 0.067362 0.003919
vertex 0.200248 -0.127160 0.002087
endloop
endfacet
facet normal -0.298293 -0.516457 -0.802679
outer loop
vertex -0.213442 0.104308 0.006120
vertex -0.211922 0.106941 0.003861
vertex -0.143551 0.067362 0.003919
endloop
endfacet
facet normal -0.239095 -0.414309 -0.878170
outer loop
vertex -0.143551 0.067362 0.003919
vertex -0.211922 0.106941 0.003861
vertex 0.200248 -0.127160 0.002087
endloop
endfacet
facet normal -0.234144 -0.405549 -0.883576
outer loop
vertex -0.211922 0.106941 0.003861
vertex -0.210248 0.109840 0.002087
vertex 0.200248 -0.127160 0.002087
endloop
endfacet
facet normal -0.300807 -0.521013 -0.798787
outer loop
vertex 0.061697 -0.051138 0.003919
vertex 0.130113 -0.090638 0.003919
vertex 0.060141 -0.053833 0.006263
endloop
endfacet
facet normal -0.300808 -0.521015 -0.798785
outer loop
vertex 0.060141 -0.053833 0.006263
vertex 0.130113 -0.090638 0.003919
vertex 0.128557 -0.093333 0.006263
endloop
endfacet
facet normal -0.359210 -0.622169 -0.695610
outer loop
vertex 0.060141 -0.053833 0.006263
vertex 0.128557 -0.093333 0.006263
vertex 0.058786 -0.056180 0.009062
endloop
endfacet
facet normal -0.359211 -0.622171 -0.695608
outer loop
vertex 0.058786 -0.056180 0.009062
vertex 0.128557 -0.093333 0.006263
vertex 0.127202 -0.095680 0.009062
endloop
endfacet
facet normal -0.408887 -0.708213 -0.575539
outer loop
vertex 0.058786 -0.056180 0.009062
vertex 0.127202 -0.095680 0.009062
vertex 0.057664 -0.058122 0.012248
endloop
endfacet
facet normal -0.408886 -0.708212 -0.575541
outer loop
vertex 0.057664 -0.058122 0.012248
vertex 0.127202 -0.095680 0.009062
vertex 0.126080 -0.097622 0.012248
endloop
endfacet
facet normal -0.448633 -0.777055 -0.441491
outer loop
vertex 0.057664 -0.058122 0.012248
vertex 0.126080 -0.097622 0.012248
vertex 0.056804 -0.059612 0.015744
endloop
endfacet
facet normal -0.448633 -0.777055 -0.441491
outer loop
vertex 0.056804 -0.059612 0.015744
vertex 0.126080 -0.097622 0.012248
vertex 0.125220 -0.099112 0.015744
endloop
endfacet
facet normal -0.477483 -0.827024 -0.296717
outer loop
vertex 0.056804 -0.059612 0.015744
vertex 0.125220 -0.099112 0.015744
vertex 0.056226 -0.060613 0.019465
endloop
endfacet
facet normal -0.477482 -0.827023 -0.296721
outer loop
vertex 0.056226 -0.060613 0.019465
vertex 0.125220 -0.099112 0.015744
vertex 0.124642 -0.100113 0.019465
endloop
endfacet
facet normal -0.494735 -0.856906 -0.144741
outer loop
vertex 0.056226 -0.060613 0.019465
vertex 0.124642 -0.100113 0.019465
vertex 0.055944 -0.061102 0.023320
endloop
endfacet
facet normal -0.494735 -0.856906 -0.144742
outer loop
vertex 0.055944 -0.061102 0.023320
vertex 0.124642 -0.100113 0.019465
vertex 0.124360 -0.100602 0.023320
endloop
endfacet
facet normal -0.499971 -0.865975 0.010754
outer loop
vertex 0.055944 -0.061102 0.023320
vertex 0.124360 -0.100602 0.023320
vertex 0.055965 -0.061065 0.027216
endloop
endfacet
facet normal -0.499971 -0.865975 0.010753
outer loop
vertex 0.055965 -0.061065 0.027216
vertex 0.124360 -0.100602 0.023320
vertex 0.124381 -0.100565 0.027216
endloop
endfacet
facet normal -0.493064 -0.854012 0.165988
outer loop
vertex 0.055965 -0.061065 0.027216
vertex 0.124381 -0.100565 0.027216
vertex 0.056289 -0.060505 0.031058
endloop
endfacet
facet normal -0.493064 -0.854012 0.165985
outer loop
vertex 0.056289 -0.060505 0.031058
vertex 0.124381 -0.100565 0.027216
vertex 0.124705 -0.100005 0.031058
endloop
endfacet
facet normal -0.474182 -0.821307 0.317186
outer loop
vertex 0.056289 -0.060505 0.031058
vertex 0.124705 -0.100005 0.031058
vertex 0.056906 -0.059435 0.034753
endloop
endfacet
facet normal -0.474181 -0.821306 0.317190
outer loop
vertex 0.056906 -0.059435 0.034753
vertex 0.124705 -0.100005 0.031058
vertex 0.125322 -0.098935 0.034753
endloop
endfacet
facet normal -0.443782 -0.768655 0.460681
outer loop
vertex 0.056906 -0.059435 0.034753
vertex 0.125322 -0.098935 0.034753
vertex 0.057804 -0.057881 0.038211
endloop
endfacet
facet normal -0.443782 -0.768652 0.460686
outer loop
vertex 0.057804 -0.057881 0.038211
vertex 0.125322 -0.098935 0.034753
vertex 0.126220 -0.097381 0.038211
endloop
endfacet
facet normal -0.402605 -0.697331 0.592992
outer loop
vertex 0.057804 -0.057881 0.038211
vertex 0.126220 -0.097381 0.038211
vertex 0.058959 -0.055880 0.041348
endloop
endfacet
facet normal -0.402604 -0.697331 0.592992
outer loop
vertex 0.058959 -0.055880 0.041348
vertex 0.126220 -0.097381 0.038211
vertex 0.127375 -0.095380 0.041348
endloop
endfacet
facet normal -0.351649 -0.609073 0.710896
outer loop
vertex 0.058959 -0.055880 0.041348
vertex 0.127375 -0.095380 0.041348
vertex 0.060344 -0.053481 0.044088
endloop
endfacet
facet normal -0.351647 -0.609070 0.710899
outer loop
vertex 0.060344 -0.053481 0.044088
vertex 0.127375 -0.095380 0.041348
vertex 0.128760 -0.092981 0.044088
endloop
endfacet
facet normal -0.292150 -0.506020 0.811537
outer loop
vertex 0.102000 -0.076069 0.045000
vertex 0.060977 -0.052385 0.045000
vertex 0.060344 -0.053481 0.044088
endloop
endfacet
facet normal -0.292150 -0.506018 0.811539
outer loop
vertex 0.102000 -0.076069 0.045000
vertex 0.060344 -0.053481 0.044088
vertex 0.128760 -0.092981 0.044088
endloop
endfacet
facet normal -0.292149 -0.506018 0.811539
outer loop
vertex 0.128760 -0.092981 0.044088
vertex 0.129393 -0.091885 0.045000
vertex 0.102000 -0.076069 0.045000
endloop
endfacet
facet normal 0.292151 0.506018 0.811538
outer loop
vertex 0.075855 -0.026615 0.045000
vertex 0.103248 -0.042431 0.045000
vertex 0.076488 -0.025519 0.044088
endloop
endfacet
facet normal 0.292150 0.506019 0.811537
outer loop
vertex 0.144904 -0.065019 0.044088
vertex 0.076488 -0.025519 0.044088
vertex 0.103248 -0.042431 0.045000
endloop
endfacet
facet normal 0.292148 0.506018 0.811539
outer loop
vertex 0.144904 -0.065019 0.044088
vertex 0.103248 -0.042431 0.045000
vertex 0.144271 -0.066115 0.045000
endloop
endfacet
facet normal 0.351647 0.609071 0.710899
outer loop
vertex 0.076488 -0.025519 0.044088
vertex 0.144904 -0.065019 0.044088
vertex 0.077873 -0.023120 0.041348
endloop
endfacet
facet normal 0.351648 0.609072 0.710897
outer loop
vertex 0.077873 -0.023120 0.041348
vertex 0.144904 -0.065019 0.044088
vertex 0.146289 -0.062620 0.041348
endloop
endfacet
facet normal 0.402603 0.697331 0.592993
outer loop
vertex 0.077873 -0.023120 0.041348
vertex 0.146289 -0.062620 0.041348
vertex 0.079028 -0.021119 0.038211
endloop
endfacet
facet normal 0.402604 0.697331 0.592992
outer loop
vertex 0.079028 -0.021119 0.038211
vertex 0.146289 -0.062620 0.041348
vertex 0.147444 -0.060619 0.038211
endloop
endfacet
facet normal 0.443783 0.768653 0.460684
outer loop
vertex 0.079028 -0.021119 0.038211
vertex 0.147444 -0.060619 0.038211
vertex 0.079926 -0.019565 0.034753
endloop
endfacet
facet normal 0.443782 0.768653 0.460684
outer loop
vertex 0.079926 -0.019565 0.034753
vertex 0.147444 -0.060619 0.038211
vertex 0.148342 -0.059065 0.034753
endloop
endfacet
facet normal 0.474181 0.821307 0.317188
outer loop
vertex 0.079926 -0.019565 0.034753
vertex 0.148342 -0.059065 0.034753
vertex 0.080543 -0.018495 0.031058
endloop
endfacet
facet normal 0.474181 0.821306 0.317188
outer loop
vertex 0.080543 -0.018495 0.031058
vertex 0.148342 -0.059065 0.034753
vertex 0.148959 -0.057995 0.031058
endloop
endfacet
facet normal 0.493065 0.854012 0.165985
outer loop
vertex 0.080543 -0.018495 0.031058
vertex 0.148959 -0.057995 0.031058
vertex 0.080867 -0.017935 0.027216
endloop
endfacet
facet normal 0.493064 0.854012 0.165987
outer loop
vertex 0.080867 -0.017935 0.027216
vertex 0.148959 -0.057995 0.031058
vertex 0.149283 -0.057435 0.027216
endloop
endfacet
facet normal 0.499971 0.865976 0.010752
outer loop
vertex 0.080867 -0.017935 0.027216
vertex 0.149283 -0.057435 0.027216
vertex 0.080888 -0.017898 0.023320
endloop
endfacet
facet normal 0.499971 0.865975 0.010753
outer loop
vertex 0.080888 -0.017898 0.023320
vertex 0.149283 -0.057435 0.027216
vertex 0.149304 -0.057398 0.023320
endloop
endfacet
facet normal 0.494735 0.856906 -0.144742
outer loop
vertex 0.080888 -0.017898 0.023320
vertex 0.149304 -0.057398 0.023320
vertex 0.080606 -0.018387 0.019465
endloop
endfacet
facet normal 0.494735 0.856906 -0.144741
outer loop
vertex 0.080606 -0.018387 0.019465
vertex 0.149304 -0.057398 0.023320
vertex 0.149022 -0.057887 0.019465
endloop
endfacet
facet normal 0.477483 0.827024 -0.296718
outer loop
vertex 0.080606 -0.018387 0.019465
vertex 0.149022 -0.057887 0.019465
vertex 0.080028 -0.019388 0.015744
endloop
endfacet
facet normal 0.477483 0.827023 -0.296721
outer loop
vertex 0.080028 -0.019388 0.015744
vertex 0.149022 -0.057887 0.019465
vertex 0.148444 -0.058888 0.015744
endloop
endfacet
facet normal 0.448633 0.777056 -0.441490
outer loop
vertex 0.080028 -0.019388 0.015744
vertex 0.148444 -0.058888 0.015744
vertex 0.079168 -0.020878 0.012248
endloop
endfacet
facet normal 0.448633 0.777055 -0.441491
outer loop
vertex 0.079168 -0.020878 0.012248
vertex 0.148444 -0.058888 0.015744
vertex 0.147584 -0.060378 0.012248
endloop
endfacet
facet normal 0.408887 0.708213 -0.575540
outer loop
vertex 0.079168 -0.020878 0.012248
vertex 0.147584 -0.060378 0.012248
vertex 0.078047 -0.022819 0.009062
endloop
endfacet
facet normal -0.300808 -0.521014 -0.798786
outer loop
vertex 0.061697 -0.051138 0.003919
vertex 0.060141 -0.053833 0.006263
vertex -0.008275 -0.014333 0.006263
endloop
endfacet
facet normal -0.359210 -0.622171 -0.695609
outer loop
vertex -0.008275 -0.014333 0.006263
vertex 0.060141 -0.053833 0.006263
vertex -0.009630 -0.016680 0.009062
endloop
endfacet
facet normal -0.359210 -0.622170 -0.695610
outer loop
vertex -0.008275 -0.014333 0.006263
vertex -0.009630 -0.016680 0.009062
vertex -0.078047 0.022820 0.009062
endloop
endfacet
facet normal -0.408887 -0.708212 -0.575541
outer loop
vertex -0.078047 0.022820 0.009062
vertex -0.009630 -0.016680 0.009062
vertex -0.079168 0.020878 0.012248
endloop
endfacet
facet normal -0.408886 -0.708212 -0.575541
outer loop
vertex -0.078047 0.022820 0.009062
vertex -0.079168 0.020878 0.012248
vertex -0.147584 0.060378 0.012248
endloop
endfacet
facet normal -0.448633 -0.777055 -0.441490
outer loop
vertex -0.147584 0.060378 0.012248
vertex -0.079168 0.020878 0.012248
vertex -0.148444 0.058888 0.015744
endloop
endfacet
facet normal -0.359210 -0.622170 -0.695610
outer loop
vertex -0.009630 -0.016680 0.009062
vertex 0.060141 -0.053833 0.006263
vertex 0.058786 -0.056180 0.009062
endloop
endfacet
facet normal -0.408887 -0.708213 -0.575540
outer loop
vertex -0.009630 -0.016680 0.009062
vertex 0.058786 -0.056180 0.009062
vertex -0.010752 -0.018622 0.012248
endloop
endfacet
facet normal -0.408887 -0.708212 -0.575541
outer loop
vertex -0.010752 -0.018622 0.012248
vertex 0.058786 -0.056180 0.009062
vertex 0.057664 -0.058122 0.012248
endloop
endfacet
facet normal -0.448633 -0.777055 -0.441491
outer loop
vertex -0.010752 -0.018622 0.012248
vertex 0.057664 -0.058122 0.012248
vertex -0.011612 -0.020112 0.015744
endloop
endfacet
facet normal -0.448633 -0.777055 -0.441490
outer loop
vertex -0.011612 -0.020112 0.015744
vertex 0.057664 -0.058122 0.012248
vertex 0.056804 -0.059612 0.015744
endloop
endfacet
facet normal -0.477482 -0.827024 -0.296718
outer loop
vertex -0.011612 -0.020112 0.015744
vertex 0.056804 -0.059612 0.015744
vertex -0.012190 -0.021113 0.019465
endloop
endfacet
facet normal -0.477482 -0.827024 -0.296720
outer loop
vertex -0.012190 -0.021113 0.019465
vertex 0.056804 -0.059612 0.015744
vertex 0.056226 -0.060613 0.019465
endloop
endfacet
facet normal -0.494735 -0.856906 -0.144741
outer loop
vertex -0.012190 -0.021113 0.019465
vertex 0.056226 -0.060613 0.019465
vertex -0.012472 -0.021602 0.023320
endloop
endfacet
facet normal -0.494735 -0.856906 -0.144742
outer loop
vertex -0.012472 -0.021602 0.023320
vertex 0.056226 -0.060613 0.019465
vertex 0.055944 -0.061102 0.023320
endloop
endfacet
facet normal -0.499972 -0.865975 0.010752
outer loop
vertex -0.012472 -0.021602 0.023320
vertex 0.055944 -0.061102 0.023320
vertex -0.012451 -0.021565 0.027216
endloop
endfacet
facet normal -0.499971 -0.865976 0.010753
outer loop
vertex -0.012451 -0.021565 0.027216
vertex 0.055944 -0.061102 0.023320
vertex 0.055965 -0.061065 0.027216
endloop
endfacet
facet normal -0.493064 -0.854012 0.165986
outer loop
vertex -0.012451 -0.021565 0.027216
vertex 0.055965 -0.061065 0.027216
vertex -0.012127 -0.021005 0.031058
endloop
endfacet
facet normal -0.493064 -0.854012 0.165985
outer loop
vertex -0.012127 -0.021005 0.031058
vertex 0.055965 -0.061065 0.027216
vertex 0.056289 -0.060505 0.031058
endloop
endfacet
facet normal -0.474181 -0.821306 0.317188
outer loop
vertex -0.012127 -0.021005 0.031058
vertex 0.056289 -0.060505 0.031058
vertex -0.011510 -0.019935 0.034753
endloop
endfacet
facet normal -0.474181 -0.821306 0.317188
outer loop
vertex -0.011510 -0.019935 0.034753
vertex 0.056289 -0.060505 0.031058
vertex 0.056906 -0.059435 0.034753
endloop
endfacet
facet normal -0.443782 -0.768654 0.460683
outer loop
vertex -0.011510 -0.019935 0.034753
vertex 0.056906 -0.059435 0.034753
vertex -0.010612 -0.018381 0.038211
endloop
endfacet
facet normal -0.443783 -0.768653 0.460683
outer loop
vertex -0.010612 -0.018381 0.038211
vertex 0.056906 -0.059435 0.034753
vertex 0.057804 -0.057881 0.038211
endloop
endfacet
facet normal -0.402604 -0.697330 0.592993
outer loop
vertex -0.010612 -0.018381 0.038211
vertex 0.057804 -0.057881 0.038211
vertex -0.009457 -0.016380 0.041348
endloop
endfacet
facet normal -0.402603 -0.697330 0.592993
outer loop
vertex -0.009457 -0.016380 0.041348
vertex 0.057804 -0.057881 0.038211
vertex 0.058959 -0.055880 0.041348
endloop
endfacet
facet normal -0.351647 -0.609071 0.710898
outer loop
vertex -0.009457 -0.016380 0.041348
vertex 0.058959 -0.055880 0.041348
vertex -0.008072 -0.013981 0.044088
endloop
endfacet
facet normal -0.351648 -0.609072 0.710898
outer loop
vertex -0.008072 -0.013981 0.044088
vertex 0.058959 -0.055880 0.041348
vertex 0.060344 -0.053481 0.044088
endloop
endfacet
facet normal -0.292150 -0.506017 0.811539
outer loop
vertex 0.033584 -0.036569 0.045000
vertex -0.007439 -0.012885 0.045000
vertex -0.008072 -0.013981 0.044088
endloop
endfacet
facet normal -0.292148 -0.506018 0.811539
outer loop
vertex 0.033584 -0.036569 0.045000
vertex -0.008072 -0.013981 0.044088
vertex 0.060344 -0.053481 0.044088
endloop
endfacet
facet normal -0.292149 -0.506018 0.811539
outer loop
vertex 0.060344 -0.053481 0.044088
vertex 0.060977 -0.052385 0.045000
vertex 0.033584 -0.036569 0.045000
endloop
endfacet
facet normal 0.292148 0.506017 0.811539
outer loop
vertex 0.008072 0.013981 0.044088
vertex 0.007439 0.012885 0.045000
vertex 0.034832 -0.002931 0.045000
endloop
endfacet
facet normal 0.292149 0.506018 0.811539
outer loop
vertex 0.076488 -0.025519 0.044088
vertex 0.008072 0.013981 0.044088
vertex 0.034832 -0.002931 0.045000
endloop
endfacet
facet normal 0.292150 0.506016 0.811539
outer loop
vertex 0.076488 -0.025519 0.044088
vertex 0.034832 -0.002931 0.045000
vertex 0.075855 -0.026615 0.045000
endloop
endfacet
facet normal 0.351647 0.609072 0.710898
outer loop
vertex 0.008072 0.013981 0.044088
vertex 0.076488 -0.025519 0.044088
vertex 0.009457 0.016380 0.041348
endloop
endfacet
facet normal 0.351649 0.609071 0.710897
outer loop
vertex 0.009457 0.016380 0.041348
vertex 0.076488 -0.025519 0.044088
vertex 0.077873 -0.023120 0.041348
endloop
endfacet
facet normal 0.402604 0.697330 0.592992
outer loop
vertex 0.009457 0.016380 0.041348
vertex 0.077873 -0.023120 0.041348
vertex 0.010612 0.018381 0.038211
endloop
endfacet
facet normal 0.402604 0.697331 0.592993
outer loop
vertex 0.010612 0.018381 0.038211
vertex 0.077873 -0.023120 0.041348
vertex 0.079028 -0.021119 0.038211
endloop
endfacet
facet normal 0.443782 0.768653 0.460684
outer loop
vertex 0.010612 0.018381 0.038211
vertex 0.079028 -0.021119 0.038211
vertex 0.011510 0.019935 0.034753
endloop
endfacet
facet normal 0.443782 0.768653 0.460684
outer loop
vertex 0.011510 0.019935 0.034753
vertex 0.079028 -0.021119 0.038211
vertex 0.079926 -0.019565 0.034753
endloop
endfacet
facet normal 0.474181 0.821307 0.317187
outer loop
vertex 0.011510 0.019935 0.034753
vertex 0.079926 -0.019565 0.034753
vertex 0.012127 0.021005 0.031058
endloop
endfacet
facet normal 0.474182 0.821306 0.317188
outer loop
vertex 0.012127 0.021005 0.031058
vertex 0.079926 -0.019565 0.034753
vertex 0.080543 -0.018495 0.031058
endloop
endfacet
facet normal 0.493065 0.854012 0.165985
outer loop
vertex 0.012127 0.021005 0.031058
vertex 0.080543 -0.018495 0.031058
vertex 0.012451 0.021565 0.027216
endloop
endfacet
facet normal 0.493064 0.854012 0.165986
outer loop
vertex 0.012451 0.021565 0.027216
vertex 0.080543 -0.018495 0.031058
vertex 0.080867 -0.017935 0.027216
endloop
endfacet
facet normal 0.499970 0.865976 0.010753
outer loop
vertex 0.012451 0.021565 0.027216
vertex 0.080867 -0.017935 0.027216
vertex 0.012472 0.021602 0.023320
endloop
endfacet
facet normal 0.499971 0.865975 0.010752
outer loop
vertex 0.012472 0.021602 0.023320
vertex 0.080867 -0.017935 0.027216
vertex 0.080888 -0.017898 0.023320
endloop
endfacet
facet normal 0.494735 0.856906 -0.144741
outer loop
vertex 0.012472 0.021602 0.023320
vertex 0.080888 -0.017898 0.023320
vertex 0.012190 0.021113 0.019465
endloop
endfacet
facet normal 0.494735 0.856906 -0.144741
outer loop
vertex 0.012190 0.021113 0.019465
vertex 0.080888 -0.017898 0.023320
vertex 0.080606 -0.018387 0.019465
endloop
endfacet
facet normal 0.477482 0.827024 -0.296719
outer loop
vertex 0.012190 0.021113 0.019465
vertex 0.080606 -0.018387 0.019465
vertex 0.011612 0.020112 0.015744
endloop
endfacet
facet normal 0.477482 0.827024 -0.296719
outer loop
vertex 0.011612 0.020112 0.015744
vertex 0.080606 -0.018387 0.019465
vertex 0.080028 -0.019388 0.015744
endloop
endfacet
facet normal 0.448633 0.777055 -0.441491
outer loop
vertex 0.011612 0.020112 0.015744
vertex 0.080028 -0.019388 0.015744
vertex 0.010752 0.018622 0.012248
endloop
endfacet
facet normal 0.448633 0.777055 -0.441491
outer loop
vertex 0.010752 0.018622 0.012248
vertex 0.080028 -0.019388 0.015744
vertex 0.079168 -0.020878 0.012248
endloop
endfacet
facet normal 0.408887 0.708213 -0.575540
outer loop
vertex 0.010752 0.018622 0.012248
vertex 0.079168 -0.020878 0.012248
vertex 0.009630 0.016681 0.009062
endloop
endfacet
facet normal 0.408886 0.708212 -0.575541
outer loop
vertex 0.009630 0.016681 0.009062
vertex 0.079168 -0.020878 0.012248
vertex 0.078047 -0.022819 0.009062
endloop
endfacet
facet normal 0.359210 0.622170 -0.695610
outer loop
vertex 0.009630 0.016681 0.009062
vertex 0.078047 -0.022819 0.009062
vertex 0.008275 0.014333 0.006263
endloop
endfacet
facet normal -0.408887 -0.708213 -0.575540
outer loop
vertex -0.009630 -0.016680 0.009062
vertex -0.010752 -0.018622 0.012248
vertex -0.079168 0.020878 0.012248
endloop
endfacet
facet normal -0.448633 -0.777055 -0.441491
outer loop
vertex -0.079168 0.020878 0.012248
vertex -0.010752 -0.018622 0.012248
vertex -0.080028 0.019388 0.015744
endloop
endfacet
facet normal -0.448633 -0.777055 -0.441490
outer loop
vertex -0.079168 0.020878 0.012248
vertex -0.080028 0.019388 0.015744
vertex -0.148444 0.058888 0.015744
endloop
endfacet
facet normal -0.477482 -0.827023 -0.296721
outer loop
vertex -0.148444 0.058888 0.015744
vertex -0.080028 0.019388 0.015744
vertex -0.149022 0.057887 0.019465
endloop
endfacet
facet normal -0.448633 -0.777055 -0.441491
outer loop
vertex -0.080028 0.019388 0.015744
vertex -0.010752 -0.018622 0.012248
vertex -0.011612 -0.020112 0.015744
endloop
endfacet
facet normal -0.477482 -0.827024 -0.296719
outer loop
vertex -0.080028 0.019388 0.015744
vertex -0.011612 -0.020112 0.015744
vertex -0.080606 0.018387 0.019465
endloop
endfacet
facet normal -0.477482 -0.827024 -0.296719
outer loop
vertex -0.080606 0.018387 0.019465
vertex -0.011612 -0.020112 0.015744
vertex -0.012190 -0.021113 0.019465
endloop
endfacet
facet normal -0.494735 -0.856906 -0.144741
outer loop
vertex -0.080606 0.018387 0.019465
vertex -0.012190 -0.021113 0.019465
vertex -0.080888 0.017898 0.023320
endloop
endfacet
facet normal -0.494735 -0.856906 -0.144741
outer loop
vertex -0.080888 0.017898 0.023320
vertex -0.012190 -0.021113 0.019465
vertex -0.012472 -0.021602 0.023320
endloop
endfacet
facet normal -0.499972 -0.865975 0.010752
outer loop
vertex -0.080888 0.017898 0.023320
vertex -0.012472 -0.021602 0.023320
vertex -0.080867 0.017935 0.027216
endloop
endfacet
facet normal -0.499971 -0.865976 0.010753
outer loop
vertex -0.080867 0.017935 0.027216
vertex -0.012472 -0.021602 0.023320
vertex -0.012451 -0.021565 0.027216
endloop
endfacet
facet normal -0.493064 -0.854012 0.165986
outer loop
vertex -0.080867 0.017935 0.027216
vertex -0.012451 -0.021565 0.027216
vertex -0.080543 0.018495 0.031058
endloop
endfacet
facet normal -0.493065 -0.854012 0.165985
outer loop
vertex -0.080543 0.018495 0.031058
vertex -0.012451 -0.021565 0.027216
vertex -0.012127 -0.021005 0.031058
endloop
endfacet
facet normal -0.474181 -0.821306 0.317188
outer loop
vertex -0.080543 0.018495 0.031058
vertex -0.012127 -0.021005 0.031058
vertex -0.079926 0.019565 0.034753
endloop
endfacet
facet normal -0.474181 -0.821307 0.317187
outer loop
vertex -0.079926 0.019565 0.034753
vertex -0.012127 -0.021005 0.031058
vertex -0.011510 -0.019935 0.034753
endloop
endfacet
facet normal -0.443782 -0.768653 0.460684
outer loop
vertex -0.079926 0.019565 0.034753
vertex -0.011510 -0.019935 0.034753
vertex -0.079028 0.021119 0.038211
endloop
endfacet
facet normal -0.443782 -0.768653 0.460684
outer loop
vertex -0.079028 0.021119 0.038211
vertex -0.011510 -0.019935 0.034753
vertex -0.010612 -0.018381 0.038211
endloop
endfacet
facet normal -0.402604 -0.697331 0.592993
outer loop
vertex -0.079028 0.021119 0.038211
vertex -0.010612 -0.018381 0.038211
vertex -0.077873 0.023120 0.041348
endloop
endfacet
facet normal -0.402604 -0.697331 0.592992
outer loop
vertex -0.077873 0.023120 0.041348
vertex -0.010612 -0.018381 0.038211
vertex -0.009457 -0.016380 0.041348
endloop
endfacet
facet normal -0.351649 -0.609071 0.710898
outer loop
vertex -0.077873 0.023120 0.041348
vertex -0.009457 -0.016380 0.041348
vertex -0.076488 0.025519 0.044088
endloop
endfacet
facet normal -0.351647 -0.609072 0.710898
outer loop
vertex -0.076488 0.025519 0.044088
vertex -0.009457 -0.016380 0.041348
vertex -0.008072 -0.013981 0.044088
endloop
endfacet
facet normal -0.292149 -0.506017 0.811539
outer loop
vertex -0.034832 0.002931 0.045000
vertex -0.075855 0.026615 0.045000
vertex -0.076488 0.025519 0.044088
endloop
endfacet
facet normal -0.292148 -0.506017 0.811539
outer loop
vertex -0.034832 0.002931 0.045000
vertex -0.076488 0.025519 0.044088
vertex -0.008072 -0.013981 0.044088
endloop
endfacet
facet normal -0.292148 -0.506017 0.811539
outer loop
vertex -0.008072 -0.013981 0.044088
vertex -0.007439 -0.012885 0.045000
vertex -0.034832 0.002931 0.045000
endloop
endfacet
facet normal 0.292152 0.506020 0.811537
outer loop
vertex -0.060977 0.052385 0.045000
vertex -0.033584 0.036569 0.045000
vertex -0.060344 0.053481 0.044088
endloop
endfacet
facet normal 0.292148 0.506016 0.811540
outer loop
vertex 0.008072 0.013981 0.044088
vertex -0.060344 0.053481 0.044088
vertex -0.033584 0.036569 0.045000
endloop
endfacet
facet normal 0.292151 0.506019 0.811537
outer loop
vertex 0.008072 0.013981 0.044088
vertex -0.033584 0.036569 0.045000
vertex 0.007439 0.012885 0.045000
endloop
endfacet
facet normal 0.351648 0.609073 0.710897
outer loop
vertex -0.060344 0.053481 0.044088
vertex 0.008072 0.013981 0.044088
vertex -0.058959 0.055880 0.041348
endloop
endfacet
facet normal 0.351647 0.609072 0.710898
outer loop
vertex -0.058959 0.055880 0.041348
vertex 0.008072 0.013981 0.044088
vertex 0.009457 0.016380 0.041348
endloop
endfacet
facet normal 0.402603 0.697330 0.592994
outer loop
vertex -0.058959 0.055880 0.041348
vertex 0.009457 0.016380 0.041348
vertex -0.057804 0.057881 0.038211
endloop
endfacet
facet normal 0.402605 0.697330 0.592993
outer loop
vertex -0.057804 0.057881 0.038211
vertex 0.009457 0.016380 0.041348
vertex 0.010612 0.018381 0.038211
endloop
endfacet
facet normal 0.443782 0.768653 0.460684
outer loop
vertex -0.057804 0.057881 0.038211
vertex 0.010612 0.018381 0.038211
vertex -0.056906 0.059435 0.034753
endloop
endfacet
facet normal 0.443781 0.768654 0.460683
outer loop
vertex -0.056906 0.059435 0.034753
vertex 0.010612 0.018381 0.038211
vertex 0.011510 0.019935 0.034753
endloop
endfacet
facet normal 0.474181 0.821307 0.317188
outer loop
vertex -0.056906 0.059435 0.034753
vertex 0.011510 0.019935 0.034753
vertex -0.056289 0.060505 0.031058
endloop
endfacet
facet normal 0.474182 0.821306 0.317188
outer loop
vertex -0.056289 0.060505 0.031058
vertex 0.011510 0.019935 0.034753
vertex 0.012127 0.021005 0.031058
endloop
endfacet
facet normal 0.493065 0.854012 0.165985
outer loop
vertex -0.056289 0.060505 0.031058
vertex 0.012127 0.021005 0.031058
vertex -0.055965 0.061065 0.027216
endloop
endfacet
facet normal 0.493064 0.854012 0.165985
outer loop
vertex -0.055965 0.061065 0.027216
vertex 0.012127 0.021005 0.031058
vertex 0.012451 0.021565 0.027216
endloop
endfacet
facet normal 0.499971 0.865975 0.010754
outer loop
vertex -0.055965 0.061065 0.027216
vertex 0.012451 0.021565 0.027216
vertex -0.055944 0.061102 0.023320
endloop
endfacet
facet normal 0.499972 0.865975 0.010752
outer loop
vertex -0.055944 0.061102 0.023320
vertex 0.012451 0.021565 0.027216
vertex 0.012472 0.021602 0.023320
endloop
endfacet
facet normal 0.494735 0.856906 -0.144742
outer loop
vertex -0.055944 0.061102 0.023320
vertex 0.012472 0.021602 0.023320
vertex -0.056226 0.060613 0.019465
endloop
endfacet
facet normal 0.494735 0.856906 -0.144740
outer loop
vertex -0.056226 0.060613 0.019465
vertex 0.012472 0.021602 0.023320
vertex 0.012190 0.021113 0.019465
endloop
endfacet
facet normal 0.477482 0.827024 -0.296720
outer loop
vertex -0.056226 0.060613 0.019465
vertex 0.012190 0.021113 0.019465
vertex -0.056804 0.059612 0.015744
endloop
endfacet
facet normal 0.477482 0.827024 -0.296719
outer loop
vertex -0.056804 0.059612 0.015744
vertex 0.012190 0.021113 0.019465
vertex 0.011612 0.020112 0.015744
endloop
endfacet
facet normal 0.448633 0.777056 -0.441490
outer loop
vertex -0.056804 0.059612 0.015744
vertex 0.011612 0.020112 0.015744
vertex -0.057664 0.058122 0.012248
endloop
endfacet
facet normal 0.448633 0.777055 -0.441490
outer loop
vertex -0.057664 0.058122 0.012248
vertex 0.011612 0.020112 0.015744
vertex 0.010752 0.018622 0.012248
endloop
endfacet
facet normal 0.408887 0.708212 -0.575540
outer loop
vertex -0.057664 0.058122 0.012248
vertex 0.010752 0.018622 0.012248
vertex -0.058786 0.056181 0.009062
endloop
endfacet
facet normal 0.408886 0.708212 -0.575541
outer loop
vertex -0.058786 0.056181 0.009062
vertex 0.010752 0.018622 0.012248
vertex 0.009630 0.016681 0.009062
endloop
endfacet
facet normal 0.359209 0.622169 -0.695611
outer loop
vertex -0.058786 0.056181 0.009062
vertex 0.009630 0.016681 0.009062
vertex -0.060141 0.053833 0.006263
endloop
endfacet
facet normal 0.359210 0.622170 -0.695609
outer loop
vertex -0.060141 0.053833 0.006263
vertex 0.009630 0.016681 0.009062
vertex 0.008275 0.014333 0.006263
endloop
endfacet
facet normal 0.300808 0.521015 -0.798785
outer loop
vertex -0.060141 0.053833 0.006263
vertex 0.008275 0.014333 0.006263
vertex -0.061697 0.051138 0.003919
endloop
endfacet
facet normal -0.494735 -0.856906 -0.144741
outer loop
vertex -0.149304 0.057398 0.023320
vertex -0.149022 0.057887 0.019465
vertex -0.080606 0.018387 0.019465
endloop
endfacet
facet normal -0.477483 -0.827024 -0.296718
outer loop
vertex -0.080606 0.018387 0.019465
vertex -0.149022 0.057887 0.019465
vertex -0.080028 0.019388 0.015744
endloop
endfacet
facet normal -0.494734 -0.856906 -0.144743
outer loop
vertex -0.149304 0.057398 0.023320
vertex -0.080606 0.018387 0.019465
vertex -0.080888 0.017898 0.023320
endloop
endfacet
facet normal -0.499971 -0.865975 0.010755
outer loop
vertex -0.149283 0.057435 0.027216
vertex -0.149304 0.057398 0.023320
vertex -0.080888 0.017898 0.023320
endloop
endfacet
facet normal -0.499971 -0.865976 0.010753
outer loop
vertex -0.149283 0.057435 0.027216
vertex -0.080888 0.017898 0.023320
vertex -0.080867 0.017935 0.027216
endloop
endfacet
facet normal -0.493064 -0.854012 0.165985
outer loop
vertex -0.148959 0.057995 0.031058
vertex -0.149283 0.057435 0.027216
vertex -0.080867 0.017935 0.027216
endloop
endfacet
facet normal -0.493065 -0.854012 0.165986
outer loop
vertex -0.148959 0.057995 0.031058
vertex -0.080867 0.017935 0.027216
vertex -0.080543 0.018495 0.031058
endloop
endfacet
facet normal -0.474181 -0.821306 0.317187
outer loop
vertex -0.148342 0.059065 0.034753
vertex -0.148959 0.057995 0.031058
vertex -0.080543 0.018495 0.031058
endloop
endfacet
facet normal -0.474181 -0.821307 0.317188
outer loop
vertex -0.148342 0.059065 0.034753
vertex -0.080543 0.018495 0.031058
vertex -0.079926 0.019565 0.034753
endloop
endfacet
facet normal -0.443782 -0.768653 0.460684
outer loop
vertex -0.147444 0.060619 0.038211
vertex -0.148342 0.059065 0.034753
vertex -0.079926 0.019565 0.034753
endloop
endfacet
facet normal -0.443783 -0.768653 0.460683
outer loop
vertex -0.147444 0.060619 0.038211
vertex -0.079926 0.019565 0.034753
vertex -0.079028 0.021119 0.038211
endloop
endfacet
facet normal -0.402604 -0.697331 0.592992
outer loop
vertex -0.146289 0.062620 0.041348
vertex -0.147444 0.060619 0.038211
vertex -0.079028 0.021119 0.038211
endloop
endfacet
facet normal -0.402602 -0.697330 0.592994
outer loop
vertex -0.146289 0.062620 0.041348
vertex -0.079028 0.021119 0.038211
vertex -0.077873 0.023120 0.041348
endloop
endfacet
facet normal -0.351648 -0.609071 0.710898
outer loop
vertex -0.144904 0.065019 0.044088
vertex -0.146289 0.062620 0.041348
vertex -0.077873 0.023120 0.041348
endloop
endfacet
facet normal -0.351648 -0.609072 0.710898
outer loop
vertex -0.144904 0.065019 0.044088
vertex -0.077873 0.023120 0.041348
vertex -0.076488 0.025519 0.044088
endloop
endfacet
facet normal -0.292147 -0.506019 0.811538
outer loop
vertex -0.103248 0.042431 0.045000
vertex -0.144271 0.066115 0.045000
vertex -0.144904 0.065019 0.044088
endloop
endfacet
facet normal -0.292148 -0.506018 0.811539
outer loop
vertex -0.103248 0.042431 0.045000
vertex -0.144904 0.065019 0.044088
vertex -0.076488 0.025519 0.044088
endloop
endfacet
facet normal -0.292151 -0.506018 0.811538
outer loop
vertex -0.076488 0.025519 0.044088
vertex -0.075855 0.026615 0.045000
vertex -0.103248 0.042431 0.045000
endloop
endfacet
facet normal 0.292151 0.506022 0.811536
outer loop
vertex -0.129393 0.091885 0.045000
vertex -0.102000 0.076069 0.045000
vertex -0.128760 0.092981 0.044088
endloop
endfacet
facet normal 0.292148 0.506016 0.811540
outer loop
vertex -0.060344 0.053481 0.044088
vertex -0.128760 0.092981 0.044088
vertex -0.102000 0.076069 0.045000
endloop
endfacet
facet normal 0.292149 0.506020 0.811537
outer loop
vertex -0.060344 0.053481 0.044088
vertex -0.102000 0.076069 0.045000
vertex -0.060977 0.052385 0.045000
endloop
endfacet
facet normal 0.351647 0.609071 0.710899
outer loop
vertex -0.127375 0.095380 0.041348
vertex -0.128760 0.092981 0.044088
vertex -0.060344 0.053481 0.044088
endloop
endfacet
facet normal 0.351649 0.609073 0.710896
outer loop
vertex -0.127375 0.095380 0.041348
vertex -0.060344 0.053481 0.044088
vertex -0.058959 0.055880 0.041348
endloop
endfacet
facet normal 0.402604 0.697331 0.592992
outer loop
vertex -0.126220 0.097381 0.038211
vertex -0.127375 0.095380 0.041348
vertex -0.058959 0.055880 0.041348
endloop
endfacet
facet normal 0.402604 0.697329 0.592994
outer loop
vertex -0.126220 0.097381 0.038211
vertex -0.058959 0.055880 0.041348
vertex -0.057804 0.057881 0.038211
endloop
endfacet
facet normal 0.443782 0.768653 0.460684
outer loop
vertex -0.125322 0.098935 0.034753
vertex -0.126220 0.097381 0.038211
vertex -0.057804 0.057881 0.038211
endloop
endfacet
facet normal 0.443782 0.768654 0.460683
outer loop
vertex -0.125322 0.098935 0.034753
vertex -0.057804 0.057881 0.038211
vertex -0.056906 0.059435 0.034753
endloop
endfacet
facet normal 0.474181 0.821307 0.317186
outer loop
vertex -0.124705 0.100005 0.031058
vertex -0.125322 0.098935 0.034753
vertex -0.056906 0.059435 0.034753
endloop
endfacet
facet normal 0.474181 0.821306 0.317189
outer loop
vertex -0.124705 0.100005 0.031058
vertex -0.056906 0.059435 0.034753
vertex -0.056289 0.060505 0.031058
endloop
endfacet
facet normal 0.493065 0.854012 0.165985
outer loop
vertex -0.124381 0.100565 0.027216
vertex -0.124705 0.100005 0.031058
vertex -0.056289 0.060505 0.031058
endloop
endfacet
facet normal 0.493064 0.854012 0.165984
outer loop
vertex -0.124381 0.100565 0.027216
vertex -0.056289 0.060505 0.031058
vertex -0.055965 0.061065 0.027216
endloop
endfacet
facet normal 0.499971 0.865975 0.010754
outer loop
vertex -0.124360 0.100602 0.023320
vertex -0.124381 0.100565 0.027216
vertex -0.055965 0.061065 0.027216
endloop
endfacet
facet normal 0.499971 0.865975 0.010753
outer loop
vertex -0.124360 0.100602 0.023320
vertex -0.055965 0.061065 0.027216
vertex -0.055944 0.061102 0.023320
endloop
endfacet
facet normal 0.494735 0.856906 -0.144741
outer loop
vertex -0.124642 0.100113 0.019465
vertex -0.124360 0.100602 0.023320
vertex -0.055944 0.061102 0.023320
endloop
endfacet
facet normal 0.494735 0.856906 -0.144737
outer loop
vertex -0.124642 0.100113 0.019465
vertex -0.055944 0.061102 0.023320
vertex -0.056226 0.060613 0.019465
endloop
endfacet
facet normal 0.477482 0.827023 -0.296723
outer loop
vertex -0.125220 0.099112 0.015744
vertex -0.124642 0.100113 0.019465
vertex -0.056226 0.060613 0.019465
endloop
endfacet
facet normal 0.477483 0.827024 -0.296718
outer loop
vertex -0.125220 0.099112 0.015744
vertex -0.056226 0.060613 0.019465
vertex -0.056804 0.059612 0.015744
endloop
endfacet
facet normal 0.448633 0.777055 -0.441491
outer loop
vertex -0.126080 0.097622 0.012248
vertex -0.125220 0.099112 0.015744
vertex -0.056804 0.059612 0.015744
endloop
endfacet
facet normal 0.448633 0.777056 -0.441490
outer loop
vertex -0.126080 0.097622 0.012248
vertex -0.056804 0.059612 0.015744
vertex -0.057664 0.058122 0.012248
endloop
endfacet
facet normal 0.408886 0.708212 -0.575541
outer loop
vertex -0.127202 0.095681 0.009062
vertex -0.126080 0.097622 0.012248
vertex -0.057664 0.058122 0.012248
endloop
endfacet
facet normal 0.408887 0.708213 -0.575540
outer loop
vertex -0.127202 0.095681 0.009062
vertex -0.057664 0.058122 0.012248
vertex -0.058786 0.056181 0.009062
endloop
endfacet
facet normal 0.359210 0.622170 -0.695609
outer loop
vertex -0.128557 0.093333 0.006263
vertex -0.127202 0.095681 0.009062
vertex -0.058786 0.056181 0.009062
endloop
endfacet
facet normal 0.359210 0.622170 -0.695610
outer loop
vertex -0.128557 0.093333 0.006263
vertex -0.058786 0.056181 0.009062
vertex -0.060141 0.053833 0.006263
endloop
endfacet
facet normal 0.300808 0.521015 -0.798786
outer loop
vertex -0.130113 0.090638 0.003919
vertex -0.128557 0.093333 0.006263
vertex -0.060141 0.053833 0.006263
endloop
endfacet
facet normal 0.300808 0.521014 -0.798786
outer loop
vertex -0.130113 0.090638 0.003919
vertex -0.060141 0.053833 0.006263
vertex -0.061697 0.051138 0.003919
endloop
endfacet
facet normal -0.500000 -0.866025 0.000000
outer loop
vertex 0.200248 -0.127160 0.000000
vertex 0.200248 -0.127160 0.002087
vertex -0.210248 0.109840 0.000000
endloop
endfacet
facet normal -0.500000 -0.866026 0.000000
outer loop
vertex -0.210248 0.109840 0.000000
vertex 0.200248 -0.127160 0.002087
vertex -0.210248 0.109840 0.002087
endloop
endfacet
facet normal -0.866026 0.499999 0.000000
outer loop
vertex -0.210248 0.109840 0.000000
vertex -0.210248 0.109840 0.002087
vertex -0.200248 0.127160 0.000000
endloop
endfacet
facet normal -0.866025 0.500000 0.000000
outer loop
vertex -0.200248 0.127160 0.000000
vertex -0.210248 0.109840 0.002087
vertex -0.200248 0.127160 0.002087
endloop
endfacet
facet normal -0.866025 0.500000 0.000007
outer loop
vertex -0.200248 0.127160 0.002087
vertex -0.210248 0.109840 0.002087
vertex -0.198574 0.130059 0.003861
endloop
endfacet
facet normal -0.866025 0.500001 0.000000
outer loop
vertex -0.198574 0.130059 0.003861
vertex -0.210248 0.109840 0.002087
vertex -0.197054 0.132692 0.006120
endloop
endfacet
facet normal -0.866025 0.500001 0.000000
outer loop
vertex -0.197054 0.132692 0.006120
vertex -0.210248 0.109840 0.002087
vertex -0.195722 0.135000 0.008813
endloop
endfacet
facet normal -0.866025 0.500001 0.000000
outer loop
vertex -0.195722 0.135000 0.008813
vertex -0.210248 0.109840 0.002087
vertex -0.194608 0.136928 0.011878
endloop
endfacet
facet normal -0.866024 0.500003 0.000000
outer loop
vertex -0.194608 0.136928 0.011878
vertex -0.210248 0.109840 0.002087
vertex -0.193739 0.138434 0.015243
endloop
endfacet
facet normal -0.866028 0.499996 0.000000
outer loop
vertex -0.193739 0.138434 0.015243
vertex -0.210248 0.109840 0.002087
vertex -0.193134 0.139482 0.018833
endloop
endfacet
facet normal -0.866026 0.499999 0.000004
outer loop
vertex -0.193134 0.139482 0.018833
vertex -0.210248 0.109840 0.002087
vertex -0.192808 0.140048 0.022564
endloop
endfacet
facet normal -0.866027 0.499997 -0.000004
outer loop
vertex -0.192808 0.140048 0.022564
vertex -0.210248 0.109840 0.002087
vertex -0.192766 0.140119 0.026352
endloop
endfacet
facet normal -0.866024 0.500002 -0.000003
outer loop
vertex -0.192766 0.140119 0.026352
vertex -0.210248 0.109840 0.002087
vertex -0.193012 0.139694 0.030108
endloop
endfacet
facet normal -0.866026 0.499999 0.000003
outer loop
vertex -0.193012 0.139694 0.030108
vertex -0.210248 0.109840 0.002087
vertex -0.193538 0.138782 0.033747
endloop
endfacet
facet normal -0.866024 0.500003 -0.000003
outer loop
vertex -0.193538 0.138782 0.033747
vertex -0.210248 0.109840 0.002087
vertex -0.194333 0.137405 0.037185
endloop
endfacet
facet normal -0.866028 0.499995 0.000000
outer loop
vertex -0.194333 0.137405 0.037185
vertex -0.210248 0.109840 0.002087
vertex -0.195379 0.135594 0.040343
endloop
endfacet
facet normal -0.866022 0.500006 0.000000
outer loop
vertex -0.195379 0.135594 0.040343
vertex -0.210248 0.109840 0.002087
vertex -0.196651 0.133390 0.043149
endloop
endfacet
facet normal -0.866024 0.500002 0.000000
outer loop
vertex -0.196651 0.133390 0.043149
vertex -0.210248 0.109840 0.002087
vertex -0.198272 0.130584 0.045000
endloop
endfacet
facet normal -0.866028 0.499995 -0.000008
outer loop
vertex -0.196651 0.133390 0.043149
vertex -0.198272 0.130584 0.045000
vertex -0.197790 0.131418 0.045000
endloop
endfacet
facet normal -0.866024 0.500002 0.000000
outer loop
vertex -0.200323 0.127031 0.045000
vertex -0.198272 0.130584 0.045000
vertex -0.210248 0.109840 0.002087
endloop
endfacet
facet normal -0.866027 0.499997 0.000000
outer loop
vertex -0.202235 0.123719 0.045000
vertex -0.200323 0.127031 0.045000
vertex -0.210248 0.109840 0.002087
endloop
endfacet
facet normal -0.866023 0.500004 -0.000002
outer loop
vertex -0.202235 0.123719 0.045000
vertex -0.210248 0.109840 0.002087
vertex -0.211922 0.106941 0.003861
endloop
endfacet
facet normal -0.866021 0.500007 0.000000
outer loop
vertex -0.202235 0.123719 0.045000
vertex -0.211922 0.106941 0.003861
vertex -0.202407 0.123422 0.045000
endloop
endfacet
facet normal -0.866026 0.499998 0.000001
outer loop
vertex -0.202407 0.123422 0.045000
vertex -0.211922 0.106941 0.003861
vertex -0.213442 0.104308 0.006120
endloop
endfacet
facet normal -0.866019 0.500012 0.000000
outer loop
vertex -0.202407 0.123422 0.045000
vertex -0.213442 0.104308 0.006120
vertex -0.202591 0.123102 0.045000
endloop
endfacet
facet normal -0.866028 0.499996 0.000000
outer loop
vertex -0.202591 0.123102 0.045000
vertex -0.213442 0.104308 0.006120
vertex -0.214774 0.102000 0.008813
endloop
endfacet
facet normal -0.866032 0.499989 0.000000
outer loop
vertex -0.202591 0.123102 0.045000
vertex -0.214774 0.102000 0.008813
vertex -0.202792 0.122754 0.045000
endloop
endfacet
facet normal -0.866026 0.499999 -0.000002
outer loop
vertex -0.202792 0.122754 0.045000
vertex -0.214774 0.102000 0.008813
vertex -0.215888 0.100072 0.011878
endloop
endfacet
facet normal -0.865982 0.500075 0.000000
outer loop
vertex -0.202792 0.122754 0.045000
vertex -0.215888 0.100072 0.011878
vertex -0.203014 0.122370 0.045000
endloop
endfacet
facet normal -0.866028 0.499995 0.000001
outer loop
vertex -0.203014 0.122370 0.045000
vertex -0.215888 0.100072 0.011878
vertex -0.216757 0.098566 0.015243
endloop
endfacet
facet normal -0.866038 0.499978 0.000016
outer loop
vertex -0.203014 0.122370 0.045000
vertex -0.216757 0.098566 0.015243
vertex -0.203264 0.121937 0.045000
endloop
endfacet
facet normal -0.866024 0.500002 -0.000001
outer loop
vertex -0.203264 0.121937 0.045000
vertex -0.216757 0.098566 0.015243
vertex -0.217362 0.097518 0.018833
endloop
endfacet
facet normal -0.866017 0.500015 0.000000
outer loop
vertex -0.203264 0.121937 0.045000
vertex -0.217362 0.097518 0.018833
vertex -0.203551 0.121440 0.045000
endloop
endfacet
facet normal -0.866027 0.499997 -0.000002
outer loop
vertex -0.203551 0.121440 0.045000
vertex -0.217362 0.097518 0.018833
vertex -0.217689 0.096952 0.022564
endloop
endfacet
facet normal -0.866038 0.499978 0.000000
outer loop
vertex -0.203551 0.121440 0.045000
vertex -0.217689 0.096952 0.022564
vertex -0.203888 0.120856 0.045000
endloop
endfacet
facet normal -0.866023 0.500004 0.000001
outer loop
vertex -0.203888 0.120856 0.045000
vertex -0.217689 0.096952 0.022564
vertex -0.217730 0.096881 0.026352
endloop
endfacet
facet normal -0.866046 0.499965 0.000000
outer loop
vertex -0.203888 0.120856 0.045000
vertex -0.217730 0.096881 0.026352
vertex -0.204294 0.120152 0.045000
endloop
endfacet
facet normal -0.866022 0.500005 -0.000002
outer loop
vertex -0.204294 0.120152 0.045000
vertex -0.217730 0.096881 0.026352
vertex -0.217484 0.097306 0.030108
endloop
endfacet
facet normal -0.866027 0.499997 0.000000
outer loop
vertex -0.204294 0.120152 0.045000
vertex -0.217484 0.097306 0.030108
vertex -0.204801 0.119275 0.045000
endloop
endfacet
facet normal -0.866029 0.499994 -0.000004
outer loop
vertex -0.206755 0.115890 0.045000
vertex -0.204801 0.119275 0.045000
vertex -0.217484 0.097306 0.030108
endloop
endfacet
facet normal -0.866020 0.500009 0.000002
outer loop
vertex -0.206755 0.115890 0.045000
vertex -0.217484 0.097306 0.030108
vertex -0.216958 0.098218 0.033747
endloop
endfacet
facet normal -0.866030 0.499992 0.000000
outer loop
vertex -0.206755 0.115890 0.045000
vertex -0.216958 0.098218 0.033747
vertex -0.207374 0.114819 0.045000
endloop
endfacet
facet normal -0.866026 0.500000 -0.000001
outer loop
vertex -0.207374 0.114819 0.045000
vertex -0.216958 0.098218 0.033747
vertex -0.216163 0.099595 0.037185
endloop
endfacet
facet normal -0.866038 0.499978 0.000019
outer loop
vertex -0.207374 0.114819 0.045000
vertex -0.216163 0.099595 0.037185
vertex -0.208176 0.113429 0.045000
endloop
endfacet
facet normal -0.866022 0.500005 -0.000005
outer loop
vertex -0.208176 0.113429 0.045000
vertex -0.216163 0.099595 0.037185
vertex -0.215117 0.101406 0.040343
endloop
endfacet
facet normal -0.866028 0.499995 0.000000
outer loop
vertex -0.208176 0.113429 0.045000
vertex -0.215117 0.101406 0.040343
vertex -0.209273 0.111528 0.045000
endloop
endfacet
facet normal -0.866021 0.500008 0.000003
outer loop
vertex -0.209273 0.111528 0.045000
vertex -0.215117 0.101406 0.040343
vertex -0.213845 0.103610 0.043149
endloop
endfacet
facet normal -0.866028 0.499996 0.000000
outer loop
vertex -0.209273 0.111528 0.045000
vertex -0.213845 0.103610 0.043149
vertex -0.210888 0.108731 0.045000
endloop
endfacet
facet normal -0.866024 0.500002 -0.000009
outer loop
vertex -0.212706 0.105582 0.045000
vertex -0.210888 0.108731 0.045000
vertex -0.213845 0.103610 0.043149
endloop
endfacet
facet normal 0.866025 -0.500000 0.000000
outer loop
vertex 0.200248 -0.127160 0.000000
vertex 0.210248 -0.109840 0.000000
vertex 0.200248 -0.127160 0.002087
endloop
endfacet
facet normal 0.866026 -0.499999 0.000000
outer loop
vertex 0.200248 -0.127160 0.002087
vertex 0.210248 -0.109840 0.000000
vertex 0.210248 -0.109840 0.002087
endloop
endfacet
facet normal 0.866025 -0.500000 -0.000004
outer loop
vertex 0.200248 -0.127160 0.002087
vertex 0.210248 -0.109840 0.002087
vertex 0.211922 -0.106941 0.003861
endloop
endfacet
facet normal 0.866025 -0.500001 0.000000
outer loop
vertex 0.211922 -0.106941 0.003861
vertex 0.213442 -0.104308 0.006120
vertex 0.200248 -0.127160 0.002087
endloop
endfacet
facet normal 0.866026 -0.500000 0.000002
outer loop
vertex 0.200248 -0.127160 0.002087
vertex 0.213442 -0.104308 0.006120
vertex 0.214774 -0.102000 0.008813
endloop
endfacet
facet normal 0.866026 -0.499999 -0.000002
outer loop
vertex 0.200248 -0.127160 0.002087
vertex 0.214774 -0.102000 0.008813
vertex 0.215888 -0.100072 0.011878
endloop
endfacet
facet normal 0.866023 -0.500003 0.000003
outer loop
vertex 0.215888 -0.100072 0.011878
vertex 0.216757 -0.098566 0.015243
vertex 0.200248 -0.127160 0.002087
endloop
endfacet
facet normal 0.866028 -0.499996 -0.000002
outer loop
vertex 0.200248 -0.127160 0.002087
vertex 0.216757 -0.098566 0.015243
vertex 0.217362 -0.097518 0.018833
endloop
endfacet
facet normal 0.866025 -0.500001 -0.000002
outer loop
vertex 0.200248 -0.127160 0.002087
vertex 0.217362 -0.097518 0.018833
vertex 0.217689 -0.096952 0.022564
endloop
endfacet
facet normal 0.866028 -0.499996 0.000000
outer loop
vertex 0.217689 -0.096952 0.022564
vertex 0.217730 -0.096881 0.026352
vertex 0.200248 -0.127160 0.002087
endloop
endfacet
facet normal 0.866023 -0.500004 0.000000
outer loop
vertex 0.200248 -0.127160 0.002087
vertex 0.217730 -0.096881 0.026352
vertex 0.217484 -0.097306 0.030108
endloop
endfacet
facet normal 0.866028 -0.499996 -0.000001
outer loop
vertex 0.200248 -0.127160 0.002087
vertex 0.217484 -0.097306 0.030108
vertex 0.216958 -0.098218 0.033747
endloop
endfacet
facet normal 0.866022 -0.500006 0.000001
outer loop
vertex 0.216958 -0.098218 0.033747
vertex 0.216163 -0.099595 0.037185
vertex 0.200248 -0.127160 0.002087
endloop
endfacet
facet normal 0.866029 -0.499994 -0.000002
outer loop
vertex 0.200248 -0.127160 0.002087
vertex 0.216163 -0.099595 0.037185
vertex 0.215117 -0.101406 0.040343
endloop
endfacet
facet normal 0.866022 -0.500005 0.000001
outer loop
vertex 0.200248 -0.127160 0.002087
vertex 0.215117 -0.101406 0.040343
vertex 0.213845 -0.103610 0.043149
endloop
endfacet
facet normal 0.866029 -0.499993 0.000000
outer loop
vertex 0.212225 -0.106416 0.045000
vertex 0.200248 -0.127160 0.002087
vertex 0.213845 -0.103610 0.043149
endloop
endfacet
facet normal 0.866020 -0.500009 0.000000
outer loop
vertex 0.212225 -0.106416 0.045000
vertex 0.213845 -0.103610 0.043149
vertex 0.212706 -0.105582 0.045000
endloop
endfacet
facet normal 0.866023 -0.500004 0.000001
outer loop
vertex 0.210173 -0.109969 0.045000
vertex 0.200248 -0.127160 0.002087
vertex 0.212225 -0.106416 0.045000
endloop
endfacet
facet normal 0.866023 -0.500005 -0.000001
outer loop
vertex 0.208261 -0.113281 0.045000
vertex 0.200248 -0.127160 0.002087
vertex 0.210173 -0.109969 0.045000
endloop
endfacet
facet normal 0.866028 -0.499995 0.000000
outer loop
vertex 0.203741 -0.121110 0.045000
vertex 0.193012 -0.139694 0.030108
vertex 0.205696 -0.117725 0.045000
endloop
endfacet
facet normal 0.866025 -0.500000 0.000000
outer loop
vertex 0.193012 -0.139694 0.030108
vertex 0.192766 -0.140119 0.026352
vertex 0.206202 -0.116848 0.045000
endloop
endfacet
facet normal 0.866013 -0.500022 0.000002
outer loop
vertex 0.193012 -0.139694 0.030108
vertex 0.206202 -0.116848 0.045000
vertex 0.205696 -0.117725 0.045000
endloop
endfacet
facet normal 0.866025 -0.500001 -0.000002
outer loop
vertex 0.192766 -0.140119 0.026352
vertex 0.192808 -0.140048 0.022564
vertex 0.206608 -0.116144 0.045000
endloop
endfacet
facet normal 0.866032 -0.499989 0.000002
outer loop
vertex 0.192766 -0.140119 0.026352
vertex 0.206608 -0.116144 0.045000
vertex 0.206202 -0.116848 0.045000
endloop
endfacet
facet normal 0.866028 -0.499996 -0.000009
outer loop
vertex 0.197790 -0.131418 0.045000
vertex 0.196651 -0.133390 0.043149
vertex 0.199608 -0.128269 0.045000
endloop
endfacet
facet normal 0.866026 -0.499999 0.000011
outer loop
vertex 0.196651 -0.133390 0.043149
vertex 0.195379 -0.135594 0.040343
vertex 0.201223 -0.125472 0.045000
endloop
endfacet
facet normal 0.866029 -0.499994 -0.000005
outer loop
vertex 0.196651 -0.133390 0.043149
vertex 0.201223 -0.125472 0.045000
vertex 0.199608 -0.128269 0.045000
endloop
endfacet
facet normal 0.866022 -0.500006 0.000007
outer loop
vertex 0.195379 -0.135594 0.040343
vertex 0.194333 -0.137405 0.037185
vertex 0.202320 -0.123571 0.045000
endloop
endfacet
facet normal 0.866022 -0.500006 0.000000
outer loop
vertex 0.195379 -0.135594 0.040343
vertex 0.202320 -0.123571 0.045000
vertex 0.201223 -0.125472 0.045000
endloop
endfacet
facet normal 0.866024 -0.500003 -0.000005
outer loop
vertex 0.194333 -0.137405 0.037185
vertex 0.193538 -0.138782 0.033747
vertex 0.203123 -0.122181 0.045000
endloop
endfacet
facet normal 0.866038 -0.499977 0.000000
outer loop
vertex 0.194333 -0.137405 0.037185
vertex 0.203123 -0.122181 0.045000
vertex 0.202320 -0.123571 0.045000
endloop
endfacet
facet normal 0.866025 -0.500001 0.000000
outer loop
vertex 0.193538 -0.138782 0.033747
vertex 0.193012 -0.139694 0.030108
vertex 0.203741 -0.121110 0.045000
endloop
endfacet
facet normal 0.866031 -0.499991 -0.000004
outer loop
vertex 0.193538 -0.138782 0.033747
vertex 0.203741 -0.121110 0.045000
vertex 0.203123 -0.122181 0.045000
endloop
endfacet
facet normal 0.866022 -0.500005 0.000000
outer loop
vertex 0.192808 -0.140048 0.022564
vertex 0.193134 -0.139482 0.018833
vertex 0.206945 -0.115560 0.045000
endloop
endfacet
facet normal 0.866036 -0.499982 0.000010
outer loop
vertex 0.192808 -0.140048 0.022564
vertex 0.206945 -0.115560 0.045000
vertex 0.206608 -0.116144 0.045000
endloop
endfacet
facet normal 0.866025 -0.500001 -0.000005
outer loop
vertex 0.193134 -0.139482 0.018833
vertex 0.193739 -0.138434 0.015243
vertex 0.207232 -0.115063 0.045000
endloop
endfacet
facet normal 0.866043 -0.499970 0.000020
outer loop
vertex 0.193134 -0.139482 0.018833
vertex 0.207232 -0.115063 0.045000
vertex 0.206945 -0.115560 0.045000
endloop
endfacet
facet normal 0.866029 -0.499995 0.000000
outer loop
vertex 0.193739 -0.138434 0.015243
vertex 0.194608 -0.136928 0.011878
vertex 0.207482 -0.114630 0.045000
endloop
endfacet
facet normal 0.866038 -0.499978 0.000003
outer loop
vertex 0.193739 -0.138434 0.015243
vertex 0.207482 -0.114630 0.045000
vertex 0.207232 -0.115063 0.045000
endloop
endfacet
facet normal 0.866024 -0.500003 0.000002
outer loop
vertex 0.194608 -0.136928 0.011878
vertex 0.195722 -0.135000 0.008813
vertex 0.207704 -0.114246 0.045000
endloop
endfacet
facet normal 0.866009 -0.500028 -0.000007
outer loop
vertex 0.194608 -0.136928 0.011878
vertex 0.207704 -0.114246 0.045000
vertex 0.207482 -0.114630 0.045000
endloop
endfacet
facet normal 0.866026 -0.499999 0.000001
outer loop
vertex 0.195722 -0.135000 0.008813
vertex 0.197054 -0.132692 0.006120
vertex 0.207905 -0.113898 0.045000
endloop
endfacet
facet normal 0.866034 -0.499986 -0.000007
outer loop
vertex 0.195722 -0.135000 0.008813
vertex 0.207905 -0.113898 0.045000
vertex 0.207704 -0.114246 0.045000
endloop
endfacet
facet normal 0.866029 -0.499995 -0.000001
outer loop
vertex 0.197054 -0.132692 0.006120
vertex 0.198574 -0.130059 0.003861
vertex 0.208089 -0.113578 0.045000
endloop
endfacet
facet normal 0.866019 -0.500012 0.000001
outer loop
vertex 0.197054 -0.132692 0.006120
vertex 0.208089 -0.113578 0.045000
vertex 0.207905 -0.113898 0.045000
endloop
endfacet
facet normal 0.866026 -0.499999 0.000001
outer loop
vertex 0.198574 -0.130059 0.003861
vertex 0.200248 -0.127160 0.002087
vertex 0.208261 -0.113281 0.045000
endloop
endfacet
facet normal 0.866021 -0.500008 0.000008
outer loop
vertex 0.198574 -0.130059 0.003861
vertex 0.208261 -0.113281 0.045000
vertex 0.208089 -0.113578 0.045000
endloop
endfacet
facet normal 0.000000 0.000000 1.000000
outer loop
vertex 0.212225 -0.106416 0.045000
vertex 0.212706 -0.105582 0.045000
vertex 0.187315 -0.090877 0.045000
endloop
endfacet
facet normal 1.000000 0.000000 0.000000
outer loop
vertex 0.144271 -0.066115 0.045000
vertex 0.103248 -0.042431 0.045000
vertex 0.075855 -0.026615 0.045000
endloop
endfacet
facet normal -0.000004 0.000000 1.000000
outer loop
vertex 0.212225 -0.106416 0.045000
vertex 0.187315 -0.090877 0.045000
vertex 0.144271 -0.066115 0.045000
endloop
endfacet
facet normal 0.000000 0.000000 0.000000
outer loop
vertex 0.208089 -0.113578 0.045000
vertex 0.208261 -0.113281 0.045000
vertex 0.210173 -0.109969 0.045000
endloop
endfacet
facet normal 0.000001 0.000000 1.000000
outer loop
vertex 0.210173 -0.109969 0.045000
vertex 0.212225 -0.106416 0.045000
vertex 0.144271 -0.066115 0.045000
endloop
endfacet
facet normal 0.624695 0.000000 0.780869
outer loop
vertex 0.075855 -0.026615 0.045000
vertex 0.034832 -0.002931 0.045000
vertex 0.007439 0.012885 0.045000
endloop
endfacet
facet normal -0.000001 0.000000 1.000000
outer loop
vertex 0.210173 -0.109969 0.045000
vertex 0.144271 -0.066115 0.045000
vertex 0.075855 -0.026615 0.045000
endloop
endfacet
facet normal 0.000000 0.000000 0.000000
outer loop
vertex 0.207905 -0.113898 0.045000
vertex 0.208089 -0.113578 0.045000
vertex 0.210173 -0.109969 0.045000
endloop
endfacet
facet normal 0.000000 0.000000 1.000000
outer loop
vertex 0.207704 -0.114246 0.045000
vertex 0.207905 -0.113898 0.045000
vertex 0.210173 -0.109969 0.045000
endloop
endfacet
facet normal 0.000001 0.000000 1.000000
outer loop
vertex 0.210173 -0.109969 0.045000
vertex 0.075855 -0.026615 0.045000
vertex 0.007439 0.012885 0.045000
endloop
endfacet
facet normal 0.447214 0.000000 0.894427
outer loop
vertex -0.033584 0.036569 0.045000
vertex -0.060977 0.052385 0.045000
vertex -0.102000 0.076069 0.045000
endloop
endfacet
facet normal -0.000007 0.000000 1.000000
outer loop
vertex 0.210173 -0.109969 0.045000
vertex 0.007439 0.012885 0.045000
vertex -0.033584 0.036569 0.045000
endloop
endfacet
facet normal 0.000000 0.000000 0.000000
outer loop
vertex 0.207482 -0.114630 0.045000
vertex 0.207704 -0.114246 0.045000
vertex 0.210173 -0.109969 0.045000
endloop
endfacet
facet normal 0.000000 0.000000 1.000000
outer loop
vertex 0.206945 -0.115560 0.045000
vertex 0.207232 -0.115063 0.045000
vertex 0.207482 -0.114630 0.045000
endloop
endfacet
facet normal -0.447214 0.000000 0.894427
outer loop
vertex 0.206202 -0.116848 0.045000
vertex 0.206608 -0.116144 0.045000
vertex 0.206945 -0.115560 0.045000
endloop
endfacet
facet normal -0.707107 0.000000 -0.707107
outer loop
vertex 0.203123 -0.122181 0.045000
vertex 0.203741 -0.121110 0.045000
vertex 0.205696 -0.117725 0.045000
endloop
endfacet
facet normal 0.000000 0.000000 -1.000000
outer loop
vertex 0.205696 -0.117725 0.045000
vertex 0.206202 -0.116848 0.045000
vertex 0.206945 -0.115560 0.045000
endloop
endfacet
facet normal 0.000001 0.000000 1.000000
outer loop
vertex 0.207482 -0.114630 0.045000
vertex 0.210173 -0.109969 0.045000
vertex -0.033584 0.036569 0.045000
endloop
endfacet
facet normal -0.242536 0.000000 0.970143
outer loop
vertex 0.205696 -0.117725 0.045000
vertex 0.206945 -0.115560 0.045000
vertex 0.207482 -0.114630 0.045000
endloop
endfacet
facet normal 0.000000 0.000000 1.000000
outer loop
vertex 0.201223 -0.125472 0.045000
vertex 0.202320 -0.123571 0.045000
vertex 0.203123 -0.122181 0.045000
endloop
endfacet
facet normal 0.000000 0.000000 1.000000
outer loop
vertex 0.205696 -0.117725 0.045000
vertex 0.207482 -0.114630 0.045000
vertex -0.033584 0.036569 0.045000
endloop
endfacet
facet normal 0.000000 0.000000 0.000000
outer loop
vertex 0.201223 -0.125472 0.045000
vertex 0.203123 -0.122181 0.045000
vertex 0.205696 -0.117725 0.045000
endloop
endfacet
facet normal 0.707107 0.000000 0.707107
outer loop
vertex 0.197790 -0.131418 0.045000
vertex 0.199608 -0.128269 0.045000
vertex 0.201223 -0.125472 0.045000
endloop
endfacet
facet normal -0.000027 0.000000 1.000000
outer loop
vertex 0.129393 -0.091885 0.045000
vertex 0.172359 -0.116781 0.045000
vertex 0.197790 -0.131418 0.045000
endloop
endfacet
facet normal -0.447214 0.000000 0.894427
outer loop
vertex 0.033584 -0.036569 0.045000
vertex 0.060977 -0.052385 0.045000
vertex 0.102000 -0.076069 0.045000
endloop
endfacet
facet normal 0.000000 0.000000 1.000000
outer loop
vertex 0.129393 -0.091885 0.045000
vertex 0.197790 -0.131418 0.045000
vertex 0.201223 -0.125472 0.045000
endloop
endfacet
facet normal 0.000000 0.000000 1.000000
outer loop
vertex -0.007439 -0.012885 0.045000
vertex 0.033584 -0.036569 0.045000
vertex 0.102000 -0.076069 0.045000
endloop
endfacet
facet normal 0.000001 0.000000 1.000000
outer loop
vertex 0.102000 -0.076069 0.045000
vertex 0.129393 -0.091885 0.045000
vertex 0.201223 -0.125472 0.045000
endloop
endfacet
facet normal -0.000000 0.000000 1.000000
outer loop
vertex 0.201223 -0.125472 0.045000
vertex 0.205696 -0.117725 0.045000
vertex -0.033584 0.036569 0.045000
endloop
endfacet
facet normal -0.000000 0.000000 1.000000
outer loop
vertex 0.201223 -0.125472 0.045000
vertex -0.033584 0.036569 0.045000
vertex -0.102000 0.076069 0.045000
endloop
endfacet
facet normal 0.000001 0.000000 1.000000
outer loop
vertex -0.007439 -0.012885 0.045000
vertex 0.102000 -0.076069 0.045000
vertex 0.201223 -0.125472 0.045000
endloop
endfacet
facet normal -0.624695 0.000000 0.780869
outer loop
vertex -0.075855 0.026615 0.045000
vertex -0.034832 0.002931 0.045000
vertex -0.007439 -0.012885 0.045000
endloop
endfacet
facet normal -0.832050 0.000000 -0.554700
outer loop
vertex -0.144271 0.066115 0.045000
vertex -0.103248 0.042431 0.045000
vertex -0.075855 0.026615 0.045000
endloop
endfacet
facet normal 0.000000 0.000000 1.000000
outer loop
vertex -0.212706 0.105582 0.045000
vertex -0.187315 0.090877 0.045000
vertex -0.144271 0.066115 0.045000
endloop
endfacet
facet normal 0.000000 0.000000 1.000000
outer loop
vertex -0.208176 0.113429 0.045000
vertex -0.209273 0.111528 0.045000
vertex -0.210888 0.108731 0.045000
endloop
endfacet
facet normal 0.000000 0.000000 1.000000
outer loop
vertex -0.210888 0.108731 0.045000
vertex -0.212706 0.105582 0.045000
vertex -0.144271 0.066115 0.045000
endloop
endfacet
facet normal -0.000002 0.000000 1.000000
outer loop
vertex -0.075855 0.026615 0.045000
vertex -0.007439 -0.012885 0.045000
vertex 0.201223 -0.125472 0.045000
endloop
endfacet
facet normal 0.000001 0.000000 1.000000
outer loop
vertex -0.210888 0.108731 0.045000
vertex -0.144271 0.066115 0.045000
vertex -0.075855 0.026615 0.045000
endloop
endfacet
facet normal 0.000000 0.000000 0.000000
outer loop
vertex -0.206755 0.115890 0.045000
vertex -0.207374 0.114819 0.045000
vertex -0.208176 0.113429 0.045000
endloop
endfacet
facet normal -0.000001 0.000000 1.000000
outer loop
vertex -0.208176 0.113429 0.045000
vertex -0.210888 0.108731 0.045000
vertex -0.075855 0.026615 0.045000
endloop
endfacet
facet normal 0.000000 0.000000 1.000000
outer loop
vertex -0.075855 0.026615 0.045000
vertex 0.201223 -0.125472 0.045000
vertex -0.102000 0.076069 0.045000
endloop
endfacet
facet normal 0.000027 0.000000 1.000000
outer loop
vertex -0.129393 0.091885 0.045000
vertex -0.172359 0.116781 0.045000
vertex -0.197790 0.131418 0.045000
endloop
endfacet
facet normal 0.000000 0.000000 1.000000
outer loop
vertex -0.075855 0.026615 0.045000
vertex -0.102000 0.076069 0.045000
vertex -0.129393 0.091885 0.045000
endloop
endfacet
facet normal 0.000000 0.000000 1.000000
outer loop
vertex -0.206755 0.115890 0.045000
vertex -0.208176 0.113429 0.045000
vertex -0.075855 0.026615 0.045000
endloop
endfacet
facet normal 0.000000 0.000000 1.000000
outer loop
vertex -0.204294 0.120152 0.045000
vertex -0.204801 0.119275 0.045000
vertex -0.206755 0.115890 0.045000
endloop
endfacet
facet normal 0.447214 0.000000 0.894427
outer loop
vertex -0.203888 0.120856 0.045000
vertex -0.204294 0.120152 0.045000
vertex -0.206755 0.115890 0.045000
endloop
endfacet
facet normal 0.000000 0.000000 1.000000
outer loop
vertex -0.206755 0.115890 0.045000
vertex -0.075855 0.026615 0.045000
vertex -0.129393 0.091885 0.045000
endloop
endfacet
facet normal -0.000001 0.000000 1.000000
outer loop
vertex -0.129393 0.091885 0.045000
vertex -0.197790 0.131418 0.045000
vertex -0.198272 0.130584 0.045000
endloop
endfacet
facet normal 0.000000 0.000000 1.000000
outer loop
vertex -0.198272 0.130584 0.045000
vertex -0.200323 0.127031 0.045000
vertex -0.202235 0.123719 0.045000
endloop
endfacet
facet normal 0.000000 0.000000 0.000000
outer loop
vertex -0.202407 0.123422 0.045000
vertex -0.202591 0.123102 0.045000
vertex -0.202792 0.122754 0.045000
endloop
endfacet
facet normal 0.000000 0.000000 1.000000
outer loop
vertex -0.129393 0.091885 0.045000
vertex -0.198272 0.130584 0.045000
vertex -0.202235 0.123719 0.045000
endloop
endfacet
facet normal 0.000000 0.000000 1.000000
outer loop
vertex -0.202407 0.123422 0.045000
vertex -0.202792 0.122754 0.045000
vertex -0.203014 0.122370 0.045000
endloop
endfacet
facet normal -0.000007 0.000000 1.000000
outer loop
vertex -0.129393 0.091885 0.045000
vertex -0.202235 0.123719 0.045000
vertex -0.202407 0.123422 0.045000
endloop
endfacet
facet normal -0.000001 0.000000 1.000000
outer loop
vertex -0.203888 0.120856 0.045000
vertex -0.206755 0.115890 0.045000
vertex -0.129393 0.091885 0.045000
endloop
endfacet
facet normal 0.000000 0.000000 1.000000
outer loop
vertex -0.203551 0.121440 0.045000
vertex -0.203888 0.120856 0.045000
vertex -0.129393 0.091885 0.045000
endloop
endfacet
facet normal 0.000000 0.000000 1.000000
outer loop
vertex -0.129393 0.091885 0.045000
vertex -0.202407 0.123422 0.045000
vertex -0.203014 0.122370 0.045000
endloop
endfacet
facet normal 0.000005 0.000000 1.000000
outer loop
vertex -0.203264 0.121937 0.045000
vertex -0.203551 0.121440 0.045000
vertex -0.129393 0.091885 0.045000
endloop
endfacet
facet normal -0.000001 0.000000 1.000000
outer loop
vertex -0.129393 0.091885 0.045000
vertex -0.203014 0.122370 0.045000
vertex -0.203264 0.121937 0.045000
endloop
endfacet
solid cylinder
