solid cylinder
facet normal 0.000000 0.000000 -1.000000
outer loop
vertex 0.118794 -0.104652 0.000000
vertex 0.104652 -0.118794 0.000000
vertex -0.104652 0.118794 0.000000
endloop
endfacet
facet normal 0.000000 0.000000 -1.000000
outer loop
vertex -0.104652 0.118794 0.000000
vertex 0.104652 -0.118794 0.000000
vertex -0.118794 0.104652 0.000000
endloop
endfacet
facet normal 0.707107 0.707107 0.000000
outer loop
vertex 0.118794 -0.104652 0.002087
vertex 0.118794 -0.104652 0.000000
vertex -0.104652 0.118794 0.002087
endloop
endfacet
facet normal 0.707107 0.707107 0.000000
outer loop
vertex -0.104652 0.118794 0.002087
vertex 0.118794 -0.104652 0.000000
vertex -0.104652 0.118794 0.000000
endloop
endfacet
facet normal -0.331243 -0.331017 -0.883575
outer loop
vertex 0.102285 -0.121161 0.003861
vertex 0.064979 -0.083984 0.003919
vertex 0.104652 -0.118794 0.002087
endloop
endfacet
facet normal -0.332482 -0.332482 -0.882560
outer loop
vertex 0.104652 -0.118794 0.002087
vertex 0.064979 -0.083984 0.003919
vertex 0.027738 -0.046743 0.003919
endloop
endfacet
facet normal -0.332485 -0.332485 -0.882557
outer loop
vertex 0.104652 -0.118794 0.002087
vertex 0.027738 -0.046743 0.003919
vertex -0.009503 -0.009503 0.003919
endloop
endfacet
facet normal -0.425407 -0.425407 -0.798785
outer loop
vertex -0.009503 -0.009503 0.003919
vertex 0.027738 -0.046743 0.003919
vertex -0.011703 -0.011703 0.006263
endloop
endfacet
facet normal -0.425407 -0.425407 -0.798785
outer loop
vertex -0.009503 -0.009503 0.003919
vertex -0.011703 -0.011703 0.006263
vertex -0.048944 0.025538 0.006263
endloop
endfacet
facet normal -0.508000 -0.507999 -0.695610
outer loop
vertex -0.048944 0.025538 0.006263
vertex -0.011703 -0.011703 0.006263
vertex -0.050861 0.023621 0.009062
endloop
endfacet
facet normal -0.508000 -0.508000 -0.695609
outer loop
vertex -0.048944 0.025538 0.006263
vertex -0.050861 0.023621 0.009062
vertex -0.088101 0.060862 0.009062
endloop
endfacet
facet normal -0.578253 -0.578253 -0.575540
outer loop
vertex -0.088101 0.060862 0.009062
vertex -0.050861 0.023621 0.009062
vertex -0.089687 0.059277 0.012248
endloop
endfacet
facet normal -0.577850 -0.578656 -0.575541
outer loop
vertex -0.088101 0.060862 0.009062
vertex -0.089687 0.059277 0.012248
vertex -0.126769 0.096676 0.011878
endloop
endfacet
facet normal -0.628645 -0.627864 -0.458903
outer loop
vertex -0.126769 0.096676 0.011878
vertex -0.089687 0.059277 0.012248
vertex -0.127999 0.095447 0.015243
endloop
endfacet
facet normal -0.633975 -0.634951 -0.441490
outer loop
vertex -0.127999 0.095447 0.015243
vertex -0.089687 0.059277 0.012248
vertex -0.090903 0.058060 0.015744
endloop
endfacet
facet normal -0.670542 -0.669597 -0.319395
outer loop
vertex -0.127999 0.095447 0.015243
vertex -0.090903 0.058060 0.015744
vertex -0.128854 0.094592 0.018833
endloop
endfacet
facet normal -0.674695 -0.675828 -0.296720
outer loop
vertex -0.128854 0.094592 0.018833
vertex -0.090903 0.058060 0.015744
vertex -0.091721 0.057243 0.019465
endloop
endfacet
facet normal -0.697048 -0.695952 -0.172551
outer loop
vertex -0.128854 0.094592 0.018833
vertex -0.091721 0.057243 0.019465
vertex -0.129316 0.094129 0.022564
endloop
endfacet
facet normal -0.699021 -0.700300 -0.144743
outer loop
vertex -0.129316 0.094129 0.022564
vertex -0.091721 0.057243 0.019465
vertex -0.092120 0.056844 0.023320
endloop
endfacet
facet normal -0.707556 -0.706322 -0.021746
outer loop
vertex -0.129316 0.094129 0.022564
vertex -0.092120 0.056844 0.023320
vertex -0.129375 0.094071 0.026352
endloop
endfacet
facet normal -0.706361 -0.707771 0.010751
outer loop
vertex -0.129375 0.094071 0.026352
vertex -0.092120 0.056844 0.023320
vertex -0.092090 0.056874 0.027216
endloop
endfacet
facet normal -0.701827 -0.700466 0.129558
outer loop
vertex -0.129375 0.094071 0.026352
vertex -0.092090 0.056874 0.027216
vertex -0.129028 0.094418 0.030108
endloop
endfacet
facet normal -0.696532 -0.698062 0.165988
outer loop
vertex -0.129028 0.094418 0.030108
vertex -0.092090 0.056874 0.027216
vertex -0.091633 0.057331 0.031058
endloop
endfacet
facet normal -0.679994 -0.678519 0.277886
outer loop
vertex -0.129028 0.094418 0.030108
vertex -0.091633 0.057331 0.031058
vertex -0.128283 0.095162 0.033747
endloop
endfacet
facet normal -0.669774 -0.671413 0.317188
outer loop
vertex -0.128283 0.095162 0.033747
vertex -0.091633 0.057331 0.031058
vertex -0.090759 0.058205 0.034753
endloop
endfacet
facet normal -0.642558 -0.640983 0.419833
outer loop
vertex -0.128283 0.095162 0.033747
vertex -0.090759 0.058205 0.034753
vertex -0.127159 0.096287 0.037185
endloop
endfacet
facet normal -0.626736 -0.628468 0.460684
outer loop
vertex -0.127159 0.096287 0.037185
vertex -0.090759 0.058205 0.034753
vertex -0.089490 0.059474 0.038211
endloop
endfacet
facet normal -0.590379 -0.588716 0.552147
outer loop
vertex -0.127159 0.096287 0.037185
vertex -0.089490 0.059474 0.038211
vertex -0.125680 0.097766 0.040343
endloop
endfacet
facet normal -0.568460 -0.570275 0.592992
outer loop
vertex -0.125680 0.097766 0.040343
vertex -0.089490 0.059474 0.038211
vertex -0.087856 0.061108 0.041348
endloop
endfacet
facet normal -0.524660 -0.522921 0.671778
outer loop
vertex -0.125680 0.097766 0.040343
vertex -0.087856 0.061108 0.041348
vertex -0.123880 0.099565 0.043149
endloop
endfacet
facet normal -0.496363 -0.498246 0.710897
outer loop
vertex -0.123880 0.099565 0.043149
vertex -0.087856 0.061108 0.041348
vertex -0.085897 0.063066 0.044088
endloop
endfacet
facet normal -0.446908 -0.445106 0.775985
outer loop
vertex -0.123880 0.099565 0.043149
vertex -0.085897 0.063066 0.044088
vertex -0.121802 0.101644 0.045539
endloop
endfacet
facet normal -0.412191 -0.414133 0.811537
outer loop
vertex -0.121802 0.101644 0.045539
vertex -0.085897 0.063066 0.044088
vertex -0.083662 0.065302 0.046365
endloop
endfacet
facet normal -0.358909 -0.357056 0.862378
outer loop
vertex -0.121802 0.101644 0.045539
vertex -0.083662 0.065302 0.046365
vertex -0.119492 0.103954 0.047456
endloop
endfacet
facet normal -0.317993 -0.319978 0.892465
outer loop
vertex -0.119492 0.103954 0.047456
vertex -0.083662 0.065302 0.046365
vertex -0.081203 0.067761 0.048123
endloop
endfacet
facet normal -0.262686 -0.260795 0.928969
outer loop
vertex -0.119492 0.103954 0.047456
vertex -0.081203 0.067761 0.048123
vertex -0.117003 0.106442 0.048859
endloop
endfacet
facet normal -0.216052 -0.218070 0.951718
outer loop
vertex -0.117003 0.106442 0.048859
vertex -0.081203 0.067761 0.048123
vertex -0.078581 0.070383 0.049319
endloop
endfacet
facet normal -0.160445 -0.158528 0.974231
outer loop
vertex -0.117003 0.106442 0.048859
vertex -0.078581 0.070383 0.049319
vertex -0.114394 0.109052 0.049713
endloop
endfacet
facet normal -0.108847 -0.110882 0.987855
outer loop
vertex -0.114394 0.109052 0.049713
vertex -0.078581 0.070383 0.049319
vertex -0.075859 0.073104 0.049924
endloop
endfacet
facet normal -0.054536 -0.052609 0.997125
outer loop
vertex -0.114394 0.109052 0.049713
vertex -0.075859 0.073104 0.049924
vertex -0.111723 0.111723 0.050000
endloop
endfacet
facet normal 0.001020 -0.001021 0.999999
outer loop
vertex -0.111723 0.111723 0.050000
vertex -0.075859 0.073104 0.049924
vertex -0.073104 0.075859 0.049924
endloop
endfacet
facet normal 0.052610 0.054537 0.997125
outer loop
vertex -0.111723 0.111723 0.050000
vertex -0.073104 0.075859 0.049924
vertex -0.109052 0.114394 0.049713
endloop
endfacet
facet normal 0.110881 0.108847 0.987855
outer loop
vertex -0.109052 0.114394 0.049713
vertex -0.073104 0.075859 0.049924
vertex -0.070383 0.078581 0.049319
endloop
endfacet
facet normal 0.158530 0.160444 0.974231
outer loop
vertex -0.109052 0.114394 0.049713
vertex -0.070383 0.078581 0.049319
vertex -0.106442 0.117003 0.048859
endloop
endfacet
facet normal 0.218070 0.216054 0.951717
outer loop
vertex -0.106442 0.117003 0.048859
vertex -0.070383 0.078581 0.049319
vertex -0.067761 0.081203 0.048123
endloop
endfacet
facet normal 0.260795 0.262685 0.928969
outer loop
vertex -0.106442 0.117003 0.048859
vertex -0.067761 0.081203 0.048123
vertex -0.103954 0.119492 0.047456
endloop
endfacet
facet normal 0.319976 0.317992 0.892466
outer loop
vertex -0.103954 0.119492 0.047456
vertex -0.067761 0.081203 0.048123
vertex -0.065302 0.083662 0.046365
endloop
endfacet
facet normal 0.357058 0.358909 0.862377
outer loop
vertex -0.103954 0.119492 0.047456
vertex -0.065302 0.083662 0.046365
vertex -0.101644 0.121802 0.045539
endloop
endfacet
facet normal 0.414131 0.412191 0.811538
outer loop
vertex -0.101644 0.121802 0.045539
vertex -0.065302 0.083662 0.046365
vertex -0.063066 0.085897 0.044088
endloop
endfacet
facet normal 0.445107 0.446908 0.775985
outer loop
vertex -0.101644 0.121802 0.045539
vertex -0.063066 0.085897 0.044088
vertex -0.099565 0.123880 0.043149
endloop
endfacet
facet normal 0.498248 0.496364 0.710896
outer loop
vertex -0.099565 0.123880 0.043149
vertex -0.063066 0.085897 0.044088
vertex -0.061108 0.087856 0.041348
endloop
endfacet
facet normal 0.522921 0.524659 0.671778
outer loop
vertex -0.099565 0.123880 0.043149
vertex -0.061108 0.087856 0.041348
vertex -0.097766 0.125680 0.040343
endloop
endfacet
facet normal 0.570274 0.568461 0.592993
outer loop
vertex -0.097766 0.125680 0.040343
vertex -0.061108 0.087856 0.041348
vertex -0.059474 0.089490 0.038211
endloop
endfacet
facet normal 0.588715 0.590378 0.552149
outer loop
vertex -0.097766 0.125680 0.040343
vertex -0.059474 0.089490 0.038211
vertex -0.096287 0.127159 0.037185
endloop
endfacet
facet normal 0.628469 0.626737 0.460682
outer loop
vertex -0.096287 0.127159 0.037185
vertex -0.059474 0.089490 0.038211
vertex -0.058205 0.090759 0.034753
endloop
endfacet
facet normal 0.640982 0.642557 0.419837
outer loop
vertex -0.096287 0.127159 0.037185
vertex -0.058205 0.090759 0.034753
vertex -0.095162 0.128283 0.033747
endloop
endfacet
facet normal 0.671413 0.669776 0.317181
outer loop
vertex -0.095162 0.128283 0.033747
vertex -0.058205 0.090759 0.034753
vertex -0.057331 0.091633 0.031058
endloop
endfacet
facet normal 0.678519 0.679992 0.277890
outer loop
vertex -0.095162 0.128283 0.033747
vertex -0.057331 0.091633 0.031058
vertex -0.094418 0.129028 0.030108
endloop
endfacet
facet normal 0.698063 0.696532 0.165988
outer loop
vertex -0.094418 0.129028 0.030108
vertex -0.057331 0.091633 0.031058
vertex -0.056874 0.092090 0.027216
endloop
endfacet
facet normal 0.700467 0.701828 0.129553
outer loop
vertex -0.094418 0.129028 0.030108
vertex -0.056874 0.092090 0.027216
vertex -0.094071 0.129375 0.026352
endloop
endfacet
facet normal 0.707771 0.706360 0.010755
outer loop
vertex -0.094071 0.129375 0.026352
vertex -0.056874 0.092090 0.027216
vertex -0.056844 0.092120 0.023320
endloop
endfacet
facet normal 0.706322 0.707557 -0.021749
outer loop
vertex -0.094071 0.129375 0.026352
vertex -0.056844 0.092120 0.023320
vertex -0.094129 0.129316 0.022564
endloop
endfacet
facet normal 0.700300 0.699022 -0.144739
outer loop
vertex -0.094129 0.129316 0.022564
vertex -0.056844 0.092120 0.023320
vertex -0.057243 0.091721 0.019465
endloop
endfacet
facet normal 0.695953 0.697048 -0.172551
outer loop
vertex -0.094129 0.129316 0.022564
vertex -0.057243 0.091721 0.019465
vertex -0.094592 0.128854 0.018833
endloop
endfacet
facet normal 0.675828 0.674695 -0.296722
outer loop
vertex -0.094592 0.128854 0.018833
vertex -0.057243 0.091721 0.019465
vertex -0.058060 0.090903 0.015744
endloop
endfacet
facet normal 0.669597 0.670542 -0.319395
outer loop
vertex -0.094592 0.128854 0.018833
vertex -0.058060 0.090903 0.015744
vertex -0.095447 0.127999 0.015243
endloop
endfacet
facet normal 0.634951 0.633975 -0.441489
outer loop
vertex -0.095447 0.127999 0.015243
vertex -0.058060 0.090903 0.015744
vertex -0.059277 0.089687 0.012248
endloop
endfacet
facet normal 0.627865 0.628646 -0.458901
outer loop
vertex -0.095447 0.127999 0.015243
vertex -0.059277 0.089687 0.012248
vertex -0.096676 0.126769 0.011878
endloop
endfacet
facet normal 0.578656 0.577850 -0.575541
outer loop
vertex -0.096676 0.126769 0.011878
vertex -0.059277 0.089687 0.012248
vertex -0.060862 0.088102 0.009062
endloop
endfacet
facet normal 0.571713 0.572317 -0.587875
outer loop
vertex -0.096676 0.126769 0.011878
vertex -0.060862 0.088102 0.009062
vertex -0.098251 0.125195 0.008813
endloop
endfacet
facet normal 0.508310 0.507687 -0.695611
outer loop
vertex -0.098251 0.125195 0.008813
vertex -0.060862 0.088102 0.009062
vertex -0.062779 0.086185 0.006263
endloop
endfacet
facet normal 0.502434 0.502850 -0.703351
outer loop
vertex -0.098251 0.125195 0.008813
vertex -0.062779 0.086185 0.006263
vertex -0.100135 0.123311 0.006120
endloop
endfacet
facet normal 0.425621 0.425192 -0.798786
outer loop
vertex -0.100135 0.123311 0.006120
vertex -0.062779 0.086185 0.006263
vertex -0.064979 0.083984 0.003919
endloop
endfacet
facet normal 0.421620 0.421835 -0.802678
outer loop
vertex -0.100135 0.123311 0.006120
vertex -0.064979 0.083984 0.003919
vertex -0.102285 0.121161 0.003861
endloop
endfacet
facet normal 0.331243 0.331017 -0.883575
outer loop
vertex -0.102285 0.121161 0.003861
vertex -0.064979 0.083984 0.003919
vertex -0.104652 0.118794 0.002087
endloop
endfacet
facet normal 0.332481 0.332481 -0.882560
outer loop
vertex -0.104652 0.118794 0.002087
vertex -0.064979 0.083984 0.003919
vertex -0.027738 0.046743 0.003919
endloop
endfacet
facet normal 0.332484 0.332484 -0.882558
outer loop
vertex -0.104652 0.118794 0.002087
vertex -0.027738 0.046743 0.003919
vertex 0.009503 0.009503 0.003919
endloop
endfacet
facet normal 0.425407 0.425407 -0.798785
outer loop
vertex 0.009503 0.009503 0.003919
vertex -0.027738 0.046743 0.003919
vertex 0.011703 0.011703 0.006263
endloop
endfacet
facet normal 0.425407 0.425407 -0.798785
outer loop
vertex 0.009503 0.009503 0.003919
vertex 0.011703 0.011703 0.006263
vertex 0.048944 -0.025538 0.006263
endloop
endfacet
facet normal 0.508000 0.507999 -0.695610
outer loop
vertex 0.048944 -0.025538 0.006263
vertex 0.011703 0.011703 0.006263
vertex 0.050861 -0.023621 0.009062
endloop
endfacet
facet normal 0.507999 0.508000 -0.695610
outer loop
vertex 0.048944 -0.025538 0.006263
vertex 0.050861 -0.023621 0.009062
vertex 0.088101 -0.060862 0.009062
endloop
endfacet
facet normal 0.578254 0.578253 -0.575539
outer loop
vertex 0.088101 -0.060862 0.009062
vertex 0.050861 -0.023621 0.009062
vertex 0.089687 -0.059277 0.012248
endloop
endfacet
facet normal 0.577850 0.578656 -0.575541
outer loop
vertex 0.088101 -0.060862 0.009062
vertex 0.089687 -0.059277 0.012248
vertex 0.126769 -0.096676 0.011878
endloop
endfacet
facet normal 0.628645 0.627864 -0.458903
outer loop
vertex 0.126769 -0.096676 0.011878
vertex 0.089687 -0.059277 0.012248
vertex 0.127999 -0.095447 0.015243
endloop
endfacet
facet normal 0.633975 0.634951 -0.441490
outer loop
vertex 0.127999 -0.095447 0.015243
vertex 0.089687 -0.059277 0.012248
vertex 0.090903 -0.058060 0.015744
endloop
endfacet
facet normal 0.670542 0.669597 -0.319395
outer loop
vertex 0.127999 -0.095447 0.015243
vertex 0.090903 -0.058060 0.015744
vertex 0.128854 -0.094591 0.018833
endloop
endfacet
facet normal 0.674695 0.675828 -0.296720
outer loop
vertex 0.128854 -0.094591 0.018833
vertex 0.090903 -0.058060 0.015744
vertex 0.091721 -0.057243 0.019465
endloop
endfacet
facet normal 0.697049 0.695952 -0.172551
outer loop
vertex 0.128854 -0.094591 0.018833
vertex 0.091721 -0.057243 0.019465
vertex 0.129316 -0.094129 0.022564
endloop
endfacet
facet normal 0.699021 0.700300 -0.144743
outer loop
vertex 0.129316 -0.094129 0.022564
vertex 0.091721 -0.057243 0.019465
vertex 0.092120 -0.056844 0.023320
endloop
endfacet
facet normal 0.707557 0.706322 -0.021746
outer loop
vertex 0.129316 -0.094129 0.022564
vertex 0.092120 -0.056844 0.023320
vertex 0.129375 -0.094071 0.026352
endloop
endfacet
facet normal 0.706360 0.707771 0.010754
outer loop
vertex 0.129375 -0.094071 0.026352
vertex 0.092120 -0.056844 0.023320
vertex 0.092090 -0.056874 0.027216
endloop
endfacet
facet normal 0.701827 0.700467 0.129556
outer loop
vertex 0.129375 -0.094071 0.026352
vertex 0.092090 -0.056874 0.027216
vertex 0.129028 -0.094418 0.030108
endloop
endfacet
facet normal 0.696532 0.698062 0.165988
outer loop
vertex 0.129028 -0.094418 0.030108
vertex 0.092090 -0.056874 0.027216
vertex 0.091633 -0.057331 0.031058
endloop
endfacet
facet normal 0.679994 0.678519 0.277886
outer loop
vertex 0.129028 -0.094418 0.030108
vertex 0.091633 -0.057331 0.031058
vertex 0.128283 -0.095162 0.033747
endloop
endfacet
facet normal 0.669773 0.671412 0.317190
outer loop
vertex 0.128283 -0.095162 0.033747
vertex 0.091633 -0.057331 0.031058
vertex 0.090759 -0.058205 0.034753
endloop
endfacet
facet normal 0.642559 0.640984 0.419831
outer loop
vertex 0.128283 -0.095162 0.033747
vertex 0.090759 -0.058205 0.034753
vertex 0.127159 -0.096287 0.037185
endloop
endfacet
facet normal 0.626735 0.628468 0.460685
outer loop
vertex 0.127159 -0.096287 0.037185
vertex 0.090759 -0.058205 0.034753
vertex 0.089490 -0.059474 0.038211
endloop
endfacet
facet normal 0.590379 0.588716 0.552147
outer loop
vertex 0.127159 -0.096287 0.037185
vertex 0.089490 -0.059474 0.038211
vertex 0.125680 -0.097766 0.040343
endloop
endfacet
facet normal 0.568460 0.570275 0.592992
outer loop
vertex 0.125680 -0.097766 0.040343
vertex 0.089490 -0.059474 0.038211
vertex 0.087856 -0.061108 0.041348
endloop
endfacet
facet normal 0.524661 0.522922 0.671777
outer loop
vertex 0.125680 -0.097766 0.040343
vertex 0.087856 -0.061108 0.041348
vertex 0.123880 -0.099565 0.043149
endloop
endfacet
facet normal 0.496363 0.498246 0.710897
outer loop
vertex 0.123880 -0.099565 0.043149
vertex 0.087856 -0.061108 0.041348
vertex 0.085897 -0.063066 0.044088
endloop
endfacet
facet normal 0.446908 0.445105 0.775986
outer loop
vertex 0.123880 -0.099565 0.043149
vertex 0.085897 -0.063066 0.044088
vertex 0.121802 -0.101644 0.045539
endloop
endfacet
facet normal 0.412191 0.414133 0.811537
outer loop
vertex 0.121802 -0.101644 0.045539
vertex 0.085897 -0.063066 0.044088
vertex 0.083662 -0.065302 0.046365
endloop
endfacet
facet normal 0.358909 0.357057 0.862377
outer loop
vertex 0.121802 -0.101644 0.045539
vertex 0.083662 -0.065302 0.046365
vertex 0.119492 -0.103954 0.047456
endloop
endfacet
facet normal 0.317993 0.319978 0.892465
outer loop
vertex 0.119492 -0.103954 0.047456
vertex 0.083662 -0.065302 0.046365
vertex 0.081203 -0.067761 0.048123
endloop
endfacet
facet normal 0.262683 0.260794 0.928970
outer loop
vertex 0.119492 -0.103954 0.047456
vertex 0.081203 -0.067761 0.048123
vertex 0.117003 -0.106442 0.048859
endloop
endfacet
facet normal 0.216054 0.218070 0.951717
outer loop
vertex 0.117003 -0.106442 0.048859
vertex 0.081203 -0.067761 0.048123
vertex 0.078581 -0.070383 0.049319
endloop
endfacet
facet normal 0.160445 0.158529 0.974231
outer loop
vertex 0.117003 -0.106442 0.048859
vertex 0.078581 -0.070383 0.049319
vertex 0.114394 -0.109052 0.049713
endloop
endfacet
facet normal 0.108847 0.110881 0.987855
outer loop
vertex 0.114394 -0.109052 0.049713
vertex 0.078581 -0.070383 0.049319
vertex 0.075859 -0.073104 0.049924
endloop
endfacet
facet normal 0.054536 0.052609 0.997125
outer loop
vertex 0.114394 -0.109052 0.049713
vertex 0.075859 -0.073104 0.049924
vertex 0.111723 -0.111723 0.050000
endloop
endfacet
facet normal -0.001020 0.001021 0.999999
outer loop
vertex 0.111723 -0.111723 0.050000
vertex 0.075859 -0.073104 0.049924
vertex 0.073104 -0.075859 0.049924
endloop
endfacet
facet normal -0.052610 -0.054537 0.997125
outer loop
vertex 0.111723 -0.111723 0.050000
vertex 0.073104 -0.075859 0.049924
vertex 0.109052 -0.114394 0.049713
endloop
endfacet
facet normal -0.110881 -0.108847 0.987855
outer loop
vertex 0.109052 -0.114394 0.049713
vertex 0.073104 -0.075859 0.049924
vertex 0.070383 -0.078581 0.049319
endloop
endfacet
facet normal -0.158530 -0.160444 0.974231
outer loop
vertex 0.109052 -0.114394 0.049713
vertex 0.070383 -0.078581 0.049319
vertex 0.106442 -0.117003 0.048859
endloop
endfacet
facet normal -0.218069 -0.216054 0.951718
outer loop
vertex 0.106442 -0.117003 0.048859
vertex 0.070383 -0.078581 0.049319
vertex 0.067761 -0.081203 0.048123
endloop
endfacet
facet normal -0.260796 -0.262685 0.928968
outer loop
vertex 0.106442 -0.117003 0.048859
vertex 0.067761 -0.081203 0.048123
vertex 0.103954 -0.119492 0.047456
endloop
endfacet
facet normal -0.319977 -0.317993 0.892466
outer loop
vertex 0.103954 -0.119492 0.047456
vertex 0.067761 -0.081203 0.048123
vertex 0.065302 -0.083662 0.046365
endloop
endfacet
facet normal -0.357057 -0.358909 0.862377
outer loop
vertex 0.103954 -0.119492 0.047456
vertex 0.065302 -0.083662 0.046365
vertex 0.101644 -0.121802 0.045539
endloop
endfacet
facet normal -0.414130 -0.412190 0.811539
outer loop
vertex 0.101644 -0.121802 0.045539
vertex 0.065302 -0.083662 0.046365
vertex 0.063066 -0.085897 0.044088
endloop
endfacet
facet normal -0.445107 -0.446909 0.775984
outer loop
vertex 0.101644 -0.121802 0.045539
vertex 0.063066 -0.085897 0.044088
vertex 0.099565 -0.123880 0.043149
endloop
endfacet
facet normal -0.498247 -0.496363 0.710897
outer loop
vertex 0.099565 -0.123880 0.043149
vertex 0.063066 -0.085897 0.044088
vertex 0.061108 -0.087856 0.041348
endloop
endfacet
facet normal -0.522921 -0.524659 0.671778
outer loop
vertex 0.099565 -0.123880 0.043149
vertex 0.061108 -0.087856 0.041348
vertex 0.097766 -0.125680 0.040343
endloop
endfacet
facet normal -0.570274 -0.568460 0.592993
outer loop
vertex 0.097766 -0.125680 0.040343
vertex 0.061108 -0.087856 0.041348
vertex 0.059474 -0.089490 0.038211
endloop
endfacet
facet normal -0.588716 -0.590380 0.552145
outer loop
vertex 0.097766 -0.125680 0.040343
vertex 0.059474 -0.089490 0.038211
vertex 0.096287 -0.127159 0.037185
endloop
endfacet
facet normal -0.628468 -0.626735 0.460686
outer loop
vertex 0.096287 -0.127159 0.037185
vertex 0.059474 -0.089490 0.038211
vertex 0.058205 -0.090759 0.034753
endloop
endfacet
facet normal -0.640983 -0.642558 0.419834
outer loop
vertex 0.096287 -0.127159 0.037185
vertex 0.058205 -0.090759 0.034753
vertex 0.095162 -0.128283 0.033747
endloop
endfacet
facet normal -0.671412 -0.669775 0.317185
outer loop
vertex 0.095162 -0.128283 0.033747
vertex 0.058205 -0.090759 0.034753
vertex 0.057331 -0.091633 0.031058
endloop
endfacet
facet normal -0.678519 -0.679992 0.277890
outer loop
vertex 0.095162 -0.128283 0.033747
vertex 0.057331 -0.091633 0.031058
vertex 0.094418 -0.129028 0.030108
endloop
endfacet
facet normal -0.698063 -0.696532 0.165983
outer loop
vertex 0.094418 -0.129028 0.030108
vertex 0.057331 -0.091633 0.031058
vertex 0.056874 -0.092090 0.027216
endloop
endfacet
facet normal -0.700466 -0.701827 0.129558
outer loop
vertex 0.094418 -0.129028 0.030108
vertex 0.056874 -0.092090 0.027216
vertex 0.094071 -0.129375 0.026352
endloop
endfacet
facet normal -0.707771 -0.706360 0.010751
outer loop
vertex 0.094071 -0.129375 0.026352
vertex 0.056874 -0.092090 0.027216
vertex 0.056844 -0.092120 0.023320
endloop
endfacet
facet normal -0.706322 -0.707557 -0.021744
outer loop
vertex 0.094071 -0.129375 0.026352
vertex 0.056844 -0.092120 0.023320
vertex 0.094129 -0.129316 0.022564
endloop
endfacet
facet normal -0.700299 -0.699021 -0.144743
outer loop
vertex 0.094129 -0.129316 0.022564
vertex 0.056844 -0.092120 0.023320
vertex 0.057243 -0.091721 0.019465
endloop
endfacet
facet normal -0.695952 -0.697049 -0.172551
outer loop
vertex 0.094129 -0.129316 0.022564
vertex 0.057243 -0.091721 0.019465
vertex 0.094592 -0.128854 0.018833
endloop
endfacet
facet normal -0.675828 -0.674694 -0.296722
outer loop
vertex 0.094592 -0.128854 0.018833
vertex 0.057243 -0.091721 0.019465
vertex 0.058060 -0.090903 0.015744
endloop
endfacet
facet normal -0.669598 -0.670543 -0.319390
outer loop
vertex 0.094592 -0.128854 0.018833
vertex 0.058060 -0.090903 0.015744
vertex 0.095447 -0.127999 0.015243
endloop
endfacet
facet normal -0.634951 -0.633975 -0.441490
outer loop
vertex 0.095447 -0.127999 0.015243
vertex 0.058060 -0.090903 0.015744
vertex 0.059277 -0.089687 0.012248
endloop
endfacet
facet normal -0.627863 -0.628645 -0.458905
outer loop
vertex 0.095447 -0.127999 0.015243
vertex 0.059277 -0.089687 0.012248
vertex 0.096676 -0.126769 0.011878
endloop
endfacet
facet normal -0.578656 -0.577850 -0.575539
outer loop
vertex 0.096676 -0.126769 0.011878
vertex 0.059277 -0.089687 0.012248
vertex 0.060862 -0.088101 0.009062
endloop
endfacet
facet normal -0.571713 -0.572317 -0.587875
outer loop
vertex 0.096676 -0.126769 0.011878
vertex 0.060862 -0.088101 0.009062
vertex 0.098251 -0.125195 0.008813
endloop
endfacet
facet normal -0.508309 -0.507686 -0.695612
outer loop
vertex 0.098251 -0.125195 0.008813
vertex 0.060862 -0.088101 0.009062
vertex 0.062779 -0.086185 0.006263
endloop
endfacet
facet normal -0.502434 -0.502850 -0.703351
outer loop
vertex 0.098251 -0.125195 0.008813
vertex 0.062779 -0.086185 0.006263
vertex 0.100135 -0.123311 0.006120
endloop
endfacet
facet normal -0.425621 -0.425193 -0.798785
outer loop
vertex 0.100135 -0.123311 0.006120
vertex 0.062779 -0.086185 0.006263
vertex 0.064979 -0.083984 0.003919
endloop
endfacet
facet normal -0.421620 -0.421834 -0.802679
outer loop
vertex 0.100135 -0.123311 0.006120
vertex 0.064979 -0.083984 0.003919
vertex 0.102285 -0.121161 0.003861
endloop
endfacet
facet normal 0.572316 0.571712 -0.587877
outer loop
vertex 0.126769 -0.096676 0.011878
vertex 0.125195 -0.098251 0.008813
vertex 0.088101 -0.060862 0.009062
endloop
endfacet
facet normal 0.507687 0.508310 -0.695611
outer loop
vertex 0.088101 -0.060862 0.009062
vertex 0.125195 -0.098251 0.008813
vertex 0.086185 -0.062779 0.006263
endloop
endfacet
facet normal 0.507998 0.507998 -0.695611
outer loop
vertex 0.088101 -0.060862 0.009062
vertex 0.086185 -0.062779 0.006263
vertex 0.048944 -0.025538 0.006263
endloop
endfacet
facet normal 0.425407 0.425407 -0.798785
outer loop
vertex 0.048944 -0.025538 0.006263
vertex 0.086185 -0.062779 0.006263
vertex 0.046743 -0.027738 0.003919
endloop
endfacet
facet normal 0.425407 0.425407 -0.798785
outer loop
vertex 0.048944 -0.025538 0.006263
vertex 0.046743 -0.027738 0.003919
vertex 0.009503 0.009503 0.003919
endloop
endfacet
facet normal 0.332483 0.332483 -0.882559
outer loop
vertex 0.009503 0.009503 0.003919
vertex 0.046743 -0.027738 0.003919
vertex -0.104652 0.118794 0.002087
endloop
endfacet
facet normal 0.502849 0.502433 -0.703352
outer loop
vertex 0.125195 -0.098251 0.008813
vertex 0.123311 -0.100135 0.006120
vertex 0.086185 -0.062779 0.006263
endloop
endfacet
facet normal 0.425194 0.425622 -0.798784
outer loop
vertex 0.086185 -0.062779 0.006263
vertex 0.123311 -0.100135 0.006120
vertex 0.083984 -0.064979 0.003919
endloop
endfacet
facet normal 0.425407 0.425407 -0.798785
outer loop
vertex 0.086185 -0.062779 0.006263
vertex 0.083984 -0.064979 0.003919
vertex 0.046743 -0.027738 0.003919
endloop
endfacet
facet normal 0.332483 0.332483 -0.882559
outer loop
vertex 0.046743 -0.027738 0.003919
vertex 0.083984 -0.064979 0.003919
vertex -0.104652 0.118794 0.002087
endloop
endfacet
facet normal 0.421832 0.421618 -0.802680
outer loop
vertex 0.123311 -0.100135 0.006120
vertex 0.121161 -0.102285 0.003861
vertex 0.083984 -0.064979 0.003919
endloop
endfacet
facet normal 0.338144 0.338338 -0.878172
outer loop
vertex 0.083984 -0.064979 0.003919
vertex 0.121161 -0.102285 0.003861
vertex -0.104652 0.118794 0.002087
endloop
endfacet
facet normal 0.331130 0.331130 -0.883576
outer loop
vertex 0.121161 -0.102285 0.003861
vertex 0.118794 -0.104652 0.002087
vertex -0.104652 0.118794 0.002087
endloop
endfacet
facet normal -0.572317 -0.571713 -0.587875
outer loop
vertex -0.126769 0.096676 0.011878
vertex -0.125195 0.098251 0.008813
vertex -0.088101 0.060862 0.009062
endloop
endfacet
facet normal -0.507687 -0.508311 -0.695611
outer loop
vertex -0.088101 0.060862 0.009062
vertex -0.125195 0.098251 0.008813
vertex -0.086185 0.062779 0.006263
endloop
endfacet
facet normal -0.507999 -0.507999 -0.695611
outer loop
vertex -0.088101 0.060862 0.009062
vertex -0.086185 0.062779 0.006263
vertex -0.048944 0.025538 0.006263
endloop
endfacet
facet normal -0.425407 -0.425407 -0.798785
outer loop
vertex -0.048944 0.025538 0.006263
vertex -0.086185 0.062779 0.006263
vertex -0.046743 0.027738 0.003919
endloop
endfacet
facet normal -0.425407 -0.425407 -0.798785
outer loop
vertex -0.048944 0.025538 0.006263
vertex -0.046743 0.027738 0.003919
vertex -0.009503 -0.009503 0.003919
endloop
endfacet
facet normal -0.332484 -0.332483 -0.882558
outer loop
vertex -0.009503 -0.009503 0.003919
vertex -0.046743 0.027738 0.003919
vertex 0.104652 -0.118794 0.002087
endloop
endfacet
facet normal -0.502849 -0.502433 -0.703352
outer loop
vertex -0.125195 0.098251 0.008813
vertex -0.123311 0.100135 0.006120
vertex -0.086185 0.062779 0.006263
endloop
endfacet
facet normal -0.425194 -0.425623 -0.798783
outer loop
vertex -0.086185 0.062779 0.006263
vertex -0.123311 0.100135 0.006120
vertex -0.083984 0.064979 0.003919
endloop
endfacet
facet normal -0.425407 -0.425407 -0.798785
outer loop
vertex -0.086185 0.062779 0.006263
vertex -0.083984 0.064979 0.003919
vertex -0.046743 0.027738 0.003919
endloop
endfacet
facet normal -0.332481 -0.332481 -0.882561
outer loop
vertex -0.046743 0.027738 0.003919
vertex -0.083984 0.064979 0.003919
vertex 0.104652 -0.118794 0.002087
endloop
endfacet
facet normal -0.421832 -0.421618 -0.802680
outer loop
vertex -0.123311 0.100135 0.006120
vertex -0.121161 0.102285 0.003861
vertex -0.083984 0.064979 0.003919
endloop
endfacet
facet normal -0.338146 -0.338340 -0.878170
outer loop
vertex -0.083984 0.064979 0.003919
vertex -0.121161 0.102285 0.003861
vertex 0.104652 -0.118794 0.002087
endloop
endfacet
facet normal -0.331130 -0.331130 -0.883576
outer loop
vertex -0.121161 0.102285 0.003861
vertex -0.118794 0.104652 0.002087
vertex 0.104652 -0.118794 0.002087
endloop
endfacet
facet normal -0.425406 -0.425406 -0.798786
outer loop
vertex 0.027738 -0.046743 0.003919
vertex 0.064979 -0.083984 0.003919
vertex 0.025538 -0.048944 0.006263
endloop
endfacet
facet normal -0.425408 -0.425408 -0.798785
outer loop
vertex 0.025538 -0.048944 0.006263
vertex 0.064979 -0.083984 0.003919
vertex 0.062779 -0.086185 0.006263
endloop
endfacet
facet normal -0.507998 -0.507998 -0.695612
outer loop
vertex 0.025538 -0.048944 0.006263
vertex 0.062779 -0.086185 0.006263
vertex 0.023621 -0.050861 0.009062
endloop
endfacet
facet normal -0.507999 -0.507999 -0.695610
outer loop
vertex 0.023621 -0.050861 0.009062
vertex 0.062779 -0.086185 0.006263
vertex 0.060862 -0.088101 0.009062
endloop
endfacet
facet normal -0.578254 -0.578254 -0.575538
outer loop
vertex 0.023621 -0.050861 0.009062
vertex 0.060862 -0.088101 0.009062
vertex 0.022036 -0.052446 0.012248
endloop
endfacet
facet normal -0.578254 -0.578254 -0.575539
outer loop
vertex 0.022036 -0.052446 0.012248
vertex 0.060862 -0.088101 0.009062
vertex 0.059277 -0.089687 0.012248
endloop
endfacet
facet normal -0.634461 -0.634461 -0.441496
outer loop
vertex 0.022036 -0.052446 0.012248
vertex 0.059277 -0.089687 0.012248
vertex 0.020819 -0.053662 0.015744
endloop
endfacet
facet normal -0.634464 -0.634463 -0.441489
outer loop
vertex 0.020819 -0.053662 0.015744
vertex 0.059277 -0.089687 0.012248
vertex 0.058060 -0.090903 0.015744
endloop
endfacet
facet normal -0.675262 -0.675262 -0.296722
outer loop
vertex 0.020819 -0.053662 0.015744
vertex 0.058060 -0.090903 0.015744
vertex 0.020002 -0.054480 0.019465
endloop
endfacet
facet normal -0.675263 -0.675263 -0.296717
outer loop
vertex 0.020002 -0.054480 0.019465
vertex 0.058060 -0.090903 0.015744
vertex 0.057243 -0.091721 0.019465
endloop
endfacet
facet normal -0.699660 -0.699661 -0.144743
outer loop
vertex 0.020002 -0.054480 0.019465
vertex 0.057243 -0.091721 0.019465
vertex 0.019603 -0.054879 0.023320
endloop
endfacet
facet normal -0.699661 -0.699661 -0.144737
outer loop
vertex 0.019603 -0.054879 0.023320
vertex 0.057243 -0.091721 0.019465
vertex 0.056844 -0.092120 0.023320
endloop
endfacet
facet normal -0.707066 -0.707066 0.010752
outer loop
vertex 0.019603 -0.054879 0.023320
vertex 0.056844 -0.092120 0.023320
vertex 0.019633 -0.054849 0.027216
endloop
endfacet
facet normal -0.707066 -0.707066 0.010754
outer loop
vertex 0.019633 -0.054849 0.027216
vertex 0.056844 -0.092120 0.023320
vertex 0.056874 -0.092090 0.027216
endloop
endfacet
facet normal -0.697298 -0.697298 0.165986
outer loop
vertex 0.019633 -0.054849 0.027216
vertex 0.056874 -0.092090 0.027216
vertex 0.020090 -0.054392 0.031058
endloop
endfacet
facet normal -0.697298 -0.697298 0.165986
outer loop
vertex 0.020090 -0.054392 0.031058
vertex 0.056874 -0.092090 0.027216
vertex 0.057331 -0.091633 0.031058
endloop
endfacet
facet normal -0.670595 -0.670594 0.317184
outer loop
vertex 0.020090 -0.054392 0.031058
vertex 0.057331 -0.091633 0.031058
vertex 0.020964 -0.053518 0.034753
endloop
endfacet
facet normal -0.670593 -0.670594 0.317188
outer loop
vertex 0.020964 -0.053518 0.034753
vertex 0.057331 -0.091633 0.031058
vertex 0.058205 -0.090759 0.034753
endloop
endfacet
facet normal -0.627602 -0.627603 0.460684
outer loop
vertex 0.020964 -0.053518 0.034753
vertex 0.058205 -0.090759 0.034753
vertex 0.022233 -0.052249 0.038211
endloop
endfacet
facet normal -0.627603 -0.627602 0.460685
outer loop
vertex 0.022233 -0.052249 0.038211
vertex 0.058205 -0.090759 0.034753
vertex 0.059474 -0.089490 0.038211
endloop
endfacet
facet normal -0.569367 -0.569368 0.592993
outer loop
vertex 0.022233 -0.052249 0.038211
vertex 0.059474 -0.089490 0.038211
vertex 0.023867 -0.050615 0.041348
endloop
endfacet
facet normal -0.569369 -0.569368 0.592992
outer loop
vertex 0.023867 -0.050615 0.041348
vertex 0.059474 -0.089490 0.038211
vertex 0.061108 -0.087856 0.041348
endloop
endfacet
facet normal -0.497304 -0.497305 0.710898
outer loop
vertex 0.023867 -0.050615 0.041348
vertex 0.061108 -0.087856 0.041348
vertex 0.025825 -0.048656 0.044088
endloop
endfacet
facet normal -0.497305 -0.497304 0.710898
outer loop
vertex 0.025825 -0.048656 0.044088
vertex 0.061108 -0.087856 0.041348
vertex 0.063066 -0.085897 0.044088
endloop
endfacet
facet normal -0.413162 -0.413163 0.811538
outer loop
vertex 0.025825 -0.048656 0.044088
vertex 0.063066 -0.085897 0.044088
vertex 0.028061 -0.046421 0.046365
endloop
endfacet
facet normal -0.413162 -0.413161 0.811539
outer loop
vertex 0.028061 -0.046421 0.046365
vertex 0.063066 -0.085897 0.044088
vertex 0.065302 -0.083662 0.046365
endloop
endfacet
facet normal -0.318986 -0.318986 0.892466
outer loop
vertex 0.028061 -0.046421 0.046365
vertex 0.065302 -0.083662 0.046365
vertex 0.030520 -0.043962 0.048123
endloop
endfacet
facet normal -0.318987 -0.318986 0.892466
outer loop
vertex 0.030520 -0.043962 0.048123
vertex 0.065302 -0.083662 0.046365
vertex 0.067761 -0.081203 0.048123
endloop
endfacet
facet normal -0.217061 -0.217062 0.951719
outer loop
vertex 0.030520 -0.043962 0.048123
vertex 0.067761 -0.081203 0.048123
vertex 0.033142 -0.041340 0.049319
endloop
endfacet
facet normal -0.217062 -0.217062 0.951718
outer loop
vertex 0.033142 -0.041340 0.049319
vertex 0.067761 -0.081203 0.048123
vertex 0.070383 -0.078581 0.049319
endloop
endfacet
facet normal -0.109865 -0.109864 0.987856
outer loop
vertex 0.033142 -0.041340 0.049319
vertex 0.070383 -0.078581 0.049319
vertex 0.035863 -0.038618 0.049924
endloop
endfacet
facet normal -0.109864 -0.109864 0.987856
outer loop
vertex 0.035863 -0.038618 0.049924
vertex 0.070383 -0.078581 0.049319
vertex 0.073104 -0.075859 0.049924
endloop
endfacet
facet normal 0.000000 0.000000 1.000000
outer loop
vertex 0.035863 -0.038618 0.049924
vertex 0.073104 -0.075859 0.049924
vertex 0.038618 -0.035863 0.049924
endloop
endfacet
facet normal -0.000001 0.000000 1.000000
outer loop
vertex 0.038618 -0.035863 0.049924
vertex 0.073104 -0.075859 0.049924
vertex 0.075859 -0.073104 0.049924
endloop
endfacet
facet normal 0.109865 0.109864 0.987856
outer loop
vertex 0.038618 -0.035863 0.049924
vertex 0.075859 -0.073104 0.049924
vertex 0.041340 -0.033142 0.049319
endloop
endfacet
facet normal 0.109864 0.109864 0.987856
outer loop
vertex 0.041340 -0.033142 0.049319
vertex 0.075859 -0.073104 0.049924
vertex 0.078581 -0.070383 0.049319
endloop
endfacet
facet normal 0.217061 0.217062 0.951719
outer loop
vertex 0.041340 -0.033142 0.049319
vertex 0.078581 -0.070383 0.049319
vertex 0.043962 -0.030520 0.048123
endloop
endfacet
facet normal 0.217061 0.217062 0.951719
outer loop
vertex 0.043962 -0.030520 0.048123
vertex 0.078581 -0.070383 0.049319
vertex 0.081203 -0.067761 0.048123
endloop
endfacet
facet normal 0.318988 0.318986 0.892465
outer loop
vertex 0.043962 -0.030520 0.048123
vertex 0.081203 -0.067761 0.048123
vertex 0.046421 -0.028061 0.046365
endloop
endfacet
facet normal 0.318985 0.318986 0.892466
outer loop
vertex 0.046421 -0.028061 0.046365
vertex 0.081203 -0.067761 0.048123
vertex 0.083662 -0.065302 0.046365
endloop
endfacet
facet normal 0.413162 0.413163 0.811538
outer loop
vertex 0.046421 -0.028061 0.046365
vertex 0.083662 -0.065302 0.046365
vertex 0.048657 -0.025825 0.044088
endloop
endfacet
facet normal 0.413162 0.413162 0.811538
outer loop
vertex 0.048657 -0.025825 0.044088
vertex 0.083662 -0.065302 0.046365
vertex 0.085897 -0.063066 0.044088
endloop
endfacet
facet normal 0.497305 0.497304 0.710898
outer loop
vertex 0.048657 -0.025825 0.044088
vertex 0.085897 -0.063066 0.044088
vertex 0.050615 -0.023867 0.041348
endloop
endfacet
facet normal 0.497303 0.497305 0.710899
outer loop
vertex 0.050615 -0.023867 0.041348
vertex 0.085897 -0.063066 0.044088
vertex 0.087856 -0.061108 0.041348
endloop
endfacet
facet normal 0.569369 0.569368 0.592992
outer loop
vertex 0.050615 -0.023867 0.041348
vertex 0.087856 -0.061108 0.041348
vertex 0.052249 -0.022233 0.038211
endloop
endfacet
facet normal 0.569367 0.569369 0.592993
outer loop
vertex 0.052249 -0.022233 0.038211
vertex 0.087856 -0.061108 0.041348
vertex 0.089490 -0.059474 0.038211
endloop
endfacet
facet normal 0.627603 0.627602 0.460684
outer loop
vertex 0.052249 -0.022233 0.038211
vertex 0.089490 -0.059474 0.038211
vertex 0.053518 -0.020964 0.034753
endloop
endfacet
facet normal 0.627602 0.627603 0.460685
outer loop
vertex 0.053518 -0.020964 0.034753
vertex 0.089490 -0.059474 0.038211
vertex 0.090759 -0.058205 0.034753
endloop
endfacet
facet normal 0.670594 0.670594 0.317187
outer loop
vertex 0.053518 -0.020964 0.034753
vertex 0.090759 -0.058205 0.034753
vertex 0.054392 -0.020090 0.031058
endloop
endfacet
facet normal 0.670595 0.670593 0.317187
outer loop
vertex 0.054392 -0.020090 0.031058
vertex 0.090759 -0.058205 0.034753
vertex 0.091633 -0.057331 0.031058
endloop
endfacet
facet normal 0.697298 0.697298 0.165986
outer loop
vertex 0.054392 -0.020090 0.031058
vertex 0.091633 -0.057331 0.031058
vertex 0.054849 -0.019633 0.027216
endloop
endfacet
facet normal 0.697298 0.697298 0.165986
outer loop
vertex 0.054849 -0.019633 0.027216
vertex 0.091633 -0.057331 0.031058
vertex 0.092090 -0.056874 0.027216
endloop
endfacet
facet normal 0.707066 0.707066 0.010753
outer loop
vertex 0.054849 -0.019633 0.027216
vertex 0.092090 -0.056874 0.027216
vertex 0.054879 -0.019603 0.023320
endloop
endfacet
facet normal 0.707066 0.707066 0.010753
outer loop
vertex 0.054879 -0.019603 0.023320
vertex 0.092090 -0.056874 0.027216
vertex 0.092120 -0.056844 0.023320
endloop
endfacet
facet normal 0.699660 0.699661 -0.144741
outer loop
vertex 0.054879 -0.019603 0.023320
vertex 0.092120 -0.056844 0.023320
vertex 0.054480 -0.020002 0.019465
endloop
endfacet
facet normal 0.699660 0.699661 -0.144740
outer loop
vertex 0.054480 -0.020002 0.019465
vertex 0.092120 -0.056844 0.023320
vertex 0.091721 -0.057243 0.019465
endloop
endfacet
facet normal 0.675262 0.675262 -0.296720
outer loop
vertex 0.054480 -0.020002 0.019465
vertex 0.091721 -0.057243 0.019465
vertex 0.053662 -0.020819 0.015744
endloop
endfacet
facet normal 0.675262 0.675262 -0.296720
outer loop
vertex 0.053662 -0.020819 0.015744
vertex 0.091721 -0.057243 0.019465
vertex 0.090903 -0.058060 0.015744
endloop
endfacet
facet normal 0.634463 0.634463 -0.441491
outer loop
vertex 0.053662 -0.020819 0.015744
vertex 0.090903 -0.058060 0.015744
vertex 0.052446 -0.022036 0.012248
endloop
endfacet
facet normal 0.634462 0.634462 -0.441492
outer loop
vertex 0.052446 -0.022036 0.012248
vertex 0.090903 -0.058060 0.015744
vertex 0.089687 -0.059277 0.012248
endloop
endfacet
facet normal 0.578254 0.578254 -0.575539
outer loop
vertex 0.052446 -0.022036 0.012248
vertex 0.089687 -0.059277 0.012248
vertex 0.050861 -0.023621 0.009062
endloop
endfacet
facet normal -0.425407 -0.425407 -0.798785
outer loop
vertex 0.027738 -0.046743 0.003919
vertex 0.025538 -0.048944 0.006263
vertex -0.011703 -0.011703 0.006263
endloop
endfacet
facet normal -0.508000 -0.508000 -0.695609
outer loop
vertex -0.011703 -0.011703 0.006263
vertex 0.025538 -0.048944 0.006263
vertex -0.013620 -0.013620 0.009062
endloop
endfacet
facet normal -0.507999 -0.508000 -0.695610
outer loop
vertex -0.011703 -0.011703 0.006263
vertex -0.013620 -0.013620 0.009062
vertex -0.050861 0.023621 0.009062
endloop
endfacet
facet normal -0.578253 -0.578253 -0.575540
outer loop
vertex -0.050861 0.023621 0.009062
vertex -0.013620 -0.013620 0.009062
vertex -0.052446 0.022036 0.012248
endloop
endfacet
facet normal -0.578253 -0.578253 -0.575540
outer loop
vertex -0.050861 0.023621 0.009062
vertex -0.052446 0.022036 0.012248
vertex -0.089687 0.059277 0.012248
endloop
endfacet
facet normal -0.634462 -0.634462 -0.441492
outer loop
vertex -0.089687 0.059277 0.012248
vertex -0.052446 0.022036 0.012248
vertex -0.090903 0.058060 0.015744
endloop
endfacet
facet normal -0.507999 -0.507999 -0.695611
outer loop
vertex -0.013620 -0.013620 0.009062
vertex 0.025538 -0.048944 0.006263
vertex 0.023621 -0.050861 0.009062
endloop
endfacet
facet normal -0.578254 -0.578254 -0.575539
outer loop
vertex -0.013620 -0.013620 0.009062
vertex 0.023621 -0.050861 0.009062
vertex -0.015205 -0.015205 0.012248
endloop
endfacet
facet normal -0.578253 -0.578253 -0.575541
outer loop
vertex -0.015205 -0.015205 0.012248
vertex 0.023621 -0.050861 0.009062
vertex 0.022036 -0.052446 0.012248
endloop
endfacet
facet normal -0.634462 -0.634462 -0.441492
outer loop
vertex -0.015205 -0.015205 0.012248
vertex 0.022036 -0.052446 0.012248
vertex -0.016421 -0.016421 0.015744
endloop
endfacet
facet normal -0.634463 -0.634463 -0.441490
outer loop
vertex -0.016421 -0.016421 0.015744
vertex 0.022036 -0.052446 0.012248
vertex 0.020819 -0.053662 0.015744
endloop
endfacet
facet normal -0.675262 -0.675262 -0.296721
outer loop
vertex -0.016421 -0.016421 0.015744
vertex 0.020819 -0.053662 0.015744
vertex -0.017239 -0.017239 0.019465
endloop
endfacet
facet normal -0.675262 -0.675262 -0.296720
outer loop
vertex -0.017239 -0.017239 0.019465
vertex 0.020819 -0.053662 0.015744
vertex 0.020002 -0.054480 0.019465
endloop
endfacet
facet normal -0.699661 -0.699661 -0.144741
outer loop
vertex -0.017239 -0.017239 0.019465
vertex 0.020002 -0.054480 0.019465
vertex -0.017638 -0.017638 0.023320
endloop
endfacet
facet normal -0.699661 -0.699660 -0.144740
outer loop
vertex -0.017638 -0.017638 0.023320
vertex 0.020002 -0.054480 0.019465
vertex 0.019603 -0.054879 0.023320
endloop
endfacet
facet normal -0.707066 -0.707066 0.010753
outer loop
vertex -0.017638 -0.017638 0.023320
vertex 0.019603 -0.054879 0.023320
vertex -0.017608 -0.017608 0.027216
endloop
endfacet
facet normal -0.707066 -0.707066 0.010753
outer loop
vertex -0.017608 -0.017608 0.027216
vertex 0.019603 -0.054879 0.023320
vertex 0.019633 -0.054849 0.027216
endloop
endfacet
facet normal -0.697298 -0.697298 0.165986
outer loop
vertex -0.017608 -0.017608 0.027216
vertex 0.019633 -0.054849 0.027216
vertex -0.017151 -0.017151 0.031058
endloop
endfacet
facet normal -0.697298 -0.697298 0.165986
outer loop
vertex -0.017151 -0.017151 0.031058
vertex 0.019633 -0.054849 0.027216
vertex 0.020090 -0.054392 0.031058
endloop
endfacet
facet normal -0.670595 -0.670593 0.317186
outer loop
vertex -0.017151 -0.017151 0.031058
vertex 0.020090 -0.054392 0.031058
vertex -0.016277 -0.016277 0.034753
endloop
endfacet
facet normal -0.670594 -0.670594 0.317187
outer loop
vertex -0.016277 -0.016277 0.034753
vertex 0.020090 -0.054392 0.031058
vertex 0.020964 -0.053518 0.034753
endloop
endfacet
facet normal -0.627602 -0.627603 0.460685
outer loop
vertex -0.016277 -0.016277 0.034753
vertex 0.020964 -0.053518 0.034753
vertex -0.015008 -0.015008 0.038211
endloop
endfacet
facet normal -0.627603 -0.627602 0.460684
outer loop
vertex -0.015008 -0.015008 0.038211
vertex 0.020964 -0.053518 0.034753
vertex 0.022233 -0.052249 0.038211
endloop
endfacet
facet normal -0.569367 -0.569368 0.592994
outer loop
vertex -0.015008 -0.015008 0.038211
vertex 0.022233 -0.052249 0.038211
vertex -0.013374 -0.013374 0.041348
endloop
endfacet
facet normal -0.569369 -0.569368 0.592992
outer loop
vertex -0.013374 -0.013374 0.041348
vertex 0.022233 -0.052249 0.038211
vertex 0.023867 -0.050615 0.041348
endloop
endfacet
facet normal -0.497304 -0.497305 0.710898
outer loop
vertex -0.013374 -0.013374 0.041348
vertex 0.023867 -0.050615 0.041348
vertex -0.011416 -0.011416 0.044088
endloop
endfacet
facet normal -0.497305 -0.497305 0.710898
outer loop
vertex -0.011416 -0.011416 0.044088
vertex 0.023867 -0.050615 0.041348
vertex 0.025825 -0.048656 0.044088
endloop
endfacet
facet normal -0.413162 -0.413162 0.811538
outer loop
vertex -0.011416 -0.011416 0.044088
vertex 0.025825 -0.048656 0.044088
vertex -0.009180 -0.009180 0.046365
endloop
endfacet
facet normal -0.413163 -0.413162 0.811538
outer loop
vertex -0.009180 -0.009180 0.046365
vertex 0.025825 -0.048656 0.044088
vertex 0.028061 -0.046421 0.046365
endloop
endfacet
facet normal -0.318984 -0.318986 0.892467
outer loop
vertex -0.009180 -0.009180 0.046365
vertex 0.028061 -0.046421 0.046365
vertex -0.006721 -0.006721 0.048123
endloop
endfacet
facet normal -0.318987 -0.318986 0.892466
outer loop
vertex -0.006721 -0.006721 0.048123
vertex 0.028061 -0.046421 0.046365
vertex 0.030520 -0.043962 0.048123
endloop
endfacet
facet normal -0.217062 -0.217061 0.951719
outer loop
vertex -0.006721 -0.006721 0.048123
vertex 0.030520 -0.043962 0.048123
vertex -0.004099 -0.004099 0.049319
endloop
endfacet
facet normal -0.217061 -0.217062 0.951719
outer loop
vertex -0.004099 -0.004099 0.049319
vertex 0.030520 -0.043962 0.048123
vertex 0.033142 -0.041340 0.049319
endloop
endfacet
facet normal -0.109867 -0.109864 0.987856
outer loop
vertex -0.004099 -0.004099 0.049319
vertex 0.033142 -0.041340 0.049319
vertex -0.001377 -0.001377 0.049924
endloop
endfacet
facet normal -0.109864 -0.109864 0.987856
outer loop
vertex -0.001377 -0.001377 0.049924
vertex 0.033142 -0.041340 0.049319
vertex 0.035863 -0.038618 0.049924
endloop
endfacet
facet normal 0.000002 0.000000 1.000000
outer loop
vertex -0.001377 -0.001377 0.049924
vertex 0.035863 -0.038618 0.049924
vertex 0.001377 0.001378 0.049924
endloop
endfacet
facet normal -0.000002 0.000000 1.000000
outer loop
vertex 0.001377 0.001378 0.049924
vertex 0.035863 -0.038618 0.049924
vertex 0.038618 -0.035863 0.049924
endloop
endfacet
facet normal 0.109865 0.109864 0.987856
outer loop
vertex 0.001377 0.001378 0.049924
vertex 0.038618 -0.035863 0.049924
vertex 0.004099 0.004099 0.049319
endloop
endfacet
facet normal 0.109864 0.109864 0.987856
outer loop
vertex 0.004099 0.004099 0.049319
vertex 0.038618 -0.035863 0.049924
vertex 0.041340 -0.033142 0.049319
endloop
endfacet
facet normal 0.217063 0.217062 0.951718
outer loop
vertex 0.004099 0.004099 0.049319
vertex 0.041340 -0.033142 0.049319
vertex 0.006721 0.006721 0.048123
endloop
endfacet
facet normal 0.217062 0.217062 0.951719
outer loop
vertex 0.006721 0.006721 0.048123
vertex 0.041340 -0.033142 0.049319
vertex 0.043962 -0.030520 0.048123
endloop
endfacet
facet normal 0.318985 0.318986 0.892466
outer loop
vertex 0.006721 0.006721 0.048123
vertex 0.043962 -0.030520 0.048123
vertex 0.009180 0.009180 0.046365
endloop
endfacet
facet normal 0.318987 0.318986 0.892466
outer loop
vertex 0.009180 0.009180 0.046365
vertex 0.043962 -0.030520 0.048123
vertex 0.046421 -0.028061 0.046365
endloop
endfacet
facet normal 0.413162 0.413162 0.811538
outer loop
vertex 0.009180 0.009180 0.046365
vertex 0.046421 -0.028061 0.046365
vertex 0.011416 0.011416 0.044088
endloop
endfacet
facet normal 0.413162 0.413162 0.811538
outer loop
vertex 0.011416 0.011416 0.044088
vertex 0.046421 -0.028061 0.046365
vertex 0.048657 -0.025825 0.044088
endloop
endfacet
facet normal 0.497305 0.497304 0.710898
outer loop
vertex 0.011416 0.011416 0.044088
vertex 0.048657 -0.025825 0.044088
vertex 0.013374 0.013374 0.041348
endloop
endfacet
facet normal 0.497304 0.497305 0.710898
outer loop
vertex 0.013374 0.013374 0.041348
vertex 0.048657 -0.025825 0.044088
vertex 0.050615 -0.023867 0.041348
endloop
endfacet
facet normal 0.569369 0.569367 0.592992
outer loop
vertex 0.013374 0.013374 0.041348
vertex 0.050615 -0.023867 0.041348
vertex 0.015008 0.015008 0.038211
endloop
endfacet
facet normal 0.569367 0.569369 0.592993
outer loop
vertex 0.015008 0.015008 0.038211
vertex 0.050615 -0.023867 0.041348
vertex 0.052249 -0.022233 0.038211
endloop
endfacet
facet normal 0.627603 0.627602 0.460684
outer loop
vertex 0.015008 0.015008 0.038211
vertex 0.052249 -0.022233 0.038211
vertex 0.016277 0.016277 0.034753
endloop
endfacet
facet normal 0.627602 0.627603 0.460685
outer loop
vertex 0.016277 0.016277 0.034753
vertex 0.052249 -0.022233 0.038211
vertex 0.053518 -0.020964 0.034753
endloop
endfacet
facet normal 0.670594 0.670594 0.317187
outer loop
vertex 0.016277 0.016277 0.034753
vertex 0.053518 -0.020964 0.034753
vertex 0.017151 0.017151 0.031058
endloop
endfacet
facet normal 0.670595 0.670594 0.317186
outer loop
vertex 0.017151 0.017151 0.031058
vertex 0.053518 -0.020964 0.034753
vertex 0.054392 -0.020090 0.031058
endloop
endfacet
facet normal 0.697298 0.697298 0.165986
outer loop
vertex 0.017151 0.017151 0.031058
vertex 0.054392 -0.020090 0.031058
vertex 0.017608 0.017608 0.027216
endloop
endfacet
facet normal 0.697298 0.697298 0.165986
outer loop
vertex 0.017608 0.017608 0.027216
vertex 0.054392 -0.020090 0.031058
vertex 0.054849 -0.019633 0.027216
endloop
endfacet
facet normal 0.707066 0.707066 0.010753
outer loop
vertex 0.017608 0.017608 0.027216
vertex 0.054849 -0.019633 0.027216
vertex 0.017638 0.017638 0.023320
endloop
endfacet
facet normal 0.707066 0.707066 0.010753
outer loop
vertex 0.017638 0.017638 0.023320
vertex 0.054849 -0.019633 0.027216
vertex 0.054879 -0.019603 0.023320
endloop
endfacet
facet normal 0.699660 0.699661 -0.144741
outer loop
vertex 0.017638 0.017638 0.023320
vertex 0.054879 -0.019603 0.023320
vertex 0.017239 0.017239 0.019465
endloop
endfacet
facet normal 0.699661 0.699661 -0.144741
outer loop
vertex 0.017239 0.017239 0.019465
vertex 0.054879 -0.019603 0.023320
vertex 0.054480 -0.020002 0.019465
endloop
endfacet
facet normal 0.675262 0.675262 -0.296720
outer loop
vertex 0.017239 0.017239 0.019465
vertex 0.054480 -0.020002 0.019465
vertex 0.016421 0.016422 0.015744
endloop
endfacet
facet normal 0.675262 0.675262 -0.296720
outer loop
vertex 0.016421 0.016422 0.015744
vertex 0.054480 -0.020002 0.019465
vertex 0.053662 -0.020819 0.015744
endloop
endfacet
facet normal 0.634463 0.634463 -0.441491
outer loop
vertex 0.016421 0.016422 0.015744
vertex 0.053662 -0.020819 0.015744
vertex 0.015205 0.015205 0.012248
endloop
endfacet
facet normal 0.634463 0.634463 -0.441491
outer loop
vertex 0.015205 0.015205 0.012248
vertex 0.053662 -0.020819 0.015744
vertex 0.052446 -0.022036 0.012248
endloop
endfacet
facet normal 0.578253 0.578253 -0.575540
outer loop
vertex 0.015205 0.015205 0.012248
vertex 0.052446 -0.022036 0.012248
vertex 0.013620 0.013620 0.009062
endloop
endfacet
facet normal 0.578253 0.578253 -0.575540
outer loop
vertex 0.013620 0.013620 0.009062
vertex 0.052446 -0.022036 0.012248
vertex 0.050861 -0.023621 0.009062
endloop
endfacet
facet normal 0.507999 0.508000 -0.695610
outer loop
vertex 0.013620 0.013620 0.009062
vertex 0.050861 -0.023621 0.009062
vertex 0.011703 0.011703 0.006263
endloop
endfacet
facet normal -0.578253 -0.578253 -0.575540
outer loop
vertex -0.013620 -0.013620 0.009062
vertex -0.015205 -0.015205 0.012248
vertex -0.052446 0.022036 0.012248
endloop
endfacet
facet normal -0.634462 -0.634463 -0.441491
outer loop
vertex -0.052446 0.022036 0.012248
vertex -0.015205 -0.015205 0.012248
vertex -0.053662 0.020819 0.015744
endloop
endfacet
facet normal -0.634463 -0.634463 -0.441491
outer loop
vertex -0.052446 0.022036 0.012248
vertex -0.053662 0.020819 0.015744
vertex -0.090903 0.058060 0.015744
endloop
endfacet
facet normal -0.675262 -0.675262 -0.296721
outer loop
vertex -0.090903 0.058060 0.015744
vertex -0.053662 0.020819 0.015744
vertex -0.091721 0.057243 0.019465
endloop
endfacet
facet normal -0.634463 -0.634462 -0.441491
outer loop
vertex -0.053662 0.020819 0.015744
vertex -0.015205 -0.015205 0.012248
vertex -0.016421 -0.016421 0.015744
endloop
endfacet
facet normal -0.675262 -0.675262 -0.296720
outer loop
vertex -0.053662 0.020819 0.015744
vertex -0.016421 -0.016421 0.015744
vertex -0.054480 0.020002 0.019465
endloop
endfacet
facet normal -0.675262 -0.675262 -0.296720
outer loop
vertex -0.054480 0.020002 0.019465
vertex -0.016421 -0.016421 0.015744
vertex -0.017239 -0.017239 0.019465
endloop
endfacet
facet normal -0.699660 -0.699661 -0.144741
outer loop
vertex -0.054480 0.020002 0.019465
vertex -0.017239 -0.017239 0.019465
vertex -0.054879 0.019603 0.023320
endloop
endfacet
facet normal -0.699661 -0.699660 -0.144741
outer loop
vertex -0.054879 0.019603 0.023320
vertex -0.017239 -0.017239 0.019465
vertex -0.017638 -0.017638 0.023320
endloop
endfacet
facet normal -0.707065 -0.707066 0.010753
outer loop
vertex -0.054879 0.019603 0.023320
vertex -0.017638 -0.017638 0.023320
vertex -0.054849 0.019633 0.027216
endloop
endfacet
facet normal -0.707066 -0.707066 0.010753
outer loop
vertex -0.054849 0.019633 0.027216
vertex -0.017638 -0.017638 0.023320
vertex -0.017608 -0.017608 0.027216
endloop
endfacet
facet normal -0.697298 -0.697298 0.165986
outer loop
vertex -0.054849 0.019633 0.027216
vertex -0.017608 -0.017608 0.027216
vertex -0.054392 0.020090 0.031058
endloop
endfacet
facet normal -0.697298 -0.697298 0.165986
outer loop
vertex -0.054392 0.020090 0.031058
vertex -0.017608 -0.017608 0.027216
vertex -0.017151 -0.017151 0.031058
endloop
endfacet
facet normal -0.670595 -0.670593 0.317186
outer loop
vertex -0.054392 0.020090 0.031058
vertex -0.017151 -0.017151 0.031058
vertex -0.053518 0.020964 0.034753
endloop
endfacet
facet normal -0.670594 -0.670594 0.317187
outer loop
vertex -0.053518 0.020964 0.034753
vertex -0.017151 -0.017151 0.031058
vertex -0.016277 -0.016277 0.034753
endloop
endfacet
facet normal -0.627602 -0.627603 0.460685
outer loop
vertex -0.053518 0.020964 0.034753
vertex -0.016277 -0.016277 0.034753
vertex -0.052249 0.022233 0.038211
endloop
endfacet
facet normal -0.627603 -0.627602 0.460684
outer loop
vertex -0.052249 0.022233 0.038211
vertex -0.016277 -0.016277 0.034753
vertex -0.015008 -0.015008 0.038211
endloop
endfacet
facet normal -0.569367 -0.569368 0.592993
outer loop
vertex -0.052249 0.022233 0.038211
vertex -0.015008 -0.015008 0.038211
vertex -0.050615 0.023867 0.041348
endloop
endfacet
facet normal -0.569369 -0.569367 0.592992
outer loop
vertex -0.050615 0.023867 0.041348
vertex -0.015008 -0.015008 0.038211
vertex -0.013374 -0.013374 0.041348
endloop
endfacet
facet normal -0.497304 -0.497305 0.710898
outer loop
vertex -0.050615 0.023867 0.041348
vertex -0.013374 -0.013374 0.041348
vertex -0.048657 0.025825 0.044088
endloop
endfacet
facet normal -0.497305 -0.497305 0.710898
outer loop
vertex -0.048657 0.025825 0.044088
vertex -0.013374 -0.013374 0.041348
vertex -0.011416 -0.011416 0.044088
endloop
endfacet
facet normal -0.413163 -0.413162 0.811538
outer loop
vertex -0.048657 0.025825 0.044088
vertex -0.011416 -0.011416 0.044088
vertex -0.046421 0.028061 0.046365
endloop
endfacet
facet normal -0.413162 -0.413162 0.811538
outer loop
vertex -0.046421 0.028061 0.046365
vertex -0.011416 -0.011416 0.044088
vertex -0.009180 -0.009180 0.046365
endloop
endfacet
facet normal -0.318987 -0.318986 0.892466
outer loop
vertex -0.046421 0.028061 0.046365
vertex -0.009180 -0.009180 0.046365
vertex -0.043962 0.030520 0.048123
endloop
endfacet
facet normal -0.318986 -0.318986 0.892466
outer loop
vertex -0.043962 0.030520 0.048123
vertex -0.009180 -0.009180 0.046365
vertex -0.006721 -0.006721 0.048123
endloop
endfacet
facet normal -0.217062 -0.217062 0.951719
outer loop
vertex -0.043962 0.030520 0.048123
vertex -0.006721 -0.006721 0.048123
vertex -0.041340 0.033142 0.049319
endloop
endfacet
facet normal -0.217062 -0.217062 0.951719
outer loop
vertex -0.041340 0.033142 0.049319
vertex -0.006721 -0.006721 0.048123
vertex -0.004099 -0.004099 0.049319
endloop
endfacet
facet normal -0.109863 -0.109864 0.987856
outer loop
vertex -0.041340 0.033142 0.049319
vertex -0.004099 -0.004099 0.049319
vertex -0.038618 0.035863 0.049924
endloop
endfacet
facet normal -0.109865 -0.109864 0.987856
outer loop
vertex -0.038618 0.035863 0.049924
vertex -0.004099 -0.004099 0.049319
vertex -0.001377 -0.001377 0.049924
endloop
endfacet
facet normal 0.000000 0.000000 1.000000
outer loop
vertex -0.038618 0.035863 0.049924
vertex -0.001377 -0.001377 0.049924
vertex -0.035863 0.038618 0.049924
endloop
endfacet
facet normal 0.000001 0.000000 1.000000
outer loop
vertex -0.035863 0.038618 0.049924
vertex -0.001377 -0.001377 0.049924
vertex 0.001377 0.001378 0.049924
endloop
endfacet
facet normal 0.109865 0.109864 0.987856
outer loop
vertex -0.035863 0.038618 0.049924
vertex 0.001377 0.001378 0.049924
vertex -0.033142 0.041340 0.049319
endloop
endfacet
facet normal 0.109864 0.109864 0.987856
outer loop
vertex -0.033142 0.041340 0.049319
vertex 0.001377 0.001378 0.049924
vertex 0.004099 0.004099 0.049319
endloop
endfacet
facet normal 0.217060 0.217062 0.951719
outer loop
vertex -0.033142 0.041340 0.049319
vertex 0.004099 0.004099 0.049319
vertex -0.030520 0.043962 0.048123
endloop
endfacet
facet normal 0.217062 0.217061 0.951719
outer loop
vertex -0.030520 0.043962 0.048123
vertex 0.004099 0.004099 0.049319
vertex 0.006721 0.006721 0.048123
endloop
endfacet
facet normal 0.318987 0.318986 0.892466
outer loop
vertex -0.030520 0.043962 0.048123
vertex 0.006721 0.006721 0.048123
vertex -0.028061 0.046421 0.046365
endloop
endfacet
facet normal 0.318984 0.318986 0.892467
outer loop
vertex -0.028061 0.046421 0.046365
vertex 0.006721 0.006721 0.048123
vertex 0.009180 0.009180 0.046365
endloop
endfacet
facet normal 0.413163 0.413163 0.811537
outer loop
vertex -0.028061 0.046421 0.046365
vertex 0.009180 0.009180 0.046365
vertex -0.025825 0.048657 0.044088
endloop
endfacet
facet normal 0.413162 0.413162 0.811538
outer loop
vertex -0.025825 0.048657 0.044088
vertex 0.009180 0.009180 0.046365
vertex 0.011416 0.011416 0.044088
endloop
endfacet
facet normal 0.497305 0.497304 0.710898
outer loop
vertex -0.025825 0.048657 0.044088
vertex 0.011416 0.011416 0.044088
vertex -0.023867 0.050615 0.041348
endloop
endfacet
facet normal 0.497304 0.497305 0.710898
outer loop
vertex -0.023867 0.050615 0.041348
vertex 0.011416 0.011416 0.044088
vertex 0.013374 0.013374 0.041348
endloop
endfacet
facet normal 0.569369 0.569368 0.592992
outer loop
vertex -0.023867 0.050615 0.041348
vertex 0.013374 0.013374 0.041348
vertex -0.022233 0.052249 0.038211
endloop
endfacet
facet normal 0.569366 0.569368 0.592994
outer loop
vertex -0.022233 0.052249 0.038211
vertex 0.013374 0.013374 0.041348
vertex 0.015008 0.015008 0.038211
endloop
endfacet
facet normal 0.627603 0.627603 0.460684
outer loop
vertex -0.022233 0.052249 0.038211
vertex 0.015008 0.015008 0.038211
vertex -0.020964 0.053518 0.034753
endloop
endfacet
facet normal 0.627602 0.627603 0.460685
outer loop
vertex -0.020964 0.053518 0.034753
vertex 0.015008 0.015008 0.038211
vertex 0.016277 0.016277 0.034753
endloop
endfacet
facet normal 0.670594 0.670594 0.317187
outer loop
vertex -0.020964 0.053518 0.034753
vertex 0.016277 0.016277 0.034753
vertex -0.020090 0.054392 0.031058
endloop
endfacet
facet normal 0.670595 0.670594 0.317186
outer loop
vertex -0.020090 0.054392 0.031058
vertex 0.016277 0.016277 0.034753
vertex 0.017151 0.017151 0.031058
endloop
endfacet
facet normal 0.697298 0.697298 0.165987
outer loop
vertex -0.020090 0.054392 0.031058
vertex 0.017151 0.017151 0.031058
vertex -0.019633 0.054849 0.027216
endloop
endfacet
facet normal 0.697298 0.697298 0.165986
outer loop
vertex -0.019633 0.054849 0.027216
vertex 0.017151 0.017151 0.031058
vertex 0.017608 0.017608 0.027216
endloop
endfacet
facet normal 0.707066 0.707066 0.010752
outer loop
vertex -0.019633 0.054849 0.027216
vertex 0.017608 0.017608 0.027216
vertex -0.019603 0.054879 0.023320
endloop
endfacet
facet normal 0.707066 0.707066 0.010753
outer loop
vertex -0.019603 0.054879 0.023320
vertex 0.017608 0.017608 0.027216
vertex 0.017638 0.017638 0.023320
endloop
endfacet
facet normal 0.699661 0.699661 -0.144739
outer loop
vertex -0.019603 0.054879 0.023320
vertex 0.017638 0.017638 0.023320
vertex -0.020002 0.054480 0.019465
endloop
endfacet
facet normal 0.699661 0.699660 -0.144742
outer loop
vertex -0.020002 0.054480 0.019465
vertex 0.017638 0.017638 0.023320
vertex 0.017239 0.017239 0.019465
endloop
endfacet
facet normal 0.675262 0.675262 -0.296720
outer loop
vertex -0.020002 0.054480 0.019465
vertex 0.017239 0.017239 0.019465
vertex -0.020819 0.053662 0.015744
endloop
endfacet
facet normal 0.675262 0.675262 -0.296719
outer loop
vertex -0.020819 0.053662 0.015744
vertex 0.017239 0.017239 0.019465
vertex 0.016421 0.016422 0.015744
endloop
endfacet
facet normal 0.634463 0.634463 -0.441491
outer loop
vertex -0.020819 0.053662 0.015744
vertex 0.016421 0.016422 0.015744
vertex -0.022036 0.052446 0.012248
endloop
endfacet
facet normal 0.634462 0.634462 -0.441492
outer loop
vertex -0.022036 0.052446 0.012248
vertex 0.016421 0.016422 0.015744
vertex 0.015205 0.015205 0.012248
endloop
endfacet
facet normal 0.578253 0.578253 -0.575540
outer loop
vertex -0.022036 0.052446 0.012248
vertex 0.015205 0.015205 0.012248
vertex -0.023621 0.050861 0.009062
endloop
endfacet
facet normal 0.578254 0.578254 -0.575539
outer loop
vertex -0.023621 0.050861 0.009062
vertex 0.015205 0.015205 0.012248
vertex 0.013620 0.013620 0.009062
endloop
endfacet
facet normal 0.507998 0.507999 -0.695611
outer loop
vertex -0.023621 0.050861 0.009062
vertex 0.013620 0.013620 0.009062
vertex -0.025538 0.048944 0.006263
endloop
endfacet
facet normal 0.508000 0.508000 -0.695609
outer loop
vertex -0.025538 0.048944 0.006263
vertex 0.013620 0.013620 0.009062
vertex 0.011703 0.011703 0.006263
endloop
endfacet
facet normal 0.425407 0.425407 -0.798785
outer loop
vertex -0.025538 0.048944 0.006263
vertex 0.011703 0.011703 0.006263
vertex -0.027738 0.046743 0.003919
endloop
endfacet
facet normal -0.699660 -0.699661 -0.144740
outer loop
vertex -0.092120 0.056844 0.023320
vertex -0.091721 0.057243 0.019465
vertex -0.054480 0.020002 0.019465
endloop
endfacet
facet normal -0.675262 -0.675262 -0.296721
outer loop
vertex -0.054480 0.020002 0.019465
vertex -0.091721 0.057243 0.019465
vertex -0.053662 0.020819 0.015744
endloop
endfacet
facet normal -0.699661 -0.699660 -0.144740
outer loop
vertex -0.092120 0.056844 0.023320
vertex -0.054480 0.020002 0.019465
vertex -0.054879 0.019603 0.023320
endloop
endfacet
facet normal -0.707066 -0.707066 0.010753
outer loop
vertex -0.092090 0.056874 0.027216
vertex -0.092120 0.056844 0.023320
vertex -0.054879 0.019603 0.023320
endloop
endfacet
facet normal -0.707066 -0.707066 0.010752
outer loop
vertex -0.092090 0.056874 0.027216
vertex -0.054879 0.019603 0.023320
vertex -0.054849 0.019633 0.027216
endloop
endfacet
facet normal -0.697298 -0.697298 0.165986
outer loop
vertex -0.091633 0.057331 0.031058
vertex -0.092090 0.056874 0.027216
vertex -0.054849 0.019633 0.027216
endloop
endfacet
facet normal -0.697298 -0.697298 0.165987
outer loop
vertex -0.091633 0.057331 0.031058
vertex -0.054849 0.019633 0.027216
vertex -0.054392 0.020090 0.031058
endloop
endfacet
facet normal -0.670595 -0.670593 0.317187
outer loop
vertex -0.090759 0.058205 0.034753
vertex -0.091633 0.057331 0.031058
vertex -0.054392 0.020090 0.031058
endloop
endfacet
facet normal -0.670594 -0.670594 0.317187
outer loop
vertex -0.090759 0.058205 0.034753
vertex -0.054392 0.020090 0.031058
vertex -0.053518 0.020964 0.034753
endloop
endfacet
facet normal -0.627602 -0.627603 0.460684
outer loop
vertex -0.089490 0.059474 0.038211
vertex -0.090759 0.058205 0.034753
vertex -0.053518 0.020964 0.034753
endloop
endfacet
facet normal -0.627603 -0.627602 0.460685
outer loop
vertex -0.089490 0.059474 0.038211
vertex -0.053518 0.020964 0.034753
vertex -0.052249 0.022233 0.038211
endloop
endfacet
facet normal -0.569366 -0.569369 0.592993
outer loop
vertex -0.087856 0.061108 0.041348
vertex -0.089490 0.059474 0.038211
vertex -0.052249 0.022233 0.038211
endloop
endfacet
facet normal -0.569369 -0.569367 0.592992
outer loop
vertex -0.087856 0.061108 0.041348
vertex -0.052249 0.022233 0.038211
vertex -0.050615 0.023867 0.041348
endloop
endfacet
facet normal -0.497304 -0.497305 0.710899
outer loop
vertex -0.085897 0.063066 0.044088
vertex -0.087856 0.061108 0.041348
vertex -0.050615 0.023867 0.041348
endloop
endfacet
facet normal -0.497305 -0.497305 0.710898
outer loop
vertex -0.085897 0.063066 0.044088
vertex -0.050615 0.023867 0.041348
vertex -0.048657 0.025825 0.044088
endloop
endfacet
facet normal -0.413162 -0.413162 0.811538
outer loop
vertex -0.083662 0.065302 0.046365
vertex -0.085897 0.063066 0.044088
vertex -0.048657 0.025825 0.044088
endloop
endfacet
facet normal -0.413162 -0.413162 0.811538
outer loop
vertex -0.083662 0.065302 0.046365
vertex -0.048657 0.025825 0.044088
vertex -0.046421 0.028061 0.046365
endloop
endfacet
facet normal -0.318985 -0.318986 0.892467
outer loop
vertex -0.081203 0.067761 0.048123
vertex -0.083662 0.065302 0.046365
vertex -0.046421 0.028061 0.046365
endloop
endfacet
facet normal -0.318988 -0.318986 0.892466
outer loop
vertex -0.081203 0.067761 0.048123
vertex -0.046421 0.028061 0.046365
vertex -0.043962 0.030520 0.048123
endloop
endfacet
facet normal -0.217062 -0.217062 0.951719
outer loop
vertex -0.078581 0.070383 0.049319
vertex -0.081203 0.067761 0.048123
vertex -0.043962 0.030520 0.048123
endloop
endfacet
facet normal -0.217062 -0.217062 0.951719
outer loop
vertex -0.078581 0.070383 0.049319
vertex -0.043962 0.030520 0.048123
vertex -0.041340 0.033142 0.049319
endloop
endfacet
facet normal -0.109864 -0.109864 0.987856
outer loop
vertex -0.075859 0.073104 0.049924
vertex -0.078581 0.070383 0.049319
vertex -0.041340 0.033142 0.049319
endloop
endfacet
facet normal -0.109864 -0.109864 0.987856
outer loop
vertex -0.075859 0.073104 0.049924
vertex -0.041340 0.033142 0.049319
vertex -0.038618 0.035863 0.049924
endloop
endfacet
facet normal -0.000001 0.000000 1.000000
outer loop
vertex -0.073104 0.075859 0.049924
vertex -0.075859 0.073104 0.049924
vertex -0.038618 0.035863 0.049924
endloop
endfacet
facet normal 0.000001 0.000000 1.000000
outer loop
vertex -0.073104 0.075859 0.049924
vertex -0.038618 0.035863 0.049924
vertex -0.035863 0.038618 0.049924
endloop
endfacet
facet normal 0.109865 0.109865 0.987856
outer loop
vertex -0.070383 0.078581 0.049319
vertex -0.073104 0.075859 0.049924
vertex -0.035863 0.038618 0.049924
endloop
endfacet
facet normal 0.109864 0.109864 0.987856
outer loop
vertex -0.070383 0.078581 0.049319
vertex -0.035863 0.038618 0.049924
vertex -0.033142 0.041340 0.049319
endloop
endfacet
facet normal 0.217062 0.217062 0.951718
outer loop
vertex -0.067761 0.081203 0.048123
vertex -0.070383 0.078581 0.049319
vertex -0.033142 0.041340 0.049319
endloop
endfacet
facet normal 0.217060 0.217061 0.951719
outer loop
vertex -0.067761 0.081203 0.048123
vertex -0.033142 0.041340 0.049319
vertex -0.030520 0.043962 0.048123
endloop
endfacet
facet normal 0.318987 0.318985 0.892466
outer loop
vertex -0.065302 0.083662 0.046365
vertex -0.067761 0.081203 0.048123
vertex -0.030520 0.043962 0.048123
endloop
endfacet
facet normal 0.318986 0.318987 0.892466
outer loop
vertex -0.065302 0.083662 0.046365
vertex -0.030520 0.043962 0.048123
vertex -0.028061 0.046421 0.046365
endloop
endfacet
facet normal 0.413162 0.413161 0.811539
outer loop
vertex -0.063066 0.085897 0.044088
vertex -0.065302 0.083662 0.046365
vertex -0.028061 0.046421 0.046365
endloop
endfacet
facet normal 0.413162 0.413162 0.811538
outer loop
vertex -0.063066 0.085897 0.044088
vertex -0.028061 0.046421 0.046365
vertex -0.025825 0.048657 0.044088
endloop
endfacet
facet normal 0.497305 0.497304 0.710898
outer loop
vertex -0.061108 0.087856 0.041348
vertex -0.063066 0.085897 0.044088
vertex -0.025825 0.048657 0.044088
endloop
endfacet
facet normal 0.497304 0.497305 0.710898
outer loop
vertex -0.061108 0.087856 0.041348
vertex -0.025825 0.048657 0.044088
vertex -0.023867 0.050615 0.041348
endloop
endfacet
facet normal 0.569369 0.569368 0.592991
outer loop
vertex -0.059474 0.089490 0.038211
vertex -0.061108 0.087856 0.041348
vertex -0.023867 0.050615 0.041348
endloop
endfacet
facet normal 0.569366 0.569368 0.592995
outer loop
vertex -0.059474 0.089490 0.038211
vertex -0.023867 0.050615 0.041348
vertex -0.022233 0.052249 0.038211
endloop
endfacet
facet normal 0.627603 0.627603 0.460683
outer loop
vertex -0.058205 0.090759 0.034753
vertex -0.059474 0.089490 0.038211
vertex -0.022233 0.052249 0.038211
endloop
endfacet
facet normal 0.627603 0.627603 0.460683
outer loop
vertex -0.058205 0.090759 0.034753
vertex -0.022233 0.052249 0.038211
vertex -0.020964 0.053518 0.034753
endloop
endfacet
facet normal 0.670593 0.670593 0.317191
outer loop
vertex -0.057331 0.091633 0.031058
vertex -0.058205 0.090759 0.034753
vertex -0.020964 0.053518 0.034753
endloop
endfacet
facet normal 0.670595 0.670594 0.317183
outer loop
vertex -0.057331 0.091633 0.031058
vertex -0.020964 0.053518 0.034753
vertex -0.020090 0.054392 0.031058
endloop
endfacet
facet normal 0.697297 0.697298 0.165988
outer loop
vertex -0.056874 0.092090 0.027216
vertex -0.057331 0.091633 0.031058
vertex -0.020090 0.054392 0.031058
endloop
endfacet
facet normal 0.697298 0.697298 0.165986
outer loop
vertex -0.056874 0.092090 0.027216
vertex -0.020090 0.054392 0.031058
vertex -0.019633 0.054849 0.027216
endloop
endfacet
facet normal 0.707066 0.707066 0.010754
outer loop
vertex -0.056844 0.092120 0.023320
vertex -0.056874 0.092090 0.027216
vertex -0.019633 0.054849 0.027216
endloop
endfacet
facet normal 0.707066 0.707066 0.010751
outer loop
vertex -0.056844 0.092120 0.023320
vertex -0.019633 0.054849 0.027216
vertex -0.019603 0.054879 0.023320
endloop
endfacet
facet normal 0.699661 0.699661 -0.144740
outer loop
vertex -0.057243 0.091721 0.019465
vertex -0.056844 0.092120 0.023320
vertex -0.019603 0.054879 0.023320
endloop
endfacet
facet normal 0.699661 0.699661 -0.144740
outer loop
vertex -0.057243 0.091721 0.019465
vertex -0.019603 0.054879 0.023320
vertex -0.020002 0.054480 0.019465
endloop
endfacet
facet normal 0.675262 0.675263 -0.296718
outer loop
vertex -0.058060 0.090903 0.015744
vertex -0.057243 0.091721 0.019465
vertex -0.020002 0.054480 0.019465
endloop
endfacet
facet normal 0.675261 0.675261 -0.296722
outer loop
vertex -0.058060 0.090903 0.015744
vertex -0.020002 0.054480 0.019465
vertex -0.020819 0.053662 0.015744
endloop
endfacet
facet normal 0.634464 0.634464 -0.441488
outer loop
vertex -0.059277 0.089687 0.012248
vertex -0.058060 0.090903 0.015744
vertex -0.020819 0.053662 0.015744
endloop
endfacet
facet normal 0.634461 0.634461 -0.441495
outer loop
vertex -0.059277 0.089687 0.012248
vertex -0.020819 0.053662 0.015744
vertex -0.022036 0.052446 0.012248
endloop
endfacet
facet normal 0.578254 0.578253 -0.575539
outer loop
vertex -0.060862 0.088102 0.009062
vertex -0.059277 0.089687 0.012248
vertex -0.022036 0.052446 0.012248
endloop
endfacet
facet normal 0.578255 0.578255 -0.575538
outer loop
vertex -0.060862 0.088102 0.009062
vertex -0.022036 0.052446 0.012248
vertex -0.023621 0.050861 0.009062
endloop
endfacet
facet normal 0.507999 0.507999 -0.695611
outer loop
vertex -0.062779 0.086185 0.006263
vertex -0.060862 0.088102 0.009062
vertex -0.023621 0.050861 0.009062
endloop
endfacet
facet normal 0.507998 0.507998 -0.695611
outer loop
vertex -0.062779 0.086185 0.006263
vertex -0.023621 0.050861 0.009062
vertex -0.025538 0.048944 0.006263
endloop
endfacet
facet normal 0.425407 0.425407 -0.798785
outer loop
vertex -0.064979 0.083984 0.003919
vertex -0.062779 0.086185 0.006263
vertex -0.025538 0.048944 0.006263
endloop
endfacet
facet normal 0.425407 0.425407 -0.798785
outer loop
vertex -0.064979 0.083984 0.003919
vertex -0.025538 0.048944 0.006263
vertex -0.027738 0.046743 0.003919
endloop
endfacet
facet normal -0.707107 -0.707107 0.000000
outer loop
vertex 0.104652 -0.118794 0.000000
vertex 0.104652 -0.118794 0.002087
vertex -0.118794 0.104652 0.000000
endloop
endfacet
facet normal -0.707107 -0.707107 0.000000
outer loop
vertex -0.118794 0.104652 0.000000
vertex 0.104652 -0.118794 0.002087
vertex -0.118794 0.104652 0.002087
endloop
endfacet
facet normal -0.707107 0.707107 0.000000
outer loop
vertex -0.118794 0.104652 0.000000
vertex -0.118794 0.104652 0.002087
vertex -0.104652 0.118794 0.000000
endloop
endfacet
facet normal -0.707107 0.707107 0.000000
outer loop
vertex -0.104652 0.118794 0.000000
vertex -0.118794 0.104652 0.002087
vertex -0.104652 0.118794 0.002087
endloop
endfacet
facet normal -0.707107 0.707106 -0.000007
outer loop
vertex -0.104652 0.118794 0.002087
vertex -0.118794 0.104652 0.002087
vertex -0.102285 0.121161 0.003861
endloop
endfacet
facet normal -0.707106 0.707107 0.000010
outer loop
vertex -0.102285 0.121161 0.003861
vertex -0.118794 0.104652 0.002087
vertex -0.100135 0.123311 0.006120
endloop
endfacet
facet normal -0.707106 0.707108 0.000000
outer loop
vertex -0.100135 0.123311 0.006120
vertex -0.118794 0.104652 0.002087
vertex -0.098251 0.125195 0.008813
endloop
endfacet
facet normal -0.707107 0.707107 0.000000
outer loop
vertex -0.098251 0.125195 0.008813
vertex -0.118794 0.104652 0.002087
vertex -0.096676 0.126769 0.011878
endloop
endfacet
facet normal -0.707107 0.707107 0.000000
outer loop
vertex -0.096676 0.126769 0.011878
vertex -0.118794 0.104652 0.002087
vertex -0.095447 0.127999 0.015243
endloop
endfacet
facet normal -0.707106 0.707107 0.000005
outer loop
vertex -0.095447 0.127999 0.015243
vertex -0.118794 0.104652 0.002087
vertex -0.094592 0.128854 0.018833
endloop
endfacet
facet normal -0.707108 0.707106 -0.000004
outer loop
vertex -0.094592 0.128854 0.018833
vertex -0.118794 0.104652 0.002087
vertex -0.094129 0.129316 0.022564
endloop
endfacet
facet normal -0.707107 0.707107 0.000000
outer loop
vertex -0.094129 0.129316 0.022564
vertex -0.118794 0.104652 0.002087
vertex -0.094071 0.129375 0.026352
endloop
endfacet
facet normal -0.707106 0.707107 0.000000
outer loop
vertex -0.094071 0.129375 0.026352
vertex -0.118794 0.104652 0.002087
vertex -0.094418 0.129028 0.030108
endloop
endfacet
facet normal -0.707108 0.707106 0.000000
outer loop
vertex -0.094418 0.129028 0.030108
vertex -0.118794 0.104652 0.002087
vertex -0.095162 0.128283 0.033747
endloop
endfacet
facet normal -0.707106 0.707107 -0.000003
outer loop
vertex -0.095162 0.128283 0.033747
vertex -0.118794 0.104652 0.002087
vertex -0.096287 0.127159 0.037185
endloop
endfacet
facet normal -0.707102 0.707111 0.000000
outer loop
vertex -0.096287 0.127159 0.037185
vertex -0.118794 0.104652 0.002087
vertex -0.097766 0.125680 0.040343
endloop
endfacet
facet normal -0.707110 0.707104 0.000003
outer loop
vertex -0.097766 0.125680 0.040343
vertex -0.118794 0.104652 0.002087
vertex -0.099565 0.123880 0.043149
endloop
endfacet
facet normal -0.707110 0.707103 -0.000001
outer loop
vertex -0.099565 0.123880 0.043149
vertex -0.118794 0.104652 0.002087
vertex -0.101644 0.121802 0.045539
endloop
endfacet
facet normal -0.707105 0.707108 0.000000
outer loop
vertex -0.101644 0.121802 0.045539
vertex -0.118794 0.104652 0.002087
vertex -0.103954 0.119492 0.047456
endloop
endfacet
facet normal -0.707106 0.707107 0.000000
outer loop
vertex -0.103954 0.119492 0.047456
vertex -0.118794 0.104652 0.002087
vertex -0.106442 0.117003 0.048859
endloop
endfacet
facet normal -0.707107 0.707107 0.000001
outer loop
vertex -0.106442 0.117003 0.048859
vertex -0.118794 0.104652 0.002087
vertex -0.121161 0.102285 0.003861
endloop
endfacet
facet normal -0.707108 0.707105 -0.000001
outer loop
vertex -0.106442 0.117003 0.048859
vertex -0.121161 0.102285 0.003861
vertex -0.123311 0.100135 0.006120
endloop
endfacet
facet normal -0.707108 0.707106 0.000000
outer loop
vertex -0.123311 0.100135 0.006120
vertex -0.125195 0.098251 0.008813
vertex -0.106442 0.117003 0.048859
endloop
endfacet
facet normal -0.707107 0.707107 -0.000002
outer loop
vertex -0.106442 0.117003 0.048859
vertex -0.125195 0.098251 0.008813
vertex -0.126769 0.096676 0.011878
endloop
endfacet
facet normal -0.707106 0.707107 0.000001
outer loop
vertex -0.106442 0.117003 0.048859
vertex -0.126769 0.096676 0.011878
vertex -0.127999 0.095447 0.015243
endloop
endfacet
facet normal -0.707106 0.707108 0.000000
outer loop
vertex -0.127999 0.095447 0.015243
vertex -0.128854 0.094592 0.018833
vertex -0.106442 0.117003 0.048859
endloop
endfacet
facet normal -0.707105 0.707108 -0.000001
outer loop
vertex -0.106442 0.117003 0.048859
vertex -0.128854 0.094592 0.018833
vertex -0.129316 0.094129 0.022564
endloop
endfacet
facet normal -0.707109 0.707105 0.000002
outer loop
vertex -0.106442 0.117003 0.048859
vertex -0.129316 0.094129 0.022564
vertex -0.129375 0.094071 0.026352
endloop
endfacet
facet normal -0.707105 0.707109 0.000000
outer loop
vertex -0.129375 0.094071 0.026352
vertex -0.129028 0.094418 0.030108
vertex -0.106442 0.117003 0.048859
endloop
endfacet
facet normal -0.707107 0.707106 0.000000
outer loop
vertex -0.106442 0.117003 0.048859
vertex -0.129028 0.094418 0.030108
vertex -0.109052 0.114394 0.049713
endloop
endfacet
facet normal -0.707107 0.707106 -0.000004
outer loop
vertex -0.109052 0.114394 0.049713
vertex -0.129028 0.094418 0.030108
vertex -0.128283 0.095162 0.033747
endloop
endfacet
facet normal -0.707107 0.707107 0.000003
outer loop
vertex -0.109052 0.114394 0.049713
vertex -0.128283 0.095162 0.033747
vertex -0.127159 0.096287 0.037185
endloop
endfacet
facet normal -0.707107 0.707107 -0.000004
outer loop
vertex -0.127159 0.096287 0.037185
vertex -0.125680 0.097766 0.040343
vertex -0.109052 0.114394 0.049713
endloop
endfacet
facet normal -0.707107 0.707107 0.000004
outer loop
vertex -0.109052 0.114394 0.049713
vertex -0.125680 0.097766 0.040343
vertex -0.123880 0.099565 0.043149
endloop
endfacet
facet normal -0.707109 0.707105 -0.000002
outer loop
vertex -0.109052 0.114394 0.049713
vertex -0.123880 0.099565 0.043149
vertex -0.121802 0.101644 0.045539
endloop
endfacet
facet normal -0.707103 0.707111 -0.000011
outer loop
vertex -0.121802 0.101644 0.045539
vertex -0.119492 0.103954 0.047456
vertex -0.109052 0.114394 0.049713
endloop
endfacet
facet normal -0.707110 0.707104 0.000000
outer loop
vertex -0.109052 0.114394 0.049713
vertex -0.119492 0.103954 0.047456
vertex -0.117003 0.106442 0.048859
endloop
endfacet
facet normal -0.707106 0.707108 0.000009
outer loop
vertex -0.109052 0.114394 0.049713
vertex -0.117003 0.106442 0.048859
vertex -0.114394 0.109052 0.049713
endloop
endfacet
facet normal -0.707105 0.707108 -0.000027
outer loop
vertex -0.114394 0.109052 0.049713
vertex -0.111723 0.111723 0.050000
vertex -0.109052 0.114394 0.049713
endloop
endfacet
facet normal 0.707107 -0.707107 0.000000
outer loop
vertex 0.104652 -0.118794 0.000000
vertex 0.118794 -0.104652 0.000000
vertex 0.104652 -0.118794 0.002087
endloop
endfacet
facet normal 0.707107 -0.707107 0.000000
outer loop
vertex 0.104652 -0.118794 0.002087
vertex 0.118794 -0.104652 0.000000
vertex 0.118794 -0.104652 0.002087
endloop
endfacet
facet normal 0.707107 -0.707106 0.000010
outer loop
vertex 0.104652 -0.118794 0.002087
vertex 0.118794 -0.104652 0.002087
vertex 0.121161 -0.102285 0.003861
endloop
endfacet
facet normal 0.707106 -0.707108 -0.000010
outer loop
vertex 0.121161 -0.102285 0.003861
vertex 0.123311 -0.100135 0.006120
vertex 0.104652 -0.118794 0.002087
endloop
endfacet
facet normal 0.707108 -0.707106 0.000000
outer loop
vertex 0.104652 -0.118794 0.002087
vertex 0.123311 -0.100135 0.006120
vertex 0.125195 -0.098251 0.008813
endloop
endfacet
facet normal 0.707107 -0.707106 0.000000
outer loop
vertex 0.104652 -0.118794 0.002087
vertex 0.125195 -0.098251 0.008813
vertex 0.126769 -0.096676 0.011878
endloop
endfacet
facet normal 0.707106 -0.707108 0.000000
outer loop
vertex 0.126769 -0.096676 0.011878
vertex 0.127999 -0.095447 0.015243
vertex 0.104652 -0.118794 0.002087
endloop
endfacet
facet normal 0.707107 -0.707106 -0.000001
outer loop
vertex 0.104652 -0.118794 0.002087
vertex 0.127999 -0.095447 0.015243
vertex 0.128854 -0.094591 0.018833
endloop
endfacet
facet normal 0.707108 -0.707106 -0.000001
outer loop
vertex 0.104652 -0.118794 0.002087
vertex 0.128854 -0.094591 0.018833
vertex 0.129316 -0.094129 0.022564
endloop
endfacet
facet normal 0.707107 -0.707107 0.000000
outer loop
vertex 0.129316 -0.094129 0.022564
vertex 0.129375 -0.094071 0.026352
vertex 0.104652 -0.118794 0.002087
endloop
endfacet
facet normal 0.707108 -0.707105 0.000003
outer loop
vertex 0.104652 -0.118794 0.002087
vertex 0.129375 -0.094071 0.026352
vertex 0.129028 -0.094418 0.030108
endloop
endfacet
facet normal 0.707105 -0.707109 -0.000002
outer loop
vertex 0.104652 -0.118794 0.002087
vertex 0.129028 -0.094418 0.030108
vertex 0.128283 -0.095162 0.033747
endloop
endfacet
facet normal 0.707107 -0.707106 0.000000
outer loop
vertex 0.128283 -0.095162 0.033747
vertex 0.127159 -0.096287 0.037185
vertex 0.104652 -0.118794 0.002087
endloop
endfacet
facet normal 0.707108 -0.707105 -0.000000
outer loop
vertex 0.104652 -0.118794 0.002087
vertex 0.127159 -0.096287 0.037185
vertex 0.125680 -0.097766 0.040343
endloop
endfacet
facet normal 0.707105 -0.707109 -0.000001
outer loop
vertex 0.104652 -0.118794 0.002087
vertex 0.125680 -0.097766 0.040343
vertex 0.123880 -0.099565 0.043149
endloop
endfacet
facet normal 0.707108 -0.707106 0.000001
outer loop
vertex 0.123880 -0.099565 0.043149
vertex 0.121802 -0.101644 0.045539
vertex 0.104652 -0.118794 0.002087
endloop
endfacet
facet normal 0.707107 -0.707107 0.000000
outer loop
vertex 0.104652 -0.118794 0.002087
vertex 0.121802 -0.101644 0.045539
vertex 0.119492 -0.103954 0.047456
endloop
endfacet
facet normal 0.707106 -0.707108 -0.000000
outer loop
vertex 0.104652 -0.118794 0.002087
vertex 0.119492 -0.103954 0.047456
vertex 0.117003 -0.106442 0.048859
endloop
endfacet
facet normal 0.707107 -0.707106 0.000000
outer loop
vertex 0.114394 -0.109052 0.049713
vertex 0.094418 -0.129028 0.030108
vertex 0.117003 -0.106442 0.048859
endloop
endfacet
facet normal 0.707106 -0.707108 0.000001
outer loop
vertex 0.117003 -0.106442 0.048859
vertex 0.094418 -0.129028 0.030108
vertex 0.094071 -0.129375 0.026352
endloop
endfacet
facet normal 0.707108 -0.707106 0.000001
outer loop
vertex 0.117003 -0.106442 0.048859
vertex 0.094071 -0.129375 0.026352
vertex 0.094129 -0.129316 0.022564
endloop
endfacet
facet normal 0.707105 -0.707108 0.000054
outer loop
vertex 0.111723 -0.111723 0.050000
vertex 0.109052 -0.114394 0.049713
vertex 0.114394 -0.109052 0.049713
endloop
endfacet
facet normal 0.707106 -0.707108 0.000000
outer loop
vertex 0.114394 -0.109052 0.049713
vertex 0.109052 -0.114394 0.049713
vertex 0.106442 -0.117003 0.048859
endloop
endfacet
facet normal 0.707108 -0.707105 -0.000009
outer loop
vertex 0.114394 -0.109052 0.049713
vertex 0.106442 -0.117003 0.048859
vertex 0.103954 -0.119492 0.047456
endloop
endfacet
facet normal 0.707104 -0.707110 0.000000
outer loop
vertex 0.103954 -0.119492 0.047456
vertex 0.101644 -0.121802 0.045539
vertex 0.114394 -0.109052 0.049713
endloop
endfacet
facet normal 0.707108 -0.707106 0.000004
outer loop
vertex 0.114394 -0.109052 0.049713
vertex 0.101644 -0.121802 0.045539
vertex 0.099565 -0.123880 0.043149
endloop
endfacet
facet normal 0.707106 -0.707108 0.000002
outer loop
vertex 0.114394 -0.109052 0.049713
vertex 0.099565 -0.123880 0.043149
vertex 0.097766 -0.125680 0.040343
endloop
endfacet
facet normal 0.707108 -0.707106 -0.000009
outer loop
vertex 0.097766 -0.125680 0.040343
vertex 0.096287 -0.127159 0.037185
vertex 0.114394 -0.109052 0.049713
endloop
endfacet
facet normal 0.707107 -0.707106 0.000003
outer loop
vertex 0.114394 -0.109052 0.049713
vertex 0.096287 -0.127159 0.037185
vertex 0.095162 -0.128283 0.033747
endloop
endfacet
facet normal 0.707104 -0.707110 -0.000003
outer loop
vertex 0.114394 -0.109052 0.049713
vertex 0.095162 -0.128283 0.033747
vertex 0.094418 -0.129028 0.030108
endloop
endfacet
facet normal 0.707106 -0.707107 -0.000003
outer loop
vertex 0.094129 -0.129316 0.022564
vertex 0.094592 -0.128854 0.018833
vertex 0.117003 -0.106442 0.048859
endloop
endfacet
facet normal 0.707108 -0.707106 0.000002
outer loop
vertex 0.117003 -0.106442 0.048859
vertex 0.094592 -0.128854 0.018833
vertex 0.095447 -0.127999 0.015243
endloop
endfacet
facet normal 0.707106 -0.707108 -0.000001
outer loop
vertex 0.117003 -0.106442 0.048859
vertex 0.095447 -0.127999 0.015243
vertex 0.096676 -0.126769 0.011878
endloop
endfacet
facet normal 0.707108 -0.707106 0.000000
outer loop
vertex 0.096676 -0.126769 0.011878
vertex 0.098251 -0.125195 0.008813
vertex 0.117003 -0.106442 0.048859
endloop
endfacet
facet normal 0.707105 -0.707108 0.000000
outer loop
vertex 0.117003 -0.106442 0.048859
vertex 0.098251 -0.125195 0.008813
vertex 0.100135 -0.123311 0.006120
endloop
endfacet
facet normal 0.707107 -0.707107 0.000001
outer loop
vertex 0.117003 -0.106442 0.048859
vertex 0.100135 -0.123311 0.006120
vertex 0.102285 -0.121161 0.003861
endloop
endfacet
facet normal 0.707108 -0.707106 -0.000001
outer loop
vertex 0.102285 -0.121161 0.003861
vertex 0.104652 -0.118794 0.002087
vertex 0.117003 -0.106442 0.048859
endloop
endfacet
solid cylinder
