solid cylinder
facet normal 0.000000 0.000000 -1.000000
outer loop
vertex 0.155204 -0.031234 0.000000
vertex 0.150028 -0.050553 0.000000
vertex -0.150028 0.050553 0.000000
endloop
endfacet
facet normal 0.000000 0.000000 -1.000000
outer loop
vertex -0.150028 0.050553 0.000000
vertex 0.150028 -0.050553 0.000000
vertex -0.155204 0.031234 0.000000
endloop
endfacet
facet normal 0.258819 0.965926 0.000000
outer loop
vertex 0.155204 -0.031234 0.002087
vertex 0.155204 -0.031234 0.000000
vertex -0.150028 0.050553 0.002087
endloop
endfacet
facet normal 0.258819 0.965926 0.000000
outer loop
vertex -0.150028 0.050553 0.002087
vertex 0.155204 -0.031234 0.000000
vertex -0.150028 0.050553 0.000000
endloop
endfacet
facet normal -0.121357 -0.452289 -0.883576
outer loop
vertex 0.149162 -0.053786 0.003861
vertex 0.098266 -0.040243 0.003919
vertex 0.150028 -0.050553 0.002087
endloop
endfacet
facet normal -0.121698 -0.454181 -0.882558
outer loop
vertex 0.150028 -0.050553 0.002087
vertex 0.098266 -0.040243 0.003919
vertex 0.047394 -0.026612 0.003919
endloop
endfacet
facet normal -0.121697 -0.454179 -0.882560
outer loop
vertex 0.150028 -0.050553 0.002087
vertex 0.047394 -0.026612 0.003919
vertex -0.003478 -0.012981 0.003919
endloop
endfacet
facet normal -0.155710 -0.581117 -0.798785
outer loop
vertex -0.003478 -0.012981 0.003919
vertex 0.047394 -0.026612 0.003919
vertex -0.004284 -0.015987 0.006263
endloop
endfacet
facet normal -0.155710 -0.581117 -0.798785
outer loop
vertex -0.003478 -0.012981 0.003919
vertex -0.004284 -0.015987 0.006263
vertex -0.055156 -0.002356 0.006263
endloop
endfacet
facet normal -0.185941 -0.693940 -0.695610
outer loop
vertex -0.055156 -0.002356 0.006263
vertex -0.004284 -0.015987 0.006263
vertex -0.055857 -0.004974 0.009062
endloop
endfacet
facet normal -0.185941 -0.693940 -0.695610
outer loop
vertex -0.055156 -0.002356 0.006263
vertex -0.055857 -0.004974 0.009062
vertex -0.106729 0.008658 0.009062
endloop
endfacet
facet normal -0.211655 -0.789908 -0.575540
outer loop
vertex -0.106729 0.008658 0.009062
vertex -0.055857 -0.004974 0.009062
vertex -0.107310 0.006492 0.012248
endloop
endfacet
facet normal -0.211105 -0.790056 -0.575540
outer loop
vertex -0.106729 0.008658 0.009062
vertex -0.107310 0.006492 0.012248
vertex -0.158124 0.020339 0.011878
endloop
endfacet
facet normal -0.230490 -0.858069 -0.458903
outer loop
vertex -0.158124 0.020339 0.011878
vertex -0.107310 0.006492 0.012248
vertex -0.158574 0.018660 0.015243
endloop
endfacet
facet normal -0.231563 -0.866871 -0.441491
outer loop
vertex -0.158574 0.018660 0.015243
vertex -0.107310 0.006492 0.012248
vertex -0.107755 0.004830 0.015744
endloop
endfacet
facet normal -0.245908 -0.915160 -0.319393
outer loop
vertex -0.158574 0.018660 0.015243
vertex -0.107755 0.004830 0.015744
vertex -0.158887 0.017492 0.018833
endloop
endfacet
facet normal -0.246389 -0.922632 -0.296720
outer loop
vertex -0.158887 0.017492 0.018833
vertex -0.107755 0.004830 0.015744
vertex -0.108054 0.003713 0.019465
endloop
endfacet
facet normal -0.255685 -0.951236 -0.172552
outer loop
vertex -0.158887 0.017492 0.018833
vertex -0.108054 0.003713 0.019465
vertex -0.159056 0.016860 0.022564
endloop
endfacet
facet normal -0.255220 -0.955988 -0.144740
outer loop
vertex -0.159056 0.016860 0.022564
vertex -0.108054 0.003713 0.019465
vertex -0.108200 0.003169 0.023320
endloop
endfacet
facet normal -0.259601 -0.965471 -0.021745
outer loop
vertex -0.159056 0.016860 0.022564
vertex -0.108200 0.003169 0.023320
vertex -0.159077 0.016781 0.026352
endloop
endfacet
facet normal -0.257840 -0.966128 0.010753
outer loop
vertex -0.159077 0.016781 0.026352
vertex -0.108200 0.003169 0.023320
vertex -0.108189 0.003209 0.027216
endloop
endfacet
facet normal -0.257567 -0.957536 0.129557
outer loop
vertex -0.159077 0.016781 0.026352
vertex -0.108189 0.003209 0.027216
vertex -0.158950 0.017255 0.030108
endloop
endfacet
facet normal -0.254183 -0.952806 0.165985
outer loop
vertex -0.158950 0.017255 0.030108
vertex -0.108189 0.003209 0.027216
vertex -0.108022 0.003834 0.031058
endloop
endfacet
facet normal -0.249632 -0.927611 0.277888
outer loop
vertex -0.158950 0.017255 0.030108
vertex -0.108022 0.003834 0.031058
vertex -0.158678 0.018271 0.033747
endloop
endfacet
facet normal -0.244335 -0.916348 0.317186
outer loop
vertex -0.158678 0.018271 0.033747
vertex -0.108022 0.003834 0.031058
vertex -0.107702 0.005028 0.034753
endloop
endfacet
facet normal -0.235980 -0.876385 0.419836
outer loop
vertex -0.158678 0.018271 0.033747
vertex -0.107702 0.005028 0.034753
vertex -0.158266 0.019808 0.037185
endloop
endfacet
facet normal -0.228535 -0.857638 0.460684
outer loop
vertex -0.158266 0.019808 0.037185
vertex -0.107702 0.005028 0.034753
vertex -0.107237 0.006761 0.038211
endloop
endfacet
facet normal -0.216926 -0.805033 0.552146
outer loop
vertex -0.158266 0.019808 0.037185
vertex -0.107237 0.006761 0.038211
vertex -0.157725 0.021828 0.040343
endloop
endfacet
facet normal -0.207163 -0.778103 0.592992
outer loop
vertex -0.157725 0.021828 0.040343
vertex -0.107237 0.006761 0.038211
vertex -0.106639 0.008993 0.041348
endloop
endfacet
facet normal -0.192908 -0.715193 0.671778
outer loop
vertex -0.157725 0.021828 0.040343
vertex -0.106639 0.008993 0.041348
vertex -0.157066 0.024286 0.043149
endloop
endfacet
facet normal -0.180740 -0.679675 0.710897
outer loop
vertex -0.157066 0.024286 0.043149
vertex -0.106639 0.008993 0.041348
vertex -0.105923 0.011668 0.044088
endloop
endfacet
facet normal -0.164481 -0.608928 0.775985
outer loop
vertex -0.157066 0.024286 0.043149
vertex -0.105923 0.011668 0.044088
vertex -0.156305 0.027125 0.045539
endloop
endfacet
facet normal -0.149902 -0.564745 0.811537
outer loop
vertex -0.156305 0.027125 0.045539
vertex -0.105923 0.011668 0.044088
vertex -0.105104 0.014722 0.046365
endloop
endfacet
facet normal -0.132296 -0.488675 0.862378
outer loop
vertex -0.156305 0.027125 0.045539
vertex -0.105104 0.014722 0.046365
vertex -0.155460 0.030281 0.047456
endloop
endfacet
facet normal -0.115401 -0.436105 0.892465
outer loop
vertex -0.155460 0.030281 0.047456
vertex -0.105104 0.014722 0.046365
vertex -0.104204 0.018081 0.048123
endloop
endfacet
facet normal -0.097094 -0.357197 0.928969
outer loop
vertex -0.155460 0.030281 0.047456
vertex -0.104204 0.018081 0.048123
vertex -0.154549 0.033680 0.048859
endloop
endfacet
facet normal -0.078073 -0.296880 0.951718
outer loop
vertex -0.154549 0.033680 0.048859
vertex -0.104204 0.018081 0.048123
vertex -0.103245 0.021663 0.049319
endloop
endfacet
facet normal -0.059684 -0.217512 0.974231
outer loop
vertex -0.154549 0.033680 0.048859
vertex -0.103245 0.021663 0.049319
vertex -0.153594 0.037245 0.049713
endloop
endfacet
facet normal -0.038823 -0.150450 0.987855
outer loop
vertex -0.153594 0.037245 0.049713
vertex -0.103245 0.021663 0.049319
vertex -0.102248 0.025381 0.049924
endloop
endfacet
facet normal -0.020926 -0.072829 0.997125
outer loop
vertex -0.153594 0.037245 0.049713
vertex -0.102248 0.025381 0.049924
vertex -0.152616 0.040893 0.050000
endloop
endfacet
facet normal 0.001394 -0.000374 0.999999
outer loop
vertex -0.152616 0.040893 0.050000
vertex -0.102248 0.025381 0.049924
vertex -0.101240 0.029144 0.049924
endloop
endfacet
facet normal 0.018292 0.073535 0.997125
outer loop
vertex -0.152616 0.040893 0.050000
vertex -0.101240 0.029144 0.049924
vertex -0.151639 0.044542 0.049713
endloop
endfacet
facet normal 0.041603 0.149705 0.987855
outer loop
vertex -0.151639 0.044542 0.049713
vertex -0.101240 0.029144 0.049924
vertex -0.100244 0.032862 0.049319
endloop
endfacet
facet normal 0.057068 0.218214 0.974231
outer loop
vertex -0.151639 0.044542 0.049713
vertex -0.100244 0.032862 0.049319
vertex -0.150683 0.048107 0.048859
endloop
endfacet
facet normal 0.080827 0.296143 0.951718
outer loop
vertex -0.150683 0.048107 0.048859
vertex -0.100244 0.032862 0.049319
vertex -0.099284 0.036443 0.048123
endloop
endfacet
facet normal 0.094512 0.357887 0.928969
outer loop
vertex -0.150683 0.048107 0.048859
vertex -0.099284 0.036443 0.048123
vertex -0.149773 0.051506 0.047456
endloop
endfacet
facet normal 0.118112 0.435379 0.892465
outer loop
vertex -0.149773 0.051506 0.047456
vertex -0.099284 0.036443 0.048123
vertex -0.098384 0.039802 0.046365
endloop
endfacet
facet normal 0.129766 0.489353 0.862377
outer loop
vertex -0.149773 0.051506 0.047456
vertex -0.098384 0.039802 0.046365
vertex -0.148927 0.054661 0.045539
endloop
endfacet
facet normal 0.152553 0.564035 0.811537
outer loop
vertex -0.148927 0.054661 0.045539
vertex -0.098384 0.039802 0.046365
vertex -0.097566 0.042856 0.044088
endloop
endfacet
facet normal 0.162019 0.609587 0.775985
outer loop
vertex -0.148927 0.054661 0.045539
vertex -0.097566 0.042856 0.044088
vertex -0.148166 0.057501 0.043149
endloop
endfacet
facet normal 0.183313 0.678985 0.710898
outer loop
vertex -0.148166 0.057501 0.043149
vertex -0.097566 0.042856 0.044088
vertex -0.096849 0.045532 0.041348
endloop
endfacet
facet normal 0.190534 0.715830 0.671777
outer loop
vertex -0.148166 0.057501 0.043149
vertex -0.096849 0.045532 0.041348
vertex -0.147508 0.059959 0.040343
endloop
endfacet
facet normal 0.209642 0.777437 0.592994
outer loop
vertex -0.147508 0.059959 0.040343
vertex -0.096849 0.045532 0.041348
vertex -0.096251 0.047763 0.038211
endloop
endfacet
facet normal 0.214654 0.805643 0.552144
outer loop
vertex -0.147508 0.059959 0.040343
vertex -0.096251 0.047763 0.038211
vertex -0.146966 0.061979 0.037185
endloop
endfacet
facet normal 0.230901 0.857003 0.460684
outer loop
vertex -0.146966 0.061979 0.037185
vertex -0.096251 0.047763 0.038211
vertex -0.095786 0.049497 0.034753
endloop
endfacet
facet normal 0.233828 0.876962 0.419835
outer loop
vertex -0.146966 0.061979 0.037185
vertex -0.095786 0.049497 0.034753
vertex -0.146555 0.063515 0.033747
endloop
endfacet
facet normal 0.246573 0.915749 0.317185
outer loop
vertex -0.146555 0.063515 0.033747
vertex -0.095786 0.049497 0.034753
vertex -0.095467 0.050691 0.031058
endloop
endfacet
facet normal 0.247619 0.928150 0.277888
outer loop
vertex -0.146555 0.063515 0.033747
vertex -0.095467 0.050691 0.031058
vertex -0.146282 0.064532 0.030108
endloop
endfacet
facet normal 0.256274 0.952246 0.165986
outer loop
vertex -0.146282 0.064532 0.030108
vertex -0.095467 0.050691 0.031058
vertex -0.095299 0.051315 0.027216
endloop
endfacet
facet normal 0.255708 0.958033 0.129558
outer loop
vertex -0.146282 0.064532 0.030108
vertex -0.095299 0.051315 0.027216
vertex -0.146155 0.065006 0.026352
endloop
endfacet
facet normal 0.259768 0.965611 0.010752
outer loop
vertex -0.146155 0.065006 0.026352
vertex -0.095299 0.051315 0.027216
vertex -0.095288 0.051356 0.023320
endloop
endfacet
facet normal 0.257915 0.965923 -0.021744
outer loop
vertex -0.146155 0.065006 0.026352
vertex -0.095288 0.051356 0.023320
vertex -0.146177 0.064927 0.022564
endloop
endfacet
facet normal 0.256967 0.955520 -0.144740
outer loop
vertex -0.146177 0.064927 0.022564
vertex -0.095288 0.051356 0.023320
vertex -0.095434 0.050811 0.019465
endloop
endfacet
facet normal 0.254188 0.951637 -0.172553
outer loop
vertex -0.146177 0.064927 0.022564
vertex -0.095434 0.050811 0.019465
vertex -0.146346 0.064295 0.018833
endloop
endfacet
facet normal 0.247937 0.922217 -0.296720
outer loop
vertex -0.146346 0.064295 0.018833
vertex -0.095434 0.050811 0.019465
vertex -0.095734 0.049694 0.015744
endloop
endfacet
facet normal 0.244617 0.915505 -0.319395
outer loop
vertex -0.146346 0.064295 0.018833
vertex -0.095734 0.049694 0.015744
vertex -0.146659 0.063127 0.015243
endloop
endfacet
facet normal 0.232896 0.866513 -0.441492
outer loop
vertex -0.146659 0.063127 0.015243
vertex -0.095734 0.049694 0.015744
vertex -0.096179 0.048033 0.012248
endloop
endfacet
facet normal 0.229424 0.858354 -0.458905
outer loop
vertex -0.146659 0.063127 0.015243
vertex -0.096179 0.048033 0.012248
vertex -0.147109 0.061447 0.011878
endloop
endfacet
facet normal 0.212206 0.789762 -0.575539
outer loop
vertex -0.147109 0.061447 0.011878
vertex -0.096179 0.048033 0.012248
vertex -0.096759 0.045867 0.009062
endloop
endfacet
facet normal 0.208959 0.781497 -0.587877
outer loop
vertex -0.147109 0.061447 0.011878
vertex -0.096759 0.045867 0.009062
vertex -0.147685 0.059296 0.008813
endloop
endfacet
facet normal 0.186366 0.693825 -0.695611
outer loop
vertex -0.147685 0.059296 0.008813
vertex -0.096759 0.045867 0.009062
vertex -0.097461 0.043249 0.006263
endloop
endfacet
facet normal 0.183695 0.686697 -0.703352
outer loop
vertex -0.147685 0.059296 0.008813
vertex -0.097461 0.043249 0.006263
vertex -0.148375 0.056723 0.006120
endloop
endfacet
facet normal 0.156002 0.581039 -0.798785
outer loop
vertex -0.148375 0.056723 0.006120
vertex -0.097461 0.043249 0.006263
vertex -0.098266 0.040243 0.003919
endloop
endfacet
facet normal 0.154216 0.576128 -0.802679
outer loop
vertex -0.148375 0.056723 0.006120
vertex -0.098266 0.040243 0.003919
vertex -0.149162 0.053786 0.003861
endloop
endfacet
facet normal 0.121357 0.452290 -0.883576
outer loop
vertex -0.149162 0.053786 0.003861
vertex -0.098266 0.040243 0.003919
vertex -0.150028 0.050553 0.002087
endloop
endfacet
facet normal 0.121697 0.454180 -0.882559
outer loop
vertex -0.150028 0.050553 0.002087
vertex -0.098266 0.040243 0.003919
vertex -0.047394 0.026612 0.003919
endloop
endfacet
facet normal 0.121697 0.454180 -0.882559
outer loop
vertex -0.150028 0.050553 0.002087
vertex -0.047394 0.026612 0.003919
vertex 0.003478 0.012981 0.003919
endloop
endfacet
facet normal 0.155710 0.581117 -0.798785
outer loop
vertex 0.003478 0.012981 0.003919
vertex -0.047394 0.026612 0.003919
vertex 0.004284 0.015987 0.006263
endloop
endfacet
facet normal 0.155710 0.581117 -0.798785
outer loop
vertex 0.003478 0.012981 0.003919
vertex 0.004284 0.015987 0.006263
vertex 0.055156 0.002356 0.006263
endloop
endfacet
facet normal 0.185941 0.693940 -0.695610
outer loop
vertex 0.055156 0.002356 0.006263
vertex 0.004284 0.015987 0.006263
vertex 0.055857 0.004974 0.009062
endloop
endfacet
facet normal 0.185941 0.693940 -0.695610
outer loop
vertex 0.055156 0.002356 0.006263
vertex 0.055857 0.004974 0.009062
vertex 0.106729 -0.008658 0.009062
endloop
endfacet
facet normal 0.211655 0.789908 -0.575540
outer loop
vertex 0.106729 -0.008658 0.009062
vertex 0.055857 0.004974 0.009062
vertex 0.107310 -0.006492 0.012248
endloop
endfacet
facet normal 0.211105 0.790056 -0.575541
outer loop
vertex 0.106729 -0.008658 0.009062
vertex 0.107310 -0.006492 0.012248
vertex 0.158124 -0.020339 0.011878
endloop
endfacet
facet normal 0.230490 0.858069 -0.458903
outer loop
vertex 0.158124 -0.020339 0.011878
vertex 0.107310 -0.006492 0.012248
vertex 0.158574 -0.018660 0.015243
endloop
endfacet
facet normal 0.231563 0.866871 -0.441491
outer loop
vertex 0.158574 -0.018660 0.015243
vertex 0.107310 -0.006492 0.012248
vertex 0.107755 -0.004830 0.015744
endloop
endfacet
facet normal 0.245908 0.915160 -0.319393
outer loop
vertex 0.158574 -0.018660 0.015243
vertex 0.107755 -0.004830 0.015744
vertex 0.158887 -0.017492 0.018833
endloop
endfacet
facet normal 0.246388 0.922632 -0.296720
outer loop
vertex 0.158887 -0.017492 0.018833
vertex 0.107755 -0.004830 0.015744
vertex 0.108054 -0.003713 0.019465
endloop
endfacet
facet normal 0.255686 0.951236 -0.172552
outer loop
vertex 0.158887 -0.017492 0.018833
vertex 0.108054 -0.003713 0.019465
vertex 0.159056 -0.016860 0.022564
endloop
endfacet
facet normal 0.255220 0.955988 -0.144741
outer loop
vertex 0.159056 -0.016860 0.022564
vertex 0.108054 -0.003713 0.019465
vertex 0.108200 -0.003169 0.023320
endloop
endfacet
facet normal 0.259601 0.965471 -0.021745
outer loop
vertex 0.159056 -0.016860 0.022564
vertex 0.108200 -0.003169 0.023320
vertex 0.159077 -0.016781 0.026352
endloop
endfacet
facet normal 0.257840 0.966128 0.010753
outer loop
vertex 0.159077 -0.016781 0.026352
vertex 0.108200 -0.003169 0.023320
vertex 0.108189 -0.003209 0.027216
endloop
endfacet
facet normal 0.257567 0.957536 0.129557
outer loop
vertex 0.159077 -0.016781 0.026352
vertex 0.108189 -0.003209 0.027216
vertex 0.158950 -0.017255 0.030108
endloop
endfacet
facet normal 0.254183 0.952806 0.165985
outer loop
vertex 0.158950 -0.017255 0.030108
vertex 0.108189 -0.003209 0.027216
vertex 0.108022 -0.003834 0.031058
endloop
endfacet
facet normal 0.249632 0.927611 0.277887
outer loop
vertex 0.158950 -0.017255 0.030108
vertex 0.108022 -0.003834 0.031058
vertex 0.158678 -0.018271 0.033747
endloop
endfacet
facet normal 0.244335 0.916348 0.317186
outer loop
vertex 0.158678 -0.018271 0.033747
vertex 0.108022 -0.003834 0.031058
vertex 0.107702 -0.005028 0.034753
endloop
endfacet
facet normal 0.235980 0.876385 0.419836
outer loop
vertex 0.158678 -0.018271 0.033747
vertex 0.107702 -0.005028 0.034753
vertex 0.158266 -0.019808 0.037185
endloop
endfacet
facet normal 0.228535 0.857638 0.460684
outer loop
vertex 0.158266 -0.019808 0.037185
vertex 0.107702 -0.005028 0.034753
vertex 0.107237 -0.006761 0.038211
endloop
endfacet
facet normal 0.216926 0.805033 0.552145
outer loop
vertex 0.158266 -0.019808 0.037185
vertex 0.107237 -0.006761 0.038211
vertex 0.157725 -0.021828 0.040343
endloop
endfacet
facet normal 0.207163 0.778102 0.592992
outer loop
vertex 0.157725 -0.021828 0.040343
vertex 0.107237 -0.006761 0.038211
vertex 0.106639 -0.008993 0.041348
endloop
endfacet
facet normal 0.192908 0.715193 0.671778
outer loop
vertex 0.157725 -0.021828 0.040343
vertex 0.106639 -0.008993 0.041348
vertex 0.157066 -0.024286 0.043149
endloop
endfacet
facet normal 0.180740 0.679675 0.710897
outer loop
vertex 0.157066 -0.024286 0.043149
vertex 0.106639 -0.008993 0.041348
vertex 0.105923 -0.011668 0.044088
endloop
endfacet
facet normal 0.164481 0.608928 0.775985
outer loop
vertex 0.157066 -0.024286 0.043149
vertex 0.105923 -0.011668 0.044088
vertex 0.156305 -0.027125 0.045539
endloop
endfacet
facet normal 0.149902 0.564745 0.811537
outer loop
vertex 0.156305 -0.027125 0.045539
vertex 0.105923 -0.011668 0.044088
vertex 0.105104 -0.014722 0.046365
endloop
endfacet
facet normal 0.132296 0.488675 0.862377
outer loop
vertex 0.156305 -0.027125 0.045539
vertex 0.105104 -0.014722 0.046365
vertex 0.155460 -0.030281 0.047456
endloop
endfacet
facet normal 0.115401 0.436106 0.892465
outer loop
vertex 0.155460 -0.030281 0.047456
vertex 0.105104 -0.014722 0.046365
vertex 0.104204 -0.018081 0.048123
endloop
endfacet
facet normal 0.097094 0.357196 0.928969
outer loop
vertex 0.155460 -0.030281 0.047456
vertex 0.104204 -0.018081 0.048123
vertex 0.154549 -0.033680 0.048859
endloop
endfacet
facet normal 0.078074 0.296880 0.951718
outer loop
vertex 0.154549 -0.033680 0.048859
vertex 0.104204 -0.018081 0.048123
vertex 0.103245 -0.021663 0.049319
endloop
endfacet
facet normal 0.059684 0.217513 0.974231
outer loop
vertex 0.154549 -0.033680 0.048859
vertex 0.103245 -0.021663 0.049319
vertex 0.153594 -0.037245 0.049713
endloop
endfacet
facet normal 0.038823 0.150450 0.987855
outer loop
vertex 0.153594 -0.037245 0.049713
vertex 0.103245 -0.021663 0.049319
vertex 0.102248 -0.025381 0.049924
endloop
endfacet
facet normal 0.020926 0.072829 0.997125
outer loop
vertex 0.153594 -0.037245 0.049713
vertex 0.102248 -0.025381 0.049924
vertex 0.152616 -0.040893 0.050000
endloop
endfacet
facet normal -0.001394 0.000374 0.999999
outer loop
vertex 0.152616 -0.040893 0.050000
vertex 0.102248 -0.025381 0.049924
vertex 0.101240 -0.029144 0.049924
endloop
endfacet
facet normal -0.018292 -0.073535 0.997125
outer loop
vertex 0.152616 -0.040893 0.050000
vertex 0.101240 -0.029144 0.049924
vertex 0.151639 -0.044542 0.049713
endloop
endfacet
facet normal -0.041603 -0.149705 0.987855
outer loop
vertex 0.151639 -0.044542 0.049713
vertex 0.101240 -0.029144 0.049924
vertex 0.100244 -0.032862 0.049319
endloop
endfacet
facet normal -0.057068 -0.218213 0.974231
outer loop
vertex 0.151639 -0.044542 0.049713
vertex 0.100244 -0.032862 0.049319
vertex 0.150683 -0.048107 0.048859
endloop
endfacet
facet normal -0.080827 -0.296142 0.951718
outer loop
vertex 0.150683 -0.048107 0.048859
vertex 0.100244 -0.032862 0.049319
vertex 0.099284 -0.036443 0.048123
endloop
endfacet
facet normal -0.094513 -0.357888 0.928969
outer loop
vertex 0.150683 -0.048107 0.048859
vertex 0.099284 -0.036443 0.048123
vertex 0.149773 -0.051506 0.047456
endloop
endfacet
facet normal -0.118112 -0.435380 0.892465
outer loop
vertex 0.149773 -0.051506 0.047456
vertex 0.099284 -0.036443 0.048123
vertex 0.098384 -0.039802 0.046365
endloop
endfacet
facet normal -0.129766 -0.489353 0.862377
outer loop
vertex 0.149773 -0.051506 0.047456
vertex 0.098384 -0.039802 0.046365
vertex 0.148927 -0.054661 0.045539
endloop
endfacet
facet normal -0.152553 -0.564034 0.811538
outer loop
vertex 0.148927 -0.054661 0.045539
vertex 0.098384 -0.039802 0.046365
vertex 0.097566 -0.042856 0.044088
endloop
endfacet
facet normal -0.162019 -0.609587 0.775985
outer loop
vertex 0.148927 -0.054661 0.045539
vertex 0.097566 -0.042856 0.044088
vertex 0.148166 -0.057501 0.043149
endloop
endfacet
facet normal -0.183313 -0.678986 0.710897
outer loop
vertex 0.148166 -0.057501 0.043149
vertex 0.097566 -0.042856 0.044088
vertex 0.096849 -0.045532 0.041348
endloop
endfacet
facet normal -0.190533 -0.715829 0.671778
outer loop
vertex 0.148166 -0.057501 0.043149
vertex 0.096849 -0.045532 0.041348
vertex 0.147508 -0.059959 0.040343
endloop
endfacet
facet normal -0.209642 -0.777438 0.592992
outer loop
vertex 0.147508 -0.059959 0.040343
vertex 0.096849 -0.045532 0.041348
vertex 0.096251 -0.047763 0.038211
endloop
endfacet
facet normal -0.214654 -0.805642 0.552145
outer loop
vertex 0.147508 -0.059959 0.040343
vertex 0.096251 -0.047763 0.038211
vertex 0.146966 -0.061979 0.037185
endloop
endfacet
facet normal -0.230902 -0.857004 0.460683
outer loop
vertex 0.146966 -0.061979 0.037185
vertex 0.096251 -0.047763 0.038211
vertex 0.095786 -0.049497 0.034753
endloop
endfacet
facet normal -0.233828 -0.876962 0.419835
outer loop
vertex 0.146966 -0.061979 0.037185
vertex 0.095786 -0.049497 0.034753
vertex 0.146555 -0.063515 0.033747
endloop
endfacet
facet normal -0.246573 -0.915748 0.317187
outer loop
vertex 0.146555 -0.063515 0.033747
vertex 0.095786 -0.049497 0.034753
vertex 0.095467 -0.050691 0.031058
endloop
endfacet
facet normal -0.247619 -0.928150 0.277888
outer loop
vertex 0.146555 -0.063515 0.033747
vertex 0.095467 -0.050691 0.031058
vertex 0.146282 -0.064532 0.030108
endloop
endfacet
facet normal -0.256274 -0.952246 0.165986
outer loop
vertex 0.146282 -0.064532 0.030108
vertex 0.095467 -0.050691 0.031058
vertex 0.095299 -0.051315 0.027216
endloop
endfacet
facet normal -0.255708 -0.958034 0.129556
outer loop
vertex 0.146282 -0.064532 0.030108
vertex 0.095299 -0.051315 0.027216
vertex 0.146155 -0.065006 0.026352
endloop
endfacet
facet normal -0.259768 -0.965611 0.010752
outer loop
vertex 0.146155 -0.065006 0.026352
vertex 0.095299 -0.051315 0.027216
vertex 0.095288 -0.051356 0.023320
endloop
endfacet
facet normal -0.257914 -0.965923 -0.021744
outer loop
vertex 0.146155 -0.065006 0.026352
vertex 0.095288 -0.051356 0.023320
vertex 0.146177 -0.064927 0.022564
endloop
endfacet
facet normal -0.256967 -0.955520 -0.144740
outer loop
vertex 0.146177 -0.064927 0.022564
vertex 0.095288 -0.051356 0.023320
vertex 0.095434 -0.050811 0.019465
endloop
endfacet
facet normal -0.254188 -0.951638 -0.172551
outer loop
vertex 0.146177 -0.064927 0.022564
vertex 0.095434 -0.050811 0.019465
vertex 0.146346 -0.064295 0.018833
endloop
endfacet
facet normal -0.247937 -0.922216 -0.296722
outer loop
vertex 0.146346 -0.064295 0.018833
vertex 0.095434 -0.050811 0.019465
vertex 0.095734 -0.049694 0.015744
endloop
endfacet
facet normal -0.244617 -0.915505 -0.319395
outer loop
vertex 0.146346 -0.064295 0.018833
vertex 0.095734 -0.049694 0.015744
vertex 0.146659 -0.063127 0.015243
endloop
endfacet
facet normal -0.232896 -0.866513 -0.441492
outer loop
vertex 0.146659 -0.063127 0.015243
vertex 0.095734 -0.049694 0.015744
vertex 0.096179 -0.048033 0.012248
endloop
endfacet
facet normal -0.229424 -0.858356 -0.458901
outer loop
vertex 0.146659 -0.063127 0.015243
vertex 0.096179 -0.048033 0.012248
vertex 0.147109 -0.061447 0.011878
endloop
endfacet
facet normal -0.212206 -0.789761 -0.575540
outer loop
vertex 0.147109 -0.061447 0.011878
vertex 0.096179 -0.048033 0.012248
vertex 0.096759 -0.045867 0.009062
endloop
endfacet
facet normal -0.208959 -0.781497 -0.587877
outer loop
vertex 0.147109 -0.061447 0.011878
vertex 0.096759 -0.045867 0.009062
vertex 0.147685 -0.059296 0.008813
endloop
endfacet
facet normal -0.186367 -0.693827 -0.695609
outer loop
vertex 0.147685 -0.059296 0.008813
vertex 0.096759 -0.045867 0.009062
vertex 0.097461 -0.043249 0.006263
endloop
endfacet
facet normal -0.183695 -0.686696 -0.703353
outer loop
vertex 0.147685 -0.059296 0.008813
vertex 0.097461 -0.043249 0.006263
vertex 0.148375 -0.056723 0.006120
endloop
endfacet
facet normal -0.156002 -0.581038 -0.798785
outer loop
vertex 0.148375 -0.056723 0.006120
vertex 0.097461 -0.043249 0.006263
vertex 0.098266 -0.040243 0.003919
endloop
endfacet
facet normal -0.154217 -0.576129 -0.802678
outer loop
vertex 0.148375 -0.056723 0.006120
vertex 0.098266 -0.040243 0.003919
vertex 0.149162 -0.053786 0.003861
endloop
endfacet
facet normal 0.209785 0.781276 -0.587877
outer loop
vertex 0.158124 -0.020339 0.011878
vertex 0.157547 -0.022490 0.008813
vertex 0.106729 -0.008658 0.009062
endloop
endfacet
facet normal 0.185515 0.694054 -0.695610
outer loop
vertex 0.106729 -0.008658 0.009062
vertex 0.157547 -0.022490 0.008813
vertex 0.106028 -0.011275 0.006263
endloop
endfacet
facet normal 0.185941 0.693941 -0.695610
outer loop
vertex 0.106729 -0.008658 0.009062
vertex 0.106028 -0.011275 0.006263
vertex 0.055156 0.002356 0.006263
endloop
endfacet
facet normal 0.155710 0.581117 -0.798785
outer loop
vertex 0.055156 0.002356 0.006263
vertex 0.106028 -0.011275 0.006263
vertex 0.054350 -0.000650 0.003919
endloop
endfacet
facet normal 0.155710 0.581117 -0.798785
outer loop
vertex 0.055156 0.002356 0.006263
vertex 0.054350 -0.000650 0.003919
vertex 0.003478 0.012981 0.003919
endloop
endfacet
facet normal 0.121697 0.454179 -0.882560
outer loop
vertex 0.003478 0.012981 0.003919
vertex 0.054350 -0.000650 0.003919
vertex -0.150028 0.050553 0.002087
endloop
endfacet
facet normal 0.184263 0.686544 -0.703352
outer loop
vertex 0.157547 -0.022490 0.008813
vertex 0.156858 -0.025064 0.006120
vertex 0.106028 -0.011275 0.006263
endloop
endfacet
facet normal 0.155417 0.581195 -0.798785
outer loop
vertex 0.106028 -0.011275 0.006263
vertex 0.156858 -0.025064 0.006120
vertex 0.105222 -0.014282 0.003919
endloop
endfacet
facet normal 0.155710 0.581117 -0.798785
outer loop
vertex 0.106028 -0.011275 0.006263
vertex 0.105222 -0.014282 0.003919
vertex 0.054350 -0.000650 0.003919
endloop
endfacet
facet normal 0.121697 0.454180 -0.882559
outer loop
vertex 0.054350 -0.000650 0.003919
vertex 0.105222 -0.014282 0.003919
vertex -0.150028 0.050553 0.002087
endloop
endfacet
facet normal 0.154509 0.576050 -0.802679
outer loop
vertex 0.156858 -0.025064 0.006120
vertex 0.156071 -0.028001 0.003861
vertex 0.105222 -0.014282 0.003919
endloop
endfacet
facet normal 0.123673 0.462083 -0.878171
outer loop
vertex 0.105222 -0.014282 0.003919
vertex 0.156071 -0.028001 0.003861
vertex -0.150028 0.050553 0.002087
endloop
endfacet
facet normal 0.121202 0.452332 -0.883576
outer loop
vertex 0.156071 -0.028001 0.003861
vertex 0.155204 -0.031234 0.002087
vertex -0.150028 0.050553 0.002087
endloop
endfacet
facet normal -0.209785 -0.781276 -0.587877
outer loop
vertex -0.158124 0.020339 0.011878
vertex -0.157547 0.022490 0.008813
vertex -0.106729 0.008658 0.009062
endloop
endfacet
facet normal -0.185515 -0.694054 -0.695610
outer loop
vertex -0.106729 0.008658 0.009062
vertex -0.157547 0.022490 0.008813
vertex -0.106028 0.011275 0.006263
endloop
endfacet
facet normal -0.185941 -0.693940 -0.695610
outer loop
vertex -0.106729 0.008658 0.009062
vertex -0.106028 0.011275 0.006263
vertex -0.055156 -0.002356 0.006263
endloop
endfacet
facet normal -0.155710 -0.581117 -0.798785
outer loop
vertex -0.055156 -0.002356 0.006263
vertex -0.106028 0.011275 0.006263
vertex -0.054350 0.000650 0.003919
endloop
endfacet
facet normal -0.155710 -0.581117 -0.798785
outer loop
vertex -0.055156 -0.002356 0.006263
vertex -0.054350 0.000650 0.003919
vertex -0.003478 -0.012981 0.003919
endloop
endfacet
facet normal -0.121698 -0.454181 -0.882559
outer loop
vertex -0.003478 -0.012981 0.003919
vertex -0.054350 0.000650 0.003919
vertex 0.150028 -0.050553 0.002087
endloop
endfacet
facet normal -0.184263 -0.686544 -0.703352
outer loop
vertex -0.157547 0.022490 0.008813
vertex -0.156858 0.025064 0.006120
vertex -0.106028 0.011275 0.006263
endloop
endfacet
facet normal -0.155417 -0.581195 -0.798785
outer loop
vertex -0.106028 0.011275 0.006263
vertex -0.156858 0.025064 0.006120
vertex -0.105222 0.014282 0.003919
endloop
endfacet
facet normal -0.155710 -0.581117 -0.798785
outer loop
vertex -0.106028 0.011275 0.006263
vertex -0.105222 0.014282 0.003919
vertex -0.054350 0.000650 0.003919
endloop
endfacet
facet normal -0.121697 -0.454179 -0.882559
outer loop
vertex -0.054350 0.000650 0.003919
vertex -0.105222 0.014282 0.003919
vertex 0.150028 -0.050553 0.002087
endloop
endfacet
facet normal -0.154509 -0.576050 -0.802679
outer loop
vertex -0.156858 0.025064 0.006120
vertex -0.156071 0.028001 0.003861
vertex -0.105222 0.014282 0.003919
endloop
endfacet
facet normal -0.123673 -0.462084 -0.878171
outer loop
vertex -0.105222 0.014282 0.003919
vertex -0.156071 0.028001 0.003861
vertex 0.150028 -0.050553 0.002087
endloop
endfacet
facet normal -0.121202 -0.452332 -0.883576
outer loop
vertex -0.156071 0.028001 0.003861
vertex -0.155204 0.031234 0.002087
vertex 0.150028 -0.050553 0.002087
endloop
endfacet
facet normal -0.155710 -0.581117 -0.798785
outer loop
vertex 0.047394 -0.026612 0.003919
vertex 0.098266 -0.040243 0.003919
vertex 0.046588 -0.029618 0.006263
endloop
endfacet
facet normal -0.155710 -0.581117 -0.798785
outer loop
vertex 0.046588 -0.029618 0.006263
vertex 0.098266 -0.040243 0.003919
vertex 0.097461 -0.043249 0.006263
endloop
endfacet
facet normal -0.185941 -0.693941 -0.695609
outer loop
vertex 0.046588 -0.029618 0.006263
vertex 0.097461 -0.043249 0.006263
vertex 0.045887 -0.032236 0.009062
endloop
endfacet
facet normal -0.185941 -0.693939 -0.695611
outer loop
vertex 0.045887 -0.032236 0.009062
vertex 0.097461 -0.043249 0.006263
vertex 0.096759 -0.045867 0.009062
endloop
endfacet
facet normal -0.211655 -0.789908 -0.575541
outer loop
vertex 0.045887 -0.032236 0.009062
vertex 0.096759 -0.045867 0.009062
vertex 0.045307 -0.034402 0.012248
endloop
endfacet
facet normal -0.211655 -0.789909 -0.575540
outer loop
vertex 0.045307 -0.034402 0.012248
vertex 0.096759 -0.045867 0.009062
vertex 0.096179 -0.048033 0.012248
endloop
endfacet
facet normal -0.232230 -0.866693 -0.441490
outer loop
vertex 0.045307 -0.034402 0.012248
vertex 0.096179 -0.048033 0.012248
vertex 0.044861 -0.036063 0.015744
endloop
endfacet
facet normal -0.232229 -0.866692 -0.441492
outer loop
vertex 0.044861 -0.036063 0.015744
vertex 0.096179 -0.048033 0.012248
vertex 0.095734 -0.049694 0.015744
endloop
endfacet
facet normal -0.247163 -0.922426 -0.296717
outer loop
vertex 0.044861 -0.036063 0.015744
vertex 0.095734 -0.049694 0.015744
vertex 0.044562 -0.037180 0.019465
endloop
endfacet
facet normal -0.247163 -0.922425 -0.296719
outer loop
vertex 0.044562 -0.037180 0.019465
vertex 0.095734 -0.049694 0.015744
vertex 0.095434 -0.050811 0.019465
endloop
endfacet
facet normal -0.256093 -0.955754 -0.144745
outer loop
vertex 0.044562 -0.037180 0.019465
vertex 0.095434 -0.050811 0.019465
vertex 0.044416 -0.037725 0.023320
endloop
endfacet
facet normal -0.256094 -0.955755 -0.144739
outer loop
vertex 0.044416 -0.037725 0.023320
vertex 0.095434 -0.050811 0.019465
vertex 0.095288 -0.051356 0.023320
endloop
endfacet
facet normal -0.258804 -0.965870 0.010752
outer loop
vertex 0.044416 -0.037725 0.023320
vertex 0.095288 -0.051356 0.023320
vertex 0.044427 -0.037684 0.027216
endloop
endfacet
facet normal -0.258804 -0.965870 0.010754
outer loop
vertex 0.044427 -0.037684 0.027216
vertex 0.095288 -0.051356 0.023320
vertex 0.095299 -0.051315 0.027216
endloop
endfacet
facet normal -0.255229 -0.952527 0.165984
outer loop
vertex 0.044427 -0.037684 0.027216
vertex 0.095299 -0.051315 0.027216
vertex 0.044594 -0.037060 0.031058
endloop
endfacet
facet normal -0.255229 -0.952527 0.165986
outer loop
vertex 0.044594 -0.037060 0.031058
vertex 0.095299 -0.051315 0.027216
vertex 0.095467 -0.050691 0.031058
endloop
endfacet
facet normal -0.245455 -0.916048 0.317189
outer loop
vertex 0.044594 -0.037060 0.031058
vertex 0.095467 -0.050691 0.031058
vertex 0.044914 -0.035866 0.034753
endloop
endfacet
facet normal -0.245454 -0.916049 0.317187
outer loop
vertex 0.044914 -0.035866 0.034753
vertex 0.095467 -0.050691 0.031058
vertex 0.095786 -0.049497 0.034753
endloop
endfacet
facet normal -0.229719 -0.857321 0.460684
outer loop
vertex 0.044914 -0.035866 0.034753
vertex 0.095786 -0.049497 0.034753
vertex 0.045379 -0.034132 0.038211
endloop
endfacet
facet normal -0.229718 -0.857321 0.460684
outer loop
vertex 0.045379 -0.034132 0.038211
vertex 0.095786 -0.049497 0.034753
vertex 0.096251 -0.047763 0.038211
endloop
endfacet
facet normal -0.208403 -0.777771 0.592993
outer loop
vertex 0.045379 -0.034132 0.038211
vertex 0.096251 -0.047763 0.038211
vertex 0.045977 -0.031900 0.041348
endloop
endfacet
facet normal -0.208403 -0.777771 0.592993
outer loop
vertex 0.045977 -0.031900 0.041348
vertex 0.096251 -0.047763 0.038211
vertex 0.096849 -0.045532 0.041348
endloop
endfacet
facet normal -0.182026 -0.679331 0.710898
outer loop
vertex 0.045977 -0.031900 0.041348
vertex 0.096849 -0.045532 0.041348
vertex 0.046694 -0.029225 0.044088
endloop
endfacet
facet normal -0.182027 -0.679332 0.710897
outer loop
vertex 0.046694 -0.029225 0.044088
vertex 0.096849 -0.045532 0.041348
vertex 0.097566 -0.042856 0.044088
endloop
endfacet
facet normal -0.151227 -0.564390 0.811538
outer loop
vertex 0.046694 -0.029225 0.044088
vertex 0.097566 -0.042856 0.044088
vertex 0.047512 -0.026171 0.046365
endloop
endfacet
facet normal -0.151228 -0.564390 0.811538
outer loop
vertex 0.047512 -0.026171 0.046365
vertex 0.097566 -0.042856 0.044088
vertex 0.098384 -0.039802 0.046365
endloop
endfacet
facet normal -0.116757 -0.435743 0.892466
outer loop
vertex 0.047512 -0.026171 0.046365
vertex 0.098384 -0.039802 0.046365
vertex 0.048412 -0.022812 0.048123
endloop
endfacet
facet normal -0.116757 -0.435742 0.892466
outer loop
vertex 0.048412 -0.022812 0.048123
vertex 0.098384 -0.039802 0.046365
vertex 0.099284 -0.036443 0.048123
endloop
endfacet
facet normal -0.079450 -0.296512 0.951719
outer loop
vertex 0.048412 -0.022812 0.048123
vertex 0.099284 -0.036443 0.048123
vertex 0.049372 -0.019231 0.049319
endloop
endfacet
facet normal -0.079451 -0.296512 0.951719
outer loop
vertex 0.049372 -0.019231 0.049319
vertex 0.099284 -0.036443 0.048123
vertex 0.100244 -0.032862 0.049319
endloop
endfacet
facet normal -0.040213 -0.150078 0.987856
outer loop
vertex 0.049372 -0.019231 0.049319
vertex 0.100244 -0.032862 0.049319
vertex 0.050368 -0.015513 0.049924
endloop
endfacet
facet normal -0.040213 -0.150078 0.987856
outer loop
vertex 0.050368 -0.015513 0.049924
vertex 0.100244 -0.032862 0.049319
vertex 0.101240 -0.029144 0.049924
endloop
endfacet
facet normal 0.000000 0.000000 1.000000
outer loop
vertex 0.050368 -0.015513 0.049924
vertex 0.101240 -0.029144 0.049924
vertex 0.051376 -0.011749 0.049924
endloop
endfacet
facet normal -0.000000 0.000000 1.000000
outer loop
vertex 0.051376 -0.011749 0.049924
vertex 0.101240 -0.029144 0.049924
vertex 0.102248 -0.025381 0.049924
endloop
endfacet
facet normal 0.040213 0.150077 0.987856
outer loop
vertex 0.051376 -0.011749 0.049924
vertex 0.102248 -0.025381 0.049924
vertex 0.052372 -0.008032 0.049319
endloop
endfacet
facet normal 0.040213 0.150078 0.987856
outer loop
vertex 0.052372 -0.008032 0.049319
vertex 0.102248 -0.025381 0.049924
vertex 0.103245 -0.021663 0.049319
endloop
endfacet
facet normal 0.079450 0.296512 0.951719
outer loop
vertex 0.052372 -0.008032 0.049319
vertex 0.103245 -0.021663 0.049319
vertex 0.053332 -0.004450 0.048123
endloop
endfacet
facet normal 0.079450 0.296512 0.951719
outer loop
vertex 0.053332 -0.004450 0.048123
vertex 0.103245 -0.021663 0.049319
vertex 0.104204 -0.018081 0.048123
endloop
endfacet
facet normal 0.116757 0.435743 0.892466
outer loop
vertex 0.053332 -0.004450 0.048123
vertex 0.104204 -0.018081 0.048123
vertex 0.054232 -0.001091 0.046365
endloop
endfacet
facet normal 0.116757 0.435743 0.892466
outer loop
vertex 0.054232 -0.001091 0.046365
vertex 0.104204 -0.018081 0.048123
vertex 0.105104 -0.014722 0.046365
endloop
endfacet
facet normal 0.151228 0.564390 0.811538
outer loop
vertex 0.054232 -0.001091 0.046365
vertex 0.105104 -0.014722 0.046365
vertex 0.055050 0.001963 0.044088
endloop
endfacet
facet normal 0.151228 0.564390 0.811538
outer loop
vertex 0.055050 0.001963 0.044088
vertex 0.105104 -0.014722 0.046365
vertex 0.105923 -0.011668 0.044088
endloop
endfacet
facet normal 0.182027 0.679331 0.710898
outer loop
vertex 0.055050 0.001963 0.044088
vertex 0.105923 -0.011668 0.044088
vertex 0.055767 0.004638 0.041348
endloop
endfacet
facet normal 0.182025 0.679331 0.710898
outer loop
vertex 0.055767 0.004638 0.041348
vertex 0.105923 -0.011668 0.044088
vertex 0.106639 -0.008993 0.041348
endloop
endfacet
facet normal 0.208404 0.777771 0.592993
outer loop
vertex 0.055767 0.004638 0.041348
vertex 0.106639 -0.008993 0.041348
vertex 0.056365 0.006870 0.038211
endloop
endfacet
facet normal 0.208403 0.777771 0.592993
outer loop
vertex 0.056365 0.006870 0.038211
vertex 0.106639 -0.008993 0.041348
vertex 0.107237 -0.006761 0.038211
endloop
endfacet
facet normal 0.229718 0.857321 0.460685
outer loop
vertex 0.056365 0.006870 0.038211
vertex 0.107237 -0.006761 0.038211
vertex 0.056830 0.008604 0.034753
endloop
endfacet
facet normal 0.229719 0.857321 0.460685
outer loop
vertex 0.056830 0.008604 0.034753
vertex 0.107237 -0.006761 0.038211
vertex 0.107702 -0.005028 0.034753
endloop
endfacet
facet normal 0.245454 0.916049 0.317186
outer loop
vertex 0.056830 0.008604 0.034753
vertex 0.107702 -0.005028 0.034753
vertex 0.057150 0.009797 0.031058
endloop
endfacet
facet normal 0.245455 0.916048 0.317187
outer loop
vertex 0.057150 0.009797 0.031058
vertex 0.107702 -0.005028 0.034753
vertex 0.108022 -0.003834 0.031058
endloop
endfacet
facet normal 0.255229 0.952527 0.165986
outer loop
vertex 0.057150 0.009797 0.031058
vertex 0.108022 -0.003834 0.031058
vertex 0.057317 0.010422 0.027216
endloop
endfacet
facet normal 0.255229 0.952527 0.165985
outer loop
vertex 0.057317 0.010422 0.027216
vertex 0.108022 -0.003834 0.031058
vertex 0.108189 -0.003209 0.027216
endloop
endfacet
facet normal 0.258804 0.965870 0.010753
outer loop
vertex 0.057317 0.010422 0.027216
vertex 0.108189 -0.003209 0.027216
vertex 0.057328 0.010462 0.023320
endloop
endfacet
facet normal 0.258804 0.965870 0.010753
outer loop
vertex 0.057328 0.010462 0.023320
vertex 0.108189 -0.003209 0.027216
vertex 0.108200 -0.003169 0.023320
endloop
endfacet
facet normal 0.256093 0.955754 -0.144741
outer loop
vertex 0.057328 0.010462 0.023320
vertex 0.108200 -0.003169 0.023320
vertex 0.057182 0.009918 0.019465
endloop
endfacet
facet normal 0.256094 0.955754 -0.144741
outer loop
vertex 0.057182 0.009918 0.019465
vertex 0.108200 -0.003169 0.023320
vertex 0.108054 -0.003713 0.019465
endloop
endfacet
facet normal 0.247163 0.922425 -0.296720
outer loop
vertex 0.057182 0.009918 0.019465
vertex 0.108054 -0.003713 0.019465
vertex 0.056883 0.008801 0.015744
endloop
endfacet
facet normal 0.247163 0.922425 -0.296720
outer loop
vertex 0.056883 0.008801 0.015744
vertex 0.108054 -0.003713 0.019465
vertex 0.107755 -0.004830 0.015744
endloop
endfacet
facet normal 0.232229 0.866692 -0.441491
outer loop
vertex 0.056883 0.008801 0.015744
vertex 0.107755 -0.004830 0.015744
vertex 0.056438 0.007140 0.012248
endloop
endfacet
facet normal 0.232230 0.866692 -0.441491
outer loop
vertex 0.056438 0.007140 0.012248
vertex 0.107755 -0.004830 0.015744
vertex 0.107310 -0.006492 0.012248
endloop
endfacet
facet normal 0.211655 0.789908 -0.575540
outer loop
vertex 0.056438 0.007140 0.012248
vertex 0.107310 -0.006492 0.012248
vertex 0.055857 0.004974 0.009062
endloop
endfacet
facet normal -0.155710 -0.581116 -0.798785
outer loop
vertex 0.047394 -0.026612 0.003919
vertex 0.046588 -0.029618 0.006263
vertex -0.004284 -0.015987 0.006263
endloop
endfacet
facet normal -0.185941 -0.693940 -0.695610
outer loop
vertex -0.004284 -0.015987 0.006263
vertex 0.046588 -0.029618 0.006263
vertex -0.004985 -0.018605 0.009062
endloop
endfacet
facet normal -0.185941 -0.693940 -0.695610
outer loop
vertex -0.004284 -0.015987 0.006263
vertex -0.004985 -0.018605 0.009062
vertex -0.055857 -0.004974 0.009062
endloop
endfacet
facet normal -0.211655 -0.789909 -0.575540
outer loop
vertex -0.055857 -0.004974 0.009062
vertex -0.004985 -0.018605 0.009062
vertex -0.056438 -0.007140 0.012248
endloop
endfacet
facet normal -0.211655 -0.789909 -0.575540
outer loop
vertex -0.055857 -0.004974 0.009062
vertex -0.056438 -0.007140 0.012248
vertex -0.107310 0.006492 0.012248
endloop
endfacet
facet normal -0.232229 -0.866692 -0.441491
outer loop
vertex -0.107310 0.006492 0.012248
vertex -0.056438 -0.007140 0.012248
vertex -0.107755 0.004830 0.015744
endloop
endfacet
facet normal -0.185941 -0.693941 -0.695610
outer loop
vertex -0.004985 -0.018605 0.009062
vertex 0.046588 -0.029618 0.006263
vertex 0.045887 -0.032236 0.009062
endloop
endfacet
facet normal -0.211655 -0.789909 -0.575540
outer loop
vertex -0.004985 -0.018605 0.009062
vertex 0.045887 -0.032236 0.009062
vertex -0.005565 -0.020771 0.012248
endloop
endfacet
facet normal -0.211655 -0.789908 -0.575541
outer loop
vertex -0.005565 -0.020771 0.012248
vertex 0.045887 -0.032236 0.009062
vertex 0.045307 -0.034402 0.012248
endloop
endfacet
facet normal -0.232229 -0.866692 -0.441491
outer loop
vertex -0.005565 -0.020771 0.012248
vertex 0.045307 -0.034402 0.012248
vertex -0.006011 -0.022432 0.015744
endloop
endfacet
facet normal -0.232230 -0.866692 -0.441491
outer loop
vertex -0.006011 -0.022432 0.015744
vertex 0.045307 -0.034402 0.012248
vertex 0.044861 -0.036063 0.015744
endloop
endfacet
facet normal -0.247163 -0.922425 -0.296719
outer loop
vertex -0.006011 -0.022432 0.015744
vertex 0.044861 -0.036063 0.015744
vertex -0.006310 -0.023549 0.019465
endloop
endfacet
facet normal -0.247163 -0.922425 -0.296720
outer loop
vertex -0.006310 -0.023549 0.019465
vertex 0.044861 -0.036063 0.015744
vertex 0.044562 -0.037180 0.019465
endloop
endfacet
facet normal -0.256094 -0.955754 -0.144741
outer loop
vertex -0.006310 -0.023549 0.019465
vertex 0.044562 -0.037180 0.019465
vertex -0.006456 -0.024094 0.023320
endloop
endfacet
facet normal -0.256094 -0.955754 -0.144741
outer loop
vertex -0.006456 -0.024094 0.023320
vertex 0.044562 -0.037180 0.019465
vertex 0.044416 -0.037725 0.023320
endloop
endfacet
facet normal -0.258804 -0.965870 0.010751
outer loop
vertex -0.006456 -0.024094 0.023320
vertex 0.044416 -0.037725 0.023320
vertex -0.006445 -0.024053 0.027216
endloop
endfacet
facet normal -0.258804 -0.965870 0.010754
outer loop
vertex -0.006445 -0.024053 0.027216
vertex 0.044416 -0.037725 0.023320
vertex 0.044427 -0.037684 0.027216
endloop
endfacet
facet normal -0.255229 -0.952527 0.165986
outer loop
vertex -0.006445 -0.024053 0.027216
vertex 0.044427 -0.037684 0.027216
vertex -0.006278 -0.023428 0.031058
endloop
endfacet
facet normal -0.255229 -0.952527 0.165986
outer loop
vertex -0.006278 -0.023428 0.031058
vertex 0.044427 -0.037684 0.027216
vertex 0.044594 -0.037060 0.031058
endloop
endfacet
facet normal -0.245455 -0.916049 0.317186
outer loop
vertex -0.006278 -0.023428 0.031058
vertex 0.044594 -0.037060 0.031058
vertex -0.005958 -0.022235 0.034753
endloop
endfacet
facet normal -0.245454 -0.916049 0.317187
outer loop
vertex -0.005958 -0.022235 0.034753
vertex 0.044594 -0.037060 0.031058
vertex 0.044914 -0.035866 0.034753
endloop
endfacet
facet normal -0.229719 -0.857321 0.460685
outer loop
vertex -0.005958 -0.022235 0.034753
vertex 0.044914 -0.035866 0.034753
vertex -0.005493 -0.020501 0.038211
endloop
endfacet
facet normal -0.229718 -0.857321 0.460685
outer loop
vertex -0.005493 -0.020501 0.038211
vertex 0.044914 -0.035866 0.034753
vertex 0.045379 -0.034132 0.038211
endloop
endfacet
facet normal -0.208403 -0.777772 0.592992
outer loop
vertex -0.005493 -0.020501 0.038211
vertex 0.045379 -0.034132 0.038211
vertex -0.004895 -0.018269 0.041348
endloop
endfacet
facet normal -0.208403 -0.777771 0.592993
outer loop
vertex -0.004895 -0.018269 0.041348
vertex 0.045379 -0.034132 0.038211
vertex 0.045977 -0.031900 0.041348
endloop
endfacet
facet normal -0.182025 -0.679331 0.710898
outer loop
vertex -0.004895 -0.018269 0.041348
vertex 0.045977 -0.031900 0.041348
vertex -0.004178 -0.015594 0.044088
endloop
endfacet
facet normal -0.182027 -0.679331 0.710898
outer loop
vertex -0.004178 -0.015594 0.044088
vertex 0.045977 -0.031900 0.041348
vertex 0.046694 -0.029225 0.044088
endloop
endfacet
facet normal -0.151228 -0.564390 0.811538
outer loop
vertex -0.004178 -0.015594 0.044088
vertex 0.046694 -0.029225 0.044088
vertex -0.003360 -0.012540 0.046365
endloop
endfacet
facet normal -0.151228 -0.564391 0.811538
outer loop
vertex -0.003360 -0.012540 0.046365
vertex 0.046694 -0.029225 0.044088
vertex 0.047512 -0.026171 0.046365
endloop
endfacet
facet normal -0.116757 -0.435743 0.892466
outer loop
vertex -0.003360 -0.012540 0.046365
vertex 0.047512 -0.026171 0.046365
vertex -0.002460 -0.009181 0.048123
endloop
endfacet
facet normal -0.116757 -0.435743 0.892466
outer loop
vertex -0.002460 -0.009181 0.048123
vertex 0.047512 -0.026171 0.046365
vertex 0.048412 -0.022812 0.048123
endloop
endfacet
facet normal -0.079450 -0.296511 0.951719
outer loop
vertex -0.002460 -0.009181 0.048123
vertex 0.048412 -0.022812 0.048123
vertex -0.001500 -0.005599 0.049319
endloop
endfacet
facet normal -0.079451 -0.296512 0.951719
outer loop
vertex -0.001500 -0.005599 0.049319
vertex 0.048412 -0.022812 0.048123
vertex 0.049372 -0.019231 0.049319
endloop
endfacet
facet normal -0.040214 -0.150078 0.987856
outer loop
vertex -0.001500 -0.005599 0.049319
vertex 0.049372 -0.019231 0.049319
vertex -0.000504 -0.001882 0.049924
endloop
endfacet
facet normal -0.040213 -0.150078 0.987856
outer loop
vertex -0.000504 -0.001882 0.049924
vertex 0.049372 -0.019231 0.049319
vertex 0.050368 -0.015513 0.049924
endloop
endfacet
facet normal 0.000000 0.000000 1.000000
outer loop
vertex -0.000504 -0.001882 0.049924
vertex 0.050368 -0.015513 0.049924
vertex 0.000504 0.001882 0.049924
endloop
endfacet
facet normal -0.000000 0.000000 1.000000
outer loop
vertex 0.000504 0.001882 0.049924
vertex 0.050368 -0.015513 0.049924
vertex 0.051376 -0.011749 0.049924
endloop
endfacet
facet normal 0.040213 0.150078 0.987856
outer loop
vertex 0.000504 0.001882 0.049924
vertex 0.051376 -0.011749 0.049924
vertex 0.001500 0.005599 0.049319
endloop
endfacet
facet normal 0.040213 0.150078 0.987856
outer loop
vertex 0.001500 0.005599 0.049319
vertex 0.051376 -0.011749 0.049924
vertex 0.052372 -0.008032 0.049319
endloop
endfacet
facet normal 0.079451 0.296512 0.951719
outer loop
vertex 0.001500 0.005599 0.049319
vertex 0.052372 -0.008032 0.049319
vertex 0.002460 0.009181 0.048123
endloop
endfacet
facet normal 0.079450 0.296512 0.951719
outer loop
vertex 0.002460 0.009181 0.048123
vertex 0.052372 -0.008032 0.049319
vertex 0.053332 -0.004450 0.048123
endloop
endfacet
facet normal 0.116757 0.435743 0.892466
outer loop
vertex 0.002460 0.009181 0.048123
vertex 0.053332 -0.004450 0.048123
vertex 0.003360 0.012540 0.046365
endloop
endfacet
facet normal 0.116757 0.435743 0.892466
outer loop
vertex 0.003360 0.012540 0.046365
vertex 0.053332 -0.004450 0.048123
vertex 0.054232 -0.001091 0.046365
endloop
endfacet
facet normal 0.151228 0.564390 0.811538
outer loop
vertex 0.003360 0.012540 0.046365
vertex 0.054232 -0.001091 0.046365
vertex 0.004178 0.015594 0.044088
endloop
endfacet
facet normal 0.151228 0.564390 0.811538
outer loop
vertex 0.004178 0.015594 0.044088
vertex 0.054232 -0.001091 0.046365
vertex 0.055050 0.001963 0.044088
endloop
endfacet
facet normal 0.182027 0.679331 0.710898
outer loop
vertex 0.004178 0.015594 0.044088
vertex 0.055050 0.001963 0.044088
vertex 0.004895 0.018269 0.041348
endloop
endfacet
facet normal 0.182025 0.679331 0.710898
outer loop
vertex 0.004895 0.018269 0.041348
vertex 0.055050 0.001963 0.044088
vertex 0.055767 0.004638 0.041348
endloop
endfacet
facet normal 0.208404 0.777771 0.592993
outer loop
vertex 0.004895 0.018269 0.041348
vertex 0.055767 0.004638 0.041348
vertex 0.005493 0.020501 0.038211
endloop
endfacet
facet normal 0.208403 0.777771 0.592992
outer loop
vertex 0.005493 0.020501 0.038211
vertex 0.055767 0.004638 0.041348
vertex 0.056365 0.006870 0.038211
endloop
endfacet
facet normal 0.229718 0.857321 0.460684
outer loop
vertex 0.005493 0.020501 0.038211
vertex 0.056365 0.006870 0.038211
vertex 0.005958 0.022235 0.034753
endloop
endfacet
facet normal 0.229719 0.857321 0.460685
outer loop
vertex 0.005958 0.022235 0.034753
vertex 0.056365 0.006870 0.038211
vertex 0.056830 0.008604 0.034753
endloop
endfacet
facet normal 0.245454 0.916048 0.317187
outer loop
vertex 0.005958 0.022235 0.034753
vertex 0.056830 0.008604 0.034753
vertex 0.006278 0.023428 0.031058
endloop
endfacet
facet normal 0.245455 0.916049 0.317186
outer loop
vertex 0.006278 0.023428 0.031058
vertex 0.056830 0.008604 0.034753
vertex 0.057150 0.009797 0.031058
endloop
endfacet
facet normal 0.255229 0.952527 0.165985
outer loop
vertex 0.006278 0.023428 0.031058
vertex 0.057150 0.009797 0.031058
vertex 0.006445 0.024053 0.027216
endloop
endfacet
facet normal 0.255229 0.952527 0.165986
outer loop
vertex 0.006445 0.024053 0.027216
vertex 0.057150 0.009797 0.031058
vertex 0.057317 0.010422 0.027216
endloop
endfacet
facet normal 0.258804 0.965870 0.010753
outer loop
vertex 0.006445 0.024053 0.027216
vertex 0.057317 0.010422 0.027216
vertex 0.006456 0.024094 0.023320
endloop
endfacet
facet normal 0.258804 0.965870 0.010753
outer loop
vertex 0.006456 0.024094 0.023320
vertex 0.057317 0.010422 0.027216
vertex 0.057328 0.010462 0.023320
endloop
endfacet
facet normal 0.256093 0.955754 -0.144741
outer loop
vertex 0.006456 0.024094 0.023320
vertex 0.057328 0.010462 0.023320
vertex 0.006310 0.023549 0.019465
endloop
endfacet
facet normal 0.256094 0.955754 -0.144741
outer loop
vertex 0.006310 0.023549 0.019465
vertex 0.057328 0.010462 0.023320
vertex 0.057182 0.009918 0.019465
endloop
endfacet
facet normal 0.247163 0.922425 -0.296720
outer loop
vertex 0.006310 0.023549 0.019465
vertex 0.057182 0.009918 0.019465
vertex 0.006011 0.022432 0.015744
endloop
endfacet
facet normal 0.247163 0.922425 -0.296720
outer loop
vertex 0.006011 0.022432 0.015744
vertex 0.057182 0.009918 0.019465
vertex 0.056883 0.008801 0.015744
endloop
endfacet
facet normal 0.232229 0.866692 -0.441491
outer loop
vertex 0.006011 0.022432 0.015744
vertex 0.056883 0.008801 0.015744
vertex 0.005565 0.020771 0.012248
endloop
endfacet
facet normal 0.232229 0.866692 -0.441491
outer loop
vertex 0.005565 0.020771 0.012248
vertex 0.056883 0.008801 0.015744
vertex 0.056438 0.007140 0.012248
endloop
endfacet
facet normal 0.211656 0.789909 -0.575540
outer loop
vertex 0.005565 0.020771 0.012248
vertex 0.056438 0.007140 0.012248
vertex 0.004985 0.018605 0.009062
endloop
endfacet
facet normal 0.211655 0.789908 -0.575540
outer loop
vertex 0.004985 0.018605 0.009062
vertex 0.056438 0.007140 0.012248
vertex 0.055857 0.004974 0.009062
endloop
endfacet
facet normal 0.185941 0.693940 -0.695610
outer loop
vertex 0.004985 0.018605 0.009062
vertex 0.055857 0.004974 0.009062
vertex 0.004284 0.015987 0.006263
endloop
endfacet
facet normal -0.211655 -0.789908 -0.575540
outer loop
vertex -0.004985 -0.018605 0.009062
vertex -0.005565 -0.020771 0.012248
vertex -0.056438 -0.007140 0.012248
endloop
endfacet
facet normal -0.232229 -0.866692 -0.441491
outer loop
vertex -0.056438 -0.007140 0.012248
vertex -0.005565 -0.020771 0.012248
vertex -0.056883 -0.008801 0.015744
endloop
endfacet
facet normal -0.232230 -0.866692 -0.441491
outer loop
vertex -0.056438 -0.007140 0.012248
vertex -0.056883 -0.008801 0.015744
vertex -0.107755 0.004830 0.015744
endloop
endfacet
facet normal -0.247163 -0.922425 -0.296720
outer loop
vertex -0.107755 0.004830 0.015744
vertex -0.056883 -0.008801 0.015744
vertex -0.108054 0.003713 0.019465
endloop
endfacet
facet normal -0.232229 -0.866692 -0.441492
outer loop
vertex -0.056883 -0.008801 0.015744
vertex -0.005565 -0.020771 0.012248
vertex -0.006011 -0.022432 0.015744
endloop
endfacet
facet normal -0.247163 -0.922425 -0.296719
outer loop
vertex -0.056883 -0.008801 0.015744
vertex -0.006011 -0.022432 0.015744
vertex -0.057182 -0.009918 0.019465
endloop
endfacet
facet normal -0.247163 -0.922425 -0.296719
outer loop
vertex -0.057182 -0.009918 0.019465
vertex -0.006011 -0.022432 0.015744
vertex -0.006310 -0.023549 0.019465
endloop
endfacet
facet normal -0.256094 -0.955754 -0.144741
outer loop
vertex -0.057182 -0.009918 0.019465
vertex -0.006310 -0.023549 0.019465
vertex -0.057328 -0.010462 0.023320
endloop
endfacet
facet normal -0.256094 -0.955754 -0.144741
outer loop
vertex -0.057328 -0.010462 0.023320
vertex -0.006310 -0.023549 0.019465
vertex -0.006456 -0.024094 0.023320
endloop
endfacet
facet normal -0.258804 -0.965870 0.010753
outer loop
vertex -0.057328 -0.010462 0.023320
vertex -0.006456 -0.024094 0.023320
vertex -0.057317 -0.010422 0.027216
endloop
endfacet
facet normal -0.258804 -0.965870 0.010753
outer loop
vertex -0.057317 -0.010422 0.027216
vertex -0.006456 -0.024094 0.023320
vertex -0.006445 -0.024053 0.027216
endloop
endfacet
facet normal -0.255229 -0.952527 0.165986
outer loop
vertex -0.057317 -0.010422 0.027216
vertex -0.006445 -0.024053 0.027216
vertex -0.057150 -0.009797 0.031058
endloop
endfacet
facet normal -0.255229 -0.952527 0.165985
outer loop
vertex -0.057150 -0.009797 0.031058
vertex -0.006445 -0.024053 0.027216
vertex -0.006278 -0.023428 0.031058
endloop
endfacet
facet normal -0.245455 -0.916048 0.317186
outer loop
vertex -0.057150 -0.009797 0.031058
vertex -0.006278 -0.023428 0.031058
vertex -0.056830 -0.008604 0.034753
endloop
endfacet
facet normal -0.245454 -0.916048 0.317187
outer loop
vertex -0.056830 -0.008604 0.034753
vertex -0.006278 -0.023428 0.031058
vertex -0.005958 -0.022235 0.034753
endloop
endfacet
facet normal -0.229719 -0.857321 0.460684
outer loop
vertex -0.056830 -0.008604 0.034753
vertex -0.005958 -0.022235 0.034753
vertex -0.056365 -0.006870 0.038211
endloop
endfacet
facet normal -0.229718 -0.857321 0.460685
outer loop
vertex -0.056365 -0.006870 0.038211
vertex -0.005958 -0.022235 0.034753
vertex -0.005493 -0.020501 0.038211
endloop
endfacet
facet normal -0.208403 -0.777771 0.592993
outer loop
vertex -0.056365 -0.006870 0.038211
vertex -0.005493 -0.020501 0.038211
vertex -0.055767 -0.004638 0.041348
endloop
endfacet
facet normal -0.208403 -0.777771 0.592992
outer loop
vertex -0.055767 -0.004638 0.041348
vertex -0.005493 -0.020501 0.038211
vertex -0.004895 -0.018269 0.041348
endloop
endfacet
facet normal -0.182025 -0.679331 0.710898
outer loop
vertex -0.055767 -0.004638 0.041348
vertex -0.004895 -0.018269 0.041348
vertex -0.055050 -0.001963 0.044088
endloop
endfacet
facet normal -0.182027 -0.679331 0.710898
outer loop
vertex -0.055050 -0.001963 0.044088
vertex -0.004895 -0.018269 0.041348
vertex -0.004178 -0.015594 0.044088
endloop
endfacet
facet normal -0.151228 -0.564390 0.811538
outer loop
vertex -0.055050 -0.001963 0.044088
vertex -0.004178 -0.015594 0.044088
vertex -0.054232 0.001091 0.046365
endloop
endfacet
facet normal -0.151228 -0.564390 0.811538
outer loop
vertex -0.054232 0.001091 0.046365
vertex -0.004178 -0.015594 0.044088
vertex -0.003360 -0.012540 0.046365
endloop
endfacet
facet normal -0.116757 -0.435743 0.892466
outer loop
vertex -0.054232 0.001091 0.046365
vertex -0.003360 -0.012540 0.046365
vertex -0.053332 0.004450 0.048123
endloop
endfacet
facet normal -0.116757 -0.435743 0.892466
outer loop
vertex -0.053332 0.004450 0.048123
vertex -0.003360 -0.012540 0.046365
vertex -0.002460 -0.009181 0.048123
endloop
endfacet
facet normal -0.079450 -0.296512 0.951719
outer loop
vertex -0.053332 0.004450 0.048123
vertex -0.002460 -0.009181 0.048123
vertex -0.052372 0.008032 0.049319
endloop
endfacet
facet normal -0.079451 -0.296512 0.951719
outer loop
vertex -0.052372 0.008032 0.049319
vertex -0.002460 -0.009181 0.048123
vertex -0.001500 -0.005599 0.049319
endloop
endfacet
facet normal -0.040214 -0.150078 0.987856
outer loop
vertex -0.052372 0.008032 0.049319
vertex -0.001500 -0.005599 0.049319
vertex -0.051376 0.011749 0.049924
endloop
endfacet
facet normal -0.040213 -0.150078 0.987856
outer loop
vertex -0.051376 0.011749 0.049924
vertex -0.001500 -0.005599 0.049319
vertex -0.000504 -0.001882 0.049924
endloop
endfacet
facet normal 0.000000 0.000000 1.000000
outer loop
vertex -0.051376 0.011749 0.049924
vertex -0.000504 -0.001882 0.049924
vertex -0.050368 0.015513 0.049924
endloop
endfacet
facet normal -0.000000 0.000000 1.000000
outer loop
vertex -0.050368 0.015513 0.049924
vertex -0.000504 -0.001882 0.049924
vertex 0.000504 0.001882 0.049924
endloop
endfacet
facet normal 0.040213 0.150077 0.987856
outer loop
vertex -0.050368 0.015513 0.049924
vertex 0.000504 0.001882 0.049924
vertex -0.049372 0.019231 0.049319
endloop
endfacet
facet normal 0.040214 0.150078 0.987856
outer loop
vertex -0.049372 0.019231 0.049319
vertex 0.000504 0.001882 0.049924
vertex 0.001500 0.005599 0.049319
endloop
endfacet
facet normal 0.079450 0.296512 0.951719
outer loop
vertex -0.049372 0.019231 0.049319
vertex 0.001500 0.005599 0.049319
vertex -0.048412 0.022812 0.048123
endloop
endfacet
facet normal 0.079450 0.296512 0.951719
outer loop
vertex -0.048412 0.022812 0.048123
vertex 0.001500 0.005599 0.049319
vertex 0.002460 0.009181 0.048123
endloop
endfacet
facet normal 0.116756 0.435743 0.892466
outer loop
vertex -0.048412 0.022812 0.048123
vertex 0.002460 0.009181 0.048123
vertex -0.047512 0.026171 0.046365
endloop
endfacet
facet normal 0.116757 0.435743 0.892466
outer loop
vertex -0.047512 0.026171 0.046365
vertex 0.002460 0.009181 0.048123
vertex 0.003360 0.012540 0.046365
endloop
endfacet
facet normal 0.151228 0.564390 0.811538
outer loop
vertex -0.047512 0.026171 0.046365
vertex 0.003360 0.012540 0.046365
vertex -0.046694 0.029225 0.044088
endloop
endfacet
facet normal 0.151228 0.564390 0.811538
outer loop
vertex -0.046694 0.029225 0.044088
vertex 0.003360 0.012540 0.046365
vertex 0.004178 0.015594 0.044088
endloop
endfacet
facet normal 0.182027 0.679331 0.710898
outer loop
vertex -0.046694 0.029225 0.044088
vertex 0.004178 0.015594 0.044088
vertex -0.045977 0.031900 0.041348
endloop
endfacet
facet normal 0.182025 0.679331 0.710898
outer loop
vertex -0.045977 0.031900 0.041348
vertex 0.004178 0.015594 0.044088
vertex 0.004895 0.018269 0.041348
endloop
endfacet
facet normal 0.208403 0.777770 0.592993
outer loop
vertex -0.045977 0.031900 0.041348
vertex 0.004895 0.018269 0.041348
vertex -0.045379 0.034132 0.038211
endloop
endfacet
facet normal 0.208403 0.777771 0.592992
outer loop
vertex -0.045379 0.034132 0.038211
vertex 0.004895 0.018269 0.041348
vertex 0.005493 0.020501 0.038211
endloop
endfacet
facet normal 0.229718 0.857321 0.460685
outer loop
vertex -0.045379 0.034132 0.038211
vertex 0.005493 0.020501 0.038211
vertex -0.044914 0.035866 0.034753
endloop
endfacet
facet normal 0.229719 0.857321 0.460684
outer loop
vertex -0.044914 0.035866 0.034753
vertex 0.005493 0.020501 0.038211
vertex 0.005958 0.022235 0.034753
endloop
endfacet
facet normal 0.245454 0.916049 0.317187
outer loop
vertex -0.044914 0.035866 0.034753
vertex 0.005958 0.022235 0.034753
vertex -0.044594 0.037060 0.031058
endloop
endfacet
facet normal 0.245455 0.916049 0.317186
outer loop
vertex -0.044594 0.037060 0.031058
vertex 0.005958 0.022235 0.034753
vertex 0.006278 0.023428 0.031058
endloop
endfacet
facet normal 0.255229 0.952527 0.165986
outer loop
vertex -0.044594 0.037060 0.031058
vertex 0.006278 0.023428 0.031058
vertex -0.044427 0.037684 0.027216
endloop
endfacet
facet normal 0.255229 0.952527 0.165986
outer loop
vertex -0.044427 0.037684 0.027216
vertex 0.006278 0.023428 0.031058
vertex 0.006445 0.024053 0.027216
endloop
endfacet
facet normal 0.258804 0.965870 0.010754
outer loop
vertex -0.044427 0.037684 0.027216
vertex 0.006445 0.024053 0.027216
vertex -0.044416 0.037725 0.023320
endloop
endfacet
facet normal 0.258804 0.965870 0.010751
outer loop
vertex -0.044416 0.037725 0.023320
vertex 0.006445 0.024053 0.027216
vertex 0.006456 0.024094 0.023320
endloop
endfacet
facet normal 0.256094 0.955754 -0.144740
outer loop
vertex -0.044416 0.037725 0.023320
vertex 0.006456 0.024094 0.023320
vertex -0.044562 0.037180 0.019465
endloop
endfacet
facet normal 0.256094 0.955754 -0.144741
outer loop
vertex -0.044562 0.037180 0.019465
vertex 0.006456 0.024094 0.023320
vertex 0.006310 0.023549 0.019465
endloop
endfacet
facet normal 0.247163 0.922425 -0.296719
outer loop
vertex -0.044562 0.037180 0.019465
vertex 0.006310 0.023549 0.019465
vertex -0.044861 0.036063 0.015744
endloop
endfacet
facet normal 0.247163 0.922425 -0.296720
outer loop
vertex -0.044861 0.036063 0.015744
vertex 0.006310 0.023549 0.019465
vertex 0.006011 0.022432 0.015744
endloop
endfacet
facet normal 0.232230 0.866692 -0.441491
outer loop
vertex -0.044861 0.036063 0.015744
vertex 0.006011 0.022432 0.015744
vertex -0.045307 0.034402 0.012248
endloop
endfacet
facet normal 0.232229 0.866692 -0.441491
outer loop
vertex -0.045307 0.034402 0.012248
vertex 0.006011 0.022432 0.015744
vertex 0.005565 0.020771 0.012248
endloop
endfacet
facet normal 0.211655 0.789908 -0.575541
outer loop
vertex -0.045307 0.034402 0.012248
vertex 0.005565 0.020771 0.012248
vertex -0.045887 0.032236 0.009062
endloop
endfacet
facet normal 0.211655 0.789909 -0.575540
outer loop
vertex -0.045887 0.032236 0.009062
vertex 0.005565 0.020771 0.012248
vertex 0.004985 0.018605 0.009062
endloop
endfacet
facet normal 0.185941 0.693940 -0.695610
outer loop
vertex -0.045887 0.032236 0.009062
vertex 0.004985 0.018605 0.009062
vertex -0.046588 0.029618 0.006263
endloop
endfacet
facet normal 0.185941 0.693940 -0.695610
outer loop
vertex -0.046588 0.029618 0.006263
vertex 0.004985 0.018605 0.009062
vertex 0.004284 0.015987 0.006263
endloop
endfacet
facet normal 0.155710 0.581117 -0.798785
outer loop
vertex -0.046588 0.029618 0.006263
vertex 0.004284 0.015987 0.006263
vertex -0.047394 0.026612 0.003919
endloop
endfacet
facet normal -0.256094 -0.955754 -0.144741
outer loop
vertex -0.108200 0.003169 0.023320
vertex -0.108054 0.003713 0.019465
vertex -0.057182 -0.009918 0.019465
endloop
endfacet
facet normal -0.247163 -0.922425 -0.296720
outer loop
vertex -0.057182 -0.009918 0.019465
vertex -0.108054 0.003713 0.019465
vertex -0.056883 -0.008801 0.015744
endloop
endfacet
facet normal -0.256094 -0.955754 -0.144741
outer loop
vertex -0.108200 0.003169 0.023320
vertex -0.057182 -0.009918 0.019465
vertex -0.057328 -0.010462 0.023320
endloop
endfacet
facet normal -0.258804 -0.965870 0.010753
outer loop
vertex -0.108189 0.003209 0.027216
vertex -0.108200 0.003169 0.023320
vertex -0.057328 -0.010462 0.023320
endloop
endfacet
facet normal -0.258804 -0.965870 0.010753
outer loop
vertex -0.108189 0.003209 0.027216
vertex -0.057328 -0.010462 0.023320
vertex -0.057317 -0.010422 0.027216
endloop
endfacet
facet normal -0.255229 -0.952527 0.165985
outer loop
vertex -0.108022 0.003834 0.031058
vertex -0.108189 0.003209 0.027216
vertex -0.057317 -0.010422 0.027216
endloop
endfacet
facet normal -0.255229 -0.952527 0.165986
outer loop
vertex -0.108022 0.003834 0.031058
vertex -0.057317 -0.010422 0.027216
vertex -0.057150 -0.009797 0.031058
endloop
endfacet
facet normal -0.245455 -0.916048 0.317187
outer loop
vertex -0.107702 0.005028 0.034753
vertex -0.108022 0.003834 0.031058
vertex -0.057150 -0.009797 0.031058
endloop
endfacet
facet normal -0.245454 -0.916049 0.317187
outer loop
vertex -0.107702 0.005028 0.034753
vertex -0.057150 -0.009797 0.031058
vertex -0.056830 -0.008604 0.034753
endloop
endfacet
facet normal -0.229719 -0.857321 0.460685
outer loop
vertex -0.107237 0.006761 0.038211
vertex -0.107702 0.005028 0.034753
vertex -0.056830 -0.008604 0.034753
endloop
endfacet
facet normal -0.229718 -0.857321 0.460685
outer loop
vertex -0.107237 0.006761 0.038211
vertex -0.056830 -0.008604 0.034753
vertex -0.056365 -0.006870 0.038211
endloop
endfacet
facet normal -0.208403 -0.777771 0.592993
outer loop
vertex -0.106639 0.008993 0.041348
vertex -0.107237 0.006761 0.038211
vertex -0.056365 -0.006870 0.038211
endloop
endfacet
facet normal -0.208403 -0.777771 0.592993
outer loop
vertex -0.106639 0.008993 0.041348
vertex -0.056365 -0.006870 0.038211
vertex -0.055767 -0.004638 0.041348
endloop
endfacet
facet normal -0.182025 -0.679331 0.710898
outer loop
vertex -0.105923 0.011668 0.044088
vertex -0.106639 0.008993 0.041348
vertex -0.055767 -0.004638 0.041348
endloop
endfacet
facet normal -0.182027 -0.679331 0.710898
outer loop
vertex -0.105923 0.011668 0.044088
vertex -0.055767 -0.004638 0.041348
vertex -0.055050 -0.001963 0.044088
endloop
endfacet
facet normal -0.151228 -0.564390 0.811538
outer loop
vertex -0.105104 0.014722 0.046365
vertex -0.105923 0.011668 0.044088
vertex -0.055050 -0.001963 0.044088
endloop
endfacet
facet normal -0.151228 -0.564390 0.811538
outer loop
vertex -0.105104 0.014722 0.046365
vertex -0.055050 -0.001963 0.044088
vertex -0.054232 0.001091 0.046365
endloop
endfacet
facet normal -0.116757 -0.435743 0.892466
outer loop
vertex -0.104204 0.018081 0.048123
vertex -0.105104 0.014722 0.046365
vertex -0.054232 0.001091 0.046365
endloop
endfacet
facet normal -0.116757 -0.435743 0.892466
outer loop
vertex -0.104204 0.018081 0.048123
vertex -0.054232 0.001091 0.046365
vertex -0.053332 0.004450 0.048123
endloop
endfacet
facet normal -0.079450 -0.296512 0.951719
outer loop
vertex -0.103245 0.021663 0.049319
vertex -0.104204 0.018081 0.048123
vertex -0.053332 0.004450 0.048123
endloop
endfacet
facet normal -0.079451 -0.296512 0.951719
outer loop
vertex -0.103245 0.021663 0.049319
vertex -0.053332 0.004450 0.048123
vertex -0.052372 0.008032 0.049319
endloop
endfacet
facet normal -0.040214 -0.150077 0.987856
outer loop
vertex -0.102248 0.025381 0.049924
vertex -0.103245 0.021663 0.049319
vertex -0.052372 0.008032 0.049319
endloop
endfacet
facet normal -0.040213 -0.150078 0.987856
outer loop
vertex -0.102248 0.025381 0.049924
vertex -0.052372 0.008032 0.049319
vertex -0.051376 0.011749 0.049924
endloop
endfacet
facet normal 0.000000 0.000000 1.000000
outer loop
vertex -0.101240 0.029144 0.049924
vertex -0.102248 0.025381 0.049924
vertex -0.051376 0.011749 0.049924
endloop
endfacet
facet normal -0.000000 0.000000 1.000000
outer loop
vertex -0.101240 0.029144 0.049924
vertex -0.051376 0.011749 0.049924
vertex -0.050368 0.015513 0.049924
endloop
endfacet
facet normal 0.040213 0.150078 0.987856
outer loop
vertex -0.100244 0.032862 0.049319
vertex -0.101240 0.029144 0.049924
vertex -0.050368 0.015513 0.049924
endloop
endfacet
facet normal 0.040213 0.150077 0.987856
outer loop
vertex -0.100244 0.032862 0.049319
vertex -0.050368 0.015513 0.049924
vertex -0.049372 0.019231 0.049319
endloop
endfacet
facet normal 0.079450 0.296512 0.951719
outer loop
vertex -0.099284 0.036443 0.048123
vertex -0.100244 0.032862 0.049319
vertex -0.049372 0.019231 0.049319
endloop
endfacet
facet normal 0.079450 0.296512 0.951719
outer loop
vertex -0.099284 0.036443 0.048123
vertex -0.049372 0.019231 0.049319
vertex -0.048412 0.022812 0.048123
endloop
endfacet
facet normal 0.116756 0.435743 0.892466
outer loop
vertex -0.098384 0.039802 0.046365
vertex -0.099284 0.036443 0.048123
vertex -0.048412 0.022812 0.048123
endloop
endfacet
facet normal 0.116757 0.435743 0.892466
outer loop
vertex -0.098384 0.039802 0.046365
vertex -0.048412 0.022812 0.048123
vertex -0.047512 0.026171 0.046365
endloop
endfacet
facet normal 0.151228 0.564389 0.811538
outer loop
vertex -0.097566 0.042856 0.044088
vertex -0.098384 0.039802 0.046365
vertex -0.047512 0.026171 0.046365
endloop
endfacet
facet normal 0.151227 0.564390 0.811538
outer loop
vertex -0.097566 0.042856 0.044088
vertex -0.047512 0.026171 0.046365
vertex -0.046694 0.029225 0.044088
endloop
endfacet
facet normal 0.182027 0.679332 0.710896
outer loop
vertex -0.096849 0.045532 0.041348
vertex -0.097566 0.042856 0.044088
vertex -0.046694 0.029225 0.044088
endloop
endfacet
facet normal 0.182025 0.679330 0.710899
outer loop
vertex -0.096849 0.045532 0.041348
vertex -0.046694 0.029225 0.044088
vertex -0.045977 0.031900 0.041348
endloop
endfacet
facet normal 0.208404 0.777772 0.592991
outer loop
vertex -0.096251 0.047763 0.038211
vertex -0.096849 0.045532 0.041348
vertex -0.045977 0.031900 0.041348
endloop
endfacet
facet normal 0.208403 0.777770 0.592994
outer loop
vertex -0.096251 0.047763 0.038211
vertex -0.045977 0.031900 0.041348
vertex -0.045379 0.034132 0.038211
endloop
endfacet
facet normal 0.229719 0.857322 0.460682
outer loop
vertex -0.095786 0.049497 0.034753
vertex -0.096251 0.047763 0.038211
vertex -0.045379 0.034132 0.038211
endloop
endfacet
facet normal 0.229719 0.857321 0.460684
outer loop
vertex -0.095786 0.049497 0.034753
vertex -0.045379 0.034132 0.038211
vertex -0.044914 0.035866 0.034753
endloop
endfacet
facet normal 0.245454 0.916049 0.317187
outer loop
vertex -0.095467 0.050691 0.031058
vertex -0.095786 0.049497 0.034753
vertex -0.044914 0.035866 0.034753
endloop
endfacet
facet normal 0.245455 0.916048 0.317188
outer loop
vertex -0.095467 0.050691 0.031058
vertex -0.044914 0.035866 0.034753
vertex -0.044594 0.037060 0.031058
endloop
endfacet
facet normal 0.255229 0.952527 0.165986
outer loop
vertex -0.095299 0.051315 0.027216
vertex -0.095467 0.050691 0.031058
vertex -0.044594 0.037060 0.031058
endloop
endfacet
facet normal 0.255229 0.952527 0.165985
outer loop
vertex -0.095299 0.051315 0.027216
vertex -0.044594 0.037060 0.031058
vertex -0.044427 0.037684 0.027216
endloop
endfacet
facet normal 0.258804 0.965870 0.010752
outer loop
vertex -0.095288 0.051356 0.023320
vertex -0.095299 0.051315 0.027216
vertex -0.044427 0.037684 0.027216
endloop
endfacet
facet normal 0.258804 0.965870 0.010755
outer loop
vertex -0.095288 0.051356 0.023320
vertex -0.044427 0.037684 0.027216
vertex -0.044416 0.037725 0.023320
endloop
endfacet
facet normal 0.256093 0.955754 -0.144740
outer loop
vertex -0.095434 0.050811 0.019465
vertex -0.095288 0.051356 0.023320
vertex -0.044416 0.037725 0.023320
endloop
endfacet
facet normal 0.256094 0.955754 -0.144742
outer loop
vertex -0.095434 0.050811 0.019465
vertex -0.044416 0.037725 0.023320
vertex -0.044562 0.037180 0.019465
endloop
endfacet
facet normal 0.247163 0.922425 -0.296720
outer loop
vertex -0.095734 0.049694 0.015744
vertex -0.095434 0.050811 0.019465
vertex -0.044562 0.037180 0.019465
endloop
endfacet
facet normal 0.247163 0.922425 -0.296718
outer loop
vertex -0.095734 0.049694 0.015744
vertex -0.044562 0.037180 0.019465
vertex -0.044861 0.036063 0.015744
endloop
endfacet
facet normal 0.232229 0.866692 -0.441492
outer loop
vertex -0.096179 0.048033 0.012248
vertex -0.095734 0.049694 0.015744
vertex -0.044861 0.036063 0.015744
endloop
endfacet
facet normal 0.232229 0.866691 -0.441492
outer loop
vertex -0.096179 0.048033 0.012248
vertex -0.044861 0.036063 0.015744
vertex -0.045307 0.034402 0.012248
endloop
endfacet
facet normal 0.211656 0.789909 -0.575539
outer loop
vertex -0.096759 0.045867 0.009062
vertex -0.096179 0.048033 0.012248
vertex -0.045307 0.034402 0.012248
endloop
endfacet
facet normal 0.211655 0.789909 -0.575540
outer loop
vertex -0.096759 0.045867 0.009062
vertex -0.045307 0.034402 0.012248
vertex -0.045887 0.032236 0.009062
endloop
endfacet
facet normal 0.185941 0.693940 -0.695610
outer loop
vertex -0.097461 0.043249 0.006263
vertex -0.096759 0.045867 0.009062
vertex -0.045887 0.032236 0.009062
endloop
endfacet
facet normal 0.185941 0.693940 -0.695610
outer loop
vertex -0.097461 0.043249 0.006263
vertex -0.045887 0.032236 0.009062
vertex -0.046588 0.029618 0.006263
endloop
endfacet
facet normal 0.155710 0.581117 -0.798785
outer loop
vertex -0.098266 0.040243 0.003919
vertex -0.097461 0.043249 0.006263
vertex -0.046588 0.029618 0.006263
endloop
endfacet
facet normal 0.155710 0.581117 -0.798785
outer loop
vertex -0.098266 0.040243 0.003919
vertex -0.046588 0.029618 0.006263
vertex -0.047394 0.026612 0.003919
endloop
endfacet
facet normal -0.258819 -0.965926 0.000000
outer loop
vertex 0.150028 -0.050553 0.000000
vertex 0.150028 -0.050553 0.002087
vertex -0.155204 0.031234 0.000000
endloop
endfacet
facet normal -0.258819 -0.965926 0.000000
outer loop
vertex -0.155204 0.031234 0.000000
vertex 0.150028 -0.050553 0.002087
vertex -0.155204 0.031234 0.002087
endloop
endfacet
facet normal -0.965926 0.258819 0.000000
outer loop
vertex -0.155204 0.031234 0.000000
vertex -0.155204 0.031234 0.002087
vertex -0.150028 0.050553 0.000000
endloop
endfacet
facet normal -0.965926 0.258819 0.000000
outer loop
vertex -0.150028 0.050553 0.000000
vertex -0.155204 0.031234 0.002087
vertex -0.150028 0.050553 0.002087
endloop
endfacet
facet normal -0.965925 0.258821 -0.000002
outer loop
vertex -0.150028 0.050553 0.002087
vertex -0.155204 0.031234 0.002087
vertex -0.149162 0.053786 0.003861
endloop
endfacet
facet normal -0.965925 0.258821 -0.000002
outer loop
vertex -0.149162 0.053786 0.003861
vertex -0.155204 0.031234 0.002087
vertex -0.148375 0.056723 0.006120
endloop
endfacet
facet normal -0.965927 0.258813 -0.000001
outer loop
vertex -0.148375 0.056723 0.006120
vertex -0.155204 0.031234 0.002087
vertex -0.147685 0.059296 0.008813
endloop
endfacet
facet normal -0.965926 0.258820 -0.000001
outer loop
vertex -0.147685 0.059296 0.008813
vertex -0.155204 0.031234 0.002087
vertex -0.147109 0.061447 0.011878
endloop
endfacet
facet normal -0.965925 0.258824 -0.000001
outer loop
vertex -0.147109 0.061447 0.011878
vertex -0.155204 0.031234 0.002087
vertex -0.146659 0.063127 0.015243
endloop
endfacet
facet normal -0.965927 0.258813 0.000001
outer loop
vertex -0.146659 0.063127 0.015243
vertex -0.155204 0.031234 0.002087
vertex -0.146346 0.064295 0.018833
endloop
endfacet
facet normal -0.965926 0.258817 0.000003
outer loop
vertex -0.146346 0.064295 0.018833
vertex -0.155204 0.031234 0.002087
vertex -0.146177 0.064927 0.022564
endloop
endfacet
facet normal -0.965926 0.258820 -0.000003
outer loop
vertex -0.146177 0.064927 0.022564
vertex -0.155204 0.031234 0.002087
vertex -0.146155 0.065006 0.026352
endloop
endfacet
facet normal -0.965925 0.258821 0.000001
outer loop
vertex -0.146155 0.065006 0.026352
vertex -0.155204 0.031234 0.002087
vertex -0.146282 0.064532 0.030108
endloop
endfacet
facet normal -0.965927 0.258815 0.000000
outer loop
vertex -0.146282 0.064532 0.030108
vertex -0.155204 0.031234 0.002087
vertex -0.146555 0.063515 0.033747
endloop
endfacet
facet normal -0.965927 0.258816 -0.000001
outer loop
vertex -0.146555 0.063515 0.033747
vertex -0.155204 0.031234 0.002087
vertex -0.146966 0.061979 0.037185
endloop
endfacet
facet normal -0.965925 0.258821 0.000000
outer loop
vertex -0.146966 0.061979 0.037185
vertex -0.155204 0.031234 0.002087
vertex -0.147508 0.059959 0.040343
endloop
endfacet
facet normal -0.965928 0.258812 0.000002
outer loop
vertex -0.147508 0.059959 0.040343
vertex -0.155204 0.031234 0.002087
vertex -0.148166 0.057501 0.043149
endloop
endfacet
facet normal -0.965924 0.258824 -0.000002
outer loop
vertex -0.148166 0.057501 0.043149
vertex -0.155204 0.031234 0.002087
vertex -0.148927 0.054661 0.045539
endloop
endfacet
facet normal -0.965926 0.258818 0.000001
outer loop
vertex -0.148927 0.054661 0.045539
vertex -0.155204 0.031234 0.002087
vertex -0.149773 0.051506 0.047456
endloop
endfacet
facet normal -0.965926 0.258820 0.000000
outer loop
vertex -0.149773 0.051506 0.047456
vertex -0.155204 0.031234 0.002087
vertex -0.150683 0.048107 0.048859
endloop
endfacet
facet normal -0.965925 0.258822 0.000000
outer loop
vertex -0.150683 0.048107 0.048859
vertex -0.155204 0.031234 0.002087
vertex -0.156071 0.028001 0.003861
endloop
endfacet
facet normal -0.965928 0.258809 0.000000
outer loop
vertex -0.150683 0.048107 0.048859
vertex -0.156071 0.028001 0.003861
vertex -0.156858 0.025064 0.006120
endloop
endfacet
facet normal -0.965925 0.258822 0.000000
outer loop
vertex -0.156858 0.025064 0.006120
vertex -0.157547 0.022490 0.008813
vertex -0.150683 0.048107 0.048859
endloop
endfacet
facet normal -0.965927 0.258816 0.000000
outer loop
vertex -0.150683 0.048107 0.048859
vertex -0.157547 0.022490 0.008813
vertex -0.158124 0.020339 0.011878
endloop
endfacet
facet normal -0.965926 0.258818 0.000001
outer loop
vertex -0.150683 0.048107 0.048859
vertex -0.158124 0.020339 0.011878
vertex -0.158574 0.018660 0.015243
endloop
endfacet
facet normal -0.965924 0.258825 -0.000000
outer loop
vertex -0.158574 0.018660 0.015243
vertex -0.158887 0.017492 0.018833
vertex -0.150683 0.048107 0.048859
endloop
endfacet
facet normal -0.965926 0.258818 -0.000003
outer loop
vertex -0.150683 0.048107 0.048859
vertex -0.158887 0.017492 0.018833
vertex -0.159056 0.016860 0.022564
endloop
endfacet
facet normal -0.965925 0.258822 0.000003
outer loop
vertex -0.150683 0.048107 0.048859
vertex -0.159056 0.016860 0.022564
vertex -0.159077 0.016781 0.026352
endloop
endfacet
facet normal -0.965926 0.258817 -0.000002
outer loop
vertex -0.159077 0.016781 0.026352
vertex -0.158950 0.017255 0.030108
vertex -0.150683 0.048107 0.048859
endloop
endfacet
facet normal -0.965925 0.258822 -0.000001
outer loop
vertex -0.150683 0.048107 0.048859
vertex -0.158950 0.017255 0.030108
vertex -0.151639 0.044542 0.049713
endloop
endfacet
facet normal -0.965926 0.258819 -0.000000
outer loop
vertex -0.151639 0.044542 0.049713
vertex -0.158950 0.017255 0.030108
vertex -0.158678 0.018271 0.033747
endloop
endfacet
facet normal -0.965927 0.258815 0.000002
outer loop
vertex -0.151639 0.044542 0.049713
vertex -0.158678 0.018271 0.033747
vertex -0.158266 0.019808 0.037185
endloop
endfacet
facet normal -0.965926 0.258820 0.000000
outer loop
vertex -0.158266 0.019808 0.037185
vertex -0.157725 0.021828 0.040343
vertex -0.151639 0.044542 0.049713
endloop
endfacet
facet normal -0.965926 0.258820 -0.000005
outer loop
vertex -0.151639 0.044542 0.049713
vertex -0.157725 0.021828 0.040343
vertex -0.157066 0.024286 0.043149
endloop
endfacet
facet normal -0.965928 0.258809 0.000009
outer loop
vertex -0.151639 0.044542 0.049713
vertex -0.157066 0.024286 0.043149
vertex -0.156305 0.027125 0.045539
endloop
endfacet
facet normal -0.965924 0.258826 -0.000004
outer loop
vertex -0.156305 0.027125 0.045539
vertex -0.155460 0.030281 0.047456
vertex -0.151639 0.044542 0.049713
endloop
endfacet
facet normal -0.965926 0.258818 0.000003
outer loop
vertex -0.151639 0.044542 0.049713
vertex -0.155460 0.030281 0.047456
vertex -0.154549 0.033680 0.048859
endloop
endfacet
facet normal -0.965925 0.258821 0.000009
outer loop
vertex -0.151639 0.044542 0.049713
vertex -0.154549 0.033680 0.048859
vertex -0.153594 0.037245 0.049713
endloop
endfacet
facet normal -0.965926 0.258818 -0.000003
outer loop
vertex -0.153594 0.037245 0.049713
vertex -0.152616 0.040893 0.050000
vertex -0.151639 0.044542 0.049713
endloop
endfacet
facet normal 0.965926 -0.258819 0.000000
outer loop
vertex 0.150028 -0.050553 0.000000
vertex 0.155204 -0.031234 0.000000
vertex 0.150028 -0.050553 0.002087
endloop
endfacet
facet normal 0.965926 -0.258819 0.000000
outer loop
vertex 0.150028 -0.050553 0.002087
vertex 0.155204 -0.031234 0.000000
vertex 0.155204 -0.031234 0.002087
endloop
endfacet
facet normal 0.965926 -0.258820 0.000002
outer loop
vertex 0.150028 -0.050553 0.002087
vertex 0.155204 -0.031234 0.002087
vertex 0.156071 -0.028001 0.003861
endloop
endfacet
facet normal 0.965925 -0.258821 0.000002
outer loop
vertex 0.156071 -0.028001 0.003861
vertex 0.156858 -0.025064 0.006120
vertex 0.150028 -0.050553 0.002087
endloop
endfacet
facet normal 0.965926 -0.258817 0.000001
outer loop
vertex 0.150028 -0.050553 0.002087
vertex 0.156858 -0.025064 0.006120
vertex 0.157547 -0.022490 0.008813
endloop
endfacet
facet normal 0.965926 -0.258818 0.000001
outer loop
vertex 0.150028 -0.050553 0.002087
vertex 0.157547 -0.022490 0.008813
vertex 0.158124 -0.020339 0.011878
endloop
endfacet
facet normal 0.965925 -0.258824 0.000001
outer loop
vertex 0.158124 -0.020339 0.011878
vertex 0.158574 -0.018660 0.015243
vertex 0.150028 -0.050553 0.002087
endloop
endfacet
facet normal 0.965926 -0.258818 -0.000000
outer loop
vertex 0.150028 -0.050553 0.002087
vertex 0.158574 -0.018660 0.015243
vertex 0.158887 -0.017492 0.018833
endloop
endfacet
facet normal 0.965926 -0.258817 -0.000003
outer loop
vertex 0.150028 -0.050553 0.002087
vertex 0.158887 -0.017492 0.018833
vertex 0.159056 -0.016860 0.022564
endloop
endfacet
facet normal 0.965925 -0.258820 0.000003
outer loop
vertex 0.159056 -0.016860 0.022564
vertex 0.159077 -0.016781 0.026352
vertex 0.150028 -0.050553 0.002087
endloop
endfacet
facet normal 0.965925 -0.258821 -0.000002
outer loop
vertex 0.150028 -0.050553 0.002087
vertex 0.159077 -0.016781 0.026352
vertex 0.158950 -0.017255 0.030108
endloop
endfacet
facet normal 0.965926 -0.258818 0.000000
outer loop
vertex 0.150028 -0.050553 0.002087
vertex 0.158950 -0.017255 0.030108
vertex 0.158678 -0.018271 0.033747
endloop
endfacet
facet normal 0.965925 -0.258821 0.000001
outer loop
vertex 0.158678 -0.018271 0.033747
vertex 0.158266 -0.019808 0.037185
vertex 0.150028 -0.050553 0.002087
endloop
endfacet
facet normal 0.965928 -0.258812 -0.000000
outer loop
vertex 0.150028 -0.050553 0.002087
vertex 0.158266 -0.019808 0.037185
vertex 0.157725 -0.021828 0.040343
endloop
endfacet
facet normal 0.965925 -0.258823 -0.000001
outer loop
vertex 0.150028 -0.050553 0.002087
vertex 0.157725 -0.021828 0.040343
vertex 0.157066 -0.024286 0.043149
endloop
endfacet
facet normal 0.965924 -0.258824 0.000002
outer loop
vertex 0.157066 -0.024286 0.043149
vertex 0.156305 -0.027125 0.045539
vertex 0.150028 -0.050553 0.002087
endloop
endfacet
facet normal 0.965927 -0.258816 -0.000001
outer loop
vertex 0.150028 -0.050553 0.002087
vertex 0.156305 -0.027125 0.045539
vertex 0.155460 -0.030281 0.047456
endloop
endfacet
facet normal 0.965925 -0.258823 -0.000000
outer loop
vertex 0.150028 -0.050553 0.002087
vertex 0.155460 -0.030281 0.047456
vertex 0.154549 -0.033680 0.048859
endloop
endfacet
facet normal 0.965926 -0.258817 0.000000
outer loop
vertex 0.153594 -0.037245 0.049713
vertex 0.146282 -0.064532 0.030108
vertex 0.154549 -0.033680 0.048859
endloop
endfacet
facet normal 0.965926 -0.258819 0.000002
outer loop
vertex 0.154549 -0.033680 0.048859
vertex 0.146282 -0.064532 0.030108
vertex 0.146155 -0.065006 0.026352
endloop
endfacet
facet normal 0.965925 -0.258821 -0.000003
outer loop
vertex 0.154549 -0.033680 0.048859
vertex 0.146155 -0.065006 0.026352
vertex 0.146177 -0.064927 0.022564
endloop
endfacet
facet normal 0.965926 -0.258818 -0.000007
outer loop
vertex 0.152616 -0.040893 0.050000
vertex 0.151639 -0.044542 0.049713
vertex 0.153594 -0.037245 0.049713
endloop
endfacet
facet normal 0.965925 -0.258821 -0.000010
outer loop
vertex 0.153594 -0.037245 0.049713
vertex 0.151639 -0.044542 0.049713
vertex 0.150683 -0.048107 0.048859
endloop
endfacet
facet normal 0.965926 -0.258820 -0.000002
outer loop
vertex 0.153594 -0.037245 0.049713
vertex 0.150683 -0.048107 0.048859
vertex 0.149773 -0.051506 0.047456
endloop
endfacet
facet normal 0.965924 -0.258826 0.000003
outer loop
vertex 0.149773 -0.051506 0.047456
vertex 0.148927 -0.054661 0.045539
vertex 0.153594 -0.037245 0.049713
endloop
endfacet
facet normal 0.965929 -0.258808 -0.000009
outer loop
vertex 0.153594 -0.037245 0.049713
vertex 0.148927 -0.054661 0.045539
vertex 0.148166 -0.057501 0.043149
endloop
endfacet
facet normal 0.965924 -0.258824 0.000005
outer loop
vertex 0.153594 -0.037245 0.049713
vertex 0.148166 -0.057501 0.043149
vertex 0.147508 -0.059959 0.040343
endloop
endfacet
facet normal 0.965926 -0.258820 0.000000
outer loop
vertex 0.147508 -0.059959 0.040343
vertex 0.146966 -0.061979 0.037185
vertex 0.153594 -0.037245 0.049713
endloop
endfacet
facet normal 0.965926 -0.258818 -0.000002
outer loop
vertex 0.153594 -0.037245 0.049713
vertex 0.146966 -0.061979 0.037185
vertex 0.146555 -0.063515 0.033747
endloop
endfacet
facet normal 0.965926 -0.258818 0.000000
outer loop
vertex 0.153594 -0.037245 0.049713
vertex 0.146555 -0.063515 0.033747
vertex 0.146282 -0.064532 0.030108
endloop
endfacet
facet normal 0.965925 -0.258822 0.000003
outer loop
vertex 0.146177 -0.064927 0.022564
vertex 0.146346 -0.064295 0.018833
vertex 0.154549 -0.033680 0.048859
endloop
endfacet
facet normal 0.965927 -0.258814 -0.000000
outer loop
vertex 0.154549 -0.033680 0.048859
vertex 0.146346 -0.064295 0.018833
vertex 0.146659 -0.063127 0.015243
endloop
endfacet
facet normal 0.965925 -0.258821 -0.000000
outer loop
vertex 0.154549 -0.033680 0.048859
vertex 0.146659 -0.063127 0.015243
vertex 0.147109 -0.061447 0.011878
endloop
endfacet
facet normal 0.965926 -0.258818 0.000000
outer loop
vertex 0.147109 -0.061447 0.011878
vertex 0.147685 -0.059296 0.008813
vertex 0.154549 -0.033680 0.048859
endloop
endfacet
facet normal 0.965925 -0.258822 -0.000000
outer loop
vertex 0.154549 -0.033680 0.048859
vertex 0.147685 -0.059296 0.008813
vertex 0.148375 -0.056723 0.006120
endloop
endfacet
facet normal 0.965927 -0.258815 -0.000001
outer loop
vertex 0.154549 -0.033680 0.048859
vertex 0.148375 -0.056723 0.006120
vertex 0.149162 -0.053786 0.003861
endloop
endfacet
facet normal 0.965926 -0.258818 -0.000000
outer loop
vertex 0.149162 -0.053786 0.003861
vertex 0.150028 -0.050553 0.002087
vertex 0.154549 -0.033680 0.048859
endloop
endfacet
solid cylinder
