solid cylinder
facet normal 0.000000 0.000000 -1.000000
outer loop
vertex 0.109221 -0.114607 0.000000
vertex 0.093900 -0.127463 0.000000
vertex -0.093900 0.127463 0.000000
endloop
endfacet
facet normal 0.000000 0.000000 -1.000000
outer loop
vertex -0.093900 0.127463 0.000000
vertex 0.093900 -0.127463 0.000000
vertex -0.109221 0.114607 0.000000
endloop
endfacet
facet normal 0.766044 0.642788 0.000000
outer loop
vertex 0.109221 -0.114607 0.002087
vertex 0.109221 -0.114607 0.000000
vertex -0.093900 0.127463 0.002087
endloop
endfacet
facet normal 0.766044 0.642788 0.000000
outer loop
vertex -0.093900 0.127463 0.002087
vertex 0.109221 -0.114607 0.000000
vertex -0.093900 0.127463 0.000000
endloop
endfacet
facet normal -0.358833 -0.300887 -0.883575
outer loop
vertex 0.091336 -0.129614 0.003861
vertex 0.057412 -0.089328 0.003919
vertex 0.093900 -0.127463 0.002087
endloop
endfacet
facet normal -0.360195 -0.302240 -0.882559
outer loop
vertex 0.093900 -0.127463 0.002087
vertex 0.057412 -0.089328 0.003919
vertex 0.023559 -0.048983 0.003919
endloop
endfacet
facet normal -0.360196 -0.302240 -0.882559
outer loop
vertex 0.093900 -0.127463 0.002087
vertex 0.023559 -0.048983 0.003919
vertex -0.010295 -0.008638 0.003919
endloop
endfacet
facet normal -0.460865 -0.386712 -0.798785
outer loop
vertex -0.010295 -0.008638 0.003919
vertex 0.023559 -0.048983 0.003919
vertex -0.012679 -0.010639 0.006263
endloop
endfacet
facet normal -0.460865 -0.386712 -0.798785
outer loop
vertex -0.010295 -0.008638 0.003919
vertex -0.012679 -0.010639 0.006263
vertex -0.046532 0.029706 0.006263
endloop
endfacet
facet normal -0.550342 -0.461791 -0.695610
outer loop
vertex -0.046532 0.029706 0.006263
vertex -0.012679 -0.010639 0.006263
vertex -0.048608 0.027964 0.009062
endloop
endfacet
facet normal -0.550341 -0.461791 -0.695610
outer loop
vertex -0.046532 0.029706 0.006263
vertex -0.048608 0.027964 0.009062
vertex -0.082462 0.068309 0.009062
endloop
endfacet
facet normal -0.626451 -0.525655 -0.575540
outer loop
vertex -0.082462 0.068309 0.009062
vertex -0.048608 0.027964 0.009062
vertex -0.084180 0.066868 0.012248
endloop
endfacet
facet normal -0.626085 -0.526092 -0.575539
outer loop
vertex -0.082462 0.068309 0.009062
vertex -0.084180 0.066868 0.012248
vertex -0.117861 0.107357 0.011878
endloop
endfacet
facet normal -0.680974 -0.570684 -0.458904
outer loop
vertex -0.117861 0.107357 0.011878
vertex -0.084180 0.066868 0.012248
vertex -0.119193 0.106240 0.015243
endloop
endfacet
facet normal -0.686901 -0.577280 -0.441491
outer loop
vertex -0.119193 0.106240 0.015243
vertex -0.084180 0.066868 0.012248
vertex -0.085497 0.065762 0.015744
endloop
endfacet
facet normal -0.726350 -0.608607 -0.319395
outer loop
vertex -0.119193 0.106240 0.015243
vertex -0.085497 0.065762 0.015744
vertex -0.120120 0.105462 0.018833
endloop
endfacet
facet normal -0.731030 -0.614454 -0.296717
outer loop
vertex -0.120120 0.105462 0.018833
vertex -0.085497 0.065762 0.015744
vertex -0.086383 0.065019 0.019465
endloop
endfacet
facet normal -0.755052 -0.632553 -0.172551
outer loop
vertex -0.120120 0.105462 0.018833
vertex -0.086383 0.065019 0.019465
vertex -0.120620 0.105042 0.022564
endloop
endfacet
facet normal -0.757396 -0.636711 -0.144741
outer loop
vertex -0.120620 0.105042 0.022564
vertex -0.086383 0.065019 0.019465
vertex -0.086815 0.064657 0.023320
endloop
endfacet
facet normal -0.766424 -0.641966 -0.021746
outer loop
vertex -0.120620 0.105042 0.022564
vertex -0.086815 0.064657 0.023320
vertex -0.120684 0.104989 0.026352
endloop
endfacet
facet normal -0.765358 -0.643514 0.010754
outer loop
vertex -0.120684 0.104989 0.026352
vertex -0.086815 0.064657 0.023320
vertex -0.086783 0.064684 0.027216
endloop
endfacet
facet normal -0.760206 -0.636633 0.129558
outer loop
vertex -0.120684 0.104989 0.026352
vertex -0.086783 0.064684 0.027216
vertex -0.120308 0.105304 0.030108
endloop
endfacet
facet normal -0.754722 -0.634700 0.165985
outer loop
vertex -0.120308 0.105304 0.030108
vertex -0.086783 0.064684 0.027216
vertex -0.086287 0.065099 0.031058
endloop
endfacet
facet normal -0.736543 -0.616670 0.277890
outer loop
vertex -0.120308 0.105304 0.030108
vertex -0.086287 0.065099 0.031058
vertex -0.119501 0.105981 0.033747
endloop
endfacet
facet normal -0.725743 -0.610483 0.317185
outer loop
vertex -0.119501 0.105981 0.033747
vertex -0.086287 0.065099 0.031058
vertex -0.085341 0.065894 0.034753
endloop
endfacet
facet normal -0.695978 -0.582542 0.419832
outer loop
vertex -0.119501 0.105981 0.033747
vertex -0.085341 0.065894 0.034753
vertex -0.118283 0.107003 0.037185
endloop
endfacet
facet normal -0.679125 -0.571453 0.460686
outer loop
vertex -0.118283 0.107003 0.037185
vertex -0.085341 0.065894 0.034753
vertex -0.083966 0.067047 0.038211
endloop
endfacet
facet normal -0.639443 -0.535020 0.552147
outer loop
vertex -0.118283 0.107003 0.037185
vertex -0.083966 0.067047 0.038211
vertex -0.116681 0.108348 0.040343
endloop
endfacet
facet normal -0.616000 -0.518561 0.592991
outer loop
vertex -0.116681 0.108348 0.040343
vertex -0.083966 0.067047 0.038211
vertex -0.082196 0.068532 0.041348
endloop
endfacet
facet normal -0.568240 -0.475205 0.671777
outer loop
vertex -0.116681 0.108348 0.040343
vertex -0.082196 0.068532 0.041348
vertex -0.114731 0.109983 0.043149
endloop
endfacet
facet normal -0.537897 -0.453088 0.710899
outer loop
vertex -0.114731 0.109983 0.043149
vertex -0.082196 0.068532 0.041348
vertex -0.080074 0.070313 0.044088
endloop
endfacet
facet normal -0.484002 -0.404463 0.775985
outer loop
vertex -0.114731 0.109983 0.043149
vertex -0.080074 0.070313 0.044088
vertex -0.112479 0.111873 0.045539
endloop
endfacet
facet normal -0.446717 -0.376632 0.811537
outer loop
vertex -0.112479 0.111873 0.045539
vertex -0.080074 0.070313 0.044088
vertex -0.077652 0.072345 0.046365
endloop
endfacet
facet normal -0.388663 -0.324417 0.862378
outer loop
vertex -0.112479 0.111873 0.045539
vertex -0.077652 0.072345 0.046365
vertex -0.109977 0.113973 0.047456
endloop
endfacet
facet normal -0.344670 -0.291045 0.892466
outer loop
vertex -0.109977 0.113973 0.047456
vertex -0.077652 0.072345 0.046365
vertex -0.074988 0.074580 0.048123
endloop
endfacet
facet normal -0.284414 -0.236908 0.928969
outer loop
vertex -0.109977 0.113973 0.047456
vertex -0.074988 0.074580 0.048123
vertex -0.107281 0.116235 0.048859
endloop
endfacet
facet normal -0.234237 -0.198409 0.951718
outer loop
vertex -0.107281 0.116235 0.048859
vertex -0.074988 0.074580 0.048123
vertex -0.072148 0.076964 0.049319
endloop
endfacet
facet normal -0.173651 -0.143942 0.974231
outer loop
vertex -0.107281 0.116235 0.048859
vertex -0.072148 0.076964 0.049319
vertex -0.104454 0.118607 0.049713
endloop
endfacet
facet normal -0.118096 -0.100973 0.987855
outer loop
vertex -0.104454 0.118607 0.049713
vertex -0.072148 0.076964 0.049319
vertex -0.069199 0.079438 0.049924
endloop
endfacet
facet normal -0.058913 -0.047656 0.997125
outer loop
vertex -0.104454 0.118607 0.049713
vertex -0.069199 0.079438 0.049924
vertex -0.101560 0.121035 0.050000
endloop
endfacet
facet normal 0.000926 -0.001106 0.999999
outer loop
vertex -0.101560 0.121035 0.050000
vertex -0.069199 0.079438 0.049924
vertex -0.066215 0.081942 0.049924
endloop
endfacet
facet normal 0.057163 0.049744 0.997125
outer loop
vertex -0.101560 0.121035 0.050000
vertex -0.066215 0.081942 0.049924
vertex -0.098667 0.123463 0.049713
endloop
endfacet
facet normal 0.119947 0.098769 0.987855
outer loop
vertex -0.098667 0.123463 0.049713
vertex -0.066215 0.081942 0.049924
vertex -0.063266 0.084416 0.049319
endloop
endfacet
facet normal 0.171912 0.146018 0.974231
outer loop
vertex -0.098667 0.123463 0.049713
vertex -0.063266 0.084416 0.049319
vertex -0.095840 0.125835 0.048859
endloop
endfacet
facet normal 0.236069 0.196224 0.951718
outer loop
vertex -0.095840 0.125835 0.048859
vertex -0.063266 0.084416 0.049319
vertex -0.060426 0.086800 0.048123
endloop
endfacet
facet normal 0.282698 0.238956 0.928968
outer loop
vertex -0.095840 0.125835 0.048859
vertex -0.060426 0.086800 0.048123
vertex -0.093144 0.128097 0.047456
endloop
endfacet
facet normal 0.346474 0.288895 0.892466
outer loop
vertex -0.093144 0.128097 0.047456
vertex -0.060426 0.086800 0.048123
vertex -0.057762 0.089035 0.046365
endloop
endfacet
facet normal 0.386980 0.326423 0.862377
outer loop
vertex -0.093144 0.128097 0.047456
vertex -0.057762 0.089035 0.046365
vertex -0.090642 0.130197 0.045539
endloop
endfacet
facet normal 0.448480 0.374529 0.811538
outer loop
vertex -0.090642 0.130197 0.045539
vertex -0.057762 0.089035 0.046365
vertex -0.055340 0.091067 0.044088
endloop
endfacet
facet normal 0.482364 0.406415 0.775984
outer loop
vertex -0.090642 0.130197 0.045539
vertex -0.055340 0.091067 0.044088
vertex -0.088390 0.132087 0.043149
endloop
endfacet
facet normal 0.539611 0.451048 0.710898
outer loop
vertex -0.088390 0.132087 0.043149
vertex -0.055340 0.091067 0.044088
vertex -0.053218 0.092848 0.041348
endloop
endfacet
facet normal 0.566659 0.477087 0.671778
outer loop
vertex -0.088390 0.132087 0.043149
vertex -0.053218 0.092848 0.041348
vertex -0.086440 0.133722 0.040343
endloop
endfacet
facet normal 0.617648 0.516594 0.592993
outer loop
vertex -0.086440 0.133722 0.040343
vertex -0.053218 0.092848 0.041348
vertex -0.051448 0.094333 0.038211
endloop
endfacet
facet normal 0.637932 0.536824 0.552144
outer loop
vertex -0.086440 0.133722 0.040343
vertex -0.051448 0.094333 0.038211
vertex -0.084838 0.135067 0.037185
endloop
endfacet
facet normal 0.680700 0.569576 0.460685
outer loop
vertex -0.084838 0.135067 0.037185
vertex -0.051448 0.094333 0.038211
vertex -0.050073 0.095486 0.034753
endloop
endfacet
facet normal 0.694547 0.584247 0.419833
outer loop
vertex -0.084838 0.135067 0.037185
vertex -0.050073 0.095486 0.034753
vertex -0.083620 0.136089 0.033747
endloop
endfacet
facet normal 0.727232 0.608709 0.317187
outer loop
vertex -0.083620 0.136089 0.033747
vertex -0.050073 0.095486 0.034753
vertex -0.049127 0.096281 0.031058
endloop
endfacet
facet normal 0.735203 0.618268 0.277886
outer loop
vertex -0.083620 0.136089 0.033747
vertex -0.049127 0.096281 0.031058
vertex -0.082813 0.136766 0.030108
endloop
endfacet
facet normal 0.756112 0.633041 0.165990
outer loop
vertex -0.082813 0.136766 0.030108
vertex -0.049127 0.096281 0.031058
vertex -0.048631 0.096696 0.027216
endloop
endfacet
facet normal 0.758970 0.638107 0.129553
outer loop
vertex -0.082813 0.136766 0.030108
vertex -0.048631 0.096696 0.027216
vertex -0.082437 0.137081 0.026352
endloop
endfacet
facet normal 0.766641 0.641986 0.010757
outer loop
vertex -0.082437 0.137081 0.026352
vertex -0.048631 0.096696 0.027216
vertex -0.048599 0.096723 0.023320
endloop
endfacet
facet normal 0.765302 0.643304 -0.021749
outer loop
vertex -0.082437 0.137081 0.026352
vertex -0.048599 0.096723 0.023320
vertex -0.082500 0.137028 0.022564
endloop
endfacet
facet normal 0.758558 0.635326 -0.144743
outer loop
vertex -0.082500 0.137028 0.022564
vertex -0.048599 0.096723 0.023320
vertex -0.049031 0.096361 0.019465
endloop
endfacet
facet normal 0.754056 0.633739 -0.172551
outer loop
vertex -0.082500 0.137028 0.022564
vertex -0.049031 0.096361 0.019465
vertex -0.083001 0.136608 0.018833
endloop
endfacet
facet normal 0.732060 0.613225 -0.296720
outer loop
vertex -0.083001 0.136608 0.018833
vertex -0.049031 0.096361 0.019465
vertex -0.049917 0.095618 0.015744
endloop
endfacet
facet normal 0.725491 0.609631 -0.319395
outer loop
vertex -0.083001 0.136608 0.018833
vertex -0.049917 0.095618 0.015744
vertex -0.083928 0.135830 0.015243
endloop
endfacet
facet normal 0.687789 0.576223 -0.441490
outer loop
vertex -0.083928 0.135830 0.015243
vertex -0.049917 0.095618 0.015744
vertex -0.051234 0.094512 0.012248
endloop
endfacet
facet normal 0.680265 0.571531 -0.458903
outer loop
vertex -0.083928 0.135830 0.015243
vertex -0.051234 0.094512 0.012248
vertex -0.085260 0.134713 0.011878
endloop
endfacet
facet normal 0.626817 0.525218 -0.575540
outer loop
vertex -0.085260 0.134713 0.011878
vertex -0.051234 0.094512 0.012248
vertex -0.052952 0.093071 0.009062
endloop
endfacet
facet normal 0.619418 0.520311 -0.587876
outer loop
vertex -0.085260 0.134713 0.011878
vertex -0.052952 0.093071 0.009062
vertex -0.086966 0.133282 0.008813
endloop
endfacet
facet normal 0.550625 0.461453 -0.695610
outer loop
vertex -0.086966 0.133282 0.008813
vertex -0.052952 0.093071 0.009062
vertex -0.055028 0.091329 0.006263
endloop
endfacet
facet normal 0.544348 0.457145 -0.703352
outer loop
vertex -0.086966 0.133282 0.008813
vertex -0.055028 0.091329 0.006263
vertex -0.089007 0.131569 0.006120
endloop
endfacet
facet normal 0.461060 0.386480 -0.798785
outer loop
vertex -0.089007 0.131569 0.006120
vertex -0.055028 0.091329 0.006263
vertex -0.057412 0.089328 0.003919
endloop
endfacet
facet normal 0.456780 0.383482 -0.802679
outer loop
vertex -0.089007 0.131569 0.006120
vertex -0.057412 0.089328 0.003919
vertex -0.091336 0.129614 0.003861
endloop
endfacet
facet normal 0.358831 0.300886 -0.883577
outer loop
vertex -0.091336 0.129614 0.003861
vertex -0.057412 0.089328 0.003919
vertex -0.093900 0.127463 0.002087
endloop
endfacet
facet normal 0.360194 0.302239 -0.882560
outer loop
vertex -0.093900 0.127463 0.002087
vertex -0.057412 0.089328 0.003919
vertex -0.023559 0.048983 0.003919
endloop
endfacet
facet normal 0.360196 0.302241 -0.882558
outer loop
vertex -0.093900 0.127463 0.002087
vertex -0.023559 0.048983 0.003919
vertex 0.010295 0.008638 0.003919
endloop
endfacet
facet normal 0.460865 0.386712 -0.798785
outer loop
vertex 0.010295 0.008638 0.003919
vertex -0.023559 0.048983 0.003919
vertex 0.012679 0.010639 0.006263
endloop
endfacet
facet normal 0.460865 0.386712 -0.798785
outer loop
vertex 0.010295 0.008638 0.003919
vertex 0.012679 0.010639 0.006263
vertex 0.046532 -0.029706 0.006263
endloop
endfacet
facet normal 0.550341 0.461791 -0.695610
outer loop
vertex 0.046532 -0.029706 0.006263
vertex 0.012679 0.010639 0.006263
vertex 0.048608 -0.027964 0.009062
endloop
endfacet
facet normal 0.550341 0.461791 -0.695610
outer loop
vertex 0.046532 -0.029706 0.006263
vertex 0.048608 -0.027964 0.009062
vertex 0.082462 -0.068309 0.009062
endloop
endfacet
facet normal 0.626451 0.525655 -0.575539
outer loop
vertex 0.082462 -0.068309 0.009062
vertex 0.048608 -0.027964 0.009062
vertex 0.084180 -0.066868 0.012248
endloop
endfacet
facet normal 0.626086 0.526092 -0.575538
outer loop
vertex 0.082462 -0.068309 0.009062
vertex 0.084180 -0.066868 0.012248
vertex 0.117861 -0.107357 0.011878
endloop
endfacet
facet normal 0.680973 0.570684 -0.458907
outer loop
vertex 0.117861 -0.107357 0.011878
vertex 0.084180 -0.066868 0.012248
vertex 0.119193 -0.106240 0.015243
endloop
endfacet
facet normal 0.686902 0.577280 -0.441490
outer loop
vertex 0.119193 -0.106240 0.015243
vertex 0.084180 -0.066868 0.012248
vertex 0.085497 -0.065762 0.015744
endloop
endfacet
facet normal 0.726350 0.608607 -0.319395
outer loop
vertex 0.119193 -0.106240 0.015243
vertex 0.085497 -0.065762 0.015744
vertex 0.120120 -0.105462 0.018833
endloop
endfacet
facet normal 0.731030 0.614454 -0.296717
outer loop
vertex 0.120120 -0.105462 0.018833
vertex 0.085497 -0.065762 0.015744
vertex 0.086383 -0.065019 0.019465
endloop
endfacet
facet normal 0.755052 0.632552 -0.172551
outer loop
vertex 0.120120 -0.105462 0.018833
vertex 0.086383 -0.065019 0.019465
vertex 0.120620 -0.105042 0.022564
endloop
endfacet
facet normal 0.757396 0.636711 -0.144741
outer loop
vertex 0.120620 -0.105042 0.022564
vertex 0.086383 -0.065019 0.019465
vertex 0.086815 -0.064657 0.023320
endloop
endfacet
facet normal 0.766424 0.641966 -0.021746
outer loop
vertex 0.120620 -0.105042 0.022564
vertex 0.086815 -0.064657 0.023320
vertex 0.120684 -0.104989 0.026352
endloop
endfacet
facet normal 0.765358 0.643514 0.010752
outer loop
vertex 0.120684 -0.104989 0.026352
vertex 0.086815 -0.064657 0.023320
vertex 0.086783 -0.064684 0.027216
endloop
endfacet
facet normal 0.760206 0.636633 0.129560
outer loop
vertex 0.120684 -0.104989 0.026352
vertex 0.086783 -0.064684 0.027216
vertex 0.120308 -0.105304 0.030108
endloop
endfacet
facet normal 0.754722 0.634700 0.165983
outer loop
vertex 0.120308 -0.105304 0.030108
vertex 0.086783 -0.064684 0.027216
vertex 0.086287 -0.065099 0.031058
endloop
endfacet
facet normal 0.736543 0.616670 0.277890
outer loop
vertex 0.120308 -0.105304 0.030108
vertex 0.086287 -0.065099 0.031058
vertex 0.119501 -0.105981 0.033747
endloop
endfacet
facet normal 0.725743 0.610483 0.317186
outer loop
vertex 0.119501 -0.105981 0.033747
vertex 0.086287 -0.065099 0.031058
vertex 0.085341 -0.065894 0.034753
endloop
endfacet
facet normal 0.695978 0.582542 0.419834
outer loop
vertex 0.119501 -0.105981 0.033747
vertex 0.085341 -0.065894 0.034753
vertex 0.118283 -0.107003 0.037185
endloop
endfacet
facet normal 0.679125 0.571453 0.460684
outer loop
vertex 0.118283 -0.107003 0.037185
vertex 0.085341 -0.065894 0.034753
vertex 0.083966 -0.067047 0.038211
endloop
endfacet
facet normal 0.639443 0.535020 0.552147
outer loop
vertex 0.118283 -0.107003 0.037185
vertex 0.083966 -0.067047 0.038211
vertex 0.116681 -0.108348 0.040343
endloop
endfacet
facet normal 0.616000 0.518561 0.592991
outer loop
vertex 0.116681 -0.108348 0.040343
vertex 0.083966 -0.067047 0.038211
vertex 0.082196 -0.068532 0.041348
endloop
endfacet
facet normal 0.568239 0.475204 0.671778
outer loop
vertex 0.116681 -0.108348 0.040343
vertex 0.082196 -0.068532 0.041348
vertex 0.114731 -0.109983 0.043149
endloop
endfacet
facet normal 0.537898 0.453088 0.710899
outer loop
vertex 0.114731 -0.109983 0.043149
vertex 0.082196 -0.068532 0.041348
vertex 0.080074 -0.070313 0.044088
endloop
endfacet
facet normal 0.484001 0.404462 0.775985
outer loop
vertex 0.114731 -0.109983 0.043149
vertex 0.080074 -0.070313 0.044088
vertex 0.112479 -0.111873 0.045539
endloop
endfacet
facet normal 0.446716 0.376632 0.811537
outer loop
vertex 0.112479 -0.111873 0.045539
vertex 0.080074 -0.070313 0.044088
vertex 0.077652 -0.072345 0.046365
endloop
endfacet
facet normal 0.388663 0.324418 0.862377
outer loop
vertex 0.112479 -0.111873 0.045539
vertex 0.077652 -0.072345 0.046365
vertex 0.109977 -0.113973 0.047456
endloop
endfacet
facet normal 0.344670 0.291045 0.892466
outer loop
vertex 0.109977 -0.113973 0.047456
vertex 0.077652 -0.072345 0.046365
vertex 0.074988 -0.074580 0.048123
endloop
endfacet
facet normal 0.284412 0.236907 0.928970
outer loop
vertex 0.109977 -0.113973 0.047456
vertex 0.074988 -0.074580 0.048123
vertex 0.107281 -0.116235 0.048859
endloop
endfacet
facet normal 0.234240 0.198409 0.951717
outer loop
vertex 0.107281 -0.116235 0.048859
vertex 0.074988 -0.074580 0.048123
vertex 0.072148 -0.076964 0.049319
endloop
endfacet
facet normal 0.173650 0.143942 0.974231
outer loop
vertex 0.107281 -0.116235 0.048859
vertex 0.072148 -0.076964 0.049319
vertex 0.104454 -0.118607 0.049713
endloop
endfacet
facet normal 0.118096 0.100973 0.987855
outer loop
vertex 0.104454 -0.118607 0.049713
vertex 0.072148 -0.076964 0.049319
vertex 0.069199 -0.079438 0.049924
endloop
endfacet
facet normal 0.058913 0.047656 0.997125
outer loop
vertex 0.104454 -0.118607 0.049713
vertex 0.069199 -0.079438 0.049924
vertex 0.101560 -0.121035 0.050000
endloop
endfacet
facet normal -0.000926 0.001106 0.999999
outer loop
vertex 0.101560 -0.121035 0.050000
vertex 0.069199 -0.079438 0.049924
vertex 0.066215 -0.081942 0.049924
endloop
endfacet
facet normal -0.057163 -0.049744 0.997125
outer loop
vertex 0.101560 -0.121035 0.050000
vertex 0.066215 -0.081942 0.049924
vertex 0.098667 -0.123463 0.049713
endloop
endfacet
facet normal -0.119947 -0.098769 0.987855
outer loop
vertex 0.098667 -0.123463 0.049713
vertex 0.066215 -0.081942 0.049924
vertex 0.063266 -0.084416 0.049319
endloop
endfacet
facet normal -0.171912 -0.146017 0.974231
outer loop
vertex 0.098667 -0.123463 0.049713
vertex 0.063266 -0.084416 0.049319
vertex 0.095840 -0.125835 0.048859
endloop
endfacet
facet normal -0.236067 -0.196225 0.951719
outer loop
vertex 0.095840 -0.125835 0.048859
vertex 0.063266 -0.084416 0.049319
vertex 0.060426 -0.086800 0.048123
endloop
endfacet
facet normal -0.282699 -0.238956 0.928968
outer loop
vertex 0.095840 -0.125835 0.048859
vertex 0.060426 -0.086800 0.048123
vertex 0.093144 -0.128097 0.047456
endloop
endfacet
facet normal -0.346474 -0.288895 0.892466
outer loop
vertex 0.093144 -0.128097 0.047456
vertex 0.060426 -0.086800 0.048123
vertex 0.057762 -0.089035 0.046365
endloop
endfacet
facet normal -0.386980 -0.326424 0.862377
outer loop
vertex 0.093144 -0.128097 0.047456
vertex 0.057762 -0.089035 0.046365
vertex 0.090642 -0.130197 0.045539
endloop
endfacet
facet normal -0.448480 -0.374530 0.811537
outer loop
vertex 0.090642 -0.130197 0.045539
vertex 0.057762 -0.089035 0.046365
vertex 0.055340 -0.091067 0.044088
endloop
endfacet
facet normal -0.482364 -0.406414 0.775985
outer loop
vertex 0.090642 -0.130197 0.045539
vertex 0.055340 -0.091067 0.044088
vertex 0.088390 -0.132087 0.043149
endloop
endfacet
facet normal -0.539611 -0.451048 0.710898
outer loop
vertex 0.088390 -0.132087 0.043149
vertex 0.055340 -0.091067 0.044088
vertex 0.053218 -0.092848 0.041348
endloop
endfacet
facet normal -0.566660 -0.477088 0.671777
outer loop
vertex 0.088390 -0.132087 0.043149
vertex 0.053218 -0.092848 0.041348
vertex 0.086440 -0.133722 0.040343
endloop
endfacet
facet normal -0.617649 -0.516594 0.592992
outer loop
vertex 0.086440 -0.133722 0.040343
vertex 0.053218 -0.092848 0.041348
vertex 0.051448 -0.094333 0.038211
endloop
endfacet
facet normal -0.637931 -0.536823 0.552146
outer loop
vertex 0.086440 -0.133722 0.040343
vertex 0.051448 -0.094333 0.038211
vertex 0.084838 -0.135067 0.037185
endloop
endfacet
facet normal -0.680700 -0.569577 0.460684
outer loop
vertex 0.084838 -0.135067 0.037185
vertex 0.051448 -0.094333 0.038211
vertex 0.050073 -0.095486 0.034753
endloop
endfacet
facet normal -0.694545 -0.584246 0.419837
outer loop
vertex 0.084838 -0.135067 0.037185
vertex 0.050073 -0.095486 0.034753
vertex 0.083620 -0.136089 0.033747
endloop
endfacet
facet normal -0.727232 -0.608709 0.317187
outer loop
vertex 0.083620 -0.136089 0.033747
vertex 0.050073 -0.095486 0.034753
vertex 0.049127 -0.096281 0.031058
endloop
endfacet
facet normal -0.735203 -0.618268 0.277886
outer loop
vertex 0.083620 -0.136089 0.033747
vertex 0.049127 -0.096281 0.031058
vertex 0.082813 -0.136766 0.030108
endloop
endfacet
facet normal -0.756113 -0.633042 0.165986
outer loop
vertex 0.082813 -0.136766 0.030108
vertex 0.049127 -0.096281 0.031058
vertex 0.048631 -0.096696 0.027216
endloop
endfacet
facet normal -0.758969 -0.638107 0.129558
outer loop
vertex 0.082813 -0.136766 0.030108
vertex 0.048631 -0.096696 0.027216
vertex 0.082437 -0.137081 0.026352
endloop
endfacet
facet normal -0.766641 -0.641985 0.010757
outer loop
vertex 0.082437 -0.137081 0.026352
vertex 0.048631 -0.096696 0.027216
vertex 0.048599 -0.096723 0.023320
endloop
endfacet
facet normal -0.765302 -0.643304 -0.021749
outer loop
vertex 0.082437 -0.137081 0.026352
vertex 0.048599 -0.096723 0.023320
vertex 0.082500 -0.137028 0.022564
endloop
endfacet
facet normal -0.758558 -0.635326 -0.144743
outer loop
vertex 0.082500 -0.137028 0.022564
vertex 0.048599 -0.096723 0.023320
vertex 0.049031 -0.096361 0.019465
endloop
endfacet
facet normal -0.754056 -0.633740 -0.172551
outer loop
vertex 0.082500 -0.137028 0.022564
vertex 0.049031 -0.096361 0.019465
vertex 0.083001 -0.136608 0.018833
endloop
endfacet
facet normal -0.732060 -0.613225 -0.296722
outer loop
vertex 0.083001 -0.136608 0.018833
vertex 0.049031 -0.096361 0.019465
vertex 0.049917 -0.095618 0.015744
endloop
endfacet
facet normal -0.725492 -0.609632 -0.319390
outer loop
vertex 0.083001 -0.136608 0.018833
vertex 0.049917 -0.095618 0.015744
vertex 0.083928 -0.135830 0.015243
endloop
endfacet
facet normal -0.687788 -0.576222 -0.441492
outer loop
vertex 0.083928 -0.135830 0.015243
vertex 0.049917 -0.095618 0.015744
vertex 0.051234 -0.094512 0.012248
endloop
endfacet
facet normal -0.680265 -0.571531 -0.458903
outer loop
vertex 0.083928 -0.135830 0.015243
vertex 0.051234 -0.094512 0.012248
vertex 0.085260 -0.134713 0.011878
endloop
endfacet
facet normal -0.626817 -0.525218 -0.575541
outer loop
vertex 0.085260 -0.134713 0.011878
vertex 0.051234 -0.094512 0.012248
vertex 0.052952 -0.093071 0.009062
endloop
endfacet
facet normal -0.619417 -0.520311 -0.587877
outer loop
vertex 0.085260 -0.134713 0.011878
vertex 0.052952 -0.093071 0.009062
vertex 0.086966 -0.133281 0.008813
endloop
endfacet
facet normal -0.550625 -0.461454 -0.695609
outer loop
vertex 0.086966 -0.133281 0.008813
vertex 0.052952 -0.093071 0.009062
vertex 0.055028 -0.091329 0.006263
endloop
endfacet
facet normal -0.544348 -0.457145 -0.703352
outer loop
vertex 0.086966 -0.133281 0.008813
vertex 0.055028 -0.091329 0.006263
vertex 0.089007 -0.131569 0.006120
endloop
endfacet
facet normal -0.461059 -0.386479 -0.798786
outer loop
vertex 0.089007 -0.131569 0.006120
vertex 0.055028 -0.091329 0.006263
vertex 0.057412 -0.089328 0.003919
endloop
endfacet
facet normal -0.456780 -0.383482 -0.802679
outer loop
vertex 0.089007 -0.131569 0.006120
vertex 0.057412 -0.089328 0.003919
vertex 0.091336 -0.129614 0.003861
endloop
endfacet
facet normal 0.619967 0.519656 -0.587877
outer loop
vertex 0.117861 -0.107357 0.011878
vertex 0.116155 -0.108789 0.008813
vertex 0.082462 -0.068309 0.009062
endloop
endfacet
facet normal 0.550057 0.462128 -0.695611
outer loop
vertex 0.082462 -0.068309 0.009062
vertex 0.116155 -0.108789 0.008813
vertex 0.080386 -0.070051 0.006263
endloop
endfacet
facet normal 0.550341 0.461792 -0.695610
outer loop
vertex 0.082462 -0.068309 0.009062
vertex 0.080386 -0.070051 0.006263
vertex 0.046532 -0.029706 0.006263
endloop
endfacet
facet normal 0.460865 0.386711 -0.798785
outer loop
vertex 0.046532 -0.029706 0.006263
vertex 0.080386 -0.070051 0.006263
vertex 0.044148 -0.031707 0.003919
endloop
endfacet
facet normal 0.460865 0.386712 -0.798785
outer loop
vertex 0.046532 -0.029706 0.006263
vertex 0.044148 -0.031707 0.003919
vertex 0.010295 0.008638 0.003919
endloop
endfacet
facet normal 0.360193 0.302238 -0.882561
outer loop
vertex 0.010295 0.008638 0.003919
vertex 0.044148 -0.031707 0.003919
vertex -0.093900 0.127463 0.002087
endloop
endfacet
facet normal 0.544726 0.456696 -0.703351
outer loop
vertex 0.116155 -0.108789 0.008813
vertex 0.114114 -0.110501 0.006120
vertex 0.080386 -0.070051 0.006263
endloop
endfacet
facet normal 0.460671 0.386944 -0.798785
outer loop
vertex 0.080386 -0.070051 0.006263
vertex 0.114114 -0.110501 0.006120
vertex 0.078002 -0.072052 0.003919
endloop
endfacet
facet normal 0.460865 0.386712 -0.798785
outer loop
vertex 0.080386 -0.070051 0.006263
vertex 0.078002 -0.072052 0.003919
vertex 0.044148 -0.031707 0.003919
endloop
endfacet
facet normal 0.360199 0.302243 -0.882557
outer loop
vertex 0.044148 -0.031707 0.003919
vertex 0.078002 -0.072052 0.003919
vertex -0.093900 0.127463 0.002087
endloop
endfacet
facet normal 0.456976 0.383251 -0.802678
outer loop
vertex 0.114114 -0.110501 0.006120
vertex 0.111785 -0.112456 0.003861
vertex 0.078002 -0.072052 0.003919
endloop
endfacet
facet normal 0.366343 0.307577 -0.878174
outer loop
vertex 0.078002 -0.072052 0.003919
vertex 0.111785 -0.112456 0.003861
vertex -0.093900 0.127463 0.002087
endloop
endfacet
facet normal 0.358730 0.301010 -0.883576
outer loop
vertex 0.111785 -0.112456 0.003861
vertex 0.109221 -0.114607 0.002087
vertex -0.093900 0.127463 0.002087
endloop
endfacet
facet normal -0.619967 -0.519656 -0.587877
outer loop
vertex -0.117861 0.107357 0.011878
vertex -0.116155 0.108789 0.008813
vertex -0.082462 0.068309 0.009062
endloop
endfacet
facet normal -0.550057 -0.462128 -0.695611
outer loop
vertex -0.082462 0.068309 0.009062
vertex -0.116155 0.108789 0.008813
vertex -0.080386 0.070051 0.006263
endloop
endfacet
facet normal -0.550341 -0.461791 -0.695610
outer loop
vertex -0.082462 0.068309 0.009062
vertex -0.080386 0.070051 0.006263
vertex -0.046532 0.029706 0.006263
endloop
endfacet
facet normal -0.460865 -0.386711 -0.798785
outer loop
vertex -0.046532 0.029706 0.006263
vertex -0.080386 0.070051 0.006263
vertex -0.044148 0.031707 0.003919
endloop
endfacet
facet normal -0.460865 -0.386712 -0.798785
outer loop
vertex -0.046532 0.029706 0.006263
vertex -0.044148 0.031707 0.003919
vertex -0.010295 -0.008638 0.003919
endloop
endfacet
facet normal -0.360195 -0.302239 -0.882559
outer loop
vertex -0.010295 -0.008638 0.003919
vertex -0.044148 0.031707 0.003919
vertex 0.093900 -0.127463 0.002087
endloop
endfacet
facet normal -0.544725 -0.456695 -0.703352
outer loop
vertex -0.116155 0.108789 0.008813
vertex -0.114114 0.110501 0.006120
vertex -0.080386 0.070051 0.006263
endloop
endfacet
facet normal -0.460672 -0.386945 -0.798783
outer loop
vertex -0.080386 0.070051 0.006263
vertex -0.114114 0.110501 0.006120
vertex -0.078002 0.072052 0.003919
endloop
endfacet
facet normal -0.460866 -0.386712 -0.798784
outer loop
vertex -0.080386 0.070051 0.006263
vertex -0.078002 0.072052 0.003919
vertex -0.044148 0.031707 0.003919
endloop
endfacet
facet normal -0.360196 -0.302240 -0.882558
outer loop
vertex -0.044148 0.031707 0.003919
vertex -0.078002 0.072052 0.003919
vertex 0.093900 -0.127463 0.002087
endloop
endfacet
facet normal -0.456974 -0.383249 -0.802680
outer loop
vertex -0.114114 0.110501 0.006120
vertex -0.111785 0.112456 0.003861
vertex -0.078002 0.072052 0.003919
endloop
endfacet
facet normal -0.366344 -0.307579 -0.878173
outer loop
vertex -0.078002 0.072052 0.003919
vertex -0.111785 0.112456 0.003861
vertex 0.093900 -0.127463 0.002087
endloop
endfacet
facet normal -0.358730 -0.301010 -0.883576
outer loop
vertex -0.111785 0.112456 0.003861
vertex -0.109221 0.114607 0.002087
vertex 0.093900 -0.127463 0.002087
endloop
endfacet
facet normal -0.460865 -0.386712 -0.798785
outer loop
vertex 0.023559 -0.048983 0.003919
vertex 0.057412 -0.089328 0.003919
vertex 0.021175 -0.050984 0.006263
endloop
endfacet
facet normal -0.460865 -0.386712 -0.798785
outer loop
vertex 0.021175 -0.050984 0.006263
vertex 0.057412 -0.089328 0.003919
vertex 0.055028 -0.091329 0.006263
endloop
endfacet
facet normal -0.550341 -0.461791 -0.695611
outer loop
vertex 0.021175 -0.050984 0.006263
vertex 0.055028 -0.091329 0.006263
vertex 0.019099 -0.052726 0.009062
endloop
endfacet
facet normal -0.550341 -0.461791 -0.695610
outer loop
vertex 0.019099 -0.052726 0.009062
vertex 0.055028 -0.091329 0.006263
vertex 0.052952 -0.093071 0.009062
endloop
endfacet
facet normal -0.626451 -0.525655 -0.575539
outer loop
vertex 0.019099 -0.052726 0.009062
vertex 0.052952 -0.093071 0.009062
vertex 0.017381 -0.054167 0.012248
endloop
endfacet
facet normal -0.626451 -0.525655 -0.575539
outer loop
vertex 0.017381 -0.054167 0.012248
vertex 0.052952 -0.093071 0.009062
vertex 0.051234 -0.094512 0.012248
endloop
endfacet
facet normal -0.687345 -0.576751 -0.441492
outer loop
vertex 0.017381 -0.054167 0.012248
vertex 0.051234 -0.094512 0.012248
vertex 0.016063 -0.055273 0.015744
endloop
endfacet
facet normal -0.687345 -0.576751 -0.441492
outer loop
vertex 0.016063 -0.055273 0.015744
vertex 0.051234 -0.094512 0.012248
vertex 0.049917 -0.095618 0.015744
endloop
endfacet
facet normal -0.731546 -0.613839 -0.296719
outer loop
vertex 0.016063 -0.055273 0.015744
vertex 0.049917 -0.095618 0.015744
vertex 0.015178 -0.056016 0.019465
endloop
endfacet
facet normal -0.731546 -0.613840 -0.296717
outer loop
vertex 0.015178 -0.056016 0.019465
vertex 0.049917 -0.095618 0.015744
vertex 0.049031 -0.096361 0.019465
endloop
endfacet
facet normal -0.757977 -0.636018 -0.144745
outer loop
vertex 0.015178 -0.056016 0.019465
vertex 0.049031 -0.096361 0.019465
vertex 0.014746 -0.056378 0.023320
endloop
endfacet
facet normal -0.757978 -0.636019 -0.144742
outer loop
vertex 0.014746 -0.056378 0.023320
vertex 0.049031 -0.096361 0.019465
vertex 0.048599 -0.096723 0.023320
endloop
endfacet
facet normal -0.766000 -0.642750 0.010750
outer loop
vertex 0.014746 -0.056378 0.023320
vertex 0.048599 -0.096723 0.023320
vertex 0.014778 -0.056351 0.027216
endloop
endfacet
facet normal -0.766000 -0.642751 0.010754
outer loop
vertex 0.014778 -0.056351 0.027216
vertex 0.048599 -0.096723 0.023320
vertex 0.048631 -0.096696 0.027216
endloop
endfacet
facet normal -0.755418 -0.633871 0.165986
outer loop
vertex 0.014778 -0.056351 0.027216
vertex 0.048631 -0.096696 0.027216
vertex 0.015273 -0.055936 0.031058
endloop
endfacet
facet normal -0.755418 -0.633871 0.165986
outer loop
vertex 0.015273 -0.055936 0.031058
vertex 0.048631 -0.096696 0.027216
vertex 0.049127 -0.096281 0.031058
endloop
endfacet
facet normal -0.726488 -0.609595 0.317189
outer loop
vertex 0.015273 -0.055936 0.031058
vertex 0.049127 -0.096281 0.031058
vertex 0.016220 -0.055141 0.034753
endloop
endfacet
facet normal -0.726488 -0.609597 0.317185
outer loop
vertex 0.016220 -0.055141 0.034753
vertex 0.049127 -0.096281 0.031058
vertex 0.050073 -0.095486 0.034753
endloop
endfacet
facet normal -0.679913 -0.570516 0.460684
outer loop
vertex 0.016220 -0.055141 0.034753
vertex 0.050073 -0.095486 0.034753
vertex 0.017595 -0.053988 0.038211
endloop
endfacet
facet normal -0.679913 -0.570515 0.460686
outer loop
vertex 0.017595 -0.053988 0.038211
vertex 0.050073 -0.095486 0.034753
vertex 0.051448 -0.094333 0.038211
endloop
endfacet
facet normal -0.616825 -0.517577 0.592993
outer loop
vertex 0.017595 -0.053988 0.038211
vertex 0.051448 -0.094333 0.038211
vertex 0.019365 -0.052503 0.041348
endloop
endfacet
facet normal -0.616825 -0.517577 0.592994
outer loop
vertex 0.019365 -0.052503 0.041348
vertex 0.051448 -0.094333 0.038211
vertex 0.053218 -0.092848 0.041348
endloop
endfacet
facet normal -0.538755 -0.452071 0.710897
outer loop
vertex 0.019365 -0.052503 0.041348
vertex 0.053218 -0.092848 0.041348
vertex 0.021486 -0.050722 0.044088
endloop
endfacet
facet normal -0.538755 -0.452068 0.710899
outer loop
vertex 0.021486 -0.050722 0.044088
vertex 0.053218 -0.092848 0.041348
vertex 0.055340 -0.091067 0.044088
endloop
endfacet
facet normal -0.447600 -0.375582 0.811537
outer loop
vertex 0.021486 -0.050722 0.044088
vertex 0.055340 -0.091067 0.044088
vertex 0.023909 -0.048690 0.046365
endloop
endfacet
facet normal -0.447599 -0.375580 0.811539
outer loop
vertex 0.023909 -0.048690 0.046365
vertex 0.055340 -0.091067 0.044088
vertex 0.057762 -0.089035 0.046365
endloop
endfacet
facet normal -0.345572 -0.289971 0.892467
outer loop
vertex 0.023909 -0.048690 0.046365
vertex 0.057762 -0.089035 0.046365
vertex 0.026572 -0.046455 0.048123
endloop
endfacet
facet normal -0.345575 -0.289970 0.892466
outer loop
vertex 0.026572 -0.046455 0.048123
vertex 0.057762 -0.089035 0.046365
vertex 0.060426 -0.086800 0.048123
endloop
endfacet
facet normal -0.235152 -0.197317 0.951719
outer loop
vertex 0.026572 -0.046455 0.048123
vertex 0.060426 -0.086800 0.048123
vertex 0.029413 -0.044071 0.049319
endloop
endfacet
facet normal -0.235157 -0.197318 0.951718
outer loop
vertex 0.029413 -0.044071 0.049319
vertex 0.060426 -0.086800 0.048123
vertex 0.063266 -0.084416 0.049319
endloop
endfacet
facet normal -0.119019 -0.099871 0.987856
outer loop
vertex 0.029413 -0.044071 0.049319
vertex 0.063266 -0.084416 0.049319
vertex 0.032361 -0.041597 0.049924
endloop
endfacet
facet normal -0.119022 -0.099871 0.987856
outer loop
vertex 0.032361 -0.041597 0.049924
vertex 0.063266 -0.084416 0.049319
vertex 0.066215 -0.081942 0.049924
endloop
endfacet
facet normal -0.000002 0.000000 1.000000
outer loop
vertex 0.032361 -0.041597 0.049924
vertex 0.066215 -0.081942 0.049924
vertex 0.035346 -0.039093 0.049924
endloop
endfacet
facet normal 0.000001 0.000000 1.000000
outer loop
vertex 0.035346 -0.039093 0.049924
vertex 0.066215 -0.081942 0.049924
vertex 0.069199 -0.079438 0.049924
endloop
endfacet
facet normal 0.119022 0.099871 0.987856
outer loop
vertex 0.035346 -0.039093 0.049924
vertex 0.069199 -0.079438 0.049924
vertex 0.038294 -0.036619 0.049319
endloop
endfacet
facet normal 0.119022 0.099871 0.987856
outer loop
vertex 0.038294 -0.036619 0.049319
vertex 0.069199 -0.079438 0.049924
vertex 0.072148 -0.076964 0.049319
endloop
endfacet
facet normal 0.235155 0.197317 0.951718
outer loop
vertex 0.038294 -0.036619 0.049319
vertex 0.072148 -0.076964 0.049319
vertex 0.041135 -0.034235 0.048123
endloop
endfacet
facet normal 0.235152 0.197317 0.951719
outer loop
vertex 0.041135 -0.034235 0.048123
vertex 0.072148 -0.076964 0.049319
vertex 0.074988 -0.074580 0.048123
endloop
endfacet
facet normal 0.345574 0.289970 0.892466
outer loop
vertex 0.041135 -0.034235 0.048123
vertex 0.074988 -0.074580 0.048123
vertex 0.043798 -0.032000 0.046365
endloop
endfacet
facet normal 0.345573 0.289970 0.892467
outer loop
vertex 0.043798 -0.032000 0.046365
vertex 0.074988 -0.074580 0.048123
vertex 0.077652 -0.072345 0.046365
endloop
endfacet
facet normal 0.447601 0.375580 0.811537
outer loop
vertex 0.043798 -0.032000 0.046365
vertex 0.077652 -0.072345 0.046365
vertex 0.046221 -0.029968 0.044088
endloop
endfacet
facet normal 0.447598 0.375581 0.811539
outer loop
vertex 0.046221 -0.029968 0.044088
vertex 0.077652 -0.072345 0.046365
vertex 0.080074 -0.070313 0.044088
endloop
endfacet
facet normal 0.538757 0.452069 0.710897
outer loop
vertex 0.046221 -0.029968 0.044088
vertex 0.080074 -0.070313 0.044088
vertex 0.048342 -0.028187 0.041348
endloop
endfacet
facet normal 0.538754 0.452070 0.710899
outer loop
vertex 0.048342 -0.028187 0.041348
vertex 0.080074 -0.070313 0.044088
vertex 0.082196 -0.068532 0.041348
endloop
endfacet
facet normal 0.616825 0.517577 0.592993
outer loop
vertex 0.048342 -0.028187 0.041348
vertex 0.082196 -0.068532 0.041348
vertex 0.050112 -0.026702 0.038211
endloop
endfacet
facet normal 0.616825 0.517578 0.592992
outer loop
vertex 0.050112 -0.026702 0.038211
vertex 0.082196 -0.068532 0.041348
vertex 0.083966 -0.067047 0.038211
endloop
endfacet
facet normal 0.679914 0.570514 0.460684
outer loop
vertex 0.050112 -0.026702 0.038211
vertex 0.083966 -0.067047 0.038211
vertex 0.051487 -0.025549 0.034753
endloop
endfacet
facet normal 0.679913 0.570515 0.460685
outer loop
vertex 0.051487 -0.025549 0.034753
vertex 0.083966 -0.067047 0.038211
vertex 0.085341 -0.065894 0.034753
endloop
endfacet
facet normal 0.726488 0.609597 0.317186
outer loop
vertex 0.051487 -0.025549 0.034753
vertex 0.085341 -0.065894 0.034753
vertex 0.052434 -0.024754 0.031058
endloop
endfacet
facet normal 0.726488 0.609595 0.317187
outer loop
vertex 0.052434 -0.024754 0.031058
vertex 0.085341 -0.065894 0.034753
vertex 0.086287 -0.065099 0.031058
endloop
endfacet
facet normal 0.755418 0.633871 0.165985
outer loop
vertex 0.052434 -0.024754 0.031058
vertex 0.086287 -0.065099 0.031058
vertex 0.052929 -0.024339 0.027216
endloop
endfacet
facet normal 0.755418 0.633870 0.165985
outer loop
vertex 0.052929 -0.024339 0.027216
vertex 0.086287 -0.065099 0.031058
vertex 0.086783 -0.064684 0.027216
endloop
endfacet
facet normal 0.766000 0.642751 0.010753
outer loop
vertex 0.052929 -0.024339 0.027216
vertex 0.086783 -0.064684 0.027216
vertex 0.052961 -0.024312 0.023320
endloop
endfacet
facet normal 0.766000 0.642750 0.010754
outer loop
vertex 0.052961 -0.024312 0.023320
vertex 0.086783 -0.064684 0.027216
vertex 0.086815 -0.064657 0.023320
endloop
endfacet
facet normal 0.757977 0.636019 -0.144743
outer loop
vertex 0.052961 -0.024312 0.023320
vertex 0.086815 -0.064657 0.023320
vertex 0.052529 -0.024674 0.019465
endloop
endfacet
facet normal 0.757978 0.636019 -0.144742
outer loop
vertex 0.052529 -0.024674 0.019465
vertex 0.086815 -0.064657 0.023320
vertex 0.086383 -0.065019 0.019465
endloop
endfacet
facet normal 0.731545 0.613840 -0.296720
outer loop
vertex 0.052529 -0.024674 0.019465
vertex 0.086383 -0.065019 0.019465
vertex 0.051644 -0.025417 0.015744
endloop
endfacet
facet normal 0.731546 0.613839 -0.296718
outer loop
vertex 0.051644 -0.025417 0.015744
vertex 0.086383 -0.065019 0.019465
vertex 0.085497 -0.065762 0.015744
endloop
endfacet
facet normal 0.687345 0.576751 -0.441492
outer loop
vertex 0.051644 -0.025417 0.015744
vertex 0.085497 -0.065762 0.015744
vertex 0.050326 -0.026523 0.012248
endloop
endfacet
facet normal 0.687345 0.576751 -0.441491
outer loop
vertex 0.050326 -0.026523 0.012248
vertex 0.085497 -0.065762 0.015744
vertex 0.084180 -0.066868 0.012248
endloop
endfacet
facet normal 0.626450 0.525654 -0.575541
outer loop
vertex 0.050326 -0.026523 0.012248
vertex 0.084180 -0.066868 0.012248
vertex 0.048608 -0.027964 0.009062
endloop
endfacet
facet normal -0.460865 -0.386711 -0.798785
outer loop
vertex 0.023559 -0.048983 0.003919
vertex 0.021175 -0.050984 0.006263
vertex -0.012679 -0.010639 0.006263
endloop
endfacet
facet normal -0.550342 -0.461791 -0.695609
outer loop
vertex -0.012679 -0.010639 0.006263
vertex 0.021175 -0.050984 0.006263
vertex -0.014755 -0.012381 0.009062
endloop
endfacet
facet normal -0.550341 -0.461791 -0.695610
outer loop
vertex -0.012679 -0.010639 0.006263
vertex -0.014755 -0.012381 0.009062
vertex -0.048608 0.027964 0.009062
endloop
endfacet
facet normal -0.626451 -0.525655 -0.575540
outer loop
vertex -0.048608 0.027964 0.009062
vertex -0.014755 -0.012381 0.009062
vertex -0.050326 0.026523 0.012248
endloop
endfacet
facet normal -0.626451 -0.525655 -0.575540
outer loop
vertex -0.048608 0.027964 0.009062
vertex -0.050326 0.026523 0.012248
vertex -0.084180 0.066868 0.012248
endloop
endfacet
facet normal -0.687345 -0.576751 -0.441492
outer loop
vertex -0.084180 0.066868 0.012248
vertex -0.050326 0.026523 0.012248
vertex -0.085497 0.065762 0.015744
endloop
endfacet
facet normal -0.550341 -0.461791 -0.695610
outer loop
vertex -0.014755 -0.012381 0.009062
vertex 0.021175 -0.050984 0.006263
vertex 0.019099 -0.052726 0.009062
endloop
endfacet
facet normal -0.626451 -0.525655 -0.575540
outer loop
vertex -0.014755 -0.012381 0.009062
vertex 0.019099 -0.052726 0.009062
vertex -0.016473 -0.013822 0.012248
endloop
endfacet
facet normal -0.626451 -0.525655 -0.575539
outer loop
vertex -0.016473 -0.013822 0.012248
vertex 0.019099 -0.052726 0.009062
vertex 0.017381 -0.054167 0.012248
endloop
endfacet
facet normal -0.687345 -0.576751 -0.441491
outer loop
vertex -0.016473 -0.013822 0.012248
vertex 0.017381 -0.054167 0.012248
vertex -0.017790 -0.014928 0.015744
endloop
endfacet
facet normal -0.687345 -0.576751 -0.441492
outer loop
vertex -0.017790 -0.014928 0.015744
vertex 0.017381 -0.054167 0.012248
vertex 0.016063 -0.055273 0.015744
endloop
endfacet
facet normal -0.731546 -0.613840 -0.296718
outer loop
vertex -0.017790 -0.014928 0.015744
vertex 0.016063 -0.055273 0.015744
vertex -0.018676 -0.015671 0.019465
endloop
endfacet
facet normal -0.731545 -0.613839 -0.296720
outer loop
vertex -0.018676 -0.015671 0.019465
vertex 0.016063 -0.055273 0.015744
vertex 0.015178 -0.056016 0.019465
endloop
endfacet
facet normal -0.757977 -0.636019 -0.144742
outer loop
vertex -0.018676 -0.015671 0.019465
vertex 0.015178 -0.056016 0.019465
vertex -0.019108 -0.016033 0.023320
endloop
endfacet
facet normal -0.757978 -0.636018 -0.144742
outer loop
vertex -0.019108 -0.016033 0.023320
vertex 0.015178 -0.056016 0.019465
vertex 0.014746 -0.056378 0.023320
endloop
endfacet
facet normal -0.766000 -0.642750 0.010754
outer loop
vertex -0.019108 -0.016033 0.023320
vertex 0.014746 -0.056378 0.023320
vertex -0.019076 -0.016006 0.027216
endloop
endfacet
facet normal -0.766000 -0.642751 0.010753
outer loop
vertex -0.019076 -0.016006 0.027216
vertex 0.014746 -0.056378 0.023320
vertex 0.014778 -0.056351 0.027216
endloop
endfacet
facet normal -0.755419 -0.633870 0.165987
outer loop
vertex -0.019076 -0.016006 0.027216
vertex 0.014778 -0.056351 0.027216
vertex -0.018580 -0.015591 0.031058
endloop
endfacet
facet normal -0.755418 -0.633871 0.165984
outer loop
vertex -0.018580 -0.015591 0.031058
vertex 0.014778 -0.056351 0.027216
vertex 0.015273 -0.055936 0.031058
endloop
endfacet
facet normal -0.726488 -0.609595 0.317188
outer loop
vertex -0.018580 -0.015591 0.031058
vertex 0.015273 -0.055936 0.031058
vertex -0.017634 -0.014796 0.034753
endloop
endfacet
facet normal -0.726487 -0.609597 0.317188
outer loop
vertex -0.017634 -0.014796 0.034753
vertex 0.015273 -0.055936 0.031058
vertex 0.016220 -0.055141 0.034753
endloop
endfacet
facet normal -0.679913 -0.570515 0.460685
outer loop
vertex -0.017634 -0.014796 0.034753
vertex 0.016220 -0.055141 0.034753
vertex -0.016259 -0.013643 0.038211
endloop
endfacet
facet normal -0.679914 -0.570515 0.460684
outer loop
vertex -0.016259 -0.013643 0.038211
vertex 0.016220 -0.055141 0.034753
vertex 0.017595 -0.053988 0.038211
endloop
endfacet
facet normal -0.616826 -0.517578 0.592992
outer loop
vertex -0.016259 -0.013643 0.038211
vertex 0.017595 -0.053988 0.038211
vertex -0.014489 -0.012158 0.041348
endloop
endfacet
facet normal -0.616826 -0.517577 0.592992
outer loop
vertex -0.014489 -0.012158 0.041348
vertex 0.017595 -0.053988 0.038211
vertex 0.019365 -0.052503 0.041348
endloop
endfacet
facet normal -0.538755 -0.452070 0.710898
outer loop
vertex -0.014489 -0.012158 0.041348
vertex 0.019365 -0.052503 0.041348
vertex -0.012367 -0.010377 0.044088
endloop
endfacet
facet normal -0.538755 -0.452069 0.710898
outer loop
vertex -0.012367 -0.010377 0.044088
vertex 0.019365 -0.052503 0.041348
vertex 0.021486 -0.050722 0.044088
endloop
endfacet
facet normal -0.447600 -0.375581 0.811538
outer loop
vertex -0.012367 -0.010377 0.044088
vertex 0.021486 -0.050722 0.044088
vertex -0.009945 -0.008345 0.046365
endloop
endfacet
facet normal -0.447600 -0.375580 0.811538
outer loop
vertex -0.009945 -0.008345 0.046365
vertex 0.021486 -0.050722 0.044088
vertex 0.023909 -0.048690 0.046365
endloop
endfacet
facet normal -0.345572 -0.289971 0.892467
outer loop
vertex -0.009945 -0.008345 0.046365
vertex 0.023909 -0.048690 0.046365
vertex -0.007281 -0.006110 0.048123
endloop
endfacet
facet normal -0.345574 -0.289970 0.892466
outer loop
vertex -0.007281 -0.006110 0.048123
vertex 0.023909 -0.048690 0.046365
vertex 0.026572 -0.046455 0.048123
endloop
endfacet
facet normal -0.235151 -0.197318 0.951719
outer loop
vertex -0.007281 -0.006110 0.048123
vertex 0.026572 -0.046455 0.048123
vertex -0.004441 -0.003726 0.049319
endloop
endfacet
facet normal -0.235155 -0.197317 0.951718
outer loop
vertex -0.004441 -0.003726 0.049319
vertex 0.026572 -0.046455 0.048123
vertex 0.029413 -0.044071 0.049319
endloop
endfacet
facet normal -0.119022 -0.099871 0.987856
outer loop
vertex -0.004441 -0.003726 0.049319
vertex 0.029413 -0.044071 0.049319
vertex -0.001492 -0.001252 0.049924
endloop
endfacet
facet normal -0.119022 -0.099871 0.987856
outer loop
vertex -0.001492 -0.001252 0.049924
vertex 0.029413 -0.044071 0.049319
vertex 0.032361 -0.041597 0.049924
endloop
endfacet
facet normal 0.000000 0.000000 1.000000
outer loop
vertex -0.001492 -0.001252 0.049924
vertex 0.032361 -0.041597 0.049924
vertex 0.001492 0.001252 0.049924
endloop
endfacet
facet normal -0.000001 0.000000 1.000000
outer loop
vertex 0.001492 0.001252 0.049924
vertex 0.032361 -0.041597 0.049924
vertex 0.035346 -0.039093 0.049924
endloop
endfacet
facet normal 0.119022 0.099871 0.987856
outer loop
vertex 0.001492 0.001252 0.049924
vertex 0.035346 -0.039093 0.049924
vertex 0.004441 0.003726 0.049319
endloop
endfacet
facet normal 0.119022 0.099871 0.987856
outer loop
vertex 0.004441 0.003726 0.049319
vertex 0.035346 -0.039093 0.049924
vertex 0.038294 -0.036619 0.049319
endloop
endfacet
facet normal 0.235157 0.197317 0.951718
outer loop
vertex 0.004441 0.003726 0.049319
vertex 0.038294 -0.036619 0.049319
vertex 0.007281 0.006110 0.048123
endloop
endfacet
facet normal 0.235152 0.197318 0.951719
outer loop
vertex 0.007281 0.006110 0.048123
vertex 0.038294 -0.036619 0.049319
vertex 0.041135 -0.034235 0.048123
endloop
endfacet
facet normal 0.345574 0.289971 0.892466
outer loop
vertex 0.007281 0.006110 0.048123
vertex 0.041135 -0.034235 0.048123
vertex 0.009945 0.008345 0.046365
endloop
endfacet
facet normal 0.345574 0.289970 0.892466
outer loop
vertex 0.009945 0.008345 0.046365
vertex 0.041135 -0.034235 0.048123
vertex 0.043798 -0.032000 0.046365
endloop
endfacet
facet normal 0.447598 0.375581 0.811539
outer loop
vertex 0.009945 0.008345 0.046365
vertex 0.043798 -0.032000 0.046365
vertex 0.012367 0.010377 0.044088
endloop
endfacet
facet normal 0.447600 0.375581 0.811538
outer loop
vertex 0.012367 0.010377 0.044088
vertex 0.043798 -0.032000 0.046365
vertex 0.046221 -0.029968 0.044088
endloop
endfacet
facet normal 0.538756 0.452069 0.710897
outer loop
vertex 0.012367 0.010377 0.044088
vertex 0.046221 -0.029968 0.044088
vertex 0.014489 0.012158 0.041348
endloop
endfacet
facet normal 0.538755 0.452070 0.710898
outer loop
vertex 0.014489 0.012158 0.041348
vertex 0.046221 -0.029968 0.044088
vertex 0.048342 -0.028187 0.041348
endloop
endfacet
facet normal 0.616825 0.517578 0.592992
outer loop
vertex 0.014489 0.012158 0.041348
vertex 0.048342 -0.028187 0.041348
vertex 0.016259 0.013643 0.038211
endloop
endfacet
facet normal 0.616825 0.517577 0.592993
outer loop
vertex 0.016259 0.013643 0.038211
vertex 0.048342 -0.028187 0.041348
vertex 0.050112 -0.026702 0.038211
endloop
endfacet
facet normal 0.679914 0.570515 0.460684
outer loop
vertex 0.016259 0.013643 0.038211
vertex 0.050112 -0.026702 0.038211
vertex 0.017634 0.014796 0.034753
endloop
endfacet
facet normal 0.679913 0.570516 0.460684
outer loop
vertex 0.017634 0.014796 0.034753
vertex 0.050112 -0.026702 0.038211
vertex 0.051487 -0.025549 0.034753
endloop
endfacet
facet normal 0.726487 0.609597 0.317187
outer loop
vertex 0.017634 0.014796 0.034753
vertex 0.051487 -0.025549 0.034753
vertex 0.018580 0.015591 0.031058
endloop
endfacet
facet normal 0.726489 0.609595 0.317187
outer loop
vertex 0.018580 0.015591 0.031058
vertex 0.051487 -0.025549 0.034753
vertex 0.052434 -0.024754 0.031058
endloop
endfacet
facet normal 0.755418 0.633871 0.165986
outer loop
vertex 0.018580 0.015591 0.031058
vertex 0.052434 -0.024754 0.031058
vertex 0.019076 0.016006 0.027216
endloop
endfacet
facet normal 0.755418 0.633871 0.165986
outer loop
vertex 0.019076 0.016006 0.027216
vertex 0.052434 -0.024754 0.031058
vertex 0.052929 -0.024339 0.027216
endloop
endfacet
facet normal 0.766000 0.642751 0.010753
outer loop
vertex 0.019076 0.016006 0.027216
vertex 0.052929 -0.024339 0.027216
vertex 0.019108 0.016033 0.023320
endloop
endfacet
facet normal 0.766001 0.642750 0.010752
outer loop
vertex 0.019108 0.016033 0.023320
vertex 0.052929 -0.024339 0.027216
vertex 0.052961 -0.024312 0.023320
endloop
endfacet
facet normal 0.757977 0.636019 -0.144741
outer loop
vertex 0.019108 0.016033 0.023320
vertex 0.052961 -0.024312 0.023320
vertex 0.018676 0.015671 0.019465
endloop
endfacet
facet normal 0.757978 0.636018 -0.144741
outer loop
vertex 0.018676 0.015671 0.019465
vertex 0.052961 -0.024312 0.023320
vertex 0.052529 -0.024674 0.019465
endloop
endfacet
facet normal 0.731545 0.613840 -0.296720
outer loop
vertex 0.018676 0.015671 0.019465
vertex 0.052529 -0.024674 0.019465
vertex 0.017790 0.014928 0.015744
endloop
endfacet
facet normal 0.731546 0.613839 -0.296719
outer loop
vertex 0.017790 0.014928 0.015744
vertex 0.052529 -0.024674 0.019465
vertex 0.051644 -0.025417 0.015744
endloop
endfacet
facet normal 0.687345 0.576751 -0.441491
outer loop
vertex 0.017790 0.014928 0.015744
vertex 0.051644 -0.025417 0.015744
vertex 0.016473 0.013822 0.012248
endloop
endfacet
facet normal 0.687345 0.576751 -0.441491
outer loop
vertex 0.016473 0.013822 0.012248
vertex 0.051644 -0.025417 0.015744
vertex 0.050326 -0.026523 0.012248
endloop
endfacet
facet normal 0.626451 0.525655 -0.575540
outer loop
vertex 0.016473 0.013822 0.012248
vertex 0.050326 -0.026523 0.012248
vertex 0.014755 0.012381 0.009062
endloop
endfacet
facet normal 0.626451 0.525655 -0.575540
outer loop
vertex 0.014755 0.012381 0.009062
vertex 0.050326 -0.026523 0.012248
vertex 0.048608 -0.027964 0.009062
endloop
endfacet
facet normal 0.550342 0.461791 -0.695610
outer loop
vertex 0.014755 0.012381 0.009062
vertex 0.048608 -0.027964 0.009062
vertex 0.012679 0.010639 0.006263
endloop
endfacet
facet normal -0.626451 -0.525655 -0.575540
outer loop
vertex -0.014755 -0.012381 0.009062
vertex -0.016473 -0.013822 0.012248
vertex -0.050326 0.026523 0.012248
endloop
endfacet
facet normal -0.687345 -0.576751 -0.441492
outer loop
vertex -0.050326 0.026523 0.012248
vertex -0.016473 -0.013822 0.012248
vertex -0.051644 0.025417 0.015744
endloop
endfacet
facet normal -0.687345 -0.576751 -0.441492
outer loop
vertex -0.050326 0.026523 0.012248
vertex -0.051644 0.025417 0.015744
vertex -0.085497 0.065762 0.015744
endloop
endfacet
facet normal -0.731546 -0.613839 -0.296718
outer loop
vertex -0.085497 0.065762 0.015744
vertex -0.051644 0.025417 0.015744
vertex -0.086383 0.065019 0.019465
endloop
endfacet
facet normal -0.687345 -0.576751 -0.441492
outer loop
vertex -0.051644 0.025417 0.015744
vertex -0.016473 -0.013822 0.012248
vertex -0.017790 -0.014928 0.015744
endloop
endfacet
facet normal -0.731546 -0.613839 -0.296718
outer loop
vertex -0.051644 0.025417 0.015744
vertex -0.017790 -0.014928 0.015744
vertex -0.052529 0.024674 0.019465
endloop
endfacet
facet normal -0.731545 -0.613840 -0.296719
outer loop
vertex -0.052529 0.024674 0.019465
vertex -0.017790 -0.014928 0.015744
vertex -0.018676 -0.015671 0.019465
endloop
endfacet
facet normal -0.757977 -0.636019 -0.144742
outer loop
vertex -0.052529 0.024674 0.019465
vertex -0.018676 -0.015671 0.019465
vertex -0.052961 0.024312 0.023320
endloop
endfacet
facet normal -0.757978 -0.636019 -0.144741
outer loop
vertex -0.052961 0.024312 0.023320
vertex -0.018676 -0.015671 0.019465
vertex -0.019108 -0.016033 0.023320
endloop
endfacet
facet normal -0.766000 -0.642750 0.010752
outer loop
vertex -0.052961 0.024312 0.023320
vertex -0.019108 -0.016033 0.023320
vertex -0.052929 0.024339 0.027216
endloop
endfacet
facet normal -0.766000 -0.642751 0.010753
outer loop
vertex -0.052929 0.024339 0.027216
vertex -0.019108 -0.016033 0.023320
vertex -0.019076 -0.016006 0.027216
endloop
endfacet
facet normal -0.755418 -0.633871 0.165986
outer loop
vertex -0.052929 0.024339 0.027216
vertex -0.019076 -0.016006 0.027216
vertex -0.052434 0.024754 0.031058
endloop
endfacet
facet normal -0.755418 -0.633871 0.165986
outer loop
vertex -0.052434 0.024754 0.031058
vertex -0.019076 -0.016006 0.027216
vertex -0.018580 -0.015591 0.031058
endloop
endfacet
facet normal -0.726489 -0.609596 0.317187
outer loop
vertex -0.052434 0.024754 0.031058
vertex -0.018580 -0.015591 0.031058
vertex -0.051487 0.025549 0.034753
endloop
endfacet
facet normal -0.726487 -0.609597 0.317187
outer loop
vertex -0.051487 0.025549 0.034753
vertex -0.018580 -0.015591 0.031058
vertex -0.017634 -0.014796 0.034753
endloop
endfacet
facet normal -0.679913 -0.570516 0.460685
outer loop
vertex -0.051487 0.025549 0.034753
vertex -0.017634 -0.014796 0.034753
vertex -0.050112 0.026702 0.038211
endloop
endfacet
facet normal -0.679914 -0.570515 0.460684
outer loop
vertex -0.050112 0.026702 0.038211
vertex -0.017634 -0.014796 0.034753
vertex -0.016259 -0.013643 0.038211
endloop
endfacet
facet normal -0.616825 -0.517577 0.592993
outer loop
vertex -0.050112 0.026702 0.038211
vertex -0.016259 -0.013643 0.038211
vertex -0.048342 0.028187 0.041348
endloop
endfacet
facet normal -0.616826 -0.517577 0.592992
outer loop
vertex -0.048342 0.028187 0.041348
vertex -0.016259 -0.013643 0.038211
vertex -0.014489 -0.012158 0.041348
endloop
endfacet
facet normal -0.538755 -0.452070 0.710898
outer loop
vertex -0.048342 0.028187 0.041348
vertex -0.014489 -0.012158 0.041348
vertex -0.046221 0.029968 0.044088
endloop
endfacet
facet normal -0.538756 -0.452069 0.710897
outer loop
vertex -0.046221 0.029968 0.044088
vertex -0.014489 -0.012158 0.041348
vertex -0.012367 -0.010377 0.044088
endloop
endfacet
facet normal -0.447600 -0.375581 0.811538
outer loop
vertex -0.046221 0.029968 0.044088
vertex -0.012367 -0.010377 0.044088
vertex -0.043798 0.032000 0.046365
endloop
endfacet
facet normal -0.447599 -0.375581 0.811539
outer loop
vertex -0.043798 0.032000 0.046365
vertex -0.012367 -0.010377 0.044088
vertex -0.009945 -0.008345 0.046365
endloop
endfacet
facet normal -0.345574 -0.289970 0.892466
outer loop
vertex -0.043798 0.032000 0.046365
vertex -0.009945 -0.008345 0.046365
vertex -0.041135 0.034235 0.048123
endloop
endfacet
facet normal -0.345573 -0.289971 0.892466
outer loop
vertex -0.041135 0.034235 0.048123
vertex -0.009945 -0.008345 0.046365
vertex -0.007281 -0.006110 0.048123
endloop
endfacet
facet normal -0.235153 -0.197318 0.951719
outer loop
vertex -0.041135 0.034235 0.048123
vertex -0.007281 -0.006110 0.048123
vertex -0.038294 0.036619 0.049319
endloop
endfacet
facet normal -0.235156 -0.197317 0.951718
outer loop
vertex -0.038294 0.036619 0.049319
vertex -0.007281 -0.006110 0.048123
vertex -0.004441 -0.003726 0.049319
endloop
endfacet
facet normal -0.119022 -0.099871 0.987856
outer loop
vertex -0.038294 0.036619 0.049319
vertex -0.004441 -0.003726 0.049319
vertex -0.035346 0.039093 0.049924
endloop
endfacet
facet normal -0.119021 -0.099871 0.987856
outer loop
vertex -0.035346 0.039093 0.049924
vertex -0.004441 -0.003726 0.049319
vertex -0.001492 -0.001252 0.049924
endloop
endfacet
facet normal 0.000000 0.000000 1.000000
outer loop
vertex -0.035346 0.039093 0.049924
vertex -0.001492 -0.001252 0.049924
vertex -0.032361 0.041597 0.049924
endloop
endfacet
facet normal -0.000000 0.000000 1.000000
outer loop
vertex -0.032361 0.041597 0.049924
vertex -0.001492 -0.001252 0.049924
vertex 0.001492 0.001252 0.049924
endloop
endfacet
facet normal 0.119022 0.099871 0.987856
outer loop
vertex -0.032361 0.041597 0.049924
vertex 0.001492 0.001252 0.049924
vertex -0.029413 0.044071 0.049319
endloop
endfacet
facet normal 0.119023 0.099871 0.987856
outer loop
vertex -0.029413 0.044071 0.049319
vertex 0.001492 0.001252 0.049924
vertex 0.004441 0.003726 0.049319
endloop
endfacet
facet normal 0.235155 0.197317 0.951718
outer loop
vertex -0.029413 0.044071 0.049319
vertex 0.004441 0.003726 0.049319
vertex -0.026572 0.046455 0.048123
endloop
endfacet
facet normal 0.235151 0.197318 0.951719
outer loop
vertex -0.026572 0.046455 0.048123
vertex 0.004441 0.003726 0.049319
vertex 0.007281 0.006110 0.048123
endloop
endfacet
facet normal 0.345574 0.289970 0.892466
outer loop
vertex -0.026572 0.046455 0.048123
vertex 0.007281 0.006110 0.048123
vertex -0.023909 0.048690 0.046365
endloop
endfacet
facet normal 0.345573 0.289971 0.892466
outer loop
vertex -0.023909 0.048690 0.046365
vertex 0.007281 0.006110 0.048123
vertex 0.009945 0.008345 0.046365
endloop
endfacet
facet normal 0.447601 0.375580 0.811538
outer loop
vertex -0.023909 0.048690 0.046365
vertex 0.009945 0.008345 0.046365
vertex -0.021486 0.050722 0.044088
endloop
endfacet
facet normal 0.447600 0.375581 0.811538
outer loop
vertex -0.021486 0.050722 0.044088
vertex 0.009945 0.008345 0.046365
vertex 0.012367 0.010377 0.044088
endloop
endfacet
facet normal 0.538756 0.452069 0.710898
outer loop
vertex -0.021486 0.050722 0.044088
vertex 0.012367 0.010377 0.044088
vertex -0.019365 0.052503 0.041348
endloop
endfacet
facet normal 0.538755 0.452070 0.710898
outer loop
vertex -0.019365 0.052503 0.041348
vertex 0.012367 0.010377 0.044088
vertex 0.014489 0.012158 0.041348
endloop
endfacet
facet normal 0.616825 0.517578 0.592993
outer loop
vertex -0.019365 0.052503 0.041348
vertex 0.014489 0.012158 0.041348
vertex -0.017595 0.053988 0.038211
endloop
endfacet
facet normal 0.616825 0.517578 0.592993
outer loop
vertex -0.017595 0.053988 0.038211
vertex 0.014489 0.012158 0.041348
vertex 0.016259 0.013643 0.038211
endloop
endfacet
facet normal 0.679914 0.570515 0.460683
outer loop
vertex -0.017595 0.053988 0.038211
vertex 0.016259 0.013643 0.038211
vertex -0.016220 0.055141 0.034753
endloop
endfacet
facet normal 0.679913 0.570516 0.460684
outer loop
vertex -0.016220 0.055141 0.034753
vertex 0.016259 0.013643 0.038211
vertex 0.017634 0.014796 0.034753
endloop
endfacet
facet normal 0.726487 0.609596 0.317188
outer loop
vertex -0.016220 0.055141 0.034753
vertex 0.017634 0.014796 0.034753
vertex -0.015273 0.055936 0.031058
endloop
endfacet
facet normal 0.726489 0.609596 0.317187
outer loop
vertex -0.015273 0.055936 0.031058
vertex 0.017634 0.014796 0.034753
vertex 0.018580 0.015591 0.031058
endloop
endfacet
facet normal 0.755418 0.633871 0.165985
outer loop
vertex -0.015273 0.055936 0.031058
vertex 0.018580 0.015591 0.031058
vertex -0.014778 0.056351 0.027216
endloop
endfacet
facet normal 0.755419 0.633870 0.165987
outer loop
vertex -0.014778 0.056351 0.027216
vertex 0.018580 0.015591 0.031058
vertex 0.019076 0.016006 0.027216
endloop
endfacet
facet normal 0.765999 0.642752 0.010753
outer loop
vertex -0.014778 0.056351 0.027216
vertex 0.019076 0.016006 0.027216
vertex -0.014746 0.056378 0.023320
endloop
endfacet
facet normal 0.766001 0.642750 0.010753
outer loop
vertex -0.014746 0.056378 0.023320
vertex 0.019076 0.016006 0.027216
vertex 0.019108 0.016033 0.023320
endloop
endfacet
facet normal 0.757977 0.636019 -0.144741
outer loop
vertex -0.014746 0.056378 0.023320
vertex 0.019108 0.016033 0.023320
vertex -0.015178 0.056016 0.019465
endloop
endfacet
facet normal 0.757978 0.636018 -0.144742
outer loop
vertex -0.015178 0.056016 0.019465
vertex 0.019108 0.016033 0.023320
vertex 0.018676 0.015671 0.019465
endloop
endfacet
facet normal 0.731545 0.613839 -0.296721
outer loop
vertex -0.015178 0.056016 0.019465
vertex 0.018676 0.015671 0.019465
vertex -0.016063 0.055273 0.015744
endloop
endfacet
facet normal 0.731546 0.613840 -0.296718
outer loop
vertex -0.016063 0.055273 0.015744
vertex 0.018676 0.015671 0.019465
vertex 0.017790 0.014928 0.015744
endloop
endfacet
facet normal 0.687345 0.576751 -0.441492
outer loop
vertex -0.016063 0.055273 0.015744
vertex 0.017790 0.014928 0.015744
vertex -0.017381 0.054167 0.012248
endloop
endfacet
facet normal 0.687345 0.576751 -0.441491
outer loop
vertex -0.017381 0.054167 0.012248
vertex 0.017790 0.014928 0.015744
vertex 0.016473 0.013822 0.012248
endloop
endfacet
facet normal 0.626451 0.525655 -0.575540
outer loop
vertex -0.017381 0.054167 0.012248
vertex 0.016473 0.013822 0.012248
vertex -0.019099 0.052726 0.009062
endloop
endfacet
facet normal 0.626451 0.525655 -0.575540
outer loop
vertex -0.019099 0.052726 0.009062
vertex 0.016473 0.013822 0.012248
vertex 0.014755 0.012381 0.009062
endloop
endfacet
facet normal 0.550341 0.461791 -0.695610
outer loop
vertex -0.019099 0.052726 0.009062
vertex 0.014755 0.012381 0.009062
vertex -0.021175 0.050984 0.006263
endloop
endfacet
facet normal 0.550341 0.461791 -0.695610
outer loop
vertex -0.021175 0.050984 0.006263
vertex 0.014755 0.012381 0.009062
vertex 0.012679 0.010639 0.006263
endloop
endfacet
facet normal 0.460865 0.386712 -0.798785
outer loop
vertex -0.021175 0.050984 0.006263
vertex 0.012679 0.010639 0.006263
vertex -0.023559 0.048983 0.003919
endloop
endfacet
facet normal -0.757977 -0.636019 -0.144743
outer loop
vertex -0.086815 0.064657 0.023320
vertex -0.086383 0.065019 0.019465
vertex -0.052529 0.024674 0.019465
endloop
endfacet
facet normal -0.731546 -0.613840 -0.296718
outer loop
vertex -0.052529 0.024674 0.019465
vertex -0.086383 0.065019 0.019465
vertex -0.051644 0.025417 0.015744
endloop
endfacet
facet normal -0.757978 -0.636019 -0.144742
outer loop
vertex -0.086815 0.064657 0.023320
vertex -0.052529 0.024674 0.019465
vertex -0.052961 0.024312 0.023320
endloop
endfacet
facet normal -0.766000 -0.642750 0.010752
outer loop
vertex -0.086783 0.064684 0.027216
vertex -0.086815 0.064657 0.023320
vertex -0.052961 0.024312 0.023320
endloop
endfacet
facet normal -0.766000 -0.642751 0.010753
outer loop
vertex -0.086783 0.064684 0.027216
vertex -0.052961 0.024312 0.023320
vertex -0.052929 0.024339 0.027216
endloop
endfacet
facet normal -0.755418 -0.633870 0.165987
outer loop
vertex -0.086287 0.065099 0.031058
vertex -0.086783 0.064684 0.027216
vertex -0.052929 0.024339 0.027216
endloop
endfacet
facet normal -0.755418 -0.633871 0.165985
outer loop
vertex -0.086287 0.065099 0.031058
vertex -0.052929 0.024339 0.027216
vertex -0.052434 0.024754 0.031058
endloop
endfacet
facet normal -0.726488 -0.609596 0.317188
outer loop
vertex -0.085341 0.065894 0.034753
vertex -0.086287 0.065099 0.031058
vertex -0.052434 0.024754 0.031058
endloop
endfacet
facet normal -0.726488 -0.609597 0.317186
outer loop
vertex -0.085341 0.065894 0.034753
vertex -0.052434 0.024754 0.031058
vertex -0.051487 0.025549 0.034753
endloop
endfacet
facet normal -0.679912 -0.570515 0.460686
outer loop
vertex -0.083966 0.067047 0.038211
vertex -0.085341 0.065894 0.034753
vertex -0.051487 0.025549 0.034753
endloop
endfacet
facet normal -0.679914 -0.570515 0.460683
outer loop
vertex -0.083966 0.067047 0.038211
vertex -0.051487 0.025549 0.034753
vertex -0.050112 0.026702 0.038211
endloop
endfacet
facet normal -0.616824 -0.517578 0.592993
outer loop
vertex -0.082196 0.068532 0.041348
vertex -0.083966 0.067047 0.038211
vertex -0.050112 0.026702 0.038211
endloop
endfacet
facet normal -0.616825 -0.517577 0.592993
outer loop
vertex -0.082196 0.068532 0.041348
vertex -0.050112 0.026702 0.038211
vertex -0.048342 0.028187 0.041348
endloop
endfacet
facet normal -0.538754 -0.452070 0.710899
outer loop
vertex -0.080074 0.070313 0.044088
vertex -0.082196 0.068532 0.041348
vertex -0.048342 0.028187 0.041348
endloop
endfacet
facet normal -0.538756 -0.452069 0.710897
outer loop
vertex -0.080074 0.070313 0.044088
vertex -0.048342 0.028187 0.041348
vertex -0.046221 0.029968 0.044088
endloop
endfacet
facet normal -0.447599 -0.375581 0.811538
outer loop
vertex -0.077652 0.072345 0.046365
vertex -0.080074 0.070313 0.044088
vertex -0.046221 0.029968 0.044088
endloop
endfacet
facet normal -0.447600 -0.375580 0.811538
outer loop
vertex -0.077652 0.072345 0.046365
vertex -0.046221 0.029968 0.044088
vertex -0.043798 0.032000 0.046365
endloop
endfacet
facet normal -0.345573 -0.289971 0.892466
outer loop
vertex -0.074988 0.074580 0.048123
vertex -0.077652 0.072345 0.046365
vertex -0.043798 0.032000 0.046365
endloop
endfacet
facet normal -0.345575 -0.289971 0.892466
outer loop
vertex -0.074988 0.074580 0.048123
vertex -0.043798 0.032000 0.046365
vertex -0.041135 0.034235 0.048123
endloop
endfacet
facet normal -0.235151 -0.197317 0.951719
outer loop
vertex -0.072148 0.076964 0.049319
vertex -0.074988 0.074580 0.048123
vertex -0.041135 0.034235 0.048123
endloop
endfacet
facet normal -0.235155 -0.197317 0.951718
outer loop
vertex -0.072148 0.076964 0.049319
vertex -0.041135 0.034235 0.048123
vertex -0.038294 0.036619 0.049319
endloop
endfacet
facet normal -0.119022 -0.099871 0.987856
outer loop
vertex -0.069199 0.079438 0.049924
vertex -0.072148 0.076964 0.049319
vertex -0.038294 0.036619 0.049319
endloop
endfacet
facet normal -0.119022 -0.099871 0.987856
outer loop
vertex -0.069199 0.079438 0.049924
vertex -0.038294 0.036619 0.049319
vertex -0.035346 0.039093 0.049924
endloop
endfacet
facet normal 0.000000 0.000000 1.000000
outer loop
vertex -0.066215 0.081942 0.049924
vertex -0.069199 0.079438 0.049924
vertex -0.035346 0.039093 0.049924
endloop
endfacet
facet normal 0.000001 0.000000 1.000000
outer loop
vertex -0.066215 0.081942 0.049924
vertex -0.035346 0.039093 0.049924
vertex -0.032361 0.041597 0.049924
endloop
endfacet
facet normal 0.119022 0.099871 0.987856
outer loop
vertex -0.063266 0.084416 0.049319
vertex -0.066215 0.081942 0.049924
vertex -0.032361 0.041597 0.049924
endloop
endfacet
facet normal 0.119020 0.099871 0.987856
outer loop
vertex -0.063266 0.084416 0.049319
vertex -0.032361 0.041597 0.049924
vertex -0.029413 0.044071 0.049319
endloop
endfacet
facet normal 0.235158 0.197318 0.951717
outer loop
vertex -0.060426 0.086800 0.048123
vertex -0.063266 0.084416 0.049319
vertex -0.029413 0.044071 0.049319
endloop
endfacet
facet normal 0.235152 0.197317 0.951719
outer loop
vertex -0.060426 0.086800 0.048123
vertex -0.029413 0.044071 0.049319
vertex -0.026572 0.046455 0.048123
endloop
endfacet
facet normal 0.345575 0.289970 0.892466
outer loop
vertex -0.057762 0.089035 0.046365
vertex -0.060426 0.086800 0.048123
vertex -0.026572 0.046455 0.048123
endloop
endfacet
facet normal 0.345573 0.289971 0.892466
outer loop
vertex -0.057762 0.089035 0.046365
vertex -0.026572 0.046455 0.048123
vertex -0.023909 0.048690 0.046365
endloop
endfacet
facet normal 0.447599 0.375580 0.811539
outer loop
vertex -0.055340 0.091067 0.044088
vertex -0.057762 0.089035 0.046365
vertex -0.023909 0.048690 0.046365
endloop
endfacet
facet normal 0.447600 0.375582 0.811537
outer loop
vertex -0.055340 0.091067 0.044088
vertex -0.023909 0.048690 0.046365
vertex -0.021486 0.050722 0.044088
endloop
endfacet
facet normal 0.538754 0.452068 0.710900
outer loop
vertex -0.053218 0.092848 0.041348
vertex -0.055340 0.091067 0.044088
vertex -0.021486 0.050722 0.044088
endloop
endfacet
facet normal 0.538756 0.452071 0.710896
outer loop
vertex -0.053218 0.092848 0.041348
vertex -0.021486 0.050722 0.044088
vertex -0.019365 0.052503 0.041348
endloop
endfacet
facet normal 0.616825 0.517576 0.592994
outer loop
vertex -0.051448 0.094333 0.038211
vertex -0.053218 0.092848 0.041348
vertex -0.019365 0.052503 0.041348
endloop
endfacet
facet normal 0.616825 0.517577 0.592993
outer loop
vertex -0.051448 0.094333 0.038211
vertex -0.019365 0.052503 0.041348
vertex -0.017595 0.053988 0.038211
endloop
endfacet
facet normal 0.679914 0.570515 0.460684
outer loop
vertex -0.050073 0.095486 0.034753
vertex -0.051448 0.094333 0.038211
vertex -0.017595 0.053988 0.038211
endloop
endfacet
facet normal 0.679913 0.570515 0.460685
outer loop
vertex -0.050073 0.095486 0.034753
vertex -0.017595 0.053988 0.038211
vertex -0.016220 0.055141 0.034753
endloop
endfacet
facet normal 0.726489 0.609597 0.317185
outer loop
vertex -0.049127 0.096281 0.031058
vertex -0.050073 0.095486 0.034753
vertex -0.016220 0.055141 0.034753
endloop
endfacet
facet normal 0.726489 0.609595 0.317187
outer loop
vertex -0.049127 0.096281 0.031058
vertex -0.016220 0.055141 0.034753
vertex -0.015273 0.055936 0.031058
endloop
endfacet
facet normal 0.755418 0.633871 0.165986
outer loop
vertex -0.048631 0.096696 0.027216
vertex -0.049127 0.096281 0.031058
vertex -0.015273 0.055936 0.031058
endloop
endfacet
facet normal 0.755418 0.633871 0.165987
outer loop
vertex -0.048631 0.096696 0.027216
vertex -0.015273 0.055936 0.031058
vertex -0.014778 0.056351 0.027216
endloop
endfacet
facet normal 0.766000 0.642751 0.010754
outer loop
vertex -0.048599 0.096723 0.023320
vertex -0.048631 0.096696 0.027216
vertex -0.014778 0.056351 0.027216
endloop
endfacet
facet normal 0.766000 0.642750 0.010749
outer loop
vertex -0.048599 0.096723 0.023320
vertex -0.014778 0.056351 0.027216
vertex -0.014746 0.056378 0.023320
endloop
endfacet
facet normal 0.757978 0.636019 -0.144740
outer loop
vertex -0.049031 0.096361 0.019465
vertex -0.048599 0.096723 0.023320
vertex -0.014746 0.056378 0.023320
endloop
endfacet
facet normal 0.757978 0.636018 -0.144744
outer loop
vertex -0.049031 0.096361 0.019465
vertex -0.014746 0.056378 0.023320
vertex -0.015178 0.056016 0.019465
endloop
endfacet
facet normal 0.731545 0.613840 -0.296720
outer loop
vertex -0.049917 0.095618 0.015744
vertex -0.049031 0.096361 0.019465
vertex -0.015178 0.056016 0.019465
endloop
endfacet
facet normal 0.731546 0.613840 -0.296717
outer loop
vertex -0.049917 0.095618 0.015744
vertex -0.015178 0.056016 0.019465
vertex -0.016063 0.055273 0.015744
endloop
endfacet
facet normal 0.687344 0.576751 -0.441494
outer loop
vertex -0.051234 0.094512 0.012248
vertex -0.049917 0.095618 0.015744
vertex -0.016063 0.055273 0.015744
endloop
endfacet
facet normal 0.687345 0.576751 -0.441491
outer loop
vertex -0.051234 0.094512 0.012248
vertex -0.016063 0.055273 0.015744
vertex -0.017381 0.054167 0.012248
endloop
endfacet
facet normal 0.626452 0.525656 -0.575538
outer loop
vertex -0.052952 0.093071 0.009062
vertex -0.051234 0.094512 0.012248
vertex -0.017381 0.054167 0.012248
endloop
endfacet
facet normal 0.626450 0.525654 -0.575541
outer loop
vertex -0.052952 0.093071 0.009062
vertex -0.017381 0.054167 0.012248
vertex -0.019099 0.052726 0.009062
endloop
endfacet
facet normal 0.550342 0.461791 -0.695610
outer loop
vertex -0.055028 0.091329 0.006263
vertex -0.052952 0.093071 0.009062
vertex -0.019099 0.052726 0.009062
endloop
endfacet
facet normal 0.550340 0.461790 -0.695612
outer loop
vertex -0.055028 0.091329 0.006263
vertex -0.019099 0.052726 0.009062
vertex -0.021175 0.050984 0.006263
endloop
endfacet
facet normal 0.460866 0.386713 -0.798784
outer loop
vertex -0.057412 0.089328 0.003919
vertex -0.055028 0.091329 0.006263
vertex -0.021175 0.050984 0.006263
endloop
endfacet
facet normal 0.460864 0.386711 -0.798786
outer loop
vertex -0.057412 0.089328 0.003919
vertex -0.021175 0.050984 0.006263
vertex -0.023559 0.048983 0.003919
endloop
endfacet
facet normal -0.766044 -0.642788 0.000000
outer loop
vertex 0.093900 -0.127463 0.000000
vertex 0.093900 -0.127463 0.002087
vertex -0.109221 0.114607 0.000000
endloop
endfacet
facet normal -0.766044 -0.642788 0.000000
outer loop
vertex -0.109221 0.114607 0.000000
vertex 0.093900 -0.127463 0.002087
vertex -0.109221 0.114607 0.002087
endloop
endfacet
facet normal -0.642787 0.766045 0.000000
outer loop
vertex -0.109221 0.114607 0.000000
vertex -0.109221 0.114607 0.002087
vertex -0.093900 0.127463 0.000000
endloop
endfacet
facet normal -0.642787 0.766045 0.000000
outer loop
vertex -0.093900 0.127463 0.000000
vertex -0.109221 0.114607 0.002087
vertex -0.093900 0.127463 0.002087
endloop
endfacet
facet normal -0.642787 0.766045 0.000000
outer loop
vertex -0.093900 0.127463 0.002087
vertex -0.109221 0.114607 0.002087
vertex -0.091336 0.129614 0.003861
endloop
endfacet
facet normal -0.642787 0.766045 0.000000
outer loop
vertex -0.091336 0.129614 0.003861
vertex -0.109221 0.114607 0.002087
vertex -0.089007 0.131569 0.006120
endloop
endfacet
facet normal -0.642787 0.766045 0.000008
outer loop
vertex -0.089007 0.131569 0.006120
vertex -0.109221 0.114607 0.002087
vertex -0.086966 0.133282 0.008813
endloop
endfacet
facet normal -0.642788 0.766044 0.000000
outer loop
vertex -0.086966 0.133282 0.008813
vertex -0.109221 0.114607 0.002087
vertex -0.085260 0.134713 0.011878
endloop
endfacet
facet normal -0.642787 0.766045 0.000000
outer loop
vertex -0.085260 0.134713 0.011878
vertex -0.109221 0.114607 0.002087
vertex -0.083928 0.135830 0.015243
endloop
endfacet
facet normal -0.642787 0.766045 -0.000005
outer loop
vertex -0.083928 0.135830 0.015243
vertex -0.109221 0.114607 0.002087
vertex -0.083001 0.136608 0.018833
endloop
endfacet
facet normal -0.642787 0.766045 0.000000
outer loop
vertex -0.083001 0.136608 0.018833
vertex -0.109221 0.114607 0.002087
vertex -0.082500 0.137028 0.022564
endloop
endfacet
facet normal -0.642786 0.766046 -0.000004
outer loop
vertex -0.082500 0.137028 0.022564
vertex -0.109221 0.114607 0.002087
vertex -0.082437 0.137081 0.026352
endloop
endfacet
facet normal -0.642789 0.766044 0.000000
outer loop
vertex -0.082437 0.137081 0.026352
vertex -0.109221 0.114607 0.002087
vertex -0.082813 0.136766 0.030108
endloop
endfacet
facet normal -0.642787 0.766045 0.000003
outer loop
vertex -0.082813 0.136766 0.030108
vertex -0.109221 0.114607 0.002087
vertex -0.083620 0.136089 0.033747
endloop
endfacet
facet normal -0.642789 0.766043 0.000000
outer loop
vertex -0.083620 0.136089 0.033747
vertex -0.109221 0.114607 0.002087
vertex -0.084838 0.135067 0.037185
endloop
endfacet
facet normal -0.642786 0.766046 0.000005
outer loop
vertex -0.084838 0.135067 0.037185
vertex -0.109221 0.114607 0.002087
vertex -0.086440 0.133722 0.040343
endloop
endfacet
facet normal -0.642789 0.766043 0.000000
outer loop
vertex -0.086440 0.133722 0.040343
vertex -0.109221 0.114607 0.002087
vertex -0.088390 0.132087 0.043149
endloop
endfacet
facet normal -0.642786 0.766045 -0.000003
outer loop
vertex -0.088390 0.132087 0.043149
vertex -0.109221 0.114607 0.002087
vertex -0.090642 0.130197 0.045539
endloop
endfacet
facet normal -0.642789 0.766044 -0.000001
outer loop
vertex -0.090642 0.130197 0.045539
vertex -0.109221 0.114607 0.002087
vertex -0.093144 0.128097 0.047456
endloop
endfacet
facet normal -0.642787 0.766045 0.000001
outer loop
vertex -0.093144 0.128097 0.047456
vertex -0.109221 0.114607 0.002087
vertex -0.095840 0.125835 0.048859
endloop
endfacet
facet normal -0.642788 0.766044 -0.000001
outer loop
vertex -0.095840 0.125835 0.048859
vertex -0.109221 0.114607 0.002087
vertex -0.111785 0.112456 0.003861
endloop
endfacet
facet normal -0.642789 0.766043 -0.000001
outer loop
vertex -0.095840 0.125835 0.048859
vertex -0.111785 0.112456 0.003861
vertex -0.114114 0.110501 0.006120
endloop
endfacet
facet normal -0.642787 0.766045 0.000000
outer loop
vertex -0.114114 0.110501 0.006120
vertex -0.116155 0.108789 0.008813
vertex -0.095840 0.125835 0.048859
endloop
endfacet
facet normal -0.642787 0.766045 0.000001
outer loop
vertex -0.095840 0.125835 0.048859
vertex -0.116155 0.108789 0.008813
vertex -0.117861 0.107357 0.011878
endloop
endfacet
facet normal -0.642787 0.766045 -0.000000
outer loop
vertex -0.095840 0.125835 0.048859
vertex -0.117861 0.107357 0.011878
vertex -0.119193 0.106240 0.015243
endloop
endfacet
facet normal -0.642786 0.766046 0.000000
outer loop
vertex -0.119193 0.106240 0.015243
vertex -0.120120 0.105462 0.018833
vertex -0.095840 0.125835 0.048859
endloop
endfacet
facet normal -0.642789 0.766043 -0.000001
outer loop
vertex -0.095840 0.125835 0.048859
vertex -0.120120 0.105462 0.018833
vertex -0.120620 0.105042 0.022564
endloop
endfacet
facet normal -0.642787 0.766045 0.000001
outer loop
vertex -0.095840 0.125835 0.048859
vertex -0.120620 0.105042 0.022564
vertex -0.120684 0.104989 0.026352
endloop
endfacet
facet normal -0.642788 0.766044 0.000000
outer loop
vertex -0.120684 0.104989 0.026352
vertex -0.120308 0.105304 0.030108
vertex -0.095840 0.125835 0.048859
endloop
endfacet
facet normal -0.642788 0.766044 0.000000
outer loop
vertex -0.095840 0.125835 0.048859
vertex -0.120308 0.105304 0.030108
vertex -0.098667 0.123463 0.049713
endloop
endfacet
facet normal -0.642789 0.766043 0.000008
outer loop
vertex -0.098667 0.123463 0.049713
vertex -0.120308 0.105304 0.030108
vertex -0.119501 0.105981 0.033747
endloop
endfacet
facet normal -0.642787 0.766045 -0.000003
outer loop
vertex -0.098667 0.123463 0.049713
vertex -0.119501 0.105981 0.033747
vertex -0.118283 0.107003 0.037185
endloop
endfacet
facet normal -0.642787 0.766045 0.000000
outer loop
vertex -0.118283 0.107003 0.037185
vertex -0.116681 0.108348 0.040343
vertex -0.098667 0.123463 0.049713
endloop
endfacet
facet normal -0.642786 0.766046 -0.000001
outer loop
vertex -0.098667 0.123463 0.049713
vertex -0.116681 0.108348 0.040343
vertex -0.114731 0.109983 0.043149
endloop
endfacet
facet normal -0.642789 0.766043 0.000000
outer loop
vertex -0.098667 0.123463 0.049713
vertex -0.114731 0.109983 0.043149
vertex -0.112479 0.111873 0.045539
endloop
endfacet
facet normal -0.642787 0.766045 0.000011
outer loop
vertex -0.112479 0.111873 0.045539
vertex -0.109977 0.113973 0.047456
vertex -0.098667 0.123463 0.049713
endloop
endfacet
facet normal -0.642788 0.766044 -0.000009
outer loop
vertex -0.098667 0.123463 0.049713
vertex -0.109977 0.113973 0.047456
vertex -0.107281 0.116235 0.048859
endloop
endfacet
facet normal -0.642786 0.766046 0.000000
outer loop
vertex -0.098667 0.123463 0.049713
vertex -0.107281 0.116235 0.048859
vertex -0.104454 0.118607 0.049713
endloop
endfacet
facet normal -0.642793 0.766040 0.000000
outer loop
vertex -0.104454 0.118607 0.049713
vertex -0.101560 0.121035 0.050000
vertex -0.098667 0.123463 0.049713
endloop
endfacet
facet normal 0.642787 -0.766045 0.000000
outer loop
vertex 0.093900 -0.127463 0.000000
vertex 0.109221 -0.114607 0.000000
vertex 0.093900 -0.127463 0.002087
endloop
endfacet
facet normal 0.642787 -0.766045 0.000000
outer loop
vertex 0.093900 -0.127463 0.002087
vertex 0.109221 -0.114607 0.000000
vertex 0.109221 -0.114607 0.002087
endloop
endfacet
facet normal 0.642787 -0.766045 0.000007
outer loop
vertex 0.093900 -0.127463 0.002087
vertex 0.109221 -0.114607 0.002087
vertex 0.111785 -0.112456 0.003861
endloop
endfacet
facet normal 0.642787 -0.766045 -0.000010
outer loop
vertex 0.111785 -0.112456 0.003861
vertex 0.114114 -0.110501 0.006120
vertex 0.093900 -0.127463 0.002087
endloop
endfacet
facet normal 0.642787 -0.766045 0.000011
outer loop
vertex 0.093900 -0.127463 0.002087
vertex 0.114114 -0.110501 0.006120
vertex 0.116155 -0.108789 0.008813
endloop
endfacet
facet normal 0.642788 -0.766044 -0.000005
outer loop
vertex 0.093900 -0.127463 0.002087
vertex 0.116155 -0.108789 0.008813
vertex 0.117861 -0.107357 0.011878
endloop
endfacet
facet normal 0.642788 -0.766044 0.000000
outer loop
vertex 0.117861 -0.107357 0.011878
vertex 0.119193 -0.106240 0.015243
vertex 0.093900 -0.127463 0.002087
endloop
endfacet
facet normal 0.642787 -0.766045 0.000000
outer loop
vertex 0.093900 -0.127463 0.002087
vertex 0.119193 -0.106240 0.015243
vertex 0.120120 -0.105462 0.018833
endloop
endfacet
facet normal 0.642787 -0.766045 -0.000001
outer loop
vertex 0.093900 -0.127463 0.002087
vertex 0.120120 -0.105462 0.018833
vertex 0.120620 -0.105042 0.022564
endloop
endfacet
facet normal 0.642788 -0.766044 0.000000
outer loop
vertex 0.120620 -0.105042 0.022564
vertex 0.120684 -0.104989 0.026352
vertex 0.093900 -0.127463 0.002087
endloop
endfacet
facet normal 0.642787 -0.766045 0.000001
outer loop
vertex 0.093900 -0.127463 0.002087
vertex 0.120684 -0.104989 0.026352
vertex 0.120308 -0.105304 0.030108
endloop
endfacet
facet normal 0.642786 -0.766046 0.000001
outer loop
vertex 0.093900 -0.127463 0.002087
vertex 0.120308 -0.105304 0.030108
vertex 0.119501 -0.105981 0.033747
endloop
endfacet
facet normal 0.642788 -0.766044 -0.000003
outer loop
vertex 0.119501 -0.105981 0.033747
vertex 0.118283 -0.107003 0.037185
vertex 0.093900 -0.127463 0.002087
endloop
endfacet
facet normal 0.642789 -0.766043 0.000002
outer loop
vertex 0.093900 -0.127463 0.002087
vertex 0.118283 -0.107003 0.037185
vertex 0.116681 -0.108348 0.040343
endloop
endfacet
facet normal 0.642784 -0.766047 0.000000
outer loop
vertex 0.093900 -0.127463 0.002087
vertex 0.116681 -0.108348 0.040343
vertex 0.114731 -0.109983 0.043149
endloop
endfacet
facet normal 0.642790 -0.766043 -0.000003
outer loop
vertex 0.114731 -0.109983 0.043149
vertex 0.112479 -0.111873 0.045539
vertex 0.093900 -0.127463 0.002087
endloop
endfacet
facet normal 0.642787 -0.766045 0.000001
outer loop
vertex 0.093900 -0.127463 0.002087
vertex 0.112479 -0.111873 0.045539
vertex 0.109977 -0.113973 0.047456
endloop
endfacet
facet normal 0.642788 -0.766044 -0.000001
outer loop
vertex 0.093900 -0.127463 0.002087
vertex 0.109977 -0.113973 0.047456
vertex 0.107281 -0.116235 0.048859
endloop
endfacet
facet normal 0.642788 -0.766044 0.000000
outer loop
vertex 0.104454 -0.118607 0.049713
vertex 0.082813 -0.136766 0.030108
vertex 0.107281 -0.116235 0.048859
endloop
endfacet
facet normal 0.642786 -0.766046 -0.000002
outer loop
vertex 0.107281 -0.116235 0.048859
vertex 0.082813 -0.136766 0.030108
vertex 0.082437 -0.137081 0.026352
endloop
endfacet
facet normal 0.642789 -0.766043 -0.000003
outer loop
vertex 0.107281 -0.116235 0.048859
vertex 0.082437 -0.137081 0.026352
vertex 0.082500 -0.137028 0.022564
endloop
endfacet
facet normal 0.642793 -0.766040 0.000000
outer loop
vertex 0.101560 -0.121035 0.050000
vertex 0.098667 -0.123463 0.049713
vertex 0.104454 -0.118607 0.049713
endloop
endfacet
facet normal 0.642784 -0.766047 0.000009
outer loop
vertex 0.104454 -0.118607 0.049713
vertex 0.098667 -0.123463 0.049713
vertex 0.095840 -0.125835 0.048859
endloop
endfacet
facet normal 0.642791 -0.766042 -0.000005
outer loop
vertex 0.104454 -0.118607 0.049713
vertex 0.095840 -0.125835 0.048859
vertex 0.093144 -0.128097 0.047456
endloop
endfacet
facet normal 0.642787 -0.766045 0.000011
outer loop
vertex 0.093144 -0.128097 0.047456
vertex 0.090642 -0.130197 0.045539
vertex 0.104454 -0.118607 0.049713
endloop
endfacet
facet normal 0.642789 -0.766043 -0.000009
outer loop
vertex 0.104454 -0.118607 0.049713
vertex 0.090642 -0.130197 0.045539
vertex 0.088390 -0.132087 0.043149
endloop
endfacet
facet normal 0.642786 -0.766046 0.000004
outer loop
vertex 0.104454 -0.118607 0.049713
vertex 0.088390 -0.132087 0.043149
vertex 0.086440 -0.133722 0.040343
endloop
endfacet
facet normal 0.642789 -0.766043 0.000000
outer loop
vertex 0.086440 -0.133722 0.040343
vertex 0.084838 -0.135067 0.037185
vertex 0.104454 -0.118607 0.049713
endloop
endfacet
facet normal 0.642784 -0.766047 0.000005
outer loop
vertex 0.104454 -0.118607 0.049713
vertex 0.084838 -0.135067 0.037185
vertex 0.083620 -0.136089 0.033747
endloop
endfacet
facet normal 0.642789 -0.766043 -0.000002
outer loop
vertex 0.104454 -0.118607 0.049713
vertex 0.083620 -0.136089 0.033747
vertex 0.082813 -0.136766 0.030108
endloop
endfacet
facet normal 0.642787 -0.766045 0.000000
outer loop
vertex 0.082500 -0.137028 0.022564
vertex 0.083001 -0.136608 0.018833
vertex 0.107281 -0.116235 0.048859
endloop
endfacet
facet normal 0.642791 -0.766042 -0.000001
outer loop
vertex 0.107281 -0.116235 0.048859
vertex 0.083001 -0.136608 0.018833
vertex 0.083928 -0.135830 0.015243
endloop
endfacet
facet normal 0.642785 -0.766046 0.000001
outer loop
vertex 0.107281 -0.116235 0.048859
vertex 0.083928 -0.135830 0.015243
vertex 0.085260 -0.134713 0.011878
endloop
endfacet
facet normal 0.642788 -0.766044 0.000000
outer loop
vertex 0.085260 -0.134713 0.011878
vertex 0.086966 -0.133281 0.008813
vertex 0.107281 -0.116235 0.048859
endloop
endfacet
facet normal 0.642788 -0.766044 0.000002
outer loop
vertex 0.107281 -0.116235 0.048859
vertex 0.086966 -0.133281 0.008813
vertex 0.089007 -0.131569 0.006120
endloop
endfacet
facet normal 0.642785 -0.766046 0.000002
outer loop
vertex 0.107281 -0.116235 0.048859
vertex 0.089007 -0.131569 0.006120
vertex 0.091336 -0.129614 0.003861
endloop
endfacet
facet normal 0.642791 -0.766042 -0.000002
outer loop
vertex 0.091336 -0.129614 0.003861
vertex 0.093900 -0.127463 0.002087
vertex 0.107281 -0.116235 0.048859
endloop
endfacet
solid cylinder
