solid cylinder
facet normal 0.000000 0.000000 -1.000000
outer loop
vertex 0.087660 -0.131832 0.000000
vertex 0.070340 -0.141832 0.000000
vertex -0.070340 0.141832 0.000000
endloop
endfacet
facet normal 0.000000 0.000000 -1.000000
outer loop
vertex -0.070340 0.141832 0.000000
vertex 0.070340 -0.141832 0.000000
vertex -0.087660 0.131832 0.000000
endloop
endfacet
facet normal 0.866025 0.500000 0.000000
outer loop
vertex 0.087660 -0.131832 0.002087
vertex 0.087660 -0.131832 0.000000
vertex -0.070340 0.141832 0.002087
endloop
endfacet
facet normal 0.866025 0.500000 0.000000
outer loop
vertex -0.070340 0.141832 0.002087
vertex 0.087660 -0.131832 0.000000
vertex -0.070340 0.141832 0.000000
endloop
endfacet
facet normal -0.405629 -0.234004 -0.883577
outer loop
vertex 0.067441 -0.143506 0.003861
vertex 0.041029 -0.097941 0.003919
vertex 0.070340 -0.141832 0.002087
endloop
endfacet
facet normal -0.407210 -0.235103 -0.882557
outer loop
vertex 0.070340 -0.141832 0.002087
vertex 0.041029 -0.097941 0.003919
vertex 0.014695 -0.052330 0.003919
endloop
endfacet
facet normal -0.407204 -0.235099 -0.882561
outer loop
vertex 0.070340 -0.141832 0.002087
vertex 0.014695 -0.052330 0.003919
vertex -0.011638 -0.006719 0.003919
endloop
endfacet
facet normal -0.521015 -0.300808 -0.798785
outer loop
vertex -0.011638 -0.006719 0.003919
vertex 0.014695 -0.052330 0.003919
vertex -0.014333 -0.008275 0.006263
endloop
endfacet
facet normal -0.521015 -0.300808 -0.798785
outer loop
vertex -0.011638 -0.006719 0.003919
vertex -0.014333 -0.008275 0.006263
vertex -0.040667 0.037335 0.006263
endloop
endfacet
facet normal -0.622170 -0.359210 -0.695610
outer loop
vertex -0.040667 0.037335 0.006263
vertex -0.014333 -0.008275 0.006263
vertex -0.043014 0.035980 0.009062
endloop
endfacet
facet normal -0.622170 -0.359210 -0.695610
outer loop
vertex -0.040667 0.037335 0.006263
vertex -0.043014 0.035980 0.009062
vertex -0.069347 0.081591 0.009062
endloop
endfacet
facet normal -0.708213 -0.408887 -0.575539
outer loop
vertex -0.069347 0.081591 0.009062
vertex -0.043014 0.035980 0.009062
vertex -0.071289 0.080470 0.012248
endloop
endfacet
facet normal -0.707928 -0.409381 -0.575539
outer loop
vertex -0.069347 0.081591 0.009062
vertex -0.071289 0.080470 0.012248
vertex -0.097428 0.126192 0.011878
endloop
endfacet
facet normal -0.769729 -0.443766 -0.458901
outer loop
vertex -0.097428 0.126192 0.011878
vertex -0.071289 0.080470 0.012248
vertex -0.098934 0.125323 0.015243
endloop
endfacet
facet normal -0.776709 -0.449230 -0.441493
outer loop
vertex -0.098934 0.125323 0.015243
vertex -0.071289 0.080470 0.012248
vertex -0.072779 0.079610 0.015744
endloop
endfacet
facet normal -0.821000 -0.473233 -0.319390
outer loop
vertex -0.098934 0.125323 0.015243
vertex -0.072779 0.079610 0.015744
vertex -0.099982 0.124718 0.018833
endloop
endfacet
facet normal -0.826623 -0.478176 -0.296719
outer loop
vertex -0.099982 0.124718 0.018833
vertex -0.072779 0.079610 0.015744
vertex -0.073780 0.079032 0.019465
endloop
endfacet
facet normal -0.853422 -0.491829 -0.172553
outer loop
vertex -0.099982 0.124718 0.018833
vertex -0.073780 0.079032 0.019465
vertex -0.100548 0.124392 0.022564
endloop
endfacet
facet normal -0.856453 -0.495518 -0.144743
outer loop
vertex -0.100548 0.124392 0.022564
vertex -0.073780 0.079032 0.019465
vertex -0.074268 0.078750 0.023320
endloop
endfacet
facet normal -0.866257 -0.499125 -0.021744
outer loop
vertex -0.100548 0.124392 0.022564
vertex -0.074268 0.078750 0.023320
vertex -0.100619 0.124350 0.026352
endloop
endfacet
facet normal -0.865476 -0.500834 0.010754
outer loop
vertex -0.100619 0.124350 0.026352
vertex -0.074268 0.078750 0.023320
vertex -0.074232 0.078771 0.027216
endloop
endfacet
facet normal -0.859207 -0.494953 0.129556
outer loop
vertex -0.100619 0.124350 0.026352
vertex -0.074232 0.078771 0.027216
vertex -0.100194 0.124596 0.030108
endloop
endfacet
facet normal -0.853470 -0.494001 0.165986
outer loop
vertex -0.100194 0.124596 0.030108
vertex -0.074232 0.078771 0.027216
vertex -0.073672 0.079094 0.031058
endloop
endfacet
facet normal -0.832437 -0.479403 0.277886
outer loop
vertex -0.100194 0.124596 0.030108
vertex -0.073672 0.079094 0.031058
vertex -0.099282 0.125122 0.033747
endloop
endfacet
facet normal -0.820727 -0.475185 0.317187
outer loop
vertex -0.099282 0.125122 0.033747
vertex -0.073672 0.079094 0.031058
vertex -0.072602 0.079712 0.034753
endloop
endfacet
facet normal -0.786560 -0.452835 0.419837
outer loop
vertex -0.099282 0.125122 0.033747
vertex -0.072602 0.079712 0.034753
vertex -0.097905 0.125917 0.037185
endloop
endfacet
facet normal -0.768040 -0.444843 0.460684
outer loop
vertex -0.097905 0.125917 0.037185
vertex -0.072602 0.079712 0.034753
vertex -0.071047 0.080609 0.038211
endloop
endfacet
facet normal -0.722636 -0.415855 0.552143
outer loop
vertex -0.097905 0.125917 0.037185
vertex -0.071047 0.080609 0.038211
vertex -0.096094 0.126963 0.040343
endloop
endfacet
facet normal -0.696687 -0.403715 0.592993
outer loop
vertex -0.096094 0.126963 0.040343
vertex -0.071047 0.080609 0.038211
vertex -0.069046 0.081764 0.041348
endloop
endfacet
facet normal -0.642124 -0.369311 0.671778
outer loop
vertex -0.096094 0.126963 0.040343
vertex -0.069046 0.081764 0.041348
vertex -0.093890 0.128235 0.043149
endloop
endfacet
facet normal -0.608405 -0.352800 0.710898
outer loop
vertex -0.093890 0.128235 0.043149
vertex -0.069046 0.081764 0.041348
vertex -0.066648 0.083149 0.044088
endloop
endfacet
facet normal -0.546884 -0.314272 0.775984
outer loop
vertex -0.093890 0.128235 0.043149
vertex -0.066648 0.083149 0.044088
vertex -0.091344 0.129705 0.045539
endloop
endfacet
facet normal -0.505331 -0.293338 0.811538
outer loop
vertex -0.091344 0.129705 0.045539
vertex -0.066648 0.083149 0.044088
vertex -0.063910 0.084730 0.046365
endloop
endfacet
facet normal -0.439093 -0.251998 0.862377
outer loop
vertex -0.091344 0.129705 0.045539
vertex -0.063910 0.084730 0.046365
vertex -0.088515 0.131339 0.047456
endloop
endfacet
facet normal -0.389974 -0.226773 0.892465
outer loop
vertex -0.088515 0.131339 0.047456
vertex -0.063910 0.084730 0.046365
vertex -0.060898 0.086469 0.048123
endloop
endfacet
facet normal -0.321234 -0.183921 0.928968
outer loop
vertex -0.088515 0.131339 0.047456
vertex -0.060898 0.086469 0.048123
vertex -0.085467 0.133098 0.048859
endloop
endfacet
facet normal -0.265129 -0.154720 0.951719
outer loop
vertex -0.085467 0.133098 0.048859
vertex -0.060898 0.086469 0.048123
vertex -0.057687 0.088323 0.049319
endloop
endfacet
facet normal -0.196011 -0.111601 0.974230
outer loop
vertex -0.085467 0.133098 0.048859
vertex -0.057687 0.088323 0.049319
vertex -0.082271 0.134943 0.049713
endloop
endfacet
facet normal -0.133837 -0.078932 0.987855
outer loop
vertex -0.082271 0.134943 0.049713
vertex -0.057687 0.088323 0.049319
vertex -0.054354 0.090247 0.049924
endloop
endfacet
facet normal -0.066294 -0.036701 0.997125
outer loop
vertex -0.082271 0.134943 0.049713
vertex -0.054354 0.090247 0.049924
vertex -0.079000 0.136832 0.050000
endloop
endfacet
facet normal 0.000723 -0.001250 0.999999
outer loop
vertex -0.079000 0.136832 0.050000
vertex -0.054354 0.090247 0.049924
vertex -0.050980 0.092195 0.049924
endloop
endfacet
facet normal 0.064931 0.039062 0.997125
outer loop
vertex -0.079000 0.136832 0.050000
vertex -0.050980 0.092195 0.049924
vertex -0.075729 0.138721 0.049713
endloop
endfacet
facet normal 0.135276 0.076439 0.987855
outer loop
vertex -0.075729 0.138721 0.049713
vertex -0.050980 0.092195 0.049924
vertex -0.047646 0.094120 0.049319
endloop
endfacet
facet normal 0.194653 0.113948 0.974231
outer loop
vertex -0.075729 0.138721 0.049713
vertex -0.047646 0.094120 0.049319
vertex -0.072533 0.140566 0.048859
endloop
endfacet
facet normal 0.266558 0.152251 0.951718
outer loop
vertex -0.072533 0.140566 0.048859
vertex -0.047646 0.094120 0.049319
vertex -0.044435 0.095974 0.048123
endloop
endfacet
facet normal 0.319896 0.186235 0.928969
outer loop
vertex -0.072533 0.140566 0.048859
vertex -0.044435 0.095974 0.048123
vertex -0.069485 0.142325 0.047456
endloop
endfacet
facet normal 0.391376 0.224342 0.892466
outer loop
vertex -0.069485 0.142325 0.047456
vertex -0.044435 0.095974 0.048123
vertex -0.041424 0.097712 0.046365
endloop
endfacet
facet normal 0.437783 0.254266 0.862377
outer loop
vertex -0.069485 0.142325 0.047456
vertex -0.041424 0.097712 0.046365
vertex -0.066656 0.143959 0.045539
endloop
endfacet
facet normal 0.506704 0.290961 0.811538
outer loop
vertex -0.066656 0.143959 0.045539
vertex -0.041424 0.097712 0.046365
vertex -0.038686 0.099293 0.044088
endloop
endfacet
facet normal 0.545608 0.316479 0.775985
outer loop
vertex -0.066656 0.143959 0.045539
vertex -0.038686 0.099293 0.044088
vertex -0.064110 0.145429 0.043149
endloop
endfacet
facet normal 0.609738 0.350493 0.710897
outer loop
vertex -0.064110 0.145429 0.043149
vertex -0.038686 0.099293 0.044088
vertex -0.036287 0.100678 0.041348
endloop
endfacet
facet normal 0.640894 0.371440 0.671779
outer loop
vertex -0.064110 0.145429 0.043149
vertex -0.036287 0.100678 0.041348
vertex -0.061906 0.146701 0.040343
endloop
endfacet
facet normal 0.697971 0.401493 0.592993
outer loop
vertex -0.061906 0.146701 0.040343
vertex -0.036287 0.100678 0.041348
vertex -0.034286 0.101833 0.038211
endloop
endfacet
facet normal 0.721460 0.417892 0.552143
outer loop
vertex -0.061906 0.146701 0.040343
vertex -0.034286 0.101833 0.038211
vertex -0.060095 0.147747 0.037185
endloop
endfacet
facet normal 0.769265 0.442721 0.460683
outer loop
vertex -0.060095 0.147747 0.037185
vertex -0.034286 0.101833 0.038211
vertex -0.032732 0.102731 0.034753
endloop
endfacet
facet normal 0.785448 0.454765 0.419833
outer loop
vertex -0.060095 0.147747 0.037185
vertex -0.032732 0.102731 0.034753
vertex -0.058718 0.148542 0.033747
endloop
endfacet
facet normal 0.821884 0.473178 0.317190
outer loop
vertex -0.058718 0.148542 0.033747
vertex -0.032732 0.102731 0.034753
vertex -0.031661 0.103349 0.031058
endloop
endfacet
facet normal 0.831395 0.481209 0.277886
outer loop
vertex -0.058718 0.148542 0.033747
vertex -0.031661 0.103349 0.031058
vertex -0.057806 0.149068 0.030108
endloop
endfacet
facet normal 0.854553 0.492126 0.165985
outer loop
vertex -0.057806 0.149068 0.030108
vertex -0.031661 0.103349 0.031058
vertex -0.031101 0.103672 0.027216
endloop
endfacet
facet normal 0.858244 0.496619 0.129560
outer loop
vertex -0.057806 0.149068 0.030108
vertex -0.031101 0.103672 0.027216
vertex -0.057381 0.149314 0.026352
endloop
endfacet
facet normal 0.866474 0.499107 0.010752
outer loop
vertex -0.057381 0.149314 0.026352
vertex -0.031101 0.103672 0.027216
vertex -0.031065 0.103693 0.023320
endloop
endfacet
facet normal 0.865384 0.500637 -0.021744
outer loop
vertex -0.057381 0.149314 0.026352
vertex -0.031065 0.103693 0.023320
vertex -0.057452 0.149273 0.022564
endloop
endfacet
facet normal 0.857357 0.493951 -0.144744
outer loop
vertex -0.057452 0.149273 0.022564
vertex -0.031065 0.103693 0.023320
vertex -0.031553 0.103411 0.019465
endloop
endfacet
facet normal 0.852648 0.493171 -0.172549
outer loop
vertex -0.057452 0.149273 0.022564
vertex -0.031553 0.103411 0.019465
vertex -0.058018 0.148946 0.018833
endloop
endfacet
facet normal 0.827424 0.476788 -0.296722
outer loop
vertex -0.058018 0.148946 0.018833
vertex -0.031553 0.103411 0.019465
vertex -0.032555 0.102833 0.015744
endloop
endfacet
facet normal 0.820332 0.474389 -0.319390
outer loop
vertex -0.058018 0.148946 0.018833
vertex -0.032555 0.102833 0.015744
vertex -0.059066 0.148341 0.015243
endloop
endfacet
facet normal 0.777399 0.448034 -0.441493
outer loop
vertex -0.059066 0.148341 0.015243
vertex -0.032555 0.102833 0.015744
vertex -0.034044 0.101973 0.012248
endloop
endfacet
facet normal 0.769177 0.444722 -0.458901
outer loop
vertex -0.059066 0.148341 0.015243
vertex -0.034044 0.101973 0.012248
vertex -0.060572 0.147472 0.011878
endloop
endfacet
facet normal 0.708498 0.408393 -0.575540
outer loop
vertex -0.060572 0.147472 0.011878
vertex -0.034044 0.101973 0.012248
vertex -0.035986 0.100852 0.009062
endloop
endfacet
facet normal 0.700357 0.404845 -0.587879
outer loop
vertex -0.060572 0.147472 0.011878
vertex -0.035986 0.100852 0.009062
vertex -0.062500 0.146358 0.008813
endloop
endfacet
facet normal 0.622390 0.358828 -0.695610
outer loop
vertex -0.062500 0.146358 0.008813
vertex -0.035986 0.100852 0.009062
vertex -0.038333 0.099497 0.006263
endloop
endfacet
facet normal 0.615460 0.355676 -0.703352
outer loop
vertex -0.062500 0.146358 0.008813
vertex -0.038333 0.099497 0.006263
vertex -0.064808 0.145026 0.006120
endloop
endfacet
facet normal 0.521166 0.300546 -0.798785
outer loop
vertex -0.064808 0.145026 0.006120
vertex -0.038333 0.099497 0.006263
vertex -0.041029 0.097941 0.003919
endloop
endfacet
facet normal 0.516432 0.298337 -0.802679
outer loop
vertex -0.064808 0.145026 0.006120
vertex -0.041029 0.097941 0.003919
vertex -0.067441 0.143506 0.003861
endloop
endfacet
facet normal 0.405629 0.234005 -0.883576
outer loop
vertex -0.067441 0.143506 0.003861
vertex -0.041029 0.097941 0.003919
vertex -0.070340 0.141832 0.002087
endloop
endfacet
facet normal 0.407207 0.235101 -0.882559
outer loop
vertex -0.070340 0.141832 0.002087
vertex -0.041029 0.097941 0.003919
vertex -0.014695 0.052330 0.003919
endloop
endfacet
facet normal 0.407206 0.235100 -0.882560
outer loop
vertex -0.070340 0.141832 0.002087
vertex -0.014695 0.052330 0.003919
vertex 0.011638 0.006719 0.003919
endloop
endfacet
facet normal 0.521015 0.300808 -0.798785
outer loop
vertex 0.011638 0.006719 0.003919
vertex -0.014695 0.052330 0.003919
vertex 0.014333 0.008275 0.006263
endloop
endfacet
facet normal 0.521015 0.300808 -0.798785
outer loop
vertex 0.011638 0.006719 0.003919
vertex 0.014333 0.008275 0.006263
vertex 0.040667 -0.037335 0.006263
endloop
endfacet
facet normal 0.622170 0.359210 -0.695610
outer loop
vertex 0.040667 -0.037335 0.006263
vertex 0.014333 0.008275 0.006263
vertex 0.043014 -0.035980 0.009062
endloop
endfacet
facet normal 0.622170 0.359210 -0.695609
outer loop
vertex 0.040667 -0.037335 0.006263
vertex 0.043014 -0.035980 0.009062
vertex 0.069347 -0.081591 0.009062
endloop
endfacet
facet normal 0.708214 0.408887 -0.575539
outer loop
vertex 0.069347 -0.081591 0.009062
vertex 0.043014 -0.035980 0.009062
vertex 0.071289 -0.080470 0.012248
endloop
endfacet
facet normal 0.707928 0.409381 -0.575539
outer loop
vertex 0.069347 -0.081591 0.009062
vertex 0.071289 -0.080470 0.012248
vertex 0.097428 -0.126192 0.011878
endloop
endfacet
facet normal 0.769728 0.443765 -0.458903
outer loop
vertex 0.097428 -0.126192 0.011878
vertex 0.071289 -0.080470 0.012248
vertex 0.098934 -0.125323 0.015243
endloop
endfacet
facet normal 0.776709 0.449230 -0.441492
outer loop
vertex 0.098934 -0.125323 0.015243
vertex 0.071289 -0.080470 0.012248
vertex 0.072779 -0.079610 0.015744
endloop
endfacet
facet normal 0.820999 0.473233 -0.319393
outer loop
vertex 0.098934 -0.125323 0.015243
vertex 0.072779 -0.079610 0.015744
vertex 0.099982 -0.124718 0.018833
endloop
endfacet
facet normal 0.826623 0.478177 -0.296717
outer loop
vertex 0.099982 -0.124718 0.018833
vertex 0.072779 -0.079610 0.015744
vertex 0.073780 -0.079032 0.019465
endloop
endfacet
facet normal 0.853423 0.491829 -0.172553
outer loop
vertex 0.099982 -0.124718 0.018833
vertex 0.073780 -0.079032 0.019465
vertex 0.100548 -0.124391 0.022564
endloop
endfacet
facet normal 0.856453 0.495518 -0.144743
outer loop
vertex 0.100548 -0.124391 0.022564
vertex 0.073780 -0.079032 0.019465
vertex 0.074268 -0.078750 0.023320
endloop
endfacet
facet normal 0.866257 0.499125 -0.021744
outer loop
vertex 0.100548 -0.124391 0.022564
vertex 0.074268 -0.078750 0.023320
vertex 0.100619 -0.124350 0.026352
endloop
endfacet
facet normal 0.865476 0.500834 0.010754
outer loop
vertex 0.100619 -0.124350 0.026352
vertex 0.074268 -0.078750 0.023320
vertex 0.074232 -0.078771 0.027216
endloop
endfacet
facet normal 0.859207 0.494953 0.129556
outer loop
vertex 0.100619 -0.124350 0.026352
vertex 0.074232 -0.078771 0.027216
vertex 0.100194 -0.124596 0.030108
endloop
endfacet
facet normal 0.853470 0.494001 0.165986
outer loop
vertex 0.100194 -0.124596 0.030108
vertex 0.074232 -0.078771 0.027216
vertex 0.073672 -0.079094 0.031058
endloop
endfacet
facet normal 0.832438 0.479404 0.277883
outer loop
vertex 0.100194 -0.124596 0.030108
vertex 0.073672 -0.079094 0.031058
vertex 0.099282 -0.125122 0.033747
endloop
endfacet
facet normal 0.820726 0.475184 0.317189
outer loop
vertex 0.099282 -0.125122 0.033747
vertex 0.073672 -0.079094 0.031058
vertex 0.072602 -0.079712 0.034753
endloop
endfacet
facet normal 0.786560 0.452835 0.419837
outer loop
vertex 0.099282 -0.125122 0.033747
vertex 0.072602 -0.079712 0.034753
vertex 0.097905 -0.125917 0.037185
endloop
endfacet
facet normal 0.768040 0.444843 0.460683
outer loop
vertex 0.097905 -0.125917 0.037185
vertex 0.072602 -0.079712 0.034753
vertex 0.071047 -0.080609 0.038211
endloop
endfacet
facet normal 0.722635 0.415855 0.552145
outer loop
vertex 0.097905 -0.125917 0.037185
vertex 0.071047 -0.080609 0.038211
vertex 0.096094 -0.126963 0.040343
endloop
endfacet
facet normal 0.696688 0.403715 0.592992
outer loop
vertex 0.096094 -0.126963 0.040343
vertex 0.071047 -0.080609 0.038211
vertex 0.069046 -0.081764 0.041348
endloop
endfacet
facet normal 0.642123 0.369310 0.671779
outer loop
vertex 0.096094 -0.126963 0.040343
vertex 0.069046 -0.081764 0.041348
vertex 0.093890 -0.128235 0.043149
endloop
endfacet
facet normal 0.608406 0.352801 0.710897
outer loop
vertex 0.093890 -0.128235 0.043149
vertex 0.069046 -0.081764 0.041348
vertex 0.066648 -0.083149 0.044088
endloop
endfacet
facet normal 0.546885 0.314272 0.775983
outer loop
vertex 0.093890 -0.128235 0.043149
vertex 0.066648 -0.083149 0.044088
vertex 0.091344 -0.129705 0.045539
endloop
endfacet
facet normal 0.505331 0.293338 0.811538
outer loop
vertex 0.091344 -0.129705 0.045539
vertex 0.066648 -0.083149 0.044088
vertex 0.063910 -0.084730 0.046365
endloop
endfacet
facet normal 0.439093 0.251998 0.862377
outer loop
vertex 0.091344 -0.129705 0.045539
vertex 0.063910 -0.084730 0.046365
vertex 0.088515 -0.131339 0.047456
endloop
endfacet
facet normal 0.389973 0.226772 0.892466
outer loop
vertex 0.088515 -0.131339 0.047456
vertex 0.063910 -0.084730 0.046365
vertex 0.060898 -0.086469 0.048123
endloop
endfacet
facet normal 0.321232 0.183920 0.928969
outer loop
vertex 0.088515 -0.131339 0.047456
vertex 0.060898 -0.086469 0.048123
vertex 0.085467 -0.133098 0.048859
endloop
endfacet
facet normal 0.265131 0.154720 0.951718
outer loop
vertex 0.085467 -0.133098 0.048859
vertex 0.060898 -0.086469 0.048123
vertex 0.057687 -0.088323 0.049319
endloop
endfacet
facet normal 0.196010 0.111601 0.974230
outer loop
vertex 0.085467 -0.133098 0.048859
vertex 0.057687 -0.088323 0.049319
vertex 0.082271 -0.134943 0.049713
endloop
endfacet
facet normal 0.133836 0.078932 0.987855
outer loop
vertex 0.082271 -0.134943 0.049713
vertex 0.057687 -0.088323 0.049319
vertex 0.054354 -0.090247 0.049924
endloop
endfacet
facet normal 0.066294 0.036701 0.997125
outer loop
vertex 0.082271 -0.134943 0.049713
vertex 0.054354 -0.090247 0.049924
vertex 0.079000 -0.136832 0.050000
endloop
endfacet
facet normal -0.000723 0.001250 0.999999
outer loop
vertex 0.079000 -0.136832 0.050000
vertex 0.054354 -0.090247 0.049924
vertex 0.050980 -0.092195 0.049924
endloop
endfacet
facet normal -0.064931 -0.039062 0.997125
outer loop
vertex 0.079000 -0.136832 0.050000
vertex 0.050980 -0.092195 0.049924
vertex 0.075729 -0.138721 0.049713
endloop
endfacet
facet normal -0.135276 -0.076440 0.987855
outer loop
vertex 0.075729 -0.138721 0.049713
vertex 0.050980 -0.092195 0.049924
vertex 0.047646 -0.094120 0.049319
endloop
endfacet
facet normal -0.194652 -0.113947 0.974231
outer loop
vertex 0.075729 -0.138721 0.049713
vertex 0.047646 -0.094120 0.049319
vertex 0.072533 -0.140566 0.048859
endloop
endfacet
facet normal -0.266556 -0.152251 0.951718
outer loop
vertex 0.072533 -0.140566 0.048859
vertex 0.047646 -0.094120 0.049319
vertex 0.044435 -0.095974 0.048123
endloop
endfacet
facet normal -0.319899 -0.186235 0.928968
outer loop
vertex 0.072533 -0.140566 0.048859
vertex 0.044435 -0.095974 0.048123
vertex 0.069485 -0.142325 0.047456
endloop
endfacet
facet normal -0.391377 -0.224342 0.892465
outer loop
vertex 0.069485 -0.142325 0.047456
vertex 0.044435 -0.095974 0.048123
vertex 0.041424 -0.097712 0.046365
endloop
endfacet
facet normal -0.437783 -0.254266 0.862377
outer loop
vertex 0.069485 -0.142325 0.047456
vertex 0.041424 -0.097712 0.046365
vertex 0.066656 -0.143959 0.045539
endloop
endfacet
facet normal -0.506704 -0.290961 0.811537
outer loop
vertex 0.066656 -0.143959 0.045539
vertex 0.041424 -0.097712 0.046365
vertex 0.038686 -0.099293 0.044088
endloop
endfacet
facet normal -0.545607 -0.316478 0.775986
outer loop
vertex 0.066656 -0.143959 0.045539
vertex 0.038686 -0.099293 0.044088
vertex 0.064110 -0.145429 0.043149
endloop
endfacet
facet normal -0.609739 -0.350493 0.710896
outer loop
vertex 0.064110 -0.145429 0.043149
vertex 0.038686 -0.099293 0.044088
vertex 0.036287 -0.100678 0.041348
endloop
endfacet
facet normal -0.640894 -0.371440 0.671779
outer loop
vertex 0.064110 -0.145429 0.043149
vertex 0.036287 -0.100678 0.041348
vertex 0.061906 -0.146701 0.040343
endloop
endfacet
facet normal -0.697970 -0.401493 0.592993
outer loop
vertex 0.061906 -0.146701 0.040343
vertex 0.036287 -0.100678 0.041348
vertex 0.034286 -0.101833 0.038211
endloop
endfacet
facet normal -0.721459 -0.417892 0.552145
outer loop
vertex 0.061906 -0.146701 0.040343
vertex 0.034286 -0.101833 0.038211
vertex 0.060095 -0.147747 0.037185
endloop
endfacet
facet normal -0.769266 -0.442722 0.460682
outer loop
vertex 0.060095 -0.147747 0.037185
vertex 0.034286 -0.101833 0.038211
vertex 0.032732 -0.102731 0.034753
endloop
endfacet
facet normal -0.785448 -0.454764 0.419835
outer loop
vertex 0.060095 -0.147747 0.037185
vertex 0.032732 -0.102731 0.034753
vertex 0.058718 -0.148542 0.033747
endloop
endfacet
facet normal -0.821885 -0.473178 0.317188
outer loop
vertex 0.058718 -0.148542 0.033747
vertex 0.032732 -0.102731 0.034753
vertex 0.031661 -0.103349 0.031058
endloop
endfacet
facet normal -0.831395 -0.481209 0.277886
outer loop
vertex 0.058718 -0.148542 0.033747
vertex 0.031661 -0.103349 0.031058
vertex 0.057806 -0.149068 0.030108
endloop
endfacet
facet normal -0.854553 -0.492126 0.165986
outer loop
vertex 0.057806 -0.149068 0.030108
vertex 0.031661 -0.103349 0.031058
vertex 0.031101 -0.103672 0.027216
endloop
endfacet
facet normal -0.858245 -0.496620 0.129556
outer loop
vertex 0.057806 -0.149068 0.030108
vertex 0.031101 -0.103672 0.027216
vertex 0.057381 -0.149314 0.026352
endloop
endfacet
facet normal -0.866474 -0.499107 0.010754
outer loop
vertex 0.057381 -0.149314 0.026352
vertex 0.031101 -0.103672 0.027216
vertex 0.031065 -0.103693 0.023320
endloop
endfacet
facet normal -0.865384 -0.500637 -0.021744
outer loop
vertex 0.057381 -0.149314 0.026352
vertex 0.031065 -0.103693 0.023320
vertex 0.057452 -0.149273 0.022564
endloop
endfacet
facet normal -0.857357 -0.493951 -0.144744
outer loop
vertex 0.057452 -0.149273 0.022564
vertex 0.031065 -0.103693 0.023320
vertex 0.031553 -0.103411 0.019465
endloop
endfacet
facet normal -0.852648 -0.493171 -0.172551
outer loop
vertex 0.057452 -0.149273 0.022564
vertex 0.031553 -0.103411 0.019465
vertex 0.058018 -0.148946 0.018833
endloop
endfacet
facet normal -0.827424 -0.476788 -0.296719
outer loop
vertex 0.058018 -0.148946 0.018833
vertex 0.031553 -0.103411 0.019465
vertex 0.032555 -0.102833 0.015744
endloop
endfacet
facet normal -0.820332 -0.474389 -0.319390
outer loop
vertex 0.058018 -0.148946 0.018833
vertex 0.032555 -0.102833 0.015744
vertex 0.059066 -0.148341 0.015243
endloop
endfacet
facet normal -0.777399 -0.448034 -0.441493
outer loop
vertex 0.059066 -0.148341 0.015243
vertex 0.032555 -0.102833 0.015744
vertex 0.034044 -0.101973 0.012248
endloop
endfacet
facet normal -0.769176 -0.444721 -0.458903
outer loop
vertex 0.059066 -0.148341 0.015243
vertex 0.034044 -0.101973 0.012248
vertex 0.060572 -0.147472 0.011878
endloop
endfacet
facet normal -0.708499 -0.408393 -0.575539
outer loop
vertex 0.060572 -0.147472 0.011878
vertex 0.034044 -0.101973 0.012248
vertex 0.035986 -0.100852 0.009062
endloop
endfacet
facet normal -0.700358 -0.404845 -0.587877
outer loop
vertex 0.060572 -0.147472 0.011878
vertex 0.035986 -0.100852 0.009062
vertex 0.062500 -0.146358 0.008813
endloop
endfacet
facet normal -0.622389 -0.358828 -0.695611
outer loop
vertex 0.062500 -0.146358 0.008813
vertex 0.035986 -0.100852 0.009062
vertex 0.038333 -0.099497 0.006263
endloop
endfacet
facet normal -0.615460 -0.355676 -0.703352
outer loop
vertex 0.062500 -0.146358 0.008813
vertex 0.038333 -0.099497 0.006263
vertex 0.064808 -0.145026 0.006120
endloop
endfacet
facet normal -0.521166 -0.300546 -0.798785
outer loop
vertex 0.064808 -0.145026 0.006120
vertex 0.038333 -0.099497 0.006263
vertex 0.041029 -0.097941 0.003919
endloop
endfacet
facet normal -0.516433 -0.298337 -0.802678
outer loop
vertex 0.064808 -0.145026 0.006120
vertex 0.041029 -0.097941 0.003919
vertex 0.067441 -0.143506 0.003861
endloop
endfacet
facet normal 0.700785 0.404105 -0.587877
outer loop
vertex 0.097428 -0.126192 0.011878
vertex 0.095500 -0.127306 0.008813
vertex 0.069347 -0.081591 0.009062
endloop
endfacet
facet normal 0.621949 0.359592 -0.695610
outer loop
vertex 0.069347 -0.081591 0.009062
vertex 0.095500 -0.127306 0.008813
vertex 0.067000 -0.082946 0.006263
endloop
endfacet
facet normal 0.622170 0.359209 -0.695610
outer loop
vertex 0.069347 -0.081591 0.009062
vertex 0.067000 -0.082946 0.006263
vertex 0.040667 -0.037335 0.006263
endloop
endfacet
facet normal 0.521015 0.300808 -0.798785
outer loop
vertex 0.040667 -0.037335 0.006263
vertex 0.067000 -0.082946 0.006263
vertex 0.037971 -0.038891 0.003919
endloop
endfacet
facet normal 0.521015 0.300808 -0.798785
outer loop
vertex 0.040667 -0.037335 0.006263
vertex 0.037971 -0.038891 0.003919
vertex 0.011638 0.006719 0.003919
endloop
endfacet
facet normal 0.407207 0.235101 -0.882559
outer loop
vertex 0.011638 0.006719 0.003919
vertex 0.037971 -0.038891 0.003919
vertex -0.070340 0.141832 0.002087
endloop
endfacet
facet normal 0.615753 0.355166 -0.703353
outer loop
vertex 0.095500 -0.127306 0.008813
vertex 0.093192 -0.128638 0.006120
vertex 0.067000 -0.082946 0.006263
endloop
endfacet
facet normal 0.520863 0.301070 -0.798785
outer loop
vertex 0.067000 -0.082946 0.006263
vertex 0.093192 -0.128638 0.006120
vertex 0.064305 -0.084502 0.003919
endloop
endfacet
facet normal 0.521015 0.300808 -0.798786
outer loop
vertex 0.067000 -0.082946 0.006263
vertex 0.064305 -0.084502 0.003919
vertex 0.037971 -0.038891 0.003919
endloop
endfacet
facet normal 0.407207 0.235101 -0.882559
outer loop
vertex 0.037971 -0.038891 0.003919
vertex 0.064305 -0.084502 0.003919
vertex -0.070340 0.141832 0.002087
endloop
endfacet
facet normal 0.516584 0.298075 -0.802678
outer loop
vertex 0.093192 -0.128638 0.006120
vertex 0.090559 -0.130158 0.003861
vertex 0.064305 -0.084502 0.003919
endloop
endfacet
facet normal 0.414191 0.239291 -0.878172
outer loop
vertex 0.064305 -0.084502 0.003919
vertex 0.090559 -0.130158 0.003861
vertex -0.070340 0.141832 0.002087
endloop
endfacet
facet normal 0.405549 0.234144 -0.883576
outer loop
vertex 0.090559 -0.130158 0.003861
vertex 0.087660 -0.131832 0.002087
vertex -0.070340 0.141832 0.002087
endloop
endfacet
facet normal -0.700784 -0.404104 -0.587878
outer loop
vertex -0.097428 0.126192 0.011878
vertex -0.095500 0.127306 0.008813
vertex -0.069347 0.081591 0.009062
endloop
endfacet
facet normal -0.621950 -0.359592 -0.695609
outer loop
vertex -0.069347 0.081591 0.009062
vertex -0.095500 0.127306 0.008813
vertex -0.067000 0.082946 0.006263
endloop
endfacet
facet normal -0.622170 -0.359210 -0.695609
outer loop
vertex -0.069347 0.081591 0.009062
vertex -0.067000 0.082946 0.006263
vertex -0.040667 0.037335 0.006263
endloop
endfacet
facet normal -0.521015 -0.300808 -0.798785
outer loop
vertex -0.040667 0.037335 0.006263
vertex -0.067000 0.082946 0.006263
vertex -0.037971 0.038891 0.003919
endloop
endfacet
facet normal -0.521015 -0.300808 -0.798785
outer loop
vertex -0.040667 0.037335 0.006263
vertex -0.037971 0.038891 0.003919
vertex -0.011638 -0.006719 0.003919
endloop
endfacet
facet normal -0.407210 -0.235102 -0.882557
outer loop
vertex -0.011638 -0.006719 0.003919
vertex -0.037971 0.038891 0.003919
vertex 0.070340 -0.141832 0.002087
endloop
endfacet
facet normal -0.615754 -0.355166 -0.703352
outer loop
vertex -0.095500 0.127306 0.008813
vertex -0.093192 0.128638 0.006120
vertex -0.067000 0.082946 0.006263
endloop
endfacet
facet normal -0.520864 -0.301070 -0.798785
outer loop
vertex -0.067000 0.082946 0.006263
vertex -0.093192 0.128638 0.006120
vertex -0.064305 0.084502 0.003919
endloop
endfacet
facet normal -0.521015 -0.300808 -0.798785
outer loop
vertex -0.067000 0.082946 0.006263
vertex -0.064305 0.084502 0.003919
vertex -0.037971 0.038891 0.003919
endloop
endfacet
facet normal -0.407204 -0.235099 -0.882561
outer loop
vertex -0.037971 0.038891 0.003919
vertex -0.064305 0.084502 0.003919
vertex 0.070340 -0.141832 0.002087
endloop
endfacet
facet normal -0.516584 -0.298075 -0.802678
outer loop
vertex -0.093192 0.128638 0.006120
vertex -0.090559 0.130158 0.003861
vertex -0.064305 0.084502 0.003919
endloop
endfacet
facet normal -0.414192 -0.239292 -0.878171
outer loop
vertex -0.064305 0.084502 0.003919
vertex -0.090559 0.130158 0.003861
vertex 0.070340 -0.141832 0.002087
endloop
endfacet
facet normal -0.405549 -0.234144 -0.883576
outer loop
vertex -0.090559 0.130158 0.003861
vertex -0.087660 0.131832 0.002087
vertex 0.070340 -0.141832 0.002087
endloop
endfacet
facet normal -0.521014 -0.300808 -0.798786
outer loop
vertex 0.014695 -0.052330 0.003919
vertex 0.041029 -0.097941 0.003919
vertex 0.012000 -0.053886 0.006263
endloop
endfacet
facet normal -0.521015 -0.300808 -0.798786
outer loop
vertex 0.012000 -0.053886 0.006263
vertex 0.041029 -0.097941 0.003919
vertex 0.038333 -0.099497 0.006263
endloop
endfacet
facet normal -0.622170 -0.359210 -0.695609
outer loop
vertex 0.012000 -0.053886 0.006263
vertex 0.038333 -0.099497 0.006263
vertex 0.009653 -0.055241 0.009062
endloop
endfacet
facet normal -0.622169 -0.359209 -0.695611
outer loop
vertex 0.009653 -0.055241 0.009062
vertex 0.038333 -0.099497 0.006263
vertex 0.035986 -0.100852 0.009062
endloop
endfacet
facet normal -0.708213 -0.408887 -0.575539
outer loop
vertex 0.009653 -0.055241 0.009062
vertex 0.035986 -0.100852 0.009062
vertex 0.007711 -0.056362 0.012248
endloop
endfacet
facet normal -0.708213 -0.408887 -0.575540
outer loop
vertex 0.007711 -0.056362 0.012248
vertex 0.035986 -0.100852 0.009062
vertex 0.034044 -0.101973 0.012248
endloop
endfacet
facet normal -0.777055 -0.448633 -0.441492
outer loop
vertex 0.007711 -0.056362 0.012248
vertex 0.034044 -0.101973 0.012248
vertex 0.006221 -0.057222 0.015744
endloop
endfacet
facet normal -0.777054 -0.448633 -0.441492
outer loop
vertex 0.006221 -0.057222 0.015744
vertex 0.034044 -0.101973 0.012248
vertex 0.032555 -0.102833 0.015744
endloop
endfacet
facet normal -0.827024 -0.477482 -0.296719
outer loop
vertex 0.006221 -0.057222 0.015744
vertex 0.032555 -0.102833 0.015744
vertex 0.005220 -0.057800 0.019465
endloop
endfacet
facet normal -0.827024 -0.477483 -0.296719
outer loop
vertex 0.005220 -0.057800 0.019465
vertex 0.032555 -0.102833 0.015744
vertex 0.031553 -0.103411 0.019465
endloop
endfacet
facet normal -0.856906 -0.494735 -0.144738
outer loop
vertex 0.005220 -0.057800 0.019465
vertex 0.031553 -0.103411 0.019465
vertex 0.004732 -0.058082 0.023320
endloop
endfacet
facet normal -0.856906 -0.494734 -0.144743
outer loop
vertex 0.004732 -0.058082 0.023320
vertex 0.031553 -0.103411 0.019465
vertex 0.031065 -0.103693 0.023320
endloop
endfacet
facet normal -0.865975 -0.499972 0.010754
outer loop
vertex 0.004732 -0.058082 0.023320
vertex 0.031065 -0.103693 0.023320
vertex 0.004768 -0.058061 0.027216
endloop
endfacet
facet normal -0.865975 -0.499971 0.010750
outer loop
vertex 0.004768 -0.058061 0.027216
vertex 0.031065 -0.103693 0.023320
vertex 0.031101 -0.103672 0.027216
endloop
endfacet
facet normal -0.854012 -0.493064 0.165988
outer loop
vertex 0.004768 -0.058061 0.027216
vertex 0.031101 -0.103672 0.027216
vertex 0.005328 -0.057738 0.031058
endloop
endfacet
facet normal -0.854012 -0.493064 0.165984
outer loop
vertex 0.005328 -0.057738 0.031058
vertex 0.031101 -0.103672 0.027216
vertex 0.031661 -0.103349 0.031058
endloop
endfacet
facet normal -0.821306 -0.474181 0.317189
outer loop
vertex 0.005328 -0.057738 0.031058
vertex 0.031661 -0.103349 0.031058
vertex 0.006398 -0.057120 0.034753
endloop
endfacet
facet normal -0.821306 -0.474182 0.317188
outer loop
vertex 0.006398 -0.057120 0.034753
vertex 0.031661 -0.103349 0.031058
vertex 0.032732 -0.102731 0.034753
endloop
endfacet
facet normal -0.768652 -0.443782 0.460686
outer loop
vertex 0.006398 -0.057120 0.034753
vertex 0.032732 -0.102731 0.034753
vertex 0.007953 -0.056223 0.038211
endloop
endfacet
facet normal -0.768654 -0.443782 0.460683
outer loop
vertex 0.007953 -0.056223 0.038211
vertex 0.032732 -0.102731 0.034753
vertex 0.034286 -0.101833 0.038211
endloop
endfacet
facet normal -0.697330 -0.402604 0.592994
outer loop
vertex 0.007953 -0.056223 0.038211
vertex 0.034286 -0.101833 0.038211
vertex 0.009954 -0.055068 0.041348
endloop
endfacet
facet normal -0.697331 -0.402604 0.592993
outer loop
vertex 0.009954 -0.055068 0.041348
vertex 0.034286 -0.101833 0.038211
vertex 0.036287 -0.100678 0.041348
endloop
endfacet
facet normal -0.609072 -0.351648 0.710898
outer loop
vertex 0.009954 -0.055068 0.041348
vertex 0.036287 -0.100678 0.041348
vertex 0.012352 -0.053683 0.044088
endloop
endfacet
facet normal -0.609071 -0.351648 0.710898
outer loop
vertex 0.012352 -0.053683 0.044088
vertex 0.036287 -0.100678 0.041348
vertex 0.038686 -0.099293 0.044088
endloop
endfacet
facet normal -0.506018 -0.292150 0.811538
outer loop
vertex 0.012352 -0.053683 0.044088
vertex 0.038686 -0.099293 0.044088
vertex 0.015090 -0.052102 0.046365
endloop
endfacet
facet normal -0.506018 -0.292150 0.811538
outer loop
vertex 0.015090 -0.052102 0.046365
vertex 0.038686 -0.099293 0.044088
vertex 0.041424 -0.097712 0.046365
endloop
endfacet
facet normal -0.390678 -0.225558 0.892466
outer loop
vertex 0.015090 -0.052102 0.046365
vertex 0.041424 -0.097712 0.046365
vertex 0.018102 -0.050363 0.048123
endloop
endfacet
facet normal -0.390677 -0.225557 0.892466
outer loop
vertex 0.018102 -0.050363 0.048123
vertex 0.041424 -0.097712 0.046365
vertex 0.044435 -0.095974 0.048123
endloop
endfacet
facet normal -0.265845 -0.153486 0.951719
outer loop
vertex 0.018102 -0.050363 0.048123
vertex 0.044435 -0.095974 0.048123
vertex 0.021313 -0.048509 0.049319
endloop
endfacet
facet normal -0.265845 -0.153486 0.951719
outer loop
vertex 0.021313 -0.048509 0.049319
vertex 0.044435 -0.095974 0.048123
vertex 0.047646 -0.094120 0.049319
endloop
endfacet
facet normal -0.134556 -0.077686 0.987856
outer loop
vertex 0.021313 -0.048509 0.049319
vertex 0.047646 -0.094120 0.049319
vertex 0.024646 -0.046585 0.049924
endloop
endfacet
facet normal -0.134556 -0.077686 0.987856
outer loop
vertex 0.024646 -0.046585 0.049924
vertex 0.047646 -0.094120 0.049319
vertex 0.050980 -0.092195 0.049924
endloop
endfacet
facet normal 0.000000 0.000000 1.000000
outer loop
vertex 0.024646 -0.046585 0.049924
vertex 0.050980 -0.092195 0.049924
vertex 0.028020 -0.044637 0.049924
endloop
endfacet
facet normal -0.000001 0.000000 1.000000
outer loop
vertex 0.028020 -0.044637 0.049924
vertex 0.050980 -0.092195 0.049924
vertex 0.054354 -0.090247 0.049924
endloop
endfacet
facet normal 0.134558 0.077686 0.987856
outer loop
vertex 0.028020 -0.044637 0.049924
vertex 0.054354 -0.090247 0.049924
vertex 0.031354 -0.042712 0.049319
endloop
endfacet
facet normal 0.134555 0.077686 0.987856
outer loop
vertex 0.031354 -0.042712 0.049319
vertex 0.054354 -0.090247 0.049924
vertex 0.057687 -0.088323 0.049319
endloop
endfacet
facet normal 0.265846 0.153486 0.951719
outer loop
vertex 0.031354 -0.042712 0.049319
vertex 0.057687 -0.088323 0.049319
vertex 0.034565 -0.040858 0.048123
endloop
endfacet
facet normal 0.265843 0.153485 0.951719
outer loop
vertex 0.034565 -0.040858 0.048123
vertex 0.057687 -0.088323 0.049319
vertex 0.060898 -0.086469 0.048123
endloop
endfacet
facet normal 0.390678 0.225557 0.892466
outer loop
vertex 0.034565 -0.040858 0.048123
vertex 0.060898 -0.086469 0.048123
vertex 0.037576 -0.039120 0.046365
endloop
endfacet
facet normal 0.390676 0.225557 0.892466
outer loop
vertex 0.037576 -0.039120 0.046365
vertex 0.060898 -0.086469 0.048123
vertex 0.063910 -0.084730 0.046365
endloop
endfacet
facet normal 0.506018 0.292150 0.811538
outer loop
vertex 0.037576 -0.039120 0.046365
vertex 0.063910 -0.084730 0.046365
vertex 0.040314 -0.037539 0.044088
endloop
endfacet
facet normal 0.506018 0.292150 0.811538
outer loop
vertex 0.040314 -0.037539 0.044088
vertex 0.063910 -0.084730 0.046365
vertex 0.066648 -0.083149 0.044088
endloop
endfacet
facet normal 0.609072 0.351647 0.710897
outer loop
vertex 0.040314 -0.037539 0.044088
vertex 0.066648 -0.083149 0.044088
vertex 0.042713 -0.036154 0.041348
endloop
endfacet
facet normal 0.609071 0.351648 0.710898
outer loop
vertex 0.042713 -0.036154 0.041348
vertex 0.066648 -0.083149 0.044088
vertex 0.069046 -0.081764 0.041348
endloop
endfacet
facet normal 0.697331 0.402604 0.592993
outer loop
vertex 0.042713 -0.036154 0.041348
vertex 0.069046 -0.081764 0.041348
vertex 0.044714 -0.034999 0.038211
endloop
endfacet
facet normal 0.697330 0.402604 0.592993
outer loop
vertex 0.044714 -0.034999 0.038211
vertex 0.069046 -0.081764 0.041348
vertex 0.071047 -0.080609 0.038211
endloop
endfacet
facet normal 0.768654 0.443782 0.460684
outer loop
vertex 0.044714 -0.034999 0.038211
vertex 0.071047 -0.080609 0.038211
vertex 0.046268 -0.034101 0.034753
endloop
endfacet
facet normal 0.768652 0.443782 0.460686
outer loop
vertex 0.046268 -0.034101 0.034753
vertex 0.071047 -0.080609 0.038211
vertex 0.072602 -0.079712 0.034753
endloop
endfacet
facet normal 0.821306 0.474182 0.317186
outer loop
vertex 0.046268 -0.034101 0.034753
vertex 0.072602 -0.079712 0.034753
vertex 0.047339 -0.033483 0.031058
endloop
endfacet
facet normal 0.821307 0.474181 0.317187
outer loop
vertex 0.047339 -0.033483 0.031058
vertex 0.072602 -0.079712 0.034753
vertex 0.073672 -0.079094 0.031058
endloop
endfacet
facet normal 0.854012 0.493064 0.165987
outer loop
vertex 0.047339 -0.033483 0.031058
vertex 0.073672 -0.079094 0.031058
vertex 0.047899 -0.033160 0.027216
endloop
endfacet
facet normal 0.854012 0.493064 0.165985
outer loop
vertex 0.047899 -0.033160 0.027216
vertex 0.073672 -0.079094 0.031058
vertex 0.074232 -0.078771 0.027216
endloop
endfacet
facet normal 0.865975 0.499971 0.010751
outer loop
vertex 0.047899 -0.033160 0.027216
vertex 0.074232 -0.078771 0.027216
vertex 0.047935 -0.033139 0.023320
endloop
endfacet
facet normal 0.865975 0.499971 0.010754
outer loop
vertex 0.047935 -0.033139 0.023320
vertex 0.074232 -0.078771 0.027216
vertex 0.074268 -0.078750 0.023320
endloop
endfacet
facet normal 0.856906 0.494735 -0.144742
outer loop
vertex 0.047935 -0.033139 0.023320
vertex 0.074268 -0.078750 0.023320
vertex 0.047447 -0.033421 0.019465
endloop
endfacet
facet normal 0.856906 0.494735 -0.144741
outer loop
vertex 0.047447 -0.033421 0.019465
vertex 0.074268 -0.078750 0.023320
vertex 0.073780 -0.079032 0.019465
endloop
endfacet
facet normal 0.827023 0.477482 -0.296721
outer loop
vertex 0.047447 -0.033421 0.019465
vertex 0.073780 -0.079032 0.019465
vertex 0.046445 -0.033999 0.015744
endloop
endfacet
facet normal 0.827024 0.477482 -0.296718
outer loop
vertex 0.046445 -0.033999 0.015744
vertex 0.073780 -0.079032 0.019465
vertex 0.072779 -0.079610 0.015744
endloop
endfacet
facet normal 0.777054 0.448633 -0.441492
outer loop
vertex 0.046445 -0.033999 0.015744
vertex 0.072779 -0.079610 0.015744
vertex 0.044956 -0.034859 0.012248
endloop
endfacet
facet normal 0.777055 0.448633 -0.441491
outer loop
vertex 0.044956 -0.034859 0.012248
vertex 0.072779 -0.079610 0.015744
vertex 0.071289 -0.080470 0.012248
endloop
endfacet
facet normal 0.708212 0.408887 -0.575541
outer loop
vertex 0.044956 -0.034859 0.012248
vertex 0.071289 -0.080470 0.012248
vertex 0.043014 -0.035980 0.009062
endloop
endfacet
facet normal -0.521015 -0.300808 -0.798785
outer loop
vertex 0.014695 -0.052330 0.003919
vertex 0.012000 -0.053886 0.006263
vertex -0.014333 -0.008275 0.006263
endloop
endfacet
facet normal -0.622170 -0.359210 -0.695610
outer loop
vertex -0.014333 -0.008275 0.006263
vertex 0.012000 -0.053886 0.006263
vertex -0.016680 -0.009630 0.009062
endloop
endfacet
facet normal -0.622170 -0.359210 -0.695610
outer loop
vertex -0.014333 -0.008275 0.006263
vertex -0.016680 -0.009630 0.009062
vertex -0.043014 0.035980 0.009062
endloop
endfacet
facet normal -0.708213 -0.408887 -0.575540
outer loop
vertex -0.043014 0.035980 0.009062
vertex -0.016680 -0.009630 0.009062
vertex -0.044956 0.034859 0.012248
endloop
endfacet
facet normal -0.708213 -0.408887 -0.575540
outer loop
vertex -0.043014 0.035980 0.009062
vertex -0.044956 0.034859 0.012248
vertex -0.071289 0.080470 0.012248
endloop
endfacet
facet normal -0.777055 -0.448632 -0.441492
outer loop
vertex -0.071289 0.080470 0.012248
vertex -0.044956 0.034859 0.012248
vertex -0.072779 0.079610 0.015744
endloop
endfacet
facet normal -0.622170 -0.359210 -0.695610
outer loop
vertex -0.016680 -0.009630 0.009062
vertex 0.012000 -0.053886 0.006263
vertex 0.009653 -0.055241 0.009062
endloop
endfacet
facet normal -0.708212 -0.408887 -0.575540
outer loop
vertex -0.016680 -0.009630 0.009062
vertex 0.009653 -0.055241 0.009062
vertex -0.018622 -0.010752 0.012248
endloop
endfacet
facet normal -0.708213 -0.408887 -0.575540
outer loop
vertex -0.018622 -0.010752 0.012248
vertex 0.009653 -0.055241 0.009062
vertex 0.007711 -0.056362 0.012248
endloop
endfacet
facet normal -0.777055 -0.448633 -0.441491
outer loop
vertex -0.018622 -0.010752 0.012248
vertex 0.007711 -0.056362 0.012248
vertex -0.020112 -0.011612 0.015744
endloop
endfacet
facet normal -0.777055 -0.448633 -0.441491
outer loop
vertex -0.020112 -0.011612 0.015744
vertex 0.007711 -0.056362 0.012248
vertex 0.006221 -0.057222 0.015744
endloop
endfacet
facet normal -0.827024 -0.477482 -0.296720
outer loop
vertex -0.020112 -0.011612 0.015744
vertex 0.006221 -0.057222 0.015744
vertex -0.021113 -0.012190 0.019465
endloop
endfacet
facet normal -0.827023 -0.477482 -0.296720
outer loop
vertex -0.021113 -0.012190 0.019465
vertex 0.006221 -0.057222 0.015744
vertex 0.005220 -0.057800 0.019465
endloop
endfacet
facet normal -0.856906 -0.494735 -0.144741
outer loop
vertex -0.021113 -0.012190 0.019465
vertex 0.005220 -0.057800 0.019465
vertex -0.021602 -0.012472 0.023320
endloop
endfacet
facet normal -0.856906 -0.494735 -0.144741
outer loop
vertex -0.021602 -0.012472 0.023320
vertex 0.005220 -0.057800 0.019465
vertex 0.004732 -0.058082 0.023320
endloop
endfacet
facet normal -0.865975 -0.499971 0.010753
outer loop
vertex -0.021602 -0.012472 0.023320
vertex 0.004732 -0.058082 0.023320
vertex -0.021565 -0.012451 0.027216
endloop
endfacet
facet normal -0.865975 -0.499971 0.010752
outer loop
vertex -0.021565 -0.012451 0.027216
vertex 0.004732 -0.058082 0.023320
vertex 0.004768 -0.058061 0.027216
endloop
endfacet
facet normal -0.854012 -0.493064 0.165986
outer loop
vertex -0.021565 -0.012451 0.027216
vertex 0.004768 -0.058061 0.027216
vertex -0.021005 -0.012127 0.031058
endloop
endfacet
facet normal -0.854012 -0.493064 0.165986
outer loop
vertex -0.021005 -0.012127 0.031058
vertex 0.004768 -0.058061 0.027216
vertex 0.005328 -0.057738 0.031058
endloop
endfacet
facet normal -0.821307 -0.474182 0.317186
outer loop
vertex -0.021005 -0.012127 0.031058
vertex 0.005328 -0.057738 0.031058
vertex -0.019935 -0.011510 0.034753
endloop
endfacet
facet normal -0.821306 -0.474182 0.317188
outer loop
vertex -0.019935 -0.011510 0.034753
vertex 0.005328 -0.057738 0.031058
vertex 0.006398 -0.057120 0.034753
endloop
endfacet
facet normal -0.768652 -0.443782 0.460685
outer loop
vertex -0.019935 -0.011510 0.034753
vertex 0.006398 -0.057120 0.034753
vertex -0.018381 -0.010612 0.038211
endloop
endfacet
facet normal -0.768654 -0.443782 0.460683
outer loop
vertex -0.018381 -0.010612 0.038211
vertex 0.006398 -0.057120 0.034753
vertex 0.007953 -0.056223 0.038211
endloop
endfacet
facet normal -0.697330 -0.402604 0.592993
outer loop
vertex -0.018381 -0.010612 0.038211
vertex 0.007953 -0.056223 0.038211
vertex -0.016380 -0.009457 0.041348
endloop
endfacet
facet normal -0.697331 -0.402604 0.592993
outer loop
vertex -0.016380 -0.009457 0.041348
vertex 0.007953 -0.056223 0.038211
vertex 0.009954 -0.055068 0.041348
endloop
endfacet
facet normal -0.609072 -0.351648 0.710898
outer loop
vertex -0.016380 -0.009457 0.041348
vertex 0.009954 -0.055068 0.041348
vertex -0.013981 -0.008072 0.044088
endloop
endfacet
facet normal -0.609071 -0.351648 0.710898
outer loop
vertex -0.013981 -0.008072 0.044088
vertex 0.009954 -0.055068 0.041348
vertex 0.012352 -0.053683 0.044088
endloop
endfacet
facet normal -0.506019 -0.292150 0.811538
outer loop
vertex -0.013981 -0.008072 0.044088
vertex 0.012352 -0.053683 0.044088
vertex -0.011243 -0.006491 0.046365
endloop
endfacet
facet normal -0.506018 -0.292150 0.811538
outer loop
vertex -0.011243 -0.006491 0.046365
vertex 0.012352 -0.053683 0.044088
vertex 0.015090 -0.052102 0.046365
endloop
endfacet
facet normal -0.390677 -0.225557 0.892466
outer loop
vertex -0.011243 -0.006491 0.046365
vertex 0.015090 -0.052102 0.046365
vertex -0.008232 -0.004752 0.048123
endloop
endfacet
facet normal -0.390677 -0.225557 0.892466
outer loop
vertex -0.008232 -0.004752 0.048123
vertex 0.015090 -0.052102 0.046365
vertex 0.018102 -0.050363 0.048123
endloop
endfacet
facet normal -0.265843 -0.153486 0.951719
outer loop
vertex -0.008232 -0.004752 0.048123
vertex 0.018102 -0.050363 0.048123
vertex -0.005020 -0.002898 0.049319
endloop
endfacet
facet normal -0.265844 -0.153486 0.951719
outer loop
vertex -0.005020 -0.002898 0.049319
vertex 0.018102 -0.050363 0.048123
vertex 0.021313 -0.048509 0.049319
endloop
endfacet
facet normal -0.134556 -0.077686 0.987856
outer loop
vertex -0.005020 -0.002898 0.049319
vertex 0.021313 -0.048509 0.049319
vertex -0.001687 -0.000974 0.049924
endloop
endfacet
facet normal -0.134557 -0.077686 0.987856
outer loop
vertex -0.001687 -0.000974 0.049924
vertex 0.021313 -0.048509 0.049319
vertex 0.024646 -0.046585 0.049924
endloop
endfacet
facet normal -0.000002 0.000000 1.000000
outer loop
vertex -0.001687 -0.000974 0.049924
vertex 0.024646 -0.046585 0.049924
vertex 0.001687 0.000974 0.049924
endloop
endfacet
facet normal -0.000000 0.000000 1.000000
outer loop
vertex 0.001687 0.000974 0.049924
vertex 0.024646 -0.046585 0.049924
vertex 0.028020 -0.044637 0.049924
endloop
endfacet
facet normal 0.134558 0.077686 0.987856
outer loop
vertex 0.001687 0.000974 0.049924
vertex 0.028020 -0.044637 0.049924
vertex 0.005020 0.002898 0.049319
endloop
endfacet
facet normal 0.134556 0.077686 0.987856
outer loop
vertex 0.005020 0.002898 0.049319
vertex 0.028020 -0.044637 0.049924
vertex 0.031354 -0.042712 0.049319
endloop
endfacet
facet normal 0.265845 0.153486 0.951719
outer loop
vertex 0.005020 0.002898 0.049319
vertex 0.031354 -0.042712 0.049319
vertex 0.008232 0.004752 0.048123
endloop
endfacet
facet normal 0.265845 0.153486 0.951719
outer loop
vertex 0.008232 0.004752 0.048123
vertex 0.031354 -0.042712 0.049319
vertex 0.034565 -0.040858 0.048123
endloop
endfacet
facet normal 0.390677 0.225557 0.892466
outer loop
vertex 0.008232 0.004752 0.048123
vertex 0.034565 -0.040858 0.048123
vertex 0.011243 0.006491 0.046365
endloop
endfacet
facet normal 0.390677 0.225557 0.892466
outer loop
vertex 0.011243 0.006491 0.046365
vertex 0.034565 -0.040858 0.048123
vertex 0.037576 -0.039120 0.046365
endloop
endfacet
facet normal 0.506018 0.292150 0.811538
outer loop
vertex 0.011243 0.006491 0.046365
vertex 0.037576 -0.039120 0.046365
vertex 0.013981 0.008072 0.044088
endloop
endfacet
facet normal 0.506018 0.292150 0.811538
outer loop
vertex 0.013981 0.008072 0.044088
vertex 0.037576 -0.039120 0.046365
vertex 0.040314 -0.037539 0.044088
endloop
endfacet
facet normal 0.609072 0.351647 0.710898
outer loop
vertex 0.013981 0.008072 0.044088
vertex 0.040314 -0.037539 0.044088
vertex 0.016380 0.009457 0.041348
endloop
endfacet
facet normal 0.609072 0.351648 0.710898
outer loop
vertex 0.016380 0.009457 0.041348
vertex 0.040314 -0.037539 0.044088
vertex 0.042713 -0.036154 0.041348
endloop
endfacet
facet normal 0.697331 0.402604 0.592993
outer loop
vertex 0.016380 0.009457 0.041348
vertex 0.042713 -0.036154 0.041348
vertex 0.018381 0.010612 0.038211
endloop
endfacet
facet normal 0.697330 0.402604 0.592993
outer loop
vertex 0.018381 0.010612 0.038211
vertex 0.042713 -0.036154 0.041348
vertex 0.044714 -0.034999 0.038211
endloop
endfacet
facet normal 0.768653 0.443782 0.460684
outer loop
vertex 0.018381 0.010612 0.038211
vertex 0.044714 -0.034999 0.038211
vertex 0.019935 0.011510 0.034753
endloop
endfacet
facet normal 0.768652 0.443782 0.460685
outer loop
vertex 0.019935 0.011510 0.034753
vertex 0.044714 -0.034999 0.038211
vertex 0.046268 -0.034101 0.034753
endloop
endfacet
facet normal 0.821306 0.474182 0.317187
outer loop
vertex 0.019935 0.011510 0.034753
vertex 0.046268 -0.034101 0.034753
vertex 0.021005 0.012127 0.031058
endloop
endfacet
facet normal 0.821307 0.474181 0.317185
outer loop
vertex 0.021005 0.012127 0.031058
vertex 0.046268 -0.034101 0.034753
vertex 0.047339 -0.033483 0.031058
endloop
endfacet
facet normal 0.854012 0.493064 0.165986
outer loop
vertex 0.021005 0.012127 0.031058
vertex 0.047339 -0.033483 0.031058
vertex 0.021565 0.012451 0.027216
endloop
endfacet
facet normal 0.854012 0.493064 0.165987
outer loop
vertex 0.021565 0.012451 0.027216
vertex 0.047339 -0.033483 0.031058
vertex 0.047899 -0.033160 0.027216
endloop
endfacet
facet normal 0.865975 0.499971 0.010752
outer loop
vertex 0.021565 0.012451 0.027216
vertex 0.047899 -0.033160 0.027216
vertex 0.021602 0.012472 0.023320
endloop
endfacet
facet normal 0.865975 0.499971 0.010752
outer loop
vertex 0.021602 0.012472 0.023320
vertex 0.047899 -0.033160 0.027216
vertex 0.047935 -0.033139 0.023320
endloop
endfacet
facet normal 0.856906 0.494735 -0.144741
outer loop
vertex 0.021602 0.012472 0.023320
vertex 0.047935 -0.033139 0.023320
vertex 0.021113 0.012190 0.019465
endloop
endfacet
facet normal 0.856906 0.494735 -0.144740
outer loop
vertex 0.021113 0.012190 0.019465
vertex 0.047935 -0.033139 0.023320
vertex 0.047447 -0.033421 0.019465
endloop
endfacet
facet normal 0.827024 0.477482 -0.296720
outer loop
vertex 0.021113 0.012190 0.019465
vertex 0.047447 -0.033421 0.019465
vertex 0.020112 0.011612 0.015744
endloop
endfacet
facet normal 0.827024 0.477482 -0.296720
outer loop
vertex 0.020112 0.011612 0.015744
vertex 0.047447 -0.033421 0.019465
vertex 0.046445 -0.033999 0.015744
endloop
endfacet
facet normal 0.777055 0.448633 -0.441491
outer loop
vertex 0.020112 0.011612 0.015744
vertex 0.046445 -0.033999 0.015744
vertex 0.018622 0.010752 0.012248
endloop
endfacet
facet normal 0.777055 0.448633 -0.441491
outer loop
vertex 0.018622 0.010752 0.012248
vertex 0.046445 -0.033999 0.015744
vertex 0.044956 -0.034859 0.012248
endloop
endfacet
facet normal 0.708212 0.408887 -0.575540
outer loop
vertex 0.018622 0.010752 0.012248
vertex 0.044956 -0.034859 0.012248
vertex 0.016680 0.009631 0.009062
endloop
endfacet
facet normal 0.708213 0.408887 -0.575540
outer loop
vertex 0.016680 0.009631 0.009062
vertex 0.044956 -0.034859 0.012248
vertex 0.043014 -0.035980 0.009062
endloop
endfacet
facet normal 0.622170 0.359210 -0.695610
outer loop
vertex 0.016680 0.009631 0.009062
vertex 0.043014 -0.035980 0.009062
vertex 0.014333 0.008275 0.006263
endloop
endfacet
facet normal -0.708212 -0.408887 -0.575540
outer loop
vertex -0.016680 -0.009630 0.009062
vertex -0.018622 -0.010752 0.012248
vertex -0.044956 0.034859 0.012248
endloop
endfacet
facet normal -0.777055 -0.448633 -0.441491
outer loop
vertex -0.044956 0.034859 0.012248
vertex -0.018622 -0.010752 0.012248
vertex -0.046445 0.033999 0.015744
endloop
endfacet
facet normal -0.777055 -0.448633 -0.441491
outer loop
vertex -0.044956 0.034859 0.012248
vertex -0.046445 0.033999 0.015744
vertex -0.072779 0.079610 0.015744
endloop
endfacet
facet normal -0.827024 -0.477482 -0.296718
outer loop
vertex -0.072779 0.079610 0.015744
vertex -0.046445 0.033999 0.015744
vertex -0.073780 0.079032 0.019465
endloop
endfacet
facet normal -0.777055 -0.448633 -0.441491
outer loop
vertex -0.046445 0.033999 0.015744
vertex -0.018622 -0.010752 0.012248
vertex -0.020112 -0.011612 0.015744
endloop
endfacet
facet normal -0.827024 -0.477482 -0.296720
outer loop
vertex -0.046445 0.033999 0.015744
vertex -0.020112 -0.011612 0.015744
vertex -0.047447 0.033421 0.019465
endloop
endfacet
facet normal -0.827023 -0.477483 -0.296720
outer loop
vertex -0.047447 0.033421 0.019465
vertex -0.020112 -0.011612 0.015744
vertex -0.021113 -0.012190 0.019465
endloop
endfacet
facet normal -0.856906 -0.494735 -0.144740
outer loop
vertex -0.047447 0.033421 0.019465
vertex -0.021113 -0.012190 0.019465
vertex -0.047935 0.033139 0.023320
endloop
endfacet
facet normal -0.856906 -0.494735 -0.144741
outer loop
vertex -0.047935 0.033139 0.023320
vertex -0.021113 -0.012190 0.019465
vertex -0.021602 -0.012472 0.023320
endloop
endfacet
facet normal -0.865975 -0.499971 0.010752
outer loop
vertex -0.047935 0.033139 0.023320
vertex -0.021602 -0.012472 0.023320
vertex -0.047899 0.033160 0.027216
endloop
endfacet
facet normal -0.865975 -0.499971 0.010752
outer loop
vertex -0.047899 0.033160 0.027216
vertex -0.021602 -0.012472 0.023320
vertex -0.021565 -0.012451 0.027216
endloop
endfacet
facet normal -0.854012 -0.493064 0.165987
outer loop
vertex -0.047899 0.033160 0.027216
vertex -0.021565 -0.012451 0.027216
vertex -0.047339 0.033483 0.031058
endloop
endfacet
facet normal -0.854012 -0.493064 0.165986
outer loop
vertex -0.047339 0.033483 0.031058
vertex -0.021565 -0.012451 0.027216
vertex -0.021005 -0.012127 0.031058
endloop
endfacet
facet normal -0.821307 -0.474181 0.317185
outer loop
vertex -0.047339 0.033483 0.031058
vertex -0.021005 -0.012127 0.031058
vertex -0.046268 0.034101 0.034753
endloop
endfacet
facet normal -0.821306 -0.474182 0.317187
outer loop
vertex -0.046268 0.034101 0.034753
vertex -0.021005 -0.012127 0.031058
vertex -0.019935 -0.011510 0.034753
endloop
endfacet
facet normal -0.768653 -0.443782 0.460685
outer loop
vertex -0.046268 0.034101 0.034753
vertex -0.019935 -0.011510 0.034753
vertex -0.044714 0.034999 0.038211
endloop
endfacet
facet normal -0.768653 -0.443782 0.460684
outer loop
vertex -0.044714 0.034999 0.038211
vertex -0.019935 -0.011510 0.034753
vertex -0.018381 -0.010612 0.038211
endloop
endfacet
facet normal -0.697330 -0.402604 0.592993
outer loop
vertex -0.044714 0.034999 0.038211
vertex -0.018381 -0.010612 0.038211
vertex -0.042713 0.036154 0.041348
endloop
endfacet
facet normal -0.697330 -0.402604 0.592993
outer loop
vertex -0.042713 0.036154 0.041348
vertex -0.018381 -0.010612 0.038211
vertex -0.016380 -0.009457 0.041348
endloop
endfacet
facet normal -0.609072 -0.351648 0.710898
outer loop
vertex -0.042713 0.036154 0.041348
vertex -0.016380 -0.009457 0.041348
vertex -0.040314 0.037539 0.044088
endloop
endfacet
facet normal -0.609072 -0.351648 0.710898
outer loop
vertex -0.040314 0.037539 0.044088
vertex -0.016380 -0.009457 0.041348
vertex -0.013981 -0.008072 0.044088
endloop
endfacet
facet normal -0.506018 -0.292150 0.811538
outer loop
vertex -0.040314 0.037539 0.044088
vertex -0.013981 -0.008072 0.044088
vertex -0.037576 0.039120 0.046365
endloop
endfacet
facet normal -0.506018 -0.292150 0.811538
outer loop
vertex -0.037576 0.039120 0.046365
vertex -0.013981 -0.008072 0.044088
vertex -0.011243 -0.006491 0.046365
endloop
endfacet
facet normal -0.390677 -0.225557 0.892466
outer loop
vertex -0.037576 0.039120 0.046365
vertex -0.011243 -0.006491 0.046365
vertex -0.034565 0.040858 0.048123
endloop
endfacet
facet normal -0.390677 -0.225557 0.892466
outer loop
vertex -0.034565 0.040858 0.048123
vertex -0.011243 -0.006491 0.046365
vertex -0.008232 -0.004752 0.048123
endloop
endfacet
facet normal -0.265846 -0.153486 0.951719
outer loop
vertex -0.034565 0.040858 0.048123
vertex -0.008232 -0.004752 0.048123
vertex -0.031354 0.042712 0.049319
endloop
endfacet
facet normal -0.265845 -0.153486 0.951719
outer loop
vertex -0.031354 0.042712 0.049319
vertex -0.008232 -0.004752 0.048123
vertex -0.005020 -0.002898 0.049319
endloop
endfacet
facet normal -0.134556 -0.077686 0.987856
outer loop
vertex -0.031354 0.042712 0.049319
vertex -0.005020 -0.002898 0.049319
vertex -0.028020 0.044637 0.049924
endloop
endfacet
facet normal -0.134558 -0.077686 0.987856
outer loop
vertex -0.028020 0.044637 0.049924
vertex -0.005020 -0.002898 0.049319
vertex -0.001687 -0.000974 0.049924
endloop
endfacet
facet normal 0.000000 0.000000 1.000000
outer loop
vertex -0.028020 0.044637 0.049924
vertex -0.001687 -0.000974 0.049924
vertex -0.024646 0.046585 0.049924
endloop
endfacet
facet normal 0.000001 0.000000 1.000000
outer loop
vertex -0.024646 0.046585 0.049924
vertex -0.001687 -0.000974 0.049924
vertex 0.001687 0.000974 0.049924
endloop
endfacet
facet normal 0.134558 0.077686 0.987856
outer loop
vertex -0.024646 0.046585 0.049924
vertex 0.001687 0.000974 0.049924
vertex -0.021313 0.048509 0.049319
endloop
endfacet
facet normal 0.134556 0.077686 0.987856
outer loop
vertex -0.021313 0.048509 0.049319
vertex 0.001687 0.000974 0.049924
vertex 0.005020 0.002898 0.049319
endloop
endfacet
facet normal 0.265843 0.153486 0.951719
outer loop
vertex -0.021313 0.048509 0.049319
vertex 0.005020 0.002898 0.049319
vertex -0.018102 0.050363 0.048123
endloop
endfacet
facet normal 0.265844 0.153486 0.951719
outer loop
vertex -0.018102 0.050363 0.048123
vertex 0.005020 0.002898 0.049319
vertex 0.008232 0.004752 0.048123
endloop
endfacet
facet normal 0.390677 0.225557 0.892466
outer loop
vertex -0.018102 0.050363 0.048123
vertex 0.008232 0.004752 0.048123
vertex -0.015090 0.052102 0.046365
endloop
endfacet
facet normal 0.390677 0.225557 0.892466
outer loop
vertex -0.015090 0.052102 0.046365
vertex 0.008232 0.004752 0.048123
vertex 0.011243 0.006491 0.046365
endloop
endfacet
facet normal 0.506018 0.292150 0.811538
outer loop
vertex -0.015090 0.052102 0.046365
vertex 0.011243 0.006491 0.046365
vertex -0.012352 0.053683 0.044088
endloop
endfacet
facet normal 0.506018 0.292150 0.811538
outer loop
vertex -0.012352 0.053683 0.044088
vertex 0.011243 0.006491 0.046365
vertex 0.013981 0.008072 0.044088
endloop
endfacet
facet normal 0.609072 0.351647 0.710897
outer loop
vertex -0.012352 0.053683 0.044088
vertex 0.013981 0.008072 0.044088
vertex -0.009954 0.055068 0.041348
endloop
endfacet
facet normal 0.609071 0.351648 0.710898
outer loop
vertex -0.009954 0.055068 0.041348
vertex 0.013981 0.008072 0.044088
vertex 0.016380 0.009457 0.041348
endloop
endfacet
facet normal 0.697331 0.402604 0.592992
outer loop
vertex -0.009954 0.055068 0.041348
vertex 0.016380 0.009457 0.041348
vertex -0.007953 0.056223 0.038211
endloop
endfacet
facet normal 0.697330 0.402604 0.592993
outer loop
vertex -0.007953 0.056223 0.038211
vertex 0.016380 0.009457 0.041348
vertex 0.018381 0.010612 0.038211
endloop
endfacet
facet normal 0.768653 0.443782 0.460684
outer loop
vertex -0.007953 0.056223 0.038211
vertex 0.018381 0.010612 0.038211
vertex -0.006398 0.057120 0.034753
endloop
endfacet
facet normal 0.768652 0.443782 0.460685
outer loop
vertex -0.006398 0.057120 0.034753
vertex 0.018381 0.010612 0.038211
vertex 0.019935 0.011510 0.034753
endloop
endfacet
facet normal 0.821306 0.474182 0.317187
outer loop
vertex -0.006398 0.057120 0.034753
vertex 0.019935 0.011510 0.034753
vertex -0.005328 0.057738 0.031058
endloop
endfacet
facet normal 0.821307 0.474182 0.317187
outer loop
vertex -0.005328 0.057738 0.031058
vertex 0.019935 0.011510 0.034753
vertex 0.021005 0.012127 0.031058
endloop
endfacet
facet normal 0.854012 0.493064 0.165986
outer loop
vertex -0.005328 0.057738 0.031058
vertex 0.021005 0.012127 0.031058
vertex -0.004768 0.058061 0.027216
endloop
endfacet
facet normal 0.854012 0.493064 0.165986
outer loop
vertex -0.004768 0.058061 0.027216
vertex 0.021005 0.012127 0.031058
vertex 0.021565 0.012451 0.027216
endloop
endfacet
facet normal 0.865975 0.499971 0.010752
outer loop
vertex -0.004768 0.058061 0.027216
vertex 0.021565 0.012451 0.027216
vertex -0.004732 0.058082 0.023320
endloop
endfacet
facet normal 0.865975 0.499971 0.010753
outer loop
vertex -0.004732 0.058082 0.023320
vertex 0.021565 0.012451 0.027216
vertex 0.021602 0.012472 0.023320
endloop
endfacet
facet normal 0.856906 0.494735 -0.144740
outer loop
vertex -0.004732 0.058082 0.023320
vertex 0.021602 0.012472 0.023320
vertex -0.005220 0.057800 0.019465
endloop
endfacet
facet normal 0.856906 0.494735 -0.144741
outer loop
vertex -0.005220 0.057800 0.019465
vertex 0.021602 0.012472 0.023320
vertex 0.021113 0.012190 0.019465
endloop
endfacet
facet normal 0.827023 0.477482 -0.296721
outer loop
vertex -0.005220 0.057800 0.019465
vertex 0.021113 0.012190 0.019465
vertex -0.006221 0.057222 0.015744
endloop
endfacet
facet normal 0.827024 0.477482 -0.296719
outer loop
vertex -0.006221 0.057222 0.015744
vertex 0.021113 0.012190 0.019465
vertex 0.020112 0.011612 0.015744
endloop
endfacet
facet normal 0.777055 0.448633 -0.441491
outer loop
vertex -0.006221 0.057222 0.015744
vertex 0.020112 0.011612 0.015744
vertex -0.007711 0.056362 0.012248
endloop
endfacet
facet normal 0.777055 0.448633 -0.441491
outer loop
vertex -0.007711 0.056362 0.012248
vertex 0.020112 0.011612 0.015744
vertex 0.018622 0.010752 0.012248
endloop
endfacet
facet normal 0.708213 0.408887 -0.575540
outer loop
vertex -0.007711 0.056362 0.012248
vertex 0.018622 0.010752 0.012248
vertex -0.009653 0.055241 0.009062
endloop
endfacet
facet normal 0.708213 0.408887 -0.575540
outer loop
vertex -0.009653 0.055241 0.009062
vertex 0.018622 0.010752 0.012248
vertex 0.016680 0.009631 0.009062
endloop
endfacet
facet normal 0.622170 0.359210 -0.695610
outer loop
vertex -0.009653 0.055241 0.009062
vertex 0.016680 0.009631 0.009062
vertex -0.012000 0.053886 0.006263
endloop
endfacet
facet normal 0.622170 0.359210 -0.695610
outer loop
vertex -0.012000 0.053886 0.006263
vertex 0.016680 0.009631 0.009062
vertex 0.014333 0.008275 0.006263
endloop
endfacet
facet normal 0.521015 0.300808 -0.798785
outer loop
vertex -0.012000 0.053886 0.006263
vertex 0.014333 0.008275 0.006263
vertex -0.014695 0.052330 0.003919
endloop
endfacet
facet normal -0.856906 -0.494735 -0.144741
outer loop
vertex -0.074268 0.078750 0.023320
vertex -0.073780 0.079032 0.019465
vertex -0.047447 0.033421 0.019465
endloop
endfacet
facet normal -0.827024 -0.477482 -0.296719
outer loop
vertex -0.047447 0.033421 0.019465
vertex -0.073780 0.079032 0.019465
vertex -0.046445 0.033999 0.015744
endloop
endfacet
facet normal -0.856906 -0.494735 -0.144742
outer loop
vertex -0.074268 0.078750 0.023320
vertex -0.047447 0.033421 0.019465
vertex -0.047935 0.033139 0.023320
endloop
endfacet
facet normal -0.865975 -0.499971 0.010754
outer loop
vertex -0.074232 0.078771 0.027216
vertex -0.074268 0.078750 0.023320
vertex -0.047935 0.033139 0.023320
endloop
endfacet
facet normal -0.865975 -0.499971 0.010751
outer loop
vertex -0.074232 0.078771 0.027216
vertex -0.047935 0.033139 0.023320
vertex -0.047899 0.033160 0.027216
endloop
endfacet
facet normal -0.854012 -0.493064 0.165986
outer loop
vertex -0.073672 0.079094 0.031058
vertex -0.074232 0.078771 0.027216
vertex -0.047899 0.033160 0.027216
endloop
endfacet
facet normal -0.854012 -0.493064 0.165987
outer loop
vertex -0.073672 0.079094 0.031058
vertex -0.047899 0.033160 0.027216
vertex -0.047339 0.033483 0.031058
endloop
endfacet
facet normal -0.821307 -0.474181 0.317188
outer loop
vertex -0.072602 0.079712 0.034753
vertex -0.073672 0.079094 0.031058
vertex -0.047339 0.033483 0.031058
endloop
endfacet
facet normal -0.821307 -0.474182 0.317186
outer loop
vertex -0.072602 0.079712 0.034753
vertex -0.047339 0.033483 0.031058
vertex -0.046268 0.034101 0.034753
endloop
endfacet
facet normal -0.768652 -0.443782 0.460686
outer loop
vertex -0.071047 0.080609 0.038211
vertex -0.072602 0.079712 0.034753
vertex -0.046268 0.034101 0.034753
endloop
endfacet
facet normal -0.768653 -0.443782 0.460684
outer loop
vertex -0.071047 0.080609 0.038211
vertex -0.046268 0.034101 0.034753
vertex -0.044714 0.034999 0.038211
endloop
endfacet
facet normal -0.697330 -0.402604 0.592993
outer loop
vertex -0.069046 0.081764 0.041348
vertex -0.071047 0.080609 0.038211
vertex -0.044714 0.034999 0.038211
endloop
endfacet
facet normal -0.697331 -0.402604 0.592992
outer loop
vertex -0.069046 0.081764 0.041348
vertex -0.044714 0.034999 0.038211
vertex -0.042713 0.036154 0.041348
endloop
endfacet
facet normal -0.609071 -0.351647 0.710898
outer loop
vertex -0.066648 0.083149 0.044088
vertex -0.069046 0.081764 0.041348
vertex -0.042713 0.036154 0.041348
endloop
endfacet
facet normal -0.609072 -0.351648 0.710898
outer loop
vertex -0.066648 0.083149 0.044088
vertex -0.042713 0.036154 0.041348
vertex -0.040314 0.037539 0.044088
endloop
endfacet
facet normal -0.506019 -0.292150 0.811537
outer loop
vertex -0.063910 0.084730 0.046365
vertex -0.066648 0.083149 0.044088
vertex -0.040314 0.037539 0.044088
endloop
endfacet
facet normal -0.506019 -0.292150 0.811538
outer loop
vertex -0.063910 0.084730 0.046365
vertex -0.040314 0.037539 0.044088
vertex -0.037576 0.039120 0.046365
endloop
endfacet
facet normal -0.390676 -0.225557 0.892466
outer loop
vertex -0.060898 0.086469 0.048123
vertex -0.063910 0.084730 0.046365
vertex -0.037576 0.039120 0.046365
endloop
endfacet
facet normal -0.390678 -0.225557 0.892466
outer loop
vertex -0.060898 0.086469 0.048123
vertex -0.037576 0.039120 0.046365
vertex -0.034565 0.040858 0.048123
endloop
endfacet
facet normal -0.265843 -0.153485 0.951719
outer loop
vertex -0.057687 0.088323 0.049319
vertex -0.060898 0.086469 0.048123
vertex -0.034565 0.040858 0.048123
endloop
endfacet
facet normal -0.265846 -0.153486 0.951718
outer loop
vertex -0.057687 0.088323 0.049319
vertex -0.034565 0.040858 0.048123
vertex -0.031354 0.042712 0.049319
endloop
endfacet
facet normal -0.134556 -0.077686 0.987856
outer loop
vertex -0.054354 0.090247 0.049924
vertex -0.057687 0.088323 0.049319
vertex -0.031354 0.042712 0.049319
endloop
endfacet
facet normal -0.134557 -0.077686 0.987856
outer loop
vertex -0.054354 0.090247 0.049924
vertex -0.031354 0.042712 0.049319
vertex -0.028020 0.044637 0.049924
endloop
endfacet
facet normal 0.000002 0.000000 1.000000
outer loop
vertex -0.050980 0.092195 0.049924
vertex -0.054354 0.090247 0.049924
vertex -0.028020 0.044637 0.049924
endloop
endfacet
facet normal -0.000000 0.000000 1.000000
outer loop
vertex -0.050980 0.092195 0.049924
vertex -0.028020 0.044637 0.049924
vertex -0.024646 0.046585 0.049924
endloop
endfacet
facet normal 0.134555 0.077686 0.987856
outer loop
vertex -0.047646 0.094120 0.049319
vertex -0.050980 0.092195 0.049924
vertex -0.024646 0.046585 0.049924
endloop
endfacet
facet normal 0.134557 0.077686 0.987856
outer loop
vertex -0.047646 0.094120 0.049319
vertex -0.024646 0.046585 0.049924
vertex -0.021313 0.048509 0.049319
endloop
endfacet
facet normal 0.265845 0.153486 0.951719
outer loop
vertex -0.044435 0.095974 0.048123
vertex -0.047646 0.094120 0.049319
vertex -0.021313 0.048509 0.049319
endloop
endfacet
facet normal 0.265845 0.153486 0.951719
outer loop
vertex -0.044435 0.095974 0.048123
vertex -0.021313 0.048509 0.049319
vertex -0.018102 0.050363 0.048123
endloop
endfacet
facet normal 0.390676 0.225557 0.892466
outer loop
vertex -0.041424 0.097712 0.046365
vertex -0.044435 0.095974 0.048123
vertex -0.018102 0.050363 0.048123
endloop
endfacet
facet normal 0.390678 0.225558 0.892465
outer loop
vertex -0.041424 0.097712 0.046365
vertex -0.018102 0.050363 0.048123
vertex -0.015090 0.052102 0.046365
endloop
endfacet
facet normal 0.506017 0.292149 0.811539
outer loop
vertex -0.038686 0.099293 0.044088
vertex -0.041424 0.097712 0.046365
vertex -0.015090 0.052102 0.046365
endloop
endfacet
facet normal 0.506018 0.292150 0.811538
outer loop
vertex -0.038686 0.099293 0.044088
vertex -0.015090 0.052102 0.046365
vertex -0.012352 0.053683 0.044088
endloop
endfacet
facet normal 0.609072 0.351648 0.710898
outer loop
vertex -0.036287 0.100678 0.041348
vertex -0.038686 0.099293 0.044088
vertex -0.012352 0.053683 0.044088
endloop
endfacet
facet normal 0.609072 0.351648 0.710897
outer loop
vertex -0.036287 0.100678 0.041348
vertex -0.012352 0.053683 0.044088
vertex -0.009954 0.055068 0.041348
endloop
endfacet
facet normal 0.697330 0.402603 0.592994
outer loop
vertex -0.034286 0.101833 0.038211
vertex -0.036287 0.100678 0.041348
vertex -0.009954 0.055068 0.041348
endloop
endfacet
facet normal 0.697330 0.402604 0.592993
outer loop
vertex -0.034286 0.101833 0.038211
vertex -0.009954 0.055068 0.041348
vertex -0.007953 0.056223 0.038211
endloop
endfacet
facet normal 0.768653 0.443782 0.460685
outer loop
vertex -0.032732 0.102731 0.034753
vertex -0.034286 0.101833 0.038211
vertex -0.007953 0.056223 0.038211
endloop
endfacet
facet normal 0.768653 0.443783 0.460684
outer loop
vertex -0.032732 0.102731 0.034753
vertex -0.007953 0.056223 0.038211
vertex -0.006398 0.057120 0.034753
endloop
endfacet
facet normal 0.821305 0.474182 0.317189
outer loop
vertex -0.031661 0.103349 0.031058
vertex -0.032732 0.102731 0.034753
vertex -0.006398 0.057120 0.034753
endloop
endfacet
facet normal 0.821307 0.474181 0.317186
outer loop
vertex -0.031661 0.103349 0.031058
vertex -0.006398 0.057120 0.034753
vertex -0.005328 0.057738 0.031058
endloop
endfacet
facet normal 0.854012 0.493064 0.165986
outer loop
vertex -0.031101 0.103672 0.027216
vertex -0.031661 0.103349 0.031058
vertex -0.005328 0.057738 0.031058
endloop
endfacet
facet normal 0.854012 0.493064 0.165985
outer loop
vertex -0.031101 0.103672 0.027216
vertex -0.005328 0.057738 0.031058
vertex -0.004768 0.058061 0.027216
endloop
endfacet
facet normal 0.865975 0.499971 0.010752
outer loop
vertex -0.031065 0.103693 0.023320
vertex -0.031101 0.103672 0.027216
vertex -0.004768 0.058061 0.027216
endloop
endfacet
facet normal 0.865975 0.499971 0.010752
outer loop
vertex -0.031065 0.103693 0.023320
vertex -0.004768 0.058061 0.027216
vertex -0.004732 0.058082 0.023320
endloop
endfacet
facet normal 0.856906 0.494735 -0.144740
outer loop
vertex -0.031553 0.103411 0.019465
vertex -0.031065 0.103693 0.023320
vertex -0.004732 0.058082 0.023320
endloop
endfacet
facet normal 0.856906 0.494735 -0.144741
outer loop
vertex -0.031553 0.103411 0.019465
vertex -0.004732 0.058082 0.023320
vertex -0.005220 0.057800 0.019465
endloop
endfacet
facet normal 0.827023 0.477483 -0.296720
outer loop
vertex -0.032555 0.102833 0.015744
vertex -0.031553 0.103411 0.019465
vertex -0.005220 0.057800 0.019465
endloop
endfacet
facet normal 0.827024 0.477482 -0.296717
outer loop
vertex -0.032555 0.102833 0.015744
vertex -0.005220 0.057800 0.019465
vertex -0.006221 0.057222 0.015744
endloop
endfacet
facet normal 0.777054 0.448633 -0.441492
outer loop
vertex -0.034044 0.101973 0.012248
vertex -0.032555 0.102833 0.015744
vertex -0.006221 0.057222 0.015744
endloop
endfacet
facet normal 0.777054 0.448632 -0.441493
outer loop
vertex -0.034044 0.101973 0.012248
vertex -0.006221 0.057222 0.015744
vertex -0.007711 0.056362 0.012248
endloop
endfacet
facet normal 0.708213 0.408887 -0.575539
outer loop
vertex -0.035986 0.100852 0.009062
vertex -0.034044 0.101973 0.012248
vertex -0.007711 0.056362 0.012248
endloop
endfacet
facet normal 0.708213 0.408887 -0.575540
outer loop
vertex -0.035986 0.100852 0.009062
vertex -0.007711 0.056362 0.012248
vertex -0.009653 0.055241 0.009062
endloop
endfacet
facet normal 0.622170 0.359210 -0.695610
outer loop
vertex -0.038333 0.099497 0.006263
vertex -0.035986 0.100852 0.009062
vertex -0.009653 0.055241 0.009062
endloop
endfacet
facet normal 0.622170 0.359210 -0.695610
outer loop
vertex -0.038333 0.099497 0.006263
vertex -0.009653 0.055241 0.009062
vertex -0.012000 0.053886 0.006263
endloop
endfacet
facet normal 0.521015 0.300809 -0.798785
outer loop
vertex -0.041029 0.097941 0.003919
vertex -0.038333 0.099497 0.006263
vertex -0.012000 0.053886 0.006263
endloop
endfacet
facet normal 0.521015 0.300808 -0.798786
outer loop
vertex -0.041029 0.097941 0.003919
vertex -0.012000 0.053886 0.006263
vertex -0.014695 0.052330 0.003919
endloop
endfacet
facet normal -0.866025 -0.500000 0.000000
outer loop
vertex 0.070340 -0.141832 0.000000
vertex 0.070340 -0.141832 0.002087
vertex -0.087660 0.131832 0.000000
endloop
endfacet
facet normal -0.866025 -0.500000 0.000000
outer loop
vertex -0.087660 0.131832 0.000000
vertex 0.070340 -0.141832 0.002087
vertex -0.087660 0.131832 0.002087
endloop
endfacet
facet normal -0.499999 0.866026 0.000000
outer loop
vertex -0.087660 0.131832 0.000000
vertex -0.087660 0.131832 0.002087
vertex -0.070340 0.141832 0.000000
endloop
endfacet
facet normal -0.500000 0.866026 0.000000
outer loop
vertex -0.070340 0.141832 0.000000
vertex -0.087660 0.131832 0.002087
vertex -0.070340 0.141832 0.002087
endloop
endfacet
facet normal -0.499999 0.866026 0.000000
outer loop
vertex -0.070340 0.141832 0.002087
vertex -0.087660 0.131832 0.002087
vertex -0.067441 0.143506 0.003861
endloop
endfacet
facet normal -0.500000 0.866025 0.000000
outer loop
vertex -0.067441 0.143506 0.003861
vertex -0.087660 0.131832 0.002087
vertex -0.064808 0.145026 0.006120
endloop
endfacet
facet normal -0.500000 0.866026 0.000008
outer loop
vertex -0.064808 0.145026 0.006120
vertex -0.087660 0.131832 0.002087
vertex -0.062500 0.146358 0.008813
endloop
endfacet
facet normal -0.499998 0.866026 -0.000006
outer loop
vertex -0.062500 0.146358 0.008813
vertex -0.087660 0.131832 0.002087
vertex -0.060572 0.147472 0.011878
endloop
endfacet
facet normal -0.500000 0.866026 0.000011
outer loop
vertex -0.060572 0.147472 0.011878
vertex -0.087660 0.131832 0.002087
vertex -0.059066 0.148341 0.015243
endloop
endfacet
facet normal -0.500001 0.866025 -0.000009
outer loop
vertex -0.059066 0.148341 0.015243
vertex -0.087660 0.131832 0.002087
vertex -0.058018 0.148946 0.018833
endloop
endfacet
facet normal -0.499998 0.866026 0.000008
outer loop
vertex -0.058018 0.148946 0.018833
vertex -0.087660 0.131832 0.002087
vertex -0.057452 0.149273 0.022564
endloop
endfacet
facet normal -0.500000 0.866026 0.000000
outer loop
vertex -0.057452 0.149273 0.022564
vertex -0.087660 0.131832 0.002087
vertex -0.057381 0.149314 0.026352
endloop
endfacet
facet normal -0.500000 0.866026 0.000000
outer loop
vertex -0.057381 0.149314 0.026352
vertex -0.087660 0.131832 0.002087
vertex -0.057806 0.149068 0.030108
endloop
endfacet
facet normal -0.500001 0.866025 0.000006
outer loop
vertex -0.057806 0.149068 0.030108
vertex -0.087660 0.131832 0.002087
vertex -0.058718 0.148542 0.033747
endloop
endfacet
facet normal -0.499998 0.866026 0.000003
outer loop
vertex -0.058718 0.148542 0.033747
vertex -0.087660 0.131832 0.002087
vertex -0.060095 0.147747 0.037185
endloop
endfacet
facet normal -0.499997 0.866027 -0.000005
outer loop
vertex -0.060095 0.147747 0.037185
vertex -0.087660 0.131832 0.002087
vertex -0.061906 0.146701 0.040343
endloop
endfacet
facet normal -0.500001 0.866025 0.000003
outer loop
vertex -0.061906 0.146701 0.040343
vertex -0.087660 0.131832 0.002087
vertex -0.064110 0.145429 0.043149
endloop
endfacet
facet normal -0.500001 0.866025 -0.000003
outer loop
vertex -0.064110 0.145429 0.043149
vertex -0.087660 0.131832 0.002087
vertex -0.066656 0.143959 0.045539
endloop
endfacet
facet normal -0.500000 0.866025 0.000000
outer loop
vertex -0.066656 0.143959 0.045539
vertex -0.087660 0.131832 0.002087
vertex -0.069485 0.142325 0.047456
endloop
endfacet
facet normal -0.499999 0.866026 0.000002
outer loop
vertex -0.069485 0.142325 0.047456
vertex -0.087660 0.131832 0.002087
vertex -0.072533 0.140566 0.048859
endloop
endfacet
facet normal -0.500001 0.866025 0.000001
outer loop
vertex -0.072533 0.140566 0.048859
vertex -0.087660 0.131832 0.002087
vertex -0.090559 0.130158 0.003861
endloop
endfacet
facet normal -0.500000 0.866026 0.000001
outer loop
vertex -0.072533 0.140566 0.048859
vertex -0.090559 0.130158 0.003861
vertex -0.093192 0.128638 0.006120
endloop
endfacet
facet normal -0.500000 0.866025 -0.000005
outer loop
vertex -0.093192 0.128638 0.006120
vertex -0.095500 0.127306 0.008813
vertex -0.072533 0.140566 0.048859
endloop
endfacet
facet normal -0.500002 0.866024 0.000003
outer loop
vertex -0.072533 0.140566 0.048859
vertex -0.095500 0.127306 0.008813
vertex -0.097428 0.126192 0.011878
endloop
endfacet
facet normal -0.500000 0.866025 -0.000002
outer loop
vertex -0.072533 0.140566 0.048859
vertex -0.097428 0.126192 0.011878
vertex -0.098934 0.125323 0.015243
endloop
endfacet
facet normal -0.499996 0.866028 0.000000
outer loop
vertex -0.098934 0.125323 0.015243
vertex -0.099982 0.124718 0.018833
vertex -0.072533 0.140566 0.048859
endloop
endfacet
facet normal -0.500002 0.866024 0.000003
outer loop
vertex -0.072533 0.140566 0.048859
vertex -0.099982 0.124718 0.018833
vertex -0.100548 0.124392 0.022564
endloop
endfacet
facet normal -0.499999 0.866026 0.000001
outer loop
vertex -0.072533 0.140566 0.048859
vertex -0.100548 0.124392 0.022564
vertex -0.100619 0.124350 0.026352
endloop
endfacet
facet normal -0.500002 0.866024 0.000000
outer loop
vertex -0.100619 0.124350 0.026352
vertex -0.100194 0.124596 0.030108
vertex -0.072533 0.140566 0.048859
endloop
endfacet
facet normal -0.499998 0.866027 -0.000005
outer loop
vertex -0.072533 0.140566 0.048859
vertex -0.100194 0.124596 0.030108
vertex -0.075729 0.138721 0.049713
endloop
endfacet
facet normal -0.499998 0.866026 -0.000003
outer loop
vertex -0.075729 0.138721 0.049713
vertex -0.100194 0.124596 0.030108
vertex -0.099282 0.125122 0.033747
endloop
endfacet
facet normal -0.500001 0.866025 -0.000001
outer loop
vertex -0.075729 0.138721 0.049713
vertex -0.099282 0.125122 0.033747
vertex -0.097905 0.125917 0.037185
endloop
endfacet
facet normal -0.500002 0.866024 0.000017
outer loop
vertex -0.097905 0.125917 0.037185
vertex -0.096094 0.126963 0.040343
vertex -0.075729 0.138721 0.049713
endloop
endfacet
facet normal -0.500001 0.866025 -0.000011
outer loop
vertex -0.075729 0.138721 0.049713
vertex -0.096094 0.126963 0.040343
vertex -0.093890 0.128235 0.043149
endloop
endfacet
facet normal -0.499999 0.866026 0.000006
outer loop
vertex -0.075729 0.138721 0.049713
vertex -0.093890 0.128235 0.043149
vertex -0.091344 0.129705 0.045539
endloop
endfacet
facet normal -0.499999 0.866026 0.000011
outer loop
vertex -0.091344 0.129705 0.045539
vertex -0.088515 0.131339 0.047456
vertex -0.075729 0.138721 0.049713
endloop
endfacet
facet normal -0.500002 0.866024 0.000000
outer loop
vertex -0.075729 0.138721 0.049713
vertex -0.088515 0.131339 0.047456
vertex -0.085467 0.133098 0.048859
endloop
endfacet
facet normal -0.500004 0.866023 -0.000009
outer loop
vertex -0.075729 0.138721 0.049713
vertex -0.085467 0.133098 0.048859
vertex -0.082271 0.134943 0.049713
endloop
endfacet
facet normal -0.500002 0.866024 0.000000
outer loop
vertex -0.082271 0.134943 0.049713
vertex -0.079000 0.136832 0.050000
vertex -0.075729 0.138721 0.049713
endloop
endfacet
facet normal 0.500000 -0.866026 0.000000
outer loop
vertex 0.070340 -0.141832 0.000000
vertex 0.087660 -0.131832 0.000000
vertex 0.070340 -0.141832 0.002087
endloop
endfacet
facet normal 0.499999 -0.866026 0.000000
outer loop
vertex 0.070340 -0.141832 0.002087
vertex 0.087660 -0.131832 0.000000
vertex 0.087660 -0.131832 0.002087
endloop
endfacet
facet normal 0.499999 -0.866026 0.000002
outer loop
vertex 0.070340 -0.141832 0.002087
vertex 0.087660 -0.131832 0.002087
vertex 0.090559 -0.130158 0.003861
endloop
endfacet
facet normal 0.500001 -0.866025 0.000000
outer loop
vertex 0.090559 -0.130158 0.003861
vertex 0.093192 -0.128638 0.006120
vertex 0.070340 -0.141832 0.002087
endloop
endfacet
facet normal 0.499999 -0.866026 0.000000
outer loop
vertex 0.070340 -0.141832 0.002087
vertex 0.093192 -0.128638 0.006120
vertex 0.095500 -0.127306 0.008813
endloop
endfacet
facet normal 0.499999 -0.866026 0.000006
outer loop
vertex 0.070340 -0.141832 0.002087
vertex 0.095500 -0.127306 0.008813
vertex 0.097428 -0.126192 0.011878
endloop
endfacet
facet normal 0.499999 -0.866026 -0.000005
outer loop
vertex 0.097428 -0.126192 0.011878
vertex 0.098934 -0.125323 0.015243
vertex 0.070340 -0.141832 0.002087
endloop
endfacet
facet normal 0.500002 -0.866024 0.000007
outer loop
vertex 0.070340 -0.141832 0.002087
vertex 0.098934 -0.125323 0.015243
vertex 0.099982 -0.124718 0.018833
endloop
endfacet
facet normal 0.499998 -0.866026 -0.000009
outer loop
vertex 0.070340 -0.141832 0.002087
vertex 0.099982 -0.124718 0.018833
vertex 0.100548 -0.124391 0.022564
endloop
endfacet
facet normal 0.500000 -0.866026 0.000007
outer loop
vertex 0.100548 -0.124391 0.022564
vertex 0.100619 -0.124350 0.026352
vertex 0.070340 -0.141832 0.002087
endloop
endfacet
facet normal 0.499999 -0.866026 0.000000
outer loop
vertex 0.070340 -0.141832 0.002087
vertex 0.100619 -0.124350 0.026352
vertex 0.100194 -0.124596 0.030108
endloop
endfacet
facet normal 0.500001 -0.866025 -0.000004
outer loop
vertex 0.070340 -0.141832 0.002087
vertex 0.100194 -0.124596 0.030108
vertex 0.099282 -0.125122 0.033747
endloop
endfacet
facet normal 0.499998 -0.866026 -0.000003
outer loop
vertex 0.099282 -0.125122 0.033747
vertex 0.097905 -0.125917 0.037185
vertex 0.070340 -0.141832 0.002087
endloop
endfacet
facet normal 0.499999 -0.866026 0.000008
outer loop
vertex 0.070340 -0.141832 0.002087
vertex 0.097905 -0.125917 0.037185
vertex 0.096094 -0.126963 0.040343
endloop
endfacet
facet normal 0.499999 -0.866026 -0.000002
outer loop
vertex 0.070340 -0.141832 0.002087
vertex 0.096094 -0.126963 0.040343
vertex 0.093890 -0.128235 0.043149
endloop
endfacet
facet normal 0.500001 -0.866025 0.000000
outer loop
vertex 0.093890 -0.128235 0.043149
vertex 0.091344 -0.129705 0.045539
vertex 0.070340 -0.141832 0.002087
endloop
endfacet
facet normal 0.500000 -0.866025 0.000000
outer loop
vertex 0.070340 -0.141832 0.002087
vertex 0.091344 -0.129705 0.045539
vertex 0.088515 -0.131339 0.047456
endloop
endfacet
facet normal 0.499999 -0.866026 0.000001
outer loop
vertex 0.070340 -0.141832 0.002087
vertex 0.088515 -0.131339 0.047456
vertex 0.085467 -0.133098 0.048859
endloop
endfacet
facet normal 0.499999 -0.866026 0.000005
outer loop
vertex 0.082271 -0.134943 0.049713
vertex 0.057806 -0.149068 0.030108
vertex 0.085467 -0.133098 0.048859
endloop
endfacet
facet normal 0.500001 -0.866025 -0.000002
outer loop
vertex 0.085467 -0.133098 0.048859
vertex 0.057806 -0.149068 0.030108
vertex 0.057381 -0.149314 0.026352
endloop
endfacet
facet normal 0.500000 -0.866026 0.000005
outer loop
vertex 0.085467 -0.133098 0.048859
vertex 0.057381 -0.149314 0.026352
vertex 0.057452 -0.149273 0.022564
endloop
endfacet
facet normal 0.500002 -0.866024 0.000054
outer loop
vertex 0.079000 -0.136832 0.050000
vertex 0.075729 -0.138721 0.049713
vertex 0.082271 -0.134943 0.049713
endloop
endfacet
facet normal 0.500004 -0.866023 -0.000009
outer loop
vertex 0.082271 -0.134943 0.049713
vertex 0.075729 -0.138721 0.049713
vertex 0.072533 -0.140566 0.048859
endloop
endfacet
facet normal 0.500002 -0.866024 0.000000
outer loop
vertex 0.082271 -0.134943 0.049713
vertex 0.072533 -0.140566 0.048859
vertex 0.069485 -0.142325 0.047456
endloop
endfacet
facet normal 0.499999 -0.866026 0.000000
outer loop
vertex 0.069485 -0.142325 0.047456
vertex 0.066656 -0.143959 0.045539
vertex 0.082271 -0.134943 0.049713
endloop
endfacet
facet normal 0.499999 -0.866026 -0.000008
outer loop
vertex 0.082271 -0.134943 0.049713
vertex 0.066656 -0.143959 0.045539
vertex 0.064110 -0.145429 0.043149
endloop
endfacet
facet normal 0.500002 -0.866024 0.000003
outer loop
vertex 0.082271 -0.134943 0.049713
vertex 0.064110 -0.145429 0.043149
vertex 0.061906 -0.146701 0.040343
endloop
endfacet
facet normal 0.500000 -0.866025 -0.000009
outer loop
vertex 0.061906 -0.146701 0.040343
vertex 0.060095 -0.147747 0.037185
vertex 0.082271 -0.134943 0.049713
endloop
endfacet
facet normal 0.500000 -0.866026 0.000005
outer loop
vertex 0.082271 -0.134943 0.049713
vertex 0.060095 -0.147747 0.037185
vertex 0.058718 -0.148542 0.033747
endloop
endfacet
facet normal 0.499999 -0.866026 -0.000003
outer loop
vertex 0.082271 -0.134943 0.049713
vertex 0.058718 -0.148542 0.033747
vertex 0.057806 -0.149068 0.030108
endloop
endfacet
facet normal 0.500002 -0.866024 -0.000007
outer loop
vertex 0.057452 -0.149273 0.022564
vertex 0.058018 -0.148946 0.018833
vertex 0.085467 -0.133098 0.048859
endloop
endfacet
facet normal 0.499998 -0.866027 -0.000001
outer loop
vertex 0.085467 -0.133098 0.048859
vertex 0.058018 -0.148946 0.018833
vertex 0.059066 -0.148341 0.015243
endloop
endfacet
facet normal 0.499999 -0.866026 0.000003
outer loop
vertex 0.085467 -0.133098 0.048859
vertex 0.059066 -0.148341 0.015243
vertex 0.060572 -0.147472 0.011878
endloop
endfacet
facet normal 0.500002 -0.866024 -0.000005
outer loop
vertex 0.060572 -0.147472 0.011878
vertex 0.062500 -0.146358 0.008813
vertex 0.085467 -0.133098 0.048859
endloop
endfacet
facet normal 0.500000 -0.866025 0.000006
outer loop
vertex 0.085467 -0.133098 0.048859
vertex 0.062500 -0.146358 0.008813
vertex 0.064808 -0.145026 0.006120
endloop
endfacet
facet normal 0.499998 -0.866027 -0.000002
outer loop
vertex 0.085467 -0.133098 0.048859
vertex 0.064808 -0.145026 0.006120
vertex 0.067441 -0.143506 0.003861
endloop
endfacet
facet normal 0.500003 -0.866024 -0.000002
outer loop
vertex 0.067441 -0.143506 0.003861
vertex 0.070340 -0.141832 0.002087
vertex 0.085467 -0.133098 0.048859
endloop
endfacet
solid cylinder
