solid bottom
facet normal 0.000000 0.000000 -1.000000
outer loop
vertex -2.000000 0.3950000 0.000000
vertex 4.000000 0.3950000 0.000000
vertex 4.000000 -0.3950000 0.000000
endloop
endfacet
facet normal 0.000000 0.000000 -1.000000
outer loop
vertex -2.000000 0.3950000 0.000000
vertex 4.000000 -0.3950000 0.000000
vertex -2.000000 -0.3950000 0.000000
endloop
endfacet
endsolid bottom
solid frontAndBack
facet normal 0.000000 1.000000 0.000000
outer loop
vertex -2.000000 0.395000 0.000000
vertex -2.000000 0.395000 0.045000
vertex 4.000000 0.395000 0.045000
endloop
endfacet
facet normal 0.000000 1.000000 0.000000
outer loop
vertex -2.000000 0.395000 0.000000
vertex 4.000000 0.395000 0.045000
vertex 4.000000 0.395000 0.000000
endloop
endfacet
facet normal 0.000000 -1.000000 0.000000
outer loop
vertex 4.000000 -0.395000 0.000000
vertex 4.000000 -0.395000 0.045000
vertex -2.000000 -0.395000 0.045000
endloop
endfacet
facet normal 0.000000 -1.000000 0.000000
outer loop
vertex 4.000000 -0.395000 0.000000
vertex -2.000000 -0.395000 0.045000
vertex -2.000000 -0.395000 0.000000
endloop
endfacet
endsolid frontAndBack
solid outlet
facet normal 1.000000 0.000000 0.000000
outer loop
vertex 4.000000 0.395000 0.000000
vertex 4.000000 0.395000 0.045000
vertex 4.000000 -0.395000 0.045000
endloop
endfacet
facet normal 1.000000 0.000000 0.000000
outer loop
vertex 4.000000 0.395000 0.000000
vertex 4.000000 -0.395000 0.045000
vertex 4.000000 -0.395000 0.000000
endloop
endfacet
endsolid outlet
solid inlet
facet normal -1.000000 0.000000 0.000000
outer loop
vertex -2.000000 -0.395000 0.000000
vertex -2.000000 -0.395000 0.045000
vertex -2.000000 0.395000 0.045000
endloop
endfacet
facet normal -1.000000 0.000000 0.000000
outer loop
vertex -2.000000 -0.395000 0.000000
vertex -2.000000 0.395000 0.045000
vertex -2.000000 0.395000 0.000000
endloop
endfacet
endsolid inlet
solid top
facet normal 0.000000 0.000000 1.000000
outer loop
vertex 4.000000 0.395000 0.045000
vertex -2.000000 0.395000 0.045000
vertex -2.000000 -0.395000 0.045000
endloop
endfacet
facet normal 0.000000 0.000000 1.000000
outer loop
vertex 4.000000 0.395000 0.045000
vertex -2.000000 -0.395000 0.045000
vertex 4.000000 -0.395000 0.045000
endloop
endfacet
endsolid top
solid cylinder
facet normal 0.000000 0.000000 -1.000000
outer loop
vertex 0.127160 0.001986 0.000000
vertex 0.109840 -0.008014 0.000000
vertex -0.109840 0.412482 0.000000
endloop
endfacet
facet normal 0.000000 0.000000 -1.000000
outer loop
vertex -0.109840 0.412482 0.000000
vertex 0.109840 -0.008014 0.000000
vertex -0.127160 0.402482 0.000000
endloop
endfacet
facet normal 0.866025 0.500000 0.000000
outer loop
vertex 0.127160 0.001986 0.002087
vertex 0.127160 0.001986 0.000000
vertex -0.109840 0.412482 0.002087
endloop
endfacet
facet normal 0.866025 0.500000 0.000000
outer loop
vertex -0.109840 0.412482 0.002087
vertex 0.127160 0.001986 0.000000
vertex -0.109840 0.412482 0.000000
endloop
endfacet
facet normal -0.405603 -0.234051 -0.883576
outer loop
vertex 0.106941 -0.009688 0.003861
vertex 0.067362 0.058682 0.003919
vertex 0.109840 -0.008014 0.002087
endloop
endfacet
facet normal -0.407206 -0.235101 -0.882559
outer loop
vertex 0.109840 -0.008014 0.002087
vertex 0.067362 0.058682 0.003919
vertex 0.027862 0.127098 0.003919
endloop
endfacet
facet normal -0.407206 -0.235100 -0.882559
outer loop
vertex 0.109840 -0.008014 0.002087
vertex 0.027862 0.127098 0.003919
vertex -0.011638 0.195514 0.003919
endloop
endfacet
facet normal -0.521016 -0.300809 -0.798785
outer loop
vertex -0.011638 0.195514 0.003919
vertex 0.027862 0.127098 0.003919
vertex -0.014333 0.193958 0.006263
endloop
endfacet
facet normal -0.521017 -0.300809 -0.798783
outer loop
vertex -0.011638 0.195514 0.003919
vertex -0.014333 0.193958 0.006263
vertex -0.053833 0.262374 0.006263
endloop
endfacet
facet normal -0.622168 -0.359209 -0.695612
outer loop
vertex -0.053833 0.262374 0.006263
vertex -0.014333 0.193958 0.006263
vertex -0.056180 0.261019 0.009062
endloop
endfacet
facet normal -0.622171 -0.359210 -0.695609
outer loop
vertex -0.053833 0.262374 0.006263
vertex -0.056180 0.261019 0.009062
vertex -0.095681 0.329435 0.009062
endloop
endfacet
facet normal -0.708213 -0.408887 -0.575539
outer loop
vertex -0.095681 0.329435 0.009062
vertex -0.056180 0.261019 0.009062
vertex -0.097622 0.328314 0.012248
endloop
endfacet
facet normal -0.708023 -0.409216 -0.575539
outer loop
vertex -0.095681 0.329435 0.009062
vertex -0.097622 0.328314 0.012248
vertex -0.136928 0.396842 0.011878
endloop
endfacet
facet normal -0.769636 -0.443924 -0.458903
outer loop
vertex -0.136928 0.396842 0.011878
vertex -0.097622 0.328314 0.012248
vertex -0.138434 0.395973 0.015243
endloop
endfacet
facet normal -0.776823 -0.449030 -0.441496
outer loop
vertex -0.138434 0.395973 0.015243
vertex -0.097622 0.328314 0.012248
vertex -0.099112 0.327454 0.015744
endloop
endfacet
facet normal -0.820888 -0.473426 -0.319390
outer loop
vertex -0.138434 0.395973 0.015243
vertex -0.099112 0.327454 0.015744
vertex -0.139482 0.395368 0.018833
endloop
endfacet
facet normal -0.826758 -0.477946 -0.296714
outer loop
vertex -0.139482 0.395368 0.018833
vertex -0.099112 0.327454 0.015744
vertex -0.100113 0.326876 0.019465
endloop
endfacet
facet normal -0.853293 -0.492053 -0.172557
outer loop
vertex -0.139482 0.395368 0.018833
vertex -0.100113 0.326876 0.019465
vertex -0.140048 0.395041 0.022564
endloop
endfacet
facet normal -0.856604 -0.495257 -0.144742
outer loop
vertex -0.140048 0.395041 0.022564
vertex -0.100113 0.326876 0.019465
vertex -0.100602 0.326594 0.023320
endloop
endfacet
facet normal -0.866111 -0.499378 -0.021753
outer loop
vertex -0.140048 0.395041 0.022564
vertex -0.100602 0.326594 0.023320
vertex -0.140119 0.395000 0.026352
endloop
endfacet
facet normal -0.865643 -0.500547 0.010757
outer loop
vertex -0.140119 0.395000 0.026352
vertex -0.100602 0.326594 0.023320
vertex -0.100565 0.326615 0.027216
endloop
endfacet
facet normal -0.859048 -0.495231 0.129549
outer loop
vertex -0.140119 0.395000 0.026352
vertex -0.100565 0.326615 0.027216
vertex -0.139694 0.395245 0.030108
endloop
endfacet
facet normal -0.853650 -0.493689 0.165992
outer loop
vertex -0.139694 0.395245 0.030108
vertex -0.100565 0.326615 0.027216
vertex -0.100005 0.326938 0.031058
endloop
endfacet
facet normal -0.832265 -0.479705 0.277882
outer loop
vertex -0.139694 0.395245 0.030108
vertex -0.100005 0.326938 0.031058
vertex -0.138782 0.395772 0.033747
endloop
endfacet
facet normal -0.820919 -0.474850 0.317191
outer loop
vertex -0.138782 0.395772 0.033747
vertex -0.100005 0.326938 0.031058
vertex -0.098935 0.327556 0.034753
endloop
endfacet
facet normal -0.786376 -0.453157 0.419835
outer loop
vertex -0.138782 0.395772 0.033747
vertex -0.098935 0.327556 0.034753
vertex -0.137405 0.396567 0.037185
endloop
endfacet
facet normal -0.768246 -0.444491 0.460679
outer loop
vertex -0.137405 0.396567 0.037185
vertex -0.098935 0.327556 0.034753
vertex -0.097381 0.328454 0.038211
endloop
endfacet
facet normal -0.722439 -0.416194 0.552146
outer loop
vertex -0.137405 0.396567 0.037185
vertex -0.097381 0.328454 0.038211
vertex -0.135594 0.397613 0.040343
endloop
endfacet
facet normal -0.696899 -0.403343 0.592998
outer loop
vertex -0.135594 0.397613 0.040343
vertex -0.097381 0.328454 0.038211
vertex -0.095380 0.329609 0.041348
endloop
endfacet
facet normal -0.641923 -0.369667 0.671775
outer loop
vertex -0.135594 0.397613 0.040343
vertex -0.095380 0.329609 0.041348
vertex -0.133390 0.398885 0.043149
endloop
endfacet
facet normal -0.608627 -0.352416 0.710898
outer loop
vertex -0.133390 0.398885 0.043149
vertex -0.095380 0.329609 0.041348
vertex -0.092981 0.330994 0.044088
endloop
endfacet
facet normal -0.546666 -0.314637 0.775990
outer loop
vertex -0.133390 0.398885 0.043149
vertex -0.092981 0.330994 0.044088
vertex -0.130844 0.400355 0.045539
endloop
endfacet
facet normal -0.505561 -0.292943 0.811537
outer loop
vertex -0.130844 0.400355 0.045539
vertex -0.092981 0.330994 0.044088
vertex -0.090243 0.332575 0.046365
endloop
endfacet
facet normal -0.438873 -0.252376 0.862379
outer loop
vertex -0.130844 0.400355 0.045539
vertex -0.090243 0.332575 0.046365
vertex -0.128015 0.401988 0.047456
endloop
endfacet
facet normal -0.390210 -0.226368 0.892465
outer loop
vertex -0.128015 0.401988 0.047456
vertex -0.090243 0.332575 0.046365
vertex -0.087232 0.334313 0.048123
endloop
endfacet
facet normal -0.321009 -0.184306 0.928970
outer loop
vertex -0.128015 0.401988 0.047456
vertex -0.087232 0.334313 0.048123
vertex -0.124967 0.403748 0.048859
endloop
endfacet
facet normal -0.265368 -0.154308 0.951719
outer loop
vertex -0.124967 0.403748 0.048859
vertex -0.087232 0.334313 0.048123
vertex -0.084020 0.336167 0.049319
endloop
endfacet
facet normal -0.195784 -0.111993 0.974231
outer loop
vertex -0.124967 0.403748 0.048859
vertex -0.084020 0.336167 0.049319
vertex -0.121771 0.405593 0.049713
endloop
endfacet
facet normal -0.134076 -0.078517 0.987856
outer loop
vertex -0.121771 0.405593 0.049713
vertex -0.084020 0.336167 0.049319
vertex -0.080687 0.338092 0.049924
endloop
endfacet
facet normal -0.066068 -0.037095 0.997125
outer loop
vertex -0.121771 0.405593 0.049713
vertex -0.080687 0.338092 0.049924
vertex -0.118500 0.407482 0.050000
endloop
endfacet
facet normal 0.000481 -0.000833 1.000000
outer loop
vertex -0.118500 0.407482 0.050000
vertex -0.080687 0.338092 0.049924
vertex -0.077313 0.340040 0.049924
endloop
endfacet
facet normal 0.065159 0.038669 0.997125
outer loop
vertex -0.118500 0.407482 0.050000
vertex -0.077313 0.340040 0.049924
vertex -0.115229 0.409370 0.049713
endloop
endfacet
facet normal 0.135037 0.076855 0.987855
outer loop
vertex -0.115229 0.409370 0.049713
vertex -0.077313 0.340040 0.049924
vertex -0.073980 0.341964 0.049319
endloop
endfacet
facet normal 0.194879 0.113556 0.974232
outer loop
vertex -0.115229 0.409370 0.049713
vertex -0.073980 0.341964 0.049319
vertex -0.112033 0.411216 0.048859
endloop
endfacet
facet normal 0.266319 0.152662 0.951719
outer loop
vertex -0.112033 0.411216 0.048859
vertex -0.073980 0.341964 0.049319
vertex -0.070768 0.343818 0.048123
endloop
endfacet
facet normal 0.320117 0.185849 0.928970
outer loop
vertex -0.112033 0.411216 0.048859
vertex -0.070768 0.343818 0.048123
vertex -0.108985 0.412975 0.047456
endloop
endfacet
facet normal 0.391147 0.224749 0.892464
outer loop
vertex -0.108985 0.412975 0.047456
vertex -0.070768 0.343818 0.048123
vertex -0.067757 0.345557 0.046365
endloop
endfacet
facet normal 0.437998 0.253886 0.862380
outer loop
vertex -0.108985 0.412975 0.047456
vertex -0.067757 0.345557 0.046365
vertex -0.106156 0.414609 0.045539
endloop
endfacet
facet normal 0.506477 0.291359 0.811536
outer loop
vertex -0.106156 0.414609 0.045539
vertex -0.067757 0.345557 0.046365
vertex -0.065019 0.347138 0.044088
endloop
endfacet
facet normal 0.545817 0.316108 0.775990
outer loop
vertex -0.106156 0.414609 0.045539
vertex -0.065019 0.347138 0.044088
vertex -0.103610 0.416078 0.043149
endloop
endfacet
facet normal 0.609512 0.350877 0.710901
outer loop
vertex -0.103610 0.416078 0.043149
vertex -0.065019 0.347138 0.044088
vertex -0.062620 0.348523 0.041348
endloop
endfacet
facet normal 0.641107 0.371090 0.671769
outer loop
vertex -0.103610 0.416078 0.043149
vertex -0.062620 0.348523 0.041348
vertex -0.101406 0.417351 0.040343
endloop
endfacet
facet normal 0.697756 0.401862 0.592995
outer loop
vertex -0.101406 0.417351 0.040343
vertex -0.062620 0.348523 0.041348
vertex -0.060619 0.349678 0.038211
endloop
endfacet
facet normal 0.721652 0.417550 0.552150
outer loop
vertex -0.101406 0.417351 0.040343
vertex -0.060619 0.349678 0.038211
vertex -0.099595 0.418397 0.037185
endloop
endfacet
facet normal 0.769063 0.443076 0.460679
outer loop
vertex -0.099595 0.418397 0.037185
vertex -0.060619 0.349678 0.038211
vertex -0.059065 0.350575 0.034753
endloop
endfacet
facet normal 0.785634 0.454443 0.419835
outer loop
vertex -0.099595 0.418397 0.037185
vertex -0.059065 0.350575 0.034753
vertex -0.098218 0.419192 0.033747
endloop
endfacet
facet normal 0.821690 0.473513 0.317192
outer loop
vertex -0.098218 0.419192 0.033747
vertex -0.059065 0.350575 0.034753
vertex -0.057995 0.351193 0.031058
endloop
endfacet
facet normal 0.831570 0.480909 0.277881
outer loop
vertex -0.098218 0.419192 0.033747
vertex -0.057995 0.351193 0.031058
vertex -0.097306 0.419718 0.030108
endloop
endfacet
facet normal 0.854371 0.492439 0.165995
outer loop
vertex -0.097306 0.419718 0.030108
vertex -0.057995 0.351193 0.031058
vertex -0.057435 0.351517 0.027216
endloop
endfacet
facet normal 0.858407 0.496342 0.129549
outer loop
vertex -0.097306 0.419718 0.030108
vertex -0.057435 0.351517 0.027216
vertex -0.096881 0.419963 0.026352
endloop
endfacet
facet normal 0.866308 0.499395 0.010757
outer loop
vertex -0.096881 0.419963 0.026352
vertex -0.057435 0.351517 0.027216
vertex -0.057398 0.351537 0.023320
endloop
endfacet
facet normal 0.865529 0.500386 -0.021753
outer loop
vertex -0.096881 0.419963 0.026352
vertex -0.057398 0.351537 0.023320
vertex -0.096952 0.419922 0.022564
endloop
endfacet
facet normal 0.857208 0.494213 -0.144736
outer loop
vertex -0.096952 0.419922 0.022564
vertex -0.057398 0.351537 0.023320
vertex -0.057887 0.351256 0.019465
endloop
endfacet
facet normal 0.852776 0.492947 -0.172557
outer loop
vertex -0.096952 0.419922 0.022564
vertex -0.057887 0.351256 0.019465
vertex -0.097518 0.419595 0.018833
endloop
endfacet
facet normal 0.827293 0.477021 -0.296713
outer loop
vertex -0.097518 0.419595 0.018833
vertex -0.057887 0.351256 0.019465
vertex -0.058888 0.350677 0.015744
endloop
endfacet
facet normal 0.820443 0.474197 -0.319391
outer loop
vertex -0.097518 0.419595 0.018833
vertex -0.058888 0.350677 0.015744
vertex -0.098566 0.418990 0.015243
endloop
endfacet
facet normal 0.777283 0.448234 -0.441494
outer loop
vertex -0.098566 0.418990 0.015243
vertex -0.058888 0.350677 0.015744
vertex -0.060378 0.349817 0.012248
endloop
endfacet
facet normal 0.769269 0.444563 -0.458898
outer loop
vertex -0.098566 0.418990 0.015243
vertex -0.060378 0.349817 0.012248
vertex -0.100072 0.418121 0.011878
endloop
endfacet
facet normal 0.708402 0.408557 -0.575541
outer loop
vertex -0.100072 0.418121 0.011878
vertex -0.060378 0.349817 0.012248
vertex -0.062320 0.348696 0.009062
endloop
endfacet
facet normal 0.700428 0.404721 -0.587878
outer loop
vertex -0.100072 0.418121 0.011878
vertex -0.062320 0.348696 0.009062
vertex -0.102000 0.417008 0.008813
endloop
endfacet
facet normal 0.622315 0.358955 -0.695612
outer loop
vertex -0.102000 0.417008 0.008813
vertex -0.062320 0.348696 0.009062
vertex -0.064667 0.347341 0.006263
endloop
endfacet
facet normal 0.615507 0.355590 -0.703354
outer loop
vertex -0.102000 0.417008 0.008813
vertex -0.064667 0.347341 0.006263
vertex -0.104308 0.415676 0.006120
endloop
endfacet
facet normal 0.521120 0.300636 -0.798782
outer loop
vertex -0.104308 0.415676 0.006120
vertex -0.064667 0.347341 0.006263
vertex -0.067362 0.345785 0.003919
endloop
endfacet
facet normal 0.516454 0.298292 -0.802681
outer loop
vertex -0.104308 0.415676 0.006120
vertex -0.067362 0.345785 0.003919
vertex -0.106941 0.414155 0.003861
endloop
endfacet
facet normal 0.405603 0.234052 -0.883575
outer loop
vertex -0.106941 0.414155 0.003861
vertex -0.067362 0.345785 0.003919
vertex -0.109840 0.412482 0.002087
endloop
endfacet
facet normal 0.407204 0.235099 -0.882560
outer loop
vertex -0.109840 0.412482 0.002087
vertex -0.067362 0.345785 0.003919
vertex -0.027862 0.277369 0.003919
endloop
endfacet
facet normal 0.407202 0.235098 -0.882562
outer loop
vertex -0.109840 0.412482 0.002087
vertex -0.027862 0.277369 0.003919
vertex 0.011638 0.208953 0.003919
endloop
endfacet
facet normal 0.521015 0.300808 -0.798786
outer loop
vertex 0.011638 0.208953 0.003919
vertex -0.027862 0.277369 0.003919
vertex 0.014333 0.210509 0.006263
endloop
endfacet
facet normal 0.521016 0.300809 -0.798784
outer loop
vertex 0.011638 0.208953 0.003919
vertex 0.014333 0.210509 0.006263
vertex 0.053833 0.142093 0.006263
endloop
endfacet
facet normal 0.622169 0.359209 -0.695610
outer loop
vertex 0.053833 0.142093 0.006263
vertex 0.014333 0.210509 0.006263
vertex 0.056180 0.143448 0.009062
endloop
endfacet
facet normal 0.622172 0.359211 -0.695608
outer loop
vertex 0.053833 0.142093 0.006263
vertex 0.056180 0.143448 0.009062
vertex 0.095681 0.075032 0.009062
endloop
endfacet
facet normal 0.708212 0.408886 -0.575541
outer loop
vertex 0.095681 0.075032 0.009062
vertex 0.056180 0.143448 0.009062
vertex 0.097622 0.076153 0.012248
endloop
endfacet
facet normal 0.708022 0.409216 -0.575540
outer loop
vertex 0.095681 0.075032 0.009062
vertex 0.097622 0.076153 0.012248
vertex 0.136928 0.007625 0.011878
endloop
endfacet
facet normal 0.769635 0.443924 -0.458905
outer loop
vertex 0.136928 0.007625 0.011878
vertex 0.097622 0.076153 0.012248
vertex 0.138434 0.008494 0.015243
endloop
endfacet
facet normal 0.776825 0.449031 -0.441491
outer loop
vertex 0.138434 0.008494 0.015243
vertex 0.097622 0.076153 0.012248
vertex 0.099112 0.077013 0.015744
endloop
endfacet
facet normal 0.820887 0.473425 -0.319394
outer loop
vertex 0.138434 0.008494 0.015243
vertex 0.099112 0.077013 0.015744
vertex 0.139482 0.009099 0.018833
endloop
endfacet
facet normal 0.826756 0.477946 -0.296719
outer loop
vertex 0.139482 0.009099 0.018833
vertex 0.099112 0.077013 0.015744
vertex 0.100113 0.077591 0.019465
endloop
endfacet
facet normal 0.853294 0.492052 -0.172549
outer loop
vertex 0.139482 0.009099 0.018833
vertex 0.100113 0.077591 0.019465
vertex 0.140048 0.009426 0.022564
endloop
endfacet
facet normal 0.856604 0.495257 -0.144742
outer loop
vertex 0.140048 0.009426 0.022564
vertex 0.100113 0.077591 0.019465
vertex 0.100602 0.077873 0.023320
endloop
endfacet
facet normal 0.866111 0.499378 -0.021747
outer loop
vertex 0.140048 0.009426 0.022564
vertex 0.100602 0.077873 0.023320
vertex 0.140119 0.009467 0.026352
endloop
endfacet
facet normal 0.865643 0.500547 0.010752
outer loop
vertex 0.140119 0.009467 0.026352
vertex 0.100602 0.077873 0.023320
vertex 0.100565 0.077852 0.027216
endloop
endfacet
facet normal 0.859047 0.495230 0.129557
outer loop
vertex 0.140119 0.009467 0.026352
vertex 0.100565 0.077852 0.027216
vertex 0.139694 0.009222 0.030108
endloop
endfacet
facet normal 0.853651 0.493689 0.165985
outer loop
vertex 0.139694 0.009222 0.030108
vertex 0.100565 0.077852 0.027216
vertex 0.100005 0.077529 0.031058
endloop
endfacet
facet normal 0.832263 0.479704 0.277889
outer loop
vertex 0.139694 0.009222 0.030108
vertex 0.100005 0.077529 0.031058
vertex 0.138782 0.008696 0.033747
endloop
endfacet
facet normal 0.820920 0.474850 0.317188
outer loop
vertex 0.138782 0.008696 0.033747
vertex 0.100005 0.077529 0.031058
vertex 0.098935 0.076911 0.034753
endloop
endfacet
facet normal 0.786375 0.453157 0.419837
outer loop
vertex 0.138782 0.008696 0.033747
vertex 0.098935 0.076911 0.034753
vertex 0.137405 0.007900 0.037185
endloop
endfacet
facet normal 0.768245 0.444489 0.460684
outer loop
vertex 0.137405 0.007900 0.037185
vertex 0.098935 0.076911 0.034753
vertex 0.097381 0.076014 0.038211
endloop
endfacet
facet normal 0.722440 0.416195 0.552143
outer loop
vertex 0.137405 0.007900 0.037185
vertex 0.097381 0.076014 0.038211
vertex 0.135594 0.006855 0.040343
endloop
endfacet
facet normal 0.696903 0.403345 0.592992
outer loop
vertex 0.135594 0.006855 0.040343
vertex 0.097381 0.076014 0.038211
vertex 0.095380 0.074859 0.041348
endloop
endfacet
facet normal 0.641920 0.369666 0.671777
outer loop
vertex 0.135594 0.006855 0.040343
vertex 0.095380 0.074859 0.041348
vertex 0.133390 0.005582 0.043149
endloop
endfacet
facet normal 0.608627 0.352416 0.710898
outer loop
vertex 0.133390 0.005582 0.043149
vertex 0.095380 0.074859 0.041348
vertex 0.092981 0.073474 0.044088
endloop
endfacet
facet normal 0.546669 0.314639 0.775987
outer loop
vertex 0.133390 0.005582 0.043149
vertex 0.092981 0.073474 0.044088
vertex 0.130844 0.004112 0.045539
endloop
endfacet
facet normal 0.505560 0.292942 0.811538
outer loop
vertex 0.130844 0.004112 0.045539
vertex 0.092981 0.073474 0.044088
vertex 0.090243 0.071893 0.046365
endloop
endfacet
facet normal 0.438874 0.252376 0.862378
outer loop
vertex 0.130844 0.004112 0.045539
vertex 0.090243 0.071893 0.046365
vertex 0.128015 0.002479 0.047456
endloop
endfacet
facet normal 0.390208 0.226367 0.892466
outer loop
vertex 0.128015 0.002479 0.047456
vertex 0.090243 0.071893 0.046365
vertex 0.087232 0.070154 0.048123
endloop
endfacet
facet normal 0.321009 0.184306 0.928970
outer loop
vertex 0.128015 0.002479 0.047456
vertex 0.087232 0.070154 0.048123
vertex 0.124967 0.000720 0.048859
endloop
endfacet
facet normal 0.265370 0.154308 0.951718
outer loop
vertex 0.124967 0.000720 0.048859
vertex 0.087232 0.070154 0.048123
vertex 0.084020 0.068300 0.049319
endloop
endfacet
facet normal 0.195783 0.111993 0.974231
outer loop
vertex 0.124967 0.000720 0.048859
vertex 0.084020 0.068300 0.049319
vertex 0.121771 -0.001126 0.049713
endloop
endfacet
facet normal 0.134077 0.078517 0.987855
outer loop
vertex 0.121771 -0.001126 0.049713
vertex 0.084020 0.068300 0.049319
vertex 0.080687 0.066376 0.049924
endloop
endfacet
facet normal 0.066067 0.037095 0.997125
outer loop
vertex 0.121771 -0.001126 0.049713
vertex 0.080687 0.066376 0.049924
vertex 0.118500 -0.003014 0.050000
endloop
endfacet
facet normal -0.000481 0.000833 1.000000
outer loop
vertex 0.118500 -0.003014 0.050000
vertex 0.080687 0.066376 0.049924
vertex 0.077313 0.064428 0.049924
endloop
endfacet
facet normal -0.065159 -0.038669 0.997125
outer loop
vertex 0.118500 -0.003014 0.050000
vertex 0.077313 0.064428 0.049924
vertex 0.115229 -0.004903 0.049713
endloop
endfacet
facet normal -0.135036 -0.076855 0.987856
outer loop
vertex 0.115229 -0.004903 0.049713
vertex 0.077313 0.064428 0.049924
vertex 0.073980 0.062503 0.049319
endloop
endfacet
facet normal -0.194878 -0.113556 0.974232
outer loop
vertex 0.115229 -0.004903 0.049713
vertex 0.073980 0.062503 0.049319
vertex 0.112033 -0.006748 0.048859
endloop
endfacet
facet normal -0.266320 -0.152662 0.951718
outer loop
vertex 0.112033 -0.006748 0.048859
vertex 0.073980 0.062503 0.049319
vertex 0.070768 0.060649 0.048123
endloop
endfacet
facet normal -0.320120 -0.185850 0.928969
outer loop
vertex 0.112033 -0.006748 0.048859
vertex 0.070768 0.060649 0.048123
vertex 0.108985 -0.008508 0.047456
endloop
endfacet
facet normal -0.391143 -0.224747 0.892466
outer loop
vertex 0.108985 -0.008508 0.047456
vertex 0.070768 0.060649 0.048123
vertex 0.067757 0.058911 0.046365
endloop
endfacet
facet normal -0.438001 -0.253888 0.862378
outer loop
vertex 0.108985 -0.008508 0.047456
vertex 0.067757 0.058911 0.046365
vertex 0.106156 -0.010141 0.045539
endloop
endfacet
facet normal -0.506476 -0.291358 0.811537
outer loop
vertex 0.106156 -0.010141 0.045539
vertex 0.067757 0.058911 0.046365
vertex 0.065019 0.057330 0.044088
endloop
endfacet
facet normal -0.545820 -0.316110 0.775986
outer loop
vertex 0.106156 -0.010141 0.045539
vertex 0.065019 0.057330 0.044088
vertex 0.103610 -0.011611 0.043149
endloop
endfacet
facet normal -0.609515 -0.350878 0.710898
outer loop
vertex 0.103610 -0.011611 0.043149
vertex 0.065019 0.057330 0.044088
vertex 0.062620 0.055945 0.041348
endloop
endfacet
facet normal -0.641101 -0.371085 0.671777
outer loop
vertex 0.103610 -0.011611 0.043149
vertex 0.062620 0.055945 0.041348
vertex 0.101406 -0.012883 0.040343
endloop
endfacet
facet normal -0.697757 -0.401863 0.592993
outer loop
vertex 0.101406 -0.012883 0.040343
vertex 0.062620 0.055945 0.041348
vertex 0.060619 0.054790 0.038211
endloop
endfacet
facet normal -0.721655 -0.417553 0.552144
outer loop
vertex 0.101406 -0.012883 0.040343
vertex 0.060619 0.054790 0.038211
vertex 0.099595 -0.013929 0.037185
endloop
endfacet
facet normal -0.769061 -0.443075 0.460683
outer loop
vertex 0.099595 -0.013929 0.037185
vertex 0.060619 0.054790 0.038211
vertex 0.059065 0.053892 0.034753
endloop
endfacet
facet normal -0.785633 -0.454443 0.419836
outer loop
vertex 0.099595 -0.013929 0.037185
vertex 0.059065 0.053892 0.034753
vertex 0.098218 -0.014724 0.033747
endloop
endfacet
facet normal -0.821691 -0.473513 0.317188
outer loop
vertex 0.098218 -0.014724 0.033747
vertex 0.059065 0.053892 0.034753
vertex 0.057995 0.053274 0.031058
endloop
endfacet
facet normal -0.831569 -0.480908 0.277887
outer loop
vertex 0.098218 -0.014724 0.033747
vertex 0.057995 0.053274 0.031058
vertex 0.097306 -0.015251 0.030108
endloop
endfacet
facet normal -0.854373 -0.492439 0.165985
outer loop
vertex 0.097306 -0.015251 0.030108
vertex 0.057995 0.053274 0.031058
vertex 0.057435 0.052951 0.027216
endloop
endfacet
facet normal -0.858405 -0.496341 0.129558
outer loop
vertex 0.097306 -0.015251 0.030108
vertex 0.057435 0.052951 0.027216
vertex 0.096881 -0.015496 0.026352
endloop
endfacet
facet normal -0.866308 -0.499395 0.010754
outer loop
vertex 0.096881 -0.015496 0.026352
vertex 0.057435 0.052951 0.027216
vertex 0.057398 0.052930 0.023320
endloop
endfacet
facet normal -0.865529 -0.500386 -0.021747
outer loop
vertex 0.096881 -0.015496 0.026352
vertex 0.057398 0.052930 0.023320
vertex 0.096952 -0.015455 0.022564
endloop
endfacet
facet normal -0.857207 -0.494213 -0.144742
outer loop
vertex 0.096952 -0.015455 0.022564
vertex 0.057398 0.052930 0.023320
vertex 0.057887 0.053212 0.019465
endloop
endfacet
facet normal -0.852777 -0.492948 -0.172551
outer loop
vertex 0.096952 -0.015455 0.022564
vertex 0.057887 0.053212 0.019465
vertex 0.097518 -0.015128 0.018833
endloop
endfacet
facet normal -0.827291 -0.477020 -0.296720
outer loop
vertex 0.097518 -0.015128 0.018833
vertex 0.057887 0.053212 0.019465
vertex 0.058888 0.053790 0.015744
endloop
endfacet
facet normal -0.820442 -0.474197 -0.319392
outer loop
vertex 0.097518 -0.015128 0.018833
vertex 0.058888 0.053790 0.015744
vertex 0.098566 -0.014523 0.015243
endloop
endfacet
facet normal -0.777285 -0.448235 -0.441490
outer loop
vertex 0.098566 -0.014523 0.015243
vertex 0.058888 0.053790 0.015744
vertex 0.060378 0.054650 0.012248
endloop
endfacet
facet normal -0.769267 -0.444562 -0.458903
outer loop
vertex 0.098566 -0.014523 0.015243
vertex 0.060378 0.054650 0.012248
vertex 0.100072 -0.013654 0.011878
endloop
endfacet
facet normal -0.708402 -0.408557 -0.575541
outer loop
vertex 0.100072 -0.013654 0.011878
vertex 0.060378 0.054650 0.012248
vertex 0.062320 0.055771 0.009062
endloop
endfacet
facet normal -0.700428 -0.404722 -0.587878
outer loop
vertex 0.100072 -0.013654 0.011878
vertex 0.062320 0.055771 0.009062
vertex 0.102000 -0.012540 0.008813
endloop
endfacet
facet normal -0.622317 -0.358956 -0.695609
outer loop
vertex 0.102000 -0.012540 0.008813
vertex 0.062320 0.055771 0.009062
vertex 0.064667 0.057126 0.006263
endloop
endfacet
facet normal -0.615510 -0.355591 -0.703351
outer loop
vertex 0.102000 -0.012540 0.008813
vertex 0.064667 0.057126 0.006263
vertex 0.104308 -0.011208 0.006120
endloop
endfacet
facet normal -0.521115 -0.300633 -0.798786
outer loop
vertex 0.104308 -0.011208 0.006120
vertex 0.064667 0.057126 0.006263
vertex 0.067362 0.058682 0.003919
endloop
endfacet
facet normal -0.516457 -0.298293 -0.802679
outer loop
vertex 0.104308 -0.011208 0.006120
vertex 0.067362 0.058682 0.003919
vertex 0.106941 -0.009688 0.003861
endloop
endfacet
facet normal 0.700714 0.404228 -0.587877
outer loop
vertex 0.136928 0.007625 0.011878
vertex 0.135000 0.006512 0.008813
vertex 0.095681 0.075032 0.009062
endloop
endfacet
facet normal 0.622023 0.359465 -0.695609
outer loop
vertex 0.095681 0.075032 0.009062
vertex 0.135000 0.006512 0.008813
vertex 0.093333 0.073677 0.006263
endloop
endfacet
facet normal 0.622171 0.359210 -0.695609
outer loop
vertex 0.095681 0.075032 0.009062
vertex 0.093333 0.073677 0.006263
vertex 0.053833 0.142093 0.006263
endloop
endfacet
facet normal 0.521015 0.300808 -0.798786
outer loop
vertex 0.053833 0.142093 0.006263
vertex 0.093333 0.073677 0.006263
vertex 0.051138 0.140537 0.003919
endloop
endfacet
facet normal 0.521014 0.300808 -0.798786
outer loop
vertex 0.053833 0.142093 0.006263
vertex 0.051138 0.140537 0.003919
vertex 0.011638 0.208953 0.003919
endloop
endfacet
facet normal 0.407215 0.235106 -0.882554
outer loop
vertex 0.011638 0.208953 0.003919
vertex 0.051138 0.140537 0.003919
vertex -0.109840 0.412482 0.002087
endloop
endfacet
facet normal 0.615706 0.355252 -0.703351
outer loop
vertex 0.135000 0.006512 0.008813
vertex 0.132692 0.005180 0.006120
vertex 0.093333 0.073677 0.006263
endloop
endfacet
facet normal 0.520914 0.300983 -0.798786
outer loop
vertex 0.093333 0.073677 0.006263
vertex 0.132692 0.005180 0.006120
vertex 0.090638 0.072121 0.003919
endloop
endfacet
facet normal 0.521015 0.300808 -0.798786
outer loop
vertex 0.093333 0.073677 0.006263
vertex 0.090638 0.072121 0.003919
vertex 0.051138 0.140537 0.003919
endloop
endfacet
facet normal 0.407198 0.235096 -0.882564
outer loop
vertex 0.051138 0.140537 0.003919
vertex 0.090638 0.072121 0.003919
vertex -0.109840 0.412482 0.002087
endloop
endfacet
facet normal 0.516559 0.298119 -0.802678
outer loop
vertex 0.132692 0.005180 0.006120
vertex 0.130059 0.003659 0.003861
vertex 0.090638 0.072121 0.003919
endloop
endfacet
facet normal 0.414220 0.239255 -0.878168
outer loop
vertex 0.090638 0.072121 0.003919
vertex 0.130059 0.003659 0.003861
vertex -0.109840 0.412482 0.002087
endloop
endfacet
facet normal 0.405548 0.234143 -0.883576
outer loop
vertex 0.130059 0.003659 0.003861
vertex 0.127160 0.001986 0.002087
vertex -0.109840 0.412482 0.002087
endloop
endfacet
facet normal -0.700716 -0.404229 -0.587875
outer loop
vertex -0.136928 0.396842 0.011878
vertex -0.135000 0.397956 0.008813
vertex -0.095681 0.329435 0.009062
endloop
endfacet
facet normal -0.622021 -0.359463 -0.695612
outer loop
vertex -0.095681 0.329435 0.009062
vertex -0.135000 0.397956 0.008813
vertex -0.093333 0.330790 0.006263
endloop
endfacet
facet normal -0.622168 -0.359209 -0.695612
outer loop
vertex -0.095681 0.329435 0.009062
vertex -0.093333 0.330790 0.006263
vertex -0.053833 0.262374 0.006263
endloop
endfacet
facet normal -0.521019 -0.300811 -0.798782
outer loop
vertex -0.053833 0.262374 0.006263
vertex -0.093333 0.330790 0.006263
vertex -0.051138 0.263930 0.003919
endloop
endfacet
facet normal -0.521017 -0.300809 -0.798784
outer loop
vertex -0.053833 0.262374 0.006263
vertex -0.051138 0.263930 0.003919
vertex -0.011638 0.195514 0.003919
endloop
endfacet
facet normal -0.407207 -0.235101 -0.882559
outer loop
vertex -0.011638 0.195514 0.003919
vertex -0.051138 0.263930 0.003919
vertex 0.109840 -0.008014 0.002087
endloop
endfacet
facet normal -0.615703 -0.355250 -0.703354
outer loop
vertex -0.135000 0.397956 0.008813
vertex -0.132692 0.399288 0.006120
vertex -0.093333 0.330790 0.006263
endloop
endfacet
facet normal -0.520916 -0.300984 -0.798784
outer loop
vertex -0.093333 0.330790 0.006263
vertex -0.132692 0.399288 0.006120
vertex -0.090638 0.332346 0.003919
endloop
endfacet
facet normal -0.521012 -0.300806 -0.798788
outer loop
vertex -0.093333 0.330790 0.006263
vertex -0.090638 0.332346 0.003919
vertex -0.051138 0.263930 0.003919
endloop
endfacet
facet normal -0.407207 -0.235101 -0.882559
outer loop
vertex -0.051138 0.263930 0.003919
vertex -0.090638 0.332346 0.003919
vertex 0.109840 -0.008014 0.002087
endloop
endfacet
facet normal -0.516558 -0.298118 -0.802679
outer loop
vertex -0.132692 0.399288 0.006120
vertex -0.130059 0.400808 0.003861
vertex -0.090638 0.332346 0.003919
endloop
endfacet
facet normal -0.414229 -0.239261 -0.878162
outer loop
vertex -0.090638 0.332346 0.003919
vertex -0.130059 0.400808 0.003861
vertex 0.109840 -0.008014 0.002087
endloop
endfacet
facet normal -0.405548 -0.234143 -0.883576
outer loop
vertex -0.130059 0.400808 0.003861
vertex -0.127160 0.402482 0.002087
vertex 0.109840 -0.008014 0.002087
endloop
endfacet
facet normal -0.521015 -0.300808 -0.798785
outer loop
vertex 0.027862 0.127098 0.003919
vertex 0.067362 0.058682 0.003919
vertex 0.025167 0.125542 0.006263
endloop
endfacet
facet normal -0.521014 -0.300808 -0.798786
outer loop
vertex 0.025167 0.125542 0.006263
vertex 0.067362 0.058682 0.003919
vertex 0.064667 0.057126 0.006263
endloop
endfacet
facet normal -0.622170 -0.359210 -0.695610
outer loop
vertex 0.025167 0.125542 0.006263
vertex 0.064667 0.057126 0.006263
vertex 0.022820 0.124187 0.009062
endloop
endfacet
facet normal -0.622169 -0.359210 -0.695611
outer loop
vertex 0.022820 0.124187 0.009062
vertex 0.064667 0.057126 0.006263
vertex 0.062320 0.055771 0.009062
endloop
endfacet
facet normal -0.708213 -0.408887 -0.575539
outer loop
vertex 0.022820 0.124187 0.009062
vertex 0.062320 0.055771 0.009062
vertex 0.020878 0.123066 0.012248
endloop
endfacet
facet normal -0.708213 -0.408887 -0.575539
outer loop
vertex 0.020878 0.123066 0.012248
vertex 0.062320 0.055771 0.009062
vertex 0.060378 0.054650 0.012248
endloop
endfacet
facet normal -0.777054 -0.448632 -0.441492
outer loop
vertex 0.020878 0.123066 0.012248
vertex 0.060378 0.054650 0.012248
vertex 0.019388 0.122206 0.015744
endloop
endfacet
facet normal -0.777055 -0.448633 -0.441490
outer loop
vertex 0.019388 0.122206 0.015744
vertex 0.060378 0.054650 0.012248
vertex 0.058888 0.053790 0.015744
endloop
endfacet
facet normal -0.827024 -0.477482 -0.296720
outer loop
vertex 0.019388 0.122206 0.015744
vertex 0.058888 0.053790 0.015744
vertex 0.018387 0.121628 0.019465
endloop
endfacet
facet normal -0.827023 -0.477482 -0.296720
outer loop
vertex 0.018387 0.121628 0.019465
vertex 0.058888 0.053790 0.015744
vertex 0.057887 0.053212 0.019465
endloop
endfacet
facet normal -0.856906 -0.494735 -0.144741
outer loop
vertex 0.018387 0.121628 0.019465
vertex 0.057887 0.053212 0.019465
vertex 0.017898 0.121346 0.023320
endloop
endfacet
facet normal -0.856906 -0.494735 -0.144741
outer loop
vertex 0.017898 0.121346 0.023320
vertex 0.057887 0.053212 0.019465
vertex 0.057398 0.052930 0.023320
endloop
endfacet
facet normal -0.865975 -0.499971 0.010752
outer loop
vertex 0.017898 0.121346 0.023320
vertex 0.057398 0.052930 0.023320
vertex 0.017935 0.121367 0.027216
endloop
endfacet
facet normal -0.865975 -0.499971 0.010755
outer loop
vertex 0.017935 0.121367 0.027216
vertex 0.057398 0.052930 0.023320
vertex 0.057435 0.052951 0.027216
endloop
endfacet
facet normal -0.854012 -0.493064 0.165983
outer loop
vertex 0.017935 0.121367 0.027216
vertex 0.057435 0.052951 0.027216
vertex 0.018495 0.121690 0.031058
endloop
endfacet
facet normal -0.854012 -0.493065 0.165985
outer loop
vertex 0.018495 0.121690 0.031058
vertex 0.057435 0.052951 0.027216
vertex 0.057995 0.053274 0.031058
endloop
endfacet
facet normal -0.821306 -0.474181 0.317189
outer loop
vertex 0.018495 0.121690 0.031058
vertex 0.057995 0.053274 0.031058
vertex 0.019565 0.122308 0.034753
endloop
endfacet
facet normal -0.821306 -0.474182 0.317189
outer loop
vertex 0.019565 0.122308 0.034753
vertex 0.057995 0.053274 0.031058
vertex 0.059065 0.053892 0.034753
endloop
endfacet
facet normal -0.768653 -0.443782 0.460684
outer loop
vertex 0.019565 0.122308 0.034753
vertex 0.059065 0.053892 0.034753
vertex 0.021119 0.123206 0.038211
endloop
endfacet
facet normal -0.768654 -0.443782 0.460683
outer loop
vertex 0.021119 0.123206 0.038211
vertex 0.059065 0.053892 0.034753
vertex 0.060619 0.054790 0.038211
endloop
endfacet
facet normal -0.697330 -0.402604 0.592993
outer loop
vertex 0.021119 0.123206 0.038211
vertex 0.060619 0.054790 0.038211
vertex 0.023120 0.124361 0.041348
endloop
endfacet
facet normal -0.697330 -0.402604 0.592993
outer loop
vertex 0.023120 0.124361 0.041348
vertex 0.060619 0.054790 0.038211
vertex 0.062620 0.055945 0.041348
endloop
endfacet
facet normal -0.609070 -0.351647 0.710899
outer loop
vertex 0.023120 0.124361 0.041348
vertex 0.062620 0.055945 0.041348
vertex 0.025519 0.125746 0.044088
endloop
endfacet
facet normal -0.609073 -0.351648 0.710897
outer loop
vertex 0.025519 0.125746 0.044088
vertex 0.062620 0.055945 0.041348
vertex 0.065019 0.057330 0.044088
endloop
endfacet
facet normal -0.506020 -0.292151 0.811537
outer loop
vertex 0.025519 0.125746 0.044088
vertex 0.065019 0.057330 0.044088
vertex 0.028257 0.127327 0.046365
endloop
endfacet
facet normal -0.506019 -0.292150 0.811537
outer loop
vertex 0.028257 0.127327 0.046365
vertex 0.065019 0.057330 0.044088
vertex 0.067757 0.058911 0.046365
endloop
endfacet
facet normal -0.390674 -0.225557 0.892467
outer loop
vertex 0.028257 0.127327 0.046365
vertex 0.067757 0.058911 0.046365
vertex 0.031268 0.129065 0.048123
endloop
endfacet
facet normal -0.390677 -0.225557 0.892466
outer loop
vertex 0.031268 0.129065 0.048123
vertex 0.067757 0.058911 0.046365
vertex 0.070768 0.060649 0.048123
endloop
endfacet
facet normal -0.265845 -0.153486 0.951719
outer loop
vertex 0.031268 0.129065 0.048123
vertex 0.070768 0.060649 0.048123
vertex 0.034480 0.130919 0.049319
endloop
endfacet
facet normal -0.265846 -0.153486 0.951719
outer loop
vertex 0.034480 0.130919 0.049319
vertex 0.070768 0.060649 0.048123
vertex 0.073980 0.062503 0.049319
endloop
endfacet
facet normal -0.134556 -0.077686 0.987856
outer loop
vertex 0.034480 0.130919 0.049319
vertex 0.073980 0.062503 0.049319
vertex 0.037813 0.132844 0.049924
endloop
endfacet
facet normal -0.134557 -0.077686 0.987856
outer loop
vertex 0.037813 0.132844 0.049924
vertex 0.073980 0.062503 0.049319
vertex 0.077313 0.064428 0.049924
endloop
endfacet
facet normal 0.000000 0.000000 1.000000
outer loop
vertex 0.037813 0.132844 0.049924
vertex 0.077313 0.064428 0.049924
vertex 0.041187 0.134792 0.049924
endloop
endfacet
facet normal 0.000000 0.000000 1.000000
outer loop
vertex 0.041187 0.134792 0.049924
vertex 0.077313 0.064428 0.049924
vertex 0.080687 0.066376 0.049924
endloop
endfacet
facet normal 0.134556 0.077686 0.987856
outer loop
vertex 0.041187 0.134792 0.049924
vertex 0.080687 0.066376 0.049924
vertex 0.044520 0.136716 0.049319
endloop
endfacet
facet normal 0.134555 0.077686 0.987856
outer loop
vertex 0.044520 0.136716 0.049319
vertex 0.080687 0.066376 0.049924
vertex 0.084020 0.068300 0.049319
endloop
endfacet
facet normal 0.265848 0.153486 0.951718
outer loop
vertex 0.044520 0.136716 0.049319
vertex 0.084020 0.068300 0.049319
vertex 0.047732 0.138570 0.048123
endloop
endfacet
facet normal 0.265843 0.153485 0.951719
outer loop
vertex 0.047732 0.138570 0.048123
vertex 0.084020 0.068300 0.049319
vertex 0.087232 0.070154 0.048123
endloop
endfacet
facet normal 0.390677 0.225557 0.892466
outer loop
vertex 0.047732 0.138570 0.048123
vertex 0.087232 0.070154 0.048123
vertex 0.050743 0.140309 0.046365
endloop
endfacet
facet normal 0.390675 0.225557 0.892467
outer loop
vertex 0.050743 0.140309 0.046365
vertex 0.087232 0.070154 0.048123
vertex 0.090243 0.071893 0.046365
endloop
endfacet
facet normal 0.506019 0.292150 0.811537
outer loop
vertex 0.050743 0.140309 0.046365
vertex 0.090243 0.071893 0.046365
vertex 0.053481 0.141890 0.044088
endloop
endfacet
facet normal 0.506018 0.292150 0.811538
outer loop
vertex 0.053481 0.141890 0.044088
vertex 0.090243 0.071893 0.046365
vertex 0.092981 0.073474 0.044088
endloop
endfacet
facet normal 0.609073 0.351648 0.710897
outer loop
vertex 0.053481 0.141890 0.044088
vertex 0.092981 0.073474 0.044088
vertex 0.055880 0.143275 0.041348
endloop
endfacet
facet normal 0.609070 0.351647 0.710899
outer loop
vertex 0.055880 0.143275 0.041348
vertex 0.092981 0.073474 0.044088
vertex 0.095380 0.074859 0.041348
endloop
endfacet
facet normal 0.697331 0.402604 0.592992
outer loop
vertex 0.055880 0.143275 0.041348
vertex 0.095380 0.074859 0.041348
vertex 0.057881 0.144430 0.038211
endloop
endfacet
facet normal 0.697330 0.402604 0.592993
outer loop
vertex 0.057881 0.144430 0.038211
vertex 0.095380 0.074859 0.041348
vertex 0.097381 0.076014 0.038211
endloop
endfacet
facet normal 0.768653 0.443781 0.460686
outer loop
vertex 0.057881 0.144430 0.038211
vertex 0.097381 0.076014 0.038211
vertex 0.059435 0.145327 0.034753
endloop
endfacet
facet normal 0.768653 0.443783 0.460683
outer loop
vertex 0.059435 0.145327 0.034753
vertex 0.097381 0.076014 0.038211
vertex 0.098935 0.076911 0.034753
endloop
endfacet
facet normal 0.821306 0.474181 0.317189
outer loop
vertex 0.059435 0.145327 0.034753
vertex 0.098935 0.076911 0.034753
vertex 0.060505 0.145945 0.031058
endloop
endfacet
facet normal 0.821307 0.474181 0.317186
outer loop
vertex 0.060505 0.145945 0.031058
vertex 0.098935 0.076911 0.034753
vertex 0.100005 0.077529 0.031058
endloop
endfacet
facet normal 0.854011 0.493065 0.165988
outer loop
vertex 0.060505 0.145945 0.031058
vertex 0.100005 0.077529 0.031058
vertex 0.061065 0.146268 0.027216
endloop
endfacet
facet normal 0.854012 0.493064 0.165984
outer loop
vertex 0.061065 0.146268 0.027216
vertex 0.100005 0.077529 0.031058
vertex 0.100565 0.077852 0.027216
endloop
endfacet
facet normal 0.865975 0.499971 0.010754
outer loop
vertex 0.061065 0.146268 0.027216
vertex 0.100565 0.077852 0.027216
vertex 0.061102 0.146289 0.023320
endloop
endfacet
facet normal 0.865975 0.499971 0.010753
outer loop
vertex 0.061102 0.146289 0.023320
vertex 0.100565 0.077852 0.027216
vertex 0.100602 0.077873 0.023320
endloop
endfacet
facet normal 0.856906 0.494735 -0.144741
outer loop
vertex 0.061102 0.146289 0.023320
vertex 0.100602 0.077873 0.023320
vertex 0.060613 0.146007 0.019465
endloop
endfacet
facet normal 0.856906 0.494735 -0.144742
outer loop
vertex 0.060613 0.146007 0.019465
vertex 0.100602 0.077873 0.023320
vertex 0.100113 0.077591 0.019465
endloop
endfacet
facet normal 0.827023 0.477483 -0.296720
outer loop
vertex 0.060613 0.146007 0.019465
vertex 0.100113 0.077591 0.019465
vertex 0.059612 0.145429 0.015744
endloop
endfacet
facet normal 0.827024 0.477482 -0.296718
outer loop
vertex 0.059612 0.145429 0.015744
vertex 0.100113 0.077591 0.019465
vertex 0.099112 0.077013 0.015744
endloop
endfacet
facet normal 0.777054 0.448632 -0.441493
outer loop
vertex 0.059612 0.145429 0.015744
vertex 0.099112 0.077013 0.015744
vertex 0.058122 0.144569 0.012248
endloop
endfacet
facet normal 0.777055 0.448633 -0.441490
outer loop
vertex 0.058122 0.144569 0.012248
vertex 0.099112 0.077013 0.015744
vertex 0.097622 0.076153 0.012248
endloop
endfacet
facet normal 0.708213 0.408887 -0.575539
outer loop
vertex 0.058122 0.144569 0.012248
vertex 0.097622 0.076153 0.012248
vertex 0.056180 0.143448 0.009062
endloop
endfacet
facet normal -0.521014 -0.300808 -0.798786
outer loop
vertex 0.027862 0.127098 0.003919
vertex 0.025167 0.125542 0.006263
vertex -0.014333 0.193958 0.006263
endloop
endfacet
facet normal -0.622171 -0.359210 -0.695609
outer loop
vertex -0.014333 0.193958 0.006263
vertex 0.025167 0.125542 0.006263
vertex -0.016680 0.192603 0.009062
endloop
endfacet
facet normal -0.622168 -0.359209 -0.695612
outer loop
vertex -0.014333 0.193958 0.006263
vertex -0.016680 0.192603 0.009062
vertex -0.056180 0.261019 0.009062
endloop
endfacet
facet normal -0.708213 -0.408887 -0.575539
outer loop
vertex -0.056180 0.261019 0.009062
vertex -0.016680 0.192603 0.009062
vertex -0.058122 0.259898 0.012248
endloop
endfacet
facet normal -0.708213 -0.408887 -0.575539
outer loop
vertex -0.056180 0.261019 0.009062
vertex -0.058122 0.259898 0.012248
vertex -0.097622 0.328314 0.012248
endloop
endfacet
facet normal -0.777055 -0.448633 -0.441491
outer loop
vertex -0.097622 0.328314 0.012248
vertex -0.058122 0.259898 0.012248
vertex -0.099112 0.327454 0.015744
endloop
endfacet
facet normal -0.622168 -0.359209 -0.695612
outer loop
vertex -0.016680 0.192603 0.009062
vertex 0.025167 0.125542 0.006263
vertex 0.022820 0.124187 0.009062
endloop
endfacet
facet normal -0.708212 -0.408886 -0.575541
outer loop
vertex -0.016680 0.192603 0.009062
vertex 0.022820 0.124187 0.009062
vertex -0.018622 0.191482 0.012248
endloop
endfacet
facet normal -0.708213 -0.408887 -0.575540
outer loop
vertex -0.018622 0.191482 0.012248
vertex 0.022820 0.124187 0.009062
vertex 0.020878 0.123066 0.012248
endloop
endfacet
facet normal -0.777055 -0.448633 -0.441491
outer loop
vertex -0.018622 0.191482 0.012248
vertex 0.020878 0.123066 0.012248
vertex -0.020112 0.190622 0.015744
endloop
endfacet
facet normal -0.777055 -0.448633 -0.441490
outer loop
vertex -0.020112 0.190622 0.015744
vertex 0.020878 0.123066 0.012248
vertex 0.019388 0.122206 0.015744
endloop
endfacet
facet normal -0.827024 -0.477483 -0.296717
outer loop
vertex -0.020112 0.190622 0.015744
vertex 0.019388 0.122206 0.015744
vertex -0.021113 0.190044 0.019465
endloop
endfacet
facet normal -0.827024 -0.477483 -0.296719
outer loop
vertex -0.021113 0.190044 0.019465
vertex 0.019388 0.122206 0.015744
vertex 0.018387 0.121628 0.019465
endloop
endfacet
facet normal -0.856906 -0.494735 -0.144741
outer loop
vertex -0.021113 0.190044 0.019465
vertex 0.018387 0.121628 0.019465
vertex -0.021602 0.189762 0.023320
endloop
endfacet
facet normal -0.856906 -0.494735 -0.144741
outer loop
vertex -0.021602 0.189762 0.023320
vertex 0.018387 0.121628 0.019465
vertex 0.017898 0.121346 0.023320
endloop
endfacet
facet normal -0.865975 -0.499971 0.010754
outer loop
vertex -0.021602 0.189762 0.023320
vertex 0.017898 0.121346 0.023320
vertex -0.021565 0.189783 0.027216
endloop
endfacet
facet normal -0.865975 -0.499971 0.010747
outer loop
vertex -0.021565 0.189783 0.027216
vertex 0.017898 0.121346 0.023320
vertex 0.017935 0.121367 0.027216
endloop
endfacet
facet normal -0.854012 -0.493064 0.165988
outer loop
vertex -0.021565 0.189783 0.027216
vertex 0.017935 0.121367 0.027216
vertex -0.021005 0.190106 0.031058
endloop
endfacet
facet normal -0.854012 -0.493065 0.165986
outer loop
vertex -0.021005 0.190106 0.031058
vertex 0.017935 0.121367 0.027216
vertex 0.018495 0.121690 0.031058
endloop
endfacet
facet normal -0.821306 -0.474180 0.317191
outer loop
vertex -0.021005 0.190106 0.031058
vertex 0.018495 0.121690 0.031058
vertex -0.019935 0.190724 0.034753
endloop
endfacet
facet normal -0.821306 -0.474182 0.317189
outer loop
vertex -0.019935 0.190724 0.034753
vertex 0.018495 0.121690 0.031058
vertex 0.019565 0.122308 0.034753
endloop
endfacet
facet normal -0.768654 -0.443783 0.460682
outer loop
vertex -0.019935 0.190724 0.034753
vertex 0.019565 0.122308 0.034753
vertex -0.018381 0.191622 0.038211
endloop
endfacet
facet normal -0.768654 -0.443781 0.460684
outer loop
vertex -0.018381 0.191622 0.038211
vertex 0.019565 0.122308 0.034753
vertex 0.021119 0.123206 0.038211
endloop
endfacet
facet normal -0.697328 -0.402604 0.592995
outer loop
vertex -0.018381 0.191622 0.038211
vertex 0.021119 0.123206 0.038211
vertex -0.016380 0.192777 0.041348
endloop
endfacet
facet normal -0.697330 -0.402604 0.592993
outer loop
vertex -0.016380 0.192777 0.041348
vertex 0.021119 0.123206 0.038211
vertex 0.023120 0.124361 0.041348
endloop
endfacet
facet normal -0.609070 -0.351647 0.710899
outer loop
vertex -0.016380 0.192777 0.041348
vertex 0.023120 0.124361 0.041348
vertex -0.013981 0.194162 0.044088
endloop
endfacet
facet normal -0.609074 -0.351648 0.710895
outer loop
vertex -0.013981 0.194162 0.044088
vertex 0.023120 0.124361 0.041348
vertex 0.025519 0.125746 0.044088
endloop
endfacet
facet normal -0.506016 -0.292149 0.811539
outer loop
vertex -0.013981 0.194162 0.044088
vertex 0.025519 0.125746 0.044088
vertex -0.011243 0.195743 0.046365
endloop
endfacet
facet normal -0.506023 -0.292152 0.811535
outer loop
vertex -0.011243 0.195743 0.046365
vertex 0.025519 0.125746 0.044088
vertex 0.028257 0.127327 0.046365
endloop
endfacet
facet normal -0.390673 -0.225556 0.892468
outer loop
vertex -0.011243 0.195743 0.046365
vertex 0.028257 0.127327 0.046365
vertex -0.008232 0.197481 0.048123
endloop
endfacet
facet normal -0.390677 -0.225557 0.892466
outer loop
vertex -0.008232 0.197481 0.048123
vertex 0.028257 0.127327 0.046365
vertex 0.031268 0.129065 0.048123
endloop
endfacet
facet normal -0.265844 -0.153486 0.951719
outer loop
vertex -0.008232 0.197481 0.048123
vertex 0.031268 0.129065 0.048123
vertex -0.005020 0.199335 0.049319
endloop
endfacet
facet normal -0.265847 -0.153486 0.951718
outer loop
vertex -0.005020 0.199335 0.049319
vertex 0.031268 0.129065 0.048123
vertex 0.034480 0.130919 0.049319
endloop
endfacet
facet normal -0.134554 -0.077686 0.987856
outer loop
vertex -0.005020 0.199335 0.049319
vertex 0.034480 0.130919 0.049319
vertex -0.001687 0.201260 0.049924
endloop
endfacet
facet normal -0.134557 -0.077686 0.987856
outer loop
vertex -0.001687 0.201260 0.049924
vertex 0.034480 0.130919 0.049319
vertex 0.037813 0.132844 0.049924
endloop
endfacet
facet normal 0.000000 0.000000 1.000000
outer loop
vertex -0.001687 0.201260 0.049924
vertex 0.037813 0.132844 0.049924
vertex 0.001687 0.203208 0.049924
endloop
endfacet
facet normal 0.000000 0.000000 1.000000
outer loop
vertex 0.001687 0.203208 0.049924
vertex 0.037813 0.132844 0.049924
vertex 0.041187 0.134792 0.049924
endloop
endfacet
facet normal 0.134556 0.077686 0.987856
outer loop
vertex 0.001687 0.203208 0.049924
vertex 0.041187 0.134792 0.049924
vertex 0.005020 0.205132 0.049319
endloop
endfacet
facet normal 0.134556 0.077686 0.987856
outer loop
vertex 0.005020 0.205132 0.049319
vertex 0.041187 0.134792 0.049924
vertex 0.044520 0.136716 0.049319
endloop
endfacet
facet normal 0.265846 0.153486 0.951718
outer loop
vertex 0.005020 0.205132 0.049319
vertex 0.044520 0.136716 0.049319
vertex 0.008232 0.206986 0.048123
endloop
endfacet
facet normal 0.265845 0.153486 0.951719
outer loop
vertex 0.008232 0.206986 0.048123
vertex 0.044520 0.136716 0.049319
vertex 0.047732 0.138570 0.048123
endloop
endfacet
facet normal 0.390678 0.225557 0.892465
outer loop
vertex 0.008232 0.206986 0.048123
vertex 0.047732 0.138570 0.048123
vertex 0.011243 0.208725 0.046365
endloop
endfacet
facet normal 0.390674 0.225557 0.892467
outer loop
vertex 0.011243 0.208725 0.046365
vertex 0.047732 0.138570 0.048123
vertex 0.050743 0.140309 0.046365
endloop
endfacet
facet normal 0.506018 0.292149 0.811539
outer loop
vertex 0.011243 0.208725 0.046365
vertex 0.050743 0.140309 0.046365
vertex 0.013981 0.210306 0.044088
endloop
endfacet
facet normal 0.506019 0.292150 0.811537
outer loop
vertex 0.013981 0.210306 0.044088
vertex 0.050743 0.140309 0.046365
vertex 0.053481 0.141890 0.044088
endloop
endfacet
facet normal 0.609073 0.351648 0.710897
outer loop
vertex 0.013981 0.210306 0.044088
vertex 0.053481 0.141890 0.044088
vertex 0.016380 0.211691 0.041348
endloop
endfacet
facet normal 0.609071 0.351647 0.710899
outer loop
vertex 0.016380 0.211691 0.041348
vertex 0.053481 0.141890 0.044088
vertex 0.055880 0.143275 0.041348
endloop
endfacet
facet normal 0.697331 0.402604 0.592992
outer loop
vertex 0.016380 0.211691 0.041348
vertex 0.055880 0.143275 0.041348
vertex 0.018381 0.212846 0.038211
endloop
endfacet
facet normal 0.697330 0.402603 0.592994
outer loop
vertex 0.018381 0.212846 0.038211
vertex 0.055880 0.143275 0.041348
vertex 0.057881 0.144430 0.038211
endloop
endfacet
facet normal 0.768653 0.443782 0.460684
outer loop
vertex 0.018381 0.212846 0.038211
vertex 0.057881 0.144430 0.038211
vertex 0.019935 0.213743 0.034753
endloop
endfacet
facet normal 0.768652 0.443781 0.460687
outer loop
vertex 0.019935 0.213743 0.034753
vertex 0.057881 0.144430 0.038211
vertex 0.059435 0.145327 0.034753
endloop
endfacet
facet normal 0.821308 0.474183 0.317181
outer loop
vertex 0.019935 0.213743 0.034753
vertex 0.059435 0.145327 0.034753
vertex 0.021005 0.214361 0.031058
endloop
endfacet
facet normal 0.821308 0.474181 0.317184
outer loop
vertex 0.021005 0.214361 0.031058
vertex 0.059435 0.145327 0.034753
vertex 0.060505 0.145945 0.031058
endloop
endfacet
facet normal 0.854010 0.493064 0.165994
outer loop
vertex 0.021005 0.214361 0.031058
vertex 0.060505 0.145945 0.031058
vertex 0.021565 0.214685 0.027216
endloop
endfacet
facet normal 0.854012 0.493064 0.165985
outer loop
vertex 0.021565 0.214685 0.027216
vertex 0.060505 0.145945 0.031058
vertex 0.061065 0.146268 0.027216
endloop
endfacet
facet normal 0.865975 0.499971 0.010751
outer loop
vertex 0.021565 0.214685 0.027216
vertex 0.061065 0.146268 0.027216
vertex 0.021602 0.214705 0.023320
endloop
endfacet
facet normal 0.865975 0.499971 0.010748
outer loop
vertex 0.021602 0.214705 0.023320
vertex 0.061065 0.146268 0.027216
vertex 0.061102 0.146289 0.023320
endloop
endfacet
facet normal 0.856906 0.494735 -0.144738
outer loop
vertex 0.021602 0.214705 0.023320
vertex 0.061102 0.146289 0.023320
vertex 0.021113 0.214423 0.019465
endloop
endfacet
facet normal 0.856906 0.494735 -0.144740
outer loop
vertex 0.021113 0.214423 0.019465
vertex 0.061102 0.146289 0.023320
vertex 0.060613 0.146007 0.019465
endloop
endfacet
facet normal 0.827023 0.477483 -0.296720
outer loop
vertex 0.021113 0.214423 0.019465
vertex 0.060613 0.146007 0.019465
vertex 0.020112 0.213845 0.015744
endloop
endfacet
facet normal 0.827023 0.477482 -0.296722
outer loop
vertex 0.020112 0.213845 0.015744
vertex 0.060613 0.146007 0.019465
vertex 0.059612 0.145429 0.015744
endloop
endfacet
facet normal 0.777056 0.448633 -0.441488
outer loop
vertex 0.020112 0.213845 0.015744
vertex 0.059612 0.145429 0.015744
vertex 0.018622 0.212985 0.012248
endloop
endfacet
facet normal 0.777055 0.448633 -0.441492
outer loop
vertex 0.018622 0.212985 0.012248
vertex 0.059612 0.145429 0.015744
vertex 0.058122 0.144569 0.012248
endloop
endfacet
facet normal 0.708212 0.408886 -0.575541
outer loop
vertex 0.018622 0.212985 0.012248
vertex 0.058122 0.144569 0.012248
vertex 0.016680 0.211864 0.009062
endloop
endfacet
facet normal 0.708212 0.408886 -0.575541
outer loop
vertex 0.016680 0.211864 0.009062
vertex 0.058122 0.144569 0.012248
vertex 0.056180 0.143448 0.009062
endloop
endfacet
facet normal 0.622172 0.359211 -0.695608
outer loop
vertex 0.016680 0.211864 0.009062
vertex 0.056180 0.143448 0.009062
vertex 0.014333 0.210509 0.006263
endloop
endfacet
facet normal -0.708213 -0.408887 -0.575539
outer loop
vertex -0.016680 0.192603 0.009062
vertex -0.018622 0.191482 0.012248
vertex -0.058122 0.259898 0.012248
endloop
endfacet
facet normal -0.777055 -0.448633 -0.441491
outer loop
vertex -0.058122 0.259898 0.012248
vertex -0.018622 0.191482 0.012248
vertex -0.059612 0.259038 0.015744
endloop
endfacet
facet normal -0.777053 -0.448631 -0.441496
outer loop
vertex -0.058122 0.259898 0.012248
vertex -0.059612 0.259038 0.015744
vertex -0.099112 0.327454 0.015744
endloop
endfacet
facet normal -0.827024 -0.477482 -0.296720
outer loop
vertex -0.099112 0.327454 0.015744
vertex -0.059612 0.259038 0.015744
vertex -0.100113 0.326876 0.019465
endloop
endfacet
facet normal -0.777056 -0.448634 -0.441488
outer loop
vertex -0.059612 0.259038 0.015744
vertex -0.018622 0.191482 0.012248
vertex -0.020112 0.190622 0.015744
endloop
endfacet
facet normal -0.827022 -0.477482 -0.296725
outer loop
vertex -0.059612 0.259038 0.015744
vertex -0.020112 0.190622 0.015744
vertex -0.060613 0.258460 0.019465
endloop
endfacet
facet normal -0.827024 -0.477483 -0.296718
outer loop
vertex -0.060613 0.258460 0.019465
vertex -0.020112 0.190622 0.015744
vertex -0.021113 0.190044 0.019465
endloop
endfacet
facet normal -0.856906 -0.494735 -0.144735
outer loop
vertex -0.060613 0.258460 0.019465
vertex -0.021113 0.190044 0.019465
vertex -0.061102 0.258178 0.023320
endloop
endfacet
facet normal -0.856905 -0.494734 -0.144747
outer loop
vertex -0.061102 0.258178 0.023320
vertex -0.021113 0.190044 0.019465
vertex -0.021602 0.189762 0.023320
endloop
endfacet
facet normal -0.865975 -0.499971 0.010754
outer loop
vertex -0.061102 0.258178 0.023320
vertex -0.021602 0.189762 0.023320
vertex -0.061065 0.258199 0.027216
endloop
endfacet
facet normal -0.865975 -0.499971 0.010761
outer loop
vertex -0.061065 0.258199 0.027216
vertex -0.021602 0.189762 0.023320
vertex -0.021565 0.189783 0.027216
endloop
endfacet
facet normal -0.854012 -0.493064 0.165988
outer loop
vertex -0.061065 0.258199 0.027216
vertex -0.021565 0.189783 0.027216
vertex -0.060505 0.258522 0.031058
endloop
endfacet
facet normal -0.854013 -0.493065 0.165977
outer loop
vertex -0.060505 0.258522 0.031058
vertex -0.021565 0.189783 0.027216
vertex -0.021005 0.190106 0.031058
endloop
endfacet
facet normal -0.821309 -0.474182 0.317180
outer loop
vertex -0.060505 0.258522 0.031058
vertex -0.021005 0.190106 0.031058
vertex -0.059435 0.259140 0.034753
endloop
endfacet
facet normal -0.821304 -0.474181 0.317196
outer loop
vertex -0.059435 0.259140 0.034753
vertex -0.021005 0.190106 0.031058
vertex -0.019935 0.190724 0.034753
endloop
endfacet
facet normal -0.768654 -0.443783 0.460682
outer loop
vertex -0.059435 0.259140 0.034753
vertex -0.019935 0.190724 0.034753
vertex -0.057881 0.260038 0.038211
endloop
endfacet
facet normal -0.768654 -0.443783 0.460682
outer loop
vertex -0.057881 0.260038 0.038211
vertex -0.019935 0.190724 0.034753
vertex -0.018381 0.191622 0.038211
endloop
endfacet
facet normal -0.697328 -0.402603 0.592996
outer loop
vertex -0.057881 0.260038 0.038211
vertex -0.018381 0.191622 0.038211
vertex -0.055880 0.261193 0.041348
endloop
endfacet
facet normal -0.697332 -0.402605 0.592990
outer loop
vertex -0.055880 0.261193 0.041348
vertex -0.018381 0.191622 0.038211
vertex -0.016380 0.192777 0.041348
endloop
endfacet
facet normal -0.609070 -0.351647 0.710899
outer loop
vertex -0.055880 0.261193 0.041348
vertex -0.016380 0.192777 0.041348
vertex -0.053481 0.262578 0.044088
endloop
endfacet
facet normal -0.609072 -0.351647 0.710897
outer loop
vertex -0.053481 0.262578 0.044088
vertex -0.016380 0.192777 0.041348
vertex -0.013981 0.194162 0.044088
endloop
endfacet
facet normal -0.506019 -0.292150 0.811538
outer loop
vertex -0.053481 0.262578 0.044088
vertex -0.013981 0.194162 0.044088
vertex -0.050743 0.264159 0.046365
endloop
endfacet
facet normal -0.506020 -0.292150 0.811537
outer loop
vertex -0.050743 0.264159 0.046365
vertex -0.013981 0.194162 0.044088
vertex -0.011243 0.195743 0.046365
endloop
endfacet
facet normal -0.390673 -0.225556 0.892468
outer loop
vertex -0.050743 0.264159 0.046365
vertex -0.011243 0.195743 0.046365
vertex -0.047732 0.265897 0.048123
endloop
endfacet
facet normal -0.390680 -0.225558 0.892465
outer loop
vertex -0.047732 0.265897 0.048123
vertex -0.011243 0.195743 0.046365
vertex -0.008232 0.197481 0.048123
endloop
endfacet
facet normal -0.265846 -0.153486 0.951719
outer loop
vertex -0.047732 0.265897 0.048123
vertex -0.008232 0.197481 0.048123
vertex -0.044520 0.267751 0.049319
endloop
endfacet
facet normal -0.265844 -0.153485 0.951719
outer loop
vertex -0.044520 0.267751 0.049319
vertex -0.008232 0.197481 0.048123
vertex -0.005020 0.199335 0.049319
endloop
endfacet
facet normal -0.134556 -0.077686 0.987856
outer loop
vertex -0.044520 0.267751 0.049319
vertex -0.005020 0.199335 0.049319
vertex -0.041187 0.269676 0.049924
endloop
endfacet
facet normal -0.134557 -0.077686 0.987856
outer loop
vertex -0.041187 0.269676 0.049924
vertex -0.005020 0.199335 0.049319
vertex -0.001687 0.201260 0.049924
endloop
endfacet
facet normal 0.000000 0.000000 1.000000
outer loop
vertex -0.041187 0.269676 0.049924
vertex -0.001687 0.201260 0.049924
vertex -0.037813 0.271624 0.049924
endloop
endfacet
facet normal 0.000000 0.000000 1.000000
outer loop
vertex -0.037813 0.271624 0.049924
vertex -0.001687 0.201260 0.049924
vertex 0.001687 0.203208 0.049924
endloop
endfacet
facet normal 0.134556 0.077686 0.987856
outer loop
vertex -0.037813 0.271624 0.049924
vertex 0.001687 0.203208 0.049924
vertex -0.034480 0.273548 0.049319
endloop
endfacet
facet normal 0.134555 0.077686 0.987856
outer loop
vertex -0.034480 0.273548 0.049319
vertex 0.001687 0.203208 0.049924
vertex 0.005020 0.205132 0.049319
endloop
endfacet
facet normal 0.265848 0.153486 0.951718
outer loop
vertex -0.034480 0.273548 0.049319
vertex 0.005020 0.205132 0.049319
vertex -0.031268 0.275402 0.048123
endloop
endfacet
facet normal 0.265842 0.153485 0.951720
outer loop
vertex -0.031268 0.275402 0.048123
vertex 0.005020 0.205132 0.049319
vertex 0.008232 0.206986 0.048123
endloop
endfacet
facet normal 0.390678 0.225557 0.892465
outer loop
vertex -0.031268 0.275402 0.048123
vertex 0.008232 0.206986 0.048123
vertex -0.028257 0.277141 0.046365
endloop
endfacet
facet normal 0.390675 0.225557 0.892467
outer loop
vertex -0.028257 0.277141 0.046365
vertex 0.008232 0.206986 0.048123
vertex 0.011243 0.208725 0.046365
endloop
endfacet
facet normal 0.506019 0.292150 0.811538
outer loop
vertex -0.028257 0.277141 0.046365
vertex 0.011243 0.208725 0.046365
vertex -0.025519 0.278722 0.044088
endloop
endfacet
facet normal 0.506019 0.292151 0.811538
outer loop
vertex -0.025519 0.278722 0.044088
vertex 0.011243 0.208725 0.046365
vertex 0.013981 0.210306 0.044088
endloop
endfacet
facet normal 0.609069 0.351645 0.710901
outer loop
vertex -0.025519 0.278722 0.044088
vertex 0.013981 0.210306 0.044088
vertex -0.023120 0.280107 0.041348
endloop
endfacet
facet normal 0.609074 0.351649 0.710895
outer loop
vertex -0.023120 0.280107 0.041348
vertex 0.013981 0.210306 0.044088
vertex 0.016380 0.211691 0.041348
endloop
endfacet
facet normal 0.697331 0.402604 0.592992
outer loop
vertex -0.023120 0.280107 0.041348
vertex 0.016380 0.211691 0.041348
vertex -0.021119 0.281262 0.038211
endloop
endfacet
facet normal 0.697330 0.402604 0.592993
outer loop
vertex -0.021119 0.281262 0.038211
vertex 0.016380 0.211691 0.041348
vertex 0.018381 0.212846 0.038211
endloop
endfacet
facet normal 0.768651 0.443780 0.460690
outer loop
vertex -0.021119 0.281262 0.038211
vertex 0.018381 0.212846 0.038211
vertex -0.019565 0.282159 0.034753
endloop
endfacet
facet normal 0.768655 0.443783 0.460681
outer loop
vertex -0.019565 0.282159 0.034753
vertex 0.018381 0.212846 0.038211
vertex 0.019935 0.213743 0.034753
endloop
endfacet
facet normal 0.821307 0.474182 0.317186
outer loop
vertex -0.019565 0.282159 0.034753
vertex 0.019935 0.213743 0.034753
vertex -0.018495 0.282777 0.031058
endloop
endfacet
facet normal 0.821307 0.474181 0.317185
outer loop
vertex -0.018495 0.282777 0.031058
vertex 0.019935 0.213743 0.034753
vertex 0.021005 0.214361 0.031058
endloop
endfacet
facet normal 0.854011 0.493065 0.165988
outer loop
vertex -0.018495 0.282777 0.031058
vertex 0.021005 0.214361 0.031058
vertex -0.017935 0.283101 0.027216
endloop
endfacet
facet normal 0.854013 0.493064 0.165980
outer loop
vertex -0.017935 0.283101 0.027216
vertex 0.021005 0.214361 0.031058
vertex 0.021565 0.214685 0.027216
endloop
endfacet
facet normal 0.865975 0.499971 0.010754
outer loop
vertex -0.017935 0.283101 0.027216
vertex 0.021565 0.214685 0.027216
vertex -0.017898 0.283121 0.023320
endloop
endfacet
facet normal 0.865975 0.499971 0.010756
outer loop
vertex -0.017898 0.283121 0.023320
vertex 0.021565 0.214685 0.027216
vertex 0.021602 0.214705 0.023320
endloop
endfacet
facet normal 0.856906 0.494735 -0.144741
outer loop
vertex -0.017898 0.283121 0.023320
vertex 0.021602 0.214705 0.023320
vertex -0.018387 0.282839 0.019465
endloop
endfacet
facet normal 0.856905 0.494734 -0.144745
outer loop
vertex -0.018387 0.282839 0.019465
vertex 0.021602 0.214705 0.023320
vertex 0.021113 0.214423 0.019465
endloop
endfacet
facet normal 0.827025 0.477483 -0.296714
outer loop
vertex -0.018387 0.282839 0.019465
vertex 0.021113 0.214423 0.019465
vertex -0.019388 0.282261 0.015744
endloop
endfacet
facet normal 0.827024 0.477482 -0.296719
outer loop
vertex -0.019388 0.282261 0.015744
vertex 0.021113 0.214423 0.019465
vertex 0.020112 0.213845 0.015744
endloop
endfacet
facet normal 0.777053 0.448631 -0.441496
outer loop
vertex -0.019388 0.282261 0.015744
vertex 0.020112 0.213845 0.015744
vertex -0.020878 0.281401 0.012248
endloop
endfacet
facet normal 0.777056 0.448633 -0.441489
outer loop
vertex -0.020878 0.281401 0.012248
vertex 0.020112 0.213845 0.015744
vertex 0.018622 0.212985 0.012248
endloop
endfacet
facet normal 0.708211 0.408886 -0.575544
outer loop
vertex -0.020878 0.281401 0.012248
vertex 0.018622 0.212985 0.012248
vertex -0.022820 0.280280 0.009062
endloop
endfacet
facet normal 0.708215 0.408888 -0.575537
outer loop
vertex -0.022820 0.280280 0.009062
vertex 0.018622 0.212985 0.012248
vertex 0.016680 0.211864 0.009062
endloop
endfacet
facet normal 0.622170 0.359210 -0.695609
outer loop
vertex -0.022820 0.280280 0.009062
vertex 0.016680 0.211864 0.009062
vertex -0.025167 0.278925 0.006263
endloop
endfacet
facet normal 0.622169 0.359209 -0.695611
outer loop
vertex -0.025167 0.278925 0.006263
vertex 0.016680 0.211864 0.009062
vertex 0.014333 0.210509 0.006263
endloop
endfacet
facet normal 0.521015 0.300808 -0.798785
outer loop
vertex -0.025167 0.278925 0.006263
vertex 0.014333 0.210509 0.006263
vertex -0.027862 0.277369 0.003919
endloop
endfacet
facet normal -0.856906 -0.494735 -0.144735
outer loop
vertex -0.100602 0.326594 0.023320
vertex -0.100113 0.326876 0.019465
vertex -0.060613 0.258460 0.019465
endloop
endfacet
facet normal -0.827022 -0.477481 -0.296725
outer loop
vertex -0.060613 0.258460 0.019465
vertex -0.100113 0.326876 0.019465
vertex -0.059612 0.259038 0.015744
endloop
endfacet
facet normal -0.856906 -0.494735 -0.144739
outer loop
vertex -0.100602 0.326594 0.023320
vertex -0.060613 0.258460 0.019465
vertex -0.061102 0.258178 0.023320
endloop
endfacet
facet normal -0.865975 -0.499971 0.010748
outer loop
vertex -0.100565 0.326615 0.027216
vertex -0.100602 0.326594 0.023320
vertex -0.061102 0.258178 0.023320
endloop
endfacet
facet normal -0.865975 -0.499971 0.010754
outer loop
vertex -0.100565 0.326615 0.027216
vertex -0.061102 0.258178 0.023320
vertex -0.061065 0.258199 0.027216
endloop
endfacet
facet normal -0.854013 -0.493064 0.165982
outer loop
vertex -0.100005 0.326938 0.031058
vertex -0.100565 0.326615 0.027216
vertex -0.061065 0.258199 0.027216
endloop
endfacet
facet normal -0.854011 -0.493064 0.165989
outer loop
vertex -0.100005 0.326938 0.031058
vertex -0.061065 0.258199 0.027216
vertex -0.060505 0.258522 0.031058
endloop
endfacet
facet normal -0.821307 -0.474181 0.317186
outer loop
vertex -0.098935 0.327556 0.034753
vertex -0.100005 0.326938 0.031058
vertex -0.060505 0.258522 0.031058
endloop
endfacet
facet normal -0.821306 -0.474181 0.317189
outer loop
vertex -0.098935 0.327556 0.034753
vertex -0.060505 0.258522 0.031058
vertex -0.059435 0.259140 0.034753
endloop
endfacet
facet normal -0.768652 -0.443781 0.460686
outer loop
vertex -0.097381 0.328454 0.038211
vertex -0.098935 0.327556 0.034753
vertex -0.059435 0.259140 0.034753
endloop
endfacet
facet normal -0.768653 -0.443782 0.460684
outer loop
vertex -0.097381 0.328454 0.038211
vertex -0.059435 0.259140 0.034753
vertex -0.057881 0.260038 0.038211
endloop
endfacet
facet normal -0.697330 -0.402605 0.592993
outer loop
vertex -0.095380 0.329609 0.041348
vertex -0.097381 0.328454 0.038211
vertex -0.057881 0.260038 0.038211
endloop
endfacet
facet normal -0.697330 -0.402604 0.592993
outer loop
vertex -0.095380 0.329609 0.041348
vertex -0.057881 0.260038 0.038211
vertex -0.055880 0.261193 0.041348
endloop
endfacet
facet normal -0.609067 -0.351646 0.710902
outer loop
vertex -0.092981 0.330994 0.044088
vertex -0.095380 0.329609 0.041348
vertex -0.055880 0.261193 0.041348
endloop
endfacet
facet normal -0.609075 -0.351649 0.710894
outer loop
vertex -0.092981 0.330994 0.044088
vertex -0.055880 0.261193 0.041348
vertex -0.053481 0.262578 0.044088
endloop
endfacet
facet normal -0.506015 -0.292149 0.811540
outer loop
vertex -0.090243 0.332575 0.046365
vertex -0.092981 0.330994 0.044088
vertex -0.053481 0.262578 0.044088
endloop
endfacet
facet normal -0.506019 -0.292150 0.811537
outer loop
vertex -0.090243 0.332575 0.046365
vertex -0.053481 0.262578 0.044088
vertex -0.050743 0.264159 0.046365
endloop
endfacet
facet normal -0.390675 -0.225558 0.892467
outer loop
vertex -0.087232 0.334313 0.048123
vertex -0.090243 0.332575 0.046365
vertex -0.050743 0.264159 0.046365
endloop
endfacet
facet normal -0.390676 -0.225556 0.892466
outer loop
vertex -0.087232 0.334313 0.048123
vertex -0.050743 0.264159 0.046365
vertex -0.047732 0.265897 0.048123
endloop
endfacet
facet normal -0.265844 -0.153486 0.951719
outer loop
vertex -0.084020 0.336167 0.049319
vertex -0.087232 0.334313 0.048123
vertex -0.047732 0.265897 0.048123
endloop
endfacet
facet normal -0.265846 -0.153485 0.951718
outer loop
vertex -0.084020 0.336167 0.049319
vertex -0.047732 0.265897 0.048123
vertex -0.044520 0.267751 0.049319
endloop
endfacet
facet normal -0.134555 -0.077686 0.987856
outer loop
vertex -0.080687 0.338092 0.049924
vertex -0.084020 0.336167 0.049319
vertex -0.044520 0.267751 0.049319
endloop
endfacet
facet normal -0.134557 -0.077686 0.987856
outer loop
vertex -0.080687 0.338092 0.049924
vertex -0.044520 0.267751 0.049319
vertex -0.041187 0.269676 0.049924
endloop
endfacet
facet normal 0.000000 0.000000 1.000000
outer loop
vertex -0.077313 0.340040 0.049924
vertex -0.080687 0.338092 0.049924
vertex -0.041187 0.269676 0.049924
endloop
endfacet
facet normal 0.000000 0.000000 1.000000
outer loop
vertex -0.077313 0.340040 0.049924
vertex -0.041187 0.269676 0.049924
vertex -0.037813 0.271624 0.049924
endloop
endfacet
facet normal 0.134557 0.077686 0.987856
outer loop
vertex -0.073980 0.341964 0.049319
vertex -0.077313 0.340040 0.049924
vertex -0.037813 0.271624 0.049924
endloop
endfacet
facet normal 0.134556 0.077686 0.987856
outer loop
vertex -0.073980 0.341964 0.049319
vertex -0.037813 0.271624 0.049924
vertex -0.034480 0.273548 0.049319
endloop
endfacet
facet normal 0.265844 0.153484 0.951719
outer loop
vertex -0.070768 0.343818 0.048123
vertex -0.073980 0.341964 0.049319
vertex -0.034480 0.273548 0.049319
endloop
endfacet
facet normal 0.265848 0.153488 0.951718
outer loop
vertex -0.070768 0.343818 0.048123
vertex -0.034480 0.273548 0.049319
vertex -0.031268 0.275402 0.048123
endloop
endfacet
facet normal 0.390674 0.225555 0.892468
outer loop
vertex -0.067757 0.345557 0.046365
vertex -0.070768 0.343818 0.048123
vertex -0.031268 0.275402 0.048123
endloop
endfacet
facet normal 0.390675 0.225558 0.892467
outer loop
vertex -0.067757 0.345557 0.046365
vertex -0.031268 0.275402 0.048123
vertex -0.028257 0.277141 0.046365
endloop
endfacet
facet normal 0.506016 0.292148 0.811540
outer loop
vertex -0.065019 0.347138 0.044088
vertex -0.067757 0.345557 0.046365
vertex -0.028257 0.277141 0.046365
endloop
endfacet
facet normal 0.506018 0.292150 0.811538
outer loop
vertex -0.065019 0.347138 0.044088
vertex -0.028257 0.277141 0.046365
vertex -0.025519 0.278722 0.044088
endloop
endfacet
facet normal 0.609074 0.351648 0.710895
outer loop
vertex -0.062620 0.348523 0.041348
vertex -0.065019 0.347138 0.044088
vertex -0.025519 0.278722 0.044088
endloop
endfacet
facet normal 0.609073 0.351649 0.710896
outer loop
vertex -0.062620 0.348523 0.041348
vertex -0.025519 0.278722 0.044088
vertex -0.023120 0.280107 0.041348
endloop
endfacet
facet normal 0.697329 0.402602 0.592996
outer loop
vertex -0.060619 0.349678 0.038211
vertex -0.062620 0.348523 0.041348
vertex -0.023120 0.280107 0.041348
endloop
endfacet
facet normal 0.697334 0.402606 0.592988
outer loop
vertex -0.060619 0.349678 0.038211
vertex -0.023120 0.280107 0.041348
vertex -0.021119 0.281262 0.038211
endloop
endfacet
facet normal 0.768654 0.443783 0.460681
outer loop
vertex -0.059065 0.350575 0.034753
vertex -0.060619 0.349678 0.038211
vertex -0.021119 0.281262 0.038211
endloop
endfacet
facet normal 0.768650 0.443781 0.460691
outer loop
vertex -0.059065 0.350575 0.034753
vertex -0.021119 0.281262 0.038211
vertex -0.019565 0.282159 0.034753
endloop
endfacet
facet normal 0.821305 0.474181 0.317192
outer loop
vertex -0.057995 0.351193 0.031058
vertex -0.059065 0.350575 0.034753
vertex -0.019565 0.282159 0.034753
endloop
endfacet
facet normal 0.821309 0.474182 0.317179
outer loop
vertex -0.057995 0.351193 0.031058
vertex -0.019565 0.282159 0.034753
vertex -0.018495 0.282777 0.031058
endloop
endfacet
facet normal 0.854012 0.493065 0.165982
outer loop
vertex -0.057435 0.351517 0.027216
vertex -0.057995 0.351193 0.031058
vertex -0.018495 0.282777 0.031058
endloop
endfacet
facet normal 0.854011 0.493063 0.165998
outer loop
vertex -0.057435 0.351517 0.027216
vertex -0.018495 0.282777 0.031058
vertex -0.017935 0.283101 0.027216
endloop
endfacet
facet normal 0.865975 0.499971 0.010742
outer loop
vertex -0.057398 0.351537 0.023320
vertex -0.057435 0.351517 0.027216
vertex -0.017935 0.283101 0.027216
endloop
endfacet
facet normal 0.865975 0.499971 0.010748
outer loop
vertex -0.057398 0.351537 0.023320
vertex -0.017935 0.283101 0.027216
vertex -0.017898 0.283121 0.023320
endloop
endfacet
facet normal 0.856907 0.494736 -0.144729
outer loop
vertex -0.057887 0.351256 0.019465
vertex -0.057398 0.351537 0.023320
vertex -0.017898 0.283121 0.023320
endloop
endfacet
facet normal 0.856904 0.494733 -0.144757
outer loop
vertex -0.057887 0.351256 0.019465
vertex -0.017898 0.283121 0.023320
vertex -0.018387 0.282839 0.019465
endloop
endfacet
facet normal 0.827027 0.477484 -0.296709
outer loop
vertex -0.058888 0.350677 0.015744
vertex -0.057887 0.351256 0.019465
vertex -0.018387 0.282839 0.019465
endloop
endfacet
facet normal 0.827024 0.477482 -0.296719
outer loop
vertex -0.058888 0.350677 0.015744
vertex -0.018387 0.282839 0.019465
vertex -0.019388 0.282261 0.015744
endloop
endfacet
facet normal 0.777055 0.448633 -0.441491
outer loop
vertex -0.060378 0.349817 0.012248
vertex -0.058888 0.350677 0.015744
vertex -0.019388 0.282261 0.015744
endloop
endfacet
facet normal 0.777053 0.448631 -0.441496
outer loop
vertex -0.060378 0.349817 0.012248
vertex -0.019388 0.282261 0.015744
vertex -0.020878 0.281401 0.012248
endloop
endfacet
facet normal 0.708215 0.408889 -0.575535
outer loop
vertex -0.062320 0.348696 0.009062
vertex -0.060378 0.349817 0.012248
vertex -0.020878 0.281401 0.012248
endloop
endfacet
facet normal 0.708211 0.408885 -0.575544
outer loop
vertex -0.062320 0.348696 0.009062
vertex -0.020878 0.281401 0.012248
vertex -0.022820 0.280280 0.009062
endloop
endfacet
facet normal 0.622168 0.359209 -0.695612
outer loop
vertex -0.064667 0.347341 0.006263
vertex -0.062320 0.348696 0.009062
vertex -0.022820 0.280280 0.009062
endloop
endfacet
facet normal 0.622172 0.359211 -0.695607
outer loop
vertex -0.064667 0.347341 0.006263
vertex -0.022820 0.280280 0.009062
vertex -0.025167 0.278925 0.006263
endloop
endfacet
facet normal 0.521014 0.300808 -0.798786
outer loop
vertex -0.067362 0.345785 0.003919
vertex -0.064667 0.347341 0.006263
vertex -0.025167 0.278925 0.006263
endloop
endfacet
facet normal 0.521015 0.300808 -0.798785
outer loop
vertex -0.067362 0.345785 0.003919
vertex -0.025167 0.278925 0.006263
vertex -0.027862 0.277369 0.003919
endloop
endfacet
facet normal -0.866025 -0.500000 0.000000
outer loop
vertex 0.109840 -0.008014 0.000000
vertex 0.109840 -0.008014 0.002087
vertex -0.127160 0.402482 0.000000
endloop
endfacet
facet normal -0.866025 -0.500000 0.000000
outer loop
vertex -0.127160 0.402482 0.000000
vertex 0.109840 -0.008014 0.002087
vertex -0.127160 0.402482 0.002087
endloop
endfacet
facet normal -0.499999 0.866026 0.000000
outer loop
vertex -0.127160 0.402482 0.000000
vertex -0.127160 0.402482 0.002087
vertex -0.109840 0.412482 0.000000
endloop
endfacet
facet normal -0.500000 0.866025 0.000000
outer loop
vertex -0.109840 0.412482 0.000000
vertex -0.127160 0.402482 0.002087
vertex -0.109840 0.412482 0.002087
endloop
endfacet
facet normal -0.500000 0.866026 0.000000
outer loop
vertex -0.109840 0.412482 0.002087
vertex -0.127160 0.402482 0.002087
vertex -0.106941 0.414155 0.003861
endloop
endfacet
facet normal -0.500001 0.866025 0.000000
outer loop
vertex -0.106941 0.414155 0.003861
vertex -0.127160 0.402482 0.002087
vertex -0.104308 0.415676 0.006120
endloop
endfacet
facet normal -0.499999 0.866026 0.000000
outer loop
vertex -0.104308 0.415676 0.006120
vertex -0.127160 0.402482 0.002087
vertex -0.102000 0.417008 0.008813
endloop
endfacet
facet normal -0.500001 0.866025 0.000025
outer loop
vertex -0.102000 0.417008 0.008813
vertex -0.127160 0.402482 0.002087
vertex -0.100072 0.418121 0.011878
endloop
endfacet
facet normal -0.499997 0.866027 -0.000021
outer loop
vertex -0.100072 0.418121 0.011878
vertex -0.127160 0.402482 0.002087
vertex -0.098566 0.418990 0.015243
endloop
endfacet
facet normal -0.500003 0.866024 0.000018
outer loop
vertex -0.098566 0.418990 0.015243
vertex -0.127160 0.402482 0.002087
vertex -0.097518 0.419595 0.018833
endloop
endfacet
facet normal -0.499997 0.866027 -0.000016
outer loop
vertex -0.097518 0.419595 0.018833
vertex -0.127160 0.402482 0.002087
vertex -0.096952 0.419922 0.022564
endloop
endfacet
facet normal -0.500001 0.866025 0.000014
outer loop
vertex -0.096952 0.419922 0.022564
vertex -0.127160 0.402482 0.002087
vertex -0.096881 0.419963 0.026352
endloop
endfacet
facet normal -0.500001 0.866025 -0.000013
outer loop
vertex -0.096881 0.419963 0.026352
vertex -0.127160 0.402482 0.002087
vertex -0.097306 0.419718 0.030108
endloop
endfacet
facet normal -0.500001 0.866025 0.000000
outer loop
vertex -0.097306 0.419718 0.030108
vertex -0.127160 0.402482 0.002087
vertex -0.098218 0.419192 0.033747
endloop
endfacet
facet normal -0.499997 0.866027 0.000000
outer loop
vertex -0.098218 0.419192 0.033747
vertex -0.127160 0.402482 0.002087
vertex -0.099595 0.418397 0.037185
endloop
endfacet
facet normal -0.500001 0.866025 0.000000
outer loop
vertex -0.099595 0.418397 0.037185
vertex -0.127160 0.402482 0.002087
vertex -0.101406 0.417351 0.040343
endloop
endfacet
facet normal -0.499998 0.866027 0.000000
outer loop
vertex -0.101406 0.417351 0.040343
vertex -0.127160 0.402482 0.002087
vertex -0.103610 0.416078 0.043149
endloop
endfacet
facet normal -0.500005 0.866022 0.000000
outer loop
vertex -0.103610 0.416078 0.043149
vertex -0.127160 0.402482 0.002087
vertex -0.106156 0.414609 0.045539
endloop
endfacet
facet normal -0.500000 0.866026 0.000000
outer loop
vertex -0.106156 0.414609 0.045539
vertex -0.127160 0.402482 0.002087
vertex -0.108985 0.412975 0.047456
endloop
endfacet
facet normal -0.499997 0.866027 0.000000
outer loop
vertex -0.108985 0.412975 0.047456
vertex -0.127160 0.402482 0.002087
vertex -0.112033 0.411216 0.048859
endloop
endfacet
facet normal -0.500005 0.866023 0.000001
outer loop
vertex -0.112033 0.411216 0.048859
vertex -0.127160 0.402482 0.002087
vertex -0.130059 0.400808 0.003861
endloop
endfacet
facet normal -0.499997 0.866027 -0.000009
outer loop
vertex -0.112033 0.411216 0.048859
vertex -0.130059 0.400808 0.003861
vertex -0.132692 0.399288 0.006120
endloop
endfacet
facet normal -0.500000 0.866025 0.000010
outer loop
vertex -0.132692 0.399288 0.006120
vertex -0.135000 0.397956 0.008813
vertex -0.112033 0.411216 0.048859
endloop
endfacet
facet normal -0.499998 0.866026 0.000001
outer loop
vertex -0.112033 0.411216 0.048859
vertex -0.135000 0.397956 0.008813
vertex -0.136928 0.396842 0.011878
endloop
endfacet
facet normal -0.500004 0.866023 -0.000004
outer loop
vertex -0.112033 0.411216 0.048859
vertex -0.136928 0.396842 0.011878
vertex -0.138434 0.395973 0.015243
endloop
endfacet
facet normal -0.499991 0.866031 0.000000
outer loop
vertex -0.138434 0.395973 0.015243
vertex -0.139482 0.395368 0.018833
vertex -0.112033 0.411216 0.048859
endloop
endfacet
facet normal -0.500003 0.866024 0.000007
outer loop
vertex -0.112033 0.411216 0.048859
vertex -0.139482 0.395368 0.018833
vertex -0.140048 0.395041 0.022564
endloop
endfacet
facet normal -0.499999 0.866026 -0.000019
outer loop
vertex -0.112033 0.411216 0.048859
vertex -0.140048 0.395041 0.022564
vertex -0.140119 0.395000 0.026352
endloop
endfacet
facet normal -0.500002 0.866024 0.000034
outer loop
vertex -0.140119 0.395000 0.026352
vertex -0.139694 0.395245 0.030108
vertex -0.112033 0.411216 0.048859
endloop
endfacet
facet normal -0.499997 0.866027 -0.000019
outer loop
vertex -0.112033 0.411216 0.048859
vertex -0.139694 0.395245 0.030108
vertex -0.115229 0.409370 0.049713
endloop
endfacet
facet normal -0.500002 0.866024 -0.000010
outer loop
vertex -0.115229 0.409370 0.049713
vertex -0.139694 0.395245 0.030108
vertex -0.138782 0.395772 0.033747
endloop
endfacet
facet normal -0.500001 0.866025 -0.000007
outer loop
vertex -0.115229 0.409370 0.049713
vertex -0.138782 0.395772 0.033747
vertex -0.137405 0.396567 0.037185
endloop
endfacet
facet normal -0.499999 0.866026 0.000034
outer loop
vertex -0.137405 0.396567 0.037185
vertex -0.135594 0.397613 0.040343
vertex -0.115229 0.409370 0.049713
endloop
endfacet
facet normal -0.500001 0.866025 -0.000003
outer loop
vertex -0.115229 0.409370 0.049713
vertex -0.135594 0.397613 0.040343
vertex -0.133390 0.398885 0.043149
endloop
endfacet
facet normal -0.499999 0.866026 -0.000015
outer loop
vertex -0.115229 0.409370 0.049713
vertex -0.133390 0.398885 0.043149
vertex -0.130844 0.400355 0.045539
endloop
endfacet
facet normal -0.499999 0.866026 0.000000
outer loop
vertex -0.130844 0.400355 0.045539
vertex -0.128015 0.401988 0.047456
vertex -0.115229 0.409370 0.049713
endloop
endfacet
facet normal -0.500000 0.866025 0.000036
outer loop
vertex -0.115229 0.409370 0.049713
vertex -0.128015 0.401988 0.047456
vertex -0.124967 0.403748 0.048859
endloop
endfacet
facet normal -0.500002 0.866024 -0.000036
outer loop
vertex -0.115229 0.409370 0.049713
vertex -0.124967 0.403748 0.048859
vertex -0.121771 0.405593 0.049713
endloop
endfacet
facet normal -0.500001 0.866025 0.000107
outer loop
vertex -0.121771 0.405593 0.049713
vertex -0.118500 0.407482 0.050000
vertex -0.115229 0.409370 0.049713
endloop
endfacet
facet normal 0.500000 -0.866025 0.000000
outer loop
vertex 0.109840 -0.008014 0.000000
vertex 0.127160 0.001986 0.000000
vertex 0.109840 -0.008014 0.002087
endloop
endfacet
facet normal 0.499999 -0.866026 0.000000
outer loop
vertex 0.109840 -0.008014 0.002087
vertex 0.127160 0.001986 0.000000
vertex 0.127160 0.001986 0.002087
endloop
endfacet
facet normal 0.500000 -0.866026 0.000007
outer loop
vertex 0.109840 -0.008014 0.002087
vertex 0.127160 0.001986 0.002087
vertex 0.130059 0.003659 0.003861
endloop
endfacet
facet normal 0.500000 -0.866025 -0.000004
outer loop
vertex 0.130059 0.003659 0.003861
vertex 0.132692 0.005180 0.006120
vertex 0.109840 -0.008014 0.002087
endloop
endfacet
facet normal 0.500000 -0.866025 -0.000000
outer loop
vertex 0.109840 -0.008014 0.002087
vertex 0.132692 0.005180 0.006120
vertex 0.135000 0.006512 0.008813
endloop
endfacet
facet normal 0.499999 -0.866026 0.000005
outer loop
vertex 0.109840 -0.008014 0.002087
vertex 0.135000 0.006512 0.008813
vertex 0.136928 0.007625 0.011878
endloop
endfacet
facet normal 0.500000 -0.866026 0.000001
outer loop
vertex 0.136928 0.007625 0.011878
vertex 0.138434 0.008494 0.015243
vertex 0.109840 -0.008014 0.002087
endloop
endfacet
facet normal 0.500002 -0.866024 -0.000005
outer loop
vertex 0.109840 -0.008014 0.002087
vertex 0.138434 0.008494 0.015243
vertex 0.139482 0.009099 0.018833
endloop
endfacet
facet normal 0.499998 -0.866026 0.000002
outer loop
vertex 0.109840 -0.008014 0.002087
vertex 0.139482 0.009099 0.018833
vertex 0.140048 0.009426 0.022564
endloop
endfacet
facet normal 0.500000 -0.866026 -0.000001
outer loop
vertex 0.140048 0.009426 0.022564
vertex 0.140119 0.009467 0.026352
vertex 0.109840 -0.008014 0.002087
endloop
endfacet
facet normal 0.500001 -0.866025 -0.000001
outer loop
vertex 0.109840 -0.008014 0.002087
vertex 0.140119 0.009467 0.026352
vertex 0.139694 0.009222 0.030108
endloop
endfacet
facet normal 0.499998 -0.866027 0.000001
outer loop
vertex 0.109840 -0.008014 0.002087
vertex 0.139694 0.009222 0.030108
vertex 0.138782 0.008696 0.033747
endloop
endfacet
facet normal 0.500000 -0.866026 0.000000
outer loop
vertex 0.138782 0.008696 0.033747
vertex 0.137405 0.007900 0.037185
vertex 0.109840 -0.008014 0.002087
endloop
endfacet
facet normal 0.500003 -0.866024 0.000000
outer loop
vertex 0.109840 -0.008014 0.002087
vertex 0.137405 0.007900 0.037185
vertex 0.135594 0.006855 0.040343
endloop
endfacet
facet normal 0.499997 -0.866027 -0.000000
outer loop
vertex 0.109840 -0.008014 0.002087
vertex 0.135594 0.006855 0.040343
vertex 0.133390 0.005582 0.043149
endloop
endfacet
facet normal 0.500001 -0.866025 0.000000
outer loop
vertex 0.133390 0.005582 0.043149
vertex 0.130844 0.004112 0.045539
vertex 0.109840 -0.008014 0.002087
endloop
endfacet
facet normal 0.499999 -0.866026 -0.000001
outer loop
vertex 0.109840 -0.008014 0.002087
vertex 0.130844 0.004112 0.045539
vertex 0.128015 0.002479 0.047456
endloop
endfacet
facet normal 0.499999 -0.866026 0.000000
outer loop
vertex 0.109840 -0.008014 0.002087
vertex 0.128015 0.002479 0.047456
vertex 0.124967 0.000720 0.048859
endloop
endfacet
facet normal 0.499999 -0.866026 0.000002
outer loop
vertex 0.121771 -0.001126 0.049713
vertex 0.097306 -0.015251 0.030108
vertex 0.124967 0.000720 0.048859
endloop
endfacet
facet normal 0.499999 -0.866026 -0.000000
outer loop
vertex 0.124967 0.000720 0.048859
vertex 0.097306 -0.015251 0.030108
vertex 0.096881 -0.015496 0.026352
endloop
endfacet
facet normal 0.500000 -0.866025 0.000001
outer loop
vertex 0.124967 0.000720 0.048859
vertex 0.096881 -0.015496 0.026352
vertex 0.096952 -0.015455 0.022564
endloop
endfacet
facet normal 0.500001 -0.866025 0.000000
outer loop
vertex 0.118500 -0.003014 0.050000
vertex 0.115229 -0.004903 0.049713
vertex 0.121771 -0.001126 0.049713
endloop
endfacet
facet normal 0.500004 -0.866023 -0.000017
outer loop
vertex 0.121771 -0.001126 0.049713
vertex 0.115229 -0.004903 0.049713
vertex 0.112033 -0.006748 0.048859
endloop
endfacet
facet normal 0.500003 -0.866024 -0.000005
outer loop
vertex 0.121771 -0.001126 0.049713
vertex 0.112033 -0.006748 0.048859
vertex 0.108985 -0.008508 0.047456
endloop
endfacet
facet normal 0.500000 -0.866025 -0.000001
outer loop
vertex 0.108985 -0.008508 0.047456
vertex 0.106156 -0.010141 0.045539
vertex 0.121771 -0.001126 0.049713
endloop
endfacet
facet normal 0.500000 -0.866026 0.000001
outer loop
vertex 0.121771 -0.001126 0.049713
vertex 0.106156 -0.010141 0.045539
vertex 0.103610 -0.011611 0.043149
endloop
endfacet
facet normal 0.500001 -0.866025 0.000000
outer loop
vertex 0.121771 -0.001126 0.049713
vertex 0.103610 -0.011611 0.043149
vertex 0.101406 -0.012883 0.040343
endloop
endfacet
facet normal 0.500000 -0.866025 -0.000003
outer loop
vertex 0.101406 -0.012883 0.040343
vertex 0.099595 -0.013929 0.037185
vertex 0.121771 -0.001126 0.049713
endloop
endfacet
facet normal 0.500000 -0.866026 0.000001
outer loop
vertex 0.121771 -0.001126 0.049713
vertex 0.099595 -0.013929 0.037185
vertex 0.098218 -0.014724 0.033747
endloop
endfacet
facet normal 0.499999 -0.866026 0.000000
outer loop
vertex 0.121771 -0.001126 0.049713
vertex 0.098218 -0.014724 0.033747
vertex 0.097306 -0.015251 0.030108
endloop
endfacet
facet normal 0.500000 -0.866025 -0.000001
outer loop
vertex 0.096952 -0.015455 0.022564
vertex 0.097518 -0.015128 0.018833
vertex 0.124967 0.000720 0.048859
endloop
endfacet
facet normal 0.499999 -0.866026 0.000002
outer loop
vertex 0.124967 0.000720 0.048859
vertex 0.097518 -0.015128 0.018833
vertex 0.098566 -0.014523 0.015243
endloop
endfacet
facet normal 0.500003 -0.866023 -0.000001
outer loop
vertex 0.124967 0.000720 0.048859
vertex 0.098566 -0.014523 0.015243
vertex 0.100072 -0.013654 0.011878
endloop
endfacet
facet normal 0.500000 -0.866025 -0.000001
outer loop
vertex 0.100072 -0.013654 0.011878
vertex 0.102000 -0.012540 0.008813
vertex 0.124967 0.000720 0.048859
endloop
endfacet
facet normal 0.499998 -0.866027 0.000000
outer loop
vertex 0.124967 0.000720 0.048859
vertex 0.102000 -0.012540 0.008813
vertex 0.104308 -0.011208 0.006120
endloop
endfacet
facet normal 0.499997 -0.866027 0.000001
outer loop
vertex 0.124967 0.000720 0.048859
vertex 0.104308 -0.011208 0.006120
vertex 0.106941 -0.009688 0.003861
endloop
endfacet
facet normal 0.500005 -0.866023 -0.000001
outer loop
vertex 0.106941 -0.009688 0.003861
vertex 0.109840 -0.008014 0.002087
vertex 0.124967 0.000720 0.048859
endloop
endfacet
endsolid cylinder
