solid frontAndBack
facet normal -1.000000 0.000000 0.000000
outer loop
vertex -0.204500 -1.000000 0.000000
vertex -0.204500 -1.000000 0.400000
vertex -0.204500 2.000000 0.400000
endloop
endfacet
facet normal -1.000000 0.000000 0.000000
outer loop
vertex -0.204500 -1.000000 0.000000
vertex -0.204500 2.000000 0.400000
vertex -0.204500 2.000000 0.000000
endloop
endfacet
facet normal 1.000000 0.000000 0.000000
outer loop
vertex 0.204500 2.000000 0.000000
vertex 0.204500 2.000000 0.400000
vertex 0.204500 -1.000000 0.400000
endloop
endfacet
facet normal 1.000000 0.000000 0.000000
outer loop
vertex 0.204500 2.000000 0.000000
vertex 0.204500 -1.000000 0.400000
vertex 0.204500 -1.000000 0.000000
endloop
endfacet
endsolid frontAndBack
