solid bottom
facet normal 0.000000 0.000000 -1.000000
outer loop
vertex 2.000000 0.204500 0.000000
vertex 2.000000 -0.204500 0.000000
vertex -1.000000 -0.204500 0.000000
endloop
endfacet
facet normal 0.000000 0.000000 -1.000000
outer loop
vertex 2.000000 0.204500 0.000000
vertex -1.000000 -0.204500 0.000000
vertex -1.000000 0.204500 0.000000
endloop
endfacet
endsolid bottomsolid frontAndBack
facet normal 0.000000 1.000000 0.000000
outer loop
vertex -1.000000 0.204500 0.000000
vertex -1.000000 0.204500 0.400000
vertex 2.000000 0.204500 0.400000
endloop
endfacet
facet normal 0.000000 1.000000 0.000000
outer loop
vertex -1.000000 0.204500 0.000000
vertex 2.000000 0.204500 0.400000
vertex 2.000000 0.204500 0.000000
endloop
endfacet
facet normal -0.000000 -1.000000 0.000000
outer loop
vertex 2.000000 -0.204500 0.000000
vertex 2.000000 -0.204500 0.400000
vertex -1.000000 -0.204500 0.400000
endloop
endfacet
facet normal -0.000000 -1.000000 0.000000
outer loop
vertex 2.000000 -0.204500 0.000000
vertex -1.000000 -0.204500 0.400000
vertex -1.000000 -0.204500 0.000000
endloop
endfacet
endsolid frontAndBack
solid inlet
facet normal -1.000000 0.000000 0.000000
outer loop
vertex -1.000000 -0.204500 0.000000
vertex -1.000000 -0.204500 0.400000
vertex -1.000000 0.204500 0.400000
endloop
endfacet
facet normal -1.000000 0.000000 0.000000
outer loop
vertex -1.000000 -0.204500 0.000000
vertex -1.000000 0.204500 0.400000
vertex -1.000000 0.204500 0.000000
endloop
endfacet
endsolid inlet
solid outlet
facet normal 1.000000 0.000000 0.000000
outer loop
vertex 2.000000 0.204500 0.000000
vertex 2.000000 0.204500 0.400000
vertex 2.000000 -0.204500 0.400000
endloop
endfacet
facet normal 1.000000 0.000000 0.000000
outer loop
vertex 2.000000 0.204500 0.000000
vertex 2.000000 -0.204500 0.400000
vertex 2.000000 -0.204500 0.000000
endloop
endfacet
endsolid outlet
solid top
facet normal 0.000000 0.000000 1.000000
outer loop
vertex 2.000000 -0.204500 0.400000
vertex 2.000000 0.204500 0.400000
vertex -1.000000 0.204500 0.400000
endloop
endfacet
facet normal -0.000000 0.000000 1.000000
outer loop
vertex 2.000000 -0.204500 0.400000
vertex -1.000000 0.204500 0.400000
vertex -1.000000 -0.204500 0.400000
endloop
endfacet
endsolid top
solid obstacle
facet normal -0.000000 -1.000000 0.000000
outer loop
vertex -0.175000 -0.204500 0.000000
vertex 0.124299 -0.204500 0.000000
vertex 0.124299 -0.204500 0.000008
endloop
endfacet
facet normal 0.000000 -1.000000 -0.000008
outer loop
vertex 0.094557 -0.204500 0.031676
vertex -0.067625 -0.204500 0.234307
vertex -0.081640 -0.204500 0.250426
endloop
endfacet
facet normal -0.000000 -1.000000 0.000001
outer loop
vertex -0.175000 -0.204500 0.000000
vertex 0.124299 -0.204500 0.000008
vertex 0.094557 -0.204500 0.031676
endloop
endfacet
facet normal 0.000000 -1.000000 0.000000
outer loop
vertex -0.174081 -0.204500 0.225860
vertex -0.175000 -0.204500 0.205772
vertex -0.175000 -0.204500 0.000000
endloop
endfacet
facet normal -0.000007 -1.000000 0.000003
outer loop
vertex -0.166826 -0.204500 0.257819
vertex -0.171341 -0.204500 0.243308
vertex -0.174081 -0.204500 0.225860
endloop
endfacet
facet normal 0.000000 -1.000000 0.000000
outer loop
vertex -0.152811 -0.204500 0.277089
vertex -0.160614 -0.204500 0.269144
vertex -0.166826 -0.204500 0.257819
endloop
endfacet
facet normal 0.000000 -1.000000 0.000006
outer loop
vertex -0.132991 -0.204500 0.282357
vertex -0.143551 -0.204500 0.281519
vertex -0.152811 -0.204500 0.277089
endloop
endfacet
facet normal 0.000000 -1.000000 0.000000
outer loop
vertex -0.108716 -0.204500 0.273262
vertex -0.121312 -0.204500 0.279589
vertex -0.132991 -0.204500 0.282357
endloop
endfacet
facet normal 0.000000 -1.000000 0.000000
outer loop
vertex -0.081640 -0.204500 0.250426
vertex -0.095416 -0.204500 0.263486
vertex -0.108716 -0.204500 0.273262
endloop
endfacet
facet normal -0.000000 -1.000000 -0.000000
outer loop
vertex -0.175000 -0.204500 0.000000
vertex 0.094557 -0.204500 0.031676
vertex -0.081640 -0.204500 0.250426
endloop
endfacet
facet normal -0.000002 -1.000000 -0.000000
outer loop
vertex -0.166826 -0.204500 0.257819
vertex -0.174081 -0.204500 0.225860
vertex -0.175000 -0.204500 0.000000
endloop
endfacet
facet normal 0.000000 -1.000000 -0.000002
outer loop
vertex -0.132991 -0.204500 0.282357
vertex -0.152811 -0.204500 0.277089
vertex -0.166826 -0.204500 0.257819
endloop
endfacet
facet normal 0.000000 -1.000000 0.000003
outer loop
vertex -0.081640 -0.204500 0.250426
vertex -0.108716 -0.204500 0.273262
vertex -0.132991 -0.204500 0.282357
endloop
endfacet
facet normal -0.000000 -1.000000 0.000000
outer loop
vertex -0.166826 -0.204500 0.257819
vertex -0.175000 -0.204500 0.000000
vertex -0.081640 -0.204500 0.250426
endloop
endfacet
facet normal 0.000000 -1.000000 -0.000001
outer loop
vertex -0.081640 -0.204500 0.250426
vertex -0.132991 -0.204500 0.282357
vertex -0.166826 -0.204500 0.257819
endloop
endfacet
facet normal 1.000000 -0.000000 0.000000
outer loop
vertex 0.175000 0.204500 0.000000
vertex 0.175000 0.204500 0.058424
vertex 0.175000 -0.204500 0.058424
endloop
endfacet
facet normal 1.000000 0.000000 0.000000
outer loop
vertex 0.175000 0.204500 0.000000
vertex 0.175000 -0.204500 0.058424
vertex 0.175000 -0.204500 0.000000
endloop
endfacet
facet normal -0.000000 -1.000000 0.000000
outer loop
vertex 0.124299 -0.204500 0.000000
vertex 0.175000 -0.204500 0.000000
vertex 0.175000 -0.204500 0.058424
endloop
endfacet
facet normal -0.000004 -1.000000 0.000007
outer loop
vertex 0.175000 -0.204500 0.058424
vertex 0.151324 -0.204500 0.033767
vertex 0.124299 -0.204500 0.000008
endloop
endfacet
facet normal -0.000000 -1.000000 0.000000
outer loop
vertex 0.175000 -0.204500 0.058424
vertex 0.124299 -0.204500 0.000008
vertex 0.124299 -0.204500 0.000000
endloop
endfacet
facet normal 0.780725 -0.000000 0.624874
outer loop
vertex 0.094557 -0.204500 0.031676
vertex 0.094557 0.204500 0.031676
vertex -0.067625 0.204500 0.234307
endloop
endfacet
facet normal 0.780725 -0.000000 0.624874
outer loop
vertex 0.094557 -0.204500 0.031676
vertex -0.067625 0.204500 0.234307
vertex -0.067625 -0.204500 0.234307
endloop
endfacet
facet normal 0.000000 0.000000 -1.000000
outer loop
vertex 0.124299 0.204500 0.000000
vertex 0.124299 -0.204500 0.000000
vertex -0.175000 -0.204500 0.000000
endloop
endfacet
facet normal -0.000000 0.000000 -1.000000
outer loop
vertex 0.124299 0.204500 0.000000
vertex -0.175000 -0.204500 0.000000
vertex -0.175000 0.204500 0.000000
endloop
endfacet
facet normal -1.000000 0.000000 0.000000
outer loop
vertex -0.175000 -0.204500 0.000000
vertex -0.175000 -0.204500 0.205772
vertex -0.175000 0.204500 0.205772
endloop
endfacet
facet normal -1.000000 0.000000 0.000000
outer loop
vertex -0.175000 -0.204500 0.000000
vertex -0.175000 0.204500 0.205772
vertex -0.175000 0.204500 0.000000
endloop
endfacet
facet normal 0.000000 0.000000 -1.000000
outer loop
vertex 0.175000 0.204500 0.000000
vertex 0.175000 -0.204500 0.000000
vertex 0.124299 -0.204500 0.000000
endloop
endfacet
facet normal -0.000000 0.000000 -1.000000
outer loop
vertex 0.175000 0.204500 0.000000
vertex 0.124299 -0.204500 0.000000
vertex 0.124299 0.204500 0.000000
endloop
endfacet
facet normal 0.000000 1.000000 0.000000
outer loop
vertex 0.175000 0.204500 0.000000
vertex 0.124299 0.204500 0.000000
vertex 0.124299 0.204500 0.000008
endloop
endfacet
facet normal 0.000004 1.000000 0.000000
outer loop
vertex 0.124299 0.204500 0.000008
vertex 0.151324 0.204500 0.033767
vertex 0.175000 0.204500 0.058424
endloop
endfacet
facet normal 0.000000 1.000000 0.000000
outer loop
vertex 0.124299 0.204500 0.000008
vertex 0.175000 0.204500 0.058424
vertex 0.175000 0.204500 0.000000
endloop
endfacet
facet normal 0.000000 1.000000 0.000000
outer loop
vertex 0.094557 0.204500 0.031676
vertex 0.098670 0.204500 0.028516
vertex 0.124299 0.204500 0.000008
endloop
endfacet
facet normal 0.000000 1.000000 0.000000
outer loop
vertex 0.098670 0.204500 0.028516
vertex 0.103175 0.204500 0.025892
vertex 0.124299 0.204500 0.000008
endloop
endfacet
facet normal 0.000000 1.000000 0.000000
outer loop
vertex 0.103175 0.204500 0.025892
vertex 0.107996 0.204500 0.023848
vertex 0.124299 0.204500 0.000008
endloop
endfacet
facet normal 0.000000 1.000000 0.000000
outer loop
vertex 0.107996 0.204500 0.023848
vertex 0.113048 0.204500 0.022420
vertex 0.124299 0.204500 0.000008
endloop
endfacet
facet normal 0.000000 1.000000 0.000000
outer loop
vertex 0.113048 0.204500 0.022420
vertex 0.118247 0.204500 0.021632
vertex 0.124299 0.204500 0.000008
endloop
endfacet
facet normal 0.000000 1.000000 -0.000001
outer loop
vertex 0.118247 0.204500 0.021632
vertex 0.123503 0.204500 0.021497
vertex 0.124299 0.204500 0.000008
endloop
endfacet
facet normal 0.000000 1.000000 -0.000001
outer loop
vertex 0.123503 0.204500 0.021497
vertex 0.128726 0.204500 0.022018
vertex 0.124299 0.204500 0.000008
endloop
endfacet
facet normal 0.000000 1.000000 0.000000
outer loop
vertex 0.128726 0.204500 0.022018
vertex 0.133826 0.204500 0.023185
vertex 0.124299 0.204500 0.000008
endloop
endfacet
facet normal 0.000000 1.000000 0.000005
outer loop
vertex 0.133826 0.204500 0.023185
vertex 0.138718 0.204500 0.024980
vertex 0.124299 0.204500 0.000008
endloop
endfacet
facet normal 0.000000 1.000000 -0.000006
outer loop
vertex 0.138718 0.204500 0.024980
vertex 0.143316 0.204500 0.027370
vertex 0.124299 0.204500 0.000008
endloop
endfacet
facet normal 0.000000 1.000000 0.000016
outer loop
vertex 0.143316 0.204500 0.027370
vertex 0.147542 0.204500 0.030316
vertex 0.124299 0.204500 0.000008
endloop
endfacet
facet normal 0.000000 1.000000 -0.000027
outer loop
vertex 0.147542 0.204500 0.030316
vertex 0.151324 0.204500 0.033767
vertex 0.124299 0.204500 0.000008
endloop
endfacet
facet normal 0.000000 -1.000000 0.000000
outer loop
vertex 0.151324 -0.204500 0.033767
vertex 0.147542 -0.204500 0.030316
vertex 0.124299 -0.204500 0.000008
endloop
endfacet
facet normal 0.000000 -1.000000 0.000000
outer loop
vertex 0.147542 -0.204500 0.030316
vertex 0.143316 -0.204500 0.027370
vertex 0.124299 -0.204500 0.000008
endloop
endfacet
facet normal 0.000000 -1.000000 0.000000
outer loop
vertex 0.143316 -0.204500 0.027370
vertex 0.138718 -0.204500 0.024980
vertex 0.124299 -0.204500 0.000008
endloop
endfacet
facet normal 0.000000 -1.000000 0.000000
outer loop
vertex 0.138718 -0.204500 0.024980
vertex 0.133826 -0.204500 0.023185
vertex 0.124299 -0.204500 0.000008
endloop
endfacet
facet normal 0.000000 -1.000000 -0.000002
outer loop
vertex 0.133826 -0.204500 0.023185
vertex 0.128726 -0.204500 0.022018
vertex 0.124299 -0.204500 0.000008
endloop
endfacet
facet normal 0.000000 -1.000000 0.000001
outer loop
vertex 0.128726 -0.204500 0.022018
vertex 0.123503 -0.204500 0.021497
vertex 0.124299 -0.204500 0.000008
endloop
endfacet
facet normal 0.000000 -1.000000 0.000000
outer loop
vertex 0.123503 -0.204500 0.021497
vertex 0.118247 -0.204500 0.021632
vertex 0.124299 -0.204500 0.000008
endloop
endfacet
facet normal 0.000000 -1.000000 0.000000
outer loop
vertex 0.118247 -0.204500 0.021632
vertex 0.113048 -0.204500 0.022420
vertex 0.124299 -0.204500 0.000008
endloop
endfacet
facet normal 0.000000 -1.000000 0.000005
outer loop
vertex 0.113048 -0.204500 0.022420
vertex 0.107996 -0.204500 0.023848
vertex 0.124299 -0.204500 0.000008
endloop
endfacet
facet normal 0.000000 -1.000000 0.000000
outer loop
vertex 0.107996 -0.204500 0.023848
vertex 0.103175 -0.204500 0.025892
vertex 0.124299 -0.204500 0.000008
endloop
endfacet
facet normal 0.000000 -1.000000 -0.000015
outer loop
vertex 0.103175 -0.204500 0.025892
vertex 0.098670 -0.204500 0.028516
vertex 0.124299 -0.204500 0.000008
endloop
endfacet
facet normal 0.000000 -1.000000 0.000000
outer loop
vertex 0.098670 -0.204500 0.028516
vertex 0.094557 -0.204500 0.031676
vertex 0.124299 -0.204500 0.000008
endloop
endfacet
facet normal 0.609184 -0.000000 0.793029
outer loop
vertex 0.094557 0.204500 0.031676
vertex 0.094557 -0.204500 0.031676
vertex 0.098670 -0.204500 0.028516
endloop
endfacet
facet normal 0.609185 0.000000 0.793028
outer loop
vertex 0.094557 0.204500 0.031676
vertex 0.098670 -0.204500 0.028516
vertex 0.098670 0.204500 0.028516
endloop
endfacet
facet normal 0.503304 0.000000 0.864110
outer loop
vertex 0.098670 0.204500 0.028516
vertex 0.098670 -0.204500 0.028516
vertex 0.103175 -0.204500 0.025892
endloop
endfacet
facet normal 0.503302 -0.000000 0.864111
outer loop
vertex 0.098670 0.204500 0.028516
vertex 0.103175 -0.204500 0.025892
vertex 0.103175 0.204500 0.025892
endloop
endfacet
facet normal 0.390333 0.000000 0.920673
outer loop
vertex 0.103175 0.204500 0.025892
vertex 0.103175 -0.204500 0.025892
vertex 0.107996 -0.204500 0.023848
endloop
endfacet
facet normal 0.390335 0.000000 0.920673
outer loop
vertex 0.103175 0.204500 0.025892
vertex 0.107996 -0.204500 0.023848
vertex 0.107996 0.204500 0.023848
endloop
endfacet
facet normal 0.271996 0.000000 0.962299
outer loop
vertex 0.107996 0.204500 0.023848
vertex 0.107996 -0.204500 0.023848
vertex 0.113048 -0.204500 0.022420
endloop
endfacet
facet normal 0.271996 0.000000 0.962299
outer loop
vertex 0.107996 0.204500 0.023848
vertex 0.113048 -0.204500 0.022420
vertex 0.113048 0.204500 0.022420
endloop
endfacet
facet normal 0.149908 0.000000 0.988700
outer loop
vertex 0.113048 0.204500 0.022420
vertex 0.113048 -0.204500 0.022420
vertex 0.118247 -0.204500 0.021632
endloop
endfacet
facet normal 0.149909 0.000000 0.988700
outer loop
vertex 0.113048 0.204500 0.022420
vertex 0.118247 -0.204500 0.021632
vertex 0.118247 0.204500 0.021632
endloop
endfacet
facet normal 0.025649 0.000000 0.999671
outer loop
vertex 0.118247 0.204500 0.021632
vertex 0.118247 -0.204500 0.021632
vertex 0.123503 -0.204500 0.021497
endloop
endfacet
facet normal 0.025648 0.000000 0.999671
outer loop
vertex 0.118247 0.204500 0.021632
vertex 0.123503 -0.204500 0.021497
vertex 0.123503 0.204500 0.021497
endloop
endfacet
facet normal -0.099236 0.000000 0.995064
outer loop
vertex 0.123503 0.204500 0.021497
vertex 0.123503 -0.204500 0.021497
vertex 0.128726 -0.204500 0.022018
endloop
endfacet
facet normal -0.099236 0.000000 0.995064
outer loop
vertex 0.123503 0.204500 0.021497
vertex 0.128726 -0.204500 0.022018
vertex 0.128726 0.204500 0.022018
endloop
endfacet
facet normal -0.223149 0.000000 0.974784
outer loop
vertex 0.128726 0.204500 0.022018
vertex 0.128726 -0.204500 0.022018
vertex 0.133826 -0.204500 0.023185
endloop
endfacet
facet normal -0.223149 0.000000 0.974784
outer loop
vertex 0.128726 0.204500 0.022018
vertex 0.133826 -0.204500 0.023185
vertex 0.133826 0.204500 0.023185
endloop
endfacet
facet normal -0.344434 0.000000 0.938811
outer loop
vertex 0.133826 0.204500 0.023185
vertex 0.133826 -0.204500 0.023185
vertex 0.138718 -0.204500 0.024980
endloop
endfacet
facet normal -0.344434 0.000000 0.938811
outer loop
vertex 0.133826 0.204500 0.023185
vertex 0.138718 -0.204500 0.024980
vertex 0.138718 0.204500 0.024980
endloop
endfacet
facet normal -0.461300 0.000000 0.887244
outer loop
vertex 0.138718 0.204500 0.024980
vertex 0.138718 -0.204500 0.024980
vertex 0.143316 -0.204500 0.027370
endloop
endfacet
facet normal -0.461300 0.000000 0.887244
outer loop
vertex 0.138718 0.204500 0.024980
vertex 0.143316 -0.204500 0.027370
vertex 0.143316 0.204500 0.027370
endloop
endfacet
facet normal -0.571839 0.000000 0.820366
outer loop
vertex 0.143316 0.204500 0.027370
vertex 0.143316 -0.204500 0.027370
vertex 0.147542 -0.204500 0.030316
endloop
endfacet
facet normal -0.571839 0.000000 0.820366
outer loop
vertex 0.143316 0.204500 0.027370
vertex 0.147542 -0.204500 0.030316
vertex 0.147542 0.204500 0.030316
endloop
endfacet
facet normal -0.674010 0.000000 0.738722
outer loop
vertex 0.147542 0.204500 0.030316
vertex 0.147542 -0.204500 0.030316
vertex 0.151324 -0.204500 0.033767
endloop
endfacet
facet normal -0.674011 0.000000 0.738721
outer loop
vertex 0.147542 0.204500 0.030316
vertex 0.151324 -0.204500 0.033767
vertex 0.151324 0.204500 0.033767
endloop
endfacet
facet normal -0.721301 0.000000 0.692622
outer loop
vertex 0.175000 -0.204500 0.058424
vertex 0.175000 0.204500 0.058424
vertex 0.151324 0.204500 0.033767
endloop
endfacet
facet normal -0.721301 0.000000 0.692622
outer loop
vertex 0.175000 -0.204500 0.058424
vertex 0.151324 0.204500 0.033767
vertex 0.151324 -0.204500 0.033767
endloop
endfacet
facet normal 0.754635 -0.000000 0.656145
outer loop
vertex -0.067625 -0.204500 0.234307
vertex -0.067625 0.204500 0.234307
vertex -0.081640 0.204500 0.250426
endloop
endfacet
facet normal 0.754634 -0.000000 0.656146
outer loop
vertex -0.067625 -0.204500 0.234307
vertex -0.081640 0.204500 0.250426
vertex -0.081640 -0.204500 0.250426
endloop
endfacet
facet normal 0.687997 0.000000 0.725713
outer loop
vertex -0.081640 -0.204500 0.250426
vertex -0.081640 0.204500 0.250426
vertex -0.095416 0.204500 0.263486
endloop
endfacet
facet normal 0.687997 -0.000000 0.725714
outer loop
vertex -0.081640 -0.204500 0.250426
vertex -0.095416 0.204500 0.263486
vertex -0.095416 -0.204500 0.263486
endloop
endfacet
facet normal 0.592278 -0.000000 0.805734
outer loop
vertex -0.095416 -0.204500 0.263486
vertex -0.095416 0.204500 0.263486
vertex -0.108716 0.204500 0.273262
endloop
endfacet
facet normal 0.592280 0.000000 0.805732
outer loop
vertex -0.095416 -0.204500 0.263486
vertex -0.108716 0.204500 0.273262
vertex -0.108716 -0.204500 0.273262
endloop
endfacet
facet normal 0.448800 -0.000000 0.893632
outer loop
vertex -0.108716 -0.204500 0.273262
vertex -0.108716 0.204500 0.273262
vertex -0.121312 0.204500 0.279589
endloop
endfacet
facet normal 0.448798 0.000000 0.893633
outer loop
vertex -0.108716 -0.204500 0.273262
vertex -0.121312 0.204500 0.279589
vertex -0.121312 -0.204500 0.279589
endloop
endfacet
facet normal 0.230621 -0.000000 0.973044
outer loop
vertex -0.121312 -0.204500 0.279589
vertex -0.121312 0.204500 0.279589
vertex -0.132991 0.204500 0.282357
endloop
endfacet
facet normal 0.230621 -0.000000 0.973044
outer loop
vertex -0.121312 -0.204500 0.279589
vertex -0.132991 0.204500 0.282357
vertex -0.132991 -0.204500 0.282357
endloop
endfacet
facet normal -0.079102 0.000000 0.996867
outer loop
vertex -0.132991 -0.204500 0.282357
vertex -0.132991 0.204500 0.282357
vertex -0.143550 0.204500 0.281519
endloop
endfacet
facet normal -0.079102 0.000000 0.996867
outer loop
vertex -0.132991 -0.204500 0.282357
vertex -0.143550 0.204500 0.281519
vertex -0.143551 -0.204500 0.281519
endloop
endfacet
facet normal -0.431490 0.000000 0.902117
outer loop
vertex -0.143551 -0.204500 0.281519
vertex -0.143550 0.204500 0.281519
vertex -0.152811 0.204500 0.277089
endloop
endfacet
facet normal -0.431488 0.000000 0.902119
outer loop
vertex -0.143551 -0.204500 0.281519
vertex -0.152811 0.204500 0.277089
vertex -0.152811 -0.204500 0.277089
endloop
endfacet
facet normal -0.713450 0.000000 0.700706
outer loop
vertex -0.152811 -0.204500 0.277089
vertex -0.152811 0.204500 0.277089
vertex -0.160614 0.204500 0.269144
endloop
endfacet
facet normal -0.713452 0.000000 0.700705
outer loop
vertex -0.152811 -0.204500 0.277089
vertex -0.160614 0.204500 0.269144
vertex -0.160614 -0.204500 0.269144
endloop
endfacet
facet normal -0.876758 0.000000 0.480932
outer loop
vertex -0.160614 -0.204500 0.269144
vertex -0.160614 0.204500 0.269144
vertex -0.166826 0.204500 0.257819
endloop
endfacet
facet normal -0.876758 0.000000 0.480932
outer loop
vertex -0.160614 -0.204500 0.269144
vertex -0.166826 0.204500 0.257819
vertex -0.166826 -0.204500 0.257819
endloop
endfacet
facet normal -0.954852 0.000000 0.297082
outer loop
vertex -0.166826 -0.204500 0.257819
vertex -0.166826 0.204500 0.257819
vertex -0.171341 0.204500 0.243308
endloop
endfacet
facet normal -0.954853 0.000000 0.297079
outer loop
vertex -0.166826 -0.204500 0.257819
vertex -0.171341 0.204500 0.243308
vertex -0.171341 -0.204500 0.243308
endloop
endfacet
facet normal -0.987893 0.000000 0.155139
outer loop
vertex -0.171341 -0.204500 0.243308
vertex -0.171341 0.204500 0.243308
vertex -0.174081 0.204500 0.225860
endloop
endfacet
facet normal -0.987893 0.000000 0.155139
outer loop
vertex -0.171341 -0.204500 0.243308
vertex -0.174081 0.204500 0.225860
vertex -0.174081 -0.204500 0.225860
endloop
endfacet
facet normal -0.998956 0.000000 0.045682
outer loop
vertex -0.174081 -0.204500 0.225860
vertex -0.174081 0.204500 0.225860
vertex -0.175000 0.204500 0.205772
endloop
endfacet
facet normal -0.998956 0.000000 0.045682
outer loop
vertex -0.174081 -0.204500 0.225860
vertex -0.175000 0.204500 0.205772
vertex -0.175000 -0.204500 0.205772
endloop
endfacet
facet normal 0.000000 1.000000 0.000000
outer loop
vertex 0.124299 0.204500 0.000000
vertex -0.175000 0.204500 0.000000
vertex -0.175000 0.204500 0.205772
endloop
endfacet
facet normal 0.000000 1.000000 -0.000003
outer loop
vertex -0.175000 0.204500 0.205772
vertex -0.174081 0.204500 0.225860
vertex -0.171341 0.204500 0.243308
endloop
endfacet
facet normal -0.000004 1.000000 0.000012
outer loop
vertex -0.171341 0.204500 0.243308
vertex -0.166826 0.204500 0.257819
vertex -0.160614 0.204500 0.269144
endloop
endfacet
facet normal 0.000000 1.000000 0.000000
outer loop
vertex -0.160614 0.204500 0.269144
vertex -0.152811 0.204500 0.277089
vertex -0.143550 0.204500 0.281519
endloop
endfacet
facet normal 0.000000 1.000000 -0.000012
outer loop
vertex -0.143550 0.204500 0.281519
vertex -0.132991 0.204500 0.282357
vertex -0.121312 0.204500 0.279589
endloop
endfacet
facet normal 0.000000 1.000000 -0.000012
outer loop
vertex -0.121312 0.204500 0.279589
vertex -0.108716 0.204500 0.273262
vertex -0.095416 0.204500 0.263486
endloop
endfacet
facet normal 0.000000 1.000000 0.000000
outer loop
vertex -0.095416 0.204500 0.263486
vertex -0.081640 0.204500 0.250426
vertex -0.067625 0.204500 0.234307
endloop
endfacet
facet normal 0.000000 1.000000 0.000000
outer loop
vertex 0.094557 0.204500 0.031676
vertex 0.124299 0.204500 0.000008
vertex 0.124299 0.204500 0.000000
endloop
endfacet
facet normal 0.000000 1.000000 -0.000008
outer loop
vertex -0.095416 0.204500 0.263486
vertex -0.067625 0.204500 0.234307
vertex 0.094557 0.204500 0.031676
endloop
endfacet
facet normal 0.000000 1.000000 0.000003
outer loop
vertex -0.143550 0.204500 0.281519
vertex -0.121312 0.204500 0.279589
vertex -0.095416 0.204500 0.263486
endloop
endfacet
facet normal -0.000001 1.000000 0.000002
outer loop
vertex -0.171341 0.204500 0.243308
vertex -0.160614 0.204500 0.269144
vertex -0.143550 0.204500 0.281519
endloop
endfacet
facet normal 0.000000 1.000000 -0.000000
outer loop
vertex 0.124299 0.204500 0.000000
vertex -0.175000 0.204500 0.205772
vertex -0.171341 0.204500 0.243308
endloop
endfacet
facet normal 0.000000 1.000000 0.000001
outer loop
vertex -0.143550 0.204500 0.281519
vertex -0.095416 0.204500 0.263486
vertex 0.094557 0.204500 0.031676
endloop
endfacet
facet normal 0.000000 1.000000 0.000000
outer loop
vertex 0.094557 0.204500 0.031676
vertex 0.124299 0.204500 0.000000
vertex -0.171341 0.204500 0.243308
endloop
endfacet
facet normal 0.000000 1.000000 0.000000
outer loop
vertex -0.171341 0.204500 0.243308
vertex -0.143550 0.204500 0.281519
vertex 0.094557 0.204500 0.031676
endloop
endfacet
endsolid obstacle
