solid obstacle
facet normal 1.000000 0.000000 0.000000
outer loop
vertex 0.204500 -0.175000 0.000000
vertex 0.204500 0.124299 0.000000
vertex 0.204500 0.124299 0.000007
endloop
endfacet
facet normal 1.000000 -0.000023 0.000000
outer loop
vertex 0.204500 0.094556 0.031676
vertex 0.204500 -0.067625 0.234307
vertex 0.204500 -0.081640 0.250426
endloop
endfacet
facet normal 1.000000 0.000000 0.000000
outer loop
vertex 0.204500 -0.175000 0.000000
vertex 0.204500 0.124299 0.000007
vertex 0.204500 0.094556 0.031676
endloop
endfacet
facet normal 1.000000 0.000039 0.000000
outer loop
vertex 0.204500 -0.174081 0.225860
vertex 0.204500 -0.175000 0.205772
vertex 0.204500 -0.175000 0.000000
endloop
endfacet
facet normal 1.000000 -0.000012 0.000000
outer loop
vertex 0.204500 -0.166827 0.257819
vertex 0.204500 -0.171341 0.243308
vertex 0.204500 -0.174081 0.225860
endloop
endfacet
facet normal 1.000000 0.000000 0.000000
outer loop
vertex 0.204500 -0.152811 0.277089
vertex 0.204500 -0.160614 0.269144
vertex 0.204500 -0.166827 0.257819
endloop
endfacet
facet normal 1.000000 0.000000 0.000000
outer loop
vertex 0.204500 -0.132991 0.282356
vertex 0.204500 -0.143551 0.281519
vertex 0.204500 -0.152811 0.277089
endloop
endfacet
facet normal 1.000000 0.000000 0.000000
outer loop
vertex 0.204500 -0.108716 0.273262
vertex 0.204500 -0.121313 0.279589
vertex 0.204500 -0.132991 0.282356
endloop
endfacet
facet normal 1.000000 0.000000 0.000000
outer loop
vertex 0.204500 -0.081640 0.250426
vertex 0.204500 -0.095416 0.263486
vertex 0.204500 -0.108716 0.273262
endloop
endfacet
facet normal 1.000000 0.000000 0.000000
outer loop
vertex 0.204500 -0.175000 0.000000
vertex 0.204500 0.094556 0.031676
vertex 0.204500 -0.081640 0.250426
endloop
endfacet
facet normal 1.000000 -0.000005 0.000000
outer loop
vertex 0.204500 -0.166827 0.257819
vertex 0.204500 -0.174081 0.225860
vertex 0.204500 -0.175000 0.000000
endloop
endfacet
facet normal 1.000000 -0.000003 0.000000
outer loop
vertex 0.204500 -0.132991 0.282356
vertex 0.204500 -0.152811 0.277089
vertex 0.204500 -0.166827 0.257819
endloop
endfacet
facet normal 1.000000 0.000002 0.000000
outer loop
vertex 0.204500 -0.081640 0.250426
vertex 0.204500 -0.108716 0.273262
vertex 0.204500 -0.132991 0.282356
endloop
endfacet
facet normal 1.000000 0.000000 0.000000
outer loop
vertex 0.204500 -0.166827 0.257819
vertex 0.204500 -0.175000 0.000000
vertex 0.204500 -0.081640 0.250426
endloop
endfacet
facet normal 1.000000 0.000000 0.000000
outer loop
vertex 0.204500 -0.081640 0.250426
vertex 0.204500 -0.132991 0.282356
vertex 0.204500 -0.166827 0.257819
endloop
endfacet
facet normal 0.000000 1.000000 0.000000
outer loop
vertex -0.204500 0.175000 0.000000
vertex -0.204500 0.175000 0.058424
vertex 0.204500 0.175000 0.058424
endloop
endfacet
facet normal 0.000000 1.000000 0.000000
outer loop
vertex -0.204500 0.175000 0.000000
vertex 0.204500 0.175000 0.058424
vertex 0.204500 0.175000 0.000000
endloop
endfacet
facet normal 1.000000 0.000000 0.000000
outer loop
vertex 0.204500 0.124299 0.000000
vertex 0.204500 0.175000 0.000000
vertex 0.204500 0.175000 0.058424
endloop
endfacet
facet normal 1.000000 0.000007 0.000000
outer loop
vertex 0.204500 0.175000 0.058424
vertex 0.204500 0.151323 0.033767
vertex 0.204500 0.124299 0.000007
endloop
endfacet
facet normal 1.000000 -0.000902 0.000000
outer loop
vertex 0.204500 0.175000 0.058424
vertex 0.204500 0.124299 0.000007
vertex 0.204500 0.124299 0.000000
endloop
endfacet
facet normal 0.000000 0.780725 0.624874
outer loop
vertex 0.204500 0.094556 0.031676
vertex -0.204500 0.094556 0.031676
vertex -0.204500 -0.067625 0.234307
endloop
endfacet
facet normal 0.000000 0.780725 0.624874
outer loop
vertex 0.204500 0.094556 0.031676
vertex -0.204500 -0.067625 0.234307
vertex 0.204500 -0.067625 0.234307
endloop
endfacet
facet normal 0.000000 0.000000 -1.000000
outer loop
vertex -0.204500 0.124299 0.000000
vertex 0.204500 0.124299 0.000000
vertex 0.204500 -0.175000 0.000000
endloop
endfacet
facet normal 0.000000 0.000000 -1.000000
outer loop
vertex -0.204500 0.124299 0.000000
vertex 0.204500 -0.175000 0.000000
vertex -0.204500 -0.175000 0.000000
endloop
endfacet
facet normal 0.000000 -1.000000 0.000000
outer loop
vertex 0.204500 -0.175000 0.000000
vertex 0.204500 -0.175000 0.205772
vertex -0.204500 -0.175000 0.205772
endloop
endfacet
facet normal 0.000000 -1.000000 0.000000
outer loop
vertex 0.204500 -0.175000 0.000000
vertex -0.204500 -0.175000 0.205772
vertex -0.204500 -0.175000 0.000000
endloop
endfacet
facet normal 0.000000 0.000000 -1.000000
outer loop
vertex -0.204500 0.175000 0.000000
vertex 0.204500 0.175000 0.000000
vertex 0.204500 0.124299 0.000000
endloop
endfacet
facet normal 0.000000 0.000000 -1.000000
outer loop
vertex -0.204500 0.175000 0.000000
vertex 0.204500 0.124299 0.000000
vertex -0.204500 0.124299 0.000000
endloop
endfacet
facet normal -1.000000 0.000000 0.000000
outer loop
vertex -0.204500 0.175000 0.000000
vertex -0.204500 0.124299 0.000000
vertex -0.204500 0.124299 0.000007
endloop
endfacet
facet normal -1.000000 0.000007 0.000000
outer loop
vertex -0.204500 0.124299 0.000007
vertex -0.204500 0.151323 0.033767
vertex -0.204500 0.175000 0.058424
endloop
endfacet
facet normal -1.000000 0.000000 0.000000
outer loop
vertex -0.204500 0.124299 0.000007
vertex -0.204500 0.175000 0.058424
vertex -0.204500 0.175000 0.000000
endloop
endfacet
facet normal -1.000000 0.000000 0.000000
outer loop
vertex -0.204500 0.094556 0.031676
vertex -0.204500 0.098670 0.028516
vertex -0.204500 0.124299 0.000007
endloop
endfacet
facet normal -1.000000 0.000015 0.000000
outer loop
vertex -0.204500 0.098670 0.028516
vertex -0.204500 0.103175 0.025892
vertex -0.204500 0.124299 0.000007
endloop
endfacet
facet normal -1.000000 0.000000 0.000000
outer loop
vertex -0.204500 0.103175 0.025892
vertex -0.204500 0.107995 0.023848
vertex -0.204500 0.124299 0.000007
endloop
endfacet
facet normal -1.000000 -0.000010 0.000000
outer loop
vertex -0.204500 0.107995 0.023848
vertex -0.204500 0.113048 0.022420
vertex -0.204500 0.124299 0.000007
endloop
endfacet
facet normal -1.000000 0.000000 0.000000
outer loop
vertex -0.204500 0.113048 0.022420
vertex -0.204500 0.118247 0.021632
vertex -0.204500 0.124299 0.000007
endloop
endfacet
facet normal -1.000000 -0.000008 0.000000
outer loop
vertex -0.204500 0.118247 0.021632
vertex -0.204500 0.123503 0.021497
vertex -0.204500 0.124299 0.000007
endloop
endfacet
facet normal -1.000000 0.000008 0.000000
outer loop
vertex -0.204500 0.123503 0.021497
vertex -0.204500 0.128726 0.022018
vertex -0.204500 0.124299 0.000007
endloop
endfacet
facet normal -1.000000 0.000000 0.000000
outer loop
vertex -0.204500 0.128726 0.022018
vertex -0.204500 0.133826 0.023185
vertex -0.204500 0.124299 0.000007
endloop
endfacet
facet normal -1.000000 0.000000 0.000000
outer loop
vertex -0.204500 0.133826 0.023185
vertex -0.204500 0.138718 0.024980
vertex -0.204500 0.124299 0.000007
endloop
endfacet
facet normal -1.000000 0.000012 0.000000
outer loop
vertex -0.204500 0.138718 0.024980
vertex -0.204500 0.143315 0.027370
vertex -0.204500 0.124299 0.000007
endloop
endfacet
facet normal -1.000000 -0.000016 0.000000
outer loop
vertex -0.204500 0.143315 0.027370
vertex -0.204500 0.147542 0.030316
vertex -0.204500 0.124299 0.000007
endloop
endfacet
facet normal -1.000000 0.000000 0.000000
outer loop
vertex -0.204500 0.147542 0.030316
vertex -0.204500 0.151323 0.033767
vertex -0.204500 0.124299 0.000007
endloop
endfacet
facet normal 1.000000 0.000000 0.000000
outer loop
vertex 0.204500 0.151323 0.033767
vertex 0.204500 0.147542 0.030316
vertex 0.204500 0.124299 0.000007
endloop
endfacet
facet normal 1.000000 -0.000016 0.000000
outer loop
vertex 0.204500 0.147542 0.030316
vertex 0.204500 0.143315 0.027370
vertex 0.204500 0.124299 0.000007
endloop
endfacet
facet normal 1.000000 0.000012 0.000000
outer loop
vertex 0.204500 0.143315 0.027370
vertex 0.204500 0.138718 0.024980
vertex 0.204500 0.124299 0.000007
endloop
endfacet
facet normal 1.000000 0.000000 0.000000
outer loop
vertex 0.204500 0.138718 0.024980
vertex 0.204500 0.133826 0.023185
vertex 0.204500 0.124299 0.000007
endloop
endfacet
facet normal 1.000000 0.000000 0.000000
outer loop
vertex 0.204500 0.133826 0.023185
vertex 0.204500 0.128726 0.022018
vertex 0.204500 0.124299 0.000007
endloop
endfacet
facet normal 1.000000 0.000008 0.000000
outer loop
vertex 0.204500 0.128726 0.022018
vertex 0.204500 0.123503 0.021497
vertex 0.204500 0.124299 0.000007
endloop
endfacet
facet normal 1.000000 0.000000 0.000000
outer loop
vertex 0.204500 0.123503 0.021497
vertex 0.204500 0.118247 0.021632
vertex 0.204500 0.124299 0.000007
endloop
endfacet
facet normal 1.000000 -0.000009 0.000000
outer loop
vertex 0.204500 0.118247 0.021632
vertex 0.204500 0.113048 0.022420
vertex 0.204500 0.124299 0.000007
endloop
endfacet
facet normal 1.000000 0.000000 0.000000
outer loop
vertex 0.204500 0.113048 0.022420
vertex 0.204500 0.107995 0.023848
vertex 0.204500 0.124299 0.000007
endloop
endfacet
facet normal 1.000000 0.000000 0.000000
outer loop
vertex 0.204500 0.107995 0.023848
vertex 0.204500 0.103175 0.025892
vertex 0.204500 0.124299 0.000007
endloop
endfacet
facet normal 1.000000 0.000000 0.000000
outer loop
vertex 0.204500 0.103175 0.025892
vertex 0.204500 0.098670 0.028516
vertex 0.204500 0.124299 0.000007
endloop
endfacet
facet normal 1.000000 0.000000 0.000000
outer loop
vertex 0.204500 0.098670 0.028516
vertex 0.204500 0.094556 0.031676
vertex 0.204500 0.124299 0.000007
endloop
endfacet
facet normal 0.000000 0.609182 0.793031
outer loop
vertex -0.204500 0.094556 0.031676
vertex 0.204500 0.094556 0.031676
vertex 0.204500 0.098670 0.028516
endloop
endfacet
facet normal -0.000000 0.609187 0.793027
outer loop
vertex -0.204500 0.094556 0.031676
vertex 0.204500 0.098670 0.028516
vertex -0.204500 0.098670 0.028516
endloop
endfacet
facet normal -0.000000 0.503303 0.864110
outer loop
vertex -0.204500 0.098670 0.028516
vertex 0.204500 0.098670 0.028516
vertex 0.204500 0.103175 0.025892
endloop
endfacet
facet normal 0.000000 0.503301 0.864111
outer loop
vertex -0.204500 0.098670 0.028516
vertex 0.204500 0.103175 0.025892
vertex -0.204500 0.103175 0.025892
endloop
endfacet
facet normal 0.000000 0.390334 0.920673
outer loop
vertex -0.204500 0.103175 0.025892
vertex 0.204500 0.103175 0.025892
vertex 0.204500 0.107995 0.023848
endloop
endfacet
facet normal -0.000000 0.390335 0.920673
outer loop
vertex -0.204500 0.103175 0.025892
vertex 0.204500 0.107995 0.023848
vertex -0.204500 0.107995 0.023848
endloop
endfacet
facet normal -0.000000 0.271996 0.962298
outer loop
vertex -0.204500 0.107995 0.023848
vertex 0.204500 0.107995 0.023848
vertex 0.204500 0.113048 0.022420
endloop
endfacet
facet normal -0.000000 0.271996 0.962298
outer loop
vertex -0.204500 0.107995 0.023848
vertex 0.204500 0.113048 0.022420
vertex -0.204500 0.113048 0.022420
endloop
endfacet
facet normal -0.000000 0.149908 0.988700
outer loop
vertex -0.204500 0.113048 0.022420
vertex 0.204500 0.113048 0.022420
vertex 0.204500 0.118247 0.021632
endloop
endfacet
facet normal -0.000000 0.149908 0.988700
outer loop
vertex -0.204500 0.113048 0.022420
vertex 0.204500 0.118247 0.021632
vertex -0.204500 0.118247 0.021632
endloop
endfacet
facet normal -0.000000 0.025650 0.999671
outer loop
vertex -0.204500 0.118247 0.021632
vertex 0.204500 0.118247 0.021632
vertex 0.204500 0.123503 0.021497
endloop
endfacet
facet normal 0.000000 0.025647 0.999671
outer loop
vertex -0.204500 0.118247 0.021632
vertex 0.204500 0.123503 0.021497
vertex -0.204500 0.123503 0.021497
endloop
endfacet
facet normal 0.000000 -0.099236 0.995064
outer loop
vertex -0.204500 0.123503 0.021497
vertex 0.204500 0.123503 0.021497
vertex 0.204500 0.128726 0.022018
endloop
endfacet
facet normal 0.000000 -0.099235 0.995064
outer loop
vertex -0.204500 0.123503 0.021497
vertex 0.204500 0.128726 0.022018
vertex -0.204500 0.128726 0.022018
endloop
endfacet
facet normal 0.000000 -0.223150 0.974784
outer loop
vertex -0.204500 0.128726 0.022018
vertex 0.204500 0.128726 0.022018
vertex 0.204500 0.133826 0.023185
endloop
endfacet
facet normal 0.000000 -0.223148 0.974784
outer loop
vertex -0.204500 0.128726 0.022018
vertex 0.204500 0.133826 0.023185
vertex -0.204500 0.133826 0.023185
endloop
endfacet
facet normal 0.000000 -0.344433 0.938811
outer loop
vertex -0.204500 0.133826 0.023185
vertex 0.204500 0.133826 0.023185
vertex 0.204500 0.138718 0.024980
endloop
endfacet
facet normal 0.000000 -0.344435 0.938810
outer loop
vertex -0.204500 0.133826 0.023185
vertex 0.204500 0.138718 0.024980
vertex -0.204500 0.138718 0.024980
endloop
endfacet
facet normal 0.000000 -0.461298 0.887245
outer loop
vertex -0.204500 0.138718 0.024980
vertex 0.204500 0.138718 0.024980
vertex 0.204500 0.143315 0.027370
endloop
endfacet
facet normal 0.000000 -0.461302 0.887243
outer loop
vertex -0.204500 0.138718 0.024980
vertex 0.204500 0.143315 0.027370
vertex -0.204500 0.143315 0.027370
endloop
endfacet
facet normal 0.000000 -0.571838 0.820367
outer loop
vertex -0.204500 0.143315 0.027370
vertex 0.204500 0.143315 0.027370
vertex 0.204500 0.147542 0.030316
endloop
endfacet
facet normal 0.000000 -0.571840 0.820365
outer loop
vertex -0.204500 0.143315 0.027370
vertex 0.204500 0.147542 0.030316
vertex -0.204500 0.147542 0.030316
endloop
endfacet
facet normal 0.000000 -0.674010 0.738722
outer loop
vertex -0.204500 0.147542 0.030316
vertex 0.204500 0.147542 0.030316
vertex 0.204500 0.151323 0.033767
endloop
endfacet
facet normal 0.000000 -0.674011 0.738721
outer loop
vertex -0.204500 0.147542 0.030316
vertex 0.204500 0.151323 0.033767
vertex -0.204500 0.151323 0.033767
endloop
endfacet
facet normal 0.000000 -0.721300 0.692622
outer loop
vertex 0.204500 0.175000 0.058424
vertex -0.204500 0.175000 0.058424
vertex -0.204500 0.151323 0.033767
endloop
endfacet
facet normal 0.000000 -0.721301 0.692622
outer loop
vertex 0.204500 0.175000 0.058424
vertex -0.204500 0.151323 0.033767
vertex 0.204500 0.151323 0.033767
endloop
endfacet
facet normal 0.000000 0.754635 0.656145
outer loop
vertex 0.204500 -0.067625 0.234307
vertex -0.204500 -0.067625 0.234307
vertex -0.204500 -0.081640 0.250426
endloop
endfacet
facet normal 0.000000 0.754635 0.656145
outer loop
vertex 0.204500 -0.067625 0.234307
vertex -0.204500 -0.081640 0.250426
vertex 0.204500 -0.081640 0.250426
endloop
endfacet
facet normal 0.000000 0.687997 0.725714
outer loop
vertex 0.204500 -0.081640 0.250426
vertex -0.204500 -0.081640 0.250426
vertex -0.204500 -0.095416 0.263486
endloop
endfacet
facet normal 0.000000 0.687996 0.725715
outer loop
vertex 0.204500 -0.081640 0.250426
vertex -0.204500 -0.095416 0.263486
vertex 0.204500 -0.095416 0.263486
endloop
endfacet
facet normal 0.000000 0.592279 0.805733
outer loop
vertex 0.204500 -0.095416 0.263486
vertex -0.204500 -0.095416 0.263486
vertex -0.204500 -0.108716 0.273262
endloop
endfacet
facet normal 0.000000 0.592279 0.805733
outer loop
vertex 0.204500 -0.095416 0.263486
vertex -0.204500 -0.108716 0.273262
vertex 0.204500 -0.108716 0.273262
endloop
endfacet
facet normal 0.000000 0.448797 0.893633
outer loop
vertex 0.204500 -0.108716 0.273262
vertex -0.204500 -0.108716 0.273262
vertex -0.204500 -0.121313 0.279589
endloop
endfacet
facet normal 0.000000 0.448797 0.893633
outer loop
vertex 0.204500 -0.108716 0.273262
vertex -0.204500 -0.121313 0.279589
vertex 0.204500 -0.121313 0.279589
endloop
endfacet
facet normal 0.000000 0.230621 0.973044
outer loop
vertex 0.204500 -0.121313 0.279589
vertex -0.204500 -0.121313 0.279589
vertex -0.204500 -0.132991 0.282356
endloop
endfacet
facet normal 0.000000 0.230621 0.973044
outer loop
vertex 0.204500 -0.121313 0.279589
vertex -0.204500 -0.132991 0.282356
vertex 0.204500 -0.132991 0.282356
endloop
endfacet
facet normal 0.000000 -0.079101 0.996867
outer loop
vertex 0.204500 -0.132991 0.282356
vertex -0.204500 -0.132991 0.282356
vertex -0.204500 -0.143551 0.281519
endloop
endfacet
facet normal 0.000000 -0.079101 0.996867
outer loop
vertex 0.204500 -0.132991 0.282356
vertex -0.204500 -0.143551 0.281519
vertex 0.204500 -0.143551 0.281519
endloop
endfacet
facet normal 0.000000 -0.431488 0.902119
outer loop
vertex 0.204500 -0.143551 0.281519
vertex -0.204500 -0.143551 0.281519
vertex -0.204500 -0.152811 0.277089
endloop
endfacet
facet normal 0.000000 -0.431486 0.902120
outer loop
vertex 0.204500 -0.143551 0.281519
vertex -0.204500 -0.152811 0.277089
vertex 0.204500 -0.152811 0.277089
endloop
endfacet
facet normal 0.000000 -0.713450 0.700706
outer loop
vertex 0.204500 -0.152811 0.277089
vertex -0.204500 -0.152811 0.277089
vertex -0.204500 -0.160614 0.269144
endloop
endfacet
facet normal 0.000000 -0.713450 0.700707
outer loop
vertex 0.204500 -0.152811 0.277089
vertex -0.204500 -0.160614 0.269144
vertex 0.204500 -0.160614 0.269144
endloop
endfacet
facet normal 0.000000 -0.876758 0.480931
outer loop
vertex 0.204500 -0.160614 0.269144
vertex -0.204500 -0.160614 0.269144
vertex -0.204500 -0.166827 0.257819
endloop
endfacet
facet normal 0.000000 -0.876757 0.480933
outer loop
vertex 0.204500 -0.160614 0.269144
vertex -0.204500 -0.166827 0.257819
vertex 0.204500 -0.166827 0.257819
endloop
endfacet
facet normal 0.000000 -0.954853 0.297079
outer loop
vertex 0.204500 -0.166827 0.257819
vertex -0.204500 -0.166827 0.257819
vertex -0.204500 -0.171341 0.243308
endloop
endfacet
facet normal 0.000000 -0.954852 0.297081
outer loop
vertex 0.204500 -0.166827 0.257819
vertex -0.204500 -0.171341 0.243308
vertex 0.204500 -0.171341 0.243308
endloop
endfacet
facet normal 0.000000 -0.987893 0.155138
outer loop
vertex 0.204500 -0.171341 0.243308
vertex -0.204500 -0.171341 0.243308
vertex -0.204500 -0.174081 0.225860
endloop
endfacet
facet normal 0.000000 -0.987893 0.155140
outer loop
vertex 0.204500 -0.171341 0.243308
vertex -0.204500 -0.174081 0.225860
vertex 0.204500 -0.174081 0.225860
endloop
endfacet
facet normal 0.000000 -0.998956 0.045681
outer loop
vertex 0.204500 -0.174081 0.225860
vertex -0.204500 -0.174081 0.225860
vertex -0.204500 -0.175000 0.205772
endloop
endfacet
facet normal 0.000000 -0.998956 0.045681
outer loop
vertex 0.204500 -0.174081 0.225860
vertex -0.204500 -0.175000 0.205772
vertex 0.204500 -0.175000 0.205772
endloop
endfacet
facet normal -1.000000 0.000000 0.000000
outer loop
vertex -0.204500 0.124299 0.000000
vertex -0.204500 -0.175000 0.000000
vertex -0.204500 -0.175000 0.205772
endloop
endfacet
facet normal -1.000000 0.000000 0.000000
outer loop
vertex -0.204500 -0.175000 0.205772
vertex -0.204500 -0.174081 0.225860
vertex -0.204500 -0.171341 0.243308
endloop
endfacet
facet normal -1.000000 -0.000012 0.000000
outer loop
vertex -0.204500 -0.171341 0.243308
vertex -0.204500 -0.166827 0.257819
vertex -0.204500 -0.160614 0.269144
endloop
endfacet
facet normal -1.000000 0.000000 0.000000
outer loop
vertex -0.204500 -0.160614 0.269144
vertex -0.204500 -0.152811 0.277089
vertex -0.204500 -0.143551 0.281519
endloop
endfacet
facet normal -1.000000 0.000000 0.000000
outer loop
vertex -0.204500 -0.143551 0.281519
vertex -0.204500 -0.132991 0.282356
vertex -0.204500 -0.121313 0.279589
endloop
endfacet
facet normal -1.000000 0.000000 0.000000
outer loop
vertex -0.204500 -0.121313 0.279589
vertex -0.204500 -0.108716 0.273262
vertex -0.204500 -0.095416 0.263486
endloop
endfacet
facet normal -1.000000 0.000012 0.000000
outer loop
vertex -0.204500 -0.095416 0.263486
vertex -0.204500 -0.081640 0.250426
vertex -0.204500 -0.067625 0.234307
endloop
endfacet
facet normal -0.999999 0.001537 0.000000
outer loop
vertex -0.204500 0.094556 0.031676
vertex -0.204500 0.124299 0.000007
vertex -0.204500 0.124299 0.000000
endloop
endfacet
facet normal -1.000000 -0.000008 0.000000
outer loop
vertex -0.204500 -0.095416 0.263486
vertex -0.204500 -0.067625 0.234307
vertex -0.204500 0.094556 0.031676
endloop
endfacet
facet normal -1.000000 0.000002 0.000000
outer loop
vertex -0.204500 -0.143551 0.281519
vertex -0.204500 -0.121313 0.279589
vertex -0.204500 -0.095416 0.263486
endloop
endfacet
facet normal -1.000000 0.000002 0.000000
outer loop
vertex -0.204500 -0.171341 0.243308
vertex -0.204500 -0.160614 0.269144
vertex -0.204500 -0.143551 0.281519
endloop
endfacet
facet normal -1.000000 0.000001 0.000000
outer loop
vertex -0.204500 0.124299 0.000000
vertex -0.204500 -0.175000 0.205772
vertex -0.204500 -0.171341 0.243308
endloop
endfacet
facet normal -1.000000 0.000000 0.000000
outer loop
vertex -0.204500 -0.143551 0.281519
vertex -0.204500 -0.095416 0.263486
vertex -0.204500 0.094556 0.031676
endloop
endfacet
facet normal -1.000000 -0.000004 0.000000
outer loop
vertex -0.204500 0.094556 0.031676
vertex -0.204500 0.124299 0.000000
vertex -0.204500 -0.171341 0.243308
endloop
endfacet
facet normal -1.000000 0.000000 0.000000
outer loop
vertex -0.204500 -0.171341 0.243308
vertex -0.204500 -0.143551 0.281519
vertex -0.204500 0.094556 0.031676
endloop
endfacet
endsolid obstacle
