solid cylinder
facet normal 0.000000 0.000000 -1.000000
outer loop
vertex 0.187980 -0.144680 0.000000
vertex 0.175125 -0.160001 0.000000
vertex -0.175125 0.160001 0.000000
endloop
endfacet
facet normal 0.000000 0.000000 -1.000000
outer loop
vertex -0.175125 0.160001 0.000000
vertex 0.175125 -0.160001 0.000000
vertex -0.187980 0.144680 0.000000
endloop
endfacet
facet normal 0.642788 0.766044 0.000000
outer loop
vertex 0.187980 -0.144680 0.002087
vertex 0.187980 -0.144680 0.000000
vertex -0.175125 0.160001 0.002087
endloop
endfacet
facet normal 0.642788 0.766044 0.000000
outer loop
vertex -0.175125 0.160001 0.002087
vertex 0.187980 -0.144680 0.000000
vertex -0.175125 0.160001 0.000000
endloop
endfacet
facet normal -0.301090 -0.358659 -0.883577
outer loop
vertex 0.172973 -0.162565 0.003861
vertex 0.112397 -0.111855 0.003919
vertex 0.175125 -0.160001 0.002087
endloop
endfacet
facet normal -0.302240 -0.360196 -0.882559
outer loop
vertex 0.175125 -0.160001 0.002087
vertex 0.112397 -0.111855 0.003919
vertex 0.051879 -0.061075 0.003919
endloop
endfacet
facet normal -0.302238 -0.360193 -0.882561
outer loop
vertex 0.175125 -0.160001 0.002087
vertex 0.051879 -0.061075 0.003919
vertex -0.008638 -0.010295 0.003919
endloop
endfacet
facet normal -0.386711 -0.460865 -0.798785
outer loop
vertex -0.008638 -0.010295 0.003919
vertex 0.051879 -0.061075 0.003919
vertex -0.010639 -0.012679 0.006263
endloop
endfacet
facet normal -0.386712 -0.460865 -0.798785
outer loop
vertex -0.008638 -0.010295 0.003919
vertex -0.010639 -0.012679 0.006263
vertex -0.071156 0.038102 0.006263
endloop
endfacet
facet normal -0.461791 -0.550341 -0.695610
outer loop
vertex -0.071156 0.038102 0.006263
vertex -0.010639 -0.012679 0.006263
vertex -0.072898 0.036025 0.009062
endloop
endfacet
facet normal -0.461791 -0.550341 -0.695611
outer loop
vertex -0.071156 0.038102 0.006263
vertex -0.072898 0.036025 0.009062
vertex -0.133416 0.086806 0.009062
endloop
endfacet
facet normal -0.525654 -0.626450 -0.575541
outer loop
vertex -0.133416 0.086806 0.009062
vertex -0.072898 0.036025 0.009062
vertex -0.134857 0.085088 0.012248
endloop
endfacet
facet normal -0.525362 -0.626693 -0.575543
outer loop
vertex -0.133416 0.086806 0.009062
vertex -0.134857 0.085088 0.012248
vertex -0.195230 0.136040 0.011878
endloop
endfacet
facet normal -0.571390 -0.680383 -0.458903
outer loop
vertex -0.195230 0.136040 0.011878
vertex -0.134857 0.085088 0.012248
vertex -0.196348 0.134708 0.015243
endloop
endfacet
facet normal -0.576399 -0.687641 -0.441490
outer loop
vertex -0.196348 0.134708 0.015243
vertex -0.134857 0.085088 0.012248
vertex -0.135963 0.083770 0.015744
endloop
endfacet
facet normal -0.609461 -0.725634 -0.319393
outer loop
vertex -0.196348 0.134708 0.015243
vertex -0.135963 0.083770 0.015744
vertex -0.197126 0.133781 0.018833
endloop
endfacet
facet normal -0.613430 -0.731888 -0.296721
outer loop
vertex -0.197126 0.133781 0.018833
vertex -0.135963 0.083770 0.015744
vertex -0.136706 0.082885 0.019465
endloop
endfacet
facet normal -0.633542 -0.754223 -0.172548
outer loop
vertex -0.197126 0.133781 0.018833
vertex -0.136706 0.082885 0.019465
vertex -0.197546 0.133281 0.022564
endloop
endfacet
facet normal -0.635556 -0.758365 -0.144741
outer loop
vertex -0.197546 0.133281 0.022564
vertex -0.136706 0.082885 0.019465
vertex -0.137068 0.082453 0.023320
endloop
endfacet
facet normal -0.643081 -0.765489 -0.021747
outer loop
vertex -0.197546 0.133281 0.022564
vertex -0.137068 0.082453 0.023320
vertex -0.197599 0.133218 0.026352
endloop
endfacet
facet normal -0.642241 -0.766428 0.010752
outer loop
vertex -0.197599 0.133218 0.026352
vertex -0.137068 0.082453 0.023320
vertex -0.137041 0.082485 0.027216
endloop
endfacet
facet normal -0.637861 -0.759176 0.129561
outer loop
vertex -0.197599 0.133218 0.026352
vertex -0.137041 0.082485 0.027216
vertex -0.197283 0.133594 0.030108
endloop
endfacet
facet normal -0.633318 -0.755882 0.165986
outer loop
vertex -0.197283 0.133594 0.030108
vertex -0.137041 0.082485 0.027216
vertex -0.136626 0.082980 0.031058
endloop
endfacet
facet normal -0.618004 -0.735425 0.277887
outer loop
vertex -0.197283 0.133594 0.030108
vertex -0.136626 0.082980 0.031058
vertex -0.196607 0.134400 0.033747
endloop
endfacet
facet normal -0.609004 -0.726984 0.317188
outer loop
vertex -0.196607 0.134400 0.033747
vertex -0.136626 0.082980 0.031058
vertex -0.135831 0.083927 0.034753
endloop
endfacet
facet normal -0.583963 -0.694785 0.419835
outer loop
vertex -0.196607 0.134400 0.033747
vertex -0.135831 0.083927 0.034753
vertex -0.195584 0.135618 0.037185
endloop
endfacet
facet normal -0.569889 -0.680438 0.460686
outer loop
vertex -0.195584 0.135618 0.037185
vertex -0.135831 0.083927 0.034753
vertex -0.134678 0.085302 0.038211
endloop
endfacet
facet normal -0.536524 -0.638184 0.552144
outer loop
vertex -0.195584 0.135618 0.037185
vertex -0.134678 0.085302 0.038211
vertex -0.194240 0.137221 0.040343
endloop
endfacet
facet normal -0.516922 -0.617375 0.592992
outer loop
vertex -0.194240 0.137221 0.040343
vertex -0.134678 0.085302 0.038211
vertex -0.133193 0.087072 0.041348
endloop
endfacet
facet normal -0.476775 -0.566922 0.671778
outer loop
vertex -0.194240 0.137221 0.040343
vertex -0.133193 0.087072 0.041348
vertex -0.192604 0.139170 0.043149
endloop
endfacet
facet normal -0.451390 -0.539326 0.710897
outer loop
vertex -0.192604 0.139170 0.043149
vertex -0.133193 0.087072 0.041348
vertex -0.131412 0.089193 0.044088
endloop
endfacet
facet normal -0.406087 -0.482635 0.775988
outer loop
vertex -0.192604 0.139170 0.043149
vertex -0.131412 0.089193 0.044088
vertex -0.190715 0.141422 0.045539
endloop
endfacet
facet normal -0.374880 -0.448189 0.811536
outer loop
vertex -0.190715 0.141422 0.045539
vertex -0.131412 0.089193 0.044088
vertex -0.129380 0.091616 0.046365
endloop
endfacet
facet normal -0.326090 -0.387260 0.862377
outer loop
vertex -0.190715 0.141422 0.045539
vertex -0.129380 0.091616 0.046365
vertex -0.188615 0.143924 0.047456
endloop
endfacet
facet normal -0.289253 -0.346174 0.892467
outer loop
vertex -0.188615 0.143924 0.047456
vertex -0.129380 0.091616 0.046365
vertex -0.127145 0.094279 0.048123
endloop
endfacet
facet normal -0.238613 -0.282983 0.928969
outer loop
vertex -0.188615 0.143924 0.047456
vertex -0.127145 0.094279 0.048123
vertex -0.186353 0.146620 0.048859
endloop
endfacet
facet normal -0.196589 -0.235764 0.951718
outer loop
vertex -0.186353 0.146620 0.048859
vertex -0.127145 0.094279 0.048123
vertex -0.124761 0.097120 0.049319
endloop
endfacet
facet normal -0.145671 -0.172199 0.974232
outer loop
vertex -0.186353 0.146620 0.048859
vertex -0.124761 0.097120 0.049319
vertex -0.183981 0.149447 0.049713
endloop
endfacet
facet normal -0.099137 -0.119638 0.987856
outer loop
vertex -0.183981 0.149447 0.049713
vertex -0.124761 0.097120 0.049319
vertex -0.122287 0.100068 0.049924
endloop
endfacet
facet normal -0.049396 -0.057454 0.997125
outer loop
vertex -0.183981 0.149447 0.049713
vertex -0.122287 0.100068 0.049924
vertex -0.181553 0.152341 0.050000
endloop
endfacet
facet normal 0.000737 -0.000619 1.000000
outer loop
vertex -0.181553 0.152341 0.050000
vertex -0.122287 0.100068 0.049924
vertex -0.119783 0.103053 0.049924
endloop
endfacet
facet normal 0.048003 0.058623 0.997125
outer loop
vertex -0.181553 0.152341 0.050000
vertex -0.119783 0.103053 0.049924
vertex -0.179125 0.155234 0.049713
endloop
endfacet
facet normal 0.100606 0.118405 0.987856
outer loop
vertex -0.179125 0.155234 0.049713
vertex -0.119783 0.103053 0.049924
vertex -0.117309 0.106001 0.049319
endloop
endfacet
facet normal 0.144289 0.173361 0.974231
outer loop
vertex -0.179125 0.155234 0.049713
vertex -0.117309 0.106001 0.049319
vertex -0.176752 0.158061 0.048859
endloop
endfacet
facet normal 0.198044 0.234541 0.951719
outer loop
vertex -0.176752 0.158061 0.048859
vertex -0.117309 0.106001 0.049319
vertex -0.114925 0.108842 0.048123
endloop
endfacet
facet normal 0.237250 0.284129 0.928969
outer loop
vertex -0.176752 0.158061 0.048859
vertex -0.114925 0.108842 0.048123
vertex -0.174490 0.160757 0.047456
endloop
endfacet
facet normal 0.290686 0.344972 0.892466
outer loop
vertex -0.174490 0.160757 0.047456
vertex -0.114925 0.108842 0.048123
vertex -0.112690 0.111505 0.046365
endloop
endfacet
facet normal 0.324753 0.388383 0.862377
outer loop
vertex -0.174490 0.160757 0.047456
vertex -0.112690 0.111505 0.046365
vertex -0.172390 0.163260 0.045539
endloop
endfacet
facet normal 0.376278 0.447009 0.811541
outer loop
vertex -0.172390 0.163260 0.045539
vertex -0.112690 0.111505 0.046365
vertex -0.110658 0.113928 0.044088
endloop
endfacet
facet normal 0.404790 0.483732 0.775982
outer loop
vertex -0.172390 0.163260 0.045539
vertex -0.110658 0.113928 0.044088
vertex -0.170501 0.165511 0.043149
endloop
endfacet
facet normal 0.452750 0.538184 0.710898
outer loop
vertex -0.170501 0.165511 0.043149
vertex -0.110658 0.113928 0.044088
vertex -0.108877 0.116049 0.041348
endloop
endfacet
facet normal 0.475519 0.567975 0.671779
outer loop
vertex -0.170501 0.165511 0.043149
vertex -0.108877 0.116049 0.041348
vertex -0.168865 0.167461 0.040343
endloop
endfacet
facet normal 0.518232 0.616276 0.592991
outer loop
vertex -0.168865 0.167461 0.040343
vertex -0.108877 0.116049 0.041348
vertex -0.107392 0.117819 0.038211
endloop
endfacet
facet normal 0.535321 0.639188 0.552150
outer loop
vertex -0.168865 0.167461 0.040343
vertex -0.107392 0.117819 0.038211
vertex -0.167521 0.169063 0.037185
endloop
endfacet
facet normal 0.571141 0.679389 0.460682
outer loop
vertex -0.167521 0.169063 0.037185
vertex -0.107392 0.117819 0.038211
vertex -0.106239 0.119194 0.034753
endloop
endfacet
facet normal 0.582825 0.695740 0.419835
outer loop
vertex -0.167521 0.169063 0.037185
vertex -0.106239 0.119194 0.034753
vertex -0.166498 0.170281 0.033747
endloop
endfacet
facet normal 0.610187 0.725992 0.317188
outer loop
vertex -0.166498 0.170281 0.033747
vertex -0.106239 0.119194 0.034753
vertex -0.105444 0.120141 0.031058
endloop
endfacet
facet normal 0.616938 0.736319 0.277887
outer loop
vertex -0.166498 0.170281 0.033747
vertex -0.105444 0.120141 0.031058
vertex -0.165822 0.171088 0.030108
endloop
endfacet
facet normal 0.634424 0.754954 0.165984
outer loop
vertex -0.165822 0.171088 0.030108
vertex -0.105444 0.120141 0.031058
vertex -0.105029 0.120636 0.027216
endloop
endfacet
facet normal 0.636878 0.760000 0.129561
outer loop
vertex -0.165822 0.171088 0.030108
vertex -0.105029 0.120636 0.027216
vertex -0.165506 0.171464 0.026352
endloop
endfacet
facet normal 0.643260 0.765572 0.010746
outer loop
vertex -0.165506 0.171464 0.026352
vertex -0.105029 0.120636 0.027216
vertex -0.105002 0.120668 0.023320
endloop
endfacet
facet normal 0.642190 0.766237 -0.021741
outer loop
vertex -0.165506 0.171464 0.026352
vertex -0.105002 0.120668 0.023320
vertex -0.165559 0.171401 0.022564
endloop
endfacet
facet normal 0.636480 0.757590 -0.144741
outer loop
vertex -0.165559 0.171401 0.022564
vertex -0.105002 0.120668 0.023320
vertex -0.105364 0.120236 0.019465
endloop
endfacet
facet normal 0.632750 0.754886 -0.172551
outer loop
vertex -0.165559 0.171401 0.022564
vertex -0.105364 0.120236 0.019465
vertex -0.165979 0.170900 0.018833
endloop
endfacet
facet normal 0.614248 0.731202 -0.296721
outer loop
vertex -0.165979 0.170900 0.018833
vertex -0.105364 0.120236 0.019465
vertex -0.106107 0.119351 0.015744
endloop
endfacet
facet normal 0.608780 0.726207 -0.319390
outer loop
vertex -0.165979 0.170900 0.018833
vertex -0.106107 0.119351 0.015744
vertex -0.166757 0.169973 0.015243
endloop
endfacet
facet normal 0.577104 0.687049 -0.441491
outer loop
vertex -0.166757 0.169973 0.015243
vertex -0.106107 0.119351 0.015744
vertex -0.107213 0.118033 0.012248
endloop
endfacet
facet normal 0.570824 0.680855 -0.458908
outer loop
vertex -0.166757 0.169973 0.015243
vertex -0.107213 0.118033 0.012248
vertex -0.167875 0.168641 0.011878
endloop
endfacet
facet normal 0.525948 0.626209 -0.575535
outer loop
vertex -0.167875 0.168641 0.011878
vertex -0.107213 0.118033 0.012248
vertex -0.108654 0.116315 0.009062
endloop
endfacet
facet normal 0.519764 0.619874 -0.587879
outer loop
vertex -0.167875 0.168641 0.011878
vertex -0.108654 0.116315 0.009062
vertex -0.169306 0.166936 0.008813
endloop
endfacet
facet normal 0.462017 0.550153 -0.695609
outer loop
vertex -0.169306 0.166936 0.008813
vertex -0.108654 0.116315 0.009062
vertex -0.110396 0.114239 0.006263
endloop
endfacet
facet normal 0.456769 0.544661 -0.703354
outer loop
vertex -0.169306 0.166936 0.008813
vertex -0.110396 0.114239 0.006263
vertex -0.171019 0.164894 0.006120
endloop
endfacet
facet normal 0.386864 0.460733 -0.798788
outer loop
vertex -0.171019 0.164894 0.006120
vertex -0.110396 0.114239 0.006263
vertex -0.112397 0.111855 0.003919
endloop
endfacet
facet normal 0.383292 0.456947 -0.802675
outer loop
vertex -0.171019 0.164894 0.006120
vertex -0.112397 0.111855 0.003919
vertex -0.172973 0.162565 0.003861
endloop
endfacet
facet normal 0.301090 0.358659 -0.883577
outer loop
vertex -0.172973 0.162565 0.003861
vertex -0.112397 0.111855 0.003919
vertex -0.175125 0.160001 0.002087
endloop
endfacet
facet normal 0.302240 0.360195 -0.882559
outer loop
vertex -0.175125 0.160001 0.002087
vertex -0.112397 0.111855 0.003919
vertex -0.051879 0.061075 0.003919
endloop
endfacet
facet normal 0.302238 0.360193 -0.882561
outer loop
vertex -0.175125 0.160001 0.002087
vertex -0.051879 0.061075 0.003919
vertex 0.008638 0.010295 0.003919
endloop
endfacet
facet normal 0.386712 0.460866 -0.798784
outer loop
vertex 0.008638 0.010295 0.003919
vertex -0.051879 0.061075 0.003919
vertex 0.010639 0.012679 0.006263
endloop
endfacet
facet normal 0.386712 0.460865 -0.798785
outer loop
vertex 0.008638 0.010295 0.003919
vertex 0.010639 0.012679 0.006263
vertex 0.071156 -0.038102 0.006263
endloop
endfacet
facet normal 0.461791 0.550341 -0.695610
outer loop
vertex 0.071156 -0.038102 0.006263
vertex 0.010639 0.012679 0.006263
vertex 0.072898 -0.036025 0.009062
endloop
endfacet
facet normal 0.461791 0.550341 -0.695611
outer loop
vertex 0.071156 -0.038102 0.006263
vertex 0.072898 -0.036025 0.009062
vertex 0.133416 -0.086806 0.009062
endloop
endfacet
facet normal 0.525654 0.626450 -0.575542
outer loop
vertex 0.133416 -0.086806 0.009062
vertex 0.072898 -0.036025 0.009062
vertex 0.134857 -0.085088 0.012248
endloop
endfacet
facet normal 0.525362 0.626693 -0.575543
outer loop
vertex 0.133416 -0.086806 0.009062
vertex 0.134857 -0.085088 0.012248
vertex 0.195230 -0.136040 0.011878
endloop
endfacet
facet normal 0.571390 0.680383 -0.458903
outer loop
vertex 0.195230 -0.136040 0.011878
vertex 0.134857 -0.085088 0.012248
vertex 0.196348 -0.134708 0.015243
endloop
endfacet
facet normal 0.576399 0.687642 -0.441490
outer loop
vertex 0.196348 -0.134708 0.015243
vertex 0.134857 -0.085088 0.012248
vertex 0.135963 -0.083770 0.015744
endloop
endfacet
facet normal 0.609461 0.725634 -0.319393
outer loop
vertex 0.196348 -0.134708 0.015243
vertex 0.135963 -0.083770 0.015744
vertex 0.197126 -0.133781 0.018833
endloop
endfacet
facet normal 0.613430 0.731888 -0.296721
outer loop
vertex 0.197126 -0.133781 0.018833
vertex 0.135963 -0.083770 0.015744
vertex 0.136706 -0.082885 0.019465
endloop
endfacet
facet normal 0.633543 0.754222 -0.172548
outer loop
vertex 0.197126 -0.133781 0.018833
vertex 0.136706 -0.082885 0.019465
vertex 0.197546 -0.133281 0.022564
endloop
endfacet
facet normal 0.635556 0.758365 -0.144741
outer loop
vertex 0.197546 -0.133281 0.022564
vertex 0.136706 -0.082885 0.019465
vertex 0.137068 -0.082453 0.023320
endloop
endfacet
facet normal 0.643081 0.765489 -0.021747
outer loop
vertex 0.197546 -0.133281 0.022564
vertex 0.137068 -0.082453 0.023320
vertex 0.197599 -0.133218 0.026352
endloop
endfacet
facet normal 0.642240 0.766428 0.010755
outer loop
vertex 0.197599 -0.133218 0.026352
vertex 0.137068 -0.082453 0.023320
vertex 0.137041 -0.082485 0.027216
endloop
endfacet
facet normal 0.637861 0.759176 0.129558
outer loop
vertex 0.197599 -0.133218 0.026352
vertex 0.137041 -0.082485 0.027216
vertex 0.197283 -0.133594 0.030108
endloop
endfacet
facet normal 0.633318 0.755882 0.165986
outer loop
vertex 0.197283 -0.133594 0.030108
vertex 0.137041 -0.082485 0.027216
vertex 0.136626 -0.082980 0.031058
endloop
endfacet
facet normal 0.618004 0.735425 0.277887
outer loop
vertex 0.197283 -0.133594 0.030108
vertex 0.136626 -0.082980 0.031058
vertex 0.196607 -0.134400 0.033747
endloop
endfacet
facet normal 0.609004 0.726984 0.317188
outer loop
vertex 0.196607 -0.134400 0.033747
vertex 0.136626 -0.082980 0.031058
vertex 0.135831 -0.083927 0.034753
endloop
endfacet
facet normal 0.583963 0.694785 0.419835
outer loop
vertex 0.196607 -0.134400 0.033747
vertex 0.135831 -0.083927 0.034753
vertex 0.195584 -0.135618 0.037185
endloop
endfacet
facet normal 0.569889 0.680438 0.460686
outer loop
vertex 0.195584 -0.135618 0.037185
vertex 0.135831 -0.083927 0.034753
vertex 0.134678 -0.085302 0.038211
endloop
endfacet
facet normal 0.536523 0.638183 0.552147
outer loop
vertex 0.195584 -0.135618 0.037185
vertex 0.134678 -0.085302 0.038211
vertex 0.194240 -0.137220 0.040343
endloop
endfacet
facet normal 0.516923 0.617376 0.592990
outer loop
vertex 0.194240 -0.137220 0.040343
vertex 0.134678 -0.085302 0.038211
vertex 0.133193 -0.087072 0.041348
endloop
endfacet
facet normal 0.476775 0.566922 0.671778
outer loop
vertex 0.194240 -0.137220 0.040343
vertex 0.133193 -0.087072 0.041348
vertex 0.192604 -0.139170 0.043149
endloop
endfacet
facet normal 0.451390 0.539325 0.710897
outer loop
vertex 0.192604 -0.139170 0.043149
vertex 0.133193 -0.087072 0.041348
vertex 0.131412 -0.089193 0.044088
endloop
endfacet
facet normal 0.406087 0.482635 0.775988
outer loop
vertex 0.192604 -0.139170 0.043149
vertex 0.131412 -0.089193 0.044088
vertex 0.190715 -0.141422 0.045539
endloop
endfacet
facet normal 0.374880 0.448189 0.811537
outer loop
vertex 0.190715 -0.141422 0.045539
vertex 0.131412 -0.089193 0.044088
vertex 0.129380 -0.091616 0.046365
endloop
endfacet
facet normal 0.326089 0.387259 0.862378
outer loop
vertex 0.190715 -0.141422 0.045539
vertex 0.129380 -0.091616 0.046365
vertex 0.188615 -0.143924 0.047456
endloop
endfacet
facet normal 0.289253 0.346175 0.892466
outer loop
vertex 0.188615 -0.143924 0.047456
vertex 0.129380 -0.091616 0.046365
vertex 0.127145 -0.094279 0.048123
endloop
endfacet
facet normal 0.238613 0.282982 0.928970
outer loop
vertex 0.188615 -0.143924 0.047456
vertex 0.127145 -0.094279 0.048123
vertex 0.186353 -0.146620 0.048859
endloop
endfacet
facet normal 0.196590 0.235765 0.951718
outer loop
vertex 0.186353 -0.146620 0.048859
vertex 0.127145 -0.094279 0.048123
vertex 0.124761 -0.097120 0.049319
endloop
endfacet
facet normal 0.145670 0.172200 0.974232
outer loop
vertex 0.186353 -0.146620 0.048859
vertex 0.124761 -0.097120 0.049319
vertex 0.183981 -0.149447 0.049713
endloop
endfacet
facet normal 0.099137 0.119638 0.987855
outer loop
vertex 0.183981 -0.149447 0.049713
vertex 0.124761 -0.097120 0.049319
vertex 0.122287 -0.100068 0.049924
endloop
endfacet
facet normal 0.049396 0.057454 0.997125
outer loop
vertex 0.183981 -0.149447 0.049713
vertex 0.122287 -0.100068 0.049924
vertex 0.181553 -0.152341 0.050000
endloop
endfacet
facet normal -0.000737 0.000619 1.000000
outer loop
vertex 0.181553 -0.152341 0.050000
vertex 0.122287 -0.100068 0.049924
vertex 0.119783 -0.103053 0.049924
endloop
endfacet
facet normal -0.048003 -0.058623 0.997125
outer loop
vertex 0.181553 -0.152341 0.050000
vertex 0.119783 -0.103053 0.049924
vertex 0.179125 -0.155234 0.049713
endloop
endfacet
facet normal -0.100606 -0.118405 0.987856
outer loop
vertex 0.179125 -0.155234 0.049713
vertex 0.119783 -0.103053 0.049924
vertex 0.117309 -0.106001 0.049319
endloop
endfacet
facet normal -0.144289 -0.173360 0.974231
outer loop
vertex 0.179125 -0.155234 0.049713
vertex 0.117309 -0.106001 0.049319
vertex 0.176752 -0.158061 0.048859
endloop
endfacet
facet normal -0.198043 -0.234541 0.951719
outer loop
vertex 0.176752 -0.158061 0.048859
vertex 0.117309 -0.106001 0.049319
vertex 0.114925 -0.108842 0.048123
endloop
endfacet
facet normal -0.237251 -0.284129 0.928968
outer loop
vertex 0.176752 -0.158061 0.048859
vertex 0.114925 -0.108842 0.048123
vertex 0.174490 -0.160757 0.047456
endloop
endfacet
facet normal -0.290686 -0.344972 0.892466
outer loop
vertex 0.174490 -0.160757 0.047456
vertex 0.114925 -0.108842 0.048123
vertex 0.112690 -0.111505 0.046365
endloop
endfacet
facet normal -0.324753 -0.388383 0.862377
outer loop
vertex 0.174490 -0.160757 0.047456
vertex 0.112690 -0.111505 0.046365
vertex 0.172390 -0.163260 0.045539
endloop
endfacet
facet normal -0.376278 -0.447008 0.811541
outer loop
vertex 0.172390 -0.163260 0.045539
vertex 0.112690 -0.111505 0.046365
vertex 0.110658 -0.113927 0.044088
endloop
endfacet
facet normal -0.404790 -0.483732 0.775982
outer loop
vertex 0.172390 -0.163260 0.045539
vertex 0.110658 -0.113927 0.044088
vertex 0.170501 -0.165511 0.043149
endloop
endfacet
facet normal -0.452749 -0.538184 0.710898
outer loop
vertex 0.170501 -0.165511 0.043149
vertex 0.110658 -0.113927 0.044088
vertex 0.108877 -0.116049 0.041348
endloop
endfacet
facet normal -0.475519 -0.567975 0.671779
outer loop
vertex 0.170501 -0.165511 0.043149
vertex 0.108877 -0.116049 0.041348
vertex 0.168865 -0.167461 0.040343
endloop
endfacet
facet normal -0.518232 -0.616276 0.592992
outer loop
vertex 0.168865 -0.167461 0.040343
vertex 0.108877 -0.116049 0.041348
vertex 0.107392 -0.117819 0.038211
endloop
endfacet
facet normal -0.535321 -0.639188 0.552150
outer loop
vertex 0.168865 -0.167461 0.040343
vertex 0.107392 -0.117819 0.038211
vertex 0.167521 -0.169063 0.037185
endloop
endfacet
facet normal -0.571141 -0.679389 0.460682
outer loop
vertex 0.167521 -0.169063 0.037185
vertex 0.107392 -0.117819 0.038211
vertex 0.106239 -0.119194 0.034753
endloop
endfacet
facet normal -0.582825 -0.695740 0.419835
outer loop
vertex 0.167521 -0.169063 0.037185
vertex 0.106239 -0.119194 0.034753
vertex 0.166498 -0.170281 0.033747
endloop
endfacet
facet normal -0.610187 -0.725992 0.317188
outer loop
vertex 0.166498 -0.170281 0.033747
vertex 0.106239 -0.119194 0.034753
vertex 0.105444 -0.120141 0.031058
endloop
endfacet
facet normal -0.616937 -0.736318 0.277893
outer loop
vertex 0.166498 -0.170281 0.033747
vertex 0.105444 -0.120141 0.031058
vertex 0.165822 -0.171088 0.030108
endloop
endfacet
facet normal -0.634425 -0.754955 0.165978
outer loop
vertex 0.165822 -0.171088 0.030108
vertex 0.105444 -0.120141 0.031058
vertex 0.105029 -0.120636 0.027216
endloop
endfacet
facet normal -0.636878 -0.760000 0.129561
outer loop
vertex 0.165822 -0.171088 0.030108
vertex 0.105029 -0.120636 0.027216
vertex 0.165506 -0.171464 0.026352
endloop
endfacet
facet normal -0.643260 -0.765572 0.010746
outer loop
vertex 0.165506 -0.171464 0.026352
vertex 0.105029 -0.120636 0.027216
vertex 0.105002 -0.120668 0.023320
endloop
endfacet
facet normal -0.642190 -0.766237 -0.021741
outer loop
vertex 0.165506 -0.171464 0.026352
vertex 0.105002 -0.120668 0.023320
vertex 0.165559 -0.171401 0.022564
endloop
endfacet
facet normal -0.636480 -0.757590 -0.144741
outer loop
vertex 0.165559 -0.171401 0.022564
vertex 0.105002 -0.120668 0.023320
vertex 0.105364 -0.120236 0.019465
endloop
endfacet
facet normal -0.632750 -0.754887 -0.172551
outer loop
vertex 0.165559 -0.171401 0.022564
vertex 0.105364 -0.120236 0.019465
vertex 0.165979 -0.170900 0.018833
endloop
endfacet
facet normal -0.614248 -0.731202 -0.296721
outer loop
vertex 0.165979 -0.170900 0.018833
vertex 0.105364 -0.120236 0.019465
vertex 0.106107 -0.119351 0.015744
endloop
endfacet
facet normal -0.608780 -0.726207 -0.319390
outer loop
vertex 0.165979 -0.170900 0.018833
vertex 0.106107 -0.119351 0.015744
vertex 0.166757 -0.169973 0.015243
endloop
endfacet
facet normal -0.577103 -0.687049 -0.441492
outer loop
vertex 0.166757 -0.169973 0.015243
vertex 0.106107 -0.119351 0.015744
vertex 0.107213 -0.118033 0.012248
endloop
endfacet
facet normal -0.570825 -0.680854 -0.458908
outer loop
vertex 0.166757 -0.169973 0.015243
vertex 0.107213 -0.118033 0.012248
vertex 0.167875 -0.168641 0.011878
endloop
endfacet
facet normal -0.525948 -0.626209 -0.575535
outer loop
vertex 0.167875 -0.168641 0.011878
vertex 0.107213 -0.118033 0.012248
vertex 0.108654 -0.116315 0.009062
endloop
endfacet
facet normal -0.519764 -0.619874 -0.587879
outer loop
vertex 0.167875 -0.168641 0.011878
vertex 0.108654 -0.116315 0.009062
vertex 0.169306 -0.166935 0.008813
endloop
endfacet
facet normal -0.462017 -0.550153 -0.695609
outer loop
vertex 0.169306 -0.166935 0.008813
vertex 0.108654 -0.116315 0.009062
vertex 0.110396 -0.114239 0.006263
endloop
endfacet
facet normal -0.456769 -0.544661 -0.703354
outer loop
vertex 0.169306 -0.166935 0.008813
vertex 0.110396 -0.114239 0.006263
vertex 0.171019 -0.164894 0.006120
endloop
endfacet
facet normal -0.386866 -0.460735 -0.798786
outer loop
vertex 0.171019 -0.164894 0.006120
vertex 0.110396 -0.114239 0.006263
vertex 0.112397 -0.111855 0.003919
endloop
endfacet
facet normal -0.383290 -0.456945 -0.802677
outer loop
vertex 0.171019 -0.164894 0.006120
vertex 0.112397 -0.111855 0.003919
vertex 0.172973 -0.162565 0.003861
endloop
endfacet
facet normal 0.520203 0.619510 -0.587875
outer loop
vertex 0.195230 -0.136040 0.011878
vertex 0.193799 -0.137746 0.008813
vertex 0.133416 -0.086806 0.009062
endloop
endfacet
facet normal 0.461566 0.550530 -0.695610
outer loop
vertex 0.133416 -0.086806 0.009062
vertex 0.193799 -0.137746 0.008813
vertex 0.131674 -0.088882 0.006263
endloop
endfacet
facet normal 0.461792 0.550342 -0.695609
outer loop
vertex 0.133416 -0.086806 0.009062
vertex 0.131674 -0.088882 0.006263
vertex 0.071156 -0.038102 0.006263
endloop
endfacet
facet normal 0.386712 0.460866 -0.798785
outer loop
vertex 0.071156 -0.038102 0.006263
vertex 0.131674 -0.088882 0.006263
vertex 0.069156 -0.040486 0.003919
endloop
endfacet
facet normal 0.386712 0.460865 -0.798785
outer loop
vertex 0.071156 -0.038102 0.006263
vertex 0.069156 -0.040486 0.003919
vertex 0.008638 0.010295 0.003919
endloop
endfacet
facet normal 0.302238 0.360193 -0.882560
outer loop
vertex 0.008638 0.010295 0.003919
vertex 0.069156 -0.040486 0.003919
vertex -0.175125 0.160001 0.002087
endloop
endfacet
facet normal 0.457070 0.544410 -0.703352
outer loop
vertex 0.193799 -0.137746 0.008813
vertex 0.192086 -0.139787 0.006120
vertex 0.131674 -0.088882 0.006263
endloop
endfacet
facet normal 0.386557 0.460994 -0.798786
outer loop
vertex 0.131674 -0.088882 0.006263
vertex 0.192086 -0.139787 0.006120
vertex 0.129673 -0.091266 0.003919
endloop
endfacet
facet normal 0.386712 0.460866 -0.798784
outer loop
vertex 0.131674 -0.088882 0.006263
vertex 0.129673 -0.091266 0.003919
vertex 0.069156 -0.040486 0.003919
endloop
endfacet
facet normal 0.302243 0.360199 -0.882556
outer loop
vertex 0.069156 -0.040486 0.003919
vertex 0.129673 -0.091266 0.003919
vertex -0.175125 0.160001 0.002087
endloop
endfacet
facet normal 0.383443 0.456813 -0.802679
outer loop
vertex 0.192086 -0.139787 0.006120
vertex 0.190132 -0.142116 0.003861
vertex 0.129673 -0.091266 0.003919
endloop
endfacet
facet normal 0.307403 0.366491 -0.878173
outer loop
vertex 0.129673 -0.091266 0.003919
vertex 0.190132 -0.142116 0.003861
vertex -0.175125 0.160001 0.002087
endloop
endfacet
facet normal 0.301010 0.358729 -0.883576
outer loop
vertex 0.190132 -0.142116 0.003861
vertex 0.187980 -0.144680 0.002087
vertex -0.175125 0.160001 0.002087
endloop
endfacet
facet normal -0.520203 -0.619510 -0.587874
outer loop
vertex -0.195230 0.136040 0.011878
vertex -0.193799 0.137746 0.008813
vertex -0.133416 0.086806 0.009062
endloop
endfacet
facet normal -0.461566 -0.550530 -0.695610
outer loop
vertex -0.133416 0.086806 0.009062
vertex -0.193799 0.137746 0.008813
vertex -0.131674 0.088882 0.006263
endloop
endfacet
facet normal -0.461792 -0.550342 -0.695610
outer loop
vertex -0.133416 0.086806 0.009062
vertex -0.131674 0.088882 0.006263
vertex -0.071156 0.038102 0.006263
endloop
endfacet
facet normal -0.386713 -0.460866 -0.798784
outer loop
vertex -0.071156 0.038102 0.006263
vertex -0.131674 0.088882 0.006263
vertex -0.069156 0.040486 0.003919
endloop
endfacet
facet normal -0.386712 -0.460865 -0.798785
outer loop
vertex -0.071156 0.038102 0.006263
vertex -0.069156 0.040486 0.003919
vertex -0.008638 -0.010295 0.003919
endloop
endfacet
facet normal -0.302242 -0.360197 -0.882557
outer loop
vertex -0.008638 -0.010295 0.003919
vertex -0.069156 0.040486 0.003919
vertex 0.175125 -0.160001 0.002087
endloop
endfacet
facet normal -0.457070 -0.544410 -0.703352
outer loop
vertex -0.193799 0.137746 0.008813
vertex -0.192086 0.139787 0.006120
vertex -0.131674 0.088882 0.006263
endloop
endfacet
facet normal -0.386556 -0.460994 -0.798786
outer loop
vertex -0.131674 0.088882 0.006263
vertex -0.192086 0.139787 0.006120
vertex -0.129673 0.091266 0.003919
endloop
endfacet
facet normal -0.386710 -0.460864 -0.798786
outer loop
vertex -0.131674 0.088882 0.006263
vertex -0.129673 0.091266 0.003919
vertex -0.069156 0.040486 0.003919
endloop
endfacet
facet normal -0.302240 -0.360196 -0.882559
outer loop
vertex -0.069156 0.040486 0.003919
vertex -0.129673 0.091266 0.003919
vertex 0.175125 -0.160001 0.002087
endloop
endfacet
facet normal -0.383443 -0.456813 -0.802679
outer loop
vertex -0.192086 0.139787 0.006120
vertex -0.190132 0.142116 0.003861
vertex -0.129673 0.091266 0.003919
endloop
endfacet
facet normal -0.307404 -0.366493 -0.878172
outer loop
vertex -0.129673 0.091266 0.003919
vertex -0.190132 0.142116 0.003861
vertex 0.175125 -0.160001 0.002087
endloop
endfacet
facet normal -0.301010 -0.358729 -0.883576
outer loop
vertex -0.190132 0.142116 0.003861
vertex -0.187980 0.144680 0.002087
vertex 0.175125 -0.160001 0.002087
endloop
endfacet
facet normal -0.386713 -0.460866 -0.798784
outer loop
vertex 0.051879 -0.061075 0.003919
vertex 0.112397 -0.111855 0.003919
vertex 0.049879 -0.063459 0.006263
endloop
endfacet
facet normal -0.386711 -0.460864 -0.798786
outer loop
vertex 0.049879 -0.063459 0.006263
vertex 0.112397 -0.111855 0.003919
vertex 0.110396 -0.114239 0.006263
endloop
endfacet
facet normal -0.461791 -0.550341 -0.695610
outer loop
vertex 0.049879 -0.063459 0.006263
vertex 0.110396 -0.114239 0.006263
vertex 0.048137 -0.065535 0.009062
endloop
endfacet
facet normal -0.461792 -0.550342 -0.695609
outer loop
vertex 0.048137 -0.065535 0.009062
vertex 0.110396 -0.114239 0.006263
vertex 0.108654 -0.116315 0.009062
endloop
endfacet
facet normal -0.525654 -0.626450 -0.575541
outer loop
vertex 0.048137 -0.065535 0.009062
vertex 0.108654 -0.116315 0.009062
vertex 0.046695 -0.067253 0.012248
endloop
endfacet
facet normal -0.525654 -0.626450 -0.575542
outer loop
vertex 0.046695 -0.067253 0.012248
vertex 0.108654 -0.116315 0.009062
vertex 0.107213 -0.118033 0.012248
endloop
endfacet
facet normal -0.576752 -0.687346 -0.441489
outer loop
vertex 0.046695 -0.067253 0.012248
vertex 0.107213 -0.118033 0.012248
vertex 0.045590 -0.068570 0.015744
endloop
endfacet
facet normal -0.576751 -0.687344 -0.441493
outer loop
vertex 0.045590 -0.068570 0.015744
vertex 0.107213 -0.118033 0.012248
vertex 0.106107 -0.119351 0.015744
endloop
endfacet
facet normal -0.613840 -0.731545 -0.296719
outer loop
vertex 0.045590 -0.068570 0.015744
vertex 0.106107 -0.119351 0.015744
vertex 0.044847 -0.069456 0.019465
endloop
endfacet
facet normal -0.613840 -0.731546 -0.296718
outer loop
vertex 0.044847 -0.069456 0.019465
vertex 0.106107 -0.119351 0.015744
vertex 0.105364 -0.120236 0.019465
endloop
endfacet
facet normal -0.636018 -0.757978 -0.144744
outer loop
vertex 0.044847 -0.069456 0.019465
vertex 0.105364 -0.120236 0.019465
vertex 0.044484 -0.069888 0.023320
endloop
endfacet
facet normal -0.636019 -0.757978 -0.144738
outer loop
vertex 0.044484 -0.069888 0.023320
vertex 0.105364 -0.120236 0.019465
vertex 0.105002 -0.120668 0.023320
endloop
endfacet
facet normal -0.642750 -0.766000 0.010754
outer loop
vertex 0.044484 -0.069888 0.023320
vertex 0.105002 -0.120668 0.023320
vertex 0.044511 -0.069856 0.027216
endloop
endfacet
facet normal -0.642751 -0.766000 0.010752
outer loop
vertex 0.044511 -0.069856 0.027216
vertex 0.105002 -0.120668 0.023320
vertex 0.105029 -0.120636 0.027216
endloop
endfacet
facet normal -0.633871 -0.755418 0.165985
outer loop
vertex 0.044511 -0.069856 0.027216
vertex 0.105029 -0.120636 0.027216
vertex 0.044927 -0.069361 0.031058
endloop
endfacet
facet normal -0.633871 -0.755418 0.165986
outer loop
vertex 0.044927 -0.069361 0.031058
vertex 0.105029 -0.120636 0.027216
vertex 0.105444 -0.120141 0.031058
endloop
endfacet
facet normal -0.609597 -0.726489 0.317183
outer loop
vertex 0.044927 -0.069361 0.031058
vertex 0.105444 -0.120141 0.031058
vertex 0.045721 -0.068414 0.034753
endloop
endfacet
facet normal -0.609596 -0.726488 0.317187
outer loop
vertex 0.045721 -0.068414 0.034753
vertex 0.105444 -0.120141 0.031058
vertex 0.106239 -0.119194 0.034753
endloop
endfacet
facet normal -0.570515 -0.679914 0.460684
outer loop
vertex 0.045721 -0.068414 0.034753
vertex 0.106239 -0.119194 0.034753
vertex 0.046875 -0.067039 0.038211
endloop
endfacet
facet normal -0.570515 -0.679913 0.460685
outer loop
vertex 0.046875 -0.067039 0.038211
vertex 0.106239 -0.119194 0.034753
vertex 0.107392 -0.117819 0.038211
endloop
endfacet
facet normal -0.517577 -0.616826 0.592993
outer loop
vertex 0.046875 -0.067039 0.038211
vertex 0.107392 -0.117819 0.038211
vertex 0.048360 -0.065269 0.041348
endloop
endfacet
facet normal -0.517577 -0.616824 0.592995
outer loop
vertex 0.048360 -0.065269 0.041348
vertex 0.107392 -0.117819 0.038211
vertex 0.108877 -0.116049 0.041348
endloop
endfacet
facet normal -0.452072 -0.538757 0.710896
outer loop
vertex 0.048360 -0.065269 0.041348
vertex 0.108877 -0.116049 0.041348
vertex 0.050140 -0.063147 0.044088
endloop
endfacet
facet normal -0.452070 -0.538755 0.710898
outer loop
vertex 0.050140 -0.063147 0.044088
vertex 0.108877 -0.116049 0.041348
vertex 0.110658 -0.113927 0.044088
endloop
endfacet
facet normal -0.375581 -0.447600 0.811538
outer loop
vertex 0.050140 -0.063147 0.044088
vertex 0.110658 -0.113927 0.044088
vertex 0.052173 -0.060725 0.046365
endloop
endfacet
facet normal -0.375580 -0.447598 0.811539
outer loop
vertex 0.052173 -0.060725 0.046365
vertex 0.110658 -0.113927 0.044088
vertex 0.112690 -0.111505 0.046365
endloop
endfacet
facet normal -0.289969 -0.345573 0.892467
outer loop
vertex 0.052173 -0.060725 0.046365
vertex 0.112690 -0.111505 0.046365
vertex 0.054408 -0.058061 0.048123
endloop
endfacet
facet normal -0.289972 -0.345575 0.892466
outer loop
vertex 0.054408 -0.058061 0.048123
vertex 0.112690 -0.111505 0.046365
vertex 0.114925 -0.108842 0.048123
endloop
endfacet
facet normal -0.197316 -0.235153 0.951719
outer loop
vertex 0.054408 -0.058061 0.048123
vertex 0.114925 -0.108842 0.048123
vertex 0.056791 -0.055221 0.049319
endloop
endfacet
facet normal -0.197319 -0.235154 0.951718
outer loop
vertex 0.056791 -0.055221 0.049319
vertex 0.114925 -0.108842 0.048123
vertex 0.117309 -0.106001 0.049319
endloop
endfacet
facet normal -0.099870 -0.119021 0.987856
outer loop
vertex 0.056791 -0.055221 0.049319
vertex 0.117309 -0.106001 0.049319
vertex 0.059265 -0.052273 0.049924
endloop
endfacet
facet normal -0.099871 -0.119022 0.987856
outer loop
vertex 0.059265 -0.052273 0.049924
vertex 0.117309 -0.106001 0.049319
vertex 0.119783 -0.103053 0.049924
endloop
endfacet
facet normal 0.000002 0.000000 1.000000
outer loop
vertex 0.059265 -0.052273 0.049924
vertex 0.119783 -0.103053 0.049924
vertex 0.061770 -0.049288 0.049924
endloop
endfacet
facet normal -0.000001 0.000000 1.000000
outer loop
vertex 0.061770 -0.049288 0.049924
vertex 0.119783 -0.103053 0.049924
vertex 0.122287 -0.100068 0.049924
endloop
endfacet
facet normal 0.099872 0.119022 0.987856
outer loop
vertex 0.061770 -0.049288 0.049924
vertex 0.122287 -0.100068 0.049924
vertex 0.064244 -0.046340 0.049319
endloop
endfacet
facet normal 0.099871 0.119022 0.987856
outer loop
vertex 0.064244 -0.046340 0.049319
vertex 0.122287 -0.100068 0.049924
vertex 0.124761 -0.097120 0.049319
endloop
endfacet
facet normal 0.197318 0.235154 0.951719
outer loop
vertex 0.064244 -0.046340 0.049319
vertex 0.124761 -0.097120 0.049319
vertex 0.066627 -0.043499 0.048123
endloop
endfacet
facet normal 0.197317 0.235154 0.951719
outer loop
vertex 0.066627 -0.043499 0.048123
vertex 0.124761 -0.097120 0.049319
vertex 0.127145 -0.094279 0.048123
endloop
endfacet
facet normal 0.289970 0.345573 0.892466
outer loop
vertex 0.066627 -0.043499 0.048123
vertex 0.127145 -0.094279 0.048123
vertex 0.068862 -0.040835 0.046365
endloop
endfacet
facet normal 0.289972 0.345574 0.892466
outer loop
vertex 0.068862 -0.040835 0.046365
vertex 0.127145 -0.094279 0.048123
vertex 0.129380 -0.091616 0.046365
endloop
endfacet
facet normal 0.375582 0.447599 0.811538
outer loop
vertex 0.068862 -0.040835 0.046365
vertex 0.129380 -0.091616 0.046365
vertex 0.070895 -0.038413 0.044088
endloop
endfacet
facet normal 0.375580 0.447600 0.811538
outer loop
vertex 0.070895 -0.038413 0.044088
vertex 0.129380 -0.091616 0.046365
vertex 0.131412 -0.089193 0.044088
endloop
endfacet
facet normal 0.452068 0.538755 0.710899
outer loop
vertex 0.070895 -0.038413 0.044088
vertex 0.131412 -0.089193 0.044088
vertex 0.072675 -0.036291 0.041348
endloop
endfacet
facet normal 0.452069 0.538756 0.710898
outer loop
vertex 0.072675 -0.036291 0.041348
vertex 0.131412 -0.089193 0.044088
vertex 0.133193 -0.087072 0.041348
endloop
endfacet
facet normal 0.517578 0.616824 0.592993
outer loop
vertex 0.072675 -0.036291 0.041348
vertex 0.133193 -0.087072 0.041348
vertex 0.074160 -0.034522 0.038211
endloop
endfacet
facet normal 0.517578 0.616826 0.592991
outer loop
vertex 0.074160 -0.034522 0.038211
vertex 0.133193 -0.087072 0.041348
vertex 0.134678 -0.085302 0.038211
endloop
endfacet
facet normal 0.570515 0.679914 0.460684
outer loop
vertex 0.074160 -0.034522 0.038211
vertex 0.134678 -0.085302 0.038211
vertex 0.075314 -0.033147 0.034753
endloop
endfacet
facet normal 0.570515 0.679914 0.460684
outer loop
vertex 0.075314 -0.033147 0.034753
vertex 0.134678 -0.085302 0.038211
vertex 0.135831 -0.083927 0.034753
endloop
endfacet
facet normal 0.609596 0.726489 0.317186
outer loop
vertex 0.075314 -0.033147 0.034753
vertex 0.135831 -0.083927 0.034753
vertex 0.076108 -0.032200 0.031058
endloop
endfacet
facet normal 0.609596 0.726487 0.317188
outer loop
vertex 0.076108 -0.032200 0.031058
vertex 0.135831 -0.083927 0.034753
vertex 0.136626 -0.082980 0.031058
endloop
endfacet
facet normal 0.633871 0.755418 0.165987
outer loop
vertex 0.076108 -0.032200 0.031058
vertex 0.136626 -0.082980 0.031058
vertex 0.076524 -0.031704 0.027216
endloop
endfacet
facet normal 0.633871 0.755418 0.165985
outer loop
vertex 0.076524 -0.031704 0.027216
vertex 0.136626 -0.082980 0.031058
vertex 0.137041 -0.082485 0.027216
endloop
endfacet
facet normal 0.642750 0.766000 0.010752
outer loop
vertex 0.076524 -0.031704 0.027216
vertex 0.137041 -0.082485 0.027216
vertex 0.076551 -0.031672 0.023320
endloop
endfacet
facet normal 0.642751 0.766000 0.010753
outer loop
vertex 0.076551 -0.031672 0.023320
vertex 0.137041 -0.082485 0.027216
vertex 0.137068 -0.082453 0.023320
endloop
endfacet
facet normal 0.636019 0.757978 -0.144740
outer loop
vertex 0.076551 -0.031672 0.023320
vertex 0.137068 -0.082453 0.023320
vertex 0.076188 -0.032104 0.019465
endloop
endfacet
facet normal 0.636019 0.757977 -0.144741
outer loop
vertex 0.076188 -0.032104 0.019465
vertex 0.137068 -0.082453 0.023320
vertex 0.136706 -0.082885 0.019465
endloop
endfacet
facet normal 0.613839 0.731546 -0.296720
outer loop
vertex 0.076188 -0.032104 0.019465
vertex 0.136706 -0.082885 0.019465
vertex 0.075445 -0.032990 0.015744
endloop
endfacet
facet normal 0.613839 0.731545 -0.296721
outer loop
vertex 0.075445 -0.032990 0.015744
vertex 0.136706 -0.082885 0.019465
vertex 0.135963 -0.083770 0.015744
endloop
endfacet
facet normal 0.576752 0.687346 -0.441490
outer loop
vertex 0.075445 -0.032990 0.015744
vertex 0.135963 -0.083770 0.015744
vertex 0.074340 -0.034308 0.012248
endloop
endfacet
facet normal 0.576751 0.687345 -0.441492
outer loop
vertex 0.074340 -0.034308 0.012248
vertex 0.135963 -0.083770 0.015744
vertex 0.134857 -0.085088 0.012248
endloop
endfacet
facet normal 0.525655 0.626451 -0.575539
outer loop
vertex 0.074340 -0.034308 0.012248
vertex 0.134857 -0.085088 0.012248
vertex 0.072898 -0.036025 0.009062
endloop
endfacet
facet normal -0.386712 -0.460865 -0.798785
outer loop
vertex 0.051879 -0.061075 0.003919
vertex 0.049879 -0.063459 0.006263
vertex -0.010639 -0.012679 0.006263
endloop
endfacet
facet normal -0.461791 -0.550341 -0.695610
outer loop
vertex -0.010639 -0.012679 0.006263
vertex 0.049879 -0.063459 0.006263
vertex -0.012381 -0.014755 0.009062
endloop
endfacet
facet normal -0.461791 -0.550341 -0.695610
outer loop
vertex -0.010639 -0.012679 0.006263
vertex -0.012381 -0.014755 0.009062
vertex -0.072898 0.036025 0.009062
endloop
endfacet
facet normal -0.525655 -0.626451 -0.575540
outer loop
vertex -0.072898 0.036025 0.009062
vertex -0.012381 -0.014755 0.009062
vertex -0.074340 0.034308 0.012248
endloop
endfacet
facet normal -0.525655 -0.626451 -0.575539
outer loop
vertex -0.072898 0.036025 0.009062
vertex -0.074340 0.034308 0.012248
vertex -0.134857 0.085088 0.012248
endloop
endfacet
facet normal -0.576751 -0.687345 -0.441492
outer loop
vertex -0.134857 0.085088 0.012248
vertex -0.074340 0.034308 0.012248
vertex -0.135963 0.083770 0.015744
endloop
endfacet
facet normal -0.461792 -0.550342 -0.695609
outer loop
vertex -0.012381 -0.014755 0.009062
vertex 0.049879 -0.063459 0.006263
vertex 0.048137 -0.065535 0.009062
endloop
endfacet
facet normal -0.525654 -0.626450 -0.575541
outer loop
vertex -0.012381 -0.014755 0.009062
vertex 0.048137 -0.065535 0.009062
vertex -0.013822 -0.016473 0.012248
endloop
endfacet
facet normal -0.525655 -0.626451 -0.575540
outer loop
vertex -0.013822 -0.016473 0.012248
vertex 0.048137 -0.065535 0.009062
vertex 0.046695 -0.067253 0.012248
endloop
endfacet
facet normal -0.576751 -0.687345 -0.441491
outer loop
vertex -0.013822 -0.016473 0.012248
vertex 0.046695 -0.067253 0.012248
vertex -0.014928 -0.017790 0.015744
endloop
endfacet
facet normal -0.576751 -0.687345 -0.441491
outer loop
vertex -0.014928 -0.017790 0.015744
vertex 0.046695 -0.067253 0.012248
vertex 0.045590 -0.068570 0.015744
endloop
endfacet
facet normal -0.613839 -0.731546 -0.296720
outer loop
vertex -0.014928 -0.017790 0.015744
vertex 0.045590 -0.068570 0.015744
vertex -0.015671 -0.018676 0.019465
endloop
endfacet
facet normal -0.613840 -0.731545 -0.296719
outer loop
vertex -0.015671 -0.018676 0.019465
vertex 0.045590 -0.068570 0.015744
vertex 0.044847 -0.069456 0.019465
endloop
endfacet
facet normal -0.636019 -0.757978 -0.144741
outer loop
vertex -0.015671 -0.018676 0.019465
vertex 0.044847 -0.069456 0.019465
vertex -0.016033 -0.019108 0.023320
endloop
endfacet
facet normal -0.636019 -0.757978 -0.144741
outer loop
vertex -0.016033 -0.019108 0.023320
vertex 0.044847 -0.069456 0.019465
vertex 0.044484 -0.069888 0.023320
endloop
endfacet
facet normal -0.642751 -0.766000 0.010754
outer loop
vertex -0.016033 -0.019108 0.023320
vertex 0.044484 -0.069888 0.023320
vertex -0.016006 -0.019076 0.027216
endloop
endfacet
facet normal -0.642751 -0.766000 0.010751
outer loop
vertex -0.016006 -0.019076 0.027216
vertex 0.044484 -0.069888 0.023320
vertex 0.044511 -0.069856 0.027216
endloop
endfacet
facet normal -0.633871 -0.755418 0.165987
outer loop
vertex -0.016006 -0.019076 0.027216
vertex 0.044511 -0.069856 0.027216
vertex -0.015591 -0.018580 0.031058
endloop
endfacet
facet normal -0.633871 -0.755418 0.165987
outer loop
vertex -0.015591 -0.018580 0.031058
vertex 0.044511 -0.069856 0.027216
vertex 0.044927 -0.069361 0.031058
endloop
endfacet
facet normal -0.609597 -0.726488 0.317185
outer loop
vertex -0.015591 -0.018580 0.031058
vertex 0.044927 -0.069361 0.031058
vertex -0.014796 -0.017634 0.034753
endloop
endfacet
facet normal -0.609596 -0.726489 0.317187
outer loop
vertex -0.014796 -0.017634 0.034753
vertex 0.044927 -0.069361 0.031058
vertex 0.045721 -0.068414 0.034753
endloop
endfacet
facet normal -0.570515 -0.679914 0.460684
outer loop
vertex -0.014796 -0.017634 0.034753
vertex 0.045721 -0.068414 0.034753
vertex -0.013643 -0.016259 0.038211
endloop
endfacet
facet normal -0.570515 -0.679913 0.460686
outer loop
vertex -0.013643 -0.016259 0.038211
vertex 0.045721 -0.068414 0.034753
vertex 0.046875 -0.067039 0.038211
endloop
endfacet
facet normal -0.517577 -0.616826 0.592993
outer loop
vertex -0.013643 -0.016259 0.038211
vertex 0.046875 -0.067039 0.038211
vertex -0.012158 -0.014489 0.041348
endloop
endfacet
facet normal -0.517578 -0.616824 0.592993
outer loop
vertex -0.012158 -0.014489 0.041348
vertex 0.046875 -0.067039 0.038211
vertex 0.048360 -0.065269 0.041348
endloop
endfacet
facet normal -0.452070 -0.538755 0.710898
outer loop
vertex -0.012158 -0.014489 0.041348
vertex 0.048360 -0.065269 0.041348
vertex -0.010377 -0.012367 0.044088
endloop
endfacet
facet normal -0.452070 -0.538756 0.710897
outer loop
vertex -0.010377 -0.012367 0.044088
vertex 0.048360 -0.065269 0.041348
vertex 0.050140 -0.063147 0.044088
endloop
endfacet
facet normal -0.375580 -0.447599 0.811538
outer loop
vertex -0.010377 -0.012367 0.044088
vertex 0.050140 -0.063147 0.044088
vertex -0.008345 -0.009945 0.046365
endloop
endfacet
facet normal -0.375581 -0.447599 0.811538
outer loop
vertex -0.008345 -0.009945 0.046365
vertex 0.050140 -0.063147 0.044088
vertex 0.052173 -0.060725 0.046365
endloop
endfacet
facet normal -0.289971 -0.345573 0.892466
outer loop
vertex -0.008345 -0.009945 0.046365
vertex 0.052173 -0.060725 0.046365
vertex -0.006110 -0.007281 0.048123
endloop
endfacet
facet normal -0.289970 -0.345573 0.892466
outer loop
vertex -0.006110 -0.007281 0.048123
vertex 0.052173 -0.060725 0.046365
vertex 0.054408 -0.058061 0.048123
endloop
endfacet
facet normal -0.197317 -0.235154 0.951719
outer loop
vertex -0.006110 -0.007281 0.048123
vertex 0.054408 -0.058061 0.048123
vertex -0.003726 -0.004441 0.049319
endloop
endfacet
facet normal -0.197319 -0.235154 0.951719
outer loop
vertex -0.003726 -0.004441 0.049319
vertex 0.054408 -0.058061 0.048123
vertex 0.056791 -0.055221 0.049319
endloop
endfacet
facet normal -0.099870 -0.119022 0.987856
outer loop
vertex -0.003726 -0.004441 0.049319
vertex 0.056791 -0.055221 0.049319
vertex -0.001252 -0.001492 0.049924
endloop
endfacet
facet normal -0.099871 -0.119022 0.987856
outer loop
vertex -0.001252 -0.001492 0.049924
vertex 0.056791 -0.055221 0.049319
vertex 0.059265 -0.052273 0.049924
endloop
endfacet
facet normal 0.000002 0.000000 1.000000
outer loop
vertex -0.001252 -0.001492 0.049924
vertex 0.059265 -0.052273 0.049924
vertex 0.001252 0.001492 0.049924
endloop
endfacet
facet normal -0.000001 0.000000 1.000000
outer loop
vertex 0.001252 0.001492 0.049924
vertex 0.059265 -0.052273 0.049924
vertex 0.061770 -0.049288 0.049924
endloop
endfacet
facet normal 0.099872 0.119022 0.987856
outer loop
vertex 0.001252 0.001492 0.049924
vertex 0.061770 -0.049288 0.049924
vertex 0.003726 0.004441 0.049319
endloop
endfacet
facet normal 0.099871 0.119022 0.987856
outer loop
vertex 0.003726 0.004441 0.049319
vertex 0.061770 -0.049288 0.049924
vertex 0.064244 -0.046340 0.049319
endloop
endfacet
facet normal 0.197318 0.235154 0.951719
outer loop
vertex 0.003726 0.004441 0.049319
vertex 0.064244 -0.046340 0.049319
vertex 0.006110 0.007281 0.048123
endloop
endfacet
facet normal 0.197317 0.235154 0.951719
outer loop
vertex 0.006110 0.007281 0.048123
vertex 0.064244 -0.046340 0.049319
vertex 0.066627 -0.043499 0.048123
endloop
endfacet
facet normal 0.289969 0.345573 0.892467
outer loop
vertex 0.006110 0.007281 0.048123
vertex 0.066627 -0.043499 0.048123
vertex 0.008345 0.009945 0.046365
endloop
endfacet
facet normal 0.289971 0.345573 0.892466
outer loop
vertex 0.008345 0.009945 0.046365
vertex 0.066627 -0.043499 0.048123
vertex 0.068862 -0.040835 0.046365
endloop
endfacet
facet normal 0.375581 0.447600 0.811538
outer loop
vertex 0.008345 0.009945 0.046365
vertex 0.068862 -0.040835 0.046365
vertex 0.010377 0.012367 0.044088
endloop
endfacet
facet normal 0.375581 0.447600 0.811538
outer loop
vertex 0.010377 0.012367 0.044088
vertex 0.068862 -0.040835 0.046365
vertex 0.070895 -0.038413 0.044088
endloop
endfacet
facet normal 0.452069 0.538756 0.710898
outer loop
vertex 0.010377 0.012367 0.044088
vertex 0.070895 -0.038413 0.044088
vertex 0.012158 0.014489 0.041348
endloop
endfacet
facet normal 0.452069 0.538756 0.710898
outer loop
vertex 0.012158 0.014489 0.041348
vertex 0.070895 -0.038413 0.044088
vertex 0.072675 -0.036291 0.041348
endloop
endfacet
facet normal 0.517579 0.616825 0.592992
outer loop
vertex 0.012158 0.014489 0.041348
vertex 0.072675 -0.036291 0.041348
vertex 0.013643 0.016259 0.038211
endloop
endfacet
facet normal 0.517577 0.616825 0.592994
outer loop
vertex 0.013643 0.016259 0.038211
vertex 0.072675 -0.036291 0.041348
vertex 0.074160 -0.034522 0.038211
endloop
endfacet
facet normal 0.570516 0.679913 0.460684
outer loop
vertex 0.013643 0.016259 0.038211
vertex 0.074160 -0.034522 0.038211
vertex 0.014796 0.017634 0.034753
endloop
endfacet
facet normal 0.570514 0.679914 0.460685
outer loop
vertex 0.014796 0.017634 0.034753
vertex 0.074160 -0.034522 0.038211
vertex 0.075314 -0.033147 0.034753
endloop
endfacet
facet normal 0.609596 0.726489 0.317187
outer loop
vertex 0.014796 0.017634 0.034753
vertex 0.075314 -0.033147 0.034753
vertex 0.015591 0.018580 0.031058
endloop
endfacet
facet normal 0.609597 0.726488 0.317186
outer loop
vertex 0.015591 0.018580 0.031058
vertex 0.075314 -0.033147 0.034753
vertex 0.076108 -0.032200 0.031058
endloop
endfacet
facet normal 0.633871 0.755418 0.165986
outer loop
vertex 0.015591 0.018580 0.031058
vertex 0.076108 -0.032200 0.031058
vertex 0.016006 0.019076 0.027216
endloop
endfacet
facet normal 0.633871 0.755418 0.165987
outer loop
vertex 0.016006 0.019076 0.027216
vertex 0.076108 -0.032200 0.031058
vertex 0.076524 -0.031704 0.027216
endloop
endfacet
facet normal 0.642750 0.766000 0.010753
outer loop
vertex 0.016006 0.019076 0.027216
vertex 0.076524 -0.031704 0.027216
vertex 0.016033 0.019108 0.023320
endloop
endfacet
facet normal 0.642750 0.766000 0.010751
outer loop
vertex 0.016033 0.019108 0.023320
vertex 0.076524 -0.031704 0.027216
vertex 0.076551 -0.031672 0.023320
endloop
endfacet
facet normal 0.636019 0.757978 -0.144741
outer loop
vertex 0.016033 0.019108 0.023320
vertex 0.076551 -0.031672 0.023320
vertex 0.015671 0.018676 0.019465
endloop
endfacet
facet normal 0.636019 0.757977 -0.144741
outer loop
vertex 0.015671 0.018676 0.019465
vertex 0.076551 -0.031672 0.023320
vertex 0.076188 -0.032104 0.019465
endloop
endfacet
facet normal 0.613839 0.731546 -0.296719
outer loop
vertex 0.015671 0.018676 0.019465
vertex 0.076188 -0.032104 0.019465
vertex 0.014928 0.017790 0.015744
endloop
endfacet
facet normal 0.613840 0.731545 -0.296719
outer loop
vertex 0.014928 0.017790 0.015744
vertex 0.076188 -0.032104 0.019465
vertex 0.075445 -0.032990 0.015744
endloop
endfacet
facet normal 0.576752 0.687345 -0.441491
outer loop
vertex 0.014928 0.017790 0.015744
vertex 0.075445 -0.032990 0.015744
vertex 0.013822 0.016473 0.012248
endloop
endfacet
facet normal 0.576751 0.687345 -0.441492
outer loop
vertex 0.013822 0.016473 0.012248
vertex 0.075445 -0.032990 0.015744
vertex 0.074340 -0.034308 0.012248
endloop
endfacet
facet normal 0.525655 0.626451 -0.575540
outer loop
vertex 0.013822 0.016473 0.012248
vertex 0.074340 -0.034308 0.012248
vertex 0.012381 0.014755 0.009062
endloop
endfacet
facet normal 0.525655 0.626451 -0.575540
outer loop
vertex 0.012381 0.014755 0.009062
vertex 0.074340 -0.034308 0.012248
vertex 0.072898 -0.036025 0.009062
endloop
endfacet
facet normal 0.461791 0.550341 -0.695610
outer loop
vertex 0.012381 0.014755 0.009062
vertex 0.072898 -0.036025 0.009062
vertex 0.010639 0.012679 0.006263
endloop
endfacet
facet normal -0.525654 -0.626451 -0.575540
outer loop
vertex -0.012381 -0.014755 0.009062
vertex -0.013822 -0.016473 0.012248
vertex -0.074340 0.034308 0.012248
endloop
endfacet
facet normal -0.576751 -0.687345 -0.441492
outer loop
vertex -0.074340 0.034308 0.012248
vertex -0.013822 -0.016473 0.012248
vertex -0.075445 0.032990 0.015744
endloop
endfacet
facet normal -0.576752 -0.687346 -0.441490
outer loop
vertex -0.074340 0.034308 0.012248
vertex -0.075445 0.032990 0.015744
vertex -0.135963 0.083770 0.015744
endloop
endfacet
facet normal -0.613839 -0.731545 -0.296721
outer loop
vertex -0.135963 0.083770 0.015744
vertex -0.075445 0.032990 0.015744
vertex -0.136706 0.082885 0.019465
endloop
endfacet
facet normal -0.576751 -0.687345 -0.441491
outer loop
vertex -0.075445 0.032990 0.015744
vertex -0.013822 -0.016473 0.012248
vertex -0.014928 -0.017790 0.015744
endloop
endfacet
facet normal -0.613840 -0.731545 -0.296719
outer loop
vertex -0.075445 0.032990 0.015744
vertex -0.014928 -0.017790 0.015744
vertex -0.076188 0.032104 0.019465
endloop
endfacet
facet normal -0.613840 -0.731545 -0.296719
outer loop
vertex -0.076188 0.032104 0.019465
vertex -0.014928 -0.017790 0.015744
vertex -0.015671 -0.018676 0.019465
endloop
endfacet
facet normal -0.636019 -0.757978 -0.144741
outer loop
vertex -0.076188 0.032104 0.019465
vertex -0.015671 -0.018676 0.019465
vertex -0.076551 0.031672 0.023320
endloop
endfacet
facet normal -0.636019 -0.757978 -0.144741
outer loop
vertex -0.076551 0.031672 0.023320
vertex -0.015671 -0.018676 0.019465
vertex -0.016033 -0.019108 0.023320
endloop
endfacet
facet normal -0.642751 -0.766000 0.010752
outer loop
vertex -0.076551 0.031672 0.023320
vertex -0.016033 -0.019108 0.023320
vertex -0.076524 0.031705 0.027216
endloop
endfacet
facet normal -0.642751 -0.766000 0.010753
outer loop
vertex -0.076524 0.031705 0.027216
vertex -0.016033 -0.019108 0.023320
vertex -0.016006 -0.019076 0.027216
endloop
endfacet
facet normal -0.633871 -0.755418 0.165987
outer loop
vertex -0.076524 0.031705 0.027216
vertex -0.016006 -0.019076 0.027216
vertex -0.076108 0.032200 0.031058
endloop
endfacet
facet normal -0.633871 -0.755418 0.165986
outer loop
vertex -0.076108 0.032200 0.031058
vertex -0.016006 -0.019076 0.027216
vertex -0.015591 -0.018580 0.031058
endloop
endfacet
facet normal -0.609597 -0.726488 0.317186
outer loop
vertex -0.076108 0.032200 0.031058
vertex -0.015591 -0.018580 0.031058
vertex -0.075314 0.033147 0.034753
endloop
endfacet
facet normal -0.609596 -0.726489 0.317187
outer loop
vertex -0.075314 0.033147 0.034753
vertex -0.015591 -0.018580 0.031058
vertex -0.014796 -0.017634 0.034753
endloop
endfacet
facet normal -0.570514 -0.679914 0.460685
outer loop
vertex -0.075314 0.033147 0.034753
vertex -0.014796 -0.017634 0.034753
vertex -0.074160 0.034522 0.038211
endloop
endfacet
facet normal -0.570516 -0.679913 0.460684
outer loop
vertex -0.074160 0.034522 0.038211
vertex -0.014796 -0.017634 0.034753
vertex -0.013643 -0.016259 0.038211
endloop
endfacet
facet normal -0.517577 -0.616825 0.592994
outer loop
vertex -0.074160 0.034522 0.038211
vertex -0.013643 -0.016259 0.038211
vertex -0.072675 0.036291 0.041348
endloop
endfacet
facet normal -0.517578 -0.616825 0.592993
outer loop
vertex -0.072675 0.036291 0.041348
vertex -0.013643 -0.016259 0.038211
vertex -0.012158 -0.014489 0.041348
endloop
endfacet
facet normal -0.452069 -0.538756 0.710898
outer loop
vertex -0.072675 0.036291 0.041348
vertex -0.012158 -0.014489 0.041348
vertex -0.070895 0.038413 0.044088
endloop
endfacet
facet normal -0.452069 -0.538755 0.710898
outer loop
vertex -0.070895 0.038413 0.044088
vertex -0.012158 -0.014489 0.041348
vertex -0.010377 -0.012367 0.044088
endloop
endfacet
facet normal -0.375581 -0.447600 0.811538
outer loop
vertex -0.070895 0.038413 0.044088
vertex -0.010377 -0.012367 0.044088
vertex -0.068862 0.040835 0.046365
endloop
endfacet
facet normal -0.375581 -0.447600 0.811538
outer loop
vertex -0.068862 0.040835 0.046365
vertex -0.010377 -0.012367 0.044088
vertex -0.008345 -0.009945 0.046365
endloop
endfacet
facet normal -0.289971 -0.345573 0.892466
outer loop
vertex -0.068862 0.040835 0.046365
vertex -0.008345 -0.009945 0.046365
vertex -0.066627 0.043499 0.048123
endloop
endfacet
facet normal -0.289969 -0.345573 0.892467
outer loop
vertex -0.066627 0.043499 0.048123
vertex -0.008345 -0.009945 0.046365
vertex -0.006110 -0.007281 0.048123
endloop
endfacet
facet normal -0.197317 -0.235154 0.951719
outer loop
vertex -0.066627 0.043499 0.048123
vertex -0.006110 -0.007281 0.048123
vertex -0.064244 0.046340 0.049319
endloop
endfacet
facet normal -0.197319 -0.235154 0.951718
outer loop
vertex -0.064244 0.046340 0.049319
vertex -0.006110 -0.007281 0.048123
vertex -0.003726 -0.004441 0.049319
endloop
endfacet
facet normal -0.099870 -0.119022 0.987856
outer loop
vertex -0.064244 0.046340 0.049319
vertex -0.003726 -0.004441 0.049319
vertex -0.061770 0.049288 0.049924
endloop
endfacet
facet normal -0.099872 -0.119022 0.987856
outer loop
vertex -0.061770 0.049288 0.049924
vertex -0.003726 -0.004441 0.049319
vertex -0.001252 -0.001492 0.049924
endloop
endfacet
facet normal 0.000002 0.000000 1.000000
outer loop
vertex -0.061770 0.049288 0.049924
vertex -0.001252 -0.001492 0.049924
vertex -0.059265 0.052273 0.049924
endloop
endfacet
facet normal -0.000001 0.000000 1.000000
outer loop
vertex -0.059265 0.052273 0.049924
vertex -0.001252 -0.001492 0.049924
vertex 0.001252 0.001492 0.049924
endloop
endfacet
facet normal 0.099872 0.119022 0.987856
outer loop
vertex -0.059265 0.052273 0.049924
vertex 0.001252 0.001492 0.049924
vertex -0.056791 0.055221 0.049319
endloop
endfacet
facet normal 0.099871 0.119022 0.987856
outer loop
vertex -0.056791 0.055221 0.049319
vertex 0.001252 0.001492 0.049924
vertex 0.003726 0.004441 0.049319
endloop
endfacet
facet normal 0.197318 0.235154 0.951719
outer loop
vertex -0.056791 0.055221 0.049319
vertex 0.003726 0.004441 0.049319
vertex -0.054408 0.058061 0.048123
endloop
endfacet
facet normal 0.197317 0.235154 0.951719
outer loop
vertex -0.054408 0.058061 0.048123
vertex 0.003726 0.004441 0.049319
vertex 0.006110 0.007281 0.048123
endloop
endfacet
facet normal 0.289970 0.345573 0.892466
outer loop
vertex -0.054408 0.058061 0.048123
vertex 0.006110 0.007281 0.048123
vertex -0.052173 0.060725 0.046365
endloop
endfacet
facet normal 0.289971 0.345574 0.892466
outer loop
vertex -0.052173 0.060725 0.046365
vertex 0.006110 0.007281 0.048123
vertex 0.008345 0.009945 0.046365
endloop
endfacet
facet normal 0.375580 0.447599 0.811538
outer loop
vertex -0.052173 0.060725 0.046365
vertex 0.008345 0.009945 0.046365
vertex -0.050140 0.063147 0.044088
endloop
endfacet
facet normal 0.375581 0.447600 0.811538
outer loop
vertex -0.050140 0.063147 0.044088
vertex 0.008345 0.009945 0.046365
vertex 0.010377 0.012367 0.044088
endloop
endfacet
facet normal 0.452070 0.538755 0.710898
outer loop
vertex -0.050140 0.063147 0.044088
vertex 0.010377 0.012367 0.044088
vertex -0.048360 0.065269 0.041348
endloop
endfacet
facet normal 0.452070 0.538756 0.710897
outer loop
vertex -0.048360 0.065269 0.041348
vertex 0.010377 0.012367 0.044088
vertex 0.012158 0.014489 0.041348
endloop
endfacet
facet normal 0.517578 0.616824 0.592993
outer loop
vertex -0.048360 0.065269 0.041348
vertex 0.012158 0.014489 0.041348
vertex -0.046875 0.067039 0.038211
endloop
endfacet
facet normal 0.517576 0.616825 0.592994
outer loop
vertex -0.046875 0.067039 0.038211
vertex 0.012158 0.014489 0.041348
vertex 0.013643 0.016259 0.038211
endloop
endfacet
facet normal 0.570515 0.679913 0.460685
outer loop
vertex -0.046875 0.067039 0.038211
vertex 0.013643 0.016259 0.038211
vertex -0.045721 0.068414 0.034753
endloop
endfacet
facet normal 0.570515 0.679913 0.460685
outer loop
vertex -0.045721 0.068414 0.034753
vertex 0.013643 0.016259 0.038211
vertex 0.014796 0.017634 0.034753
endloop
endfacet
facet normal 0.609596 0.726489 0.317186
outer loop
vertex -0.045721 0.068414 0.034753
vertex 0.014796 0.017634 0.034753
vertex -0.044927 0.069361 0.031058
endloop
endfacet
facet normal 0.609597 0.726488 0.317186
outer loop
vertex -0.044927 0.069361 0.031058
vertex 0.014796 0.017634 0.034753
vertex 0.015591 0.018580 0.031058
endloop
endfacet
facet normal 0.633871 0.755418 0.165985
outer loop
vertex -0.044927 0.069361 0.031058
vertex 0.015591 0.018580 0.031058
vertex -0.044511 0.069856 0.027216
endloop
endfacet
facet normal 0.633871 0.755418 0.165987
outer loop
vertex -0.044511 0.069856 0.027216
vertex 0.015591 0.018580 0.031058
vertex 0.016006 0.019076 0.027216
endloop
endfacet
facet normal 0.642750 0.766000 0.010752
outer loop
vertex -0.044511 0.069856 0.027216
vertex 0.016006 0.019076 0.027216
vertex -0.044484 0.069888 0.023320
endloop
endfacet
facet normal 0.642751 0.766000 0.010752
outer loop
vertex -0.044484 0.069888 0.023320
vertex 0.016006 0.019076 0.027216
vertex 0.016033 0.019108 0.023320
endloop
endfacet
facet normal 0.636019 0.757978 -0.144740
outer loop
vertex -0.044484 0.069888 0.023320
vertex 0.016033 0.019108 0.023320
vertex -0.044847 0.069456 0.019465
endloop
endfacet
facet normal 0.636019 0.757977 -0.144741
outer loop
vertex -0.044847 0.069456 0.019465
vertex 0.016033 0.019108 0.023320
vertex 0.015671 0.018676 0.019465
endloop
endfacet
facet normal 0.613839 0.731545 -0.296721
outer loop
vertex -0.044847 0.069456 0.019465
vertex 0.015671 0.018676 0.019465
vertex -0.045590 0.068570 0.015744
endloop
endfacet
facet normal 0.613839 0.731545 -0.296720
outer loop
vertex -0.045590 0.068570 0.015744
vertex 0.015671 0.018676 0.019465
vertex 0.014928 0.017790 0.015744
endloop
endfacet
facet normal 0.576752 0.687346 -0.441490
outer loop
vertex -0.045590 0.068570 0.015744
vertex 0.014928 0.017790 0.015744
vertex -0.046695 0.067253 0.012248
endloop
endfacet
facet normal 0.576751 0.687345 -0.441491
outer loop
vertex -0.046695 0.067253 0.012248
vertex 0.014928 0.017790 0.015744
vertex 0.013822 0.016473 0.012248
endloop
endfacet
facet normal 0.525655 0.626451 -0.575540
outer loop
vertex -0.046695 0.067253 0.012248
vertex 0.013822 0.016473 0.012248
vertex -0.048137 0.065535 0.009062
endloop
endfacet
facet normal 0.525654 0.626450 -0.575542
outer loop
vertex -0.048137 0.065535 0.009062
vertex 0.013822 0.016473 0.012248
vertex 0.012381 0.014755 0.009062
endloop
endfacet
facet normal 0.461792 0.550343 -0.695608
outer loop
vertex -0.048137 0.065535 0.009062
vertex 0.012381 0.014755 0.009062
vertex -0.049879 0.063459 0.006263
endloop
endfacet
facet normal 0.461791 0.550341 -0.695610
outer loop
vertex -0.049879 0.063459 0.006263
vertex 0.012381 0.014755 0.009062
vertex 0.010639 0.012679 0.006263
endloop
endfacet
facet normal 0.386711 0.460864 -0.798786
outer loop
vertex -0.049879 0.063459 0.006263
vertex 0.010639 0.012679 0.006263
vertex -0.051879 0.061075 0.003919
endloop
endfacet
facet normal -0.636019 -0.757978 -0.144741
outer loop
vertex -0.137068 0.082453 0.023320
vertex -0.136706 0.082885 0.019465
vertex -0.076188 0.032104 0.019465
endloop
endfacet
facet normal -0.613839 -0.731545 -0.296719
outer loop
vertex -0.076188 0.032104 0.019465
vertex -0.136706 0.082885 0.019465
vertex -0.075445 0.032990 0.015744
endloop
endfacet
facet normal -0.636019 -0.757978 -0.144740
outer loop
vertex -0.137068 0.082453 0.023320
vertex -0.076188 0.032104 0.019465
vertex -0.076551 0.031672 0.023320
endloop
endfacet
facet normal -0.642750 -0.766000 0.010752
outer loop
vertex -0.137041 0.082485 0.027216
vertex -0.137068 0.082453 0.023320
vertex -0.076551 0.031672 0.023320
endloop
endfacet
facet normal -0.642751 -0.766000 0.010751
outer loop
vertex -0.137041 0.082485 0.027216
vertex -0.076551 0.031672 0.023320
vertex -0.076524 0.031705 0.027216
endloop
endfacet
facet normal -0.633871 -0.755418 0.165986
outer loop
vertex -0.136626 0.082980 0.031058
vertex -0.137041 0.082485 0.027216
vertex -0.076524 0.031705 0.027216
endloop
endfacet
facet normal -0.633871 -0.755418 0.165987
outer loop
vertex -0.136626 0.082980 0.031058
vertex -0.076524 0.031705 0.027216
vertex -0.076108 0.032200 0.031058
endloop
endfacet
facet normal -0.609596 -0.726488 0.317187
outer loop
vertex -0.135831 0.083927 0.034753
vertex -0.136626 0.082980 0.031058
vertex -0.076108 0.032200 0.031058
endloop
endfacet
facet normal -0.609596 -0.726489 0.317186
outer loop
vertex -0.135831 0.083927 0.034753
vertex -0.076108 0.032200 0.031058
vertex -0.075314 0.033147 0.034753
endloop
endfacet
facet normal -0.570515 -0.679913 0.460685
outer loop
vertex -0.134678 0.085302 0.038211
vertex -0.135831 0.083927 0.034753
vertex -0.075314 0.033147 0.034753
endloop
endfacet
facet normal -0.570515 -0.679914 0.460684
outer loop
vertex -0.134678 0.085302 0.038211
vertex -0.075314 0.033147 0.034753
vertex -0.074160 0.034522 0.038211
endloop
endfacet
facet normal -0.517577 -0.616826 0.592992
outer loop
vertex -0.133193 0.087072 0.041348
vertex -0.134678 0.085302 0.038211
vertex -0.074160 0.034522 0.038211
endloop
endfacet
facet normal -0.517578 -0.616824 0.592993
outer loop
vertex -0.133193 0.087072 0.041348
vertex -0.074160 0.034522 0.038211
vertex -0.072675 0.036291 0.041348
endloop
endfacet
facet normal -0.452069 -0.538756 0.710897
outer loop
vertex -0.131412 0.089193 0.044088
vertex -0.133193 0.087072 0.041348
vertex -0.072675 0.036291 0.041348
endloop
endfacet
facet normal -0.452068 -0.538754 0.710899
outer loop
vertex -0.131412 0.089193 0.044088
vertex -0.072675 0.036291 0.041348
vertex -0.070895 0.038413 0.044088
endloop
endfacet
facet normal -0.375581 -0.447600 0.811537
outer loop
vertex -0.129380 0.091616 0.046365
vertex -0.131412 0.089193 0.044088
vertex -0.070895 0.038413 0.044088
endloop
endfacet
facet normal -0.375582 -0.447600 0.811537
outer loop
vertex -0.129380 0.091616 0.046365
vertex -0.070895 0.038413 0.044088
vertex -0.068862 0.040835 0.046365
endloop
endfacet
facet normal -0.289970 -0.345573 0.892466
outer loop
vertex -0.127145 0.094279 0.048123
vertex -0.129380 0.091616 0.046365
vertex -0.068862 0.040835 0.046365
endloop
endfacet
facet normal -0.289970 -0.345573 0.892467
outer loop
vertex -0.127145 0.094279 0.048123
vertex -0.068862 0.040835 0.046365
vertex -0.066627 0.043499 0.048123
endloop
endfacet
facet normal -0.197317 -0.235154 0.951719
outer loop
vertex -0.124761 0.097120 0.049319
vertex -0.127145 0.094279 0.048123
vertex -0.066627 0.043499 0.048123
endloop
endfacet
facet normal -0.197318 -0.235153 0.951719
outer loop
vertex -0.124761 0.097120 0.049319
vertex -0.066627 0.043499 0.048123
vertex -0.064244 0.046340 0.049319
endloop
endfacet
facet normal -0.099870 -0.119022 0.987856
outer loop
vertex -0.122287 0.100068 0.049924
vertex -0.124761 0.097120 0.049319
vertex -0.064244 0.046340 0.049319
endloop
endfacet
facet normal -0.099871 -0.119022 0.987856
outer loop
vertex -0.122287 0.100068 0.049924
vertex -0.064244 0.046340 0.049319
vertex -0.061770 0.049288 0.049924
endloop
endfacet
facet normal 0.000002 0.000000 1.000000
outer loop
vertex -0.119783 0.103053 0.049924
vertex -0.122287 0.100068 0.049924
vertex -0.061770 0.049288 0.049924
endloop
endfacet
facet normal -0.000001 0.000000 1.000000
outer loop
vertex -0.119783 0.103053 0.049924
vertex -0.061770 0.049288 0.049924
vertex -0.059265 0.052273 0.049924
endloop
endfacet
facet normal 0.099872 0.119022 0.987856
outer loop
vertex -0.117309 0.106001 0.049319
vertex -0.119783 0.103053 0.049924
vertex -0.059265 0.052273 0.049924
endloop
endfacet
facet normal 0.099871 0.119021 0.987856
outer loop
vertex -0.117309 0.106001 0.049319
vertex -0.059265 0.052273 0.049924
vertex -0.056791 0.055221 0.049319
endloop
endfacet
facet normal 0.197318 0.235154 0.951719
outer loop
vertex -0.114925 0.108842 0.048123
vertex -0.117309 0.106001 0.049319
vertex -0.056791 0.055221 0.049319
endloop
endfacet
facet normal 0.197316 0.235153 0.951719
outer loop
vertex -0.114925 0.108842 0.048123
vertex -0.056791 0.055221 0.049319
vertex -0.054408 0.058061 0.048123
endloop
endfacet
facet normal 0.289971 0.345574 0.892466
outer loop
vertex -0.112690 0.111505 0.046365
vertex -0.114925 0.108842 0.048123
vertex -0.054408 0.058061 0.048123
endloop
endfacet
facet normal 0.289969 0.345573 0.892467
outer loop
vertex -0.112690 0.111505 0.046365
vertex -0.054408 0.058061 0.048123
vertex -0.052173 0.060725 0.046365
endloop
endfacet
facet normal 0.375581 0.447600 0.811538
outer loop
vertex -0.110658 0.113928 0.044088
vertex -0.112690 0.111505 0.046365
vertex -0.052173 0.060725 0.046365
endloop
endfacet
facet normal 0.375580 0.447599 0.811539
outer loop
vertex -0.110658 0.113928 0.044088
vertex -0.052173 0.060725 0.046365
vertex -0.050140 0.063147 0.044088
endloop
endfacet
facet normal 0.452071 0.538756 0.710897
outer loop
vertex -0.108877 0.116049 0.041348
vertex -0.110658 0.113928 0.044088
vertex -0.050140 0.063147 0.044088
endloop
endfacet
facet normal 0.452071 0.538757 0.710895
outer loop
vertex -0.108877 0.116049 0.041348
vertex -0.050140 0.063147 0.044088
vertex -0.048360 0.065269 0.041348
endloop
endfacet
facet normal 0.517578 0.616824 0.592994
outer loop
vertex -0.107392 0.117819 0.038211
vertex -0.108877 0.116049 0.041348
vertex -0.048360 0.065269 0.041348
endloop
endfacet
facet normal 0.517577 0.616825 0.592993
outer loop
vertex -0.107392 0.117819 0.038211
vertex -0.048360 0.065269 0.041348
vertex -0.046875 0.067039 0.038211
endloop
endfacet
facet normal 0.570516 0.679913 0.460683
outer loop
vertex -0.106239 0.119194 0.034753
vertex -0.107392 0.117819 0.038211
vertex -0.046875 0.067039 0.038211
endloop
endfacet
facet normal 0.570514 0.679913 0.460687
outer loop
vertex -0.106239 0.119194 0.034753
vertex -0.046875 0.067039 0.038211
vertex -0.045721 0.068414 0.034753
endloop
endfacet
facet normal 0.609596 0.726489 0.317183
outer loop
vertex -0.105444 0.120141 0.031058
vertex -0.106239 0.119194 0.034753
vertex -0.045721 0.068414 0.034753
endloop
endfacet
facet normal 0.609597 0.726488 0.317186
outer loop
vertex -0.105444 0.120141 0.031058
vertex -0.045721 0.068414 0.034753
vertex -0.044927 0.069361 0.031058
endloop
endfacet
facet normal 0.633871 0.755418 0.165985
outer loop
vertex -0.105029 0.120636 0.027216
vertex -0.105444 0.120141 0.031058
vertex -0.044927 0.069361 0.031058
endloop
endfacet
facet normal 0.633871 0.755418 0.165986
outer loop
vertex -0.105029 0.120636 0.027216
vertex -0.044927 0.069361 0.031058
vertex -0.044511 0.069856 0.027216
endloop
endfacet
facet normal 0.642751 0.766000 0.010754
outer loop
vertex -0.105002 0.120668 0.023320
vertex -0.105029 0.120636 0.027216
vertex -0.044511 0.069856 0.027216
endloop
endfacet
facet normal 0.642750 0.766000 0.010753
outer loop
vertex -0.105002 0.120668 0.023320
vertex -0.044511 0.069856 0.027216
vertex -0.044484 0.069888 0.023320
endloop
endfacet
facet normal 0.636019 0.757978 -0.144738
outer loop
vertex -0.105364 0.120236 0.019465
vertex -0.105002 0.120668 0.023320
vertex -0.044484 0.069888 0.023320
endloop
endfacet
facet normal 0.636019 0.757977 -0.144744
outer loop
vertex -0.105364 0.120236 0.019465
vertex -0.044484 0.069888 0.023320
vertex -0.044847 0.069456 0.019465
endloop
endfacet
facet normal 0.613839 0.731546 -0.296720
outer loop
vertex -0.106107 0.119351 0.015744
vertex -0.105364 0.120236 0.019465
vertex -0.044847 0.069456 0.019465
endloop
endfacet
facet normal 0.613840 0.731546 -0.296717
outer loop
vertex -0.106107 0.119351 0.015744
vertex -0.044847 0.069456 0.019465
vertex -0.045590 0.068570 0.015744
endloop
endfacet
facet normal 0.576751 0.687344 -0.441493
outer loop
vertex -0.107213 0.118033 0.012248
vertex -0.106107 0.119351 0.015744
vertex -0.045590 0.068570 0.015744
endloop
endfacet
facet normal 0.576752 0.687346 -0.441489
outer loop
vertex -0.107213 0.118033 0.012248
vertex -0.045590 0.068570 0.015744
vertex -0.046695 0.067253 0.012248
endloop
endfacet
facet normal 0.525654 0.626450 -0.575541
outer loop
vertex -0.108654 0.116315 0.009062
vertex -0.107213 0.118033 0.012248
vertex -0.046695 0.067253 0.012248
endloop
endfacet
facet normal 0.525655 0.626451 -0.575540
outer loop
vertex -0.108654 0.116315 0.009062
vertex -0.046695 0.067253 0.012248
vertex -0.048137 0.065535 0.009062
endloop
endfacet
facet normal 0.461792 0.550342 -0.695609
outer loop
vertex -0.110396 0.114239 0.006263
vertex -0.108654 0.116315 0.009062
vertex -0.048137 0.065535 0.009062
endloop
endfacet
facet normal 0.461791 0.550341 -0.695610
outer loop
vertex -0.110396 0.114239 0.006263
vertex -0.048137 0.065535 0.009062
vertex -0.049879 0.063459 0.006263
endloop
endfacet
facet normal 0.386711 0.460864 -0.798786
outer loop
vertex -0.112397 0.111855 0.003919
vertex -0.110396 0.114239 0.006263
vertex -0.049879 0.063459 0.006263
endloop
endfacet
facet normal 0.386713 0.460866 -0.798784
outer loop
vertex -0.112397 0.111855 0.003919
vertex -0.049879 0.063459 0.006263
vertex -0.051879 0.061075 0.003919
endloop
endfacet
facet normal -0.642788 -0.766044 0.000000
outer loop
vertex 0.175125 -0.160001 0.000000
vertex 0.175125 -0.160001 0.002087
vertex -0.187980 0.144680 0.000000
endloop
endfacet
facet normal -0.642788 -0.766044 0.000000
outer loop
vertex -0.187980 0.144680 0.000000
vertex 0.175125 -0.160001 0.002087
vertex -0.187980 0.144680 0.002087
endloop
endfacet
facet normal -0.766045 0.642787 0.000000
outer loop
vertex -0.187980 0.144680 0.000000
vertex -0.187980 0.144680 0.002087
vertex -0.175125 0.160001 0.000000
endloop
endfacet
facet normal -0.766045 0.642787 0.000000
outer loop
vertex -0.175125 0.160001 0.000000
vertex -0.187980 0.144680 0.002087
vertex -0.175125 0.160001 0.002087
endloop
endfacet
facet normal -0.766045 0.642787 0.000000
outer loop
vertex -0.175125 0.160001 0.002087
vertex -0.187980 0.144680 0.002087
vertex -0.172973 0.162565 0.003861
endloop
endfacet
facet normal -0.766044 0.642788 0.000000
outer loop
vertex -0.172973 0.162565 0.003861
vertex -0.187980 0.144680 0.002087
vertex -0.171019 0.164894 0.006120
endloop
endfacet
facet normal -0.766046 0.642786 -0.000008
outer loop
vertex -0.171019 0.164894 0.006120
vertex -0.187980 0.144680 0.002087
vertex -0.169306 0.166936 0.008813
endloop
endfacet
facet normal -0.766045 0.642787 0.000006
outer loop
vertex -0.169306 0.166936 0.008813
vertex -0.187980 0.144680 0.002087
vertex -0.167875 0.168641 0.011878
endloop
endfacet
facet normal -0.766044 0.642789 0.000005
outer loop
vertex -0.167875 0.168641 0.011878
vertex -0.187980 0.144680 0.002087
vertex -0.166757 0.169973 0.015243
endloop
endfacet
facet normal -0.766047 0.642785 0.000000
outer loop
vertex -0.166757 0.169973 0.015243
vertex -0.187980 0.144680 0.002087
vertex -0.165979 0.170900 0.018833
endloop
endfacet
facet normal -0.766045 0.642787 0.000000
outer loop
vertex -0.165979 0.170900 0.018833
vertex -0.187980 0.144680 0.002087
vertex -0.165559 0.171401 0.022564
endloop
endfacet
facet normal -0.766043 0.642789 -0.000004
outer loop
vertex -0.165559 0.171401 0.022564
vertex -0.187980 0.144680 0.002087
vertex -0.165506 0.171464 0.026352
endloop
endfacet
facet normal -0.766043 0.642790 0.000000
outer loop
vertex -0.165506 0.171464 0.026352
vertex -0.187980 0.144680 0.002087
vertex -0.165822 0.171088 0.030108
endloop
endfacet
facet normal -0.766046 0.642786 0.000003
outer loop
vertex -0.165822 0.171088 0.030108
vertex -0.187980 0.144680 0.002087
vertex -0.166498 0.170281 0.033747
endloop
endfacet
facet normal -0.766048 0.642783 -0.000006
outer loop
vertex -0.166498 0.170281 0.033747
vertex -0.187980 0.144680 0.002087
vertex -0.167521 0.169063 0.037185
endloop
endfacet
facet normal -0.766041 0.642791 0.000000
outer loop
vertex -0.167521 0.169063 0.037185
vertex -0.187980 0.144680 0.002087
vertex -0.168865 0.167461 0.040343
endloop
endfacet
facet normal -0.766051 0.642780 0.000003
outer loop
vertex -0.168865 0.167461 0.040343
vertex -0.187980 0.144680 0.002087
vertex -0.170501 0.165511 0.043149
endloop
endfacet
facet normal -0.766042 0.642791 -0.000003
outer loop
vertex -0.170501 0.165511 0.043149
vertex -0.187980 0.144680 0.002087
vertex -0.172390 0.163260 0.045539
endloop
endfacet
facet normal -0.766048 0.642783 0.000000
outer loop
vertex -0.172390 0.163260 0.045539
vertex -0.187980 0.144680 0.002087
vertex -0.174490 0.160757 0.047456
endloop
endfacet
facet normal -0.766041 0.642792 0.000000
outer loop
vertex -0.174490 0.160757 0.047456
vertex -0.187980 0.144680 0.002087
vertex -0.176752 0.158061 0.048859
endloop
endfacet
facet normal -0.766044 0.642788 -0.000002
outer loop
vertex -0.176752 0.158061 0.048859
vertex -0.187980 0.144680 0.002087
vertex -0.190132 0.142116 0.003861
endloop
endfacet
facet normal -0.766042 0.642790 0.000001
outer loop
vertex -0.176752 0.158061 0.048859
vertex -0.190132 0.142116 0.003861
vertex -0.192086 0.139787 0.006120
endloop
endfacet
facet normal -0.766047 0.642784 0.000000
outer loop
vertex -0.192086 0.139787 0.006120
vertex -0.193799 0.137746 0.008813
vertex -0.176752 0.158061 0.048859
endloop
endfacet
facet normal -0.766045 0.642787 -0.000001
outer loop
vertex -0.176752 0.158061 0.048859
vertex -0.193799 0.137746 0.008813
vertex -0.195230 0.136040 0.011878
endloop
endfacet
facet normal -0.766041 0.642791 -0.000002
outer loop
vertex -0.176752 0.158061 0.048859
vertex -0.195230 0.136040 0.011878
vertex -0.196348 0.134708 0.015243
endloop
endfacet
facet normal -0.766043 0.642789 0.000003
outer loop
vertex -0.196348 0.134708 0.015243
vertex -0.197126 0.133781 0.018833
vertex -0.176752 0.158061 0.048859
endloop
endfacet
facet normal -0.766044 0.642788 0.000002
outer loop
vertex -0.176752 0.158061 0.048859
vertex -0.197126 0.133781 0.018833
vertex -0.197546 0.133281 0.022564
endloop
endfacet
facet normal -0.766044 0.642788 -0.000003
outer loop
vertex -0.176752 0.158061 0.048859
vertex -0.197546 0.133281 0.022564
vertex -0.197599 0.133218 0.026352
endloop
endfacet
facet normal -0.766044 0.642788 0.000000
outer loop
vertex -0.197599 0.133218 0.026352
vertex -0.197283 0.133594 0.030108
vertex -0.176752 0.158061 0.048859
endloop
endfacet
facet normal -0.766041 0.642791 0.000000
outer loop
vertex -0.176752 0.158061 0.048859
vertex -0.197283 0.133594 0.030108
vertex -0.179125 0.155234 0.049713
endloop
endfacet
facet normal -0.766044 0.642788 -0.000001
outer loop
vertex -0.179125 0.155234 0.049713
vertex -0.197283 0.133594 0.030108
vertex -0.196607 0.134400 0.033747
endloop
endfacet
facet normal -0.766048 0.642783 0.000006
outer loop
vertex -0.179125 0.155234 0.049713
vertex -0.196607 0.134400 0.033747
vertex -0.195584 0.135618 0.037185
endloop
endfacet
facet normal -0.766044 0.642788 0.000000
outer loop
vertex -0.195584 0.135618 0.037185
vertex -0.194240 0.137221 0.040343
vertex -0.179125 0.155234 0.049713
endloop
endfacet
facet normal -0.766040 0.642793 -0.000008
outer loop
vertex -0.179125 0.155234 0.049713
vertex -0.194240 0.137221 0.040343
vertex -0.192604 0.139170 0.043149
endloop
endfacet
facet normal -0.766050 0.642782 -0.000006
outer loop
vertex -0.179125 0.155234 0.049713
vertex -0.192604 0.139170 0.043149
vertex -0.190715 0.141422 0.045539
endloop
endfacet
facet normal -0.766044 0.642788 0.000011
outer loop
vertex -0.190715 0.141422 0.045539
vertex -0.188615 0.143924 0.047456
vertex -0.179125 0.155234 0.049713
endloop
endfacet
facet normal -0.766044 0.642788 -0.000018
outer loop
vertex -0.179125 0.155234 0.049713
vertex -0.188615 0.143924 0.047456
vertex -0.186353 0.146620 0.048859
endloop
endfacet
facet normal -0.766045 0.642787 0.000027
outer loop
vertex -0.179125 0.155234 0.049713
vertex -0.186353 0.146620 0.048859
vertex -0.183981 0.149447 0.049713
endloop
endfacet
facet normal -0.766041 0.642792 -0.000027
outer loop
vertex -0.183981 0.149447 0.049713
vertex -0.181553 0.152341 0.050000
vertex -0.179125 0.155234 0.049713
endloop
endfacet
facet normal 0.766045 -0.642787 0.000000
outer loop
vertex 0.175125 -0.160001 0.000000
vertex 0.187980 -0.144680 0.000000
vertex 0.175125 -0.160001 0.002087
endloop
endfacet
facet normal 0.766045 -0.642787 0.000000
outer loop
vertex 0.175125 -0.160001 0.002087
vertex 0.187980 -0.144680 0.000000
vertex 0.187980 -0.144680 0.002087
endloop
endfacet
facet normal 0.766045 -0.642787 -0.000002
outer loop
vertex 0.175125 -0.160001 0.002087
vertex 0.187980 -0.144680 0.002087
vertex 0.190132 -0.142116 0.003861
endloop
endfacet
facet normal 0.766044 -0.642788 -0.000010
outer loop
vertex 0.190132 -0.142116 0.003861
vertex 0.192086 -0.139787 0.006120
vertex 0.175125 -0.160001 0.002087
endloop
endfacet
facet normal 0.766046 -0.642786 0.000012
outer loop
vertex 0.175125 -0.160001 0.002087
vertex 0.192086 -0.139787 0.006120
vertex 0.193799 -0.137746 0.008813
endloop
endfacet
facet normal 0.766046 -0.642786 -0.000002
outer loop
vertex 0.175125 -0.160001 0.002087
vertex 0.193799 -0.137746 0.008813
vertex 0.195230 -0.136040 0.011878
endloop
endfacet
facet normal 0.766044 -0.642789 -0.000005
outer loop
vertex 0.195230 -0.136040 0.011878
vertex 0.196348 -0.134708 0.015243
vertex 0.175125 -0.160001 0.002087
endloop
endfacet
facet normal 0.766046 -0.642785 -0.000001
outer loop
vertex 0.175125 -0.160001 0.002087
vertex 0.196348 -0.134708 0.015243
vertex 0.197126 -0.133781 0.018833
endloop
endfacet
facet normal 0.766044 -0.642789 -0.000001
outer loop
vertex 0.175125 -0.160001 0.002087
vertex 0.197126 -0.133781 0.018833
vertex 0.197546 -0.133281 0.022564
endloop
endfacet
facet normal 0.766040 -0.642793 0.000000
outer loop
vertex 0.197546 -0.133281 0.022564
vertex 0.197599 -0.133218 0.026352
vertex 0.175125 -0.160001 0.002087
endloop
endfacet
facet normal 0.766046 -0.642786 -0.000000
outer loop
vertex 0.175125 -0.160001 0.002087
vertex 0.197599 -0.133218 0.026352
vertex 0.197283 -0.133594 0.030108
endloop
endfacet
facet normal 0.766043 -0.642789 -0.000003
outer loop
vertex 0.175125 -0.160001 0.002087
vertex 0.197283 -0.133594 0.030108
vertex 0.196607 -0.134400 0.033747
endloop
endfacet
facet normal 0.766042 -0.642790 0.000006
outer loop
vertex 0.196607 -0.134400 0.033747
vertex 0.195584 -0.135618 0.037185
vertex 0.175125 -0.160001 0.002087
endloop
endfacet
facet normal 0.766049 -0.642782 0.000000
outer loop
vertex 0.175125 -0.160001 0.002087
vertex 0.195584 -0.135618 0.037185
vertex 0.194240 -0.137220 0.040343
endloop
endfacet
facet normal 0.766042 -0.642790 -0.000004
outer loop
vertex 0.175125 -0.160001 0.002087
vertex 0.194240 -0.137220 0.040343
vertex 0.192604 -0.139170 0.043149
endloop
endfacet
facet normal 0.766042 -0.642791 0.000003
outer loop
vertex 0.192604 -0.139170 0.043149
vertex 0.190715 -0.141422 0.045539
vertex 0.175125 -0.160001 0.002087
endloop
endfacet
facet normal 0.766043 -0.642789 -0.000001
outer loop
vertex 0.175125 -0.160001 0.002087
vertex 0.190715 -0.141422 0.045539
vertex 0.188615 -0.143924 0.047456
endloop
endfacet
facet normal 0.766048 -0.642783 -0.000000
outer loop
vertex 0.175125 -0.160001 0.002087
vertex 0.188615 -0.143924 0.047456
vertex 0.186353 -0.146620 0.048859
endloop
endfacet
facet normal 0.766041 -0.642792 0.000005
outer loop
vertex 0.183981 -0.149447 0.049713
vertex 0.165822 -0.171088 0.030108
vertex 0.186353 -0.146620 0.048859
endloop
endfacet
facet normal 0.766048 -0.642784 -0.000005
outer loop
vertex 0.186353 -0.146620 0.048859
vertex 0.165822 -0.171088 0.030108
vertex 0.165506 -0.171464 0.026352
endloop
endfacet
facet normal 0.766041 -0.642791 0.000005
outer loop
vertex 0.186353 -0.146620 0.048859
vertex 0.165506 -0.171464 0.026352
vertex 0.165559 -0.171401 0.022564
endloop
endfacet
facet normal 0.766041 -0.642792 0.000054
outer loop
vertex 0.181553 -0.152341 0.050000
vertex 0.179125 -0.155234 0.049713
vertex 0.183981 -0.149447 0.049713
endloop
endfacet
facet normal 0.766043 -0.642789 -0.000027
outer loop
vertex 0.183981 -0.149447 0.049713
vertex 0.179125 -0.155234 0.049713
vertex 0.176752 -0.158061 0.048859
endloop
endfacet
facet normal 0.766042 -0.642791 0.000023
outer loop
vertex 0.183981 -0.149447 0.049713
vertex 0.176752 -0.158061 0.048859
vertex 0.174490 -0.160757 0.047456
endloop
endfacet
facet normal 0.766046 -0.642786 -0.000011
outer loop
vertex 0.174490 -0.160757 0.047456
vertex 0.172390 -0.163260 0.045539
vertex 0.183981 -0.149447 0.049713
endloop
endfacet
facet normal 0.766047 -0.642785 0.000004
outer loop
vertex 0.183981 -0.149447 0.049713
vertex 0.172390 -0.163260 0.045539
vertex 0.170501 -0.165511 0.043149
endloop
endfacet
facet normal 0.766041 -0.642792 0.000004
outer loop
vertex 0.183981 -0.149447 0.049713
vertex 0.170501 -0.165511 0.043149
vertex 0.168865 -0.167461 0.040343
endloop
endfacet
facet normal 0.766044 -0.642788 0.000000
outer loop
vertex 0.168865 -0.167461 0.040343
vertex 0.167521 -0.169063 0.037185
vertex 0.183981 -0.149447 0.049713
endloop
endfacet
facet normal 0.766047 -0.642784 -0.000003
outer loop
vertex 0.183981 -0.149447 0.049713
vertex 0.167521 -0.169063 0.037185
vertex 0.166498 -0.170281 0.033747
endloop
endfacet
facet normal 0.766046 -0.642786 0.000003
outer loop
vertex 0.183981 -0.149447 0.049713
vertex 0.166498 -0.170281 0.033747
vertex 0.165822 -0.171088 0.030108
endloop
endfacet
facet normal 0.766047 -0.642784 -0.000003
outer loop
vertex 0.165559 -0.171401 0.022564
vertex 0.165979 -0.170900 0.018833
vertex 0.186353 -0.146620 0.048859
endloop
endfacet
facet normal 0.766049 -0.642782 -0.000003
outer loop
vertex 0.186353 -0.146620 0.048859
vertex 0.165979 -0.170900 0.018833
vertex 0.166757 -0.169973 0.015243
endloop
endfacet
facet normal 0.766041 -0.642792 0.000002
outer loop
vertex 0.186353 -0.146620 0.048859
vertex 0.166757 -0.169973 0.015243
vertex 0.167875 -0.168641 0.011878
endloop
endfacet
facet normal 0.766044 -0.642788 0.000000
outer loop
vertex 0.167875 -0.168641 0.011878
vertex 0.169306 -0.166935 0.008813
vertex 0.186353 -0.146620 0.048859
endloop
endfacet
facet normal 0.766043 -0.642790 0.000002
outer loop
vertex 0.186353 -0.146620 0.048859
vertex 0.169306 -0.166935 0.008813
vertex 0.171019 -0.164894 0.006120
endloop
endfacet
facet normal 0.766044 -0.642788 -0.000003
outer loop
vertex 0.186353 -0.146620 0.048859
vertex 0.171019 -0.164894 0.006120
vertex 0.172973 -0.162565 0.003861
endloop
endfacet
facet normal 0.766042 -0.642791 0.000002
outer loop
vertex 0.172973 -0.162565 0.003861
vertex 0.175125 -0.160001 0.002087
vertex 0.186353 -0.146620 0.048859
endloop
endfacet
solid cylinder
