solid bottom
facet normal 0.000000 0.000000 -1.000000
outer loop
vertex -2.000000 0.3950000 0.000000
vertex 4.000000 0.3950000 0.000000
vertex 4.000000 -0.3950000 0.000000
endloop
endfacet
facet normal 0.000000 0.000000 -1.000000
outer loop
vertex -2.000000 0.3950000 0.000000
vertex 4.000000 -0.3950000 0.000000
vertex -2.000000 -0.3950000 0.000000
endloop
endfacet
endsolid bottom
solid frontAndBack
facet normal 0.000000 1.000000 0.000000
outer loop
vertex -2.000000 0.395000 0.000000
vertex -2.000000 0.395000 0.045000
vertex 4.000000 0.395000 0.045000
endloop
endfacet
facet normal 0.000000 1.000000 0.000000
outer loop
vertex -2.000000 0.395000 0.000000
vertex 4.000000 0.395000 0.045000
vertex 4.000000 0.395000 0.000000
endloop
endfacet
facet normal 0.000000 -1.000000 0.000000
outer loop
vertex 4.000000 -0.395000 0.000000
vertex 4.000000 -0.395000 0.045000
vertex -2.000000 -0.395000 0.045000
endloop
endfacet
facet normal 0.000000 -1.000000 0.000000
outer loop
vertex 4.000000 -0.395000 0.000000
vertex -2.000000 -0.395000 0.045000
vertex -2.000000 -0.395000 0.000000
endloop
endfacet
endsolid frontAndBack
solid outlet
facet normal 1.000000 0.000000 0.000000
outer loop
vertex 4.000000 0.395000 0.000000
vertex 4.000000 0.395000 0.045000
vertex 4.000000 -0.395000 0.045000
endloop
endfacet
facet normal 1.000000 0.000000 0.000000
outer loop
vertex 4.000000 0.395000 0.000000
vertex 4.000000 -0.395000 0.045000
vertex 4.000000 -0.395000 0.000000
endloop
endfacet
endsolid outlet
solid inlet
facet normal -1.000000 0.000000 0.000000
outer loop
vertex -2.000000 -0.395000 0.000000
vertex -2.000000 -0.395000 0.045000
vertex -2.000000 0.395000 0.045000
endloop
endfacet
facet normal -1.000000 0.000000 0.000000
outer loop
vertex -2.000000 -0.395000 0.000000
vertex -2.000000 0.395000 0.045000
vertex -2.000000 0.395000 0.000000
endloop
endfacet
endsolid inlet
solid top
facet normal 0.000000 0.000000 1.000000
outer loop
vertex 4.000000 0.395000 0.045000
vertex -2.000000 0.395000 0.045000
vertex -2.000000 -0.395000 0.045000
endloop
endfacet
facet normal 0.000000 0.000000 1.000000
outer loop
vertex 4.000000 0.395000 0.045000
vertex -2.000000 -0.395000 0.045000
vertex 4.000000 -0.395000 0.045000
endloop
endfacet
endsolid top
solid cylinder
facet normal 0.000000 0.000000 -1.000000
outer loop
vertex 0.237000 0.010000 0.000000
vertex 0.237000 -0.010000 0.000000
vertex -0.237000 0.010000 0.000000
endloop
endfacet
facet normal 0.000000 0.000000 -1.000000
outer loop
vertex -0.237000 0.010000 0.000000
vertex 0.237000 -0.010000 0.000000
vertex -0.237000 -0.010000 0.000000
endloop
endfacet
facet normal -0.000000 1.000000 0.000000
outer loop
vertex 0.237000 0.010000 0.002087
vertex 0.237000 0.010000 0.000000
vertex -0.237000 0.010000 0.002087
endloop
endfacet
facet normal -0.000000 1.000000 0.000000
outer loop
vertex -0.237000 0.010000 0.002087
vertex 0.237000 0.010000 0.000000
vertex -0.237000 0.010000 0.000000
endloop
endfacet
facet normal -0.000107 -0.468288 -0.883576
outer loop
vertex 0.237000 -0.013347 0.003861
vertex 0.158000 -0.013439 0.003919
vertex 0.237000 -0.010000 0.002087
endloop
endfacet
facet normal 0.000000 -0.470202 -0.882559
outer loop
vertex 0.237000 -0.010000 0.002087
vertex 0.158000 -0.013439 0.003919
vertex 0.079000 -0.013439 0.003919
endloop
endfacet
facet normal 0.000000 -0.470201 -0.882559
outer loop
vertex 0.237000 -0.010000 0.002087
vertex 0.079000 -0.013439 0.003919
vertex 0.000000 -0.013439 0.003919
endloop
endfacet
facet normal 0.000000 -0.601617 -0.798785
outer loop
vertex 0.000000 -0.013439 0.003919
vertex 0.079000 -0.013439 0.003919
vertex 0.000000 -0.016551 0.006263
endloop
endfacet
facet normal 0.000000 -0.601617 -0.798785
outer loop
vertex 0.000000 -0.013439 0.003919
vertex 0.000000 -0.016551 0.006263
vertex -0.079000 -0.016551 0.006263
endloop
endfacet
facet normal 0.000000 -0.718420 -0.695610
outer loop
vertex -0.079000 -0.016551 0.006263
vertex 0.000000 -0.016551 0.006263
vertex -0.079000 -0.019261 0.009062
endloop
endfacet
facet normal 0.000000 -0.718420 -0.695610
outer loop
vertex -0.079000 -0.016551 0.006263
vertex -0.079000 -0.019261 0.009062
vertex -0.158000 -0.019261 0.009062
endloop
endfacet
facet normal 0.000000 -0.817774 -0.575540
outer loop
vertex -0.158000 -0.019261 0.009062
vertex -0.079000 -0.019261 0.009062
vertex -0.158000 -0.021503 0.012248
endloop
endfacet
facet normal 0.000380 -0.817773 -0.575540
outer loop
vertex -0.158000 -0.019261 0.009062
vertex -0.158000 -0.021503 0.012248
vertex -0.237000 -0.021279 0.011878
endloop
endfacet
facet normal -0.000368 -0.888486 -0.458903
outer loop
vertex -0.237000 -0.021279 0.011878
vertex -0.158000 -0.021503 0.012248
vertex -0.237000 -0.023018 0.015243
endloop
endfacet
facet normal 0.000460 -0.897266 -0.441491
outer loop
vertex -0.237000 -0.023018 0.015243
vertex -0.158000 -0.021503 0.012248
vertex -0.158000 -0.023223 0.015744
endloop
endfacet
facet normal -0.000445 -0.947622 -0.319393
outer loop
vertex -0.237000 -0.023018 0.015243
vertex -0.158000 -0.023223 0.015744
vertex -0.237000 -0.024227 0.018833
endloop
endfacet
facet normal 0.000535 -0.954965 -0.296719
outer loop
vertex -0.237000 -0.024227 0.018833
vertex -0.158000 -0.023223 0.015744
vertex -0.158000 -0.024380 0.019465
endloop
endfacet
facet normal -0.000517 -0.985000 -0.172551
outer loop
vertex -0.237000 -0.024227 0.018833
vertex -0.158000 -0.024380 0.019465
vertex -0.237000 -0.024881 0.022564
endloop
endfacet
facet normal 0.000603 -0.989469 -0.144741
outer loop
vertex -0.237000 -0.024881 0.022564
vertex -0.158000 -0.024380 0.019465
vertex -0.158000 -0.024943 0.023320
endloop
endfacet
facet normal -0.000582 -0.999763 -0.021747
outer loop
vertex -0.237000 -0.024881 0.022564
vertex -0.158000 -0.024943 0.023320
vertex -0.237000 -0.024963 0.026352
endloop
endfacet
facet normal 0.000665 -0.999942 0.010754
outer loop
vertex -0.237000 -0.024963 0.026352
vertex -0.158000 -0.024943 0.023320
vertex -0.158000 -0.024902 0.027216
endloop
endfacet
facet normal -0.000641 -0.991572 0.129557
outer loop
vertex -0.237000 -0.024963 0.026352
vertex -0.158000 -0.024902 0.027216
vertex -0.237000 -0.024473 0.030108
endloop
endfacet
facet normal 0.000722 -0.986128 0.165985
outer loop
vertex -0.237000 -0.024473 0.030108
vertex -0.158000 -0.024902 0.027216
vertex -0.158000 -0.024255 0.031058
endloop
endfacet
facet normal -0.000695 -0.960613 0.277888
outer loop
vertex -0.237000 -0.024473 0.030108
vertex -0.158000 -0.024255 0.031058
vertex -0.237000 -0.023420 0.033747
endloop
endfacet
facet normal 0.000772 -0.948363 0.317187
outer loop
vertex -0.237000 -0.023420 0.033747
vertex -0.158000 -0.024255 0.031058
vertex -0.158000 -0.023019 0.034753
endloop
endfacet
facet normal -0.000742 -0.907600 0.419836
outer loop
vertex -0.237000 -0.023420 0.033747
vertex -0.158000 -0.023019 0.034753
vertex -0.237000 -0.021830 0.037185
endloop
endfacet
facet normal 0.000817 -0.887564 0.460684
outer loop
vertex -0.237000 -0.021830 0.037185
vertex -0.158000 -0.023019 0.034753
vertex -0.158000 -0.021224 0.038211
endloop
endfacet
facet normal -0.000784 -0.833748 0.552145
outer loop
vertex -0.237000 -0.021830 0.037185
vertex -0.158000 -0.021224 0.038211
vertex -0.237000 -0.019738 0.040343
endloop
endfacet
facet normal 0.000855 -0.805207 0.592993
outer loop
vertex -0.237000 -0.019738 0.040343
vertex -0.158000 -0.021224 0.038211
vertex -0.158000 -0.018914 0.041348
endloop
endfacet
facet normal -0.000820 -0.740752 0.671778
outer loop
vertex -0.237000 -0.019738 0.040343
vertex -0.158000 -0.018914 0.041348
vertex -0.237000 -0.017193 0.043149
endloop
endfacet
facet normal 0.000888 -0.703295 0.710898
outer loop
vertex -0.237000 -0.017193 0.043149
vertex -0.158000 -0.018914 0.041348
vertex -0.158000 -0.016144 0.044088
endloop
endfacet
facet normal -0.000849 -0.630749 0.775987
outer loop
vertex -0.207658 -0.014956 0.045000
vertex -0.237000 -0.014916 0.045000
vertex -0.237000 -0.017193 0.043149
endloop
endfacet
facet normal -0.000849 -0.630749 0.775987
outer loop
vertex -0.207658 -0.014956 0.045000
vertex -0.237000 -0.017193 0.043149
vertex -0.158000 -0.016144 0.044088
endloop
endfacet
facet normal 0.000915 -0.584298 0.811539
outer loop
vertex -0.207658 -0.014956 0.045000
vertex -0.158000 -0.016144 0.044088
vertex -0.158000 -0.014878 0.045000
endloop
endfacet
facet normal 0.000915 0.584299 0.811538
outer loop
vertex -0.207658 0.014956 0.045000
vertex -0.158000 0.014878 0.045000
vertex -0.158000 0.016144 0.044088
endloop
endfacet
facet normal -0.000849 0.630749 0.775987
outer loop
vertex -0.207658 0.014956 0.045000
vertex -0.158000 0.016144 0.044088
vertex -0.237000 0.017193 0.043149
endloop
endfacet
facet normal -0.000849 0.630749 0.775986
outer loop
vertex -0.207658 0.014956 0.045000
vertex -0.237000 0.017193 0.043149
vertex -0.237000 0.014916 0.045000
endloop
endfacet
facet normal 0.000888 0.703295 0.710898
outer loop
vertex -0.237000 0.017193 0.043149
vertex -0.158000 0.016144 0.044088
vertex -0.158000 0.018914 0.041348
endloop
endfacet
facet normal -0.000820 0.740752 0.671778
outer loop
vertex -0.237000 0.017193 0.043149
vertex -0.158000 0.018914 0.041348
vertex -0.237000 0.019738 0.040343
endloop
endfacet
facet normal 0.000855 0.805207 0.592993
outer loop
vertex -0.237000 0.019738 0.040343
vertex -0.158000 0.018914 0.041348
vertex -0.158000 0.021224 0.038211
endloop
endfacet
facet normal -0.000784 0.833748 0.552145
outer loop
vertex -0.237000 0.019738 0.040343
vertex -0.158000 0.021224 0.038211
vertex -0.237000 0.021830 0.037185
endloop
endfacet
facet normal 0.000817 0.887564 0.460684
outer loop
vertex -0.237000 0.021830 0.037185
vertex -0.158000 0.021224 0.038211
vertex -0.158000 0.023019 0.034753
endloop
endfacet
facet normal -0.000742 0.907600 0.419836
outer loop
vertex -0.237000 0.021830 0.037185
vertex -0.158000 0.023019 0.034753
vertex -0.237000 0.023420 0.033747
endloop
endfacet
facet normal 0.000772 0.948363 0.317187
outer loop
vertex -0.237000 0.023420 0.033747
vertex -0.158000 0.023019 0.034753
vertex -0.158000 0.024255 0.031058
endloop
endfacet
facet normal -0.000695 0.960613 0.277888
outer loop
vertex -0.237000 0.023420 0.033747
vertex -0.158000 0.024255 0.031058
vertex -0.237000 0.024473 0.030108
endloop
endfacet
facet normal 0.000722 0.986128 0.165985
outer loop
vertex -0.237000 0.024473 0.030108
vertex -0.158000 0.024255 0.031058
vertex -0.158000 0.024902 0.027216
endloop
endfacet
facet normal -0.000641 0.991572 0.129557
outer loop
vertex -0.237000 0.024473 0.030108
vertex -0.158000 0.024902 0.027216
vertex -0.237000 0.024963 0.026352
endloop
endfacet
facet normal 0.000665 0.999942 0.010752
outer loop
vertex -0.237000 0.024963 0.026352
vertex -0.158000 0.024902 0.027216
vertex -0.158000 0.024943 0.023320
endloop
endfacet
facet normal -0.000582 0.999763 -0.021745
outer loop
vertex -0.237000 0.024963 0.026352
vertex -0.158000 0.024943 0.023320
vertex -0.237000 0.024881 0.022564
endloop
endfacet
facet normal 0.000603 0.989469 -0.144741
outer loop
vertex -0.237000 0.024881 0.022564
vertex -0.158000 0.024943 0.023320
vertex -0.158000 0.024380 0.019465
endloop
endfacet
facet normal -0.000517 0.985000 -0.172551
outer loop
vertex -0.237000 0.024881 0.022564
vertex -0.158000 0.024380 0.019465
vertex -0.237000 0.024227 0.018833
endloop
endfacet
facet normal 0.000534 0.954965 -0.296719
outer loop
vertex -0.237000 0.024227 0.018833
vertex -0.158000 0.024380 0.019465
vertex -0.158000 0.023224 0.015744
endloop
endfacet
facet normal -0.000445 0.947622 -0.319394
outer loop
vertex -0.237000 0.024227 0.018833
vertex -0.158000 0.023224 0.015744
vertex -0.237000 0.023018 0.015243
endloop
endfacet
facet normal 0.000460 0.897266 -0.441490
outer loop
vertex -0.237000 0.023018 0.015243
vertex -0.158000 0.023224 0.015744
vertex -0.158000 0.021503 0.012248
endloop
endfacet
facet normal -0.000368 0.888486 -0.458904
outer loop
vertex -0.237000 0.023018 0.015243
vertex -0.158000 0.021503 0.012248
vertex -0.237000 0.021279 0.011878
endloop
endfacet
facet normal 0.000380 0.817774 -0.575540
outer loop
vertex -0.237000 0.021279 0.011878
vertex -0.158000 0.021503 0.012248
vertex -0.158000 0.019261 0.009062
endloop
endfacet
facet normal -0.000285 0.808951 -0.587877
outer loop
vertex -0.237000 0.021279 0.011878
vertex -0.158000 0.019261 0.009062
vertex -0.237000 0.019052 0.008813
endloop
endfacet
facet normal 0.000294 0.718419 -0.695610
outer loop
vertex -0.237000 0.019052 0.008813
vertex -0.158000 0.019261 0.009062
vertex -0.158000 0.016551 0.006263
endloop
endfacet
facet normal -0.000196 0.710842 -0.703352
outer loop
vertex -0.237000 0.019052 0.008813
vertex -0.158000 0.016551 0.006263
vertex -0.237000 0.016388 0.006120
endloop
endfacet
facet normal 0.000202 0.601617 -0.798785
outer loop
vertex -0.237000 0.016388 0.006120
vertex -0.158000 0.016551 0.006263
vertex -0.158000 0.013439 0.003919
endloop
endfacet
facet normal -0.000101 0.596412 -0.802678
outer loop
vertex -0.237000 0.016388 0.006120
vertex -0.158000 0.013439 0.003919
vertex -0.237000 0.013347 0.003861
endloop
endfacet
facet normal 0.000107 0.468288 -0.883576
outer loop
vertex -0.237000 0.013347 0.003861
vertex -0.158000 0.013439 0.003919
vertex -0.237000 0.010000 0.002087
endloop
endfacet
facet normal -0.000000 0.470201 -0.882559
outer loop
vertex -0.237000 0.010000 0.002087
vertex -0.158000 0.013439 0.003919
vertex -0.079000 0.013439 0.003919
endloop
endfacet
facet normal -0.000000 0.470201 -0.882559
outer loop
vertex -0.237000 0.010000 0.002087
vertex -0.079000 0.013439 0.003919
vertex -0.000000 0.013439 0.003919
endloop
endfacet
facet normal -0.000000 0.601617 -0.798785
outer loop
vertex -0.000000 0.013439 0.003919
vertex -0.079000 0.013439 0.003919
vertex -0.000000 0.016551 0.006263
endloop
endfacet
facet normal -0.000000 0.601617 -0.798785
outer loop
vertex -0.000000 0.013439 0.003919
vertex -0.000000 0.016551 0.006263
vertex 0.079000 0.016551 0.006263
endloop
endfacet
facet normal -0.000000 0.718420 -0.695610
outer loop
vertex 0.079000 0.016551 0.006263
vertex -0.000000 0.016551 0.006263
vertex 0.079000 0.019261 0.009062
endloop
endfacet
facet normal -0.000000 0.718420 -0.695610
outer loop
vertex 0.079000 0.016551 0.006263
vertex 0.079000 0.019261 0.009062
vertex 0.158000 0.019261 0.009062
endloop
endfacet
facet normal -0.000000 0.817773 -0.575540
outer loop
vertex 0.158000 0.019261 0.009062
vertex 0.079000 0.019261 0.009062
vertex 0.158000 0.021503 0.012248
endloop
endfacet
facet normal -0.000380 0.817773 -0.575540
outer loop
vertex 0.158000 0.019261 0.009062
vertex 0.158000 0.021503 0.012248
vertex 0.237000 0.021279 0.011878
endloop
endfacet
facet normal 0.000368 0.888486 -0.458904
outer loop
vertex 0.237000 0.021279 0.011878
vertex 0.158000 0.021503 0.012248
vertex 0.237000 0.023018 0.015243
endloop
endfacet
facet normal -0.000460 0.897266 -0.441490
outer loop
vertex 0.237000 0.023018 0.015243
vertex 0.158000 0.021503 0.012248
vertex 0.158000 0.023224 0.015744
endloop
endfacet
facet normal 0.000445 0.947622 -0.319394
outer loop
vertex 0.237000 0.023018 0.015243
vertex 0.158000 0.023224 0.015744
vertex 0.237000 0.024227 0.018833
endloop
endfacet
facet normal -0.000535 0.954965 -0.296718
outer loop
vertex 0.237000 0.024227 0.018833
vertex 0.158000 0.023224 0.015744
vertex 0.158000 0.024380 0.019465
endloop
endfacet
facet normal 0.000517 0.985000 -0.172551
outer loop
vertex 0.237000 0.024227 0.018833
vertex 0.158000 0.024380 0.019465
vertex 0.237000 0.024881 0.022564
endloop
endfacet
facet normal -0.000603 0.989469 -0.144741
outer loop
vertex 0.237000 0.024881 0.022564
vertex 0.158000 0.024380 0.019465
vertex 0.158000 0.024944 0.023320
endloop
endfacet
facet normal 0.000582 0.999763 -0.021747
outer loop
vertex 0.237000 0.024881 0.022564
vertex 0.158000 0.024944 0.023320
vertex 0.237000 0.024963 0.026352
endloop
endfacet
facet normal -0.000665 0.999942 0.010754
outer loop
vertex 0.237000 0.024963 0.026352
vertex 0.158000 0.024944 0.023320
vertex 0.158000 0.024902 0.027216
endloop
endfacet
facet normal 0.000641 0.991572 0.129557
outer loop
vertex 0.237000 0.024963 0.026352
vertex 0.158000 0.024902 0.027216
vertex 0.237000 0.024473 0.030108
endloop
endfacet
facet normal -0.000722 0.986128 0.165985
outer loop
vertex 0.237000 0.024473 0.030108
vertex 0.158000 0.024902 0.027216
vertex 0.158000 0.024255 0.031058
endloop
endfacet
facet normal 0.000695 0.960613 0.277888
outer loop
vertex 0.237000 0.024473 0.030108
vertex 0.158000 0.024255 0.031058
vertex 0.237000 0.023420 0.033747
endloop
endfacet
facet normal -0.000772 0.948363 0.317187
outer loop
vertex 0.237000 0.023420 0.033747
vertex 0.158000 0.024255 0.031058
vertex 0.158000 0.023019 0.034753
endloop
endfacet
facet normal 0.000742 0.907600 0.419836
outer loop
vertex 0.237000 0.023420 0.033747
vertex 0.158000 0.023019 0.034753
vertex 0.237000 0.021830 0.037185
endloop
endfacet
facet normal -0.000817 0.887564 0.460684
outer loop
vertex 0.237000 0.021830 0.037185
vertex 0.158000 0.023019 0.034753
vertex 0.158000 0.021224 0.038211
endloop
endfacet
facet normal 0.000784 0.833748 0.552145
outer loop
vertex 0.237000 0.021830 0.037185
vertex 0.158000 0.021224 0.038211
vertex 0.237000 0.019738 0.040343
endloop
endfacet
facet normal -0.000855 0.805207 0.592993
outer loop
vertex 0.237000 0.019738 0.040343
vertex 0.158000 0.021224 0.038211
vertex 0.158000 0.018914 0.041348
endloop
endfacet
facet normal 0.000820 0.740752 0.671778
outer loop
vertex 0.237000 0.019738 0.040343
vertex 0.158000 0.018914 0.041348
vertex 0.237000 0.017193 0.043149
endloop
endfacet
facet normal -0.000888 0.703294 0.710898
outer loop
vertex 0.237000 0.017193 0.043149
vertex 0.158000 0.018914 0.041348
vertex 0.158000 0.016144 0.044088
endloop
endfacet
facet normal 0.000849 0.630750 0.775986
outer loop
vertex 0.237000 0.017193 0.043149
vertex 0.158000 0.016144 0.044088
vertex 0.207658 0.014956 0.045000
endloop
endfacet
facet normal 0.000849 0.630749 0.775987
outer loop
vertex 0.237000 0.017193 0.043149
vertex 0.207658 0.014956 0.045000
vertex 0.237000 0.014916 0.045000
endloop
endfacet
facet normal -0.000915 0.584298 0.811539
outer loop
vertex 0.158000 0.014878 0.045000
vertex 0.207658 0.014956 0.045000
vertex 0.158000 0.016144 0.044088
endloop
endfacet
facet normal -0.000915 -0.584298 0.811539
outer loop
vertex 0.158000 -0.016144 0.044088
vertex 0.207658 -0.014956 0.045000
vertex 0.158000 -0.014878 0.045000
endloop
endfacet
facet normal 0.000849 -0.630749 0.775986
outer loop
vertex 0.158000 -0.016144 0.044088
vertex 0.237000 -0.017193 0.043149
vertex 0.237000 -0.014916 0.045000
endloop
endfacet
facet normal 0.000849 -0.630750 0.775986
outer loop
vertex 0.158000 -0.016144 0.044088
vertex 0.237000 -0.014916 0.045000
vertex 0.207658 -0.014956 0.045000
endloop
endfacet
facet normal -0.000888 -0.703294 0.710898
outer loop
vertex 0.237000 -0.017193 0.043149
vertex 0.158000 -0.016144 0.044088
vertex 0.158000 -0.018914 0.041348
endloop
endfacet
facet normal 0.000820 -0.740752 0.671778
outer loop
vertex 0.237000 -0.017193 0.043149
vertex 0.158000 -0.018914 0.041348
vertex 0.237000 -0.019738 0.040343
endloop
endfacet
facet normal -0.000855 -0.805207 0.592993
outer loop
vertex 0.237000 -0.019738 0.040343
vertex 0.158000 -0.018914 0.041348
vertex 0.158000 -0.021224 0.038211
endloop
endfacet
facet normal 0.000784 -0.833748 0.552145
outer loop
vertex 0.237000 -0.019738 0.040343
vertex 0.158000 -0.021224 0.038211
vertex 0.237000 -0.021830 0.037185
endloop
endfacet
facet normal -0.000817 -0.887564 0.460684
outer loop
vertex 0.237000 -0.021830 0.037185
vertex 0.158000 -0.021224 0.038211
vertex 0.158000 -0.023019 0.034753
endloop
endfacet
facet normal 0.000742 -0.907600 0.419836
outer loop
vertex 0.237000 -0.021830 0.037185
vertex 0.158000 -0.023019 0.034753
vertex 0.237000 -0.023420 0.033747
endloop
endfacet
facet normal -0.000772 -0.948363 0.317187
outer loop
vertex 0.237000 -0.023420 0.033747
vertex 0.158000 -0.023019 0.034753
vertex 0.158000 -0.024255 0.031058
endloop
endfacet
facet normal 0.000695 -0.960613 0.277888
outer loop
vertex 0.237000 -0.023420 0.033747
vertex 0.158000 -0.024255 0.031058
vertex 0.237000 -0.024473 0.030108
endloop
endfacet
facet normal -0.000722 -0.986128 0.165985
outer loop
vertex 0.237000 -0.024473 0.030108
vertex 0.158000 -0.024255 0.031058
vertex 0.158000 -0.024902 0.027216
endloop
endfacet
facet normal 0.000641 -0.991572 0.129558
outer loop
vertex 0.237000 -0.024473 0.030108
vertex 0.158000 -0.024902 0.027216
vertex 0.237000 -0.024963 0.026352
endloop
endfacet
facet normal -0.000665 -0.999942 0.010752
outer loop
vertex 0.237000 -0.024963 0.026352
vertex 0.158000 -0.024902 0.027216
vertex 0.158000 -0.024943 0.023320
endloop
endfacet
facet normal 0.000582 -0.999763 -0.021745
outer loop
vertex 0.237000 -0.024963 0.026352
vertex 0.158000 -0.024943 0.023320
vertex 0.237000 -0.024881 0.022564
endloop
endfacet
facet normal -0.000603 -0.989469 -0.144742
outer loop
vertex 0.237000 -0.024881 0.022564
vertex 0.158000 -0.024943 0.023320
vertex 0.158000 -0.024380 0.019465
endloop
endfacet
facet normal 0.000517 -0.985000 -0.172551
outer loop
vertex 0.237000 -0.024881 0.022564
vertex 0.158000 -0.024380 0.019465
vertex 0.237000 -0.024227 0.018833
endloop
endfacet
facet normal -0.000534 -0.954965 -0.296718
outer loop
vertex 0.237000 -0.024227 0.018833
vertex 0.158000 -0.024380 0.019465
vertex 0.158000 -0.023223 0.015744
endloop
endfacet
facet normal 0.000445 -0.947622 -0.319394
outer loop
vertex 0.237000 -0.024227 0.018833
vertex 0.158000 -0.023223 0.015744
vertex 0.237000 -0.023017 0.015243
endloop
endfacet
facet normal -0.000460 -0.897266 -0.441490
outer loop
vertex 0.237000 -0.023017 0.015243
vertex 0.158000 -0.023223 0.015744
vertex 0.158000 -0.021503 0.012248
endloop
endfacet
facet normal 0.000368 -0.888486 -0.458904
outer loop
vertex 0.237000 -0.023017 0.015243
vertex 0.158000 -0.021503 0.012248
vertex 0.237000 -0.021279 0.011878
endloop
endfacet
facet normal -0.000380 -0.817773 -0.575540
outer loop
vertex 0.237000 -0.021279 0.011878
vertex 0.158000 -0.021503 0.012248
vertex 0.158000 -0.019261 0.009062
endloop
endfacet
facet normal 0.000285 -0.808951 -0.587876
outer loop
vertex 0.237000 -0.021279 0.011878
vertex 0.158000 -0.019261 0.009062
vertex 0.237000 -0.019052 0.008813
endloop
endfacet
facet normal -0.000294 -0.718419 -0.695611
outer loop
vertex 0.237000 -0.019052 0.008813
vertex 0.158000 -0.019261 0.009062
vertex 0.158000 -0.016551 0.006263
endloop
endfacet
facet normal 0.000196 -0.710842 -0.703352
outer loop
vertex 0.237000 -0.019052 0.008813
vertex 0.158000 -0.016551 0.006263
vertex 0.237000 -0.016388 0.006120
endloop
endfacet
facet normal -0.000202 -0.601616 -0.798785
outer loop
vertex 0.237000 -0.016388 0.006120
vertex 0.158000 -0.016551 0.006263
vertex 0.158000 -0.013439 0.003919
endloop
endfacet
facet normal 0.000101 -0.596412 -0.802679
outer loop
vertex 0.237000 -0.016388 0.006120
vertex 0.158000 -0.013439 0.003919
vertex 0.237000 -0.013347 0.003861
endloop
endfacet
facet normal 0.000285 0.808951 -0.587876
outer loop
vertex 0.237000 0.021279 0.011878
vertex 0.237000 0.019052 0.008813
vertex 0.158000 0.019261 0.009062
endloop
endfacet
facet normal -0.000294 0.718419 -0.695611
outer loop
vertex 0.158000 0.019261 0.009062
vertex 0.237000 0.019052 0.008813
vertex 0.158000 0.016551 0.006263
endloop
endfacet
facet normal -0.000000 0.718419 -0.695610
outer loop
vertex 0.158000 0.019261 0.009062
vertex 0.158000 0.016551 0.006263
vertex 0.079000 0.016551 0.006263
endloop
endfacet
facet normal -0.000000 0.601617 -0.798785
outer loop
vertex 0.079000 0.016551 0.006263
vertex 0.158000 0.016551 0.006263
vertex 0.079000 0.013439 0.003919
endloop
endfacet
facet normal -0.000000 0.601617 -0.798785
outer loop
vertex 0.079000 0.016551 0.006263
vertex 0.079000 0.013439 0.003919
vertex -0.000000 0.013439 0.003919
endloop
endfacet
facet normal -0.000000 0.470201 -0.882559
outer loop
vertex -0.000000 0.013439 0.003919
vertex 0.079000 0.013439 0.003919
vertex -0.237000 0.010000 0.002087
endloop
endfacet
facet normal 0.000196 0.710842 -0.703352
outer loop
vertex 0.237000 0.019052 0.008813
vertex 0.237000 0.016388 0.006120
vertex 0.158000 0.016551 0.006263
endloop
endfacet
facet normal -0.000202 0.601617 -0.798785
outer loop
vertex 0.158000 0.016551 0.006263
vertex 0.237000 0.016388 0.006120
vertex 0.158000 0.013439 0.003919
endloop
endfacet
facet normal -0.000000 0.601616 -0.798785
outer loop
vertex 0.158000 0.016551 0.006263
vertex 0.158000 0.013439 0.003919
vertex 0.079000 0.013439 0.003919
endloop
endfacet
facet normal -0.000000 0.470202 -0.882559
outer loop
vertex 0.079000 0.013439 0.003919
vertex 0.158000 0.013439 0.003919
vertex -0.237000 0.010000 0.002087
endloop
endfacet
facet normal 0.000101 0.596412 -0.802679
outer loop
vertex 0.237000 0.016388 0.006120
vertex 0.237000 0.013347 0.003861
vertex 0.158000 0.013439 0.003919
endloop
endfacet
facet normal -0.000091 0.478344 -0.878172
outer loop
vertex 0.158000 0.013439 0.003919
vertex 0.237000 0.013347 0.003861
vertex -0.237000 0.010000 0.002087
endloop
endfacet
facet normal -0.000000 0.468288 -0.883576
outer loop
vertex 0.237000 0.013347 0.003861
vertex 0.237000 0.010000 0.002087
vertex -0.237000 0.010000 0.002087
endloop
endfacet
facet normal -0.000285 -0.808950 -0.587877
outer loop
vertex -0.237000 -0.021279 0.011878
vertex -0.237000 -0.019052 0.008813
vertex -0.158000 -0.019261 0.009062
endloop
endfacet
facet normal 0.000294 -0.718419 -0.695610
outer loop
vertex -0.158000 -0.019261 0.009062
vertex -0.237000 -0.019052 0.008813
vertex -0.158000 -0.016551 0.006263
endloop
endfacet
facet normal 0.000000 -0.718420 -0.695610
outer loop
vertex -0.158000 -0.019261 0.009062
vertex -0.158000 -0.016551 0.006263
vertex -0.079000 -0.016551 0.006263
endloop
endfacet
facet normal 0.000000 -0.601616 -0.798785
outer loop
vertex -0.079000 -0.016551 0.006263
vertex -0.158000 -0.016551 0.006263
vertex -0.079000 -0.013439 0.003919
endloop
endfacet
facet normal 0.000000 -0.601616 -0.798785
outer loop
vertex -0.079000 -0.016551 0.006263
vertex -0.079000 -0.013439 0.003919
vertex 0.000000 -0.013439 0.003919
endloop
endfacet
facet normal 0.000000 -0.470202 -0.882559
outer loop
vertex 0.000000 -0.013439 0.003919
vertex -0.079000 -0.013439 0.003919
vertex 0.237000 -0.010000 0.002087
endloop
endfacet
facet normal -0.000196 -0.710842 -0.703352
outer loop
vertex -0.237000 -0.019052 0.008813
vertex -0.237000 -0.016388 0.006120
vertex -0.158000 -0.016551 0.006263
endloop
endfacet
facet normal 0.000202 -0.601617 -0.798785
outer loop
vertex -0.158000 -0.016551 0.006263
vertex -0.237000 -0.016388 0.006120
vertex -0.158000 -0.013439 0.003919
endloop
endfacet
facet normal 0.000000 -0.601617 -0.798785
outer loop
vertex -0.158000 -0.016551 0.006263
vertex -0.158000 -0.013439 0.003919
vertex -0.079000 -0.013439 0.003919
endloop
endfacet
facet normal 0.000000 -0.470202 -0.882559
outer loop
vertex -0.079000 -0.013439 0.003919
vertex -0.158000 -0.013439 0.003919
vertex 0.237000 -0.010000 0.002087
endloop
endfacet
facet normal -0.000101 -0.596411 -0.802679
outer loop
vertex -0.237000 -0.016388 0.006120
vertex -0.237000 -0.013347 0.003861
vertex -0.158000 -0.013439 0.003919
endloop
endfacet
facet normal 0.000091 -0.478346 -0.878171
outer loop
vertex -0.158000 -0.013439 0.003919
vertex -0.237000 -0.013347 0.003861
vertex 0.237000 -0.010000 0.002087
endloop
endfacet
facet normal 0.000000 -0.468288 -0.883576
outer loop
vertex -0.237000 -0.013347 0.003861
vertex -0.237000 -0.010000 0.002087
vertex 0.237000 -0.010000 0.002087
endloop
endfacet
facet normal 0.000000 -0.601616 -0.798785
outer loop
vertex 0.079000 -0.013439 0.003919
vertex 0.158000 -0.013439 0.003919
vertex 0.079000 -0.016551 0.006263
endloop
endfacet
facet normal 0.000000 -0.601617 -0.798785
outer loop
vertex 0.079000 -0.016551 0.006263
vertex 0.158000 -0.013439 0.003919
vertex 0.158000 -0.016551 0.006263
endloop
endfacet
facet normal 0.000000 -0.718420 -0.695610
outer loop
vertex 0.079000 -0.016551 0.006263
vertex 0.158000 -0.016551 0.006263
vertex 0.079000 -0.019261 0.009062
endloop
endfacet
facet normal 0.000000 -0.718420 -0.695610
outer loop
vertex 0.079000 -0.019261 0.009062
vertex 0.158000 -0.016551 0.006263
vertex 0.158000 -0.019261 0.009062
endloop
endfacet
facet normal 0.000000 -0.817773 -0.575540
outer loop
vertex 0.079000 -0.019261 0.009062
vertex 0.158000 -0.019261 0.009062
vertex 0.079000 -0.021503 0.012248
endloop
endfacet
facet normal 0.000000 -0.817773 -0.575540
outer loop
vertex 0.079000 -0.021503 0.012248
vertex 0.158000 -0.019261 0.009062
vertex 0.158000 -0.021503 0.012248
endloop
endfacet
facet normal 0.000000 -0.897266 -0.441490
outer loop
vertex 0.079000 -0.021503 0.012248
vertex 0.158000 -0.021503 0.012248
vertex 0.079000 -0.023223 0.015744
endloop
endfacet
facet normal 0.000000 -0.897265 -0.441492
outer loop
vertex 0.079000 -0.023223 0.015744
vertex 0.158000 -0.021503 0.012248
vertex 0.158000 -0.023223 0.015744
endloop
endfacet
facet normal 0.000000 -0.954965 -0.296719
outer loop
vertex 0.079000 -0.023223 0.015744
vertex 0.158000 -0.023223 0.015744
vertex 0.079000 -0.024380 0.019465
endloop
endfacet
facet normal 0.000000 -0.954965 -0.296719
outer loop
vertex 0.079000 -0.024380 0.019465
vertex 0.158000 -0.023223 0.015744
vertex 0.158000 -0.024380 0.019465
endloop
endfacet
facet normal 0.000000 -0.989470 -0.144741
outer loop
vertex 0.079000 -0.024380 0.019465
vertex 0.158000 -0.024380 0.019465
vertex 0.079000 -0.024943 0.023320
endloop
endfacet
facet normal 0.000000 -0.989470 -0.144741
outer loop
vertex 0.079000 -0.024943 0.023320
vertex 0.158000 -0.024380 0.019465
vertex 0.158000 -0.024943 0.023320
endloop
endfacet
facet normal 0.000000 -0.999942 0.010752
outer loop
vertex 0.079000 -0.024943 0.023320
vertex 0.158000 -0.024943 0.023320
vertex 0.079000 -0.024902 0.027216
endloop
endfacet
facet normal 0.000000 -0.999942 0.010754
outer loop
vertex 0.079000 -0.024902 0.027216
vertex 0.158000 -0.024943 0.023320
vertex 0.158000 -0.024902 0.027216
endloop
endfacet
facet normal 0.000000 -0.986128 0.165984
outer loop
vertex 0.079000 -0.024902 0.027216
vertex 0.158000 -0.024902 0.027216
vertex 0.079000 -0.024255 0.031058
endloop
endfacet
facet normal 0.000000 -0.986128 0.165986
outer loop
vertex 0.079000 -0.024255 0.031058
vertex 0.158000 -0.024902 0.027216
vertex 0.158000 -0.024255 0.031058
endloop
endfacet
facet normal 0.000000 -0.948363 0.317187
outer loop
vertex 0.079000 -0.024255 0.031058
vertex 0.158000 -0.024255 0.031058
vertex 0.079000 -0.023019 0.034753
endloop
endfacet
facet normal 0.000000 -0.948363 0.317187
outer loop
vertex 0.079000 -0.023019 0.034753
vertex 0.158000 -0.024255 0.031058
vertex 0.158000 -0.023019 0.034753
endloop
endfacet
facet normal 0.000000 -0.887564 0.460684
outer loop
vertex 0.079000 -0.023019 0.034753
vertex 0.158000 -0.023019 0.034753
vertex 0.079000 -0.021224 0.038211
endloop
endfacet
facet normal 0.000000 -0.887564 0.460684
outer loop
vertex 0.079000 -0.021224 0.038211
vertex 0.158000 -0.023019 0.034753
vertex 0.158000 -0.021224 0.038211
endloop
endfacet
facet normal 0.000000 -0.805208 0.592993
outer loop
vertex 0.079000 -0.021224 0.038211
vertex 0.158000 -0.021224 0.038211
vertex 0.079000 -0.018914 0.041348
endloop
endfacet
facet normal 0.000000 -0.805208 0.592992
outer loop
vertex 0.079000 -0.018914 0.041348
vertex 0.158000 -0.021224 0.038211
vertex 0.158000 -0.018914 0.041348
endloop
endfacet
facet normal 0.000000 -0.703295 0.710898
outer loop
vertex 0.079000 -0.018914 0.041348
vertex 0.158000 -0.018914 0.041348
vertex 0.079000 -0.016144 0.044088
endloop
endfacet
facet normal 0.000000 -0.703295 0.710898
outer loop
vertex 0.079000 -0.016144 0.044088
vertex 0.158000 -0.018914 0.041348
vertex 0.158000 -0.016144 0.044088
endloop
endfacet
facet normal 0.000000 -0.584298 0.811539
outer loop
vertex 0.126369 -0.014878 0.045000
vertex 0.079000 -0.014878 0.045000
vertex 0.079000 -0.016144 0.044088
endloop
endfacet
facet normal 0.000000 -0.584300 0.811538
outer loop
vertex 0.126369 -0.014878 0.045000
vertex 0.079000 -0.016144 0.044088
vertex 0.158000 -0.016144 0.044088
endloop
endfacet
facet normal 0.000000 -0.584299 0.811539
outer loop
vertex 0.158000 -0.016144 0.044088
vertex 0.158000 -0.014878 0.045000
vertex 0.126369 -0.014878 0.045000
endloop
endfacet
facet normal 0.000000 0.584299 0.811539
outer loop
vertex 0.079000 0.014878 0.045000
vertex 0.110631 0.014878 0.045000
vertex 0.079000 0.016144 0.044088
endloop
endfacet
facet normal -0.000000 0.584299 0.811539
outer loop
vertex 0.158000 0.016144 0.044088
vertex 0.079000 0.016144 0.044088
vertex 0.110631 0.014878 0.045000
endloop
endfacet
facet normal -0.000000 0.584298 0.811539
outer loop
vertex 0.158000 0.016144 0.044088
vertex 0.110631 0.014878 0.045000
vertex 0.158000 0.014878 0.045000
endloop
endfacet
facet normal -0.000000 0.703296 0.710898
outer loop
vertex 0.079000 0.016144 0.044088
vertex 0.158000 0.016144 0.044088
vertex 0.079000 0.018914 0.041348
endloop
endfacet
facet normal -0.000000 0.703295 0.710898
outer loop
vertex 0.079000 0.018914 0.041348
vertex 0.158000 0.016144 0.044088
vertex 0.158000 0.018914 0.041348
endloop
endfacet
facet normal -0.000000 0.805208 0.592992
outer loop
vertex 0.079000 0.018914 0.041348
vertex 0.158000 0.018914 0.041348
vertex 0.079000 0.021224 0.038211
endloop
endfacet
facet normal 0.000000 0.805208 0.592993
outer loop
vertex 0.079000 0.021224 0.038211
vertex 0.158000 0.018914 0.041348
vertex 0.158000 0.021224 0.038211
endloop
endfacet
facet normal -0.000000 0.887564 0.460684
outer loop
vertex 0.079000 0.021224 0.038211
vertex 0.158000 0.021224 0.038211
vertex 0.079000 0.023019 0.034753
endloop
endfacet
facet normal 0.000000 0.887564 0.460684
outer loop
vertex 0.079000 0.023019 0.034753
vertex 0.158000 0.021224 0.038211
vertex 0.158000 0.023019 0.034753
endloop
endfacet
facet normal -0.000000 0.948363 0.317188
outer loop
vertex 0.079000 0.023019 0.034753
vertex 0.158000 0.023019 0.034753
vertex 0.079000 0.024255 0.031058
endloop
endfacet
facet normal -0.000000 0.948363 0.317187
outer loop
vertex 0.079000 0.024255 0.031058
vertex 0.158000 0.023019 0.034753
vertex 0.158000 0.024255 0.031058
endloop
endfacet
facet normal -0.000000 0.986128 0.165986
outer loop
vertex 0.079000 0.024255 0.031058
vertex 0.158000 0.024255 0.031058
vertex 0.079000 0.024902 0.027216
endloop
endfacet
facet normal -0.000000 0.986128 0.165984
outer loop
vertex 0.079000 0.024902 0.027216
vertex 0.158000 0.024255 0.031058
vertex 0.158000 0.024902 0.027216
endloop
endfacet
facet normal -0.000000 0.999942 0.010754
outer loop
vertex 0.079000 0.024902 0.027216
vertex 0.158000 0.024902 0.027216
vertex 0.079000 0.024944 0.023320
endloop
endfacet
facet normal -0.000000 0.999942 0.010752
outer loop
vertex 0.079000 0.024944 0.023320
vertex 0.158000 0.024902 0.027216
vertex 0.158000 0.024944 0.023320
endloop
endfacet
facet normal -0.000000 0.989470 -0.144741
outer loop
vertex 0.079000 0.024944 0.023320
vertex 0.158000 0.024944 0.023320
vertex 0.079000 0.024380 0.019465
endloop
endfacet
facet normal -0.000000 0.989470 -0.144741
outer loop
vertex 0.079000 0.024380 0.019465
vertex 0.158000 0.024944 0.023320
vertex 0.158000 0.024380 0.019465
endloop
endfacet
facet normal -0.000000 0.954965 -0.296719
outer loop
vertex 0.079000 0.024380 0.019465
vertex 0.158000 0.024380 0.019465
vertex 0.079000 0.023224 0.015744
endloop
endfacet
facet normal -0.000000 0.954965 -0.296720
outer loop
vertex 0.079000 0.023224 0.015744
vertex 0.158000 0.024380 0.019465
vertex 0.158000 0.023224 0.015744
endloop
endfacet
facet normal -0.000000 0.897266 -0.441491
outer loop
vertex 0.079000 0.023224 0.015744
vertex 0.158000 0.023224 0.015744
vertex 0.079000 0.021503 0.012248
endloop
endfacet
facet normal -0.000000 0.897266 -0.441491
outer loop
vertex 0.079000 0.021503 0.012248
vertex 0.158000 0.023224 0.015744
vertex 0.158000 0.021503 0.012248
endloop
endfacet
facet normal -0.000000 0.817774 -0.575540
outer loop
vertex 0.079000 0.021503 0.012248
vertex 0.158000 0.021503 0.012248
vertex 0.079000 0.019261 0.009062
endloop
endfacet
facet normal 0.000000 -0.601616 -0.798785
outer loop
vertex 0.079000 -0.013439 0.003919
vertex 0.079000 -0.016551 0.006263
vertex 0.000000 -0.016551 0.006263
endloop
endfacet
facet normal 0.000000 -0.718420 -0.695610
outer loop
vertex 0.000000 -0.016551 0.006263
vertex 0.079000 -0.016551 0.006263
vertex 0.000000 -0.019261 0.009062
endloop
endfacet
facet normal 0.000000 -0.718420 -0.695610
outer loop
vertex 0.000000 -0.016551 0.006263
vertex 0.000000 -0.019261 0.009062
vertex -0.079000 -0.019261 0.009062
endloop
endfacet
facet normal 0.000000 -0.817773 -0.575540
outer loop
vertex -0.079000 -0.019261 0.009062
vertex 0.000000 -0.019261 0.009062
vertex -0.079000 -0.021503 0.012248
endloop
endfacet
facet normal 0.000000 -0.817773 -0.575540
outer loop
vertex -0.079000 -0.019261 0.009062
vertex -0.079000 -0.021503 0.012248
vertex -0.158000 -0.021503 0.012248
endloop
endfacet
facet normal 0.000000 -0.897266 -0.441491
outer loop
vertex -0.158000 -0.021503 0.012248
vertex -0.079000 -0.021503 0.012248
vertex -0.158000 -0.023223 0.015744
endloop
endfacet
facet normal 0.000000 -0.718420 -0.695610
outer loop
vertex 0.000000 -0.019261 0.009062
vertex 0.079000 -0.016551 0.006263
vertex 0.079000 -0.019261 0.009062
endloop
endfacet
facet normal 0.000000 -0.817774 -0.575540
outer loop
vertex 0.000000 -0.019261 0.009062
vertex 0.079000 -0.019261 0.009062
vertex 0.000000 -0.021503 0.012248
endloop
endfacet
facet normal 0.000000 -0.817773 -0.575540
outer loop
vertex 0.000000 -0.021503 0.012248
vertex 0.079000 -0.019261 0.009062
vertex 0.079000 -0.021503 0.012248
endloop
endfacet
facet normal 0.000000 -0.897266 -0.441491
outer loop
vertex 0.000000 -0.021503 0.012248
vertex 0.079000 -0.021503 0.012248
vertex 0.000000 -0.023223 0.015744
endloop
endfacet
facet normal 0.000000 -0.897265 -0.441492
outer loop
vertex 0.000000 -0.023223 0.015744
vertex 0.079000 -0.021503 0.012248
vertex 0.079000 -0.023223 0.015744
endloop
endfacet
facet normal 0.000000 -0.954965 -0.296720
outer loop
vertex 0.000000 -0.023223 0.015744
vertex 0.079000 -0.023223 0.015744
vertex 0.000000 -0.024380 0.019465
endloop
endfacet
facet normal 0.000000 -0.954965 -0.296719
outer loop
vertex 0.000000 -0.024380 0.019465
vertex 0.079000 -0.023223 0.015744
vertex 0.079000 -0.024380 0.019465
endloop
endfacet
facet normal 0.000000 -0.989470 -0.144741
outer loop
vertex 0.000000 -0.024380 0.019465
vertex 0.079000 -0.024380 0.019465
vertex 0.000000 -0.024943 0.023320
endloop
endfacet
facet normal 0.000000 -0.989469 -0.144742
outer loop
vertex 0.000000 -0.024943 0.023320
vertex 0.079000 -0.024380 0.019465
vertex 0.079000 -0.024943 0.023320
endloop
endfacet
facet normal 0.000000 -0.999942 0.010754
outer loop
vertex 0.000000 -0.024943 0.023320
vertex 0.079000 -0.024943 0.023320
vertex 0.000000 -0.024902 0.027216
endloop
endfacet
facet normal 0.000000 -0.999942 0.010752
outer loop
vertex 0.000000 -0.024902 0.027216
vertex 0.079000 -0.024943 0.023320
vertex 0.079000 -0.024902 0.027216
endloop
endfacet
facet normal 0.000000 -0.986128 0.165986
outer loop
vertex 0.000000 -0.024902 0.027216
vertex 0.079000 -0.024902 0.027216
vertex 0.000000 -0.024255 0.031058
endloop
endfacet
facet normal 0.000000 -0.986128 0.165986
outer loop
vertex 0.000000 -0.024255 0.031058
vertex 0.079000 -0.024902 0.027216
vertex 0.079000 -0.024255 0.031058
endloop
endfacet
facet normal 0.000000 -0.948363 0.317187
outer loop
vertex 0.000000 -0.024255 0.031058
vertex 0.079000 -0.024255 0.031058
vertex 0.000000 -0.023019 0.034753
endloop
endfacet
facet normal 0.000000 -0.948363 0.317187
outer loop
vertex 0.000000 -0.023019 0.034753
vertex 0.079000 -0.024255 0.031058
vertex 0.079000 -0.023019 0.034753
endloop
endfacet
facet normal 0.000000 -0.887564 0.460684
outer loop
vertex 0.000000 -0.023019 0.034753
vertex 0.079000 -0.023019 0.034753
vertex 0.000000 -0.021224 0.038211
endloop
endfacet
facet normal 0.000000 -0.887564 0.460684
outer loop
vertex 0.000000 -0.021224 0.038211
vertex 0.079000 -0.023019 0.034753
vertex 0.079000 -0.021224 0.038211
endloop
endfacet
facet normal 0.000000 -0.805208 0.592992
outer loop
vertex 0.000000 -0.021224 0.038211
vertex 0.079000 -0.021224 0.038211
vertex 0.000000 -0.018914 0.041348
endloop
endfacet
facet normal 0.000000 -0.805208 0.592993
outer loop
vertex 0.000000 -0.018914 0.041348
vertex 0.079000 -0.021224 0.038211
vertex 0.079000 -0.018914 0.041348
endloop
endfacet
facet normal 0.000000 -0.703295 0.710898
outer loop
vertex 0.000000 -0.018914 0.041348
vertex 0.079000 -0.018914 0.041348
vertex 0.000000 -0.016144 0.044088
endloop
endfacet
facet normal 0.000000 -0.703295 0.710898
outer loop
vertex 0.000000 -0.016144 0.044088
vertex 0.079000 -0.018914 0.041348
vertex 0.079000 -0.016144 0.044088
endloop
endfacet
facet normal 0.000000 -0.584298 0.811539
outer loop
vertex 0.047369 -0.014878 0.045000
vertex 0.000000 -0.014878 0.045000
vertex 0.000000 -0.016144 0.044088
endloop
endfacet
facet normal 0.000000 -0.584299 0.811539
outer loop
vertex 0.047369 -0.014878 0.045000
vertex 0.000000 -0.016144 0.044088
vertex 0.079000 -0.016144 0.044088
endloop
endfacet
facet normal 0.000000 -0.584299 0.811539
outer loop
vertex 0.079000 -0.016144 0.044088
vertex 0.079000 -0.014878 0.045000
vertex 0.047369 -0.014878 0.045000
endloop
endfacet
facet normal 0.000000 0.584299 0.811539
outer loop
vertex -0.000000 0.016144 0.044088
vertex -0.000000 0.014878 0.045000
vertex 0.031631 0.014878 0.045000
endloop
endfacet
facet normal -0.000000 0.584298 0.811539
outer loop
vertex 0.079000 0.016144 0.044088
vertex -0.000000 0.016144 0.044088
vertex 0.031631 0.014878 0.045000
endloop
endfacet
facet normal -0.000000 0.584299 0.811538
outer loop
vertex 0.079000 0.016144 0.044088
vertex 0.031631 0.014878 0.045000
vertex 0.079000 0.014878 0.045000
endloop
endfacet
facet normal -0.000000 0.703295 0.710898
outer loop
vertex -0.000000 0.016144 0.044088
vertex 0.079000 0.016144 0.044088
vertex -0.000000 0.018914 0.041348
endloop
endfacet
facet normal -0.000000 0.703295 0.710898
outer loop
vertex -0.000000 0.018914 0.041348
vertex 0.079000 0.016144 0.044088
vertex 0.079000 0.018914 0.041348
endloop
endfacet
facet normal -0.000000 0.805208 0.592993
outer loop
vertex -0.000000 0.018914 0.041348
vertex 0.079000 0.018914 0.041348
vertex -0.000000 0.021224 0.038211
endloop
endfacet
facet normal 0.000000 0.805208 0.592992
outer loop
vertex -0.000000 0.021224 0.038211
vertex 0.079000 0.018914 0.041348
vertex 0.079000 0.021224 0.038211
endloop
endfacet
facet normal -0.000000 0.887564 0.460684
outer loop
vertex -0.000000 0.021224 0.038211
vertex 0.079000 0.021224 0.038211
vertex -0.000000 0.023019 0.034753
endloop
endfacet
facet normal 0.000000 0.887564 0.460684
outer loop
vertex -0.000000 0.023019 0.034753
vertex 0.079000 0.021224 0.038211
vertex 0.079000 0.023019 0.034753
endloop
endfacet
facet normal -0.000000 0.948363 0.317187
outer loop
vertex -0.000000 0.023019 0.034753
vertex 0.079000 0.023019 0.034753
vertex -0.000000 0.024255 0.031058
endloop
endfacet
facet normal -0.000000 0.948363 0.317187
outer loop
vertex -0.000000 0.024255 0.031058
vertex 0.079000 0.023019 0.034753
vertex 0.079000 0.024255 0.031058
endloop
endfacet
facet normal -0.000000 0.986128 0.165986
outer loop
vertex -0.000000 0.024255 0.031058
vertex 0.079000 0.024255 0.031058
vertex -0.000000 0.024902 0.027216
endloop
endfacet
facet normal -0.000000 0.986128 0.165985
outer loop
vertex -0.000000 0.024902 0.027216
vertex 0.079000 0.024255 0.031058
vertex 0.079000 0.024902 0.027216
endloop
endfacet
facet normal -0.000000 0.999942 0.010754
outer loop
vertex -0.000000 0.024902 0.027216
vertex 0.079000 0.024902 0.027216
vertex -0.000000 0.024944 0.023320
endloop
endfacet
facet normal -0.000000 0.999942 0.010752
outer loop
vertex -0.000000 0.024944 0.023320
vertex 0.079000 0.024902 0.027216
vertex 0.079000 0.024944 0.023320
endloop
endfacet
facet normal -0.000000 0.989470 -0.144741
outer loop
vertex -0.000000 0.024944 0.023320
vertex 0.079000 0.024944 0.023320
vertex -0.000000 0.024380 0.019465
endloop
endfacet
facet normal -0.000000 0.989469 -0.144742
outer loop
vertex -0.000000 0.024380 0.019465
vertex 0.079000 0.024944 0.023320
vertex 0.079000 0.024380 0.019465
endloop
endfacet
facet normal -0.000000 0.954965 -0.296718
outer loop
vertex -0.000000 0.024380 0.019465
vertex 0.079000 0.024380 0.019465
vertex -0.000000 0.023224 0.015744
endloop
endfacet
facet normal -0.000000 0.954965 -0.296720
outer loop
vertex -0.000000 0.023224 0.015744
vertex 0.079000 0.024380 0.019465
vertex 0.079000 0.023224 0.015744
endloop
endfacet
facet normal -0.000000 0.897265 -0.441492
outer loop
vertex -0.000000 0.023224 0.015744
vertex 0.079000 0.023224 0.015744
vertex -0.000000 0.021503 0.012248
endloop
endfacet
facet normal -0.000000 0.897266 -0.441490
outer loop
vertex -0.000000 0.021503 0.012248
vertex 0.079000 0.023224 0.015744
vertex 0.079000 0.021503 0.012248
endloop
endfacet
facet normal -0.000000 0.817773 -0.575540
outer loop
vertex -0.000000 0.021503 0.012248
vertex 0.079000 0.021503 0.012248
vertex -0.000000 0.019261 0.009062
endloop
endfacet
facet normal -0.000000 0.817773 -0.575540
outer loop
vertex -0.000000 0.019261 0.009062
vertex 0.079000 0.021503 0.012248
vertex 0.079000 0.019261 0.009062
endloop
endfacet
facet normal -0.000000 0.718420 -0.695610
outer loop
vertex -0.000000 0.019261 0.009062
vertex 0.079000 0.019261 0.009062
vertex -0.000000 0.016551 0.006263
endloop
endfacet
facet normal 0.000000 -0.817773 -0.575540
outer loop
vertex 0.000000 -0.019261 0.009062
vertex 0.000000 -0.021503 0.012248
vertex -0.079000 -0.021503 0.012248
endloop
endfacet
facet normal 0.000000 -0.897266 -0.441491
outer loop
vertex -0.079000 -0.021503 0.012248
vertex 0.000000 -0.021503 0.012248
vertex -0.079000 -0.023223 0.015744
endloop
endfacet
facet normal 0.000000 -0.897266 -0.441491
outer loop
vertex -0.079000 -0.021503 0.012248
vertex -0.079000 -0.023223 0.015744
vertex -0.158000 -0.023223 0.015744
endloop
endfacet
facet normal 0.000000 -0.954965 -0.296720
outer loop
vertex -0.158000 -0.023223 0.015744
vertex -0.079000 -0.023223 0.015744
vertex -0.158000 -0.024380 0.019465
endloop
endfacet
facet normal 0.000000 -0.897265 -0.441492
outer loop
vertex -0.079000 -0.023223 0.015744
vertex 0.000000 -0.021503 0.012248
vertex 0.000000 -0.023223 0.015744
endloop
endfacet
facet normal 0.000000 -0.954965 -0.296720
outer loop
vertex -0.079000 -0.023223 0.015744
vertex 0.000000 -0.023223 0.015744
vertex -0.079000 -0.024380 0.019465
endloop
endfacet
facet normal 0.000000 -0.954965 -0.296718
outer loop
vertex -0.079000 -0.024380 0.019465
vertex 0.000000 -0.023223 0.015744
vertex 0.000000 -0.024380 0.019465
endloop
endfacet
facet normal 0.000000 -0.989470 -0.144741
outer loop
vertex -0.079000 -0.024380 0.019465
vertex 0.000000 -0.024380 0.019465
vertex -0.079000 -0.024943 0.023320
endloop
endfacet
facet normal 0.000000 -0.989469 -0.144742
outer loop
vertex -0.079000 -0.024943 0.023320
vertex 0.000000 -0.024380 0.019465
vertex 0.000000 -0.024943 0.023320
endloop
endfacet
facet normal 0.000000 -0.999942 0.010754
outer loop
vertex -0.079000 -0.024943 0.023320
vertex 0.000000 -0.024943 0.023320
vertex -0.079000 -0.024902 0.027216
endloop
endfacet
facet normal 0.000000 -0.999942 0.010752
outer loop
vertex -0.079000 -0.024902 0.027216
vertex 0.000000 -0.024943 0.023320
vertex 0.000000 -0.024902 0.027216
endloop
endfacet
facet normal 0.000000 -0.986128 0.165985
outer loop
vertex -0.079000 -0.024902 0.027216
vertex 0.000000 -0.024902 0.027216
vertex -0.079000 -0.024255 0.031058
endloop
endfacet
facet normal 0.000000 -0.986128 0.165986
outer loop
vertex -0.079000 -0.024255 0.031058
vertex 0.000000 -0.024902 0.027216
vertex 0.000000 -0.024255 0.031058
endloop
endfacet
facet normal 0.000000 -0.948363 0.317187
outer loop
vertex -0.079000 -0.024255 0.031058
vertex 0.000000 -0.024255 0.031058
vertex -0.079000 -0.023019 0.034753
endloop
endfacet
facet normal 0.000000 -0.948363 0.317187
outer loop
vertex -0.079000 -0.023019 0.034753
vertex 0.000000 -0.024255 0.031058
vertex 0.000000 -0.023019 0.034753
endloop
endfacet
facet normal 0.000000 -0.887564 0.460684
outer loop
vertex -0.079000 -0.023019 0.034753
vertex 0.000000 -0.023019 0.034753
vertex -0.079000 -0.021224 0.038211
endloop
endfacet
facet normal 0.000000 -0.887564 0.460684
outer loop
vertex -0.079000 -0.021224 0.038211
vertex 0.000000 -0.023019 0.034753
vertex 0.000000 -0.021224 0.038211
endloop
endfacet
facet normal 0.000000 -0.805208 0.592993
outer loop
vertex -0.079000 -0.021224 0.038211
vertex 0.000000 -0.021224 0.038211
vertex -0.079000 -0.018914 0.041348
endloop
endfacet
facet normal 0.000000 -0.805208 0.592992
outer loop
vertex -0.079000 -0.018914 0.041348
vertex 0.000000 -0.021224 0.038211
vertex 0.000000 -0.018914 0.041348
endloop
endfacet
facet normal 0.000000 -0.703295 0.710898
outer loop
vertex -0.079000 -0.018914 0.041348
vertex 0.000000 -0.018914 0.041348
vertex -0.079000 -0.016144 0.044088
endloop
endfacet
facet normal 0.000000 -0.703295 0.710898
outer loop
vertex -0.079000 -0.016144 0.044088
vertex 0.000000 -0.018914 0.041348
vertex 0.000000 -0.016144 0.044088
endloop
endfacet
facet normal 0.000000 -0.584299 0.811539
outer loop
vertex -0.031631 -0.014878 0.045000
vertex -0.079000 -0.014878 0.045000
vertex -0.079000 -0.016144 0.044088
endloop
endfacet
facet normal 0.000000 -0.584298 0.811539
outer loop
vertex -0.031631 -0.014878 0.045000
vertex -0.079000 -0.016144 0.044088
vertex 0.000000 -0.016144 0.044088
endloop
endfacet
facet normal -0.000000 -0.584299 0.811539
outer loop
vertex 0.000000 -0.016144 0.044088
vertex 0.000000 -0.014878 0.045000
vertex -0.031631 -0.014878 0.045000
endloop
endfacet
facet normal 0.000000 0.584298 0.811539
outer loop
vertex -0.079000 0.014878 0.045000
vertex -0.047369 0.014878 0.045000
vertex -0.079000 0.016144 0.044088
endloop
endfacet
facet normal -0.000000 0.584299 0.811538
outer loop
vertex -0.000000 0.016144 0.044088
vertex -0.079000 0.016144 0.044088
vertex -0.047369 0.014878 0.045000
endloop
endfacet
facet normal -0.000000 0.584299 0.811539
outer loop
vertex -0.000000 0.016144 0.044088
vertex -0.047369 0.014878 0.045000
vertex -0.000000 0.014878 0.045000
endloop
endfacet
facet normal -0.000000 0.703295 0.710898
outer loop
vertex -0.079000 0.016144 0.044088
vertex -0.000000 0.016144 0.044088
vertex -0.079000 0.018914 0.041348
endloop
endfacet
facet normal -0.000000 0.703295 0.710898
outer loop
vertex -0.079000 0.018914 0.041348
vertex -0.000000 0.016144 0.044088
vertex -0.000000 0.018914 0.041348
endloop
endfacet
facet normal -0.000000 0.805208 0.592992
outer loop
vertex -0.079000 0.018914 0.041348
vertex -0.000000 0.018914 0.041348
vertex -0.079000 0.021224 0.038211
endloop
endfacet
facet normal 0.000000 0.805208 0.592993
outer loop
vertex -0.079000 0.021224 0.038211
vertex -0.000000 0.018914 0.041348
vertex -0.000000 0.021224 0.038211
endloop
endfacet
facet normal -0.000000 0.887564 0.460684
outer loop
vertex -0.079000 0.021224 0.038211
vertex -0.000000 0.021224 0.038211
vertex -0.079000 0.023019 0.034753
endloop
endfacet
facet normal 0.000000 0.887564 0.460684
outer loop
vertex -0.079000 0.023019 0.034753
vertex -0.000000 0.021224 0.038211
vertex -0.000000 0.023019 0.034753
endloop
endfacet
facet normal -0.000000 0.948363 0.317187
outer loop
vertex -0.079000 0.023019 0.034753
vertex -0.000000 0.023019 0.034753
vertex -0.079000 0.024255 0.031058
endloop
endfacet
facet normal -0.000000 0.948363 0.317188
outer loop
vertex -0.079000 0.024255 0.031058
vertex -0.000000 0.023019 0.034753
vertex -0.000000 0.024255 0.031058
endloop
endfacet
facet normal -0.000000 0.986128 0.165986
outer loop
vertex -0.079000 0.024255 0.031058
vertex -0.000000 0.024255 0.031058
vertex -0.079000 0.024902 0.027216
endloop
endfacet
facet normal -0.000000 0.986128 0.165985
outer loop
vertex -0.079000 0.024902 0.027216
vertex -0.000000 0.024255 0.031058
vertex -0.000000 0.024902 0.027216
endloop
endfacet
facet normal -0.000000 0.999942 0.010752
outer loop
vertex -0.079000 0.024902 0.027216
vertex -0.000000 0.024902 0.027216
vertex -0.079000 0.024944 0.023320
endloop
endfacet
facet normal -0.000000 0.999942 0.010754
outer loop
vertex -0.079000 0.024944 0.023320
vertex -0.000000 0.024902 0.027216
vertex -0.000000 0.024944 0.023320
endloop
endfacet
facet normal -0.000000 0.989469 -0.144742
outer loop
vertex -0.079000 0.024944 0.023320
vertex -0.000000 0.024944 0.023320
vertex -0.079000 0.024380 0.019465
endloop
endfacet
facet normal -0.000000 0.989470 -0.144741
outer loop
vertex -0.079000 0.024380 0.019465
vertex -0.000000 0.024944 0.023320
vertex -0.000000 0.024380 0.019465
endloop
endfacet
facet normal -0.000000 0.954965 -0.296719
outer loop
vertex -0.079000 0.024380 0.019465
vertex -0.000000 0.024380 0.019465
vertex -0.079000 0.023224 0.015744
endloop
endfacet
facet normal -0.000000 0.954965 -0.296720
outer loop
vertex -0.079000 0.023224 0.015744
vertex -0.000000 0.024380 0.019465
vertex -0.000000 0.023224 0.015744
endloop
endfacet
facet normal -0.000000 0.897266 -0.441491
outer loop
vertex -0.079000 0.023224 0.015744
vertex -0.000000 0.023224 0.015744
vertex -0.079000 0.021503 0.012248
endloop
endfacet
facet normal -0.000000 0.897266 -0.441491
outer loop
vertex -0.079000 0.021503 0.012248
vertex -0.000000 0.023224 0.015744
vertex -0.000000 0.021503 0.012248
endloop
endfacet
facet normal -0.000000 0.817774 -0.575540
outer loop
vertex -0.079000 0.021503 0.012248
vertex -0.000000 0.021503 0.012248
vertex -0.079000 0.019261 0.009062
endloop
endfacet
facet normal -0.000000 0.817773 -0.575540
outer loop
vertex -0.079000 0.019261 0.009062
vertex -0.000000 0.021503 0.012248
vertex -0.000000 0.019261 0.009062
endloop
endfacet
facet normal -0.000000 0.718420 -0.695610
outer loop
vertex -0.079000 0.019261 0.009062
vertex -0.000000 0.019261 0.009062
vertex -0.079000 0.016551 0.006263
endloop
endfacet
facet normal -0.000000 0.718420 -0.695610
outer loop
vertex -0.079000 0.016551 0.006263
vertex -0.000000 0.019261 0.009062
vertex -0.000000 0.016551 0.006263
endloop
endfacet
facet normal -0.000000 0.601617 -0.798785
outer loop
vertex -0.079000 0.016551 0.006263
vertex -0.000000 0.016551 0.006263
vertex -0.079000 0.013439 0.003919
endloop
endfacet
facet normal 0.000000 -0.989470 -0.144741
outer loop
vertex -0.158000 -0.024943 0.023320
vertex -0.158000 -0.024380 0.019465
vertex -0.079000 -0.024380 0.019465
endloop
endfacet
facet normal 0.000000 -0.954965 -0.296719
outer loop
vertex -0.079000 -0.024380 0.019465
vertex -0.158000 -0.024380 0.019465
vertex -0.079000 -0.023223 0.015744
endloop
endfacet
facet normal 0.000000 -0.989470 -0.144741
outer loop
vertex -0.158000 -0.024943 0.023320
vertex -0.079000 -0.024380 0.019465
vertex -0.079000 -0.024943 0.023320
endloop
endfacet
facet normal 0.000000 -0.999942 0.010752
outer loop
vertex -0.158000 -0.024902 0.027216
vertex -0.158000 -0.024943 0.023320
vertex -0.079000 -0.024943 0.023320
endloop
endfacet
facet normal 0.000000 -0.999942 0.010754
outer loop
vertex -0.158000 -0.024902 0.027216
vertex -0.079000 -0.024943 0.023320
vertex -0.079000 -0.024902 0.027216
endloop
endfacet
facet normal 0.000000 -0.986128 0.165984
outer loop
vertex -0.158000 -0.024255 0.031058
vertex -0.158000 -0.024902 0.027216
vertex -0.079000 -0.024902 0.027216
endloop
endfacet
facet normal 0.000000 -0.986128 0.165987
outer loop
vertex -0.158000 -0.024255 0.031058
vertex -0.079000 -0.024902 0.027216
vertex -0.079000 -0.024255 0.031058
endloop
endfacet
facet normal 0.000000 -0.948363 0.317187
outer loop
vertex -0.158000 -0.023019 0.034753
vertex -0.158000 -0.024255 0.031058
vertex -0.079000 -0.024255 0.031058
endloop
endfacet
facet normal 0.000000 -0.948363 0.317187
outer loop
vertex -0.158000 -0.023019 0.034753
vertex -0.079000 -0.024255 0.031058
vertex -0.079000 -0.023019 0.034753
endloop
endfacet
facet normal 0.000000 -0.887564 0.460684
outer loop
vertex -0.158000 -0.021224 0.038211
vertex -0.158000 -0.023019 0.034753
vertex -0.079000 -0.023019 0.034753
endloop
endfacet
facet normal 0.000000 -0.887564 0.460684
outer loop
vertex -0.158000 -0.021224 0.038211
vertex -0.079000 -0.023019 0.034753
vertex -0.079000 -0.021224 0.038211
endloop
endfacet
facet normal 0.000000 -0.805208 0.592992
outer loop
vertex -0.158000 -0.018914 0.041348
vertex -0.158000 -0.021224 0.038211
vertex -0.079000 -0.021224 0.038211
endloop
endfacet
facet normal 0.000000 -0.805208 0.592993
outer loop
vertex -0.158000 -0.018914 0.041348
vertex -0.079000 -0.021224 0.038211
vertex -0.079000 -0.018914 0.041348
endloop
endfacet
facet normal 0.000000 -0.703295 0.710898
outer loop
vertex -0.158000 -0.016144 0.044088
vertex -0.158000 -0.018914 0.041348
vertex -0.079000 -0.018914 0.041348
endloop
endfacet
facet normal 0.000000 -0.703296 0.710898
outer loop
vertex -0.158000 -0.016144 0.044088
vertex -0.079000 -0.018914 0.041348
vertex -0.079000 -0.016144 0.044088
endloop
endfacet
facet normal 0.000000 -0.584299 0.811539
outer loop
vertex -0.110631 -0.014878 0.045000
vertex -0.158000 -0.014878 0.045000
vertex -0.158000 -0.016144 0.044088
endloop
endfacet
facet normal 0.000000 -0.584298 0.811539
outer loop
vertex -0.110631 -0.014878 0.045000
vertex -0.158000 -0.016144 0.044088
vertex -0.079000 -0.016144 0.044088
endloop
endfacet
facet normal -0.000000 -0.584299 0.811539
outer loop
vertex -0.079000 -0.016144 0.044088
vertex -0.079000 -0.014878 0.045000
vertex -0.110631 -0.014878 0.045000
endloop
endfacet
facet normal -0.000000 0.584298 0.811539
outer loop
vertex -0.158000 0.014878 0.045000
vertex -0.126369 0.014878 0.045000
vertex -0.158000 0.016144 0.044088
endloop
endfacet
facet normal -0.000000 0.584299 0.811539
outer loop
vertex -0.079000 0.016144 0.044088
vertex -0.158000 0.016144 0.044088
vertex -0.126369 0.014878 0.045000
endloop
endfacet
facet normal -0.000000 0.584299 0.811539
outer loop
vertex -0.079000 0.016144 0.044088
vertex -0.126369 0.014878 0.045000
vertex -0.079000 0.014878 0.045000
endloop
endfacet
facet normal -0.000000 0.703295 0.710898
outer loop
vertex -0.158000 0.018914 0.041348
vertex -0.158000 0.016144 0.044088
vertex -0.079000 0.016144 0.044088
endloop
endfacet
facet normal -0.000000 0.703295 0.710898
outer loop
vertex -0.158000 0.018914 0.041348
vertex -0.079000 0.016144 0.044088
vertex -0.079000 0.018914 0.041348
endloop
endfacet
facet normal -0.000000 0.805208 0.592993
outer loop
vertex -0.158000 0.021224 0.038211
vertex -0.158000 0.018914 0.041348
vertex -0.079000 0.018914 0.041348
endloop
endfacet
facet normal 0.000000 0.805208 0.592992
outer loop
vertex -0.158000 0.021224 0.038211
vertex -0.079000 0.018914 0.041348
vertex -0.079000 0.021224 0.038211
endloop
endfacet
facet normal -0.000000 0.887564 0.460684
outer loop
vertex -0.158000 0.023019 0.034753
vertex -0.158000 0.021224 0.038211
vertex -0.079000 0.021224 0.038211
endloop
endfacet
facet normal 0.000000 0.887564 0.460684
outer loop
vertex -0.158000 0.023019 0.034753
vertex -0.079000 0.021224 0.038211
vertex -0.079000 0.023019 0.034753
endloop
endfacet
facet normal -0.000000 0.948363 0.317187
outer loop
vertex -0.158000 0.024255 0.031058
vertex -0.158000 0.023019 0.034753
vertex -0.079000 0.023019 0.034753
endloop
endfacet
facet normal -0.000000 0.948363 0.317187
outer loop
vertex -0.158000 0.024255 0.031058
vertex -0.079000 0.023019 0.034753
vertex -0.079000 0.024255 0.031058
endloop
endfacet
facet normal -0.000000 0.986128 0.165986
outer loop
vertex -0.158000 0.024902 0.027216
vertex -0.158000 0.024255 0.031058
vertex -0.079000 0.024255 0.031058
endloop
endfacet
facet normal -0.000000 0.986128 0.165986
outer loop
vertex -0.158000 0.024902 0.027216
vertex -0.079000 0.024255 0.031058
vertex -0.079000 0.024902 0.027216
endloop
endfacet
facet normal -0.000000 0.999942 0.010752
outer loop
vertex -0.158000 0.024943 0.023320
vertex -0.158000 0.024902 0.027216
vertex -0.079000 0.024902 0.027216
endloop
endfacet
facet normal -0.000000 0.999942 0.010752
outer loop
vertex -0.158000 0.024943 0.023320
vertex -0.079000 0.024902 0.027216
vertex -0.079000 0.024944 0.023320
endloop
endfacet
facet normal -0.000000 0.989470 -0.144740
outer loop
vertex -0.158000 0.024380 0.019465
vertex -0.158000 0.024943 0.023320
vertex -0.079000 0.024944 0.023320
endloop
endfacet
facet normal -0.000000 0.989469 -0.144742
outer loop
vertex -0.158000 0.024380 0.019465
vertex -0.079000 0.024944 0.023320
vertex -0.079000 0.024380 0.019465
endloop
endfacet
facet normal -0.000000 0.954965 -0.296718
outer loop
vertex -0.158000 0.023224 0.015744
vertex -0.158000 0.024380 0.019465
vertex -0.079000 0.024380 0.019465
endloop
endfacet
facet normal -0.000000 0.954965 -0.296720
outer loop
vertex -0.158000 0.023224 0.015744
vertex -0.079000 0.024380 0.019465
vertex -0.079000 0.023224 0.015744
endloop
endfacet
facet normal -0.000000 0.897265 -0.441492
outer loop
vertex -0.158000 0.021503 0.012248
vertex -0.158000 0.023224 0.015744
vertex -0.079000 0.023224 0.015744
endloop
endfacet
facet normal -0.000000 0.897266 -0.441490
outer loop
vertex -0.158000 0.021503 0.012248
vertex -0.079000 0.023224 0.015744
vertex -0.079000 0.021503 0.012248
endloop
endfacet
facet normal -0.000000 0.817773 -0.575540
outer loop
vertex -0.158000 0.019261 0.009062
vertex -0.158000 0.021503 0.012248
vertex -0.079000 0.021503 0.012248
endloop
endfacet
facet normal -0.000000 0.817773 -0.575540
outer loop
vertex -0.158000 0.019261 0.009062
vertex -0.079000 0.021503 0.012248
vertex -0.079000 0.019261 0.009062
endloop
endfacet
facet normal -0.000000 0.718419 -0.695610
outer loop
vertex -0.158000 0.016551 0.006263
vertex -0.158000 0.019261 0.009062
vertex -0.079000 0.019261 0.009062
endloop
endfacet
facet normal -0.000000 0.718420 -0.695610
outer loop
vertex -0.158000 0.016551 0.006263
vertex -0.079000 0.019261 0.009062
vertex -0.079000 0.016551 0.006263
endloop
endfacet
facet normal -0.000000 0.601617 -0.798785
outer loop
vertex -0.158000 0.013439 0.003919
vertex -0.158000 0.016551 0.006263
vertex -0.079000 0.016551 0.006263
endloop
endfacet
facet normal -0.000000 0.601617 -0.798785
outer loop
vertex -0.158000 0.013439 0.003919
vertex -0.079000 0.016551 0.006263
vertex -0.079000 0.013439 0.003919
endloop
endfacet
facet normal 0.000000 -1.000000 0.000000
outer loop
vertex 0.237000 -0.010000 0.000000
vertex 0.237000 -0.010000 0.002087
vertex -0.237000 -0.010000 0.000000
endloop
endfacet
facet normal 0.000000 -1.000000 0.000000
outer loop
vertex -0.237000 -0.010000 0.000000
vertex 0.237000 -0.010000 0.002087
vertex -0.237000 -0.010000 0.002087
endloop
endfacet
facet normal -1.000000 0.000000 0.000000
outer loop
vertex -0.237000 -0.010000 0.000000
vertex -0.237000 -0.010000 0.002087
vertex -0.237000 0.010000 0.000000
endloop
endfacet
facet normal -1.000000 0.000000 0.000000
outer loop
vertex -0.237000 0.010000 0.000000
vertex -0.237000 -0.010000 0.002087
vertex -0.237000 0.010000 0.002087
endloop
endfacet
facet normal -1.000000 0.000000 0.000000
outer loop
vertex -0.237000 0.010000 0.002087
vertex -0.237000 -0.010000 0.002087
vertex -0.237000 0.013347 0.003861
endloop
endfacet
facet normal -1.000000 0.000000 0.000000
outer loop
vertex -0.237000 0.013347 0.003861
vertex -0.237000 -0.010000 0.002087
vertex -0.237000 0.016388 0.006120
endloop
endfacet
facet normal -1.000000 0.000004 0.000000
outer loop
vertex -0.237000 0.016388 0.006120
vertex -0.237000 -0.010000 0.002087
vertex -0.237000 0.019052 0.008813
endloop
endfacet
facet normal -1.000000 0.000000 0.000000
outer loop
vertex -0.237000 0.019052 0.008813
vertex -0.237000 -0.010000 0.002087
vertex -0.237000 0.021279 0.011878
endloop
endfacet
facet normal -1.000000 0.000000 0.000000
outer loop
vertex -0.237000 0.021279 0.011878
vertex -0.237000 -0.010000 0.002087
vertex -0.237000 0.023018 0.015243
endloop
endfacet
facet normal -1.000000 0.000000 0.000000
outer loop
vertex -0.237000 0.023018 0.015243
vertex -0.237000 -0.010000 0.002087
vertex -0.237000 0.024227 0.018833
endloop
endfacet
facet normal -1.000000 0.000000 0.000000
outer loop
vertex -0.237000 0.024227 0.018833
vertex -0.237000 -0.010000 0.002087
vertex -0.237000 0.024881 0.022564
endloop
endfacet
facet normal -1.000000 -0.000007 0.000000
outer loop
vertex -0.237000 0.024881 0.022564
vertex -0.237000 -0.010000 0.002087
vertex -0.237000 0.024963 0.026352
endloop
endfacet
facet normal -1.000000 0.000000 0.000000
outer loop
vertex -0.237000 0.024963 0.026352
vertex -0.237000 -0.010000 0.002087
vertex -0.237000 0.024473 0.030108
endloop
endfacet
facet normal -1.000000 0.000000 0.000000
outer loop
vertex -0.237000 0.024473 0.030108
vertex -0.237000 -0.010000 0.002087
vertex -0.237000 0.023420 0.033747
endloop
endfacet
facet normal -1.000000 0.000000 0.000000
outer loop
vertex -0.237000 0.023420 0.033747
vertex -0.237000 -0.010000 0.002087
vertex -0.237000 0.021830 0.037185
endloop
endfacet
facet normal -1.000000 0.000000 0.000000
outer loop
vertex -0.237000 0.021830 0.037185
vertex -0.237000 -0.010000 0.002087
vertex -0.237000 0.019738 0.040343
endloop
endfacet
facet normal -1.000000 0.000000 0.000000
outer loop
vertex -0.237000 0.019738 0.040343
vertex -0.237000 -0.010000 0.002087
vertex -0.237000 0.017193 0.043149
endloop
endfacet
facet normal -1.000000 -0.000010 0.000000
outer loop
vertex -0.237000 0.017193 0.043149
vertex -0.237000 -0.010000 0.002087
vertex -0.237000 0.013953 0.045000
endloop
endfacet
facet normal -1.000000 0.000000 0.000000
outer loop
vertex -0.237000 0.017193 0.043149
vertex -0.237000 0.013953 0.045000
vertex -0.237000 0.014916 0.045000
endloop
endfacet
facet normal -1.000000 0.000000 0.000000
outer loop
vertex -0.237000 0.009851 0.045000
vertex -0.237000 0.013953 0.045000
vertex -0.237000 -0.010000 0.002087
endloop
endfacet
facet normal -1.000000 0.000000 0.000000
outer loop
vertex -0.237000 0.006027 0.045000
vertex -0.237000 0.009851 0.045000
vertex -0.237000 -0.010000 0.002087
endloop
endfacet
facet normal -1.000000 0.000008 0.000000
outer loop
vertex -0.237000 0.006027 0.045000
vertex -0.237000 -0.010000 0.002087
vertex -0.237000 -0.013347 0.003861
endloop
endfacet
facet normal -1.000000 0.000000 0.000000
outer loop
vertex -0.237000 0.006027 0.045000
vertex -0.237000 -0.013347 0.003861
vertex -0.237000 0.005683 0.045000
endloop
endfacet
facet normal -1.000000 -0.000001 0.000000
outer loop
vertex -0.237000 0.005683 0.045000
vertex -0.237000 -0.013347 0.003861
vertex -0.237000 -0.016388 0.006120
endloop
endfacet
facet normal -1.000000 0.000000 0.000000
outer loop
vertex -0.237000 0.005683 0.045000
vertex -0.237000 -0.016388 0.006120
vertex -0.237000 0.005314 0.045000
endloop
endfacet
facet normal -1.000000 -0.000004 0.000000
outer loop
vertex -0.237000 0.005314 0.045000
vertex -0.237000 -0.016388 0.006120
vertex -0.237000 -0.019052 0.008813
endloop
endfacet
facet normal -1.000000 0.000000 0.000000
outer loop
vertex -0.237000 0.005314 0.045000
vertex -0.237000 -0.019052 0.008813
vertex -0.237000 0.004912 0.045000
endloop
endfacet
facet normal -1.000000 -0.000001 0.000000
outer loop
vertex -0.237000 0.004912 0.045000
vertex -0.237000 -0.019052 0.008813
vertex -0.237000 -0.021279 0.011878
endloop
endfacet
facet normal -1.000000 0.000000 0.000000
outer loop
vertex -0.237000 0.004912 0.045000
vertex -0.237000 -0.021279 0.011878
vertex -0.237000 0.004468 0.045000
endloop
endfacet
facet normal -1.000000 -0.000002 0.000000
outer loop
vertex -0.237000 0.004468 0.045000
vertex -0.237000 -0.021279 0.011878
vertex -0.237000 -0.023018 0.015243
endloop
endfacet
facet normal -1.000000 0.000000 0.000000
outer loop
vertex -0.237000 0.004468 0.045000
vertex -0.237000 -0.023018 0.015243
vertex -0.237000 0.003968 0.045000
endloop
endfacet
facet normal -1.000000 -0.000002 0.000000
outer loop
vertex -0.237000 0.003968 0.045000
vertex -0.237000 -0.023018 0.015243
vertex -0.237000 -0.024227 0.018833
endloop
endfacet
facet normal -1.000000 0.000000 0.000000
outer loop
vertex -0.237000 0.003968 0.045000
vertex -0.237000 -0.024227 0.018833
vertex -0.237000 0.003395 0.045000
endloop
endfacet
facet normal -1.000000 0.000007 0.000000
outer loop
vertex -0.237000 0.003395 0.045000
vertex -0.237000 -0.024227 0.018833
vertex -0.237000 -0.024881 0.022564
endloop
endfacet
facet normal -1.000000 0.000000 0.000000
outer loop
vertex -0.237000 0.003395 0.045000
vertex -0.237000 -0.024881 0.022564
vertex -0.237000 0.002721 0.045000
endloop
endfacet
facet normal -1.000000 -0.000003 0.000000
outer loop
vertex -0.237000 0.002721 0.045000
vertex -0.237000 -0.024881 0.022564
vertex -0.237000 -0.024963 0.026352
endloop
endfacet
facet normal -1.000000 0.000000 0.000000
outer loop
vertex -0.237000 0.002721 0.045000
vertex -0.237000 -0.024963 0.026352
vertex -0.237000 0.001908 0.045000
endloop
endfacet
facet normal -1.000000 -0.000001 0.000000
outer loop
vertex -0.237000 0.001908 0.045000
vertex -0.237000 -0.024963 0.026352
vertex -0.237000 -0.024473 0.030108
endloop
endfacet
facet normal -1.000000 0.000000 0.000000
outer loop
vertex -0.237000 0.001908 0.045000
vertex -0.237000 -0.024473 0.030108
vertex -0.237000 0.000895 0.045000
endloop
endfacet
facet normal -1.000000 0.000000 0.000000
outer loop
vertex -0.237000 -0.003014 0.045000
vertex -0.237000 0.000895 0.045000
vertex -0.237000 -0.024473 0.030108
endloop
endfacet
facet normal -1.000000 0.000006 0.000000
outer loop
vertex -0.237000 -0.003014 0.045000
vertex -0.237000 -0.024473 0.030108
vertex -0.237000 -0.023420 0.033747
endloop
endfacet
facet normal -1.000000 0.000000 0.000000
outer loop
vertex -0.237000 -0.003014 0.045000
vertex -0.237000 -0.023420 0.033747
vertex -0.237000 -0.004251 0.045000
endloop
endfacet
facet normal -1.000000 -0.000005 0.000000
outer loop
vertex -0.237000 -0.004251 0.045000
vertex -0.237000 -0.023420 0.033747
vertex -0.237000 -0.021830 0.037185
endloop
endfacet
facet normal -1.000000 0.000000 0.000000
outer loop
vertex -0.237000 -0.004251 0.045000
vertex -0.237000 -0.021830 0.037185
vertex -0.237000 -0.005856 0.045000
endloop
endfacet
facet normal -1.000000 0.000000 0.000000
outer loop
vertex -0.237000 -0.005856 0.045000
vertex -0.237000 -0.021830 0.037185
vertex -0.237000 -0.019738 0.040343
endloop
endfacet
facet normal -1.000000 0.000000 0.000000
outer loop
vertex -0.237000 -0.005856 0.045000
vertex -0.237000 -0.019738 0.040343
vertex -0.237000 -0.008051 0.045000
endloop
endfacet
facet normal -1.000000 0.000000 0.000000
outer loop
vertex -0.237000 -0.008051 0.045000
vertex -0.237000 -0.019738 0.040343
vertex -0.237000 -0.017193 0.043149
endloop
endfacet
facet normal -1.000000 0.000000 0.000000
outer loop
vertex -0.237000 -0.008051 0.045000
vertex -0.237000 -0.017193 0.043149
vertex -0.237000 -0.011280 0.045000
endloop
endfacet
facet normal -1.000000 0.000000 0.000000
outer loop
vertex -0.237000 -0.014916 0.045000
vertex -0.237000 -0.011280 0.045000
vertex -0.237000 -0.017193 0.043149
endloop
endfacet
facet normal 1.000000 0.000000 0.000000
outer loop
vertex 0.237000 -0.010000 0.000000
vertex 0.237000 0.010000 0.000000
vertex 0.237000 -0.010000 0.002087
endloop
endfacet
facet normal 1.000000 0.000000 0.000000
outer loop
vertex 0.237000 -0.010000 0.002087
vertex 0.237000 0.010000 0.000000
vertex 0.237000 0.010000 0.002087
endloop
endfacet
facet normal 1.000000 0.000000 0.000000
outer loop
vertex 0.237000 -0.010000 0.002087
vertex 0.237000 0.010000 0.002087
vertex 0.237000 0.013347 0.003861
endloop
endfacet
facet normal 1.000000 0.000000 0.000000
outer loop
vertex 0.237000 0.013347 0.003861
vertex 0.237000 0.016388 0.006120
vertex 0.237000 -0.010000 0.002087
endloop
endfacet
facet normal 1.000000 0.000002 0.000000
outer loop
vertex 0.237000 -0.010000 0.002087
vertex 0.237000 0.016388 0.006120
vertex 0.237000 0.019052 0.008813
endloop
endfacet
facet normal 1.000000 -0.000002 0.000000
outer loop
vertex 0.237000 -0.010000 0.002087
vertex 0.237000 0.019052 0.008813
vertex 0.237000 0.021279 0.011878
endloop
endfacet
facet normal 1.000000 0.000000 0.000000
outer loop
vertex 0.237000 0.021279 0.011878
vertex 0.237000 0.023018 0.015243
vertex 0.237000 -0.010000 0.002087
endloop
endfacet
facet normal 1.000000 0.000002 0.000000
outer loop
vertex 0.237000 -0.010000 0.002087
vertex 0.237000 0.023018 0.015243
vertex 0.237000 0.024227 0.018833
endloop
endfacet
facet normal 1.000000 0.000001 0.000000
outer loop
vertex 0.237000 -0.010000 0.002087
vertex 0.237000 0.024227 0.018833
vertex 0.237000 0.024881 0.022564
endloop
endfacet
facet normal 1.000000 -0.000007 0.000000
outer loop
vertex 0.237000 0.024881 0.022564
vertex 0.237000 0.024963 0.026352
vertex 0.237000 -0.010000 0.002087
endloop
endfacet
facet normal 1.000000 0.000001 0.000000
outer loop
vertex 0.237000 -0.010000 0.002087
vertex 0.237000 0.024963 0.026352
vertex 0.237000 0.024473 0.030108
endloop
endfacet
facet normal 1.000000 0.000001 0.000000
outer loop
vertex 0.237000 -0.010000 0.002087
vertex 0.237000 0.024473 0.030108
vertex 0.237000 0.023420 0.033747
endloop
endfacet
facet normal 1.000000 0.000000 0.000000
outer loop
vertex 0.237000 0.023420 0.033747
vertex 0.237000 0.021830 0.037185
vertex 0.237000 -0.010000 0.002087
endloop
endfacet
facet normal 1.000000 0.000003 0.000000
outer loop
vertex 0.237000 -0.010000 0.002087
vertex 0.237000 0.021830 0.037185
vertex 0.237000 0.019738 0.040343
endloop
endfacet
facet normal 1.000000 -0.000001 0.000000
outer loop
vertex 0.237000 -0.010000 0.002087
vertex 0.237000 0.019738 0.040343
vertex 0.237000 0.017193 0.043149
endloop
endfacet
facet normal 1.000000 -0.000010 0.000000
outer loop
vertex 0.237000 0.013953 0.045000
vertex 0.237000 -0.010000 0.002087
vertex 0.237000 0.017193 0.043149
endloop
endfacet
facet normal 1.000000 0.000000 0.000000
outer loop
vertex 0.237000 0.013953 0.045000
vertex 0.237000 0.017193 0.043149
vertex 0.237000 0.014916 0.045000
endloop
endfacet
facet normal 1.000000 0.000000 0.000000
outer loop
vertex 0.237000 0.009851 0.045000
vertex 0.237000 -0.010000 0.002087
vertex 0.237000 0.013953 0.045000
endloop
endfacet
facet normal 1.000000 0.000000 0.000000
outer loop
vertex 0.237000 0.006027 0.045000
vertex 0.237000 -0.010000 0.002087
vertex 0.237000 0.009851 0.045000
endloop
endfacet
facet normal 1.000000 0.000000 0.000000
outer loop
vertex 0.237000 -0.003014 0.045000
vertex 0.237000 -0.024473 0.030108
vertex 0.237000 0.000895 0.045000
endloop
endfacet
facet normal 1.000000 0.000000 0.000000
outer loop
vertex 0.237000 -0.024473 0.030108
vertex 0.237000 -0.024963 0.026352
vertex 0.237000 0.001908 0.045000
endloop
endfacet
facet normal 1.000000 0.000000 0.000000
outer loop
vertex 0.237000 -0.024473 0.030108
vertex 0.237000 0.001908 0.045000
vertex 0.237000 0.000895 0.045000
endloop
endfacet
facet normal 1.000000 0.000000 0.000000
outer loop
vertex 0.237000 -0.024963 0.026352
vertex 0.237000 -0.024881 0.022564
vertex 0.237000 0.002721 0.045000
endloop
endfacet
facet normal 1.000000 0.000000 0.000000
outer loop
vertex 0.237000 -0.024963 0.026352
vertex 0.237000 0.002721 0.045000
vertex 0.237000 0.001908 0.045000
endloop
endfacet
facet normal 1.000000 0.000000 0.000000
outer loop
vertex 0.237000 -0.014916 0.045000
vertex 0.237000 -0.017193 0.043149
vertex 0.237000 -0.011280 0.045000
endloop
endfacet
facet normal 1.000000 0.000000 0.000000
outer loop
vertex 0.237000 -0.017193 0.043149
vertex 0.237000 -0.019738 0.040343
vertex 0.237000 -0.008051 0.045000
endloop
endfacet
facet normal 1.000000 0.000000 0.000000
outer loop
vertex 0.237000 -0.017193 0.043149
vertex 0.237000 -0.008051 0.045000
vertex 0.237000 -0.011280 0.045000
endloop
endfacet
facet normal 1.000000 0.000000 0.000000
outer loop
vertex 0.237000 -0.019738 0.040343
vertex 0.237000 -0.021830 0.037185
vertex 0.237000 -0.005856 0.045000
endloop
endfacet
facet normal 1.000000 0.000000 0.000000
outer loop
vertex 0.237000 -0.019738 0.040343
vertex 0.237000 -0.005856 0.045000
vertex 0.237000 -0.008051 0.045000
endloop
endfacet
facet normal 1.000000 -0.000010 0.000000
outer loop
vertex 0.237000 -0.021830 0.037185
vertex 0.237000 -0.023420 0.033747
vertex 0.237000 -0.004251 0.045000
endloop
endfacet
facet normal 1.000000 0.000000 0.000000
outer loop
vertex 0.237000 -0.021830 0.037185
vertex 0.237000 -0.004251 0.045000
vertex 0.237000 -0.005856 0.045000
endloop
endfacet
facet normal 1.000000 0.000007 0.000000
outer loop
vertex 0.237000 -0.023420 0.033747
vertex 0.237000 -0.024473 0.030108
vertex 0.237000 -0.003014 0.045000
endloop
endfacet
facet normal 1.000000 0.000000 0.000000
outer loop
vertex 0.237000 -0.023420 0.033747
vertex 0.237000 -0.003014 0.045000
vertex 0.237000 -0.004251 0.045000
endloop
endfacet
facet normal 1.000000 0.000008 0.000000
outer loop
vertex 0.237000 -0.024881 0.022564
vertex 0.237000 -0.024227 0.018833
vertex 0.237000 0.003395 0.045000
endloop
endfacet
facet normal 1.000000 0.000000 0.000000
outer loop
vertex 0.237000 -0.024881 0.022564
vertex 0.237000 0.003395 0.045000
vertex 0.237000 0.002721 0.045000
endloop
endfacet
facet normal 1.000000 0.000000 0.000000
outer loop
vertex 0.237000 -0.024227 0.018833
vertex 0.237000 -0.023017 0.015243
vertex 0.237000 0.003969 0.045000
endloop
endfacet
facet normal 1.000000 0.000000 0.000000
outer loop
vertex 0.237000 -0.024227 0.018833
vertex 0.237000 0.003969 0.045000
vertex 0.237000 0.003395 0.045000
endloop
endfacet
facet normal 1.000000 0.000000 0.000000
outer loop
vertex 0.237000 -0.023017 0.015243
vertex 0.237000 -0.021279 0.011878
vertex 0.237000 0.004468 0.045000
endloop
endfacet
facet normal 1.000000 0.000000 0.000000
outer loop
vertex 0.237000 -0.023017 0.015243
vertex 0.237000 0.004468 0.045000
vertex 0.237000 0.003969 0.045000
endloop
endfacet
facet normal 1.000000 0.000000 0.000000
outer loop
vertex 0.237000 -0.021279 0.011878
vertex 0.237000 -0.019052 0.008813
vertex 0.237000 0.004912 0.045000
endloop
endfacet
facet normal 1.000000 0.000000 0.000000
outer loop
vertex 0.237000 -0.021279 0.011878
vertex 0.237000 0.004912 0.045000
vertex 0.237000 0.004468 0.045000
endloop
endfacet
facet normal 1.000000 0.000000 0.000000
outer loop
vertex 0.237000 -0.019052 0.008813
vertex 0.237000 -0.016388 0.006120
vertex 0.237000 0.005314 0.045000
endloop
endfacet
facet normal 1.000000 0.000000 0.000000
outer loop
vertex 0.237000 -0.019052 0.008813
vertex 0.237000 0.005314 0.045000
vertex 0.237000 0.004912 0.045000
endloop
endfacet
facet normal 1.000000 0.000000 0.000000
outer loop
vertex 0.237000 -0.016388 0.006120
vertex 0.237000 -0.013347 0.003861
vertex 0.237000 0.005683 0.045000
endloop
endfacet
facet normal 1.000000 0.000000 0.000000
outer loop
vertex 0.237000 -0.016388 0.006120
vertex 0.237000 0.005683 0.045000
vertex 0.237000 0.005314 0.045000
endloop
endfacet
facet normal 1.000000 0.000011 0.000000
outer loop
vertex 0.237000 -0.013347 0.003861
vertex 0.237000 -0.010000 0.002087
vertex 0.237000 0.006027 0.045000
endloop
endfacet
facet normal 1.000000 0.000000 0.000000
outer loop
vertex 0.237000 -0.013347 0.003861
vertex 0.237000 0.006027 0.045000
vertex 0.237000 0.005683 0.045000
endloop
endfacet
facet normal -0.000000 0.000000 1.000000
outer loop
vertex 0.237000 0.013953 0.045000
vertex 0.237000 0.014916 0.045000
vertex 0.207658 0.014956 0.045000
endloop
endfacet
facet normal 0.000000 0.000000 1.000000
outer loop
vertex 0.237000 0.013953 0.045000
vertex 0.207658 0.014956 0.045000
vertex 0.158000 0.014878 0.045000
endloop
endfacet
facet normal 0.000000 0.000000 0.000000
outer loop
vertex 0.237000 0.005683 0.045000
vertex 0.237000 0.006027 0.045000
vertex 0.237000 0.009851 0.045000
endloop
endfacet
facet normal -0.000000 0.000000 1.000000
outer loop
vertex 0.237000 0.009851 0.045000
vertex 0.237000 0.013953 0.045000
vertex 0.158000 0.014878 0.045000
endloop
endfacet
facet normal 0.000000 0.000000 1.000000
outer loop
vertex 0.110631 0.014878 0.045000
vertex 0.079000 0.014878 0.045000
vertex 0.031631 0.014878 0.045000
endloop
endfacet
facet normal 0.000000 0.000000 1.000000
outer loop
vertex 0.237000 0.009851 0.045000
vertex 0.158000 0.014878 0.045000
vertex 0.110631 0.014878 0.045000
endloop
endfacet
facet normal -1.000000 0.000000 0.000000
outer loop
vertex 0.237000 0.004912 0.045000
vertex 0.237000 0.005314 0.045000
vertex 0.237000 0.005683 0.045000
endloop
endfacet
facet normal -0.000000 0.000000 1.000000
outer loop
vertex 0.237000 0.005683 0.045000
vertex 0.237000 0.009851 0.045000
vertex 0.110631 0.014878 0.045000
endloop
endfacet
facet normal 0.000000 0.000000 1.000000
outer loop
vertex 0.031631 0.014878 0.045000
vertex -0.000000 0.014878 0.045000
vertex -0.047369 0.014878 0.045000
endloop
endfacet
facet normal 0.000000 0.000000 1.000000
outer loop
vertex 0.237000 0.005683 0.045000
vertex 0.110631 0.014878 0.045000
vertex 0.031631 0.014878 0.045000
endloop
endfacet
facet normal 1.000000 0.000000 0.000000
outer loop
vertex 0.237000 0.003969 0.045000
vertex 0.237000 0.004468 0.045000
vertex 0.237000 0.004912 0.045000
endloop
endfacet
facet normal 0.000000 0.000000 1.000000
outer loop
vertex 0.237000 0.004912 0.045000
vertex 0.237000 0.005683 0.045000
vertex 0.031631 0.014878 0.045000
endloop
endfacet
facet normal 0.000000 0.000000 -1.000000
outer loop
vertex 0.031631 0.014878 0.045000
vertex -0.047369 0.014878 0.045000
vertex -0.079000 0.014878 0.045000
endloop
endfacet
facet normal -0.000000 0.000000 1.000000
outer loop
vertex 0.237000 0.004912 0.045000
vertex 0.031631 0.014878 0.045000
vertex -0.079000 0.014878 0.045000
endloop
endfacet
facet normal -1.000000 0.000000 0.000000
outer loop
vertex 0.237000 0.002721 0.045000
vertex 0.237000 0.003395 0.045000
vertex 0.237000 0.003969 0.045000
endloop
endfacet
facet normal 0.000000 0.000000 1.000000
outer loop
vertex 0.237000 0.003969 0.045000
vertex 0.237000 0.004912 0.045000
vertex -0.079000 0.014878 0.045000
endloop
endfacet
facet normal 0.000000 0.000000 1.000000
outer loop
vertex 0.237000 0.003969 0.045000
vertex -0.079000 0.014878 0.045000
vertex -0.126369 0.014878 0.045000
endloop
endfacet
facet normal 1.000000 0.000000 0.000000
outer loop
vertex 0.237000 0.000895 0.045000
vertex 0.237000 0.001908 0.045000
vertex 0.237000 0.002721 0.045000
endloop
endfacet
facet normal -0.000000 0.000000 1.000000
outer loop
vertex 0.237000 0.002721 0.045000
vertex 0.237000 0.003969 0.045000
vertex -0.126369 0.014878 0.045000
endloop
endfacet
facet normal 0.000000 0.000000 1.000000
outer loop
vertex -0.158000 0.014878 0.045000
vertex -0.207658 0.014956 0.045000
vertex -0.237000 0.014916 0.045000
endloop
endfacet
facet normal -0.000000 0.000000 1.000000
outer loop
vertex 0.237000 0.002721 0.045000
vertex -0.126369 0.014878 0.045000
vertex -0.158000 0.014878 0.045000
endloop
endfacet
facet normal 0.000000 0.000000 0.000000
outer loop
vertex 0.237000 -0.004251 0.045000
vertex 0.237000 -0.003014 0.045000
vertex 0.237000 0.000895 0.045000
endloop
endfacet
facet normal 0.000000 0.000000 1.000000
outer loop
vertex 0.237000 0.000895 0.045000
vertex 0.237000 0.002721 0.045000
vertex -0.158000 0.014878 0.045000
endloop
endfacet
facet normal 0.000000 0.000000 1.000000
outer loop
vertex -0.158000 0.014878 0.045000
vertex -0.237000 0.014916 0.045000
vertex -0.237000 0.013953 0.045000
endloop
endfacet
facet normal -1.000000 0.000000 0.000000
outer loop
vertex -0.237000 0.009851 0.045000
vertex -0.237000 0.006027 0.045000
vertex -0.237000 0.005683 0.045000
endloop
endfacet
facet normal 0.000000 0.000000 1.000000
outer loop
vertex -0.158000 0.014878 0.045000
vertex -0.237000 0.013953 0.045000
vertex -0.237000 0.009851 0.045000
endloop
endfacet
facet normal -0.000000 0.000000 1.000000
outer loop
vertex 0.237000 -0.004251 0.045000
vertex 0.237000 0.000895 0.045000
vertex -0.158000 0.014878 0.045000
endloop
endfacet
facet normal 0.000000 0.000000 0.000000
outer loop
vertex 0.237000 -0.011280 0.045000
vertex 0.237000 -0.008051 0.045000
vertex 0.237000 -0.005856 0.045000
endloop
endfacet
facet normal 0.000000 0.000000 1.000000
outer loop
vertex 0.237000 -0.005856 0.045000
vertex 0.237000 -0.004251 0.045000
vertex -0.158000 0.014878 0.045000
endloop
endfacet
facet normal -0.000000 0.000000 1.000000
outer loop
vertex -0.158000 0.014878 0.045000
vertex -0.237000 0.009851 0.045000
vertex -0.237000 0.005683 0.045000
endloop
endfacet
facet normal 1.000000 0.000000 0.000000
outer loop
vertex -0.237000 0.005314 0.045000
vertex -0.237000 0.004912 0.045000
vertex -0.237000 0.004468 0.045000
endloop
endfacet
facet normal 0.000001 0.000000 1.000000
outer loop
vertex -0.158000 0.014878 0.045000
vertex -0.237000 0.005683 0.045000
vertex -0.237000 0.005314 0.045000
endloop
endfacet
facet normal 0.000000 0.000000 1.000000
outer loop
vertex 0.237000 -0.011280 0.045000
vertex 0.237000 -0.005856 0.045000
vertex -0.158000 0.014878 0.045000
endloop
endfacet
facet normal -0.000000 0.000000 1.000000
outer loop
vertex 0.207658 -0.014956 0.045000
vertex 0.237000 -0.014916 0.045000
vertex 0.237000 -0.011280 0.045000
endloop
endfacet
facet normal 0.000000 0.000000 1.000000
outer loop
vertex 0.158000 -0.014878 0.045000
vertex 0.207658 -0.014956 0.045000
vertex 0.237000 -0.011280 0.045000
endloop
endfacet
facet normal -0.000000 0.000000 1.000000
outer loop
vertex 0.237000 -0.011280 0.045000
vertex -0.158000 0.014878 0.045000
vertex -0.237000 0.005314 0.045000
endloop
endfacet
facet normal 0.000000 0.000000 0.000000
outer loop
vertex -0.237000 0.004468 0.045000
vertex -0.237000 0.003968 0.045000
vertex -0.237000 0.003395 0.045000
endloop
endfacet
facet normal 0.000000 0.000000 1.000000
outer loop
vertex 0.237000 -0.011280 0.045000
vertex -0.237000 0.005314 0.045000
vertex -0.237000 0.004468 0.045000
endloop
endfacet
facet normal 0.000000 0.000000 1.000000
outer loop
vertex 0.126369 -0.014878 0.045000
vertex 0.158000 -0.014878 0.045000
vertex 0.237000 -0.011280 0.045000
endloop
endfacet
facet normal 0.000000 0.000000 -1.000000
outer loop
vertex 0.000000 -0.014878 0.045000
vertex 0.047369 -0.014878 0.045000
vertex 0.079000 -0.014878 0.045000
endloop
endfacet
facet normal 0.000000 0.000000 1.000000
outer loop
vertex 0.079000 -0.014878 0.045000
vertex 0.126369 -0.014878 0.045000
vertex 0.237000 -0.011280 0.045000
endloop
endfacet
facet normal -0.000000 0.000000 1.000000
outer loop
vertex 0.237000 -0.011280 0.045000
vertex -0.237000 0.004468 0.045000
vertex -0.237000 0.003395 0.045000
endloop
endfacet
facet normal -1.000000 0.000000 0.000000
outer loop
vertex -0.237000 0.002721 0.045000
vertex -0.237000 0.001908 0.045000
vertex -0.237000 0.000895 0.045000
endloop
endfacet
facet normal 0.000000 0.000000 1.000000
outer loop
vertex 0.237000 -0.011280 0.045000
vertex -0.237000 0.003395 0.045000
vertex -0.237000 0.002721 0.045000
endloop
endfacet
facet normal -0.000000 0.000000 1.000000
outer loop
vertex 0.000000 -0.014878 0.045000
vertex 0.079000 -0.014878 0.045000
vertex 0.237000 -0.011280 0.045000
endloop
endfacet
facet normal 0.000000 0.000000 0.000000
outer loop
vertex -0.110631 -0.014878 0.045000
vertex -0.079000 -0.014878 0.045000
vertex -0.031631 -0.014878 0.045000
endloop
endfacet
facet normal 0.000000 0.000000 1.000000
outer loop
vertex -0.031631 -0.014878 0.045000
vertex 0.000000 -0.014878 0.045000
vertex 0.237000 -0.011280 0.045000
endloop
endfacet
facet normal -0.000000 0.000000 1.000000
outer loop
vertex 0.237000 -0.011280 0.045000
vertex -0.237000 0.002721 0.045000
vertex -0.237000 0.000895 0.045000
endloop
endfacet
facet normal 1.000000 0.000000 0.000000
outer loop
vertex -0.237000 -0.003014 0.045000
vertex -0.237000 -0.004251 0.045000
vertex -0.237000 -0.005856 0.045000
endloop
endfacet
facet normal 0.000000 0.000000 1.000000
outer loop
vertex 0.237000 -0.011280 0.045000
vertex -0.237000 0.000895 0.045000
vertex -0.237000 -0.003014 0.045000
endloop
endfacet
facet normal 0.000000 0.000000 1.000000
outer loop
vertex -0.110631 -0.014878 0.045000
vertex -0.031631 -0.014878 0.045000
vertex 0.237000 -0.011280 0.045000
endloop
endfacet
facet normal 0.000000 0.000000 1.000000
outer loop
vertex -0.237000 -0.014916 0.045000
vertex -0.207658 -0.014956 0.045000
vertex -0.158000 -0.014878 0.045000
endloop
endfacet
facet normal -0.000000 0.000000 1.000000
outer loop
vertex -0.158000 -0.014878 0.045000
vertex -0.110631 -0.014878 0.045000
vertex 0.237000 -0.011280 0.045000
endloop
endfacet
facet normal 0.000000 0.000000 1.000000
outer loop
vertex 0.237000 -0.011280 0.045000
vertex -0.237000 -0.003014 0.045000
vertex -0.237000 -0.005856 0.045000
endloop
endfacet
facet normal 0.000000 0.000000 0.000000
outer loop
vertex -0.237000 -0.008051 0.045000
vertex -0.237000 -0.011280 0.045000
vertex -0.237000 -0.014916 0.045000
endloop
endfacet
facet normal 0.000000 0.000000 1.000000
outer loop
vertex 0.237000 -0.011280 0.045000
vertex -0.237000 -0.005856 0.045000
vertex -0.237000 -0.008051 0.045000
endloop
endfacet
facet normal 0.000000 0.000000 1.000000
outer loop
vertex -0.237000 -0.014916 0.045000
vertex -0.158000 -0.014878 0.045000
vertex 0.237000 -0.011280 0.045000
endloop
endfacet
facet normal 0.000000 0.000000 1.000000
outer loop
vertex -0.237000 -0.008051 0.045000
vertex -0.237000 -0.014916 0.045000
vertex 0.237000 -0.011280 0.045000
endloop
endfacet
solid cylinder
