solid bottom
facet normal 0.000000 0.000000 -1.000000
outer loop
vertex -2.000000 0.3950000 0.000000
vertex 4.000000 0.3950000 0.000000
vertex 4.000000 -0.3950000 0.000000
endloop
endfacet
facet normal 0.000000 0.000000 -1.000000
outer loop
vertex -2.000000 0.3950000 0.000000
vertex 4.000000 -0.3950000 0.000000
vertex -2.000000 -0.3950000 0.000000
endloop
endfacet
endsolid bottom
solid frontAndBack
facet normal 0.000000 1.000000 0.000000
outer loop
vertex -2.000000 0.395000 0.000000
vertex -2.000000 0.395000 0.100000
vertex 4.000000 0.395000 0.100000
endloop
endfacet
facet normal 0.000000 1.000000 0.000000
outer loop
vertex -2.000000 0.395000 0.000000
vertex 4.000000 0.395000 0.100000
vertex 4.000000 0.395000 0.000000
endloop
endfacet
facet normal 0.000000 -1.000000 0.000000
outer loop
vertex 4.000000 -0.395000 0.000000
vertex 4.000000 -0.395000 0.100000
vertex -2.000000 -0.395000 0.100000
endloop
endfacet
facet normal 0.000000 -1.000000 0.000000
outer loop
vertex 4.000000 -0.395000 0.000000
vertex -2.000000 -0.395000 0.100000
vertex -2.000000 -0.395000 0.000000
endloop
endfacet
endsolid frontAndBack
solid outlet
facet normal 1.000000 0.000000 0.000000
outer loop
vertex 4.000000 0.395000 0.000000
vertex 4.000000 0.395000 0.100000
vertex 4.000000 -0.395000 0.100000
endloop
endfacet
facet normal 1.000000 0.000000 0.000000
outer loop
vertex 4.000000 0.395000 0.000000
vertex 4.000000 -0.395000 0.100000
vertex 4.000000 -0.395000 0.000000
endloop
endfacet
endsolid outlet
solid inlet
facet normal -1.000000 0.000000 0.000000
outer loop
vertex -2.000000 -0.395000 0.000000
vertex -2.000000 -0.395000 0.100000
vertex -2.000000 0.395000 0.100000
endloop
endfacet
facet normal -1.000000 0.000000 0.000000
outer loop
vertex -2.000000 -0.395000 0.000000
vertex -2.000000 0.395000 0.100000
vertex -2.000000 0.395000 0.000000
endloop
endfacet
endsolid inlet
solid top
facet normal 0.000000 0.000000 1.000000
outer loop
vertex 4.000000 0.395000 0.100000
vertex -2.000000 0.395000 0.100000
vertex -2.000000 -0.395000 0.100000
endloop
endfacet
facet normal 0.000000 0.000000 1.000000
outer loop
vertex 4.000000 0.395000 0.100000
vertex -2.000000 -0.395000 0.100000
vertex 4.000000 -0.395000 0.100000
endloop
endfacet
endsolid top
solid cylinder
facet normal 0.000000 0.000000 -1.000000
outer loop
vertex 0.187980 0.117102 0.000000
vertex 0.175125 0.101781 0.000000
vertex -0.175125 0.421784 0.000000
endloop
endfacet
facet normal 0.000000 0.000000 -1.000000
outer loop
vertex -0.175125 0.421784 0.000000
vertex 0.175125 0.101781 0.000000
vertex -0.187980 0.406463 0.000000
endloop
endfacet
facet normal 0.642788 0.766044 0.000000
outer loop
vertex 0.187980 0.117102 0.002087
vertex 0.187980 0.117102 0.000000
vertex -0.175125 0.421784 0.002087
endloop
endfacet
facet normal 0.642788 0.766044 0.000000
outer loop
vertex -0.175125 0.421784 0.002087
vertex 0.187980 0.117102 0.000000
vertex -0.175125 0.421784 0.000000
endloop
endfacet
facet normal -0.301092 -0.358661 -0.883575
outer loop
vertex 0.172973 0.099217 0.003861
vertex 0.112397 0.149927 0.003919
vertex 0.175125 0.101781 0.002087
endloop
endfacet
facet normal -0.302240 -0.360196 -0.882559
outer loop
vertex 0.175125 0.101781 0.002087
vertex 0.112397 0.149927 0.003919
vertex 0.051879 0.200708 0.003919
endloop
endfacet
facet normal -0.302237 -0.360192 -0.882562
outer loop
vertex 0.175125 0.101781 0.002087
vertex 0.051879 0.200708 0.003919
vertex -0.008638 0.251488 0.003919
endloop
endfacet
facet normal -0.386711 -0.460864 -0.798786
outer loop
vertex -0.008638 0.251488 0.003919
vertex 0.051879 0.200708 0.003919
vertex -0.010639 0.249104 0.006263
endloop
endfacet
facet normal -0.386709 -0.460862 -0.798788
outer loop
vertex -0.008638 0.251488 0.003919
vertex -0.010639 0.249104 0.006263
vertex -0.071156 0.299884 0.006263
endloop
endfacet
facet normal -0.461794 -0.550345 -0.695606
outer loop
vertex -0.071156 0.299884 0.006263
vertex -0.010639 0.249104 0.006263
vertex -0.072898 0.297808 0.009062
endloop
endfacet
facet normal -0.461790 -0.550340 -0.695612
outer loop
vertex -0.071156 0.299884 0.006263
vertex -0.072898 0.297808 0.009062
vertex -0.133416 0.348588 0.009062
endloop
endfacet
facet normal -0.525651 -0.626447 -0.575547
outer loop
vertex -0.133416 0.348588 0.009062
vertex -0.072898 0.297808 0.009062
vertex -0.134857 0.346870 0.012248
endloop
endfacet
facet normal -0.525368 -0.626700 -0.575531
outer loop
vertex -0.133416 0.348588 0.009062
vertex -0.134857 0.346870 0.012248
vertex -0.195230 0.397822 0.011878
endloop
endfacet
facet normal -0.571390 -0.680383 -0.458903
outer loop
vertex -0.195230 0.397822 0.011878
vertex -0.134857 0.346870 0.012248
vertex -0.196348 0.396491 0.015243
endloop
endfacet
facet normal -0.576398 -0.687640 -0.441495
outer loop
vertex -0.196348 0.396491 0.015243
vertex -0.134857 0.346870 0.012248
vertex -0.135963 0.345553 0.015744
endloop
endfacet
facet normal -0.609463 -0.725637 -0.319385
outer loop
vertex -0.196348 0.396491 0.015243
vertex -0.135963 0.345553 0.015744
vertex -0.197126 0.395564 0.018833
endloop
endfacet
facet normal -0.613429 -0.731887 -0.296727
outer loop
vertex -0.197126 0.395564 0.018833
vertex -0.135963 0.345553 0.015744
vertex -0.136706 0.344667 0.019465
endloop
endfacet
facet normal -0.633543 -0.754223 -0.172545
outer loop
vertex -0.197126 0.395564 0.018833
vertex -0.136706 0.344667 0.019465
vertex -0.197546 0.395063 0.022564
endloop
endfacet
facet normal -0.635555 -0.758364 -0.144754
outer loop
vertex -0.197546 0.395063 0.022564
vertex -0.136706 0.344667 0.019465
vertex -0.137068 0.344235 0.023320
endloop
endfacet
facet normal -0.643081 -0.765489 -0.021747
outer loop
vertex -0.197546 0.395063 0.022564
vertex -0.137068 0.344235 0.023320
vertex -0.197599 0.395000 0.026352
endloop
endfacet
facet normal -0.642241 -0.766428 0.010754
outer loop
vertex -0.197599 0.395000 0.026352
vertex -0.137068 0.344235 0.023320
vertex -0.137041 0.344267 0.027216
endloop
endfacet
facet normal -0.637862 -0.759177 0.129549
outer loop
vertex -0.197599 0.395000 0.026352
vertex -0.137041 0.344267 0.027216
vertex -0.197283 0.395376 0.030108
endloop
endfacet
facet normal -0.633317 -0.755881 0.165989
outer loop
vertex -0.197283 0.395376 0.030108
vertex -0.137041 0.344267 0.027216
vertex -0.136626 0.344763 0.031058
endloop
endfacet
facet normal -0.618004 -0.735427 0.277882
outer loop
vertex -0.197283 0.395376 0.030108
vertex -0.136626 0.344763 0.031058
vertex -0.196607 0.396182 0.033747
endloop
endfacet
facet normal -0.609003 -0.726983 0.317192
outer loop
vertex -0.196607 0.396182 0.033747
vertex -0.136626 0.344763 0.031058
vertex -0.135831 0.345709 0.034753
endloop
endfacet
facet normal -0.583961 -0.694783 0.419840
outer loop
vertex -0.196607 0.396182 0.033747
vertex -0.135831 0.345709 0.034753
vertex -0.195584 0.397401 0.037185
endloop
endfacet
facet normal -0.569890 -0.680439 0.460682
outer loop
vertex -0.195584 0.397401 0.037185
vertex -0.135831 0.345709 0.034753
vertex -0.134678 0.347084 0.038211
endloop
endfacet
facet normal -0.536521 -0.638181 0.552151
outer loop
vertex -0.195584 0.397401 0.037185
vertex -0.134678 0.347084 0.038211
vertex -0.194240 0.399003 0.040343
endloop
endfacet
facet normal -0.516928 -0.617381 0.592981
outer loop
vertex -0.194240 0.399003 0.040343
vertex -0.134678 0.347084 0.038211
vertex -0.133193 0.348854 0.041348
endloop
endfacet
facet normal -0.476774 -0.566921 0.671779
outer loop
vertex -0.194240 0.399003 0.040343
vertex -0.133193 0.348854 0.041348
vertex -0.192604 0.400952 0.043149
endloop
endfacet
facet normal -0.451389 -0.539325 0.710899
outer loop
vertex -0.192604 0.400952 0.043149
vertex -0.133193 0.348854 0.041348
vertex -0.131412 0.350976 0.044088
endloop
endfacet
facet normal -0.406087 -0.482632 0.775990
outer loop
vertex -0.192604 0.400952 0.043149
vertex -0.131412 0.350976 0.044088
vertex -0.190715 0.403204 0.045539
endloop
endfacet
facet normal -0.374881 -0.448190 0.811535
outer loop
vertex -0.190715 0.403204 0.045539
vertex -0.131412 0.350976 0.044088
vertex -0.129380 0.353398 0.046365
endloop
endfacet
facet normal -0.326087 -0.387257 0.862380
outer loop
vertex -0.190715 0.403204 0.045539
vertex -0.129380 0.353398 0.046365
vertex -0.188615 0.405707 0.047456
endloop
endfacet
facet normal -0.289258 -0.346179 0.892463
outer loop
vertex -0.188615 0.405707 0.047456
vertex -0.129380 0.353398 0.046365
vertex -0.127145 0.356062 0.048123
endloop
endfacet
facet normal -0.238613 -0.282982 0.928970
outer loop
vertex -0.188615 0.405707 0.047456
vertex -0.127145 0.356062 0.048123
vertex -0.186353 0.408402 0.048859
endloop
endfacet
facet normal -0.196589 -0.235764 0.951719
outer loop
vertex -0.186353 0.408402 0.048859
vertex -0.127145 0.356062 0.048123
vertex -0.124761 0.358902 0.049319
endloop
endfacet
facet normal -0.145670 -0.172199 0.974232
outer loop
vertex -0.186353 0.408402 0.048859
vertex -0.124761 0.358902 0.049319
vertex -0.183981 0.411230 0.049713
endloop
endfacet
facet normal -0.099137 -0.119639 0.987856
outer loop
vertex -0.183981 0.411230 0.049713
vertex -0.124761 0.358902 0.049319
vertex -0.122287 0.361851 0.049924
endloop
endfacet
facet normal -0.049396 -0.057454 0.997125
outer loop
vertex -0.183981 0.411230 0.049713
vertex -0.122287 0.361851 0.049924
vertex -0.181553 0.414123 0.050000
endloop
endfacet
facet normal 0.000737 -0.000619 1.000000
outer loop
vertex -0.181553 0.414123 0.050000
vertex -0.122287 0.361851 0.049924
vertex -0.119783 0.364835 0.049924
endloop
endfacet
facet normal 0.048003 0.058623 0.997125
outer loop
vertex -0.181553 0.414123 0.050000
vertex -0.119783 0.364835 0.049924
vertex -0.179125 0.417017 0.049713
endloop
endfacet
facet normal 0.100606 0.118406 0.987855
outer loop
vertex -0.179125 0.417017 0.049713
vertex -0.119783 0.364835 0.049924
vertex -0.117309 0.367784 0.049319
endloop
endfacet
facet normal 0.144288 0.173360 0.974232
outer loop
vertex -0.179125 0.417017 0.049713
vertex -0.117309 0.367784 0.049319
vertex -0.176752 0.419844 0.048859
endloop
endfacet
facet normal 0.198047 0.234544 0.951718
outer loop
vertex -0.176752 0.419844 0.048859
vertex -0.117309 0.367784 0.049319
vertex -0.114925 0.370624 0.048123
endloop
endfacet
facet normal 0.237248 0.284127 0.928970
outer loop
vertex -0.176752 0.419844 0.048859
vertex -0.114925 0.370624 0.048123
vertex -0.174490 0.422540 0.047456
endloop
endfacet
facet normal 0.290688 0.344974 0.892465
outer loop
vertex -0.174490 0.422540 0.047456
vertex -0.114925 0.370624 0.048123
vertex -0.112690 0.373288 0.046365
endloop
endfacet
facet normal 0.324751 0.388384 0.862377
outer loop
vertex -0.174490 0.422540 0.047456
vertex -0.112690 0.373288 0.046365
vertex -0.172390 0.425042 0.045539
endloop
endfacet
facet normal 0.376283 0.447014 0.811535
outer loop
vertex -0.172390 0.425042 0.045539
vertex -0.112690 0.373288 0.046365
vertex -0.110658 0.375710 0.044088
endloop
endfacet
facet normal 0.404784 0.483725 0.775990
outer loop
vertex -0.172390 0.425042 0.045539
vertex -0.110658 0.375710 0.044088
vertex -0.170501 0.427294 0.043149
endloop
endfacet
facet normal 0.452749 0.538184 0.710898
outer loop
vertex -0.170501 0.427294 0.043149
vertex -0.110658 0.375710 0.044088
vertex -0.108877 0.377832 0.041348
endloop
endfacet
facet normal 0.475519 0.567975 0.671779
outer loop
vertex -0.170501 0.427294 0.043149
vertex -0.108877 0.377832 0.041348
vertex -0.168865 0.429243 0.040343
endloop
endfacet
facet normal 0.518237 0.616281 0.592982
outer loop
vertex -0.168865 0.429243 0.040343
vertex -0.108877 0.377832 0.041348
vertex -0.107392 0.379602 0.038211
endloop
endfacet
facet normal 0.535321 0.639188 0.552150
outer loop
vertex -0.168865 0.429243 0.040343
vertex -0.107392 0.379602 0.038211
vertex -0.167521 0.430846 0.037185
endloop
endfacet
facet normal 0.571138 0.679386 0.460690
outer loop
vertex -0.167521 0.430846 0.037185
vertex -0.107392 0.379602 0.038211
vertex -0.106239 0.380977 0.034753
endloop
endfacet
facet normal 0.582824 0.695738 0.419840
outer loop
vertex -0.167521 0.430846 0.037185
vertex -0.106239 0.380977 0.034753
vertex -0.166498 0.432064 0.033747
endloop
endfacet
facet normal 0.610188 0.725993 0.317184
outer loop
vertex -0.166498 0.432064 0.033747
vertex -0.106239 0.380977 0.034753
vertex -0.105444 0.381923 0.031058
endloop
endfacet
facet normal 0.616940 0.736320 0.277881
outer loop
vertex -0.166498 0.432064 0.033747
vertex -0.105444 0.381923 0.031058
vertex -0.165822 0.432870 0.030108
endloop
endfacet
facet normal 0.634423 0.754953 0.165989
outer loop
vertex -0.165822 0.432870 0.030108
vertex -0.105444 0.381923 0.031058
vertex -0.105029 0.382419 0.027216
endloop
endfacet
facet normal 0.636878 0.760000 0.129561
outer loop
vertex -0.165822 0.432870 0.030108
vertex -0.105029 0.382419 0.027216
vertex -0.165506 0.433246 0.026352
endloop
endfacet
facet normal 0.643260 0.765572 0.010754
outer loop
vertex -0.165506 0.433246 0.026352
vertex -0.105029 0.382419 0.027216
vertex -0.105002 0.382451 0.023320
endloop
endfacet
facet normal 0.642190 0.766237 -0.021747
outer loop
vertex -0.165506 0.433246 0.026352
vertex -0.105002 0.382451 0.023320
vertex -0.165559 0.433183 0.022564
endloop
endfacet
facet normal 0.636482 0.757591 -0.144730
outer loop
vertex -0.165559 0.433183 0.022564
vertex -0.105002 0.382451 0.023320
vertex -0.105364 0.382019 0.019465
endloop
endfacet
facet normal 0.632748 0.754884 -0.172569
outer loop
vertex -0.165559 0.433183 0.022564
vertex -0.105364 0.382019 0.019465
vertex -0.165979 0.432682 0.018833
endloop
endfacet
facet normal 0.614247 0.731201 -0.296726
outer loop
vertex -0.165979 0.432682 0.018833
vertex -0.105364 0.382019 0.019465
vertex -0.106107 0.381133 0.015744
endloop
endfacet
facet normal 0.608778 0.726206 -0.319396
outer loop
vertex -0.165979 0.432682 0.018833
vertex -0.106107 0.381133 0.015744
vertex -0.166757 0.431756 0.015243
endloop
endfacet
facet normal 0.577106 0.687051 -0.441486
outer loop
vertex -0.166757 0.431756 0.015243
vertex -0.106107 0.381133 0.015744
vertex -0.107213 0.379815 0.012248
endloop
endfacet
facet normal 0.570826 0.680856 -0.458903
outer loop
vertex -0.166757 0.431756 0.015243
vertex -0.107213 0.379815 0.012248
vertex -0.167875 0.430424 0.011878
endloop
endfacet
facet normal 0.525943 0.626204 -0.575546
outer loop
vertex -0.167875 0.430424 0.011878
vertex -0.107213 0.379815 0.012248
vertex -0.108654 0.378098 0.009062
endloop
endfacet
facet normal 0.519768 0.619879 -0.587870
outer loop
vertex -0.167875 0.430424 0.011878
vertex -0.108654 0.378098 0.009062
vertex -0.169306 0.428718 0.008813
endloop
endfacet
facet normal 0.462016 0.550152 -0.695610
outer loop
vertex -0.169306 0.428718 0.008813
vertex -0.108654 0.378098 0.009062
vertex -0.110396 0.376022 0.006263
endloop
endfacet
facet normal 0.456771 0.544664 -0.703350
outer loop
vertex -0.169306 0.428718 0.008813
vertex -0.110396 0.376022 0.006263
vertex -0.171019 0.426677 0.006120
endloop
endfacet
facet normal 0.386867 0.460736 -0.798784
outer loop
vertex -0.171019 0.426677 0.006120
vertex -0.110396 0.376022 0.006263
vertex -0.112397 0.373637 0.003919
endloop
endfacet
facet normal 0.383286 0.456940 -0.802681
outer loop
vertex -0.171019 0.426677 0.006120
vertex -0.112397 0.373637 0.003919
vertex -0.172973 0.424348 0.003861
endloop
endfacet
facet normal 0.301095 0.358665 -0.883573
outer loop
vertex -0.172973 0.424348 0.003861
vertex -0.112397 0.373637 0.003919
vertex -0.175125 0.421784 0.002087
endloop
endfacet
facet normal 0.302237 0.360191 -0.882562
outer loop
vertex -0.175125 0.421784 0.002087
vertex -0.112397 0.373637 0.003919
vertex -0.051879 0.322857 0.003919
endloop
endfacet
facet normal 0.302240 0.360195 -0.882559
outer loop
vertex -0.175125 0.421784 0.002087
vertex -0.051879 0.322857 0.003919
vertex 0.008638 0.272077 0.003919
endloop
endfacet
facet normal 0.386717 0.460871 -0.798779
outer loop
vertex 0.008638 0.272077 0.003919
vertex -0.051879 0.322857 0.003919
vertex 0.010639 0.274461 0.006263
endloop
endfacet
facet normal 0.386711 0.460864 -0.798786
outer loop
vertex 0.008638 0.272077 0.003919
vertex 0.010639 0.274461 0.006263
vertex 0.071156 0.223681 0.006263
endloop
endfacet
facet normal 0.461790 0.550340 -0.695612
outer loop
vertex 0.071156 0.223681 0.006263
vertex 0.010639 0.274461 0.006263
vertex 0.072898 0.225757 0.009062
endloop
endfacet
facet normal 0.461794 0.550344 -0.695606
outer loop
vertex 0.071156 0.223681 0.006263
vertex 0.072898 0.225757 0.009062
vertex 0.133416 0.174977 0.009062
endloop
endfacet
facet normal 0.525651 0.626447 -0.575547
outer loop
vertex 0.133416 0.174977 0.009062
vertex 0.072898 0.225757 0.009062
vertex 0.134857 0.176695 0.012248
endloop
endfacet
facet normal 0.525364 0.626695 -0.575539
outer loop
vertex 0.133416 0.174977 0.009062
vertex 0.134857 0.176695 0.012248
vertex 0.195230 0.125743 0.011878
endloop
endfacet
facet normal 0.571390 0.680383 -0.458903
outer loop
vertex 0.195230 0.125743 0.011878
vertex 0.134857 0.176695 0.012248
vertex 0.196348 0.127074 0.015243
endloop
endfacet
facet normal 0.576397 0.687639 -0.441496
outer loop
vertex 0.196348 0.127074 0.015243
vertex 0.134857 0.176695 0.012248
vertex 0.135963 0.178012 0.015744
endloop
endfacet
facet normal 0.609462 0.725635 -0.319390
outer loop
vertex 0.196348 0.127074 0.015243
vertex 0.135963 0.178012 0.015744
vertex 0.197126 0.128001 0.018833
endloop
endfacet
facet normal 0.613431 0.731890 -0.296714
outer loop
vertex 0.197126 0.128001 0.018833
vertex 0.135963 0.178012 0.015744
vertex 0.136706 0.178898 0.019465
endloop
endfacet
facet normal 0.633542 0.754222 -0.172551
outer loop
vertex 0.197126 0.128001 0.018833
vertex 0.136706 0.178898 0.019465
vertex 0.197546 0.128502 0.022564
endloop
endfacet
facet normal 0.635556 0.758365 -0.144747
outer loop
vertex 0.197546 0.128502 0.022564
vertex 0.136706 0.178898 0.019465
vertex 0.137068 0.179330 0.023320
endloop
endfacet
facet normal 0.643081 0.765489 -0.021741
outer loop
vertex 0.197546 0.128502 0.022564
vertex 0.137068 0.179330 0.023320
vertex 0.197599 0.128565 0.026352
endloop
endfacet
facet normal 0.642240 0.766428 0.010749
outer loop
vertex 0.197599 0.128565 0.026352
vertex 0.137068 0.179330 0.023320
vertex 0.137041 0.179298 0.027216
endloop
endfacet
facet normal 0.637861 0.759176 0.129555
outer loop
vertex 0.197599 0.128565 0.026352
vertex 0.137041 0.179298 0.027216
vertex 0.197283 0.128189 0.030108
endloop
endfacet
facet normal 0.633317 0.755881 0.165990
outer loop
vertex 0.197283 0.128189 0.030108
vertex 0.137041 0.179298 0.027216
vertex 0.136626 0.178802 0.031058
endloop
endfacet
facet normal 0.618004 0.735425 0.277887
outer loop
vertex 0.197283 0.128189 0.030108
vertex 0.136626 0.178802 0.031058
vertex 0.196607 0.127383 0.033747
endloop
endfacet
facet normal 0.609003 0.726984 0.317190
outer loop
vertex 0.196607 0.127383 0.033747
vertex 0.136626 0.178802 0.031058
vertex 0.135831 0.177856 0.034753
endloop
endfacet
facet normal 0.583963 0.694785 0.419835
outer loop
vertex 0.196607 0.127383 0.033747
vertex 0.135831 0.177856 0.034753
vertex 0.195584 0.126164 0.037185
endloop
endfacet
facet normal 0.569891 0.680440 0.460680
outer loop
vertex 0.195584 0.126164 0.037185
vertex 0.135831 0.177856 0.034753
vertex 0.134678 0.176481 0.038211
endloop
endfacet
facet normal 0.536523 0.638183 0.552147
outer loop
vertex 0.195584 0.126164 0.037185
vertex 0.134678 0.176481 0.038211
vertex 0.194240 0.124562 0.040343
endloop
endfacet
facet normal 0.516921 0.617374 0.592994
outer loop
vertex 0.194240 0.124562 0.040343
vertex 0.134678 0.176481 0.038211
vertex 0.133193 0.174711 0.041348
endloop
endfacet
facet normal 0.476776 0.566923 0.671776
outer loop
vertex 0.194240 0.124562 0.040343
vertex 0.133193 0.174711 0.041348
vertex 0.192604 0.122613 0.043149
endloop
endfacet
facet normal 0.451391 0.539327 0.710896
outer loop
vertex 0.192604 0.122613 0.043149
vertex 0.133193 0.174711 0.041348
vertex 0.131412 0.172589 0.044088
endloop
endfacet
facet normal 0.406089 0.482637 0.775985
outer loop
vertex 0.192604 0.122613 0.043149
vertex 0.131412 0.172589 0.044088
vertex 0.190715 0.120361 0.045539
endloop
endfacet
facet normal 0.374879 0.448187 0.811538
outer loop
vertex 0.190715 0.120361 0.045539
vertex 0.131412 0.172589 0.044088
vertex 0.129380 0.170167 0.046365
endloop
endfacet
facet normal 0.326089 0.387259 0.862378
outer loop
vertex 0.190715 0.120361 0.045539
vertex 0.129380 0.170167 0.046365
vertex 0.188615 0.117858 0.047456
endloop
endfacet
facet normal 0.289254 0.346174 0.892466
outer loop
vertex 0.188615 0.117858 0.047456
vertex 0.129380 0.170167 0.046365
vertex 0.127145 0.167503 0.048123
endloop
endfacet
facet normal 0.238613 0.282982 0.928970
outer loop
vertex 0.188615 0.117858 0.047456
vertex 0.127145 0.167503 0.048123
vertex 0.186353 0.115162 0.048859
endloop
endfacet
facet normal 0.196590 0.235765 0.951718
outer loop
vertex 0.186353 0.115162 0.048859
vertex 0.127145 0.167503 0.048123
vertex 0.124761 0.164663 0.049319
endloop
endfacet
facet normal 0.145670 0.172200 0.974232
outer loop
vertex 0.186353 0.115162 0.048859
vertex 0.124761 0.164663 0.049319
vertex 0.183981 0.112335 0.049713
endloop
endfacet
facet normal 0.099136 0.119638 0.987856
outer loop
vertex 0.183981 0.112335 0.049713
vertex 0.124761 0.164663 0.049319
vertex 0.122287 0.161714 0.049924
endloop
endfacet
facet normal 0.049396 0.057455 0.997125
outer loop
vertex 0.183981 0.112335 0.049713
vertex 0.122287 0.161714 0.049924
vertex 0.181553 0.109442 0.050000
endloop
endfacet
facet normal -0.000737 0.000619 1.000000
outer loop
vertex 0.181553 0.109442 0.050000
vertex 0.122287 0.161714 0.049924
vertex 0.119783 0.158730 0.049924
endloop
endfacet
facet normal -0.048003 -0.058623 0.997125
outer loop
vertex 0.181553 0.109442 0.050000
vertex 0.119783 0.158730 0.049924
vertex 0.179125 0.106548 0.049713
endloop
endfacet
facet normal -0.100606 -0.118406 0.987855
outer loop
vertex 0.179125 0.106548 0.049713
vertex 0.119783 0.158730 0.049924
vertex 0.117309 0.155781 0.049319
endloop
endfacet
facet normal -0.144288 -0.173359 0.974232
outer loop
vertex 0.179125 0.106548 0.049713
vertex 0.117309 0.155781 0.049319
vertex 0.176752 0.103721 0.048859
endloop
endfacet
facet normal -0.198045 -0.234543 0.951718
outer loop
vertex 0.176752 0.103721 0.048859
vertex 0.117309 0.155781 0.049319
vertex 0.114925 0.152941 0.048123
endloop
endfacet
facet normal -0.237248 -0.284126 0.928970
outer loop
vertex 0.176752 0.103721 0.048859
vertex 0.114925 0.152941 0.048123
vertex 0.174490 0.101025 0.047456
endloop
endfacet
facet normal -0.290687 -0.344972 0.892466
outer loop
vertex 0.174490 0.101025 0.047456
vertex 0.114925 0.152941 0.048123
vertex 0.112690 0.150277 0.046365
endloop
endfacet
facet normal -0.324751 -0.388384 0.862377
outer loop
vertex 0.174490 0.101025 0.047456
vertex 0.112690 0.150277 0.046365
vertex 0.172390 0.098523 0.045539
endloop
endfacet
facet normal -0.376281 -0.447012 0.811537
outer loop
vertex 0.172390 0.098523 0.045539
vertex 0.112690 0.150277 0.046365
vertex 0.110658 0.147855 0.044088
endloop
endfacet
facet normal -0.404788 -0.483727 0.775987
outer loop
vertex 0.172390 0.098523 0.045539
vertex 0.110658 0.147855 0.044088
vertex 0.170501 0.096271 0.043149
endloop
endfacet
facet normal -0.452749 -0.538184 0.710898
outer loop
vertex 0.170501 0.096271 0.043149
vertex 0.110658 0.147855 0.044088
vertex 0.108877 0.145733 0.041348
endloop
endfacet
facet normal -0.475520 -0.567976 0.671777
outer loop
vertex 0.170501 0.096271 0.043149
vertex 0.108877 0.145733 0.041348
vertex 0.168865 0.094322 0.040343
endloop
endfacet
facet normal -0.518233 -0.616276 0.592991
outer loop
vertex 0.168865 0.094322 0.040343
vertex 0.108877 0.145733 0.041348
vertex 0.107392 0.143963 0.038211
endloop
endfacet
facet normal -0.535322 -0.639190 0.552146
outer loop
vertex 0.168865 0.094322 0.040343
vertex 0.107392 0.143963 0.038211
vertex 0.167521 0.092719 0.037185
endloop
endfacet
facet normal -0.571140 -0.679388 0.460686
outer loop
vertex 0.167521 0.092719 0.037185
vertex 0.107392 0.143963 0.038211
vertex 0.106239 0.142588 0.034753
endloop
endfacet
facet normal -0.582825 -0.695740 0.419835
outer loop
vertex 0.167521 0.092719 0.037185
vertex 0.106239 0.142588 0.034753
vertex 0.166498 0.091501 0.033747
endloop
endfacet
facet normal -0.610187 -0.725992 0.317186
outer loop
vertex 0.166498 0.091501 0.033747
vertex 0.106239 0.142588 0.034753
vertex 0.105444 0.141642 0.031058
endloop
endfacet
facet normal -0.616938 -0.736318 0.277890
outer loop
vertex 0.166498 0.091501 0.033747
vertex 0.105444 0.141642 0.031058
vertex 0.165822 0.090695 0.030108
endloop
endfacet
facet normal -0.634424 -0.754954 0.165985
outer loop
vertex 0.165822 0.090695 0.030108
vertex 0.105444 0.141642 0.031058
vertex 0.105029 0.141146 0.027216
endloop
endfacet
facet normal -0.636879 -0.760000 0.129558
outer loop
vertex 0.165822 0.090695 0.030108
vertex 0.105029 0.141146 0.027216
vertex 0.165506 0.090319 0.026352
endloop
endfacet
facet normal -0.643260 -0.765572 0.010753
outer loop
vertex 0.165506 0.090319 0.026352
vertex 0.105029 0.141146 0.027216
vertex 0.105002 0.141114 0.023320
endloop
endfacet
facet normal -0.642189 -0.766237 -0.021750
outer loop
vertex 0.165506 0.090319 0.026352
vertex 0.105002 0.141114 0.023320
vertex 0.165559 0.090382 0.022564
endloop
endfacet
facet normal -0.636480 -0.757590 -0.144741
outer loop
vertex 0.165559 0.090382 0.022564
vertex 0.105002 0.141114 0.023320
vertex 0.105364 0.141546 0.019465
endloop
endfacet
facet normal -0.632750 -0.754887 -0.172551
outer loop
vertex 0.165559 0.090382 0.022564
vertex 0.105364 0.141546 0.019465
vertex 0.165979 0.090882 0.018833
endloop
endfacet
facet normal -0.614249 -0.731202 -0.296720
outer loop
vertex 0.165979 0.090882 0.018833
vertex 0.105364 0.141546 0.019465
vertex 0.106107 0.142432 0.015744
endloop
endfacet
facet normal -0.608780 -0.726207 -0.319390
outer loop
vertex 0.165979 0.090882 0.018833
vertex 0.106107 0.142432 0.015744
vertex 0.166757 0.091809 0.015243
endloop
endfacet
facet normal -0.577104 -0.687050 -0.441490
outer loop
vertex 0.166757 0.091809 0.015243
vertex 0.106107 0.142432 0.015744
vertex 0.107213 0.143749 0.012248
endloop
endfacet
facet normal -0.570825 -0.680855 -0.458906
outer loop
vertex 0.166757 0.091809 0.015243
vertex 0.107213 0.143749 0.012248
vertex 0.167875 0.093141 0.011878
endloop
endfacet
facet normal -0.525945 -0.626207 -0.575540
outer loop
vertex 0.167875 0.093141 0.011878
vertex 0.107213 0.143749 0.012248
vertex 0.108654 0.145467 0.009062
endloop
endfacet
facet normal -0.519765 -0.619875 -0.587876
outer loop
vertex 0.167875 0.093141 0.011878
vertex 0.108654 0.145467 0.009062
vertex 0.169306 0.094847 0.008813
endloop
endfacet
facet normal -0.462017 -0.550153 -0.695609
outer loop
vertex 0.169306 0.094847 0.008813
vertex 0.108654 0.145467 0.009062
vertex 0.110396 0.147543 0.006263
endloop
endfacet
facet normal -0.456770 -0.544662 -0.703352
outer loop
vertex 0.169306 0.094847 0.008813
vertex 0.110396 0.147543 0.006263
vertex 0.171019 0.096888 0.006120
endloop
endfacet
facet normal -0.386865 -0.460734 -0.798786
outer loop
vertex 0.171019 0.096888 0.006120
vertex 0.110396 0.147543 0.006263
vertex 0.112397 0.149927 0.003919
endloop
endfacet
facet normal -0.383288 -0.456942 -0.802679
outer loop
vertex 0.171019 0.096888 0.006120
vertex 0.112397 0.149927 0.003919
vertex 0.172973 0.099217 0.003861
endloop
endfacet
facet normal 0.520201 0.619508 -0.587879
outer loop
vertex 0.195230 0.125743 0.011878
vertex 0.193799 0.124037 0.008813
vertex 0.133416 0.174977 0.009062
endloop
endfacet
facet normal 0.461567 0.550531 -0.695609
outer loop
vertex 0.133416 0.174977 0.009062
vertex 0.193799 0.124037 0.008813
vertex 0.131674 0.172901 0.006263
endloop
endfacet
facet normal 0.461792 0.550342 -0.695609
outer loop
vertex 0.133416 0.174977 0.009062
vertex 0.131674 0.172901 0.006263
vertex 0.071156 0.223681 0.006263
endloop
endfacet
facet normal 0.386711 0.460864 -0.798786
outer loop
vertex 0.071156 0.223681 0.006263
vertex 0.131674 0.172901 0.006263
vertex 0.069156 0.221297 0.003919
endloop
endfacet
facet normal 0.386713 0.460867 -0.798783
outer loop
vertex 0.071156 0.223681 0.006263
vertex 0.069156 0.221297 0.003919
vertex 0.008638 0.272077 0.003919
endloop
endfacet
facet normal 0.302240 0.360195 -0.882559
outer loop
vertex 0.008638 0.272077 0.003919
vertex 0.069156 0.221297 0.003919
vertex -0.175125 0.421784 0.002087
endloop
endfacet
facet normal 0.457071 0.544411 -0.703351
outer loop
vertex 0.193799 0.124037 0.008813
vertex 0.192086 0.121996 0.006120
vertex 0.131674 0.172901 0.006263
endloop
endfacet
facet normal 0.386557 0.460994 -0.798786
outer loop
vertex 0.131674 0.172901 0.006263
vertex 0.192086 0.121996 0.006120
vertex 0.129673 0.170517 0.003919
endloop
endfacet
facet normal 0.386711 0.460865 -0.798786
outer loop
vertex 0.131674 0.172901 0.006263
vertex 0.129673 0.170517 0.003919
vertex 0.069156 0.221297 0.003919
endloop
endfacet
facet normal 0.302240 0.360195 -0.882559
outer loop
vertex 0.069156 0.221297 0.003919
vertex 0.129673 0.170517 0.003919
vertex -0.175125 0.421784 0.002087
endloop
endfacet
facet normal 0.383445 0.456815 -0.802677
outer loop
vertex 0.192086 0.121996 0.006120
vertex 0.190132 0.119666 0.003861
vertex 0.129673 0.170517 0.003919
endloop
endfacet
facet normal 0.307403 0.366491 -0.878173
outer loop
vertex 0.129673 0.170517 0.003919
vertex 0.190132 0.119666 0.003861
vertex -0.175125 0.421784 0.002087
endloop
endfacet
facet normal 0.301012 0.358733 -0.883574
outer loop
vertex 0.190132 0.119666 0.003861
vertex 0.187980 0.117102 0.002087
vertex -0.175125 0.421784 0.002087
endloop
endfacet
facet normal -0.520201 -0.619508 -0.587878
outer loop
vertex -0.195230 0.397822 0.011878
vertex -0.193799 0.399528 0.008813
vertex -0.133416 0.348588 0.009062
endloop
endfacet
facet normal -0.461565 -0.550529 -0.695612
outer loop
vertex -0.133416 0.348588 0.009062
vertex -0.193799 0.399528 0.008813
vertex -0.131674 0.350664 0.006263
endloop
endfacet
facet normal -0.461790 -0.550340 -0.695612
outer loop
vertex -0.133416 0.348588 0.009062
vertex -0.131674 0.350664 0.006263
vertex -0.071156 0.299884 0.006263
endloop
endfacet
facet normal -0.386706 -0.460858 -0.798792
outer loop
vertex -0.071156 0.299884 0.006263
vertex -0.131674 0.350664 0.006263
vertex -0.069156 0.302268 0.003919
endloop
endfacet
facet normal -0.386713 -0.460866 -0.798784
outer loop
vertex -0.071156 0.299884 0.006263
vertex -0.069156 0.302268 0.003919
vertex -0.008638 0.251488 0.003919
endloop
endfacet
facet normal -0.302246 -0.360203 -0.882554
outer loop
vertex -0.008638 0.251488 0.003919
vertex -0.069156 0.302268 0.003919
vertex 0.175125 0.101781 0.002087
endloop
endfacet
facet normal -0.457072 -0.544411 -0.703351
outer loop
vertex -0.193799 0.399528 0.008813
vertex -0.192086 0.401569 0.006120
vertex -0.131674 0.350664 0.006263
endloop
endfacet
facet normal -0.386562 -0.461001 -0.798779
outer loop
vertex -0.131674 0.350664 0.006263
vertex -0.192086 0.401569 0.006120
vertex -0.129673 0.353048 0.003919
endloop
endfacet
facet normal -0.386713 -0.460866 -0.798784
outer loop
vertex -0.131674 0.350664 0.006263
vertex -0.129673 0.353048 0.003919
vertex -0.069156 0.302268 0.003919
endloop
endfacet
facet normal -0.302253 -0.360211 -0.882548
outer loop
vertex -0.069156 0.302268 0.003919
vertex -0.129673 0.353048 0.003919
vertex 0.175125 0.101781 0.002087
endloop
endfacet
facet normal -0.383441 -0.456810 -0.802681
outer loop
vertex -0.192086 0.401569 0.006120
vertex -0.190132 0.403899 0.003861
vertex -0.129673 0.353048 0.003919
endloop
endfacet
facet normal -0.307393 -0.366479 -0.878182
outer loop
vertex -0.129673 0.353048 0.003919
vertex -0.190132 0.403899 0.003861
vertex 0.175125 0.101781 0.002087
endloop
endfacet
facet normal -0.301010 -0.358730 -0.883576
outer loop
vertex -0.190132 0.403899 0.003861
vertex -0.187980 0.406463 0.002087
vertex 0.175125 0.101781 0.002087
endloop
endfacet
facet normal -0.386709 -0.460862 -0.798788
outer loop
vertex 0.051879 0.200708 0.003919
vertex 0.112397 0.149927 0.003919
vertex 0.049879 0.198324 0.006263
endloop
endfacet
facet normal -0.386710 -0.460863 -0.798787
outer loop
vertex 0.049879 0.198324 0.006263
vertex 0.112397 0.149927 0.003919
vertex 0.110396 0.147543 0.006263
endloop
endfacet
facet normal -0.461794 -0.550345 -0.695606
outer loop
vertex 0.049879 0.198324 0.006263
vertex 0.110396 0.147543 0.006263
vertex 0.048137 0.196247 0.009062
endloop
endfacet
facet normal -0.461791 -0.550341 -0.695610
outer loop
vertex 0.048137 0.196247 0.009062
vertex 0.110396 0.147543 0.006263
vertex 0.108654 0.145467 0.009062
endloop
endfacet
facet normal -0.525653 -0.626449 -0.575544
outer loop
vertex 0.048137 0.196247 0.009062
vertex 0.108654 0.145467 0.009062
vertex 0.046695 0.194530 0.012248
endloop
endfacet
facet normal -0.525658 -0.626454 -0.575534
outer loop
vertex 0.046695 0.194530 0.012248
vertex 0.108654 0.145467 0.009062
vertex 0.107213 0.143749 0.012248
endloop
endfacet
facet normal -0.576751 -0.687345 -0.441491
outer loop
vertex 0.046695 0.194530 0.012248
vertex 0.107213 0.143749 0.012248
vertex 0.045590 0.193212 0.015744
endloop
endfacet
facet normal -0.576752 -0.687346 -0.441490
outer loop
vertex 0.045590 0.193212 0.015744
vertex 0.107213 0.143749 0.012248
vertex 0.106107 0.142432 0.015744
endloop
endfacet
facet normal -0.613840 -0.731545 -0.296719
outer loop
vertex 0.045590 0.193212 0.015744
vertex 0.106107 0.142432 0.015744
vertex 0.044847 0.192326 0.019465
endloop
endfacet
facet normal -0.613839 -0.731545 -0.296722
outer loop
vertex 0.044847 0.192326 0.019465
vertex 0.106107 0.142432 0.015744
vertex 0.105364 0.141546 0.019465
endloop
endfacet
facet normal -0.636019 -0.757977 -0.144741
outer loop
vertex 0.044847 0.192326 0.019465
vertex 0.105364 0.141546 0.019465
vertex 0.044484 0.191894 0.023320
endloop
endfacet
facet normal -0.636019 -0.757978 -0.144741
outer loop
vertex 0.044484 0.191894 0.023320
vertex 0.105364 0.141546 0.019465
vertex 0.105002 0.141114 0.023320
endloop
endfacet
facet normal -0.642750 -0.766000 0.010760
outer loop
vertex 0.044484 0.191894 0.023320
vertex 0.105002 0.141114 0.023320
vertex 0.044511 0.191926 0.027216
endloop
endfacet
facet normal -0.642751 -0.766000 0.010745
outer loop
vertex 0.044511 0.191926 0.027216
vertex 0.105002 0.141114 0.023320
vertex 0.105029 0.141146 0.027216
endloop
endfacet
facet normal -0.633870 -0.755417 0.165994
outer loop
vertex 0.044511 0.191926 0.027216
vertex 0.105029 0.141146 0.027216
vertex 0.044927 0.192422 0.031058
endloop
endfacet
facet normal -0.633872 -0.755419 0.165979
outer loop
vertex 0.044927 0.192422 0.031058
vertex 0.105029 0.141146 0.027216
vertex 0.105444 0.141642 0.031058
endloop
endfacet
facet normal -0.609597 -0.726488 0.317186
outer loop
vertex 0.044927 0.192422 0.031058
vertex 0.105444 0.141642 0.031058
vertex 0.045721 0.193369 0.034753
endloop
endfacet
facet normal -0.609595 -0.726487 0.317192
outer loop
vertex 0.045721 0.193369 0.034753
vertex 0.105444 0.141642 0.031058
vertex 0.106239 0.142588 0.034753
endloop
endfacet
facet normal -0.570515 -0.679915 0.460682
outer loop
vertex 0.045721 0.193369 0.034753
vertex 0.106239 0.142588 0.034753
vertex 0.046875 0.194744 0.038211
endloop
endfacet
facet normal -0.570516 -0.679913 0.460684
outer loop
vertex 0.046875 0.194744 0.038211
vertex 0.106239 0.142588 0.034753
vertex 0.107392 0.143963 0.038211
endloop
endfacet
facet normal -0.517576 -0.616823 0.592996
outer loop
vertex 0.046875 0.194744 0.038211
vertex 0.107392 0.143963 0.038211
vertex 0.048360 0.196513 0.041348
endloop
endfacet
facet normal -0.517579 -0.616826 0.592991
outer loop
vertex 0.048360 0.196513 0.041348
vertex 0.107392 0.143963 0.038211
vertex 0.108877 0.145733 0.041348
endloop
endfacet
facet normal -0.452069 -0.538758 0.710896
outer loop
vertex 0.048360 0.196513 0.041348
vertex 0.108877 0.145733 0.041348
vertex 0.050140 0.198635 0.044088
endloop
endfacet
facet normal -0.452069 -0.538754 0.710899
outer loop
vertex 0.050140 0.198635 0.044088
vertex 0.108877 0.145733 0.041348
vertex 0.110658 0.147855 0.044088
endloop
endfacet
facet normal -0.375581 -0.447600 0.811538
outer loop
vertex 0.050140 0.198635 0.044088
vertex 0.110658 0.147855 0.044088
vertex 0.052173 0.201057 0.046365
endloop
endfacet
facet normal -0.375582 -0.447600 0.811537
outer loop
vertex 0.052173 0.201057 0.046365
vertex 0.110658 0.147855 0.044088
vertex 0.112690 0.150277 0.046365
endloop
endfacet
facet normal -0.289970 -0.345572 0.892467
outer loop
vertex 0.052173 0.201057 0.046365
vertex 0.112690 0.150277 0.046365
vertex 0.054408 0.203721 0.048123
endloop
endfacet
facet normal -0.289970 -0.345574 0.892466
outer loop
vertex 0.054408 0.203721 0.048123
vertex 0.112690 0.150277 0.046365
vertex 0.114925 0.152941 0.048123
endloop
endfacet
facet normal -0.197316 -0.235153 0.951719
outer loop
vertex 0.054408 0.203721 0.048123
vertex 0.114925 0.152941 0.048123
vertex 0.056791 0.206562 0.049319
endloop
endfacet
facet normal -0.197316 -0.235152 0.951719
outer loop
vertex 0.056791 0.206562 0.049319
vertex 0.114925 0.152941 0.048123
vertex 0.117309 0.155781 0.049319
endloop
endfacet
facet normal -0.099872 -0.119022 0.987856
outer loop
vertex 0.056791 0.206562 0.049319
vertex 0.117309 0.155781 0.049319
vertex 0.059265 0.209510 0.049924
endloop
endfacet
facet normal -0.099870 -0.119021 0.987856
outer loop
vertex 0.059265 0.209510 0.049924
vertex 0.117309 0.155781 0.049319
vertex 0.119783 0.158730 0.049924
endloop
endfacet
facet normal 0.000000 0.000000 1.000000
outer loop
vertex 0.059265 0.209510 0.049924
vertex 0.119783 0.158730 0.049924
vertex 0.061770 0.212495 0.049924
endloop
endfacet
facet normal 0.000001 0.000000 1.000000
outer loop
vertex 0.061770 0.212495 0.049924
vertex 0.119783 0.158730 0.049924
vertex 0.122287 0.161714 0.049924
endloop
endfacet
facet normal 0.099870 0.119021 0.987856
outer loop
vertex 0.061770 0.212495 0.049924
vertex 0.122287 0.161714 0.049924
vertex 0.064244 0.215443 0.049319
endloop
endfacet
facet normal 0.099871 0.119022 0.987856
outer loop
vertex 0.064244 0.215443 0.049319
vertex 0.122287 0.161714 0.049924
vertex 0.124761 0.164663 0.049319
endloop
endfacet
facet normal 0.197318 0.235153 0.951719
outer loop
vertex 0.064244 0.215443 0.049319
vertex 0.124761 0.164663 0.049319
vertex 0.066627 0.218283 0.048123
endloop
endfacet
facet normal 0.197318 0.235154 0.951719
outer loop
vertex 0.066627 0.218283 0.048123
vertex 0.124761 0.164663 0.049319
vertex 0.127145 0.167503 0.048123
endloop
endfacet
facet normal 0.289971 0.345576 0.892465
outer loop
vertex 0.066627 0.218283 0.048123
vertex 0.127145 0.167503 0.048123
vertex 0.068862 0.220947 0.046365
endloop
endfacet
facet normal 0.289970 0.345573 0.892467
outer loop
vertex 0.068862 0.220947 0.046365
vertex 0.127145 0.167503 0.048123
vertex 0.129380 0.170167 0.046365
endloop
endfacet
facet normal 0.375580 0.447597 0.811539
outer loop
vertex 0.068862 0.220947 0.046365
vertex 0.129380 0.170167 0.046365
vertex 0.070895 0.223369 0.044088
endloop
endfacet
facet normal 0.375579 0.447600 0.811538
outer loop
vertex 0.070895 0.223369 0.044088
vertex 0.129380 0.170167 0.046365
vertex 0.131412 0.172589 0.044088
endloop
endfacet
facet normal 0.452072 0.538757 0.710896
outer loop
vertex 0.070895 0.223369 0.044088
vertex 0.131412 0.172589 0.044088
vertex 0.072675 0.225491 0.041348
endloop
endfacet
facet normal 0.452068 0.538756 0.710898
outer loop
vertex 0.072675 0.225491 0.041348
vertex 0.131412 0.172589 0.044088
vertex 0.133193 0.174711 0.041348
endloop
endfacet
facet normal 0.517576 0.616823 0.592996
outer loop
vertex 0.072675 0.225491 0.041348
vertex 0.133193 0.174711 0.041348
vertex 0.074160 0.227261 0.038211
endloop
endfacet
facet normal 0.517579 0.616826 0.592990
outer loop
vertex 0.074160 0.227261 0.038211
vertex 0.133193 0.174711 0.041348
vertex 0.134678 0.176481 0.038211
endloop
endfacet
facet normal 0.570517 0.679914 0.460681
outer loop
vertex 0.074160 0.227261 0.038211
vertex 0.134678 0.176481 0.038211
vertex 0.075314 0.228636 0.034753
endloop
endfacet
facet normal 0.570515 0.679914 0.460683
outer loop
vertex 0.075314 0.228636 0.034753
vertex 0.134678 0.176481 0.038211
vertex 0.135831 0.177856 0.034753
endloop
endfacet
facet normal 0.609596 0.726489 0.317186
outer loop
vertex 0.075314 0.228636 0.034753
vertex 0.135831 0.177856 0.034753
vertex 0.076108 0.229583 0.031058
endloop
endfacet
facet normal 0.609595 0.726486 0.317193
outer loop
vertex 0.076108 0.229583 0.031058
vertex 0.135831 0.177856 0.034753
vertex 0.136626 0.178802 0.031058
endloop
endfacet
facet normal 0.633871 0.755419 0.165982
outer loop
vertex 0.076108 0.229583 0.031058
vertex 0.136626 0.178802 0.031058
vertex 0.076524 0.230078 0.027216
endloop
endfacet
facet normal 0.633871 0.755418 0.165986
outer loop
vertex 0.076524 0.230078 0.027216
vertex 0.136626 0.178802 0.031058
vertex 0.137041 0.179298 0.027216
endloop
endfacet
facet normal 0.642750 0.766000 0.010748
outer loop
vertex 0.076524 0.230078 0.027216
vertex 0.137041 0.179298 0.027216
vertex 0.076551 0.230110 0.023320
endloop
endfacet
facet normal 0.642751 0.766000 0.010758
outer loop
vertex 0.076551 0.230110 0.023320
vertex 0.137041 0.179298 0.027216
vertex 0.137068 0.179330 0.023320
endloop
endfacet
facet normal 0.636019 0.757978 -0.144741
outer loop
vertex 0.076551 0.230110 0.023320
vertex 0.137068 0.179330 0.023320
vertex 0.076188 0.229678 0.019465
endloop
endfacet
facet normal 0.636019 0.757977 -0.144747
outer loop
vertex 0.076188 0.229678 0.019465
vertex 0.137068 0.179330 0.023320
vertex 0.136706 0.178898 0.019465
endloop
endfacet
facet normal 0.613840 0.731547 -0.296714
outer loop
vertex 0.076188 0.229678 0.019465
vertex 0.136706 0.178898 0.019465
vertex 0.075445 0.228792 0.015744
endloop
endfacet
facet normal 0.613841 0.731547 -0.296714
outer loop
vertex 0.075445 0.228792 0.015744
vertex 0.136706 0.178898 0.019465
vertex 0.135963 0.178012 0.015744
endloop
endfacet
facet normal 0.576750 0.687344 -0.441496
outer loop
vertex 0.075445 0.228792 0.015744
vertex 0.135963 0.178012 0.015744
vertex 0.074340 0.227475 0.012248
endloop
endfacet
facet normal 0.576750 0.687343 -0.441496
outer loop
vertex 0.074340 0.227475 0.012248
vertex 0.135963 0.178012 0.015744
vertex 0.134857 0.176695 0.012248
endloop
endfacet
facet normal 0.525657 0.626454 -0.575535
outer loop
vertex 0.074340 0.227475 0.012248
vertex 0.134857 0.176695 0.012248
vertex 0.072898 0.225757 0.009062
endloop
endfacet
facet normal -0.386715 -0.460869 -0.798781
outer loop
vertex 0.051879 0.200708 0.003919
vertex 0.049879 0.198324 0.006263
vertex -0.010639 0.249104 0.006263
endloop
endfacet
facet normal -0.461792 -0.550342 -0.695609
outer loop
vertex -0.010639 0.249104 0.006263
vertex 0.049879 0.198324 0.006263
vertex -0.012381 0.247028 0.009062
endloop
endfacet
facet normal -0.461794 -0.550345 -0.695606
outer loop
vertex -0.010639 0.249104 0.006263
vertex -0.012381 0.247028 0.009062
vertex -0.072898 0.297808 0.009062
endloop
endfacet
facet normal -0.525652 -0.626447 -0.575548
outer loop
vertex -0.072898 0.297808 0.009062
vertex -0.012381 0.247028 0.009062
vertex -0.074340 0.296090 0.012248
endloop
endfacet
facet normal -0.525659 -0.626456 -0.575531
outer loop
vertex -0.072898 0.297808 0.009062
vertex -0.074340 0.296090 0.012248
vertex -0.134857 0.346870 0.012248
endloop
endfacet
facet normal -0.576753 -0.687347 -0.441486
outer loop
vertex -0.134857 0.346870 0.012248
vertex -0.074340 0.296090 0.012248
vertex -0.135963 0.345553 0.015744
endloop
endfacet
facet normal -0.461790 -0.550340 -0.695612
outer loop
vertex -0.012381 0.247028 0.009062
vertex 0.049879 0.198324 0.006263
vertex 0.048137 0.196247 0.009062
endloop
endfacet
facet normal -0.525657 -0.626453 -0.575535
outer loop
vertex -0.012381 0.247028 0.009062
vertex 0.048137 0.196247 0.009062
vertex -0.013822 0.245310 0.012248
endloop
endfacet
facet normal -0.525652 -0.626447 -0.575547
outer loop
vertex -0.013822 0.245310 0.012248
vertex 0.048137 0.196247 0.009062
vertex 0.046695 0.194530 0.012248
endloop
endfacet
facet normal -0.576751 -0.687345 -0.441491
outer loop
vertex -0.013822 0.245310 0.012248
vertex 0.046695 0.194530 0.012248
vertex -0.014928 0.243992 0.015744
endloop
endfacet
facet normal -0.576752 -0.687346 -0.441490
outer loop
vertex -0.014928 0.243992 0.015744
vertex 0.046695 0.194530 0.012248
vertex 0.045590 0.193212 0.015744
endloop
endfacet
facet normal -0.613841 -0.731547 -0.296714
outer loop
vertex -0.014928 0.243992 0.015744
vertex 0.045590 0.193212 0.015744
vertex -0.015671 0.243107 0.019465
endloop
endfacet
facet normal -0.613840 -0.731546 -0.296718
outer loop
vertex -0.015671 0.243107 0.019465
vertex 0.045590 0.193212 0.015744
vertex 0.044847 0.192326 0.019465
endloop
endfacet
facet normal -0.636018 -0.757977 -0.144747
outer loop
vertex -0.015671 0.243107 0.019465
vertex 0.044847 0.192326 0.019465
vertex -0.016033 0.242675 0.023320
endloop
endfacet
facet normal -0.636019 -0.757977 -0.144744
outer loop
vertex -0.016033 0.242675 0.023320
vertex 0.044847 0.192326 0.019465
vertex 0.044484 0.191894 0.023320
endloop
endfacet
facet normal -0.642751 -0.766000 0.010754
outer loop
vertex -0.016033 0.242675 0.023320
vertex 0.044484 0.191894 0.023320
vertex -0.016006 0.242707 0.027216
endloop
endfacet
facet normal -0.642751 -0.766000 0.010763
outer loop
vertex -0.016006 0.242707 0.027216
vertex 0.044484 0.191894 0.023320
vertex 0.044511 0.191926 0.027216
endloop
endfacet
facet normal -0.633872 -0.755419 0.165976
outer loop
vertex -0.016006 0.242707 0.027216
vertex 0.044511 0.191926 0.027216
vertex -0.015591 0.243202 0.031058
endloop
endfacet
facet normal -0.633871 -0.755418 0.165986
outer loop
vertex -0.015591 0.243202 0.031058
vertex 0.044511 0.191926 0.027216
vertex 0.044927 0.192422 0.031058
endloop
endfacet
facet normal -0.609596 -0.726487 0.317191
outer loop
vertex -0.015591 0.243202 0.031058
vertex 0.044927 0.192422 0.031058
vertex -0.014796 0.244149 0.034753
endloop
endfacet
facet normal -0.609596 -0.726489 0.317185
outer loop
vertex -0.014796 0.244149 0.034753
vertex 0.044927 0.192422 0.031058
vertex 0.045721 0.193369 0.034753
endloop
endfacet
facet normal -0.570515 -0.679915 0.460682
outer loop
vertex -0.014796 0.244149 0.034753
vertex 0.045721 0.193369 0.034753
vertex -0.013643 0.245524 0.038211
endloop
endfacet
facet normal -0.570515 -0.679911 0.460688
outer loop
vertex -0.013643 0.245524 0.038211
vertex 0.045721 0.193369 0.034753
vertex 0.046875 0.194744 0.038211
endloop
endfacet
facet normal -0.517580 -0.616827 0.592988
outer loop
vertex -0.013643 0.245524 0.038211
vertex 0.046875 0.194744 0.038211
vertex -0.012158 0.247294 0.041348
endloop
endfacet
facet normal -0.517576 -0.616823 0.592996
outer loop
vertex -0.012158 0.247294 0.041348
vertex 0.046875 0.194744 0.038211
vertex 0.048360 0.196513 0.041348
endloop
endfacet
facet normal -0.452067 -0.538755 0.710900
outer loop
vertex -0.012158 0.247294 0.041348
vertex 0.048360 0.196513 0.041348
vertex -0.010377 0.249415 0.044088
endloop
endfacet
facet normal -0.452072 -0.538756 0.710895
outer loop
vertex -0.010377 0.249415 0.044088
vertex 0.048360 0.196513 0.041348
vertex 0.050140 0.198635 0.044088
endloop
endfacet
facet normal -0.375583 -0.447602 0.811536
outer loop
vertex -0.010377 0.249415 0.044088
vertex 0.050140 0.198635 0.044088
vertex -0.008345 0.251838 0.046365
endloop
endfacet
facet normal -0.375579 -0.447597 0.811540
outer loop
vertex -0.008345 0.251838 0.046365
vertex 0.050140 0.198635 0.044088
vertex 0.052173 0.201057 0.046365
endloop
endfacet
facet normal -0.289970 -0.345572 0.892467
outer loop
vertex -0.008345 0.251838 0.046365
vertex 0.052173 0.201057 0.046365
vertex -0.006110 0.254501 0.048123
endloop
endfacet
facet normal -0.289973 -0.345576 0.892465
outer loop
vertex -0.006110 0.254501 0.048123
vertex 0.052173 0.201057 0.046365
vertex 0.054408 0.203721 0.048123
endloop
endfacet
facet normal -0.197316 -0.235155 0.951719
outer loop
vertex -0.006110 0.254501 0.048123
vertex 0.054408 0.203721 0.048123
vertex -0.003726 0.257342 0.049319
endloop
endfacet
facet normal -0.197318 -0.235154 0.951719
outer loop
vertex -0.003726 0.257342 0.049319
vertex 0.054408 0.203721 0.048123
vertex 0.056791 0.206562 0.049319
endloop
endfacet
facet normal -0.099871 -0.119021 0.987856
outer loop
vertex -0.003726 0.257342 0.049319
vertex 0.056791 0.206562 0.049319
vertex -0.001252 0.260290 0.049924
endloop
endfacet
facet normal -0.099871 -0.119022 0.987856
outer loop
vertex -0.001252 0.260290 0.049924
vertex 0.056791 0.206562 0.049319
vertex 0.059265 0.209510 0.049924
endloop
endfacet
facet normal 0.000000 0.000000 1.000000
outer loop
vertex -0.001252 0.260290 0.049924
vertex 0.059265 0.209510 0.049924
vertex 0.001252 0.263275 0.049924
endloop
endfacet
facet normal 0.000001 0.000000 1.000000
outer loop
vertex 0.001252 0.263275 0.049924
vertex 0.059265 0.209510 0.049924
vertex 0.061770 0.212495 0.049924
endloop
endfacet
facet normal 0.099871 0.119022 0.987856
outer loop
vertex 0.001252 0.263275 0.049924
vertex 0.061770 0.212495 0.049924
vertex 0.003726 0.266223 0.049319
endloop
endfacet
facet normal 0.099871 0.119022 0.987856
outer loop
vertex 0.003726 0.266223 0.049319
vertex 0.061770 0.212495 0.049924
vertex 0.064244 0.215443 0.049319
endloop
endfacet
facet normal 0.197318 0.235153 0.951719
outer loop
vertex 0.003726 0.266223 0.049319
vertex 0.064244 0.215443 0.049319
vertex 0.006110 0.269064 0.048123
endloop
endfacet
facet normal 0.197318 0.235154 0.951719
outer loop
vertex 0.006110 0.269064 0.048123
vertex 0.064244 0.215443 0.049319
vertex 0.066627 0.218283 0.048123
endloop
endfacet
facet normal 0.289967 0.345570 0.892469
outer loop
vertex 0.006110 0.269064 0.048123
vertex 0.066627 0.218283 0.048123
vertex 0.008345 0.271727 0.046365
endloop
endfacet
facet normal 0.289971 0.345575 0.892466
outer loop
vertex 0.008345 0.271727 0.046365
vertex 0.066627 0.218283 0.048123
vertex 0.068862 0.220947 0.046365
endloop
endfacet
facet normal 0.375581 0.447600 0.811538
outer loop
vertex 0.008345 0.271727 0.046365
vertex 0.068862 0.220947 0.046365
vertex 0.010377 0.274149 0.044088
endloop
endfacet
facet normal 0.375581 0.447600 0.811538
outer loop
vertex 0.010377 0.274149 0.044088
vertex 0.068862 0.220947 0.046365
vertex 0.070895 0.223369 0.044088
endloop
endfacet
facet normal 0.452068 0.538752 0.710902
outer loop
vertex 0.010377 0.274149 0.044088
vertex 0.070895 0.223369 0.044088
vertex 0.012158 0.276271 0.041348
endloop
endfacet
facet normal 0.452070 0.538757 0.710896
outer loop
vertex 0.012158 0.276271 0.041348
vertex 0.070895 0.223369 0.044088
vertex 0.072675 0.225491 0.041348
endloop
endfacet
facet normal 0.517581 0.616827 0.592988
outer loop
vertex 0.012158 0.276271 0.041348
vertex 0.072675 0.225491 0.041348
vertex 0.013643 0.278041 0.038211
endloop
endfacet
facet normal 0.517577 0.616825 0.592993
outer loop
vertex 0.013643 0.278041 0.038211
vertex 0.072675 0.225491 0.041348
vertex 0.074160 0.227261 0.038211
endloop
endfacet
facet normal 0.570514 0.679911 0.460691
outer loop
vertex 0.013643 0.278041 0.038211
vertex 0.074160 0.227261 0.038211
vertex 0.014796 0.279416 0.034753
endloop
endfacet
facet normal 0.570516 0.679915 0.460681
outer loop
vertex 0.014796 0.279416 0.034753
vertex 0.074160 0.227261 0.038211
vertex 0.075314 0.228636 0.034753
endloop
endfacet
facet normal 0.609594 0.726486 0.317197
outer loop
vertex 0.014796 0.279416 0.034753
vertex 0.075314 0.228636 0.034753
vertex 0.015591 0.280363 0.031058
endloop
endfacet
facet normal 0.609599 0.726490 0.317178
outer loop
vertex 0.015591 0.280363 0.031058
vertex 0.075314 0.228636 0.034753
vertex 0.076108 0.229583 0.031058
endloop
endfacet
facet normal 0.633871 0.755419 0.165982
outer loop
vertex 0.015591 0.280363 0.031058
vertex 0.076108 0.229583 0.031058
vertex 0.016006 0.280858 0.027216
endloop
endfacet
facet normal 0.633870 0.755417 0.165993
outer loop
vertex 0.016006 0.280858 0.027216
vertex 0.076108 0.229583 0.031058
vertex 0.076524 0.230078 0.027216
endloop
endfacet
facet normal 0.642750 0.766000 0.010760
outer loop
vertex 0.016006 0.280858 0.027216
vertex 0.076524 0.230078 0.027216
vertex 0.016033 0.280890 0.023320
endloop
endfacet
facet normal 0.642751 0.766000 0.010745
outer loop
vertex 0.016033 0.280890 0.023320
vertex 0.076524 0.230078 0.027216
vertex 0.076551 0.230110 0.023320
endloop
endfacet
facet normal 0.636019 0.757978 -0.144741
outer loop
vertex 0.016033 0.280890 0.023320
vertex 0.076551 0.230110 0.023320
vertex 0.015671 0.280458 0.019465
endloop
endfacet
facet normal 0.636019 0.757978 -0.144738
outer loop
vertex 0.015671 0.280458 0.019465
vertex 0.076551 0.230110 0.023320
vertex 0.076188 0.229678 0.019465
endloop
endfacet
facet normal 0.613838 0.731544 -0.296725
outer loop
vertex 0.015671 0.280458 0.019465
vertex 0.076188 0.229678 0.019465
vertex 0.014928 0.279573 0.015744
endloop
endfacet
facet normal 0.613839 0.731545 -0.296721
outer loop
vertex 0.014928 0.279573 0.015744
vertex 0.076188 0.229678 0.019465
vertex 0.075445 0.228792 0.015744
endloop
endfacet
facet normal 0.576753 0.687347 -0.441486
outer loop
vertex 0.014928 0.279573 0.015744
vertex 0.075445 0.228792 0.015744
vertex 0.013822 0.278255 0.012248
endloop
endfacet
facet normal 0.576751 0.687345 -0.441491
outer loop
vertex 0.013822 0.278255 0.012248
vertex 0.075445 0.228792 0.015744
vertex 0.074340 0.227475 0.012248
endloop
endfacet
facet normal 0.525657 0.626453 -0.575535
outer loop
vertex 0.013822 0.278255 0.012248
vertex 0.074340 0.227475 0.012248
vertex 0.012381 0.276537 0.009062
endloop
endfacet
facet normal 0.525652 0.626447 -0.575547
outer loop
vertex 0.012381 0.276537 0.009062
vertex 0.074340 0.227475 0.012248
vertex 0.072898 0.225757 0.009062
endloop
endfacet
facet normal 0.461792 0.550342 -0.695609
outer loop
vertex 0.012381 0.276537 0.009062
vertex 0.072898 0.225757 0.009062
vertex 0.010639 0.274461 0.006263
endloop
endfacet
facet normal -0.525655 -0.626451 -0.575539
outer loop
vertex -0.012381 0.247028 0.009062
vertex -0.013822 0.245310 0.012248
vertex -0.074340 0.296090 0.012248
endloop
endfacet
facet normal -0.576750 -0.687343 -0.441496
outer loop
vertex -0.074340 0.296090 0.012248
vertex -0.013822 0.245310 0.012248
vertex -0.075445 0.294772 0.015744
endloop
endfacet
facet normal -0.576746 -0.687340 -0.441506
outer loop
vertex -0.074340 0.296090 0.012248
vertex -0.075445 0.294772 0.015744
vertex -0.135963 0.345553 0.015744
endloop
endfacet
facet normal -0.613841 -0.731548 -0.296708
outer loop
vertex -0.135963 0.345553 0.015744
vertex -0.075445 0.294772 0.015744
vertex -0.136706 0.344667 0.019465
endloop
endfacet
facet normal -0.576754 -0.687348 -0.441483
outer loop
vertex -0.075445 0.294772 0.015744
vertex -0.013822 0.245310 0.012248
vertex -0.014928 0.243992 0.015744
endloop
endfacet
facet normal -0.613840 -0.731545 -0.296719
outer loop
vertex -0.075445 0.294772 0.015744
vertex -0.014928 0.243992 0.015744
vertex -0.076188 0.293887 0.019465
endloop
endfacet
facet normal -0.613838 -0.731544 -0.296726
outer loop
vertex -0.076188 0.293887 0.019465
vertex -0.014928 0.243992 0.015744
vertex -0.015671 0.243107 0.019465
endloop
endfacet
facet normal -0.636019 -0.757978 -0.144741
outer loop
vertex -0.076188 0.293887 0.019465
vertex -0.015671 0.243107 0.019465
vertex -0.076551 0.293455 0.023320
endloop
endfacet
facet normal -0.636020 -0.757979 -0.144730
outer loop
vertex -0.076551 0.293455 0.023320
vertex -0.015671 0.243107 0.019465
vertex -0.016033 0.242675 0.023320
endloop
endfacet
facet normal -0.642750 -0.766001 0.010748
outer loop
vertex -0.076551 0.293455 0.023320
vertex -0.016033 0.242675 0.023320
vertex -0.076524 0.293487 0.027216
endloop
endfacet
facet normal -0.642751 -0.766000 0.010738
outer loop
vertex -0.076524 0.293487 0.027216
vertex -0.016033 0.242675 0.023320
vertex -0.016006 0.242707 0.027216
endloop
endfacet
facet normal -0.633870 -0.755417 0.165994
outer loop
vertex -0.076524 0.293487 0.027216
vertex -0.016006 0.242707 0.027216
vertex -0.076108 0.293982 0.031058
endloop
endfacet
facet normal -0.633869 -0.755416 0.166004
outer loop
vertex -0.076108 0.293982 0.031058
vertex -0.016006 0.242707 0.027216
vertex -0.015591 0.243202 0.031058
endloop
endfacet
facet normal -0.609599 -0.726491 0.317175
outer loop
vertex -0.076108 0.293982 0.031058
vertex -0.015591 0.243202 0.031058
vertex -0.075314 0.294929 0.034753
endloop
endfacet
facet normal -0.609596 -0.726490 0.317183
outer loop
vertex -0.075314 0.294929 0.034753
vertex -0.015591 0.243202 0.031058
vertex -0.014796 0.244149 0.034753
endloop
endfacet
facet normal -0.570516 -0.679915 0.460681
outer loop
vertex -0.075314 0.294929 0.034753
vertex -0.014796 0.244149 0.034753
vertex -0.074160 0.296304 0.038211
endloop
endfacet
facet normal -0.570516 -0.679913 0.460684
outer loop
vertex -0.074160 0.296304 0.038211
vertex -0.014796 0.244149 0.034753
vertex -0.013643 0.245524 0.038211
endloop
endfacet
facet normal -0.517574 -0.616821 0.593000
outer loop
vertex -0.074160 0.296304 0.038211
vertex -0.013643 0.245524 0.038211
vertex -0.072675 0.298074 0.041348
endloop
endfacet
facet normal -0.517578 -0.616826 0.592991
outer loop
vertex -0.072675 0.298074 0.041348
vertex -0.013643 0.245524 0.038211
vertex -0.012158 0.247294 0.041348
endloop
endfacet
facet normal -0.452065 -0.538750 0.710905
outer loop
vertex -0.072675 0.298074 0.041348
vertex -0.012158 0.247294 0.041348
vertex -0.070895 0.300196 0.044088
endloop
endfacet
facet normal -0.452073 -0.538758 0.710893
outer loop
vertex -0.070895 0.300196 0.044088
vertex -0.012158 0.247294 0.041348
vertex -0.010377 0.249415 0.044088
endloop
endfacet
facet normal -0.375581 -0.447600 0.811538
outer loop
vertex -0.070895 0.300196 0.044088
vertex -0.010377 0.249415 0.044088
vertex -0.068862 0.302618 0.046365
endloop
endfacet
facet normal -0.375584 -0.447602 0.811535
outer loop
vertex -0.068862 0.302618 0.046365
vertex -0.010377 0.249415 0.044088
vertex -0.008345 0.251838 0.046365
endloop
endfacet
facet normal -0.289973 -0.345576 0.892465
outer loop
vertex -0.068862 0.302618 0.046365
vertex -0.008345 0.251838 0.046365
vertex -0.066627 0.305281 0.048123
endloop
endfacet
facet normal -0.289970 -0.345573 0.892467
outer loop
vertex -0.066627 0.305281 0.048123
vertex -0.008345 0.251838 0.046365
vertex -0.006110 0.254501 0.048123
endloop
endfacet
facet normal -0.197313 -0.235149 0.951721
outer loop
vertex -0.066627 0.305281 0.048123
vertex -0.006110 0.254501 0.048123
vertex -0.064244 0.308122 0.049319
endloop
endfacet
facet normal -0.197319 -0.235155 0.951718
outer loop
vertex -0.064244 0.308122 0.049319
vertex -0.006110 0.254501 0.048123
vertex -0.003726 0.257342 0.049319
endloop
endfacet
facet normal -0.099873 -0.119023 0.987856
outer loop
vertex -0.064244 0.308122 0.049319
vertex -0.003726 0.257342 0.049319
vertex -0.061770 0.311070 0.049924
endloop
endfacet
facet normal -0.099870 -0.119021 0.987856
outer loop
vertex -0.061770 0.311070 0.049924
vertex -0.003726 0.257342 0.049319
vertex -0.001252 0.260290 0.049924
endloop
endfacet
facet normal -0.000002 0.000000 1.000000
outer loop
vertex -0.061770 0.311070 0.049924
vertex -0.001252 0.260290 0.049924
vertex -0.059265 0.314055 0.049924
endloop
endfacet
facet normal 0.000000 0.000000 1.000000
outer loop
vertex -0.059265 0.314055 0.049924
vertex -0.001252 0.260290 0.049924
vertex 0.001252 0.263275 0.049924
endloop
endfacet
facet normal 0.099869 0.119020 0.987856
outer loop
vertex -0.059265 0.314055 0.049924
vertex 0.001252 0.263275 0.049924
vertex -0.056791 0.317003 0.049319
endloop
endfacet
facet normal 0.099873 0.119022 0.987856
outer loop
vertex -0.056791 0.317003 0.049319
vertex 0.001252 0.263275 0.049924
vertex 0.003726 0.266223 0.049319
endloop
endfacet
facet normal 0.197317 0.235152 0.951719
outer loop
vertex -0.056791 0.317003 0.049319
vertex 0.003726 0.266223 0.049319
vertex -0.054408 0.319844 0.048123
endloop
endfacet
facet normal 0.197319 0.235157 0.951718
outer loop
vertex -0.054408 0.319844 0.048123
vertex 0.003726 0.266223 0.049319
vertex 0.006110 0.269064 0.048123
endloop
endfacet
facet normal 0.289970 0.345572 0.892467
outer loop
vertex -0.054408 0.319844 0.048123
vertex 0.006110 0.269064 0.048123
vertex -0.052173 0.322508 0.046365
endloop
endfacet
facet normal 0.289968 0.345572 0.892468
outer loop
vertex -0.052173 0.322508 0.046365
vertex 0.006110 0.269064 0.048123
vertex 0.008345 0.271727 0.046365
endloop
endfacet
facet normal 0.375581 0.447600 0.811538
outer loop
vertex -0.052173 0.322508 0.046365
vertex 0.008345 0.271727 0.046365
vertex -0.050140 0.324930 0.044088
endloop
endfacet
facet normal 0.375581 0.447601 0.811537
outer loop
vertex -0.050140 0.324930 0.044088
vertex 0.008345 0.271727 0.046365
vertex 0.010377 0.274149 0.044088
endloop
endfacet
facet normal 0.452071 0.538754 0.710898
outer loop
vertex -0.050140 0.324930 0.044088
vertex 0.010377 0.274149 0.044088
vertex -0.048360 0.327051 0.041348
endloop
endfacet
facet normal 0.452066 0.538752 0.710902
outer loop
vertex -0.048360 0.327051 0.041348
vertex 0.010377 0.274149 0.044088
vertex 0.012158 0.276271 0.041348
endloop
endfacet
facet normal 0.517581 0.616830 0.592984
outer loop
vertex -0.048360 0.327051 0.041348
vertex 0.012158 0.276271 0.041348
vertex -0.046875 0.328821 0.038211
endloop
endfacet
facet normal 0.517578 0.616826 0.592991
outer loop
vertex -0.046875 0.328821 0.038211
vertex 0.012158 0.276271 0.041348
vertex 0.013643 0.278041 0.038211
endloop
endfacet
facet normal 0.570517 0.679914 0.460681
outer loop
vertex -0.046875 0.328821 0.038211
vertex 0.013643 0.278041 0.038211
vertex -0.045721 0.330196 0.034753
endloop
endfacet
facet normal 0.570509 0.679907 0.460702
outer loop
vertex -0.045721 0.330196 0.034753
vertex 0.013643 0.278041 0.038211
vertex 0.014796 0.279416 0.034753
endloop
endfacet
facet normal 0.609596 0.726489 0.317186
outer loop
vertex -0.045721 0.330196 0.034753
vertex 0.014796 0.279416 0.034753
vertex -0.044927 0.331143 0.031058
endloop
endfacet
facet normal 0.609600 0.726492 0.317170
outer loop
vertex -0.044927 0.331143 0.031058
vertex 0.014796 0.279416 0.034753
vertex 0.015591 0.280363 0.031058
endloop
endfacet
facet normal 0.633871 0.755419 0.165982
outer loop
vertex -0.044927 0.331143 0.031058
vertex 0.015591 0.280363 0.031058
vertex -0.044511 0.331638 0.027216
endloop
endfacet
facet normal 0.633870 0.755417 0.165994
outer loop
vertex -0.044511 0.331638 0.027216
vertex 0.015591 0.280363 0.031058
vertex 0.016006 0.280858 0.027216
endloop
endfacet
facet normal 0.642751 0.766000 0.010748
outer loop
vertex -0.044511 0.331638 0.027216
vertex 0.016006 0.280858 0.027216
vertex -0.044484 0.331670 0.023320
endloop
endfacet
facet normal 0.642751 0.766000 0.010749
outer loop
vertex -0.044484 0.331670 0.023320
vertex 0.016006 0.280858 0.027216
vertex 0.016033 0.280890 0.023320
endloop
endfacet
facet normal 0.636017 0.757977 -0.144753
outer loop
vertex -0.044484 0.331670 0.023320
vertex 0.016033 0.280890 0.023320
vertex -0.044847 0.331238 0.019465
endloop
endfacet
facet normal 0.636019 0.757977 -0.144741
outer loop
vertex -0.044847 0.331238 0.019465
vertex 0.016033 0.280890 0.023320
vertex 0.015671 0.280458 0.019465
endloop
endfacet
facet normal 0.613841 0.731548 -0.296709
outer loop
vertex -0.044847 0.331238 0.019465
vertex 0.015671 0.280458 0.019465
vertex -0.045590 0.330353 0.015744
endloop
endfacet
facet normal 0.613839 0.731544 -0.296724
outer loop
vertex -0.045590 0.330353 0.015744
vertex 0.015671 0.280458 0.019465
vertex 0.014928 0.279573 0.015744
endloop
endfacet
facet normal 0.576753 0.687347 -0.441486
outer loop
vertex -0.045590 0.330353 0.015744
vertex 0.014928 0.279573 0.015744
vertex -0.046695 0.329035 0.012248
endloop
endfacet
facet normal 0.576749 0.687343 -0.441498
outer loop
vertex -0.046695 0.329035 0.012248
vertex 0.014928 0.279573 0.015744
vertex 0.013822 0.278255 0.012248
endloop
endfacet
facet normal 0.525655 0.626451 -0.575539
outer loop
vertex -0.046695 0.329035 0.012248
vertex 0.013822 0.278255 0.012248
vertex -0.048137 0.327317 0.009062
endloop
endfacet
facet normal 0.525656 0.626452 -0.575538
outer loop
vertex -0.048137 0.327317 0.009062
vertex 0.013822 0.278255 0.012248
vertex 0.012381 0.276537 0.009062
endloop
endfacet
facet normal 0.461790 0.550340 -0.695612
outer loop
vertex -0.048137 0.327317 0.009062
vertex 0.012381 0.276537 0.009062
vertex -0.049879 0.325241 0.006263
endloop
endfacet
facet normal 0.461788 0.550337 -0.695616
outer loop
vertex -0.049879 0.325241 0.006263
vertex 0.012381 0.276537 0.009062
vertex 0.010639 0.274461 0.006263
endloop
endfacet
facet normal 0.386713 0.460867 -0.798783
outer loop
vertex -0.049879 0.325241 0.006263
vertex 0.010639 0.274461 0.006263
vertex -0.051879 0.322857 0.003919
endloop
endfacet
facet normal -0.636018 -0.757976 -0.144753
outer loop
vertex -0.137068 0.344235 0.023320
vertex -0.136706 0.344667 0.019465
vertex -0.076188 0.293887 0.019465
endloop
endfacet
facet normal -0.613839 -0.731545 -0.296719
outer loop
vertex -0.076188 0.293887 0.019465
vertex -0.136706 0.344667 0.019465
vertex -0.075445 0.294772 0.015744
endloop
endfacet
facet normal -0.636020 -0.757978 -0.144733
outer loop
vertex -0.137068 0.344235 0.023320
vertex -0.076188 0.293887 0.019465
vertex -0.076551 0.293455 0.023320
endloop
endfacet
facet normal -0.642750 -0.766000 0.010748
outer loop
vertex -0.137041 0.344267 0.027216
vertex -0.137068 0.344235 0.023320
vertex -0.076551 0.293455 0.023320
endloop
endfacet
facet normal -0.642751 -0.766000 0.010743
outer loop
vertex -0.137041 0.344267 0.027216
vertex -0.076551 0.293455 0.023320
vertex -0.076524 0.293487 0.027216
endloop
endfacet
facet normal -0.633870 -0.755417 0.165994
outer loop
vertex -0.136626 0.344763 0.031058
vertex -0.137041 0.344267 0.027216
vertex -0.076524 0.293487 0.027216
endloop
endfacet
facet normal -0.633872 -0.755419 0.165976
outer loop
vertex -0.136626 0.344763 0.031058
vertex -0.076524 0.293487 0.027216
vertex -0.076108 0.293982 0.031058
endloop
endfacet
facet normal -0.609597 -0.726488 0.317186
outer loop
vertex -0.135831 0.345709 0.034753
vertex -0.136626 0.344763 0.031058
vertex -0.076108 0.293982 0.031058
endloop
endfacet
facet normal -0.609596 -0.726488 0.317187
outer loop
vertex -0.135831 0.345709 0.034753
vertex -0.076108 0.293982 0.031058
vertex -0.075314 0.294929 0.034753
endloop
endfacet
facet normal -0.570516 -0.679915 0.460681
outer loop
vertex -0.134678 0.347084 0.038211
vertex -0.135831 0.345709 0.034753
vertex -0.075314 0.294929 0.034753
endloop
endfacet
facet normal -0.570515 -0.679911 0.460688
outer loop
vertex -0.134678 0.347084 0.038211
vertex -0.075314 0.294929 0.034753
vertex -0.074160 0.296304 0.038211
endloop
endfacet
facet normal -0.517581 -0.616830 0.592985
outer loop
vertex -0.133193 0.348854 0.041348
vertex -0.134678 0.347084 0.038211
vertex -0.074160 0.296304 0.038211
endloop
endfacet
facet normal -0.517574 -0.616820 0.593001
outer loop
vertex -0.133193 0.348854 0.041348
vertex -0.074160 0.296304 0.038211
vertex -0.072675 0.298074 0.041348
endloop
endfacet
facet normal -0.452072 -0.538760 0.710893
outer loop
vertex -0.131412 0.350976 0.044088
vertex -0.133193 0.348854 0.041348
vertex -0.072675 0.298074 0.041348
endloop
endfacet
facet normal -0.452072 -0.538757 0.710895
outer loop
vertex -0.131412 0.350976 0.044088
vertex -0.072675 0.298074 0.041348
vertex -0.070895 0.300196 0.044088
endloop
endfacet
facet normal -0.375573 -0.447591 0.811546
outer loop
vertex -0.129380 0.353398 0.046365
vertex -0.131412 0.350976 0.044088
vertex -0.070895 0.300196 0.044088
endloop
endfacet
facet normal -0.375585 -0.447604 0.811533
outer loop
vertex -0.129380 0.353398 0.046365
vertex -0.070895 0.300196 0.044088
vertex -0.068862 0.302618 0.046365
endloop
endfacet
facet normal -0.289970 -0.345572 0.892467
outer loop
vertex -0.127145 0.356062 0.048123
vertex -0.129380 0.353398 0.046365
vertex -0.068862 0.302618 0.046365
endloop
endfacet
facet normal -0.289971 -0.345572 0.892467
outer loop
vertex -0.127145 0.356062 0.048123
vertex -0.068862 0.302618 0.046365
vertex -0.066627 0.305281 0.048123
endloop
endfacet
facet normal -0.197316 -0.235155 0.951719
outer loop
vertex -0.124761 0.358902 0.049319
vertex -0.127145 0.356062 0.048123
vertex -0.066627 0.305281 0.048123
endloop
endfacet
facet normal -0.197318 -0.235154 0.951718
outer loop
vertex -0.124761 0.358902 0.049319
vertex -0.066627 0.305281 0.048123
vertex -0.064244 0.308122 0.049319
endloop
endfacet
facet normal -0.099870 -0.119022 0.987856
outer loop
vertex -0.122287 0.361851 0.049924
vertex -0.124761 0.358902 0.049319
vertex -0.064244 0.308122 0.049319
endloop
endfacet
facet normal -0.099872 -0.119021 0.987856
outer loop
vertex -0.122287 0.361851 0.049924
vertex -0.064244 0.308122 0.049319
vertex -0.061770 0.311070 0.049924
endloop
endfacet
facet normal 0.000000 0.000000 1.000000
outer loop
vertex -0.119783 0.364835 0.049924
vertex -0.122287 0.361851 0.049924
vertex -0.061770 0.311070 0.049924
endloop
endfacet
facet normal 0.000001 0.000000 1.000000
outer loop
vertex -0.119783 0.364835 0.049924
vertex -0.061770 0.311070 0.049924
vertex -0.059265 0.314055 0.049924
endloop
endfacet
facet normal 0.099870 0.119022 0.987856
outer loop
vertex -0.117309 0.367784 0.049319
vertex -0.119783 0.364835 0.049924
vertex -0.059265 0.314055 0.049924
endloop
endfacet
facet normal 0.099871 0.119021 0.987856
outer loop
vertex -0.117309 0.367784 0.049319
vertex -0.059265 0.314055 0.049924
vertex -0.056791 0.317003 0.049319
endloop
endfacet
facet normal 0.197317 0.235152 0.951719
outer loop
vertex -0.114925 0.370624 0.048123
vertex -0.117309 0.367784 0.049319
vertex -0.056791 0.317003 0.049319
endloop
endfacet
facet normal 0.197316 0.235154 0.951719
outer loop
vertex -0.114925 0.370624 0.048123
vertex -0.056791 0.317003 0.049319
vertex -0.054408 0.319844 0.048123
endloop
endfacet
facet normal 0.289973 0.345576 0.892465
outer loop
vertex -0.112690 0.373288 0.046365
vertex -0.114925 0.370624 0.048123
vertex -0.054408 0.319844 0.048123
endloop
endfacet
facet normal 0.289970 0.345574 0.892466
outer loop
vertex -0.112690 0.373288 0.046365
vertex -0.054408 0.319844 0.048123
vertex -0.052173 0.322508 0.046365
endloop
endfacet
facet normal 0.375577 0.447595 0.811542
outer loop
vertex -0.110658 0.375710 0.044088
vertex -0.112690 0.373288 0.046365
vertex -0.052173 0.322508 0.046365
endloop
endfacet
facet normal 0.375583 0.447603 0.811535
outer loop
vertex -0.110658 0.375710 0.044088
vertex -0.052173 0.322508 0.046365
vertex -0.050140 0.324930 0.044088
endloop
endfacet
facet normal 0.452070 0.538754 0.710899
outer loop
vertex -0.108877 0.377832 0.041348
vertex -0.110658 0.375710 0.044088
vertex -0.050140 0.324930 0.044088
endloop
endfacet
facet normal 0.452070 0.538758 0.710896
outer loop
vertex -0.108877 0.377832 0.041348
vertex -0.050140 0.324930 0.044088
vertex -0.048360 0.327051 0.041348
endloop
endfacet
facet normal 0.517579 0.616825 0.592992
outer loop
vertex -0.107392 0.379602 0.038211
vertex -0.108877 0.377832 0.041348
vertex -0.048360 0.327051 0.041348
endloop
endfacet
facet normal 0.517575 0.616823 0.592998
outer loop
vertex -0.107392 0.379602 0.038211
vertex -0.048360 0.327051 0.041348
vertex -0.046875 0.328821 0.038211
endloop
endfacet
facet normal 0.570517 0.679914 0.460681
outer loop
vertex -0.106239 0.380977 0.034753
vertex -0.107392 0.379602 0.038211
vertex -0.046875 0.328821 0.038211
endloop
endfacet
facet normal 0.570516 0.679915 0.460681
outer loop
vertex -0.106239 0.380977 0.034753
vertex -0.046875 0.328821 0.038211
vertex -0.045721 0.330196 0.034753
endloop
endfacet
facet normal 0.609596 0.726489 0.317186
outer loop
vertex -0.105444 0.381923 0.031058
vertex -0.106239 0.380977 0.034753
vertex -0.045721 0.330196 0.034753
endloop
endfacet
facet normal 0.609594 0.726486 0.317197
outer loop
vertex -0.105444 0.381923 0.031058
vertex -0.045721 0.330196 0.034753
vertex -0.044927 0.331143 0.031058
endloop
endfacet
facet normal 0.633871 0.755419 0.165982
outer loop
vertex -0.105029 0.382419 0.027216
vertex -0.105444 0.381923 0.031058
vertex -0.044927 0.331143 0.031058
endloop
endfacet
facet normal 0.633872 0.755419 0.165977
outer loop
vertex -0.105029 0.382419 0.027216
vertex -0.044927 0.331143 0.031058
vertex -0.044511 0.331638 0.027216
endloop
endfacet
facet normal 0.642750 0.766000 0.010748
outer loop
vertex -0.105002 0.382451 0.023320
vertex -0.105029 0.382419 0.027216
vertex -0.044511 0.331638 0.027216
endloop
endfacet
facet normal 0.642751 0.766000 0.010755
outer loop
vertex -0.105002 0.382451 0.023320
vertex -0.044511 0.331638 0.027216
vertex -0.044484 0.331670 0.023320
endloop
endfacet
facet normal 0.636019 0.757978 -0.144741
outer loop
vertex -0.105364 0.382019 0.019465
vertex -0.105002 0.382451 0.023320
vertex -0.044484 0.331670 0.023320
endloop
endfacet
facet normal 0.636019 0.757977 -0.144745
outer loop
vertex -0.105364 0.382019 0.019465
vertex -0.044484 0.331670 0.023320
vertex -0.044847 0.331238 0.019465
endloop
endfacet
facet normal 0.613839 0.731546 -0.296720
outer loop
vertex -0.106107 0.381133 0.015744
vertex -0.105364 0.382019 0.019465
vertex -0.044847 0.331238 0.019465
endloop
endfacet
facet normal 0.613841 0.731547 -0.296713
outer loop
vertex -0.106107 0.381133 0.015744
vertex -0.044847 0.331238 0.019465
vertex -0.045590 0.330353 0.015744
endloop
endfacet
facet normal 0.576753 0.687347 -0.441486
outer loop
vertex -0.107213 0.379815 0.012248
vertex -0.106107 0.381133 0.015744
vertex -0.045590 0.330353 0.015744
endloop
endfacet
facet normal 0.576750 0.687344 -0.441495
outer loop
vertex -0.107213 0.379815 0.012248
vertex -0.045590 0.330353 0.015744
vertex -0.046695 0.329035 0.012248
endloop
endfacet
facet normal 0.525655 0.626451 -0.575539
outer loop
vertex -0.108654 0.378098 0.009062
vertex -0.107213 0.379815 0.012248
vertex -0.046695 0.329035 0.012248
endloop
endfacet
facet normal 0.525653 0.626448 -0.575545
outer loop
vertex -0.108654 0.378098 0.009062
vertex -0.046695 0.329035 0.012248
vertex -0.048137 0.327317 0.009062
endloop
endfacet
facet normal 0.461794 0.550344 -0.695606
outer loop
vertex -0.110396 0.376022 0.006263
vertex -0.108654 0.378098 0.009062
vertex -0.048137 0.327317 0.009062
endloop
endfacet
facet normal 0.461792 0.550343 -0.695608
outer loop
vertex -0.110396 0.376022 0.006263
vertex -0.048137 0.327317 0.009062
vertex -0.049879 0.325241 0.006263
endloop
endfacet
facet normal 0.386709 0.460862 -0.798788
outer loop
vertex -0.112397 0.373637 0.003919
vertex -0.110396 0.376022 0.006263
vertex -0.049879 0.325241 0.006263
endloop
endfacet
facet normal 0.386710 0.460863 -0.798787
outer loop
vertex -0.112397 0.373637 0.003919
vertex -0.049879 0.325241 0.006263
vertex -0.051879 0.322857 0.003919
endloop
endfacet
facet normal -0.642788 -0.766044 0.000000
outer loop
vertex 0.175125 0.101781 0.000000
vertex 0.175125 0.101781 0.002087
vertex -0.187980 0.406463 0.000000
endloop
endfacet
facet normal -0.642788 -0.766044 0.000000
outer loop
vertex -0.187980 0.406463 0.000000
vertex 0.175125 0.101781 0.002087
vertex -0.187980 0.406463 0.002087
endloop
endfacet
facet normal -0.766045 0.642787 0.000000
outer loop
vertex -0.187980 0.406463 0.000000
vertex -0.187980 0.406463 0.002087
vertex -0.175125 0.421784 0.000000
endloop
endfacet
facet normal -0.766045 0.642787 0.000000
outer loop
vertex -0.175125 0.421784 0.000000
vertex -0.187980 0.406463 0.002087
vertex -0.175125 0.421784 0.002087
endloop
endfacet
facet normal -0.766045 0.642787 0.000026
outer loop
vertex -0.175125 0.421784 0.002087
vertex -0.187980 0.406463 0.002087
vertex -0.172973 0.424348 0.003861
endloop
endfacet
facet normal -0.766044 0.642788 -0.000020
outer loop
vertex -0.172973 0.424348 0.003861
vertex -0.187980 0.406463 0.002087
vertex -0.171019 0.426677 0.006120
endloop
endfacet
facet normal -0.766046 0.642786 0.000000
outer loop
vertex -0.171019 0.426677 0.006120
vertex -0.187980 0.406463 0.002087
vertex -0.169306 0.428718 0.008813
endloop
endfacet
facet normal -0.766044 0.642788 0.000000
outer loop
vertex -0.169306 0.428718 0.008813
vertex -0.187980 0.406463 0.002087
vertex -0.167875 0.430424 0.011878
endloop
endfacet
facet normal -0.766043 0.642789 0.000000
outer loop
vertex -0.167875 0.430424 0.011878
vertex -0.187980 0.406463 0.002087
vertex -0.166757 0.431756 0.015243
endloop
endfacet
facet normal -0.766046 0.642786 0.000000
outer loop
vertex -0.166757 0.431756 0.015243
vertex -0.187980 0.406463 0.002087
vertex -0.165979 0.432682 0.018833
endloop
endfacet
facet normal -0.766044 0.642788 0.000000
outer loop
vertex -0.165979 0.432682 0.018833
vertex -0.187980 0.406463 0.002087
vertex -0.165559 0.433183 0.022564
endloop
endfacet
facet normal -0.766044 0.642788 0.000000
outer loop
vertex -0.165559 0.433183 0.022564
vertex -0.187980 0.406463 0.002087
vertex -0.165506 0.433246 0.026352
endloop
endfacet
facet normal -0.766043 0.642790 0.000000
outer loop
vertex -0.165506 0.433246 0.026352
vertex -0.187980 0.406463 0.002087
vertex -0.165822 0.432870 0.030108
endloop
endfacet
facet normal -0.766045 0.642787 0.000012
outer loop
vertex -0.165822 0.432870 0.030108
vertex -0.187980 0.406463 0.002087
vertex -0.166498 0.432064 0.033747
endloop
endfacet
facet normal -0.766049 0.642782 0.000000
outer loop
vertex -0.166498 0.432064 0.033747
vertex -0.187980 0.406463 0.002087
vertex -0.167521 0.430846 0.037185
endloop
endfacet
facet normal -0.766041 0.642791 -0.000011
outer loop
vertex -0.167521 0.430846 0.037185
vertex -0.187980 0.406463 0.002087
vertex -0.168865 0.429243 0.040343
endloop
endfacet
facet normal -0.766051 0.642780 0.000010
outer loop
vertex -0.168865 0.429243 0.040343
vertex -0.187980 0.406463 0.002087
vertex -0.170501 0.427294 0.043149
endloop
endfacet
facet normal -0.766043 0.642789 0.000000
outer loop
vertex -0.170501 0.427294 0.043149
vertex -0.187980 0.406463 0.002087
vertex -0.172390 0.425042 0.045539
endloop
endfacet
facet normal -0.766047 0.642785 0.000000
outer loop
vertex -0.172390 0.425042 0.045539
vertex -0.187980 0.406463 0.002087
vertex -0.174490 0.422540 0.047456
endloop
endfacet
facet normal -0.766041 0.642792 0.000000
outer loop
vertex -0.174490 0.422540 0.047456
vertex -0.187980 0.406463 0.002087
vertex -0.176752 0.419844 0.048859
endloop
endfacet
facet normal -0.766043 0.642790 0.000002
outer loop
vertex -0.176752 0.419844 0.048859
vertex -0.187980 0.406463 0.002087
vertex -0.190132 0.403899 0.003861
endloop
endfacet
facet normal -0.766044 0.642788 -0.000008
outer loop
vertex -0.176752 0.419844 0.048859
vertex -0.190132 0.403899 0.003861
vertex -0.192086 0.401569 0.006120
endloop
endfacet
facet normal -0.766046 0.642786 0.000010
outer loop
vertex -0.192086 0.401569 0.006120
vertex -0.193799 0.399528 0.008813
vertex -0.176752 0.419844 0.048859
endloop
endfacet
facet normal -0.766045 0.642787 -0.000010
outer loop
vertex -0.176752 0.419844 0.048859
vertex -0.193799 0.399528 0.008813
vertex -0.195230 0.397822 0.011878
endloop
endfacet
facet normal -0.766041 0.642791 0.000005
outer loop
vertex -0.176752 0.419844 0.048859
vertex -0.195230 0.397822 0.011878
vertex -0.196348 0.396491 0.015243
endloop
endfacet
facet normal -0.766044 0.642788 0.000000
outer loop
vertex -0.196348 0.396491 0.015243
vertex -0.197126 0.395564 0.018833
vertex -0.176752 0.419844 0.048859
endloop
endfacet
facet normal -0.766046 0.642786 0.000015
outer loop
vertex -0.176752 0.419844 0.048859
vertex -0.197126 0.395564 0.018833
vertex -0.197546 0.395063 0.022564
endloop
endfacet
facet normal -0.766043 0.642789 -0.000014
outer loop
vertex -0.176752 0.419844 0.048859
vertex -0.197546 0.395063 0.022564
vertex -0.197599 0.395000 0.026352
endloop
endfacet
facet normal -0.766044 0.642788 0.000000
outer loop
vertex -0.197599 0.395000 0.026352
vertex -0.197283 0.395376 0.030108
vertex -0.176752 0.419844 0.048859
endloop
endfacet
facet normal -0.766041 0.642791 0.000010
outer loop
vertex -0.176752 0.419844 0.048859
vertex -0.197283 0.395376 0.030108
vertex -0.179125 0.417017 0.049713
endloop
endfacet
facet normal -0.766046 0.642786 -0.000011
outer loop
vertex -0.179125 0.417017 0.049713
vertex -0.197283 0.395376 0.030108
vertex -0.196607 0.396182 0.033747
endloop
endfacet
facet normal -0.766047 0.642785 -0.000003
outer loop
vertex -0.179125 0.417017 0.049713
vertex -0.196607 0.396182 0.033747
vertex -0.195584 0.397401 0.037185
endloop
endfacet
facet normal -0.766044 0.642788 0.000017
outer loop
vertex -0.195584 0.397401 0.037185
vertex -0.194240 0.399003 0.040343
vertex -0.179125 0.417017 0.049713
endloop
endfacet
facet normal -0.766040 0.642793 0.000003
outer loop
vertex -0.179125 0.417017 0.049713
vertex -0.194240 0.399003 0.040343
vertex -0.192604 0.400952 0.043149
endloop
endfacet
facet normal -0.766048 0.642783 0.000019
outer loop
vertex -0.179125 0.417017 0.049713
vertex -0.192604 0.400952 0.043149
vertex -0.190715 0.403204 0.045539
endloop
endfacet
facet normal -0.766044 0.642788 -0.000044
outer loop
vertex -0.190715 0.403204 0.045539
vertex -0.188615 0.405707 0.047456
vertex -0.179125 0.417017 0.049713
endloop
endfacet
facet normal -0.766044 0.642788 0.000036
outer loop
vertex -0.179125 0.417017 0.049713
vertex -0.188615 0.405707 0.047456
vertex -0.186353 0.408402 0.048859
endloop
endfacet
facet normal -0.766045 0.642787 0.000000
outer loop
vertex -0.179125 0.417017 0.049713
vertex -0.186353 0.408402 0.048859
vertex -0.183981 0.411230 0.049713
endloop
endfacet
facet normal -0.766041 0.642792 0.000000
outer loop
vertex -0.183981 0.411230 0.049713
vertex -0.181553 0.414123 0.050000
vertex -0.179125 0.417017 0.049713
endloop
endfacet
facet normal 0.766045 -0.642787 0.000000
outer loop
vertex 0.175125 0.101781 0.000000
vertex 0.187980 0.117102 0.000000
vertex 0.175125 0.101781 0.002087
endloop
endfacet
facet normal 0.766045 -0.642787 0.000000
outer loop
vertex 0.175125 0.101781 0.002087
vertex 0.187980 0.117102 0.000000
vertex 0.187980 0.117102 0.002087
endloop
endfacet
facet normal 0.766045 -0.642787 -0.000005
outer loop
vertex 0.175125 0.101781 0.002087
vertex 0.187980 0.117102 0.002087
vertex 0.190132 0.119666 0.003861
endloop
endfacet
facet normal 0.766044 -0.642788 0.000000
outer loop
vertex 0.190132 0.119666 0.003861
vertex 0.192086 0.121996 0.006120
vertex 0.175125 0.101781 0.002087
endloop
endfacet
facet normal 0.766046 -0.642786 0.000003
outer loop
vertex 0.175125 0.101781 0.002087
vertex 0.192086 0.121996 0.006120
vertex 0.193799 0.124037 0.008813
endloop
endfacet
facet normal 0.766046 -0.642786 0.000001
outer loop
vertex 0.175125 0.101781 0.002087
vertex 0.193799 0.124037 0.008813
vertex 0.195230 0.125743 0.011878
endloop
endfacet
facet normal 0.766044 -0.642789 -0.000005
outer loop
vertex 0.195230 0.125743 0.011878
vertex 0.196348 0.127074 0.015243
vertex 0.175125 0.101781 0.002087
endloop
endfacet
facet normal 0.766046 -0.642785 0.000004
outer loop
vertex 0.175125 0.101781 0.002087
vertex 0.196348 0.127074 0.015243
vertex 0.197126 0.128001 0.018833
endloop
endfacet
facet normal 0.766044 -0.642789 -0.000001
outer loop
vertex 0.175125 0.101781 0.002087
vertex 0.197126 0.128001 0.018833
vertex 0.197546 0.128502 0.022564
endloop
endfacet
facet normal 0.766040 -0.642793 -0.000004
outer loop
vertex 0.197546 0.128502 0.022564
vertex 0.197599 0.128565 0.026352
vertex 0.175125 0.101781 0.002087
endloop
endfacet
facet normal 0.766046 -0.642786 0.000002
outer loop
vertex 0.175125 0.101781 0.002087
vertex 0.197599 0.128565 0.026352
vertex 0.197283 0.128189 0.030108
endloop
endfacet
facet normal 0.766043 -0.642789 -0.000001
outer loop
vertex 0.175125 0.101781 0.002087
vertex 0.197283 0.128189 0.030108
vertex 0.196607 0.127383 0.033747
endloop
endfacet
facet normal 0.766042 -0.642790 0.000003
outer loop
vertex 0.196607 0.127383 0.033747
vertex 0.195584 0.126164 0.037185
vertex 0.175125 0.101781 0.002087
endloop
endfacet
facet normal 0.766049 -0.642782 -0.000001
outer loop
vertex 0.175125 0.101781 0.002087
vertex 0.195584 0.126164 0.037185
vertex 0.194240 0.124562 0.040343
endloop
endfacet
facet normal 0.766042 -0.642790 -0.000001
outer loop
vertex 0.175125 0.101781 0.002087
vertex 0.194240 0.124562 0.040343
vertex 0.192604 0.122613 0.043149
endloop
endfacet
facet normal 0.766042 -0.642791 0.000001
outer loop
vertex 0.192604 0.122613 0.043149
vertex 0.190715 0.120361 0.045539
vertex 0.175125 0.101781 0.002087
endloop
endfacet
facet normal 0.766043 -0.642789 0.000000
outer loop
vertex 0.175125 0.101781 0.002087
vertex 0.190715 0.120361 0.045539
vertex 0.188615 0.117858 0.047456
endloop
endfacet
facet normal 0.766048 -0.642783 -0.000001
outer loop
vertex 0.175125 0.101781 0.002087
vertex 0.188615 0.117858 0.047456
vertex 0.186353 0.115162 0.048859
endloop
endfacet
facet normal 0.766041 -0.642792 0.000005
outer loop
vertex 0.183981 0.112335 0.049713
vertex 0.165822 0.090695 0.030108
vertex 0.186353 0.115162 0.048859
endloop
endfacet
facet normal 0.766048 -0.642784 -0.000002
outer loop
vertex 0.186353 0.115162 0.048859
vertex 0.165822 0.090695 0.030108
vertex 0.165506 0.090319 0.026352
endloop
endfacet
facet normal 0.766041 -0.642791 0.000001
outer loop
vertex 0.186353 0.115162 0.048859
vertex 0.165506 0.090319 0.026352
vertex 0.165559 0.090382 0.022564
endloop
endfacet
facet normal 0.766041 -0.642792 0.000054
outer loop
vertex 0.181553 0.109442 0.050000
vertex 0.179125 0.106548 0.049713
vertex 0.183981 0.112335 0.049713
endloop
endfacet
facet normal 0.766043 -0.642789 -0.000009
outer loop
vertex 0.183981 0.112335 0.049713
vertex 0.179125 0.106548 0.049713
vertex 0.176752 0.103721 0.048859
endloop
endfacet
facet normal 0.766042 -0.642791 -0.000002
outer loop
vertex 0.183981 0.112335 0.049713
vertex 0.176752 0.103721 0.048859
vertex 0.174490 0.101025 0.047456
endloop
endfacet
facet normal 0.766046 -0.642786 0.000000
outer loop
vertex 0.174490 0.101025 0.047456
vertex 0.172390 0.098523 0.045539
vertex 0.183981 0.112335 0.049713
endloop
endfacet
facet normal 0.766047 -0.642785 -0.000005
outer loop
vertex 0.183981 0.112335 0.049713
vertex 0.172390 0.098523 0.045539
vertex 0.170501 0.096271 0.043149
endloop
endfacet
facet normal 0.766041 -0.642792 0.000010
outer loop
vertex 0.183981 0.112335 0.049713
vertex 0.170501 0.096271 0.043149
vertex 0.168865 0.094322 0.040343
endloop
endfacet
facet normal 0.766044 -0.642788 0.000000
outer loop
vertex 0.168865 0.094322 0.040343
vertex 0.167521 0.092719 0.037185
vertex 0.183981 0.112335 0.049713
endloop
endfacet
facet normal 0.766047 -0.642784 -0.000004
outer loop
vertex 0.183981 0.112335 0.049713
vertex 0.167521 0.092719 0.037185
vertex 0.166498 0.091501 0.033747
endloop
endfacet
facet normal 0.766046 -0.642786 0.000002
outer loop
vertex 0.183981 0.112335 0.049713
vertex 0.166498 0.091501 0.033747
vertex 0.165822 0.090695 0.030108
endloop
endfacet
facet normal 0.766047 -0.642784 -0.000003
outer loop
vertex 0.165559 0.090382 0.022564
vertex 0.165979 0.090882 0.018833
vertex 0.186353 0.115162 0.048859
endloop
endfacet
facet normal 0.766049 -0.642782 0.000001
outer loop
vertex 0.186353 0.115162 0.048859
vertex 0.165979 0.090882 0.018833
vertex 0.166757 0.091809 0.015243
endloop
endfacet
facet normal 0.766041 -0.642792 0.000001
outer loop
vertex 0.186353 0.115162 0.048859
vertex 0.166757 0.091809 0.015243
vertex 0.167875 0.093141 0.011878
endloop
endfacet
facet normal 0.766044 -0.642788 0.000000
outer loop
vertex 0.167875 0.093141 0.011878
vertex 0.169306 0.094847 0.008813
vertex 0.186353 0.115162 0.048859
endloop
endfacet
facet normal 0.766043 -0.642790 -0.000001
outer loop
vertex 0.186353 0.115162 0.048859
vertex 0.169306 0.094847 0.008813
vertex 0.171019 0.096888 0.006120
endloop
endfacet
facet normal 0.766044 -0.642788 0.000000
outer loop
vertex 0.186353 0.115162 0.048859
vertex 0.171019 0.096888 0.006120
vertex 0.172973 0.099217 0.003861
endloop
endfacet
facet normal 0.766042 -0.642791 0.000001
outer loop
vertex 0.172973 0.099217 0.003861
vertex 0.175125 0.101781 0.002087
vertex 0.186353 0.115162 0.048859
endloop
endfacet
endsolid cylinder
