solid bottom
facet normal 0.000000 0.000000 -1.000000
outer loop
vertex -2.000000 0.3950000 0.000000
vertex 4.000000 0.3950000 0.000000
vertex 4.000000 -0.3950000 0.000000
endloop
endfacet
facet normal 0.000000 0.000000 -1.000000
outer loop
vertex -2.000000 0.3950000 0.000000
vertex 4.000000 -0.3950000 0.000000
vertex -2.000000 -0.3950000 0.000000
endloop
endfacet
endsolid bottom
solid frontAndBack
facet normal 0.000000 1.000000 0.000000
outer loop
vertex -2.000000 0.395000 0.000000
vertex -2.000000 0.395000 0.045000
vertex 4.000000 0.395000 0.045000
endloop
endfacet
facet normal 0.000000 1.000000 0.000000
outer loop
vertex -2.000000 0.395000 0.000000
vertex 4.000000 0.395000 0.045000
vertex 4.000000 0.395000 0.000000
endloop
endfacet
facet normal 0.000000 -1.000000 0.000000
outer loop
vertex 4.000000 -0.395000 0.000000
vertex 4.000000 -0.395000 0.045000
vertex -2.000000 -0.395000 0.045000
endloop
endfacet
facet normal 0.000000 -1.000000 0.000000
outer loop
vertex 4.000000 -0.395000 0.000000
vertex -2.000000 -0.395000 0.045000
vertex -2.000000 -0.395000 0.000000
endloop
endfacet
endsolid frontAndBack
solid outlet
facet normal 1.000000 0.000000 0.000000
outer loop
vertex 4.000000 0.395000 0.000000
vertex 4.000000 0.395000 0.045000
vertex 4.000000 -0.395000 0.045000
endloop
endfacet
facet normal 1.000000 0.000000 0.000000
outer loop
vertex 4.000000 0.395000 0.000000
vertex 4.000000 -0.395000 0.045000
vertex 4.000000 -0.395000 0.000000
endloop
endfacet
endsolid outlet
solid inlet
facet normal -1.000000 0.000000 0.000000
outer loop
vertex -2.000000 -0.395000 0.000000
vertex -2.000000 -0.395000 0.045000
vertex -2.000000 0.395000 0.045000
endloop
endfacet
facet normal -1.000000 0.000000 0.000000
outer loop
vertex -2.000000 -0.395000 0.000000
vertex -2.000000 0.395000 0.045000
vertex -2.000000 0.395000 0.000000
endloop
endfacet
endsolid inlet
solid top
facet normal 0.000000 0.000000 1.000000
outer loop
vertex 4.000000 0.395000 0.045000
vertex -2.000000 0.395000 0.045000
vertex -2.000000 -0.395000 0.045000
endloop
endfacet
facet normal 0.000000 0.000000 1.000000
outer loop
vertex 4.000000 0.395000 0.045000
vertex -2.000000 -0.395000 0.045000
vertex 4.000000 -0.395000 0.045000
endloop
endfacet
endsolid top
solid cylinder
facet normal 0.000000 0.000000 -1.000000
outer loop
vertex 0.051003 -0.231663 0.000000
vertex 0.031307 -0.235136 0.000000
vertex -0.031307 0.235136 0.000000
endloop
endfacet
facet normal 0.000000 0.000000 -1.000000
outer loop
vertex -0.031307 0.235136 0.000000
vertex 0.031307 -0.235136 0.000000
vertex -0.051003 0.231663 0.000000
endloop
endfacet
facet normal 0.984808 0.173648 0.000000
outer loop
vertex 0.051003 -0.231663 0.002087
vertex 0.051003 -0.231663 0.000000
vertex -0.031307 0.235136 0.002087
endloop
endfacet
facet normal 0.984808 0.173648 0.000000
outer loop
vertex -0.031307 0.235136 0.002087
vertex 0.051003 -0.231663 0.000000
vertex -0.031307 0.235136 0.000000
endloop
endfacet
facet normal -0.461192 -0.081212 -0.883576
outer loop
vertex 0.028010 -0.235717 0.003861
vertex 0.014202 -0.157933 0.003919
vertex 0.031307 -0.235136 0.002087
endloop
endfacet
facet normal -0.463058 -0.081650 -0.882559
outer loop
vertex 0.031307 -0.235136 0.002087
vertex 0.014202 -0.157933 0.003919
vertex 0.000484 -0.080133 0.003919
endloop
endfacet
facet normal -0.463057 -0.081650 -0.882559
outer loop
vertex 0.031307 -0.235136 0.002087
vertex 0.000484 -0.080133 0.003919
vertex -0.013234 -0.002334 0.003919
endloop
endfacet
facet normal -0.592477 -0.104470 -0.798785
outer loop
vertex -0.013234 -0.002334 0.003919
vertex 0.000484 -0.080133 0.003919
vertex -0.016299 -0.002874 0.006263
endloop
endfacet
facet normal -0.592477 -0.104470 -0.798785
outer loop
vertex -0.013234 -0.002334 0.003919
vertex -0.016299 -0.002874 0.006263
vertex -0.030018 0.074926 0.006263
endloop
endfacet
facet normal -0.707506 -0.124752 -0.695610
outer loop
vertex -0.030018 0.074926 0.006263
vertex -0.016299 -0.002874 0.006263
vertex -0.032687 0.074455 0.009062
endloop
endfacet
facet normal -0.707506 -0.124752 -0.695610
outer loop
vertex -0.030018 0.074926 0.006263
vertex -0.032687 0.074455 0.009062
vertex -0.046405 0.152255 0.009062
endloop
endfacet
facet normal -0.805350 -0.142005 -0.575540
outer loop
vertex -0.046405 0.152255 0.009062
vertex -0.032687 0.074455 0.009062
vertex -0.048613 0.151866 0.012248
endloop
endfacet
facet normal -0.805283 -0.142379 -0.575540
outer loop
vertex -0.046405 0.152255 0.009062
vertex -0.048613 0.151866 0.012248
vertex -0.062110 0.229704 0.011878
endloop
endfacet
facet normal -0.875053 -0.153921 -0.458902
outer loop
vertex -0.062110 0.229704 0.011878
vertex -0.048613 0.151866 0.012248
vertex -0.063822 0.229402 0.015243
endloop
endfacet
facet normal -0.883554 -0.156262 -0.441491
outer loop
vertex -0.063822 0.229402 0.015243
vertex -0.048613 0.151866 0.012248
vertex -0.050307 0.151567 0.015744
endloop
endfacet
facet normal -0.933303 -0.164114 -0.319393
outer loop
vertex -0.063822 0.229402 0.015243
vertex -0.050307 0.151567 0.015744
vertex -0.065014 0.229192 0.018833
endloop
endfacet
facet normal -0.940363 -0.166354 -0.296720
outer loop
vertex -0.065014 0.229192 0.018833
vertex -0.050307 0.151567 0.015744
vertex -0.051446 0.151366 0.019465
endloop
endfacet
facet normal -0.970126 -0.170535 -0.172550
outer loop
vertex -0.065014 0.229192 0.018833
vertex -0.051446 0.151366 0.019465
vertex -0.065658 0.229079 0.022564
endloop
endfacet
facet normal -0.974332 -0.172413 -0.144741
outer loop
vertex -0.065658 0.229079 0.022564
vertex -0.051446 0.151366 0.019465
vertex -0.052001 0.151268 0.023320
endloop
endfacet
facet normal -0.984676 -0.173034 -0.021749
outer loop
vertex -0.065658 0.229079 0.022564
vertex -0.052001 0.151268 0.023320
vertex -0.065739 0.229065 0.026352
endloop
endfacet
facet normal -0.984635 -0.174293 0.010754
outer loop
vertex -0.065739 0.229065 0.026352
vertex -0.052001 0.151268 0.023320
vertex -0.051960 0.151276 0.027216
endloop
endfacet
facet normal -0.976619 -0.171553 0.129556
outer loop
vertex -0.065739 0.229065 0.026352
vertex -0.051960 0.151276 0.027216
vertex -0.065255 0.229150 0.030108
endloop
endfacet
facet normal -0.971021 -0.171950 0.165986
outer loop
vertex -0.065255 0.229150 0.030108
vertex -0.051960 0.151276 0.027216
vertex -0.051323 0.151388 0.031058
endloop
endfacet
facet normal -0.946140 -0.166125 0.277887
outer loop
vertex -0.065255 0.229150 0.030108
vertex -0.051323 0.151388 0.031058
vertex -0.064219 0.229333 0.033747
endloop
endfacet
facet normal -0.933821 -0.165442 0.317186
outer loop
vertex -0.064219 0.229333 0.033747
vertex -0.051323 0.151388 0.031058
vertex -0.050106 0.151602 0.034753
endloop
endfacet
facet normal -0.893939 -0.156872 0.419838
outer loop
vertex -0.064219 0.229333 0.033747
vertex -0.050106 0.151602 0.034753
vertex -0.062653 0.229609 0.037185
endloop
endfacet
facet normal -0.873937 -0.154928 0.460685
outer loop
vertex -0.062653 0.229609 0.037185
vertex -0.050106 0.151602 0.034753
vertex -0.048338 0.151914 0.038211
endloop
endfacet
facet normal -0.821219 -0.144006 0.552142
outer loop
vertex -0.062653 0.229609 0.037185
vertex -0.048338 0.151914 0.038211
vertex -0.060593 0.229972 0.040343
endloop
endfacet
facet normal -0.792826 -0.140665 0.592993
outer loop
vertex -0.060593 0.229972 0.040343
vertex -0.048338 0.151914 0.038211
vertex -0.046063 0.152315 0.041348
endloop
endfacet
facet normal -0.729640 -0.127823 0.671779
outer loop
vertex -0.060593 0.229972 0.040343
vertex -0.046063 0.152315 0.041348
vertex -0.058087 0.230414 0.043149
endloop
endfacet
facet normal -0.692456 -0.123001 0.710898
outer loop
vertex -0.058087 0.230414 0.043149
vertex -0.046063 0.152315 0.041348
vertex -0.043335 0.152796 0.044088
endloop
endfacet
facet normal -0.621313 -0.108691 0.775987
outer loop
vertex -0.050788 0.201906 0.045000
vertex -0.055844 0.230809 0.045000
vertex -0.058087 0.230414 0.043149
endloop
endfacet
facet normal -0.621314 -0.108692 0.775987
outer loop
vertex -0.050788 0.201906 0.045000
vertex -0.058087 0.230414 0.043149
vertex -0.043335 0.152796 0.044088
endloop
endfacet
facet normal -0.575264 -0.102363 0.811538
outer loop
vertex -0.050788 0.201906 0.045000
vertex -0.043335 0.152796 0.044088
vertex -0.042088 0.153016 0.045000
endloop
endfacet
facet normal 0.575579 0.100561 0.811540
outer loop
vertex -0.021331 0.207101 0.045000
vertex -0.012784 0.158183 0.045000
vertex -0.011538 0.158403 0.044088
endloop
endfacet
facet normal 0.621019 0.110364 0.775986
outer loop
vertex -0.021331 0.207101 0.045000
vertex -0.011538 0.158403 0.044088
vertex -0.024223 0.236385 0.043149
endloop
endfacet
facet normal 0.621020 0.110365 0.775986
outer loop
vertex -0.021331 0.207101 0.045000
vertex -0.024223 0.236385 0.043149
vertex -0.026465 0.235990 0.045000
endloop
endfacet
facet normal 0.692764 0.121252 0.710898
outer loop
vertex -0.024223 0.236385 0.043149
vertex -0.011538 0.158403 0.044088
vertex -0.008810 0.158884 0.041348
endloop
endfacet
facet normal 0.729355 0.129437 0.671779
outer loop
vertex -0.024223 0.236385 0.043149
vertex -0.008810 0.158884 0.041348
vertex -0.021717 0.236827 0.040343
endloop
endfacet
facet normal 0.793124 0.138981 0.592991
outer loop
vertex -0.021717 0.236827 0.040343
vertex -0.008810 0.158884 0.041348
vertex -0.006535 0.159285 0.038211
endloop
endfacet
facet normal 0.820946 0.145551 0.552144
outer loop
vertex -0.021717 0.236827 0.040343
vertex -0.006535 0.159285 0.038211
vertex -0.019657 0.237190 0.037185
endloop
endfacet
facet normal 0.874222 0.153320 0.460684
outer loop
vertex -0.019657 0.237190 0.037185
vertex -0.006535 0.159285 0.038211
vertex -0.004767 0.159597 0.034753
endloop
endfacet
facet normal 0.893681 0.158334 0.419839
outer loop
vertex -0.019657 0.237190 0.037185
vertex -0.004767 0.159597 0.034753
vertex -0.018090 0.237466 0.033747
endloop
endfacet
facet normal 0.934090 0.163921 0.317185
outer loop
vertex -0.018090 0.237466 0.033747
vertex -0.004767 0.159597 0.034753
vertex -0.003550 0.159811 0.031058
endloop
endfacet
facet normal 0.945899 0.167493 0.277888
outer loop
vertex -0.018090 0.237466 0.033747
vertex -0.003550 0.159811 0.031058
vertex -0.017054 0.237649 0.030108
endloop
endfacet
facet normal 0.971272 0.170529 0.165986
outer loop
vertex -0.017054 0.237649 0.030108
vertex -0.003550 0.159811 0.031058
vertex -0.002913 0.159924 0.027216
endloop
endfacet
facet normal 0.976396 0.172816 0.129556
outer loop
vertex -0.017054 0.237649 0.030108
vertex -0.002913 0.159924 0.027216
vertex -0.016570 0.237734 0.026352
endloop
endfacet
facet normal 0.984866 0.172983 0.010753
outer loop
vertex -0.016570 0.237734 0.026352
vertex -0.002913 0.159924 0.027216
vertex -0.002872 0.159931 0.023320
endloop
endfacet
facet normal 0.984474 0.174180 -0.021747
outer loop
vertex -0.016570 0.237734 0.026352
vertex -0.002872 0.159931 0.023320
vertex -0.016652 0.237720 0.022564
endloop
endfacet
facet normal 0.974542 0.171226 -0.144742
outer loop
vertex -0.016652 0.237720 0.022564
vertex -0.002872 0.159931 0.023320
vertex -0.003427 0.159833 0.019465
endloop
endfacet
facet normal 0.969946 0.171552 -0.172551
outer loop
vertex -0.016652 0.237720 0.022564
vertex -0.003427 0.159833 0.019465
vertex -0.017295 0.237606 0.018833
endloop
endfacet
facet normal 0.940550 0.165302 -0.296718
outer loop
vertex -0.017295 0.237606 0.018833
vertex -0.003427 0.159833 0.019465
vertex -0.004566 0.159632 0.015744
endloop
endfacet
facet normal 0.933148 0.164992 -0.319393
outer loop
vertex -0.017295 0.237606 0.018833
vertex -0.004566 0.159632 0.015744
vertex -0.018487 0.237396 0.015243
endloop
endfacet
facet normal 0.883713 0.155355 -0.441492
outer loop
vertex -0.018487 0.237396 0.015243
vertex -0.004566 0.159632 0.015744
vertex -0.006260 0.159334 0.012248
endloop
endfacet
facet normal 0.874925 0.154647 -0.458902
outer loop
vertex -0.018487 0.237396 0.015243
vertex -0.006260 0.159334 0.012248
vertex -0.020199 0.237095 0.011878
endloop
endfacet
facet normal 0.805415 0.141631 -0.575541
outer loop
vertex -0.020199 0.237095 0.011878
vertex -0.006260 0.159334 0.012248
vertex -0.008468 0.158944 0.009062
endloop
endfacet
facet normal 0.796611 0.140754 -0.587876
outer loop
vertex -0.020199 0.237095 0.011878
vertex -0.008468 0.158944 0.009062
vertex -0.022392 0.236708 0.008813
endloop
endfacet
facet normal 0.707556 0.124463 -0.695610
outer loop
vertex -0.022392 0.236708 0.008813
vertex -0.008468 0.158944 0.009062
vertex -0.011137 0.158474 0.006263
endloop
endfacet
facet normal 0.700007 0.123629 -0.703353
outer loop
vertex -0.022392 0.236708 0.008813
vertex -0.011137 0.158474 0.006263
vertex -0.025016 0.236245 0.006120
endloop
endfacet
facet normal 0.592512 0.104271 -0.798785
outer loop
vertex -0.025016 0.236245 0.006120
vertex -0.011137 0.158474 0.006263
vertex -0.014202 0.157933 0.003919
endloop
endfacet
facet normal 0.587334 0.103665 -0.802678
outer loop
vertex -0.025016 0.236245 0.006120
vertex -0.014202 0.157933 0.003919
vertex -0.028010 0.235717 0.003861
endloop
endfacet
facet normal 0.461192 0.081212 -0.883576
outer loop
vertex -0.028010 0.235717 0.003861
vertex -0.014202 0.157933 0.003919
vertex -0.031307 0.235136 0.002087
endloop
endfacet
facet normal 0.463058 0.081650 -0.882559
outer loop
vertex -0.031307 0.235136 0.002087
vertex -0.014202 0.157933 0.003919
vertex -0.000484 0.080133 0.003919
endloop
endfacet
facet normal 0.463057 0.081650 -0.882560
outer loop
vertex -0.031307 0.235136 0.002087
vertex -0.000484 0.080133 0.003919
vertex 0.013234 0.002334 0.003919
endloop
endfacet
facet normal 0.592477 0.104470 -0.798785
outer loop
vertex 0.013234 0.002334 0.003919
vertex -0.000484 0.080133 0.003919
vertex 0.016299 0.002874 0.006263
endloop
endfacet
facet normal 0.592477 0.104470 -0.798785
outer loop
vertex 0.013234 0.002334 0.003919
vertex 0.016299 0.002874 0.006263
vertex 0.030018 -0.074926 0.006263
endloop
endfacet
facet normal 0.707505 0.124752 -0.695610
outer loop
vertex 0.030018 -0.074926 0.006263
vertex 0.016299 0.002874 0.006263
vertex 0.032687 -0.074455 0.009062
endloop
endfacet
facet normal 0.707506 0.124752 -0.695610
outer loop
vertex 0.030018 -0.074926 0.006263
vertex 0.032687 -0.074455 0.009062
vertex 0.046405 -0.152255 0.009062
endloop
endfacet
facet normal 0.805349 0.142005 -0.575541
outer loop
vertex 0.046405 -0.152255 0.009062
vertex 0.032687 -0.074455 0.009062
vertex 0.048613 -0.151866 0.012248
endloop
endfacet
facet normal 0.805284 0.142379 -0.575540
outer loop
vertex 0.046405 -0.152255 0.009062
vertex 0.048613 -0.151866 0.012248
vertex 0.062110 -0.229704 0.011878
endloop
endfacet
facet normal 0.875052 0.153921 -0.458903
outer loop
vertex 0.062110 -0.229704 0.011878
vertex 0.048613 -0.151866 0.012248
vertex 0.063822 -0.229402 0.015243
endloop
endfacet
facet normal 0.883554 0.156262 -0.441491
outer loop
vertex 0.063822 -0.229402 0.015243
vertex 0.048613 -0.151866 0.012248
vertex 0.050307 -0.151567 0.015744
endloop
endfacet
facet normal 0.933303 0.164114 -0.319393
outer loop
vertex 0.063822 -0.229402 0.015243
vertex 0.050307 -0.151567 0.015744
vertex 0.065014 -0.229192 0.018833
endloop
endfacet
facet normal 0.940364 0.166354 -0.296719
outer loop
vertex 0.065014 -0.229192 0.018833
vertex 0.050307 -0.151567 0.015744
vertex 0.051446 -0.151366 0.019465
endloop
endfacet
facet normal 0.970126 0.170535 -0.172550
outer loop
vertex 0.065014 -0.229192 0.018833
vertex 0.051446 -0.151366 0.019465
vertex 0.065658 -0.229079 0.022564
endloop
endfacet
facet normal 0.974332 0.172413 -0.144741
outer loop
vertex 0.065658 -0.229079 0.022564
vertex 0.051446 -0.151366 0.019465
vertex 0.052001 -0.151268 0.023320
endloop
endfacet
facet normal 0.984676 0.173034 -0.021749
outer loop
vertex 0.065658 -0.229079 0.022564
vertex 0.052001 -0.151268 0.023320
vertex 0.065739 -0.229065 0.026352
endloop
endfacet
facet normal 0.984635 0.174293 0.010754
outer loop
vertex 0.065739 -0.229065 0.026352
vertex 0.052001 -0.151268 0.023320
vertex 0.051960 -0.151275 0.027216
endloop
endfacet
facet normal 0.976619 0.171553 0.129556
outer loop
vertex 0.065739 -0.229065 0.026352
vertex 0.051960 -0.151275 0.027216
vertex 0.065255 -0.229150 0.030108
endloop
endfacet
facet normal 0.971021 0.171950 0.165986
outer loop
vertex 0.065255 -0.229150 0.030108
vertex 0.051960 -0.151275 0.027216
vertex 0.051323 -0.151388 0.031058
endloop
endfacet
facet normal 0.946140 0.166125 0.277887
outer loop
vertex 0.065255 -0.229150 0.030108
vertex 0.051323 -0.151388 0.031058
vertex 0.064219 -0.229333 0.033747
endloop
endfacet
facet normal 0.933821 0.165442 0.317188
outer loop
vertex 0.064219 -0.229333 0.033747
vertex 0.051323 -0.151388 0.031058
vertex 0.050106 -0.151602 0.034753
endloop
endfacet
facet normal 0.893940 0.156872 0.419835
outer loop
vertex 0.064219 -0.229333 0.033747
vertex 0.050106 -0.151602 0.034753
vertex 0.062653 -0.229609 0.037185
endloop
endfacet
facet normal 0.873937 0.154928 0.460685
outer loop
vertex 0.062653 -0.229609 0.037185
vertex 0.050106 -0.151602 0.034753
vertex 0.048338 -0.151914 0.038211
endloop
endfacet
facet normal 0.821218 0.144006 0.552143
outer loop
vertex 0.062653 -0.229609 0.037185
vertex 0.048338 -0.151914 0.038211
vertex 0.060593 -0.229972 0.040343
endloop
endfacet
facet normal 0.792827 0.140665 0.592992
outer loop
vertex 0.060593 -0.229972 0.040343
vertex 0.048338 -0.151914 0.038211
vertex 0.046063 -0.152315 0.041348
endloop
endfacet
facet normal 0.729641 0.127823 0.671778
outer loop
vertex 0.060593 -0.229972 0.040343
vertex 0.046063 -0.152315 0.041348
vertex 0.058087 -0.230414 0.043149
endloop
endfacet
facet normal 0.692455 0.123000 0.710898
outer loop
vertex 0.058087 -0.230414 0.043149
vertex 0.046063 -0.152315 0.041348
vertex 0.043335 -0.152796 0.044088
endloop
endfacet
facet normal 0.621317 0.108692 0.775984
outer loop
vertex 0.058087 -0.230414 0.043149
vertex 0.043335 -0.152796 0.044088
vertex 0.050788 -0.201906 0.045000
endloop
endfacet
facet normal 0.621314 0.108692 0.775987
outer loop
vertex 0.058087 -0.230414 0.043149
vertex 0.050788 -0.201906 0.045000
vertex 0.055844 -0.230809 0.045000
endloop
endfacet
facet normal 0.575259 0.102364 0.811541
outer loop
vertex 0.042088 -0.153016 0.045000
vertex 0.050788 -0.201906 0.045000
vertex 0.043335 -0.152796 0.044088
endloop
endfacet
facet normal -0.575581 -0.100562 0.811538
outer loop
vertex 0.011538 -0.158403 0.044088
vertex 0.021331 -0.207100 0.045000
vertex 0.012784 -0.158183 0.045000
endloop
endfacet
facet normal -0.621020 -0.110365 0.775986
outer loop
vertex 0.011538 -0.158403 0.044088
vertex 0.024223 -0.236385 0.043149
vertex 0.026465 -0.235990 0.045000
endloop
endfacet
facet normal -0.621016 -0.110365 0.775989
outer loop
vertex 0.011538 -0.158403 0.044088
vertex 0.026465 -0.235990 0.045000
vertex 0.021331 -0.207100 0.045000
endloop
endfacet
facet normal -0.692764 -0.121252 0.710898
outer loop
vertex 0.024223 -0.236385 0.043149
vertex 0.011538 -0.158403 0.044088
vertex 0.008810 -0.158884 0.041348
endloop
endfacet
facet normal -0.729356 -0.129438 0.671778
outer loop
vertex 0.024223 -0.236385 0.043149
vertex 0.008810 -0.158884 0.041348
vertex 0.021717 -0.236827 0.040343
endloop
endfacet
facet normal -0.793124 -0.138981 0.592992
outer loop
vertex 0.021717 -0.236827 0.040343
vertex 0.008810 -0.158884 0.041348
vertex 0.006535 -0.159285 0.038211
endloop
endfacet
facet normal -0.820946 -0.145551 0.552143
outer loop
vertex 0.021717 -0.236827 0.040343
vertex 0.006535 -0.159285 0.038211
vertex 0.019657 -0.237190 0.037185
endloop
endfacet
facet normal -0.874221 -0.153320 0.460685
outer loop
vertex 0.019657 -0.237190 0.037185
vertex 0.006535 -0.159285 0.038211
vertex 0.004767 -0.159597 0.034753
endloop
endfacet
facet normal -0.893682 -0.158334 0.419836
outer loop
vertex 0.019657 -0.237190 0.037185
vertex 0.004767 -0.159597 0.034753
vertex 0.018090 -0.237466 0.033747
endloop
endfacet
facet normal -0.934090 -0.163921 0.317185
outer loop
vertex 0.018090 -0.237466 0.033747
vertex 0.004767 -0.159597 0.034753
vertex 0.003550 -0.159811 0.031058
endloop
endfacet
facet normal -0.945899 -0.167493 0.277888
outer loop
vertex 0.018090 -0.237466 0.033747
vertex 0.003550 -0.159811 0.031058
vertex 0.017054 -0.237649 0.030108
endloop
endfacet
facet normal -0.971272 -0.170529 0.165986
outer loop
vertex 0.017054 -0.237649 0.030108
vertex 0.003550 -0.159811 0.031058
vertex 0.002913 -0.159924 0.027216
endloop
endfacet
facet normal -0.976396 -0.172816 0.129558
outer loop
vertex 0.017054 -0.237649 0.030108
vertex 0.002913 -0.159924 0.027216
vertex 0.016570 -0.237734 0.026352
endloop
endfacet
facet normal -0.984866 -0.172983 0.010752
outer loop
vertex 0.016570 -0.237734 0.026352
vertex 0.002913 -0.159924 0.027216
vertex 0.002872 -0.159931 0.023320
endloop
endfacet
facet normal -0.984474 -0.174180 -0.021747
outer loop
vertex 0.016570 -0.237734 0.026352
vertex 0.002872 -0.159931 0.023320
vertex 0.016652 -0.237720 0.022564
endloop
endfacet
facet normal -0.974542 -0.171226 -0.144740
outer loop
vertex 0.016652 -0.237720 0.022564
vertex 0.002872 -0.159931 0.023320
vertex 0.003427 -0.159833 0.019465
endloop
endfacet
facet normal -0.969946 -0.171552 -0.172551
outer loop
vertex 0.016652 -0.237720 0.022564
vertex 0.003427 -0.159833 0.019465
vertex 0.017295 -0.237606 0.018833
endloop
endfacet
facet normal -0.940549 -0.165302 -0.296720
outer loop
vertex 0.017295 -0.237606 0.018833
vertex 0.003427 -0.159833 0.019465
vertex 0.004566 -0.159632 0.015744
endloop
endfacet
facet normal -0.933148 -0.164992 -0.319393
outer loop
vertex 0.017295 -0.237606 0.018833
vertex 0.004566 -0.159632 0.015744
vertex 0.018487 -0.237396 0.015243
endloop
endfacet
facet normal -0.883714 -0.155355 -0.441491
outer loop
vertex 0.018487 -0.237396 0.015243
vertex 0.004566 -0.159632 0.015744
vertex 0.006260 -0.159334 0.012248
endloop
endfacet
facet normal -0.874924 -0.154647 -0.458903
outer loop
vertex 0.018487 -0.237396 0.015243
vertex 0.006260 -0.159334 0.012248
vertex 0.020199 -0.237094 0.011878
endloop
endfacet
facet normal -0.805415 -0.141631 -0.575540
outer loop
vertex 0.020199 -0.237094 0.011878
vertex 0.006260 -0.159334 0.012248
vertex 0.008468 -0.158944 0.009062
endloop
endfacet
facet normal -0.796611 -0.140754 -0.587876
outer loop
vertex 0.020199 -0.237094 0.011878
vertex 0.008468 -0.158944 0.009062
vertex 0.022392 -0.236708 0.008813
endloop
endfacet
facet normal -0.707557 -0.124463 -0.695609
outer loop
vertex 0.022392 -0.236708 0.008813
vertex 0.008468 -0.158944 0.009062
vertex 0.011137 -0.158474 0.006263
endloop
endfacet
facet normal -0.700007 -0.123629 -0.703353
outer loop
vertex 0.022392 -0.236708 0.008813
vertex 0.011137 -0.158474 0.006263
vertex 0.025016 -0.236245 0.006120
endloop
endfacet
facet normal -0.592512 -0.104271 -0.798785
outer loop
vertex 0.025016 -0.236245 0.006120
vertex 0.011137 -0.158474 0.006263
vertex 0.014202 -0.157933 0.003919
endloop
endfacet
facet normal -0.587334 -0.103665 -0.802678
outer loop
vertex 0.025016 -0.236245 0.006120
vertex 0.014202 -0.157933 0.003919
vertex 0.028010 -0.235717 0.003861
endloop
endfacet
facet normal 0.796710 0.140192 -0.587877
outer loop
vertex 0.062110 -0.229704 0.011878
vertex 0.059917 -0.230091 0.008813
vertex 0.046405 -0.152255 0.009062
endloop
endfacet
facet normal 0.707455 0.125042 -0.695610
outer loop
vertex 0.046405 -0.152255 0.009062
vertex 0.059917 -0.230091 0.008813
vertex 0.043736 -0.152726 0.006263
endloop
endfacet
facet normal 0.707505 0.124752 -0.695610
outer loop
vertex 0.046405 -0.152255 0.009062
vertex 0.043736 -0.152726 0.006263
vertex 0.030018 -0.074926 0.006263
endloop
endfacet
facet normal 0.592476 0.104470 -0.798785
outer loop
vertex 0.030018 -0.074926 0.006263
vertex 0.043736 -0.152726 0.006263
vertex 0.026953 -0.075466 0.003919
endloop
endfacet
facet normal 0.592477 0.104470 -0.798785
outer loop
vertex 0.030018 -0.074926 0.006263
vertex 0.026953 -0.075466 0.003919
vertex 0.013234 0.002334 0.003919
endloop
endfacet
facet normal 0.463058 0.081650 -0.882559
outer loop
vertex 0.013234 0.002334 0.003919
vertex 0.026953 -0.075466 0.003919
vertex -0.031307 0.235136 0.002087
endloop
endfacet
facet normal 0.700077 0.123244 -0.703351
outer loop
vertex 0.059917 -0.230091 0.008813
vertex 0.057293 -0.230554 0.006120
vertex 0.043736 -0.152726 0.006263
endloop
endfacet
facet normal 0.592442 0.104669 -0.798784
outer loop
vertex 0.043736 -0.152726 0.006263
vertex 0.057293 -0.230554 0.006120
vertex 0.040671 -0.153266 0.003919
endloop
endfacet
facet normal 0.592477 0.104470 -0.798785
outer loop
vertex 0.043736 -0.152726 0.006263
vertex 0.040671 -0.153266 0.003919
vertex 0.026953 -0.075466 0.003919
endloop
endfacet
facet normal 0.463056 0.081649 -0.882560
outer loop
vertex 0.026953 -0.075466 0.003919
vertex 0.040671 -0.153266 0.003919
vertex -0.031307 0.235136 0.002087
endloop
endfacet
facet normal 0.587367 0.103466 -0.802680
outer loop
vertex 0.057293 -0.230554 0.006120
vertex 0.054299 -0.231082 0.003861
vertex 0.040671 -0.153266 0.003919
endloop
endfacet
facet normal 0.471062 0.083154 -0.878172
outer loop
vertex 0.040671 -0.153266 0.003919
vertex 0.054299 -0.231082 0.003861
vertex -0.031307 0.235136 0.002087
endloop
endfacet
facet normal 0.461174 0.081317 -0.883576
outer loop
vertex 0.054299 -0.231082 0.003861
vertex 0.051003 -0.231663 0.002087
vertex -0.031307 0.235136 0.002087
endloop
endfacet
facet normal -0.796710 -0.140192 -0.587877
outer loop
vertex -0.062110 0.229704 0.011878
vertex -0.059917 0.230091 0.008813
vertex -0.046405 0.152255 0.009062
endloop
endfacet
facet normal -0.707454 -0.125042 -0.695610
outer loop
vertex -0.046405 0.152255 0.009062
vertex -0.059917 0.230091 0.008813
vertex -0.043736 0.152726 0.006263
endloop
endfacet
facet normal -0.707505 -0.124752 -0.695610
outer loop
vertex -0.046405 0.152255 0.009062
vertex -0.043736 0.152726 0.006263
vertex -0.030018 0.074926 0.006263
endloop
endfacet
facet normal -0.592477 -0.104470 -0.798785
outer loop
vertex -0.030018 0.074926 0.006263
vertex -0.043736 0.152726 0.006263
vertex -0.026953 0.075466 0.003919
endloop
endfacet
facet normal -0.592476 -0.104470 -0.798785
outer loop
vertex -0.030018 0.074926 0.006263
vertex -0.026953 0.075466 0.003919
vertex -0.013234 -0.002334 0.003919
endloop
endfacet
facet normal -0.463057 -0.081650 -0.882560
outer loop
vertex -0.013234 -0.002334 0.003919
vertex -0.026953 0.075466 0.003919
vertex 0.031307 -0.235136 0.002087
endloop
endfacet
facet normal -0.700076 -0.123243 -0.703352
outer loop
vertex -0.059917 0.230091 0.008813
vertex -0.057293 0.230554 0.006120
vertex -0.043736 0.152726 0.006263
endloop
endfacet
facet normal -0.592441 -0.104668 -0.798785
outer loop
vertex -0.043736 0.152726 0.006263
vertex -0.057293 0.230554 0.006120
vertex -0.040671 0.153266 0.003919
endloop
endfacet
facet normal -0.592476 -0.104470 -0.798785
outer loop
vertex -0.043736 0.152726 0.006263
vertex -0.040671 0.153266 0.003919
vertex -0.026953 0.075466 0.003919
endloop
endfacet
facet normal -0.463057 -0.081649 -0.882560
outer loop
vertex -0.026953 0.075466 0.003919
vertex -0.040671 0.153266 0.003919
vertex 0.031307 -0.235136 0.002087
endloop
endfacet
facet normal -0.587368 -0.103466 -0.802679
outer loop
vertex -0.057293 0.230554 0.006120
vertex -0.054299 0.231082 0.003861
vertex -0.040671 0.153266 0.003919
endloop
endfacet
facet normal -0.471065 -0.083154 -0.878171
outer loop
vertex -0.040671 0.153266 0.003919
vertex -0.054299 0.231082 0.003861
vertex 0.031307 -0.235136 0.002087
endloop
endfacet
facet normal -0.461174 -0.081317 -0.883576
outer loop
vertex -0.054299 0.231082 0.003861
vertex -0.051003 0.231663 0.002087
vertex 0.031307 -0.235136 0.002087
endloop
endfacet
facet normal -0.592476 -0.104470 -0.798785
outer loop
vertex 0.000484 -0.080133 0.003919
vertex 0.014202 -0.157933 0.003919
vertex -0.002581 -0.080674 0.006263
endloop
endfacet
facet normal -0.592477 -0.104470 -0.798785
outer loop
vertex -0.002581 -0.080674 0.006263
vertex 0.014202 -0.157933 0.003919
vertex 0.011137 -0.158474 0.006263
endloop
endfacet
facet normal -0.707505 -0.124752 -0.695610
outer loop
vertex -0.002581 -0.080674 0.006263
vertex 0.011137 -0.158474 0.006263
vertex -0.005250 -0.081144 0.009062
endloop
endfacet
facet normal -0.707506 -0.124752 -0.695609
outer loop
vertex -0.005250 -0.081144 0.009062
vertex 0.011137 -0.158474 0.006263
vertex 0.008468 -0.158944 0.009062
endloop
endfacet
facet normal -0.805350 -0.142005 -0.575540
outer loop
vertex -0.005250 -0.081144 0.009062
vertex 0.008468 -0.158944 0.009062
vertex -0.007458 -0.081534 0.012248
endloop
endfacet
facet normal -0.805350 -0.142005 -0.575540
outer loop
vertex -0.007458 -0.081534 0.012248
vertex 0.008468 -0.158944 0.009062
vertex 0.006260 -0.159334 0.012248
endloop
endfacet
facet normal -0.883634 -0.155809 -0.441491
outer loop
vertex -0.007458 -0.081534 0.012248
vertex 0.006260 -0.159334 0.012248
vertex -0.009152 -0.081833 0.015744
endloop
endfacet
facet normal -0.883634 -0.155808 -0.441492
outer loop
vertex -0.009152 -0.081833 0.015744
vertex 0.006260 -0.159334 0.012248
vertex 0.004566 -0.159632 0.015744
endloop
endfacet
facet normal -0.940457 -0.165828 -0.296719
outer loop
vertex -0.009152 -0.081833 0.015744
vertex 0.004566 -0.159632 0.015744
vertex -0.010291 -0.082033 0.019465
endloop
endfacet
facet normal -0.940457 -0.165828 -0.296719
outer loop
vertex -0.010291 -0.082033 0.019465
vertex 0.004566 -0.159632 0.015744
vertex 0.003427 -0.159833 0.019465
endloop
endfacet
facet normal -0.974437 -0.171820 -0.144740
outer loop
vertex -0.010291 -0.082033 0.019465
vertex 0.003427 -0.159833 0.019465
vertex -0.010846 -0.082131 0.023320
endloop
endfacet
facet normal -0.974437 -0.171820 -0.144742
outer loop
vertex -0.010846 -0.082131 0.023320
vertex 0.003427 -0.159833 0.019465
vertex 0.002872 -0.159931 0.023320
endloop
endfacet
facet normal -0.984751 -0.173638 0.010753
outer loop
vertex -0.010846 -0.082131 0.023320
vertex 0.002872 -0.159931 0.023320
vertex -0.010805 -0.082124 0.027216
endloop
endfacet
facet normal -0.984751 -0.173638 0.010752
outer loop
vertex -0.010805 -0.082124 0.027216
vertex 0.002872 -0.159931 0.023320
vertex 0.002913 -0.159924 0.027216
endloop
endfacet
facet normal -0.971147 -0.171240 0.165985
outer loop
vertex -0.010805 -0.082124 0.027216
vertex 0.002913 -0.159924 0.027216
vertex -0.010168 -0.082012 0.031058
endloop
endfacet
facet normal -0.971147 -0.171239 0.165987
outer loop
vertex -0.010168 -0.082012 0.031058
vertex 0.002913 -0.159924 0.027216
vertex 0.003550 -0.159811 0.031058
endloop
endfacet
facet normal -0.933955 -0.164681 0.317187
outer loop
vertex -0.010168 -0.082012 0.031058
vertex 0.003550 -0.159811 0.031058
vertex -0.008951 -0.081797 0.034753
endloop
endfacet
facet normal -0.933955 -0.164682 0.317187
outer loop
vertex -0.008951 -0.081797 0.034753
vertex 0.003550 -0.159811 0.031058
vertex 0.004767 -0.159597 0.034753
endloop
endfacet
facet normal -0.874079 -0.154124 0.460685
outer loop
vertex -0.008951 -0.081797 0.034753
vertex 0.004767 -0.159597 0.034753
vertex -0.007184 -0.081485 0.038211
endloop
endfacet
facet normal -0.874080 -0.154124 0.460684
outer loop
vertex -0.007184 -0.081485 0.038211
vertex 0.004767 -0.159597 0.034753
vertex 0.006535 -0.159285 0.038211
endloop
endfacet
facet normal -0.792975 -0.139823 0.592992
outer loop
vertex -0.007184 -0.081485 0.038211
vertex 0.006535 -0.159285 0.038211
vertex -0.004908 -0.081084 0.041348
endloop
endfacet
facet normal -0.792976 -0.139823 0.592991
outer loop
vertex -0.004908 -0.081084 0.041348
vertex 0.006535 -0.159285 0.038211
vertex 0.008810 -0.158884 0.041348
endloop
endfacet
facet normal -0.692611 -0.122126 0.710898
outer loop
vertex -0.004908 -0.081084 0.041348
vertex 0.008810 -0.158884 0.041348
vertex -0.002181 -0.080603 0.044088
endloop
endfacet
facet normal -0.692610 -0.122126 0.710898
outer loop
vertex -0.002181 -0.080603 0.044088
vertex 0.008810 -0.158884 0.041348
vertex 0.011538 -0.158403 0.044088
endloop
endfacet
facet normal -0.575425 -0.101462 0.811536
outer loop
vertex 0.007292 -0.127032 0.045000
vertex -0.000934 -0.080383 0.045000
vertex -0.002181 -0.080603 0.044088
endloop
endfacet
facet normal -0.575420 -0.101462 0.811540
outer loop
vertex 0.007292 -0.127032 0.045000
vertex -0.002181 -0.080603 0.044088
vertex 0.011538 -0.158403 0.044088
endloop
endfacet
facet normal -0.575419 -0.101462 0.811541
outer loop
vertex 0.007292 -0.127032 0.045000
vertex 0.011538 -0.158403 0.044088
vertex 0.012784 -0.158183 0.045000
endloop
endfacet
facet normal 0.575422 0.101462 0.811539
outer loop
vertex 0.028370 -0.075216 0.045000
vertex 0.033863 -0.106367 0.045000
vertex 0.029617 -0.074996 0.044088
endloop
endfacet
facet normal 0.575421 0.101462 0.811540
outer loop
vertex 0.043335 -0.152796 0.044088
vertex 0.029617 -0.074996 0.044088
vertex 0.033863 -0.106367 0.045000
endloop
endfacet
facet normal 0.575424 0.101463 0.811537
outer loop
vertex 0.043335 -0.152796 0.044088
vertex 0.033863 -0.106367 0.045000
vertex 0.042088 -0.153016 0.045000
endloop
endfacet
facet normal 0.692611 0.122126 0.710897
outer loop
vertex 0.029617 -0.074996 0.044088
vertex 0.043335 -0.152796 0.044088
vertex 0.032345 -0.074515 0.041348
endloop
endfacet
facet normal 0.692611 0.122126 0.710898
outer loop
vertex 0.032345 -0.074515 0.041348
vertex 0.043335 -0.152796 0.044088
vertex 0.046063 -0.152315 0.041348
endloop
endfacet
facet normal 0.792975 0.139823 0.592992
outer loop
vertex 0.032345 -0.074515 0.041348
vertex 0.046063 -0.152315 0.041348
vertex 0.034620 -0.074114 0.038211
endloop
endfacet
facet normal 0.792975 0.139823 0.592993
outer loop
vertex 0.034620 -0.074114 0.038211
vertex 0.046063 -0.152315 0.041348
vertex 0.048338 -0.151914 0.038211
endloop
endfacet
facet normal 0.874080 0.154124 0.460684
outer loop
vertex 0.034620 -0.074114 0.038211
vertex 0.048338 -0.151914 0.038211
vertex 0.036388 -0.073803 0.034753
endloop
endfacet
facet normal 0.874080 0.154124 0.460685
outer loop
vertex 0.036388 -0.073803 0.034753
vertex 0.048338 -0.151914 0.038211
vertex 0.050106 -0.151602 0.034753
endloop
endfacet
facet normal 0.933955 0.164682 0.317187
outer loop
vertex 0.036388 -0.073803 0.034753
vertex 0.050106 -0.151602 0.034753
vertex 0.037605 -0.073588 0.031058
endloop
endfacet
facet normal 0.933955 0.164681 0.317187
outer loop
vertex 0.037605 -0.073588 0.031058
vertex 0.050106 -0.151602 0.034753
vertex 0.051323 -0.151388 0.031058
endloop
endfacet
facet normal 0.971147 0.171239 0.165986
outer loop
vertex 0.037605 -0.073588 0.031058
vertex 0.051323 -0.151388 0.031058
vertex 0.038241 -0.073476 0.027216
endloop
endfacet
facet normal 0.971147 0.171239 0.165986
outer loop
vertex 0.038241 -0.073476 0.027216
vertex 0.051323 -0.151388 0.031058
vertex 0.051960 -0.151275 0.027216
endloop
endfacet
facet normal 0.984751 0.173638 0.010753
outer loop
vertex 0.038241 -0.073476 0.027216
vertex 0.051960 -0.151275 0.027216
vertex 0.038283 -0.073468 0.023320
endloop
endfacet
facet normal 0.984751 0.173638 0.010753
outer loop
vertex 0.038283 -0.073468 0.023320
vertex 0.051960 -0.151275 0.027216
vertex 0.052001 -0.151268 0.023320
endloop
endfacet
facet normal 0.974437 0.171820 -0.144741
outer loop
vertex 0.038283 -0.073468 0.023320
vertex 0.052001 -0.151268 0.023320
vertex 0.037727 -0.073566 0.019465
endloop
endfacet
facet normal 0.974437 0.171820 -0.144741
outer loop
vertex 0.037727 -0.073566 0.019465
vertex 0.052001 -0.151268 0.023320
vertex 0.051446 -0.151366 0.019465
endloop
endfacet
facet normal 0.940457 0.165828 -0.296719
outer loop
vertex 0.037727 -0.073566 0.019465
vertex 0.051446 -0.151366 0.019465
vertex 0.036589 -0.073767 0.015744
endloop
endfacet
facet normal 0.940457 0.165828 -0.296719
outer loop
vertex 0.036589 -0.073767 0.015744
vertex 0.051446 -0.151366 0.019465
vertex 0.050307 -0.151567 0.015744
endloop
endfacet
facet normal 0.883634 0.155809 -0.441491
outer loop
vertex 0.036589 -0.073767 0.015744
vertex 0.050307 -0.151567 0.015744
vertex 0.034895 -0.074066 0.012248
endloop
endfacet
facet normal 0.883634 0.155809 -0.441491
outer loop
vertex 0.034895 -0.074066 0.012248
vertex 0.050307 -0.151567 0.015744
vertex 0.048613 -0.151866 0.012248
endloop
endfacet
facet normal 0.805350 0.142005 -0.575540
outer loop
vertex 0.034895 -0.074066 0.012248
vertex 0.048613 -0.151866 0.012248
vertex 0.032687 -0.074455 0.009062
endloop
endfacet
facet normal -0.592477 -0.104470 -0.798785
outer loop
vertex 0.000484 -0.080133 0.003919
vertex -0.002581 -0.080674 0.006263
vertex -0.016299 -0.002874 0.006263
endloop
endfacet
facet normal -0.707506 -0.124752 -0.695610
outer loop
vertex -0.016299 -0.002874 0.006263
vertex -0.002581 -0.080674 0.006263
vertex -0.018968 -0.003345 0.009062
endloop
endfacet
facet normal -0.707505 -0.124752 -0.695610
outer loop
vertex -0.016299 -0.002874 0.006263
vertex -0.018968 -0.003345 0.009062
vertex -0.032687 0.074455 0.009062
endloop
endfacet
facet normal -0.805350 -0.142005 -0.575540
outer loop
vertex -0.032687 0.074455 0.009062
vertex -0.018968 -0.003345 0.009062
vertex -0.034895 0.074066 0.012248
endloop
endfacet
facet normal -0.805350 -0.142005 -0.575540
outer loop
vertex -0.032687 0.074455 0.009062
vertex -0.034895 0.074066 0.012248
vertex -0.048613 0.151866 0.012248
endloop
endfacet
facet normal -0.883633 -0.155809 -0.441492
outer loop
vertex -0.048613 0.151866 0.012248
vertex -0.034895 0.074066 0.012248
vertex -0.050307 0.151567 0.015744
endloop
endfacet
facet normal -0.707505 -0.124752 -0.695610
outer loop
vertex -0.018968 -0.003345 0.009062
vertex -0.002581 -0.080674 0.006263
vertex -0.005250 -0.081144 0.009062
endloop
endfacet
facet normal -0.805350 -0.142005 -0.575540
outer loop
vertex -0.018968 -0.003345 0.009062
vertex -0.005250 -0.081144 0.009062
vertex -0.021177 -0.003734 0.012248
endloop
endfacet
facet normal -0.805349 -0.142005 -0.575540
outer loop
vertex -0.021177 -0.003734 0.012248
vertex -0.005250 -0.081144 0.009062
vertex -0.007458 -0.081534 0.012248
endloop
endfacet
facet normal -0.883634 -0.155809 -0.441491
outer loop
vertex -0.021177 -0.003734 0.012248
vertex -0.007458 -0.081534 0.012248
vertex -0.022871 -0.004033 0.015744
endloop
endfacet
facet normal -0.883634 -0.155809 -0.441491
outer loop
vertex -0.022871 -0.004033 0.015744
vertex -0.007458 -0.081534 0.012248
vertex -0.009152 -0.081833 0.015744
endloop
endfacet
facet normal -0.940457 -0.165828 -0.296719
outer loop
vertex -0.022871 -0.004033 0.015744
vertex -0.009152 -0.081833 0.015744
vertex -0.024009 -0.004233 0.019465
endloop
endfacet
facet normal -0.940457 -0.165828 -0.296719
outer loop
vertex -0.024009 -0.004233 0.019465
vertex -0.009152 -0.081833 0.015744
vertex -0.010291 -0.082033 0.019465
endloop
endfacet
facet normal -0.974437 -0.171820 -0.144741
outer loop
vertex -0.024009 -0.004233 0.019465
vertex -0.010291 -0.082033 0.019465
vertex -0.024565 -0.004331 0.023320
endloop
endfacet
facet normal -0.974437 -0.171820 -0.144741
outer loop
vertex -0.024565 -0.004331 0.023320
vertex -0.010291 -0.082033 0.019465
vertex -0.010846 -0.082131 0.023320
endloop
endfacet
facet normal -0.984751 -0.173638 0.010752
outer loop
vertex -0.024565 -0.004331 0.023320
vertex -0.010846 -0.082131 0.023320
vertex -0.024523 -0.004324 0.027216
endloop
endfacet
facet normal -0.984751 -0.173638 0.010752
outer loop
vertex -0.024523 -0.004324 0.027216
vertex -0.010846 -0.082131 0.023320
vertex -0.010805 -0.082124 0.027216
endloop
endfacet
facet normal -0.971147 -0.171240 0.165986
outer loop
vertex -0.024523 -0.004324 0.027216
vertex -0.010805 -0.082124 0.027216
vertex -0.023886 -0.004212 0.031058
endloop
endfacet
facet normal -0.971147 -0.171239 0.165985
outer loop
vertex -0.023886 -0.004212 0.031058
vertex -0.010805 -0.082124 0.027216
vertex -0.010168 -0.082012 0.031058
endloop
endfacet
facet normal -0.933956 -0.164681 0.317186
outer loop
vertex -0.023886 -0.004212 0.031058
vertex -0.010168 -0.082012 0.031058
vertex -0.022669 -0.003997 0.034753
endloop
endfacet
facet normal -0.933955 -0.164682 0.317187
outer loop
vertex -0.022669 -0.003997 0.034753
vertex -0.010168 -0.082012 0.031058
vertex -0.008951 -0.081797 0.034753
endloop
endfacet
facet normal -0.874080 -0.154124 0.460685
outer loop
vertex -0.022669 -0.003997 0.034753
vertex -0.008951 -0.081797 0.034753
vertex -0.020902 -0.003686 0.038211
endloop
endfacet
facet normal -0.874080 -0.154124 0.460685
outer loop
vertex -0.020902 -0.003686 0.038211
vertex -0.008951 -0.081797 0.034753
vertex -0.007184 -0.081485 0.038211
endloop
endfacet
facet normal -0.792976 -0.139823 0.592991
outer loop
vertex -0.020902 -0.003686 0.038211
vertex -0.007184 -0.081485 0.038211
vertex -0.018626 -0.003284 0.041348
endloop
endfacet
facet normal -0.792975 -0.139823 0.592993
outer loop
vertex -0.018626 -0.003284 0.041348
vertex -0.007184 -0.081485 0.038211
vertex -0.004908 -0.081084 0.041348
endloop
endfacet
facet normal -0.692612 -0.122126 0.710897
outer loop
vertex -0.018626 -0.003284 0.041348
vertex -0.004908 -0.081084 0.041348
vertex -0.015899 -0.002803 0.044088
endloop
endfacet
facet normal -0.692610 -0.122126 0.710899
outer loop
vertex -0.015899 -0.002803 0.044088
vertex -0.004908 -0.081084 0.041348
vertex -0.002181 -0.080603 0.044088
endloop
endfacet
facet normal -0.575420 -0.101462 0.811540
outer loop
vertex -0.014652 -0.002584 0.045000
vertex -0.015899 -0.002803 0.044088
vertex -0.002181 -0.080603 0.044088
endloop
endfacet
facet normal -0.575422 -0.101462 0.811539
outer loop
vertex -0.014652 -0.002584 0.045000
vertex -0.002181 -0.080603 0.044088
vertex -0.006426 -0.049233 0.045000
endloop
endfacet
facet normal -0.575423 -0.101462 0.811538
outer loop
vertex -0.006426 -0.049233 0.045000
vertex -0.002181 -0.080603 0.044088
vertex -0.000934 -0.080383 0.045000
endloop
endfacet
facet normal 0.575421 0.101462 0.811539
outer loop
vertex 0.014652 0.002584 0.045000
vertex 0.020145 -0.028567 0.045000
vertex 0.015899 0.002803 0.044088
endloop
endfacet
facet normal 0.575422 0.101462 0.811538
outer loop
vertex 0.028370 -0.075216 0.045000
vertex 0.029617 -0.074996 0.044088
vertex 0.015899 0.002803 0.044088
endloop
endfacet
facet normal 0.575427 0.101462 0.811535
outer loop
vertex 0.028370 -0.075216 0.045000
vertex 0.015899 0.002803 0.044088
vertex 0.020145 -0.028567 0.045000
endloop
endfacet
facet normal 0.692610 0.122126 0.710899
outer loop
vertex 0.015899 0.002803 0.044088
vertex 0.029617 -0.074996 0.044088
vertex 0.018626 0.003284 0.041348
endloop
endfacet
facet normal 0.692612 0.122126 0.710897
outer loop
vertex 0.018626 0.003284 0.041348
vertex 0.029617 -0.074996 0.044088
vertex 0.032345 -0.074515 0.041348
endloop
endfacet
facet normal 0.792974 0.139823 0.592993
outer loop
vertex 0.018626 0.003284 0.041348
vertex 0.032345 -0.074515 0.041348
vertex 0.020902 0.003686 0.038211
endloop
endfacet
facet normal 0.792975 0.139823 0.592992
outer loop
vertex 0.020902 0.003686 0.038211
vertex 0.032345 -0.074515 0.041348
vertex 0.034620 -0.074114 0.038211
endloop
endfacet
facet normal 0.874080 0.154124 0.460684
outer loop
vertex 0.020902 0.003686 0.038211
vertex 0.034620 -0.074114 0.038211
vertex 0.022669 0.003997 0.034753
endloop
endfacet
facet normal 0.874080 0.154124 0.460685
outer loop
vertex 0.022669 0.003997 0.034753
vertex 0.034620 -0.074114 0.038211
vertex 0.036388 -0.073803 0.034753
endloop
endfacet
facet normal 0.933955 0.164682 0.317188
outer loop
vertex 0.022669 0.003997 0.034753
vertex 0.036388 -0.073803 0.034753
vertex 0.023886 0.004212 0.031058
endloop
endfacet
facet normal 0.933955 0.164681 0.317187
outer loop
vertex 0.023886 0.004212 0.031058
vertex 0.036388 -0.073803 0.034753
vertex 0.037605 -0.073588 0.031058
endloop
endfacet
facet normal 0.971147 0.171239 0.165986
outer loop
vertex 0.023886 0.004212 0.031058
vertex 0.037605 -0.073588 0.031058
vertex 0.024523 0.004324 0.027216
endloop
endfacet
facet normal 0.971147 0.171239 0.165986
outer loop
vertex 0.024523 0.004324 0.027216
vertex 0.037605 -0.073588 0.031058
vertex 0.038241 -0.073476 0.027216
endloop
endfacet
facet normal 0.984751 0.173638 0.010753
outer loop
vertex 0.024523 0.004324 0.027216
vertex 0.038241 -0.073476 0.027216
vertex 0.024565 0.004331 0.023320
endloop
endfacet
facet normal 0.984751 0.173638 0.010753
outer loop
vertex 0.024565 0.004331 0.023320
vertex 0.038241 -0.073476 0.027216
vertex 0.038283 -0.073468 0.023320
endloop
endfacet
facet normal 0.974437 0.171819 -0.144741
outer loop
vertex 0.024565 0.004331 0.023320
vertex 0.038283 -0.073468 0.023320
vertex 0.024009 0.004233 0.019465
endloop
endfacet
facet normal 0.974437 0.171820 -0.144741
outer loop
vertex 0.024009 0.004233 0.019465
vertex 0.038283 -0.073468 0.023320
vertex 0.037727 -0.073566 0.019465
endloop
endfacet
facet normal 0.940457 0.165828 -0.296719
outer loop
vertex 0.024009 0.004233 0.019465
vertex 0.037727 -0.073566 0.019465
vertex 0.022871 0.004033 0.015744
endloop
endfacet
facet normal 0.940457 0.165828 -0.296719
outer loop
vertex 0.022871 0.004033 0.015744
vertex 0.037727 -0.073566 0.019465
vertex 0.036589 -0.073767 0.015744
endloop
endfacet
facet normal 0.883634 0.155809 -0.441491
outer loop
vertex 0.022871 0.004033 0.015744
vertex 0.036589 -0.073767 0.015744
vertex 0.021177 0.003734 0.012248
endloop
endfacet
facet normal 0.883634 0.155809 -0.441491
outer loop
vertex 0.021177 0.003734 0.012248
vertex 0.036589 -0.073767 0.015744
vertex 0.034895 -0.074066 0.012248
endloop
endfacet
facet normal 0.805350 0.142005 -0.575540
outer loop
vertex 0.021177 0.003734 0.012248
vertex 0.034895 -0.074066 0.012248
vertex 0.018968 0.003345 0.009062
endloop
endfacet
facet normal 0.805350 0.142005 -0.575540
outer loop
vertex 0.018968 0.003345 0.009062
vertex 0.034895 -0.074066 0.012248
vertex 0.032687 -0.074455 0.009062
endloop
endfacet
facet normal 0.707505 0.124752 -0.695610
outer loop
vertex 0.018968 0.003345 0.009062
vertex 0.032687 -0.074455 0.009062
vertex 0.016299 0.002874 0.006263
endloop
endfacet
facet normal -0.805350 -0.142005 -0.575540
outer loop
vertex -0.018968 -0.003345 0.009062
vertex -0.021177 -0.003734 0.012248
vertex -0.034895 0.074066 0.012248
endloop
endfacet
facet normal -0.883634 -0.155809 -0.441491
outer loop
vertex -0.034895 0.074066 0.012248
vertex -0.021177 -0.003734 0.012248
vertex -0.036589 0.073767 0.015744
endloop
endfacet
facet normal -0.883634 -0.155808 -0.441491
outer loop
vertex -0.034895 0.074066 0.012248
vertex -0.036589 0.073767 0.015744
vertex -0.050307 0.151567 0.015744
endloop
endfacet
facet normal -0.940457 -0.165828 -0.296719
outer loop
vertex -0.050307 0.151567 0.015744
vertex -0.036589 0.073767 0.015744
vertex -0.051446 0.151366 0.019465
endloop
endfacet
facet normal -0.883634 -0.155808 -0.441492
outer loop
vertex -0.036589 0.073767 0.015744
vertex -0.021177 -0.003734 0.012248
vertex -0.022871 -0.004033 0.015744
endloop
endfacet
facet normal -0.940457 -0.165828 -0.296719
outer loop
vertex -0.036589 0.073767 0.015744
vertex -0.022871 -0.004033 0.015744
vertex -0.037727 0.073566 0.019465
endloop
endfacet
facet normal -0.940457 -0.165828 -0.296719
outer loop
vertex -0.037727 0.073566 0.019465
vertex -0.022871 -0.004033 0.015744
vertex -0.024009 -0.004233 0.019465
endloop
endfacet
facet normal -0.974437 -0.171820 -0.144741
outer loop
vertex -0.037727 0.073566 0.019465
vertex -0.024009 -0.004233 0.019465
vertex -0.038283 0.073468 0.023320
endloop
endfacet
facet normal -0.974437 -0.171819 -0.144741
outer loop
vertex -0.038283 0.073468 0.023320
vertex -0.024009 -0.004233 0.019465
vertex -0.024565 -0.004331 0.023320
endloop
endfacet
facet normal -0.984751 -0.173638 0.010753
outer loop
vertex -0.038283 0.073468 0.023320
vertex -0.024565 -0.004331 0.023320
vertex -0.038241 0.073476 0.027216
endloop
endfacet
facet normal -0.984751 -0.173638 0.010753
outer loop
vertex -0.038241 0.073476 0.027216
vertex -0.024565 -0.004331 0.023320
vertex -0.024523 -0.004324 0.027216
endloop
endfacet
facet normal -0.971147 -0.171240 0.165986
outer loop
vertex -0.038241 0.073476 0.027216
vertex -0.024523 -0.004324 0.027216
vertex -0.037605 0.073588 0.031058
endloop
endfacet
facet normal -0.971147 -0.171239 0.165985
outer loop
vertex -0.037605 0.073588 0.031058
vertex -0.024523 -0.004324 0.027216
vertex -0.023886 -0.004212 0.031058
endloop
endfacet
facet normal -0.933955 -0.164681 0.317187
outer loop
vertex -0.037605 0.073588 0.031058
vertex -0.023886 -0.004212 0.031058
vertex -0.036388 0.073803 0.034753
endloop
endfacet
facet normal -0.933955 -0.164682 0.317187
outer loop
vertex -0.036388 0.073803 0.034753
vertex -0.023886 -0.004212 0.031058
vertex -0.022669 -0.003997 0.034753
endloop
endfacet
facet normal -0.874080 -0.154124 0.460684
outer loop
vertex -0.036388 0.073803 0.034753
vertex -0.022669 -0.003997 0.034753
vertex -0.034620 0.074114 0.038211
endloop
endfacet
facet normal -0.874080 -0.154124 0.460684
outer loop
vertex -0.034620 0.074114 0.038211
vertex -0.022669 -0.003997 0.034753
vertex -0.020902 -0.003686 0.038211
endloop
endfacet
facet normal -0.792975 -0.139823 0.592992
outer loop
vertex -0.034620 0.074114 0.038211
vertex -0.020902 -0.003686 0.038211
vertex -0.032345 0.074515 0.041348
endloop
endfacet
facet normal -0.792975 -0.139823 0.592993
outer loop
vertex -0.032345 0.074515 0.041348
vertex -0.020902 -0.003686 0.038211
vertex -0.018626 -0.003284 0.041348
endloop
endfacet
facet normal -0.692612 -0.122126 0.710897
outer loop
vertex -0.032345 0.074515 0.041348
vertex -0.018626 -0.003284 0.041348
vertex -0.029617 0.074996 0.044088
endloop
endfacet
facet normal -0.692610 -0.122126 0.710899
outer loop
vertex -0.029617 0.074996 0.044088
vertex -0.018626 -0.003284 0.041348
vertex -0.015899 -0.002803 0.044088
endloop
endfacet
facet normal -0.575424 -0.101462 0.811537
outer loop
vertex -0.020145 0.028567 0.045000
vertex -0.028370 0.075216 0.045000
vertex -0.029617 0.074996 0.044088
endloop
endfacet
facet normal -0.575423 -0.101462 0.811538
outer loop
vertex -0.020145 0.028567 0.045000
vertex -0.029617 0.074996 0.044088
vertex -0.015899 -0.002803 0.044088
endloop
endfacet
facet normal -0.575422 -0.101462 0.811539
outer loop
vertex -0.020145 0.028567 0.045000
vertex -0.015899 -0.002803 0.044088
vertex -0.014652 -0.002584 0.045000
endloop
endfacet
facet normal 0.575424 0.101462 0.811537
outer loop
vertex 0.000934 0.080383 0.045000
vertex 0.006426 0.049233 0.045000
vertex 0.002181 0.080603 0.044088
endloop
endfacet
facet normal 0.575420 0.101462 0.811540
outer loop
vertex 0.014652 0.002584 0.045000
vertex 0.015899 0.002803 0.044088
vertex 0.002181 0.080603 0.044088
endloop
endfacet
facet normal 0.575422 0.101462 0.811539
outer loop
vertex 0.014652 0.002584 0.045000
vertex 0.002181 0.080603 0.044088
vertex 0.006426 0.049233 0.045000
endloop
endfacet
facet normal 0.692610 0.122126 0.710898
outer loop
vertex 0.002181 0.080603 0.044088
vertex 0.015899 0.002803 0.044088
vertex 0.004908 0.081084 0.041348
endloop
endfacet
facet normal 0.692612 0.122126 0.710897
outer loop
vertex 0.004908 0.081084 0.041348
vertex 0.015899 0.002803 0.044088
vertex 0.018626 0.003284 0.041348
endloop
endfacet
facet normal 0.792975 0.139823 0.592993
outer loop
vertex 0.004908 0.081084 0.041348
vertex 0.018626 0.003284 0.041348
vertex 0.007184 0.081485 0.038211
endloop
endfacet
facet normal 0.792976 0.139823 0.592991
outer loop
vertex 0.007184 0.081485 0.038211
vertex 0.018626 0.003284 0.041348
vertex 0.020902 0.003686 0.038211
endloop
endfacet
facet normal 0.874080 0.154124 0.460684
outer loop
vertex 0.007184 0.081485 0.038211
vertex 0.020902 0.003686 0.038211
vertex 0.008951 0.081797 0.034753
endloop
endfacet
facet normal 0.874080 0.154124 0.460685
outer loop
vertex 0.008951 0.081797 0.034753
vertex 0.020902 0.003686 0.038211
vertex 0.022669 0.003997 0.034753
endloop
endfacet
facet normal 0.933955 0.164682 0.317187
outer loop
vertex 0.008951 0.081797 0.034753
vertex 0.022669 0.003997 0.034753
vertex 0.010168 0.082012 0.031058
endloop
endfacet
facet normal 0.933955 0.164681 0.317186
outer loop
vertex 0.010168 0.082012 0.031058
vertex 0.022669 0.003997 0.034753
vertex 0.023886 0.004212 0.031058
endloop
endfacet
facet normal 0.971147 0.171239 0.165986
outer loop
vertex 0.010168 0.082012 0.031058
vertex 0.023886 0.004212 0.031058
vertex 0.010805 0.082124 0.027216
endloop
endfacet
facet normal 0.971147 0.171240 0.165986
outer loop
vertex 0.010805 0.082124 0.027216
vertex 0.023886 0.004212 0.031058
vertex 0.024523 0.004324 0.027216
endloop
endfacet
facet normal 0.984751 0.173638 0.010752
outer loop
vertex 0.010805 0.082124 0.027216
vertex 0.024523 0.004324 0.027216
vertex 0.010846 0.082131 0.023320
endloop
endfacet
facet normal 0.984751 0.173638 0.010753
outer loop
vertex 0.010846 0.082131 0.023320
vertex 0.024523 0.004324 0.027216
vertex 0.024565 0.004331 0.023320
endloop
endfacet
facet normal 0.974437 0.171820 -0.144741
outer loop
vertex 0.010846 0.082131 0.023320
vertex 0.024565 0.004331 0.023320
vertex 0.010291 0.082033 0.019465
endloop
endfacet
facet normal 0.974437 0.171820 -0.144741
outer loop
vertex 0.010291 0.082033 0.019465
vertex 0.024565 0.004331 0.023320
vertex 0.024009 0.004233 0.019465
endloop
endfacet
facet normal 0.940457 0.165828 -0.296719
outer loop
vertex 0.010291 0.082033 0.019465
vertex 0.024009 0.004233 0.019465
vertex 0.009152 0.081833 0.015744
endloop
endfacet
facet normal 0.940457 0.165828 -0.296719
outer loop
vertex 0.009152 0.081833 0.015744
vertex 0.024009 0.004233 0.019465
vertex 0.022871 0.004033 0.015744
endloop
endfacet
facet normal 0.883634 0.155809 -0.441491
outer loop
vertex 0.009152 0.081833 0.015744
vertex 0.022871 0.004033 0.015744
vertex 0.007458 0.081534 0.012248
endloop
endfacet
facet normal 0.883634 0.155808 -0.441491
outer loop
vertex 0.007458 0.081534 0.012248
vertex 0.022871 0.004033 0.015744
vertex 0.021177 0.003734 0.012248
endloop
endfacet
facet normal 0.805350 0.142005 -0.575540
outer loop
vertex 0.007458 0.081534 0.012248
vertex 0.021177 0.003734 0.012248
vertex 0.005250 0.081144 0.009062
endloop
endfacet
facet normal 0.805350 0.142005 -0.575540
outer loop
vertex 0.005250 0.081144 0.009062
vertex 0.021177 0.003734 0.012248
vertex 0.018968 0.003345 0.009062
endloop
endfacet
facet normal 0.707505 0.124752 -0.695610
outer loop
vertex 0.005250 0.081144 0.009062
vertex 0.018968 0.003345 0.009062
vertex 0.002581 0.080674 0.006263
endloop
endfacet
facet normal 0.707505 0.124752 -0.695610
outer loop
vertex 0.002581 0.080674 0.006263
vertex 0.018968 0.003345 0.009062
vertex 0.016299 0.002874 0.006263
endloop
endfacet
facet normal 0.592477 0.104470 -0.798785
outer loop
vertex 0.002581 0.080674 0.006263
vertex 0.016299 0.002874 0.006263
vertex -0.000484 0.080133 0.003919
endloop
endfacet
facet normal -0.974437 -0.171820 -0.144742
outer loop
vertex -0.052001 0.151268 0.023320
vertex -0.051446 0.151366 0.019465
vertex -0.037727 0.073566 0.019465
endloop
endfacet
facet normal -0.940457 -0.165828 -0.296719
outer loop
vertex -0.037727 0.073566 0.019465
vertex -0.051446 0.151366 0.019465
vertex -0.036589 0.073767 0.015744
endloop
endfacet
facet normal -0.974437 -0.171820 -0.144741
outer loop
vertex -0.052001 0.151268 0.023320
vertex -0.037727 0.073566 0.019465
vertex -0.038283 0.073468 0.023320
endloop
endfacet
facet normal -0.984751 -0.173638 0.010754
outer loop
vertex -0.051960 0.151276 0.027216
vertex -0.052001 0.151268 0.023320
vertex -0.038283 0.073468 0.023320
endloop
endfacet
facet normal -0.984751 -0.173638 0.010752
outer loop
vertex -0.051960 0.151276 0.027216
vertex -0.038283 0.073468 0.023320
vertex -0.038241 0.073476 0.027216
endloop
endfacet
facet normal -0.971147 -0.171239 0.165986
outer loop
vertex -0.051323 0.151388 0.031058
vertex -0.051960 0.151276 0.027216
vertex -0.038241 0.073476 0.027216
endloop
endfacet
facet normal -0.971146 -0.171239 0.165987
outer loop
vertex -0.051323 0.151388 0.031058
vertex -0.038241 0.073476 0.027216
vertex -0.037605 0.073588 0.031058
endloop
endfacet
facet normal -0.933956 -0.164682 0.317186
outer loop
vertex -0.050106 0.151602 0.034753
vertex -0.051323 0.151388 0.031058
vertex -0.037605 0.073588 0.031058
endloop
endfacet
facet normal -0.933955 -0.164682 0.317188
outer loop
vertex -0.050106 0.151602 0.034753
vertex -0.037605 0.073588 0.031058
vertex -0.036388 0.073803 0.034753
endloop
endfacet
facet normal -0.874080 -0.154124 0.460684
outer loop
vertex -0.048338 0.151914 0.038211
vertex -0.050106 0.151602 0.034753
vertex -0.036388 0.073803 0.034753
endloop
endfacet
facet normal -0.874080 -0.154124 0.460684
outer loop
vertex -0.048338 0.151914 0.038211
vertex -0.036388 0.073803 0.034753
vertex -0.034620 0.074114 0.038211
endloop
endfacet
facet normal -0.792975 -0.139823 0.592993
outer loop
vertex -0.046063 0.152315 0.041348
vertex -0.048338 0.151914 0.038211
vertex -0.034620 0.074114 0.038211
endloop
endfacet
facet normal -0.792975 -0.139823 0.592992
outer loop
vertex -0.046063 0.152315 0.041348
vertex -0.034620 0.074114 0.038211
vertex -0.032345 0.074515 0.041348
endloop
endfacet
facet normal -0.692611 -0.122126 0.710898
outer loop
vertex -0.043335 0.152796 0.044088
vertex -0.046063 0.152315 0.041348
vertex -0.032345 0.074515 0.041348
endloop
endfacet
facet normal -0.692611 -0.122126 0.710898
outer loop
vertex -0.043335 0.152796 0.044088
vertex -0.032345 0.074515 0.041348
vertex -0.029617 0.074996 0.044088
endloop
endfacet
facet normal -0.575421 -0.101463 0.811539
outer loop
vertex -0.033863 0.106367 0.045000
vertex -0.042088 0.153016 0.045000
vertex -0.043335 0.152796 0.044088
endloop
endfacet
facet normal -0.575423 -0.101462 0.811538
outer loop
vertex -0.033863 0.106367 0.045000
vertex -0.043335 0.152796 0.044088
vertex -0.029617 0.074996 0.044088
endloop
endfacet
facet normal -0.575420 -0.101462 0.811540
outer loop
vertex -0.033863 0.106367 0.045000
vertex -0.029617 0.074996 0.044088
vertex -0.028370 0.075216 0.045000
endloop
endfacet
facet normal 0.575420 0.101462 0.811540
outer loop
vertex -0.012784 0.158183 0.045000
vertex -0.007292 0.127033 0.045000
vertex -0.011538 0.158403 0.044088
endloop
endfacet
facet normal 0.575420 0.101462 0.811540
outer loop
vertex 0.002181 0.080603 0.044088
vertex -0.011538 0.158403 0.044088
vertex -0.007292 0.127033 0.045000
endloop
endfacet
facet normal 0.575426 0.101462 0.811536
outer loop
vertex 0.002181 0.080603 0.044088
vertex -0.007292 0.127033 0.045000
vertex 0.000934 0.080383 0.045000
endloop
endfacet
facet normal 0.692611 0.122126 0.710898
outer loop
vertex -0.008810 0.158884 0.041348
vertex -0.011538 0.158403 0.044088
vertex 0.002181 0.080603 0.044088
endloop
endfacet
facet normal 0.692611 0.122126 0.710898
outer loop
vertex -0.008810 0.158884 0.041348
vertex 0.002181 0.080603 0.044088
vertex 0.004908 0.081084 0.041348
endloop
endfacet
facet normal 0.792976 0.139823 0.592992
outer loop
vertex -0.006535 0.159285 0.038211
vertex -0.008810 0.158884 0.041348
vertex 0.004908 0.081084 0.041348
endloop
endfacet
facet normal 0.792975 0.139823 0.592993
outer loop
vertex -0.006535 0.159285 0.038211
vertex 0.004908 0.081084 0.041348
vertex 0.007184 0.081485 0.038211
endloop
endfacet
facet normal 0.874080 0.154124 0.460684
outer loop
vertex -0.004767 0.159597 0.034753
vertex -0.006535 0.159285 0.038211
vertex 0.007184 0.081485 0.038211
endloop
endfacet
facet normal 0.874079 0.154124 0.460686
outer loop
vertex -0.004767 0.159597 0.034753
vertex 0.007184 0.081485 0.038211
vertex 0.008951 0.081797 0.034753
endloop
endfacet
facet normal 0.933955 0.164682 0.317186
outer loop
vertex -0.003550 0.159811 0.031058
vertex -0.004767 0.159597 0.034753
vertex 0.008951 0.081797 0.034753
endloop
endfacet
facet normal 0.933955 0.164681 0.317187
outer loop
vertex -0.003550 0.159811 0.031058
vertex 0.008951 0.081797 0.034753
vertex 0.010168 0.082012 0.031058
endloop
endfacet
facet normal 0.971147 0.171239 0.165986
outer loop
vertex -0.002913 0.159924 0.027216
vertex -0.003550 0.159811 0.031058
vertex 0.010168 0.082012 0.031058
endloop
endfacet
facet normal 0.971147 0.171240 0.165985
outer loop
vertex -0.002913 0.159924 0.027216
vertex 0.010168 0.082012 0.031058
vertex 0.010805 0.082124 0.027216
endloop
endfacet
facet normal 0.984751 0.173638 0.010753
outer loop
vertex -0.002872 0.159931 0.023320
vertex -0.002913 0.159924 0.027216
vertex 0.010805 0.082124 0.027216
endloop
endfacet
facet normal 0.984751 0.173638 0.010752
outer loop
vertex -0.002872 0.159931 0.023320
vertex 0.010805 0.082124 0.027216
vertex 0.010846 0.082131 0.023320
endloop
endfacet
facet normal 0.974437 0.171820 -0.144741
outer loop
vertex -0.003427 0.159833 0.019465
vertex -0.002872 0.159931 0.023320
vertex 0.010846 0.082131 0.023320
endloop
endfacet
facet normal 0.974437 0.171820 -0.144741
outer loop
vertex -0.003427 0.159833 0.019465
vertex 0.010846 0.082131 0.023320
vertex 0.010291 0.082033 0.019465
endloop
endfacet
facet normal 0.940457 0.165828 -0.296719
outer loop
vertex -0.004566 0.159632 0.015744
vertex -0.003427 0.159833 0.019465
vertex 0.010291 0.082033 0.019465
endloop
endfacet
facet normal 0.940457 0.165828 -0.296720
outer loop
vertex -0.004566 0.159632 0.015744
vertex 0.010291 0.082033 0.019465
vertex 0.009152 0.081833 0.015744
endloop
endfacet
facet normal 0.883634 0.155809 -0.441492
outer loop
vertex -0.006260 0.159334 0.012248
vertex -0.004566 0.159632 0.015744
vertex 0.009152 0.081833 0.015744
endloop
endfacet
facet normal 0.883635 0.155809 -0.441490
outer loop
vertex -0.006260 0.159334 0.012248
vertex 0.009152 0.081833 0.015744
vertex 0.007458 0.081534 0.012248
endloop
endfacet
facet normal 0.805350 0.142005 -0.575540
outer loop
vertex -0.008468 0.158944 0.009062
vertex -0.006260 0.159334 0.012248
vertex 0.007458 0.081534 0.012248
endloop
endfacet
facet normal 0.805350 0.142005 -0.575540
outer loop
vertex -0.008468 0.158944 0.009062
vertex 0.007458 0.081534 0.012248
vertex 0.005250 0.081144 0.009062
endloop
endfacet
facet normal 0.707506 0.124752 -0.695610
outer loop
vertex -0.011137 0.158474 0.006263
vertex -0.008468 0.158944 0.009062
vertex 0.005250 0.081144 0.009062
endloop
endfacet
facet normal 0.707505 0.124752 -0.695610
outer loop
vertex -0.011137 0.158474 0.006263
vertex 0.005250 0.081144 0.009062
vertex 0.002581 0.080674 0.006263
endloop
endfacet
facet normal 0.592477 0.104470 -0.798785
outer loop
vertex -0.014202 0.157933 0.003919
vertex -0.011137 0.158474 0.006263
vertex 0.002581 0.080674 0.006263
endloop
endfacet
facet normal 0.592477 0.104470 -0.798785
outer loop
vertex -0.014202 0.157933 0.003919
vertex 0.002581 0.080674 0.006263
vertex -0.000484 0.080133 0.003919
endloop
endfacet
facet normal -0.984808 -0.173648 0.000000
outer loop
vertex 0.031307 -0.235136 0.000000
vertex 0.031307 -0.235136 0.002087
vertex -0.051003 0.231663 0.000000
endloop
endfacet
facet normal -0.984808 -0.173648 0.000000
outer loop
vertex -0.051003 0.231663 0.000000
vertex 0.031307 -0.235136 0.002087
vertex -0.051003 0.231663 0.002087
endloop
endfacet
facet normal -0.173648 0.984808 0.000000
outer loop
vertex -0.051003 0.231663 0.000000
vertex -0.051003 0.231663 0.002087
vertex -0.031307 0.235136 0.000000
endloop
endfacet
facet normal -0.173648 0.984808 0.000000
outer loop
vertex -0.031307 0.235136 0.000000
vertex -0.051003 0.231663 0.002087
vertex -0.031307 0.235136 0.002087
endloop
endfacet
facet normal -0.173648 0.984808 -0.000026
outer loop
vertex -0.031307 0.235136 0.002087
vertex -0.051003 0.231663 0.002087
vertex -0.028010 0.235717 0.003861
endloop
endfacet
facet normal -0.173648 0.984808 0.000020
outer loop
vertex -0.028010 0.235717 0.003861
vertex -0.051003 0.231663 0.002087
vertex -0.025016 0.236245 0.006120
endloop
endfacet
facet normal -0.173648 0.984808 -0.000015
outer loop
vertex -0.025016 0.236245 0.006120
vertex -0.051003 0.231663 0.002087
vertex -0.022392 0.236708 0.008813
endloop
endfacet
facet normal -0.173647 0.984808 0.000000
outer loop
vertex -0.022392 0.236708 0.008813
vertex -0.051003 0.231663 0.002087
vertex -0.020199 0.237095 0.011878
endloop
endfacet
facet normal -0.173648 0.984808 -0.000011
outer loop
vertex -0.020199 0.237095 0.011878
vertex -0.051003 0.231663 0.002087
vertex -0.018487 0.237396 0.015243
endloop
endfacet
facet normal -0.173649 0.984808 -0.000018
outer loop
vertex -0.018487 0.237396 0.015243
vertex -0.051003 0.231663 0.002087
vertex -0.017295 0.237606 0.018833
endloop
endfacet
facet normal -0.173648 0.984808 0.000016
outer loop
vertex -0.017295 0.237606 0.018833
vertex -0.051003 0.231663 0.002087
vertex -0.016652 0.237720 0.022564
endloop
endfacet
facet normal -0.173648 0.984808 0.000014
outer loop
vertex -0.016652 0.237720 0.022564
vertex -0.051003 0.231663 0.002087
vertex -0.016570 0.237734 0.026352
endloop
endfacet
facet normal -0.173647 0.984808 0.000000
outer loop
vertex -0.016570 0.237734 0.026352
vertex -0.051003 0.231663 0.002087
vertex -0.017054 0.237649 0.030108
endloop
endfacet
facet normal -0.173648 0.984808 -0.000006
outer loop
vertex -0.017054 0.237649 0.030108
vertex -0.051003 0.231663 0.002087
vertex -0.018090 0.237466 0.033747
endloop
endfacet
facet normal -0.173650 0.984807 0.000000
outer loop
vertex -0.018090 0.237466 0.033747
vertex -0.051003 0.231663 0.002087
vertex -0.019657 0.237190 0.037185
endloop
endfacet
facet normal -0.173647 0.984808 0.000000
outer loop
vertex -0.019657 0.237190 0.037185
vertex -0.051003 0.231663 0.002087
vertex -0.021717 0.236827 0.040343
endloop
endfacet
facet normal -0.173647 0.984808 -0.000005
outer loop
vertex -0.021717 0.236827 0.040343
vertex -0.051003 0.231663 0.002087
vertex -0.024223 0.236385 0.043149
endloop
endfacet
facet normal -0.173649 0.984808 0.000005
outer loop
vertex -0.024223 0.236385 0.043149
vertex -0.051003 0.231663 0.002087
vertex -0.027414 0.235822 0.045000
endloop
endfacet
facet normal -0.173653 0.984807 0.000016
outer loop
vertex -0.024223 0.236385 0.043149
vertex -0.027414 0.235822 0.045000
vertex -0.026465 0.235990 0.045000
endloop
endfacet
facet normal -0.173647 0.984808 0.000005
outer loop
vertex -0.031454 0.235110 0.045000
vertex -0.027414 0.235822 0.045000
vertex -0.051003 0.231663 0.002087
endloop
endfacet
facet normal -0.173650 0.984808 0.000000
outer loop
vertex -0.035219 0.234446 0.045000
vertex -0.031454 0.235110 0.045000
vertex -0.051003 0.231663 0.002087
endloop
endfacet
facet normal -0.173648 0.984808 -0.000003
outer loop
vertex -0.035219 0.234446 0.045000
vertex -0.051003 0.231663 0.002087
vertex -0.054299 0.231082 0.003861
endloop
endfacet
facet normal -0.173654 0.984807 0.000066
outer loop
vertex -0.035219 0.234446 0.045000
vertex -0.054299 0.231082 0.003861
vertex -0.035558 0.234386 0.045000
endloop
endfacet
facet normal -0.173649 0.984808 0.000001
outer loop
vertex -0.035558 0.234386 0.045000
vertex -0.054299 0.231082 0.003861
vertex -0.057293 0.230554 0.006120
endloop
endfacet
facet normal -0.173622 0.984812 0.000000
outer loop
vertex -0.035558 0.234386 0.045000
vertex -0.057293 0.230554 0.006120
vertex -0.035921 0.234322 0.045000
endloop
endfacet
facet normal -0.173648 0.984808 -0.000004
outer loop
vertex -0.035921 0.234322 0.045000
vertex -0.057293 0.230554 0.006120
vertex -0.059917 0.230091 0.008813
endloop
endfacet
facet normal -0.173669 0.984804 0.000064
outer loop
vertex -0.035921 0.234322 0.045000
vertex -0.059917 0.230091 0.008813
vertex -0.036317 0.234252 0.045000
endloop
endfacet
facet normal -0.173650 0.984807 -0.000004
outer loop
vertex -0.036317 0.234252 0.045000
vertex -0.059917 0.230091 0.008813
vertex -0.062110 0.229704 0.011878
endloop
endfacet
facet normal -0.173636 0.984810 0.000063
outer loop
vertex -0.036317 0.234252 0.045000
vertex -0.062110 0.229704 0.011878
vertex -0.036754 0.234175 0.045000
endloop
endfacet
facet normal -0.173648 0.984808 0.000001
outer loop
vertex -0.036754 0.234175 0.045000
vertex -0.062110 0.229704 0.011878
vertex -0.063822 0.229402 0.015243
endloop
endfacet
facet normal -0.173645 0.984808 0.000063
outer loop
vertex -0.036754 0.234175 0.045000
vertex -0.063822 0.229402 0.015243
vertex -0.037246 0.234089 0.045000
endloop
endfacet
facet normal -0.173647 0.984808 -0.000010
outer loop
vertex -0.037246 0.234089 0.045000
vertex -0.063822 0.229402 0.015243
vertex -0.065014 0.229192 0.018833
endloop
endfacet
facet normal -0.173642 0.984809 0.000000
outer loop
vertex -0.037246 0.234089 0.045000
vertex -0.065014 0.229192 0.018833
vertex -0.037812 0.233989 0.045000
endloop
endfacet
facet normal -0.173648 0.984808 0.000006
outer loop
vertex -0.037812 0.233989 0.045000
vertex -0.065014 0.229192 0.018833
vertex -0.065658 0.229079 0.022564
endloop
endfacet
facet normal -0.173659 0.984806 0.000000
outer loop
vertex -0.037812 0.233989 0.045000
vertex -0.065658 0.229079 0.022564
vertex -0.038475 0.233872 0.045000
endloop
endfacet
facet normal -0.173648 0.984808 -0.000002
outer loop
vertex -0.038475 0.233872 0.045000
vertex -0.065658 0.229079 0.022564
vertex -0.065739 0.229065 0.026352
endloop
endfacet
facet normal -0.173646 0.984808 0.000000
outer loop
vertex -0.038475 0.233872 0.045000
vertex -0.065739 0.229065 0.026352
vertex -0.039276 0.233731 0.045000
endloop
endfacet
facet normal -0.173649 0.984808 0.000004
outer loop
vertex -0.039276 0.233731 0.045000
vertex -0.065739 0.229065 0.026352
vertex -0.065255 0.229150 0.030108
endloop
endfacet
facet normal -0.173641 0.984809 0.000000
outer loop
vertex -0.039276 0.233731 0.045000
vertex -0.065255 0.229150 0.030108
vertex -0.040273 0.233555 0.045000
endloop
endfacet
facet normal -0.173650 0.984807 0.000000
outer loop
vertex -0.044123 0.232876 0.045000
vertex -0.040273 0.233555 0.045000
vertex -0.065255 0.229150 0.030108
endloop
endfacet
facet normal -0.173648 0.984808 0.000006
outer loop
vertex -0.044123 0.232876 0.045000
vertex -0.065255 0.229150 0.030108
vertex -0.064219 0.229333 0.033747
endloop
endfacet
facet normal -0.173650 0.984807 0.000000
outer loop
vertex -0.044123 0.232876 0.045000
vertex -0.064219 0.229333 0.033747
vertex -0.045341 0.232661 0.045000
endloop
endfacet
facet normal -0.173646 0.984808 0.000015
outer loop
vertex -0.045341 0.232661 0.045000
vertex -0.064219 0.229333 0.033747
vertex -0.062653 0.229609 0.037185
endloop
endfacet
facet normal -0.173647 0.984808 -0.000074
outer loop
vertex -0.045341 0.232661 0.045000
vertex -0.062653 0.229609 0.037185
vertex -0.046921 0.232383 0.045000
endloop
endfacet
facet normal -0.173647 0.984808 0.000002
outer loop
vertex -0.046921 0.232383 0.045000
vertex -0.062653 0.229609 0.037185
vertex -0.060593 0.229972 0.040343
endloop
endfacet
facet normal -0.173649 0.984808 0.000000
outer loop
vertex -0.046921 0.232383 0.045000
vertex -0.060593 0.229972 0.040343
vertex -0.049083 0.232001 0.045000
endloop
endfacet
facet normal -0.173648 0.984808 0.000006
outer loop
vertex -0.049083 0.232001 0.045000
vertex -0.060593 0.229972 0.040343
vertex -0.058087 0.230414 0.043149
endloop
endfacet
facet normal -0.173649 0.984808 0.000039
outer loop
vertex -0.049083 0.232001 0.045000
vertex -0.058087 0.230414 0.043149
vertex -0.052263 0.231441 0.045000
endloop
endfacet
facet normal -0.173647 0.984808 -0.000035
outer loop
vertex -0.055844 0.230809 0.045000
vertex -0.052263 0.231441 0.045000
vertex -0.058087 0.230414 0.043149
endloop
endfacet
facet normal 0.173648 -0.984808 0.000000
outer loop
vertex 0.031307 -0.235136 0.000000
vertex 0.051003 -0.231663 0.000000
vertex 0.031307 -0.235136 0.002087
endloop
endfacet
facet normal 0.173648 -0.984808 0.000000
outer loop
vertex 0.031307 -0.235136 0.002087
vertex 0.051003 -0.231663 0.000000
vertex 0.051003 -0.231663 0.002087
endloop
endfacet
facet normal 0.173648 -0.984808 0.000003
outer loop
vertex 0.031307 -0.235136 0.002087
vertex 0.051003 -0.231663 0.002087
vertex 0.054299 -0.231082 0.003861
endloop
endfacet
facet normal 0.173648 -0.984808 0.000000
outer loop
vertex 0.054299 -0.231082 0.003861
vertex 0.057293 -0.230554 0.006120
vertex 0.031307 -0.235136 0.002087
endloop
endfacet
facet normal 0.173648 -0.984808 0.000002
outer loop
vertex 0.031307 -0.235136 0.002087
vertex 0.057293 -0.230554 0.006120
vertex 0.059917 -0.230091 0.008813
endloop
endfacet
facet normal 0.173647 -0.984808 0.000002
outer loop
vertex 0.031307 -0.235136 0.002087
vertex 0.059917 -0.230091 0.008813
vertex 0.062110 -0.229704 0.011878
endloop
endfacet
facet normal 0.173648 -0.984808 0.000000
outer loop
vertex 0.062110 -0.229704 0.011878
vertex 0.063822 -0.229402 0.015243
vertex 0.031307 -0.235136 0.002087
endloop
endfacet
facet normal 0.173649 -0.984808 -0.000005
outer loop
vertex 0.031307 -0.235136 0.002087
vertex 0.063822 -0.229402 0.015243
vertex 0.065014 -0.229192 0.018833
endloop
endfacet
facet normal 0.173648 -0.984808 -0.000002
outer loop
vertex 0.031307 -0.235136 0.002087
vertex 0.065014 -0.229192 0.018833
vertex 0.065658 -0.229079 0.022564
endloop
endfacet
facet normal 0.173648 -0.984808 0.000000
outer loop
vertex 0.065658 -0.229079 0.022564
vertex 0.065739 -0.229065 0.026352
vertex 0.031307 -0.235136 0.002087
endloop
endfacet
facet normal 0.173647 -0.984808 -0.000004
outer loop
vertex 0.031307 -0.235136 0.002087
vertex 0.065739 -0.229065 0.026352
vertex 0.065255 -0.229150 0.030108
endloop
endfacet
facet normal 0.173648 -0.984808 0.000009
outer loop
vertex 0.031307 -0.235136 0.002087
vertex 0.065255 -0.229150 0.030108
vertex 0.064219 -0.229333 0.033747
endloop
endfacet
facet normal 0.173649 -0.984808 0.000000
outer loop
vertex 0.064219 -0.229333 0.033747
vertex 0.062653 -0.229609 0.037185
vertex 0.031307 -0.235136 0.002087
endloop
endfacet
facet normal 0.173648 -0.984808 0.000001
outer loop
vertex 0.031307 -0.235136 0.002087
vertex 0.062653 -0.229609 0.037185
vertex 0.060593 -0.229972 0.040343
endloop
endfacet
facet normal 0.173647 -0.984808 0.000001
outer loop
vertex 0.031307 -0.235136 0.002087
vertex 0.060593 -0.229972 0.040343
vertex 0.058087 -0.230414 0.043149
endloop
endfacet
facet normal 0.173649 -0.984808 -0.000005
outer loop
vertex 0.054896 -0.230976 0.045000
vertex 0.031307 -0.235136 0.002087
vertex 0.058087 -0.230414 0.043149
endloop
endfacet
facet normal 0.173653 -0.984807 -0.000065
outer loop
vertex 0.054896 -0.230976 0.045000
vertex 0.058087 -0.230414 0.043149
vertex 0.055844 -0.230809 0.045000
endloop
endfacet
facet normal 0.173647 -0.984808 0.000000
outer loop
vertex 0.050856 -0.231689 0.045000
vertex 0.031307 -0.235136 0.002087
vertex 0.054896 -0.230976 0.045000
endloop
endfacet
facet normal 0.173649 -0.984808 0.000000
outer loop
vertex 0.047090 -0.232353 0.045000
vertex 0.031307 -0.235136 0.002087
vertex 0.050856 -0.231689 0.045000
endloop
endfacet
facet normal 0.173650 -0.984807 0.000000
outer loop
vertex 0.038187 -0.233923 0.045000
vertex 0.017054 -0.237649 0.030108
vertex 0.042036 -0.233244 0.045000
endloop
endfacet
facet normal 0.173648 -0.984808 -0.000010
outer loop
vertex 0.017054 -0.237649 0.030108
vertex 0.016570 -0.237734 0.026352
vertex 0.043033 -0.233068 0.045000
endloop
endfacet
facet normal 0.173642 -0.984809 0.000023
outer loop
vertex 0.017054 -0.237649 0.030108
vertex 0.043033 -0.233068 0.045000
vertex 0.042036 -0.233244 0.045000
endloop
endfacet
facet normal 0.173648 -0.984808 0.000000
outer loop
vertex 0.016570 -0.237734 0.026352
vertex 0.016652 -0.237720 0.022564
vertex 0.043834 -0.232927 0.045000
endloop
endfacet
facet normal 0.173648 -0.984808 0.000023
outer loop
vertex 0.016570 -0.237734 0.026352
vertex 0.043834 -0.232927 0.045000
vertex 0.043033 -0.233068 0.045000
endloop
endfacet
facet normal 0.173647 -0.984808 0.000000
outer loop
vertex 0.026465 -0.235990 0.045000
vertex 0.024223 -0.236385 0.043149
vertex 0.030046 -0.235358 0.045000
endloop
endfacet
facet normal 0.173648 -0.984808 0.000000
outer loop
vertex 0.024223 -0.236385 0.043149
vertex 0.021717 -0.236827 0.040343
vertex 0.033226 -0.234797 0.045000
endloop
endfacet
facet normal 0.173649 -0.984808 0.000058
outer loop
vertex 0.024223 -0.236385 0.043149
vertex 0.033226 -0.234797 0.045000
vertex 0.030046 -0.235358 0.045000
endloop
endfacet
facet normal 0.173648 -0.984808 -0.000014
outer loop
vertex 0.021717 -0.236827 0.040343
vertex 0.019657 -0.237190 0.037185
vertex 0.035388 -0.234416 0.045000
endloop
endfacet
facet normal 0.173648 -0.984808 0.000034
outer loop
vertex 0.021717 -0.236827 0.040343
vertex 0.035388 -0.234416 0.045000
vertex 0.033226 -0.234797 0.045000
endloop
endfacet
facet normal 0.173647 -0.984808 0.000000
outer loop
vertex 0.019657 -0.237190 0.037185
vertex 0.018090 -0.237466 0.033747
vertex 0.036968 -0.234138 0.045000
endloop
endfacet
facet normal 0.173655 -0.984807 0.000009
outer loop
vertex 0.019657 -0.237190 0.037185
vertex 0.036968 -0.234138 0.045000
vertex 0.035388 -0.234416 0.045000
endloop
endfacet
facet normal 0.173649 -0.984808 0.000015
outer loop
vertex 0.018090 -0.237466 0.033747
vertex 0.017054 -0.237649 0.030108
vertex 0.038187 -0.233923 0.045000
endloop
endfacet
facet normal 0.173639 -0.984809 -0.000046
outer loop
vertex 0.018090 -0.237466 0.033747
vertex 0.038187 -0.233923 0.045000
vertex 0.036968 -0.234138 0.045000
endloop
endfacet
facet normal 0.173648 -0.984808 0.000000
outer loop
vertex 0.016652 -0.237720 0.022564
vertex 0.017295 -0.237606 0.018833
vertex 0.044498 -0.232810 0.045000
endloop
endfacet
facet normal 0.173660 -0.984806 -0.000017
outer loop
vertex 0.016652 -0.237720 0.022564
vertex 0.044498 -0.232810 0.045000
vertex 0.043834 -0.232927 0.045000
endloop
endfacet
facet normal 0.173647 -0.984808 0.000007
outer loop
vertex 0.017295 -0.237606 0.018833
vertex 0.018487 -0.237396 0.015243
vertex 0.045063 -0.232710 0.045000
endloop
endfacet
facet normal 0.173642 -0.984809 0.000021
outer loop
vertex 0.017295 -0.237606 0.018833
vertex 0.045063 -0.232710 0.045000
vertex 0.044498 -0.232810 0.045000
endloop
endfacet
facet normal 0.173648 -0.984808 -0.000006
outer loop
vertex 0.018487 -0.237396 0.015243
vertex 0.020199 -0.237094 0.011878
vertex 0.045555 -0.232623 0.045000
endloop
endfacet
facet normal 0.173645 -0.984808 -0.000033
outer loop
vertex 0.018487 -0.237396 0.015243
vertex 0.045555 -0.232623 0.045000
vertex 0.045063 -0.232710 0.045000
endloop
endfacet
facet normal 0.173650 -0.984807 0.000000
outer loop
vertex 0.020199 -0.237094 0.011878
vertex 0.022392 -0.236708 0.008813
vertex 0.045992 -0.232546 0.045000
endloop
endfacet
facet normal 0.173636 -0.984810 -0.000022
outer loop
vertex 0.020199 -0.237094 0.011878
vertex 0.045992 -0.232546 0.045000
vertex 0.045555 -0.232623 0.045000
endloop
endfacet
facet normal 0.173648 -0.984808 0.000000
outer loop
vertex 0.022392 -0.236708 0.008813
vertex 0.025016 -0.236245 0.006120
vertex 0.046388 -0.232477 0.045000
endloop
endfacet
facet normal 0.173669 -0.984804 -0.000013
outer loop
vertex 0.022392 -0.236708 0.008813
vertex 0.046388 -0.232477 0.045000
vertex 0.045992 -0.232546 0.045000
endloop
endfacet
facet normal 0.173649 -0.984808 0.000000
outer loop
vertex 0.025016 -0.236245 0.006120
vertex 0.028010 -0.235717 0.003861
vertex 0.046751 -0.232413 0.045000
endloop
endfacet
facet normal 0.173622 -0.984812 0.000029
outer loop
vertex 0.025016 -0.236245 0.006120
vertex 0.046751 -0.232413 0.045000
vertex 0.046388 -0.232477 0.045000
endloop
endfacet
facet normal 0.173648 -0.984808 0.000003
outer loop
vertex 0.028010 -0.235717 0.003861
vertex 0.031307 -0.235136 0.002087
vertex 0.047090 -0.232353 0.045000
endloop
endfacet
facet normal 0.173657 -0.984806 -0.000038
outer loop
vertex 0.028010 -0.235717 0.003861
vertex 0.047090 -0.232353 0.045000
vertex 0.046751 -0.232413 0.045000
endloop
endfacet
facet normal 0.000000 0.000000 1.000000
outer loop
vertex 0.054896 -0.230976 0.045000
vertex 0.055844 -0.230809 0.045000
vertex 0.050788 -0.201906 0.045000
endloop
endfacet
facet normal 1.000000 0.000000 0.000000
outer loop
vertex 0.042088 -0.153016 0.045000
vertex 0.033863 -0.106367 0.045000
vertex 0.028370 -0.075216 0.045000
endloop
endfacet
facet normal 0.000000 0.000000 1.000000
outer loop
vertex 0.054896 -0.230976 0.045000
vertex 0.050788 -0.201906 0.045000
vertex 0.042088 -0.153016 0.045000
endloop
endfacet
facet normal 0.000000 0.000000 1.000000
outer loop
vertex 0.050856 -0.231689 0.045000
vertex 0.054896 -0.230976 0.045000
vertex 0.042088 -0.153016 0.045000
endloop
endfacet
facet normal -0.976900 0.000000 0.213697
outer loop
vertex 0.028370 -0.075216 0.045000
vertex 0.020145 -0.028567 0.045000
vertex 0.014652 0.002584 0.045000
endloop
endfacet
facet normal 0.000001 0.000000 1.000000
outer loop
vertex 0.050856 -0.231689 0.045000
vertex 0.042088 -0.153016 0.045000
vertex 0.028370 -0.075216 0.045000
endloop
endfacet
facet normal 0.000000 0.000000 1.000000
outer loop
vertex 0.046388 -0.232477 0.045000
vertex 0.046751 -0.232413 0.045000
vertex 0.047090 -0.232353 0.045000
endloop
endfacet
facet normal -0.000002 0.000000 1.000000
outer loop
vertex 0.047090 -0.232353 0.045000
vertex 0.050856 -0.231689 0.045000
vertex 0.028370 -0.075216 0.045000
endloop
endfacet
facet normal 0.000001 0.000000 1.000000
outer loop
vertex 0.047090 -0.232353 0.045000
vertex 0.028370 -0.075216 0.045000
vertex 0.014652 0.002584 0.045000
endloop
endfacet
facet normal -0.031235 0.000000 0.999512
outer loop
vertex 0.045555 -0.232623 0.045000
vertex 0.045992 -0.232546 0.045000
vertex 0.046388 -0.232477 0.045000
endloop
endfacet
facet normal 0.000000 0.000000 1.000000
outer loop
vertex 0.046388 -0.232477 0.045000
vertex 0.047090 -0.232353 0.045000
vertex 0.014652 0.002584 0.045000
endloop
endfacet
facet normal 0.000000 0.000000 1.000000
outer loop
vertex 0.006426 0.049233 0.045000
vertex 0.000934 0.080383 0.045000
vertex -0.007292 0.127033 0.045000
endloop
endfacet
facet normal -0.000003 0.000000 1.000000
outer loop
vertex 0.046388 -0.232477 0.045000
vertex 0.014652 0.002584 0.045000
vertex 0.006426 0.049233 0.045000
endloop
endfacet
facet normal 0.015623 0.000000 -0.999878
outer loop
vertex 0.045063 -0.232710 0.045000
vertex 0.045555 -0.232623 0.045000
vertex 0.046388 -0.232477 0.045000
endloop
endfacet
facet normal 0.000000 0.000000 -1.000000
outer loop
vertex 0.043033 -0.233068 0.045000
vertex 0.043834 -0.232927 0.045000
vertex 0.044498 -0.232810 0.045000
endloop
endfacet
facet normal -1.000000 0.000000 0.000000
outer loop
vertex 0.044498 -0.232810 0.045000
vertex 0.045063 -0.232710 0.045000
vertex 0.046388 -0.232477 0.045000
endloop
endfacet
facet normal 0.000002 0.000000 1.000000
outer loop
vertex 0.046388 -0.232477 0.045000
vertex 0.006426 0.049233 0.045000
vertex -0.007292 0.127033 0.045000
endloop
endfacet
facet normal -0.000055 0.000000 1.000000
outer loop
vertex -0.012784 0.158183 0.045000
vertex -0.021331 0.207101 0.045000
vertex -0.026465 0.235990 0.045000
endloop
endfacet
facet normal -0.000008 0.000000 1.000000
outer loop
vertex 0.046388 -0.232477 0.045000
vertex -0.007292 0.127033 0.045000
vertex -0.012784 0.158183 0.045000
endloop
endfacet
facet normal 0.000000 0.000000 1.000000
outer loop
vertex 0.042036 -0.233244 0.045000
vertex 0.043033 -0.233068 0.045000
vertex 0.044498 -0.232810 0.045000
endloop
endfacet
facet normal 0.000005 0.000000 1.000000
outer loop
vertex 0.044498 -0.232810 0.045000
vertex 0.046388 -0.232477 0.045000
vertex -0.012784 0.158183 0.045000
endloop
endfacet
facet normal 0.000000 0.000000 1.000000
outer loop
vertex -0.012784 0.158183 0.045000
vertex -0.026465 0.235990 0.045000
vertex -0.027414 0.235822 0.045000
endloop
endfacet
facet normal 0.062378 0.000000 -0.998053
outer loop
vertex -0.027414 0.235822 0.045000
vertex -0.031454 0.235110 0.045000
vertex -0.035219 0.234446 0.045000
endloop
endfacet
facet normal 0.000000 0.000000 0.000000
outer loop
vertex -0.035558 0.234386 0.045000
vertex -0.035921 0.234322 0.045000
vertex -0.036317 0.234252 0.045000
endloop
endfacet
facet normal 0.013888 0.000000 0.999904
outer loop
vertex -0.027414 0.235822 0.045000
vertex -0.035219 0.234446 0.045000
vertex -0.035558 0.234386 0.045000
endloop
endfacet
facet normal -0.000002 0.000000 1.000000
outer loop
vertex 0.044498 -0.232810 0.045000
vertex -0.012784 0.158183 0.045000
vertex -0.027414 0.235822 0.045000
endloop
endfacet
facet normal 0.000000 0.000000 1.000000
outer loop
vertex 0.036968 -0.234138 0.045000
vertex 0.038187 -0.233923 0.045000
vertex 0.042036 -0.233244 0.045000
endloop
endfacet
facet normal 0.000000 0.000000 1.000000
outer loop
vertex 0.042036 -0.233244 0.045000
vertex 0.044498 -0.232810 0.045000
vertex -0.027414 0.235822 0.045000
endloop
endfacet
facet normal 0.000001 0.000000 1.000000
outer loop
vertex 0.042036 -0.233244 0.045000
vertex -0.027414 0.235822 0.045000
vertex -0.035558 0.234386 0.045000
endloop
endfacet
facet normal 0.000000 0.000000 1.000000
outer loop
vertex 0.033226 -0.234797 0.045000
vertex 0.035388 -0.234416 0.045000
vertex 0.036968 -0.234138 0.045000
endloop
endfacet
facet normal -0.000002 0.000000 1.000000
outer loop
vertex 0.036968 -0.234138 0.045000
vertex 0.042036 -0.233244 0.045000
vertex -0.035558 0.234386 0.045000
endloop
endfacet
facet normal 0.000000 0.000000 0.000000
outer loop
vertex -0.036317 0.234252 0.045000
vertex -0.036754 0.234175 0.045000
vertex -0.037246 0.234089 0.045000
endloop
endfacet
facet normal 0.000011 0.000000 1.000000
outer loop
vertex 0.036968 -0.234138 0.045000
vertex -0.035558 0.234386 0.045000
vertex -0.036317 0.234252 0.045000
endloop
endfacet
facet normal -0.015623 0.000000 -0.999878
outer loop
vertex 0.030046 -0.235358 0.045000
vertex 0.033226 -0.234797 0.045000
vertex 0.036968 -0.234138 0.045000
endloop
endfacet
facet normal 0.000001 0.000000 1.000000
outer loop
vertex 0.021331 -0.207100 0.045000
vertex 0.026465 -0.235990 0.045000
vertex 0.030046 -0.235358 0.045000
endloop
endfacet
facet normal 0.000000 0.000000 1.000000
outer loop
vertex 0.012784 -0.158183 0.045000
vertex 0.021331 -0.207100 0.045000
vertex 0.030046 -0.235358 0.045000
endloop
endfacet
facet normal 0.000000 0.000000 1.000000
outer loop
vertex 0.030046 -0.235358 0.045000
vertex 0.036968 -0.234138 0.045000
vertex -0.036317 0.234252 0.045000
endloop
endfacet
facet normal 0.000000 0.000000 0.000000
outer loop
vertex -0.036317 0.234252 0.045000
vertex -0.037246 0.234089 0.045000
vertex -0.037812 0.233989 0.045000
endloop
endfacet
facet normal -1.000000 0.000000 0.000000
outer loop
vertex -0.036317 0.234252 0.045000
vertex -0.037812 0.233989 0.045000
vertex -0.038475 0.233872 0.045000
endloop
endfacet
facet normal 0.000000 0.000000 1.000000
outer loop
vertex 0.012784 -0.158183 0.045000
vertex 0.030046 -0.235358 0.045000
vertex -0.036317 0.234252 0.045000
endloop
endfacet
facet normal 0.000000 0.000000 0.000000
outer loop
vertex -0.006426 -0.049233 0.045000
vertex -0.000934 -0.080383 0.045000
vertex 0.007292 -0.127032 0.045000
endloop
endfacet
facet normal 0.000006 0.000000 1.000000
outer loop
vertex 0.007292 -0.127032 0.045000
vertex 0.012784 -0.158183 0.045000
vertex -0.036317 0.234252 0.045000
endloop
endfacet
facet normal -0.000001 0.000000 1.000000
outer loop
vertex 0.007292 -0.127032 0.045000
vertex -0.036317 0.234252 0.045000
vertex -0.038475 0.233872 0.045000
endloop
endfacet
facet normal 0.000000 0.000000 1.000000
outer loop
vertex -0.006426 -0.049233 0.045000
vertex 0.007292 -0.127032 0.045000
vertex -0.038475 0.233872 0.045000
endloop
endfacet
facet normal 0.000000 0.000000 0.000000
outer loop
vertex -0.039276 0.233731 0.045000
vertex -0.040273 0.233555 0.045000
vertex -0.044123 0.232876 0.045000
endloop
endfacet
facet normal -0.000004 0.000000 1.000000
outer loop
vertex -0.006426 -0.049233 0.045000
vertex -0.038475 0.233872 0.045000
vertex -0.039276 0.233731 0.045000
endloop
endfacet
facet normal 0.988012 0.000000 0.154377
outer loop
vertex -0.028370 0.075216 0.045000
vertex -0.020145 0.028567 0.045000
vertex -0.014652 -0.002584 0.045000
endloop
endfacet
facet normal 0.000002 0.000000 1.000000
outer loop
vertex -0.014652 -0.002584 0.045000
vertex -0.006426 -0.049233 0.045000
vertex -0.039276 0.233731 0.045000
endloop
endfacet
facet normal 0.015623 0.000000 0.999878
outer loop
vertex -0.039276 0.233731 0.045000
vertex -0.044123 0.232876 0.045000
vertex -0.045341 0.232661 0.045000
endloop
endfacet
facet normal 0.031235 0.000000 0.999512
outer loop
vertex -0.045341 0.232661 0.045000
vertex -0.046921 0.232383 0.045000
vertex -0.049083 0.232001 0.045000
endloop
endfacet
facet normal 0.000000 0.000000 1.000000
outer loop
vertex -0.052263 0.231441 0.045000
vertex -0.055844 0.230809 0.045000
vertex -0.050788 0.201906 0.045000
endloop
endfacet
facet normal 0.000000 0.000000 -1.000000
outer loop
vertex -0.045341 0.232661 0.045000
vertex -0.049083 0.232001 0.045000
vertex -0.052263 0.231441 0.045000
endloop
endfacet
facet normal -0.000001 0.000000 1.000000
outer loop
vertex -0.014652 -0.002584 0.045000
vertex -0.039276 0.233731 0.045000
vertex -0.045341 0.232661 0.045000
endloop
endfacet
facet normal -0.894427 0.000000 0.447214
outer loop
vertex -0.042088 0.153016 0.045000
vertex -0.033863 0.106367 0.045000
vertex -0.028370 0.075216 0.045000
endloop
endfacet
facet normal 0.000000 0.000000 1.000000
outer loop
vertex -0.028370 0.075216 0.045000
vertex -0.014652 -0.002584 0.045000
vertex -0.045341 0.232661 0.045000
endloop
endfacet
facet normal 0.000001 0.000000 1.000000
outer loop
vertex -0.045341 0.232661 0.045000
vertex -0.052263 0.231441 0.045000
vertex -0.050788 0.201906 0.045000
endloop
endfacet
facet normal 0.000000 0.000000 1.000000
outer loop
vertex -0.042088 0.153016 0.045000
vertex -0.028370 0.075216 0.045000
vertex -0.045341 0.232661 0.045000
endloop
endfacet
facet normal 0.000000 0.000000 1.000000
outer loop
vertex -0.045341 0.232661 0.045000
vertex -0.050788 0.201906 0.045000
vertex -0.042088 0.153016 0.045000
endloop
endfacet
solid cylinder
