solid inlet
facet normal 1.000000 0.000000 0.000000
outer loop
vertex -2.000000 -0.395000 0.200000
vertex -2.000000 -0.395000 0.000000
vertex -2.000000 0.395000 0.000000
endloop
endfacet
facet normal 1.000000 0.000000 0.000000
outer loop
vertex -2.000000 -0.395000 0.200000
vertex -2.000000 0.395000 0.000000
vertex -2.000000 0.395000 0.200000
endloop
endfacet
endsolid inlet
solid frontAndBack
facet normal 0.000000 -1.000000 0.000000
outer loop
vertex -2.000000 0.395000 0.000000
vertex 3.000000 0.395000 0.000000
vertex 3.000000 0.395000 0.200000
endloop
endfacet
facet normal 0.000000 -1.000000 0.000000
outer loop
vertex -2.000000 0.395000 0.000000
vertex 3.000000 0.395000 0.200000
vertex -2.000000 0.395000 0.200000
endloop
endfacet
facet normal 0.000000 -1.000000 0.000000
outer loop
vertex -2.000000 -0.395000 -0.000000
vertex 3.000000 -0.395000 -0.000000
vertex 3.000000 -0.395000 0.200000
endloop
endfacet
facet normal 0.000000 -1.000000 0.000000
outer loop
vertex -2.000000 -0.395000 -0.000000
vertex 3.000000 -0.395000 0.200000
vertex -2.000000 -0.395000 0.200000
endloop
endfacet
endsolid frontAndBack
solid bottom
facet normal 0.000000 0.000000 1.000000
outer loop
vertex -2.000000 -0.395000 0.000000
vertex 3.000000 -0.395000 0.000000
vertex 3.000000 0.395000 0.000000
endloop
endfacet
facet normal 0.000000 0.000000 1.000000
outer loop
vertex -2.000000 -0.395000 0.000000
vertex 3.000000 0.395000 0.000000
vertex -2.000000 0.395000 0.000000
endloop
endfacet
endsolid bottom
solid top
facet normal 0.000000 0.000000 1.000000
outer loop
vertex -2.000000 -0.395000 0.200000
vertex 3.000000 -0.395000 0.200000
vertex 3.000000 0.395000 0.200000
endloop
endfacet
facet normal 0.000000 0.000000 1.000000
outer loop
vertex -2.000000 -0.395000 0.200000
vertex 3.000000 0.395000 0.200000
vertex -2.000000 0.395000 0.200000
endloop
endfacet
endsolid top
solid outletAir
facet normal 1.000000 0.000000 0.000000
outer loop
vertex 3.000000 -0.395000 0.200000
vertex 3.000000 -0.395000 0.090000
vertex 3.000000 0.395000 0.090000
endloop
endfacet
facet normal 1.000000 0.000000 0.000000
outer loop
vertex 3.000000 -0.395000 0.200000
vertex 3.000000 0.395000 0.090000
vertex 3.000000 0.395000 0.200000
endloop
endfacet
endsolid outletAir
solid outletWater
facet normal 1.000000 0.000000 0.000000
outer loop
vertex 3.000000 -0.395000 0.090000
vertex 3.000000 -0.395000 0.000000
vertex 3.000000 0.395000 0.000000
endloop
endfacet
facet normal 1.000000 0.000000 0.000000
outer loop
vertex 3.000000 -0.395000 0.090000
vertex 3.000000 0.395000 0.000000
vertex 3.000000 0.395000 0.090000
endloop
endfacet
endsolid outletWater
solid obstacle
facet normal -0.000000 0.000000 -1.000000
outer loop
vertex -0.104652 -0.118794 -0.000000
vertex -0.118794 -0.104652 -0.000000
vertex 0.118794 0.104652 -0.000000
endloop
endfacet
facet normal 0.000000 0.000000 -1.000000
outer loop
vertex 0.118794 0.104652 -0.000000
vertex -0.118794 -0.104652 -0.000000
vertex 0.104652 0.118794 -0.000000
endloop
endfacet
facet normal 0.707107 -0.707107 0.000000
outer loop
vertex -0.104652 -0.118794 0.002087
vertex -0.104652 -0.118794 -0.000000
vertex 0.118794 0.104652 0.002087
endloop
endfacet
facet normal 0.707107 -0.707107 0.000000
outer loop
vertex 0.118794 0.104652 0.002087
vertex -0.104652 -0.118794 -0.000000
vertex 0.118794 0.104652 -0.000000
endloop
endfacet
facet normal -0.323391 0.323391 -0.889289
outer loop
vertex -0.120789 -0.102657 0.003538
vertex -0.076100 -0.057968 0.003538
vertex -0.118794 -0.104652 0.002087
endloop
endfacet
facet normal -0.323393 0.323393 -0.889288
outer loop
vertex -0.118794 -0.104652 0.002087
vertex -0.076100 -0.057968 0.003538
vertex -0.031411 -0.013279 0.003538
endloop
endfacet
facet normal -0.323393 0.323393 -0.889288
outer loop
vertex -0.118794 -0.104652 0.002087
vertex -0.031411 -0.013279 0.003538
vertex 0.013279 0.031411 0.003538
endloop
endfacet
facet normal -0.400422 0.400422 -0.824212
outer loop
vertex 0.013279 0.031411 0.003538
vertex -0.031411 -0.013279 0.003538
vertex 0.011430 0.033259 0.005334
endloop
endfacet
facet normal -0.400422 0.400422 -0.824211
outer loop
vertex 0.013279 0.031411 0.003538
vertex 0.011430 0.033259 0.005334
vertex 0.056119 0.077949 0.005334
endloop
endfacet
facet normal -0.471005 0.471004 -0.745861
outer loop
vertex 0.056119 0.077949 0.005334
vertex 0.011430 0.033259 0.005334
vertex 0.054446 0.079622 0.007448
endloop
endfacet
facet normal -0.471005 0.471005 -0.745862
outer loop
vertex 0.056119 0.077949 0.005334
vertex 0.054446 0.079622 0.007448
vertex 0.099135 0.124311 0.007448
endloop
endfacet
facet normal -0.534002 0.534002 -0.655503
outer loop
vertex 0.099135 0.124311 0.007448
vertex 0.054446 0.079622 0.007448
vertex 0.097664 0.125781 0.009843
endloop
endfacet
facet normal -0.534002 0.534003 -0.655502
outer loop
vertex 0.097664 0.125781 0.009843
vertex 0.054446 0.079622 0.007448
vertex 0.052975 0.081092 0.009843
endloop
endfacet
facet normal -0.588400 0.588400 -0.554591
outer loop
vertex 0.097664 0.125781 0.009843
vertex 0.052975 0.081092 0.009843
vertex 0.096420 0.127025 0.012483
endloop
endfacet
facet normal -0.588402 0.588402 -0.554586
outer loop
vertex 0.096420 0.127025 0.012483
vertex 0.052975 0.081092 0.009843
vertex 0.051731 0.082336 0.012483
endloop
endfacet
facet normal -0.633324 0.633324 -0.444748
outer loop
vertex 0.096420 0.127025 0.012483
vertex 0.051731 0.082336 0.012483
vertex 0.095423 0.128023 0.015324
endloop
endfacet
facet normal -0.633326 0.633325 -0.444744
outer loop
vertex 0.095423 0.128023 0.015324
vertex 0.051731 0.082336 0.012483
vertex 0.050734 0.083334 0.015324
endloop
endfacet
facet normal -0.668053 0.668054 -0.327734
outer loop
vertex 0.095423 0.128023 0.015324
vertex 0.050734 0.083334 0.015324
vertex 0.094688 0.128758 0.018322
endloop
endfacet
facet normal -0.668053 0.668052 -0.327737
outer loop
vertex 0.094688 0.128758 0.018322
vertex 0.050734 0.083334 0.015324
vertex 0.049998 0.084069 0.018322
endloop
endfacet
facet normal -0.692021 0.692021 -0.205459
outer loop
vertex 0.094688 0.128758 0.018322
vertex 0.049998 0.084069 0.018322
vertex 0.094227 0.129219 0.021426
endloop
endfacet
facet normal -0.692022 0.692022 -0.205452
outer loop
vertex 0.094227 0.129219 0.021426
vertex 0.049998 0.084069 0.018322
vertex 0.049537 0.084530 0.021426
endloop
endfacet
facet normal -0.704848 0.704848 -0.079864
outer loop
vertex 0.094227 0.129219 0.021426
vertex 0.049537 0.084530 0.021426
vertex 0.094047 0.129398 0.024589
endloop
endfacet
facet normal -0.704848 0.704849 -0.079857
outer loop
vertex 0.094047 0.129398 0.024589
vertex 0.049537 0.084530 0.021426
vertex 0.049358 0.084709 0.024589
endloop
endfacet
facet normal -0.706325 0.706325 0.047009
outer loop
vertex 0.094047 0.129398 0.024589
vertex 0.049358 0.084709 0.024589
vertex 0.094153 0.129293 0.027757
endloop
endfacet
facet normal -0.706325 0.706325 0.047014
outer loop
vertex 0.094153 0.129293 0.027757
vertex 0.049358 0.084709 0.024589
vertex 0.049464 0.084604 0.027757
endloop
endfacet
facet normal -0.696428 0.696428 0.173138
outer loop
vertex 0.094153 0.129293 0.027757
vertex 0.049464 0.084604 0.027757
vertex 0.094541 0.128904 0.030882
endloop
endfacet
facet normal -0.696428 0.696428 0.173135
outer loop
vertex 0.094541 0.128904 0.030882
vertex 0.049464 0.084604 0.027757
vertex 0.049852 0.084215 0.030882
endloop
endfacet
facet normal -0.675317 0.675316 0.296471
outer loop
vertex 0.094541 0.128904 0.030882
vertex 0.049852 0.084215 0.030882
vertex 0.095206 0.128239 0.033912
endloop
endfacet
facet normal -0.675317 0.675317 0.296469
outer loop
vertex 0.095206 0.128239 0.033912
vertex 0.049852 0.084215 0.030882
vertex 0.050517 0.083550 0.033912
endloop
endfacet
facet normal -0.643331 0.643332 0.415029
outer loop
vertex 0.095206 0.128239 0.033912
vertex 0.050517 0.083550 0.033912
vertex 0.096137 0.127308 0.036798
endloop
endfacet
facet normal -0.643331 0.643331 0.415030
outer loop
vertex 0.096137 0.127308 0.036798
vertex 0.050517 0.083550 0.033912
vertex 0.051448 0.082619 0.036798
endloop
endfacet
facet normal -0.600989 0.600987 0.526903
outer loop
vertex 0.096137 0.127308 0.036798
vertex 0.051448 0.082619 0.036798
vertex 0.097319 0.126126 0.039494
endloop
endfacet
facet normal -0.600986 0.600988 0.526905
outer loop
vertex 0.097319 0.126126 0.039494
vertex 0.051448 0.082619 0.036798
vertex 0.052630 0.081437 0.039494
endloop
endfacet
facet normal -0.548967 0.548966 0.630295
outer loop
vertex 0.097319 0.126126 0.039494
vertex 0.052630 0.081437 0.039494
vertex 0.098733 0.124712 0.041957
endloop
endfacet
facet normal -0.548966 0.548966 0.630296
outer loop
vertex 0.098733 0.124712 0.041957
vertex 0.052630 0.081437 0.039494
vertex 0.054044 0.080023 0.041957
endloop
endfacet
facet normal -0.488104 0.488104 0.723539
outer loop
vertex 0.098733 0.124712 0.041957
vertex 0.054044 0.080023 0.041957
vertex 0.100356 0.123089 0.044147
endloop
endfacet
facet normal -0.488104 0.488106 0.723538
outer loop
vertex 0.100356 0.123089 0.044147
vertex 0.054044 0.080023 0.041957
vertex 0.055667 0.078400 0.044147
endloop
endfacet
facet normal -0.419384 0.419382 0.805131
outer loop
vertex 0.100356 0.123089 0.044147
vertex 0.055667 0.078400 0.044147
vertex 0.102162 0.121283 0.046028
endloop
endfacet
facet normal -0.419383 0.419384 0.805130
outer loop
vertex 0.102162 0.121283 0.046028
vertex 0.055667 0.078400 0.044147
vertex 0.057473 0.076594 0.046028
endloop
endfacet
facet normal -0.343913 0.343910 0.873756
outer loop
vertex 0.102162 0.121283 0.046028
vertex 0.057473 0.076594 0.046028
vertex 0.104122 0.119323 0.047571
endloop
endfacet
facet normal -0.343909 0.343911 0.873757
outer loop
vertex 0.104122 0.119323 0.047571
vertex 0.057473 0.076594 0.046028
vertex 0.059433 0.074634 0.047571
endloop
endfacet
facet normal -0.262897 0.262898 0.928315
outer loop
vertex 0.104122 0.119323 0.047571
vertex 0.059433 0.074634 0.047571
vertex 0.106205 0.117241 0.048751
endloop
endfacet
facet normal -0.262898 0.262897 0.928316
outer loop
vertex 0.106205 0.117241 0.048751
vertex 0.059433 0.074634 0.047571
vertex 0.061516 0.072552 0.048751
endloop
endfacet
facet normal -0.177654 0.177654 0.967925
outer loop
vertex 0.106205 0.117241 0.048751
vertex 0.061516 0.072552 0.048751
vertex 0.108376 0.115070 0.049548
endloop
endfacet
facet normal -0.177652 0.177652 0.967925
outer loop
vertex 0.108376 0.115070 0.049548
vertex 0.061516 0.072552 0.048751
vertex 0.063687 0.070381 0.049548
endloop
endfacet
facet normal -0.089547 0.089548 0.991949
outer loop
vertex 0.108376 0.115070 0.049548
vertex 0.063687 0.070381 0.049548
vertex 0.110601 0.112845 0.049950
endloop
endfacet
facet normal -0.089548 0.089548 0.991949
outer loop
vertex 0.110601 0.112845 0.049950
vertex 0.063687 0.070381 0.049548
vertex 0.065912 0.068155 0.049950
endloop
endfacet
facet normal -0.000002 0.000000 1.000000
outer loop
vertex 0.110601 0.112845 0.049950
vertex 0.065912 0.068155 0.049950
vertex 0.112844 0.110601 0.049950
endloop
endfacet
facet normal 0.000001 0.000000 1.000000
outer loop
vertex 0.112844 0.110601 0.049950
vertex 0.065912 0.068155 0.049950
vertex 0.068155 0.065912 0.049950
endloop
endfacet
facet normal 0.089549 -0.089548 0.991949
outer loop
vertex 0.112844 0.110601 0.049950
vertex 0.068155 0.065912 0.049950
vertex 0.115070 0.108376 0.049548
endloop
endfacet
facet normal 0.089547 -0.089548 0.991949
outer loop
vertex 0.115070 0.108376 0.049548
vertex 0.068155 0.065912 0.049950
vertex 0.070380 0.063687 0.049548
endloop
endfacet
facet normal 0.177654 -0.177654 0.967925
outer loop
vertex 0.115070 0.108376 0.049548
vertex 0.070380 0.063687 0.049548
vertex 0.117241 0.106205 0.048751
endloop
endfacet
facet normal 0.177653 -0.177653 0.967925
outer loop
vertex 0.117241 0.106205 0.048751
vertex 0.070380 0.063687 0.049548
vertex 0.072552 0.061516 0.048751
endloop
endfacet
facet normal 0.262898 -0.262897 0.928315
outer loop
vertex 0.117241 0.106205 0.048751
vertex 0.072552 0.061516 0.048751
vertex 0.119323 0.104122 0.047571
endloop
endfacet
facet normal 0.262897 -0.262898 0.928315
outer loop
vertex 0.119323 0.104122 0.047571
vertex 0.072552 0.061516 0.048751
vertex 0.074634 0.059433 0.047571
endloop
endfacet
facet normal 0.343908 -0.343910 0.873758
outer loop
vertex 0.119323 0.104122 0.047571
vertex 0.074634 0.059433 0.047571
vertex 0.121283 0.102162 0.046028
endloop
endfacet
facet normal 0.343910 -0.343909 0.873757
outer loop
vertex 0.121283 0.102162 0.046028
vertex 0.074634 0.059433 0.047571
vertex 0.076594 0.057473 0.046028
endloop
endfacet
facet normal 0.419385 -0.419384 0.805129
outer loop
vertex 0.121283 0.102162 0.046028
vertex 0.076594 0.057473 0.046028
vertex 0.123089 0.100356 0.044147
endloop
endfacet
facet normal 0.419384 -0.419383 0.805131
outer loop
vertex 0.123089 0.100356 0.044147
vertex 0.076594 0.057473 0.046028
vertex 0.078400 0.055667 0.044147
endloop
endfacet
facet normal 0.488104 -0.488105 0.723538
outer loop
vertex 0.123089 0.100356 0.044147
vertex 0.078400 0.055667 0.044147
vertex 0.124712 0.098733 0.041957
endloop
endfacet
facet normal 0.488106 -0.488105 0.723537
outer loop
vertex 0.124712 0.098733 0.041957
vertex 0.078400 0.055667 0.044147
vertex 0.080023 0.054044 0.041957
endloop
endfacet
facet normal 0.548964 -0.548965 0.630298
outer loop
vertex 0.124712 0.098733 0.041957
vertex 0.080023 0.054044 0.041957
vertex 0.126126 0.097319 0.039494
endloop
endfacet
facet normal 0.548966 -0.548966 0.630296
outer loop
vertex 0.126126 0.097319 0.039494
vertex 0.080023 0.054044 0.041957
vertex 0.081437 0.052630 0.039494
endloop
endfacet
facet normal 0.600987 -0.600988 0.526903
outer loop
vertex 0.126126 0.097319 0.039494
vertex 0.081437 0.052630 0.039494
vertex 0.127308 0.096138 0.036798
endloop
endfacet
facet normal 0.600988 -0.600987 0.526903
outer loop
vertex 0.127308 0.096138 0.036798
vertex 0.081437 0.052630 0.039494
vertex 0.082619 0.051448 0.036798
endloop
endfacet
facet normal 0.643331 -0.643331 0.415031
outer loop
vertex 0.127308 0.096138 0.036798
vertex 0.082619 0.051448 0.036798
vertex 0.128239 0.095207 0.033912
endloop
endfacet
facet normal 0.643331 -0.643332 0.415029
outer loop
vertex 0.128239 0.095207 0.033912
vertex 0.082619 0.051448 0.036798
vertex 0.083550 0.050517 0.033912
endloop
endfacet
facet normal 0.675316 -0.675317 0.296471
outer loop
vertex 0.128239 0.095207 0.033912
vertex 0.083550 0.050517 0.033912
vertex 0.128904 0.094541 0.030882
endloop
endfacet
facet normal 0.675317 -0.675317 0.296469
outer loop
vertex 0.128904 0.094541 0.030882
vertex 0.083550 0.050517 0.033912
vertex 0.084215 0.049852 0.030882
endloop
endfacet
facet normal 0.696427 -0.696429 0.173136
outer loop
vertex 0.128904 0.094541 0.030882
vertex 0.084215 0.049852 0.030882
vertex 0.129293 0.094153 0.027757
endloop
endfacet
facet normal 0.696429 -0.696427 0.173134
outer loop
vertex 0.129293 0.094153 0.027757
vertex 0.084215 0.049852 0.030882
vertex 0.084603 0.049464 0.027757
endloop
endfacet
facet normal 0.706324 -0.706325 0.047016
outer loop
vertex 0.129293 0.094153 0.027757
vertex 0.084603 0.049464 0.027757
vertex 0.129398 0.094048 0.024589
endloop
endfacet
facet normal 0.706325 -0.706324 0.047015
outer loop
vertex 0.129398 0.094048 0.024589
vertex 0.084603 0.049464 0.027757
vertex 0.084709 0.049358 0.024589
endloop
endfacet
facet normal 0.704848 -0.704849 -0.079859
outer loop
vertex 0.129398 0.094048 0.024589
vertex 0.084709 0.049358 0.024589
vertex 0.129219 0.094227 0.021426
endloop
endfacet
facet normal 0.704849 -0.704848 -0.079860
outer loop
vertex 0.129219 0.094227 0.021426
vertex 0.084709 0.049358 0.024589
vertex 0.084530 0.049538 0.021426
endloop
endfacet
facet normal 0.692021 -0.692021 -0.205459
outer loop
vertex 0.129219 0.094227 0.021426
vertex 0.084530 0.049538 0.021426
vertex 0.128758 0.094688 0.018322
endloop
endfacet
facet normal 0.692023 -0.692022 -0.205451
outer loop
vertex 0.128758 0.094688 0.018322
vertex 0.084530 0.049538 0.021426
vertex 0.084069 0.049999 0.018322
endloop
endfacet
facet normal 0.668052 -0.668052 -0.327738
outer loop
vertex 0.128758 0.094688 0.018322
vertex 0.084069 0.049999 0.018322
vertex 0.128023 0.095423 0.015324
endloop
endfacet
facet normal 0.668052 -0.668053 -0.327738
outer loop
vertex 0.128023 0.095423 0.015324
vertex 0.084069 0.049999 0.018322
vertex 0.083334 0.050734 0.015324
endloop
endfacet
facet normal 0.633326 -0.633326 -0.444744
outer loop
vertex 0.128023 0.095423 0.015324
vertex 0.083334 0.050734 0.015324
vertex 0.127025 0.096420 0.012483
endloop
endfacet
facet normal 0.633325 -0.633325 -0.444745
outer loop
vertex 0.127025 0.096420 0.012483
vertex 0.083334 0.050734 0.015324
vertex 0.082336 0.051731 0.012483
endloop
endfacet
facet normal 0.588402 -0.588402 -0.554586
outer loop
vertex 0.127025 0.096420 0.012483
vertex 0.082336 0.051731 0.012483
vertex 0.125781 0.097665 0.009843
endloop
endfacet
facet normal 0.588401 -0.588401 -0.554588
outer loop
vertex 0.125781 0.097665 0.009843
vertex 0.082336 0.051731 0.012483
vertex 0.081092 0.052975 0.009843
endloop
endfacet
facet normal 0.534001 -0.534001 -0.655505
outer loop
vertex 0.125781 0.097665 0.009843
vertex 0.081092 0.052975 0.009843
vertex 0.124311 0.099135 0.007448
endloop
endfacet
facet normal 0.534003 -0.534004 -0.655500
outer loop
vertex 0.124311 0.099135 0.007448
vertex 0.081092 0.052975 0.009843
vertex 0.079622 0.054446 0.007448
endloop
endfacet
facet normal 0.471005 -0.471005 -0.745861
outer loop
vertex 0.124311 0.099135 0.007448
vertex 0.079622 0.054446 0.007448
vertex 0.122638 0.100808 0.005334
endloop
endfacet
facet normal 0.471003 -0.471003 -0.745863
outer loop
vertex 0.122638 0.100808 0.005334
vertex 0.079622 0.054446 0.007448
vertex 0.077948 0.056119 0.005334
endloop
endfacet
facet normal 0.400421 -0.400422 -0.824212
outer loop
vertex 0.122638 0.100808 0.005334
vertex 0.077948 0.056119 0.005334
vertex 0.120789 0.102657 0.003538
endloop
endfacet
facet normal 0.400421 -0.400421 -0.824213
outer loop
vertex 0.120789 0.102657 0.003538
vertex 0.077948 0.056119 0.005334
vertex 0.076100 0.057968 0.003538
endloop
endfacet
facet normal 0.323392 -0.323392 -0.889289
outer loop
vertex 0.120789 0.102657 0.003538
vertex 0.076100 0.057968 0.003538
vertex 0.118794 0.104652 0.002087
endloop
endfacet
facet normal 0.323392 -0.323392 -0.889289
outer loop
vertex 0.118794 0.104652 0.002087
vertex 0.076100 0.057968 0.003538
vertex 0.031410 0.013279 0.003538
endloop
endfacet
facet normal 0.323392 -0.323392 -0.889289
outer loop
vertex 0.118794 0.104652 0.002087
vertex 0.031410 0.013279 0.003538
vertex -0.013279 -0.031410 0.003538
endloop
endfacet
facet normal 0.400421 -0.400421 -0.824212
outer loop
vertex -0.013279 -0.031410 0.003538
vertex 0.031410 0.013279 0.003538
vertex -0.011430 -0.033259 0.005334
endloop
endfacet
facet normal 0.400419 -0.400419 -0.824214
outer loop
vertex -0.013279 -0.031410 0.003538
vertex -0.011430 -0.033259 0.005334
vertex -0.056119 -0.077948 0.005334
endloop
endfacet
facet normal 0.471005 -0.471005 -0.745861
outer loop
vertex -0.056119 -0.077948 0.005334
vertex -0.011430 -0.033259 0.005334
vertex -0.054446 -0.079622 0.007448
endloop
endfacet
facet normal 0.471003 -0.471003 -0.745863
outer loop
vertex -0.056119 -0.077948 0.005334
vertex -0.054446 -0.079622 0.007448
vertex -0.099135 -0.124311 0.007448
endloop
endfacet
facet normal 0.534003 -0.534003 -0.655501
outer loop
vertex -0.099135 -0.124311 0.007448
vertex -0.054446 -0.079622 0.007448
vertex -0.097665 -0.125781 0.009843
endloop
endfacet
facet normal 0.534001 -0.534000 -0.655505
outer loop
vertex -0.097665 -0.125781 0.009843
vertex -0.054446 -0.079622 0.007448
vertex -0.052975 -0.081092 0.009843
endloop
endfacet
facet normal 0.588401 -0.588401 -0.554588
outer loop
vertex -0.097665 -0.125781 0.009843
vertex -0.052975 -0.081092 0.009843
vertex -0.096421 -0.127025 0.012483
endloop
endfacet
facet normal 0.588402 -0.588402 -0.554587
outer loop
vertex -0.096421 -0.127025 0.012483
vertex -0.052975 -0.081092 0.009843
vertex -0.051731 -0.082336 0.012483
endloop
endfacet
facet normal 0.633324 -0.633325 -0.444748
outer loop
vertex -0.096421 -0.127025 0.012483
vertex -0.051731 -0.082336 0.012483
vertex -0.095423 -0.128023 0.015324
endloop
endfacet
facet normal 0.633327 -0.633327 -0.444741
outer loop
vertex -0.095423 -0.128023 0.015324
vertex -0.051731 -0.082336 0.012483
vertex -0.050734 -0.083334 0.015324
endloop
endfacet
facet normal 0.668052 -0.668052 -0.327738
outer loop
vertex -0.095423 -0.128023 0.015324
vertex -0.050734 -0.083334 0.015324
vertex -0.094688 -0.128758 0.018322
endloop
endfacet
facet normal 0.668052 -0.668052 -0.327738
outer loop
vertex -0.094688 -0.128758 0.018322
vertex -0.050734 -0.083334 0.015324
vertex -0.049999 -0.084069 0.018322
endloop
endfacet
facet normal 0.692021 -0.692021 -0.205459
outer loop
vertex -0.094688 -0.128758 0.018322
vertex -0.049999 -0.084069 0.018322
vertex -0.094227 -0.129219 0.021426
endloop
endfacet
facet normal 0.692022 -0.692022 -0.205452
outer loop
vertex -0.094227 -0.129219 0.021426
vertex -0.049999 -0.084069 0.018322
vertex -0.049538 -0.084530 0.021426
endloop
endfacet
facet normal 0.704848 -0.704848 -0.079864
outer loop
vertex -0.094227 -0.129219 0.021426
vertex -0.049538 -0.084530 0.021426
vertex -0.094048 -0.129398 0.024589
endloop
endfacet
facet normal 0.704848 -0.704848 -0.079862
outer loop
vertex -0.094048 -0.129398 0.024589
vertex -0.049538 -0.084530 0.021426
vertex -0.049359 -0.084709 0.024589
endloop
endfacet
facet normal 0.706325 -0.706325 0.047013
outer loop
vertex -0.094048 -0.129398 0.024589
vertex -0.049359 -0.084709 0.024589
vertex -0.094153 -0.129293 0.027757
endloop
endfacet
facet normal 0.706324 -0.706325 0.047018
outer loop
vertex -0.094153 -0.129293 0.027757
vertex -0.049359 -0.084709 0.024589
vertex -0.049464 -0.084603 0.027757
endloop
endfacet
facet normal 0.696428 -0.696427 0.173138
outer loop
vertex -0.094153 -0.129293 0.027757
vertex -0.049464 -0.084603 0.027757
vertex -0.094542 -0.128904 0.030882
endloop
endfacet
facet normal 0.696428 -0.696429 0.173130
outer loop
vertex -0.094542 -0.128904 0.030882
vertex -0.049464 -0.084603 0.027757
vertex -0.049852 -0.084215 0.030882
endloop
endfacet
facet normal 0.675317 -0.675316 0.296471
outer loop
vertex -0.094542 -0.128904 0.030882
vertex -0.049852 -0.084215 0.030882
vertex -0.095207 -0.128239 0.033912
endloop
endfacet
facet normal 0.675317 -0.675317 0.296470
outer loop
vertex -0.095207 -0.128239 0.033912
vertex -0.049852 -0.084215 0.030882
vertex -0.050517 -0.083550 0.033912
endloop
endfacet
facet normal 0.643333 -0.643333 0.415025
outer loop
vertex -0.095207 -0.128239 0.033912
vertex -0.050517 -0.083550 0.033912
vertex -0.096138 -0.127308 0.036798
endloop
endfacet
facet normal 0.643331 -0.643331 0.415030
outer loop
vertex -0.096138 -0.127308 0.036798
vertex -0.050517 -0.083550 0.033912
vertex -0.051448 -0.082619 0.036798
endloop
endfacet
facet normal 0.600988 -0.600986 0.526906
outer loop
vertex -0.096138 -0.127308 0.036798
vertex -0.051448 -0.082619 0.036798
vertex -0.097320 -0.126126 0.039494
endloop
endfacet
facet normal 0.600988 -0.600989 0.526902
outer loop
vertex -0.097320 -0.126126 0.039494
vertex -0.051448 -0.082619 0.036798
vertex -0.052630 -0.081437 0.039494
endloop
endfacet
facet normal 0.548966 -0.548967 0.630295
outer loop
vertex -0.097320 -0.126126 0.039494
vertex -0.052630 -0.081437 0.039494
vertex -0.098733 -0.124712 0.041957
endloop
endfacet
facet normal 0.548964 -0.548964 0.630299
outer loop
vertex -0.098733 -0.124712 0.041957
vertex -0.052630 -0.081437 0.039494
vertex -0.054044 -0.080023 0.041957
endloop
endfacet
facet normal 0.488106 -0.488105 0.723537
outer loop
vertex -0.098733 -0.124712 0.041957
vertex -0.054044 -0.080023 0.041957
vertex -0.100356 -0.123089 0.044147
endloop
endfacet
facet normal 0.488102 -0.488104 0.723541
outer loop
vertex -0.100356 -0.123089 0.044147
vertex -0.054044 -0.080023 0.041957
vertex -0.055667 -0.078400 0.044147
endloop
endfacet
facet normal 0.419386 -0.419384 0.805129
outer loop
vertex -0.100356 -0.123089 0.044147
vertex -0.055667 -0.078400 0.044147
vertex -0.102163 -0.121283 0.046028
endloop
endfacet
facet normal 0.419384 -0.419385 0.805129
outer loop
vertex -0.102163 -0.121283 0.046028
vertex -0.055667 -0.078400 0.044147
vertex -0.057473 -0.076594 0.046028
endloop
endfacet
facet normal 0.343911 -0.343909 0.873757
outer loop
vertex -0.102163 -0.121283 0.046028
vertex -0.057473 -0.076594 0.046028
vertex -0.104123 -0.119323 0.047571
endloop
endfacet
facet normal 0.343909 -0.343910 0.873758
outer loop
vertex -0.104123 -0.119323 0.047571
vertex -0.057473 -0.076594 0.046028
vertex -0.059433 -0.074634 0.047571
endloop
endfacet
facet normal 0.262896 -0.262897 0.928316
outer loop
vertex -0.104123 -0.119323 0.047571
vertex -0.059433 -0.074634 0.047571
vertex -0.106205 -0.117241 0.048751
endloop
endfacet
facet normal 0.262899 -0.262897 0.928315
outer loop
vertex -0.106205 -0.117241 0.048751
vertex -0.059433 -0.074634 0.047571
vertex -0.061516 -0.072552 0.048751
endloop
endfacet
facet normal 0.177653 -0.177653 0.967925
outer loop
vertex -0.106205 -0.117241 0.048751
vertex -0.061516 -0.072552 0.048751
vertex -0.108376 -0.115070 0.049548
endloop
endfacet
facet normal 0.177654 -0.177654 0.967925
outer loop
vertex -0.108376 -0.115070 0.049548
vertex -0.061516 -0.072552 0.048751
vertex -0.063687 -0.070380 0.049548
endloop
endfacet
facet normal 0.089546 -0.089548 0.991949
outer loop
vertex -0.108376 -0.115070 0.049548
vertex -0.063687 -0.070380 0.049548
vertex -0.110601 -0.112844 0.049950
endloop
endfacet
facet normal 0.089549 -0.089548 0.991949
outer loop
vertex -0.110601 -0.112844 0.049950
vertex -0.063687 -0.070380 0.049548
vertex -0.065912 -0.068155 0.049950
endloop
endfacet
facet normal 0.000002 0.000000 1.000000
outer loop
vertex -0.110601 -0.112844 0.049950
vertex -0.065912 -0.068155 0.049950
vertex -0.112845 -0.110601 0.049950
endloop
endfacet
facet normal -0.000001 0.000000 1.000000
outer loop
vertex -0.112845 -0.110601 0.049950
vertex -0.065912 -0.068155 0.049950
vertex -0.068155 -0.065912 0.049950
endloop
endfacet
facet normal -0.089548 0.089548 0.991949
outer loop
vertex -0.112845 -0.110601 0.049950
vertex -0.068155 -0.065912 0.049950
vertex -0.115070 -0.108376 0.049548
endloop
endfacet
facet normal -0.089548 0.089549 0.991949
outer loop
vertex -0.115070 -0.108376 0.049548
vertex -0.068155 -0.065912 0.049950
vertex -0.070381 -0.063687 0.049548
endloop
endfacet
facet normal -0.177652 0.177652 0.967925
outer loop
vertex -0.115070 -0.108376 0.049548
vertex -0.070381 -0.063687 0.049548
vertex -0.117241 -0.106205 0.048751
endloop
endfacet
facet normal -0.177653 0.177653 0.967925
outer loop
vertex -0.117241 -0.106205 0.048751
vertex -0.070381 -0.063687 0.049548
vertex -0.072552 -0.061516 0.048751
endloop
endfacet
facet normal -0.262898 0.262897 0.928315
outer loop
vertex -0.117241 -0.106205 0.048751
vertex -0.072552 -0.061516 0.048751
vertex -0.119323 -0.104122 0.047571
endloop
endfacet
facet normal -0.262896 0.262897 0.928316
outer loop
vertex -0.119323 -0.104122 0.047571
vertex -0.072552 -0.061516 0.048751
vertex -0.074634 -0.059433 0.047571
endloop
endfacet
facet normal -0.343908 0.343911 0.873758
outer loop
vertex -0.119323 -0.104122 0.047571
vertex -0.074634 -0.059433 0.047571
vertex -0.121283 -0.102162 0.046028
endloop
endfacet
facet normal -0.343912 0.343911 0.873756
outer loop
vertex -0.121283 -0.102162 0.046028
vertex -0.074634 -0.059433 0.047571
vertex -0.076594 -0.057473 0.046028
endloop
endfacet
facet normal -0.419384 0.419383 0.805130
outer loop
vertex -0.121283 -0.102162 0.046028
vertex -0.076594 -0.057473 0.046028
vertex -0.123089 -0.100356 0.044147
endloop
endfacet
facet normal -0.419384 0.419383 0.805130
outer loop
vertex -0.123089 -0.100356 0.044147
vertex -0.076594 -0.057473 0.046028
vertex -0.078400 -0.055667 0.044147
endloop
endfacet
facet normal -0.488103 0.488104 0.723540
outer loop
vertex -0.123089 -0.100356 0.044147
vertex -0.078400 -0.055667 0.044147
vertex -0.124713 -0.098733 0.041957
endloop
endfacet
facet normal -0.488106 0.488104 0.723538
outer loop
vertex -0.124713 -0.098733 0.041957
vertex -0.078400 -0.055667 0.044147
vertex -0.080023 -0.054044 0.041957
endloop
endfacet
facet normal -0.548966 0.548966 0.630295
outer loop
vertex -0.124713 -0.098733 0.041957
vertex -0.080023 -0.054044 0.041957
vertex -0.126126 -0.097319 0.039494
endloop
endfacet
facet normal -0.548966 0.548966 0.630295
outer loop
vertex -0.126126 -0.097319 0.039494
vertex -0.080023 -0.054044 0.041957
vertex -0.081437 -0.052630 0.039494
endloop
endfacet
facet normal -0.600986 0.600987 0.526907
outer loop
vertex -0.126126 -0.097319 0.039494
vertex -0.081437 -0.052630 0.039494
vertex -0.127308 -0.096137 0.036798
endloop
endfacet
facet normal -0.600988 0.600987 0.526905
outer loop
vertex -0.127308 -0.096137 0.036798
vertex -0.081437 -0.052630 0.039494
vertex -0.082619 -0.051448 0.036798
endloop
endfacet
facet normal -0.643332 0.643332 0.415027
outer loop
vertex -0.127308 -0.096137 0.036798
vertex -0.082619 -0.051448 0.036798
vertex -0.128239 -0.095206 0.033912
endloop
endfacet
facet normal -0.643332 0.643332 0.415028
outer loop
vertex -0.128239 -0.095206 0.033912
vertex -0.082619 -0.051448 0.036798
vertex -0.083550 -0.050517 0.033912
endloop
endfacet
facet normal -0.675317 0.675318 0.296467
outer loop
vertex -0.128239 -0.095206 0.033912
vertex -0.083550 -0.050517 0.033912
vertex -0.128904 -0.094541 0.030882
endloop
endfacet
facet normal -0.675317 0.675316 0.296470
outer loop
vertex -0.128904 -0.094541 0.030882
vertex -0.083550 -0.050517 0.033912
vertex -0.084215 -0.049852 0.030882
endloop
endfacet
facet normal -0.696427 0.696428 0.173138
outer loop
vertex -0.128904 -0.094541 0.030882
vertex -0.084215 -0.049852 0.030882
vertex -0.129293 -0.094153 0.027757
endloop
endfacet
facet normal -0.696429 0.696427 0.173134
outer loop
vertex -0.129293 -0.094153 0.027757
vertex -0.084215 -0.049852 0.030882
vertex -0.084604 -0.049464 0.027757
endloop
endfacet
facet normal -0.706324 0.706325 0.047016
outer loop
vertex -0.129293 -0.094153 0.027757
vertex -0.084604 -0.049464 0.027757
vertex -0.129398 -0.094048 0.024589
endloop
endfacet
facet normal -0.706325 0.706325 0.047013
outer loop
vertex -0.129398 -0.094048 0.024589
vertex -0.084604 -0.049464 0.027757
vertex -0.084709 -0.049358 0.024589
endloop
endfacet
facet normal -0.704848 0.704848 -0.079864
outer loop
vertex -0.129398 -0.094048 0.024589
vertex -0.084709 -0.049358 0.024589
vertex -0.129219 -0.094227 0.021426
endloop
endfacet
facet normal -0.704849 0.704849 -0.079858
outer loop
vertex -0.129219 -0.094227 0.021426
vertex -0.084709 -0.049358 0.024589
vertex -0.084530 -0.049538 0.021426
endloop
endfacet
facet normal -0.692022 0.692022 -0.205452
outer loop
vertex -0.129219 -0.094227 0.021426
vertex -0.084530 -0.049538 0.021426
vertex -0.128758 -0.094688 0.018322
endloop
endfacet
facet normal -0.692021 0.692021 -0.205460
outer loop
vertex -0.128758 -0.094688 0.018322
vertex -0.084530 -0.049538 0.021426
vertex -0.084069 -0.049998 0.018322
endloop
endfacet
facet normal -0.668053 0.668053 -0.327734
outer loop
vertex -0.128758 -0.094688 0.018322
vertex -0.084069 -0.049998 0.018322
vertex -0.128023 -0.095423 0.015324
endloop
endfacet
facet normal -0.668052 0.668053 -0.327738
outer loop
vertex -0.128023 -0.095423 0.015324
vertex -0.084069 -0.049998 0.018322
vertex -0.083334 -0.050734 0.015324
endloop
endfacet
facet normal -0.633327 0.633326 -0.444742
outer loop
vertex -0.128023 -0.095423 0.015324
vertex -0.083334 -0.050734 0.015324
vertex -0.127025 -0.096420 0.012483
endloop
endfacet
facet normal -0.633326 0.633326 -0.444743
outer loop
vertex -0.127025 -0.096420 0.012483
vertex -0.083334 -0.050734 0.015324
vertex -0.082336 -0.051731 0.012483
endloop
endfacet
facet normal -0.588401 0.588401 -0.554589
outer loop
vertex -0.127025 -0.096420 0.012483
vertex -0.082336 -0.051731 0.012483
vertex -0.125781 -0.097664 0.009843
endloop
endfacet
facet normal -0.588400 0.588400 -0.554591
outer loop
vertex -0.125781 -0.097664 0.009843
vertex -0.082336 -0.051731 0.012483
vertex -0.081092 -0.052975 0.009843
endloop
endfacet
facet normal -0.534002 0.534003 -0.655502
outer loop
vertex -0.125781 -0.097664 0.009843
vertex -0.081092 -0.052975 0.009843
vertex -0.124311 -0.099135 0.007448
endloop
endfacet
facet normal -0.534001 0.534001 -0.655504
outer loop
vertex -0.124311 -0.099135 0.007448
vertex -0.081092 -0.052975 0.009843
vertex -0.079622 -0.054446 0.007448
endloop
endfacet
facet normal -0.471005 0.471005 -0.745862
outer loop
vertex -0.124311 -0.099135 0.007448
vertex -0.079622 -0.054446 0.007448
vertex -0.122638 -0.100808 0.005334
endloop
endfacet
facet normal -0.471003 0.471003 -0.745863
outer loop
vertex -0.122638 -0.100808 0.005334
vertex -0.079622 -0.054446 0.007448
vertex -0.077949 -0.056119 0.005334
endloop
endfacet
facet normal -0.400421 0.400421 -0.824212
outer loop
vertex -0.122638 -0.100808 0.005334
vertex -0.077949 -0.056119 0.005334
vertex -0.120789 -0.102657 0.003538
endloop
endfacet
facet normal -0.400421 0.400421 -0.824212
outer loop
vertex -0.120789 -0.102657 0.003538
vertex -0.077949 -0.056119 0.005334
vertex -0.076100 -0.057968 0.003538
endloop
endfacet
facet normal 0.471005 -0.471005 -0.745861
outer loop
vertex -0.099135 -0.124311 0.007448
vertex -0.100808 -0.122638 0.005334
vertex -0.056119 -0.077948 0.005334
endloop
endfacet
facet normal 0.400420 -0.400420 -0.824213
outer loop
vertex -0.056119 -0.077948 0.005334
vertex -0.100808 -0.122638 0.005334
vertex -0.057968 -0.076100 0.003538
endloop
endfacet
facet normal 0.400421 -0.400421 -0.824212
outer loop
vertex -0.056119 -0.077948 0.005334
vertex -0.057968 -0.076100 0.003538
vertex -0.013279 -0.031410 0.003538
endloop
endfacet
facet normal 0.323392 -0.323392 -0.889289
outer loop
vertex -0.013279 -0.031410 0.003538
vertex -0.057968 -0.076100 0.003538
vertex -0.104652 -0.118794 0.002087
endloop
endfacet
facet normal 0.323392 -0.323392 -0.889289
outer loop
vertex -0.013279 -0.031410 0.003538
vertex -0.104652 -0.118794 0.002087
vertex 0.118794 0.104652 0.002087
endloop
endfacet
facet normal 0.400420 -0.400420 -0.824213
outer loop
vertex -0.100808 -0.122638 0.005334
vertex -0.102657 -0.120789 0.003538
vertex -0.057968 -0.076100 0.003538
endloop
endfacet
facet normal 0.323393 -0.323393 -0.889289
outer loop
vertex -0.057968 -0.076100 0.003538
vertex -0.102657 -0.120789 0.003538
vertex -0.104652 -0.118794 0.002087
endloop
endfacet
facet normal -0.471004 0.471004 -0.745862
outer loop
vertex 0.099135 0.124311 0.007448
vertex 0.100808 0.122638 0.005334
vertex 0.056119 0.077949 0.005334
endloop
endfacet
facet normal -0.400422 0.400422 -0.824211
outer loop
vertex 0.056119 0.077949 0.005334
vertex 0.100808 0.122638 0.005334
vertex 0.057968 0.076100 0.003538
endloop
endfacet
facet normal -0.400420 0.400420 -0.824213
outer loop
vertex 0.056119 0.077949 0.005334
vertex 0.057968 0.076100 0.003538
vertex 0.013279 0.031411 0.003538
endloop
endfacet
facet normal -0.323391 0.323391 -0.889290
outer loop
vertex 0.013279 0.031411 0.003538
vertex 0.057968 0.076100 0.003538
vertex 0.104652 0.118794 0.002087
endloop
endfacet
facet normal -0.323392 0.323392 -0.889289
outer loop
vertex 0.013279 0.031411 0.003538
vertex 0.104652 0.118794 0.002087
vertex -0.118794 -0.104652 0.002087
endloop
endfacet
facet normal -0.400420 0.400420 -0.824213
outer loop
vertex 0.100808 0.122638 0.005334
vertex 0.102657 0.120789 0.003538
vertex 0.057968 0.076100 0.003538
endloop
endfacet
facet normal -0.323392 0.323392 -0.889289
outer loop
vertex 0.057968 0.076100 0.003538
vertex 0.102657 0.120789 0.003538
vertex 0.104652 0.118794 0.002087
endloop
endfacet
facet normal -0.400421 0.400421 -0.824212
outer loop
vertex -0.031411 -0.013279 0.003538
vertex -0.076100 -0.057968 0.003538
vertex -0.033259 -0.011430 0.005334
endloop
endfacet
facet normal -0.400421 0.400421 -0.824212
outer loop
vertex -0.033259 -0.011430 0.005334
vertex -0.076100 -0.057968 0.003538
vertex -0.077949 -0.056119 0.005334
endloop
endfacet
facet normal -0.471004 0.471004 -0.745863
outer loop
vertex -0.033259 -0.011430 0.005334
vertex -0.077949 -0.056119 0.005334
vertex -0.034933 -0.009757 0.007448
endloop
endfacet
facet normal -0.471004 0.471004 -0.745862
outer loop
vertex -0.034933 -0.009757 0.007448
vertex -0.077949 -0.056119 0.005334
vertex -0.079622 -0.054446 0.007448
endloop
endfacet
facet normal -0.534002 0.534002 -0.655503
outer loop
vertex -0.034933 -0.009757 0.007448
vertex -0.079622 -0.054446 0.007448
vertex -0.036403 -0.008286 0.009843
endloop
endfacet
facet normal -0.534002 0.534002 -0.655503
outer loop
vertex -0.036403 -0.008286 0.009843
vertex -0.079622 -0.054446 0.007448
vertex -0.081092 -0.052975 0.009843
endloop
endfacet
facet normal -0.588401 0.588401 -0.554588
outer loop
vertex -0.036403 -0.008286 0.009843
vertex -0.081092 -0.052975 0.009843
vertex -0.037647 -0.007042 0.012483
endloop
endfacet
facet normal -0.588401 0.588401 -0.554589
outer loop
vertex -0.037647 -0.007042 0.012483
vertex -0.081092 -0.052975 0.009843
vertex -0.082336 -0.051731 0.012483
endloop
endfacet
facet normal -0.633326 0.633326 -0.444743
outer loop
vertex -0.037647 -0.007042 0.012483
vertex -0.082336 -0.051731 0.012483
vertex -0.038645 -0.006044 0.015324
endloop
endfacet
facet normal -0.633326 0.633325 -0.444745
outer loop
vertex -0.038645 -0.006044 0.015324
vertex -0.082336 -0.051731 0.012483
vertex -0.083334 -0.050734 0.015324
endloop
endfacet
facet normal -0.668052 0.668053 -0.327736
outer loop
vertex -0.038645 -0.006044 0.015324
vertex -0.083334 -0.050734 0.015324
vertex -0.039380 -0.005309 0.018322
endloop
endfacet
facet normal -0.668053 0.668052 -0.327737
outer loop
vertex -0.039380 -0.005309 0.018322
vertex -0.083334 -0.050734 0.015324
vertex -0.084069 -0.049998 0.018322
endloop
endfacet
facet normal -0.692022 0.692022 -0.205454
outer loop
vertex -0.039380 -0.005309 0.018322
vertex -0.084069 -0.049998 0.018322
vertex -0.039841 -0.004848 0.021426
endloop
endfacet
facet normal -0.692022 0.692022 -0.205454
outer loop
vertex -0.039841 -0.004848 0.021426
vertex -0.084069 -0.049998 0.018322
vertex -0.084530 -0.049538 0.021426
endloop
endfacet
facet normal -0.704848 0.704848 -0.079862
outer loop
vertex -0.039841 -0.004848 0.021426
vertex -0.084530 -0.049538 0.021426
vertex -0.040020 -0.004669 0.024589
endloop
endfacet
facet normal -0.704848 0.704849 -0.079860
outer loop
vertex -0.040020 -0.004669 0.024589
vertex -0.084530 -0.049538 0.021426
vertex -0.084709 -0.049358 0.024589
endloop
endfacet
facet normal -0.706325 0.706324 0.047015
outer loop
vertex -0.040020 -0.004669 0.024589
vertex -0.084709 -0.049358 0.024589
vertex -0.039914 -0.004775 0.027757
endloop
endfacet
facet normal -0.706325 0.706325 0.047015
outer loop
vertex -0.039914 -0.004775 0.027757
vertex -0.084709 -0.049358 0.024589
vertex -0.084604 -0.049464 0.027757
endloop
endfacet
facet normal -0.696427 0.696429 0.173136
outer loop
vertex -0.039914 -0.004775 0.027757
vertex -0.084604 -0.049464 0.027757
vertex -0.039526 -0.005163 0.030882
endloop
endfacet
facet normal -0.696428 0.696428 0.173134
outer loop
vertex -0.039526 -0.005163 0.030882
vertex -0.084604 -0.049464 0.027757
vertex -0.084215 -0.049852 0.030882
endloop
endfacet
facet normal -0.675316 0.675317 0.296471
outer loop
vertex -0.039526 -0.005163 0.030882
vertex -0.084215 -0.049852 0.030882
vertex -0.038861 -0.005828 0.033912
endloop
endfacet
facet normal -0.675318 0.675317 0.296469
outer loop
vertex -0.038861 -0.005828 0.033912
vertex -0.084215 -0.049852 0.030882
vertex -0.083550 -0.050517 0.033912
endloop
endfacet
facet normal -0.643330 0.643332 0.415030
outer loop
vertex -0.038861 -0.005828 0.033912
vertex -0.083550 -0.050517 0.033912
vertex -0.037930 -0.006759 0.036798
endloop
endfacet
facet normal -0.643333 0.643332 0.415027
outer loop
vertex -0.037930 -0.006759 0.036798
vertex -0.083550 -0.050517 0.033912
vertex -0.082619 -0.051448 0.036798
endloop
endfacet
facet normal -0.600988 0.600988 0.526904
outer loop
vertex -0.037930 -0.006759 0.036798
vertex -0.082619 -0.051448 0.036798
vertex -0.036748 -0.007941 0.039494
endloop
endfacet
facet normal -0.600989 0.600988 0.526903
outer loop
vertex -0.036748 -0.007941 0.039494
vertex -0.082619 -0.051448 0.036798
vertex -0.081437 -0.052630 0.039494
endloop
endfacet
facet normal -0.548963 0.548965 0.630299
outer loop
vertex -0.036748 -0.007941 0.039494
vertex -0.081437 -0.052630 0.039494
vertex -0.035334 -0.009355 0.041957
endloop
endfacet
facet normal -0.548967 0.548965 0.630296
outer loop
vertex -0.035334 -0.009355 0.041957
vertex -0.081437 -0.052630 0.039494
vertex -0.080023 -0.054044 0.041957
endloop
endfacet
facet normal -0.488104 0.488105 0.723538
outer loop
vertex -0.035334 -0.009355 0.041957
vertex -0.080023 -0.054044 0.041957
vertex -0.033711 -0.010978 0.044147
endloop
endfacet
facet normal -0.488104 0.488105 0.723539
outer loop
vertex -0.033711 -0.010978 0.044147
vertex -0.080023 -0.054044 0.041957
vertex -0.078400 -0.055667 0.044147
endloop
endfacet
facet normal -0.419385 0.419382 0.805130
outer loop
vertex -0.033711 -0.010978 0.044147
vertex -0.078400 -0.055667 0.044147
vertex -0.031905 -0.012784 0.046028
endloop
endfacet
facet normal -0.419383 0.419384 0.805130
outer loop
vertex -0.031905 -0.012784 0.046028
vertex -0.078400 -0.055667 0.044147
vertex -0.076594 -0.057473 0.046028
endloop
endfacet
facet normal -0.343912 0.343910 0.873757
outer loop
vertex -0.031905 -0.012784 0.046028
vertex -0.076594 -0.057473 0.046028
vertex -0.029945 -0.014744 0.047571
endloop
endfacet
facet normal -0.343909 0.343910 0.873758
outer loop
vertex -0.029945 -0.014744 0.047571
vertex -0.076594 -0.057473 0.046028
vertex -0.074634 -0.059433 0.047571
endloop
endfacet
facet normal -0.262894 0.262898 0.928316
outer loop
vertex -0.029945 -0.014744 0.047571
vertex -0.074634 -0.059433 0.047571
vertex -0.027863 -0.016827 0.048751
endloop
endfacet
facet normal -0.262900 0.262897 0.928315
outer loop
vertex -0.027863 -0.016827 0.048751
vertex -0.074634 -0.059433 0.047571
vertex -0.072552 -0.061516 0.048751
endloop
endfacet
facet normal -0.177651 0.177653 0.967925
outer loop
vertex -0.027863 -0.016827 0.048751
vertex -0.072552 -0.061516 0.048751
vertex -0.025691 -0.018998 0.049548
endloop
endfacet
facet normal -0.177654 0.177653 0.967925
outer loop
vertex -0.025691 -0.018998 0.049548
vertex -0.072552 -0.061516 0.048751
vertex -0.070381 -0.063687 0.049548
endloop
endfacet
facet normal -0.089551 0.089548 0.991948
outer loop
vertex -0.025691 -0.018998 0.049548
vertex -0.070381 -0.063687 0.049548
vertex -0.023466 -0.021223 0.049950
endloop
endfacet
facet normal -0.089546 0.089548 0.991949
outer loop
vertex -0.023466 -0.021223 0.049950
vertex -0.070381 -0.063687 0.049548
vertex -0.068155 -0.065912 0.049950
endloop
endfacet
facet normal 0.000000 0.000000 1.000000
outer loop
vertex -0.023466 -0.021223 0.049950
vertex -0.068155 -0.065912 0.049950
vertex -0.021223 -0.023466 0.049950
endloop
endfacet
facet normal -0.000001 0.000000 1.000000
outer loop
vertex -0.021223 -0.023466 0.049950
vertex -0.068155 -0.065912 0.049950
vertex -0.065912 -0.068155 0.049950
endloop
endfacet
facet normal 0.089549 -0.089548 0.991949
outer loop
vertex -0.021223 -0.023466 0.049950
vertex -0.065912 -0.068155 0.049950
vertex -0.018998 -0.025691 0.049548
endloop
endfacet
facet normal 0.089550 -0.089548 0.991949
outer loop
vertex -0.018998 -0.025691 0.049548
vertex -0.065912 -0.068155 0.049950
vertex -0.063687 -0.070380 0.049548
endloop
endfacet
facet normal 0.177654 -0.177653 0.967925
outer loop
vertex -0.018998 -0.025691 0.049548
vertex -0.063687 -0.070380 0.049548
vertex -0.016827 -0.027863 0.048751
endloop
endfacet
facet normal 0.177653 -0.177653 0.967925
outer loop
vertex -0.016827 -0.027863 0.048751
vertex -0.063687 -0.070380 0.049548
vertex -0.061516 -0.072552 0.048751
endloop
endfacet
facet normal 0.262899 -0.262898 0.928315
outer loop
vertex -0.016827 -0.027863 0.048751
vertex -0.061516 -0.072552 0.048751
vertex -0.014744 -0.029945 0.047571
endloop
endfacet
facet normal 0.262896 -0.262897 0.928316
outer loop
vertex -0.014744 -0.029945 0.047571
vertex -0.061516 -0.072552 0.048751
vertex -0.059433 -0.074634 0.047571
endloop
endfacet
facet normal 0.343910 -0.343911 0.873757
outer loop
vertex -0.014744 -0.029945 0.047571
vertex -0.059433 -0.074634 0.047571
vertex -0.012784 -0.031905 0.046028
endloop
endfacet
facet normal 0.343911 -0.343910 0.873757
outer loop
vertex -0.012784 -0.031905 0.046028
vertex -0.059433 -0.074634 0.047571
vertex -0.057473 -0.076594 0.046028
endloop
endfacet
facet normal 0.419384 -0.419385 0.805130
outer loop
vertex -0.012784 -0.031905 0.046028
vertex -0.057473 -0.076594 0.046028
vertex -0.010978 -0.033711 0.044147
endloop
endfacet
facet normal 0.419385 -0.419383 0.805130
outer loop
vertex -0.010978 -0.033711 0.044147
vertex -0.057473 -0.076594 0.046028
vertex -0.055667 -0.078400 0.044147
endloop
endfacet
facet normal 0.488102 -0.488104 0.723540
outer loop
vertex -0.010978 -0.033711 0.044147
vertex -0.055667 -0.078400 0.044147
vertex -0.009355 -0.035334 0.041957
endloop
endfacet
facet normal 0.488106 -0.488104 0.723538
outer loop
vertex -0.009355 -0.035334 0.041957
vertex -0.055667 -0.078400 0.044147
vertex -0.054044 -0.080023 0.041957
endloop
endfacet
facet normal 0.548966 -0.548967 0.630295
outer loop
vertex -0.009355 -0.035334 0.041957
vertex -0.054044 -0.080023 0.041957
vertex -0.007941 -0.036748 0.039494
endloop
endfacet
facet normal 0.548964 -0.548965 0.630299
outer loop
vertex -0.007941 -0.036748 0.039494
vertex -0.054044 -0.080023 0.041957
vertex -0.052630 -0.081437 0.039494
endloop
endfacet
facet normal 0.600988 -0.600989 0.526902
outer loop
vertex -0.007941 -0.036748 0.039494
vertex -0.052630 -0.081437 0.039494
vertex -0.006759 -0.037930 0.036798
endloop
endfacet
facet normal 0.600989 -0.600987 0.526904
outer loop
vertex -0.006759 -0.037930 0.036798
vertex -0.052630 -0.081437 0.039494
vertex -0.051448 -0.082619 0.036798
endloop
endfacet
facet normal 0.643332 -0.643331 0.415029
outer loop
vertex -0.006759 -0.037930 0.036798
vertex -0.051448 -0.082619 0.036798
vertex -0.005828 -0.038861 0.033912
endloop
endfacet
facet normal 0.643330 -0.643332 0.415030
outer loop
vertex -0.005828 -0.038861 0.033912
vertex -0.051448 -0.082619 0.036798
vertex -0.050517 -0.083550 0.033912
endloop
endfacet
facet normal 0.675318 -0.675317 0.296467
outer loop
vertex -0.005828 -0.038861 0.033912
vertex -0.050517 -0.083550 0.033912
vertex -0.005163 -0.039526 0.030882
endloop
endfacet
facet normal 0.675317 -0.675316 0.296473
outer loop
vertex -0.005163 -0.039526 0.030882
vertex -0.050517 -0.083550 0.033912
vertex -0.049852 -0.084215 0.030882
endloop
endfacet
facet normal 0.696428 -0.696428 0.173134
outer loop
vertex -0.005163 -0.039526 0.030882
vertex -0.049852 -0.084215 0.030882
vertex -0.004775 -0.039914 0.027757
endloop
endfacet
facet normal 0.696428 -0.696428 0.173137
outer loop
vertex -0.004775 -0.039914 0.027757
vertex -0.049852 -0.084215 0.030882
vertex -0.049464 -0.084603 0.027757
endloop
endfacet
facet normal 0.706325 -0.706325 0.047013
outer loop
vertex -0.004775 -0.039914 0.027757
vertex -0.049464 -0.084603 0.027757
vertex -0.004669 -0.040020 0.024589
endloop
endfacet
facet normal 0.706325 -0.706325 0.047016
outer loop
vertex -0.004669 -0.040020 0.024589
vertex -0.049464 -0.084603 0.027757
vertex -0.049359 -0.084709 0.024589
endloop
endfacet
facet normal 0.704848 -0.704848 -0.079861
outer loop
vertex -0.004669 -0.040020 0.024589
vertex -0.049359 -0.084709 0.024589
vertex -0.004849 -0.039841 0.021426
endloop
endfacet
facet normal 0.704849 -0.704848 -0.079861
outer loop
vertex -0.004849 -0.039841 0.021426
vertex -0.049359 -0.084709 0.024589
vertex -0.049538 -0.084530 0.021426
endloop
endfacet
facet normal 0.692022 -0.692022 -0.205454
outer loop
vertex -0.004849 -0.039841 0.021426
vertex -0.049538 -0.084530 0.021426
vertex -0.005309 -0.039380 0.018322
endloop
endfacet
facet normal 0.692022 -0.692022 -0.205454
outer loop
vertex -0.005309 -0.039380 0.018322
vertex -0.049538 -0.084530 0.021426
vertex -0.049999 -0.084069 0.018322
endloop
endfacet
facet normal 0.668052 -0.668052 -0.327740
outer loop
vertex -0.005309 -0.039380 0.018322
vertex -0.049999 -0.084069 0.018322
vertex -0.006045 -0.038645 0.015324
endloop
endfacet
facet normal 0.668053 -0.668054 -0.327734
outer loop
vertex -0.006045 -0.038645 0.015324
vertex -0.049999 -0.084069 0.018322
vertex -0.050734 -0.083334 0.015324
endloop
endfacet
facet normal 0.633326 -0.633325 -0.444746
outer loop
vertex -0.006045 -0.038645 0.015324
vertex -0.050734 -0.083334 0.015324
vertex -0.007042 -0.037647 0.012483
endloop
endfacet
facet normal 0.633326 -0.633326 -0.444744
outer loop
vertex -0.007042 -0.037647 0.012483
vertex -0.050734 -0.083334 0.015324
vertex -0.051731 -0.082336 0.012483
endloop
endfacet
facet normal 0.588401 -0.588401 -0.554589
outer loop
vertex -0.007042 -0.037647 0.012483
vertex -0.051731 -0.082336 0.012483
vertex -0.008286 -0.036403 0.009843
endloop
endfacet
facet normal 0.588401 -0.588401 -0.554589
outer loop
vertex -0.008286 -0.036403 0.009843
vertex -0.051731 -0.082336 0.012483
vertex -0.052975 -0.081092 0.009843
endloop
endfacet
facet normal 0.534001 -0.534001 -0.655505
outer loop
vertex -0.008286 -0.036403 0.009843
vertex -0.052975 -0.081092 0.009843
vertex -0.009757 -0.034932 0.007448
endloop
endfacet
facet normal 0.534003 -0.534003 -0.655502
outer loop
vertex -0.009757 -0.034932 0.007448
vertex -0.052975 -0.081092 0.009843
vertex -0.054446 -0.079622 0.007448
endloop
endfacet
facet normal 0.471004 -0.471004 -0.745862
outer loop
vertex -0.009757 -0.034932 0.007448
vertex -0.054446 -0.079622 0.007448
vertex -0.011430 -0.033259 0.005334
endloop
endfacet
facet normal -0.400421 0.400421 -0.824212
outer loop
vertex -0.031411 -0.013279 0.003538
vertex -0.033259 -0.011430 0.005334
vertex 0.011430 0.033259 0.005334
endloop
endfacet
facet normal -0.471004 0.471004 -0.745862
outer loop
vertex 0.011430 0.033259 0.005334
vertex -0.033259 -0.011430 0.005334
vertex 0.009757 0.034933 0.007448
endloop
endfacet
facet normal -0.471003 0.471003 -0.745864
outer loop
vertex 0.011430 0.033259 0.005334
vertex 0.009757 0.034933 0.007448
vertex 0.054446 0.079622 0.007448
endloop
endfacet
facet normal -0.534003 0.534003 -0.655501
outer loop
vertex 0.054446 0.079622 0.007448
vertex 0.009757 0.034933 0.007448
vertex 0.052975 0.081092 0.009843
endloop
endfacet
facet normal -0.471004 0.471004 -0.745862
outer loop
vertex 0.009757 0.034933 0.007448
vertex -0.033259 -0.011430 0.005334
vertex -0.034933 -0.009757 0.007448
endloop
endfacet
facet normal -0.534002 0.534002 -0.655503
outer loop
vertex 0.009757 0.034933 0.007448
vertex -0.034933 -0.009757 0.007448
vertex 0.008286 0.036403 0.009843
endloop
endfacet
facet normal -0.534002 0.534002 -0.655503
outer loop
vertex 0.008286 0.036403 0.009843
vertex -0.034933 -0.009757 0.007448
vertex -0.036403 -0.008286 0.009843
endloop
endfacet
facet normal -0.588401 0.588401 -0.554589
outer loop
vertex 0.008286 0.036403 0.009843
vertex -0.036403 -0.008286 0.009843
vertex 0.007042 0.037647 0.012483
endloop
endfacet
facet normal -0.588401 0.588401 -0.554588
outer loop
vertex 0.007042 0.037647 0.012483
vertex -0.036403 -0.008286 0.009843
vertex -0.037647 -0.007042 0.012483
endloop
endfacet
facet normal -0.633326 0.633326 -0.444744
outer loop
vertex 0.007042 0.037647 0.012483
vertex -0.037647 -0.007042 0.012483
vertex 0.006044 0.038645 0.015324
endloop
endfacet
facet normal -0.633325 0.633325 -0.444745
outer loop
vertex 0.006044 0.038645 0.015324
vertex -0.037647 -0.007042 0.012483
vertex -0.038645 -0.006044 0.015324
endloop
endfacet
facet normal -0.668053 0.668053 -0.327736
outer loop
vertex 0.006044 0.038645 0.015324
vertex -0.038645 -0.006044 0.015324
vertex 0.005309 0.039380 0.018322
endloop
endfacet
facet normal -0.668052 0.668052 -0.327738
outer loop
vertex 0.005309 0.039380 0.018322
vertex -0.038645 -0.006044 0.015324
vertex -0.039380 -0.005309 0.018322
endloop
endfacet
facet normal -0.692022 0.692022 -0.205454
outer loop
vertex 0.005309 0.039380 0.018322
vertex -0.039380 -0.005309 0.018322
vertex 0.004848 0.039841 0.021426
endloop
endfacet
facet normal -0.692022 0.692022 -0.205454
outer loop
vertex 0.004848 0.039841 0.021426
vertex -0.039380 -0.005309 0.018322
vertex -0.039841 -0.004848 0.021426
endloop
endfacet
facet normal -0.704848 0.704849 -0.079861
outer loop
vertex 0.004848 0.039841 0.021426
vertex -0.039841 -0.004848 0.021426
vertex 0.004669 0.040020 0.024589
endloop
endfacet
facet normal -0.704849 0.704848 -0.079861
outer loop
vertex 0.004669 0.040020 0.024589
vertex -0.039841 -0.004848 0.021426
vertex -0.040020 -0.004669 0.024589
endloop
endfacet
facet normal -0.706325 0.706325 0.047014
outer loop
vertex 0.004669 0.040020 0.024589
vertex -0.040020 -0.004669 0.024589
vertex 0.004775 0.039914 0.027757
endloop
endfacet
facet normal -0.706325 0.706325 0.047015
outer loop
vertex 0.004775 0.039914 0.027757
vertex -0.040020 -0.004669 0.024589
vertex -0.039914 -0.004775 0.027757
endloop
endfacet
facet normal -0.696428 0.696427 0.173137
outer loop
vertex 0.004775 0.039914 0.027757
vertex -0.039914 -0.004775 0.027757
vertex 0.005163 0.039526 0.030882
endloop
endfacet
facet normal -0.696427 0.696429 0.173135
outer loop
vertex 0.005163 0.039526 0.030882
vertex -0.039914 -0.004775 0.027757
vertex -0.039526 -0.005163 0.030882
endloop
endfacet
facet normal -0.675318 0.675316 0.296470
outer loop
vertex 0.005163 0.039526 0.030882
vertex -0.039526 -0.005163 0.030882
vertex 0.005828 0.038861 0.033912
endloop
endfacet
facet normal -0.675316 0.675317 0.296470
outer loop
vertex 0.005828 0.038861 0.033912
vertex -0.039526 -0.005163 0.030882
vertex -0.038861 -0.005828 0.033912
endloop
endfacet
facet normal -0.643331 0.643332 0.415028
outer loop
vertex 0.005828 0.038861 0.033912
vertex -0.038861 -0.005828 0.033912
vertex 0.006759 0.037930 0.036798
endloop
endfacet
facet normal -0.643333 0.643331 0.415029
outer loop
vertex 0.006759 0.037930 0.036798
vertex -0.038861 -0.005828 0.033912
vertex -0.037930 -0.006759 0.036798
endloop
endfacet
facet normal -0.600988 0.600987 0.526904
outer loop
vertex 0.006759 0.037930 0.036798
vertex -0.037930 -0.006759 0.036798
vertex 0.007941 0.036748 0.039494
endloop
endfacet
facet normal -0.600986 0.600988 0.526904
outer loop
vertex 0.007941 0.036748 0.039494
vertex -0.037930 -0.006759 0.036798
vertex -0.036748 -0.007941 0.039494
endloop
endfacet
facet normal -0.548967 0.548965 0.630296
outer loop
vertex 0.007941 0.036748 0.039494
vertex -0.036748 -0.007941 0.039494
vertex 0.009355 0.035334 0.041957
endloop
endfacet
facet normal -0.548965 0.548966 0.630297
outer loop
vertex 0.009355 0.035334 0.041957
vertex -0.036748 -0.007941 0.039494
vertex -0.035334 -0.009355 0.041957
endloop
endfacet
facet normal -0.488107 0.488104 0.723537
outer loop
vertex 0.009355 0.035334 0.041957
vertex -0.035334 -0.009355 0.041957
vertex 0.010978 0.033711 0.044147
endloop
endfacet
facet normal -0.488103 0.488105 0.723539
outer loop
vertex 0.010978 0.033711 0.044147
vertex -0.035334 -0.009355 0.041957
vertex -0.033711 -0.010978 0.044147
endloop
endfacet
facet normal -0.419385 0.419383 0.805130
outer loop
vertex 0.010978 0.033711 0.044147
vertex -0.033711 -0.010978 0.044147
vertex 0.012784 0.031905 0.046028
endloop
endfacet
facet normal -0.419382 0.419384 0.805131
outer loop
vertex 0.012784 0.031905 0.046028
vertex -0.033711 -0.010978 0.044147
vertex -0.031905 -0.012784 0.046028
endloop
endfacet
facet normal -0.343912 0.343910 0.873757
outer loop
vertex 0.012784 0.031905 0.046028
vertex -0.031905 -0.012784 0.046028
vertex 0.014744 0.029945 0.047571
endloop
endfacet
facet normal -0.343908 0.343910 0.873758
outer loop
vertex 0.014744 0.029945 0.047571
vertex -0.031905 -0.012784 0.046028
vertex -0.029945 -0.014744 0.047571
endloop
endfacet
facet normal -0.262899 0.262898 0.928315
outer loop
vertex 0.014744 0.029945 0.047571
vertex -0.029945 -0.014744 0.047571
vertex 0.016826 0.027863 0.048751
endloop
endfacet
facet normal -0.262898 0.262898 0.928315
outer loop
vertex 0.016826 0.027863 0.048751
vertex -0.029945 -0.014744 0.047571
vertex -0.027863 -0.016827 0.048751
endloop
endfacet
facet normal -0.177653 0.177653 0.967925
outer loop
vertex 0.016826 0.027863 0.048751
vertex -0.027863 -0.016827 0.048751
vertex 0.018998 0.025691 0.049548
endloop
endfacet
facet normal -0.177652 0.177653 0.967925
outer loop
vertex 0.018998 0.025691 0.049548
vertex -0.027863 -0.016827 0.048751
vertex -0.025691 -0.018998 0.049548
endloop
endfacet
facet normal -0.089549 0.089548 0.991949
outer loop
vertex 0.018998 0.025691 0.049548
vertex -0.025691 -0.018998 0.049548
vertex 0.021223 0.023466 0.049950
endloop
endfacet
facet normal -0.089547 0.089548 0.991949
outer loop
vertex 0.021223 0.023466 0.049950
vertex -0.025691 -0.018998 0.049548
vertex -0.023466 -0.021223 0.049950
endloop
endfacet
facet normal 0.000000 0.000000 1.000000
outer loop
vertex 0.021223 0.023466 0.049950
vertex -0.023466 -0.021223 0.049950
vertex 0.023466 0.021223 0.049950
endloop
endfacet
facet normal -0.000003 0.000000 1.000000
outer loop
vertex 0.023466 0.021223 0.049950
vertex -0.023466 -0.021223 0.049950
vertex -0.021223 -0.023466 0.049950
endloop
endfacet
facet normal 0.089549 -0.089548 0.991949
outer loop
vertex 0.023466 0.021223 0.049950
vertex -0.021223 -0.023466 0.049950
vertex 0.025691 0.018998 0.049548
endloop
endfacet
facet normal 0.089547 -0.089548 0.991949
outer loop
vertex 0.025691 0.018998 0.049548
vertex -0.021223 -0.023466 0.049950
vertex -0.018998 -0.025691 0.049548
endloop
endfacet
facet normal 0.177653 -0.177653 0.967925
outer loop
vertex 0.025691 0.018998 0.049548
vertex -0.018998 -0.025691 0.049548
vertex 0.027862 0.016827 0.048751
endloop
endfacet
facet normal 0.177654 -0.177653 0.967925
outer loop
vertex 0.027862 0.016827 0.048751
vertex -0.018998 -0.025691 0.049548
vertex -0.016827 -0.027863 0.048751
endloop
endfacet
facet normal 0.262898 -0.262898 0.928315
outer loop
vertex 0.027862 0.016827 0.048751
vertex -0.016827 -0.027863 0.048751
vertex 0.029945 0.014744 0.047571
endloop
endfacet
facet normal 0.262899 -0.262898 0.928315
outer loop
vertex 0.029945 0.014744 0.047571
vertex -0.016827 -0.027863 0.048751
vertex -0.014744 -0.029945 0.047571
endloop
endfacet
facet normal 0.343908 -0.343910 0.873758
outer loop
vertex 0.029945 0.014744 0.047571
vertex -0.014744 -0.029945 0.047571
vertex 0.031905 0.012784 0.046028
endloop
endfacet
facet normal 0.343912 -0.343910 0.873757
outer loop
vertex 0.031905 0.012784 0.046028
vertex -0.014744 -0.029945 0.047571
vertex -0.012784 -0.031905 0.046028
endloop
endfacet
facet normal 0.419381 -0.419384 0.805132
outer loop
vertex 0.031905 0.012784 0.046028
vertex -0.012784 -0.031905 0.046028
vertex 0.033711 0.010978 0.044147
endloop
endfacet
facet normal 0.419384 -0.419384 0.805130
outer loop
vertex 0.033711 0.010978 0.044147
vertex -0.012784 -0.031905 0.046028
vertex -0.010978 -0.033711 0.044147
endloop
endfacet
facet normal 0.488104 -0.488105 0.723539
outer loop
vertex 0.033711 0.010978 0.044147
vertex -0.010978 -0.033711 0.044147
vertex 0.035334 0.009355 0.041957
endloop
endfacet
facet normal 0.488106 -0.488104 0.723538
outer loop
vertex 0.035334 0.009355 0.041957
vertex -0.010978 -0.033711 0.044147
vertex -0.009355 -0.035334 0.041957
endloop
endfacet
facet normal 0.548966 -0.548965 0.630296
outer loop
vertex 0.035334 0.009355 0.041957
vertex -0.009355 -0.035334 0.041957
vertex 0.036748 0.007941 0.039494
endloop
endfacet
facet normal 0.548966 -0.548966 0.630296
outer loop
vertex 0.036748 0.007941 0.039494
vertex -0.009355 -0.035334 0.041957
vertex -0.007941 -0.036748 0.039494
endloop
endfacet
facet normal 0.600987 -0.600988 0.526905
outer loop
vertex 0.036748 0.007941 0.039494
vertex -0.007941 -0.036748 0.039494
vertex 0.037930 0.006759 0.036798
endloop
endfacet
facet normal 0.600988 -0.600988 0.526904
outer loop
vertex 0.037930 0.006759 0.036798
vertex -0.007941 -0.036748 0.039494
vertex -0.006759 -0.037930 0.036798
endloop
endfacet
facet normal 0.643332 -0.643331 0.415028
outer loop
vertex 0.037930 0.006759 0.036798
vertex -0.006759 -0.037930 0.036798
vertex 0.038861 0.005828 0.033912
endloop
endfacet
facet normal 0.643331 -0.643332 0.415028
outer loop
vertex 0.038861 0.005828 0.033912
vertex -0.006759 -0.037930 0.036798
vertex -0.005828 -0.038861 0.033912
endloop
endfacet
facet normal 0.675317 -0.675317 0.296470
outer loop
vertex 0.038861 0.005828 0.033912
vertex -0.005828 -0.038861 0.033912
vertex 0.039526 0.005163 0.030882
endloop
endfacet
facet normal 0.675317 -0.675316 0.296470
outer loop
vertex 0.039526 0.005163 0.030882
vertex -0.005828 -0.038861 0.033912
vertex -0.005163 -0.039526 0.030882
endloop
endfacet
facet normal 0.696428 -0.696428 0.173137
outer loop
vertex 0.039526 0.005163 0.030882
vertex -0.005163 -0.039526 0.030882
vertex 0.039914 0.004775 0.027757
endloop
endfacet
facet normal 0.696428 -0.696428 0.173134
outer loop
vertex 0.039914 0.004775 0.027757
vertex -0.005163 -0.039526 0.030882
vertex -0.004775 -0.039914 0.027757
endloop
endfacet
facet normal 0.706325 -0.706325 0.047015
outer loop
vertex 0.039914 0.004775 0.027757
vertex -0.004775 -0.039914 0.027757
vertex 0.040020 0.004669 0.024589
endloop
endfacet
facet normal 0.706325 -0.706325 0.047016
outer loop
vertex 0.040020 0.004669 0.024589
vertex -0.004775 -0.039914 0.027757
vertex -0.004669 -0.040020 0.024589
endloop
endfacet
facet normal 0.704848 -0.704849 -0.079861
outer loop
vertex 0.040020 0.004669 0.024589
vertex -0.004669 -0.040020 0.024589
vertex 0.039841 0.004848 0.021426
endloop
endfacet
facet normal 0.704849 -0.704848 -0.079860
outer loop
vertex 0.039841 0.004848 0.021426
vertex -0.004669 -0.040020 0.024589
vertex -0.004849 -0.039841 0.021426
endloop
endfacet
facet normal 0.692021 -0.692022 -0.205455
outer loop
vertex 0.039841 0.004848 0.021426
vertex -0.004849 -0.039841 0.021426
vertex 0.039380 0.005309 0.018322
endloop
endfacet
facet normal 0.692022 -0.692022 -0.205455
outer loop
vertex 0.039380 0.005309 0.018322
vertex -0.004849 -0.039841 0.021426
vertex -0.005309 -0.039380 0.018322
endloop
endfacet
facet normal 0.668053 -0.668052 -0.327737
outer loop
vertex 0.039380 0.005309 0.018322
vertex -0.005309 -0.039380 0.018322
vertex 0.038645 0.006045 0.015324
endloop
endfacet
facet normal 0.668052 -0.668053 -0.327737
outer loop
vertex 0.038645 0.006045 0.015324
vertex -0.005309 -0.039380 0.018322
vertex -0.006045 -0.038645 0.015324
endloop
endfacet
facet normal 0.633326 -0.633326 -0.444743
outer loop
vertex 0.038645 0.006045 0.015324
vertex -0.006045 -0.038645 0.015324
vertex 0.037647 0.007042 0.012483
endloop
endfacet
facet normal 0.633326 -0.633325 -0.444745
outer loop
vertex 0.037647 0.007042 0.012483
vertex -0.006045 -0.038645 0.015324
vertex -0.007042 -0.037647 0.012483
endloop
endfacet
facet normal 0.588400 -0.588401 -0.554589
outer loop
vertex 0.037647 0.007042 0.012483
vertex -0.007042 -0.037647 0.012483
vertex 0.036403 0.008286 0.009843
endloop
endfacet
facet normal 0.588401 -0.588401 -0.554588
outer loop
vertex 0.036403 0.008286 0.009843
vertex -0.007042 -0.037647 0.012483
vertex -0.008286 -0.036403 0.009843
endloop
endfacet
facet normal 0.534002 -0.534002 -0.655503
outer loop
vertex 0.036403 0.008286 0.009843
vertex -0.008286 -0.036403 0.009843
vertex 0.034932 0.009757 0.007448
endloop
endfacet
facet normal 0.534002 -0.534002 -0.655503
outer loop
vertex 0.034932 0.009757 0.007448
vertex -0.008286 -0.036403 0.009843
vertex -0.009757 -0.034932 0.007448
endloop
endfacet
facet normal 0.471004 -0.471004 -0.745862
outer loop
vertex 0.034932 0.009757 0.007448
vertex -0.009757 -0.034932 0.007448
vertex 0.033259 0.011430 0.005334
endloop
endfacet
facet normal 0.471004 -0.471004 -0.745862
outer loop
vertex 0.033259 0.011430 0.005334
vertex -0.009757 -0.034932 0.007448
vertex -0.011430 -0.033259 0.005334
endloop
endfacet
facet normal 0.400421 -0.400421 -0.824212
outer loop
vertex 0.033259 0.011430 0.005334
vertex -0.011430 -0.033259 0.005334
vertex 0.031410 0.013279 0.003538
endloop
endfacet
facet normal -0.588401 0.588401 -0.554589
outer loop
vertex 0.051731 0.082336 0.012483
vertex 0.052975 0.081092 0.009843
vertex 0.008286 0.036403 0.009843
endloop
endfacet
facet normal -0.534002 0.534002 -0.655503
outer loop
vertex 0.008286 0.036403 0.009843
vertex 0.052975 0.081092 0.009843
vertex 0.009757 0.034933 0.007448
endloop
endfacet
facet normal -0.588400 0.588400 -0.554590
outer loop
vertex 0.051731 0.082336 0.012483
vertex 0.008286 0.036403 0.009843
vertex 0.007042 0.037647 0.012483
endloop
endfacet
facet normal -0.633327 0.633327 -0.444740
outer loop
vertex 0.050734 0.083334 0.015324
vertex 0.051731 0.082336 0.012483
vertex 0.007042 0.037647 0.012483
endloop
endfacet
facet normal -0.633326 0.633325 -0.444744
outer loop
vertex 0.050734 0.083334 0.015324
vertex 0.007042 0.037647 0.012483
vertex 0.006044 0.038645 0.015324
endloop
endfacet
facet normal -0.668052 0.668052 -0.327740
outer loop
vertex 0.049998 0.084069 0.018322
vertex 0.050734 0.083334 0.015324
vertex 0.006044 0.038645 0.015324
endloop
endfacet
facet normal -0.668053 0.668052 -0.327737
outer loop
vertex 0.049998 0.084069 0.018322
vertex 0.006044 0.038645 0.015324
vertex 0.005309 0.039380 0.018322
endloop
endfacet
facet normal -0.692022 0.692022 -0.205454
outer loop
vertex 0.049537 0.084530 0.021426
vertex 0.049998 0.084069 0.018322
vertex 0.005309 0.039380 0.018322
endloop
endfacet
facet normal -0.692021 0.692022 -0.205455
outer loop
vertex 0.049537 0.084530 0.021426
vertex 0.005309 0.039380 0.018322
vertex 0.004848 0.039841 0.021426
endloop
endfacet
facet normal -0.704848 0.704848 -0.079859
outer loop
vertex 0.049358 0.084709 0.024589
vertex 0.049537 0.084530 0.021426
vertex 0.004848 0.039841 0.021426
endloop
endfacet
facet normal -0.704849 0.704848 -0.079858
outer loop
vertex 0.049358 0.084709 0.024589
vertex 0.004848 0.039841 0.021426
vertex 0.004669 0.040020 0.024589
endloop
endfacet
facet normal -0.706325 0.706325 0.047016
outer loop
vertex 0.049464 0.084604 0.027757
vertex 0.049358 0.084709 0.024589
vertex 0.004669 0.040020 0.024589
endloop
endfacet
facet normal -0.706325 0.706325 0.047011
outer loop
vertex 0.049464 0.084604 0.027757
vertex 0.004669 0.040020 0.024589
vertex 0.004775 0.039914 0.027757
endloop
endfacet
facet normal -0.696428 0.696428 0.173138
outer loop
vertex 0.049852 0.084215 0.030882
vertex 0.049464 0.084604 0.027757
vertex 0.004775 0.039914 0.027757
endloop
endfacet
facet normal -0.696428 0.696428 0.173137
outer loop
vertex 0.049852 0.084215 0.030882
vertex 0.004775 0.039914 0.027757
vertex 0.005163 0.039526 0.030882
endloop
endfacet
facet normal -0.675317 0.675317 0.296469
outer loop
vertex 0.050517 0.083550 0.033912
vertex 0.049852 0.084215 0.030882
vertex 0.005163 0.039526 0.030882
endloop
endfacet
facet normal -0.675317 0.675317 0.296469
outer loop
vertex 0.050517 0.083550 0.033912
vertex 0.005163 0.039526 0.030882
vertex 0.005828 0.038861 0.033912
endloop
endfacet
facet normal -0.643331 0.643332 0.415029
outer loop
vertex 0.051448 0.082619 0.036798
vertex 0.050517 0.083550 0.033912
vertex 0.005828 0.038861 0.033912
endloop
endfacet
facet normal -0.643333 0.643332 0.415026
outer loop
vertex 0.051448 0.082619 0.036798
vertex 0.005828 0.038861 0.033912
vertex 0.006759 0.037930 0.036798
endloop
endfacet
facet normal -0.600988 0.600986 0.526906
outer loop
vertex 0.052630 0.081437 0.039494
vertex 0.051448 0.082619 0.036798
vertex 0.006759 0.037930 0.036798
endloop
endfacet
facet normal -0.600987 0.600988 0.526905
outer loop
vertex 0.052630 0.081437 0.039494
vertex 0.006759 0.037930 0.036798
vertex 0.007941 0.036748 0.039494
endloop
endfacet
facet normal -0.548965 0.548966 0.630297
outer loop
vertex 0.054044 0.080023 0.041957
vertex 0.052630 0.081437 0.039494
vertex 0.007941 0.036748 0.039494
endloop
endfacet
facet normal -0.548966 0.548966 0.630295
outer loop
vertex 0.054044 0.080023 0.041957
vertex 0.007941 0.036748 0.039494
vertex 0.009355 0.035334 0.041957
endloop
endfacet
facet normal -0.488104 0.488104 0.723539
outer loop
vertex 0.055667 0.078400 0.044147
vertex 0.054044 0.080023 0.041957
vertex 0.009355 0.035334 0.041957
endloop
endfacet
facet normal -0.488104 0.488105 0.723538
outer loop
vertex 0.055667 0.078400 0.044147
vertex 0.009355 0.035334 0.041957
vertex 0.010978 0.033711 0.044147
endloop
endfacet
facet normal -0.419385 0.419384 0.805129
outer loop
vertex 0.057473 0.076594 0.046028
vertex 0.055667 0.078400 0.044147
vertex 0.010978 0.033711 0.044147
endloop
endfacet
facet normal -0.419380 0.419383 0.805132
outer loop
vertex 0.057473 0.076594 0.046028
vertex 0.010978 0.033711 0.044147
vertex 0.012784 0.031905 0.046028
endloop
endfacet
facet normal -0.343913 0.343910 0.873756
outer loop
vertex 0.059433 0.074634 0.047571
vertex 0.057473 0.076594 0.046028
vertex 0.012784 0.031905 0.046028
endloop
endfacet
facet normal -0.343909 0.343910 0.873757
outer loop
vertex 0.059433 0.074634 0.047571
vertex 0.012784 0.031905 0.046028
vertex 0.014744 0.029945 0.047571
endloop
endfacet
facet normal -0.262898 0.262897 0.928315
outer loop
vertex 0.061516 0.072552 0.048751
vertex 0.059433 0.074634 0.047571
vertex 0.014744 0.029945 0.047571
endloop
endfacet
facet normal -0.262898 0.262898 0.928315
outer loop
vertex 0.061516 0.072552 0.048751
vertex 0.014744 0.029945 0.047571
vertex 0.016826 0.027863 0.048751
endloop
endfacet
facet normal -0.177653 0.177653 0.967925
outer loop
vertex 0.063687 0.070381 0.049548
vertex 0.061516 0.072552 0.048751
vertex 0.016826 0.027863 0.048751
endloop
endfacet
facet normal -0.177654 0.177653 0.967925
outer loop
vertex 0.063687 0.070381 0.049548
vertex 0.016826 0.027863 0.048751
vertex 0.018998 0.025691 0.049548
endloop
endfacet
facet normal -0.089547 0.089548 0.991949
outer loop
vertex 0.065912 0.068155 0.049950
vertex 0.063687 0.070381 0.049548
vertex 0.018998 0.025691 0.049548
endloop
endfacet
facet normal -0.089547 0.089548 0.991949
outer loop
vertex 0.065912 0.068155 0.049950
vertex 0.018998 0.025691 0.049548
vertex 0.021223 0.023466 0.049950
endloop
endfacet
facet normal 0.000000 0.000000 1.000000
outer loop
vertex 0.068155 0.065912 0.049950
vertex 0.065912 0.068155 0.049950
vertex 0.021223 0.023466 0.049950
endloop
endfacet
facet normal -0.000001 0.000000 1.000000
outer loop
vertex 0.068155 0.065912 0.049950
vertex 0.021223 0.023466 0.049950
vertex 0.023466 0.021223 0.049950
endloop
endfacet
facet normal 0.089549 -0.089548 0.991949
outer loop
vertex 0.070380 0.063687 0.049548
vertex 0.068155 0.065912 0.049950
vertex 0.023466 0.021223 0.049950
endloop
endfacet
facet normal 0.089548 -0.089548 0.991949
outer loop
vertex 0.070380 0.063687 0.049548
vertex 0.023466 0.021223 0.049950
vertex 0.025691 0.018998 0.049548
endloop
endfacet
facet normal 0.177651 -0.177653 0.967925
outer loop
vertex 0.072552 0.061516 0.048751
vertex 0.070380 0.063687 0.049548
vertex 0.025691 0.018998 0.049548
endloop
endfacet
facet normal 0.177654 -0.177653 0.967925
outer loop
vertex 0.072552 0.061516 0.048751
vertex 0.025691 0.018998 0.049548
vertex 0.027862 0.016827 0.048751
endloop
endfacet
facet normal 0.262898 -0.262898 0.928315
outer loop
vertex 0.074634 0.059433 0.047571
vertex 0.072552 0.061516 0.048751
vertex 0.027862 0.016827 0.048751
endloop
endfacet
facet normal 0.262899 -0.262897 0.928315
outer loop
vertex 0.074634 0.059433 0.047571
vertex 0.027862 0.016827 0.048751
vertex 0.029945 0.014744 0.047571
endloop
endfacet
facet normal 0.343908 -0.343910 0.873758
outer loop
vertex 0.076594 0.057473 0.046028
vertex 0.074634 0.059433 0.047571
vertex 0.029945 0.014744 0.047571
endloop
endfacet
facet normal 0.343912 -0.343910 0.873757
outer loop
vertex 0.076594 0.057473 0.046028
vertex 0.029945 0.014744 0.047571
vertex 0.031905 0.012784 0.046028
endloop
endfacet
facet normal 0.419380 -0.419384 0.805132
outer loop
vertex 0.078400 0.055667 0.044147
vertex 0.076594 0.057473 0.046028
vertex 0.031905 0.012784 0.046028
endloop
endfacet
facet normal 0.419384 -0.419383 0.805130
outer loop
vertex 0.078400 0.055667 0.044147
vertex 0.031905 0.012784 0.046028
vertex 0.033711 0.010978 0.044147
endloop
endfacet
facet normal 0.488104 -0.488105 0.723538
outer loop
vertex 0.080023 0.054044 0.041957
vertex 0.078400 0.055667 0.044147
vertex 0.033711 0.010978 0.044147
endloop
endfacet
facet normal 0.488106 -0.488104 0.723538
outer loop
vertex 0.080023 0.054044 0.041957
vertex 0.033711 0.010978 0.044147
vertex 0.035334 0.009355 0.041957
endloop
endfacet
facet normal 0.548965 -0.548966 0.630296
outer loop
vertex 0.081437 0.052630 0.039494
vertex 0.080023 0.054044 0.041957
vertex 0.035334 0.009355 0.041957
endloop
endfacet
facet normal 0.548965 -0.548966 0.630297
outer loop
vertex 0.081437 0.052630 0.039494
vertex 0.035334 0.009355 0.041957
vertex 0.036748 0.007941 0.039494
endloop
endfacet
facet normal 0.600987 -0.600988 0.526905
outer loop
vertex 0.082619 0.051448 0.036798
vertex 0.081437 0.052630 0.039494
vertex 0.036748 0.007941 0.039494
endloop
endfacet
facet normal 0.600988 -0.600987 0.526905
outer loop
vertex 0.082619 0.051448 0.036798
vertex 0.036748 0.007941 0.039494
vertex 0.037930 0.006759 0.036798
endloop
endfacet
facet normal 0.643332 -0.643331 0.415028
outer loop
vertex 0.083550 0.050517 0.033912
vertex 0.082619 0.051448 0.036798
vertex 0.037930 0.006759 0.036798
endloop
endfacet
facet normal 0.643331 -0.643332 0.415029
outer loop
vertex 0.083550 0.050517 0.033912
vertex 0.037930 0.006759 0.036798
vertex 0.038861 0.005828 0.033912
endloop
endfacet
facet normal 0.675317 -0.675317 0.296468
outer loop
vertex 0.084215 0.049852 0.030882
vertex 0.083550 0.050517 0.033912
vertex 0.038861 0.005828 0.033912
endloop
endfacet
facet normal 0.675317 -0.675316 0.296470
outer loop
vertex 0.084215 0.049852 0.030882
vertex 0.038861 0.005828 0.033912
vertex 0.039526 0.005163 0.030882
endloop
endfacet
facet normal 0.696428 -0.696428 0.173137
outer loop
vertex 0.084603 0.049464 0.027757
vertex 0.084215 0.049852 0.030882
vertex 0.039526 0.005163 0.030882
endloop
endfacet
facet normal 0.696428 -0.696428 0.173135
outer loop
vertex 0.084603 0.049464 0.027757
vertex 0.039526 0.005163 0.030882
vertex 0.039914 0.004775 0.027757
endloop
endfacet
facet normal 0.706325 -0.706325 0.047015
outer loop
vertex 0.084709 0.049358 0.024589
vertex 0.084603 0.049464 0.027757
vertex 0.039914 0.004775 0.027757
endloop
endfacet
facet normal 0.706325 -0.706325 0.047015
outer loop
vertex 0.084709 0.049358 0.024589
vertex 0.039914 0.004775 0.027757
vertex 0.040020 0.004669 0.024589
endloop
endfacet
facet normal 0.704848 -0.704848 -0.079859
outer loop
vertex 0.084530 0.049538 0.021426
vertex 0.084709 0.049358 0.024589
vertex 0.040020 0.004669 0.024589
endloop
endfacet
facet normal 0.704848 -0.704849 -0.079859
outer loop
vertex 0.084530 0.049538 0.021426
vertex 0.040020 0.004669 0.024589
vertex 0.039841 0.004848 0.021426
endloop
endfacet
facet normal 0.692022 -0.692022 -0.205454
outer loop
vertex 0.084069 0.049999 0.018322
vertex 0.084530 0.049538 0.021426
vertex 0.039841 0.004848 0.021426
endloop
endfacet
facet normal 0.692022 -0.692022 -0.205455
outer loop
vertex 0.084069 0.049999 0.018322
vertex 0.039841 0.004848 0.021426
vertex 0.039380 0.005309 0.018322
endloop
endfacet
facet normal 0.668053 -0.668052 -0.327738
outer loop
vertex 0.083334 0.050734 0.015324
vertex 0.084069 0.049999 0.018322
vertex 0.039380 0.005309 0.018322
endloop
endfacet
facet normal 0.668052 -0.668053 -0.327737
outer loop
vertex 0.083334 0.050734 0.015324
vertex 0.039380 0.005309 0.018322
vertex 0.038645 0.006045 0.015324
endloop
endfacet
facet normal 0.633326 -0.633326 -0.444743
outer loop
vertex 0.082336 0.051731 0.012483
vertex 0.083334 0.050734 0.015324
vertex 0.038645 0.006045 0.015324
endloop
endfacet
facet normal 0.633326 -0.633326 -0.444744
outer loop
vertex 0.082336 0.051731 0.012483
vertex 0.038645 0.006045 0.015324
vertex 0.037647 0.007042 0.012483
endloop
endfacet
facet normal 0.588400 -0.588401 -0.554590
outer loop
vertex 0.081092 0.052975 0.009843
vertex 0.082336 0.051731 0.012483
vertex 0.037647 0.007042 0.012483
endloop
endfacet
facet normal 0.588401 -0.588401 -0.554589
outer loop
vertex 0.081092 0.052975 0.009843
vertex 0.037647 0.007042 0.012483
vertex 0.036403 0.008286 0.009843
endloop
endfacet
facet normal 0.534002 -0.534002 -0.655502
outer loop
vertex 0.079622 0.054446 0.007448
vertex 0.081092 0.052975 0.009843
vertex 0.036403 0.008286 0.009843
endloop
endfacet
facet normal 0.534002 -0.534002 -0.655503
outer loop
vertex 0.079622 0.054446 0.007448
vertex 0.036403 0.008286 0.009843
vertex 0.034932 0.009757 0.007448
endloop
endfacet
facet normal 0.471005 -0.471004 -0.745862
outer loop
vertex 0.077948 0.056119 0.005334
vertex 0.079622 0.054446 0.007448
vertex 0.034932 0.009757 0.007448
endloop
endfacet
facet normal 0.471004 -0.471004 -0.745863
outer loop
vertex 0.077948 0.056119 0.005334
vertex 0.034932 0.009757 0.007448
vertex 0.033259 0.011430 0.005334
endloop
endfacet
facet normal 0.400421 -0.400421 -0.824212
outer loop
vertex 0.076100 0.057968 0.003538
vertex 0.077948 0.056119 0.005334
vertex 0.033259 0.011430 0.005334
endloop
endfacet
facet normal 0.400421 -0.400421 -0.824212
outer loop
vertex 0.076100 0.057968 0.003538
vertex 0.033259 0.011430 0.005334
vertex 0.031410 0.013279 0.003538
endloop
endfacet
facet normal -0.707107 0.707107 0.000000
outer loop
vertex -0.118794 -0.104652 -0.000000
vertex -0.118794 -0.104652 0.002087
vertex 0.104652 0.118794 -0.000000
endloop
endfacet
facet normal -0.707107 0.707107 0.000000
outer loop
vertex 0.104652 0.118794 -0.000000
vertex -0.118794 -0.104652 0.002087
vertex 0.104652 0.118794 0.002087
endloop
endfacet
facet normal 0.707107 0.707107 0.000000
outer loop
vertex 0.104652 0.118794 -0.000000
vertex 0.104652 0.118794 0.002087
vertex 0.118794 0.104652 -0.000000
endloop
endfacet
facet normal 0.707107 0.707106 0.000000
outer loop
vertex 0.118794 0.104652 -0.000000
vertex 0.104652 0.118794 0.002087
vertex 0.118794 0.104652 0.002087
endloop
endfacet
facet normal 0.707107 0.707106 0.000008
outer loop
vertex 0.118794 0.104652 0.002087
vertex 0.104652 0.118794 0.002087
vertex 0.120789 0.102657 0.003538
endloop
endfacet
facet normal 0.707107 0.707107 -0.000005
outer loop
vertex 0.120789 0.102657 0.003538
vertex 0.104652 0.118794 0.002087
vertex 0.102657 0.120789 0.003538
endloop
endfacet
facet normal 0.707107 0.707107 0.000000
outer loop
vertex 0.120789 0.102657 0.003538
vertex 0.102657 0.120789 0.003538
vertex 0.122638 0.100808 0.005334
endloop
endfacet
facet normal 0.707107 0.707107 -0.000004
outer loop
vertex 0.122638 0.100808 0.005334
vertex 0.102657 0.120789 0.003538
vertex 0.100808 0.122638 0.005334
endloop
endfacet
facet normal 0.707107 0.707107 0.000000
outer loop
vertex 0.122638 0.100808 0.005334
vertex 0.100808 0.122638 0.005334
vertex 0.124311 0.099135 0.007448
endloop
endfacet
facet normal 0.707107 0.707107 0.000001
outer loop
vertex 0.124311 0.099135 0.007448
vertex 0.100808 0.122638 0.005334
vertex 0.099135 0.124311 0.007448
endloop
endfacet
facet normal 0.707107 0.707106 -0.000005
outer loop
vertex 0.124311 0.099135 0.007448
vertex 0.099135 0.124311 0.007448
vertex 0.125781 0.097665 0.009843
endloop
endfacet
facet normal 0.707107 0.707107 0.000004
outer loop
vertex 0.125781 0.097665 0.009843
vertex 0.099135 0.124311 0.007448
vertex 0.097664 0.125781 0.009843
endloop
endfacet
facet normal 0.707106 0.707107 -0.000004
outer loop
vertex 0.125781 0.097665 0.009843
vertex 0.097664 0.125781 0.009843
vertex 0.127025 0.096420 0.012483
endloop
endfacet
facet normal 0.707107 0.707107 0.000005
outer loop
vertex 0.127025 0.096420 0.012483
vertex 0.097664 0.125781 0.009843
vertex 0.096420 0.127025 0.012483
endloop
endfacet
facet normal 0.707107 0.707107 -0.000004
outer loop
vertex 0.127025 0.096420 0.012483
vertex 0.096420 0.127025 0.012483
vertex 0.128023 0.095423 0.015324
endloop
endfacet
facet normal 0.707107 0.707106 -0.000001
outer loop
vertex 0.128023 0.095423 0.015324
vertex 0.096420 0.127025 0.012483
vertex 0.095423 0.128023 0.015324
endloop
endfacet
facet normal 0.707107 0.707107 -0.000003
outer loop
vertex 0.128023 0.095423 0.015324
vertex 0.095423 0.128023 0.015324
vertex 0.128758 0.094688 0.018322
endloop
endfacet
facet normal 0.707107 0.707107 0.000000
outer loop
vertex 0.128758 0.094688 0.018322
vertex 0.095423 0.128023 0.015324
vertex 0.094688 0.128758 0.018322
endloop
endfacet
facet normal 0.707107 0.707107 0.000003
outer loop
vertex 0.128758 0.094688 0.018322
vertex 0.094688 0.128758 0.018322
vertex 0.129219 0.094227 0.021426
endloop
endfacet
facet normal 0.707107 0.707107 -0.000002
outer loop
vertex 0.129219 0.094227 0.021426
vertex 0.094688 0.128758 0.018322
vertex 0.094227 0.129219 0.021426
endloop
endfacet
facet normal 0.707106 0.707107 0.000000
outer loop
vertex 0.129219 0.094227 0.021426
vertex 0.094227 0.129219 0.021426
vertex 0.129398 0.094048 0.024589
endloop
endfacet
facet normal 0.707107 0.707106 0.000003
outer loop
vertex 0.129398 0.094048 0.024589
vertex 0.094227 0.129219 0.021426
vertex 0.094047 0.129398 0.024589
endloop
endfacet
facet normal 0.707107 0.707107 0.000000
outer loop
vertex 0.129398 0.094048 0.024589
vertex 0.094047 0.129398 0.024589
vertex 0.129293 0.094153 0.027757
endloop
endfacet
facet normal 0.707107 0.707107 -0.000007
outer loop
vertex 0.129293 0.094153 0.027757
vertex 0.094047 0.129398 0.024589
vertex 0.094153 0.129293 0.027757
endloop
endfacet
facet normal 0.707107 0.707106 0.000006
outer loop
vertex 0.129293 0.094153 0.027757
vertex 0.094153 0.129293 0.027757
vertex 0.128904 0.094541 0.030882
endloop
endfacet
facet normal 0.707106 0.707107 0.000001
outer loop
vertex 0.128904 0.094541 0.030882
vertex 0.094153 0.129293 0.027757
vertex 0.094541 0.128904 0.030882
endloop
endfacet
facet normal 0.707107 0.707107 -0.000003
outer loop
vertex 0.128904 0.094541 0.030882
vertex 0.094541 0.128904 0.030882
vertex 0.128239 0.095207 0.033912
endloop
endfacet
facet normal 0.707107 0.707107 -0.000001
outer loop
vertex 0.128239 0.095207 0.033912
vertex 0.094541 0.128904 0.030882
vertex 0.095206 0.128239 0.033912
endloop
endfacet
facet normal 0.707106 0.707107 0.000003
outer loop
vertex 0.128239 0.095207 0.033912
vertex 0.095206 0.128239 0.033912
vertex 0.127308 0.096138 0.036798
endloop
endfacet
facet normal 0.707108 0.707106 0.000006
outer loop
vertex 0.127308 0.096138 0.036798
vertex 0.095206 0.128239 0.033912
vertex 0.096137 0.127308 0.036798
endloop
endfacet
facet normal 0.707107 0.707107 -0.000004
outer loop
vertex 0.127308 0.096138 0.036798
vertex 0.096137 0.127308 0.036798
vertex 0.126126 0.097319 0.039494
endloop
endfacet
facet normal 0.707106 0.707107 0.000000
outer loop
vertex 0.126126 0.097319 0.039494
vertex 0.096137 0.127308 0.036798
vertex 0.097319 0.126126 0.039494
endloop
endfacet
facet normal 0.707107 0.707106 -0.000005
outer loop
vertex 0.126126 0.097319 0.039494
vertex 0.097319 0.126126 0.039494
vertex 0.124712 0.098733 0.041957
endloop
endfacet
facet normal 0.707106 0.707107 0.000006
outer loop
vertex 0.124712 0.098733 0.041957
vertex 0.097319 0.126126 0.039494
vertex 0.098733 0.124712 0.041957
endloop
endfacet
facet normal 0.707108 0.707106 0.000000
outer loop
vertex 0.124712 0.098733 0.041957
vertex 0.098733 0.124712 0.041957
vertex 0.123089 0.100356 0.044147
endloop
endfacet
facet normal 0.707105 0.707109 -0.000003
outer loop
vertex 0.123089 0.100356 0.044147
vertex 0.098733 0.124712 0.041957
vertex 0.100356 0.123089 0.044147
endloop
endfacet
facet normal 0.707108 0.707105 0.000000
outer loop
vertex 0.123089 0.100356 0.044147
vertex 0.100356 0.123089 0.044147
vertex 0.121283 0.102162 0.046028
endloop
endfacet
facet normal 0.707106 0.707108 0.000003
outer loop
vertex 0.121283 0.102162 0.046028
vertex 0.100356 0.123089 0.044147
vertex 0.102162 0.121283 0.046028
endloop
endfacet
facet normal 0.707108 0.707106 -0.000006
outer loop
vertex 0.121283 0.102162 0.046028
vertex 0.102162 0.121283 0.046028
vertex 0.119323 0.104122 0.047571
endloop
endfacet
facet normal 0.707106 0.707108 0.000000
outer loop
vertex 0.119323 0.104122 0.047571
vertex 0.102162 0.121283 0.046028
vertex 0.104122 0.119323 0.047571
endloop
endfacet
facet normal 0.707107 0.707106 0.000000
outer loop
vertex 0.119323 0.104122 0.047571
vertex 0.104122 0.119323 0.047571
vertex 0.117241 0.106205 0.048751
endloop
endfacet
facet normal 0.707108 0.707105 0.000009
outer loop
vertex 0.117241 0.106205 0.048751
vertex 0.104122 0.119323 0.047571
vertex 0.106205 0.117241 0.048751
endloop
endfacet
facet normal 0.707105 0.707109 -0.000019
outer loop
vertex 0.117241 0.106205 0.048751
vertex 0.106205 0.117241 0.048751
vertex 0.115070 0.108376 0.049548
endloop
endfacet
facet normal 0.707107 0.707107 0.000008
outer loop
vertex 0.115070 0.108376 0.049548
vertex 0.106205 0.117241 0.048751
vertex 0.108376 0.115070 0.049548
endloop
endfacet
facet normal 0.707110 0.707104 0.000000
outer loop
vertex 0.115070 0.108376 0.049548
vertex 0.108376 0.115070 0.049548
vertex 0.112844 0.110601 0.049950
endloop
endfacet
facet normal 0.707104 0.707110 0.000000
outer loop
vertex 0.112844 0.110601 0.049950
vertex 0.108376 0.115070 0.049548
vertex 0.110601 0.112845 0.049950
endloop
endfacet
facet normal -0.707107 -0.707107 0.000000
outer loop
vertex -0.118794 -0.104652 -0.000000
vertex -0.104652 -0.118794 -0.000000
vertex -0.118794 -0.104652 0.002087
endloop
endfacet
facet normal -0.707107 -0.707107 0.000000
outer loop
vertex -0.118794 -0.104652 0.002087
vertex -0.104652 -0.118794 -0.000000
vertex -0.104652 -0.118794 0.002087
endloop
endfacet
facet normal -0.707106 -0.707107 0.000007
outer loop
vertex -0.118794 -0.104652 0.002087
vertex -0.104652 -0.118794 0.002087
vertex -0.102657 -0.120789 0.003538
endloop
endfacet
facet normal -0.707107 -0.707107 -0.000013
outer loop
vertex -0.118794 -0.104652 0.002087
vertex -0.102657 -0.120789 0.003538
vertex -0.120789 -0.102657 0.003538
endloop
endfacet
facet normal -0.707107 -0.707107 0.000008
outer loop
vertex -0.120789 -0.102657 0.003538
vertex -0.102657 -0.120789 0.003538
vertex -0.100808 -0.122638 0.005334
endloop
endfacet
facet normal -0.707107 -0.707107 0.000000
outer loop
vertex -0.120789 -0.102657 0.003538
vertex -0.100808 -0.122638 0.005334
vertex -0.122638 -0.100808 0.005334
endloop
endfacet
facet normal -0.707107 -0.707106 -0.000003
outer loop
vertex -0.122638 -0.100808 0.005334
vertex -0.100808 -0.122638 0.005334
vertex -0.099135 -0.124311 0.007448
endloop
endfacet
facet normal -0.707107 -0.707107 0.000006
outer loop
vertex -0.122638 -0.100808 0.005334
vertex -0.099135 -0.124311 0.007448
vertex -0.124311 -0.099135 0.007448
endloop
endfacet
facet normal -0.707107 -0.707107 -0.000003
outer loop
vertex -0.124311 -0.099135 0.007448
vertex -0.099135 -0.124311 0.007448
vertex -0.097665 -0.125781 0.009843
endloop
endfacet
facet normal -0.707107 -0.707107 0.000000
outer loop
vertex -0.124311 -0.099135 0.007448
vertex -0.097665 -0.125781 0.009843
vertex -0.125781 -0.097664 0.009843
endloop
endfacet
facet normal -0.707107 -0.707106 -0.000002
outer loop
vertex -0.125781 -0.097664 0.009843
vertex -0.097665 -0.125781 0.009843
vertex -0.096421 -0.127025 0.012483
endloop
endfacet
facet normal -0.707107 -0.707107 0.000004
outer loop
vertex -0.125781 -0.097664 0.009843
vertex -0.096421 -0.127025 0.012483
vertex -0.127025 -0.096420 0.012483
endloop
endfacet
facet normal -0.707107 -0.707107 -0.000003
outer loop
vertex -0.127025 -0.096420 0.012483
vertex -0.096421 -0.127025 0.012483
vertex -0.095423 -0.128023 0.015324
endloop
endfacet
facet normal -0.707107 -0.707107 0.000000
outer loop
vertex -0.127025 -0.096420 0.012483
vertex -0.095423 -0.128023 0.015324
vertex -0.128023 -0.095423 0.015324
endloop
endfacet
facet normal -0.707107 -0.707107 0.000003
outer loop
vertex -0.128023 -0.095423 0.015324
vertex -0.095423 -0.128023 0.015324
vertex -0.094688 -0.128758 0.018322
endloop
endfacet
facet normal -0.707107 -0.707107 0.000000
outer loop
vertex -0.128023 -0.095423 0.015324
vertex -0.094688 -0.128758 0.018322
vertex -0.128758 -0.094688 0.018322
endloop
endfacet
facet normal -0.707107 -0.707106 0.000003
outer loop
vertex -0.128758 -0.094688 0.018322
vertex -0.094688 -0.128758 0.018322
vertex -0.094227 -0.129219 0.021426
endloop
endfacet
facet normal -0.707106 -0.707107 -0.000006
outer loop
vertex -0.128758 -0.094688 0.018322
vertex -0.094227 -0.129219 0.021426
vertex -0.129219 -0.094227 0.021426
endloop
endfacet
facet normal -0.707107 -0.707107 0.000003
outer loop
vertex -0.129219 -0.094227 0.021426
vertex -0.094227 -0.129219 0.021426
vertex -0.094048 -0.129398 0.024589
endloop
endfacet
facet normal -0.707107 -0.707106 -0.000006
outer loop
vertex -0.129219 -0.094227 0.021426
vertex -0.094048 -0.129398 0.024589
vertex -0.129398 -0.094048 0.024589
endloop
endfacet
facet normal -0.707107 -0.707107 0.000005
outer loop
vertex -0.129398 -0.094048 0.024589
vertex -0.094048 -0.129398 0.024589
vertex -0.094153 -0.129293 0.027757
endloop
endfacet
facet normal -0.707107 -0.707107 0.000000
outer loop
vertex -0.129398 -0.094048 0.024589
vertex -0.094153 -0.129293 0.027757
vertex -0.129293 -0.094153 0.027757
endloop
endfacet
facet normal -0.707107 -0.707107 -0.000002
outer loop
vertex -0.129293 -0.094153 0.027757
vertex -0.094153 -0.129293 0.027757
vertex -0.094542 -0.128904 0.030882
endloop
endfacet
facet normal -0.707106 -0.707107 0.000000
outer loop
vertex -0.129293 -0.094153 0.027757
vertex -0.094542 -0.128904 0.030882
vertex -0.128904 -0.094541 0.030882
endloop
endfacet
facet normal -0.707107 -0.707106 0.000003
outer loop
vertex -0.128904 -0.094541 0.030882
vertex -0.094542 -0.128904 0.030882
vertex -0.095207 -0.128239 0.033912
endloop
endfacet
facet normal -0.707107 -0.707107 0.000000
outer loop
vertex -0.128904 -0.094541 0.030882
vertex -0.095207 -0.128239 0.033912
vertex -0.128239 -0.095206 0.033912
endloop
endfacet
facet normal -0.707106 -0.707107 0.000000
outer loop
vertex -0.128239 -0.095206 0.033912
vertex -0.095207 -0.128239 0.033912
vertex -0.096138 -0.127308 0.036798
endloop
endfacet
facet normal -0.707107 -0.707106 0.000000
outer loop
vertex -0.128239 -0.095206 0.033912
vertex -0.096138 -0.127308 0.036798
vertex -0.127308 -0.096137 0.036798
endloop
endfacet
facet normal -0.707107 -0.707107 -0.000002
outer loop
vertex -0.127308 -0.096137 0.036798
vertex -0.096138 -0.127308 0.036798
vertex -0.097320 -0.126126 0.039494
endloop
endfacet
facet normal -0.707107 -0.707107 0.000000
outer loop
vertex -0.127308 -0.096137 0.036798
vertex -0.097320 -0.126126 0.039494
vertex -0.126126 -0.097319 0.039494
endloop
endfacet
facet normal -0.707106 -0.707107 0.000003
outer loop
vertex -0.126126 -0.097319 0.039494
vertex -0.097320 -0.126126 0.039494
vertex -0.098733 -0.124712 0.041957
endloop
endfacet
facet normal -0.707106 -0.707107 0.000000
outer loop
vertex -0.126126 -0.097319 0.039494
vertex -0.098733 -0.124712 0.041957
vertex -0.124713 -0.098733 0.041957
endloop
endfacet
facet normal -0.707109 -0.707105 0.000000
outer loop
vertex -0.124713 -0.098733 0.041957
vertex -0.098733 -0.124712 0.041957
vertex -0.100356 -0.123089 0.044147
endloop
endfacet
facet normal -0.707104 -0.707110 0.000000
outer loop
vertex -0.124713 -0.098733 0.041957
vertex -0.100356 -0.123089 0.044147
vertex -0.123089 -0.100356 0.044147
endloop
endfacet
facet normal -0.707108 -0.707106 0.000000
outer loop
vertex -0.123089 -0.100356 0.044147
vertex -0.100356 -0.123089 0.044147
vertex -0.102163 -0.121283 0.046028
endloop
endfacet
facet normal -0.707107 -0.707107 0.000000
outer loop
vertex -0.123089 -0.100356 0.044147
vertex -0.102163 -0.121283 0.046028
vertex -0.121283 -0.102162 0.046028
endloop
endfacet
facet normal -0.707108 -0.707105 0.000003
outer loop
vertex -0.121283 -0.102162 0.046028
vertex -0.102163 -0.121283 0.046028
vertex -0.104123 -0.119323 0.047571
endloop
endfacet
facet normal -0.707106 -0.707108 0.000007
outer loop
vertex -0.121283 -0.102162 0.046028
vertex -0.104123 -0.119323 0.047571
vertex -0.119323 -0.104122 0.047571
endloop
endfacet
facet normal -0.707106 -0.707108 -0.000007
outer loop
vertex -0.119323 -0.104122 0.047571
vertex -0.104123 -0.119323 0.047571
vertex -0.106205 -0.117241 0.048751
endloop
endfacet
facet normal -0.707110 -0.707104 0.000000
outer loop
vertex -0.119323 -0.104122 0.047571
vertex -0.106205 -0.117241 0.048751
vertex -0.117241 -0.106205 0.048751
endloop
endfacet
facet normal -0.707106 -0.707108 -0.000005
outer loop
vertex -0.117241 -0.106205 0.048751
vertex -0.106205 -0.117241 0.048751
vertex -0.108376 -0.115070 0.049548
endloop
endfacet
facet normal -0.707108 -0.707106 0.000015
outer loop
vertex -0.117241 -0.106205 0.048751
vertex -0.108376 -0.115070 0.049548
vertex -0.115070 -0.108376 0.049548
endloop
endfacet
facet normal -0.707112 -0.707102 0.000015
outer loop
vertex -0.115070 -0.108376 0.049548
vertex -0.108376 -0.115070 0.049548
vertex -0.110601 -0.112844 0.049950
endloop
endfacet
facet normal -0.707104 -0.707110 0.000000
outer loop
vertex -0.115070 -0.108376 0.049548
vertex -0.110601 -0.112844 0.049950
vertex -0.112845 -0.110601 0.049950
endloop
endfacet
endsolid obstacle
