solid cylinder
facet normal 0.000000 0.000000 -1.000000
outer loop
vertex 0.231513 -0.051681 0.000000
vertex 0.226336 -0.070999 0.000000
vertex -0.226336 0.070999 0.000000
endloop
endfacet
facet normal 0.000000 0.000000 -1.000000
outer loop
vertex -0.226336 0.070999 0.000000
vertex 0.226336 -0.070999 0.000000
vertex -0.231513 0.051681 0.000000
endloop
endfacet
facet normal 0.258819 0.965926 0.000000
outer loop
vertex 0.231513 -0.051681 0.002087
vertex 0.231513 -0.051681 0.000000
vertex -0.226336 0.070999 0.002087
endloop
endfacet
facet normal 0.258819 0.965926 0.000000
outer loop
vertex -0.226336 0.070999 0.002087
vertex 0.231513 -0.051681 0.000000
vertex -0.226336 0.070999 0.000000
endloop
endfacet
facet normal -0.121305 -0.452304 -0.883576
outer loop
vertex 0.225470 -0.074232 0.003861
vertex 0.149138 -0.053874 0.003919
vertex 0.226336 -0.070999 0.002087
endloop
endfacet
facet normal -0.121697 -0.454181 -0.882559
outer loop
vertex 0.226336 -0.070999 0.002087
vertex 0.149138 -0.053874 0.003919
vertex 0.072830 -0.033427 0.003919
endloop
endfacet
facet normal -0.121697 -0.454180 -0.882559
outer loop
vertex 0.226336 -0.070999 0.002087
vertex 0.072830 -0.033427 0.003919
vertex -0.003478 -0.012981 0.003919
endloop
endfacet
facet normal -0.155710 -0.581116 -0.798786
outer loop
vertex -0.003478 -0.012981 0.003919
vertex 0.072830 -0.033427 0.003919
vertex -0.004284 -0.015987 0.006263
endloop
endfacet
facet normal -0.155710 -0.581117 -0.798785
outer loop
vertex -0.003478 -0.012981 0.003919
vertex -0.004284 -0.015987 0.006263
vertex -0.080592 0.004460 0.006263
endloop
endfacet
facet normal -0.185941 -0.693940 -0.695610
outer loop
vertex -0.080592 0.004460 0.006263
vertex -0.004284 -0.015987 0.006263
vertex -0.081293 0.001842 0.009062
endloop
endfacet
facet normal -0.185941 -0.693941 -0.695609
outer loop
vertex -0.080592 0.004460 0.006263
vertex -0.081293 0.001842 0.009062
vertex -0.157601 0.022289 0.009062
endloop
endfacet
facet normal -0.211655 -0.789909 -0.575540
outer loop
vertex -0.157601 0.022289 0.009062
vertex -0.081293 0.001842 0.009062
vertex -0.158182 0.020123 0.012248
endloop
endfacet
facet normal -0.211288 -0.790007 -0.575540
outer loop
vertex -0.157601 0.022289 0.009062
vertex -0.158182 0.020123 0.012248
vertex -0.234432 0.040786 0.011878
endloop
endfacet
facet normal -0.230313 -0.858116 -0.458903
outer loop
vertex -0.234432 0.040786 0.011878
vertex -0.158182 0.020123 0.012248
vertex -0.234882 0.039107 0.015243
endloop
endfacet
facet normal -0.231785 -0.866811 -0.441492
outer loop
vertex -0.234882 0.039107 0.015243
vertex -0.158182 0.020123 0.012248
vertex -0.158627 0.018461 0.015744
endloop
endfacet
facet normal -0.245693 -0.915218 -0.319392
outer loop
vertex -0.234882 0.039107 0.015243
vertex -0.158627 0.018461 0.015744
vertex -0.235195 0.037938 0.018833
endloop
endfacet
facet normal -0.246647 -0.922563 -0.296719
outer loop
vertex -0.235195 0.037938 0.018833
vertex -0.158627 0.018461 0.015744
vertex -0.158926 0.017345 0.019465
endloop
endfacet
facet normal -0.255436 -0.951303 -0.172552
outer loop
vertex -0.235195 0.037938 0.018833
vertex -0.158926 0.017345 0.019465
vertex -0.235364 0.037307 0.022564
endloop
endfacet
facet normal -0.255511 -0.955910 -0.144742
outer loop
vertex -0.235364 0.037307 0.022564
vertex -0.158926 0.017345 0.019465
vertex -0.159072 0.016800 0.023320
endloop
endfacet
facet normal -0.259320 -0.965547 -0.021744
outer loop
vertex -0.235364 0.037307 0.022564
vertex -0.159072 0.016800 0.023320
vertex -0.235385 0.037227 0.026352
endloop
endfacet
facet normal -0.258162 -0.966042 0.010753
outer loop
vertex -0.235385 0.037227 0.026352
vertex -0.159072 0.016800 0.023320
vertex -0.159061 0.016840 0.027216
endloop
endfacet
facet normal -0.257257 -0.957619 0.129556
outer loop
vertex -0.235385 0.037227 0.026352
vertex -0.159061 0.016840 0.027216
vertex -0.235258 0.037701 0.030108
endloop
endfacet
facet normal -0.254532 -0.952713 0.165985
outer loop
vertex -0.235258 0.037701 0.030108
vertex -0.159061 0.016840 0.027216
vertex -0.158894 0.017465 0.031058
endloop
endfacet
facet normal -0.249296 -0.927701 0.277888
outer loop
vertex -0.235258 0.037701 0.030108
vertex -0.158894 0.017465 0.031058
vertex -0.234986 0.038718 0.033747
endloop
endfacet
facet normal -0.244708 -0.916248 0.317187
outer loop
vertex -0.234986 0.038718 0.033747
vertex -0.158894 0.017465 0.031058
vertex -0.158574 0.018659 0.034753
endloop
endfacet
facet normal -0.235621 -0.876482 0.419836
outer loop
vertex -0.234986 0.038718 0.033747
vertex -0.158574 0.018659 0.034753
vertex -0.234574 0.040254 0.037185
endloop
endfacet
facet normal -0.228929 -0.857532 0.460684
outer loop
vertex -0.234574 0.040254 0.037185
vertex -0.158574 0.018659 0.034753
vertex -0.158110 0.020392 0.038211
endloop
endfacet
facet normal -0.216548 -0.805134 0.552146
outer loop
vertex -0.234574 0.040254 0.037185
vertex -0.158110 0.020392 0.038211
vertex -0.234033 0.042275 0.040343
endloop
endfacet
facet normal -0.207577 -0.777994 0.592990
outer loop
vertex -0.234033 0.042275 0.040343
vertex -0.158110 0.020392 0.038211
vertex -0.157512 0.022624 0.041348
endloop
endfacet
facet normal -0.192512 -0.715299 0.671778
outer loop
vertex -0.234033 0.042275 0.040343
vertex -0.157512 0.022624 0.041348
vertex -0.233374 0.044733 0.043149
endloop
endfacet
facet normal -0.181168 -0.679562 0.710896
outer loop
vertex -0.233374 0.044733 0.043149
vertex -0.157512 0.022624 0.041348
vertex -0.156795 0.025300 0.044088
endloop
endfacet
facet normal -0.164070 -0.609036 0.775988
outer loop
vertex -0.204453 0.039300 0.045000
vertex -0.232785 0.046932 0.045000
vertex -0.233374 0.044733 0.043149
endloop
endfacet
facet normal -0.164070 -0.609034 0.775989
outer loop
vertex -0.204453 0.039300 0.045000
vertex -0.233374 0.044733 0.043149
vertex -0.156795 0.025300 0.044088
endloop
endfacet
facet normal -0.150344 -0.564627 0.811538
outer loop
vertex -0.204453 0.039300 0.045000
vertex -0.156795 0.025300 0.044088
vertex -0.156467 0.026522 0.045000
endloop
endfacet
facet normal 0.152112 0.564150 0.811540
outer loop
vertex -0.196712 0.068192 0.045000
vertex -0.148766 0.055265 0.045000
vertex -0.148438 0.056487 0.044088
endloop
endfacet
facet normal 0.162430 0.609479 0.775985
outer loop
vertex -0.196712 0.068192 0.045000
vertex -0.148438 0.056487 0.044088
vertex -0.224474 0.077947 0.043149
endloop
endfacet
facet normal 0.162430 0.609474 0.775989
outer loop
vertex -0.196712 0.068192 0.045000
vertex -0.224474 0.077947 0.043149
vertex -0.225064 0.075748 0.045000
endloop
endfacet
facet normal 0.182883 0.679099 0.710900
outer loop
vertex -0.224474 0.077947 0.043149
vertex -0.148438 0.056487 0.044088
vertex -0.147721 0.059163 0.041348
endloop
endfacet
facet normal 0.190929 0.715727 0.671775
outer loop
vertex -0.224474 0.077947 0.043149
vertex -0.147721 0.059163 0.041348
vertex -0.223816 0.080406 0.040343
endloop
endfacet
facet normal 0.209229 0.777548 0.592995
outer loop
vertex -0.223816 0.080406 0.040343
vertex -0.147721 0.059163 0.041348
vertex -0.147123 0.061394 0.038211
endloop
endfacet
facet normal 0.215033 0.805542 0.552144
outer loop
vertex -0.223816 0.080406 0.040343
vertex -0.147123 0.061394 0.038211
vertex -0.223275 0.082426 0.037185
endloop
endfacet
facet normal 0.230507 0.857108 0.460686
outer loop
vertex -0.223275 0.082426 0.037185
vertex -0.147123 0.061394 0.038211
vertex -0.146659 0.063128 0.034753
endloop
endfacet
facet normal 0.234187 0.876868 0.419832
outer loop
vertex -0.223275 0.082426 0.037185
vertex -0.146659 0.063128 0.034753
vertex -0.222863 0.083962 0.033747
endloop
endfacet
facet normal 0.246200 0.915848 0.317188
outer loop
vertex -0.222863 0.083962 0.033747
vertex -0.146659 0.063128 0.034753
vertex -0.146339 0.064322 0.031058
endloop
endfacet
facet normal 0.247954 0.928060 0.277891
outer loop
vertex -0.222863 0.083962 0.033747
vertex -0.146339 0.064322 0.031058
vertex -0.222590 0.084979 0.030108
endloop
endfacet
facet normal 0.255926 0.952340 0.165985
outer loop
vertex -0.222590 0.084979 0.030108
vertex -0.146339 0.064322 0.031058
vertex -0.146171 0.064947 0.027216
endloop
endfacet
facet normal 0.256018 0.957951 0.129558
outer loop
vertex -0.222590 0.084979 0.030108
vertex -0.146171 0.064947 0.027216
vertex -0.222463 0.085453 0.026352
endloop
endfacet
facet normal 0.259446 0.965698 0.010755
outer loop
vertex -0.222463 0.085453 0.026352
vertex -0.146171 0.064947 0.027216
vertex -0.146160 0.064987 0.023320
endloop
endfacet
facet normal 0.258196 0.965848 -0.021747
outer loop
vertex -0.222463 0.085453 0.026352
vertex -0.146160 0.064987 0.023320
vertex -0.222485 0.085373 0.022564
endloop
endfacet
facet normal 0.256676 0.955598 -0.144743
outer loop
vertex -0.222485 0.085373 0.022564
vertex -0.146160 0.064987 0.023320
vertex -0.146306 0.064442 0.019465
endloop
endfacet
facet normal 0.254437 0.951571 -0.172554
outer loop
vertex -0.222485 0.085373 0.022564
vertex -0.146306 0.064442 0.019465
vertex -0.222654 0.084742 0.018833
endloop
endfacet
facet normal 0.247679 0.922286 -0.296722
outer loop
vertex -0.222654 0.084742 0.018833
vertex -0.146306 0.064442 0.019465
vertex -0.146606 0.063326 0.015744
endloop
endfacet
facet normal 0.244833 0.915450 -0.319388
outer loop
vertex -0.222654 0.084742 0.018833
vertex -0.146606 0.063326 0.015744
vertex -0.222967 0.083573 0.015243
endloop
endfacet
facet normal 0.232674 0.866572 -0.441493
outer loop
vertex -0.222967 0.083573 0.015243
vertex -0.146606 0.063326 0.015744
vertex -0.147051 0.061664 0.012248
endloop
endfacet
facet normal 0.229602 0.858308 -0.458901
outer loop
vertex -0.222967 0.083573 0.015243
vertex -0.147051 0.061664 0.012248
vertex -0.223417 0.081894 0.011878
endloop
endfacet
facet normal 0.212022 0.789808 -0.575543
outer loop
vertex -0.223417 0.081894 0.011878
vertex -0.147051 0.061664 0.012248
vertex -0.147631 0.059498 0.009062
endloop
endfacet
facet normal 0.209097 0.781460 -0.587877
outer loop
vertex -0.223417 0.081894 0.011878
vertex -0.147631 0.059498 0.009062
vertex -0.223993 0.079743 0.008813
endloop
endfacet
facet normal 0.186225 0.693867 -0.695607
outer loop
vertex -0.223993 0.079743 0.008813
vertex -0.147631 0.059498 0.009062
vertex -0.148333 0.056880 0.006263
endloop
endfacet
facet normal 0.183790 0.686669 -0.703354
outer loop
vertex -0.223993 0.079743 0.008813
vertex -0.148333 0.056880 0.006263
vertex -0.224683 0.077170 0.006120
endloop
endfacet
facet normal 0.155905 0.581064 -0.798785
outer loop
vertex -0.224683 0.077170 0.006120
vertex -0.148333 0.056880 0.006263
vertex -0.149138 0.053874 0.003919
endloop
endfacet
facet normal 0.154265 0.576115 -0.802679
outer loop
vertex -0.224683 0.077170 0.006120
vertex -0.149138 0.053874 0.003919
vertex -0.225470 0.074232 0.003861
endloop
endfacet
facet normal 0.121305 0.452304 -0.883576
outer loop
vertex -0.225470 0.074232 0.003861
vertex -0.149138 0.053874 0.003919
vertex -0.226336 0.070999 0.002087
endloop
endfacet
facet normal 0.121697 0.454181 -0.882558
outer loop
vertex -0.226336 0.070999 0.002087
vertex -0.149138 0.053874 0.003919
vertex -0.072830 0.033427 0.003919
endloop
endfacet
facet normal 0.121697 0.454179 -0.882559
outer loop
vertex -0.226336 0.070999 0.002087
vertex -0.072830 0.033427 0.003919
vertex 0.003478 0.012981 0.003919
endloop
endfacet
facet normal 0.155710 0.581117 -0.798785
outer loop
vertex 0.003478 0.012981 0.003919
vertex -0.072830 0.033427 0.003919
vertex 0.004284 0.015987 0.006263
endloop
endfacet
facet normal 0.155710 0.581117 -0.798785
outer loop
vertex 0.003478 0.012981 0.003919
vertex 0.004284 0.015987 0.006263
vertex 0.080592 -0.004460 0.006263
endloop
endfacet
facet normal 0.185941 0.693940 -0.695610
outer loop
vertex 0.080592 -0.004460 0.006263
vertex 0.004284 0.015987 0.006263
vertex 0.081293 -0.001842 0.009062
endloop
endfacet
facet normal 0.185941 0.693940 -0.695610
outer loop
vertex 0.080592 -0.004460 0.006263
vertex 0.081293 -0.001842 0.009062
vertex 0.157601 -0.022289 0.009062
endloop
endfacet
facet normal 0.211655 0.789909 -0.575540
outer loop
vertex 0.157601 -0.022289 0.009062
vertex 0.081293 -0.001842 0.009062
vertex 0.158182 -0.020123 0.012248
endloop
endfacet
facet normal 0.211288 0.790007 -0.575540
outer loop
vertex 0.157601 -0.022289 0.009062
vertex 0.158182 -0.020123 0.012248
vertex 0.234432 -0.040786 0.011878
endloop
endfacet
facet normal 0.230313 0.858116 -0.458904
outer loop
vertex 0.234432 -0.040786 0.011878
vertex 0.158182 -0.020123 0.012248
vertex 0.234882 -0.039107 0.015243
endloop
endfacet
facet normal 0.231785 0.866811 -0.441490
outer loop
vertex 0.234882 -0.039107 0.015243
vertex 0.158182 -0.020123 0.012248
vertex 0.158627 -0.018461 0.015744
endloop
endfacet
facet normal 0.245693 0.915218 -0.319392
outer loop
vertex 0.234882 -0.039107 0.015243
vertex 0.158627 -0.018461 0.015744
vertex 0.235195 -0.037938 0.018833
endloop
endfacet
facet normal 0.246647 0.922563 -0.296721
outer loop
vertex 0.235195 -0.037938 0.018833
vertex 0.158627 -0.018461 0.015744
vertex 0.158926 -0.017345 0.019465
endloop
endfacet
facet normal 0.255436 0.951303 -0.172552
outer loop
vertex 0.235195 -0.037938 0.018833
vertex 0.158926 -0.017345 0.019465
vertex 0.235364 -0.037307 0.022564
endloop
endfacet
facet normal 0.255511 0.955910 -0.144742
outer loop
vertex 0.235364 -0.037307 0.022564
vertex 0.158926 -0.017345 0.019465
vertex 0.159072 -0.016800 0.023320
endloop
endfacet
facet normal 0.259320 0.965547 -0.021744
outer loop
vertex 0.235364 -0.037307 0.022564
vertex 0.159072 -0.016800 0.023320
vertex 0.235385 -0.037227 0.026352
endloop
endfacet
facet normal 0.258162 0.966042 0.010753
outer loop
vertex 0.235385 -0.037227 0.026352
vertex 0.159072 -0.016800 0.023320
vertex 0.159061 -0.016840 0.027216
endloop
endfacet
facet normal 0.257257 0.957619 0.129556
outer loop
vertex 0.235385 -0.037227 0.026352
vertex 0.159061 -0.016840 0.027216
vertex 0.235258 -0.037701 0.030108
endloop
endfacet
facet normal 0.254532 0.952713 0.165986
outer loop
vertex 0.235258 -0.037701 0.030108
vertex 0.159061 -0.016840 0.027216
vertex 0.158894 -0.017465 0.031058
endloop
endfacet
facet normal 0.249296 0.927702 0.277886
outer loop
vertex 0.235258 -0.037701 0.030108
vertex 0.158894 -0.017465 0.031058
vertex 0.234986 -0.038718 0.033747
endloop
endfacet
facet normal 0.244708 0.916248 0.317187
outer loop
vertex 0.234986 -0.038718 0.033747
vertex 0.158894 -0.017465 0.031058
vertex 0.158574 -0.018659 0.034753
endloop
endfacet
facet normal 0.235621 0.876482 0.419836
outer loop
vertex 0.234986 -0.038718 0.033747
vertex 0.158574 -0.018659 0.034753
vertex 0.234574 -0.040254 0.037185
endloop
endfacet
facet normal 0.228929 0.857532 0.460684
outer loop
vertex 0.234574 -0.040254 0.037185
vertex 0.158574 -0.018659 0.034753
vertex 0.158110 -0.020392 0.038211
endloop
endfacet
facet normal 0.216548 0.805134 0.552146
outer loop
vertex 0.234574 -0.040254 0.037185
vertex 0.158110 -0.020392 0.038211
vertex 0.234033 -0.042275 0.040343
endloop
endfacet
facet normal 0.207577 0.777993 0.592991
outer loop
vertex 0.234033 -0.042275 0.040343
vertex 0.158110 -0.020392 0.038211
vertex 0.157512 -0.022624 0.041348
endloop
endfacet
facet normal 0.192513 0.715300 0.671778
outer loop
vertex 0.234033 -0.042275 0.040343
vertex 0.157512 -0.022624 0.041348
vertex 0.233374 -0.044733 0.043149
endloop
endfacet
facet normal 0.181168 0.679561 0.710897
outer loop
vertex 0.233374 -0.044733 0.043149
vertex 0.157512 -0.022624 0.041348
vertex 0.156795 -0.025299 0.044088
endloop
endfacet
facet normal 0.164070 0.609037 0.775987
outer loop
vertex 0.233374 -0.044733 0.043149
vertex 0.156795 -0.025299 0.044088
vertex 0.204453 -0.039300 0.045000
endloop
endfacet
facet normal 0.164070 0.609036 0.775987
outer loop
vertex 0.233374 -0.044733 0.043149
vertex 0.204453 -0.039300 0.045000
vertex 0.232785 -0.046932 0.045000
endloop
endfacet
facet normal 0.150344 0.564626 0.811538
outer loop
vertex 0.156467 -0.026522 0.045000
vertex 0.204453 -0.039300 0.045000
vertex 0.156795 -0.025299 0.044088
endloop
endfacet
facet normal -0.152113 -0.564153 0.811537
outer loop
vertex 0.148438 -0.056487 0.044088
vertex 0.196712 -0.068192 0.045000
vertex 0.148766 -0.055264 0.045000
endloop
endfacet
facet normal -0.162430 -0.609476 0.775986
outer loop
vertex 0.148438 -0.056487 0.044088
vertex 0.224474 -0.077947 0.043149
vertex 0.225064 -0.075748 0.045000
endloop
endfacet
facet normal -0.162425 -0.609465 0.775997
outer loop
vertex 0.148438 -0.056487 0.044088
vertex 0.225064 -0.075748 0.045000
vertex 0.196712 -0.068192 0.045000
endloop
endfacet
facet normal -0.182883 -0.679100 0.710899
outer loop
vertex 0.224474 -0.077947 0.043149
vertex 0.148438 -0.056487 0.044088
vertex 0.147721 -0.059163 0.041348
endloop
endfacet
facet normal -0.190929 -0.715725 0.671776
outer loop
vertex 0.224474 -0.077947 0.043149
vertex 0.147721 -0.059163 0.041348
vertex 0.223816 -0.080406 0.040343
endloop
endfacet
facet normal -0.209229 -0.777549 0.592993
outer loop
vertex 0.223816 -0.080406 0.040343
vertex 0.147721 -0.059163 0.041348
vertex 0.147123 -0.061394 0.038211
endloop
endfacet
facet normal -0.215033 -0.805542 0.552144
outer loop
vertex 0.223816 -0.080406 0.040343
vertex 0.147123 -0.061394 0.038211
vertex 0.223275 -0.082426 0.037185
endloop
endfacet
facet normal -0.230507 -0.857108 0.460686
outer loop
vertex 0.223275 -0.082426 0.037185
vertex 0.147123 -0.061394 0.038211
vertex 0.146659 -0.063128 0.034753
endloop
endfacet
facet normal -0.234187 -0.876868 0.419832
outer loop
vertex 0.223275 -0.082426 0.037185
vertex 0.146659 -0.063128 0.034753
vertex 0.222863 -0.083962 0.033747
endloop
endfacet
facet normal -0.246200 -0.915848 0.317188
outer loop
vertex 0.222863 -0.083962 0.033747
vertex 0.146659 -0.063128 0.034753
vertex 0.146339 -0.064322 0.031058
endloop
endfacet
facet normal -0.247954 -0.928060 0.277891
outer loop
vertex 0.222863 -0.083962 0.033747
vertex 0.146339 -0.064322 0.031058
vertex 0.222590 -0.084979 0.030108
endloop
endfacet
facet normal -0.255926 -0.952340 0.165985
outer loop
vertex 0.222590 -0.084979 0.030108
vertex 0.146339 -0.064322 0.031058
vertex 0.146171 -0.064946 0.027216
endloop
endfacet
facet normal -0.256018 -0.957951 0.129558
outer loop
vertex 0.222590 -0.084979 0.030108
vertex 0.146171 -0.064946 0.027216
vertex 0.222463 -0.085453 0.026352
endloop
endfacet
facet normal -0.259446 -0.965698 0.010755
outer loop
vertex 0.222463 -0.085453 0.026352
vertex 0.146171 -0.064946 0.027216
vertex 0.146160 -0.064987 0.023320
endloop
endfacet
facet normal -0.258196 -0.965848 -0.021747
outer loop
vertex 0.222463 -0.085453 0.026352
vertex 0.146160 -0.064987 0.023320
vertex 0.222485 -0.085373 0.022564
endloop
endfacet
facet normal -0.256676 -0.955598 -0.144743
outer loop
vertex 0.222485 -0.085373 0.022564
vertex 0.146160 -0.064987 0.023320
vertex 0.146306 -0.064442 0.019465
endloop
endfacet
facet normal -0.254437 -0.951571 -0.172554
outer loop
vertex 0.222485 -0.085373 0.022564
vertex 0.146306 -0.064442 0.019465
vertex 0.222654 -0.084742 0.018833
endloop
endfacet
facet normal -0.247679 -0.922287 -0.296719
outer loop
vertex 0.222654 -0.084742 0.018833
vertex 0.146306 -0.064442 0.019465
vertex 0.146606 -0.063326 0.015744
endloop
endfacet
facet normal -0.244833 -0.915449 -0.319391
outer loop
vertex 0.222654 -0.084742 0.018833
vertex 0.146606 -0.063326 0.015744
vertex 0.222967 -0.083573 0.015243
endloop
endfacet
facet normal -0.232674 -0.866572 -0.441493
outer loop
vertex 0.222967 -0.083573 0.015243
vertex 0.146606 -0.063326 0.015744
vertex 0.147051 -0.061664 0.012248
endloop
endfacet
facet normal -0.229602 -0.858308 -0.458901
outer loop
vertex 0.222967 -0.083573 0.015243
vertex 0.147051 -0.061664 0.012248
vertex 0.223417 -0.081894 0.011878
endloop
endfacet
facet normal -0.212022 -0.789808 -0.575543
outer loop
vertex 0.223417 -0.081894 0.011878
vertex 0.147051 -0.061664 0.012248
vertex 0.147631 -0.059498 0.009062
endloop
endfacet
facet normal -0.209097 -0.781460 -0.587877
outer loop
vertex 0.223417 -0.081894 0.011878
vertex 0.147631 -0.059498 0.009062
vertex 0.223993 -0.079743 0.008813
endloop
endfacet
facet normal -0.186225 -0.693867 -0.695607
outer loop
vertex 0.223993 -0.079743 0.008813
vertex 0.147631 -0.059498 0.009062
vertex 0.148333 -0.056880 0.006263
endloop
endfacet
facet normal -0.183790 -0.686669 -0.703354
outer loop
vertex 0.223993 -0.079743 0.008813
vertex 0.148333 -0.056880 0.006263
vertex 0.224683 -0.077169 0.006120
endloop
endfacet
facet normal -0.155905 -0.581064 -0.798786
outer loop
vertex 0.224683 -0.077169 0.006120
vertex 0.148333 -0.056880 0.006263
vertex 0.149138 -0.053874 0.003919
endloop
endfacet
facet normal -0.154265 -0.576115 -0.802679
outer loop
vertex 0.224683 -0.077169 0.006120
vertex 0.149138 -0.053874 0.003919
vertex 0.225470 -0.074232 0.003861
endloop
endfacet
facet normal 0.209647 0.781313 -0.587875
outer loop
vertex 0.234432 -0.040786 0.011878
vertex 0.233855 -0.042937 0.008813
vertex 0.157601 -0.022289 0.009062
endloop
endfacet
facet normal 0.185657 0.694016 -0.695610
outer loop
vertex 0.157601 -0.022289 0.009062
vertex 0.233855 -0.042937 0.008813
vertex 0.156900 -0.024907 0.006263
endloop
endfacet
facet normal 0.185941 0.693940 -0.695610
outer loop
vertex 0.157601 -0.022289 0.009062
vertex 0.156900 -0.024907 0.006263
vertex 0.080592 -0.004460 0.006263
endloop
endfacet
facet normal 0.155710 0.581117 -0.798785
outer loop
vertex 0.080592 -0.004460 0.006263
vertex 0.156900 -0.024907 0.006263
vertex 0.079786 -0.007466 0.003919
endloop
endfacet
facet normal 0.155710 0.581117 -0.798785
outer loop
vertex 0.080592 -0.004460 0.006263
vertex 0.079786 -0.007466 0.003919
vertex 0.003478 0.012981 0.003919
endloop
endfacet
facet normal 0.121697 0.454180 -0.882559
outer loop
vertex 0.003478 0.012981 0.003919
vertex 0.079786 -0.007466 0.003919
vertex -0.226336 0.070999 0.002087
endloop
endfacet
facet normal 0.184169 0.686569 -0.703352
outer loop
vertex 0.233855 -0.042937 0.008813
vertex 0.233166 -0.045511 0.006120
vertex 0.156900 -0.024907 0.006263
endloop
endfacet
facet normal 0.155515 0.581170 -0.798785
outer loop
vertex 0.156900 -0.024907 0.006263
vertex 0.233166 -0.045511 0.006120
vertex 0.156094 -0.027913 0.003919
endloop
endfacet
facet normal 0.155710 0.581118 -0.798784
outer loop
vertex 0.156900 -0.024907 0.006263
vertex 0.156094 -0.027913 0.003919
vertex 0.079786 -0.007466 0.003919
endloop
endfacet
facet normal 0.121697 0.454180 -0.882559
outer loop
vertex 0.079786 -0.007466 0.003919
vertex 0.156094 -0.027913 0.003919
vertex -0.226336 0.070999 0.002087
endloop
endfacet
facet normal 0.154460 0.576064 -0.802678
outer loop
vertex 0.233166 -0.045511 0.006120
vertex 0.232379 -0.048448 0.003861
vertex 0.156094 -0.027913 0.003919
endloop
endfacet
facet normal 0.123717 0.462070 -0.878172
outer loop
vertex 0.156094 -0.027913 0.003919
vertex 0.232379 -0.048448 0.003861
vertex -0.226336 0.070999 0.002087
endloop
endfacet
facet normal 0.121202 0.452332 -0.883576
outer loop
vertex 0.232379 -0.048448 0.003861
vertex 0.231513 -0.051681 0.002087
vertex -0.226336 0.070999 0.002087
endloop
endfacet
facet normal -0.209647 -0.781313 -0.587876
outer loop
vertex -0.234432 0.040786 0.011878
vertex -0.233855 0.042937 0.008813
vertex -0.157601 0.022289 0.009062
endloop
endfacet
facet normal -0.185657 -0.694016 -0.695610
outer loop
vertex -0.157601 0.022289 0.009062
vertex -0.233855 0.042937 0.008813
vertex -0.156900 0.024907 0.006263
endloop
endfacet
facet normal -0.185941 -0.693940 -0.695610
outer loop
vertex -0.157601 0.022289 0.009062
vertex -0.156900 0.024907 0.006263
vertex -0.080592 0.004460 0.006263
endloop
endfacet
facet normal -0.155710 -0.581117 -0.798785
outer loop
vertex -0.080592 0.004460 0.006263
vertex -0.156900 0.024907 0.006263
vertex -0.079786 0.007466 0.003919
endloop
endfacet
facet normal -0.155710 -0.581117 -0.798785
outer loop
vertex -0.080592 0.004460 0.006263
vertex -0.079786 0.007466 0.003919
vertex -0.003478 -0.012981 0.003919
endloop
endfacet
facet normal -0.121697 -0.454180 -0.882559
outer loop
vertex -0.003478 -0.012981 0.003919
vertex -0.079786 0.007466 0.003919
vertex 0.226336 -0.070999 0.002087
endloop
endfacet
facet normal -0.184169 -0.686569 -0.703352
outer loop
vertex -0.233855 0.042937 0.008813
vertex -0.233166 0.045511 0.006120
vertex -0.156900 0.024907 0.006263
endloop
endfacet
facet normal -0.155515 -0.581170 -0.798785
outer loop
vertex -0.156900 0.024907 0.006263
vertex -0.233166 0.045511 0.006120
vertex -0.156094 0.027913 0.003919
endloop
endfacet
facet normal -0.155710 -0.581117 -0.798785
outer loop
vertex -0.156900 0.024907 0.006263
vertex -0.156094 0.027913 0.003919
vertex -0.079786 0.007466 0.003919
endloop
endfacet
facet normal -0.121697 -0.454180 -0.882559
outer loop
vertex -0.079786 0.007466 0.003919
vertex -0.156094 0.027913 0.003919
vertex 0.226336 -0.070999 0.002087
endloop
endfacet
facet normal -0.154460 -0.576063 -0.802679
outer loop
vertex -0.233166 0.045511 0.006120
vertex -0.232379 0.048448 0.003861
vertex -0.156094 0.027913 0.003919
endloop
endfacet
facet normal -0.123717 -0.462070 -0.878172
outer loop
vertex -0.156094 0.027913 0.003919
vertex -0.232379 0.048448 0.003861
vertex 0.226336 -0.070999 0.002087
endloop
endfacet
facet normal -0.121202 -0.452332 -0.883576
outer loop
vertex -0.232379 0.048448 0.003861
vertex -0.231513 0.051681 0.002087
vertex 0.226336 -0.070999 0.002087
endloop
endfacet
facet normal -0.155710 -0.581117 -0.798785
outer loop
vertex 0.072830 -0.033427 0.003919
vertex 0.149138 -0.053874 0.003919
vertex 0.072024 -0.036434 0.006263
endloop
endfacet
facet normal -0.155710 -0.581117 -0.798785
outer loop
vertex 0.072024 -0.036434 0.006263
vertex 0.149138 -0.053874 0.003919
vertex 0.148333 -0.056880 0.006263
endloop
endfacet
facet normal -0.185941 -0.693940 -0.695610
outer loop
vertex 0.072024 -0.036434 0.006263
vertex 0.148333 -0.056880 0.006263
vertex 0.071323 -0.039051 0.009062
endloop
endfacet
facet normal -0.185941 -0.693941 -0.695609
outer loop
vertex 0.071323 -0.039051 0.009062
vertex 0.148333 -0.056880 0.006263
vertex 0.147631 -0.059498 0.009062
endloop
endfacet
facet normal -0.211656 -0.789909 -0.575540
outer loop
vertex 0.071323 -0.039051 0.009062
vertex 0.147631 -0.059498 0.009062
vertex 0.070743 -0.041217 0.012248
endloop
endfacet
facet normal -0.211655 -0.789908 -0.575541
outer loop
vertex 0.070743 -0.041217 0.012248
vertex 0.147631 -0.059498 0.009062
vertex 0.147051 -0.061664 0.012248
endloop
endfacet
facet normal -0.232229 -0.866692 -0.441491
outer loop
vertex 0.070743 -0.041217 0.012248
vertex 0.147051 -0.061664 0.012248
vertex 0.070297 -0.042879 0.015744
endloop
endfacet
facet normal -0.232229 -0.866692 -0.441491
outer loop
vertex 0.070297 -0.042879 0.015744
vertex 0.147051 -0.061664 0.012248
vertex 0.146606 -0.063326 0.015744
endloop
endfacet
facet normal -0.247163 -0.922425 -0.296720
outer loop
vertex 0.070297 -0.042879 0.015744
vertex 0.146606 -0.063326 0.015744
vertex 0.069998 -0.043996 0.019465
endloop
endfacet
facet normal -0.247163 -0.922425 -0.296720
outer loop
vertex 0.069998 -0.043996 0.019465
vertex 0.146606 -0.063326 0.015744
vertex 0.146306 -0.064442 0.019465
endloop
endfacet
facet normal -0.256094 -0.955754 -0.144741
outer loop
vertex 0.069998 -0.043996 0.019465
vertex 0.146306 -0.064442 0.019465
vertex 0.069852 -0.044540 0.023320
endloop
endfacet
facet normal -0.256094 -0.955754 -0.144741
outer loop
vertex 0.069852 -0.044540 0.023320
vertex 0.146306 -0.064442 0.019465
vertex 0.146160 -0.064987 0.023320
endloop
endfacet
facet normal -0.258805 -0.965870 0.010754
outer loop
vertex 0.069852 -0.044540 0.023320
vertex 0.146160 -0.064987 0.023320
vertex 0.069863 -0.044500 0.027216
endloop
endfacet
facet normal -0.258804 -0.965870 0.010752
outer loop
vertex 0.069863 -0.044500 0.027216
vertex 0.146160 -0.064987 0.023320
vertex 0.146171 -0.064946 0.027216
endloop
endfacet
facet normal -0.255229 -0.952527 0.165985
outer loop
vertex 0.069863 -0.044500 0.027216
vertex 0.146171 -0.064946 0.027216
vertex 0.070031 -0.043875 0.031058
endloop
endfacet
facet normal -0.255229 -0.952527 0.165985
outer loop
vertex 0.070031 -0.043875 0.031058
vertex 0.146171 -0.064946 0.027216
vertex 0.146339 -0.064322 0.031058
endloop
endfacet
facet normal -0.245455 -0.916048 0.317186
outer loop
vertex 0.070031 -0.043875 0.031058
vertex 0.146339 -0.064322 0.031058
vertex 0.070350 -0.042681 0.034753
endloop
endfacet
facet normal -0.245454 -0.916048 0.317187
outer loop
vertex 0.070350 -0.042681 0.034753
vertex 0.146339 -0.064322 0.031058
vertex 0.146659 -0.063128 0.034753
endloop
endfacet
facet normal -0.229718 -0.857321 0.460684
outer loop
vertex 0.070350 -0.042681 0.034753
vertex 0.146659 -0.063128 0.034753
vertex 0.070815 -0.040948 0.038211
endloop
endfacet
facet normal -0.229718 -0.857320 0.460686
outer loop
vertex 0.070815 -0.040948 0.038211
vertex 0.146659 -0.063128 0.034753
vertex 0.147123 -0.061394 0.038211
endloop
endfacet
facet normal -0.208404 -0.777772 0.592991
outer loop
vertex 0.070815 -0.040948 0.038211
vertex 0.147123 -0.061394 0.038211
vertex 0.071413 -0.038716 0.041348
endloop
endfacet
facet normal -0.208403 -0.777770 0.592994
outer loop
vertex 0.071413 -0.038716 0.041348
vertex 0.147123 -0.061394 0.038211
vertex 0.147721 -0.059163 0.041348
endloop
endfacet
facet normal -0.182026 -0.679332 0.710897
outer loop
vertex 0.071413 -0.038716 0.041348
vertex 0.147721 -0.059163 0.041348
vertex 0.072130 -0.036041 0.044088
endloop
endfacet
facet normal -0.182026 -0.679330 0.710899
outer loop
vertex 0.072130 -0.036041 0.044088
vertex 0.147721 -0.059163 0.041348
vertex 0.148438 -0.056487 0.044088
endloop
endfacet
facet normal -0.151228 -0.564388 0.811540
outer loop
vertex 0.118212 -0.047078 0.045000
vertex 0.072457 -0.034818 0.045000
vertex 0.072130 -0.036041 0.044088
endloop
endfacet
facet normal -0.151228 -0.564389 0.811539
outer loop
vertex 0.118212 -0.047078 0.045000
vertex 0.072130 -0.036041 0.044088
vertex 0.148438 -0.056487 0.044088
endloop
endfacet
facet normal -0.151227 -0.564390 0.811539
outer loop
vertex 0.148438 -0.056487 0.044088
vertex 0.148766 -0.055264 0.045000
vertex 0.118212 -0.047078 0.045000
endloop
endfacet
facet normal 0.151228 0.564388 0.811539
outer loop
vertex 0.080159 -0.006076 0.045000
vertex 0.110712 -0.014262 0.045000
vertex 0.080487 -0.004853 0.044088
endloop
endfacet
facet normal 0.151229 0.564389 0.811539
outer loop
vertex 0.156795 -0.025299 0.044088
vertex 0.080487 -0.004853 0.044088
vertex 0.110712 -0.014262 0.045000
endloop
endfacet
facet normal 0.151227 0.564389 0.811539
outer loop
vertex 0.156795 -0.025299 0.044088
vertex 0.110712 -0.014262 0.045000
vertex 0.156467 -0.026522 0.045000
endloop
endfacet
facet normal 0.182025 0.679331 0.710898
outer loop
vertex 0.080487 -0.004853 0.044088
vertex 0.156795 -0.025299 0.044088
vertex 0.081203 -0.002177 0.041348
endloop
endfacet
facet normal 0.182027 0.679330 0.710898
outer loop
vertex 0.081203 -0.002177 0.041348
vertex 0.156795 -0.025299 0.044088
vertex 0.157512 -0.022624 0.041348
endloop
endfacet
facet normal 0.208403 0.777771 0.592992
outer loop
vertex 0.081203 -0.002177 0.041348
vertex 0.157512 -0.022624 0.041348
vertex 0.081801 0.000054 0.038211
endloop
endfacet
facet normal 0.208403 0.777772 0.592992
outer loop
vertex 0.081801 0.000054 0.038211
vertex 0.157512 -0.022624 0.041348
vertex 0.158110 -0.020392 0.038211
endloop
endfacet
facet normal 0.229719 0.857321 0.460685
outer loop
vertex 0.081801 0.000054 0.038211
vertex 0.158110 -0.020392 0.038211
vertex 0.082266 0.001788 0.034753
endloop
endfacet
facet normal 0.229718 0.857321 0.460685
outer loop
vertex 0.082266 0.001788 0.034753
vertex 0.158110 -0.020392 0.038211
vertex 0.158574 -0.018659 0.034753
endloop
endfacet
facet normal 0.245455 0.916048 0.317187
outer loop
vertex 0.082266 0.001788 0.034753
vertex 0.158574 -0.018659 0.034753
vertex 0.082586 0.002982 0.031058
endloop
endfacet
facet normal 0.245455 0.916048 0.317187
outer loop
vertex 0.082586 0.002982 0.031058
vertex 0.158574 -0.018659 0.034753
vertex 0.158894 -0.017465 0.031058
endloop
endfacet
facet normal 0.255229 0.952527 0.165985
outer loop
vertex 0.082586 0.002982 0.031058
vertex 0.158894 -0.017465 0.031058
vertex 0.082753 0.003606 0.027216
endloop
endfacet
facet normal 0.255229 0.952527 0.165985
outer loop
vertex 0.082753 0.003606 0.027216
vertex 0.158894 -0.017465 0.031058
vertex 0.159061 -0.016840 0.027216
endloop
endfacet
facet normal 0.258804 0.965870 0.010754
outer loop
vertex 0.082753 0.003606 0.027216
vertex 0.159061 -0.016840 0.027216
vertex 0.082764 0.003647 0.023320
endloop
endfacet
facet normal 0.258804 0.965870 0.010753
outer loop
vertex 0.082764 0.003647 0.023320
vertex 0.159061 -0.016840 0.027216
vertex 0.159072 -0.016800 0.023320
endloop
endfacet
facet normal 0.256094 0.955754 -0.144741
outer loop
vertex 0.082764 0.003647 0.023320
vertex 0.159072 -0.016800 0.023320
vertex 0.082618 0.003102 0.019465
endloop
endfacet
facet normal 0.256094 0.955754 -0.144741
outer loop
vertex 0.082618 0.003102 0.019465
vertex 0.159072 -0.016800 0.023320
vertex 0.158926 -0.017345 0.019465
endloop
endfacet
facet normal 0.247163 0.922425 -0.296720
outer loop
vertex 0.082618 0.003102 0.019465
vertex 0.158926 -0.017345 0.019465
vertex 0.082319 0.001985 0.015744
endloop
endfacet
facet normal 0.247163 0.922425 -0.296720
outer loop
vertex 0.082319 0.001985 0.015744
vertex 0.158926 -0.017345 0.019465
vertex 0.158627 -0.018461 0.015744
endloop
endfacet
facet normal 0.232229 0.866692 -0.441491
outer loop
vertex 0.082319 0.001985 0.015744
vertex 0.158627 -0.018461 0.015744
vertex 0.081874 0.000324 0.012248
endloop
endfacet
facet normal 0.232230 0.866692 -0.441491
outer loop
vertex 0.081874 0.000324 0.012248
vertex 0.158627 -0.018461 0.015744
vertex 0.158182 -0.020123 0.012248
endloop
endfacet
facet normal 0.211655 0.789908 -0.575541
outer loop
vertex 0.081874 0.000324 0.012248
vertex 0.158182 -0.020123 0.012248
vertex 0.081293 -0.001842 0.009062
endloop
endfacet
facet normal -0.155710 -0.581116 -0.798786
outer loop
vertex 0.072830 -0.033427 0.003919
vertex 0.072024 -0.036434 0.006263
vertex -0.004284 -0.015987 0.006263
endloop
endfacet
facet normal -0.185941 -0.693941 -0.695610
outer loop
vertex -0.004284 -0.015987 0.006263
vertex 0.072024 -0.036434 0.006263
vertex -0.004985 -0.018605 0.009062
endloop
endfacet
facet normal -0.185941 -0.693940 -0.695610
outer loop
vertex -0.004284 -0.015987 0.006263
vertex -0.004985 -0.018605 0.009062
vertex -0.081293 0.001842 0.009062
endloop
endfacet
facet normal -0.211655 -0.789908 -0.575540
outer loop
vertex -0.081293 0.001842 0.009062
vertex -0.004985 -0.018605 0.009062
vertex -0.081874 -0.000324 0.012248
endloop
endfacet
facet normal -0.211655 -0.789908 -0.575540
outer loop
vertex -0.081293 0.001842 0.009062
vertex -0.081874 -0.000324 0.012248
vertex -0.158182 0.020123 0.012248
endloop
endfacet
facet normal -0.232229 -0.866692 -0.441491
outer loop
vertex -0.158182 0.020123 0.012248
vertex -0.081874 -0.000324 0.012248
vertex -0.158627 0.018461 0.015744
endloop
endfacet
facet normal -0.185941 -0.693941 -0.695609
outer loop
vertex -0.004985 -0.018605 0.009062
vertex 0.072024 -0.036434 0.006263
vertex 0.071323 -0.039051 0.009062
endloop
endfacet
facet normal -0.211655 -0.789908 -0.575541
outer loop
vertex -0.004985 -0.018605 0.009062
vertex 0.071323 -0.039051 0.009062
vertex -0.005565 -0.020771 0.012248
endloop
endfacet
facet normal -0.211655 -0.789909 -0.575539
outer loop
vertex -0.005565 -0.020771 0.012248
vertex 0.071323 -0.039051 0.009062
vertex 0.070743 -0.041217 0.012248
endloop
endfacet
facet normal -0.232229 -0.866692 -0.441491
outer loop
vertex -0.005565 -0.020771 0.012248
vertex 0.070743 -0.041217 0.012248
vertex -0.006011 -0.022432 0.015744
endloop
endfacet
facet normal -0.232229 -0.866691 -0.441492
outer loop
vertex -0.006011 -0.022432 0.015744
vertex 0.070743 -0.041217 0.012248
vertex 0.070297 -0.042879 0.015744
endloop
endfacet
facet normal -0.247163 -0.922425 -0.296720
outer loop
vertex -0.006011 -0.022432 0.015744
vertex 0.070297 -0.042879 0.015744
vertex -0.006310 -0.023549 0.019465
endloop
endfacet
facet normal -0.247163 -0.922424 -0.296721
outer loop
vertex -0.006310 -0.023549 0.019465
vertex 0.070297 -0.042879 0.015744
vertex 0.069998 -0.043996 0.019465
endloop
endfacet
facet normal -0.256094 -0.955754 -0.144740
outer loop
vertex -0.006310 -0.023549 0.019465
vertex 0.069998 -0.043996 0.019465
vertex -0.006456 -0.024094 0.023320
endloop
endfacet
facet normal -0.256094 -0.955754 -0.144740
outer loop
vertex -0.006456 -0.024094 0.023320
vertex 0.069998 -0.043996 0.019465
vertex 0.069852 -0.044540 0.023320
endloop
endfacet
facet normal -0.258804 -0.965870 0.010754
outer loop
vertex -0.006456 -0.024094 0.023320
vertex 0.069852 -0.044540 0.023320
vertex -0.006445 -0.024053 0.027216
endloop
endfacet
facet normal -0.258804 -0.965870 0.010754
outer loop
vertex -0.006445 -0.024053 0.027216
vertex 0.069852 -0.044540 0.023320
vertex 0.069863 -0.044500 0.027216
endloop
endfacet
facet normal -0.255229 -0.952527 0.165985
outer loop
vertex -0.006445 -0.024053 0.027216
vertex 0.069863 -0.044500 0.027216
vertex -0.006278 -0.023428 0.031058
endloop
endfacet
facet normal -0.255229 -0.952527 0.165984
outer loop
vertex -0.006278 -0.023428 0.031058
vertex 0.069863 -0.044500 0.027216
vertex 0.070031 -0.043875 0.031058
endloop
endfacet
facet normal -0.245454 -0.916049 0.317186
outer loop
vertex -0.006278 -0.023428 0.031058
vertex 0.070031 -0.043875 0.031058
vertex -0.005958 -0.022235 0.034753
endloop
endfacet
facet normal -0.245454 -0.916048 0.317187
outer loop
vertex -0.005958 -0.022235 0.034753
vertex 0.070031 -0.043875 0.031058
vertex 0.070350 -0.042681 0.034753
endloop
endfacet
facet normal -0.229718 -0.857321 0.460685
outer loop
vertex -0.005958 -0.022235 0.034753
vertex 0.070350 -0.042681 0.034753
vertex -0.005493 -0.020501 0.038211
endloop
endfacet
facet normal -0.229719 -0.857321 0.460683
outer loop
vertex -0.005493 -0.020501 0.038211
vertex 0.070350 -0.042681 0.034753
vertex 0.070815 -0.040948 0.038211
endloop
endfacet
facet normal -0.208403 -0.777771 0.592993
outer loop
vertex -0.005493 -0.020501 0.038211
vertex 0.070815 -0.040948 0.038211
vertex -0.004895 -0.018269 0.041348
endloop
endfacet
facet normal -0.208403 -0.777771 0.592992
outer loop
vertex -0.004895 -0.018269 0.041348
vertex 0.070815 -0.040948 0.038211
vertex 0.071413 -0.038716 0.041348
endloop
endfacet
facet normal -0.182026 -0.679331 0.710898
outer loop
vertex -0.004895 -0.018269 0.041348
vertex 0.071413 -0.038716 0.041348
vertex -0.004178 -0.015594 0.044088
endloop
endfacet
facet normal -0.182026 -0.679331 0.710898
outer loop
vertex -0.004178 -0.015594 0.044088
vertex 0.071413 -0.038716 0.041348
vertex 0.072130 -0.036041 0.044088
endloop
endfacet
facet normal -0.151228 -0.564389 0.811539
outer loop
vertex 0.041904 -0.026631 0.045000
vertex -0.003851 -0.014371 0.045000
vertex -0.004178 -0.015594 0.044088
endloop
endfacet
facet normal -0.151227 -0.564388 0.811540
outer loop
vertex 0.041904 -0.026631 0.045000
vertex -0.004178 -0.015594 0.044088
vertex 0.072130 -0.036041 0.044088
endloop
endfacet
facet normal -0.151229 -0.564389 0.811538
outer loop
vertex 0.072130 -0.036041 0.044088
vertex 0.072457 -0.034818 0.045000
vertex 0.041904 -0.026631 0.045000
endloop
endfacet
facet normal 0.151228 0.564389 0.811538
outer loop
vertex 0.004178 0.015594 0.044088
vertex 0.003851 0.014371 0.045000
vertex 0.034404 0.006184 0.045000
endloop
endfacet
facet normal 0.151227 0.564389 0.811539
outer loop
vertex 0.080487 -0.004853 0.044088
vertex 0.004178 0.015594 0.044088
vertex 0.034404 0.006184 0.045000
endloop
endfacet
facet normal 0.151227 0.564389 0.811539
outer loop
vertex 0.080487 -0.004853 0.044088
vertex 0.034404 0.006184 0.045000
vertex 0.080159 -0.006076 0.045000
endloop
endfacet
facet normal 0.182026 0.679331 0.710898
outer loop
vertex 0.004178 0.015594 0.044088
vertex 0.080487 -0.004853 0.044088
vertex 0.004895 0.018269 0.041348
endloop
endfacet
facet normal 0.182027 0.679331 0.710898
outer loop
vertex 0.004895 0.018269 0.041348
vertex 0.080487 -0.004853 0.044088
vertex 0.081203 -0.002177 0.041348
endloop
endfacet
facet normal 0.208403 0.777771 0.592992
outer loop
vertex 0.004895 0.018269 0.041348
vertex 0.081203 -0.002177 0.041348
vertex 0.005493 0.020501 0.038211
endloop
endfacet
facet normal 0.208403 0.777771 0.592992
outer loop
vertex 0.005493 0.020501 0.038211
vertex 0.081203 -0.002177 0.041348
vertex 0.081801 0.000054 0.038211
endloop
endfacet
facet normal 0.229719 0.857321 0.460685
outer loop
vertex 0.005493 0.020501 0.038211
vertex 0.081801 0.000054 0.038211
vertex 0.005958 0.022235 0.034753
endloop
endfacet
facet normal 0.229718 0.857321 0.460684
outer loop
vertex 0.005958 0.022235 0.034753
vertex 0.081801 0.000054 0.038211
vertex 0.082266 0.001788 0.034753
endloop
endfacet
facet normal 0.245455 0.916048 0.317187
outer loop
vertex 0.005958 0.022235 0.034753
vertex 0.082266 0.001788 0.034753
vertex 0.006278 0.023428 0.031058
endloop
endfacet
facet normal 0.245455 0.916048 0.317187
outer loop
vertex 0.006278 0.023428 0.031058
vertex 0.082266 0.001788 0.034753
vertex 0.082586 0.002982 0.031058
endloop
endfacet
facet normal 0.255229 0.952527 0.165986
outer loop
vertex 0.006278 0.023428 0.031058
vertex 0.082586 0.002982 0.031058
vertex 0.006445 0.024053 0.027216
endloop
endfacet
facet normal 0.255229 0.952527 0.165986
outer loop
vertex 0.006445 0.024053 0.027216
vertex 0.082586 0.002982 0.031058
vertex 0.082753 0.003606 0.027216
endloop
endfacet
facet normal 0.258804 0.965870 0.010752
outer loop
vertex 0.006445 0.024053 0.027216
vertex 0.082753 0.003606 0.027216
vertex 0.006456 0.024094 0.023320
endloop
endfacet
facet normal 0.258804 0.965870 0.010754
outer loop
vertex 0.006456 0.024094 0.023320
vertex 0.082753 0.003606 0.027216
vertex 0.082764 0.003647 0.023320
endloop
endfacet
facet normal 0.256094 0.955754 -0.144741
outer loop
vertex 0.006456 0.024094 0.023320
vertex 0.082764 0.003647 0.023320
vertex 0.006310 0.023549 0.019465
endloop
endfacet
facet normal 0.256093 0.955754 -0.144741
outer loop
vertex 0.006310 0.023549 0.019465
vertex 0.082764 0.003647 0.023320
vertex 0.082618 0.003102 0.019465
endloop
endfacet
facet normal 0.247163 0.922425 -0.296719
outer loop
vertex 0.006310 0.023549 0.019465
vertex 0.082618 0.003102 0.019465
vertex 0.006011 0.022432 0.015744
endloop
endfacet
facet normal 0.247163 0.922425 -0.296720
outer loop
vertex 0.006011 0.022432 0.015744
vertex 0.082618 0.003102 0.019465
vertex 0.082319 0.001985 0.015744
endloop
endfacet
facet normal 0.232229 0.866692 -0.441491
outer loop
vertex 0.006011 0.022432 0.015744
vertex 0.082319 0.001985 0.015744
vertex 0.005565 0.020771 0.012248
endloop
endfacet
facet normal 0.232230 0.866692 -0.441491
outer loop
vertex 0.005565 0.020771 0.012248
vertex 0.082319 0.001985 0.015744
vertex 0.081874 0.000324 0.012248
endloop
endfacet
facet normal 0.211655 0.789909 -0.575540
outer loop
vertex 0.005565 0.020771 0.012248
vertex 0.081874 0.000324 0.012248
vertex 0.004985 0.018605 0.009062
endloop
endfacet
facet normal 0.211655 0.789908 -0.575540
outer loop
vertex 0.004985 0.018605 0.009062
vertex 0.081874 0.000324 0.012248
vertex 0.081293 -0.001842 0.009062
endloop
endfacet
facet normal 0.185941 0.693940 -0.695610
outer loop
vertex 0.004985 0.018605 0.009062
vertex 0.081293 -0.001842 0.009062
vertex 0.004284 0.015987 0.006263
endloop
endfacet
facet normal -0.211655 -0.789909 -0.575540
outer loop
vertex -0.004985 -0.018605 0.009062
vertex -0.005565 -0.020771 0.012248
vertex -0.081874 -0.000324 0.012248
endloop
endfacet
facet normal -0.232229 -0.866692 -0.441491
outer loop
vertex -0.081874 -0.000324 0.012248
vertex -0.005565 -0.020771 0.012248
vertex -0.082319 -0.001985 0.015744
endloop
endfacet
facet normal -0.232230 -0.866692 -0.441491
outer loop
vertex -0.081874 -0.000324 0.012248
vertex -0.082319 -0.001985 0.015744
vertex -0.158627 0.018461 0.015744
endloop
endfacet
facet normal -0.247163 -0.922425 -0.296720
outer loop
vertex -0.158627 0.018461 0.015744
vertex -0.082319 -0.001985 0.015744
vertex -0.158926 0.017345 0.019465
endloop
endfacet
facet normal -0.232229 -0.866692 -0.441491
outer loop
vertex -0.082319 -0.001985 0.015744
vertex -0.005565 -0.020771 0.012248
vertex -0.006011 -0.022432 0.015744
endloop
endfacet
facet normal -0.247163 -0.922425 -0.296720
outer loop
vertex -0.082319 -0.001985 0.015744
vertex -0.006011 -0.022432 0.015744
vertex -0.082618 -0.003102 0.019465
endloop
endfacet
facet normal -0.247163 -0.922425 -0.296720
outer loop
vertex -0.082618 -0.003102 0.019465
vertex -0.006011 -0.022432 0.015744
vertex -0.006310 -0.023549 0.019465
endloop
endfacet
facet normal -0.256094 -0.955754 -0.144740
outer loop
vertex -0.082618 -0.003102 0.019465
vertex -0.006310 -0.023549 0.019465
vertex -0.082764 -0.003647 0.023320
endloop
endfacet
facet normal -0.256094 -0.955754 -0.144741
outer loop
vertex -0.082764 -0.003647 0.023320
vertex -0.006310 -0.023549 0.019465
vertex -0.006456 -0.024094 0.023320
endloop
endfacet
facet normal -0.258804 -0.965870 0.010754
outer loop
vertex -0.082764 -0.003647 0.023320
vertex -0.006456 -0.024094 0.023320
vertex -0.082753 -0.003606 0.027216
endloop
endfacet
facet normal -0.258804 -0.965870 0.010752
outer loop
vertex -0.082753 -0.003606 0.027216
vertex -0.006456 -0.024094 0.023320
vertex -0.006445 -0.024053 0.027216
endloop
endfacet
facet normal -0.255229 -0.952527 0.165986
outer loop
vertex -0.082753 -0.003606 0.027216
vertex -0.006445 -0.024053 0.027216
vertex -0.082586 -0.002982 0.031058
endloop
endfacet
facet normal -0.255229 -0.952527 0.165986
outer loop
vertex -0.082586 -0.002982 0.031058
vertex -0.006445 -0.024053 0.027216
vertex -0.006278 -0.023428 0.031058
endloop
endfacet
facet normal -0.245454 -0.916048 0.317187
outer loop
vertex -0.082586 -0.002982 0.031058
vertex -0.006278 -0.023428 0.031058
vertex -0.082266 -0.001788 0.034753
endloop
endfacet
facet normal -0.245455 -0.916048 0.317186
outer loop
vertex -0.082266 -0.001788 0.034753
vertex -0.006278 -0.023428 0.031058
vertex -0.005958 -0.022235 0.034753
endloop
endfacet
facet normal -0.229718 -0.857321 0.460684
outer loop
vertex -0.082266 -0.001788 0.034753
vertex -0.005958 -0.022235 0.034753
vertex -0.081801 -0.000054 0.038211
endloop
endfacet
facet normal -0.229719 -0.857321 0.460685
outer loop
vertex -0.081801 -0.000054 0.038211
vertex -0.005958 -0.022235 0.034753
vertex -0.005493 -0.020501 0.038211
endloop
endfacet
facet normal -0.208403 -0.777771 0.592993
outer loop
vertex -0.081801 -0.000054 0.038211
vertex -0.005493 -0.020501 0.038211
vertex -0.081203 0.002177 0.041348
endloop
endfacet
facet normal -0.208403 -0.777771 0.592992
outer loop
vertex -0.081203 0.002177 0.041348
vertex -0.005493 -0.020501 0.038211
vertex -0.004895 -0.018269 0.041348
endloop
endfacet
facet normal -0.182027 -0.679331 0.710898
outer loop
vertex -0.081203 0.002177 0.041348
vertex -0.004895 -0.018269 0.041348
vertex -0.080487 0.004853 0.044088
endloop
endfacet
facet normal -0.182026 -0.679331 0.710898
outer loop
vertex -0.080487 0.004853 0.044088
vertex -0.004895 -0.018269 0.041348
vertex -0.004178 -0.015594 0.044088
endloop
endfacet
facet normal -0.151227 -0.564389 0.811539
outer loop
vertex -0.034404 -0.006184 0.045000
vertex -0.080159 0.006076 0.045000
vertex -0.080487 0.004853 0.044088
endloop
endfacet
facet normal -0.151228 -0.564389 0.811539
outer loop
vertex -0.034404 -0.006184 0.045000
vertex -0.080487 0.004853 0.044088
vertex -0.004178 -0.015594 0.044088
endloop
endfacet
facet normal -0.151228 -0.564389 0.811539
outer loop
vertex -0.004178 -0.015594 0.044088
vertex -0.003851 -0.014371 0.045000
vertex -0.034404 -0.006184 0.045000
endloop
endfacet
facet normal 0.151228 0.564391 0.811538
outer loop
vertex -0.072457 0.034818 0.045000
vertex -0.041904 0.026631 0.045000
vertex -0.072130 0.036041 0.044088
endloop
endfacet
facet normal 0.151228 0.564389 0.811539
outer loop
vertex 0.004178 0.015594 0.044088
vertex -0.072130 0.036041 0.044088
vertex -0.041904 0.026631 0.045000
endloop
endfacet
facet normal 0.151228 0.564388 0.811539
outer loop
vertex 0.004178 0.015594 0.044088
vertex -0.041904 0.026631 0.045000
vertex 0.003851 0.014371 0.045000
endloop
endfacet
facet normal 0.182026 0.679331 0.710898
outer loop
vertex -0.072130 0.036041 0.044088
vertex 0.004178 0.015594 0.044088
vertex -0.071413 0.038716 0.041348
endloop
endfacet
facet normal 0.182026 0.679332 0.710897
outer loop
vertex -0.071413 0.038716 0.041348
vertex 0.004178 0.015594 0.044088
vertex 0.004895 0.018269 0.041348
endloop
endfacet
facet normal 0.208403 0.777771 0.592993
outer loop
vertex -0.071413 0.038716 0.041348
vertex 0.004895 0.018269 0.041348
vertex -0.070815 0.040948 0.038211
endloop
endfacet
facet normal 0.208403 0.777771 0.592993
outer loop
vertex -0.070815 0.040948 0.038211
vertex 0.004895 0.018269 0.041348
vertex 0.005493 0.020501 0.038211
endloop
endfacet
facet normal 0.229719 0.857321 0.460684
outer loop
vertex -0.070815 0.040948 0.038211
vertex 0.005493 0.020501 0.038211
vertex -0.070350 0.042681 0.034753
endloop
endfacet
facet normal 0.229718 0.857321 0.460685
outer loop
vertex -0.070350 0.042681 0.034753
vertex 0.005493 0.020501 0.038211
vertex 0.005958 0.022235 0.034753
endloop
endfacet
facet normal 0.245454 0.916048 0.317188
outer loop
vertex -0.070350 0.042681 0.034753
vertex 0.005958 0.022235 0.034753
vertex -0.070031 0.043875 0.031058
endloop
endfacet
facet normal 0.245455 0.916048 0.317186
outer loop
vertex -0.070031 0.043875 0.031058
vertex 0.005958 0.022235 0.034753
vertex 0.006278 0.023428 0.031058
endloop
endfacet
facet normal 0.255229 0.952527 0.165984
outer loop
vertex -0.070031 0.043875 0.031058
vertex 0.006278 0.023428 0.031058
vertex -0.069863 0.044500 0.027216
endloop
endfacet
facet normal 0.255229 0.952527 0.165985
outer loop
vertex -0.069863 0.044500 0.027216
vertex 0.006278 0.023428 0.031058
vertex 0.006445 0.024053 0.027216
endloop
endfacet
facet normal 0.258804 0.965870 0.010754
outer loop
vertex -0.069863 0.044500 0.027216
vertex 0.006445 0.024053 0.027216
vertex -0.069852 0.044540 0.023320
endloop
endfacet
facet normal 0.258804 0.965870 0.010753
outer loop
vertex -0.069852 0.044540 0.023320
vertex 0.006445 0.024053 0.027216
vertex 0.006456 0.024094 0.023320
endloop
endfacet
facet normal 0.256093 0.955754 -0.144742
outer loop
vertex -0.069852 0.044540 0.023320
vertex 0.006456 0.024094 0.023320
vertex -0.069998 0.043996 0.019465
endloop
endfacet
facet normal 0.256094 0.955754 -0.144739
outer loop
vertex -0.069998 0.043996 0.019465
vertex 0.006456 0.024094 0.023320
vertex 0.006310 0.023549 0.019465
endloop
endfacet
facet normal 0.247163 0.922425 -0.296720
outer loop
vertex -0.069998 0.043996 0.019465
vertex 0.006310 0.023549 0.019465
vertex -0.070297 0.042879 0.015744
endloop
endfacet
facet normal 0.247163 0.922425 -0.296721
outer loop
vertex -0.070297 0.042879 0.015744
vertex 0.006310 0.023549 0.019465
vertex 0.006011 0.022432 0.015744
endloop
endfacet
facet normal 0.232229 0.866692 -0.441491
outer loop
vertex -0.070297 0.042879 0.015744
vertex 0.006011 0.022432 0.015744
vertex -0.070743 0.041217 0.012248
endloop
endfacet
facet normal 0.232230 0.866692 -0.441490
outer loop
vertex -0.070743 0.041217 0.012248
vertex 0.006011 0.022432 0.015744
vertex 0.005565 0.020771 0.012248
endloop
endfacet
facet normal 0.211656 0.789909 -0.575539
outer loop
vertex -0.070743 0.041217 0.012248
vertex 0.005565 0.020771 0.012248
vertex -0.071323 0.039051 0.009062
endloop
endfacet
facet normal 0.211655 0.789908 -0.575541
outer loop
vertex -0.071323 0.039051 0.009062
vertex 0.005565 0.020771 0.012248
vertex 0.004985 0.018605 0.009062
endloop
endfacet
facet normal 0.185941 0.693940 -0.695610
outer loop
vertex -0.071323 0.039051 0.009062
vertex 0.004985 0.018605 0.009062
vertex -0.072024 0.036434 0.006263
endloop
endfacet
facet normal 0.185941 0.693940 -0.695610
outer loop
vertex -0.072024 0.036434 0.006263
vertex 0.004985 0.018605 0.009062
vertex 0.004284 0.015987 0.006263
endloop
endfacet
facet normal 0.155710 0.581117 -0.798785
outer loop
vertex -0.072024 0.036434 0.006263
vertex 0.004284 0.015987 0.006263
vertex -0.072830 0.033427 0.003919
endloop
endfacet
facet normal -0.256093 -0.955754 -0.144741
outer loop
vertex -0.159072 0.016800 0.023320
vertex -0.158926 0.017345 0.019465
vertex -0.082618 -0.003102 0.019465
endloop
endfacet
facet normal -0.247163 -0.922425 -0.296720
outer loop
vertex -0.082618 -0.003102 0.019465
vertex -0.158926 0.017345 0.019465
vertex -0.082319 -0.001985 0.015744
endloop
endfacet
facet normal -0.256094 -0.955754 -0.144741
outer loop
vertex -0.159072 0.016800 0.023320
vertex -0.082618 -0.003102 0.019465
vertex -0.082764 -0.003647 0.023320
endloop
endfacet
facet normal -0.258804 -0.965870 0.010753
outer loop
vertex -0.159061 0.016840 0.027216
vertex -0.159072 0.016800 0.023320
vertex -0.082764 -0.003647 0.023320
endloop
endfacet
facet normal -0.258804 -0.965870 0.010754
outer loop
vertex -0.159061 0.016840 0.027216
vertex -0.082764 -0.003647 0.023320
vertex -0.082753 -0.003606 0.027216
endloop
endfacet
facet normal -0.255229 -0.952527 0.165985
outer loop
vertex -0.158894 0.017465 0.031058
vertex -0.159061 0.016840 0.027216
vertex -0.082753 -0.003606 0.027216
endloop
endfacet
facet normal -0.255229 -0.952527 0.165985
outer loop
vertex -0.158894 0.017465 0.031058
vertex -0.082753 -0.003606 0.027216
vertex -0.082586 -0.002982 0.031058
endloop
endfacet
facet normal -0.245454 -0.916048 0.317187
outer loop
vertex -0.158574 0.018659 0.034753
vertex -0.158894 0.017465 0.031058
vertex -0.082586 -0.002982 0.031058
endloop
endfacet
facet normal -0.245455 -0.916048 0.317187
outer loop
vertex -0.158574 0.018659 0.034753
vertex -0.082586 -0.002982 0.031058
vertex -0.082266 -0.001788 0.034753
endloop
endfacet
facet normal -0.229718 -0.857321 0.460685
outer loop
vertex -0.158110 0.020392 0.038211
vertex -0.158574 0.018659 0.034753
vertex -0.082266 -0.001788 0.034753
endloop
endfacet
facet normal -0.229719 -0.857321 0.460685
outer loop
vertex -0.158110 0.020392 0.038211
vertex -0.082266 -0.001788 0.034753
vertex -0.081801 -0.000054 0.038211
endloop
endfacet
facet normal -0.208403 -0.777772 0.592992
outer loop
vertex -0.157512 0.022624 0.041348
vertex -0.158110 0.020392 0.038211
vertex -0.081801 -0.000054 0.038211
endloop
endfacet
facet normal -0.208403 -0.777771 0.592992
outer loop
vertex -0.157512 0.022624 0.041348
vertex -0.081801 -0.000054 0.038211
vertex -0.081203 0.002177 0.041348
endloop
endfacet
facet normal -0.182027 -0.679330 0.710898
outer loop
vertex -0.156795 0.025300 0.044088
vertex -0.157512 0.022624 0.041348
vertex -0.081203 0.002177 0.041348
endloop
endfacet
facet normal -0.182025 -0.679331 0.710898
outer loop
vertex -0.156795 0.025300 0.044088
vertex -0.081203 0.002177 0.041348
vertex -0.080487 0.004853 0.044088
endloop
endfacet
facet normal -0.151227 -0.564388 0.811539
outer loop
vertex -0.110712 0.014262 0.045000
vertex -0.156467 0.026522 0.045000
vertex -0.156795 0.025300 0.044088
endloop
endfacet
facet normal -0.151229 -0.564389 0.811539
outer loop
vertex -0.110712 0.014262 0.045000
vertex -0.156795 0.025300 0.044088
vertex -0.080487 0.004853 0.044088
endloop
endfacet
facet normal -0.151228 -0.564389 0.811539
outer loop
vertex -0.080487 0.004853 0.044088
vertex -0.080159 0.006076 0.045000
vertex -0.110712 0.014262 0.045000
endloop
endfacet
facet normal 0.151227 0.564390 0.811539
outer loop
vertex -0.148766 0.055265 0.045000
vertex -0.118212 0.047078 0.045000
vertex -0.148438 0.056487 0.044088
endloop
endfacet
facet normal 0.151228 0.564388 0.811539
outer loop
vertex -0.072130 0.036041 0.044088
vertex -0.148438 0.056487 0.044088
vertex -0.118212 0.047078 0.045000
endloop
endfacet
facet normal 0.151228 0.564388 0.811540
outer loop
vertex -0.072130 0.036041 0.044088
vertex -0.118212 0.047078 0.045000
vertex -0.072457 0.034818 0.045000
endloop
endfacet
facet normal 0.182026 0.679330 0.710899
outer loop
vertex -0.147721 0.059163 0.041348
vertex -0.148438 0.056487 0.044088
vertex -0.072130 0.036041 0.044088
endloop
endfacet
facet normal 0.182026 0.679331 0.710898
outer loop
vertex -0.147721 0.059163 0.041348
vertex -0.072130 0.036041 0.044088
vertex -0.071413 0.038716 0.041348
endloop
endfacet
facet normal 0.208403 0.777771 0.592993
outer loop
vertex -0.147123 0.061394 0.038211
vertex -0.147721 0.059163 0.041348
vertex -0.071413 0.038716 0.041348
endloop
endfacet
facet normal 0.208404 0.777772 0.592991
outer loop
vertex -0.147123 0.061394 0.038211
vertex -0.071413 0.038716 0.041348
vertex -0.070815 0.040948 0.038211
endloop
endfacet
facet normal 0.229718 0.857320 0.460687
outer loop
vertex -0.146659 0.063128 0.034753
vertex -0.147123 0.061394 0.038211
vertex -0.070815 0.040948 0.038211
endloop
endfacet
facet normal 0.229718 0.857321 0.460684
outer loop
vertex -0.146659 0.063128 0.034753
vertex -0.070815 0.040948 0.038211
vertex -0.070350 0.042681 0.034753
endloop
endfacet
facet normal 0.245454 0.916049 0.317186
outer loop
vertex -0.146339 0.064322 0.031058
vertex -0.146659 0.063128 0.034753
vertex -0.070350 0.042681 0.034753
endloop
endfacet
facet normal 0.245455 0.916048 0.317186
outer loop
vertex -0.146339 0.064322 0.031058
vertex -0.070350 0.042681 0.034753
vertex -0.070031 0.043875 0.031058
endloop
endfacet
facet normal 0.255228 0.952527 0.165985
outer loop
vertex -0.146171 0.064947 0.027216
vertex -0.146339 0.064322 0.031058
vertex -0.070031 0.043875 0.031058
endloop
endfacet
facet normal 0.255229 0.952527 0.165986
outer loop
vertex -0.146171 0.064947 0.027216
vertex -0.070031 0.043875 0.031058
vertex -0.069863 0.044500 0.027216
endloop
endfacet
facet normal 0.258804 0.965870 0.010751
outer loop
vertex -0.146160 0.064987 0.023320
vertex -0.146171 0.064947 0.027216
vertex -0.069863 0.044500 0.027216
endloop
endfacet
facet normal 0.258804 0.965870 0.010753
outer loop
vertex -0.146160 0.064987 0.023320
vertex -0.069863 0.044500 0.027216
vertex -0.069852 0.044540 0.023320
endloop
endfacet
facet normal 0.256094 0.955754 -0.144741
outer loop
vertex -0.146306 0.064442 0.019465
vertex -0.146160 0.064987 0.023320
vertex -0.069852 0.044540 0.023320
endloop
endfacet
facet normal 0.256094 0.955754 -0.144740
outer loop
vertex -0.146306 0.064442 0.019465
vertex -0.069852 0.044540 0.023320
vertex -0.069998 0.043996 0.019465
endloop
endfacet
facet normal 0.247163 0.922424 -0.296723
outer loop
vertex -0.146606 0.063326 0.015744
vertex -0.146306 0.064442 0.019465
vertex -0.069998 0.043996 0.019465
endloop
endfacet
facet normal 0.247163 0.922426 -0.296717
outer loop
vertex -0.146606 0.063326 0.015744
vertex -0.069998 0.043996 0.019465
vertex -0.070297 0.042879 0.015744
endloop
endfacet
facet normal 0.232229 0.866692 -0.441491
outer loop
vertex -0.147051 0.061664 0.012248
vertex -0.146606 0.063326 0.015744
vertex -0.070297 0.042879 0.015744
endloop
endfacet
facet normal 0.232230 0.866692 -0.441491
outer loop
vertex -0.147051 0.061664 0.012248
vertex -0.070297 0.042879 0.015744
vertex -0.070743 0.041217 0.012248
endloop
endfacet
facet normal 0.211655 0.789908 -0.575541
outer loop
vertex -0.147631 0.059498 0.009062
vertex -0.147051 0.061664 0.012248
vertex -0.070743 0.041217 0.012248
endloop
endfacet
facet normal 0.211656 0.789909 -0.575539
outer loop
vertex -0.147631 0.059498 0.009062
vertex -0.070743 0.041217 0.012248
vertex -0.071323 0.039051 0.009062
endloop
endfacet
facet normal 0.185941 0.693940 -0.695610
outer loop
vertex -0.148333 0.056880 0.006263
vertex -0.147631 0.059498 0.009062
vertex -0.071323 0.039051 0.009062
endloop
endfacet
facet normal 0.185941 0.693940 -0.695611
outer loop
vertex -0.148333 0.056880 0.006263
vertex -0.071323 0.039051 0.009062
vertex -0.072024 0.036434 0.006263
endloop
endfacet
facet normal 0.155710 0.581117 -0.798785
outer loop
vertex -0.149138 0.053874 0.003919
vertex -0.148333 0.056880 0.006263
vertex -0.072024 0.036434 0.006263
endloop
endfacet
facet normal 0.155710 0.581117 -0.798785
outer loop
vertex -0.149138 0.053874 0.003919
vertex -0.072024 0.036434 0.006263
vertex -0.072830 0.033427 0.003919
endloop
endfacet
facet normal -0.258819 -0.965926 0.000000
outer loop
vertex 0.226336 -0.070999 0.000000
vertex 0.226336 -0.070999 0.002087
vertex -0.231513 0.051681 0.000000
endloop
endfacet
facet normal -0.258819 -0.965926 0.000000
outer loop
vertex -0.231513 0.051681 0.000000
vertex 0.226336 -0.070999 0.002087
vertex -0.231513 0.051681 0.002087
endloop
endfacet
facet normal -0.965926 0.258819 0.000000
outer loop
vertex -0.231513 0.051681 0.000000
vertex -0.231513 0.051681 0.002087
vertex -0.226336 0.070999 0.000000
endloop
endfacet
facet normal -0.965926 0.258819 0.000000
outer loop
vertex -0.226336 0.070999 0.000000
vertex -0.231513 0.051681 0.002087
vertex -0.226336 0.070999 0.002087
endloop
endfacet
facet normal -0.965925 0.258821 -0.000003
outer loop
vertex -0.226336 0.070999 0.002087
vertex -0.231513 0.051681 0.002087
vertex -0.225470 0.074232 0.003861
endloop
endfacet
facet normal -0.965925 0.258821 -0.000002
outer loop
vertex -0.225470 0.074232 0.003861
vertex -0.231513 0.051681 0.002087
vertex -0.224683 0.077170 0.006120
endloop
endfacet
facet normal -0.965927 0.258816 -0.000002
outer loop
vertex -0.224683 0.077170 0.006120
vertex -0.231513 0.051681 0.002087
vertex -0.223993 0.079743 0.008813
endloop
endfacet
facet normal -0.965925 0.258822 0.000000
outer loop
vertex -0.223993 0.079743 0.008813
vertex -0.231513 0.051681 0.002087
vertex -0.223417 0.081894 0.011878
endloop
endfacet
facet normal -0.965925 0.258824 -0.000003
outer loop
vertex -0.223417 0.081894 0.011878
vertex -0.231513 0.051681 0.002087
vertex -0.222967 0.083573 0.015243
endloop
endfacet
facet normal -0.965926 0.258817 0.000002
outer loop
vertex -0.222967 0.083573 0.015243
vertex -0.231513 0.051681 0.002087
vertex -0.222654 0.084742 0.018833
endloop
endfacet
facet normal -0.965926 0.258817 0.000003
outer loop
vertex -0.222654 0.084742 0.018833
vertex -0.231513 0.051681 0.002087
vertex -0.222485 0.085373 0.022564
endloop
endfacet
facet normal -0.965925 0.258824 -0.000004
outer loop
vertex -0.222485 0.085373 0.022564
vertex -0.231513 0.051681 0.002087
vertex -0.222463 0.085453 0.026352
endloop
endfacet
facet normal -0.965926 0.258820 0.000002
outer loop
vertex -0.222463 0.085453 0.026352
vertex -0.231513 0.051681 0.002087
vertex -0.222590 0.084979 0.030108
endloop
endfacet
facet normal -0.965927 0.258815 0.000001
outer loop
vertex -0.222590 0.084979 0.030108
vertex -0.231513 0.051681 0.002087
vertex -0.222863 0.083962 0.033747
endloop
endfacet
facet normal -0.965924 0.258826 -0.000002
outer loop
vertex -0.222863 0.083962 0.033747
vertex -0.231513 0.051681 0.002087
vertex -0.223275 0.082426 0.037185
endloop
endfacet
facet normal -0.965927 0.258816 0.000001
outer loop
vertex -0.223275 0.082426 0.037185
vertex -0.231513 0.051681 0.002087
vertex -0.223816 0.080406 0.040343
endloop
endfacet
facet normal -0.965925 0.258823 0.000002
outer loop
vertex -0.223816 0.080406 0.040343
vertex -0.231513 0.051681 0.002087
vertex -0.224474 0.077947 0.043149
endloop
endfacet
facet normal -0.965925 0.258822 -0.000001
outer loop
vertex -0.224474 0.077947 0.043149
vertex -0.231513 0.051681 0.002087
vertex -0.225313 0.074818 0.045000
endloop
endfacet
facet normal -0.965916 0.258854 -0.000008
outer loop
vertex -0.224474 0.077947 0.043149
vertex -0.225313 0.074818 0.045000
vertex -0.225064 0.075748 0.045000
endloop
endfacet
facet normal -0.965927 0.258816 0.000000
outer loop
vertex -0.226375 0.070855 0.045000
vertex -0.225313 0.074818 0.045000
vertex -0.231513 0.051681 0.002087
endloop
endfacet
facet normal -0.965926 0.258818 0.000000
outer loop
vertex -0.227365 0.067161 0.045000
vertex -0.226375 0.070855 0.045000
vertex -0.231513 0.051681 0.002087
endloop
endfacet
facet normal -0.965923 0.258828 0.000000
outer loop
vertex -0.227365 0.067161 0.045000
vertex -0.231513 0.051681 0.002087
vertex -0.232379 0.048448 0.003861
endloop
endfacet
facet normal -0.965942 0.258760 0.000000
outer loop
vertex -0.227365 0.067161 0.045000
vertex -0.232379 0.048448 0.003861
vertex -0.227454 0.066829 0.045000
endloop
endfacet
facet normal -0.965924 0.258825 0.000001
outer loop
vertex -0.227454 0.066829 0.045000
vertex -0.232379 0.048448 0.003861
vertex -0.233166 0.045511 0.006120
endloop
endfacet
facet normal -0.965952 0.258719 0.000000
outer loop
vertex -0.227454 0.066829 0.045000
vertex -0.233166 0.045511 0.006120
vertex -0.227549 0.066473 0.045000
endloop
endfacet
facet normal -0.965924 0.258826 -0.000000
outer loop
vertex -0.227549 0.066473 0.045000
vertex -0.233166 0.045511 0.006120
vertex -0.233855 0.042937 0.008813
endloop
endfacet
facet normal -0.965930 0.258805 -0.000008
outer loop
vertex -0.227549 0.066473 0.045000
vertex -0.233855 0.042937 0.008813
vertex -0.227653 0.066085 0.045000
endloop
endfacet
facet normal -0.965926 0.258819 0.000000
outer loop
vertex -0.227653 0.066085 0.045000
vertex -0.233855 0.042937 0.008813
vertex -0.234432 0.040786 0.011878
endloop
endfacet
facet normal -0.965925 0.258821 0.000020
outer loop
vertex -0.227653 0.066085 0.045000
vertex -0.234432 0.040786 0.011878
vertex -0.227768 0.065656 0.045000
endloop
endfacet
facet normal -0.965927 0.258813 0.000000
outer loop
vertex -0.227768 0.065656 0.045000
vertex -0.234432 0.040786 0.011878
vertex -0.234882 0.039107 0.015243
endloop
endfacet
facet normal -0.965920 0.258841 0.000000
outer loop
vertex -0.227768 0.065656 0.045000
vertex -0.234882 0.039107 0.015243
vertex -0.227897 0.065173 0.045000
endloop
endfacet
facet normal -0.965925 0.258820 -0.000000
outer loop
vertex -0.227897 0.065173 0.045000
vertex -0.234882 0.039107 0.015243
vertex -0.235195 0.037938 0.018833
endloop
endfacet
facet normal -0.965926 0.258819 0.000004
outer loop
vertex -0.227897 0.065173 0.045000
vertex -0.235195 0.037938 0.018833
vertex -0.228046 0.064619 0.045000
endloop
endfacet
facet normal -0.965925 0.258823 -0.000002
outer loop
vertex -0.228046 0.064619 0.045000
vertex -0.235195 0.037938 0.018833
vertex -0.235364 0.037307 0.022564
endloop
endfacet
facet normal -0.965940 0.258765 -0.000012
outer loop
vertex -0.228046 0.064619 0.045000
vertex -0.235364 0.037307 0.022564
vertex -0.228220 0.063968 0.045000
endloop
endfacet
facet normal -0.965923 0.258829 0.000003
outer loop
vertex -0.228220 0.063968 0.045000
vertex -0.235364 0.037307 0.022564
vertex -0.235385 0.037227 0.026352
endloop
endfacet
facet normal -0.965940 0.258766 0.000008
outer loop
vertex -0.228220 0.063968 0.045000
vertex -0.235385 0.037227 0.026352
vertex -0.228431 0.063183 0.045000
endloop
endfacet
facet normal -0.965925 0.258821 -0.000001
outer loop
vertex -0.228431 0.063183 0.045000
vertex -0.235385 0.037227 0.026352
vertex -0.235258 0.037701 0.030108
endloop
endfacet
facet normal -0.965919 0.258844 -0.000023
outer loop
vertex -0.228431 0.063183 0.045000
vertex -0.235258 0.037701 0.030108
vertex -0.228693 0.062205 0.045000
endloop
endfacet
facet normal -0.965925 0.258821 0.000004
outer loop
vertex -0.229704 0.058429 0.045000
vertex -0.228693 0.062205 0.045000
vertex -0.235258 0.037701 0.030108
endloop
endfacet
facet normal -0.965926 0.258816 -0.000000
outer loop
vertex -0.229704 0.058429 0.045000
vertex -0.235258 0.037701 0.030108
vertex -0.234986 0.038718 0.033747
endloop
endfacet
facet normal -0.965929 0.258808 -0.000008
outer loop
vertex -0.229704 0.058429 0.045000
vertex -0.234986 0.038718 0.033747
vertex -0.230025 0.057234 0.045000
endloop
endfacet
facet normal -0.965925 0.258822 0.000002
outer loop
vertex -0.230025 0.057234 0.045000
vertex -0.234986 0.038718 0.033747
vertex -0.234574 0.040254 0.037185
endloop
endfacet
facet normal -0.965928 0.258811 0.000007
outer loop
vertex -0.230025 0.057234 0.045000
vertex -0.234574 0.040254 0.037185
vertex -0.230440 0.055684 0.045000
endloop
endfacet
facet normal -0.965925 0.258822 -0.000002
outer loop
vertex -0.230440 0.055684 0.045000
vertex -0.234574 0.040254 0.037185
vertex -0.234033 0.042275 0.040343
endloop
endfacet
facet normal -0.965930 0.258802 0.000006
outer loop
vertex -0.230440 0.055684 0.045000
vertex -0.234033 0.042275 0.040343
vertex -0.231008 0.053564 0.045000
endloop
endfacet
facet normal -0.965923 0.258829 -0.000005
outer loop
vertex -0.231008 0.053564 0.045000
vertex -0.234033 0.042275 0.040343
vertex -0.233374 0.044733 0.043149
endloop
endfacet
facet normal -0.965923 0.258831 0.000007
outer loop
vertex -0.231008 0.053564 0.045000
vertex -0.233374 0.044733 0.043149
vertex -0.231844 0.050444 0.045000
endloop
endfacet
facet normal -0.965926 0.258819 0.000006
outer loop
vertex -0.232785 0.046932 0.045000
vertex -0.231844 0.050444 0.045000
vertex -0.233374 0.044733 0.043149
endloop
endfacet
facet normal 0.965926 -0.258819 0.000000
outer loop
vertex 0.226336 -0.070999 0.000000
vertex 0.231513 -0.051681 0.000000
vertex 0.226336 -0.070999 0.002087
endloop
endfacet
facet normal 0.965926 -0.258819 0.000000
outer loop
vertex 0.226336 -0.070999 0.002087
vertex 0.231513 -0.051681 0.000000
vertex 0.231513 -0.051681 0.002087
endloop
endfacet
facet normal 0.965926 -0.258819 0.000002
outer loop
vertex 0.226336 -0.070999 0.002087
vertex 0.231513 -0.051681 0.002087
vertex 0.232379 -0.048448 0.003861
endloop
endfacet
facet normal 0.965925 -0.258821 0.000002
outer loop
vertex 0.232379 -0.048448 0.003861
vertex 0.233166 -0.045511 0.006120
vertex 0.226336 -0.070999 0.002087
endloop
endfacet
facet normal 0.965926 -0.258818 0.000001
outer loop
vertex 0.226336 -0.070999 0.002087
vertex 0.233166 -0.045511 0.006120
vertex 0.233855 -0.042937 0.008813
endloop
endfacet
facet normal 0.965926 -0.258820 0.000001
outer loop
vertex 0.226336 -0.070999 0.002087
vertex 0.233855 -0.042937 0.008813
vertex 0.234432 -0.040786 0.011878
endloop
endfacet
facet normal 0.965925 -0.258824 0.000001
outer loop
vertex 0.234432 -0.040786 0.011878
vertex 0.234882 -0.039107 0.015243
vertex 0.226336 -0.070999 0.002087
endloop
endfacet
facet normal 0.965927 -0.258815 -0.000000
outer loop
vertex 0.226336 -0.070999 0.002087
vertex 0.234882 -0.039107 0.015243
vertex 0.235195 -0.037938 0.018833
endloop
endfacet
facet normal 0.965925 -0.258822 -0.000003
outer loop
vertex 0.226336 -0.070999 0.002087
vertex 0.235195 -0.037938 0.018833
vertex 0.235364 -0.037307 0.022564
endloop
endfacet
facet normal 0.965925 -0.258824 0.000004
outer loop
vertex 0.235364 -0.037307 0.022564
vertex 0.235385 -0.037227 0.026352
vertex 0.226336 -0.070999 0.002087
endloop
endfacet
facet normal 0.965926 -0.258819 -0.000002
outer loop
vertex 0.226336 -0.070999 0.002087
vertex 0.235385 -0.037227 0.026352
vertex 0.235258 -0.037701 0.030108
endloop
endfacet
facet normal 0.965926 -0.258818 0.000000
outer loop
vertex 0.226336 -0.070999 0.002087
vertex 0.235258 -0.037701 0.030108
vertex 0.234986 -0.038718 0.033747
endloop
endfacet
facet normal 0.965927 -0.258816 0.000001
outer loop
vertex 0.234986 -0.038718 0.033747
vertex 0.234574 -0.040254 0.037185
vertex 0.226336 -0.070999 0.002087
endloop
endfacet
facet normal 0.965927 -0.258813 -0.000001
outer loop
vertex 0.226336 -0.070999 0.002087
vertex 0.234574 -0.040254 0.037185
vertex 0.234033 -0.042275 0.040343
endloop
endfacet
facet normal 0.965924 -0.258825 -0.000001
outer loop
vertex 0.226336 -0.070999 0.002087
vertex 0.234033 -0.042275 0.040343
vertex 0.233374 -0.044733 0.043149
endloop
endfacet
facet normal 0.965925 -0.258822 0.000000
outer loop
vertex 0.232536 -0.047863 0.045000
vertex 0.226336 -0.070999 0.002087
vertex 0.233374 -0.044733 0.043149
endloop
endfacet
facet normal 0.965916 -0.258855 0.000012
outer loop
vertex 0.232536 -0.047863 0.045000
vertex 0.233374 -0.044733 0.043149
vertex 0.232785 -0.046932 0.045000
endloop
endfacet
facet normal 0.965927 -0.258816 0.000000
outer loop
vertex 0.231474 -0.051825 0.045000
vertex 0.226336 -0.070999 0.002087
vertex 0.232536 -0.047863 0.045000
endloop
endfacet
facet normal 0.965926 -0.258818 0.000000
outer loop
vertex 0.230484 -0.055519 0.045000
vertex 0.226336 -0.070999 0.002087
vertex 0.231474 -0.051825 0.045000
endloop
endfacet
facet normal 0.965926 -0.258820 -0.000003
outer loop
vertex 0.228144 -0.064251 0.045000
vertex 0.222590 -0.084979 0.030108
vertex 0.229156 -0.060476 0.045000
endloop
endfacet
facet normal 0.965925 -0.258823 0.000003
outer loop
vertex 0.222590 -0.084979 0.030108
vertex 0.222463 -0.085453 0.026352
vertex 0.229418 -0.059497 0.045000
endloop
endfacet
facet normal 0.965919 -0.258844 0.000018
outer loop
vertex 0.222590 -0.084979 0.030108
vertex 0.229418 -0.059497 0.045000
vertex 0.229156 -0.060476 0.045000
endloop
endfacet
facet normal 0.965924 -0.258825 -0.000003
outer loop
vertex 0.222463 -0.085453 0.026352
vertex 0.222485 -0.085373 0.022564
vertex 0.229629 -0.058712 0.045000
endloop
endfacet
facet normal 0.965939 -0.258768 -0.000006
outer loop
vertex 0.222463 -0.085453 0.026352
vertex 0.229629 -0.058712 0.045000
vertex 0.229418 -0.059497 0.045000
endloop
endfacet
facet normal 0.965924 -0.258827 -0.000009
outer loop
vertex 0.225064 -0.075748 0.045000
vertex 0.224474 -0.077947 0.043149
vertex 0.226005 -0.072236 0.045000
endloop
endfacet
facet normal 0.965926 -0.258818 0.000003
outer loop
vertex 0.224474 -0.077947 0.043149
vertex 0.223816 -0.080406 0.040343
vertex 0.226841 -0.069117 0.045000
endloop
endfacet
facet normal 0.965925 -0.258821 -0.000004
outer loop
vertex 0.224474 -0.077947 0.043149
vertex 0.226841 -0.069117 0.045000
vertex 0.226005 -0.072236 0.045000
endloop
endfacet
facet normal 0.965926 -0.258819 0.000000
outer loop
vertex 0.223816 -0.080406 0.040343
vertex 0.223275 -0.082426 0.037185
vertex 0.227409 -0.066996 0.045000
endloop
endfacet
facet normal 0.965925 -0.258823 0.000004
outer loop
vertex 0.223816 -0.080406 0.040343
vertex 0.227409 -0.066996 0.045000
vertex 0.226841 -0.069117 0.045000
endloop
endfacet
facet normal 0.965927 -0.258816 -0.000002
outer loop
vertex 0.223275 -0.082426 0.037185
vertex 0.222863 -0.083962 0.033747
vertex 0.227824 -0.065446 0.045000
endloop
endfacet
facet normal 0.965928 -0.258809 -0.000001
outer loop
vertex 0.223275 -0.082426 0.037185
vertex 0.227824 -0.065446 0.045000
vertex 0.227409 -0.066996 0.045000
endloop
endfacet
facet normal 0.965926 -0.258816 0.000000
outer loop
vertex 0.222863 -0.083962 0.033747
vertex 0.222590 -0.084979 0.030108
vertex 0.228144 -0.064251 0.045000
endloop
endfacet
facet normal 0.965929 -0.258806 0.000007
outer loop
vertex 0.222863 -0.083962 0.033747
vertex 0.228144 -0.064251 0.045000
vertex 0.227824 -0.065446 0.045000
endloop
endfacet
facet normal 0.965924 -0.258826 0.000002
outer loop
vertex 0.222485 -0.085373 0.022564
vertex 0.222654 -0.084742 0.018833
vertex 0.229803 -0.058061 0.045000
endloop
endfacet
facet normal 0.965925 -0.258824 0.000013
outer loop
vertex 0.222485 -0.085373 0.022564
vertex 0.229803 -0.058061 0.045000
vertex 0.229629 -0.058712 0.045000
endloop
endfacet
facet normal 0.965927 -0.258815 0.000001
outer loop
vertex 0.222654 -0.084742 0.018833
vertex 0.222967 -0.083573 0.015243
vertex 0.229952 -0.057507 0.045000
endloop
endfacet
facet normal 0.965926 -0.258820 0.000001
outer loop
vertex 0.222654 -0.084742 0.018833
vertex 0.229952 -0.057507 0.045000
vertex 0.229803 -0.058061 0.045000
endloop
endfacet
facet normal 0.965928 -0.258810 -0.000000
outer loop
vertex 0.222967 -0.083573 0.015243
vertex 0.223417 -0.081894 0.011878
vertex 0.230081 -0.057024 0.045000
endloop
endfacet
facet normal 0.965904 -0.258900 -0.000006
outer loop
vertex 0.222967 -0.083573 0.015243
vertex 0.230081 -0.057024 0.045000
vertex 0.229952 -0.057507 0.045000
endloop
endfacet
facet normal 0.965929 -0.258807 -0.000000
outer loop
vertex 0.223417 -0.081894 0.011878
vertex 0.223993 -0.079743 0.008813
vertex 0.230196 -0.056595 0.045000
endloop
endfacet
facet normal 0.965909 -0.258880 -0.000016
outer loop
vertex 0.223417 -0.081894 0.011878
vertex 0.230196 -0.056595 0.045000
vertex 0.230081 -0.057024 0.045000
endloop
endfacet
facet normal 0.965924 -0.258827 -0.000000
outer loop
vertex 0.223993 -0.079743 0.008813
vertex 0.224683 -0.077169 0.006120
vertex 0.230300 -0.056207 0.045000
endloop
endfacet
facet normal 0.965930 -0.258804 0.000009
outer loop
vertex 0.223993 -0.079743 0.008813
vertex 0.230300 -0.056207 0.045000
vertex 0.230196 -0.056595 0.045000
endloop
endfacet
facet normal 0.965925 -0.258823 -0.000001
outer loop
vertex 0.224683 -0.077169 0.006120
vertex 0.225470 -0.074232 0.003861
vertex 0.230395 -0.055851 0.045000
endloop
endfacet
facet normal 0.965920 -0.258840 -0.000003
outer loop
vertex 0.224683 -0.077169 0.006120
vertex 0.230395 -0.055851 0.045000
vertex 0.230300 -0.056207 0.045000
endloop
endfacet
facet normal 0.965928 -0.258811 -0.000000
outer loop
vertex 0.225470 -0.074232 0.003861
vertex 0.226336 -0.070999 0.002087
vertex 0.230484 -0.055519 0.045000
endloop
endfacet
facet normal 0.965941 -0.258763 0.000006
outer loop
vertex 0.225470 -0.074232 0.003861
vertex 0.230484 -0.055519 0.045000
vertex 0.230395 -0.055851 0.045000
endloop
endfacet
facet normal 0.000000 0.000000 1.000000
outer loop
vertex 0.232536 -0.047863 0.045000
vertex 0.232785 -0.046932 0.045000
vertex 0.204453 -0.039300 0.045000
endloop
endfacet
facet normal 0.707107 0.000000 -0.707107
outer loop
vertex 0.156467 -0.026522 0.045000
vertex 0.110712 -0.014262 0.045000
vertex 0.080159 -0.006076 0.045000
endloop
endfacet
facet normal 0.000002 0.000000 1.000000
outer loop
vertex 0.232536 -0.047863 0.045000
vertex 0.204453 -0.039300 0.045000
vertex 0.156467 -0.026522 0.045000
endloop
endfacet
facet normal -1.000000 0.000000 0.000000
outer loop
vertex 0.230395 -0.055851 0.045000
vertex 0.230484 -0.055519 0.045000
vertex 0.231474 -0.051825 0.045000
endloop
endfacet
facet normal 0.000000 0.000000 1.000000
outer loop
vertex 0.231474 -0.051825 0.045000
vertex 0.232536 -0.047863 0.045000
vertex 0.156467 -0.026522 0.045000
endloop
endfacet
facet normal 1.000000 0.000000 0.000000
outer loop
vertex 0.080159 -0.006076 0.045000
vertex 0.034404 0.006184 0.045000
vertex 0.003851 0.014371 0.045000
endloop
endfacet
facet normal -0.000000 0.000000 1.000000
outer loop
vertex 0.231474 -0.051825 0.045000
vertex 0.156467 -0.026522 0.045000
vertex 0.080159 -0.006076 0.045000
endloop
endfacet
facet normal 0.800000 0.000000 0.600000
outer loop
vertex 0.230196 -0.056595 0.045000
vertex 0.230300 -0.056207 0.045000
vertex 0.230395 -0.055851 0.045000
endloop
endfacet
facet normal 0.000000 0.000000 1.000000
outer loop
vertex 0.230395 -0.055851 0.045000
vertex 0.231474 -0.051825 0.045000
vertex 0.080159 -0.006076 0.045000
endloop
endfacet
facet normal 0.000000 0.000000 1.000000
outer loop
vertex 0.003851 0.014371 0.045000
vertex -0.041904 0.026631 0.045000
vertex -0.072457 0.034818 0.045000
endloop
endfacet
facet normal -0.000000 0.000000 1.000000
outer loop
vertex 0.230395 -0.055851 0.045000
vertex 0.080159 -0.006076 0.045000
vertex 0.003851 0.014371 0.045000
endloop
endfacet
facet normal -0.624695 0.000000 0.780869
outer loop
vertex 0.229952 -0.057507 0.045000
vertex 0.230081 -0.057024 0.045000
vertex 0.230196 -0.056595 0.045000
endloop
endfacet
facet normal 0.000003 0.000000 1.000000
outer loop
vertex 0.230196 -0.056595 0.045000
vertex 0.230395 -0.055851 0.045000
vertex 0.003851 0.014371 0.045000
endloop
endfacet
facet normal 0.242536 0.000000 0.970143
outer loop
vertex 0.003851 0.014371 0.045000
vertex -0.072457 0.034818 0.045000
vertex -0.118212 0.047078 0.045000
endloop
endfacet
facet normal -0.000014 0.000000 1.000000
outer loop
vertex -0.148766 0.055265 0.045000
vertex -0.196712 0.068192 0.045000
vertex -0.225064 0.075748 0.045000
endloop
endfacet
facet normal -0.000001 0.000000 1.000000
outer loop
vertex 0.230196 -0.056595 0.045000
vertex 0.003851 0.014371 0.045000
vertex -0.118212 0.047078 0.045000
endloop
endfacet
facet normal -0.000001 0.000000 1.000000
outer loop
vertex -0.148766 0.055265 0.045000
vertex -0.225064 0.075748 0.045000
vertex -0.225313 0.074818 0.045000
endloop
endfacet
facet normal 0.000001 0.000000 1.000000
outer loop
vertex 0.230196 -0.056595 0.045000
vertex -0.118212 0.047078 0.045000
vertex -0.148766 0.055265 0.045000
endloop
endfacet
facet normal -0.800000 0.000000 0.600000
outer loop
vertex 0.229803 -0.058061 0.045000
vertex 0.229952 -0.057507 0.045000
vertex 0.230196 -0.056595 0.045000
endloop
endfacet
facet normal 0.000000 0.000000 1.000000
outer loop
vertex 0.229156 -0.060476 0.045000
vertex 0.229418 -0.059497 0.045000
vertex 0.229629 -0.058712 0.045000
endloop
endfacet
facet normal 0.000000 0.000000 1.000000
outer loop
vertex 0.229629 -0.058712 0.045000
vertex 0.229803 -0.058061 0.045000
vertex 0.230196 -0.056595 0.045000
endloop
endfacet
facet normal -0.000000 0.000000 1.000000
outer loop
vertex 0.230196 -0.056595 0.045000
vertex -0.148766 0.055265 0.045000
vertex -0.225313 0.074818 0.045000
endloop
endfacet
facet normal -1.000000 0.000000 0.000000
outer loop
vertex -0.225313 0.074818 0.045000
vertex -0.226375 0.070855 0.045000
vertex -0.227365 0.067161 0.045000
endloop
endfacet
facet normal 0.000000 0.000000 -1.000000
outer loop
vertex -0.227365 0.067161 0.045000
vertex -0.227454 0.066829 0.045000
vertex -0.227549 0.066473 0.045000
endloop
endfacet
facet normal 0.000000 0.000000 1.000000
outer loop
vertex -0.227549 0.066473 0.045000
vertex -0.227653 0.066085 0.045000
vertex -0.227768 0.065656 0.045000
endloop
endfacet
facet normal -1.000000 0.000000 0.000000
outer loop
vertex -0.227768 0.065656 0.045000
vertex -0.227897 0.065173 0.045000
vertex -0.228046 0.064619 0.045000
endloop
endfacet
facet normal 0.447214 0.000000 0.894427
outer loop
vertex -0.228046 0.064619 0.045000
vertex -0.228220 0.063968 0.045000
vertex -0.228431 0.063183 0.045000
endloop
endfacet
facet normal 0.496139 0.000000 0.868243
outer loop
vertex -0.228431 0.063183 0.045000
vertex -0.228693 0.062205 0.045000
vertex -0.229704 0.058429 0.045000
endloop
endfacet
facet normal 0.000000 0.000000 1.000000
outer loop
vertex -0.229704 0.058429 0.045000
vertex -0.230025 0.057234 0.045000
vertex -0.230440 0.055684 0.045000
endloop
endfacet
facet normal 0.000000 0.000000 -1.000000
outer loop
vertex -0.231008 0.053564 0.045000
vertex -0.231844 0.050444 0.045000
vertex -0.232785 0.046932 0.045000
endloop
endfacet
facet normal 0.000000 0.000000 1.000000
outer loop
vertex -0.229704 0.058429 0.045000
vertex -0.230440 0.055684 0.045000
vertex -0.231008 0.053564 0.045000
endloop
endfacet
facet normal 0.000000 0.000000 1.000000
outer loop
vertex -0.228431 0.063183 0.045000
vertex -0.229704 0.058429 0.045000
vertex -0.231008 0.053564 0.045000
endloop
endfacet
facet normal 0.000000 0.000000 1.000000
outer loop
vertex -0.231008 0.053564 0.045000
vertex -0.232785 0.046932 0.045000
vertex -0.204453 0.039300 0.045000
endloop
endfacet
facet normal -0.447214 0.000000 0.894427
outer loop
vertex -0.156467 0.026522 0.045000
vertex -0.110712 0.014262 0.045000
vertex -0.080159 0.006076 0.045000
endloop
endfacet
facet normal 0.000000 0.000000 1.000000
outer loop
vertex -0.231008 0.053564 0.045000
vertex -0.204453 0.039300 0.045000
vertex -0.156467 0.026522 0.045000
endloop
endfacet
facet normal 0.000000 0.000000 1.000000
outer loop
vertex -0.228046 0.064619 0.045000
vertex -0.228431 0.063183 0.045000
vertex -0.231008 0.053564 0.045000
endloop
endfacet
facet normal 0.000000 0.000000 1.000000
outer loop
vertex -0.227365 0.067161 0.045000
vertex -0.227549 0.066473 0.045000
vertex -0.227768 0.065656 0.045000
endloop
endfacet
facet normal -0.000000 0.000000 1.000000
outer loop
vertex -0.228046 0.064619 0.045000
vertex -0.231008 0.053564 0.045000
vertex -0.156467 0.026522 0.045000
endloop
endfacet
facet normal 0.554700 0.000000 0.832050
outer loop
vertex -0.225313 0.074818 0.045000
vertex -0.227365 0.067161 0.045000
vertex -0.227768 0.065656 0.045000
endloop
endfacet
facet normal 0.000000 0.000000 1.000000
outer loop
vertex -0.227768 0.065656 0.045000
vertex -0.228046 0.064619 0.045000
vertex -0.156467 0.026522 0.045000
endloop
endfacet
facet normal -0.894427 0.000000 -0.447214
outer loop
vertex -0.080159 0.006076 0.045000
vertex -0.034404 -0.006184 0.045000
vertex -0.003851 -0.014371 0.045000
endloop
endfacet
facet normal 0.000000 0.000000 1.000000
outer loop
vertex -0.227768 0.065656 0.045000
vertex -0.156467 0.026522 0.045000
vertex -0.080159 0.006076 0.045000
endloop
endfacet
facet normal -0.000000 0.000000 1.000000
outer loop
vertex 0.230196 -0.056595 0.045000
vertex -0.225313 0.074818 0.045000
vertex -0.227768 0.065656 0.045000
endloop
endfacet
facet normal 0.000000 0.000000 1.000000
outer loop
vertex 0.229156 -0.060476 0.045000
vertex 0.229629 -0.058712 0.045000
vertex 0.230196 -0.056595 0.045000
endloop
endfacet
facet normal 0.000000 0.000000 1.000000
outer loop
vertex 0.227824 -0.065446 0.045000
vertex 0.228144 -0.064251 0.045000
vertex 0.229156 -0.060476 0.045000
endloop
endfacet
facet normal 0.000000 0.000000 0.000000
outer loop
vertex 0.226841 -0.069117 0.045000
vertex 0.227409 -0.066996 0.045000
vertex 0.227824 -0.065446 0.045000
endloop
endfacet
facet normal 0.000000 0.000000 1.000000
outer loop
vertex 0.196712 -0.068192 0.045000
vertex 0.225064 -0.075748 0.045000
vertex 0.226005 -0.072236 0.045000
endloop
endfacet
facet normal 0.000000 0.000000 1.000000
outer loop
vertex 0.226005 -0.072236 0.045000
vertex 0.226841 -0.069117 0.045000
vertex 0.227824 -0.065446 0.045000
endloop
endfacet
facet normal -0.707107 0.000000 0.707107
outer loop
vertex 0.227824 -0.065446 0.045000
vertex 0.229156 -0.060476 0.045000
vertex 0.230196 -0.056595 0.045000
endloop
endfacet
facet normal 0.000000 0.000000 1.000000
outer loop
vertex 0.230196 -0.056595 0.045000
vertex -0.227768 0.065656 0.045000
vertex -0.080159 0.006076 0.045000
endloop
endfacet
facet normal 0.000000 0.000000 1.000000
outer loop
vertex -0.003851 -0.014371 0.045000
vertex 0.041904 -0.026631 0.045000
vertex 0.072457 -0.034818 0.045000
endloop
endfacet
facet normal 0.000000 0.000000 1.000000
outer loop
vertex 0.230196 -0.056595 0.045000
vertex -0.080159 0.006076 0.045000
vertex -0.003851 -0.014371 0.045000
endloop
endfacet
facet normal 0.000000 0.000000 1.000000
outer loop
vertex 0.196712 -0.068192 0.045000
vertex 0.226005 -0.072236 0.045000
vertex 0.227824 -0.065446 0.045000
endloop
endfacet
facet normal 0.000000 0.000000 1.000000
outer loop
vertex 0.227824 -0.065446 0.045000
vertex 0.230196 -0.056595 0.045000
vertex -0.003851 -0.014371 0.045000
endloop
endfacet
facet normal -0.447214 0.000000 0.894427
outer loop
vertex -0.003851 -0.014371 0.045000
vertex 0.072457 -0.034818 0.045000
vertex 0.118212 -0.047078 0.045000
endloop
endfacet
facet normal 0.000000 0.000000 1.000000
outer loop
vertex 0.148766 -0.055264 0.045000
vertex 0.196712 -0.068192 0.045000
vertex 0.227824 -0.065446 0.045000
endloop
endfacet
facet normal -0.000000 0.000000 1.000000
outer loop
vertex 0.227824 -0.065446 0.045000
vertex -0.003851 -0.014371 0.045000
vertex 0.118212 -0.047078 0.045000
endloop
endfacet
facet normal 0.000000 0.000000 1.000000
outer loop
vertex 0.118212 -0.047078 0.045000
vertex 0.148766 -0.055264 0.045000
vertex 0.227824 -0.065446 0.045000
endloop
endfacet
endsolid cylinder
