solid frontAndBack
facet normal 0.000000 1.000000 0.000000
outer loop
vertex -1.000000 0.204500 0.000000
vertex -1.000000 0.204500 0.400000
vertex 2.000000 0.204500 0.400000
endloop
endfacet
facet normal 0.000000 1.000000 0.000000
outer loop
vertex -1.000000 0.204500 0.000000
vertex 2.000000 0.204500 0.400000
vertex 2.000000 0.204500 0.000000
endloop
endfacet
facet normal -0.000000 -1.000000 0.000000
outer loop
vertex 2.000000 -0.204500 0.000000
vertex 2.000000 -0.204500 0.400000
vertex -1.000000 -0.204500 0.400000
endloop
endfacet
facet normal -0.000000 -1.000000 0.000000
outer loop
vertex 2.000000 -0.204500 0.000000
vertex -1.000000 -0.204500 0.400000
vertex -1.000000 -0.204500 0.000000
endloop
endfacet
endsolid frontAndBack
