solid cylinder
facet normal 0.000000 0.000000 -1.000000
outer loop
vertex 0.174655 0.084554 0.000000
vertex 0.160513 0.070412 0.000000
vertex -0.160513 0.419723 0.000000
endloop
endfacet
facet normal 0.000000 0.000000 -1.000000
outer loop
vertex -0.160513 0.419723 0.000000
vertex 0.160513 0.070412 0.000000
vertex -0.174655 0.405581 0.000000
endloop
endfacet
facet normal 0.707107 0.707107 0.000000
outer loop
vertex 0.174655 0.084554 0.002087
vertex 0.174655 0.084554 0.000000
vertex -0.160513 0.419723 0.002087
endloop
endfacet
facet normal 0.707107 0.707107 0.000000
outer loop
vertex -0.160513 0.419723 0.002087
vertex 0.174655 0.084554 0.000000
vertex -0.160513 0.419723 0.000000
endloop
endfacet
facet normal -0.331205 -0.331054 -0.883576
outer loop
vertex 0.158146 0.068045 0.003861
vertex 0.102220 0.123842 0.003919
vertex 0.160513 0.070412 0.002087
endloop
endfacet
facet normal -0.332483 -0.332483 -0.882559
outer loop
vertex 0.160513 0.070412 0.002087
vertex 0.102220 0.123842 0.003919
vertex 0.046359 0.179704 0.003919
endloop
endfacet
facet normal -0.332479 -0.332479 -0.882561
outer loop
vertex 0.160513 0.070412 0.002087
vertex 0.046359 0.179704 0.003919
vertex -0.009503 0.235565 0.003919
endloop
endfacet
facet normal -0.425408 -0.425408 -0.798784
outer loop
vertex -0.009503 0.235565 0.003919
vertex 0.046359 0.179704 0.003919
vertex -0.011703 0.233364 0.006263
endloop
endfacet
facet normal -0.425411 -0.425410 -0.798781
outer loop
vertex -0.009503 0.235565 0.003919
vertex -0.011703 0.233364 0.006263
vertex -0.067565 0.289226 0.006263
endloop
endfacet
facet normal -0.507998 -0.507998 -0.695612
outer loop
vertex -0.067565 0.289226 0.006263
vertex -0.011703 0.233364 0.006263
vertex -0.069481 0.287309 0.009062
endloop
endfacet
facet normal -0.507998 -0.507998 -0.695612
outer loop
vertex -0.067565 0.289226 0.006263
vertex -0.069481 0.287309 0.009062
vertex -0.125342 0.343171 0.009062
endloop
endfacet
facet normal -0.578254 -0.578254 -0.575539
outer loop
vertex -0.125342 0.343171 0.009062
vertex -0.069481 0.287309 0.009062
vertex -0.126928 0.341585 0.012248
endloop
endfacet
facet normal -0.577981 -0.578518 -0.575548
outer loop
vertex -0.125342 0.343171 0.009062
vertex -0.126928 0.341585 0.012248
vertex -0.182631 0.397605 0.011878
endloop
endfacet
facet normal -0.628522 -0.628002 -0.458884
outer loop
vertex -0.182631 0.397605 0.011878
vertex -0.126928 0.341585 0.012248
vertex -0.183860 0.396376 0.015243
endloop
endfacet
facet normal -0.634135 -0.634786 -0.441496
outer loop
vertex -0.183860 0.396376 0.015243
vertex -0.126928 0.341585 0.012248
vertex -0.128144 0.340369 0.015744
endloop
endfacet
facet normal -0.670384 -0.669754 -0.319396
outer loop
vertex -0.183860 0.396376 0.015243
vertex -0.128144 0.340369 0.015744
vertex -0.184716 0.395520 0.018833
endloop
endfacet
facet normal -0.674884 -0.675640 -0.296719
outer loop
vertex -0.184716 0.395520 0.018833
vertex -0.128144 0.340369 0.015744
vertex -0.128962 0.339551 0.019465
endloop
endfacet
facet normal -0.696865 -0.696135 -0.172557
outer loop
vertex -0.184716 0.395520 0.018833
vertex -0.128962 0.339551 0.019465
vertex -0.185178 0.395058 0.022564
endloop
endfacet
facet normal -0.699235 -0.700087 -0.144739
outer loop
vertex -0.185178 0.395058 0.022564
vertex -0.128962 0.339551 0.019465
vertex -0.129361 0.339153 0.023320
endloop
endfacet
facet normal -0.707351 -0.706527 -0.021747
outer loop
vertex -0.185178 0.395058 0.022564
vertex -0.129361 0.339153 0.023320
vertex -0.185236 0.395000 0.026352
endloop
endfacet
facet normal -0.706595 -0.707536 0.010746
outer loop
vertex -0.185236 0.395000 0.026352
vertex -0.129361 0.339153 0.023320
vertex -0.129331 0.339182 0.027216
endloop
endfacet
facet normal -0.701599 -0.700692 0.129573
outer loop
vertex -0.185236 0.395000 0.026352
vertex -0.129331 0.339182 0.027216
vertex -0.184889 0.395347 0.030108
endloop
endfacet
facet normal -0.696788 -0.697808 0.165985
outer loop
vertex -0.184889 0.395347 0.030108
vertex -0.129331 0.339182 0.027216
vertex -0.128874 0.339640 0.031058
endloop
endfacet
facet normal -0.679750 -0.678765 0.277882
outer loop
vertex -0.184889 0.395347 0.030108
vertex -0.128874 0.339640 0.031058
vertex -0.184145 0.396091 0.033747
endloop
endfacet
facet normal -0.670046 -0.671139 0.317191
outer loop
vertex -0.184145 0.396091 0.033747
vertex -0.128874 0.339640 0.031058
vertex -0.128000 0.340513 0.034753
endloop
endfacet
facet normal -0.642290 -0.641241 0.419850
outer loop
vertex -0.184145 0.396091 0.033747
vertex -0.128000 0.340513 0.034753
vertex -0.183020 0.397216 0.037185
endloop
endfacet
facet normal -0.627025 -0.628180 0.460684
outer loop
vertex -0.183020 0.397216 0.037185
vertex -0.128000 0.340513 0.034753
vertex -0.126731 0.341783 0.038211
endloop
endfacet
facet normal -0.590105 -0.588995 0.552142
outer loop
vertex -0.183020 0.397216 0.037185
vertex -0.126731 0.341783 0.038211
vertex -0.181541 0.398695 0.040343
endloop
endfacet
facet normal -0.568767 -0.569977 0.592984
outer loop
vertex -0.181541 0.398695 0.040343
vertex -0.126731 0.341783 0.038211
vertex -0.125097 0.343416 0.041348
endloop
endfacet
facet normal -0.524370 -0.523210 0.671780
outer loop
vertex -0.181541 0.398695 0.040343
vertex -0.125097 0.343416 0.041348
vertex -0.179742 0.400494 0.043149
endloop
endfacet
facet normal -0.496675 -0.497930 0.710900
outer loop
vertex -0.179742 0.400494 0.043149
vertex -0.125097 0.343416 0.041348
vertex -0.123138 0.345375 0.044088
endloop
endfacet
facet normal -0.446605 -0.445403 0.775990
outer loop
vertex -0.179742 0.400494 0.043149
vertex -0.123138 0.345375 0.044088
vertex -0.177663 0.402573 0.045539
endloop
endfacet
facet normal -0.412515 -0.413809 0.811538
outer loop
vertex -0.177663 0.402573 0.045539
vertex -0.123138 0.345375 0.044088
vertex -0.120903 0.347611 0.046365
endloop
endfacet
facet normal -0.358600 -0.357367 0.862378
outer loop
vertex -0.177663 0.402573 0.045539
vertex -0.120903 0.347611 0.046365
vertex -0.175353 0.404883 0.047456
endloop
endfacet
facet normal -0.318325 -0.319648 0.892465
outer loop
vertex -0.175353 0.404883 0.047456
vertex -0.120903 0.347611 0.046365
vertex -0.118444 0.350069 0.048123
endloop
endfacet
facet normal -0.262373 -0.261112 0.928968
outer loop
vertex -0.175353 0.404883 0.047456
vertex -0.118444 0.350069 0.048123
vertex -0.172865 0.407371 0.048859
endloop
endfacet
facet normal -0.216388 -0.217733 0.951719
outer loop
vertex -0.172865 0.407371 0.048859
vertex -0.118444 0.350069 0.048123
vertex -0.115822 0.352691 0.049319
endloop
endfacet
facet normal -0.160122 -0.158846 0.974233
outer loop
vertex -0.172865 0.407371 0.048859
vertex -0.115822 0.352691 0.049319
vertex -0.170255 0.409981 0.049713
endloop
endfacet
facet normal -0.109187 -0.110544 0.987855
outer loop
vertex -0.170255 0.409981 0.049713
vertex -0.115822 0.352691 0.049319
vertex -0.113100 0.355413 0.049924
endloop
endfacet
facet normal -0.054217 -0.052930 0.997125
outer loop
vertex -0.170255 0.409981 0.049713
vertex -0.113100 0.355413 0.049924
vertex -0.167584 0.412652 0.050000
endloop
endfacet
facet normal 0.000681 -0.000680 0.999999
outer loop
vertex -0.167584 0.412652 0.050000
vertex -0.113100 0.355413 0.049924
vertex -0.110345 0.358168 0.049924
endloop
endfacet
facet normal 0.052930 0.054216 0.997125
outer loop
vertex -0.167584 0.412652 0.050000
vertex -0.110345 0.358168 0.049924
vertex -0.164913 0.415323 0.049713
endloop
endfacet
facet normal 0.110542 0.109186 0.987856
outer loop
vertex -0.164913 0.415323 0.049713
vertex -0.110345 0.358168 0.049924
vertex -0.107624 0.360889 0.049319
endloop
endfacet
facet normal 0.158850 0.160125 0.974231
outer loop
vertex -0.164913 0.415323 0.049713
vertex -0.107624 0.360889 0.049319
vertex -0.162304 0.417932 0.048859
endloop
endfacet
facet normal 0.217735 0.216391 0.951717
outer loop
vertex -0.162304 0.417932 0.048859
vertex -0.107624 0.360889 0.049319
vertex -0.105002 0.363511 0.048123
endloop
endfacet
facet normal 0.261105 0.262365 0.928972
outer loop
vertex -0.162304 0.417932 0.048859
vertex -0.105002 0.363511 0.048123
vertex -0.159815 0.420421 0.047456
endloop
endfacet
facet normal 0.319648 0.318326 0.892465
outer loop
vertex -0.159815 0.420421 0.047456
vertex -0.105002 0.363511 0.048123
vertex -0.102543 0.365970 0.046365
endloop
endfacet
facet normal 0.357367 0.358601 0.862377
outer loop
vertex -0.159815 0.420421 0.047456
vertex -0.102543 0.365970 0.046365
vertex -0.157505 0.422731 0.045539
endloop
endfacet
facet normal 0.413809 0.412515 0.811537
outer loop
vertex -0.157505 0.422731 0.045539
vertex -0.102543 0.365970 0.046365
vertex -0.100307 0.368206 0.044088
endloop
endfacet
facet normal 0.445407 0.446609 0.775985
outer loop
vertex -0.157505 0.422731 0.045539
vertex -0.100307 0.368206 0.044088
vertex -0.155427 0.424809 0.043149
endloop
endfacet
facet normal 0.497930 0.496673 0.710902
outer loop
vertex -0.155427 0.424809 0.043149
vertex -0.100307 0.368206 0.044088
vertex -0.098349 0.370164 0.041348
endloop
endfacet
facet normal 0.523210 0.524370 0.671779
outer loop
vertex -0.155427 0.424809 0.043149
vertex -0.098349 0.370164 0.041348
vertex -0.153627 0.426609 0.040343
endloop
endfacet
facet normal 0.569974 0.568765 0.592990
outer loop
vertex -0.153627 0.426609 0.040343
vertex -0.098349 0.370164 0.041348
vertex -0.096715 0.371798 0.038211
endloop
endfacet
facet normal 0.588991 0.590100 0.552151
outer loop
vertex -0.153627 0.426609 0.040343
vertex -0.096715 0.371798 0.038211
vertex -0.152148 0.428088 0.037185
endloop
endfacet
facet normal 0.628181 0.627027 0.460679
outer loop
vertex -0.152148 0.428088 0.037185
vertex -0.096715 0.371798 0.038211
vertex -0.095446 0.373067 0.034753
endloop
endfacet
facet normal 0.641244 0.642294 0.419840
outer loop
vertex -0.152148 0.428088 0.037185
vertex -0.095446 0.373067 0.034753
vertex -0.151024 0.429212 0.033747
endloop
endfacet
facet normal 0.671140 0.670049 0.317183
outer loop
vertex -0.151024 0.429212 0.033747
vertex -0.095446 0.373067 0.034753
vertex -0.094572 0.373941 0.031058
endloop
endfacet
facet normal 0.678767 0.679748 0.277882
outer loop
vertex -0.151024 0.429212 0.033747
vertex -0.094572 0.373941 0.031058
vertex -0.150280 0.429957 0.030108
endloop
endfacet
facet normal 0.697808 0.696788 0.165986
outer loop
vertex -0.150280 0.429957 0.030108
vertex -0.094572 0.373941 0.031058
vertex -0.094115 0.374398 0.027216
endloop
endfacet
facet normal 0.700693 0.701601 0.129561
outer loop
vertex -0.150280 0.429957 0.030108
vertex -0.094115 0.374398 0.027216
vertex -0.149932 0.430304 0.026352
endloop
endfacet
facet normal 0.707536 0.706595 0.010752
outer loop
vertex -0.149932 0.430304 0.026352
vertex -0.094115 0.374398 0.027216
vertex -0.094085 0.374428 0.023320
endloop
endfacet
facet normal 0.706527 0.707351 -0.021759
outer loop
vertex -0.149932 0.430304 0.026352
vertex -0.094085 0.374428 0.023320
vertex -0.149991 0.430245 0.022564
endloop
endfacet
facet normal 0.700087 0.699235 -0.144737
outer loop
vertex -0.149991 0.430245 0.022564
vertex -0.094085 0.374428 0.023320
vertex -0.094484 0.374029 0.019465
endloop
endfacet
facet normal 0.696136 0.696867 -0.172545
outer loop
vertex -0.149991 0.430245 0.022564
vertex -0.094484 0.374029 0.019465
vertex -0.150453 0.429783 0.018833
endloop
endfacet
facet normal 0.675639 0.674883 -0.296724
outer loop
vertex -0.150453 0.429783 0.018833
vertex -0.094484 0.374029 0.019465
vertex -0.095301 0.373212 0.015744
endloop
endfacet
facet normal 0.669757 0.670387 -0.319385
outer loop
vertex -0.150453 0.429783 0.018833
vertex -0.095301 0.373212 0.015744
vertex -0.151308 0.428928 0.015243
endloop
endfacet
facet normal 0.634787 0.634136 -0.441494
outer loop
vertex -0.151308 0.428928 0.015243
vertex -0.095301 0.373212 0.015744
vertex -0.096518 0.371996 0.012248
endloop
endfacet
facet normal 0.627998 0.628518 -0.458893
outer loop
vertex -0.151308 0.428928 0.015243
vertex -0.096518 0.371996 0.012248
vertex -0.152538 0.427698 0.011878
endloop
endfacet
facet normal 0.578522 0.577985 -0.575539
outer loop
vertex -0.152538 0.427698 0.011878
vertex -0.096518 0.371996 0.012248
vertex -0.098103 0.370410 0.009062
endloop
endfacet
facet normal 0.571812 0.572215 -0.587879
outer loop
vertex -0.152538 0.427698 0.011878
vertex -0.098103 0.370410 0.009062
vertex -0.154112 0.426124 0.008813
endloop
endfacet
facet normal 0.508209 0.507793 -0.695608
outer loop
vertex -0.154112 0.426124 0.008813
vertex -0.098103 0.370410 0.009062
vertex -0.100020 0.368494 0.006263
endloop
endfacet
facet normal 0.502499 0.502776 -0.703357
outer loop
vertex -0.154112 0.426124 0.008813
vertex -0.100020 0.368494 0.006263
vertex -0.155996 0.424240 0.006120
endloop
endfacet
facet normal 0.425551 0.425265 -0.798784
outer loop
vertex -0.155996 0.424240 0.006120
vertex -0.100020 0.368494 0.006263
vertex -0.102220 0.366293 0.003919
endloop
endfacet
facet normal 0.421657 0.421800 -0.802677
outer loop
vertex -0.155996 0.424240 0.006120
vertex -0.102220 0.366293 0.003919
vertex -0.158146 0.422090 0.003861
endloop
endfacet
facet normal 0.331202 0.331051 -0.883578
outer loop
vertex -0.158146 0.422090 0.003861
vertex -0.102220 0.366293 0.003919
vertex -0.160513 0.419723 0.002087
endloop
endfacet
facet normal 0.332479 0.332479 -0.882562
outer loop
vertex -0.160513 0.419723 0.002087
vertex -0.102220 0.366293 0.003919
vertex -0.046359 0.310431 0.003919
endloop
endfacet
facet normal 0.332479 0.332479 -0.882562
outer loop
vertex -0.160513 0.419723 0.002087
vertex -0.046359 0.310431 0.003919
vertex 0.009503 0.254570 0.003919
endloop
endfacet
facet normal 0.425413 0.425413 -0.798779
outer loop
vertex 0.009503 0.254570 0.003919
vertex -0.046359 0.310431 0.003919
vertex 0.011703 0.256771 0.006263
endloop
endfacet
facet normal 0.425405 0.425405 -0.798788
outer loop
vertex 0.009503 0.254570 0.003919
vertex 0.011703 0.256771 0.006263
vertex 0.067565 0.200909 0.006263
endloop
endfacet
facet normal 0.508002 0.508002 -0.695606
outer loop
vertex 0.067565 0.200909 0.006263
vertex 0.011703 0.256771 0.006263
vertex 0.069481 0.202826 0.009062
endloop
endfacet
facet normal 0.507998 0.507998 -0.695612
outer loop
vertex 0.067565 0.200909 0.006263
vertex 0.069481 0.202826 0.009062
vertex 0.125342 0.146964 0.009062
endloop
endfacet
facet normal 0.578254 0.578254 -0.575539
outer loop
vertex 0.125342 0.146964 0.009062
vertex 0.069481 0.202826 0.009062
vertex 0.126928 0.148550 0.012248
endloop
endfacet
facet normal 0.577985 0.578522 -0.575539
outer loop
vertex 0.125342 0.146964 0.009062
vertex 0.126928 0.148550 0.012248
vertex 0.182631 0.092530 0.011878
endloop
endfacet
facet normal 0.628515 0.627994 -0.458903
outer loop
vertex 0.182631 0.092530 0.011878
vertex 0.126928 0.148550 0.012248
vertex 0.183860 0.093759 0.015243
endloop
endfacet
facet normal 0.634138 0.634788 -0.441490
outer loop
vertex 0.183860 0.093759 0.015243
vertex 0.126928 0.148550 0.012248
vertex 0.128144 0.149766 0.015744
endloop
endfacet
facet normal 0.670385 0.669755 -0.319393
outer loop
vertex 0.183860 0.093759 0.015243
vertex 0.128144 0.149766 0.015744
vertex 0.184716 0.094615 0.018833
endloop
endfacet
facet normal 0.674883 0.675639 -0.296723
outer loop
vertex 0.184716 0.094615 0.018833
vertex 0.128144 0.149766 0.015744
vertex 0.128962 0.150584 0.019465
endloop
endfacet
facet normal 0.696867 0.696136 -0.172545
outer loop
vertex 0.184716 0.094615 0.018833
vertex 0.128962 0.150584 0.019465
vertex 0.185178 0.095077 0.022564
endloop
endfacet
facet normal 0.699234 0.700087 -0.144742
outer loop
vertex 0.185178 0.095077 0.022564
vertex 0.128962 0.150584 0.019465
vertex 0.129361 0.150982 0.023320
endloop
endfacet
facet normal 0.707351 0.706527 -0.021744
outer loop
vertex 0.185178 0.095077 0.022564
vertex 0.129361 0.150982 0.023320
vertex 0.185236 0.095135 0.026352
endloop
endfacet
facet normal 0.706596 0.707536 0.010753
outer loop
vertex 0.185236 0.095135 0.026352
vertex 0.129361 0.150982 0.023320
vertex 0.129331 0.150953 0.027216
endloop
endfacet
facet normal 0.701601 0.700694 0.129555
outer loop
vertex 0.185236 0.095135 0.026352
vertex 0.129331 0.150953 0.027216
vertex 0.184889 0.094788 0.030108
endloop
endfacet
facet normal 0.696788 0.697808 0.165986
outer loop
vertex 0.184889 0.094788 0.030108
vertex 0.129331 0.150953 0.027216
vertex 0.128874 0.150495 0.031058
endloop
endfacet
facet normal 0.679750 0.678765 0.277882
outer loop
vertex 0.184889 0.094788 0.030108
vertex 0.128874 0.150495 0.031058
vertex 0.184145 0.094044 0.033747
endloop
endfacet
facet normal 0.670046 0.671139 0.317192
outer loop
vertex 0.184145 0.094044 0.033747
vertex 0.128874 0.150495 0.031058
vertex 0.128000 0.149622 0.034753
endloop
endfacet
facet normal 0.642293 0.641244 0.419840
outer loop
vertex 0.184145 0.094044 0.033747
vertex 0.128000 0.149622 0.034753
vertex 0.183020 0.092919 0.037185
endloop
endfacet
facet normal 0.627026 0.628180 0.460682
outer loop
vertex 0.183020 0.092919 0.037185
vertex 0.128000 0.149622 0.034753
vertex 0.126731 0.148352 0.038211
endloop
endfacet
facet normal 0.590104 0.588994 0.552144
outer loop
vertex 0.183020 0.092919 0.037185
vertex 0.126731 0.148352 0.038211
vertex 0.181541 0.091440 0.040343
endloop
endfacet
facet normal 0.568762 0.569973 0.592993
outer loop
vertex 0.181541 0.091440 0.040343
vertex 0.126731 0.148352 0.038211
vertex 0.125097 0.146719 0.041348
endloop
endfacet
facet normal 0.524372 0.523211 0.671777
outer loop
vertex 0.181541 0.091440 0.040343
vertex 0.125097 0.146719 0.041348
vertex 0.179742 0.089641 0.043149
endloop
endfacet
facet normal 0.496678 0.497932 0.710897
outer loop
vertex 0.179742 0.089641 0.043149
vertex 0.125097 0.146719 0.041348
vertex 0.123138 0.144760 0.044088
endloop
endfacet
facet normal 0.446606 0.445406 0.775988
outer loop
vertex 0.179742 0.089641 0.043149
vertex 0.123138 0.144760 0.044088
vertex 0.177663 0.087562 0.045539
endloop
endfacet
facet normal 0.412515 0.413808 0.811538
outer loop
vertex 0.177663 0.087562 0.045539
vertex 0.123138 0.144760 0.044088
vertex 0.120903 0.142524 0.046365
endloop
endfacet
facet normal 0.358599 0.357366 0.862378
outer loop
vertex 0.177663 0.087562 0.045539
vertex 0.120903 0.142524 0.046365
vertex 0.175353 0.085252 0.047456
endloop
endfacet
facet normal 0.318323 0.319647 0.892466
outer loop
vertex 0.175353 0.085252 0.047456
vertex 0.120903 0.142524 0.046365
vertex 0.118444 0.140066 0.048123
endloop
endfacet
facet normal 0.262369 0.261109 0.928970
outer loop
vertex 0.175353 0.085252 0.047456
vertex 0.118444 0.140066 0.048123
vertex 0.172865 0.082764 0.048859
endloop
endfacet
facet normal 0.216390 0.217733 0.951718
outer loop
vertex 0.172865 0.082764 0.048859
vertex 0.118444 0.140066 0.048123
vertex 0.115822 0.137444 0.049319
endloop
endfacet
facet normal 0.160125 0.158849 0.974232
outer loop
vertex 0.172865 0.082764 0.048859
vertex 0.115822 0.137444 0.049319
vertex 0.170255 0.080154 0.049713
endloop
endfacet
facet normal 0.109186 0.110543 0.987856
outer loop
vertex 0.170255 0.080154 0.049713
vertex 0.115822 0.137444 0.049319
vertex 0.113100 0.134722 0.049924
endloop
endfacet
facet normal 0.054217 0.052931 0.997125
outer loop
vertex 0.170255 0.080154 0.049713
vertex 0.113100 0.134722 0.049924
vertex 0.167584 0.077483 0.050000
endloop
endfacet
facet normal -0.000681 0.000680 1.000000
outer loop
vertex 0.167584 0.077483 0.050000
vertex 0.113100 0.134722 0.049924
vertex 0.110345 0.131967 0.049924
endloop
endfacet
facet normal -0.052930 -0.054216 0.997125
outer loop
vertex 0.167584 0.077483 0.050000
vertex 0.110345 0.131967 0.049924
vertex 0.164913 0.074812 0.049713
endloop
endfacet
facet normal -0.110542 -0.109186 0.987856
outer loop
vertex 0.164913 0.074812 0.049713
vertex 0.110345 0.131967 0.049924
vertex 0.107624 0.129246 0.049319
endloop
endfacet
facet normal -0.158850 -0.160125 0.974231
outer loop
vertex 0.164913 0.074812 0.049713
vertex 0.107624 0.129246 0.049319
vertex 0.162304 0.072203 0.048859
endloop
endfacet
facet normal -0.217734 -0.216390 0.951718
outer loop
vertex 0.162304 0.072203 0.048859
vertex 0.107624 0.129246 0.049319
vertex 0.105002 0.126624 0.048123
endloop
endfacet
facet normal -0.261110 -0.262369 0.928969
outer loop
vertex 0.162304 0.072203 0.048859
vertex 0.105002 0.126624 0.048123
vertex 0.159815 0.069714 0.047456
endloop
endfacet
facet normal -0.319648 -0.318325 0.892465
outer loop
vertex 0.159815 0.069714 0.047456
vertex 0.105002 0.126624 0.048123
vertex 0.102543 0.124165 0.046365
endloop
endfacet
facet normal -0.357366 -0.358600 0.862378
outer loop
vertex 0.159815 0.069714 0.047456
vertex 0.102543 0.124165 0.046365
vertex 0.157505 0.067404 0.045539
endloop
endfacet
facet normal -0.413807 -0.412515 0.811539
outer loop
vertex 0.157505 0.067404 0.045539
vertex 0.102543 0.124165 0.046365
vertex 0.100307 0.121929 0.044088
endloop
endfacet
facet normal -0.445408 -0.446609 0.775985
outer loop
vertex 0.157505 0.067404 0.045539
vertex 0.100307 0.121929 0.044088
vertex 0.155427 0.065326 0.043149
endloop
endfacet
facet normal -0.497932 -0.496676 0.710899
outer loop
vertex 0.155427 0.065326 0.043149
vertex 0.100307 0.121929 0.044088
vertex 0.098349 0.119971 0.041348
endloop
endfacet
facet normal -0.523212 -0.524370 0.671777
outer loop
vertex 0.155427 0.065326 0.043149
vertex 0.098349 0.119971 0.041348
vertex 0.153627 0.063526 0.040343
endloop
endfacet
facet normal -0.569973 -0.568764 0.592991
outer loop
vertex 0.153627 0.063526 0.040343
vertex 0.098349 0.119971 0.041348
vertex 0.096715 0.118337 0.038211
endloop
endfacet
facet normal -0.588994 -0.590103 0.552145
outer loop
vertex 0.153627 0.063526 0.040343
vertex 0.096715 0.118337 0.038211
vertex 0.152148 0.062047 0.037185
endloop
endfacet
facet normal -0.628180 -0.627026 0.460683
outer loop
vertex 0.152148 0.062047 0.037185
vertex 0.096715 0.118337 0.038211
vertex 0.095446 0.117068 0.034753
endloop
endfacet
facet normal -0.641244 -0.642294 0.419840
outer loop
vertex 0.152148 0.062047 0.037185
vertex 0.095446 0.117068 0.034753
vertex 0.151024 0.060923 0.033747
endloop
endfacet
facet normal -0.671139 -0.670048 0.317188
outer loop
vertex 0.151024 0.060923 0.033747
vertex 0.095446 0.117068 0.034753
vertex 0.094572 0.116194 0.031058
endloop
endfacet
facet normal -0.678766 -0.679748 0.277885
outer loop
vertex 0.151024 0.060923 0.033747
vertex 0.094572 0.116194 0.031058
vertex 0.150280 0.060178 0.030108
endloop
endfacet
facet normal -0.697808 -0.696787 0.165987
outer loop
vertex 0.150280 0.060178 0.030108
vertex 0.094572 0.116194 0.031058
vertex 0.094115 0.115737 0.027216
endloop
endfacet
facet normal -0.700693 -0.701601 0.129555
outer loop
vertex 0.150280 0.060178 0.030108
vertex 0.094115 0.115737 0.027216
vertex 0.149932 0.059831 0.026352
endloop
endfacet
facet normal -0.707536 -0.706595 0.010753
outer loop
vertex 0.149932 0.059831 0.026352
vertex 0.094115 0.115737 0.027216
vertex 0.094085 0.115707 0.023320
endloop
endfacet
facet normal -0.706527 -0.707351 -0.021747
outer loop
vertex 0.149932 0.059831 0.026352
vertex 0.094085 0.115707 0.023320
vertex 0.149991 0.059890 0.022564
endloop
endfacet
facet normal -0.700086 -0.699234 -0.144743
outer loop
vertex 0.149991 0.059890 0.022564
vertex 0.094085 0.115707 0.023320
vertex 0.094484 0.116106 0.019465
endloop
endfacet
facet normal -0.696136 -0.696866 -0.172548
outer loop
vertex 0.149991 0.059890 0.022564
vertex 0.094484 0.116106 0.019465
vertex 0.150453 0.060352 0.018833
endloop
endfacet
facet normal -0.675640 -0.674884 -0.296719
outer loop
vertex 0.150453 0.060352 0.018833
vertex 0.094484 0.116106 0.019465
vertex 0.095301 0.116923 0.015744
endloop
endfacet
facet normal -0.669755 -0.670384 -0.319396
outer loop
vertex 0.150453 0.060352 0.018833
vertex 0.095301 0.116923 0.015744
vertex 0.151308 0.061207 0.015243
endloop
endfacet
facet normal -0.634788 -0.634137 -0.441491
outer loop
vertex 0.151308 0.061207 0.015243
vertex 0.095301 0.116923 0.015744
vertex 0.096518 0.118139 0.012248
endloop
endfacet
facet normal -0.627994 -0.628515 -0.458903
outer loop
vertex 0.151308 0.061207 0.015243
vertex 0.096518 0.118139 0.012248
vertex 0.152538 0.062437 0.011878
endloop
endfacet
facet normal -0.578522 -0.577985 -0.575539
outer loop
vertex 0.152538 0.062437 0.011878
vertex 0.096518 0.118139 0.012248
vertex 0.098103 0.119725 0.009062
endloop
endfacet
facet normal -0.571813 -0.572216 -0.587877
outer loop
vertex 0.152538 0.062437 0.011878
vertex 0.098103 0.119725 0.009062
vertex 0.154112 0.064011 0.008813
endloop
endfacet
facet normal -0.508206 -0.507790 -0.695611
outer loop
vertex 0.154112 0.064011 0.008813
vertex 0.098103 0.119725 0.009062
vertex 0.100020 0.121641 0.006263
endloop
endfacet
facet normal -0.502503 -0.502781 -0.703351
outer loop
vertex 0.154112 0.064011 0.008813
vertex 0.100020 0.121641 0.006263
vertex 0.155996 0.065895 0.006120
endloop
endfacet
facet normal -0.425550 -0.425264 -0.798785
outer loop
vertex 0.155996 0.065895 0.006120
vertex 0.100020 0.121641 0.006263
vertex 0.102220 0.123842 0.003919
endloop
endfacet
facet normal -0.421655 -0.421798 -0.802679
outer loop
vertex 0.155996 0.065895 0.006120
vertex 0.102220 0.123842 0.003919
vertex 0.158146 0.068045 0.003861
endloop
endfacet
facet normal 0.572216 0.571813 -0.587877
outer loop
vertex 0.182631 0.092530 0.011878
vertex 0.181056 0.090955 0.008813
vertex 0.125342 0.146964 0.009062
endloop
endfacet
facet normal 0.507791 0.508207 -0.695611
outer loop
vertex 0.125342 0.146964 0.009062
vertex 0.181056 0.090955 0.008813
vertex 0.123426 0.145048 0.006263
endloop
endfacet
facet normal 0.508000 0.508000 -0.695609
outer loop
vertex 0.125342 0.146964 0.009062
vertex 0.123426 0.145048 0.006263
vertex 0.067565 0.200909 0.006263
endloop
endfacet
facet normal 0.425405 0.425405 -0.798788
outer loop
vertex 0.067565 0.200909 0.006263
vertex 0.123426 0.145048 0.006263
vertex 0.065364 0.198709 0.003919
endloop
endfacet
facet normal 0.425406 0.425407 -0.798786
outer loop
vertex 0.067565 0.200909 0.006263
vertex 0.065364 0.198709 0.003919
vertex 0.009503 0.254570 0.003919
endloop
endfacet
facet normal 0.332497 0.332497 -0.882548
outer loop
vertex 0.009503 0.254570 0.003919
vertex 0.065364 0.198709 0.003919
vertex -0.160513 0.419723 0.002087
endloop
endfacet
facet normal 0.502779 0.502502 -0.703352
outer loop
vertex 0.181056 0.090955 0.008813
vertex 0.179172 0.089071 0.006120
vertex 0.123426 0.145048 0.006263
endloop
endfacet
facet normal 0.425265 0.425550 -0.798785
outer loop
vertex 0.123426 0.145048 0.006263
vertex 0.179172 0.089071 0.006120
vertex 0.121225 0.142847 0.003919
endloop
endfacet
facet normal 0.425411 0.425411 -0.798781
outer loop
vertex 0.123426 0.145048 0.006263
vertex 0.121225 0.142847 0.003919
vertex 0.065364 0.198709 0.003919
endloop
endfacet
facet normal 0.332483 0.332483 -0.882559
outer loop
vertex 0.065364 0.198709 0.003919
vertex 0.121225 0.142847 0.003919
vertex -0.160513 0.419723 0.002087
endloop
endfacet
facet normal 0.421798 0.421655 -0.802679
outer loop
vertex 0.179172 0.089071 0.006120
vertex 0.177022 0.086921 0.003861
vertex 0.121225 0.142847 0.003919
endloop
endfacet
facet normal 0.338176 0.338304 -0.878173
outer loop
vertex 0.121225 0.142847 0.003919
vertex 0.177022 0.086921 0.003861
vertex -0.160513 0.419723 0.002087
endloop
endfacet
facet normal 0.331128 0.331128 -0.883577
outer loop
vertex 0.177022 0.086921 0.003861
vertex 0.174655 0.084554 0.002087
vertex -0.160513 0.419723 0.002087
endloop
endfacet
facet normal -0.572219 -0.571816 -0.587870
outer loop
vertex -0.182631 0.397605 0.011878
vertex -0.181056 0.399180 0.008813
vertex -0.125342 0.343171 0.009062
endloop
endfacet
facet normal -0.507790 -0.508206 -0.695612
outer loop
vertex -0.125342 0.343171 0.009062
vertex -0.181056 0.399180 0.008813
vertex -0.123426 0.345087 0.006263
endloop
endfacet
facet normal -0.508002 -0.508002 -0.695606
outer loop
vertex -0.125342 0.343171 0.009062
vertex -0.123426 0.345087 0.006263
vertex -0.067565 0.289226 0.006263
endloop
endfacet
facet normal -0.425404 -0.425404 -0.798788
outer loop
vertex -0.067565 0.289226 0.006263
vertex -0.123426 0.345087 0.006263
vertex -0.065364 0.291426 0.003919
endloop
endfacet
facet normal -0.425406 -0.425406 -0.798786
outer loop
vertex -0.067565 0.289226 0.006263
vertex -0.065364 0.291426 0.003919
vertex -0.009503 0.235565 0.003919
endloop
endfacet
facet normal -0.332483 -0.332483 -0.882559
outer loop
vertex -0.009503 0.235565 0.003919
vertex -0.065364 0.291426 0.003919
vertex 0.160513 0.070412 0.002087
endloop
endfacet
facet normal -0.502776 -0.502499 -0.703357
outer loop
vertex -0.181056 0.399180 0.008813
vertex -0.179172 0.401064 0.006120
vertex -0.123426 0.345087 0.006263
endloop
endfacet
facet normal -0.425266 -0.425551 -0.798784
outer loop
vertex -0.123426 0.345087 0.006263
vertex -0.179172 0.401064 0.006120
vertex -0.121225 0.347288 0.003919
endloop
endfacet
facet normal -0.425408 -0.425408 -0.798784
outer loop
vertex -0.123426 0.345087 0.006263
vertex -0.121225 0.347288 0.003919
vertex -0.065364 0.291426 0.003919
endloop
endfacet
facet normal -0.332483 -0.332483 -0.882559
outer loop
vertex -0.065364 0.291426 0.003919
vertex -0.121225 0.347288 0.003919
vertex 0.160513 0.070412 0.002087
endloop
endfacet
facet normal -0.421796 -0.421653 -0.802681
outer loop
vertex -0.179172 0.401064 0.006120
vertex -0.177022 0.403214 0.003861
vertex -0.121225 0.347288 0.003919
endloop
endfacet
facet normal -0.338177 -0.338306 -0.878172
outer loop
vertex -0.121225 0.347288 0.003919
vertex -0.177022 0.403214 0.003861
vertex 0.160513 0.070412 0.002087
endloop
endfacet
facet normal -0.331128 -0.331128 -0.883577
outer loop
vertex -0.177022 0.403214 0.003861
vertex -0.174655 0.405581 0.002087
vertex 0.160513 0.070412 0.002087
endloop
endfacet
facet normal -0.425408 -0.425408 -0.798784
outer loop
vertex 0.046359 0.179704 0.003919
vertex 0.102220 0.123842 0.003919
vertex 0.044158 0.177503 0.006263
endloop
endfacet
facet normal -0.425406 -0.425406 -0.798786
outer loop
vertex 0.044158 0.177503 0.006263
vertex 0.102220 0.123842 0.003919
vertex 0.100020 0.121641 0.006263
endloop
endfacet
facet normal -0.508000 -0.508000 -0.695609
outer loop
vertex 0.044158 0.177503 0.006263
vertex 0.100020 0.121641 0.006263
vertex 0.042242 0.175586 0.009062
endloop
endfacet
facet normal -0.507999 -0.507999 -0.695611
outer loop
vertex 0.042242 0.175586 0.009062
vertex 0.100020 0.121641 0.006263
vertex 0.098103 0.119725 0.009062
endloop
endfacet
facet normal -0.578254 -0.578254 -0.575539
outer loop
vertex 0.042242 0.175586 0.009062
vertex 0.098103 0.119725 0.009062
vertex 0.040656 0.174001 0.012248
endloop
endfacet
facet normal -0.578255 -0.578255 -0.575538
outer loop
vertex 0.040656 0.174001 0.012248
vertex 0.098103 0.119725 0.009062
vertex 0.096518 0.118139 0.012248
endloop
endfacet
facet normal -0.634461 -0.634461 -0.441496
outer loop
vertex 0.040656 0.174001 0.012248
vertex 0.096518 0.118139 0.012248
vertex 0.039440 0.172785 0.015744
endloop
endfacet
facet normal -0.634462 -0.634462 -0.441492
outer loop
vertex 0.039440 0.172785 0.015744
vertex 0.096518 0.118139 0.012248
vertex 0.095301 0.116923 0.015744
endloop
endfacet
facet normal -0.675262 -0.675262 -0.296719
outer loop
vertex 0.039440 0.172785 0.015744
vertex 0.095301 0.116923 0.015744
vertex 0.038622 0.171967 0.019465
endloop
endfacet
facet normal -0.675262 -0.675262 -0.296720
outer loop
vertex 0.038622 0.171967 0.019465
vertex 0.095301 0.116923 0.015744
vertex 0.094484 0.116106 0.019465
endloop
endfacet
facet normal -0.699661 -0.699661 -0.144741
outer loop
vertex 0.038622 0.171967 0.019465
vertex 0.094484 0.116106 0.019465
vertex 0.038224 0.171568 0.023320
endloop
endfacet
facet normal -0.699660 -0.699660 -0.144745
outer loop
vertex 0.038224 0.171568 0.023320
vertex 0.094484 0.116106 0.019465
vertex 0.094085 0.115707 0.023320
endloop
endfacet
facet normal -0.707066 -0.707066 0.010754
outer loop
vertex 0.038224 0.171568 0.023320
vertex 0.094085 0.115707 0.023320
vertex 0.038253 0.171598 0.027216
endloop
endfacet
facet normal -0.707066 -0.707066 0.010754
outer loop
vertex 0.038253 0.171598 0.027216
vertex 0.094085 0.115707 0.023320
vertex 0.094115 0.115737 0.027216
endloop
endfacet
facet normal -0.697298 -0.697298 0.165988
outer loop
vertex 0.038253 0.171598 0.027216
vertex 0.094115 0.115737 0.027216
vertex 0.038711 0.172055 0.031058
endloop
endfacet
facet normal -0.697298 -0.697298 0.165984
outer loop
vertex 0.038711 0.172055 0.031058
vertex 0.094115 0.115737 0.027216
vertex 0.094572 0.116194 0.031058
endloop
endfacet
facet normal -0.670595 -0.670594 0.317186
outer loop
vertex 0.038711 0.172055 0.031058
vertex 0.094572 0.116194 0.031058
vertex 0.039584 0.172929 0.034753
endloop
endfacet
facet normal -0.670594 -0.670595 0.317185
outer loop
vertex 0.039584 0.172929 0.034753
vertex 0.094572 0.116194 0.031058
vertex 0.095446 0.117068 0.034753
endloop
endfacet
facet normal -0.627602 -0.627602 0.460686
outer loop
vertex 0.039584 0.172929 0.034753
vertex 0.095446 0.117068 0.034753
vertex 0.040854 0.174198 0.038211
endloop
endfacet
facet normal -0.627604 -0.627603 0.460682
outer loop
vertex 0.040854 0.174198 0.038211
vertex 0.095446 0.117068 0.034753
vertex 0.096715 0.118337 0.038211
endloop
endfacet
facet normal -0.569365 -0.569367 0.592997
outer loop
vertex 0.040854 0.174198 0.038211
vertex 0.096715 0.118337 0.038211
vertex 0.042487 0.175832 0.041348
endloop
endfacet
facet normal -0.569370 -0.569369 0.592989
outer loop
vertex 0.042487 0.175832 0.041348
vertex 0.096715 0.118337 0.038211
vertex 0.098349 0.119971 0.041348
endloop
endfacet
facet normal -0.497306 -0.497306 0.710896
outer loop
vertex 0.042487 0.175832 0.041348
vertex 0.098349 0.119971 0.041348
vertex 0.044446 0.177791 0.044088
endloop
endfacet
facet normal -0.497304 -0.497303 0.710899
outer loop
vertex 0.044446 0.177791 0.044088
vertex 0.098349 0.119971 0.041348
vertex 0.100307 0.121929 0.044088
endloop
endfacet
facet normal -0.413159 -0.413160 0.811540
outer loop
vertex 0.044446 0.177791 0.044088
vertex 0.100307 0.121929 0.044088
vertex 0.046682 0.180026 0.046365
endloop
endfacet
facet normal -0.413163 -0.413163 0.811537
outer loop
vertex 0.046682 0.180026 0.046365
vertex 0.100307 0.121929 0.044088
vertex 0.102543 0.124165 0.046365
endloop
endfacet
facet normal -0.318985 -0.318986 0.892466
outer loop
vertex 0.046682 0.180026 0.046365
vertex 0.102543 0.124165 0.046365
vertex 0.049140 0.182485 0.048123
endloop
endfacet
facet normal -0.318987 -0.318986 0.892466
outer loop
vertex 0.049140 0.182485 0.048123
vertex 0.102543 0.124165 0.046365
vertex 0.105002 0.126624 0.048123
endloop
endfacet
facet normal -0.217062 -0.217062 0.951718
outer loop
vertex 0.049140 0.182485 0.048123
vertex 0.105002 0.126624 0.048123
vertex 0.051762 0.185107 0.049319
endloop
endfacet
facet normal -0.217061 -0.217061 0.951719
outer loop
vertex 0.051762 0.185107 0.049319
vertex 0.105002 0.126624 0.048123
vertex 0.107624 0.129246 0.049319
endloop
endfacet
facet normal -0.109864 -0.109864 0.987856
outer loop
vertex 0.051762 0.185107 0.049319
vertex 0.107624 0.129246 0.049319
vertex 0.054484 0.187829 0.049924
endloop
endfacet
facet normal -0.109865 -0.109864 0.987856
outer loop
vertex 0.054484 0.187829 0.049924
vertex 0.107624 0.129246 0.049319
vertex 0.110345 0.131967 0.049924
endloop
endfacet
facet normal 0.000000 0.000000 1.000000
outer loop
vertex 0.054484 0.187829 0.049924
vertex 0.110345 0.131967 0.049924
vertex 0.057239 0.190584 0.049924
endloop
endfacet
facet normal 0.000000 0.000000 1.000000
outer loop
vertex 0.057239 0.190584 0.049924
vertex 0.110345 0.131967 0.049924
vertex 0.113100 0.134722 0.049924
endloop
endfacet
facet normal 0.109864 0.109864 0.987856
outer loop
vertex 0.057239 0.190584 0.049924
vertex 0.113100 0.134722 0.049924
vertex 0.059960 0.193305 0.049319
endloop
endfacet
facet normal 0.109864 0.109864 0.987856
outer loop
vertex 0.059960 0.193305 0.049319
vertex 0.113100 0.134722 0.049924
vertex 0.115822 0.137444 0.049319
endloop
endfacet
facet normal 0.217062 0.217062 0.951718
outer loop
vertex 0.059960 0.193305 0.049319
vertex 0.115822 0.137444 0.049319
vertex 0.062582 0.195927 0.048123
endloop
endfacet
facet normal 0.217062 0.217062 0.951719
outer loop
vertex 0.062582 0.195927 0.048123
vertex 0.115822 0.137444 0.049319
vertex 0.118444 0.140066 0.048123
endloop
endfacet
facet normal 0.318985 0.318985 0.892467
outer loop
vertex 0.062582 0.195927 0.048123
vertex 0.118444 0.140066 0.048123
vertex 0.065041 0.198386 0.046365
endloop
endfacet
facet normal 0.318987 0.318988 0.892465
outer loop
vertex 0.065041 0.198386 0.046365
vertex 0.118444 0.140066 0.048123
vertex 0.120903 0.142524 0.046365
endloop
endfacet
facet normal 0.413160 0.413160 0.811540
outer loop
vertex 0.065041 0.198386 0.046365
vertex 0.120903 0.142524 0.046365
vertex 0.067277 0.200622 0.044088
endloop
endfacet
facet normal 0.413163 0.413164 0.811537
outer loop
vertex 0.067277 0.200622 0.044088
vertex 0.120903 0.142524 0.046365
vertex 0.123138 0.144760 0.044088
endloop
endfacet
facet normal 0.497305 0.497304 0.710899
outer loop
vertex 0.067277 0.200622 0.044088
vertex 0.123138 0.144760 0.044088
vertex 0.069236 0.202580 0.041348
endloop
endfacet
facet normal 0.497306 0.497307 0.710896
outer loop
vertex 0.069236 0.202580 0.041348
vertex 0.123138 0.144760 0.044088
vertex 0.125097 0.146719 0.041348
endloop
endfacet
facet normal 0.569368 0.569368 0.592992
outer loop
vertex 0.069236 0.202580 0.041348
vertex 0.125097 0.146719 0.041348
vertex 0.070869 0.204214 0.038211
endloop
endfacet
facet normal 0.569365 0.569367 0.592997
outer loop
vertex 0.070869 0.204214 0.038211
vertex 0.125097 0.146719 0.041348
vertex 0.126731 0.148352 0.038211
endloop
endfacet
facet normal 0.627606 0.627605 0.460676
outer loop
vertex 0.070869 0.204214 0.038211
vertex 0.126731 0.148352 0.038211
vertex 0.072138 0.205483 0.034753
endloop
endfacet
facet normal 0.627602 0.627604 0.460683
outer loop
vertex 0.072138 0.205483 0.034753
vertex 0.126731 0.148352 0.038211
vertex 0.128000 0.149622 0.034753
endloop
endfacet
facet normal 0.670594 0.670594 0.317186
outer loop
vertex 0.072138 0.205483 0.034753
vertex 0.128000 0.149622 0.034753
vertex 0.073012 0.206357 0.031058
endloop
endfacet
facet normal 0.670594 0.670593 0.317189
outer loop
vertex 0.073012 0.206357 0.031058
vertex 0.128000 0.149622 0.034753
vertex 0.128874 0.150495 0.031058
endloop
endfacet
facet normal 0.697297 0.697298 0.165988
outer loop
vertex 0.073012 0.206357 0.031058
vertex 0.128874 0.150495 0.031058
vertex 0.073470 0.206814 0.027216
endloop
endfacet
facet normal 0.697298 0.697298 0.165984
outer loop
vertex 0.073470 0.206814 0.027216
vertex 0.128874 0.150495 0.031058
vertex 0.129331 0.150953 0.027216
endloop
endfacet
facet normal 0.707066 0.707066 0.010754
outer loop
vertex 0.073470 0.206814 0.027216
vertex 0.129331 0.150953 0.027216
vertex 0.073499 0.206844 0.023320
endloop
endfacet
facet normal 0.707066 0.707066 0.010754
outer loop
vertex 0.073499 0.206844 0.023320
vertex 0.129331 0.150953 0.027216
vertex 0.129361 0.150982 0.023320
endloop
endfacet
facet normal 0.699660 0.699661 -0.144741
outer loop
vertex 0.073499 0.206844 0.023320
vertex 0.129361 0.150982 0.023320
vertex 0.073100 0.206445 0.019465
endloop
endfacet
facet normal 0.699661 0.699660 -0.144743
outer loop
vertex 0.073100 0.206445 0.019465
vertex 0.129361 0.150982 0.023320
vertex 0.128962 0.150584 0.019465
endloop
endfacet
facet normal 0.675263 0.675263 -0.296714
outer loop
vertex 0.073100 0.206445 0.019465
vertex 0.128962 0.150584 0.019465
vertex 0.072283 0.205628 0.015744
endloop
endfacet
facet normal 0.675261 0.675261 -0.296725
outer loop
vertex 0.072283 0.205628 0.015744
vertex 0.128962 0.150584 0.019465
vertex 0.128144 0.149766 0.015744
endloop
endfacet
facet normal 0.634463 0.634463 -0.441491
outer loop
vertex 0.072283 0.205628 0.015744
vertex 0.128144 0.149766 0.015744
vertex 0.071067 0.204411 0.012248
endloop
endfacet
facet normal 0.634463 0.634463 -0.441490
outer loop
vertex 0.071067 0.204411 0.012248
vertex 0.128144 0.149766 0.015744
vertex 0.126928 0.148550 0.012248
endloop
endfacet
facet normal 0.578254 0.578253 -0.575539
outer loop
vertex 0.071067 0.204411 0.012248
vertex 0.126928 0.148550 0.012248
vertex 0.069481 0.202826 0.009062
endloop
endfacet
facet normal -0.425406 -0.425406 -0.798786
outer loop
vertex 0.046359 0.179704 0.003919
vertex 0.044158 0.177503 0.006263
vertex -0.011703 0.233364 0.006263
endloop
endfacet
facet normal -0.507998 -0.507998 -0.695612
outer loop
vertex -0.011703 0.233364 0.006263
vertex 0.044158 0.177503 0.006263
vertex -0.013620 0.231448 0.009062
endloop
endfacet
facet normal -0.507998 -0.507998 -0.695612
outer loop
vertex -0.011703 0.233364 0.006263
vertex -0.013620 0.231448 0.009062
vertex -0.069481 0.287309 0.009062
endloop
endfacet
facet normal -0.578249 -0.578250 -0.575547
outer loop
vertex -0.069481 0.287309 0.009062
vertex -0.013620 0.231448 0.009062
vertex -0.071067 0.285724 0.012248
endloop
endfacet
facet normal -0.578254 -0.578253 -0.575539
outer loop
vertex -0.069481 0.287309 0.009062
vertex -0.071067 0.285724 0.012248
vertex -0.126928 0.341585 0.012248
endloop
endfacet
facet normal -0.634464 -0.634464 -0.441486
outer loop
vertex -0.126928 0.341585 0.012248
vertex -0.071067 0.285724 0.012248
vertex -0.128144 0.340369 0.015744
endloop
endfacet
facet normal -0.508001 -0.508001 -0.695608
outer loop
vertex -0.013620 0.231448 0.009062
vertex 0.044158 0.177503 0.006263
vertex 0.042242 0.175586 0.009062
endloop
endfacet
facet normal -0.578254 -0.578253 -0.575539
outer loop
vertex -0.013620 0.231448 0.009062
vertex 0.042242 0.175586 0.009062
vertex -0.015205 0.229862 0.012248
endloop
endfacet
facet normal -0.578253 -0.578253 -0.575541
outer loop
vertex -0.015205 0.229862 0.012248
vertex 0.042242 0.175586 0.009062
vertex 0.040656 0.174001 0.012248
endloop
endfacet
facet normal -0.634463 -0.634462 -0.441491
outer loop
vertex -0.015205 0.229862 0.012248
vertex 0.040656 0.174001 0.012248
vertex -0.016421 0.228646 0.015744
endloop
endfacet
facet normal -0.634462 -0.634462 -0.441492
outer loop
vertex -0.016421 0.228646 0.015744
vertex 0.040656 0.174001 0.012248
vertex 0.039440 0.172785 0.015744
endloop
endfacet
facet normal -0.675262 -0.675262 -0.296719
outer loop
vertex -0.016421 0.228646 0.015744
vertex 0.039440 0.172785 0.015744
vertex -0.017239 0.227829 0.019465
endloop
endfacet
facet normal -0.675262 -0.675262 -0.296720
outer loop
vertex -0.017239 0.227829 0.019465
vertex 0.039440 0.172785 0.015744
vertex 0.038622 0.171967 0.019465
endloop
endfacet
facet normal -0.699660 -0.699660 -0.144747
outer loop
vertex -0.017239 0.227829 0.019465
vertex 0.038622 0.171967 0.019465
vertex -0.017638 0.227430 0.023320
endloop
endfacet
facet normal -0.699661 -0.699661 -0.144737
outer loop
vertex -0.017638 0.227430 0.023320
vertex 0.038622 0.171967 0.019465
vertex 0.038224 0.171568 0.023320
endloop
endfacet
facet normal -0.707066 -0.707066 0.010754
outer loop
vertex -0.017638 0.227430 0.023320
vertex 0.038224 0.171568 0.023320
vertex -0.017608 0.227459 0.027216
endloop
endfacet
facet normal -0.707066 -0.707066 0.010755
outer loop
vertex -0.017608 0.227459 0.027216
vertex 0.038224 0.171568 0.023320
vertex 0.038253 0.171598 0.027216
endloop
endfacet
facet normal -0.697297 -0.697297 0.165994
outer loop
vertex -0.017608 0.227459 0.027216
vertex 0.038253 0.171598 0.027216
vertex -0.017151 0.227917 0.031058
endloop
endfacet
facet normal -0.697298 -0.697298 0.165982
outer loop
vertex -0.017151 0.227917 0.031058
vertex 0.038253 0.171598 0.027216
vertex 0.038711 0.172055 0.031058
endloop
endfacet
facet normal -0.670596 -0.670595 0.317180
outer loop
vertex -0.017151 0.227917 0.031058
vertex 0.038711 0.172055 0.031058
vertex -0.016277 0.228791 0.034753
endloop
endfacet
facet normal -0.670593 -0.670594 0.317190
outer loop
vertex -0.016277 0.228791 0.034753
vertex 0.038711 0.172055 0.031058
vertex 0.039584 0.172929 0.034753
endloop
endfacet
facet normal -0.627603 -0.627604 0.460681
outer loop
vertex -0.016277 0.228791 0.034753
vertex 0.039584 0.172929 0.034753
vertex -0.015008 0.230060 0.038211
endloop
endfacet
facet normal -0.627603 -0.627603 0.460684
outer loop
vertex -0.015008 0.230060 0.038211
vertex 0.039584 0.172929 0.034753
vertex 0.040854 0.174198 0.038211
endloop
endfacet
facet normal -0.569370 -0.569370 0.592988
outer loop
vertex -0.015008 0.230060 0.038211
vertex 0.040854 0.174198 0.038211
vertex -0.013374 0.231693 0.041348
endloop
endfacet
facet normal -0.569367 -0.569367 0.592995
outer loop
vertex -0.013374 0.231693 0.041348
vertex 0.040854 0.174198 0.038211
vertex 0.042487 0.175832 0.041348
endloop
endfacet
facet normal -0.497302 -0.497302 0.710902
outer loop
vertex -0.013374 0.231693 0.041348
vertex 0.042487 0.175832 0.041348
vertex -0.011416 0.233652 0.044088
endloop
endfacet
facet normal -0.497304 -0.497304 0.710899
outer loop
vertex -0.011416 0.233652 0.044088
vertex 0.042487 0.175832 0.041348
vertex 0.044446 0.177791 0.044088
endloop
endfacet
facet normal -0.413163 -0.413165 0.811536
outer loop
vertex -0.011416 0.233652 0.044088
vertex 0.044446 0.177791 0.044088
vertex -0.009180 0.235888 0.046365
endloop
endfacet
facet normal -0.413162 -0.413161 0.811539
outer loop
vertex -0.009180 0.235888 0.046365
vertex 0.044446 0.177791 0.044088
vertex 0.046682 0.180026 0.046365
endloop
endfacet
facet normal -0.318984 -0.318985 0.892467
outer loop
vertex -0.009180 0.235888 0.046365
vertex 0.046682 0.180026 0.046365
vertex -0.006721 0.238346 0.048123
endloop
endfacet
facet normal -0.318987 -0.318987 0.892465
outer loop
vertex -0.006721 0.238346 0.048123
vertex 0.046682 0.180026 0.046365
vertex 0.049140 0.182485 0.048123
endloop
endfacet
facet normal -0.217062 -0.217062 0.951718
outer loop
vertex -0.006721 0.238346 0.048123
vertex 0.049140 0.182485 0.048123
vertex -0.004099 0.240968 0.049319
endloop
endfacet
facet normal -0.217061 -0.217061 0.951719
outer loop
vertex -0.004099 0.240968 0.049319
vertex 0.049140 0.182485 0.048123
vertex 0.051762 0.185107 0.049319
endloop
endfacet
facet normal -0.109865 -0.109865 0.987856
outer loop
vertex -0.004099 0.240968 0.049319
vertex 0.051762 0.185107 0.049319
vertex -0.001377 0.243690 0.049924
endloop
endfacet
facet normal -0.109864 -0.109864 0.987856
outer loop
vertex -0.001377 0.243690 0.049924
vertex 0.051762 0.185107 0.049319
vertex 0.054484 0.187829 0.049924
endloop
endfacet
facet normal 0.000000 0.000000 1.000000
outer loop
vertex -0.001377 0.243690 0.049924
vertex 0.054484 0.187829 0.049924
vertex 0.001377 0.246445 0.049924
endloop
endfacet
facet normal -0.000001 0.000000 1.000000
outer loop
vertex 0.001377 0.246445 0.049924
vertex 0.054484 0.187829 0.049924
vertex 0.057239 0.190584 0.049924
endloop
endfacet
facet normal 0.109864 0.109864 0.987856
outer loop
vertex 0.001377 0.246445 0.049924
vertex 0.057239 0.190584 0.049924
vertex 0.004099 0.249167 0.049319
endloop
endfacet
facet normal 0.109865 0.109865 0.987856
outer loop
vertex 0.004099 0.249167 0.049319
vertex 0.057239 0.190584 0.049924
vertex 0.059960 0.193305 0.049319
endloop
endfacet
facet normal 0.217061 0.217061 0.951719
outer loop
vertex 0.004099 0.249167 0.049319
vertex 0.059960 0.193305 0.049319
vertex 0.006721 0.251789 0.048123
endloop
endfacet
facet normal 0.217061 0.217061 0.951719
outer loop
vertex 0.006721 0.251789 0.048123
vertex 0.059960 0.193305 0.049319
vertex 0.062582 0.195927 0.048123
endloop
endfacet
facet normal 0.318985 0.318985 0.892467
outer loop
vertex 0.006721 0.251789 0.048123
vertex 0.062582 0.195927 0.048123
vertex 0.009180 0.254247 0.046365
endloop
endfacet
facet normal 0.318986 0.318987 0.892466
outer loop
vertex 0.009180 0.254247 0.046365
vertex 0.062582 0.195927 0.048123
vertex 0.065041 0.198386 0.046365
endloop
endfacet
facet normal 0.413166 0.413164 0.811535
outer loop
vertex 0.009180 0.254247 0.046365
vertex 0.065041 0.198386 0.046365
vertex 0.011416 0.256483 0.044088
endloop
endfacet
facet normal 0.413161 0.413162 0.811539
outer loop
vertex 0.011416 0.256483 0.044088
vertex 0.065041 0.198386 0.046365
vertex 0.067277 0.200622 0.044088
endloop
endfacet
facet normal 0.497307 0.497306 0.710895
outer loop
vertex 0.011416 0.256483 0.044088
vertex 0.067277 0.200622 0.044088
vertex 0.013374 0.258442 0.041348
endloop
endfacet
facet normal 0.497303 0.497303 0.710901
outer loop
vertex 0.013374 0.258442 0.041348
vertex 0.067277 0.200622 0.044088
vertex 0.069236 0.202580 0.041348
endloop
endfacet
facet normal 0.569368 0.569368 0.592992
outer loop
vertex 0.013374 0.258442 0.041348
vertex 0.069236 0.202580 0.041348
vertex 0.015008 0.260075 0.038211
endloop
endfacet
facet normal 0.569367 0.569367 0.592994
outer loop
vertex 0.015008 0.260075 0.038211
vertex 0.069236 0.202580 0.041348
vertex 0.070869 0.204214 0.038211
endloop
endfacet
facet normal 0.627603 0.627604 0.460681
outer loop
vertex 0.015008 0.260075 0.038211
vertex 0.070869 0.204214 0.038211
vertex 0.016277 0.261344 0.034753
endloop
endfacet
facet normal 0.627601 0.627601 0.460689
outer loop
vertex 0.016277 0.261344 0.034753
vertex 0.070869 0.204214 0.038211
vertex 0.072138 0.205483 0.034753
endloop
endfacet
facet normal 0.670595 0.670596 0.317181
outer loop
vertex 0.016277 0.261344 0.034753
vertex 0.072138 0.205483 0.034753
vertex 0.017151 0.262218 0.031058
endloop
endfacet
facet normal 0.670594 0.670593 0.317190
outer loop
vertex 0.017151 0.262218 0.031058
vertex 0.072138 0.205483 0.034753
vertex 0.073012 0.206357 0.031058
endloop
endfacet
facet normal 0.697298 0.697298 0.165988
outer loop
vertex 0.017151 0.262218 0.031058
vertex 0.073012 0.206357 0.031058
vertex 0.017608 0.262676 0.027216
endloop
endfacet
facet normal 0.697298 0.697298 0.165981
outer loop
vertex 0.017608 0.262676 0.027216
vertex 0.073012 0.206357 0.031058
vertex 0.073470 0.206814 0.027216
endloop
endfacet
facet normal 0.707066 0.707066 0.010754
outer loop
vertex 0.017608 0.262676 0.027216
vertex 0.073470 0.206814 0.027216
vertex 0.017638 0.262705 0.023320
endloop
endfacet
facet normal 0.707066 0.707066 0.010755
outer loop
vertex 0.017638 0.262705 0.023320
vertex 0.073470 0.206814 0.027216
vertex 0.073499 0.206844 0.023320
endloop
endfacet
facet normal 0.699660 0.699661 -0.144741
outer loop
vertex 0.017638 0.262705 0.023320
vertex 0.073499 0.206844 0.023320
vertex 0.017239 0.262306 0.019465
endloop
endfacet
facet normal 0.699661 0.699660 -0.144742
outer loop
vertex 0.017239 0.262306 0.019465
vertex 0.073499 0.206844 0.023320
vertex 0.073100 0.206445 0.019465
endloop
endfacet
facet normal 0.675262 0.675262 -0.296720
outer loop
vertex 0.017239 0.262306 0.019465
vertex 0.073100 0.206445 0.019465
vertex 0.016421 0.261489 0.015744
endloop
endfacet
facet normal 0.675262 0.675262 -0.296719
outer loop
vertex 0.016421 0.261489 0.015744
vertex 0.073100 0.206445 0.019465
vertex 0.072283 0.205628 0.015744
endloop
endfacet
facet normal 0.634463 0.634463 -0.441491
outer loop
vertex 0.016421 0.261489 0.015744
vertex 0.072283 0.205628 0.015744
vertex 0.015205 0.260273 0.012248
endloop
endfacet
facet normal 0.634463 0.634463 -0.441490
outer loop
vertex 0.015205 0.260273 0.012248
vertex 0.072283 0.205628 0.015744
vertex 0.071067 0.204411 0.012248
endloop
endfacet
facet normal 0.578254 0.578254 -0.575539
outer loop
vertex 0.015205 0.260273 0.012248
vertex 0.071067 0.204411 0.012248
vertex 0.013620 0.258687 0.009062
endloop
endfacet
facet normal 0.578253 0.578253 -0.575541
outer loop
vertex 0.013620 0.258687 0.009062
vertex 0.071067 0.204411 0.012248
vertex 0.069481 0.202826 0.009062
endloop
endfacet
facet normal 0.508000 0.508000 -0.695609
outer loop
vertex 0.013620 0.258687 0.009062
vertex 0.069481 0.202826 0.009062
vertex 0.011703 0.256771 0.006263
endloop
endfacet
facet normal -0.578254 -0.578254 -0.575539
outer loop
vertex -0.013620 0.231448 0.009062
vertex -0.015205 0.229862 0.012248
vertex -0.071067 0.285724 0.012248
endloop
endfacet
facet normal -0.634464 -0.634464 -0.441487
outer loop
vertex -0.071067 0.285724 0.012248
vertex -0.015205 0.229862 0.012248
vertex -0.072283 0.284507 0.015744
endloop
endfacet
facet normal -0.634461 -0.634461 -0.441496
outer loop
vertex -0.071067 0.285724 0.012248
vertex -0.072283 0.284507 0.015744
vertex -0.128144 0.340369 0.015744
endloop
endfacet
facet normal -0.675260 -0.675260 -0.296731
outer loop
vertex -0.128144 0.340369 0.015744
vertex -0.072283 0.284507 0.015744
vertex -0.128962 0.339551 0.019465
endloop
endfacet
facet normal -0.634462 -0.634462 -0.441493
outer loop
vertex -0.072283 0.284507 0.015744
vertex -0.015205 0.229862 0.012248
vertex -0.016421 0.228646 0.015744
endloop
endfacet
facet normal -0.675262 -0.675262 -0.296720
outer loop
vertex -0.072283 0.284507 0.015744
vertex -0.016421 0.228646 0.015744
vertex -0.073100 0.283690 0.019465
endloop
endfacet
facet normal -0.675261 -0.675261 -0.296725
outer loop
vertex -0.073100 0.283690 0.019465
vertex -0.016421 0.228646 0.015744
vertex -0.017239 0.227829 0.019465
endloop
endfacet
facet normal -0.699661 -0.699662 -0.144735
outer loop
vertex -0.073100 0.283690 0.019465
vertex -0.017239 0.227829 0.019465
vertex -0.073499 0.283291 0.023320
endloop
endfacet
facet normal -0.699662 -0.699661 -0.144735
outer loop
vertex -0.073499 0.283291 0.023320
vertex -0.017239 0.227829 0.019465
vertex -0.017638 0.227430 0.023320
endloop
endfacet
facet normal -0.707066 -0.707066 0.010748
outer loop
vertex -0.073499 0.283291 0.023320
vertex -0.017638 0.227430 0.023320
vertex -0.073470 0.283321 0.027216
endloop
endfacet
facet normal -0.707066 -0.707066 0.010756
outer loop
vertex -0.073470 0.283321 0.027216
vertex -0.017638 0.227430 0.023320
vertex -0.017608 0.227459 0.027216
endloop
endfacet
facet normal -0.697298 -0.697298 0.165982
outer loop
vertex -0.073470 0.283321 0.027216
vertex -0.017608 0.227459 0.027216
vertex -0.073012 0.283778 0.031058
endloop
endfacet
facet normal -0.697298 -0.697298 0.165985
outer loop
vertex -0.073012 0.283778 0.031058
vertex -0.017608 0.227459 0.027216
vertex -0.017151 0.227917 0.031058
endloop
endfacet
facet normal -0.670594 -0.670592 0.317191
outer loop
vertex -0.073012 0.283778 0.031058
vertex -0.017151 0.227917 0.031058
vertex -0.072138 0.284652 0.034753
endloop
endfacet
facet normal -0.670596 -0.670596 0.317178
outer loop
vertex -0.072138 0.284652 0.034753
vertex -0.017151 0.227917 0.031058
vertex -0.016277 0.228791 0.034753
endloop
endfacet
facet normal -0.627600 -0.627600 0.460691
outer loop
vertex -0.072138 0.284652 0.034753
vertex -0.016277 0.228791 0.034753
vertex -0.070869 0.285921 0.038211
endloop
endfacet
facet normal -0.627600 -0.627601 0.460691
outer loop
vertex -0.070869 0.285921 0.038211
vertex -0.016277 0.228791 0.034753
vertex -0.015008 0.230060 0.038211
endloop
endfacet
facet normal -0.569369 -0.569371 0.592989
outer loop
vertex -0.070869 0.285921 0.038211
vertex -0.015008 0.230060 0.038211
vertex -0.069236 0.287555 0.041348
endloop
endfacet
facet normal -0.569367 -0.569367 0.592994
outer loop
vertex -0.069236 0.287555 0.041348
vertex -0.015008 0.230060 0.038211
vertex -0.013374 0.231693 0.041348
endloop
endfacet
facet normal -0.497305 -0.497304 0.710899
outer loop
vertex -0.069236 0.287555 0.041348
vertex -0.013374 0.231693 0.041348
vertex -0.067277 0.289513 0.044088
endloop
endfacet
facet normal -0.497306 -0.497305 0.710897
outer loop
vertex -0.067277 0.289513 0.044088
vertex -0.013374 0.231693 0.041348
vertex -0.011416 0.233652 0.044088
endloop
endfacet
facet normal -0.413163 -0.413165 0.811536
outer loop
vertex -0.067277 0.289513 0.044088
vertex -0.011416 0.233652 0.044088
vertex -0.065041 0.291749 0.046365
endloop
endfacet
facet normal -0.413162 -0.413161 0.811539
outer loop
vertex -0.065041 0.291749 0.046365
vertex -0.011416 0.233652 0.044088
vertex -0.009180 0.235888 0.046365
endloop
endfacet
facet normal -0.318982 -0.318983 0.892469
outer loop
vertex -0.065041 0.291749 0.046365
vertex -0.009180 0.235888 0.046365
vertex -0.062582 0.294208 0.048123
endloop
endfacet
facet normal -0.318990 -0.318990 0.892463
outer loop
vertex -0.062582 0.294208 0.048123
vertex -0.009180 0.235888 0.046365
vertex -0.006721 0.238346 0.048123
endloop
endfacet
facet normal -0.217060 -0.217060 0.951720
outer loop
vertex -0.062582 0.294208 0.048123
vertex -0.006721 0.238346 0.048123
vertex -0.059960 0.296830 0.049319
endloop
endfacet
facet normal -0.217061 -0.217061 0.951719
outer loop
vertex -0.059960 0.296830 0.049319
vertex -0.006721 0.238346 0.048123
vertex -0.004099 0.240968 0.049319
endloop
endfacet
facet normal -0.109864 -0.109864 0.987856
outer loop
vertex -0.059960 0.296830 0.049319
vertex -0.004099 0.240968 0.049319
vertex -0.057239 0.299551 0.049924
endloop
endfacet
facet normal -0.109863 -0.109864 0.987856
outer loop
vertex -0.057239 0.299551 0.049924
vertex -0.004099 0.240968 0.049319
vertex -0.001377 0.243690 0.049924
endloop
endfacet
facet normal 0.000000 0.000000 1.000000
outer loop
vertex -0.057239 0.299551 0.049924
vertex -0.001377 0.243690 0.049924
vertex -0.054484 0.302306 0.049924
endloop
endfacet
facet normal -0.000001 0.000000 1.000000
outer loop
vertex -0.054484 0.302306 0.049924
vertex -0.001377 0.243690 0.049924
vertex 0.001377 0.246445 0.049924
endloop
endfacet
facet normal 0.109864 0.109864 0.987856
outer loop
vertex -0.054484 0.302306 0.049924
vertex 0.001377 0.246445 0.049924
vertex -0.051762 0.305028 0.049319
endloop
endfacet
facet normal 0.109865 0.109864 0.987856
outer loop
vertex -0.051762 0.305028 0.049319
vertex 0.001377 0.246445 0.049924
vertex 0.004099 0.249167 0.049319
endloop
endfacet
facet normal 0.217065 0.217065 0.951717
outer loop
vertex -0.051762 0.305028 0.049319
vertex 0.004099 0.249167 0.049319
vertex -0.049140 0.307650 0.048123
endloop
endfacet
facet normal 0.217062 0.217062 0.951719
outer loop
vertex -0.049140 0.307650 0.048123
vertex 0.004099 0.249167 0.049319
vertex 0.006721 0.251789 0.048123
endloop
endfacet
facet normal 0.318982 0.318981 0.892470
outer loop
vertex -0.049140 0.307650 0.048123
vertex 0.006721 0.251789 0.048123
vertex -0.046682 0.310109 0.046365
endloop
endfacet
facet normal 0.318989 0.318990 0.892464
outer loop
vertex -0.046682 0.310109 0.046365
vertex 0.006721 0.251789 0.048123
vertex 0.009180 0.254247 0.046365
endloop
endfacet
facet normal 0.413164 0.413162 0.811537
outer loop
vertex -0.046682 0.310109 0.046365
vertex 0.009180 0.254247 0.046365
vertex -0.044446 0.312344 0.044088
endloop
endfacet
facet normal 0.413160 0.413161 0.811539
outer loop
vertex -0.044446 0.312344 0.044088
vertex 0.009180 0.254247 0.046365
vertex 0.011416 0.256483 0.044088
endloop
endfacet
facet normal 0.497305 0.497304 0.710899
outer loop
vertex -0.044446 0.312344 0.044088
vertex 0.011416 0.256483 0.044088
vertex -0.042487 0.314303 0.041348
endloop
endfacet
facet normal 0.497304 0.497304 0.710899
outer loop
vertex -0.042487 0.314303 0.041348
vertex 0.011416 0.256483 0.044088
vertex 0.013374 0.258442 0.041348
endloop
endfacet
facet normal 0.569371 0.569370 0.592988
outer loop
vertex -0.042487 0.314303 0.041348
vertex 0.013374 0.258442 0.041348
vertex -0.040854 0.315937 0.038211
endloop
endfacet
facet normal 0.569361 0.569362 0.593005
outer loop
vertex -0.040854 0.315937 0.038211
vertex 0.013374 0.258442 0.041348
vertex 0.015008 0.260075 0.038211
endloop
endfacet
facet normal 0.627603 0.627604 0.460681
outer loop
vertex -0.040854 0.315937 0.038211
vertex 0.015008 0.260075 0.038211
vertex -0.039584 0.317206 0.034753
endloop
endfacet
facet normal 0.627606 0.627606 0.460676
outer loop
vertex -0.039584 0.317206 0.034753
vertex 0.015008 0.260075 0.038211
vertex 0.016277 0.261344 0.034753
endloop
endfacet
facet normal 0.670594 0.670595 0.317186
outer loop
vertex -0.039584 0.317206 0.034753
vertex 0.016277 0.261344 0.034753
vertex -0.038711 0.318080 0.031058
endloop
endfacet
facet normal 0.670593 0.670592 0.317195
outer loop
vertex -0.038711 0.318080 0.031058
vertex 0.016277 0.261344 0.034753
vertex 0.017151 0.262218 0.031058
endloop
endfacet
facet normal 0.697298 0.697298 0.165982
outer loop
vertex -0.038711 0.318080 0.031058
vertex 0.017151 0.262218 0.031058
vertex -0.038253 0.318537 0.027216
endloop
endfacet
facet normal 0.697297 0.697298 0.165990
outer loop
vertex -0.038253 0.318537 0.027216
vertex 0.017151 0.262218 0.031058
vertex 0.017608 0.262676 0.027216
endloop
endfacet
facet normal 0.707066 0.707066 0.010735
outer loop
vertex -0.038253 0.318537 0.027216
vertex 0.017608 0.262676 0.027216
vertex -0.038224 0.318567 0.023320
endloop
endfacet
facet normal 0.707066 0.707066 0.010762
outer loop
vertex -0.038224 0.318567 0.023320
vertex 0.017608 0.262676 0.027216
vertex 0.017638 0.262705 0.023320
endloop
endfacet
facet normal 0.699660 0.699661 -0.144741
outer loop
vertex -0.038224 0.318567 0.023320
vertex 0.017638 0.262705 0.023320
vertex -0.038622 0.318168 0.019465
endloop
endfacet
facet normal 0.699662 0.699662 -0.144729
outer loop
vertex -0.038622 0.318168 0.019465
vertex 0.017638 0.262705 0.023320
vertex 0.017239 0.262306 0.019465
endloop
endfacet
facet normal 0.675260 0.675260 -0.296731
outer loop
vertex -0.038622 0.318168 0.019465
vertex 0.017239 0.262306 0.019465
vertex -0.039440 0.317350 0.015744
endloop
endfacet
facet normal 0.675261 0.675261 -0.296724
outer loop
vertex -0.039440 0.317350 0.015744
vertex 0.017239 0.262306 0.019465
vertex 0.016421 0.261489 0.015744
endloop
endfacet
facet normal 0.634464 0.634464 -0.441486
outer loop
vertex -0.039440 0.317350 0.015744
vertex 0.016421 0.261489 0.015744
vertex -0.040656 0.316134 0.012248
endloop
endfacet
facet normal 0.634461 0.634461 -0.441496
outer loop
vertex -0.040656 0.316134 0.012248
vertex 0.016421 0.261489 0.015744
vertex 0.015205 0.260273 0.012248
endloop
endfacet
facet normal 0.578254 0.578254 -0.575539
outer loop
vertex -0.040656 0.316134 0.012248
vertex 0.015205 0.260273 0.012248
vertex -0.042242 0.314549 0.009062
endloop
endfacet
facet normal 0.578254 0.578254 -0.575539
outer loop
vertex -0.042242 0.314549 0.009062
vertex 0.015205 0.260273 0.012248
vertex 0.013620 0.258687 0.009062
endloop
endfacet
facet normal 0.507998 0.507998 -0.695612
outer loop
vertex -0.042242 0.314549 0.009062
vertex 0.013620 0.258687 0.009062
vertex -0.044158 0.312632 0.006263
endloop
endfacet
facet normal 0.507999 0.507999 -0.695611
outer loop
vertex -0.044158 0.312632 0.006263
vertex 0.013620 0.258687 0.009062
vertex 0.011703 0.256771 0.006263
endloop
endfacet
facet normal 0.425405 0.425405 -0.798788
outer loop
vertex -0.044158 0.312632 0.006263
vertex 0.011703 0.256771 0.006263
vertex -0.046359 0.310431 0.003919
endloop
endfacet
facet normal -0.699660 -0.699661 -0.144741
outer loop
vertex -0.129361 0.339153 0.023320
vertex -0.128962 0.339551 0.019465
vertex -0.073100 0.283690 0.019465
endloop
endfacet
facet normal -0.675262 -0.675262 -0.296719
outer loop
vertex -0.073100 0.283690 0.019465
vertex -0.128962 0.339551 0.019465
vertex -0.072283 0.284507 0.015744
endloop
endfacet
facet normal -0.699661 -0.699661 -0.144733
outer loop
vertex -0.129361 0.339153 0.023320
vertex -0.073100 0.283690 0.019465
vertex -0.073499 0.283291 0.023320
endloop
endfacet
facet normal -0.707066 -0.707066 0.010735
outer loop
vertex -0.129331 0.339182 0.027216
vertex -0.129361 0.339153 0.023320
vertex -0.073499 0.283291 0.023320
endloop
endfacet
facet normal -0.707066 -0.707066 0.010763
outer loop
vertex -0.129331 0.339182 0.027216
vertex -0.073499 0.283291 0.023320
vertex -0.073470 0.283321 0.027216
endloop
endfacet
facet normal -0.697297 -0.697297 0.165994
outer loop
vertex -0.128874 0.339640 0.031058
vertex -0.129331 0.339182 0.027216
vertex -0.073470 0.283321 0.027216
endloop
endfacet
facet normal -0.697298 -0.697298 0.165988
outer loop
vertex -0.128874 0.339640 0.031058
vertex -0.073470 0.283321 0.027216
vertex -0.073012 0.283778 0.031058
endloop
endfacet
facet normal -0.670595 -0.670594 0.317186
outer loop
vertex -0.128000 0.340513 0.034753
vertex -0.128874 0.339640 0.031058
vertex -0.073012 0.283778 0.031058
endloop
endfacet
facet normal -0.670591 -0.670591 0.317199
outer loop
vertex -0.128000 0.340513 0.034753
vertex -0.073012 0.283778 0.031058
vertex -0.072138 0.284652 0.034753
endloop
endfacet
facet normal -0.627603 -0.627604 0.460681
outer loop
vertex -0.126731 0.341783 0.038211
vertex -0.128000 0.340513 0.034753
vertex -0.072138 0.284652 0.034753
endloop
endfacet
facet normal -0.627603 -0.627603 0.460683
outer loop
vertex -0.126731 0.341783 0.038211
vertex -0.072138 0.284652 0.034753
vertex -0.070869 0.285921 0.038211
endloop
endfacet
facet normal -0.569367 -0.569369 0.592993
outer loop
vertex -0.125097 0.343416 0.041348
vertex -0.126731 0.341783 0.038211
vertex -0.070869 0.285921 0.038211
endloop
endfacet
facet normal -0.569370 -0.569369 0.592989
outer loop
vertex -0.125097 0.343416 0.041348
vertex -0.070869 0.285921 0.038211
vertex -0.069236 0.287555 0.041348
endloop
endfacet
facet normal -0.497304 -0.497304 0.710899
outer loop
vertex -0.123138 0.345375 0.044088
vertex -0.125097 0.343416 0.041348
vertex -0.069236 0.287555 0.041348
endloop
endfacet
facet normal -0.497302 -0.497302 0.710901
outer loop
vertex -0.123138 0.345375 0.044088
vertex -0.069236 0.287555 0.041348
vertex -0.067277 0.289513 0.044088
endloop
endfacet
facet normal -0.413162 -0.413162 0.811538
outer loop
vertex -0.120903 0.347611 0.046365
vertex -0.123138 0.345375 0.044088
vertex -0.067277 0.289513 0.044088
endloop
endfacet
facet normal -0.413163 -0.413162 0.811538
outer loop
vertex -0.120903 0.347611 0.046365
vertex -0.067277 0.289513 0.044088
vertex -0.065041 0.291749 0.046365
endloop
endfacet
facet normal -0.318987 -0.318988 0.892465
outer loop
vertex -0.118444 0.350069 0.048123
vertex -0.120903 0.347611 0.046365
vertex -0.065041 0.291749 0.046365
endloop
endfacet
facet normal -0.318984 -0.318984 0.892467
outer loop
vertex -0.118444 0.350069 0.048123
vertex -0.065041 0.291749 0.046365
vertex -0.062582 0.294208 0.048123
endloop
endfacet
facet normal -0.217062 -0.217062 0.951718
outer loop
vertex -0.115822 0.352691 0.049319
vertex -0.118444 0.350069 0.048123
vertex -0.062582 0.294208 0.048123
endloop
endfacet
facet normal -0.217064 -0.217063 0.951718
outer loop
vertex -0.115822 0.352691 0.049319
vertex -0.062582 0.294208 0.048123
vertex -0.059960 0.296830 0.049319
endloop
endfacet
facet normal -0.109864 -0.109864 0.987856
outer loop
vertex -0.113100 0.355413 0.049924
vertex -0.115822 0.352691 0.049319
vertex -0.059960 0.296830 0.049319
endloop
endfacet
facet normal -0.109865 -0.109864 0.987856
outer loop
vertex -0.113100 0.355413 0.049924
vertex -0.059960 0.296830 0.049319
vertex -0.057239 0.299551 0.049924
endloop
endfacet
facet normal 0.000002 0.000000 1.000000
outer loop
vertex -0.110345 0.358168 0.049924
vertex -0.113100 0.355413 0.049924
vertex -0.057239 0.299551 0.049924
endloop
endfacet
facet normal -0.000001 0.000000 1.000000
outer loop
vertex -0.110345 0.358168 0.049924
vertex -0.057239 0.299551 0.049924
vertex -0.054484 0.302306 0.049924
endloop
endfacet
facet normal 0.109863 0.109864 0.987856
outer loop
vertex -0.107624 0.360889 0.049319
vertex -0.110345 0.358168 0.049924
vertex -0.054484 0.302306 0.049924
endloop
endfacet
facet normal 0.109865 0.109864 0.987856
outer loop
vertex -0.107624 0.360889 0.049319
vertex -0.054484 0.302306 0.049924
vertex -0.051762 0.305028 0.049319
endloop
endfacet
facet normal 0.217062 0.217062 0.951718
outer loop
vertex -0.105002 0.363511 0.048123
vertex -0.107624 0.360889 0.049319
vertex -0.051762 0.305028 0.049319
endloop
endfacet
facet normal 0.217062 0.217062 0.951719
outer loop
vertex -0.105002 0.363511 0.048123
vertex -0.051762 0.305028 0.049319
vertex -0.049140 0.307650 0.048123
endloop
endfacet
facet normal 0.318989 0.318988 0.892465
outer loop
vertex -0.102543 0.365970 0.046365
vertex -0.105002 0.363511 0.048123
vertex -0.049140 0.307650 0.048123
endloop
endfacet
facet normal 0.318983 0.318984 0.892468
outer loop
vertex -0.102543 0.365970 0.046365
vertex -0.049140 0.307650 0.048123
vertex -0.046682 0.310109 0.046365
endloop
endfacet
facet normal 0.413158 0.413158 0.811542
outer loop
vertex -0.100307 0.368206 0.044088
vertex -0.102543 0.365970 0.046365
vertex -0.046682 0.310109 0.046365
endloop
endfacet
facet normal 0.413166 0.413166 0.811534
outer loop
vertex -0.100307 0.368206 0.044088
vertex -0.046682 0.310109 0.046365
vertex -0.044446 0.312344 0.044088
endloop
endfacet
facet normal 0.497309 0.497308 0.710893
outer loop
vertex -0.098349 0.370164 0.041348
vertex -0.100307 0.368206 0.044088
vertex -0.044446 0.312344 0.044088
endloop
endfacet
facet normal 0.497303 0.497303 0.710900
outer loop
vertex -0.098349 0.370164 0.041348
vertex -0.044446 0.312344 0.044088
vertex -0.042487 0.314303 0.041348
endloop
endfacet
facet normal 0.569369 0.569368 0.592992
outer loop
vertex -0.096715 0.371798 0.038211
vertex -0.098349 0.370164 0.041348
vertex -0.042487 0.314303 0.041348
endloop
endfacet
facet normal 0.569368 0.569368 0.592993
outer loop
vertex -0.096715 0.371798 0.038211
vertex -0.042487 0.314303 0.041348
vertex -0.040854 0.315937 0.038211
endloop
endfacet
facet normal 0.627603 0.627604 0.460682
outer loop
vertex -0.095446 0.373067 0.034753
vertex -0.096715 0.371798 0.038211
vertex -0.040854 0.315937 0.038211
endloop
endfacet
facet normal 0.627603 0.627604 0.460683
outer loop
vertex -0.095446 0.373067 0.034753
vertex -0.040854 0.315937 0.038211
vertex -0.039584 0.317206 0.034753
endloop
endfacet
facet normal 0.670594 0.670595 0.317186
outer loop
vertex -0.094572 0.373941 0.031058
vertex -0.095446 0.373067 0.034753
vertex -0.039584 0.317206 0.034753
endloop
endfacet
facet normal 0.670595 0.670594 0.317183
outer loop
vertex -0.094572 0.373941 0.031058
vertex -0.039584 0.317206 0.034753
vertex -0.038711 0.318080 0.031058
endloop
endfacet
facet normal 0.697298 0.697298 0.165982
outer loop
vertex -0.094115 0.374398 0.027216
vertex -0.094572 0.373941 0.031058
vertex -0.038711 0.318080 0.031058
endloop
endfacet
facet normal 0.697298 0.697298 0.165987
outer loop
vertex -0.094115 0.374398 0.027216
vertex -0.038711 0.318080 0.031058
vertex -0.038253 0.318537 0.027216
endloop
endfacet
facet normal 0.707066 0.707066 0.010772
outer loop
vertex -0.094085 0.374428 0.023320
vertex -0.094115 0.374398 0.027216
vertex -0.038253 0.318537 0.027216
endloop
endfacet
facet normal 0.707066 0.707066 0.010745
outer loop
vertex -0.094085 0.374428 0.023320
vertex -0.038253 0.318537 0.027216
vertex -0.038224 0.318567 0.023320
endloop
endfacet
facet normal 0.699660 0.699661 -0.144741
outer loop
vertex -0.094484 0.374029 0.019465
vertex -0.094085 0.374428 0.023320
vertex -0.038224 0.318567 0.023320
endloop
endfacet
facet normal 0.699662 0.699661 -0.144733
outer loop
vertex -0.094484 0.374029 0.019465
vertex -0.038224 0.318567 0.023320
vertex -0.038622 0.318168 0.019465
endloop
endfacet
facet normal 0.675262 0.675262 -0.296720
outer loop
vertex -0.095301 0.373212 0.015744
vertex -0.094484 0.374029 0.019465
vertex -0.038622 0.318168 0.019465
endloop
endfacet
facet normal 0.675261 0.675261 -0.296724
outer loop
vertex -0.095301 0.373212 0.015744
vertex -0.038622 0.318168 0.019465
vertex -0.039440 0.317350 0.015744
endloop
endfacet
facet normal 0.634464 0.634464 -0.441486
outer loop
vertex -0.096518 0.371996 0.012248
vertex -0.095301 0.373212 0.015744
vertex -0.039440 0.317350 0.015744
endloop
endfacet
facet normal 0.634460 0.634460 -0.441499
outer loop
vertex -0.096518 0.371996 0.012248
vertex -0.039440 0.317350 0.015744
vertex -0.040656 0.316134 0.012248
endloop
endfacet
facet normal 0.578254 0.578254 -0.575539
outer loop
vertex -0.098103 0.370410 0.009062
vertex -0.096518 0.371996 0.012248
vertex -0.040656 0.316134 0.012248
endloop
endfacet
facet normal 0.578254 0.578253 -0.575540
outer loop
vertex -0.098103 0.370410 0.009062
vertex -0.040656 0.316134 0.012248
vertex -0.042242 0.314549 0.009062
endloop
endfacet
facet normal 0.507998 0.507998 -0.695612
outer loop
vertex -0.100020 0.368494 0.006263
vertex -0.098103 0.370410 0.009062
vertex -0.042242 0.314549 0.009062
endloop
endfacet
facet normal 0.507999 0.507999 -0.695611
outer loop
vertex -0.100020 0.368494 0.006263
vertex -0.042242 0.314549 0.009062
vertex -0.044158 0.312632 0.006263
endloop
endfacet
facet normal 0.425409 0.425409 -0.798783
outer loop
vertex -0.102220 0.366293 0.003919
vertex -0.100020 0.368494 0.006263
vertex -0.044158 0.312632 0.006263
endloop
endfacet
facet normal 0.425405 0.425405 -0.798787
outer loop
vertex -0.102220 0.366293 0.003919
vertex -0.044158 0.312632 0.006263
vertex -0.046359 0.310431 0.003919
endloop
endfacet
facet normal -0.707107 -0.707107 0.000000
outer loop
vertex 0.160513 0.070412 0.000000
vertex 0.160513 0.070412 0.002087
vertex -0.174655 0.405581 0.000000
endloop
endfacet
facet normal -0.707107 -0.707107 0.000000
outer loop
vertex -0.174655 0.405581 0.000000
vertex 0.160513 0.070412 0.002087
vertex -0.174655 0.405581 0.002087
endloop
endfacet
facet normal -0.707106 0.707108 0.000000
outer loop
vertex -0.174655 0.405581 0.000000
vertex -0.174655 0.405581 0.002087
vertex -0.160513 0.419723 0.000000
endloop
endfacet
facet normal -0.707106 0.707108 0.000000
outer loop
vertex -0.160513 0.419723 0.000000
vertex -0.174655 0.405581 0.002087
vertex -0.160513 0.419723 0.002087
endloop
endfacet
facet normal -0.707106 0.707107 0.000000
outer loop
vertex -0.160513 0.419723 0.002087
vertex -0.174655 0.405581 0.002087
vertex -0.158146 0.422090 0.003861
endloop
endfacet
facet normal -0.707108 0.707106 0.000000
outer loop
vertex -0.158146 0.422090 0.003861
vertex -0.174655 0.405581 0.002087
vertex -0.155996 0.424240 0.006120
endloop
endfacet
facet normal -0.707104 0.707110 0.000000
outer loop
vertex -0.155996 0.424240 0.006120
vertex -0.174655 0.405581 0.002087
vertex -0.154112 0.426124 0.008813
endloop
endfacet
facet normal -0.707107 0.707107 0.000000
outer loop
vertex -0.154112 0.426124 0.008813
vertex -0.174655 0.405581 0.002087
vertex -0.152538 0.427698 0.011878
endloop
endfacet
facet normal -0.707107 0.707107 -0.000021
outer loop
vertex -0.152538 0.427698 0.011878
vertex -0.174655 0.405581 0.002087
vertex -0.151308 0.428928 0.015243
endloop
endfacet
facet normal -0.707109 0.707104 0.000018
outer loop
vertex -0.151308 0.428928 0.015243
vertex -0.174655 0.405581 0.002087
vertex -0.150453 0.429783 0.018833
endloop
endfacet
facet normal -0.707103 0.707110 -0.000016
outer loop
vertex -0.150453 0.429783 0.018833
vertex -0.174655 0.405581 0.002087
vertex -0.149991 0.430245 0.022564
endloop
endfacet
facet normal -0.707107 0.707107 0.000000
outer loop
vertex -0.149991 0.430245 0.022564
vertex -0.174655 0.405581 0.002087
vertex -0.149932 0.430304 0.026352
endloop
endfacet
facet normal -0.707108 0.707106 0.000013
outer loop
vertex -0.149932 0.430304 0.026352
vertex -0.174655 0.405581 0.002087
vertex -0.150280 0.429957 0.030108
endloop
endfacet
facet normal -0.707107 0.707106 -0.000012
outer loop
vertex -0.150280 0.429957 0.030108
vertex -0.174655 0.405581 0.002087
vertex -0.151024 0.429212 0.033747
endloop
endfacet
facet normal -0.707109 0.707105 0.000000
outer loop
vertex -0.151024 0.429212 0.033747
vertex -0.174655 0.405581 0.002087
vertex -0.152148 0.428088 0.037185
endloop
endfacet
facet normal -0.707101 0.707113 0.000000
outer loop
vertex -0.152148 0.428088 0.037185
vertex -0.174655 0.405581 0.002087
vertex -0.153627 0.426609 0.040343
endloop
endfacet
facet normal -0.707112 0.707102 0.000010
outer loop
vertex -0.153627 0.426609 0.040343
vertex -0.174655 0.405581 0.002087
vertex -0.155427 0.424809 0.043149
endloop
endfacet
facet normal -0.707104 0.707109 -0.000005
outer loop
vertex -0.155427 0.424809 0.043149
vertex -0.174655 0.405581 0.002087
vertex -0.157505 0.422731 0.045539
endloop
endfacet
facet normal -0.707107 0.707107 0.000005
outer loop
vertex -0.157505 0.422731 0.045539
vertex -0.174655 0.405581 0.002087
vertex -0.159815 0.420421 0.047456
endloop
endfacet
facet normal -0.707108 0.707106 0.000000
outer loop
vertex -0.159815 0.420421 0.047456
vertex -0.174655 0.405581 0.002087
vertex -0.162304 0.417932 0.048859
endloop
endfacet
facet normal -0.707108 0.707106 -0.000001
outer loop
vertex -0.162304 0.417932 0.048859
vertex -0.174655 0.405581 0.002087
vertex -0.177022 0.403214 0.003861
endloop
endfacet
facet normal -0.707105 0.707109 0.000001
outer loop
vertex -0.162304 0.417932 0.048859
vertex -0.177022 0.403214 0.003861
vertex -0.179172 0.401064 0.006120
endloop
endfacet
facet normal -0.707111 0.707102 0.000000
outer loop
vertex -0.179172 0.401064 0.006120
vertex -0.181056 0.399180 0.008813
vertex -0.162304 0.417932 0.048859
endloop
endfacet
facet normal -0.707107 0.707106 0.000005
outer loop
vertex -0.162304 0.417932 0.048859
vertex -0.181056 0.399180 0.008813
vertex -0.182631 0.397605 0.011878
endloop
endfacet
facet normal -0.707107 0.707106 -0.000003
outer loop
vertex -0.162304 0.417932 0.048859
vertex -0.182631 0.397605 0.011878
vertex -0.183860 0.396376 0.015243
endloop
endfacet
facet normal -0.707102 0.707112 0.000000
outer loop
vertex -0.183860 0.396376 0.015243
vertex -0.184716 0.395520 0.018833
vertex -0.162304 0.417932 0.048859
endloop
endfacet
facet normal -0.707107 0.707107 0.000001
outer loop
vertex -0.162304 0.417932 0.048859
vertex -0.184716 0.395520 0.018833
vertex -0.185178 0.395058 0.022564
endloop
endfacet
facet normal -0.707108 0.707106 0.000010
outer loop
vertex -0.162304 0.417932 0.048859
vertex -0.185178 0.395058 0.022564
vertex -0.185236 0.395000 0.026352
endloop
endfacet
facet normal -0.707108 0.707106 -0.000017
outer loop
vertex -0.185236 0.395000 0.026352
vertex -0.184889 0.395347 0.030108
vertex -0.162304 0.417932 0.048859
endloop
endfacet
facet normal -0.707107 0.707107 0.000000
outer loop
vertex -0.162304 0.417932 0.048859
vertex -0.184889 0.395347 0.030108
vertex -0.164913 0.415323 0.049713
endloop
endfacet
facet normal -0.707108 0.707105 0.000001
outer loop
vertex -0.164913 0.415323 0.049713
vertex -0.184889 0.395347 0.030108
vertex -0.184145 0.396091 0.033747
endloop
endfacet
facet normal -0.707105 0.707108 0.000008
outer loop
vertex -0.164913 0.415323 0.049713
vertex -0.184145 0.396091 0.033747
vertex -0.183020 0.397216 0.037185
endloop
endfacet
facet normal -0.707109 0.707105 0.000000
outer loop
vertex -0.183020 0.397216 0.037185
vertex -0.181541 0.398695 0.040343
vertex -0.164913 0.415323 0.049713
endloop
endfacet
facet normal -0.707105 0.707108 -0.000025
outer loop
vertex -0.164913 0.415323 0.049713
vertex -0.181541 0.398695 0.040343
vertex -0.179742 0.400494 0.043149
endloop
endfacet
facet normal -0.707108 0.707106 0.000042
outer loop
vertex -0.164913 0.415323 0.049713
vertex -0.179742 0.400494 0.043149
vertex -0.177663 0.402573 0.045539
endloop
endfacet
facet normal -0.707104 0.707110 -0.000044
outer loop
vertex -0.177663 0.402573 0.045539
vertex -0.175353 0.404883 0.047456
vertex -0.164913 0.415323 0.049713
endloop
endfacet
facet normal -0.707109 0.707105 0.000055
outer loop
vertex -0.164913 0.415323 0.049713
vertex -0.175353 0.404883 0.047456
vertex -0.172865 0.407371 0.048859
endloop
endfacet
facet normal -0.707102 0.707111 -0.000072
outer loop
vertex -0.164913 0.415323 0.049713
vertex -0.172865 0.407371 0.048859
vertex -0.170255 0.409981 0.049713
endloop
endfacet
facet normal -0.707108 0.707105 0.000107
outer loop
vertex -0.170255 0.409981 0.049713
vertex -0.167584 0.412652 0.050000
vertex -0.164913 0.415323 0.049713
endloop
endfacet
facet normal 0.707107 -0.707107 0.000000
outer loop
vertex 0.160513 0.070412 0.000000
vertex 0.174655 0.084554 0.000000
vertex 0.160513 0.070412 0.002087
endloop
endfacet
facet normal 0.707107 -0.707107 0.000000
outer loop
vertex 0.160513 0.070412 0.002087
vertex 0.174655 0.084554 0.000000
vertex 0.174655 0.084554 0.002087
endloop
endfacet
facet normal 0.707108 -0.707106 0.000000
outer loop
vertex 0.160513 0.070412 0.002087
vertex 0.174655 0.084554 0.002087
vertex 0.177022 0.086921 0.003861
endloop
endfacet
facet normal 0.707108 -0.707106 0.000000
outer loop
vertex 0.177022 0.086921 0.003861
vertex 0.179172 0.089071 0.006120
vertex 0.160513 0.070412 0.002087
endloop
endfacet
facet normal 0.707108 -0.707106 0.000000
outer loop
vertex 0.160513 0.070412 0.002087
vertex 0.179172 0.089071 0.006120
vertex 0.181056 0.090955 0.008813
endloop
endfacet
facet normal 0.707105 -0.707108 -0.000000
outer loop
vertex 0.160513 0.070412 0.002087
vertex 0.181056 0.090955 0.008813
vertex 0.182631 0.092530 0.011878
endloop
endfacet
facet normal 0.707104 -0.707109 0.000000
outer loop
vertex 0.182631 0.092530 0.011878
vertex 0.183860 0.093759 0.015243
vertex 0.160513 0.070412 0.002087
endloop
endfacet
facet normal 0.707108 -0.707106 -0.000003
outer loop
vertex 0.160513 0.070412 0.002087
vertex 0.183860 0.093759 0.015243
vertex 0.184716 0.094615 0.018833
endloop
endfacet
facet normal 0.707105 -0.707108 -0.000000
outer loop
vertex 0.160513 0.070412 0.002087
vertex 0.184716 0.094615 0.018833
vertex 0.185178 0.095077 0.022564
endloop
endfacet
facet normal 0.707109 -0.707105 0.000004
outer loop
vertex 0.185178 0.095077 0.022564
vertex 0.185236 0.095135 0.026352
vertex 0.160513 0.070412 0.002087
endloop
endfacet
facet normal 0.707107 -0.707106 -0.000001
outer loop
vertex 0.160513 0.070412 0.002087
vertex 0.185236 0.095135 0.026352
vertex 0.184889 0.094788 0.030108
endloop
endfacet
facet normal 0.707104 -0.707109 0.000000
outer loop
vertex 0.160513 0.070412 0.002087
vertex 0.184889 0.094788 0.030108
vertex 0.184145 0.094044 0.033747
endloop
endfacet
facet normal 0.707112 -0.707102 0.000000
outer loop
vertex 0.184145 0.094044 0.033747
vertex 0.183020 0.092919 0.037185
vertex 0.160513 0.070412 0.002087
endloop
endfacet
facet normal 0.707107 -0.707107 -0.000001
outer loop
vertex 0.160513 0.070412 0.002087
vertex 0.183020 0.092919 0.037185
vertex 0.181541 0.091440 0.040343
endloop
endfacet
facet normal 0.707104 -0.707110 0.000000
outer loop
vertex 0.160513 0.070412 0.002087
vertex 0.181541 0.091440 0.040343
vertex 0.179742 0.089641 0.043149
endloop
endfacet
facet normal 0.707103 -0.707110 0.000000
outer loop
vertex 0.179742 0.089641 0.043149
vertex 0.177663 0.087562 0.045539
vertex 0.160513 0.070412 0.002087
endloop
endfacet
facet normal 0.707108 -0.707106 -0.000001
outer loop
vertex 0.160513 0.070412 0.002087
vertex 0.177663 0.087562 0.045539
vertex 0.175353 0.085252 0.047456
endloop
endfacet
facet normal 0.707110 -0.707104 0.000000
outer loop
vertex 0.160513 0.070412 0.002087
vertex 0.175353 0.085252 0.047456
vertex 0.172865 0.082764 0.048859
endloop
endfacet
facet normal 0.707107 -0.707106 0.000000
outer loop
vertex 0.170255 0.080154 0.049713
vertex 0.150280 0.060178 0.030108
vertex 0.172865 0.082764 0.048859
endloop
endfacet
facet normal 0.707106 -0.707108 0.000000
outer loop
vertex 0.172865 0.082764 0.048859
vertex 0.150280 0.060178 0.030108
vertex 0.149932 0.059831 0.026352
endloop
endfacet
facet normal 0.707107 -0.707107 -0.000001
outer loop
vertex 0.172865 0.082764 0.048859
vertex 0.149932 0.059831 0.026352
vertex 0.149991 0.059890 0.022564
endloop
endfacet
facet normal 0.707108 -0.707105 0.000000
outer loop
vertex 0.167584 0.077483 0.050000
vertex 0.164913 0.074812 0.049713
vertex 0.170255 0.080154 0.049713
endloop
endfacet
facet normal 0.707102 -0.707111 0.000005
outer loop
vertex 0.170255 0.080154 0.049713
vertex 0.164913 0.074812 0.049713
vertex 0.162304 0.072203 0.048859
endloop
endfacet
facet normal 0.707108 -0.707105 0.000000
outer loop
vertex 0.170255 0.080154 0.049713
vertex 0.162304 0.072203 0.048859
vertex 0.159815 0.069714 0.047456
endloop
endfacet
facet normal 0.707107 -0.707107 0.000000
outer loop
vertex 0.159815 0.069714 0.047456
vertex 0.157505 0.067404 0.045539
vertex 0.170255 0.080154 0.049713
endloop
endfacet
facet normal 0.707106 -0.707108 0.000002
outer loop
vertex 0.170255 0.080154 0.049713
vertex 0.157505 0.067404 0.045539
vertex 0.155427 0.065326 0.043149
endloop
endfacet
facet normal 0.707110 -0.707104 -0.000004
outer loop
vertex 0.170255 0.080154 0.049713
vertex 0.155427 0.065326 0.043149
vertex 0.153627 0.063526 0.040343
endloop
endfacet
facet normal 0.707109 -0.707105 0.000000
outer loop
vertex 0.153627 0.063526 0.040343
vertex 0.152148 0.062047 0.037185
vertex 0.170255 0.080154 0.049713
endloop
endfacet
facet normal 0.707105 -0.707108 0.000002
outer loop
vertex 0.170255 0.080154 0.049713
vertex 0.152148 0.062047 0.037185
vertex 0.151024 0.060923 0.033747
endloop
endfacet
facet normal 0.707107 -0.707106 -0.000001
outer loop
vertex 0.170255 0.080154 0.049713
vertex 0.151024 0.060923 0.033747
vertex 0.150280 0.060178 0.030108
endloop
endfacet
facet normal 0.707108 -0.707105 0.000000
outer loop
vertex 0.149991 0.059890 0.022564
vertex 0.150453 0.060352 0.018833
vertex 0.172865 0.082764 0.048859
endloop
endfacet
facet normal 0.707108 -0.707106 0.000000
outer loop
vertex 0.172865 0.082764 0.048859
vertex 0.150453 0.060352 0.018833
vertex 0.151308 0.061207 0.015243
endloop
endfacet
facet normal 0.707108 -0.707106 -0.000001
outer loop
vertex 0.172865 0.082764 0.048859
vertex 0.151308 0.061207 0.015243
vertex 0.152538 0.062437 0.011878
endloop
endfacet
facet normal 0.707105 -0.707108 0.000001
outer loop
vertex 0.152538 0.062437 0.011878
vertex 0.154112 0.064011 0.008813
vertex 0.172865 0.082764 0.048859
endloop
endfacet
facet normal 0.707107 -0.707107 -0.000000
outer loop
vertex 0.172865 0.082764 0.048859
vertex 0.154112 0.064011 0.008813
vertex 0.155996 0.065895 0.006120
endloop
endfacet
facet normal 0.707104 -0.707110 0.000000
outer loop
vertex 0.172865 0.082764 0.048859
vertex 0.155996 0.065895 0.006120
vertex 0.158146 0.068045 0.003861
endloop
endfacet
facet normal 0.707109 -0.707105 0.000000
outer loop
vertex 0.158146 0.068045 0.003861
vertex 0.160513 0.070412 0.002087
vertex 0.172865 0.082764 0.048859
endloop
endfacet
endsolid cylinder
