solid cylinder
facet normal 0.000000 0.000000 -1.000000
outer loop
vertex 0.210248 0.188279 0.000000
vertex 0.200248 0.170959 0.000000
vertex -0.200248 0.425279 0.000000
endloop
endfacet
facet normal 0.000000 0.000000 -1.000000
outer loop
vertex -0.200248 0.425279 0.000000
vertex 0.200248 0.170959 0.000000
vertex -0.210248 0.407959 0.000000
endloop
endfacet
facet normal 0.500000 0.866026 0.000000
outer loop
vertex 0.210248 0.188279 0.002087
vertex 0.210248 0.188279 0.000000
vertex -0.200248 0.425279 0.002087
endloop
endfacet
facet normal 0.500000 0.866025 0.000000
outer loop
vertex -0.200248 0.425279 0.002087
vertex 0.210248 0.188279 0.000000
vertex -0.200248 0.425279 0.000000
endloop
endfacet
facet normal -0.234236 -0.405494 -0.883577
outer loop
vertex 0.198574 0.168060 0.003861
vertex 0.130113 0.207481 0.003919
vertex 0.200248 0.170959 0.002087
endloop
endfacet
facet normal -0.235101 -0.407207 -0.882559
outer loop
vertex 0.200248 0.170959 0.002087
vertex 0.130113 0.207481 0.003919
vertex 0.061697 0.246981 0.003919
endloop
endfacet
facet normal -0.235101 -0.407207 -0.882559
outer loop
vertex 0.200248 0.170959 0.002087
vertex 0.061697 0.246981 0.003919
vertex -0.006719 0.286481 0.003919
endloop
endfacet
facet normal -0.300809 -0.521017 -0.798784
outer loop
vertex -0.006719 0.286481 0.003919
vertex 0.061697 0.246981 0.003919
vertex -0.008275 0.283786 0.006263
endloop
endfacet
facet normal -0.300809 -0.521017 -0.798784
outer loop
vertex -0.006719 0.286481 0.003919
vertex -0.008275 0.283786 0.006263
vertex -0.076691 0.323286 0.006263
endloop
endfacet
facet normal -0.359212 -0.622173 -0.695606
outer loop
vertex -0.076691 0.323286 0.006263
vertex -0.008275 0.283786 0.006263
vertex -0.078047 0.320938 0.009062
endloop
endfacet
facet normal -0.359209 -0.622168 -0.695612
outer loop
vertex -0.076691 0.323286 0.006263
vertex -0.078047 0.320938 0.009062
vertex -0.146463 0.360438 0.009062
endloop
endfacet
facet normal -0.408887 -0.708213 -0.575539
outer loop
vertex -0.146463 0.360438 0.009062
vertex -0.078047 0.320938 0.009062
vertex -0.147584 0.358496 0.012248
endloop
endfacet
facet normal -0.408552 -0.708393 -0.575556
outer loop
vertex -0.146463 0.360438 0.009062
vertex -0.147584 0.358496 0.012248
vertex -0.215888 0.398191 0.011878
endloop
endfacet
facet normal -0.444564 -0.769272 -0.458893
outer loop
vertex -0.215888 0.398191 0.011878
vertex -0.147584 0.358496 0.012248
vertex -0.216757 0.396685 0.015243
endloop
endfacet
facet normal -0.448234 -0.777286 -0.441489
outer loop
vertex -0.216757 0.396685 0.015243
vertex -0.147584 0.358496 0.012248
vertex -0.148444 0.357007 0.015744
endloop
endfacet
facet normal -0.474198 -0.820445 -0.319385
outer loop
vertex -0.216757 0.396685 0.015243
vertex -0.148444 0.357007 0.015744
vertex -0.217362 0.395637 0.018833
endloop
endfacet
facet normal -0.477019 -0.827291 -0.296721
outer loop
vertex -0.217362 0.395637 0.018833
vertex -0.148444 0.357007 0.015744
vertex -0.149022 0.356006 0.019465
endloop
endfacet
facet normal -0.492948 -0.852778 -0.172545
outer loop
vertex -0.217362 0.395637 0.018833
vertex -0.149022 0.356006 0.019465
vertex -0.217689 0.395071 0.022564
endloop
endfacet
facet normal -0.494212 -0.857207 -0.144746
outer loop
vertex -0.217689 0.395071 0.022564
vertex -0.149022 0.356006 0.019465
vertex -0.149304 0.355517 0.023320
endloop
endfacet
facet normal -0.500385 -0.865530 -0.021747
outer loop
vertex -0.217689 0.395071 0.022564
vertex -0.149304 0.355517 0.023320
vertex -0.217730 0.395000 0.026352
endloop
endfacet
facet normal -0.499395 -0.866308 0.010759
outer loop
vertex -0.217730 0.395000 0.026352
vertex -0.149304 0.355517 0.023320
vertex -0.149283 0.355554 0.027216
endloop
endfacet
facet normal -0.496341 -0.858405 0.129561
outer loop
vertex -0.217730 0.395000 0.026352
vertex -0.149283 0.355554 0.027216
vertex -0.217484 0.395425 0.030108
endloop
endfacet
facet normal -0.492440 -0.854374 0.165974
outer loop
vertex -0.217484 0.395425 0.030108
vertex -0.149283 0.355554 0.027216
vertex -0.148959 0.356114 0.031058
endloop
endfacet
facet normal -0.480908 -0.831566 0.277893
outer loop
vertex -0.217484 0.395425 0.030108
vertex -0.148959 0.356114 0.031058
vertex -0.216958 0.396337 0.033747
endloop
endfacet
facet normal -0.473513 -0.821693 0.317184
outer loop
vertex -0.216958 0.396337 0.033747
vertex -0.148959 0.356114 0.031058
vertex -0.148342 0.357184 0.034753
endloop
endfacet
facet normal -0.454444 -0.785636 0.419830
outer loop
vertex -0.216958 0.396337 0.033747
vertex -0.148342 0.357184 0.034753
vertex -0.216163 0.397714 0.037185
endloop
endfacet
facet normal -0.443070 -0.769056 0.460697
outer loop
vertex -0.216163 0.397714 0.037185
vertex -0.148342 0.357184 0.034753
vertex -0.147444 0.358738 0.038211
endloop
endfacet
facet normal -0.417554 -0.721656 0.552142
outer loop
vertex -0.216163 0.397714 0.037185
vertex -0.147444 0.358738 0.038211
vertex -0.215117 0.399525 0.040343
endloop
endfacet
facet normal -0.401866 -0.697764 0.592983
outer loop
vertex -0.215117 0.399525 0.040343
vertex -0.147444 0.358738 0.038211
vertex -0.146289 0.360739 0.041348
endloop
endfacet
facet normal -0.371088 -0.641105 0.671772
outer loop
vertex -0.215117 0.399525 0.040343
vertex -0.146289 0.360739 0.041348
vertex -0.213845 0.401729 0.043149
endloop
endfacet
facet normal -0.350877 -0.609513 0.710900
outer loop
vertex -0.213845 0.401729 0.043149
vertex -0.146289 0.360739 0.041348
vertex -0.144904 0.363138 0.044088
endloop
endfacet
facet normal -0.316108 -0.545817 0.775990
outer loop
vertex -0.213845 0.401729 0.043149
vertex -0.144904 0.363138 0.044088
vertex -0.212375 0.404275 0.045539
endloop
endfacet
facet normal -0.291360 -0.506480 0.811534
outer loop
vertex -0.212375 0.404275 0.045539
vertex -0.144904 0.363138 0.044088
vertex -0.143323 0.365876 0.046365
endloop
endfacet
facet normal -0.253883 -0.437993 0.862383
outer loop
vertex -0.212375 0.404275 0.045539
vertex -0.143323 0.365876 0.046365
vertex -0.210741 0.407104 0.047456
endloop
endfacet
facet normal -0.224748 -0.391147 0.892464
outer loop
vertex -0.210741 0.407104 0.047456
vertex -0.143323 0.365876 0.046365
vertex -0.141585 0.368887 0.048123
endloop
endfacet
facet normal -0.185848 -0.320118 0.928970
outer loop
vertex -0.210741 0.407104 0.047456
vertex -0.141585 0.368887 0.048123
vertex -0.208982 0.410152 0.048859
endloop
endfacet
facet normal -0.152663 -0.266321 0.951718
outer loop
vertex -0.208982 0.410152 0.048859
vertex -0.141585 0.368887 0.048123
vertex -0.139730 0.372099 0.049319
endloop
endfacet
facet normal -0.113555 -0.194878 0.974232
outer loop
vertex -0.208982 0.410152 0.048859
vertex -0.139730 0.372099 0.049319
vertex -0.207137 0.413348 0.049713
endloop
endfacet
facet normal -0.076856 -0.135036 0.987855
outer loop
vertex -0.207137 0.413348 0.049713
vertex -0.139730 0.372099 0.049319
vertex -0.137806 0.375432 0.049924
endloop
endfacet
facet normal -0.038669 -0.065159 0.997125
outer loop
vertex -0.207137 0.413348 0.049713
vertex -0.137806 0.375432 0.049924
vertex -0.205248 0.416619 0.050000
endloop
endfacet
facet normal 0.000834 -0.000481 1.000000
outer loop
vertex -0.205248 0.416619 0.050000
vertex -0.137806 0.375432 0.049924
vertex -0.135858 0.378806 0.049924
endloop
endfacet
facet normal 0.037094 0.066068 0.997125
outer loop
vertex -0.205248 0.416619 0.050000
vertex -0.135858 0.378806 0.049924
vertex -0.203359 0.419890 0.049713
endloop
endfacet
facet normal 0.078517 0.134076 0.987856
outer loop
vertex -0.203359 0.419890 0.049713
vertex -0.135858 0.378806 0.049924
vertex -0.133934 0.382139 0.049319
endloop
endfacet
facet normal 0.111993 0.195784 0.974231
outer loop
vertex -0.203359 0.419890 0.049713
vertex -0.133934 0.382139 0.049319
vertex -0.201514 0.423086 0.048859
endloop
endfacet
facet normal 0.154308 0.265369 0.951719
outer loop
vertex -0.201514 0.423086 0.048859
vertex -0.133934 0.382139 0.049319
vertex -0.132080 0.385351 0.048123
endloop
endfacet
facet normal 0.184304 0.321004 0.928972
outer loop
vertex -0.201514 0.423086 0.048859
vertex -0.132080 0.385351 0.048123
vertex -0.199755 0.426134 0.047456
endloop
endfacet
facet normal 0.226370 0.390214 0.892463
outer loop
vertex -0.199755 0.426134 0.047456
vertex -0.132080 0.385351 0.048123
vertex -0.130341 0.388362 0.046365
endloop
endfacet
facet normal 0.252375 0.438871 0.862380
outer loop
vertex -0.199755 0.426134 0.047456
vertex -0.130341 0.388362 0.046365
vertex -0.198121 0.428963 0.045539
endloop
endfacet
facet normal 0.292942 0.505561 0.811537
outer loop
vertex -0.198121 0.428963 0.045539
vertex -0.130341 0.388362 0.046365
vertex -0.128760 0.391100 0.044088
endloop
endfacet
facet normal 0.314643 0.546676 0.775980
outer loop
vertex -0.198121 0.428963 0.045539
vertex -0.128760 0.391100 0.044088
vertex -0.196651 0.431509 0.043149
endloop
endfacet
facet normal 0.352414 0.608622 0.710903
outer loop
vertex -0.196651 0.431509 0.043149
vertex -0.128760 0.391100 0.044088
vertex -0.127375 0.393499 0.041348
endloop
endfacet
facet normal 0.369666 0.641919 0.671779
outer loop
vertex -0.196651 0.431509 0.043149
vertex -0.127375 0.393499 0.041348
vertex -0.195379 0.433713 0.040343
endloop
endfacet
facet normal 0.403348 0.696909 0.592983
outer loop
vertex -0.195379 0.433713 0.040343
vertex -0.127375 0.393499 0.041348
vertex -0.126220 0.395500 0.038211
endloop
endfacet
facet normal 0.416196 0.722440 0.552142
outer loop
vertex -0.195379 0.433713 0.040343
vertex -0.126220 0.395500 0.038211
vertex -0.194333 0.435524 0.037185
endloop
endfacet
facet normal 0.444486 0.768240 0.460695
outer loop
vertex -0.194333 0.435524 0.037185
vertex -0.126220 0.395500 0.038211
vertex -0.125322 0.397054 0.034753
endloop
endfacet
facet normal 0.453159 0.786378 0.419830
outer loop
vertex -0.194333 0.435524 0.037185
vertex -0.125322 0.397054 0.034753
vertex -0.193538 0.436901 0.033747
endloop
endfacet
facet normal 0.474849 0.820920 0.317190
outer loop
vertex -0.193538 0.436901 0.033747
vertex -0.125322 0.397054 0.034753
vertex -0.124705 0.398124 0.031058
endloop
endfacet
facet normal 0.479704 0.832262 0.277893
outer loop
vertex -0.193538 0.436901 0.033747
vertex -0.124705 0.398124 0.031058
vertex -0.193012 0.437813 0.030108
endloop
endfacet
facet normal 0.493689 0.853651 0.165982
outer loop
vertex -0.193012 0.437813 0.030108
vertex -0.124705 0.398124 0.031058
vertex -0.124381 0.398684 0.027216
endloop
endfacet
facet normal 0.495230 0.859047 0.129561
outer loop
vertex -0.193012 0.437813 0.030108
vertex -0.124381 0.398684 0.027216
vertex -0.192766 0.438238 0.026352
endloop
endfacet
facet normal 0.500547 0.865642 0.010760
outer loop
vertex -0.192766 0.438238 0.026352
vertex -0.124381 0.398684 0.027216
vertex -0.124360 0.398721 0.023320
endloop
endfacet
facet normal 0.499378 0.866111 -0.021759
outer loop
vertex -0.192766 0.438238 0.026352
vertex -0.124360 0.398721 0.023320
vertex -0.192808 0.438167 0.022564
endloop
endfacet
facet normal 0.495257 0.856605 -0.144737
outer loop
vertex -0.192808 0.438167 0.022564
vertex -0.124360 0.398721 0.023320
vertex -0.124642 0.398232 0.019465
endloop
endfacet
facet normal 0.492053 0.853293 -0.172557
outer loop
vertex -0.192808 0.438167 0.022564
vertex -0.124642 0.398232 0.019465
vertex -0.193134 0.437601 0.018833
endloop
endfacet
facet normal 0.477946 0.826757 -0.296717
outer loop
vertex -0.193134 0.437601 0.018833
vertex -0.124642 0.398232 0.019465
vertex -0.125220 0.397231 0.015744
endloop
endfacet
facet normal 0.473423 0.820884 -0.319407
outer loop
vertex -0.193134 0.437601 0.018833
vertex -0.125220 0.397231 0.015744
vertex -0.193739 0.436553 0.015243
endloop
endfacet
facet normal 0.449033 0.776827 -0.441485
outer loop
vertex -0.193739 0.436553 0.015243
vertex -0.125220 0.397231 0.015744
vertex -0.126080 0.395741 0.012248
endloop
endfacet
facet normal 0.443924 0.769636 -0.458903
outer loop
vertex -0.193739 0.436553 0.015243
vertex -0.126080 0.395741 0.012248
vertex -0.194608 0.435047 0.011878
endloop
endfacet
facet normal 0.409215 0.708021 -0.575543
outer loop
vertex -0.194608 0.435047 0.011878
vertex -0.126080 0.395741 0.012248
vertex -0.127202 0.393799 0.009062
endloop
endfacet
facet normal 0.404228 0.700713 -0.587879
outer loop
vertex -0.194608 0.435047 0.011878
vertex -0.127202 0.393799 0.009062
vertex -0.195722 0.433119 0.008813
endloop
endfacet
facet normal 0.359463 0.622021 -0.695612
outer loop
vertex -0.195722 0.433119 0.008813
vertex -0.127202 0.393799 0.009062
vertex -0.128557 0.391452 0.006263
endloop
endfacet
facet normal 0.355255 0.615712 -0.703344
outer loop
vertex -0.195722 0.433119 0.008813
vertex -0.128557 0.391452 0.006263
vertex -0.197054 0.430811 0.006120
endloop
endfacet
facet normal 0.300981 0.520911 -0.798788
outer loop
vertex -0.197054 0.430811 0.006120
vertex -0.128557 0.391452 0.006263
vertex -0.130113 0.388757 0.003919
endloop
endfacet
facet normal 0.298119 0.516560 -0.802677
outer loop
vertex -0.197054 0.430811 0.006120
vertex -0.130113 0.388757 0.003919
vertex -0.198574 0.428178 0.003861
endloop
endfacet
facet normal 0.234237 0.405497 -0.883575
outer loop
vertex -0.198574 0.428178 0.003861
vertex -0.130113 0.388757 0.003919
vertex -0.200248 0.425279 0.002087
endloop
endfacet
facet normal 0.235098 0.407202 -0.882562
outer loop
vertex -0.200248 0.425279 0.002087
vertex -0.130113 0.388757 0.003919
vertex -0.061697 0.349257 0.003919
endloop
endfacet
facet normal 0.235101 0.407206 -0.882559
outer loop
vertex -0.200248 0.425279 0.002087
vertex -0.061697 0.349257 0.003919
vertex 0.006719 0.309757 0.003919
endloop
endfacet
facet normal 0.300803 0.521007 -0.798792
outer loop
vertex 0.006719 0.309757 0.003919
vertex -0.061697 0.349257 0.003919
vertex 0.008275 0.312452 0.006263
endloop
endfacet
facet normal 0.300809 0.521017 -0.798783
outer loop
vertex 0.006719 0.309757 0.003919
vertex 0.008275 0.312452 0.006263
vertex 0.076691 0.272952 0.006263
endloop
endfacet
facet normal 0.359212 0.622173 -0.695606
outer loop
vertex 0.076691 0.272952 0.006263
vertex 0.008275 0.312452 0.006263
vertex 0.078047 0.275299 0.009062
endloop
endfacet
facet normal 0.359209 0.622168 -0.695612
outer loop
vertex 0.076691 0.272952 0.006263
vertex 0.078047 0.275299 0.009062
vertex 0.146463 0.235799 0.009062
endloop
endfacet
facet normal 0.408887 0.708213 -0.575539
outer loop
vertex 0.146463 0.235799 0.009062
vertex 0.078047 0.275299 0.009062
vertex 0.147584 0.237741 0.012248
endloop
endfacet
facet normal 0.408559 0.708405 -0.575535
outer loop
vertex 0.146463 0.235799 0.009062
vertex 0.147584 0.237741 0.012248
vertex 0.215888 0.198047 0.011878
endloop
endfacet
facet normal 0.444562 0.769268 -0.458903
outer loop
vertex 0.215888 0.198047 0.011878
vertex 0.147584 0.237741 0.012248
vertex 0.216757 0.199553 0.015243
endloop
endfacet
facet normal 0.448234 0.777284 -0.441492
outer loop
vertex 0.216757 0.199553 0.015243
vertex 0.147584 0.237741 0.012248
vertex 0.148444 0.239231 0.015744
endloop
endfacet
facet normal 0.474196 0.820440 -0.319402
outer loop
vertex 0.216757 0.199553 0.015243
vertex 0.148444 0.239231 0.015744
vertex 0.217362 0.200601 0.018833
endloop
endfacet
facet normal 0.477020 0.827293 -0.296714
outer loop
vertex 0.217362 0.200601 0.018833
vertex 0.148444 0.239231 0.015744
vertex 0.149022 0.240232 0.019465
endloop
endfacet
facet normal 0.492948 0.852777 -0.172551
outer loop
vertex 0.217362 0.200601 0.018833
vertex 0.149022 0.240232 0.019465
vertex 0.217689 0.201167 0.022564
endloop
endfacet
facet normal 0.494212 0.857207 -0.144745
outer loop
vertex 0.217689 0.201167 0.022564
vertex 0.149022 0.240232 0.019465
vertex 0.149304 0.240721 0.023320
endloop
endfacet
facet normal 0.500386 0.865529 -0.021747
outer loop
vertex 0.217689 0.201167 0.022564
vertex 0.149304 0.240721 0.023320
vertex 0.217730 0.201238 0.026352
endloop
endfacet
facet normal 0.499395 0.866308 0.010759
outer loop
vertex 0.217730 0.201238 0.026352
vertex 0.149304 0.240721 0.023320
vertex 0.149283 0.240684 0.027216
endloop
endfacet
facet normal 0.496341 0.858406 0.129555
outer loop
vertex 0.217730 0.201238 0.026352
vertex 0.149283 0.240684 0.027216
vertex 0.217484 0.200813 0.030108
endloop
endfacet
facet normal 0.492439 0.854373 0.165984
outer loop
vertex 0.217484 0.200813 0.030108
vertex 0.149283 0.240684 0.027216
vertex 0.148959 0.240124 0.031058
endloop
endfacet
facet normal 0.480909 0.831568 0.277887
outer loop
vertex 0.217484 0.200813 0.030108
vertex 0.148959 0.240124 0.031058
vertex 0.216958 0.199901 0.033747
endloop
endfacet
facet normal 0.473512 0.821692 0.317190
outer loop
vertex 0.216958 0.199901 0.033747
vertex 0.148959 0.240124 0.031058
vertex 0.148342 0.239054 0.034753
endloop
endfacet
facet normal 0.454443 0.785634 0.419835
outer loop
vertex 0.216958 0.199901 0.033747
vertex 0.148342 0.239054 0.034753
vertex 0.216163 0.198524 0.037185
endloop
endfacet
facet normal 0.443074 0.769062 0.460682
outer loop
vertex 0.216163 0.198524 0.037185
vertex 0.148342 0.239054 0.034753
vertex 0.147444 0.237500 0.038211
endloop
endfacet
facet normal 0.417554 0.721656 0.552142
outer loop
vertex 0.216163 0.198524 0.037185
vertex 0.147444 0.237500 0.038211
vertex 0.215117 0.196713 0.040343
endloop
endfacet
facet normal 0.401863 0.697758 0.592993
outer loop
vertex 0.215117 0.196713 0.040343
vertex 0.147444 0.237500 0.038211
vertex 0.146289 0.235499 0.041348
endloop
endfacet
facet normal 0.371085 0.641099 0.671779
outer loop
vertex 0.215117 0.196713 0.040343
vertex 0.146289 0.235499 0.041348
vertex 0.213845 0.194509 0.043149
endloop
endfacet
facet normal 0.350878 0.609514 0.710899
outer loop
vertex 0.213845 0.194509 0.043149
vertex 0.146289 0.235499 0.041348
vertex 0.144904 0.233100 0.044088
endloop
endfacet
facet normal 0.316111 0.545822 0.775985
outer loop
vertex 0.213845 0.194509 0.043149
vertex 0.144904 0.233100 0.044088
vertex 0.212375 0.191963 0.045539
endloop
endfacet
facet normal 0.291357 0.506476 0.811538
outer loop
vertex 0.212375 0.191963 0.045539
vertex 0.144904 0.233100 0.044088
vertex 0.143323 0.230362 0.046365
endloop
endfacet
facet normal 0.253888 0.438000 0.862379
outer loop
vertex 0.212375 0.191963 0.045539
vertex 0.143323 0.230362 0.046365
vertex 0.210741 0.189134 0.047456
endloop
endfacet
facet normal 0.224747 0.391145 0.892465
outer loop
vertex 0.210741 0.189134 0.047456
vertex 0.143323 0.230362 0.046365
vertex 0.141585 0.227351 0.048123
endloop
endfacet
facet normal 0.185850 0.320117 0.928970
outer loop
vertex 0.210741 0.189134 0.047456
vertex 0.141585 0.227351 0.048123
vertex 0.208982 0.186086 0.048859
endloop
endfacet
facet normal 0.152662 0.266319 0.951719
outer loop
vertex 0.208982 0.186086 0.048859
vertex 0.141585 0.227351 0.048123
vertex 0.139730 0.224139 0.049319
endloop
endfacet
facet normal 0.113557 0.194881 0.974231
outer loop
vertex 0.208982 0.186086 0.048859
vertex 0.139730 0.224139 0.049319
vertex 0.207137 0.182890 0.049713
endloop
endfacet
facet normal 0.076855 0.135035 0.987856
outer loop
vertex 0.207137 0.182890 0.049713
vertex 0.139730 0.224139 0.049319
vertex 0.137806 0.220806 0.049924
endloop
endfacet
facet normal 0.038669 0.065159 0.997125
outer loop
vertex 0.207137 0.182890 0.049713
vertex 0.137806 0.220806 0.049924
vertex 0.205248 0.179619 0.050000
endloop
endfacet
facet normal -0.000834 0.000481 1.000000
outer loop
vertex 0.205248 0.179619 0.050000
vertex 0.137806 0.220806 0.049924
vertex 0.135858 0.217432 0.049924
endloop
endfacet
facet normal -0.037094 -0.066068 0.997125
outer loop
vertex 0.205248 0.179619 0.050000
vertex 0.135858 0.217432 0.049924
vertex 0.203359 0.176348 0.049713
endloop
endfacet
facet normal -0.078516 -0.134075 0.987856
outer loop
vertex 0.203359 0.176348 0.049713
vertex 0.135858 0.217432 0.049924
vertex 0.133934 0.214099 0.049319
endloop
endfacet
facet normal -0.111994 -0.195782 0.974231
outer loop
vertex 0.203359 0.176348 0.049713
vertex 0.133934 0.214099 0.049319
vertex 0.201514 0.173152 0.048859
endloop
endfacet
facet normal -0.154308 -0.265371 0.951718
outer loop
vertex 0.201514 0.173152 0.048859
vertex 0.133934 0.214099 0.049319
vertex 0.132080 0.210887 0.048123
endloop
endfacet
facet normal -0.184306 -0.321009 0.928970
outer loop
vertex 0.201514 0.173152 0.048859
vertex 0.132080 0.210887 0.048123
vertex 0.199755 0.170104 0.047456
endloop
endfacet
facet normal -0.226367 -0.390209 0.892465
outer loop
vertex 0.199755 0.170104 0.047456
vertex 0.132080 0.210887 0.048123
vertex 0.130341 0.207876 0.046365
endloop
endfacet
facet normal -0.252376 -0.438873 0.862378
outer loop
vertex 0.199755 0.170104 0.047456
vertex 0.130341 0.207876 0.046365
vertex 0.198121 0.167275 0.045539
endloop
endfacet
facet normal -0.292940 -0.505559 0.811539
outer loop
vertex 0.198121 0.167275 0.045539
vertex 0.130341 0.207876 0.046365
vertex 0.128760 0.205138 0.044088
endloop
endfacet
facet normal -0.314640 -0.546671 0.775985
outer loop
vertex 0.198121 0.167275 0.045539
vertex 0.128760 0.205138 0.044088
vertex 0.196651 0.164729 0.043149
endloop
endfacet
facet normal -0.352416 -0.608626 0.710899
outer loop
vertex 0.196651 0.164729 0.043149
vertex 0.128760 0.205138 0.044088
vertex 0.127375 0.202739 0.041348
endloop
endfacet
facet normal -0.369667 -0.641921 0.671776
outer loop
vertex 0.196651 0.164729 0.043149
vertex 0.127375 0.202739 0.041348
vertex 0.195379 0.162525 0.040343
endloop
endfacet
facet normal -0.403344 -0.696902 0.592993
outer loop
vertex 0.195379 0.162525 0.040343
vertex 0.127375 0.202739 0.041348
vertex 0.126220 0.200738 0.038211
endloop
endfacet
facet normal -0.416195 -0.722438 0.552146
outer loop
vertex 0.195379 0.162525 0.040343
vertex 0.126220 0.200738 0.038211
vertex 0.194333 0.160714 0.037185
endloop
endfacet
facet normal -0.444489 -0.768246 0.460681
outer loop
vertex 0.194333 0.160714 0.037185
vertex 0.126220 0.200738 0.038211
vertex 0.125322 0.199184 0.034753
endloop
endfacet
facet normal -0.453159 -0.786378 0.419830
outer loop
vertex 0.194333 0.160714 0.037185
vertex 0.125322 0.199184 0.034753
vertex 0.193538 0.159337 0.033747
endloop
endfacet
facet normal -0.474849 -0.820919 0.317191
outer loop
vertex 0.193538 0.159337 0.033747
vertex 0.125322 0.199184 0.034753
vertex 0.124705 0.198114 0.031058
endloop
endfacet
facet normal -0.479704 -0.832262 0.277893
outer loop
vertex 0.193538 0.159337 0.033747
vertex 0.124705 0.198114 0.031058
vertex 0.193012 0.158425 0.030108
endloop
endfacet
facet normal -0.493690 -0.853652 0.165981
outer loop
vertex 0.193012 0.158425 0.030108
vertex 0.124705 0.198114 0.031058
vertex 0.124381 0.197554 0.027216
endloop
endfacet
facet normal -0.495230 -0.859047 0.129561
outer loop
vertex 0.193012 0.158425 0.030108
vertex 0.124381 0.197554 0.027216
vertex 0.192766 0.158000 0.026352
endloop
endfacet
facet normal -0.500547 -0.865643 0.010755
outer loop
vertex 0.192766 0.158000 0.026352
vertex 0.124381 0.197554 0.027216
vertex 0.124360 0.197517 0.023320
endloop
endfacet
facet normal -0.499378 -0.866111 -0.021747
outer loop
vertex 0.192766 0.158000 0.026352
vertex 0.124360 0.197517 0.023320
vertex 0.192808 0.158071 0.022564
endloop
endfacet
facet normal -0.495256 -0.856603 -0.144749
outer loop
vertex 0.192808 0.158071 0.022564
vertex 0.124360 0.197517 0.023320
vertex 0.124642 0.198006 0.019465
endloop
endfacet
facet normal -0.492053 -0.853295 -0.172545
outer loop
vertex 0.192808 0.158071 0.022564
vertex 0.124642 0.198006 0.019465
vertex 0.193134 0.158637 0.018833
endloop
endfacet
facet normal -0.477945 -0.826756 -0.296720
outer loop
vertex 0.193134 0.158637 0.018833
vertex 0.124642 0.198006 0.019465
vertex 0.125220 0.199007 0.015744
endloop
endfacet
facet normal -0.473424 -0.820885 -0.319402
outer loop
vertex 0.193134 0.158637 0.018833
vertex 0.125220 0.199007 0.015744
vertex 0.193739 0.159685 0.015243
endloop
endfacet
facet normal -0.449032 -0.776826 -0.441488
outer loop
vertex 0.193739 0.159685 0.015243
vertex 0.125220 0.199007 0.015744
vertex 0.126080 0.200497 0.012248
endloop
endfacet
facet normal -0.443924 -0.769636 -0.458903
outer loop
vertex 0.193739 0.159685 0.015243
vertex 0.126080 0.200497 0.012248
vertex 0.194608 0.161191 0.011878
endloop
endfacet
facet normal -0.409217 -0.708025 -0.575536
outer loop
vertex 0.194608 0.161191 0.011878
vertex 0.126080 0.200497 0.012248
vertex 0.127202 0.202438 0.009062
endloop
endfacet
facet normal -0.404229 -0.700716 -0.587874
outer loop
vertex 0.194608 0.161191 0.011878
vertex 0.127202 0.202438 0.009062
vertex 0.195722 0.163119 0.008813
endloop
endfacet
facet normal -0.359464 -0.622023 -0.695610
outer loop
vertex 0.195722 0.163119 0.008813
vertex 0.127202 0.202438 0.009062
vertex 0.128557 0.204786 0.006263
endloop
endfacet
facet normal -0.355250 -0.615704 -0.703354
outer loop
vertex 0.195722 0.163119 0.008813
vertex 0.128557 0.204786 0.006263
vertex 0.197054 0.165427 0.006120
endloop
endfacet
facet normal -0.300982 -0.520913 -0.798786
outer loop
vertex 0.197054 0.165427 0.006120
vertex 0.128557 0.204786 0.006263
vertex 0.130113 0.207481 0.003919
endloop
endfacet
facet normal -0.298120 -0.516560 -0.802677
outer loop
vertex 0.197054 0.165427 0.006120
vertex 0.130113 0.207481 0.003919
vertex 0.198574 0.168060 0.003861
endloop
endfacet
facet normal 0.404721 0.700428 -0.587879
outer loop
vertex 0.215888 0.198047 0.011878
vertex 0.214774 0.196119 0.008813
vertex 0.146463 0.235799 0.009062
endloop
endfacet
facet normal 0.358956 0.622317 -0.695609
outer loop
vertex 0.146463 0.235799 0.009062
vertex 0.214774 0.196119 0.008813
vertex 0.145107 0.233452 0.006263
endloop
endfacet
facet normal 0.359209 0.622168 -0.695612
outer loop
vertex 0.146463 0.235799 0.009062
vertex 0.145107 0.233452 0.006263
vertex 0.076691 0.272952 0.006263
endloop
endfacet
facet normal 0.300812 0.521022 -0.798779
outer loop
vertex 0.076691 0.272952 0.006263
vertex 0.145107 0.233452 0.006263
vertex 0.075135 0.270257 0.003919
endloop
endfacet
facet normal 0.300806 0.521012 -0.798788
outer loop
vertex 0.076691 0.272952 0.006263
vertex 0.075135 0.270257 0.003919
vertex 0.006719 0.309757 0.003919
endloop
endfacet
facet normal 0.235101 0.407207 -0.882559
outer loop
vertex 0.006719 0.309757 0.003919
vertex 0.075135 0.270257 0.003919
vertex -0.200248 0.425279 0.002087
endloop
endfacet
facet normal 0.355590 0.615508 -0.703354
outer loop
vertex 0.214774 0.196119 0.008813
vertex 0.213442 0.193811 0.006120
vertex 0.145107 0.233452 0.006263
endloop
endfacet
facet normal 0.300633 0.521116 -0.798786
outer loop
vertex 0.145107 0.233452 0.006263
vertex 0.213442 0.193811 0.006120
vertex 0.143551 0.230757 0.003919
endloop
endfacet
facet normal 0.300806 0.521012 -0.798788
outer loop
vertex 0.145107 0.233452 0.006263
vertex 0.143551 0.230757 0.003919
vertex 0.075135 0.270257 0.003919
endloop
endfacet
facet normal 0.235091 0.407189 -0.882570
outer loop
vertex 0.075135 0.270257 0.003919
vertex 0.143551 0.230757 0.003919
vertex -0.200248 0.425279 0.002087
endloop
endfacet
facet normal 0.298294 0.516459 -0.802677
outer loop
vertex 0.213442 0.193811 0.006120
vertex 0.211922 0.191178 0.003861
vertex 0.143551 0.230757 0.003919
endloop
endfacet
facet normal 0.239084 0.414288 -0.878183
outer loop
vertex 0.143551 0.230757 0.003919
vertex 0.211922 0.191178 0.003861
vertex -0.200248 0.425279 0.002087
endloop
endfacet
facet normal 0.234148 0.405556 -0.883572
outer loop
vertex 0.211922 0.191178 0.003861
vertex 0.210248 0.188279 0.002087
vertex -0.200248 0.425279 0.002087
endloop
endfacet
facet normal -0.404721 -0.700428 -0.587878
outer loop
vertex -0.215888 0.398191 0.011878
vertex -0.214774 0.400119 0.008813
vertex -0.146463 0.360438 0.009062
endloop
endfacet
facet normal -0.358957 -0.622320 -0.695606
outer loop
vertex -0.146463 0.360438 0.009062
vertex -0.214774 0.400119 0.008813
vertex -0.145107 0.362786 0.006263
endloop
endfacet
facet normal -0.359209 -0.622168 -0.695612
outer loop
vertex -0.146463 0.360438 0.009062
vertex -0.145107 0.362786 0.006263
vertex -0.076691 0.323286 0.006263
endloop
endfacet
facet normal -0.300809 -0.521017 -0.798784
outer loop
vertex -0.076691 0.323286 0.006263
vertex -0.145107 0.362786 0.006263
vertex -0.075135 0.325981 0.003919
endloop
endfacet
facet normal -0.300806 -0.521012 -0.798788
outer loop
vertex -0.076691 0.323286 0.006263
vertex -0.075135 0.325981 0.003919
vertex -0.006719 0.286481 0.003919
endloop
endfacet
facet normal -0.235091 -0.407189 -0.882569
outer loop
vertex -0.006719 0.286481 0.003919
vertex -0.075135 0.325981 0.003919
vertex 0.200248 0.170959 0.002087
endloop
endfacet
facet normal -0.355591 -0.615510 -0.703350
outer loop
vertex -0.214774 0.400119 0.008813
vertex -0.213442 0.402427 0.006120
vertex -0.145107 0.362786 0.006263
endloop
endfacet
facet normal -0.300632 -0.521113 -0.798788
outer loop
vertex -0.145107 0.362786 0.006263
vertex -0.213442 0.402427 0.006120
vertex -0.143551 0.365481 0.003919
endloop
endfacet
facet normal -0.300806 -0.521012 -0.798788
outer loop
vertex -0.145107 0.362786 0.006263
vertex -0.143551 0.365481 0.003919
vertex -0.075135 0.325981 0.003919
endloop
endfacet
facet normal -0.235111 -0.407224 -0.882548
outer loop
vertex -0.075135 0.325981 0.003919
vertex -0.143551 0.365481 0.003919
vertex 0.200248 0.170959 0.002087
endloop
endfacet
facet normal -0.298295 -0.516459 -0.802677
outer loop
vertex -0.213442 0.402427 0.006120
vertex -0.211922 0.405060 0.003861
vertex -0.143551 0.365481 0.003919
endloop
endfacet
facet normal -0.239085 -0.414289 -0.878182
outer loop
vertex -0.143551 0.365481 0.003919
vertex -0.211922 0.405060 0.003861
vertex 0.200248 0.170959 0.002087
endloop
endfacet
facet normal -0.234144 -0.405550 -0.883576
outer loop
vertex -0.211922 0.405060 0.003861
vertex -0.210248 0.407959 0.002087
vertex 0.200248 0.170959 0.002087
endloop
endfacet
facet normal -0.300809 -0.521017 -0.798784
outer loop
vertex 0.061697 0.246981 0.003919
vertex 0.130113 0.207481 0.003919
vertex 0.060141 0.244286 0.006263
endloop
endfacet
facet normal -0.300807 -0.521012 -0.798787
outer loop
vertex 0.060141 0.244286 0.006263
vertex 0.130113 0.207481 0.003919
vertex 0.128557 0.204786 0.006263
endloop
endfacet
facet normal -0.359207 -0.622165 -0.695615
outer loop
vertex 0.060141 0.244286 0.006263
vertex 0.128557 0.204786 0.006263
vertex 0.058786 0.241938 0.009062
endloop
endfacet
facet normal -0.359211 -0.622172 -0.695608
outer loop
vertex 0.058786 0.241938 0.009062
vertex 0.128557 0.204786 0.006263
vertex 0.127202 0.202438 0.009062
endloop
endfacet
facet normal -0.408887 -0.708213 -0.575539
outer loop
vertex 0.058786 0.241938 0.009062
vertex 0.127202 0.202438 0.009062
vertex 0.057664 0.239997 0.012248
endloop
endfacet
facet normal -0.408887 -0.708213 -0.575539
outer loop
vertex 0.057664 0.239997 0.012248
vertex 0.127202 0.202438 0.009062
vertex 0.126080 0.200497 0.012248
endloop
endfacet
facet normal -0.448634 -0.777057 -0.441486
outer loop
vertex 0.057664 0.239997 0.012248
vertex 0.126080 0.200497 0.012248
vertex 0.056804 0.238507 0.015744
endloop
endfacet
facet normal -0.448633 -0.777055 -0.441490
outer loop
vertex 0.056804 0.238507 0.015744
vertex 0.126080 0.200497 0.012248
vertex 0.125220 0.199007 0.015744
endloop
endfacet
facet normal -0.477482 -0.827024 -0.296720
outer loop
vertex 0.056804 0.238507 0.015744
vertex 0.125220 0.199007 0.015744
vertex 0.056226 0.237506 0.019465
endloop
endfacet
facet normal -0.477482 -0.827022 -0.296724
outer loop
vertex 0.056226 0.237506 0.019465
vertex 0.125220 0.199007 0.015744
vertex 0.124642 0.198006 0.019465
endloop
endfacet
facet normal -0.494735 -0.856907 -0.144735
outer loop
vertex 0.056226 0.237506 0.019465
vertex 0.124642 0.198006 0.019465
vertex 0.055944 0.237017 0.023320
endloop
endfacet
facet normal -0.494735 -0.856905 -0.144745
outer loop
vertex 0.055944 0.237017 0.023320
vertex 0.124642 0.198006 0.019465
vertex 0.124360 0.197517 0.023320
endloop
endfacet
facet normal -0.499971 -0.865976 0.010754
outer loop
vertex 0.055944 0.237017 0.023320
vertex 0.124360 0.197517 0.023320
vertex 0.055965 0.237054 0.027216
endloop
endfacet
facet normal -0.499971 -0.865975 0.010753
outer loop
vertex 0.055965 0.237054 0.027216
vertex 0.124360 0.197517 0.023320
vertex 0.124381 0.197554 0.027216
endloop
endfacet
facet normal -0.493064 -0.854013 0.165982
outer loop
vertex 0.055965 0.237054 0.027216
vertex 0.124381 0.197554 0.027216
vertex 0.056289 0.237614 0.031058
endloop
endfacet
facet normal -0.493064 -0.854012 0.165983
outer loop
vertex 0.056289 0.237614 0.031058
vertex 0.124381 0.197554 0.027216
vertex 0.124705 0.198114 0.031058
endloop
endfacet
facet normal -0.474181 -0.821305 0.317191
outer loop
vertex 0.056289 0.237614 0.031058
vertex 0.124705 0.198114 0.031058
vertex 0.056906 0.238684 0.034753
endloop
endfacet
facet normal -0.474180 -0.821305 0.317192
outer loop
vertex 0.056906 0.238684 0.034753
vertex 0.124705 0.198114 0.031058
vertex 0.125322 0.199184 0.034753
endloop
endfacet
facet normal -0.443782 -0.768655 0.460681
outer loop
vertex 0.056906 0.238684 0.034753
vertex 0.125322 0.199184 0.034753
vertex 0.057804 0.240238 0.038211
endloop
endfacet
facet normal -0.443784 -0.768656 0.460677
outer loop
vertex 0.057804 0.240238 0.038211
vertex 0.125322 0.199184 0.034753
vertex 0.126220 0.200738 0.038211
endloop
endfacet
facet normal -0.402604 -0.697331 0.592992
outer loop
vertex 0.057804 0.240238 0.038211
vertex 0.126220 0.200738 0.038211
vertex 0.058959 0.242239 0.041348
endloop
endfacet
facet normal -0.402603 -0.697329 0.592995
outer loop
vertex 0.058959 0.242239 0.041348
vertex 0.126220 0.200738 0.038211
vertex 0.127375 0.202739 0.041348
endloop
endfacet
facet normal -0.351647 -0.609071 0.710899
outer loop
vertex 0.058959 0.242239 0.041348
vertex 0.127375 0.202739 0.041348
vertex 0.060344 0.244638 0.044088
endloop
endfacet
facet normal -0.351648 -0.609071 0.710898
outer loop
vertex 0.060344 0.244638 0.044088
vertex 0.127375 0.202739 0.041348
vertex 0.128760 0.205138 0.044088
endloop
endfacet
facet normal -0.292149 -0.506019 0.811538
outer loop
vertex 0.060344 0.244638 0.044088
vertex 0.128760 0.205138 0.044088
vertex 0.061925 0.247376 0.046365
endloop
endfacet
facet normal -0.292150 -0.506018 0.811538
outer loop
vertex 0.061925 0.247376 0.046365
vertex 0.128760 0.205138 0.044088
vertex 0.130341 0.207876 0.046365
endloop
endfacet
facet normal -0.225557 -0.390677 0.892466
outer loop
vertex 0.061925 0.247376 0.046365
vertex 0.130341 0.207876 0.046365
vertex 0.063664 0.250387 0.048123
endloop
endfacet
facet normal -0.225557 -0.390677 0.892466
outer loop
vertex 0.063664 0.250387 0.048123
vertex 0.130341 0.207876 0.046365
vertex 0.132080 0.210887 0.048123
endloop
endfacet
facet normal -0.153485 -0.265844 0.951719
outer loop
vertex 0.063664 0.250387 0.048123
vertex 0.132080 0.210887 0.048123
vertex 0.065518 0.253599 0.049319
endloop
endfacet
facet normal -0.153487 -0.265846 0.951718
outer loop
vertex 0.065518 0.253599 0.049319
vertex 0.132080 0.210887 0.048123
vertex 0.133934 0.214099 0.049319
endloop
endfacet
facet normal -0.077684 -0.134554 0.987856
outer loop
vertex 0.065518 0.253599 0.049319
vertex 0.133934 0.214099 0.049319
vertex 0.067442 0.256932 0.049924
endloop
endfacet
facet normal -0.077686 -0.134556 0.987856
outer loop
vertex 0.067442 0.256932 0.049924
vertex 0.133934 0.214099 0.049319
vertex 0.135858 0.217432 0.049924
endloop
endfacet
facet normal 0.000000 0.000000 1.000000
outer loop
vertex 0.067442 0.256932 0.049924
vertex 0.135858 0.217432 0.049924
vertex 0.069390 0.260306 0.049924
endloop
endfacet
facet normal 0.000001 0.000000 1.000000
outer loop
vertex 0.069390 0.260306 0.049924
vertex 0.135858 0.217432 0.049924
vertex 0.137806 0.220806 0.049924
endloop
endfacet
facet normal 0.077685 0.134556 0.987856
outer loop
vertex 0.069390 0.260306 0.049924
vertex 0.137806 0.220806 0.049924
vertex 0.071314 0.263639 0.049319
endloop
endfacet
facet normal 0.077686 0.134556 0.987856
outer loop
vertex 0.071314 0.263639 0.049319
vertex 0.137806 0.220806 0.049924
vertex 0.139730 0.224139 0.049319
endloop
endfacet
facet normal 0.153486 0.265846 0.951719
outer loop
vertex 0.071314 0.263639 0.049319
vertex 0.139730 0.224139 0.049319
vertex 0.073168 0.266851 0.048123
endloop
endfacet
facet normal 0.153484 0.265843 0.951719
outer loop
vertex 0.073168 0.266851 0.048123
vertex 0.139730 0.224139 0.049319
vertex 0.141585 0.227351 0.048123
endloop
endfacet
facet normal 0.225559 0.390679 0.892465
outer loop
vertex 0.073168 0.266851 0.048123
vertex 0.141585 0.227351 0.048123
vertex 0.074907 0.269862 0.046365
endloop
endfacet
facet normal 0.225557 0.390676 0.892466
outer loop
vertex 0.074907 0.269862 0.046365
vertex 0.141585 0.227351 0.048123
vertex 0.143323 0.230362 0.046365
endloop
endfacet
facet normal 0.292148 0.506014 0.811542
outer loop
vertex 0.074907 0.269862 0.046365
vertex 0.143323 0.230362 0.046365
vertex 0.076488 0.272600 0.044088
endloop
endfacet
facet normal 0.292152 0.506023 0.811534
outer loop
vertex 0.076488 0.272600 0.044088
vertex 0.143323 0.230362 0.046365
vertex 0.144904 0.233100 0.044088
endloop
endfacet
facet normal 0.351644 0.609065 0.710905
outer loop
vertex 0.076488 0.272600 0.044088
vertex 0.144904 0.233100 0.044088
vertex 0.077873 0.274999 0.041348
endloop
endfacet
facet normal 0.351649 0.609074 0.710895
outer loop
vertex 0.077873 0.274999 0.041348
vertex 0.144904 0.233100 0.044088
vertex 0.146289 0.235499 0.041348
endloop
endfacet
facet normal 0.402601 0.697326 0.593000
outer loop
vertex 0.077873 0.274999 0.041348
vertex 0.146289 0.235499 0.041348
vertex 0.079028 0.277000 0.038211
endloop
endfacet
facet normal 0.402607 0.697336 0.592984
outer loop
vertex 0.079028 0.277000 0.038211
vertex 0.146289 0.235499 0.041348
vertex 0.147444 0.237500 0.038211
endloop
endfacet
facet normal 0.443782 0.768655 0.460681
outer loop
vertex 0.079028 0.277000 0.038211
vertex 0.147444 0.237500 0.038211
vertex 0.079926 0.278554 0.034753
endloop
endfacet
facet normal 0.443782 0.768653 0.460685
outer loop
vertex 0.079926 0.278554 0.034753
vertex 0.147444 0.237500 0.038211
vertex 0.148342 0.239054 0.034753
endloop
endfacet
facet normal 0.474181 0.821307 0.317186
outer loop
vertex 0.079926 0.278554 0.034753
vertex 0.148342 0.239054 0.034753
vertex 0.080543 0.279624 0.031058
endloop
endfacet
facet normal 0.474181 0.821305 0.317193
outer loop
vertex 0.080543 0.279624 0.031058
vertex 0.148342 0.239054 0.034753
vertex 0.148959 0.240124 0.031058
endloop
endfacet
facet normal 0.493064 0.854013 0.165982
outer loop
vertex 0.080543 0.279624 0.031058
vertex 0.148959 0.240124 0.031058
vertex 0.080867 0.280184 0.027216
endloop
endfacet
facet normal 0.493064 0.854013 0.165980
outer loop
vertex 0.080867 0.280184 0.027216
vertex 0.148959 0.240124 0.031058
vertex 0.149283 0.240684 0.027216
endloop
endfacet
facet normal 0.499971 0.865975 0.010760
outer loop
vertex 0.080867 0.280184 0.027216
vertex 0.149283 0.240684 0.027216
vertex 0.080888 0.280221 0.023320
endloop
endfacet
facet normal 0.499971 0.865975 0.010755
outer loop
vertex 0.080888 0.280221 0.023320
vertex 0.149283 0.240684 0.027216
vertex 0.149304 0.240721 0.023320
endloop
endfacet
facet normal 0.494734 0.856906 -0.144741
outer loop
vertex 0.080888 0.280221 0.023320
vertex 0.149304 0.240721 0.023320
vertex 0.080606 0.279732 0.019465
endloop
endfacet
facet normal 0.494734 0.856905 -0.144749
outer loop
vertex 0.080606 0.279732 0.019465
vertex 0.149304 0.240721 0.023320
vertex 0.149022 0.240232 0.019465
endloop
endfacet
facet normal 0.477484 0.827027 -0.296709
outer loop
vertex 0.080606 0.279732 0.019465
vertex 0.149022 0.240232 0.019465
vertex 0.080028 0.278731 0.015744
endloop
endfacet
facet normal 0.477481 0.827022 -0.296726
outer loop
vertex 0.080028 0.278731 0.015744
vertex 0.149022 0.240232 0.019465
vertex 0.148444 0.239231 0.015744
endloop
endfacet
facet normal 0.448637 0.777061 -0.441476
outer loop
vertex 0.080028 0.278731 0.015744
vertex 0.148444 0.239231 0.015744
vertex 0.079168 0.277241 0.012248
endloop
endfacet
facet normal 0.448630 0.777051 -0.441500
outer loop
vertex 0.079168 0.277241 0.012248
vertex 0.148444 0.239231 0.015744
vertex 0.147584 0.237741 0.012248
endloop
endfacet
facet normal 0.408890 0.708218 -0.575531
outer loop
vertex 0.079168 0.277241 0.012248
vertex 0.147584 0.237741 0.012248
vertex 0.078047 0.275299 0.009062
endloop
endfacet
facet normal -0.300809 -0.521017 -0.798784
outer loop
vertex 0.061697 0.246981 0.003919
vertex 0.060141 0.244286 0.006263
vertex -0.008275 0.283786 0.006263
endloop
endfacet
facet normal -0.359209 -0.622168 -0.695612
outer loop
vertex -0.008275 0.283786 0.006263
vertex 0.060141 0.244286 0.006263
vertex -0.009630 0.281438 0.009062
endloop
endfacet
facet normal -0.359212 -0.622173 -0.695606
outer loop
vertex -0.008275 0.283786 0.006263
vertex -0.009630 0.281438 0.009062
vertex -0.078047 0.320938 0.009062
endloop
endfacet
facet normal -0.408884 -0.708208 -0.575548
outer loop
vertex -0.078047 0.320938 0.009062
vertex -0.009630 0.281438 0.009062
vertex -0.079168 0.318997 0.012248
endloop
endfacet
facet normal -0.408887 -0.708213 -0.575539
outer loop
vertex -0.078047 0.320938 0.009062
vertex -0.079168 0.318997 0.012248
vertex -0.147584 0.358496 0.012248
endloop
endfacet
facet normal -0.448631 -0.777053 -0.441496
outer loop
vertex -0.147584 0.358496 0.012248
vertex -0.079168 0.318997 0.012248
vertex -0.148444 0.357007 0.015744
endloop
endfacet
facet normal -0.359210 -0.622170 -0.695609
outer loop
vertex -0.009630 0.281438 0.009062
vertex 0.060141 0.244286 0.006263
vertex 0.058786 0.241938 0.009062
endloop
endfacet
facet normal -0.408890 -0.708218 -0.575531
outer loop
vertex -0.009630 0.281438 0.009062
vertex 0.058786 0.241938 0.009062
vertex -0.010752 0.279497 0.012248
endloop
endfacet
facet normal -0.408886 -0.708211 -0.575544
outer loop
vertex -0.010752 0.279497 0.012248
vertex 0.058786 0.241938 0.009062
vertex 0.057664 0.239997 0.012248
endloop
endfacet
facet normal -0.448632 -0.777053 -0.441496
outer loop
vertex -0.010752 0.279497 0.012248
vertex 0.057664 0.239997 0.012248
vertex -0.011612 0.278007 0.015744
endloop
endfacet
facet normal -0.448634 -0.777057 -0.441486
outer loop
vertex -0.011612 0.278007 0.015744
vertex 0.057664 0.239997 0.012248
vertex 0.056804 0.238507 0.015744
endloop
endfacet
facet normal -0.477482 -0.827024 -0.296719
outer loop
vertex -0.011612 0.278007 0.015744
vertex 0.056804 0.238507 0.015744
vertex -0.012190 0.277006 0.019465
endloop
endfacet
facet normal -0.477482 -0.827024 -0.296719
outer loop
vertex -0.012190 0.277006 0.019465
vertex 0.056804 0.238507 0.015744
vertex 0.056226 0.237506 0.019465
endloop
endfacet
facet normal -0.494735 -0.856906 -0.144741
outer loop
vertex -0.012190 0.277006 0.019465
vertex 0.056226 0.237506 0.019465
vertex -0.012472 0.276517 0.023320
endloop
endfacet
facet normal -0.494735 -0.856905 -0.144745
outer loop
vertex -0.012472 0.276517 0.023320
vertex 0.056226 0.237506 0.019465
vertex 0.055944 0.237017 0.023320
endloop
endfacet
facet normal -0.499971 -0.865975 0.010760
outer loop
vertex -0.012472 0.276517 0.023320
vertex 0.055944 0.237017 0.023320
vertex -0.012451 0.276554 0.027216
endloop
endfacet
facet normal -0.499971 -0.865975 0.010757
outer loop
vertex -0.012451 0.276554 0.027216
vertex 0.055944 0.237017 0.023320
vertex 0.055965 0.237054 0.027216
endloop
endfacet
facet normal -0.493064 -0.854013 0.165982
outer loop
vertex -0.012451 0.276554 0.027216
vertex 0.055965 0.237054 0.027216
vertex -0.012127 0.277114 0.031058
endloop
endfacet
facet normal -0.493064 -0.854013 0.165981
outer loop
vertex -0.012127 0.277114 0.031058
vertex 0.055965 0.237054 0.027216
vertex 0.056289 0.237614 0.031058
endloop
endfacet
facet normal -0.474182 -0.821307 0.317186
outer loop
vertex -0.012127 0.277114 0.031058
vertex 0.056289 0.237614 0.031058
vertex -0.011510 0.278184 0.034753
endloop
endfacet
facet normal -0.474180 -0.821305 0.317191
outer loop
vertex -0.011510 0.278184 0.034753
vertex 0.056289 0.237614 0.031058
vertex 0.056906 0.238684 0.034753
endloop
endfacet
facet normal -0.443780 -0.768650 0.460691
outer loop
vertex -0.011510 0.278184 0.034753
vertex 0.056906 0.238684 0.034753
vertex -0.010612 0.279738 0.038211
endloop
endfacet
facet normal -0.443784 -0.768655 0.460679
outer loop
vertex -0.010612 0.279738 0.038211
vertex 0.056906 0.238684 0.034753
vertex 0.057804 0.240238 0.038211
endloop
endfacet
facet normal -0.402607 -0.697336 0.592984
outer loop
vertex -0.010612 0.279738 0.038211
vertex 0.057804 0.240238 0.038211
vertex -0.009457 0.281739 0.041348
endloop
endfacet
facet normal -0.402605 -0.697332 0.592990
outer loop
vertex -0.009457 0.281739 0.041348
vertex 0.057804 0.240238 0.038211
vertex 0.058959 0.242239 0.041348
endloop
endfacet
facet normal -0.351647 -0.609071 0.710899
outer loop
vertex -0.009457 0.281739 0.041348
vertex 0.058959 0.242239 0.041348
vertex -0.008072 0.284138 0.044088
endloop
endfacet
facet normal -0.351646 -0.609068 0.710902
outer loop
vertex -0.008072 0.284138 0.044088
vertex 0.058959 0.242239 0.041348
vertex 0.060344 0.244638 0.044088
endloop
endfacet
facet normal -0.292152 -0.506024 0.811534
outer loop
vertex -0.008072 0.284138 0.044088
vertex 0.060344 0.244638 0.044088
vertex -0.006491 0.286876 0.046365
endloop
endfacet
facet normal -0.292148 -0.506013 0.811542
outer loop
vertex -0.006491 0.286876 0.046365
vertex 0.060344 0.244638 0.044088
vertex 0.061925 0.247376 0.046365
endloop
endfacet
facet normal -0.225558 -0.390679 0.892465
outer loop
vertex -0.006491 0.286876 0.046365
vertex 0.061925 0.247376 0.046365
vertex -0.004752 0.289887 0.048123
endloop
endfacet
facet normal -0.225556 -0.390676 0.892467
outer loop
vertex -0.004752 0.289887 0.048123
vertex 0.061925 0.247376 0.046365
vertex 0.063664 0.250387 0.048123
endloop
endfacet
facet normal -0.153482 -0.265840 0.951721
outer loop
vertex -0.004752 0.289887 0.048123
vertex 0.063664 0.250387 0.048123
vertex -0.002898 0.293099 0.049319
endloop
endfacet
facet normal -0.153489 -0.265848 0.951717
outer loop
vertex -0.002898 0.293099 0.049319
vertex 0.063664 0.250387 0.048123
vertex 0.065518 0.253599 0.049319
endloop
endfacet
facet normal -0.077685 -0.134556 0.987856
outer loop
vertex -0.002898 0.293099 0.049319
vertex 0.065518 0.253599 0.049319
vertex -0.000974 0.296432 0.049924
endloop
endfacet
facet normal -0.077686 -0.134556 0.987856
outer loop
vertex -0.000974 0.296432 0.049924
vertex 0.065518 0.253599 0.049319
vertex 0.067442 0.256932 0.049924
endloop
endfacet
facet normal 0.000000 0.000000 1.000000
outer loop
vertex -0.000974 0.296432 0.049924
vertex 0.067442 0.256932 0.049924
vertex 0.000974 0.299806 0.049924
endloop
endfacet
facet normal 0.000001 0.000000 1.000000
outer loop
vertex 0.000974 0.299806 0.049924
vertex 0.067442 0.256932 0.049924
vertex 0.069390 0.260306 0.049924
endloop
endfacet
facet normal 0.077685 0.134556 0.987856
outer loop
vertex 0.000974 0.299806 0.049924
vertex 0.069390 0.260306 0.049924
vertex 0.002898 0.303139 0.049319
endloop
endfacet
facet normal 0.077685 0.134554 0.987857
outer loop
vertex 0.002898 0.303139 0.049319
vertex 0.069390 0.260306 0.049924
vertex 0.071314 0.263639 0.049319
endloop
endfacet
facet normal 0.153487 0.265846 0.951718
outer loop
vertex 0.002898 0.303139 0.049319
vertex 0.071314 0.263639 0.049319
vertex 0.004752 0.306351 0.048123
endloop
endfacet
facet normal 0.153486 0.265847 0.951718
outer loop
vertex 0.004752 0.306351 0.048123
vertex 0.071314 0.263639 0.049319
vertex 0.073168 0.266851 0.048123
endloop
endfacet
facet normal 0.225556 0.390675 0.892467
outer loop
vertex 0.004752 0.306351 0.048123
vertex 0.073168 0.266851 0.048123
vertex 0.006491 0.309362 0.046365
endloop
endfacet
facet normal 0.225558 0.390678 0.892466
outer loop
vertex 0.006491 0.309362 0.046365
vertex 0.073168 0.266851 0.048123
vertex 0.074907 0.269862 0.046365
endloop
endfacet
facet normal 0.292151 0.506018 0.811538
outer loop
vertex 0.006491 0.309362 0.046365
vertex 0.074907 0.269862 0.046365
vertex 0.008072 0.312100 0.044088
endloop
endfacet
facet normal 0.292149 0.506019 0.811538
outer loop
vertex 0.008072 0.312100 0.044088
vertex 0.074907 0.269862 0.046365
vertex 0.076488 0.272600 0.044088
endloop
endfacet
facet normal 0.351644 0.609065 0.710905
outer loop
vertex 0.008072 0.312100 0.044088
vertex 0.076488 0.272600 0.044088
vertex 0.009457 0.314499 0.041348
endloop
endfacet
facet normal 0.351650 0.609076 0.710893
outer loop
vertex 0.009457 0.314499 0.041348
vertex 0.076488 0.272600 0.044088
vertex 0.077873 0.274999 0.041348
endloop
endfacet
facet normal 0.402601 0.697326 0.593000
outer loop
vertex 0.009457 0.314499 0.041348
vertex 0.077873 0.274999 0.041348
vertex 0.010612 0.316500 0.038211
endloop
endfacet
facet normal 0.402608 0.697338 0.592980
outer loop
vertex 0.010612 0.316500 0.038211
vertex 0.077873 0.274999 0.041348
vertex 0.079028 0.277000 0.038211
endloop
endfacet
facet normal 0.443781 0.768650 0.460691
outer loop
vertex 0.010612 0.316500 0.038211
vertex 0.079028 0.277000 0.038211
vertex 0.011510 0.318054 0.034753
endloop
endfacet
facet normal 0.443783 0.768656 0.460679
outer loop
vertex 0.011510 0.318054 0.034753
vertex 0.079028 0.277000 0.038211
vertex 0.079926 0.278554 0.034753
endloop
endfacet
facet normal 0.474181 0.821307 0.317186
outer loop
vertex 0.011510 0.318054 0.034753
vertex 0.079926 0.278554 0.034753
vertex 0.012127 0.319124 0.031058
endloop
endfacet
facet normal 0.474180 0.821303 0.317198
outer loop
vertex 0.012127 0.319124 0.031058
vertex 0.079926 0.278554 0.034753
vertex 0.080543 0.279624 0.031058
endloop
endfacet
facet normal 0.493065 0.854014 0.165970
outer loop
vertex 0.012127 0.319124 0.031058
vertex 0.080543 0.279624 0.031058
vertex 0.012451 0.319684 0.027216
endloop
endfacet
facet normal 0.493065 0.854013 0.165977
outer loop
vertex 0.012451 0.319684 0.027216
vertex 0.080543 0.279624 0.031058
vertex 0.080867 0.280184 0.027216
endloop
endfacet
facet normal 0.499971 0.865975 0.010760
outer loop
vertex 0.012451 0.319684 0.027216
vertex 0.080867 0.280184 0.027216
vertex 0.012472 0.319721 0.023320
endloop
endfacet
facet normal 0.499971 0.865975 0.010765
outer loop
vertex 0.012472 0.319721 0.023320
vertex 0.080867 0.280184 0.027216
vertex 0.080888 0.280221 0.023320
endloop
endfacet
facet normal 0.494735 0.856906 -0.144741
outer loop
vertex 0.012472 0.319721 0.023320
vertex 0.080888 0.280221 0.023320
vertex 0.012190 0.319232 0.019465
endloop
endfacet
facet normal 0.494734 0.856904 -0.144755
outer loop
vertex 0.012190 0.319232 0.019465
vertex 0.080888 0.280221 0.023320
vertex 0.080606 0.279732 0.019465
endloop
endfacet
facet normal 0.477482 0.827024 -0.296720
outer loop
vertex 0.012190 0.319232 0.019465
vertex 0.080606 0.279732 0.019465
vertex 0.011612 0.318231 0.015744
endloop
endfacet
facet normal 0.477483 0.827025 -0.296715
outer loop
vertex 0.011612 0.318231 0.015744
vertex 0.080606 0.279732 0.019465
vertex 0.080028 0.278731 0.015744
endloop
endfacet
facet normal 0.448634 0.777057 -0.441486
outer loop
vertex 0.011612 0.318231 0.015744
vertex 0.080028 0.278731 0.015744
vertex 0.010752 0.316741 0.012248
endloop
endfacet
facet normal 0.448630 0.777050 -0.441502
outer loop
vertex 0.010752 0.316741 0.012248
vertex 0.080028 0.278731 0.015744
vertex 0.079168 0.277241 0.012248
endloop
endfacet
facet normal 0.408887 0.708213 -0.575539
outer loop
vertex 0.010752 0.316741 0.012248
vertex 0.079168 0.277241 0.012248
vertex 0.009630 0.314799 0.009062
endloop
endfacet
facet normal 0.408891 0.708219 -0.575529
outer loop
vertex 0.009630 0.314799 0.009062
vertex 0.079168 0.277241 0.012248
vertex 0.078047 0.275299 0.009062
endloop
endfacet
facet normal 0.359206 0.622163 -0.695618
outer loop
vertex 0.009630 0.314799 0.009062
vertex 0.078047 0.275299 0.009062
vertex 0.008275 0.312452 0.006263
endloop
endfacet
facet normal -0.408890 -0.708218 -0.575531
outer loop
vertex -0.009630 0.281438 0.009062
vertex -0.010752 0.279497 0.012248
vertex -0.079168 0.318997 0.012248
endloop
endfacet
facet normal -0.448629 -0.777048 -0.441506
outer loop
vertex -0.079168 0.318997 0.012248
vertex -0.010752 0.279497 0.012248
vertex -0.080028 0.317507 0.015744
endloop
endfacet
facet normal -0.448636 -0.777061 -0.441477
outer loop
vertex -0.079168 0.318997 0.012248
vertex -0.080028 0.317507 0.015744
vertex -0.148444 0.357007 0.015744
endloop
endfacet
facet normal -0.477482 -0.827024 -0.296719
outer loop
vertex -0.148444 0.357007 0.015744
vertex -0.080028 0.317507 0.015744
vertex -0.149022 0.356006 0.019465
endloop
endfacet
facet normal -0.448634 -0.777057 -0.441487
outer loop
vertex -0.080028 0.317507 0.015744
vertex -0.010752 0.279497 0.012248
vertex -0.011612 0.278007 0.015744
endloop
endfacet
facet normal -0.477482 -0.827024 -0.296719
outer loop
vertex -0.080028 0.317507 0.015744
vertex -0.011612 0.278007 0.015744
vertex -0.080606 0.316506 0.019465
endloop
endfacet
facet normal -0.477483 -0.827024 -0.296717
outer loop
vertex -0.080606 0.316506 0.019465
vertex -0.011612 0.278007 0.015744
vertex -0.012190 0.277006 0.019465
endloop
endfacet
facet normal -0.494735 -0.856906 -0.144741
outer loop
vertex -0.080606 0.316506 0.019465
vertex -0.012190 0.277006 0.019465
vertex -0.080888 0.316017 0.023320
endloop
endfacet
facet normal -0.494734 -0.856904 -0.144751
outer loop
vertex -0.080888 0.316017 0.023320
vertex -0.012190 0.277006 0.019465
vertex -0.012472 0.276517 0.023320
endloop
endfacet
facet normal -0.499971 -0.865975 0.010760
outer loop
vertex -0.080888 0.316017 0.023320
vertex -0.012472 0.276517 0.023320
vertex -0.080867 0.316054 0.027216
endloop
endfacet
facet normal -0.499971 -0.865975 0.010749
outer loop
vertex -0.080867 0.316054 0.027216
vertex -0.012472 0.276517 0.023320
vertex -0.012451 0.276554 0.027216
endloop
endfacet
facet normal -0.493063 -0.854011 0.165994
outer loop
vertex -0.080867 0.316054 0.027216
vertex -0.012451 0.276554 0.027216
vertex -0.080543 0.316614 0.031058
endloop
endfacet
facet normal -0.493064 -0.854013 0.165982
outer loop
vertex -0.080543 0.316614 0.031058
vertex -0.012451 0.276554 0.027216
vertex -0.012127 0.277114 0.031058
endloop
endfacet
facet normal -0.474180 -0.821303 0.317197
outer loop
vertex -0.080543 0.316614 0.031058
vertex -0.012127 0.277114 0.031058
vertex -0.079926 0.317684 0.034753
endloop
endfacet
facet normal -0.474179 -0.821303 0.317199
outer loop
vertex -0.079926 0.317684 0.034753
vertex -0.012127 0.277114 0.031058
vertex -0.011510 0.278184 0.034753
endloop
endfacet
facet normal -0.443785 -0.768659 0.460672
outer loop
vertex -0.079926 0.317684 0.034753
vertex -0.011510 0.278184 0.034753
vertex -0.079028 0.319238 0.038211
endloop
endfacet
facet normal -0.443782 -0.768651 0.460687
outer loop
vertex -0.079028 0.319238 0.038211
vertex -0.011510 0.278184 0.034753
vertex -0.010612 0.279738 0.038211
endloop
endfacet
facet normal -0.402610 -0.697341 0.592977
outer loop
vertex -0.079028 0.319238 0.038211
vertex -0.010612 0.279738 0.038211
vertex -0.077873 0.321239 0.041348
endloop
endfacet
facet normal -0.402600 -0.697323 0.593004
outer loop
vertex -0.077873 0.321239 0.041348
vertex -0.010612 0.279738 0.038211
vertex -0.009457 0.281739 0.041348
endloop
endfacet
facet normal -0.351650 -0.609076 0.710893
outer loop
vertex -0.077873 0.321239 0.041348
vertex -0.009457 0.281739 0.041348
vertex -0.076488 0.323638 0.044088
endloop
endfacet
facet normal -0.351648 -0.609071 0.710899
outer loop
vertex -0.076488 0.323638 0.044088
vertex -0.009457 0.281739 0.041348
vertex -0.008072 0.284138 0.044088
endloop
endfacet
facet normal -0.292149 -0.506019 0.811538
outer loop
vertex -0.076488 0.323638 0.044088
vertex -0.008072 0.284138 0.044088
vertex -0.074907 0.326376 0.046365
endloop
endfacet
facet normal -0.292150 -0.506017 0.811539
outer loop
vertex -0.074907 0.326376 0.046365
vertex -0.008072 0.284138 0.044088
vertex -0.006491 0.286876 0.046365
endloop
endfacet
facet normal -0.225558 -0.390679 0.892465
outer loop
vertex -0.074907 0.326376 0.046365
vertex -0.006491 0.286876 0.046365
vertex -0.073168 0.329387 0.048123
endloop
endfacet
facet normal -0.225555 -0.390673 0.892468
outer loop
vertex -0.073168 0.329387 0.048123
vertex -0.006491 0.286876 0.046365
vertex -0.004752 0.289887 0.048123
endloop
endfacet
facet normal -0.153486 -0.265846 0.951719
outer loop
vertex -0.073168 0.329387 0.048123
vertex -0.004752 0.289887 0.048123
vertex -0.071314 0.332599 0.049319
endloop
endfacet
facet normal -0.153486 -0.265844 0.951719
outer loop
vertex -0.071314 0.332599 0.049319
vertex -0.004752 0.289887 0.048123
vertex -0.002898 0.293099 0.049319
endloop
endfacet
facet normal -0.077686 -0.134558 0.987856
outer loop
vertex -0.071314 0.332599 0.049319
vertex -0.002898 0.293099 0.049319
vertex -0.069390 0.335932 0.049924
endloop
endfacet
facet normal -0.077684 -0.134553 0.987857
outer loop
vertex -0.069390 0.335932 0.049924
vertex -0.002898 0.293099 0.049319
vertex -0.000974 0.296432 0.049924
endloop
endfacet
facet normal 0.000000 0.000000 1.000000
outer loop
vertex -0.069390 0.335932 0.049924
vertex -0.000974 0.296432 0.049924
vertex -0.067442 0.339306 0.049924
endloop
endfacet
facet normal 0.000001 0.000000 1.000000
outer loop
vertex -0.067442 0.339306 0.049924
vertex -0.000974 0.296432 0.049924
vertex 0.000974 0.299806 0.049924
endloop
endfacet
facet normal 0.077684 0.134554 0.987856
outer loop
vertex -0.067442 0.339306 0.049924
vertex 0.000974 0.299806 0.049924
vertex -0.065518 0.342639 0.049319
endloop
endfacet
facet normal 0.077686 0.134556 0.987856
outer loop
vertex -0.065518 0.342639 0.049319
vertex 0.000974 0.299806 0.049924
vertex 0.002898 0.303139 0.049319
endloop
endfacet
facet normal 0.153484 0.265840 0.951721
outer loop
vertex -0.065518 0.342639 0.049319
vertex 0.002898 0.303139 0.049319
vertex -0.063664 0.345851 0.048123
endloop
endfacet
facet normal 0.153485 0.265846 0.951719
outer loop
vertex -0.063664 0.345851 0.048123
vertex 0.002898 0.303139 0.049319
vertex 0.004752 0.306351 0.048123
endloop
endfacet
facet normal 0.225558 0.390679 0.892465
outer loop
vertex -0.063664 0.345851 0.048123
vertex 0.004752 0.306351 0.048123
vertex -0.061925 0.348862 0.046365
endloop
endfacet
facet normal 0.225559 0.390679 0.892465
outer loop
vertex -0.061925 0.348862 0.046365
vertex 0.004752 0.306351 0.048123
vertex 0.006491 0.309362 0.046365
endloop
endfacet
facet normal 0.292148 0.506013 0.811542
outer loop
vertex -0.061925 0.348862 0.046365
vertex 0.006491 0.309362 0.046365
vertex -0.060344 0.351600 0.044088
endloop
endfacet
facet normal 0.292151 0.506023 0.811534
outer loop
vertex -0.060344 0.351600 0.044088
vertex 0.006491 0.309362 0.046365
vertex 0.008072 0.312100 0.044088
endloop
endfacet
facet normal 0.351644 0.609065 0.710905
outer loop
vertex -0.060344 0.351600 0.044088
vertex 0.008072 0.312100 0.044088
vertex -0.058959 0.353999 0.041348
endloop
endfacet
facet normal 0.351649 0.609074 0.710895
outer loop
vertex -0.058959 0.353999 0.041348
vertex 0.008072 0.312100 0.044088
vertex 0.009457 0.314499 0.041348
endloop
endfacet
facet normal 0.402604 0.697331 0.592992
outer loop
vertex -0.058959 0.353999 0.041348
vertex 0.009457 0.314499 0.041348
vertex -0.057804 0.356000 0.038211
endloop
endfacet
facet normal 0.402603 0.697329 0.592995
outer loop
vertex -0.057804 0.356000 0.038211
vertex 0.009457 0.314499 0.041348
vertex 0.010612 0.316500 0.038211
endloop
endfacet
facet normal 0.443783 0.768654 0.460681
outer loop
vertex -0.057804 0.356000 0.038211
vertex 0.010612 0.316500 0.038211
vertex -0.056906 0.357554 0.034753
endloop
endfacet
facet normal 0.443783 0.768656 0.460677
outer loop
vertex -0.056906 0.357554 0.034753
vertex 0.010612 0.316500 0.038211
vertex 0.011510 0.318054 0.034753
endloop
endfacet
facet normal 0.474181 0.821307 0.317186
outer loop
vertex -0.056906 0.357554 0.034753
vertex 0.011510 0.318054 0.034753
vertex -0.056289 0.358624 0.031058
endloop
endfacet
facet normal 0.474180 0.821304 0.317195
outer loop
vertex -0.056289 0.358624 0.031058
vertex 0.011510 0.318054 0.034753
vertex 0.012127 0.319124 0.031058
endloop
endfacet
facet normal 0.493064 0.854013 0.165982
outer loop
vertex -0.056289 0.358624 0.031058
vertex 0.012127 0.319124 0.031058
vertex -0.055965 0.359184 0.027216
endloop
endfacet
facet normal 0.493063 0.854011 0.165991
outer loop
vertex -0.055965 0.359184 0.027216
vertex 0.012127 0.319124 0.031058
vertex 0.012451 0.319684 0.027216
endloop
endfacet
facet normal 0.499971 0.865975 0.010760
outer loop
vertex -0.055965 0.359184 0.027216
vertex 0.012451 0.319684 0.027216
vertex -0.055944 0.359221 0.023320
endloop
endfacet
facet normal 0.499971 0.865975 0.010743
outer loop
vertex -0.055944 0.359221 0.023320
vertex 0.012451 0.319684 0.027216
vertex 0.012472 0.319721 0.023320
endloop
endfacet
facet normal 0.494735 0.856906 -0.144741
outer loop
vertex -0.055944 0.359221 0.023320
vertex 0.012472 0.319721 0.023320
vertex -0.056226 0.358732 0.019465
endloop
endfacet
facet normal 0.494734 0.856905 -0.144749
outer loop
vertex -0.056226 0.358732 0.019465
vertex 0.012472 0.319721 0.023320
vertex 0.012190 0.319232 0.019465
endloop
endfacet
facet normal 0.477482 0.827024 -0.296720
outer loop
vertex -0.056226 0.358732 0.019465
vertex 0.012190 0.319232 0.019465
vertex -0.056804 0.357731 0.015744
endloop
endfacet
facet normal 0.477484 0.827026 -0.296712
outer loop
vertex -0.056804 0.357731 0.015744
vertex 0.012190 0.319232 0.019465
vertex 0.011612 0.318231 0.015744
endloop
endfacet
facet normal 0.448634 0.777057 -0.441486
outer loop
vertex -0.056804 0.357731 0.015744
vertex 0.011612 0.318231 0.015744
vertex -0.057664 0.356241 0.012248
endloop
endfacet
facet normal 0.448635 0.777058 -0.441483
outer loop
vertex -0.057664 0.356241 0.012248
vertex 0.011612 0.318231 0.015744
vertex 0.010752 0.316741 0.012248
endloop
endfacet
facet normal 0.408879 0.708198 -0.575564
outer loop
vertex -0.057664 0.356241 0.012248
vertex 0.010752 0.316741 0.012248
vertex -0.058786 0.354299 0.009062
endloop
endfacet
facet normal 0.408893 0.708223 -0.575523
outer loop
vertex -0.058786 0.354299 0.009062
vertex 0.010752 0.316741 0.012248
vertex 0.009630 0.314799 0.009062
endloop
endfacet
facet normal 0.359206 0.622163 -0.695618
outer loop
vertex -0.058786 0.354299 0.009062
vertex 0.009630 0.314799 0.009062
vertex -0.060141 0.351952 0.006263
endloop
endfacet
facet normal 0.359213 0.622176 -0.695602
outer loop
vertex -0.060141 0.351952 0.006263
vertex 0.009630 0.314799 0.009062
vertex 0.008275 0.312452 0.006263
endloop
endfacet
facet normal 0.300809 0.521017 -0.798783
outer loop
vertex -0.060141 0.351952 0.006263
vertex 0.008275 0.312452 0.006263
vertex -0.061697 0.349257 0.003919
endloop
endfacet
facet normal -0.494734 -0.856905 -0.144753
outer loop
vertex -0.149304 0.355517 0.023320
vertex -0.149022 0.356006 0.019465
vertex -0.080606 0.316506 0.019465
endloop
endfacet
facet normal -0.477482 -0.827024 -0.296719
outer loop
vertex -0.080606 0.316506 0.019465
vertex -0.149022 0.356006 0.019465
vertex -0.080028 0.317507 0.015744
endloop
endfacet
facet normal -0.494735 -0.856905 -0.144745
outer loop
vertex -0.149304 0.355517 0.023320
vertex -0.080606 0.316506 0.019465
vertex -0.080888 0.316017 0.023320
endloop
endfacet
facet normal -0.499971 -0.865976 0.010760
outer loop
vertex -0.149283 0.355554 0.027216
vertex -0.149304 0.355517 0.023320
vertex -0.080888 0.316017 0.023320
endloop
endfacet
facet normal -0.499971 -0.865975 0.010754
outer loop
vertex -0.149283 0.355554 0.027216
vertex -0.080888 0.316017 0.023320
vertex -0.080867 0.316054 0.027216
endloop
endfacet
facet normal -0.493064 -0.854013 0.165982
outer loop
vertex -0.148959 0.356114 0.031058
vertex -0.149283 0.355554 0.027216
vertex -0.080867 0.316054 0.027216
endloop
endfacet
facet normal -0.493064 -0.854012 0.165988
outer loop
vertex -0.148959 0.356114 0.031058
vertex -0.080867 0.316054 0.027216
vertex -0.080543 0.316614 0.031058
endloop
endfacet
facet normal -0.474182 -0.821307 0.317186
outer loop
vertex -0.148342 0.357184 0.034753
vertex -0.148959 0.356114 0.031058
vertex -0.080543 0.316614 0.031058
endloop
endfacet
facet normal -0.474181 -0.821306 0.317190
outer loop
vertex -0.148342 0.357184 0.034753
vertex -0.080543 0.316614 0.031058
vertex -0.079926 0.317684 0.034753
endloop
endfacet
facet normal -0.443783 -0.768654 0.460681
outer loop
vertex -0.147444 0.358738 0.038211
vertex -0.148342 0.357184 0.034753
vertex -0.079926 0.317684 0.034753
endloop
endfacet
facet normal -0.443782 -0.768651 0.460687
outer loop
vertex -0.147444 0.358738 0.038211
vertex -0.079926 0.317684 0.034753
vertex -0.079028 0.319238 0.038211
endloop
endfacet
facet normal -0.402610 -0.697341 0.592977
outer loop
vertex -0.146289 0.360739 0.041348
vertex -0.147444 0.358738 0.038211
vertex -0.079028 0.319238 0.038211
endloop
endfacet
facet normal -0.402603 -0.697328 0.592996
outer loop
vertex -0.146289 0.360739 0.041348
vertex -0.079028 0.319238 0.038211
vertex -0.077873 0.321239 0.041348
endloop
endfacet
facet normal -0.351647 -0.609071 0.710899
outer loop
vertex -0.144904 0.363138 0.044088
vertex -0.146289 0.360739 0.041348
vertex -0.077873 0.321239 0.041348
endloop
endfacet
facet normal -0.351645 -0.609067 0.710903
outer loop
vertex -0.144904 0.363138 0.044088
vertex -0.077873 0.321239 0.041348
vertex -0.076488 0.323638 0.044088
endloop
endfacet
facet normal -0.292152 -0.506023 0.811534
outer loop
vertex -0.143323 0.365876 0.046365
vertex -0.144904 0.363138 0.044088
vertex -0.076488 0.323638 0.044088
endloop
endfacet
facet normal -0.292148 -0.506013 0.811542
outer loop
vertex -0.143323 0.365876 0.046365
vertex -0.076488 0.323638 0.044088
vertex -0.074907 0.326376 0.046365
endloop
endfacet
facet normal -0.225559 -0.390679 0.892465
outer loop
vertex -0.141585 0.368887 0.048123
vertex -0.143323 0.365876 0.046365
vertex -0.074907 0.326376 0.046365
endloop
endfacet
facet normal -0.225558 -0.390678 0.892465
outer loop
vertex -0.141585 0.368887 0.048123
vertex -0.074907 0.326376 0.046365
vertex -0.073168 0.329387 0.048123
endloop
endfacet
facet normal -0.153483 -0.265843 0.951720
outer loop
vertex -0.139730 0.372099 0.049319
vertex -0.141585 0.368887 0.048123
vertex -0.073168 0.329387 0.048123
endloop
endfacet
facet normal -0.153488 -0.265846 0.951718
outer loop
vertex -0.139730 0.372099 0.049319
vertex -0.073168 0.329387 0.048123
vertex -0.071314 0.332599 0.049319
endloop
endfacet
facet normal -0.077686 -0.134556 0.987856
outer loop
vertex -0.137806 0.375432 0.049924
vertex -0.139730 0.372099 0.049319
vertex -0.071314 0.332599 0.049319
endloop
endfacet
facet normal -0.077686 -0.134556 0.987856
outer loop
vertex -0.137806 0.375432 0.049924
vertex -0.071314 0.332599 0.049319
vertex -0.069390 0.335932 0.049924
endloop
endfacet
facet normal 0.000000 0.000000 1.000000
outer loop
vertex -0.135858 0.378806 0.049924
vertex -0.137806 0.375432 0.049924
vertex -0.069390 0.335932 0.049924
endloop
endfacet
facet normal 0.000001 0.000000 1.000000
outer loop
vertex -0.135858 0.378806 0.049924
vertex -0.069390 0.335932 0.049924
vertex -0.067442 0.339306 0.049924
endloop
endfacet
facet normal 0.077684 0.134554 0.987856
outer loop
vertex -0.133934 0.382139 0.049319
vertex -0.135858 0.378806 0.049924
vertex -0.067442 0.339306 0.049924
endloop
endfacet
facet normal 0.077685 0.134555 0.987856
outer loop
vertex -0.133934 0.382139 0.049319
vertex -0.067442 0.339306 0.049924
vertex -0.065518 0.342639 0.049319
endloop
endfacet
facet normal 0.153487 0.265846 0.951718
outer loop
vertex -0.132080 0.385351 0.048123
vertex -0.133934 0.382139 0.049319
vertex -0.065518 0.342639 0.049319
endloop
endfacet
facet normal 0.153485 0.265845 0.951719
outer loop
vertex -0.132080 0.385351 0.048123
vertex -0.065518 0.342639 0.049319
vertex -0.063664 0.345851 0.048123
endloop
endfacet
facet normal 0.225556 0.390675 0.892467
outer loop
vertex -0.130341 0.388362 0.046365
vertex -0.132080 0.385351 0.048123
vertex -0.063664 0.345851 0.048123
endloop
endfacet
facet normal 0.225559 0.390680 0.892464
outer loop
vertex -0.130341 0.388362 0.046365
vertex -0.063664 0.345851 0.048123
vertex -0.061925 0.348862 0.046365
endloop
endfacet
facet normal 0.292151 0.506018 0.811538
outer loop
vertex -0.128760 0.391100 0.044088
vertex -0.130341 0.388362 0.046365
vertex -0.061925 0.348862 0.046365
endloop
endfacet
facet normal 0.292149 0.506019 0.811538
outer loop
vertex -0.128760 0.391100 0.044088
vertex -0.061925 0.348862 0.046365
vertex -0.060344 0.351600 0.044088
endloop
endfacet
facet normal 0.351647 0.609071 0.710899
outer loop
vertex -0.127375 0.393499 0.041348
vertex -0.128760 0.391100 0.044088
vertex -0.060344 0.351600 0.044088
endloop
endfacet
facet normal 0.351646 0.609070 0.710900
outer loop
vertex -0.127375 0.393499 0.041348
vertex -0.060344 0.351600 0.044088
vertex -0.058959 0.353999 0.041348
endloop
endfacet
facet normal 0.402604 0.697331 0.592992
outer loop
vertex -0.126220 0.395500 0.038211
vertex -0.127375 0.393499 0.041348
vertex -0.058959 0.353999 0.041348
endloop
endfacet
facet normal 0.402609 0.697339 0.592979
outer loop
vertex -0.126220 0.395500 0.038211
vertex -0.058959 0.353999 0.041348
vertex -0.057804 0.356000 0.038211
endloop
endfacet
facet normal 0.443781 0.768650 0.460691
outer loop
vertex -0.125322 0.397054 0.034753
vertex -0.126220 0.395500 0.038211
vertex -0.057804 0.356000 0.038211
endloop
endfacet
facet normal 0.443781 0.768652 0.460687
outer loop
vertex -0.125322 0.397054 0.034753
vertex -0.057804 0.356000 0.038211
vertex -0.056906 0.357554 0.034753
endloop
endfacet
facet normal 0.474179 0.821304 0.317197
outer loop
vertex -0.124705 0.398124 0.031058
vertex -0.125322 0.397054 0.034753
vertex -0.056906 0.357554 0.034753
endloop
endfacet
facet normal 0.474182 0.821307 0.317185
outer loop
vertex -0.124705 0.398124 0.031058
vertex -0.056906 0.357554 0.034753
vertex -0.056289 0.358624 0.031058
endloop
endfacet
facet normal 0.493064 0.854013 0.165982
outer loop
vertex -0.124381 0.398684 0.027216
vertex -0.124705 0.398124 0.031058
vertex -0.056289 0.358624 0.031058
endloop
endfacet
facet normal 0.493064 0.854012 0.165984
outer loop
vertex -0.124381 0.398684 0.027216
vertex -0.056289 0.358624 0.031058
vertex -0.055965 0.359184 0.027216
endloop
endfacet
facet normal 0.499971 0.865975 0.010760
outer loop
vertex -0.124360 0.398721 0.023320
vertex -0.124381 0.398684 0.027216
vertex -0.055965 0.359184 0.027216
endloop
endfacet
facet normal 0.499971 0.865975 0.010749
outer loop
vertex -0.124360 0.398721 0.023320
vertex -0.055965 0.359184 0.027216
vertex -0.055944 0.359221 0.023320
endloop
endfacet
facet normal 0.494734 0.856906 -0.144741
outer loop
vertex -0.124642 0.398232 0.019465
vertex -0.124360 0.398721 0.023320
vertex -0.055944 0.359221 0.023320
endloop
endfacet
facet normal 0.494735 0.856906 -0.144743
outer loop
vertex -0.124642 0.398232 0.019465
vertex -0.055944 0.359221 0.023320
vertex -0.056226 0.358732 0.019465
endloop
endfacet
facet normal 0.477484 0.827027 -0.296709
outer loop
vertex -0.125220 0.397231 0.015744
vertex -0.124642 0.398232 0.019465
vertex -0.056226 0.358732 0.019465
endloop
endfacet
facet normal 0.477481 0.827022 -0.296727
outer loop
vertex -0.125220 0.397231 0.015744
vertex -0.056226 0.358732 0.019465
vertex -0.056804 0.357731 0.015744
endloop
endfacet
facet normal 0.448634 0.777057 -0.441486
outer loop
vertex -0.126080 0.395741 0.012248
vertex -0.125220 0.397231 0.015744
vertex -0.056804 0.357731 0.015744
endloop
endfacet
facet normal 0.448636 0.777061 -0.441478
outer loop
vertex -0.126080 0.395741 0.012248
vertex -0.056804 0.357731 0.015744
vertex -0.057664 0.356241 0.012248
endloop
endfacet
facet normal 0.408884 0.708208 -0.575547
outer loop
vertex -0.127202 0.393799 0.009062
vertex -0.126080 0.395741 0.012248
vertex -0.057664 0.356241 0.012248
endloop
endfacet
facet normal 0.408884 0.708207 -0.575549
outer loop
vertex -0.127202 0.393799 0.009062
vertex -0.057664 0.356241 0.012248
vertex -0.058786 0.354299 0.009062
endloop
endfacet
facet normal 0.359209 0.622168 -0.695612
outer loop
vertex -0.128557 0.391452 0.006263
vertex -0.127202 0.393799 0.009062
vertex -0.058786 0.354299 0.009062
endloop
endfacet
facet normal 0.359212 0.622173 -0.695605
outer loop
vertex -0.128557 0.391452 0.006263
vertex -0.058786 0.354299 0.009062
vertex -0.060141 0.351952 0.006263
endloop
endfacet
facet normal 0.300809 0.521017 -0.798783
outer loop
vertex -0.130113 0.388757 0.003919
vertex -0.128557 0.391452 0.006263
vertex -0.060141 0.351952 0.006263
endloop
endfacet
facet normal 0.300808 0.521015 -0.798785
outer loop
vertex -0.130113 0.388757 0.003919
vertex -0.060141 0.351952 0.006263
vertex -0.061697 0.349257 0.003919
endloop
endfacet
facet normal -0.500000 -0.866025 0.000000
outer loop
vertex 0.200248 0.170959 0.000000
vertex 0.200248 0.170959 0.002087
vertex -0.210248 0.407959 0.000000
endloop
endfacet
facet normal -0.500000 -0.866026 0.000000
outer loop
vertex -0.210248 0.407959 0.000000
vertex 0.200248 0.170959 0.002087
vertex -0.210248 0.407959 0.002087
endloop
endfacet
facet normal -0.866026 0.499999 0.000000
outer loop
vertex -0.210248 0.407959 0.000000
vertex -0.210248 0.407959 0.002087
vertex -0.200248 0.425279 0.000000
endloop
endfacet
facet normal -0.866025 0.500000 0.000000
outer loop
vertex -0.200248 0.425279 0.000000
vertex -0.210248 0.407959 0.002087
vertex -0.200248 0.425279 0.002087
endloop
endfacet
facet normal -0.866025 0.500000 0.000026
outer loop
vertex -0.200248 0.425279 0.002087
vertex -0.210248 0.407959 0.002087
vertex -0.198574 0.428178 0.003861
endloop
endfacet
facet normal -0.866025 0.500001 -0.000020
outer loop
vertex -0.198574 0.428178 0.003861
vertex -0.210248 0.407959 0.002087
vertex -0.197054 0.430811 0.006120
endloop
endfacet
facet normal -0.866025 0.500001 0.000000
outer loop
vertex -0.197054 0.430811 0.006120
vertex -0.210248 0.407959 0.002087
vertex -0.195722 0.433119 0.008813
endloop
endfacet
facet normal -0.866026 0.500000 0.000000
outer loop
vertex -0.195722 0.433119 0.008813
vertex -0.210248 0.407959 0.002087
vertex -0.194608 0.435047 0.011878
endloop
endfacet
facet normal -0.866024 0.500002 0.000011
outer loop
vertex -0.194608 0.435047 0.011878
vertex -0.210248 0.407959 0.002087
vertex -0.193739 0.436553 0.015243
endloop
endfacet
facet normal -0.866027 0.499998 -0.000009
outer loop
vertex -0.193739 0.436553 0.015243
vertex -0.210248 0.407959 0.002087
vertex -0.193134 0.437601 0.018833
endloop
endfacet
facet normal -0.866026 0.499998 -0.000008
outer loop
vertex -0.193134 0.437601 0.018833
vertex -0.210248 0.407959 0.002087
vertex -0.192808 0.438167 0.022564
endloop
endfacet
facet normal -0.866027 0.499997 0.000007
outer loop
vertex -0.192808 0.438167 0.022564
vertex -0.210248 0.407959 0.002087
vertex -0.192766 0.438238 0.026352
endloop
endfacet
facet normal -0.866025 0.500001 -0.000007
outer loop
vertex -0.192766 0.438238 0.026352
vertex -0.210248 0.407959 0.002087
vertex -0.193012 0.437813 0.030108
endloop
endfacet
facet normal -0.866029 0.499994 0.000012
outer loop
vertex -0.193012 0.437813 0.030108
vertex -0.210248 0.407959 0.002087
vertex -0.193538 0.436901 0.033747
endloop
endfacet
facet normal -0.866024 0.500003 -0.000006
outer loop
vertex -0.193538 0.436901 0.033747
vertex -0.210248 0.407959 0.002087
vertex -0.194333 0.435524 0.037185
endloop
endfacet
facet normal -0.866026 0.500000 0.000000
outer loop
vertex -0.194333 0.435524 0.037185
vertex -0.210248 0.407959 0.002087
vertex -0.195379 0.433713 0.040343
endloop
endfacet
facet normal -0.866027 0.499998 0.000005
outer loop
vertex -0.195379 0.433713 0.040343
vertex -0.210248 0.407959 0.002087
vertex -0.196651 0.431509 0.043149
endloop
endfacet
facet normal -0.866028 0.499995 -0.000005
outer loop
vertex -0.196651 0.431509 0.043149
vertex -0.210248 0.407959 0.002087
vertex -0.198121 0.428963 0.045539
endloop
endfacet
facet normal -0.866024 0.500003 -0.000005
outer loop
vertex -0.198121 0.428963 0.045539
vertex -0.210248 0.407959 0.002087
vertex -0.199755 0.426134 0.047456
endloop
endfacet
facet normal -0.866027 0.499997 0.000005
outer loop
vertex -0.199755 0.426134 0.047456
vertex -0.210248 0.407959 0.002087
vertex -0.201514 0.423086 0.048859
endloop
endfacet
facet normal -0.866018 0.500012 -0.000001
outer loop
vertex -0.201514 0.423086 0.048859
vertex -0.210248 0.407959 0.002087
vertex -0.211922 0.405060 0.003861
endloop
endfacet
facet normal -0.866027 0.499997 0.000001
outer loop
vertex -0.201514 0.423086 0.048859
vertex -0.211922 0.405060 0.003861
vertex -0.213442 0.402427 0.006120
endloop
endfacet
facet normal -0.866034 0.499985 -0.000005
outer loop
vertex -0.213442 0.402427 0.006120
vertex -0.214774 0.400119 0.008813
vertex -0.201514 0.423086 0.048859
endloop
endfacet
facet normal -0.866019 0.500010 0.000003
outer loop
vertex -0.201514 0.423086 0.048859
vertex -0.214774 0.400119 0.008813
vertex -0.215888 0.398191 0.011878
endloop
endfacet
facet normal -0.866028 0.499995 -0.000001
outer loop
vertex -0.201514 0.423086 0.048859
vertex -0.215888 0.398191 0.011878
vertex -0.216757 0.396685 0.015243
endloop
endfacet
facet normal -0.866023 0.500003 -0.000006
outer loop
vertex -0.216757 0.396685 0.015243
vertex -0.217362 0.395637 0.018833
vertex -0.201514 0.423086 0.048859
endloop
endfacet
facet normal -0.866022 0.500006 0.000006
outer loop
vertex -0.201514 0.423086 0.048859
vertex -0.217362 0.395637 0.018833
vertex -0.217689 0.395071 0.022564
endloop
endfacet
facet normal -0.866027 0.499998 -0.000007
outer loop
vertex -0.201514 0.423086 0.048859
vertex -0.217689 0.395071 0.022564
vertex -0.217730 0.395000 0.026352
endloop
endfacet
facet normal -0.866028 0.499995 0.000008
outer loop
vertex -0.217730 0.395000 0.026352
vertex -0.217484 0.395425 0.030108
vertex -0.201514 0.423086 0.048859
endloop
endfacet
facet normal -0.866022 0.500006 -0.000010
outer loop
vertex -0.201514 0.423086 0.048859
vertex -0.217484 0.395425 0.030108
vertex -0.203359 0.419890 0.049713
endloop
endfacet
facet normal -0.866026 0.500000 0.000003
outer loop
vertex -0.203359 0.419890 0.049713
vertex -0.217484 0.395425 0.030108
vertex -0.216958 0.396337 0.033747
endloop
endfacet
facet normal -0.866029 0.499994 -0.000003
outer loop
vertex -0.203359 0.419890 0.049713
vertex -0.216958 0.396337 0.033747
vertex -0.216163 0.397714 0.037185
endloop
endfacet
facet normal -0.866023 0.500003 -0.000017
outer loop
vertex -0.216163 0.397714 0.037185
vertex -0.215117 0.399525 0.040343
vertex -0.203359 0.419890 0.049713
endloop
endfacet
facet normal -0.866025 0.500001 0.000017
outer loop
vertex -0.203359 0.419890 0.049713
vertex -0.215117 0.399525 0.040343
vertex -0.213845 0.401729 0.043149
endloop
endfacet
facet normal -0.866024 0.500002 0.000000
outer loop
vertex -0.203359 0.419890 0.049713
vertex -0.213845 0.401729 0.043149
vertex -0.212375 0.404275 0.045539
endloop
endfacet
facet normal -0.866027 0.499996 0.000000
outer loop
vertex -0.212375 0.404275 0.045539
vertex -0.210741 0.407104 0.047456
vertex -0.203359 0.419890 0.049713
endloop
endfacet
facet normal -0.866025 0.500001 0.000009
outer loop
vertex -0.203359 0.419890 0.049713
vertex -0.210741 0.407104 0.047456
vertex -0.208982 0.410152 0.048859
endloop
endfacet
facet normal -0.866025 0.500001 0.000018
outer loop
vertex -0.203359 0.419890 0.049713
vertex -0.208982 0.410152 0.048859
vertex -0.207137 0.413348 0.049713
endloop
endfacet
facet normal -0.866030 0.499993 0.000000
outer loop
vertex -0.207137 0.413348 0.049713
vertex -0.205248 0.416619 0.050000
vertex -0.203359 0.419890 0.049713
endloop
endfacet
facet normal 0.866025 -0.500000 0.000000
outer loop
vertex 0.200248 0.170959 0.000000
vertex 0.210248 0.188279 0.000000
vertex 0.200248 0.170959 0.002087
endloop
endfacet
facet normal 0.866026 -0.499999 0.000000
outer loop
vertex 0.200248 0.170959 0.002087
vertex 0.210248 0.188279 0.000000
vertex 0.210248 0.188279 0.002087
endloop
endfacet
facet normal 0.866025 -0.500000 -0.000005
outer loop
vertex 0.200248 0.170959 0.002087
vertex 0.210248 0.188279 0.002087
vertex 0.211922 0.191178 0.003861
endloop
endfacet
facet normal 0.866025 -0.500001 0.000000
outer loop
vertex 0.211922 0.191178 0.003861
vertex 0.213442 0.193811 0.006120
vertex 0.200248 0.170959 0.002087
endloop
endfacet
facet normal 0.866026 -0.500000 0.000006
outer loop
vertex 0.200248 0.170959 0.002087
vertex 0.213442 0.193811 0.006120
vertex 0.214774 0.196119 0.008813
endloop
endfacet
facet normal 0.866026 -0.499999 -0.000003
outer loop
vertex 0.200248 0.170959 0.002087
vertex 0.214774 0.196119 0.008813
vertex 0.215888 0.198047 0.011878
endloop
endfacet
facet normal 0.866023 -0.500003 0.000005
outer loop
vertex 0.215888 0.198047 0.011878
vertex 0.216757 0.199553 0.015243
vertex 0.200248 0.170959 0.002087
endloop
endfacet
facet normal 0.866028 -0.499995 -0.000007
outer loop
vertex 0.200248 0.170959 0.002087
vertex 0.216757 0.199553 0.015243
vertex 0.217362 0.200601 0.018833
endloop
endfacet
facet normal 0.866025 -0.500001 0.000001
outer loop
vertex 0.200248 0.170959 0.002087
vertex 0.217362 0.200601 0.018833
vertex 0.217689 0.201167 0.022564
endloop
endfacet
facet normal 0.866028 -0.499996 -0.000004
outer loop
vertex 0.217689 0.201167 0.022564
vertex 0.217730 0.201238 0.026352
vertex 0.200248 0.170959 0.002087
endloop
endfacet
facet normal 0.866023 -0.500004 0.000004
outer loop
vertex 0.200248 0.170959 0.002087
vertex 0.217730 0.201238 0.026352
vertex 0.217484 0.200813 0.030108
endloop
endfacet
facet normal 0.866026 -0.499999 -0.000000
outer loop
vertex 0.200248 0.170959 0.002087
vertex 0.217484 0.200813 0.030108
vertex 0.216958 0.199901 0.033747
endloop
endfacet
facet normal 0.866021 -0.500007 0.000003
outer loop
vertex 0.216958 0.199901 0.033747
vertex 0.216163 0.198524 0.037185
vertex 0.200248 0.170959 0.002087
endloop
endfacet
facet normal 0.866033 -0.499987 -0.000003
outer loop
vertex 0.200248 0.170959 0.002087
vertex 0.216163 0.198524 0.037185
vertex 0.215117 0.196713 0.040343
endloop
endfacet
facet normal 0.866022 -0.500005 -0.000000
outer loop
vertex 0.200248 0.170959 0.002087
vertex 0.215117 0.196713 0.040343
vertex 0.213845 0.194509 0.043149
endloop
endfacet
facet normal 0.866024 -0.500003 0.000000
outer loop
vertex 0.213845 0.194509 0.043149
vertex 0.212375 0.191963 0.045539
vertex 0.200248 0.170959 0.002087
endloop
endfacet
facet normal 0.866026 -0.499999 0.000000
outer loop
vertex 0.200248 0.170959 0.002087
vertex 0.212375 0.191963 0.045539
vertex 0.210741 0.189134 0.047456
endloop
endfacet
facet normal 0.866023 -0.500005 -0.000001
outer loop
vertex 0.200248 0.170959 0.002087
vertex 0.210741 0.189134 0.047456
vertex 0.208982 0.186086 0.048859
endloop
endfacet
facet normal 0.866026 -0.500000 0.000000
outer loop
vertex 0.207137 0.182890 0.049713
vertex 0.193012 0.158425 0.030108
vertex 0.208982 0.186086 0.048859
endloop
endfacet
facet normal 0.866026 -0.499998 -0.000007
outer loop
vertex 0.208982 0.186086 0.048859
vertex 0.193012 0.158425 0.030108
vertex 0.192766 0.158000 0.026352
endloop
endfacet
facet normal 0.866027 -0.499997 0.000000
outer loop
vertex 0.208982 0.186086 0.048859
vertex 0.192766 0.158000 0.026352
vertex 0.192808 0.158071 0.022564
endloop
endfacet
facet normal 0.866030 -0.499993 0.000000
outer loop
vertex 0.205248 0.179619 0.050000
vertex 0.203359 0.176348 0.049713
vertex 0.207137 0.182890 0.049713
endloop
endfacet
facet normal 0.866025 -0.500001 0.000000
outer loop
vertex 0.207137 0.182890 0.049713
vertex 0.203359 0.176348 0.049713
vertex 0.201514 0.173152 0.048859
endloop
endfacet
facet normal 0.866024 -0.500003 0.000009
outer loop
vertex 0.207137 0.182890 0.049713
vertex 0.201514 0.173152 0.048859
vertex 0.199755 0.170104 0.047456
endloop
endfacet
facet normal 0.866025 -0.500001 0.000000
outer loop
vertex 0.199755 0.170104 0.047456
vertex 0.198121 0.167275 0.045539
vertex 0.207137 0.182890 0.049713
endloop
endfacet
facet normal 0.866023 -0.500005 -0.000001
outer loop
vertex 0.207137 0.182890 0.049713
vertex 0.198121 0.167275 0.045539
vertex 0.196651 0.164729 0.043149
endloop
endfacet
facet normal 0.866026 -0.499999 0.000003
outer loop
vertex 0.207137 0.182890 0.049713
vertex 0.196651 0.164729 0.043149
vertex 0.195379 0.162525 0.040343
endloop
endfacet
facet normal 0.866025 -0.500001 0.000000
outer loop
vertex 0.195379 0.162525 0.040343
vertex 0.194333 0.160714 0.037185
vertex 0.207137 0.182890 0.049713
endloop
endfacet
facet normal 0.866026 -0.499998 0.000001
outer loop
vertex 0.207137 0.182890 0.049713
vertex 0.194333 0.160714 0.037185
vertex 0.193538 0.159337 0.033747
endloop
endfacet
facet normal 0.866026 -0.500000 0.000002
outer loop
vertex 0.207137 0.182890 0.049713
vertex 0.193538 0.159337 0.033747
vertex 0.193012 0.158425 0.030108
endloop
endfacet
facet normal 0.866024 -0.500003 0.000003
outer loop
vertex 0.192808 0.158071 0.022564
vertex 0.193134 0.158637 0.018833
vertex 0.208982 0.186086 0.048859
endloop
endfacet
facet normal 0.866028 -0.499996 0.000002
outer loop
vertex 0.208982 0.186086 0.048859
vertex 0.193134 0.158637 0.018833
vertex 0.193739 0.159685 0.015243
endloop
endfacet
facet normal 0.866025 -0.500001 -0.000003
outer loop
vertex 0.208982 0.186086 0.048859
vertex 0.193739 0.159685 0.015243
vertex 0.194608 0.161191 0.011878
endloop
endfacet
facet normal 0.866022 -0.500005 0.000000
outer loop
vertex 0.194608 0.161191 0.011878
vertex 0.195722 0.163119 0.008813
vertex 0.208982 0.186086 0.048859
endloop
endfacet
facet normal 0.866028 -0.499996 0.000001
outer loop
vertex 0.208982 0.186086 0.048859
vertex 0.195722 0.163119 0.008813
vertex 0.197054 0.165427 0.006120
endloop
endfacet
facet normal 0.866026 -0.499999 0.000001
outer loop
vertex 0.208982 0.186086 0.048859
vertex 0.197054 0.165427 0.006120
vertex 0.198574 0.168060 0.003861
endloop
endfacet
facet normal 0.866022 -0.500005 0.000001
outer loop
vertex 0.198574 0.168060 0.003861
vertex 0.200248 0.170959 0.002087
vertex 0.208982 0.186086 0.048859
endloop
endfacet
endsolid cylinder
