solid DTM
facet normal 0.029366 0.004585 0.999558
outer loop
vertex -5.289927 -5.328855 -0.061015
vertex -7.087622 -5.320005 -0.008241
vertex -7.091497 -7.091497 0.000000
endloop
endfacet
facet normal 0.000000 0.034595 0.999401
outer loop
vertex -5.289927 -5.328855 -0.061015
vertex -7.091497 -7.091497 0.000000
vertex -5.318623 -7.091497 0.000000
endloop
endfacet
facet normal 0.029188 -0.029188 0.999148
outer loop
vertex -5.289927 1.762643 -0.061015
vertex -7.087622 1.771492 -0.008241
vertex -7.062802 -0.010232 -0.061015
endloop
endfacet
facet normal 0.061564 -0.061564 0.996203
outer loop
vertex -5.289927 1.762643 -0.061015
vertex -7.062802 -0.010232 -0.061015
vertex -5.236286 -0.029359 -0.175073
endloop
endfacet
facet normal 0.000000 0.000000 1.000000
outer loop
vertex -5.318623 5.318623 0.000000
vertex -7.091497 5.318623 0.000000
vertex -7.091497 3.545749 0.000000
endloop
endfacet
facet normal 0.000000 0.000000 1.000000
outer loop
vertex -5.318623 5.318623 0.000000
vertex -7.091497 3.545749 0.000000
vertex -5.318623 3.545749 0.000000
endloop
endfacet
facet normal 0.076548 0.016400 0.996931
outer loop
vertex -5.209507 -1.811782 -0.232012
vertex -7.048612 -1.788166 -0.091186
vertex -7.062802 -3.555981 -0.061015
endloop
endfacet
facet normal 0.062620 0.031260 0.997548
outer loop
vertex -5.209507 -1.811782 -0.232012
vertex -7.062802 -3.555981 -0.061015
vertex -5.236286 -3.575108 -0.175073
endloop
endfacet
facet normal 0.062144 -0.016439 0.997932
outer loop
vertex -5.236286 -0.029359 -0.175073
vertex -7.062802 -0.010232 -0.061015
vertex -7.048612 -1.788166 -0.091186
endloop
endfacet
facet normal 0.075921 -0.030697 0.996641
outer loop
vertex -5.236286 -0.029359 -0.175073
vertex -7.048612 -1.788166 -0.091186
vertex -5.209507 -1.811782 -0.232012
endloop
endfacet
facet normal 0.062600 0.028965 0.997618
outer loop
vertex -5.236286 -3.575108 -0.175073
vertex -7.062802 -3.555981 -0.061015
vertex -7.087622 -5.320005 -0.008241
endloop
endfacet
facet normal 0.029599 0.063970 0.997513
outer loop
vertex -5.236286 -3.575108 -0.175073
vertex -7.087622 -5.320005 -0.008241
vertex -5.289927 -5.328855 -0.061015
endloop
endfacet
facet normal 0.000000 -0.004644 0.999989
outer loop
vertex -5.318623 3.545749 0.000000
vertex -7.091497 3.545749 0.000000
vertex -7.087622 1.771492 -0.008241
endloop
endfacet
facet normal 0.029161 -0.033715 0.999006
outer loop
vertex -5.318623 3.545749 0.000000
vertex -7.087622 1.771492 -0.008241
vertex -5.289927 1.762643 -0.061015
endloop
endfacet
facet normal 0.000000 0.000000 1.000000
outer loop
vertex -5.318623 7.091497 0.000000
vertex -7.091497 7.091497 0.000000
vertex -7.091497 5.318623 0.000000
endloop
endfacet
facet normal 0.000000 0.000000 1.000000
outer loop
vertex -5.318623 7.091497 0.000000
vertex -7.091497 5.318623 0.000000
vertex -5.318623 5.318623 0.000000
endloop
endfacet
facet normal 0.000000 0.000000 1.000000
outer loop
vertex 1.772874 7.091497 0.000000
vertex 0.000000 7.091497 0.000000
vertex 0.000000 5.318623 0.000000
endloop
endfacet
facet normal -0.002092 0.002092 0.999996
outer loop
vertex 1.772874 7.091497 0.000000
vertex 0.000000 5.318623 0.000000
vertex 1.772874 5.318623 0.003709
endloop
endfacet
facet normal -0.037294 0.136444 0.989946
outer loop
vertex 1.772874 3.545749 0.201854
vertex 0.000000 3.545749 0.135065
vertex 0.003673 1.771565 0.379740
endloop
endfacet
facet normal -0.074435 0.172700 0.982158
outer loop
vertex 1.772874 3.545749 0.201854
vertex 0.003673 1.771565 0.379740
vertex 1.772874 1.772874 0.513592
endloop
endfacet
facet normal -0.172356 -0.018245 0.984866
outer loop
vertex 1.772874 -3.545749 0.480215
vertex 0.028623 -3.555954 0.174774
vertex 0.003876 -5.320005 0.137763
endloop
endfacet
facet normal -0.132090 -0.059279 0.989464
outer loop
vertex 1.772874 -3.545749 0.480215
vertex 0.003876 -5.320005 0.137763
vertex 1.772874 -5.318623 0.374001
endloop
endfacet
facet normal -0.124861 -0.080095 0.988936
outer loop
vertex 1.772874 0.000000 0.675945
vertex 0.027652 -0.009860 0.454798
vertex 0.042131 -1.787897 0.312621
endloop
endfacet
facet normal -0.166698 -0.038845 0.985242
outer loop
vertex 1.772874 0.000000 0.675945
vertex 0.042131 -1.787897 0.312621
vertex 1.773511 -1.773101 0.606146
endloop
endfacet
facet normal -0.166045 -0.075389 0.983232
outer loop
vertex 1.773511 -1.773101 0.606146
vertex 0.042131 -1.787897 0.312621
vertex 0.028623 -3.555954 0.174774
endloop
endfacet
facet normal -0.171672 -0.069749 0.982682
outer loop
vertex 1.773511 -1.773101 0.606146
vertex 0.028623 -3.555954 0.174774
vertex 1.772874 -3.545749 0.480215
endloop
endfacet
facet normal -0.002086 0.075964 0.997108
outer loop
vertex 1.772874 5.318623 0.003709
vertex 0.000000 5.318623 0.000000
vertex 0.000000 3.545749 0.135065
endloop
endfacet
facet normal -0.037413 0.110996 0.993116
outer loop
vertex 1.772874 5.318623 0.003709
vertex 0.000000 3.545749 0.135065
vertex 1.772874 3.545749 0.201854
endloop
endfacet
facet normal -0.075408 0.040963 0.996311
outer loop
vertex 1.772874 1.772874 0.513592
vertex 0.003673 1.771565 0.379740
vertex 0.027652 -0.009860 0.454798
endloop
endfacet
facet normal -0.125698 0.090471 0.987935
outer loop
vertex 1.772874 1.772874 0.513592
vertex 0.027652 -0.009860 0.454798
vertex 1.772874 0.000000 0.675945
endloop
endfacet
facet normal -0.132318 -0.022300 0.990956
outer loop
vertex 1.772874 -5.318623 0.374001
vertex 0.003876 -5.320005 0.137763
vertex 0.000000 -7.091497 0.097380
endloop
endfacet
facet normal -0.101999 -0.052997 0.993372
outer loop
vertex 1.772874 -5.318623 0.374001
vertex 0.000000 -7.091497 0.097380
vertex 1.772874 -7.091497 0.279418
endloop
endfacet
facet normal 0.065739 -0.065739 0.995669
outer loop
vertex 5.318623 -5.318623 0.370293
vertex 3.545749 -5.318623 0.487347
vertex 3.545749 -7.091497 0.370293
endloop
endfacet
facet normal 0.051124 -0.051124 0.997383
outer loop
vertex 5.318623 -5.318623 0.370293
vertex 3.545749 -7.091497 0.370293
vertex 5.318623 -7.091497 0.279418
endloop
endfacet
facet normal 0.140633 0.071409 0.987483
outer loop
vertex 5.318623 1.772874 0.135065
vertex 3.545749 1.772874 0.387550
vertex 3.545749 0.000000 0.515753
endloop
endfacet
facet normal 0.174225 0.037070 0.984008
outer loop
vertex 5.318623 1.772874 0.135065
vertex 3.545749 0.000000 0.515753
vertex 5.318623 0.000000 0.201854
endloop
endfacet
facet normal 0.000000 0.075964 0.997111
outer loop
vertex 5.318623 5.318623 0.000000
vertex 3.545749 5.318623 0.000000
vertex 3.545749 3.545749 0.135065
endloop
endfacet
facet normal 0.065749 0.010267 0.997783
outer loop
vertex 5.318623 5.318623 0.000000
vertex 3.545749 3.545749 0.135065
vertex 5.318623 3.545749 0.018242
endloop
endfacet
facet normal 0.165922 -0.014323 0.986035
outer loop
vertex 5.318623 -1.772874 0.232198
vertex 3.545749 -1.772874 0.530524
vertex 3.545749 -3.545749 0.504771
endloop
endfacet
facet normal 0.115960 0.036645 0.992578
outer loop
vertex 5.318623 -1.772874 0.232198
vertex 3.545749 -3.545749 0.504771
vertex 5.318623 -3.545749 0.297651
endloop
endfacet
facet normal 0.174339 0.008204 0.984652
outer loop
vertex 5.318623 0.000000 0.201854
vertex 3.545749 0.000000 0.515753
vertex 3.545749 -1.772874 0.530524
endloop
endfacet
facet normal 0.165916 0.016876 0.985996
outer loop
vertex 5.318623 0.000000 0.201854
vertex 3.545749 -1.772874 0.530524
vertex 5.318623 -1.772874 0.232198
endloop
endfacet
facet normal 0.116033 -0.009761 0.993198
outer loop
vertex 5.318623 -3.545749 0.297651
vertex 3.545749 -3.545749 0.504771
vertex 3.545749 -5.318623 0.487347
endloop
endfacet
facet normal 0.065826 0.040851 0.996995
outer loop
vertex 5.318623 -3.545749 0.297651
vertex 3.545749 -5.318623 0.487347
vertex 5.318623 -5.318623 0.370293
endloop
endfacet
facet normal 0.065098 0.140694 0.987911
outer loop
vertex 5.318623 3.545749 0.018242
vertex 3.545749 3.545749 0.135065
vertex 3.545749 1.772874 0.387550
endloop
endfacet
facet normal 0.140693 0.065098 0.987911
outer loop
vertex 5.318623 3.545749 0.018242
vertex 3.545749 1.772874 0.387550
vertex 5.318623 1.772874 0.135065
endloop
endfacet
facet normal 0.000000 0.000000 1.000000
outer loop
vertex 5.318623 7.091497 0.000000
vertex 3.545749 7.091497 0.000000
vertex 3.545749 5.318623 0.000000
endloop
endfacet
facet normal 0.000000 0.000000 1.000000
outer loop
vertex 5.318623 7.091497 0.000000
vertex 3.545749 5.318623 0.000000
vertex 5.318623 5.318623 0.000000
endloop
endfacet
facet normal -0.063713 -0.053166 0.996551
outer loop
vertex 3.545749 -5.318623 0.487347
vertex 1.772874 -5.318623 0.374001
vertex 1.772874 -7.091497 0.279418
endloop
endfacet
facet normal -0.051080 -0.065795 0.996525
outer loop
vertex 3.545749 -5.318623 0.487347
vertex 1.772874 -7.091497 0.279418
vertex 3.545749 -7.091497 0.370293
endloop
endfacet
facet normal 0.070622 0.090967 0.993347
outer loop
vertex 3.545749 1.772874 0.387550
vertex 1.772874 1.772874 0.513592
vertex 1.772874 0.000000 0.675945
endloop
endfacet
facet normal 0.089758 0.071834 0.993370
outer loop
vertex 3.545749 1.772874 0.387550
vertex 1.772874 0.000000 0.675945
vertex 3.545749 0.000000 0.515753
endloop
endfacet
facet normal 0.002079 0.111073 0.993810
outer loop
vertex 3.545749 5.318623 0.000000
vertex 1.772874 5.318623 0.003709
vertex 1.772874 3.545749 0.201854
endloop
endfacet
facet normal 0.037537 0.075911 0.996408
outer loop
vertex 3.545749 5.318623 0.000000
vertex 1.772874 3.545749 0.201854
vertex 3.545749 3.545749 0.135065
endloop
endfacet
facet normal 0.042534 -0.070813 0.996582
outer loop
vertex 3.545749 -1.772874 0.530524
vertex 1.773511 -1.773101 0.606146
vertex 1.772874 -3.545749 0.480215
endloop
endfacet
facet normal -0.013848 -0.014523 0.999799
outer loop
vertex 3.545749 -1.772874 0.530524
vertex 1.772874 -3.545749 0.480215
vertex 3.545749 -3.545749 0.504771
endloop
endfacet
facet normal 0.089922 -0.039144 0.995179
outer loop
vertex 3.545749 0.000000 0.515753
vertex 1.772874 0.000000 0.675945
vertex 1.773511 -1.773101 0.606146
endloop
endfacet
facet normal 0.042629 0.008324 0.999056
outer loop
vertex 3.545749 0.000000 0.515753
vertex 1.773511 -1.773101 0.606146
vertex 3.545749 -1.772874 0.530524
endloop
endfacet
facet normal -0.013825 -0.059798 0.998115
outer loop
vertex 3.545749 -3.545749 0.504771
vertex 1.772874 -3.545749 0.480215
vertex 1.772874 -5.318623 0.374001
endloop
endfacet
facet normal -0.063800 -0.009808 0.997915
outer loop
vertex 3.545749 -3.545749 0.504771
vertex 1.772874 -5.318623 0.374001
vertex 3.545749 -5.318623 0.487347
endloop
endfacet
facet normal 0.037078 0.173062 0.984213
outer loop
vertex 3.545749 3.545749 0.135065
vertex 1.772874 3.545749 0.201854
vertex 1.772874 1.772874 0.513592
endloop
endfacet
facet normal 0.070211 0.140645 0.987567
outer loop
vertex 3.545749 3.545749 0.135065
vertex 1.772874 1.772874 0.513592
vertex 3.545749 1.772874 0.387550
endloop
endfacet
facet normal 0.000000 0.002092 0.999998
outer loop
vertex 3.545749 7.091497 0.000000
vertex 1.772874 7.091497 0.000000
vertex 1.772874 5.318623 0.003709
endloop
endfacet
facet normal 0.002092 0.000000 0.999998
outer loop
vertex 3.545749 7.091497 0.000000
vertex 1.772874 5.318623 0.003709
vertex 3.545749 5.318623 0.000000
endloop
endfacet
facet normal 0.000000 0.000000 1.000000
outer loop
vertex 7.091497 7.091497 0.000000
vertex 5.318623 7.091497 0.000000
vertex 5.318623 5.318623 0.000000
endloop
endfacet
facet normal 0.000000 0.000000 1.000000
outer loop
vertex 7.091497 7.091497 0.000000
vertex 5.318623 5.318623 0.000000
vertex 7.091497 5.318623 0.000000
endloop
endfacet
facet normal 0.010267 0.065749 0.997783
outer loop
vertex 7.091497 3.545749 0.000000
vertex 5.318623 3.545749 0.018242
vertex 5.318623 1.772874 0.135065
endloop
endfacet
facet normal 0.075964 0.000000 0.997111
outer loop
vertex 7.091497 3.545749 0.000000
vertex 5.318623 1.772874 0.135065
vertex 7.091497 1.772874 0.000000
endloop
endfacet
facet normal 0.112157 0.040681 0.992857
outer loop
vertex 7.091497 -3.545749 0.097380
vertex 5.318623 -3.545749 0.297651
vertex 5.318623 -5.318623 0.370293
endloop
endfacet
facet normal 0.125724 0.026936 0.991700
outer loop
vertex 7.091497 -3.545749 0.097380
vertex 5.318623 -5.318623 0.370293
vertex 7.091497 -5.318623 0.145534
endloop
endfacet
facet normal 0.111057 0.017007 0.993668
outer loop
vertex 7.091497 0.000000 0.003709
vertex 5.318623 0.000000 0.201854
vertex 5.318623 -1.772874 0.232198
endloop
endfacet
facet normal 0.122620 0.005286 0.992440
outer loop
vertex 7.091497 0.000000 0.003709
vertex 5.318623 -1.772874 0.232198
vertex 7.091497 -1.772874 0.013152
endloop
endfacet
facet normal 0.122540 0.036616 0.991788
outer loop
vertex 7.091497 -1.772874 0.013152
vertex 5.318623 -1.772874 0.232198
vertex 5.318623 -3.545749 0.297651
endloop
endfacet
facet normal 0.112125 0.047157 0.992575
outer loop
vertex 7.091497 -1.772874 0.013152
vertex 5.318623 -3.545749 0.297651
vertex 7.091497 -3.545749 0.097380
endloop
endfacet
facet normal 0.000000 0.010289 0.999947
outer loop
vertex 7.091497 5.318623 0.000000
vertex 5.318623 5.318623 0.000000
vertex 5.318623 3.545749 0.018242
endloop
endfacet
facet normal 0.010289 0.000000 0.999947
outer loop
vertex 7.091497 5.318623 0.000000
vertex 5.318623 3.545749 0.018242
vertex 7.091497 3.545749 0.000000
endloop
endfacet
facet normal 0.075911 0.037537 0.996408
outer loop
vertex 7.091497 1.772874 0.000000
vertex 5.318623 1.772874 0.135065
vertex 5.318623 0.000000 0.201854
endloop
endfacet
facet normal 0.111073 0.002079 0.993810
outer loop
vertex 7.091497 1.772874 0.000000
vertex 5.318623 0.000000 0.201854
vertex 7.091497 0.000000 0.003709
endloop
endfacet
facet normal 0.125608 -0.050786 0.990779
outer loop
vertex 7.091497 -5.318623 0.145534
vertex 5.318623 -5.318623 0.370293
vertex 5.318623 -7.091497 0.279418
endloop
endfacet
facet normal 0.102105 -0.027009 0.994407
outer loop
vertex 7.091497 -5.318623 0.145534
vertex 5.318623 -7.091497 0.279418
vertex 7.091497 -7.091497 0.097380
endloop
endfacet
facet normal 0.000000 0.000000 1.000000
outer loop
vertex -1.772874 7.091497 0.000000
vertex -3.545749 7.091497 0.000000
vertex -3.545749 5.318623 0.000000
endloop
endfacet
facet normal 0.000000 0.000000 1.000000
outer loop
vertex -1.772874 7.091497 0.000000
vertex -3.545749 5.318623 0.000000
vertex -1.772874 5.318623 0.000000
endloop
endfacet
facet normal -0.011217 -0.050263 0.998673
outer loop
vertex -1.772874 3.545749 0.018242
vertex -3.544961 3.545468 -0.001675
vertex -3.502863 1.757583 -0.091186
endloop
endfacet
facet normal -0.093677 0.029730 0.995159
outer loop
vertex -1.772874 3.545749 0.018242
vertex -3.502863 1.757583 -0.091186
vertex -1.744252 1.762668 0.074206
endloop
endfacet
facet normal -0.043362 0.081802 0.995705
outer loop
vertex -1.690539 -3.575107 -0.156755
vertex -3.436632 -3.584656 -0.232012
vertex -3.502863 -5.333915 -0.091186
endloop
endfacet
facet normal -0.019177 0.056973 0.998191
outer loop
vertex -1.690539 -3.575107 -0.156755
vertex -3.502863 -5.333915 -0.091186
vertex -1.744179 -5.328855 -0.057688
endloop
endfacet
facet normal -0.144550 -0.045456 0.988453
outer loop
vertex -1.690848 -0.029248 0.027443
vertex -3.436632 -0.038907 -0.228302
vertex -3.402139 -1.824081 -0.305353
endloop
endfacet
facet normal -0.118458 -0.070702 0.990439
outer loop
vertex -1.690848 -0.029248 0.027443
vertex -3.402139 -1.824081 -0.305353
vertex -1.663931 -1.811720 -0.096578
endloop
endfacet
facet normal -0.119445 0.043660 0.991880
outer loop
vertex -1.663931 -1.811720 -0.096578
vertex -3.402139 -1.824081 -0.305353
vertex -3.436632 -3.584656 -0.232012
endloop
endfacet
facet normal -0.042854 -0.033429 0.998522
outer loop
vertex -1.663931 -1.811720 -0.096578
vertex -3.436632 -3.584656 -0.232012
vertex -1.690539 -3.575107 -0.156755
endloop
endfacet
facet normal 0.000000 -0.000945 1.000000
outer loop
vertex -1.772874 5.318623 0.000000
vertex -3.545749 5.318623 0.000000
vertex -3.544961 3.545468 -0.001675
endloop
endfacet
facet normal -0.011240 0.010288 0.999884
outer loop
vertex -1.772874 5.318623 0.000000
vertex -3.544961 3.545468 -0.001675
vertex -1.772874 3.545749 0.018242
endloop
endfacet
facet normal -0.093113 -0.079185 0.992502
outer loop
vertex -1.744252 1.762668 0.074206
vertex -3.502863 1.757583 -0.091186
vertex -3.436632 -0.038907 -0.228302
endloop
endfacet
facet normal -0.144717 -0.030122 0.989015
outer loop
vertex -1.744252 1.762668 0.074206
vertex -3.436632 -0.038907 -0.228302
vertex -1.690848 -0.029248 0.027443
endloop
endfacet
facet normal -0.019167 0.051303 0.998499
outer loop
vertex -1.744179 -5.328855 -0.057688
vertex -3.502863 -5.333915 -0.091186
vertex -3.544961 -7.091778 -0.001675
endloop
endfacet
facet normal -0.000950 0.032726 0.999464
outer loop
vertex -1.744179 -5.328855 -0.057688
vertex -3.544961 -7.091778 -0.001675
vertex -1.772874 -7.091497 0.000000
endloop
endfacet
facet normal -0.111224 0.034316 0.993203
outer loop
vertex 0.003876 -5.320005 0.137763
vertex -1.744179 -5.328855 -0.057688
vertex -1.772874 -7.091497 0.000000
endloop
endfacet
facet normal -0.054831 -0.022636 0.998239
outer loop
vertex 0.003876 -5.320005 0.137763
vertex -1.772874 -7.091497 0.000000
vertex 0.000000 -7.091497 0.097380
endloop
endfacet
facet normal -0.171953 -0.030820 0.984623
outer loop
vertex 0.003673 1.771565 0.379740
vertex -1.744252 1.762668 0.074206
vertex -1.690848 -0.029248 0.027443
endloop
endfacet
facet normal -0.241557 0.037604 0.969658
outer loop
vertex 0.003673 1.771565 0.379740
vertex -1.690848 -0.029248 0.027443
vertex 0.027652 -0.009860 0.454798
endloop
endfacet
facet normal 0.000000 0.010289 0.999947
outer loop
vertex 0.000000 5.318623 0.000000
vertex -1.772874 5.318623 0.000000
vertex -1.772874 3.545749 0.018242
endloop
endfacet
facet normal -0.065563 0.075801 0.994965
outer loop
vertex 0.000000 5.318623 0.000000
vertex -1.772874 3.545749 0.018242
vertex 0.000000 3.545749 0.135065
endloop
endfacet
facet normal -0.232741 -0.029661 0.972086
outer loop
vertex 0.042131 -1.787897 0.312621
vertex -1.663931 -1.811720 -0.096578
vertex -1.690539 -3.575107 -0.156755
endloop
endfacet
facet normal -0.188018 -0.074915 0.979304
outer loop
vertex 0.042131 -1.787897 0.312621
vertex -1.690539 -3.575107 -0.156755
vertex 0.028623 -3.555954 0.174774
endloop
endfacet
facet normal -0.239965 -0.070988 0.968182
outer loop
vertex 0.027652 -0.009860 0.454798
vertex -1.690848 -0.029248 0.027443
vertex -1.663931 -1.811720 -0.096578
endloop
endfacet
facet normal -0.231450 -0.079417 0.969600
outer loop
vertex 0.027652 -0.009860 0.454798
vertex -1.663931 -1.811720 -0.096578
vertex 0.042131 -1.787897 0.312621
endloop
endfacet
facet normal -0.189657 0.061157 0.979944
outer loop
vertex 0.028623 -3.555954 0.174774
vertex -1.690539 -3.575107 -0.156755
vertex -1.744179 -5.328855 -0.057688
endloop
endfacet
facet normal -0.111001 -0.019290 0.993633
outer loop
vertex 0.028623 -3.555954 0.174774
vertex -1.744179 -5.328855 -0.057688
vertex 0.003876 -5.320005 0.137763
endloop
endfacet
facet normal -0.065722 0.030249 0.997379
outer loop
vertex 0.000000 3.545749 0.135065
vertex -1.772874 3.545749 0.018242
vertex -1.744252 1.762668 0.074206
endloop
endfacet
facet normal -0.171292 0.134248 0.976031
outer loop
vertex 0.000000 3.545749 0.135065
vertex -1.744252 1.762668 0.074206
vertex 0.003673 1.771565 0.379740
endloop
endfacet
facet normal 0.000000 0.000000 1.000000
outer loop
vertex 0.000000 7.091497 0.000000
vertex -1.772874 7.091497 0.000000
vertex -1.772874 5.318623 0.000000
endloop
endfacet
facet normal 0.000000 0.000000 1.000000
outer loop
vertex 0.000000 7.091497 0.000000
vertex -1.772874 5.318623 0.000000
vertex 0.000000 5.318623 0.000000
endloop
endfacet
facet normal 0.000000 0.000000 1.000000
outer loop
vertex -3.545749 7.091497 0.000000
vertex -5.318623 7.091497 0.000000
vertex -5.318623 5.318623 0.000000
endloop
endfacet
facet normal 0.000000 0.000000 1.000000
outer loop
vertex -3.545749 7.091497 0.000000
vertex -5.318623 5.318623 0.000000
vertex -3.545749 5.318623 0.000000
endloop
endfacet
facet normal 0.000939 -0.034183 0.999415
outer loop
vertex -3.544961 3.545468 -0.001675
vertex -5.318623 3.545749 0.000000
vertex -5.289927 1.762643 -0.061015
endloop
endfacet
facet normal 0.016720 -0.049603 0.998629
outer loop
vertex -3.544961 3.545468 -0.001675
vertex -5.289927 1.762643 -0.061015
vertex -3.502863 1.757583 -0.091186
endloop
endfacet
facet normal 0.031897 0.063895 0.997447
outer loop
vertex -3.436632 -3.584656 -0.232012
vertex -5.236286 -3.575108 -0.175073
vertex -5.289927 -5.328855 -0.061015
endloop
endfacet
facet normal 0.017052 0.079593 0.996682
outer loop
vertex -3.436632 -3.584656 -0.232012
vertex -5.289927 -5.328855 -0.061015
vertex -3.502863 -5.333915 -0.091186
endloop
endfacet
facet normal 0.029383 -0.031474 0.999073
outer loop
vertex -3.436632 -0.038907 -0.228302
vertex -5.236286 -0.029359 -0.175073
vertex -5.209507 -1.811782 -0.232012
endloop
endfacet
facet normal 0.040222 -0.042311 0.998295
outer loop
vertex -3.436632 -0.038907 -0.228302
vertex -5.209507 -1.811782 -0.232012
vertex -3.402139 -1.824081 -0.305353
endloop
endfacet
facet normal 0.040740 0.031629 0.998669
outer loop
vertex -3.402139 -1.824081 -0.305353
vertex -5.209507 -1.811782 -0.232012
vertex -5.236286 -3.575108 -0.175073
endloop
endfacet
facet normal 0.031814 0.040978 0.998653
outer loop
vertex -3.402139 -1.824081 -0.305353
vertex -5.236286 -3.575108 -0.175073
vertex -3.436632 -3.584656 -0.232012
endloop
endfacet
facet normal 0.000000 0.000000 1.000000
outer loop
vertex -3.545749 5.318623 0.000000
vertex -5.318623 5.318623 0.000000
vertex -5.318623 3.545749 0.000000
endloop
endfacet
facet normal 0.000944 -0.000944 0.999999
outer loop
vertex -3.545749 5.318623 0.000000
vertex -5.318623 3.545749 0.000000
vertex -3.544961 3.545468 -0.001675
endloop
endfacet
facet normal 0.016669 -0.063014 0.997873
outer loop
vertex -3.502863 1.757583 -0.091186
vertex -5.289927 1.762643 -0.061015
vertex -5.236286 -0.029359 -0.175073
endloop
endfacet
facet normal 0.029084 -0.075005 0.996759
outer loop
vertex -3.502863 1.757583 -0.091186
vertex -5.236286 -0.029359 -0.175073
vertex -3.436632 -0.038907 -0.228302
endloop
endfacet
facet normal 0.016968 0.034314 0.999267
outer loop
vertex -3.502863 -5.333915 -0.091186
vertex -5.289927 -5.328855 -0.061015
vertex -5.318623 -7.091497 0.000000
endloop
endfacet
facet normal 0.000951 0.050831 0.998707
outer loop
vertex -3.502863 -5.333915 -0.091186
vertex -5.318623 -7.091497 0.000000
vertex -3.544961 -7.091778 -0.001675
endloop
endfacet
endsolid DTM
