solid inletwall
facet normal 0.999956 0.007894 0.005128
outer loop
vertex -7.060648 -1.766271 2.221945
vertex -7.048612 -1.788166 -0.091186
vertex -7.062802 -0.010232 -0.061015
endloop
endfacet
facet normal 0.999956 0.007894 0.005128
outer loop
vertex -7.060648 -1.766271 2.221945
vertex -7.062802 -0.010232 -0.061015
vertex -7.074681 0.011378 2.221945
endloop
endfacet
facet normal 0.999984 -0.002164 0.005224
outer loop
vertex -7.103059 -7.070465 2.221945
vertex -7.091497 -7.091497 0.000000
vertex -7.087622 -5.320005 -0.008241
endloop
endfacet
facet normal 0.999984 -0.002164 0.005224
outer loop
vertex -7.103059 -7.070465 2.221945
vertex -7.087622 -5.320005 -0.008241
vertex -7.099226 -5.298895 2.221945
endloop
endfacet
facet normal 0.999889 -0.013908 0.005334
outer loop
vertex -7.099226 -5.298895 2.221945
vertex -7.087622 -5.320005 -0.008241
vertex -7.062802 -3.555981 -0.061015
endloop
endfacet
facet normal 0.999889 -0.013908 0.005334
outer loop
vertex -7.099226 -5.298895 2.221945
vertex -7.062802 -3.555981 -0.061015
vertex -7.074681 -3.534371 2.221945
endloop
endfacet
facet normal 0.999892 0.013777 0.005072
outer loop
vertex -7.074681 0.011378 2.221945
vertex -7.062802 -0.010232 -0.061015
vertex -7.087622 1.771492 -0.008241
endloop
endfacet
facet normal 0.999892 0.013779 0.005072
outer loop
vertex -7.074681 0.011378 2.221945
vertex -7.087622 1.771492 -0.008241
vertex -7.099226 1.792603 2.221945
endloop
endfacet
facet normal 0.999984 0.002161 0.005183
outer loop
vertex -7.099226 1.792603 2.221945
vertex -7.087622 1.771492 -0.008241
vertex -7.091497 3.545749 0.000000
endloop
endfacet
facet normal 0.999984 0.002160 0.005183
outer loop
vertex -7.099226 1.792603 2.221945
vertex -7.091497 3.545749 0.000000
vertex -7.103059 3.566781 2.221945
endloop
endfacet
facet normal 0.999986 0.000000 0.005203
outer loop
vertex -7.103059 3.566781 2.221945
vertex -7.091497 3.545749 0.000000
vertex -7.091497 5.318623 0.000000
endloop
endfacet
facet normal 0.999986 0.000000 0.005203
outer loop
vertex -7.103059 3.566781 2.221945
vertex -7.091497 5.318623 0.000000
vertex -7.103059 5.339655 2.221945
endloop
endfacet
facet normal 0.999986 0.000000 0.005203
outer loop
vertex -7.103059 5.339655 2.221945
vertex -7.091497 5.318623 0.000000
vertex -7.091497 7.091497 0.000000
endloop
endfacet
facet normal 0.999986 0.000000 0.005203
outer loop
vertex -7.103059 5.339655 2.221945
vertex -7.091497 7.091497 0.000000
vertex -7.103059 7.112530 2.221945
endloop
endfacet
facet normal 0.999955 -0.007936 0.005278
outer loop
vertex -7.074681 -3.534371 2.221945
vertex -7.062802 -3.555981 -0.061015
vertex -7.048612 -1.788166 -0.091186
endloop
endfacet
facet normal 0.999955 -0.007936 0.005278
outer loop
vertex -7.074681 -3.534371 2.221945
vertex -7.048612 -1.788166 -0.091186
vertex -7.060648 -1.766271 2.221945
endloop
endfacet
endsolid inletwall