solid outlet
facet normal -0.999986 -0.000141 -0.005202
outer loop
vertex 7.091497 -3.545749 0.097380
vertex 7.091497 -5.318623 0.145534
vertex 7.080693 -5.298968 2.221945
endloop
endfacet
facet normal -0.999986 -0.000142 -0.005202
outer loop
vertex 7.091497 -3.545749 0.097380
vertex 7.080693 -5.298968 2.221945
vertex 7.080443 -3.525639 2.221945
endloop
endfacet
facet normal -0.999986 -0.000248 -0.005201
outer loop
vertex 7.091497 -1.772874 0.013152
vertex 7.091497 -3.545749 0.097380
vertex 7.080443 -3.525639 2.221945
endloop
endfacet
facet normal -0.999986 -0.000247 -0.005201
outer loop
vertex 7.091497 -1.772874 0.013152
vertex 7.080443 -3.525639 2.221945
vertex 7.080005 -1.751967 2.221945
endloop
endfacet
facet normal -0.999986 0.000000 -0.005203
outer loop
vertex 7.091497 7.091497 0.000000
vertex 7.091497 5.318623 0.000000
vertex 7.079936 5.339655 2.221945
endloop
endfacet
facet normal -0.999986 0.000000 -0.005203
outer loop
vertex 7.091497 7.091497 0.000000
vertex 7.079936 5.339655 2.221945
vertex 7.079936 7.112530 2.221945
endloop
endfacet
facet normal -0.999986 0.000141 -0.005204
outer loop
vertex 7.091497 -5.318623 0.145534
vertex 7.091497 -7.091497 0.097380
vertex 7.080443 -7.071387 2.221945
endloop
endfacet
facet normal -0.999986 0.000141 -0.005205
outer loop
vertex 7.091497 -5.318623 0.145534
vertex 7.080443 -7.071387 2.221945
vertex 7.080693 -5.298968 2.221945
endloop
endfacet
facet normal -0.999986 -0.000027 -0.005203
outer loop
vertex 7.091497 0.000000 0.003709
vertex 7.091497 -1.772874 0.013152
vertex 7.080005 -1.751967 2.221945
endloop
endfacet
facet normal -0.999986 -0.000028 -0.005203
outer loop
vertex 7.091497 0.000000 0.003709
vertex 7.080005 -1.751967 2.221945
vertex 7.079956 0.020997 2.221945
endloop
endfacet
facet normal -0.999986 -0.000011 -0.005203
outer loop
vertex 7.091497 1.772874 0.000000
vertex 7.091497 0.000000 0.003709
vertex 7.079956 0.020997 2.221945
endloop
endfacet
facet normal -0.999986 -0.000012 -0.005203
outer loop
vertex 7.091497 1.772874 0.000000
vertex 7.079956 0.020997 2.221945
vertex 7.079936 1.793906 2.221945
endloop
endfacet
facet normal -0.999986 0.000000 -0.005203
outer loop
vertex 7.091497 3.545749 0.000000
vertex 7.091497 1.772874 0.000000
vertex 7.079936 1.793906 2.221945
endloop
endfacet
facet normal -0.999986 0.000000 -0.005203
outer loop
vertex 7.091497 3.545749 0.000000
vertex 7.079936 1.793906 2.221945
vertex 7.079936 3.566781 2.221945
endloop
endfacet
facet normal -0.999986 0.000000 -0.005203
outer loop
vertex 7.091497 5.318623 0.000000
vertex 7.091497 3.545749 0.000000
vertex 7.079936 3.566781 2.221945
endloop
endfacet
facet normal -0.999986 0.000000 -0.005203
outer loop
vertex 7.091497 5.318623 0.000000
vertex 7.079936 3.566781 2.221945
vertex 7.079936 5.339655 2.221945
endloop
endfacet
endsolid outlet
