solid wall1
facet normal 0.000000 -0.999955 0.009465
outer loop
vertex -1.772874 7.091497 0.000000
vertex 0.000000 7.091497 0.000000
vertex -0.011561 7.112530 2.221945
endloop
endfacet
facet normal 0.000000 -0.999955 0.009465
outer loop
vertex -1.772874 7.091497 0.000000
vertex -0.011561 7.112530 2.221945
vertex -1.784436 7.112530 2.221945
endloop
endfacet
facet normal 0.000000 -0.999955 0.009465
outer loop
vertex 0.000000 7.091497 0.000000
vertex 1.772874 7.091497 0.000000
vertex 1.761313 7.112530 2.221945
endloop
endfacet
facet normal 0.000000 -0.999955 0.009466
outer loop
vertex 0.000000 7.091497 0.000000
vertex 1.761313 7.112530 2.221945
vertex -0.011561 7.112530 2.221945
endloop
endfacet
facet normal 0.000000 -0.999955 0.009465
outer loop
vertex -3.545749 7.091497 0.000000
vertex -1.772874 7.091497 0.000000
vertex -1.784436 7.112530 2.221945
endloop
endfacet
facet normal 0.000000 -0.999955 0.009466
outer loop
vertex -3.545749 7.091497 0.000000
vertex -1.784436 7.112530 2.221945
vertex -3.557310 7.112530 2.221945
endloop
endfacet
facet normal 0.000000 -0.999955 0.009465
outer loop
vertex -7.091497 7.091497 0.000000
vertex -5.318623 7.091497 0.000000
vertex -5.330184 7.112530 2.221945
endloop
endfacet
facet normal 0.000000 -0.999955 0.009466
outer loop
vertex -7.091497 7.091497 0.000000
vertex -5.330184 7.112530 2.221945
vertex -7.103059 7.112530 2.221945
endloop
endfacet
facet normal 0.000000 -0.999955 0.009465
outer loop
vertex 5.318623 7.091497 0.000000
vertex 7.091497 7.091497 0.000000
vertex 7.079936 7.112530 2.221945
endloop
endfacet
facet normal 0.000000 -0.999955 0.009466
outer loop
vertex 5.318623 7.091497 0.000000
vertex 7.079936 7.112530 2.221945
vertex 5.307062 7.112530 2.221945
endloop
endfacet
facet normal 0.000000 -0.999955 0.009465
outer loop
vertex 1.772874 7.091497 0.000000
vertex 3.545749 7.091497 0.000000
vertex 3.534188 7.112530 2.221945
endloop
endfacet
facet normal 0.000000 -0.999955 0.009465
outer loop
vertex 1.772874 7.091497 0.000000
vertex 3.534188 7.112530 2.221945
vertex 1.761313 7.112530 2.221945
endloop
endfacet
facet normal 0.000000 -0.999955 0.009465
outer loop
vertex -5.318623 7.091497 0.000000
vertex -3.545749 7.091497 0.000000
vertex -3.557310 7.112530 2.221945
endloop
endfacet
facet normal 0.000000 -0.999955 0.009465
outer loop
vertex -5.318623 7.091497 0.000000
vertex -3.557310 7.112530 2.221945
vertex -5.330184 7.112530 2.221945
endloop
endfacet
facet normal 0.000000 -0.999955 0.009465
outer loop
vertex 3.545749 7.091497 0.000000
vertex 5.318623 7.091497 0.000000
vertex 5.307062 7.112530 2.221945
endloop
endfacet
facet normal 0.000000 -0.999955 0.009466
outer loop
vertex 3.545749 7.091497 0.000000
vertex 5.307062 7.112530 2.221945
vertex 3.534188 7.112530 2.221945
endloop
endfacet
endsolid wall1
