solid wall2
facet normal 0.000520 0.999955 -0.009463
outer loop
vertex 0.000000 -7.091497 0.097380
vertex -1.772878 -7.091497 0.000000
vertex -1.784439 -7.070465 2.221945
endloop
endfacet
facet normal 0.000520 0.999955 -0.009463
outer loop
vertex 0.000000 -7.091497 0.097380
vertex -1.784439 -7.070465 2.221945
vertex -0.011055 -7.071387 2.221945
endloop
endfacet
facet normal 0.000149 0.999955 -0.009465
outer loop
vertex -3.544967 -7.091778 -0.001675
vertex -5.318633 -7.091497 0.000000
vertex -5.330194 -7.070465 2.221945
endloop
endfacet
facet normal 0.000149 0.999955 -0.009464
outer loop
vertex -3.544967 -7.091778 -0.001675
vertex -5.330194 -7.070465 2.221945
vertex -3.556537 -7.070730 2.221945
endloop
endfacet
facet normal 0.000485 0.999955 -0.009463
outer loop
vertex 3.545755 -7.091497 0.370293
vertex 1.772878 -7.091497 0.279418
vertex 1.762770 -7.073110 2.221945
endloop
endfacet
facet normal 0.000485 0.999955 -0.009463
outer loop
vertex 3.545755 -7.091497 0.370293
vertex 1.762770 -7.073110 2.221945
vertex 3.536121 -7.073970 2.221945
endloop
endfacet
facet normal -0.000150 0.999955 -0.009466
outer loop
vertex -1.772878 -7.091497 0.000000
vertex -3.544967 -7.091778 -0.001675
vertex -3.556537 -7.070730 2.221945
endloop
endfacet
facet normal -0.000150 0.999955 -0.009466
outer loop
vertex -1.772878 -7.091497 0.000000
vertex -3.556537 -7.070730 2.221945
vertex -1.784439 -7.070465 2.221945
endloop
endfacet
facet normal -0.000972 0.999955 -0.009470
outer loop
vertex 7.091510 -7.091497 0.097380
vertex 5.318633 -7.091497 0.279418
vertex 5.308525 -7.073110 2.221945
endloop
endfacet
facet normal -0.000973 0.999955 -0.009470
outer loop
vertex 7.091510 -7.091497 0.097380
vertex 5.308525 -7.073110 2.221945
vertex 7.080456 -7.071387 2.221945
endloop
endfacet
facet normal 0.000971 0.999955 -0.009461
outer loop
vertex 1.772878 -7.091497 0.279418
vertex 0.000000 -7.091497 0.097380
vertex -0.011055 -7.071387 2.221945
endloop
endfacet
facet normal 0.000971 0.999955 -0.009460
outer loop
vertex 1.772878 -7.091497 0.279418
vertex -0.011055 -7.071387 2.221945
vertex 1.762770 -7.073110 2.221945
endloop
endfacet
facet normal 0.000000 0.999955 -0.009465
outer loop
vertex -5.318633 -7.091497 0.000000
vertex -7.091510 -7.091497 0.000000
vertex -7.103072 -7.070465 2.221945
endloop
endfacet
facet normal 0.000000 0.999955 -0.009466
outer loop
vertex -5.318633 -7.091497 0.000000
vertex -7.103072 -7.070465 2.221945
vertex -5.330194 -7.070465 2.221945
endloop
endfacet
facet normal -0.000485 0.999955 -0.009468
outer loop
vertex 5.318633 -7.091497 0.279418
vertex 3.545755 -7.091497 0.370293
vertex 3.536121 -7.073970 2.221945
endloop
endfacet
facet normal -0.000485 0.999955 -0.009468
outer loop
vertex 5.318633 -7.091497 0.279418
vertex 3.536121 -7.073970 2.221945
vertex 5.308525 -7.073110 2.221945
endloop
endfacet
endsolid wall2
