solid cylinder
facet normal 0.000000 0.000000 -1.000000
outer loop
vertex 0.187980 -0.144680 0.000000
vertex 0.175125 -0.160001 0.000000
vertex -0.175125 0.160001 0.000000
endloop
endfacet
facet normal 0.000000 0.000000 -1.000000
outer loop
vertex -0.175125 0.160001 0.000000
vertex 0.175125 -0.160001 0.000000
vertex -0.187980 0.144680 0.000000
endloop
endfacet
facet normal 0.642788 0.766044 0.000000
outer loop
vertex 0.187980 -0.144680 0.002087
vertex 0.187980 -0.144680 0.000000
vertex -0.175125 0.160001 0.002087
endloop
endfacet
facet normal 0.642788 0.766044 0.000000
outer loop
vertex -0.175125 0.160001 0.002087
vertex 0.187980 -0.144680 0.000000
vertex -0.175125 0.160001 0.000000
endloop
endfacet
facet normal -0.301089 -0.358657 -0.883578
outer loop
vertex 0.172973 -0.162565 0.003861
vertex 0.112397 -0.111855 0.003919
vertex 0.175125 -0.160001 0.002087
endloop
endfacet
facet normal -0.302241 -0.360197 -0.882558
outer loop
vertex 0.175125 -0.160001 0.002087
vertex 0.112397 -0.111855 0.003919
vertex 0.051879 -0.061075 0.003919
endloop
endfacet
facet normal -0.302240 -0.360195 -0.882559
outer loop
vertex 0.175125 -0.160001 0.002087
vertex 0.051879 -0.061075 0.003919
vertex -0.008638 -0.010295 0.003919
endloop
endfacet
facet normal -0.386712 -0.460865 -0.798785
outer loop
vertex -0.008638 -0.010295 0.003919
vertex 0.051879 -0.061075 0.003919
vertex -0.010639 -0.012679 0.006263
endloop
endfacet
facet normal -0.386712 -0.460865 -0.798785
outer loop
vertex -0.008638 -0.010295 0.003919
vertex -0.010639 -0.012679 0.006263
vertex -0.071156 0.038102 0.006263
endloop
endfacet
facet normal -0.461792 -0.550342 -0.695609
outer loop
vertex -0.071156 0.038102 0.006263
vertex -0.010639 -0.012679 0.006263
vertex -0.072898 0.036025 0.009062
endloop
endfacet
facet normal -0.461792 -0.550342 -0.695609
outer loop
vertex -0.071156 0.038102 0.006263
vertex -0.072898 0.036025 0.009062
vertex -0.133416 0.086806 0.009062
endloop
endfacet
facet normal -0.525654 -0.626450 -0.575541
outer loop
vertex -0.133416 0.086806 0.009062
vertex -0.072898 0.036025 0.009062
vertex -0.134857 0.085088 0.012248
endloop
endfacet
facet normal -0.525362 -0.626693 -0.575543
outer loop
vertex -0.133416 0.086806 0.009062
vertex -0.134857 0.085088 0.012248
vertex -0.195230 0.136040 0.011878
endloop
endfacet
facet normal -0.571390 -0.680383 -0.458903
outer loop
vertex -0.195230 0.136040 0.011878
vertex -0.134857 0.085088 0.012248
vertex -0.196348 0.134708 0.015243
endloop
endfacet
facet normal -0.576399 -0.687642 -0.441490
outer loop
vertex -0.196348 0.134708 0.015243
vertex -0.134857 0.085088 0.012248
vertex -0.135963 0.083770 0.015744
endloop
endfacet
facet normal -0.609461 -0.725634 -0.319393
outer loop
vertex -0.196348 0.134708 0.015243
vertex -0.135963 0.083770 0.015744
vertex -0.197126 0.133781 0.018833
endloop
endfacet
facet normal -0.613430 -0.731888 -0.296721
outer loop
vertex -0.197126 0.133781 0.018833
vertex -0.135963 0.083770 0.015744
vertex -0.136706 0.082885 0.019465
endloop
endfacet
facet normal -0.633541 -0.754222 -0.172554
outer loop
vertex -0.197126 0.133781 0.018833
vertex -0.136706 0.082885 0.019465
vertex -0.197546 0.133281 0.022564
endloop
endfacet
facet normal -0.635557 -0.758365 -0.144741
outer loop
vertex -0.197546 0.133281 0.022564
vertex -0.136706 0.082885 0.019465
vertex -0.137068 0.082453 0.023320
endloop
endfacet
facet normal -0.643081 -0.765489 -0.021744
outer loop
vertex -0.197546 0.133281 0.022564
vertex -0.137068 0.082453 0.023320
vertex -0.197599 0.133218 0.026352
endloop
endfacet
facet normal -0.642240 -0.766428 0.010752
outer loop
vertex -0.197599 0.133218 0.026352
vertex -0.137068 0.082453 0.023320
vertex -0.137041 0.082485 0.027216
endloop
endfacet
facet normal -0.637861 -0.759175 0.129561
outer loop
vertex -0.197599 0.133218 0.026352
vertex -0.137041 0.082485 0.027216
vertex -0.197283 0.133594 0.030108
endloop
endfacet
facet normal -0.633318 -0.755882 0.165986
outer loop
vertex -0.197283 0.133594 0.030108
vertex -0.137041 0.082485 0.027216
vertex -0.136626 0.082980 0.031058
endloop
endfacet
facet normal -0.618003 -0.735427 0.277885
outer loop
vertex -0.197283 0.133594 0.030108
vertex -0.136626 0.082980 0.031058
vertex -0.196607 0.134400 0.033747
endloop
endfacet
facet normal -0.609005 -0.726985 0.317185
outer loop
vertex -0.196607 0.134400 0.033747
vertex -0.136626 0.082980 0.031058
vertex -0.135831 0.083927 0.034753
endloop
endfacet
facet normal -0.583963 -0.694785 0.419835
outer loop
vertex -0.196607 0.134400 0.033747
vertex -0.135831 0.083927 0.034753
vertex -0.195584 0.135618 0.037185
endloop
endfacet
facet normal -0.569888 -0.680438 0.460686
outer loop
vertex -0.195584 0.135618 0.037185
vertex -0.135831 0.083927 0.034753
vertex -0.134678 0.085302 0.038211
endloop
endfacet
facet normal -0.536524 -0.638184 0.552144
outer loop
vertex -0.195584 0.135618 0.037185
vertex -0.134678 0.085302 0.038211
vertex -0.194240 0.137221 0.040343
endloop
endfacet
facet normal -0.516922 -0.617374 0.592993
outer loop
vertex -0.194240 0.137221 0.040343
vertex -0.134678 0.085302 0.038211
vertex -0.133193 0.087072 0.041348
endloop
endfacet
facet normal -0.476772 -0.566922 0.671780
outer loop
vertex -0.194240 0.137221 0.040343
vertex -0.133193 0.087072 0.041348
vertex -0.192604 0.139170 0.043149
endloop
endfacet
facet normal -0.451389 -0.539326 0.710898
outer loop
vertex -0.192604 0.139170 0.043149
vertex -0.133193 0.087072 0.041348
vertex -0.131412 0.089193 0.044088
endloop
endfacet
facet normal -0.406091 -0.482637 0.775985
outer loop
vertex -0.168689 0.122023 0.045000
vertex -0.191141 0.140914 0.045000
vertex -0.192604 0.139170 0.043149
endloop
endfacet
facet normal -0.406090 -0.482637 0.775984
outer loop
vertex -0.168689 0.122023 0.045000
vertex -0.192604 0.139170 0.043149
vertex -0.131412 0.089193 0.044088
endloop
endfacet
facet normal -0.374877 -0.448186 0.811540
outer loop
vertex -0.168689 0.122023 0.045000
vertex -0.131412 0.089193 0.044088
vertex -0.130598 0.090163 0.045000
endloop
endfacet
facet normal 0.376283 0.447015 0.811534
outer loop
vertex -0.149462 0.144937 0.045000
vertex -0.111472 0.112958 0.045000
vertex -0.110658 0.113928 0.044088
endloop
endfacet
facet normal 0.404788 0.483730 0.775985
outer loop
vertex -0.149462 0.144937 0.045000
vertex -0.110658 0.113928 0.044088
vertex -0.170501 0.165511 0.043149
endloop
endfacet
facet normal 0.404787 0.483726 0.775988
outer loop
vertex -0.149462 0.144937 0.045000
vertex -0.170501 0.165511 0.043149
vertex -0.171965 0.163767 0.045000
endloop
endfacet
facet normal 0.452747 0.538182 0.710901
outer loop
vertex -0.170501 0.165511 0.043149
vertex -0.110658 0.113928 0.044088
vertex -0.108877 0.116049 0.041348
endloop
endfacet
facet normal 0.475519 0.567978 0.671776
outer loop
vertex -0.170501 0.165511 0.043149
vertex -0.108877 0.116049 0.041348
vertex -0.168865 0.167461 0.040343
endloop
endfacet
facet normal 0.518232 0.616274 0.592994
outer loop
vertex -0.168865 0.167461 0.040343
vertex -0.108877 0.116049 0.041348
vertex -0.107392 0.117819 0.038211
endloop
endfacet
facet normal 0.535325 0.639193 0.552141
outer loop
vertex -0.168865 0.167461 0.040343
vertex -0.107392 0.117819 0.038211
vertex -0.167521 0.169063 0.037185
endloop
endfacet
facet normal 0.571138 0.679386 0.460691
outer loop
vertex -0.167521 0.169063 0.037185
vertex -0.107392 0.117819 0.038211
vertex -0.106239 0.119194 0.034753
endloop
endfacet
facet normal 0.582825 0.695739 0.419835
outer loop
vertex -0.167521 0.169063 0.037185
vertex -0.106239 0.119194 0.034753
vertex -0.166498 0.170281 0.033747
endloop
endfacet
facet normal 0.610187 0.725992 0.317188
outer loop
vertex -0.166498 0.170281 0.033747
vertex -0.106239 0.119194 0.034753
vertex -0.105444 0.120141 0.031058
endloop
endfacet
facet normal 0.616939 0.736320 0.277882
outer loop
vertex -0.166498 0.170281 0.033747
vertex -0.105444 0.120141 0.031058
vertex -0.165822 0.171088 0.030108
endloop
endfacet
facet normal 0.634423 0.754954 0.165990
outer loop
vertex -0.165822 0.171088 0.030108
vertex -0.105444 0.120141 0.031058
vertex -0.105029 0.120636 0.027216
endloop
endfacet
facet normal 0.636879 0.760000 0.129561
outer loop
vertex -0.165822 0.171088 0.030108
vertex -0.105029 0.120636 0.027216
vertex -0.165506 0.171464 0.026352
endloop
endfacet
facet normal 0.643260 0.765573 0.010746
outer loop
vertex -0.165506 0.171464 0.026352
vertex -0.105029 0.120636 0.027216
vertex -0.105002 0.120668 0.023320
endloop
endfacet
facet normal 0.642190 0.766237 -0.021741
outer loop
vertex -0.165506 0.171464 0.026352
vertex -0.105002 0.120668 0.023320
vertex -0.165559 0.171401 0.022564
endloop
endfacet
facet normal 0.636481 0.757590 -0.144741
outer loop
vertex -0.165559 0.171401 0.022564
vertex -0.105002 0.120668 0.023320
vertex -0.105364 0.120236 0.019465
endloop
endfacet
facet normal 0.632750 0.754886 -0.172551
outer loop
vertex -0.165559 0.171401 0.022564
vertex -0.105364 0.120236 0.019465
vertex -0.165979 0.170900 0.018833
endloop
endfacet
facet normal 0.614249 0.731201 -0.296721
outer loop
vertex -0.165979 0.170900 0.018833
vertex -0.105364 0.120236 0.019465
vertex -0.106107 0.119351 0.015744
endloop
endfacet
facet normal 0.608778 0.726206 -0.319396
outer loop
vertex -0.165979 0.170900 0.018833
vertex -0.106107 0.119351 0.015744
vertex -0.166757 0.169973 0.015243
endloop
endfacet
facet normal 0.577103 0.687049 -0.441491
outer loop
vertex -0.166757 0.169973 0.015243
vertex -0.106107 0.119351 0.015744
vertex -0.107213 0.118033 0.012248
endloop
endfacet
facet normal 0.570826 0.680857 -0.458903
outer loop
vertex -0.166757 0.169973 0.015243
vertex -0.107213 0.118033 0.012248
vertex -0.167875 0.168641 0.011878
endloop
endfacet
facet normal 0.525946 0.626207 -0.575539
outer loop
vertex -0.167875 0.168641 0.011878
vertex -0.107213 0.118033 0.012248
vertex -0.108654 0.116315 0.009062
endloop
endfacet
facet normal 0.519764 0.619874 -0.587879
outer loop
vertex -0.167875 0.168641 0.011878
vertex -0.108654 0.116315 0.009062
vertex -0.169306 0.166935 0.008813
endloop
endfacet
facet normal 0.462017 0.550153 -0.695609
outer loop
vertex -0.169306 0.166935 0.008813
vertex -0.108654 0.116315 0.009062
vertex -0.110396 0.114239 0.006263
endloop
endfacet
facet normal 0.456771 0.544663 -0.703351
outer loop
vertex -0.169306 0.166935 0.008813
vertex -0.110396 0.114239 0.006263
vertex -0.171019 0.164894 0.006120
endloop
endfacet
facet normal 0.386864 0.460733 -0.798787
outer loop
vertex -0.171019 0.164894 0.006120
vertex -0.110396 0.114239 0.006263
vertex -0.112397 0.111855 0.003919
endloop
endfacet
facet normal 0.383292 0.456947 -0.802675
outer loop
vertex -0.171019 0.164894 0.006120
vertex -0.112397 0.111855 0.003919
vertex -0.172973 0.162565 0.003861
endloop
endfacet
facet normal 0.301089 0.358657 -0.883578
outer loop
vertex -0.172973 0.162565 0.003861
vertex -0.112397 0.111855 0.003919
vertex -0.175125 0.160001 0.002087
endloop
endfacet
facet normal 0.302241 0.360196 -0.882558
outer loop
vertex -0.175125 0.160001 0.002087
vertex -0.112397 0.111855 0.003919
vertex -0.051879 0.061075 0.003919
endloop
endfacet
facet normal 0.302239 0.360195 -0.882559
outer loop
vertex -0.175125 0.160001 0.002087
vertex -0.051879 0.061075 0.003919
vertex 0.008638 0.010295 0.003919
endloop
endfacet
facet normal 0.386712 0.460866 -0.798784
outer loop
vertex 0.008638 0.010295 0.003919
vertex -0.051879 0.061075 0.003919
vertex 0.010639 0.012679 0.006263
endloop
endfacet
facet normal 0.386712 0.460865 -0.798785
outer loop
vertex 0.008638 0.010295 0.003919
vertex 0.010639 0.012679 0.006263
vertex 0.071156 -0.038102 0.006263
endloop
endfacet
facet normal 0.461792 0.550342 -0.695609
outer loop
vertex 0.071156 -0.038102 0.006263
vertex 0.010639 0.012679 0.006263
vertex 0.072898 -0.036025 0.009062
endloop
endfacet
facet normal 0.461792 0.550342 -0.695609
outer loop
vertex 0.071156 -0.038102 0.006263
vertex 0.072898 -0.036025 0.009062
vertex 0.133416 -0.086806 0.009062
endloop
endfacet
facet normal 0.525655 0.626451 -0.575540
outer loop
vertex 0.133416 -0.086806 0.009062
vertex 0.072898 -0.036025 0.009062
vertex 0.134857 -0.085088 0.012248
endloop
endfacet
facet normal 0.525362 0.626693 -0.575543
outer loop
vertex 0.133416 -0.086806 0.009062
vertex 0.134857 -0.085088 0.012248
vertex 0.195230 -0.136040 0.011878
endloop
endfacet
facet normal 0.571390 0.680383 -0.458903
outer loop
vertex 0.195230 -0.136040 0.011878
vertex 0.134857 -0.085088 0.012248
vertex 0.196348 -0.134708 0.015243
endloop
endfacet
facet normal 0.576399 0.687642 -0.441490
outer loop
vertex 0.196348 -0.134708 0.015243
vertex 0.134857 -0.085088 0.012248
vertex 0.135963 -0.083770 0.015744
endloop
endfacet
facet normal 0.609461 0.725634 -0.319393
outer loop
vertex 0.196348 -0.134708 0.015243
vertex 0.135963 -0.083770 0.015744
vertex 0.197126 -0.133781 0.018833
endloop
endfacet
facet normal 0.613430 0.731888 -0.296721
outer loop
vertex 0.197126 -0.133781 0.018833
vertex 0.135963 -0.083770 0.015744
vertex 0.136706 -0.082885 0.019465
endloop
endfacet
facet normal 0.633541 0.754222 -0.172554
outer loop
vertex 0.197126 -0.133781 0.018833
vertex 0.136706 -0.082885 0.019465
vertex 0.197546 -0.133281 0.022564
endloop
endfacet
facet normal 0.635558 0.758365 -0.144738
outer loop
vertex 0.197546 -0.133281 0.022564
vertex 0.136706 -0.082885 0.019465
vertex 0.137068 -0.082453 0.023320
endloop
endfacet
facet normal 0.643081 0.765489 -0.021747
outer loop
vertex 0.197546 -0.133281 0.022564
vertex 0.137068 -0.082453 0.023320
vertex 0.197599 -0.133218 0.026352
endloop
endfacet
facet normal 0.642240 0.766428 0.010755
outer loop
vertex 0.197599 -0.133218 0.026352
vertex 0.137068 -0.082453 0.023320
vertex 0.137041 -0.082485 0.027216
endloop
endfacet
facet normal 0.637862 0.759175 0.129558
outer loop
vertex 0.197599 -0.133218 0.026352
vertex 0.137041 -0.082485 0.027216
vertex 0.197283 -0.133594 0.030108
endloop
endfacet
facet normal 0.633318 0.755882 0.165986
outer loop
vertex 0.197283 -0.133594 0.030108
vertex 0.137041 -0.082485 0.027216
vertex 0.136626 -0.082980 0.031058
endloop
endfacet
facet normal 0.618003 0.735427 0.277885
outer loop
vertex 0.197283 -0.133594 0.030108
vertex 0.136626 -0.082980 0.031058
vertex 0.196607 -0.134400 0.033747
endloop
endfacet
facet normal 0.609005 0.726985 0.317185
outer loop
vertex 0.196607 -0.134400 0.033747
vertex 0.136626 -0.082980 0.031058
vertex 0.135831 -0.083927 0.034753
endloop
endfacet
facet normal 0.583963 0.694785 0.419835
outer loop
vertex 0.196607 -0.134400 0.033747
vertex 0.135831 -0.083927 0.034753
vertex 0.195584 -0.135618 0.037185
endloop
endfacet
facet normal 0.569888 0.680438 0.460686
outer loop
vertex 0.195584 -0.135618 0.037185
vertex 0.135831 -0.083927 0.034753
vertex 0.134678 -0.085302 0.038211
endloop
endfacet
facet normal 0.536523 0.638183 0.552146
outer loop
vertex 0.195584 -0.135618 0.037185
vertex 0.134678 -0.085302 0.038211
vertex 0.194240 -0.137220 0.040343
endloop
endfacet
facet normal 0.516923 0.617375 0.592991
outer loop
vertex 0.194240 -0.137220 0.040343
vertex 0.134678 -0.085302 0.038211
vertex 0.133193 -0.087072 0.041348
endloop
endfacet
facet normal 0.476772 0.566922 0.671780
outer loop
vertex 0.194240 -0.137220 0.040343
vertex 0.133193 -0.087072 0.041348
vertex 0.192604 -0.139170 0.043149
endloop
endfacet
facet normal 0.451389 0.539326 0.710898
outer loop
vertex 0.192604 -0.139170 0.043149
vertex 0.133193 -0.087072 0.041348
vertex 0.131412 -0.089193 0.044088
endloop
endfacet
facet normal 0.406089 0.482636 0.775986
outer loop
vertex 0.192604 -0.139170 0.043149
vertex 0.131412 -0.089193 0.044088
vertex 0.168689 -0.122023 0.045000
endloop
endfacet
facet normal 0.406092 0.482638 0.775983
outer loop
vertex 0.192604 -0.139170 0.043149
vertex 0.168689 -0.122023 0.045000
vertex 0.191141 -0.140914 0.045000
endloop
endfacet
facet normal 0.374878 0.448188 0.811538
outer loop
vertex 0.130598 -0.090163 0.045000
vertex 0.168689 -0.122023 0.045000
vertex 0.131412 -0.089193 0.044088
endloop
endfacet
facet normal -0.376285 -0.447016 0.811533
outer loop
vertex 0.110658 -0.113927 0.044088
vertex 0.149462 -0.144937 0.045000
vertex 0.111472 -0.112958 0.045000
endloop
endfacet
facet normal -0.404788 -0.483730 0.775984
outer loop
vertex 0.110658 -0.113927 0.044088
vertex 0.170501 -0.165511 0.043149
vertex 0.171965 -0.163767 0.045000
endloop
endfacet
facet normal -0.404787 -0.483722 0.775990
outer loop
vertex 0.110658 -0.113927 0.044088
vertex 0.171965 -0.163767 0.045000
vertex 0.149462 -0.144937 0.045000
endloop
endfacet
facet normal -0.452747 -0.538182 0.710901
outer loop
vertex 0.170501 -0.165511 0.043149
vertex 0.110658 -0.113927 0.044088
vertex 0.108877 -0.116049 0.041348
endloop
endfacet
facet normal -0.475519 -0.567978 0.671776
outer loop
vertex 0.170501 -0.165511 0.043149
vertex 0.108877 -0.116049 0.041348
vertex 0.168865 -0.167461 0.040343
endloop
endfacet
facet normal -0.518232 -0.616274 0.592994
outer loop
vertex 0.168865 -0.167461 0.040343
vertex 0.108877 -0.116049 0.041348
vertex 0.107392 -0.117819 0.038211
endloop
endfacet
facet normal -0.535323 -0.639190 0.552146
outer loop
vertex 0.168865 -0.167461 0.040343
vertex 0.107392 -0.117819 0.038211
vertex 0.167521 -0.169063 0.037185
endloop
endfacet
facet normal -0.571139 -0.679388 0.460687
outer loop
vertex 0.167521 -0.169063 0.037185
vertex 0.107392 -0.117819 0.038211
vertex 0.106239 -0.119194 0.034753
endloop
endfacet
facet normal -0.582825 -0.695739 0.419835
outer loop
vertex 0.167521 -0.169063 0.037185
vertex 0.106239 -0.119194 0.034753
vertex 0.166498 -0.170281 0.033747
endloop
endfacet
facet normal -0.610187 -0.725991 0.317188
outer loop
vertex 0.166498 -0.170281 0.033747
vertex 0.106239 -0.119194 0.034753
vertex 0.105444 -0.120141 0.031058
endloop
endfacet
facet normal -0.616938 -0.736319 0.277888
outer loop
vertex 0.166498 -0.170281 0.033747
vertex 0.105444 -0.120141 0.031058
vertex 0.165822 -0.171088 0.030108
endloop
endfacet
facet normal -0.634423 -0.754954 0.165984
outer loop
vertex 0.165822 -0.171088 0.030108
vertex 0.105444 -0.120141 0.031058
vertex 0.105029 -0.120636 0.027216
endloop
endfacet
facet normal -0.636879 -0.760000 0.129561
outer loop
vertex 0.165822 -0.171088 0.030108
vertex 0.105029 -0.120636 0.027216
vertex 0.165506 -0.171464 0.026352
endloop
endfacet
facet normal -0.643260 -0.765573 0.010752
outer loop
vertex 0.165506 -0.171464 0.026352
vertex 0.105029 -0.120636 0.027216
vertex 0.105002 -0.120668 0.023320
endloop
endfacet
facet normal -0.642190 -0.766237 -0.021747
outer loop
vertex 0.165506 -0.171464 0.026352
vertex 0.105002 -0.120668 0.023320
vertex 0.165559 -0.171401 0.022564
endloop
endfacet
facet normal -0.636481 -0.757590 -0.144741
outer loop
vertex 0.165559 -0.171401 0.022564
vertex 0.105002 -0.120668 0.023320
vertex 0.105364 -0.120236 0.019465
endloop
endfacet
facet normal -0.632750 -0.754886 -0.172551
outer loop
vertex 0.165559 -0.171401 0.022564
vertex 0.105364 -0.120236 0.019465
vertex 0.165979 -0.170900 0.018833
endloop
endfacet
facet normal -0.614249 -0.731201 -0.296721
outer loop
vertex 0.165979 -0.170900 0.018833
vertex 0.105364 -0.120236 0.019465
vertex 0.106107 -0.119351 0.015744
endloop
endfacet
facet normal -0.608778 -0.726206 -0.319396
outer loop
vertex 0.165979 -0.170900 0.018833
vertex 0.106107 -0.119351 0.015744
vertex 0.166757 -0.169973 0.015243
endloop
endfacet
facet normal -0.577103 -0.687050 -0.441492
outer loop
vertex 0.166757 -0.169973 0.015243
vertex 0.106107 -0.119351 0.015744
vertex 0.107213 -0.118033 0.012248
endloop
endfacet
facet normal -0.570826 -0.680857 -0.458903
outer loop
vertex 0.166757 -0.169973 0.015243
vertex 0.107213 -0.118033 0.012248
vertex 0.167875 -0.168641 0.011878
endloop
endfacet
facet normal -0.525946 -0.626207 -0.575539
outer loop
vertex 0.167875 -0.168641 0.011878
vertex 0.107213 -0.118033 0.012248
vertex 0.108654 -0.116315 0.009062
endloop
endfacet
facet normal -0.519764 -0.619874 -0.587879
outer loop
vertex 0.167875 -0.168641 0.011878
vertex 0.108654 -0.116315 0.009062
vertex 0.169306 -0.166935 0.008813
endloop
endfacet
facet normal -0.462019 -0.550155 -0.695606
outer loop
vertex 0.169306 -0.166935 0.008813
vertex 0.108654 -0.116315 0.009062
vertex 0.110396 -0.114239 0.006263
endloop
endfacet
facet normal -0.456769 -0.544661 -0.703354
outer loop
vertex 0.169306 -0.166935 0.008813
vertex 0.110396 -0.114239 0.006263
vertex 0.171019 -0.164894 0.006120
endloop
endfacet
facet normal -0.386866 -0.460735 -0.798786
outer loop
vertex 0.171019 -0.164894 0.006120
vertex 0.110396 -0.114239 0.006263
vertex 0.112397 -0.111855 0.003919
endloop
endfacet
facet normal -0.383290 -0.456945 -0.802677
outer loop
vertex 0.171019 -0.164894 0.006120
vertex 0.112397 -0.111855 0.003919
vertex 0.172973 -0.162565 0.003861
endloop
endfacet
facet normal 0.520203 0.619510 -0.587874
outer loop
vertex 0.195230 -0.136040 0.011878
vertex 0.193799 -0.137746 0.008813
vertex 0.133416 -0.086806 0.009062
endloop
endfacet
facet normal 0.461567 0.550531 -0.695609
outer loop
vertex 0.133416 -0.086806 0.009062
vertex 0.193799 -0.137746 0.008813
vertex 0.131674 -0.088882 0.006263
endloop
endfacet
facet normal 0.461792 0.550342 -0.695609
outer loop
vertex 0.133416 -0.086806 0.009062
vertex 0.131674 -0.088882 0.006263
vertex 0.071156 -0.038102 0.006263
endloop
endfacet
facet normal 0.386711 0.460864 -0.798786
outer loop
vertex 0.071156 -0.038102 0.006263
vertex 0.131674 -0.088882 0.006263
vertex 0.069156 -0.040486 0.003919
endloop
endfacet
facet normal 0.386711 0.460865 -0.798785
outer loop
vertex 0.071156 -0.038102 0.006263
vertex 0.069156 -0.040486 0.003919
vertex 0.008638 0.010295 0.003919
endloop
endfacet
facet normal 0.302236 0.360191 -0.882562
outer loop
vertex 0.008638 0.010295 0.003919
vertex 0.069156 -0.040486 0.003919
vertex -0.175125 0.160001 0.002087
endloop
endfacet
facet normal 0.457070 0.544410 -0.703352
outer loop
vertex 0.193799 -0.137746 0.008813
vertex 0.192086 -0.139787 0.006120
vertex 0.131674 -0.088882 0.006263
endloop
endfacet
facet normal 0.386556 0.460993 -0.798787
outer loop
vertex 0.131674 -0.088882 0.006263
vertex 0.192086 -0.139787 0.006120
vertex 0.129673 -0.091266 0.003919
endloop
endfacet
facet normal 0.386711 0.460865 -0.798786
outer loop
vertex 0.131674 -0.088882 0.006263
vertex 0.129673 -0.091266 0.003919
vertex 0.069156 -0.040486 0.003919
endloop
endfacet
facet normal 0.302238 0.360193 -0.882560
outer loop
vertex 0.069156 -0.040486 0.003919
vertex 0.129673 -0.091266 0.003919
vertex -0.175125 0.160001 0.002087
endloop
endfacet
facet normal 0.383445 0.456815 -0.802677
outer loop
vertex 0.192086 -0.139787 0.006120
vertex 0.190132 -0.142116 0.003861
vertex 0.129673 -0.091266 0.003919
endloop
endfacet
facet normal 0.307406 0.366494 -0.878170
outer loop
vertex 0.129673 -0.091266 0.003919
vertex 0.190132 -0.142116 0.003861
vertex -0.175125 0.160001 0.002087
endloop
endfacet
facet normal 0.301010 0.358729 -0.883576
outer loop
vertex 0.190132 -0.142116 0.003861
vertex 0.187980 -0.144680 0.002087
vertex -0.175125 0.160001 0.002087
endloop
endfacet
facet normal -0.520203 -0.619510 -0.587874
outer loop
vertex -0.195230 0.136040 0.011878
vertex -0.193799 0.137746 0.008813
vertex -0.133416 0.086806 0.009062
endloop
endfacet
facet normal -0.461567 -0.550531 -0.695608
outer loop
vertex -0.133416 0.086806 0.009062
vertex -0.193799 0.137746 0.008813
vertex -0.131674 0.088882 0.006263
endloop
endfacet
facet normal -0.461792 -0.550342 -0.695609
outer loop
vertex -0.133416 0.086806 0.009062
vertex -0.131674 0.088882 0.006263
vertex -0.071156 0.038102 0.006263
endloop
endfacet
facet normal -0.386711 -0.460864 -0.798786
outer loop
vertex -0.071156 0.038102 0.006263
vertex -0.131674 0.088882 0.006263
vertex -0.069156 0.040486 0.003919
endloop
endfacet
facet normal -0.386711 -0.460864 -0.798786
outer loop
vertex -0.071156 0.038102 0.006263
vertex -0.069156 0.040486 0.003919
vertex -0.008638 -0.010295 0.003919
endloop
endfacet
facet normal -0.302238 -0.360194 -0.882560
outer loop
vertex -0.008638 -0.010295 0.003919
vertex -0.069156 0.040486 0.003919
vertex 0.175125 -0.160001 0.002087
endloop
endfacet
facet normal -0.457070 -0.544410 -0.703352
outer loop
vertex -0.193799 0.137746 0.008813
vertex -0.192086 0.139787 0.006120
vertex -0.131674 0.088882 0.006263
endloop
endfacet
facet normal -0.386555 -0.460993 -0.798787
outer loop
vertex -0.131674 0.088882 0.006263
vertex -0.192086 0.139787 0.006120
vertex -0.129673 0.091266 0.003919
endloop
endfacet
facet normal -0.386710 -0.460864 -0.798786
outer loop
vertex -0.131674 0.088882 0.006263
vertex -0.129673 0.091266 0.003919
vertex -0.069156 0.040486 0.003919
endloop
endfacet
facet normal -0.302238 -0.360194 -0.882560
outer loop
vertex -0.069156 0.040486 0.003919
vertex -0.129673 0.091266 0.003919
vertex 0.175125 -0.160001 0.002087
endloop
endfacet
facet normal -0.383445 -0.456815 -0.802677
outer loop
vertex -0.192086 0.139787 0.006120
vertex -0.190132 0.142116 0.003861
vertex -0.129673 0.091266 0.003919
endloop
endfacet
facet normal -0.307408 -0.366496 -0.878169
outer loop
vertex -0.129673 0.091266 0.003919
vertex -0.190132 0.142116 0.003861
vertex 0.175125 -0.160001 0.002087
endloop
endfacet
facet normal -0.301010 -0.358729 -0.883576
outer loop
vertex -0.190132 0.142116 0.003861
vertex -0.187980 0.144680 0.002087
vertex 0.175125 -0.160001 0.002087
endloop
endfacet
facet normal -0.386712 -0.460865 -0.798785
outer loop
vertex 0.051879 -0.061075 0.003919
vertex 0.112397 -0.111855 0.003919
vertex 0.049879 -0.063459 0.006263
endloop
endfacet
facet normal -0.386711 -0.460864 -0.798786
outer loop
vertex 0.049879 -0.063459 0.006263
vertex 0.112397 -0.111855 0.003919
vertex 0.110396 -0.114239 0.006263
endloop
endfacet
facet normal -0.461792 -0.550342 -0.695609
outer loop
vertex 0.049879 -0.063459 0.006263
vertex 0.110396 -0.114239 0.006263
vertex 0.048137 -0.065535 0.009062
endloop
endfacet
facet normal -0.461791 -0.550341 -0.695610
outer loop
vertex 0.048137 -0.065535 0.009062
vertex 0.110396 -0.114239 0.006263
vertex 0.108654 -0.116315 0.009062
endloop
endfacet
facet normal -0.525655 -0.626451 -0.575539
outer loop
vertex 0.048137 -0.065535 0.009062
vertex 0.108654 -0.116315 0.009062
vertex 0.046695 -0.067253 0.012248
endloop
endfacet
facet normal -0.525655 -0.626451 -0.575540
outer loop
vertex 0.046695 -0.067253 0.012248
vertex 0.108654 -0.116315 0.009062
vertex 0.107213 -0.118033 0.012248
endloop
endfacet
facet normal -0.576750 -0.687344 -0.441493
outer loop
vertex 0.046695 -0.067253 0.012248
vertex 0.107213 -0.118033 0.012248
vertex 0.045590 -0.068570 0.015744
endloop
endfacet
facet normal -0.576752 -0.687345 -0.441491
outer loop
vertex 0.045590 -0.068570 0.015744
vertex 0.107213 -0.118033 0.012248
vertex 0.106107 -0.119351 0.015744
endloop
endfacet
facet normal -0.613839 -0.731545 -0.296720
outer loop
vertex 0.045590 -0.068570 0.015744
vertex 0.106107 -0.119351 0.015744
vertex 0.044847 -0.069456 0.019465
endloop
endfacet
facet normal -0.613839 -0.731545 -0.296721
outer loop
vertex 0.044847 -0.069456 0.019465
vertex 0.106107 -0.119351 0.015744
vertex 0.105364 -0.120236 0.019465
endloop
endfacet
facet normal -0.636018 -0.757977 -0.144744
outer loop
vertex 0.044847 -0.069456 0.019465
vertex 0.105364 -0.120236 0.019465
vertex 0.044484 -0.069888 0.023320
endloop
endfacet
facet normal -0.636019 -0.757978 -0.144740
outer loop
vertex 0.044484 -0.069888 0.023320
vertex 0.105364 -0.120236 0.019465
vertex 0.105002 -0.120668 0.023320
endloop
endfacet
facet normal -0.642750 -0.766000 0.010754
outer loop
vertex 0.044484 -0.069888 0.023320
vertex 0.105002 -0.120668 0.023320
vertex 0.044511 -0.069856 0.027216
endloop
endfacet
facet normal -0.642750 -0.766000 0.010752
outer loop
vertex 0.044511 -0.069856 0.027216
vertex 0.105002 -0.120668 0.023320
vertex 0.105029 -0.120636 0.027216
endloop
endfacet
facet normal -0.633871 -0.755418 0.165988
outer loop
vertex 0.044511 -0.069856 0.027216
vertex 0.105029 -0.120636 0.027216
vertex 0.044927 -0.069361 0.031058
endloop
endfacet
facet normal -0.633871 -0.755418 0.165986
outer loop
vertex 0.044927 -0.069361 0.031058
vertex 0.105029 -0.120636 0.027216
vertex 0.105444 -0.120141 0.031058
endloop
endfacet
facet normal -0.609597 -0.726489 0.317183
outer loop
vertex 0.044927 -0.069361 0.031058
vertex 0.105444 -0.120141 0.031058
vertex 0.045721 -0.068414 0.034753
endloop
endfacet
facet normal -0.609596 -0.726488 0.317187
outer loop
vertex 0.045721 -0.068414 0.034753
vertex 0.105444 -0.120141 0.031058
vertex 0.106239 -0.119194 0.034753
endloop
endfacet
facet normal -0.570514 -0.679913 0.460686
outer loop
vertex 0.045721 -0.068414 0.034753
vertex 0.106239 -0.119194 0.034753
vertex 0.046875 -0.067039 0.038211
endloop
endfacet
facet normal -0.570515 -0.679913 0.460685
outer loop
vertex 0.046875 -0.067039 0.038211
vertex 0.106239 -0.119194 0.034753
vertex 0.107392 -0.117819 0.038211
endloop
endfacet
facet normal -0.517578 -0.616827 0.592990
outer loop
vertex 0.046875 -0.067039 0.038211
vertex 0.107392 -0.117819 0.038211
vertex 0.048360 -0.065269 0.041348
endloop
endfacet
facet normal -0.517577 -0.616824 0.592994
outer loop
vertex 0.048360 -0.065269 0.041348
vertex 0.107392 -0.117819 0.038211
vertex 0.108877 -0.116049 0.041348
endloop
endfacet
facet normal -0.452071 -0.538756 0.710897
outer loop
vertex 0.048360 -0.065269 0.041348
vertex 0.108877 -0.116049 0.041348
vertex 0.050140 -0.063147 0.044088
endloop
endfacet
facet normal -0.452070 -0.538757 0.710897
outer loop
vertex 0.050140 -0.063147 0.044088
vertex 0.108877 -0.116049 0.041348
vertex 0.110658 -0.113927 0.044088
endloop
endfacet
facet normal -0.375579 -0.447600 0.811538
outer loop
vertex 0.087241 -0.092626 0.045000
vertex 0.050954 -0.062177 0.045000
vertex 0.050140 -0.063147 0.044088
endloop
endfacet
facet normal -0.375575 -0.447593 0.811544
outer loop
vertex 0.087241 -0.092626 0.045000
vertex 0.050140 -0.063147 0.044088
vertex 0.110658 -0.113927 0.044088
endloop
endfacet
facet normal -0.375581 -0.447600 0.811537
outer loop
vertex 0.087241 -0.092626 0.045000
vertex 0.110658 -0.113927 0.044088
vertex 0.111472 -0.112958 0.045000
endloop
endfacet
facet normal 0.375579 0.447597 0.811540
outer loop
vertex 0.070081 -0.039383 0.045000
vertex 0.094312 -0.059715 0.045000
vertex 0.070895 -0.038413 0.044088
endloop
endfacet
facet normal 0.375577 0.447601 0.811539
outer loop
vertex 0.130598 -0.090163 0.045000
vertex 0.131412 -0.089193 0.044088
vertex 0.070895 -0.038413 0.044088
endloop
endfacet
facet normal 0.375580 0.447598 0.811539
outer loop
vertex 0.130598 -0.090163 0.045000
vertex 0.070895 -0.038413 0.044088
vertex 0.094312 -0.059715 0.045000
endloop
endfacet
facet normal 0.452070 0.538756 0.710897
outer loop
vertex 0.070895 -0.038413 0.044088
vertex 0.131412 -0.089193 0.044088
vertex 0.072675 -0.036291 0.041348
endloop
endfacet
facet normal 0.452069 0.538755 0.710898
outer loop
vertex 0.072675 -0.036291 0.041348
vertex 0.131412 -0.089193 0.044088
vertex 0.133193 -0.087072 0.041348
endloop
endfacet
facet normal 0.517578 0.616825 0.592993
outer loop
vertex 0.072675 -0.036291 0.041348
vertex 0.133193 -0.087072 0.041348
vertex 0.074160 -0.034522 0.038211
endloop
endfacet
facet normal 0.517577 0.616825 0.592993
outer loop
vertex 0.074160 -0.034522 0.038211
vertex 0.133193 -0.087072 0.041348
vertex 0.134678 -0.085302 0.038211
endloop
endfacet
facet normal 0.570516 0.679913 0.460685
outer loop
vertex 0.074160 -0.034522 0.038211
vertex 0.134678 -0.085302 0.038211
vertex 0.075314 -0.033147 0.034753
endloop
endfacet
facet normal 0.570515 0.679914 0.460684
outer loop
vertex 0.075314 -0.033147 0.034753
vertex 0.134678 -0.085302 0.038211
vertex 0.135831 -0.083927 0.034753
endloop
endfacet
facet normal 0.609596 0.726489 0.317186
outer loop
vertex 0.075314 -0.033147 0.034753
vertex 0.135831 -0.083927 0.034753
vertex 0.076108 -0.032200 0.031058
endloop
endfacet
facet normal 0.609596 0.726488 0.317186
outer loop
vertex 0.076108 -0.032200 0.031058
vertex 0.135831 -0.083927 0.034753
vertex 0.136626 -0.082980 0.031058
endloop
endfacet
facet normal 0.633871 0.755418 0.165984
outer loop
vertex 0.076108 -0.032200 0.031058
vertex 0.136626 -0.082980 0.031058
vertex 0.076524 -0.031704 0.027216
endloop
endfacet
facet normal 0.633871 0.755418 0.165985
outer loop
vertex 0.076524 -0.031704 0.027216
vertex 0.136626 -0.082980 0.031058
vertex 0.137041 -0.082485 0.027216
endloop
endfacet
facet normal 0.642750 0.766000 0.010754
outer loop
vertex 0.076524 -0.031704 0.027216
vertex 0.137041 -0.082485 0.027216
vertex 0.076551 -0.031672 0.023320
endloop
endfacet
facet normal 0.642751 0.766000 0.010753
outer loop
vertex 0.076551 -0.031672 0.023320
vertex 0.137041 -0.082485 0.027216
vertex 0.137068 -0.082453 0.023320
endloop
endfacet
facet normal 0.636019 0.757978 -0.144741
outer loop
vertex 0.076551 -0.031672 0.023320
vertex 0.137068 -0.082453 0.023320
vertex 0.076188 -0.032104 0.019465
endloop
endfacet
facet normal 0.636019 0.757978 -0.144741
outer loop
vertex 0.076188 -0.032104 0.019465
vertex 0.137068 -0.082453 0.023320
vertex 0.136706 -0.082885 0.019465
endloop
endfacet
facet normal 0.613839 0.731545 -0.296720
outer loop
vertex 0.076188 -0.032104 0.019465
vertex 0.136706 -0.082885 0.019465
vertex 0.075445 -0.032990 0.015744
endloop
endfacet
facet normal 0.613839 0.731545 -0.296720
outer loop
vertex 0.075445 -0.032990 0.015744
vertex 0.136706 -0.082885 0.019465
vertex 0.135963 -0.083770 0.015744
endloop
endfacet
facet normal 0.576751 0.687346 -0.441491
outer loop
vertex 0.075445 -0.032990 0.015744
vertex 0.135963 -0.083770 0.015744
vertex 0.074340 -0.034308 0.012248
endloop
endfacet
facet normal 0.576752 0.687346 -0.441490
outer loop
vertex 0.074340 -0.034308 0.012248
vertex 0.135963 -0.083770 0.015744
vertex 0.134857 -0.085088 0.012248
endloop
endfacet
facet normal 0.525654 0.626451 -0.575540
outer loop
vertex 0.074340 -0.034308 0.012248
vertex 0.134857 -0.085088 0.012248
vertex 0.072898 -0.036025 0.009062
endloop
endfacet
facet normal -0.386711 -0.460865 -0.798785
outer loop
vertex 0.051879 -0.061075 0.003919
vertex 0.049879 -0.063459 0.006263
vertex -0.010639 -0.012679 0.006263
endloop
endfacet
facet normal -0.461791 -0.550341 -0.695610
outer loop
vertex -0.010639 -0.012679 0.006263
vertex 0.049879 -0.063459 0.006263
vertex -0.012381 -0.014755 0.009062
endloop
endfacet
facet normal -0.461792 -0.550341 -0.695610
outer loop
vertex -0.010639 -0.012679 0.006263
vertex -0.012381 -0.014755 0.009062
vertex -0.072898 0.036025 0.009062
endloop
endfacet
facet normal -0.525655 -0.626451 -0.575540
outer loop
vertex -0.072898 0.036025 0.009062
vertex -0.012381 -0.014755 0.009062
vertex -0.074340 0.034308 0.012248
endloop
endfacet
facet normal -0.525655 -0.626451 -0.575540
outer loop
vertex -0.072898 0.036025 0.009062
vertex -0.074340 0.034308 0.012248
vertex -0.134857 0.085088 0.012248
endloop
endfacet
facet normal -0.576751 -0.687345 -0.441491
outer loop
vertex -0.134857 0.085088 0.012248
vertex -0.074340 0.034308 0.012248
vertex -0.135963 0.083770 0.015744
endloop
endfacet
facet normal -0.461792 -0.550342 -0.695609
outer loop
vertex -0.012381 -0.014755 0.009062
vertex 0.049879 -0.063459 0.006263
vertex 0.048137 -0.065535 0.009062
endloop
endfacet
facet normal -0.525654 -0.626451 -0.575540
outer loop
vertex -0.012381 -0.014755 0.009062
vertex 0.048137 -0.065535 0.009062
vertex -0.013822 -0.016473 0.012248
endloop
endfacet
facet normal -0.525655 -0.626451 -0.575539
outer loop
vertex -0.013822 -0.016473 0.012248
vertex 0.048137 -0.065535 0.009062
vertex 0.046695 -0.067253 0.012248
endloop
endfacet
facet normal -0.576751 -0.687345 -0.441492
outer loop
vertex -0.013822 -0.016473 0.012248
vertex 0.046695 -0.067253 0.012248
vertex -0.014928 -0.017790 0.015744
endloop
endfacet
facet normal -0.576751 -0.687345 -0.441492
outer loop
vertex -0.014928 -0.017790 0.015744
vertex 0.046695 -0.067253 0.012248
vertex 0.045590 -0.068570 0.015744
endloop
endfacet
facet normal -0.613839 -0.731545 -0.296720
outer loop
vertex -0.014928 -0.017790 0.015744
vertex 0.045590 -0.068570 0.015744
vertex -0.015671 -0.018676 0.019465
endloop
endfacet
facet normal -0.613840 -0.731546 -0.296718
outer loop
vertex -0.015671 -0.018676 0.019465
vertex 0.045590 -0.068570 0.015744
vertex 0.044847 -0.069456 0.019465
endloop
endfacet
facet normal -0.636019 -0.757978 -0.144742
outer loop
vertex -0.015671 -0.018676 0.019465
vertex 0.044847 -0.069456 0.019465
vertex -0.016033 -0.019108 0.023320
endloop
endfacet
facet normal -0.636019 -0.757978 -0.144741
outer loop
vertex -0.016033 -0.019108 0.023320
vertex 0.044847 -0.069456 0.019465
vertex 0.044484 -0.069888 0.023320
endloop
endfacet
facet normal -0.642751 -0.766000 0.010754
outer loop
vertex -0.016033 -0.019108 0.023320
vertex 0.044484 -0.069888 0.023320
vertex -0.016006 -0.019076 0.027216
endloop
endfacet
facet normal -0.642750 -0.766000 0.010751
outer loop
vertex -0.016006 -0.019076 0.027216
vertex 0.044484 -0.069888 0.023320
vertex 0.044511 -0.069856 0.027216
endloop
endfacet
facet normal -0.633871 -0.755418 0.165987
outer loop
vertex -0.016006 -0.019076 0.027216
vertex 0.044511 -0.069856 0.027216
vertex -0.015591 -0.018580 0.031058
endloop
endfacet
facet normal -0.633870 -0.755418 0.165988
outer loop
vertex -0.015591 -0.018580 0.031058
vertex 0.044511 -0.069856 0.027216
vertex 0.044927 -0.069361 0.031058
endloop
endfacet
facet normal -0.609596 -0.726488 0.317186
outer loop
vertex -0.015591 -0.018580 0.031058
vertex 0.044927 -0.069361 0.031058
vertex -0.014796 -0.017634 0.034753
endloop
endfacet
facet normal -0.609596 -0.726489 0.317186
outer loop
vertex -0.014796 -0.017634 0.034753
vertex 0.044927 -0.069361 0.031058
vertex 0.045721 -0.068414 0.034753
endloop
endfacet
facet normal -0.570515 -0.679914 0.460684
outer loop
vertex -0.014796 -0.017634 0.034753
vertex 0.045721 -0.068414 0.034753
vertex -0.013643 -0.016259 0.038211
endloop
endfacet
facet normal -0.570515 -0.679913 0.460685
outer loop
vertex -0.013643 -0.016259 0.038211
vertex 0.045721 -0.068414 0.034753
vertex 0.046875 -0.067039 0.038211
endloop
endfacet
facet normal -0.517578 -0.616826 0.592992
outer loop
vertex -0.013643 -0.016259 0.038211
vertex 0.046875 -0.067039 0.038211
vertex -0.012158 -0.014489 0.041348
endloop
endfacet
facet normal -0.517578 -0.616824 0.592993
outer loop
vertex -0.012158 -0.014489 0.041348
vertex 0.046875 -0.067039 0.038211
vertex 0.048360 -0.065269 0.041348
endloop
endfacet
facet normal -0.452071 -0.538755 0.710897
outer loop
vertex -0.012158 -0.014489 0.041348
vertex 0.048360 -0.065269 0.041348
vertex -0.010377 -0.012367 0.044088
endloop
endfacet
facet normal -0.452069 -0.538755 0.710899
outer loop
vertex -0.010377 -0.012367 0.044088
vertex 0.048360 -0.065269 0.041348
vertex 0.050140 -0.063147 0.044088
endloop
endfacet
facet normal -0.375580 -0.447599 0.811538
outer loop
vertex 0.026723 -0.041845 0.045000
vertex -0.009563 -0.011397 0.045000
vertex -0.010377 -0.012367 0.044088
endloop
endfacet
facet normal -0.375579 -0.447599 0.811539
outer loop
vertex 0.026723 -0.041845 0.045000
vertex -0.010377 -0.012367 0.044088
vertex 0.050140 -0.063147 0.044088
endloop
endfacet
facet normal -0.375579 -0.447598 0.811540
outer loop
vertex 0.026723 -0.041845 0.045000
vertex 0.050140 -0.063147 0.044088
vertex 0.050954 -0.062177 0.045000
endloop
endfacet
facet normal 0.375579 0.447598 0.811539
outer loop
vertex 0.033794 -0.008935 0.045000
vertex 0.010377 0.012367 0.044088
vertex 0.009563 0.011397 0.045000
endloop
endfacet
facet normal 0.375575 0.447598 0.811541
outer loop
vertex 0.070081 -0.039383 0.045000
vertex 0.070895 -0.038413 0.044088
vertex 0.010377 0.012367 0.044088
endloop
endfacet
facet normal 0.375584 0.447598 0.811537
outer loop
vertex 0.070081 -0.039383 0.045000
vertex 0.010377 0.012367 0.044088
vertex 0.033794 -0.008935 0.045000
endloop
endfacet
facet normal 0.452068 0.538756 0.710899
outer loop
vertex 0.010377 0.012367 0.044088
vertex 0.070895 -0.038413 0.044088
vertex 0.012158 0.014489 0.041348
endloop
endfacet
facet normal 0.452071 0.538755 0.710897
outer loop
vertex 0.012158 0.014489 0.041348
vertex 0.070895 -0.038413 0.044088
vertex 0.072675 -0.036291 0.041348
endloop
endfacet
facet normal 0.517578 0.616825 0.592992
outer loop
vertex 0.012158 0.014489 0.041348
vertex 0.072675 -0.036291 0.041348
vertex 0.013643 0.016259 0.038211
endloop
endfacet
facet normal 0.517578 0.616825 0.592993
outer loop
vertex 0.013643 0.016259 0.038211
vertex 0.072675 -0.036291 0.041348
vertex 0.074160 -0.034522 0.038211
endloop
endfacet
facet normal 0.570516 0.679913 0.460684
outer loop
vertex 0.013643 0.016259 0.038211
vertex 0.074160 -0.034522 0.038211
vertex 0.014796 0.017634 0.034753
endloop
endfacet
facet normal 0.570514 0.679914 0.460685
outer loop
vertex 0.014796 0.017634 0.034753
vertex 0.074160 -0.034522 0.038211
vertex 0.075314 -0.033147 0.034753
endloop
endfacet
facet normal 0.609596 0.726488 0.317187
outer loop
vertex 0.014796 0.017634 0.034753
vertex 0.075314 -0.033147 0.034753
vertex 0.015591 0.018580 0.031058
endloop
endfacet
facet normal 0.609596 0.726488 0.317188
outer loop
vertex 0.015591 0.018580 0.031058
vertex 0.075314 -0.033147 0.034753
vertex 0.076108 -0.032200 0.031058
endloop
endfacet
facet normal 0.633871 0.755418 0.165986
outer loop
vertex 0.015591 0.018580 0.031058
vertex 0.076108 -0.032200 0.031058
vertex 0.016006 0.019076 0.027216
endloop
endfacet
facet normal 0.633871 0.755418 0.165985
outer loop
vertex 0.016006 0.019076 0.027216
vertex 0.076108 -0.032200 0.031058
vertex 0.076524 -0.031704 0.027216
endloop
endfacet
facet normal 0.642750 0.766001 0.010753
outer loop
vertex 0.016006 0.019076 0.027216
vertex 0.076524 -0.031704 0.027216
vertex 0.016033 0.019108 0.023320
endloop
endfacet
facet normal 0.642751 0.766000 0.010753
outer loop
vertex 0.016033 0.019108 0.023320
vertex 0.076524 -0.031704 0.027216
vertex 0.076551 -0.031672 0.023320
endloop
endfacet
facet normal 0.636019 0.757978 -0.144741
outer loop
vertex 0.016033 0.019108 0.023320
vertex 0.076551 -0.031672 0.023320
vertex 0.015671 0.018676 0.019465
endloop
endfacet
facet normal 0.636019 0.757977 -0.144741
outer loop
vertex 0.015671 0.018676 0.019465
vertex 0.076551 -0.031672 0.023320
vertex 0.076188 -0.032104 0.019465
endloop
endfacet
facet normal 0.613839 0.731545 -0.296720
outer loop
vertex 0.015671 0.018676 0.019465
vertex 0.076188 -0.032104 0.019465
vertex 0.014928 0.017790 0.015744
endloop
endfacet
facet normal 0.613839 0.731545 -0.296719
outer loop
vertex 0.014928 0.017790 0.015744
vertex 0.076188 -0.032104 0.019465
vertex 0.075445 -0.032990 0.015744
endloop
endfacet
facet normal 0.576751 0.687345 -0.441491
outer loop
vertex 0.014928 0.017790 0.015744
vertex 0.075445 -0.032990 0.015744
vertex 0.013822 0.016473 0.012248
endloop
endfacet
facet normal 0.576751 0.687345 -0.441492
outer loop
vertex 0.013822 0.016473 0.012248
vertex 0.075445 -0.032990 0.015744
vertex 0.074340 -0.034308 0.012248
endloop
endfacet
facet normal 0.525655 0.626451 -0.575540
outer loop
vertex 0.013822 0.016473 0.012248
vertex 0.074340 -0.034308 0.012248
vertex 0.012381 0.014755 0.009062
endloop
endfacet
facet normal 0.525655 0.626451 -0.575541
outer loop
vertex 0.012381 0.014755 0.009062
vertex 0.074340 -0.034308 0.012248
vertex 0.072898 -0.036025 0.009062
endloop
endfacet
facet normal 0.461791 0.550341 -0.695610
outer loop
vertex 0.012381 0.014755 0.009062
vertex 0.072898 -0.036025 0.009062
vertex 0.010639 0.012679 0.006263
endloop
endfacet
facet normal -0.525655 -0.626451 -0.575540
outer loop
vertex -0.012381 -0.014755 0.009062
vertex -0.013822 -0.016473 0.012248
vertex -0.074340 0.034308 0.012248
endloop
endfacet
facet normal -0.576751 -0.687345 -0.441492
outer loop
vertex -0.074340 0.034308 0.012248
vertex -0.013822 -0.016473 0.012248
vertex -0.075445 0.032990 0.015744
endloop
endfacet
facet normal -0.576751 -0.687345 -0.441491
outer loop
vertex -0.074340 0.034308 0.012248
vertex -0.075445 0.032990 0.015744
vertex -0.135963 0.083770 0.015744
endloop
endfacet
facet normal -0.613839 -0.731545 -0.296720
outer loop
vertex -0.135963 0.083770 0.015744
vertex -0.075445 0.032990 0.015744
vertex -0.136706 0.082885 0.019465
endloop
endfacet
facet normal -0.576751 -0.687345 -0.441491
outer loop
vertex -0.075445 0.032990 0.015744
vertex -0.013822 -0.016473 0.012248
vertex -0.014928 -0.017790 0.015744
endloop
endfacet
facet normal -0.613839 -0.731545 -0.296719
outer loop
vertex -0.075445 0.032990 0.015744
vertex -0.014928 -0.017790 0.015744
vertex -0.076188 0.032104 0.019465
endloop
endfacet
facet normal -0.613839 -0.731545 -0.296720
outer loop
vertex -0.076188 0.032104 0.019465
vertex -0.014928 -0.017790 0.015744
vertex -0.015671 -0.018676 0.019465
endloop
endfacet
facet normal -0.636019 -0.757977 -0.144741
outer loop
vertex -0.076188 0.032104 0.019465
vertex -0.015671 -0.018676 0.019465
vertex -0.076551 0.031672 0.023320
endloop
endfacet
facet normal -0.636019 -0.757978 -0.144741
outer loop
vertex -0.076551 0.031672 0.023320
vertex -0.015671 -0.018676 0.019465
vertex -0.016033 -0.019108 0.023320
endloop
endfacet
facet normal -0.642751 -0.766000 0.010753
outer loop
vertex -0.076551 0.031672 0.023320
vertex -0.016033 -0.019108 0.023320
vertex -0.076524 0.031705 0.027216
endloop
endfacet
facet normal -0.642750 -0.766001 0.010753
outer loop
vertex -0.076524 0.031705 0.027216
vertex -0.016033 -0.019108 0.023320
vertex -0.016006 -0.019076 0.027216
endloop
endfacet
facet normal -0.633871 -0.755418 0.165985
outer loop
vertex -0.076524 0.031705 0.027216
vertex -0.016006 -0.019076 0.027216
vertex -0.076108 0.032200 0.031058
endloop
endfacet
facet normal -0.633871 -0.755418 0.165986
outer loop
vertex -0.076108 0.032200 0.031058
vertex -0.016006 -0.019076 0.027216
vertex -0.015591 -0.018580 0.031058
endloop
endfacet
facet normal -0.609596 -0.726488 0.317188
outer loop
vertex -0.076108 0.032200 0.031058
vertex -0.015591 -0.018580 0.031058
vertex -0.075314 0.033147 0.034753
endloop
endfacet
facet normal -0.609596 -0.726488 0.317187
outer loop
vertex -0.075314 0.033147 0.034753
vertex -0.015591 -0.018580 0.031058
vertex -0.014796 -0.017634 0.034753
endloop
endfacet
facet normal -0.570514 -0.679914 0.460685
outer loop
vertex -0.075314 0.033147 0.034753
vertex -0.014796 -0.017634 0.034753
vertex -0.074160 0.034522 0.038211
endloop
endfacet
facet normal -0.570516 -0.679913 0.460684
outer loop
vertex -0.074160 0.034522 0.038211
vertex -0.014796 -0.017634 0.034753
vertex -0.013643 -0.016259 0.038211
endloop
endfacet
facet normal -0.517577 -0.616825 0.592993
outer loop
vertex -0.074160 0.034522 0.038211
vertex -0.013643 -0.016259 0.038211
vertex -0.072675 0.036291 0.041348
endloop
endfacet
facet normal -0.517578 -0.616825 0.592992
outer loop
vertex -0.072675 0.036291 0.041348
vertex -0.013643 -0.016259 0.038211
vertex -0.012158 -0.014489 0.041348
endloop
endfacet
facet normal -0.452072 -0.538755 0.710896
outer loop
vertex -0.072675 0.036291 0.041348
vertex -0.012158 -0.014489 0.041348
vertex -0.070895 0.038413 0.044088
endloop
endfacet
facet normal -0.452068 -0.538756 0.710898
outer loop
vertex -0.070895 0.038413 0.044088
vertex -0.012158 -0.014489 0.041348
vertex -0.010377 -0.012367 0.044088
endloop
endfacet
facet normal -0.375579 -0.447597 0.811540
outer loop
vertex -0.033794 0.008935 0.045000
vertex -0.070081 0.039383 0.045000
vertex -0.070895 0.038413 0.044088
endloop
endfacet
facet normal -0.375579 -0.447599 0.811539
outer loop
vertex -0.033794 0.008935 0.045000
vertex -0.070895 0.038413 0.044088
vertex -0.010377 -0.012367 0.044088
endloop
endfacet
facet normal -0.375579 -0.447598 0.811539
outer loop
vertex -0.033794 0.008935 0.045000
vertex -0.010377 -0.012367 0.044088
vertex -0.009563 -0.011397 0.045000
endloop
endfacet
facet normal 0.375579 0.447597 0.811540
outer loop
vertex -0.050954 0.062177 0.045000
vertex -0.026723 0.041845 0.045000
vertex -0.050140 0.063147 0.044088
endloop
endfacet
facet normal 0.375575 0.447598 0.811541
outer loop
vertex 0.009563 0.011397 0.045000
vertex 0.010377 0.012367 0.044088
vertex -0.050140 0.063147 0.044088
endloop
endfacet
facet normal 0.375582 0.447598 0.811538
outer loop
vertex 0.009563 0.011397 0.045000
vertex -0.050140 0.063147 0.044088
vertex -0.026723 0.041845 0.045000
endloop
endfacet
facet normal 0.452068 0.538755 0.710899
outer loop
vertex -0.050140 0.063147 0.044088
vertex 0.010377 0.012367 0.044088
vertex -0.048360 0.065269 0.041348
endloop
endfacet
facet normal 0.452071 0.538755 0.710897
outer loop
vertex -0.048360 0.065269 0.041348
vertex 0.010377 0.012367 0.044088
vertex 0.012158 0.014489 0.041348
endloop
endfacet
facet normal 0.517578 0.616825 0.592993
outer loop
vertex -0.048360 0.065269 0.041348
vertex 0.012158 0.014489 0.041348
vertex -0.046875 0.067039 0.038211
endloop
endfacet
facet normal 0.517577 0.616825 0.592993
outer loop
vertex -0.046875 0.067039 0.038211
vertex 0.012158 0.014489 0.041348
vertex 0.013643 0.016259 0.038211
endloop
endfacet
facet normal 0.570515 0.679914 0.460685
outer loop
vertex -0.046875 0.067039 0.038211
vertex 0.013643 0.016259 0.038211
vertex -0.045721 0.068414 0.034753
endloop
endfacet
facet normal 0.570515 0.679914 0.460684
outer loop
vertex -0.045721 0.068414 0.034753
vertex 0.013643 0.016259 0.038211
vertex 0.014796 0.017634 0.034753
endloop
endfacet
facet normal 0.609596 0.726489 0.317186
outer loop
vertex -0.045721 0.068414 0.034753
vertex 0.014796 0.017634 0.034753
vertex -0.044927 0.069361 0.031058
endloop
endfacet
facet normal 0.609596 0.726488 0.317187
outer loop
vertex -0.044927 0.069361 0.031058
vertex 0.014796 0.017634 0.034753
vertex 0.015591 0.018580 0.031058
endloop
endfacet
facet normal 0.633871 0.755418 0.165987
outer loop
vertex -0.044927 0.069361 0.031058
vertex 0.015591 0.018580 0.031058
vertex -0.044511 0.069856 0.027216
endloop
endfacet
facet normal 0.633871 0.755418 0.165987
outer loop
vertex -0.044511 0.069856 0.027216
vertex 0.015591 0.018580 0.031058
vertex 0.016006 0.019076 0.027216
endloop
endfacet
facet normal 0.642750 0.766000 0.010752
outer loop
vertex -0.044511 0.069856 0.027216
vertex 0.016006 0.019076 0.027216
vertex -0.044484 0.069888 0.023320
endloop
endfacet
facet normal 0.642751 0.766000 0.010752
outer loop
vertex -0.044484 0.069888 0.023320
vertex 0.016006 0.019076 0.027216
vertex 0.016033 0.019108 0.023320
endloop
endfacet
facet normal 0.636019 0.757978 -0.144740
outer loop
vertex -0.044484 0.069888 0.023320
vertex 0.016033 0.019108 0.023320
vertex -0.044847 0.069456 0.019465
endloop
endfacet
facet normal 0.636019 0.757977 -0.144742
outer loop
vertex -0.044847 0.069456 0.019465
vertex 0.016033 0.019108 0.023320
vertex 0.015671 0.018676 0.019465
endloop
endfacet
facet normal 0.613840 0.731545 -0.296720
outer loop
vertex -0.044847 0.069456 0.019465
vertex 0.015671 0.018676 0.019465
vertex -0.045590 0.068570 0.015744
endloop
endfacet
facet normal 0.613839 0.731545 -0.296720
outer loop
vertex -0.045590 0.068570 0.015744
vertex 0.015671 0.018676 0.019465
vertex 0.014928 0.017790 0.015744
endloop
endfacet
facet normal 0.576751 0.687346 -0.441491
outer loop
vertex -0.045590 0.068570 0.015744
vertex 0.014928 0.017790 0.015744
vertex -0.046695 0.067253 0.012248
endloop
endfacet
facet normal 0.576751 0.687345 -0.441492
outer loop
vertex -0.046695 0.067253 0.012248
vertex 0.014928 0.017790 0.015744
vertex 0.013822 0.016473 0.012248
endloop
endfacet
facet normal 0.525655 0.626451 -0.575539
outer loop
vertex -0.046695 0.067253 0.012248
vertex 0.013822 0.016473 0.012248
vertex -0.048137 0.065535 0.009062
endloop
endfacet
facet normal 0.525654 0.626450 -0.575541
outer loop
vertex -0.048137 0.065535 0.009062
vertex 0.013822 0.016473 0.012248
vertex 0.012381 0.014755 0.009062
endloop
endfacet
facet normal 0.461792 0.550343 -0.695608
outer loop
vertex -0.048137 0.065535 0.009062
vertex 0.012381 0.014755 0.009062
vertex -0.049879 0.063459 0.006263
endloop
endfacet
facet normal 0.461791 0.550341 -0.695610
outer loop
vertex -0.049879 0.063459 0.006263
vertex 0.012381 0.014755 0.009062
vertex 0.010639 0.012679 0.006263
endloop
endfacet
facet normal 0.386711 0.460864 -0.798786
outer loop
vertex -0.049879 0.063459 0.006263
vertex 0.010639 0.012679 0.006263
vertex -0.051879 0.061075 0.003919
endloop
endfacet
facet normal -0.636019 -0.757978 -0.144741
outer loop
vertex -0.137068 0.082453 0.023320
vertex -0.136706 0.082885 0.019465
vertex -0.076188 0.032104 0.019465
endloop
endfacet
facet normal -0.613839 -0.731545 -0.296720
outer loop
vertex -0.076188 0.032104 0.019465
vertex -0.136706 0.082885 0.019465
vertex -0.075445 0.032990 0.015744
endloop
endfacet
facet normal -0.636019 -0.757977 -0.144741
outer loop
vertex -0.137068 0.082453 0.023320
vertex -0.076188 0.032104 0.019465
vertex -0.076551 0.031672 0.023320
endloop
endfacet
facet normal -0.642751 -0.766000 0.010752
outer loop
vertex -0.137041 0.082485 0.027216
vertex -0.137068 0.082453 0.023320
vertex -0.076551 0.031672 0.023320
endloop
endfacet
facet normal -0.642750 -0.766000 0.010753
outer loop
vertex -0.137041 0.082485 0.027216
vertex -0.076551 0.031672 0.023320
vertex -0.076524 0.031705 0.027216
endloop
endfacet
facet normal -0.633871 -0.755418 0.165986
outer loop
vertex -0.136626 0.082980 0.031058
vertex -0.137041 0.082485 0.027216
vertex -0.076524 0.031705 0.027216
endloop
endfacet
facet normal -0.633871 -0.755418 0.165984
outer loop
vertex -0.136626 0.082980 0.031058
vertex -0.076524 0.031705 0.027216
vertex -0.076108 0.032200 0.031058
endloop
endfacet
facet normal -0.609597 -0.726489 0.317185
outer loop
vertex -0.135831 0.083927 0.034753
vertex -0.136626 0.082980 0.031058
vertex -0.076108 0.032200 0.031058
endloop
endfacet
facet normal -0.609596 -0.726488 0.317188
outer loop
vertex -0.135831 0.083927 0.034753
vertex -0.076108 0.032200 0.031058
vertex -0.075314 0.033147 0.034753
endloop
endfacet
facet normal -0.570515 -0.679914 0.460684
outer loop
vertex -0.134678 0.085302 0.038211
vertex -0.135831 0.083927 0.034753
vertex -0.075314 0.033147 0.034753
endloop
endfacet
facet normal -0.570515 -0.679913 0.460685
outer loop
vertex -0.134678 0.085302 0.038211
vertex -0.075314 0.033147 0.034753
vertex -0.074160 0.034522 0.038211
endloop
endfacet
facet normal -0.517577 -0.616825 0.592993
outer loop
vertex -0.133193 0.087072 0.041348
vertex -0.134678 0.085302 0.038211
vertex -0.074160 0.034522 0.038211
endloop
endfacet
facet normal -0.517578 -0.616825 0.592992
outer loop
vertex -0.133193 0.087072 0.041348
vertex -0.074160 0.034522 0.038211
vertex -0.072675 0.036291 0.041348
endloop
endfacet
facet normal -0.452069 -0.538756 0.710897
outer loop
vertex -0.131412 0.089193 0.044088
vertex -0.133193 0.087072 0.041348
vertex -0.072675 0.036291 0.041348
endloop
endfacet
facet normal -0.452070 -0.538756 0.710897
outer loop
vertex -0.131412 0.089193 0.044088
vertex -0.072675 0.036291 0.041348
vertex -0.070895 0.038413 0.044088
endloop
endfacet
facet normal -0.375580 -0.447598 0.811539
outer loop
vertex -0.094312 0.059715 0.045000
vertex -0.130598 0.090163 0.045000
vertex -0.131412 0.089193 0.044088
endloop
endfacet
facet normal -0.375580 -0.447600 0.811538
outer loop
vertex -0.094312 0.059715 0.045000
vertex -0.131412 0.089193 0.044088
vertex -0.070895 0.038413 0.044088
endloop
endfacet
facet normal -0.375579 -0.447598 0.811540
outer loop
vertex -0.094312 0.059715 0.045000
vertex -0.070895 0.038413 0.044088
vertex -0.070081 0.039383 0.045000
endloop
endfacet
facet normal 0.375580 0.447599 0.811538
outer loop
vertex -0.111472 0.112958 0.045000
vertex -0.087241 0.092626 0.045000
vertex -0.110658 0.113928 0.044088
endloop
endfacet
facet normal 0.375582 0.447602 0.811536
outer loop
vertex -0.050954 0.062177 0.045000
vertex -0.050140 0.063147 0.044088
vertex -0.110658 0.113928 0.044088
endloop
endfacet
facet normal 0.375574 0.447592 0.811545
outer loop
vertex -0.050954 0.062177 0.045000
vertex -0.110658 0.113928 0.044088
vertex -0.087241 0.092626 0.045000
endloop
endfacet
facet normal 0.452070 0.538757 0.710896
outer loop
vertex -0.108877 0.116049 0.041348
vertex -0.110658 0.113928 0.044088
vertex -0.050140 0.063147 0.044088
endloop
endfacet
facet normal 0.452070 0.538754 0.710899
outer loop
vertex -0.108877 0.116049 0.041348
vertex -0.050140 0.063147 0.044088
vertex -0.048360 0.065269 0.041348
endloop
endfacet
facet normal 0.517578 0.616824 0.592994
outer loop
vertex -0.107392 0.117819 0.038211
vertex -0.108877 0.116049 0.041348
vertex -0.048360 0.065269 0.041348
endloop
endfacet
facet normal 0.517577 0.616826 0.592992
outer loop
vertex -0.107392 0.117819 0.038211
vertex -0.048360 0.065269 0.041348
vertex -0.046875 0.067039 0.038211
endloop
endfacet
facet normal 0.570515 0.679912 0.460686
outer loop
vertex -0.106239 0.119194 0.034753
vertex -0.107392 0.117819 0.038211
vertex -0.046875 0.067039 0.038211
endloop
endfacet
facet normal 0.570515 0.679914 0.460684
outer loop
vertex -0.106239 0.119194 0.034753
vertex -0.046875 0.067039 0.038211
vertex -0.045721 0.068414 0.034753
endloop
endfacet
facet normal 0.609595 0.726488 0.317189
outer loop
vertex -0.105444 0.120141 0.031058
vertex -0.106239 0.119194 0.034753
vertex -0.045721 0.068414 0.034753
endloop
endfacet
facet normal 0.609597 0.726489 0.317183
outer loop
vertex -0.105444 0.120141 0.031058
vertex -0.045721 0.068414 0.034753
vertex -0.044927 0.069361 0.031058
endloop
endfacet
facet normal 0.633871 0.755418 0.165985
outer loop
vertex -0.105029 0.120636 0.027216
vertex -0.105444 0.120141 0.031058
vertex -0.044927 0.069361 0.031058
endloop
endfacet
facet normal 0.633871 0.755417 0.165989
outer loop
vertex -0.105029 0.120636 0.027216
vertex -0.044927 0.069361 0.031058
vertex -0.044511 0.069856 0.027216
endloop
endfacet
facet normal 0.642750 0.766000 0.010751
outer loop
vertex -0.105002 0.120668 0.023320
vertex -0.105029 0.120636 0.027216
vertex -0.044511 0.069856 0.027216
endloop
endfacet
facet normal 0.642750 0.766000 0.010756
outer loop
vertex -0.105002 0.120668 0.023320
vertex -0.044511 0.069856 0.027216
vertex -0.044484 0.069888 0.023320
endloop
endfacet
facet normal 0.636019 0.757978 -0.144741
outer loop
vertex -0.105364 0.120236 0.019465
vertex -0.105002 0.120668 0.023320
vertex -0.044484 0.069888 0.023320
endloop
endfacet
facet normal 0.636018 0.757977 -0.144745
outer loop
vertex -0.105364 0.120236 0.019465
vertex -0.044484 0.069888 0.023320
vertex -0.044847 0.069456 0.019465
endloop
endfacet
facet normal 0.613840 0.731545 -0.296720
outer loop
vertex -0.106107 0.119351 0.015744
vertex -0.105364 0.120236 0.019465
vertex -0.044847 0.069456 0.019465
endloop
endfacet
facet normal 0.613840 0.731546 -0.296719
outer loop
vertex -0.106107 0.119351 0.015744
vertex -0.044847 0.069456 0.019465
vertex -0.045590 0.068570 0.015744
endloop
endfacet
facet normal 0.576751 0.687345 -0.441491
outer loop
vertex -0.107213 0.118033 0.012248
vertex -0.106107 0.119351 0.015744
vertex -0.045590 0.068570 0.015744
endloop
endfacet
facet normal 0.576751 0.687345 -0.441492
outer loop
vertex -0.107213 0.118033 0.012248
vertex -0.045590 0.068570 0.015744
vertex -0.046695 0.067253 0.012248
endloop
endfacet
facet normal 0.525655 0.626451 -0.575539
outer loop
vertex -0.108654 0.116315 0.009062
vertex -0.107213 0.118033 0.012248
vertex -0.046695 0.067253 0.012248
endloop
endfacet
facet normal 0.525655 0.626451 -0.575539
outer loop
vertex -0.108654 0.116315 0.009062
vertex -0.046695 0.067253 0.012248
vertex -0.048137 0.065535 0.009062
endloop
endfacet
facet normal 0.461791 0.550341 -0.695611
outer loop
vertex -0.110396 0.114239 0.006263
vertex -0.108654 0.116315 0.009062
vertex -0.048137 0.065535 0.009062
endloop
endfacet
facet normal 0.461792 0.550342 -0.695609
outer loop
vertex -0.110396 0.114239 0.006263
vertex -0.048137 0.065535 0.009062
vertex -0.049879 0.063459 0.006263
endloop
endfacet
facet normal 0.386711 0.460864 -0.798786
outer loop
vertex -0.112397 0.111855 0.003919
vertex -0.110396 0.114239 0.006263
vertex -0.049879 0.063459 0.006263
endloop
endfacet
facet normal 0.386712 0.460865 -0.798785
outer loop
vertex -0.112397 0.111855 0.003919
vertex -0.049879 0.063459 0.006263
vertex -0.051879 0.061075 0.003919
endloop
endfacet
facet normal -0.642788 -0.766044 0.000000
outer loop
vertex 0.175125 -0.160001 0.000000
vertex 0.175125 -0.160001 0.002087
vertex -0.187980 0.144680 0.000000
endloop
endfacet
facet normal -0.642788 -0.766044 0.000000
outer loop
vertex -0.187980 0.144680 0.000000
vertex 0.175125 -0.160001 0.002087
vertex -0.187980 0.144680 0.002087
endloop
endfacet
facet normal -0.766044 0.642788 0.000000
outer loop
vertex -0.187980 0.144680 0.000000
vertex -0.187980 0.144680 0.002087
vertex -0.175125 0.160001 0.000000
endloop
endfacet
facet normal -0.766044 0.642788 0.000000
outer loop
vertex -0.175125 0.160001 0.000000
vertex -0.187980 0.144680 0.002087
vertex -0.175125 0.160001 0.002087
endloop
endfacet
facet normal -0.766044 0.642788 -0.000013
outer loop
vertex -0.175125 0.160001 0.002087
vertex -0.187980 0.144680 0.002087
vertex -0.172973 0.162565 0.003861
endloop
endfacet
facet normal -0.766044 0.642788 0.000000
outer loop
vertex -0.172973 0.162565 0.003861
vertex -0.187980 0.144680 0.002087
vertex -0.171019 0.164894 0.006120
endloop
endfacet
facet normal -0.766044 0.642788 0.000008
outer loop
vertex -0.171019 0.164894 0.006120
vertex -0.187980 0.144680 0.002087
vertex -0.169306 0.166935 0.008813
endloop
endfacet
facet normal -0.766044 0.642788 0.000000
outer loop
vertex -0.169306 0.166935 0.008813
vertex -0.187980 0.144680 0.002087
vertex -0.167875 0.168641 0.011878
endloop
endfacet
facet normal -0.766043 0.642789 0.000000
outer loop
vertex -0.167875 0.168641 0.011878
vertex -0.187980 0.144680 0.002087
vertex -0.166757 0.169973 0.015243
endloop
endfacet
facet normal -0.766046 0.642786 0.000000
outer loop
vertex -0.166757 0.169973 0.015243
vertex -0.187980 0.144680 0.002087
vertex -0.165979 0.170900 0.018833
endloop
endfacet
facet normal -0.766043 0.642790 0.000000
outer loop
vertex -0.165979 0.170900 0.018833
vertex -0.187980 0.144680 0.002087
vertex -0.165559 0.171401 0.022564
endloop
endfacet
facet normal -0.766047 0.642785 -0.000007
outer loop
vertex -0.165559 0.171401 0.022564
vertex -0.187980 0.144680 0.002087
vertex -0.165506 0.171464 0.026352
endloop
endfacet
facet normal -0.766044 0.642788 0.000007
outer loop
vertex -0.165506 0.171464 0.026352
vertex -0.187980 0.144680 0.002087
vertex -0.165822 0.171088 0.030108
endloop
endfacet
facet normal -0.766044 0.642788 0.000000
outer loop
vertex -0.165822 0.171088 0.030108
vertex -0.187980 0.144680 0.002087
vertex -0.166498 0.170281 0.033747
endloop
endfacet
facet normal -0.766049 0.642782 -0.000003
outer loop
vertex -0.166498 0.170281 0.033747
vertex -0.187980 0.144680 0.002087
vertex -0.167521 0.169063 0.037185
endloop
endfacet
facet normal -0.766042 0.642791 -0.000003
outer loop
vertex -0.167521 0.169063 0.037185
vertex -0.187980 0.144680 0.002087
vertex -0.168865 0.167461 0.040343
endloop
endfacet
facet normal -0.766044 0.642788 0.000003
outer loop
vertex -0.168865 0.167461 0.040343
vertex -0.187980 0.144680 0.002087
vertex -0.170501 0.165511 0.043149
endloop
endfacet
facet normal -0.766043 0.642789 0.000000
outer loop
vertex -0.170501 0.165511 0.043149
vertex -0.187980 0.144680 0.002087
vertex -0.172584 0.163029 0.045000
endloop
endfacet
facet normal -0.766040 0.642792 0.000008
outer loop
vertex -0.170501 0.165511 0.043149
vertex -0.172584 0.163029 0.045000
vertex -0.171965 0.163767 0.045000
endloop
endfacet
facet normal -0.766044 0.642788 -0.000003
outer loop
vertex -0.175221 0.159887 0.045000
vertex -0.172584 0.163029 0.045000
vertex -0.187980 0.144680 0.002087
endloop
endfacet
facet normal -0.766045 0.642787 0.000001
outer loop
vertex -0.177679 0.156957 0.045000
vertex -0.175221 0.159887 0.045000
vertex -0.187980 0.144680 0.002087
endloop
endfacet
facet normal -0.766045 0.642787 -0.000001
outer loop
vertex -0.177679 0.156957 0.045000
vertex -0.187980 0.144680 0.002087
vertex -0.190132 0.142116 0.003861
endloop
endfacet
facet normal -0.766035 0.642799 0.000016
outer loop
vertex -0.177679 0.156957 0.045000
vertex -0.190132 0.142116 0.003861
vertex -0.177900 0.156694 0.045000
endloop
endfacet
facet normal -0.766048 0.642784 0.000001
outer loop
vertex -0.177900 0.156694 0.045000
vertex -0.190132 0.142116 0.003861
vertex -0.192086 0.139787 0.006120
endloop
endfacet
facet normal -0.766025 0.642811 0.000000
outer loop
vertex -0.177900 0.156694 0.045000
vertex -0.192086 0.139787 0.006120
vertex -0.178137 0.156411 0.045000
endloop
endfacet
facet normal -0.766040 0.642792 -0.000001
outer loop
vertex -0.178137 0.156411 0.045000
vertex -0.192086 0.139787 0.006120
vertex -0.193799 0.137746 0.008813
endloop
endfacet
facet normal -0.766090 0.642733 0.000032
outer loop
vertex -0.178137 0.156411 0.045000
vertex -0.193799 0.137746 0.008813
vertex -0.178395 0.156104 0.045000
endloop
endfacet
facet normal -0.766044 0.642788 0.000000
outer loop
vertex -0.178395 0.156104 0.045000
vertex -0.193799 0.137746 0.008813
vertex -0.195230 0.136040 0.011878
endloop
endfacet
facet normal -0.766053 0.642778 -0.000032
outer loop
vertex -0.178395 0.156104 0.045000
vertex -0.195230 0.136040 0.011878
vertex -0.178680 0.155764 0.045000
endloop
endfacet
facet normal -0.766040 0.642793 -0.000002
outer loop
vertex -0.178680 0.155764 0.045000
vertex -0.195230 0.136040 0.011878
vertex -0.196348 0.134708 0.015243
endloop
endfacet
facet normal -0.766074 0.642752 0.000031
outer loop
vertex -0.178680 0.155764 0.045000
vertex -0.196348 0.134708 0.015243
vertex -0.179002 0.155381 0.045000
endloop
endfacet
facet normal -0.766041 0.642792 -0.000004
outer loop
vertex -0.179002 0.155381 0.045000
vertex -0.196348 0.134708 0.015243
vertex -0.197126 0.133781 0.018833
endloop
endfacet
facet normal -0.766076 0.642750 0.000031
outer loop
vertex -0.179002 0.155381 0.045000
vertex -0.197126 0.133781 0.018833
vertex -0.179371 0.154941 0.045000
endloop
endfacet
facet normal -0.766043 0.642789 -0.000003
outer loop
vertex -0.179371 0.154941 0.045000
vertex -0.197126 0.133781 0.018833
vertex -0.197546 0.133281 0.022564
endloop
endfacet
facet normal -0.766059 0.642771 -0.000031
outer loop
vertex -0.179371 0.154941 0.045000
vertex -0.197546 0.133281 0.022564
vertex -0.179804 0.154425 0.045000
endloop
endfacet
facet normal -0.766042 0.642790 -0.000001
outer loop
vertex -0.179804 0.154425 0.045000
vertex -0.197546 0.133281 0.022564
vertex -0.197599 0.133218 0.026352
endloop
endfacet
facet normal -0.766046 0.642786 0.000061
outer loop
vertex -0.179804 0.154425 0.045000
vertex -0.197599 0.133218 0.026352
vertex -0.180326 0.153802 0.045000
endloop
endfacet
facet normal -0.766045 0.642787 -0.000000
outer loop
vertex -0.180326 0.153802 0.045000
vertex -0.197599 0.133218 0.026352
vertex -0.197283 0.133594 0.030108
endloop
endfacet
facet normal -0.766044 0.642789 0.000000
outer loop
vertex -0.180326 0.153802 0.045000
vertex -0.197283 0.133594 0.030108
vertex -0.180977 0.153026 0.045000
endloop
endfacet
facet normal -0.766042 0.642791 -0.000008
outer loop
vertex -0.183490 0.150032 0.045000
vertex -0.180977 0.153026 0.045000
vertex -0.197283 0.133594 0.030108
endloop
endfacet
facet normal -0.766047 0.642785 0.000003
outer loop
vertex -0.183490 0.150032 0.045000
vertex -0.197283 0.133594 0.030108
vertex -0.196607 0.134400 0.033747
endloop
endfacet
facet normal -0.766032 0.642803 0.000017
outer loop
vertex -0.183490 0.150032 0.045000
vertex -0.196607 0.134400 0.033747
vertex -0.184285 0.149084 0.045000
endloop
endfacet
facet normal -0.766043 0.642790 -0.000005
outer loop
vertex -0.184285 0.149084 0.045000
vertex -0.196607 0.134400 0.033747
vertex -0.195584 0.135618 0.037185
endloop
endfacet
facet normal -0.766051 0.642780 0.000019
outer loop
vertex -0.184285 0.149084 0.045000
vertex -0.195584 0.135618 0.037185
vertex -0.185317 0.147855 0.045000
endloop
endfacet
facet normal -0.766044 0.642788 -0.000002
outer loop
vertex -0.185317 0.147855 0.045000
vertex -0.195584 0.135618 0.037185
vertex -0.194240 0.137221 0.040343
endloop
endfacet
facet normal -0.766052 0.642779 0.000023
outer loop
vertex -0.185317 0.147855 0.045000
vertex -0.194240 0.137221 0.040343
vertex -0.186728 0.146173 0.045000
endloop
endfacet
facet normal -0.766038 0.642796 -0.000007
outer loop
vertex -0.186728 0.146173 0.045000
vertex -0.194240 0.137221 0.040343
vertex -0.192604 0.139170 0.043149
endloop
endfacet
facet normal -0.766046 0.642786 -0.000019
outer loop
vertex -0.186728 0.146173 0.045000
vertex -0.192604 0.139170 0.043149
vertex -0.188803 0.143700 0.045000
endloop
endfacet
facet normal -0.766042 0.642790 0.000000
outer loop
vertex -0.191141 0.140914 0.045000
vertex -0.188803 0.143700 0.045000
vertex -0.192604 0.139170 0.043149
endloop
endfacet
facet normal 0.766044 -0.642788 0.000000
outer loop
vertex 0.175125 -0.160001 0.000000
vertex 0.187980 -0.144680 0.000000
vertex 0.175125 -0.160001 0.002087
endloop
endfacet
facet normal 0.766044 -0.642788 0.000000
outer loop
vertex 0.175125 -0.160001 0.002087
vertex 0.187980 -0.144680 0.000000
vertex 0.187980 -0.144680 0.002087
endloop
endfacet
facet normal 0.766045 -0.642787 -0.000003
outer loop
vertex 0.175125 -0.160001 0.002087
vertex 0.187980 -0.144680 0.002087
vertex 0.190132 -0.142116 0.003861
endloop
endfacet
facet normal 0.766044 -0.642788 0.000000
outer loop
vertex 0.190132 -0.142116 0.003861
vertex 0.192086 -0.139787 0.006120
vertex 0.175125 -0.160001 0.002087
endloop
endfacet
facet normal 0.766045 -0.642787 -0.000005
outer loop
vertex 0.175125 -0.160001 0.002087
vertex 0.192086 -0.139787 0.006120
vertex 0.193799 -0.137746 0.008813
endloop
endfacet
facet normal 0.766044 -0.642788 0.000005
outer loop
vertex 0.175125 -0.160001 0.002087
vertex 0.193799 -0.137746 0.008813
vertex 0.195230 -0.136040 0.011878
endloop
endfacet
facet normal 0.766043 -0.642789 -0.000005
outer loop
vertex 0.195230 -0.136040 0.011878
vertex 0.196348 -0.134708 0.015243
vertex 0.175125 -0.160001 0.002087
endloop
endfacet
facet normal 0.766046 -0.642786 0.000003
outer loop
vertex 0.175125 -0.160001 0.002087
vertex 0.196348 -0.134708 0.015243
vertex 0.197126 -0.133781 0.018833
endloop
endfacet
facet normal 0.766043 -0.642789 -0.000003
outer loop
vertex 0.175125 -0.160001 0.002087
vertex 0.197126 -0.133781 0.018833
vertex 0.197546 -0.133281 0.022564
endloop
endfacet
facet normal 0.766039 -0.642794 0.000000
outer loop
vertex 0.197546 -0.133281 0.022564
vertex 0.197599 -0.133218 0.026352
vertex 0.175125 -0.160001 0.002087
endloop
endfacet
facet normal 0.766046 -0.642786 0.000006
outer loop
vertex 0.175125 -0.160001 0.002087
vertex 0.197599 -0.133218 0.026352
vertex 0.197283 -0.133594 0.030108
endloop
endfacet
facet normal 0.766044 -0.642788 -0.000000
outer loop
vertex 0.175125 -0.160001 0.002087
vertex 0.197283 -0.133594 0.030108
vertex 0.196607 -0.134400 0.033747
endloop
endfacet
facet normal 0.766044 -0.642788 0.000000
outer loop
vertex 0.196607 -0.134400 0.033747
vertex 0.195584 -0.135618 0.037185
vertex 0.175125 -0.160001 0.002087
endloop
endfacet
facet normal 0.766045 -0.642787 -0.000005
outer loop
vertex 0.175125 -0.160001 0.002087
vertex 0.195584 -0.135618 0.037185
vertex 0.194240 -0.137220 0.040343
endloop
endfacet
facet normal 0.766047 -0.642785 -0.000001
outer loop
vertex 0.175125 -0.160001 0.002087
vertex 0.194240 -0.137220 0.040343
vertex 0.192604 -0.139170 0.043149
endloop
endfacet
facet normal 0.766042 -0.642791 0.000005
outer loop
vertex 0.190521 -0.141652 0.045000
vertex 0.175125 -0.160001 0.002087
vertex 0.192604 -0.139170 0.043149
endloop
endfacet
facet normal 0.766017 -0.642820 -0.000033
outer loop
vertex 0.190521 -0.141652 0.045000
vertex 0.192604 -0.139170 0.043149
vertex 0.191141 -0.140914 0.045000
endloop
endfacet
facet normal 0.766043 -0.642789 -0.000003
outer loop
vertex 0.187884 -0.144795 0.045000
vertex 0.175125 -0.160001 0.002087
vertex 0.190521 -0.141652 0.045000
endloop
endfacet
facet normal 0.766046 -0.642785 0.000003
outer loop
vertex 0.185426 -0.147724 0.045000
vertex 0.175125 -0.160001 0.002087
vertex 0.187884 -0.144795 0.045000
endloop
endfacet
facet normal 0.766042 -0.642791 0.000000
outer loop
vertex 0.179615 -0.154649 0.045000
vertex 0.165822 -0.171088 0.030108
vertex 0.182128 -0.151655 0.045000
endloop
endfacet
facet normal 0.766044 -0.642788 0.000005
outer loop
vertex 0.165822 -0.171088 0.030108
vertex 0.165506 -0.171464 0.026352
vertex 0.182779 -0.150879 0.045000
endloop
endfacet
facet normal 0.766045 -0.642787 0.000018
outer loop
vertex 0.165822 -0.171088 0.030108
vertex 0.182779 -0.150879 0.045000
vertex 0.182128 -0.151655 0.045000
endloop
endfacet
facet normal 0.766047 -0.642784 0.000000
outer loop
vertex 0.165506 -0.171464 0.026352
vertex 0.165559 -0.171401 0.022564
vertex 0.183301 -0.150256 0.045000
endloop
endfacet
facet normal 0.766039 -0.642794 -0.000030
outer loop
vertex 0.165506 -0.171464 0.026352
vertex 0.183301 -0.150256 0.045000
vertex 0.182779 -0.150879 0.045000
endloop
endfacet
facet normal 0.766044 -0.642788 0.000017
outer loop
vertex 0.171965 -0.163767 0.045000
vertex 0.170501 -0.165511 0.043149
vertex 0.174302 -0.160982 0.045000
endloop
endfacet
facet normal 0.766044 -0.642788 0.000000
outer loop
vertex 0.170501 -0.165511 0.043149
vertex 0.168865 -0.167461 0.040343
vertex 0.176378 -0.158508 0.045000
endloop
endfacet
facet normal 0.766047 -0.642785 0.000000
outer loop
vertex 0.170501 -0.165511 0.043149
vertex 0.176378 -0.158508 0.045000
vertex 0.174302 -0.160982 0.045000
endloop
endfacet
facet normal 0.766045 -0.642787 0.000000
outer loop
vertex 0.168865 -0.167461 0.040343
vertex 0.167521 -0.169063 0.037185
vertex 0.177789 -0.156826 0.045000
endloop
endfacet
facet normal 0.766046 -0.642786 -0.000006
outer loop
vertex 0.168865 -0.167461 0.040343
vertex 0.177789 -0.156826 0.045000
vertex 0.176378 -0.158508 0.045000
endloop
endfacet
facet normal 0.766048 -0.642784 0.000000
outer loop
vertex 0.167521 -0.169063 0.037185
vertex 0.166498 -0.170281 0.033747
vertex 0.178820 -0.155597 0.045000
endloop
endfacet
facet normal 0.766042 -0.642790 -0.000002
outer loop
vertex 0.167521 -0.169063 0.037185
vertex 0.178820 -0.155597 0.045000
vertex 0.177789 -0.156826 0.045000
endloop
endfacet
facet normal 0.766044 -0.642788 0.000007
outer loop
vertex 0.166498 -0.170281 0.033747
vertex 0.165822 -0.171088 0.030108
vertex 0.179615 -0.154649 0.045000
endloop
endfacet
facet normal 0.766033 -0.642801 0.000004
outer loop
vertex 0.166498 -0.170281 0.033747
vertex 0.179615 -0.154649 0.045000
vertex 0.178820 -0.155597 0.045000
endloop
endfacet
facet normal 0.766047 -0.642785 -0.000004
outer loop
vertex 0.165559 -0.171401 0.022564
vertex 0.165979 -0.170900 0.018833
vertex 0.183735 -0.149740 0.045000
endloop
endfacet
facet normal 0.766037 -0.642796 -0.000016
outer loop
vertex 0.165559 -0.171401 0.022564
vertex 0.183735 -0.149740 0.045000
vertex 0.183301 -0.150256 0.045000
endloop
endfacet
facet normal 0.766044 -0.642788 0.000000
outer loop
vertex 0.165979 -0.170900 0.018833
vertex 0.166757 -0.169973 0.015243
vertex 0.184103 -0.149301 0.045000
endloop
endfacet
facet normal 0.766063 -0.642765 -0.000002
outer loop
vertex 0.165979 -0.170900 0.018833
vertex 0.184103 -0.149301 0.045000
vertex 0.183735 -0.149740 0.045000
endloop
endfacet
facet normal 0.766046 -0.642786 0.000000
outer loop
vertex 0.166757 -0.169973 0.015243
vertex 0.167875 -0.168641 0.011878
vertex 0.184425 -0.148918 0.045000
endloop
endfacet
facet normal 0.766014 -0.642824 0.000017
outer loop
vertex 0.166757 -0.169973 0.015243
vertex 0.184425 -0.148918 0.045000
vertex 0.184103 -0.149301 0.045000
endloop
endfacet
facet normal 0.766046 -0.642786 0.000000
outer loop
vertex 0.167875 -0.168641 0.011878
vertex 0.169306 -0.166935 0.008813
vertex 0.184710 -0.148578 0.045000
endloop
endfacet
facet normal 0.766066 -0.642762 -0.000023
outer loop
vertex 0.167875 -0.168641 0.011878
vertex 0.184710 -0.148578 0.045000
vertex 0.184425 -0.148918 0.045000
endloop
endfacet
facet normal 0.766047 -0.642784 -0.000003
outer loop
vertex 0.169306 -0.166935 0.008813
vertex 0.171019 -0.164894 0.006120
vertex 0.184968 -0.148270 0.045000
endloop
endfacet
facet normal 0.765980 -0.642864 0.000042
outer loop
vertex 0.169306 -0.166935 0.008813
vertex 0.184968 -0.148270 0.045000
vertex 0.184710 -0.148578 0.045000
endloop
endfacet
facet normal 0.766042 -0.642790 0.000001
outer loop
vertex 0.171019 -0.164894 0.006120
vertex 0.172973 -0.162565 0.003861
vertex 0.185205 -0.147987 0.045000
endloop
endfacet
facet normal 0.766041 -0.642792 -0.000014
outer loop
vertex 0.171019 -0.164894 0.006120
vertex 0.185205 -0.147987 0.045000
vertex 0.184968 -0.148270 0.045000
endloop
endfacet
facet normal 0.766045 -0.642787 -0.000001
outer loop
vertex 0.172973 -0.162565 0.003861
vertex 0.175125 -0.160001 0.002087
vertex 0.185426 -0.147724 0.045000
endloop
endfacet
facet normal 0.766068 -0.642760 -0.000005
outer loop
vertex 0.172973 -0.162565 0.003861
vertex 0.185426 -0.147724 0.045000
vertex 0.185205 -0.147987 0.045000
endloop
endfacet
facet normal 0.000000 0.000000 1.000000
outer loop
vertex 0.190521 -0.141652 0.045000
vertex 0.191141 -0.140914 0.045000
vertex 0.168689 -0.122023 0.045000
endloop
endfacet
facet normal 0.242536 0.000000 0.970143
outer loop
vertex 0.130598 -0.090163 0.045000
vertex 0.094312 -0.059715 0.045000
vertex 0.070081 -0.039383 0.045000
endloop
endfacet
facet normal 0.000004 0.000000 1.000000
outer loop
vertex 0.190521 -0.141652 0.045000
vertex 0.168689 -0.122023 0.045000
vertex 0.130598 -0.090163 0.045000
endloop
endfacet
facet normal 0.242536 0.000000 -0.970143
outer loop
vertex 0.185426 -0.147724 0.045000
vertex 0.187884 -0.144795 0.045000
vertex 0.190521 -0.141652 0.045000
endloop
endfacet
facet normal 0.000000 0.000000 1.000000
outer loop
vertex 0.184710 -0.148578 0.045000
vertex 0.184968 -0.148270 0.045000
vertex 0.185205 -0.147987 0.045000
endloop
endfacet
facet normal 0.000000 0.000000 1.000000
outer loop
vertex 0.185205 -0.147987 0.045000
vertex 0.185426 -0.147724 0.045000
vertex 0.190521 -0.141652 0.045000
endloop
endfacet
facet normal -0.000006 0.000000 1.000000
outer loop
vertex 0.190521 -0.141652 0.045000
vertex 0.130598 -0.090163 0.045000
vertex 0.070081 -0.039383 0.045000
endloop
endfacet
facet normal -0.970143 0.000000 -0.242536
outer loop
vertex 0.033794 -0.008935 0.045000
vertex 0.009563 0.011397 0.045000
vertex -0.026723 0.041845 0.045000
endloop
endfacet
facet normal 0.000005 0.000000 1.000000
outer loop
vertex 0.190521 -0.141652 0.045000
vertex 0.070081 -0.039383 0.045000
vertex 0.033794 -0.008935 0.045000
endloop
endfacet
facet normal 0.000001 0.000000 1.000000
outer loop
vertex 0.185205 -0.147987 0.045000
vertex 0.190521 -0.141652 0.045000
vertex 0.033794 -0.008935 0.045000
endloop
endfacet
facet normal 0.928477 0.000000 0.371391
outer loop
vertex 0.033794 -0.008935 0.045000
vertex -0.026723 0.041845 0.045000
vertex -0.050954 0.062177 0.045000
endloop
endfacet
facet normal -0.707107 0.000000 -0.707107
outer loop
vertex 0.033794 -0.008935 0.045000
vertex -0.050954 0.062177 0.045000
vertex -0.087241 0.092626 0.045000
endloop
endfacet
facet normal 0.000000 0.000000 1.000000
outer loop
vertex 0.184710 -0.148578 0.045000
vertex 0.185205 -0.147987 0.045000
vertex 0.033794 -0.008935 0.045000
endloop
endfacet
facet normal 0.000000 0.000000 1.000000
outer loop
vertex 0.184103 -0.149301 0.045000
vertex 0.184425 -0.148918 0.045000
vertex 0.184710 -0.148578 0.045000
endloop
endfacet
facet normal 0.000000 0.000000 0.000000
outer loop
vertex 0.183301 -0.150256 0.045000
vertex 0.183735 -0.149740 0.045000
vertex 0.184103 -0.149301 0.045000
endloop
endfacet
facet normal -1.000000 0.000000 0.000000
outer loop
vertex 0.182128 -0.151655 0.045000
vertex 0.182779 -0.150879 0.045000
vertex 0.183301 -0.150256 0.045000
endloop
endfacet
facet normal -0.242536 0.000000 -0.970143
outer loop
vertex 0.177789 -0.156826 0.045000
vertex 0.178820 -0.155597 0.045000
vertex 0.179615 -0.154649 0.045000
endloop
endfacet
facet normal 0.164399 0.000000 0.986394
outer loop
vertex 0.182128 -0.151655 0.045000
vertex 0.183301 -0.150256 0.045000
vertex 0.184103 -0.149301 0.045000
endloop
endfacet
facet normal 0.242536 0.000000 -0.970143
outer loop
vertex 0.176378 -0.158508 0.045000
vertex 0.177789 -0.156826 0.045000
vertex 0.179615 -0.154649 0.045000
endloop
endfacet
facet normal 0.124035 0.000000 -0.992278
outer loop
vertex 0.179615 -0.154649 0.045000
vertex 0.182128 -0.151655 0.045000
vertex 0.184103 -0.149301 0.045000
endloop
endfacet
facet normal 0.000000 0.000000 1.000000
outer loop
vertex 0.184103 -0.149301 0.045000
vertex 0.184710 -0.148578 0.045000
vertex 0.033794 -0.008935 0.045000
endloop
endfacet
facet normal 0.000000 0.000000 1.000000
outer loop
vertex 0.184103 -0.149301 0.045000
vertex 0.033794 -0.008935 0.045000
vertex -0.087241 0.092626 0.045000
endloop
endfacet
facet normal 0.000000 0.000000 0.000000
outer loop
vertex 0.174302 -0.160982 0.045000
vertex 0.176378 -0.158508 0.045000
vertex 0.179615 -0.154649 0.045000
endloop
endfacet
facet normal 0.000000 0.000000 1.000000
outer loop
vertex 0.179615 -0.154649 0.045000
vertex 0.184103 -0.149301 0.045000
vertex -0.087241 0.092626 0.045000
endloop
endfacet
facet normal 0.000055 0.000000 1.000000
outer loop
vertex -0.111472 0.112958 0.045000
vertex -0.149462 0.144937 0.045000
vertex -0.171965 0.163767 0.045000
endloop
endfacet
facet normal 0.000001 0.000000 1.000000
outer loop
vertex 0.179615 -0.154649 0.045000
vertex -0.087241 0.092626 0.045000
vertex -0.111472 0.112958 0.045000
endloop
endfacet
facet normal 0.000000 0.000000 1.000000
outer loop
vertex 0.149462 -0.144937 0.045000
vertex 0.171965 -0.163767 0.045000
vertex 0.174302 -0.160982 0.045000
endloop
endfacet
facet normal -0.000001 0.000000 1.000000
outer loop
vertex 0.174302 -0.160982 0.045000
vertex 0.179615 -0.154649 0.045000
vertex -0.111472 0.112958 0.045000
endloop
endfacet
facet normal -0.000001 0.000000 1.000000
outer loop
vertex -0.111472 0.112958 0.045000
vertex -0.171965 0.163767 0.045000
vertex -0.172584 0.163029 0.045000
endloop
endfacet
facet normal -1.000000 0.000000 0.000000
outer loop
vertex -0.172584 0.163029 0.045000
vertex -0.175221 0.159887 0.045000
vertex -0.177679 0.156957 0.045000
endloop
endfacet
facet normal 0.000000 0.000000 1.000000
outer loop
vertex -0.177900 0.156694 0.045000
vertex -0.178137 0.156411 0.045000
vertex -0.178395 0.156104 0.045000
endloop
endfacet
facet normal 0.035692 0.000000 0.999363
outer loop
vertex -0.172584 0.163029 0.045000
vertex -0.177679 0.156957 0.045000
vertex -0.177900 0.156694 0.045000
endloop
endfacet
facet normal -0.000000 0.000000 1.000000
outer loop
vertex 0.174302 -0.160982 0.045000
vertex -0.111472 0.112958 0.045000
vertex -0.172584 0.163029 0.045000
endloop
endfacet
facet normal -0.000001 0.000000 1.000000
outer loop
vertex 0.111472 -0.112958 0.045000
vertex 0.149462 -0.144937 0.045000
vertex 0.174302 -0.160982 0.045000
endloop
endfacet
facet normal 0.000000 0.000000 0.000000
outer loop
vertex 0.026723 -0.041845 0.045000
vertex 0.050954 -0.062177 0.045000
vertex 0.087241 -0.092626 0.045000
endloop
endfacet
facet normal 0.000000 0.000000 1.000000
outer loop
vertex 0.087241 -0.092626 0.045000
vertex 0.111472 -0.112958 0.045000
vertex 0.174302 -0.160982 0.045000
endloop
endfacet
facet normal 0.000000 0.000000 1.000000
outer loop
vertex 0.174302 -0.160982 0.045000
vertex -0.172584 0.163029 0.045000
vertex -0.177900 0.156694 0.045000
endloop
endfacet
facet normal 0.124035 0.000000 -0.992278
outer loop
vertex -0.177900 0.156694 0.045000
vertex -0.178395 0.156104 0.045000
vertex -0.178680 0.155764 0.045000
endloop
endfacet
facet normal -0.242536 0.000000 0.970143
outer loop
vertex -0.177900 0.156694 0.045000
vertex -0.178680 0.155764 0.045000
vertex -0.179002 0.155381 0.045000
endloop
endfacet
facet normal 0.000000 0.000000 1.000000
outer loop
vertex 0.087241 -0.092626 0.045000
vertex 0.174302 -0.160982 0.045000
vertex -0.177900 0.156694 0.045000
endloop
endfacet
facet normal 0.970143 0.000000 0.242536
outer loop
vertex -0.033794 0.008935 0.045000
vertex -0.009563 -0.011397 0.045000
vertex 0.026723 -0.041845 0.045000
endloop
endfacet
facet normal 0.000000 0.000000 1.000000
outer loop
vertex 0.026723 -0.041845 0.045000
vertex 0.087241 -0.092626 0.045000
vertex -0.177900 0.156694 0.045000
endloop
endfacet
facet normal 0.099504 0.000000 0.995037
outer loop
vertex -0.177900 0.156694 0.045000
vertex -0.179002 0.155381 0.045000
vertex -0.179371 0.154941 0.045000
endloop
endfacet
facet normal 0.000000 0.000000 0.000000
outer loop
vertex -0.179371 0.154941 0.045000
vertex -0.179804 0.154425 0.045000
vertex -0.180326 0.153802 0.045000
endloop
endfacet
facet normal 0.000000 0.000000 -1.000000
outer loop
vertex -0.180326 0.153802 0.045000
vertex -0.180977 0.153026 0.045000
vertex -0.183490 0.150032 0.045000
endloop
endfacet
facet normal 1.000000 0.000000 0.000000
outer loop
vertex -0.183490 0.150032 0.045000
vertex -0.184285 0.149084 0.045000
vertex -0.185317 0.147855 0.045000
endloop
endfacet
facet normal 0.000000 0.000000 0.000000
outer loop
vertex -0.186728 0.146173 0.045000
vertex -0.188803 0.143700 0.045000
vertex -0.191141 0.140914 0.045000
endloop
endfacet
facet normal -0.447214 0.000000 -0.894427
outer loop
vertex -0.183490 0.150032 0.045000
vertex -0.185317 0.147855 0.045000
vertex -0.186728 0.146173 0.045000
endloop
endfacet
facet normal 0.000000 0.000000 1.000000
outer loop
vertex -0.177900 0.156694 0.045000
vertex -0.179371 0.154941 0.045000
vertex -0.180326 0.153802 0.045000
endloop
endfacet
facet normal 0.000000 0.000000 1.000000
outer loop
vertex -0.180326 0.153802 0.045000
vertex -0.183490 0.150032 0.045000
vertex -0.186728 0.146173 0.045000
endloop
endfacet
facet normal -0.000001 0.000000 1.000000
outer loop
vertex -0.186728 0.146173 0.045000
vertex -0.191141 0.140914 0.045000
vertex -0.168689 0.122023 0.045000
endloop
endfacet
facet normal -0.124035 0.000000 0.992278
outer loop
vertex -0.130598 0.090163 0.045000
vertex -0.094312 0.059715 0.045000
vertex -0.070081 0.039383 0.045000
endloop
endfacet
facet normal 0.000000 0.000000 1.000000
outer loop
vertex -0.186728 0.146173 0.045000
vertex -0.168689 0.122023 0.045000
vertex -0.130598 0.090163 0.045000
endloop
endfacet
facet normal 0.000000 0.000000 1.000000
outer loop
vertex -0.177900 0.156694 0.045000
vertex -0.180326 0.153802 0.045000
vertex -0.186728 0.146173 0.045000
endloop
endfacet
facet normal 0.000000 0.000000 1.000000
outer loop
vertex -0.033794 0.008935 0.045000
vertex 0.026723 -0.041845 0.045000
vertex -0.177900 0.156694 0.045000
endloop
endfacet
facet normal 0.000001 0.000000 1.000000
outer loop
vertex -0.186728 0.146173 0.045000
vertex -0.130598 0.090163 0.045000
vertex -0.070081 0.039383 0.045000
endloop
endfacet
facet normal 0.000000 0.000000 1.000000
outer loop
vertex -0.070081 0.039383 0.045000
vertex -0.033794 0.008935 0.045000
vertex -0.177900 0.156694 0.045000
endloop
endfacet
facet normal 0.000000 0.000000 1.000000
outer loop
vertex -0.177900 0.156694 0.045000
vertex -0.186728 0.146173 0.045000
vertex -0.070081 0.039383 0.045000
endloop
endfacet
solid cylinder
solid bottom
facet normal 0.000000 0.000000 -1.000000
outer loop
vertex -2.000000 0.3950000 0.000000
vertex 4.000000 0.3950000 0.000000
vertex 4.000000 -0.3950000 0.000000
endloop
endfacet
facet normal 0.000000 0.000000 -1.000000
outer loop
vertex -2.000000 0.3950000 0.000000
vertex 4.000000 -0.3950000 0.000000
vertex -2.000000 -0.3950000 0.000000
endloop
endfacet
endsolid bottom
solid frontAndBack
facet normal 0.000000 1.000000 0.000000
outer loop
vertex -2.000000 0.395000 0.000000
vertex -2.000000 0.395000 0.045000
vertex 4.000000 0.395000 0.045000
endloop
endfacet
facet normal 0.000000 1.000000 0.000000
outer loop
vertex -2.000000 0.395000 0.000000
vertex 4.000000 0.395000 0.045000
vertex 4.000000 0.395000 0.000000
endloop
endfacet
facet normal 0.000000 -1.000000 0.000000
outer loop
vertex 4.000000 -0.395000 0.000000
vertex 4.000000 -0.395000 0.045000
vertex -2.000000 -0.395000 0.045000
endloop
endfacet
facet normal 0.000000 -1.000000 0.000000
outer loop
vertex 4.000000 -0.395000 0.000000
vertex -2.000000 -0.395000 0.045000
vertex -2.000000 -0.395000 0.000000
endloop
endfacet
endsolid frontAndBack
solid outlet
facet normal 1.000000 0.000000 0.000000
outer loop
vertex 4.000000 0.395000 0.000000
vertex 4.000000 0.395000 0.045000
vertex 4.000000 -0.395000 0.045000
endloop
endfacet
facet normal 1.000000 0.000000 0.000000
outer loop
vertex 4.000000 0.395000 0.000000
vertex 4.000000 -0.395000 0.045000
vertex 4.000000 -0.395000 0.000000
endloop
endfacet
endsolid outlet
solid inlet
facet normal -1.000000 0.000000 0.000000
outer loop
vertex -2.000000 -0.395000 0.000000
vertex -2.000000 -0.395000 0.045000
vertex -2.000000 0.395000 0.045000
endloop
endfacet
facet normal -1.000000 0.000000 0.000000
outer loop
vertex -2.000000 -0.395000 0.000000
vertex -2.000000 0.395000 0.045000
vertex -2.000000 0.395000 0.000000
endloop
endfacet
endsolid inlet
solid top
facet normal 0.000000 0.000000 1.000000
outer loop
vertex 4.000000 0.395000 0.045000
vertex -2.000000 0.395000 0.045000
vertex -2.000000 -0.395000 0.045000
endloop
endfacet
facet normal 0.000000 0.000000 1.000000
outer loop
vertex 4.000000 0.395000 0.045000
vertex -2.000000 -0.395000 0.045000
vertex 4.000000 -0.395000 0.045000
endloop
endfacet
endsolid top
