solid bottom
facet normal 0.000000 0.000000 -1.000000
outer loop
vertex -2.000000 0.3950000 0.000000
vertex 4.000000 0.3950000 0.000000
vertex 4.000000 -0.3950000 0.000000
endloop
endfacet
facet normal 0.000000 0.000000 -1.000000
outer loop
vertex -2.000000 0.3950000 0.000000
vertex 4.000000 -0.3950000 0.000000
vertex -2.000000 -0.3950000 0.000000
endloop
endfacet
endsolid bottom
solid frontAndBack
facet normal 0.000000 1.000000 0.000000
outer loop
vertex -2.000000 0.395000 0.000000
vertex -2.000000 0.395000 0.100000
vertex 4.000000 0.395000 0.100000
endloop
endfacet
facet normal 0.000000 1.000000 0.000000
outer loop
vertex -2.000000 0.395000 0.000000
vertex 4.000000 0.395000 0.100000
vertex 4.000000 0.395000 0.000000
endloop
endfacet
facet normal 0.000000 -1.000000 0.000000
outer loop
vertex 4.000000 -0.395000 0.000000
vertex 4.000000 -0.395000 0.100000
vertex -2.000000 -0.395000 0.100000
endloop
endfacet
facet normal 0.000000 -1.000000 0.000000
outer loop
vertex 4.000000 -0.395000 0.000000
vertex -2.000000 -0.395000 0.100000
vertex -2.000000 -0.395000 0.000000
endloop
endfacet
endsolid frontAndBack
solid outlet
facet normal 1.000000 0.000000 0.000000
outer loop
vertex 4.000000 0.395000 0.000000
vertex 4.000000 0.395000 0.100000
vertex 4.000000 -0.395000 0.100000
endloop
endfacet
facet normal 1.000000 0.000000 0.000000
outer loop
vertex 4.000000 0.395000 0.000000
vertex 4.000000 -0.395000 0.100000
vertex 4.000000 -0.395000 0.000000
endloop
endfacet
endsolid outlet
solid inlet
facet normal -1.000000 0.000000 0.000000
outer loop
vertex -2.000000 -0.395000 0.000000
vertex -2.000000 -0.395000 0.100000
vertex -2.000000 0.395000 0.100000
endloop
endfacet
facet normal -1.000000 0.000000 0.000000
outer loop
vertex -2.000000 -0.395000 0.000000
vertex -2.000000 0.395000 0.100000
vertex -2.000000 0.395000 0.000000
endloop
endfacet
endsolid inlet
solid top
facet normal 0.000000 0.000000 1.000000
outer loop
vertex 4.000000 0.395000 0.100000
vertex -2.000000 0.395000 0.100000
vertex -2.000000 -0.395000 0.100000
endloop
endfacet
facet normal 0.000000 0.000000 1.000000
outer loop
vertex 4.000000 0.395000 0.100000
vertex -2.000000 -0.395000 0.100000
vertex 4.000000 -0.395000 0.100000
endloop
endfacet
endsolid top
solid cylinder
facet normal 0.000000 0.000000 -1.000000
outer loop
vertex 0.160001 -0.175125 0.000000
vertex 0.144680 -0.187980 0.000000
vertex -0.144680 0.187980 0.000000
endloop
endfacet
facet normal 0.000000 0.000000 -1.000000
outer loop
vertex -0.144680 0.187980 0.000000
vertex 0.144680 -0.187980 0.000000
vertex -0.160001 0.175125 0.000000
endloop
endfacet
facet normal 0.766044 0.642788 0.000000
outer loop
vertex 0.160001 -0.175125 0.002087
vertex 0.160001 -0.175125 0.000000
vertex -0.144680 0.187980 0.002087
endloop
endfacet
facet normal 0.766044 0.642788 0.000000
outer loop
vertex -0.144680 0.187980 0.002087
vertex 0.160001 -0.175125 0.000000
vertex -0.144680 0.187980 0.000000
endloop
endfacet
facet normal -0.358799 -0.300928 -0.883576
outer loop
vertex 0.142116 -0.190132 0.003861
vertex 0.091266 -0.129673 0.003919
vertex 0.144680 -0.187980 0.002087
endloop
endfacet
facet normal -0.360195 -0.302239 -0.882560
outer loop
vertex 0.144680 -0.187980 0.002087
vertex 0.091266 -0.129673 0.003919
vertex 0.040486 -0.069156 0.003919
endloop
endfacet
facet normal -0.360196 -0.302241 -0.882558
outer loop
vertex 0.144680 -0.187980 0.002087
vertex 0.040486 -0.069156 0.003919
vertex -0.010295 -0.008638 0.003919
endloop
endfacet
facet normal -0.460865 -0.386711 -0.798785
outer loop
vertex -0.010295 -0.008638 0.003919
vertex 0.040486 -0.069156 0.003919
vertex -0.012679 -0.010639 0.006263
endloop
endfacet
facet normal -0.460865 -0.386711 -0.798785
outer loop
vertex -0.010295 -0.008638 0.003919
vertex -0.012679 -0.010639 0.006263
vertex -0.063459 0.049879 0.006263
endloop
endfacet
facet normal -0.550342 -0.461791 -0.695610
outer loop
vertex -0.063459 0.049879 0.006263
vertex -0.012679 -0.010639 0.006263
vertex -0.065535 0.048137 0.009062
endloop
endfacet
facet normal -0.550341 -0.461791 -0.695610
outer loop
vertex -0.063459 0.049879 0.006263
vertex -0.065535 0.048137 0.009062
vertex -0.116315 0.108654 0.009062
endloop
endfacet
facet normal -0.626451 -0.525655 -0.575539
outer loop
vertex -0.116315 0.108654 0.009062
vertex -0.065535 0.048137 0.009062
vertex -0.118033 0.107213 0.012248
endloop
endfacet
facet normal -0.626207 -0.525946 -0.575539
outer loop
vertex -0.116315 0.108654 0.009062
vertex -0.118033 0.107213 0.012248
vertex -0.168641 0.167875 0.011878
endloop
endfacet
facet normal -0.680857 -0.570826 -0.458903
outer loop
vertex -0.168641 0.167875 0.011878
vertex -0.118033 0.107213 0.012248
vertex -0.169973 0.166757 0.015243
endloop
endfacet
facet normal -0.687049 -0.577103 -0.441493
outer loop
vertex -0.169973 0.166757 0.015243
vertex -0.118033 0.107213 0.012248
vertex -0.119351 0.106107 0.015744
endloop
endfacet
facet normal -0.726207 -0.608779 -0.319393
outer loop
vertex -0.169973 0.166757 0.015243
vertex -0.119351 0.106107 0.015744
vertex -0.170900 0.165979 0.018833
endloop
endfacet
facet normal -0.731203 -0.614249 -0.296717
outer loop
vertex -0.170900 0.165979 0.018833
vertex -0.119351 0.106107 0.015744
vertex -0.120236 0.105364 0.019465
endloop
endfacet
facet normal -0.754887 -0.632750 -0.172551
outer loop
vertex -0.170900 0.165979 0.018833
vertex -0.120236 0.105364 0.019465
vertex -0.171401 0.165559 0.022564
endloop
endfacet
facet normal -0.757590 -0.636480 -0.144746
outer loop
vertex -0.171401 0.165559 0.022564
vertex -0.120236 0.105364 0.019465
vertex -0.120668 0.105002 0.023320
endloop
endfacet
facet normal -0.766237 -0.642190 -0.021741
outer loop
vertex -0.171401 0.165559 0.022564
vertex -0.120668 0.105002 0.023320
vertex -0.171464 0.165506 0.026352
endloop
endfacet
facet normal -0.765573 -0.643260 0.010749
outer loop
vertex -0.171464 0.165506 0.026352
vertex -0.120668 0.105002 0.023320
vertex -0.120636 0.105029 0.027216
endloop
endfacet
facet normal -0.760000 -0.636879 0.129558
outer loop
vertex -0.171464 0.165506 0.026352
vertex -0.120636 0.105029 0.027216
vertex -0.171088 0.165822 0.030108
endloop
endfacet
facet normal -0.754954 -0.634424 0.165988
outer loop
vertex -0.171088 0.165822 0.030108
vertex -0.120636 0.105029 0.027216
vertex -0.120141 0.105444 0.031058
endloop
endfacet
facet normal -0.736319 -0.616937 0.277890
outer loop
vertex -0.171088 0.165822 0.030108
vertex -0.120141 0.105444 0.031058
vertex -0.170281 0.166498 0.033747
endloop
endfacet
facet normal -0.725992 -0.610187 0.317186
outer loop
vertex -0.170281 0.166498 0.033747
vertex -0.120141 0.105444 0.031058
vertex -0.119194 0.106239 0.034753
endloop
endfacet
facet normal -0.695738 -0.582825 0.419838
outer loop
vertex -0.170281 0.166498 0.033747
vertex -0.119194 0.106239 0.034753
vertex -0.169063 0.167521 0.037185
endloop
endfacet
facet normal -0.679387 -0.571139 0.460687
outer loop
vertex -0.169063 0.167521 0.037185
vertex -0.119194 0.106239 0.034753
vertex -0.117819 0.107392 0.038211
endloop
endfacet
facet normal -0.639194 -0.535324 0.552140
outer loop
vertex -0.169063 0.167521 0.037185
vertex -0.117819 0.107392 0.038211
vertex -0.167461 0.168865 0.040343
endloop
endfacet
facet normal -0.616275 -0.518233 0.592992
outer loop
vertex -0.167461 0.168865 0.040343
vertex -0.117819 0.107392 0.038211
vertex -0.116049 0.108877 0.041348
endloop
endfacet
facet normal -0.567976 -0.475517 0.671779
outer loop
vertex -0.167461 0.168865 0.040343
vertex -0.116049 0.108877 0.041348
vertex -0.165511 0.170501 0.043149
endloop
endfacet
facet normal -0.538184 -0.452748 0.710899
outer loop
vertex -0.165511 0.170501 0.043149
vertex -0.116049 0.108877 0.041348
vertex -0.113927 0.110658 0.044088
endloop
endfacet
facet normal -0.483730 -0.404788 0.775984
outer loop
vertex -0.165511 0.170501 0.043149
vertex -0.113927 0.110658 0.044088
vertex -0.163260 0.172390 0.045539
endloop
endfacet
facet normal -0.447011 -0.376281 0.811538
outer loop
vertex -0.163260 0.172390 0.045539
vertex -0.113927 0.110658 0.044088
vertex -0.111505 0.112690 0.046365
endloop
endfacet
facet normal -0.388384 -0.324753 0.862377
outer loop
vertex -0.163260 0.172390 0.045539
vertex -0.111505 0.112690 0.046365
vertex -0.160757 0.174490 0.047456
endloop
endfacet
facet normal -0.344972 -0.290687 0.892466
outer loop
vertex -0.160757 0.174490 0.047456
vertex -0.111505 0.112690 0.046365
vertex -0.108842 0.114925 0.048123
endloop
endfacet
facet normal -0.284130 -0.237250 0.928969
outer loop
vertex -0.160757 0.174490 0.047456
vertex -0.108842 0.114925 0.048123
vertex -0.158061 0.176752 0.048859
endloop
endfacet
facet normal -0.234542 -0.198045 0.951719
outer loop
vertex -0.158061 0.176752 0.048859
vertex -0.108842 0.114925 0.048123
vertex -0.106001 0.117309 0.049319
endloop
endfacet
facet normal -0.173360 -0.144288 0.974232
outer loop
vertex -0.158061 0.176752 0.048859
vertex -0.106001 0.117309 0.049319
vertex -0.155234 0.179125 0.049713
endloop
endfacet
facet normal -0.118405 -0.100606 0.987856
outer loop
vertex -0.155234 0.179125 0.049713
vertex -0.106001 0.117309 0.049319
vertex -0.103053 0.119783 0.049924
endloop
endfacet
facet normal -0.058623 -0.048004 0.997125
outer loop
vertex -0.155234 0.179125 0.049713
vertex -0.103053 0.119783 0.049924
vertex -0.152341 0.181553 0.050000
endloop
endfacet
facet normal 0.000619 -0.000737 1.000000
outer loop
vertex -0.152341 0.181553 0.050000
vertex -0.103053 0.119783 0.049924
vertex -0.100068 0.122287 0.049924
endloop
endfacet
facet normal 0.057453 0.049396 0.997125
outer loop
vertex -0.152341 0.181553 0.050000
vertex -0.100068 0.122287 0.049924
vertex -0.149447 0.183981 0.049713
endloop
endfacet
facet normal 0.119638 0.099136 0.987856
outer loop
vertex -0.149447 0.183981 0.049713
vertex -0.100068 0.122287 0.049924
vertex -0.097120 0.124761 0.049319
endloop
endfacet
facet normal 0.172200 0.145671 0.974231
outer loop
vertex -0.149447 0.183981 0.049713
vertex -0.097120 0.124761 0.049319
vertex -0.146620 0.186353 0.048859
endloop
endfacet
facet normal 0.235766 0.196589 0.951718
outer loop
vertex -0.146620 0.186353 0.048859
vertex -0.097120 0.124761 0.049319
vertex -0.094279 0.127145 0.048123
endloop
endfacet
facet normal 0.282981 0.238613 0.928970
outer loop
vertex -0.146620 0.186353 0.048859
vertex -0.094279 0.127145 0.048123
vertex -0.143924 0.188615 0.047456
endloop
endfacet
facet normal 0.346174 0.289253 0.892466
outer loop
vertex -0.143924 0.188615 0.047456
vertex -0.094279 0.127145 0.048123
vertex -0.091616 0.129380 0.046365
endloop
endfacet
facet normal 0.387260 0.326090 0.862377
outer loop
vertex -0.143924 0.188615 0.047456
vertex -0.091616 0.129380 0.046365
vertex -0.141422 0.190715 0.045539
endloop
endfacet
facet normal 0.448186 0.374879 0.811538
outer loop
vertex -0.141422 0.190715 0.045539
vertex -0.091616 0.129380 0.046365
vertex -0.089193 0.131412 0.044088
endloop
endfacet
facet normal 0.482639 0.406092 0.775983
outer loop
vertex -0.141422 0.190715 0.045539
vertex -0.089193 0.131412 0.044088
vertex -0.139170 0.192604 0.043149
endloop
endfacet
facet normal 0.539325 0.451387 0.710899
outer loop
vertex -0.139170 0.192604 0.043149
vertex -0.089193 0.131412 0.044088
vertex -0.087072 0.133193 0.041348
endloop
endfacet
facet normal 0.566922 0.476773 0.671779
outer loop
vertex -0.139170 0.192604 0.043149
vertex -0.087072 0.133193 0.041348
vertex -0.137220 0.194240 0.040343
endloop
endfacet
facet normal 0.617374 0.516923 0.592992
outer loop
vertex -0.137220 0.194240 0.040343
vertex -0.087072 0.133193 0.041348
vertex -0.085302 0.134678 0.038211
endloop
endfacet
facet normal 0.638185 0.536522 0.552146
outer loop
vertex -0.137220 0.194240 0.040343
vertex -0.085302 0.134678 0.038211
vertex -0.135618 0.195584 0.037185
endloop
endfacet
facet normal 0.680438 0.569890 0.460684
outer loop
vertex -0.135618 0.195584 0.037185
vertex -0.085302 0.134678 0.038211
vertex -0.083927 0.135831 0.034753
endloop
endfacet
facet normal 0.694785 0.583963 0.419835
outer loop
vertex -0.135618 0.195584 0.037185
vertex -0.083927 0.135831 0.034753
vertex -0.134400 0.196607 0.033747
endloop
endfacet
facet normal 0.726984 0.609005 0.317187
outer loop
vertex -0.134400 0.196607 0.033747
vertex -0.083927 0.135831 0.034753
vertex -0.082980 0.136626 0.031058
endloop
endfacet
facet normal 0.735427 0.618002 0.277887
outer loop
vertex -0.134400 0.196607 0.033747
vertex -0.082980 0.136626 0.031058
vertex -0.133594 0.197283 0.030108
endloop
endfacet
facet normal 0.755881 0.633317 0.165989
outer loop
vertex -0.133594 0.197283 0.030108
vertex -0.082980 0.136626 0.031058
vertex -0.082485 0.137041 0.027216
endloop
endfacet
facet normal 0.759176 0.637862 0.129555
outer loop
vertex -0.133594 0.197283 0.030108
vertex -0.082485 0.137041 0.027216
vertex -0.133218 0.197599 0.026352
endloop
endfacet
facet normal 0.766428 0.642241 0.010751
outer loop
vertex -0.133218 0.197599 0.026352
vertex -0.082485 0.137041 0.027216
vertex -0.082453 0.137068 0.023320
endloop
endfacet
facet normal 0.765489 0.643081 -0.021741
outer loop
vertex -0.133218 0.197599 0.026352
vertex -0.082453 0.137068 0.023320
vertex -0.133281 0.197546 0.022564
endloop
endfacet
facet normal 0.758365 0.635557 -0.144741
outer loop
vertex -0.133281 0.197546 0.022564
vertex -0.082453 0.137068 0.023320
vertex -0.082885 0.136706 0.019465
endloop
endfacet
facet normal 0.754222 0.633542 -0.172551
outer loop
vertex -0.133281 0.197546 0.022564
vertex -0.082885 0.136706 0.019465
vertex -0.133781 0.197126 0.018833
endloop
endfacet
facet normal 0.731888 0.613430 -0.296720
outer loop
vertex -0.133781 0.197126 0.018833
vertex -0.082885 0.136706 0.019465
vertex -0.083770 0.135963 0.015744
endloop
endfacet
facet normal 0.725636 0.609461 -0.319390
outer loop
vertex -0.133781 0.197126 0.018833
vertex -0.083770 0.135963 0.015744
vertex -0.134708 0.196348 0.015243
endloop
endfacet
facet normal 0.687640 0.576398 -0.441493
outer loop
vertex -0.134708 0.196348 0.015243
vertex -0.083770 0.135963 0.015744
vertex -0.085088 0.134857 0.012248
endloop
endfacet
facet normal 0.680383 0.571390 -0.458903
outer loop
vertex -0.134708 0.196348 0.015243
vertex -0.085088 0.134857 0.012248
vertex -0.136040 0.195231 0.011878
endloop
endfacet
facet normal 0.626695 0.525363 -0.575541
outer loop
vertex -0.136040 0.195231 0.011878
vertex -0.085088 0.134857 0.012248
vertex -0.086806 0.133416 0.009062
endloop
endfacet
facet normal 0.619510 0.520203 -0.587874
outer loop
vertex -0.136040 0.195231 0.011878
vertex -0.086806 0.133416 0.009062
vertex -0.137746 0.193799 0.008813
endloop
endfacet
facet normal 0.550528 0.461564 -0.695612
outer loop
vertex -0.137746 0.193799 0.008813
vertex -0.086806 0.133416 0.009062
vertex -0.088882 0.131674 0.006263
endloop
endfacet
facet normal 0.544411 0.457071 -0.703351
outer loop
vertex -0.137746 0.193799 0.008813
vertex -0.088882 0.131674 0.006263
vertex -0.139787 0.192086 0.006120
endloop
endfacet
facet normal 0.460995 0.386557 -0.798785
outer loop
vertex -0.139787 0.192086 0.006120
vertex -0.088882 0.131674 0.006263
vertex -0.091266 0.129673 0.003919
endloop
endfacet
facet normal 0.456813 0.383443 -0.802679
outer loop
vertex -0.139787 0.192086 0.006120
vertex -0.091266 0.129673 0.003919
vertex -0.142116 0.190132 0.003861
endloop
endfacet
facet normal 0.358799 0.300928 -0.883576
outer loop
vertex -0.142116 0.190132 0.003861
vertex -0.091266 0.129673 0.003919
vertex -0.144680 0.187980 0.002087
endloop
endfacet
facet normal 0.360195 0.302240 -0.882559
outer loop
vertex -0.144680 0.187980 0.002087
vertex -0.091266 0.129673 0.003919
vertex -0.040486 0.069156 0.003919
endloop
endfacet
facet normal 0.360195 0.302239 -0.882559
outer loop
vertex -0.144680 0.187980 0.002087
vertex -0.040486 0.069156 0.003919
vertex 0.010295 0.008638 0.003919
endloop
endfacet
facet normal 0.460866 0.386712 -0.798785
outer loop
vertex 0.010295 0.008638 0.003919
vertex -0.040486 0.069156 0.003919
vertex 0.012679 0.010639 0.006263
endloop
endfacet
facet normal 0.460865 0.386711 -0.798785
outer loop
vertex 0.010295 0.008638 0.003919
vertex 0.012679 0.010639 0.006263
vertex 0.063459 -0.049879 0.006263
endloop
endfacet
facet normal 0.550342 0.461792 -0.695609
outer loop
vertex 0.063459 -0.049879 0.006263
vertex 0.012679 0.010639 0.006263
vertex 0.065535 -0.048137 0.009062
endloop
endfacet
facet normal 0.550342 0.461792 -0.695609
outer loop
vertex 0.063459 -0.049879 0.006263
vertex 0.065535 -0.048137 0.009062
vertex 0.116315 -0.108654 0.009062
endloop
endfacet
facet normal 0.626450 0.525654 -0.575541
outer loop
vertex 0.116315 -0.108654 0.009062
vertex 0.065535 -0.048137 0.009062
vertex 0.118033 -0.107213 0.012248
endloop
endfacet
facet normal 0.626206 0.525945 -0.575541
outer loop
vertex 0.116315 -0.108654 0.009062
vertex 0.118033 -0.107213 0.012248
vertex 0.168641 -0.167875 0.011878
endloop
endfacet
facet normal 0.680857 0.570826 -0.458903
outer loop
vertex 0.168641 -0.167875 0.011878
vertex 0.118033 -0.107213 0.012248
vertex 0.169973 -0.166757 0.015243
endloop
endfacet
facet normal 0.687050 0.577104 -0.441490
outer loop
vertex 0.169973 -0.166757 0.015243
vertex 0.118033 -0.107213 0.012248
vertex 0.119351 -0.106107 0.015744
endloop
endfacet
facet normal 0.726207 0.608779 -0.319393
outer loop
vertex 0.169973 -0.166757 0.015243
vertex 0.119351 -0.106107 0.015744
vertex 0.170900 -0.165979 0.018833
endloop
endfacet
facet normal 0.731203 0.614249 -0.296717
outer loop
vertex 0.170900 -0.165979 0.018833
vertex 0.119351 -0.106107 0.015744
vertex 0.120236 -0.105364 0.019465
endloop
endfacet
facet normal 0.754887 0.632750 -0.172551
outer loop
vertex 0.170900 -0.165979 0.018833
vertex 0.120236 -0.105364 0.019465
vertex 0.171401 -0.165559 0.022564
endloop
endfacet
facet normal 0.757590 0.636480 -0.144746
outer loop
vertex 0.171401 -0.165559 0.022564
vertex 0.120236 -0.105364 0.019465
vertex 0.120668 -0.105002 0.023320
endloop
endfacet
facet normal 0.766237 0.642190 -0.021741
outer loop
vertex 0.171401 -0.165559 0.022564
vertex 0.120668 -0.105002 0.023320
vertex 0.171464 -0.165506 0.026352
endloop
endfacet
facet normal 0.765573 0.643260 0.010749
outer loop
vertex 0.171464 -0.165506 0.026352
vertex 0.120668 -0.105002 0.023320
vertex 0.120636 -0.105029 0.027216
endloop
endfacet
facet normal 0.760000 0.636879 0.129558
outer loop
vertex 0.171464 -0.165506 0.026352
vertex 0.120636 -0.105029 0.027216
vertex 0.171088 -0.165822 0.030108
endloop
endfacet
facet normal 0.754954 0.634424 0.165988
outer loop
vertex 0.171088 -0.165822 0.030108
vertex 0.120636 -0.105029 0.027216
vertex 0.120141 -0.105444 0.031058
endloop
endfacet
facet normal 0.736319 0.616937 0.277890
outer loop
vertex 0.171088 -0.165822 0.030108
vertex 0.120141 -0.105444 0.031058
vertex 0.170281 -0.166498 0.033747
endloop
endfacet
facet normal 0.725992 0.610187 0.317187
outer loop
vertex 0.170281 -0.166498 0.033747
vertex 0.120141 -0.105444 0.031058
vertex 0.119194 -0.106239 0.034753
endloop
endfacet
facet normal 0.695739 0.582826 0.419835
outer loop
vertex 0.170281 -0.166498 0.033747
vertex 0.119194 -0.106239 0.034753
vertex 0.169063 -0.167521 0.037185
endloop
endfacet
facet normal 0.679387 0.571139 0.460688
outer loop
vertex 0.169063 -0.167521 0.037185
vertex 0.119194 -0.106239 0.034753
vertex 0.117819 -0.107392 0.038211
endloop
endfacet
facet normal 0.639193 0.535323 0.552142
outer loop
vertex 0.169063 -0.167521 0.037185
vertex 0.117819 -0.107392 0.038211
vertex 0.167461 -0.168865 0.040343
endloop
endfacet
facet normal 0.616274 0.518233 0.592993
outer loop
vertex 0.167461 -0.168865 0.040343
vertex 0.117819 -0.107392 0.038211
vertex 0.116049 -0.108877 0.041348
endloop
endfacet
facet normal 0.567976 0.475517 0.671779
outer loop
vertex 0.167461 -0.168865 0.040343
vertex 0.116049 -0.108877 0.041348
vertex 0.165511 -0.170501 0.043149
endloop
endfacet
facet normal 0.538185 0.452749 0.710898
outer loop
vertex 0.165511 -0.170501 0.043149
vertex 0.116049 -0.108877 0.041348
vertex 0.113927 -0.110658 0.044088
endloop
endfacet
facet normal 0.483729 0.404787 0.775986
outer loop
vertex 0.165511 -0.170501 0.043149
vertex 0.113927 -0.110658 0.044088
vertex 0.163260 -0.172390 0.045539
endloop
endfacet
facet normal 0.447012 0.376282 0.811537
outer loop
vertex 0.163260 -0.172390 0.045539
vertex 0.113927 -0.110658 0.044088
vertex 0.111505 -0.112690 0.046365
endloop
endfacet
facet normal 0.388383 0.324752 0.862378
outer loop
vertex 0.163260 -0.172390 0.045539
vertex 0.111505 -0.112690 0.046365
vertex 0.160757 -0.174490 0.047456
endloop
endfacet
facet normal 0.344971 0.290687 0.892466
outer loop
vertex 0.160757 -0.174490 0.047456
vertex 0.111505 -0.112690 0.046365
vertex 0.108842 -0.114925 0.048123
endloop
endfacet
facet normal 0.284128 0.237249 0.928969
outer loop
vertex 0.160757 -0.174490 0.047456
vertex 0.108842 -0.114925 0.048123
vertex 0.158061 -0.176752 0.048859
endloop
endfacet
facet normal 0.234543 0.198044 0.951718
outer loop
vertex 0.158061 -0.176752 0.048859
vertex 0.108842 -0.114925 0.048123
vertex 0.106001 -0.117309 0.049319
endloop
endfacet
facet normal 0.173360 0.144288 0.974232
outer loop
vertex 0.158061 -0.176752 0.048859
vertex 0.106001 -0.117309 0.049319
vertex 0.155234 -0.179125 0.049713
endloop
endfacet
facet normal 0.118404 0.100606 0.987856
outer loop
vertex 0.155234 -0.179125 0.049713
vertex 0.106001 -0.117309 0.049319
vertex 0.103053 -0.119783 0.049924
endloop
endfacet
facet normal 0.058623 0.048004 0.997125
outer loop
vertex 0.155234 -0.179125 0.049713
vertex 0.103053 -0.119783 0.049924
vertex 0.152341 -0.181553 0.050000
endloop
endfacet
facet normal -0.000619 0.000737 1.000000
outer loop
vertex 0.152341 -0.181553 0.050000
vertex 0.103053 -0.119783 0.049924
vertex 0.100068 -0.122287 0.049924
endloop
endfacet
facet normal -0.057453 -0.049396 0.997125
outer loop
vertex 0.152341 -0.181553 0.050000
vertex 0.100068 -0.122287 0.049924
vertex 0.149447 -0.183980 0.049713
endloop
endfacet
facet normal -0.119638 -0.099137 0.987856
outer loop
vertex 0.149447 -0.183980 0.049713
vertex 0.100068 -0.122287 0.049924
vertex 0.097120 -0.124761 0.049319
endloop
endfacet
facet normal -0.172200 -0.145671 0.974232
outer loop
vertex 0.149447 -0.183980 0.049713
vertex 0.097120 -0.124761 0.049319
vertex 0.146620 -0.186353 0.048859
endloop
endfacet
facet normal -0.235763 -0.196588 0.951719
outer loop
vertex 0.146620 -0.186353 0.048859
vertex 0.097120 -0.124761 0.049319
vertex 0.094279 -0.127145 0.048123
endloop
endfacet
facet normal -0.282984 -0.238615 0.928969
outer loop
vertex 0.146620 -0.186353 0.048859
vertex 0.094279 -0.127145 0.048123
vertex 0.143924 -0.188615 0.047456
endloop
endfacet
facet normal -0.346174 -0.289253 0.892466
outer loop
vertex 0.143924 -0.188615 0.047456
vertex 0.094279 -0.127145 0.048123
vertex 0.091616 -0.129380 0.046365
endloop
endfacet
facet normal -0.387260 -0.326090 0.862377
outer loop
vertex 0.143924 -0.188615 0.047456
vertex 0.091616 -0.129380 0.046365
vertex 0.141422 -0.190715 0.045539
endloop
endfacet
facet normal -0.448186 -0.374879 0.811539
outer loop
vertex 0.141422 -0.190715 0.045539
vertex 0.091616 -0.129380 0.046365
vertex 0.089193 -0.131412 0.044088
endloop
endfacet
facet normal -0.482636 -0.406090 0.775985
outer loop
vertex 0.141422 -0.190715 0.045539
vertex 0.089193 -0.131412 0.044088
vertex 0.139170 -0.192604 0.043149
endloop
endfacet
facet normal -0.539325 -0.451387 0.710900
outer loop
vertex 0.139170 -0.192604 0.043149
vertex 0.089193 -0.131412 0.044088
vertex 0.087072 -0.133193 0.041348
endloop
endfacet
facet normal -0.566924 -0.476775 0.671776
outer loop
vertex 0.139170 -0.192604 0.043149
vertex 0.087072 -0.133193 0.041348
vertex 0.137220 -0.194240 0.040343
endloop
endfacet
facet normal -0.617372 -0.516921 0.592996
outer loop
vertex 0.137220 -0.194240 0.040343
vertex 0.087072 -0.133193 0.041348
vertex 0.085302 -0.134678 0.038211
endloop
endfacet
facet normal -0.638187 -0.536524 0.552141
outer loop
vertex 0.137220 -0.194240 0.040343
vertex 0.085302 -0.134678 0.038211
vertex 0.135618 -0.195584 0.037185
endloop
endfacet
facet normal -0.680436 -0.569888 0.460689
outer loop
vertex 0.135618 -0.195584 0.037185
vertex 0.085302 -0.134678 0.038211
vertex 0.083927 -0.135831 0.034753
endloop
endfacet
facet normal -0.694787 -0.583965 0.419830
outer loop
vertex 0.135618 -0.195584 0.037185
vertex 0.083927 -0.135831 0.034753
vertex 0.134400 -0.196607 0.033747
endloop
endfacet
facet normal -0.726984 -0.609005 0.317187
outer loop
vertex 0.134400 -0.196607 0.033747
vertex 0.083927 -0.135831 0.034753
vertex 0.082980 -0.136626 0.031058
endloop
endfacet
facet normal -0.735425 -0.618001 0.277893
outer loop
vertex 0.134400 -0.196607 0.033747
vertex 0.082980 -0.136626 0.031058
vertex 0.133594 -0.197283 0.030108
endloop
endfacet
facet normal -0.755882 -0.633318 0.165984
outer loop
vertex 0.133594 -0.197283 0.030108
vertex 0.082980 -0.136626 0.031058
vertex 0.082485 -0.137041 0.027216
endloop
endfacet
facet normal -0.759176 -0.637862 0.129555
outer loop
vertex 0.133594 -0.197283 0.030108
vertex 0.082485 -0.137041 0.027216
vertex 0.133218 -0.197599 0.026352
endloop
endfacet
facet normal -0.766428 -0.642240 0.010751
outer loop
vertex 0.133218 -0.197599 0.026352
vertex 0.082485 -0.137041 0.027216
vertex 0.082453 -0.137068 0.023320
endloop
endfacet
facet normal -0.765489 -0.643081 -0.021735
outer loop
vertex 0.133218 -0.197599 0.026352
vertex 0.082453 -0.137068 0.023320
vertex 0.133281 -0.197546 0.022564
endloop
endfacet
facet normal -0.758364 -0.635556 -0.144747
outer loop
vertex 0.133281 -0.197546 0.022564
vertex 0.082453 -0.137068 0.023320
vertex 0.082885 -0.136706 0.019465
endloop
endfacet
facet normal -0.754222 -0.633542 -0.172551
outer loop
vertex 0.133281 -0.197546 0.022564
vertex 0.082885 -0.136706 0.019465
vertex 0.133781 -0.197126 0.018833
endloop
endfacet
facet normal -0.731890 -0.613431 -0.296715
outer loop
vertex 0.133781 -0.197126 0.018833
vertex 0.082885 -0.136706 0.019465
vertex 0.083770 -0.135963 0.015744
endloop
endfacet
facet normal -0.725634 -0.609460 -0.319396
outer loop
vertex 0.133781 -0.197126 0.018833
vertex 0.083770 -0.135963 0.015744
vertex 0.134708 -0.196348 0.015243
endloop
endfacet
facet normal -0.687642 -0.576400 -0.441488
outer loop
vertex 0.134708 -0.196348 0.015243
vertex 0.083770 -0.135963 0.015744
vertex 0.085088 -0.134857 0.012248
endloop
endfacet
facet normal -0.680381 -0.571388 -0.458908
outer loop
vertex 0.134708 -0.196348 0.015243
vertex 0.085088 -0.134857 0.012248
vertex 0.136040 -0.195230 0.011878
endloop
endfacet
facet normal -0.626695 -0.525363 -0.575541
outer loop
vertex 0.136040 -0.195230 0.011878
vertex 0.085088 -0.134857 0.012248
vertex 0.086806 -0.133416 0.009062
endloop
endfacet
facet normal -0.619510 -0.520203 -0.587874
outer loop
vertex 0.136040 -0.195230 0.011878
vertex 0.086806 -0.133416 0.009062
vertex 0.137746 -0.193799 0.008813
endloop
endfacet
facet normal -0.550531 -0.461567 -0.695609
outer loop
vertex 0.137746 -0.193799 0.008813
vertex 0.086806 -0.133416 0.009062
vertex 0.088882 -0.131674 0.006263
endloop
endfacet
facet normal -0.544409 -0.457069 -0.703354
outer loop
vertex 0.137746 -0.193799 0.008813
vertex 0.088882 -0.131674 0.006263
vertex 0.139787 -0.192086 0.006120
endloop
endfacet
facet normal -0.460996 -0.386558 -0.798784
outer loop
vertex 0.139787 -0.192086 0.006120
vertex 0.088882 -0.131674 0.006263
vertex 0.091266 -0.129673 0.003919
endloop
endfacet
facet normal -0.456813 -0.383443 -0.802679
outer loop
vertex 0.139787 -0.192086 0.006120
vertex 0.091266 -0.129673 0.003919
vertex 0.142116 -0.190132 0.003861
endloop
endfacet
facet normal 0.619874 0.519764 -0.587879
outer loop
vertex 0.168641 -0.167875 0.011878
vertex 0.166935 -0.169306 0.008813
vertex 0.116315 -0.108654 0.009062
endloop
endfacet
facet normal 0.550153 0.462017 -0.695609
outer loop
vertex 0.116315 -0.108654 0.009062
vertex 0.166935 -0.169306 0.008813
vertex 0.114239 -0.110396 0.006263
endloop
endfacet
facet normal 0.550341 0.461791 -0.695610
outer loop
vertex 0.116315 -0.108654 0.009062
vertex 0.114239 -0.110396 0.006263
vertex 0.063459 -0.049879 0.006263
endloop
endfacet
facet normal 0.460866 0.386712 -0.798785
outer loop
vertex 0.063459 -0.049879 0.006263
vertex 0.114239 -0.110396 0.006263
vertex 0.061075 -0.051879 0.003919
endloop
endfacet
facet normal 0.460866 0.386712 -0.798785
outer loop
vertex 0.063459 -0.049879 0.006263
vertex 0.061075 -0.051879 0.003919
vertex 0.010295 0.008638 0.003919
endloop
endfacet
facet normal 0.360197 0.302241 -0.882558
outer loop
vertex 0.010295 0.008638 0.003919
vertex 0.061075 -0.051879 0.003919
vertex -0.144680 0.187980 0.002087
endloop
endfacet
facet normal 0.544662 0.456770 -0.703352
outer loop
vertex 0.166935 -0.169306 0.008813
vertex 0.164894 -0.171019 0.006120
vertex 0.114239 -0.110396 0.006263
endloop
endfacet
facet normal 0.460735 0.386866 -0.798786
outer loop
vertex 0.114239 -0.110396 0.006263
vertex 0.164894 -0.171019 0.006120
vertex 0.111855 -0.112397 0.003919
endloop
endfacet
facet normal 0.460866 0.386712 -0.798785
outer loop
vertex 0.114239 -0.110396 0.006263
vertex 0.111855 -0.112397 0.003919
vertex 0.061075 -0.051879 0.003919
endloop
endfacet
facet normal 0.360195 0.302240 -0.882559
outer loop
vertex 0.061075 -0.051879 0.003919
vertex 0.111855 -0.112397 0.003919
vertex -0.144680 0.187980 0.002087
endloop
endfacet
facet normal 0.456944 0.383289 -0.802678
outer loop
vertex 0.164894 -0.171019 0.006120
vertex 0.162565 -0.172973 0.003861
vertex 0.111855 -0.112397 0.003919
endloop
endfacet
facet normal 0.366372 0.307541 -0.878174
outer loop
vertex 0.111855 -0.112397 0.003919
vertex 0.162565 -0.172973 0.003861
vertex -0.144680 0.187980 0.002087
endloop
endfacet
facet normal 0.358729 0.301010 -0.883576
outer loop
vertex 0.162565 -0.172973 0.003861
vertex 0.160001 -0.175125 0.002087
vertex -0.144680 0.187980 0.002087
endloop
endfacet
facet normal -0.619874 -0.519764 -0.587879
outer loop
vertex -0.168641 0.167875 0.011878
vertex -0.166935 0.169306 0.008813
vertex -0.116315 0.108654 0.009062
endloop
endfacet
facet normal -0.550152 -0.462016 -0.695610
outer loop
vertex -0.116315 0.108654 0.009062
vertex -0.166935 0.169306 0.008813
vertex -0.114239 0.110396 0.006263
endloop
endfacet
facet normal -0.550342 -0.461792 -0.695609
outer loop
vertex -0.116315 0.108654 0.009062
vertex -0.114239 0.110396 0.006263
vertex -0.063459 0.049879 0.006263
endloop
endfacet
facet normal -0.460864 -0.386711 -0.798786
outer loop
vertex -0.063459 0.049879 0.006263
vertex -0.114239 0.110396 0.006263
vertex -0.061075 0.051879 0.003919
endloop
endfacet
facet normal -0.460865 -0.386712 -0.798785
outer loop
vertex -0.063459 0.049879 0.006263
vertex -0.061075 0.051879 0.003919
vertex -0.010295 -0.008638 0.003919
endloop
endfacet
facet normal -0.360200 -0.302243 -0.882556
outer loop
vertex -0.010295 -0.008638 0.003919
vertex -0.061075 0.051879 0.003919
vertex 0.144680 -0.187980 0.002087
endloop
endfacet
facet normal -0.544663 -0.456771 -0.703351
outer loop
vertex -0.166935 0.169306 0.008813
vertex -0.164894 0.171019 0.006120
vertex -0.114239 0.110396 0.006263
endloop
endfacet
facet normal -0.460734 -0.386866 -0.798786
outer loop
vertex -0.114239 0.110396 0.006263
vertex -0.164894 0.171019 0.006120
vertex -0.111855 0.112397 0.003919
endloop
endfacet
facet normal -0.460866 -0.386713 -0.798784
outer loop
vertex -0.114239 0.110396 0.006263
vertex -0.111855 0.112397 0.003919
vertex -0.061075 0.051879 0.003919
endloop
endfacet
facet normal -0.360193 -0.302238 -0.882560
outer loop
vertex -0.061075 0.051879 0.003919
vertex -0.111855 0.112397 0.003919
vertex 0.144680 -0.187980 0.002087
endloop
endfacet
facet normal -0.456944 -0.383289 -0.802678
outer loop
vertex -0.164894 0.171019 0.006120
vertex -0.162565 0.172973 0.003861
vertex -0.111855 0.112397 0.003919
endloop
endfacet
facet normal -0.366372 -0.307542 -0.878174
outer loop
vertex -0.111855 0.112397 0.003919
vertex -0.162565 0.172973 0.003861
vertex 0.144680 -0.187980 0.002087
endloop
endfacet
facet normal -0.358729 -0.301010 -0.883576
outer loop
vertex -0.162565 0.172973 0.003861
vertex -0.160001 0.175125 0.002087
vertex 0.144680 -0.187980 0.002087
endloop
endfacet
facet normal -0.460864 -0.386711 -0.798786
outer loop
vertex 0.040486 -0.069156 0.003919
vertex 0.091266 -0.129673 0.003919
vertex 0.038102 -0.071156 0.006263
endloop
endfacet
facet normal -0.460865 -0.386712 -0.798785
outer loop
vertex 0.038102 -0.071156 0.006263
vertex 0.091266 -0.129673 0.003919
vertex 0.088882 -0.131674 0.006263
endloop
endfacet
facet normal -0.550341 -0.461791 -0.695610
outer loop
vertex 0.038102 -0.071156 0.006263
vertex 0.088882 -0.131674 0.006263
vertex 0.036025 -0.072898 0.009062
endloop
endfacet
facet normal -0.550343 -0.461792 -0.695608
outer loop
vertex 0.036025 -0.072898 0.009062
vertex 0.088882 -0.131674 0.006263
vertex 0.086806 -0.133416 0.009062
endloop
endfacet
facet normal -0.626450 -0.525654 -0.575541
outer loop
vertex 0.036025 -0.072898 0.009062
vertex 0.086806 -0.133416 0.009062
vertex 0.034308 -0.074340 0.012248
endloop
endfacet
facet normal -0.626451 -0.525655 -0.575540
outer loop
vertex 0.034308 -0.074340 0.012248
vertex 0.086806 -0.133416 0.009062
vertex 0.085088 -0.134857 0.012248
endloop
endfacet
facet normal -0.687345 -0.576751 -0.441491
outer loop
vertex 0.034308 -0.074340 0.012248
vertex 0.085088 -0.134857 0.012248
vertex 0.032990 -0.075445 0.015744
endloop
endfacet
facet normal -0.687345 -0.576751 -0.441492
outer loop
vertex 0.032990 -0.075445 0.015744
vertex 0.085088 -0.134857 0.012248
vertex 0.083770 -0.135963 0.015744
endloop
endfacet
facet normal -0.731545 -0.613839 -0.296719
outer loop
vertex 0.032990 -0.075445 0.015744
vertex 0.083770 -0.135963 0.015744
vertex 0.032104 -0.076188 0.019465
endloop
endfacet
facet normal -0.731546 -0.613839 -0.296719
outer loop
vertex 0.032104 -0.076188 0.019465
vertex 0.083770 -0.135963 0.015744
vertex 0.082885 -0.136706 0.019465
endloop
endfacet
facet normal -0.757978 -0.636019 -0.144741
outer loop
vertex 0.032104 -0.076188 0.019465
vertex 0.082885 -0.136706 0.019465
vertex 0.031672 -0.076551 0.023320
endloop
endfacet
facet normal -0.757978 -0.636019 -0.144741
outer loop
vertex 0.031672 -0.076551 0.023320
vertex 0.082885 -0.136706 0.019465
vertex 0.082453 -0.137068 0.023320
endloop
endfacet
facet normal -0.766000 -0.642751 0.010748
outer loop
vertex 0.031672 -0.076551 0.023320
vertex 0.082453 -0.137068 0.023320
vertex 0.031704 -0.076524 0.027216
endloop
endfacet
facet normal -0.766000 -0.642750 0.010756
outer loop
vertex 0.031704 -0.076524 0.027216
vertex 0.082453 -0.137068 0.023320
vertex 0.082485 -0.137041 0.027216
endloop
endfacet
facet normal -0.755419 -0.633871 0.165982
outer loop
vertex 0.031704 -0.076524 0.027216
vertex 0.082485 -0.137041 0.027216
vertex 0.032200 -0.076108 0.031058
endloop
endfacet
facet normal -0.755417 -0.633871 0.165989
outer loop
vertex 0.032200 -0.076108 0.031058
vertex 0.082485 -0.137041 0.027216
vertex 0.082980 -0.136626 0.031058
endloop
endfacet
facet normal -0.726489 -0.609596 0.317186
outer loop
vertex 0.032200 -0.076108 0.031058
vertex 0.082980 -0.136626 0.031058
vertex 0.033147 -0.075314 0.034753
endloop
endfacet
facet normal -0.726488 -0.609597 0.317185
outer loop
vertex 0.033147 -0.075314 0.034753
vertex 0.082980 -0.136626 0.031058
vertex 0.083927 -0.135831 0.034753
endloop
endfacet
facet normal -0.679913 -0.570515 0.460686
outer loop
vertex 0.033147 -0.075314 0.034753
vertex 0.083927 -0.135831 0.034753
vertex 0.034522 -0.074160 0.038211
endloop
endfacet
facet normal -0.679915 -0.570515 0.460683
outer loop
vertex 0.034522 -0.074160 0.038211
vertex 0.083927 -0.135831 0.034753
vertex 0.085302 -0.134678 0.038211
endloop
endfacet
facet normal -0.616825 -0.517578 0.592992
outer loop
vertex 0.034522 -0.074160 0.038211
vertex 0.085302 -0.134678 0.038211
vertex 0.036291 -0.072675 0.041348
endloop
endfacet
facet normal -0.616825 -0.517578 0.592992
outer loop
vertex 0.036291 -0.072675 0.041348
vertex 0.085302 -0.134678 0.038211
vertex 0.087072 -0.133193 0.041348
endloop
endfacet
facet normal -0.538754 -0.452069 0.710899
outer loop
vertex 0.036291 -0.072675 0.041348
vertex 0.087072 -0.133193 0.041348
vertex 0.038413 -0.070895 0.044088
endloop
endfacet
facet normal -0.538757 -0.452069 0.710897
outer loop
vertex 0.038413 -0.070895 0.044088
vertex 0.087072 -0.133193 0.041348
vertex 0.089193 -0.131412 0.044088
endloop
endfacet
facet normal -0.447600 -0.375581 0.811538
outer loop
vertex 0.038413 -0.070895 0.044088
vertex 0.089193 -0.131412 0.044088
vertex 0.040835 -0.068862 0.046365
endloop
endfacet
facet normal -0.447599 -0.375581 0.811538
outer loop
vertex 0.040835 -0.068862 0.046365
vertex 0.089193 -0.131412 0.044088
vertex 0.091616 -0.129380 0.046365
endloop
endfacet
facet normal -0.345574 -0.289971 0.892466
outer loop
vertex 0.040835 -0.068862 0.046365
vertex 0.091616 -0.129380 0.046365
vertex 0.043499 -0.066627 0.048123
endloop
endfacet
facet normal -0.345572 -0.289970 0.892467
outer loop
vertex 0.043499 -0.066627 0.048123
vertex 0.091616 -0.129380 0.046365
vertex 0.094279 -0.127145 0.048123
endloop
endfacet
facet normal -0.235154 -0.197318 0.951719
outer loop
vertex 0.043499 -0.066627 0.048123
vertex 0.094279 -0.127145 0.048123
vertex 0.046340 -0.064244 0.049319
endloop
endfacet
facet normal -0.235155 -0.197317 0.951719
outer loop
vertex 0.046340 -0.064244 0.049319
vertex 0.094279 -0.127145 0.048123
vertex 0.097120 -0.124761 0.049319
endloop
endfacet
facet normal -0.119022 -0.099871 0.987856
outer loop
vertex 0.046340 -0.064244 0.049319
vertex 0.097120 -0.124761 0.049319
vertex 0.049288 -0.061770 0.049924
endloop
endfacet
facet normal -0.119020 -0.099871 0.987856
outer loop
vertex 0.049288 -0.061770 0.049924
vertex 0.097120 -0.124761 0.049319
vertex 0.100068 -0.122287 0.049924
endloop
endfacet
facet normal -0.000003 0.000000 1.000000
outer loop
vertex 0.049288 -0.061770 0.049924
vertex 0.100068 -0.122287 0.049924
vertex 0.052273 -0.059265 0.049924
endloop
endfacet
facet normal 0.000002 0.000000 1.000000
outer loop
vertex 0.052273 -0.059265 0.049924
vertex 0.100068 -0.122287 0.049924
vertex 0.103053 -0.119783 0.049924
endloop
endfacet
facet normal 0.119023 0.099871 0.987856
outer loop
vertex 0.052273 -0.059265 0.049924
vertex 0.103053 -0.119783 0.049924
vertex 0.055221 -0.056791 0.049319
endloop
endfacet
facet normal 0.119020 0.099871 0.987856
outer loop
vertex 0.055221 -0.056791 0.049319
vertex 0.103053 -0.119783 0.049924
vertex 0.106001 -0.117309 0.049319
endloop
endfacet
facet normal 0.235155 0.197318 0.951718
outer loop
vertex 0.055221 -0.056791 0.049319
vertex 0.106001 -0.117309 0.049319
vertex 0.058061 -0.054408 0.048123
endloop
endfacet
facet normal 0.235153 0.197317 0.951719
outer loop
vertex 0.058061 -0.054408 0.048123
vertex 0.106001 -0.117309 0.049319
vertex 0.108842 -0.114925 0.048123
endloop
endfacet
facet normal 0.345573 0.289970 0.892466
outer loop
vertex 0.058061 -0.054408 0.048123
vertex 0.108842 -0.114925 0.048123
vertex 0.060725 -0.052173 0.046365
endloop
endfacet
facet normal 0.345573 0.289971 0.892466
outer loop
vertex 0.060725 -0.052173 0.046365
vertex 0.108842 -0.114925 0.048123
vertex 0.111505 -0.112690 0.046365
endloop
endfacet
facet normal 0.447599 0.375581 0.811538
outer loop
vertex 0.060725 -0.052173 0.046365
vertex 0.111505 -0.112690 0.046365
vertex 0.063147 -0.050140 0.044088
endloop
endfacet
facet normal 0.447600 0.375581 0.811538
outer loop
vertex 0.063147 -0.050140 0.044088
vertex 0.111505 -0.112690 0.046365
vertex 0.113927 -0.110658 0.044088
endloop
endfacet
facet normal 0.538754 0.452068 0.710899
outer loop
vertex 0.063147 -0.050140 0.044088
vertex 0.113927 -0.110658 0.044088
vertex 0.065269 -0.048360 0.041348
endloop
endfacet
facet normal 0.538756 0.452070 0.710897
outer loop
vertex 0.065269 -0.048360 0.041348
vertex 0.113927 -0.110658 0.044088
vertex 0.116049 -0.108877 0.041348
endloop
endfacet
facet normal 0.616825 0.517577 0.592993
outer loop
vertex 0.065269 -0.048360 0.041348
vertex 0.116049 -0.108877 0.041348
vertex 0.067039 -0.046875 0.038211
endloop
endfacet
facet normal 0.616823 0.517578 0.592994
outer loop
vertex 0.067039 -0.046875 0.038211
vertex 0.116049 -0.108877 0.041348
vertex 0.117819 -0.107392 0.038211
endloop
endfacet
facet normal 0.679914 0.570515 0.460683
outer loop
vertex 0.067039 -0.046875 0.038211
vertex 0.117819 -0.107392 0.038211
vertex 0.068414 -0.045721 0.034753
endloop
endfacet
facet normal 0.679913 0.570515 0.460685
outer loop
vertex 0.068414 -0.045721 0.034753
vertex 0.117819 -0.107392 0.038211
vertex 0.119194 -0.106239 0.034753
endloop
endfacet
facet normal 0.726488 0.609597 0.317186
outer loop
vertex 0.068414 -0.045721 0.034753
vertex 0.119194 -0.106239 0.034753
vertex 0.069361 -0.044927 0.031058
endloop
endfacet
facet normal 0.726488 0.609595 0.317189
outer loop
vertex 0.069361 -0.044927 0.031058
vertex 0.119194 -0.106239 0.034753
vertex 0.120141 -0.105444 0.031058
endloop
endfacet
facet normal 0.755418 0.633871 0.165984
outer loop
vertex 0.069361 -0.044927 0.031058
vertex 0.120141 -0.105444 0.031058
vertex 0.069856 -0.044511 0.027216
endloop
endfacet
facet normal 0.755418 0.633870 0.165988
outer loop
vertex 0.069856 -0.044511 0.027216
vertex 0.120141 -0.105444 0.031058
vertex 0.120636 -0.105029 0.027216
endloop
endfacet
facet normal 0.766000 0.642751 0.010751
outer loop
vertex 0.069856 -0.044511 0.027216
vertex 0.120636 -0.105029 0.027216
vertex 0.069888 -0.044484 0.023320
endloop
endfacet
facet normal 0.766000 0.642751 0.010757
outer loop
vertex 0.069888 -0.044484 0.023320
vertex 0.120636 -0.105029 0.027216
vertex 0.120668 -0.105002 0.023320
endloop
endfacet
facet normal 0.757977 0.636019 -0.144744
outer loop
vertex 0.069888 -0.044484 0.023320
vertex 0.120668 -0.105002 0.023320
vertex 0.069456 -0.044847 0.019465
endloop
endfacet
facet normal 0.757978 0.636019 -0.144741
outer loop
vertex 0.069456 -0.044847 0.019465
vertex 0.120668 -0.105002 0.023320
vertex 0.120236 -0.105364 0.019465
endloop
endfacet
facet normal 0.731546 0.613839 -0.296720
outer loop
vertex 0.069456 -0.044847 0.019465
vertex 0.120236 -0.105364 0.019465
vertex 0.068570 -0.045590 0.015744
endloop
endfacet
facet normal 0.731546 0.613840 -0.296717
outer loop
vertex 0.068570 -0.045590 0.015744
vertex 0.120236 -0.105364 0.019465
vertex 0.119351 -0.106107 0.015744
endloop
endfacet
facet normal 0.687344 0.576751 -0.441494
outer loop
vertex 0.068570 -0.045590 0.015744
vertex 0.119351 -0.106107 0.015744
vertex 0.067253 -0.046695 0.012248
endloop
endfacet
facet normal 0.687345 0.576751 -0.441492
outer loop
vertex 0.067253 -0.046695 0.012248
vertex 0.119351 -0.106107 0.015744
vertex 0.118033 -0.107213 0.012248
endloop
endfacet
facet normal 0.626451 0.525655 -0.575539
outer loop
vertex 0.067253 -0.046695 0.012248
vertex 0.118033 -0.107213 0.012248
vertex 0.065535 -0.048137 0.009062
endloop
endfacet
facet normal -0.460865 -0.386712 -0.798785
outer loop
vertex 0.040486 -0.069156 0.003919
vertex 0.038102 -0.071156 0.006263
vertex -0.012679 -0.010639 0.006263
endloop
endfacet
facet normal -0.550341 -0.461791 -0.695610
outer loop
vertex -0.012679 -0.010639 0.006263
vertex 0.038102 -0.071156 0.006263
vertex -0.014755 -0.012381 0.009062
endloop
endfacet
facet normal -0.550342 -0.461791 -0.695610
outer loop
vertex -0.012679 -0.010639 0.006263
vertex -0.014755 -0.012381 0.009062
vertex -0.065535 0.048137 0.009062
endloop
endfacet
facet normal -0.626451 -0.525655 -0.575540
outer loop
vertex -0.065535 0.048137 0.009062
vertex -0.014755 -0.012381 0.009062
vertex -0.067253 0.046695 0.012248
endloop
endfacet
facet normal -0.626451 -0.525655 -0.575539
outer loop
vertex -0.065535 0.048137 0.009062
vertex -0.067253 0.046695 0.012248
vertex -0.118033 0.107213 0.012248
endloop
endfacet
facet normal -0.687344 -0.576750 -0.441494
outer loop
vertex -0.118033 0.107213 0.012248
vertex -0.067253 0.046695 0.012248
vertex -0.119351 0.106107 0.015744
endloop
endfacet
facet normal -0.550342 -0.461791 -0.695610
outer loop
vertex -0.014755 -0.012381 0.009062
vertex 0.038102 -0.071156 0.006263
vertex 0.036025 -0.072898 0.009062
endloop
endfacet
facet normal -0.626451 -0.525654 -0.575540
outer loop
vertex -0.014755 -0.012381 0.009062
vertex 0.036025 -0.072898 0.009062
vertex -0.016473 -0.013822 0.012248
endloop
endfacet
facet normal -0.626451 -0.525655 -0.575540
outer loop
vertex -0.016473 -0.013822 0.012248
vertex 0.036025 -0.072898 0.009062
vertex 0.034308 -0.074340 0.012248
endloop
endfacet
facet normal -0.687345 -0.576751 -0.441491
outer loop
vertex -0.016473 -0.013822 0.012248
vertex 0.034308 -0.074340 0.012248
vertex -0.017790 -0.014928 0.015744
endloop
endfacet
facet normal -0.687345 -0.576751 -0.441493
outer loop
vertex -0.017790 -0.014928 0.015744
vertex 0.034308 -0.074340 0.012248
vertex 0.032990 -0.075445 0.015744
endloop
endfacet
facet normal -0.731546 -0.613839 -0.296718
outer loop
vertex -0.017790 -0.014928 0.015744
vertex 0.032990 -0.075445 0.015744
vertex -0.018676 -0.015671 0.019465
endloop
endfacet
facet normal -0.731545 -0.613840 -0.296720
outer loop
vertex -0.018676 -0.015671 0.019465
vertex 0.032990 -0.075445 0.015744
vertex 0.032104 -0.076188 0.019465
endloop
endfacet
facet normal -0.757977 -0.636019 -0.144741
outer loop
vertex -0.018676 -0.015671 0.019465
vertex 0.032104 -0.076188 0.019465
vertex -0.019108 -0.016033 0.023320
endloop
endfacet
facet normal -0.757978 -0.636018 -0.144742
outer loop
vertex -0.019108 -0.016033 0.023320
vertex 0.032104 -0.076188 0.019465
vertex 0.031672 -0.076551 0.023320
endloop
endfacet
facet normal -0.766000 -0.642751 0.010755
outer loop
vertex -0.019108 -0.016033 0.023320
vertex 0.031672 -0.076551 0.023320
vertex -0.019076 -0.016006 0.027216
endloop
endfacet
facet normal -0.766000 -0.642750 0.010752
outer loop
vertex -0.019076 -0.016006 0.027216
vertex 0.031672 -0.076551 0.023320
vertex 0.031704 -0.076524 0.027216
endloop
endfacet
facet normal -0.755418 -0.633870 0.165986
outer loop
vertex -0.019076 -0.016006 0.027216
vertex 0.031704 -0.076524 0.027216
vertex -0.018580 -0.015591 0.031058
endloop
endfacet
facet normal -0.755418 -0.633871 0.165987
outer loop
vertex -0.018580 -0.015591 0.031058
vertex 0.031704 -0.076524 0.027216
vertex 0.032200 -0.076108 0.031058
endloop
endfacet
facet normal -0.726489 -0.609596 0.317185
outer loop
vertex -0.018580 -0.015591 0.031058
vertex 0.032200 -0.076108 0.031058
vertex -0.017634 -0.014796 0.034753
endloop
endfacet
facet normal -0.726488 -0.609596 0.317187
outer loop
vertex -0.017634 -0.014796 0.034753
vertex 0.032200 -0.076108 0.031058
vertex 0.033147 -0.075314 0.034753
endloop
endfacet
facet normal -0.679913 -0.570515 0.460685
outer loop
vertex -0.017634 -0.014796 0.034753
vertex 0.033147 -0.075314 0.034753
vertex -0.016259 -0.013643 0.038211
endloop
endfacet
facet normal -0.679915 -0.570515 0.460683
outer loop
vertex -0.016259 -0.013643 0.038211
vertex 0.033147 -0.075314 0.034753
vertex 0.034522 -0.074160 0.038211
endloop
endfacet
facet normal -0.616824 -0.517578 0.592993
outer loop
vertex -0.016259 -0.013643 0.038211
vertex 0.034522 -0.074160 0.038211
vertex -0.014489 -0.012158 0.041348
endloop
endfacet
facet normal -0.616825 -0.517578 0.592992
outer loop
vertex -0.014489 -0.012158 0.041348
vertex 0.034522 -0.074160 0.038211
vertex 0.036291 -0.072675 0.041348
endloop
endfacet
facet normal -0.538754 -0.452069 0.710899
outer loop
vertex -0.014489 -0.012158 0.041348
vertex 0.036291 -0.072675 0.041348
vertex -0.012367 -0.010377 0.044088
endloop
endfacet
facet normal -0.538755 -0.452069 0.710898
outer loop
vertex -0.012367 -0.010377 0.044088
vertex 0.036291 -0.072675 0.041348
vertex 0.038413 -0.070895 0.044088
endloop
endfacet
facet normal -0.447600 -0.375580 0.811538
outer loop
vertex -0.012367 -0.010377 0.044088
vertex 0.038413 -0.070895 0.044088
vertex -0.009945 -0.008345 0.046365
endloop
endfacet
facet normal -0.447601 -0.375581 0.811537
outer loop
vertex -0.009945 -0.008345 0.046365
vertex 0.038413 -0.070895 0.044088
vertex 0.040835 -0.068862 0.046365
endloop
endfacet
facet normal -0.345572 -0.289971 0.892467
outer loop
vertex -0.009945 -0.008345 0.046365
vertex 0.040835 -0.068862 0.046365
vertex -0.007281 -0.006110 0.048123
endloop
endfacet
facet normal -0.345574 -0.289971 0.892466
outer loop
vertex -0.007281 -0.006110 0.048123
vertex 0.040835 -0.068862 0.046365
vertex 0.043499 -0.066627 0.048123
endloop
endfacet
facet normal -0.235153 -0.197317 0.951719
outer loop
vertex -0.007281 -0.006110 0.048123
vertex 0.043499 -0.066627 0.048123
vertex -0.004441 -0.003726 0.049319
endloop
endfacet
facet normal -0.235154 -0.197317 0.951719
outer loop
vertex -0.004441 -0.003726 0.049319
vertex 0.043499 -0.066627 0.048123
vertex 0.046340 -0.064244 0.049319
endloop
endfacet
facet normal -0.119022 -0.099871 0.987856
outer loop
vertex -0.004441 -0.003726 0.049319
vertex 0.046340 -0.064244 0.049319
vertex -0.001492 -0.001252 0.049924
endloop
endfacet
facet normal -0.119021 -0.099871 0.987856
outer loop
vertex -0.001492 -0.001252 0.049924
vertex 0.046340 -0.064244 0.049319
vertex 0.049288 -0.061770 0.049924
endloop
endfacet
facet normal -0.000002 0.000000 1.000000
outer loop
vertex -0.001492 -0.001252 0.049924
vertex 0.049288 -0.061770 0.049924
vertex 0.001492 0.001252 0.049924
endloop
endfacet
facet normal 0.000001 0.000000 1.000000
outer loop
vertex 0.001492 0.001252 0.049924
vertex 0.049288 -0.061770 0.049924
vertex 0.052273 -0.059265 0.049924
endloop
endfacet
facet normal 0.119022 0.099871 0.987856
outer loop
vertex 0.001492 0.001252 0.049924
vertex 0.052273 -0.059265 0.049924
vertex 0.004441 0.003726 0.049319
endloop
endfacet
facet normal 0.119021 0.099871 0.987856
outer loop
vertex 0.004441 0.003726 0.049319
vertex 0.052273 -0.059265 0.049924
vertex 0.055221 -0.056791 0.049319
endloop
endfacet
facet normal 0.235156 0.197317 0.951718
outer loop
vertex 0.004441 0.003726 0.049319
vertex 0.055221 -0.056791 0.049319
vertex 0.007281 0.006110 0.048123
endloop
endfacet
facet normal 0.235155 0.197318 0.951719
outer loop
vertex 0.007281 0.006110 0.048123
vertex 0.055221 -0.056791 0.049319
vertex 0.058061 -0.054408 0.048123
endloop
endfacet
facet normal 0.345574 0.289970 0.892466
outer loop
vertex 0.007281 0.006110 0.048123
vertex 0.058061 -0.054408 0.048123
vertex 0.009945 0.008345 0.046365
endloop
endfacet
facet normal 0.345572 0.289971 0.892467
outer loop
vertex 0.009945 0.008345 0.046365
vertex 0.058061 -0.054408 0.048123
vertex 0.060725 -0.052173 0.046365
endloop
endfacet
facet normal 0.447600 0.375580 0.811538
outer loop
vertex 0.009945 0.008345 0.046365
vertex 0.060725 -0.052173 0.046365
vertex 0.012367 0.010377 0.044088
endloop
endfacet
facet normal 0.447597 0.375581 0.811539
outer loop
vertex 0.012367 0.010377 0.044088
vertex 0.060725 -0.052173 0.046365
vertex 0.063147 -0.050140 0.044088
endloop
endfacet
facet normal 0.538757 0.452069 0.710897
outer loop
vertex 0.012367 0.010377 0.044088
vertex 0.063147 -0.050140 0.044088
vertex 0.014489 0.012158 0.041348
endloop
endfacet
facet normal 0.538755 0.452069 0.710898
outer loop
vertex 0.014489 0.012158 0.041348
vertex 0.063147 -0.050140 0.044088
vertex 0.065269 -0.048360 0.041348
endloop
endfacet
facet normal 0.616826 0.517577 0.592992
outer loop
vertex 0.014489 0.012158 0.041348
vertex 0.065269 -0.048360 0.041348
vertex 0.016259 0.013643 0.038211
endloop
endfacet
facet normal 0.616824 0.517578 0.592994
outer loop
vertex 0.016259 0.013643 0.038211
vertex 0.065269 -0.048360 0.041348
vertex 0.067039 -0.046875 0.038211
endloop
endfacet
facet normal 0.679913 0.570515 0.460684
outer loop
vertex 0.016259 0.013643 0.038211
vertex 0.067039 -0.046875 0.038211
vertex 0.017634 0.014796 0.034753
endloop
endfacet
facet normal 0.679913 0.570516 0.460684
outer loop
vertex 0.017634 0.014796 0.034753
vertex 0.067039 -0.046875 0.038211
vertex 0.068414 -0.045721 0.034753
endloop
endfacet
facet normal 0.726489 0.609596 0.317187
outer loop
vertex 0.017634 0.014796 0.034753
vertex 0.068414 -0.045721 0.034753
vertex 0.018580 0.015591 0.031058
endloop
endfacet
facet normal 0.726489 0.609596 0.317187
outer loop
vertex 0.018580 0.015591 0.031058
vertex 0.068414 -0.045721 0.034753
vertex 0.069361 -0.044927 0.031058
endloop
endfacet
facet normal 0.755418 0.633872 0.165986
outer loop
vertex 0.018580 0.015591 0.031058
vertex 0.069361 -0.044927 0.031058
vertex 0.019076 0.016006 0.027216
endloop
endfacet
facet normal 0.755418 0.633871 0.165986
outer loop
vertex 0.019076 0.016006 0.027216
vertex 0.069361 -0.044927 0.031058
vertex 0.069856 -0.044511 0.027216
endloop
endfacet
facet normal 0.766000 0.642750 0.010753
outer loop
vertex 0.019076 0.016006 0.027216
vertex 0.069856 -0.044511 0.027216
vertex 0.019108 0.016033 0.023320
endloop
endfacet
facet normal 0.766000 0.642751 0.010753
outer loop
vertex 0.019108 0.016033 0.023320
vertex 0.069856 -0.044511 0.027216
vertex 0.069888 -0.044484 0.023320
endloop
endfacet
facet normal 0.757978 0.636019 -0.144741
outer loop
vertex 0.019108 0.016033 0.023320
vertex 0.069888 -0.044484 0.023320
vertex 0.018676 0.015671 0.019465
endloop
endfacet
facet normal 0.757978 0.636018 -0.144741
outer loop
vertex 0.018676 0.015671 0.019465
vertex 0.069888 -0.044484 0.023320
vertex 0.069456 -0.044847 0.019465
endloop
endfacet
facet normal 0.731545 0.613840 -0.296720
outer loop
vertex 0.018676 0.015671 0.019465
vertex 0.069456 -0.044847 0.019465
vertex 0.017790 0.014928 0.015744
endloop
endfacet
facet normal 0.731545 0.613839 -0.296719
outer loop
vertex 0.017790 0.014928 0.015744
vertex 0.069456 -0.044847 0.019465
vertex 0.068570 -0.045590 0.015744
endloop
endfacet
facet normal 0.687345 0.576751 -0.441491
outer loop
vertex 0.017790 0.014928 0.015744
vertex 0.068570 -0.045590 0.015744
vertex 0.016473 0.013822 0.012248
endloop
endfacet
facet normal 0.687345 0.576751 -0.441492
outer loop
vertex 0.016473 0.013822 0.012248
vertex 0.068570 -0.045590 0.015744
vertex 0.067253 -0.046695 0.012248
endloop
endfacet
facet normal 0.626451 0.525655 -0.575540
outer loop
vertex 0.016473 0.013822 0.012248
vertex 0.067253 -0.046695 0.012248
vertex 0.014755 0.012381 0.009062
endloop
endfacet
facet normal 0.626451 0.525654 -0.575540
outer loop
vertex 0.014755 0.012381 0.009062
vertex 0.067253 -0.046695 0.012248
vertex 0.065535 -0.048137 0.009062
endloop
endfacet
facet normal 0.550341 0.461791 -0.695610
outer loop
vertex 0.014755 0.012381 0.009062
vertex 0.065535 -0.048137 0.009062
vertex 0.012679 0.010639 0.006263
endloop
endfacet
facet normal -0.626451 -0.525655 -0.575540
outer loop
vertex -0.014755 -0.012381 0.009062
vertex -0.016473 -0.013822 0.012248
vertex -0.067253 0.046695 0.012248
endloop
endfacet
facet normal -0.687345 -0.576751 -0.441492
outer loop
vertex -0.067253 0.046695 0.012248
vertex -0.016473 -0.013822 0.012248
vertex -0.068570 0.045590 0.015744
endloop
endfacet
facet normal -0.687345 -0.576751 -0.441493
outer loop
vertex -0.067253 0.046695 0.012248
vertex -0.068570 0.045590 0.015744
vertex -0.119351 0.106107 0.015744
endloop
endfacet
facet normal -0.731545 -0.613840 -0.296719
outer loop
vertex -0.119351 0.106107 0.015744
vertex -0.068570 0.045590 0.015744
vertex -0.120236 0.105364 0.019465
endloop
endfacet
facet normal -0.687345 -0.576751 -0.441492
outer loop
vertex -0.068570 0.045590 0.015744
vertex -0.016473 -0.013822 0.012248
vertex -0.017790 -0.014928 0.015744
endloop
endfacet
facet normal -0.731545 -0.613840 -0.296719
outer loop
vertex -0.068570 0.045590 0.015744
vertex -0.017790 -0.014928 0.015744
vertex -0.069456 0.044847 0.019465
endloop
endfacet
facet normal -0.731545 -0.613840 -0.296719
outer loop
vertex -0.069456 0.044847 0.019465
vertex -0.017790 -0.014928 0.015744
vertex -0.018676 -0.015671 0.019465
endloop
endfacet
facet normal -0.757978 -0.636019 -0.144741
outer loop
vertex -0.069456 0.044847 0.019465
vertex -0.018676 -0.015671 0.019465
vertex -0.069888 0.044484 0.023320
endloop
endfacet
facet normal -0.757978 -0.636018 -0.144742
outer loop
vertex -0.069888 0.044484 0.023320
vertex -0.018676 -0.015671 0.019465
vertex -0.019108 -0.016033 0.023320
endloop
endfacet
facet normal -0.766000 -0.642751 0.010753
outer loop
vertex -0.069888 0.044484 0.023320
vertex -0.019108 -0.016033 0.023320
vertex -0.069856 0.044511 0.027216
endloop
endfacet
facet normal -0.766001 -0.642750 0.010753
outer loop
vertex -0.069856 0.044511 0.027216
vertex -0.019108 -0.016033 0.023320
vertex -0.019076 -0.016006 0.027216
endloop
endfacet
facet normal -0.755418 -0.633871 0.165986
outer loop
vertex -0.069856 0.044511 0.027216
vertex -0.019076 -0.016006 0.027216
vertex -0.069361 0.044927 0.031058
endloop
endfacet
facet normal -0.755418 -0.633871 0.165986
outer loop
vertex -0.069361 0.044927 0.031058
vertex -0.019076 -0.016006 0.027216
vertex -0.018580 -0.015591 0.031058
endloop
endfacet
facet normal -0.726489 -0.609596 0.317187
outer loop
vertex -0.069361 0.044927 0.031058
vertex -0.018580 -0.015591 0.031058
vertex -0.068414 0.045721 0.034753
endloop
endfacet
facet normal -0.726489 -0.609596 0.317187
outer loop
vertex -0.068414 0.045721 0.034753
vertex -0.018580 -0.015591 0.031058
vertex -0.017634 -0.014796 0.034753
endloop
endfacet
facet normal -0.679914 -0.570515 0.460684
outer loop
vertex -0.068414 0.045721 0.034753
vertex -0.017634 -0.014796 0.034753
vertex -0.067039 0.046875 0.038211
endloop
endfacet
facet normal -0.679914 -0.570515 0.460684
outer loop
vertex -0.067039 0.046875 0.038211
vertex -0.017634 -0.014796 0.034753
vertex -0.016259 -0.013643 0.038211
endloop
endfacet
facet normal -0.616824 -0.517578 0.592994
outer loop
vertex -0.067039 0.046875 0.038211
vertex -0.016259 -0.013643 0.038211
vertex -0.065269 0.048360 0.041348
endloop
endfacet
facet normal -0.616825 -0.517577 0.592992
outer loop
vertex -0.065269 0.048360 0.041348
vertex -0.016259 -0.013643 0.038211
vertex -0.014489 -0.012158 0.041348
endloop
endfacet
facet normal -0.538756 -0.452069 0.710898
outer loop
vertex -0.065269 0.048360 0.041348
vertex -0.014489 -0.012158 0.041348
vertex -0.063147 0.050140 0.044088
endloop
endfacet
facet normal -0.538756 -0.452069 0.710897
outer loop
vertex -0.063147 0.050140 0.044088
vertex -0.014489 -0.012158 0.041348
vertex -0.012367 -0.010377 0.044088
endloop
endfacet
facet normal -0.447597 -0.375581 0.811539
outer loop
vertex -0.063147 0.050140 0.044088
vertex -0.012367 -0.010377 0.044088
vertex -0.060725 0.052173 0.046365
endloop
endfacet
facet normal -0.447600 -0.375580 0.811538
outer loop
vertex -0.060725 0.052173 0.046365
vertex -0.012367 -0.010377 0.044088
vertex -0.009945 -0.008345 0.046365
endloop
endfacet
facet normal -0.345573 -0.289971 0.892467
outer loop
vertex -0.060725 0.052173 0.046365
vertex -0.009945 -0.008345 0.046365
vertex -0.058061 0.054408 0.048123
endloop
endfacet
facet normal -0.345574 -0.289970 0.892466
outer loop
vertex -0.058061 0.054408 0.048123
vertex -0.009945 -0.008345 0.046365
vertex -0.007281 -0.006110 0.048123
endloop
endfacet
facet normal -0.235154 -0.197317 0.951719
outer loop
vertex -0.058061 0.054408 0.048123
vertex -0.007281 -0.006110 0.048123
vertex -0.055221 0.056791 0.049319
endloop
endfacet
facet normal -0.235155 -0.197318 0.951718
outer loop
vertex -0.055221 0.056791 0.049319
vertex -0.007281 -0.006110 0.048123
vertex -0.004441 -0.003726 0.049319
endloop
endfacet
facet normal -0.119020 -0.099871 0.987856
outer loop
vertex -0.055221 0.056791 0.049319
vertex -0.004441 -0.003726 0.049319
vertex -0.052273 0.059265 0.049924
endloop
endfacet
facet normal -0.119022 -0.099871 0.987856
outer loop
vertex -0.052273 0.059265 0.049924
vertex -0.004441 -0.003726 0.049319
vertex -0.001492 -0.001252 0.049924
endloop
endfacet
facet normal -0.000002 0.000000 1.000000
outer loop
vertex -0.052273 0.059265 0.049924
vertex -0.001492 -0.001252 0.049924
vertex -0.049288 0.061770 0.049924
endloop
endfacet
facet normal 0.000001 0.000000 1.000000
outer loop
vertex -0.049288 0.061770 0.049924
vertex -0.001492 -0.001252 0.049924
vertex 0.001492 0.001252 0.049924
endloop
endfacet
facet normal 0.119021 0.099871 0.987856
outer loop
vertex -0.049288 0.061770 0.049924
vertex 0.001492 0.001252 0.049924
vertex -0.046340 0.064244 0.049319
endloop
endfacet
facet normal 0.119022 0.099871 0.987856
outer loop
vertex -0.046340 0.064244 0.049319
vertex 0.001492 0.001252 0.049924
vertex 0.004441 0.003726 0.049319
endloop
endfacet
facet normal 0.235154 0.197317 0.951719
outer loop
vertex -0.046340 0.064244 0.049319
vertex 0.004441 0.003726 0.049319
vertex -0.043499 0.066627 0.048123
endloop
endfacet
facet normal 0.235153 0.197317 0.951719
outer loop
vertex -0.043499 0.066627 0.048123
vertex 0.004441 0.003726 0.049319
vertex 0.007281 0.006110 0.048123
endloop
endfacet
facet normal 0.345574 0.289971 0.892466
outer loop
vertex -0.043499 0.066627 0.048123
vertex 0.007281 0.006110 0.048123
vertex -0.040835 0.068862 0.046365
endloop
endfacet
facet normal 0.345572 0.289971 0.892467
outer loop
vertex -0.040835 0.068862 0.046365
vertex 0.007281 0.006110 0.048123
vertex 0.009945 0.008345 0.046365
endloop
endfacet
facet normal 0.447600 0.375580 0.811538
outer loop
vertex -0.040835 0.068862 0.046365
vertex 0.009945 0.008345 0.046365
vertex -0.038413 0.070895 0.044088
endloop
endfacet
facet normal 0.447600 0.375581 0.811538
outer loop
vertex -0.038413 0.070895 0.044088
vertex 0.009945 0.008345 0.046365
vertex 0.012367 0.010377 0.044088
endloop
endfacet
facet normal 0.538755 0.452069 0.710898
outer loop
vertex -0.038413 0.070895 0.044088
vertex 0.012367 0.010377 0.044088
vertex -0.036291 0.072675 0.041348
endloop
endfacet
facet normal 0.538755 0.452069 0.710898
outer loop
vertex -0.036291 0.072675 0.041348
vertex 0.012367 0.010377 0.044088
vertex 0.014489 0.012158 0.041348
endloop
endfacet
facet normal 0.616825 0.517578 0.592992
outer loop
vertex -0.036291 0.072675 0.041348
vertex 0.014489 0.012158 0.041348
vertex -0.034522 0.074160 0.038211
endloop
endfacet
facet normal 0.616824 0.517578 0.592994
outer loop
vertex -0.034522 0.074160 0.038211
vertex 0.014489 0.012158 0.041348
vertex 0.016259 0.013643 0.038211
endloop
endfacet
facet normal 0.679914 0.570515 0.460683
outer loop
vertex -0.034522 0.074160 0.038211
vertex 0.016259 0.013643 0.038211
vertex -0.033147 0.075314 0.034753
endloop
endfacet
facet normal 0.679913 0.570516 0.460684
outer loop
vertex -0.033147 0.075314 0.034753
vertex 0.016259 0.013643 0.038211
vertex 0.017634 0.014796 0.034753
endloop
endfacet
facet normal 0.726488 0.609596 0.317188
outer loop
vertex -0.033147 0.075314 0.034753
vertex 0.017634 0.014796 0.034753
vertex -0.032200 0.076108 0.031058
endloop
endfacet
facet normal 0.726489 0.609596 0.317186
outer loop
vertex -0.032200 0.076108 0.031058
vertex 0.017634 0.014796 0.034753
vertex 0.018580 0.015591 0.031058
endloop
endfacet
facet normal 0.755418 0.633871 0.165985
outer loop
vertex -0.032200 0.076108 0.031058
vertex 0.018580 0.015591 0.031058
vertex -0.031704 0.076524 0.027216
endloop
endfacet
facet normal 0.755418 0.633871 0.165986
outer loop
vertex -0.031704 0.076524 0.027216
vertex 0.018580 0.015591 0.031058
vertex 0.019076 0.016006 0.027216
endloop
endfacet
facet normal 0.766000 0.642751 0.010754
outer loop
vertex -0.031704 0.076524 0.027216
vertex 0.019076 0.016006 0.027216
vertex -0.031672 0.076551 0.023320
endloop
endfacet
facet normal 0.766000 0.642751 0.010753
outer loop
vertex -0.031672 0.076551 0.023320
vertex 0.019076 0.016006 0.027216
vertex 0.019108 0.016033 0.023320
endloop
endfacet
facet normal 0.757978 0.636019 -0.144741
outer loop
vertex -0.031672 0.076551 0.023320
vertex 0.019108 0.016033 0.023320
vertex -0.032104 0.076188 0.019465
endloop
endfacet
facet normal 0.757978 0.636019 -0.144742
outer loop
vertex -0.032104 0.076188 0.019465
vertex 0.019108 0.016033 0.023320
vertex 0.018676 0.015671 0.019465
endloop
endfacet
facet normal 0.731545 0.613840 -0.296720
outer loop
vertex -0.032104 0.076188 0.019465
vertex 0.018676 0.015671 0.019465
vertex -0.032990 0.075445 0.015744
endloop
endfacet
facet normal 0.731546 0.613839 -0.296718
outer loop
vertex -0.032990 0.075445 0.015744
vertex 0.018676 0.015671 0.019465
vertex 0.017790 0.014928 0.015744
endloop
endfacet
facet normal 0.687345 0.576751 -0.441491
outer loop
vertex -0.032990 0.075445 0.015744
vertex 0.017790 0.014928 0.015744
vertex -0.034308 0.074340 0.012248
endloop
endfacet
facet normal 0.687345 0.576751 -0.441492
outer loop
vertex -0.034308 0.074340 0.012248
vertex 0.017790 0.014928 0.015744
vertex 0.016473 0.013822 0.012248
endloop
endfacet
facet normal 0.626451 0.525655 -0.575539
outer loop
vertex -0.034308 0.074340 0.012248
vertex 0.016473 0.013822 0.012248
vertex -0.036025 0.072898 0.009062
endloop
endfacet
facet normal 0.626451 0.525655 -0.575540
outer loop
vertex -0.036025 0.072898 0.009062
vertex 0.016473 0.013822 0.012248
vertex 0.014755 0.012381 0.009062
endloop
endfacet
facet normal 0.550341 0.461791 -0.695610
outer loop
vertex -0.036025 0.072898 0.009062
vertex 0.014755 0.012381 0.009062
vertex -0.038102 0.071156 0.006263
endloop
endfacet
facet normal 0.550341 0.461791 -0.695610
outer loop
vertex -0.038102 0.071156 0.006263
vertex 0.014755 0.012381 0.009062
vertex 0.012679 0.010639 0.006263
endloop
endfacet
facet normal 0.460866 0.386712 -0.798784
outer loop
vertex -0.038102 0.071156 0.006263
vertex 0.012679 0.010639 0.006263
vertex -0.040486 0.069156 0.003919
endloop
endfacet
facet normal -0.757977 -0.636019 -0.144740
outer loop
vertex -0.120668 0.105002 0.023320
vertex -0.120236 0.105364 0.019465
vertex -0.069456 0.044847 0.019465
endloop
endfacet
facet normal -0.731546 -0.613839 -0.296719
outer loop
vertex -0.069456 0.044847 0.019465
vertex -0.120236 0.105364 0.019465
vertex -0.068570 0.045590 0.015744
endloop
endfacet
facet normal -0.757978 -0.636018 -0.144744
outer loop
vertex -0.120668 0.105002 0.023320
vertex -0.069456 0.044847 0.019465
vertex -0.069888 0.044484 0.023320
endloop
endfacet
facet normal -0.766000 -0.642751 0.010755
outer loop
vertex -0.120636 0.105029 0.027216
vertex -0.120668 0.105002 0.023320
vertex -0.069888 0.044484 0.023320
endloop
endfacet
facet normal -0.766000 -0.642750 0.010752
outer loop
vertex -0.120636 0.105029 0.027216
vertex -0.069888 0.044484 0.023320
vertex -0.069856 0.044511 0.027216
endloop
endfacet
facet normal -0.755418 -0.633870 0.165988
outer loop
vertex -0.120141 0.105444 0.031058
vertex -0.120636 0.105029 0.027216
vertex -0.069856 0.044511 0.027216
endloop
endfacet
facet normal -0.755418 -0.633871 0.165983
outer loop
vertex -0.120141 0.105444 0.031058
vertex -0.069856 0.044511 0.027216
vertex -0.069361 0.044927 0.031058
endloop
endfacet
facet normal -0.726488 -0.609594 0.317190
outer loop
vertex -0.119194 0.106239 0.034753
vertex -0.120141 0.105444 0.031058
vertex -0.069361 0.044927 0.031058
endloop
endfacet
facet normal -0.726488 -0.609597 0.317186
outer loop
vertex -0.119194 0.106239 0.034753
vertex -0.069361 0.044927 0.031058
vertex -0.068414 0.045721 0.034753
endloop
endfacet
facet normal -0.679914 -0.570516 0.460683
outer loop
vertex -0.117819 0.107392 0.038211
vertex -0.119194 0.106239 0.034753
vertex -0.068414 0.045721 0.034753
endloop
endfacet
facet normal -0.679915 -0.570515 0.460683
outer loop
vertex -0.117819 0.107392 0.038211
vertex -0.068414 0.045721 0.034753
vertex -0.067039 0.046875 0.038211
endloop
endfacet
facet normal -0.616823 -0.517577 0.592995
outer loop
vertex -0.116049 0.108877 0.041348
vertex -0.117819 0.107392 0.038211
vertex -0.067039 0.046875 0.038211
endloop
endfacet
facet normal -0.616825 -0.517577 0.592993
outer loop
vertex -0.116049 0.108877 0.041348
vertex -0.067039 0.046875 0.038211
vertex -0.065269 0.048360 0.041348
endloop
endfacet
facet normal -0.538756 -0.452070 0.710897
outer loop
vertex -0.113927 0.110658 0.044088
vertex -0.116049 0.108877 0.041348
vertex -0.065269 0.048360 0.041348
endloop
endfacet
facet normal -0.538756 -0.452069 0.710898
outer loop
vertex -0.113927 0.110658 0.044088
vertex -0.065269 0.048360 0.041348
vertex -0.063147 0.050140 0.044088
endloop
endfacet
facet normal -0.447600 -0.375581 0.811538
outer loop
vertex -0.111505 0.112690 0.046365
vertex -0.113927 0.110658 0.044088
vertex -0.063147 0.050140 0.044088
endloop
endfacet
facet normal -0.447598 -0.375580 0.811539
outer loop
vertex -0.111505 0.112690 0.046365
vertex -0.063147 0.050140 0.044088
vertex -0.060725 0.052173 0.046365
endloop
endfacet
facet normal -0.345574 -0.289972 0.892466
outer loop
vertex -0.108842 0.114925 0.048123
vertex -0.111505 0.112690 0.046365
vertex -0.060725 0.052173 0.046365
endloop
endfacet
facet normal -0.345574 -0.289971 0.892466
outer loop
vertex -0.108842 0.114925 0.048123
vertex -0.060725 0.052173 0.046365
vertex -0.058061 0.054408 0.048123
endloop
endfacet
facet normal -0.235152 -0.197317 0.951719
outer loop
vertex -0.106001 0.117309 0.049319
vertex -0.108842 0.114925 0.048123
vertex -0.058061 0.054408 0.048123
endloop
endfacet
facet normal -0.235155 -0.197318 0.951719
outer loop
vertex -0.106001 0.117309 0.049319
vertex -0.058061 0.054408 0.048123
vertex -0.055221 0.056791 0.049319
endloop
endfacet
facet normal -0.119020 -0.099871 0.987856
outer loop
vertex -0.103053 0.119783 0.049924
vertex -0.106001 0.117309 0.049319
vertex -0.055221 0.056791 0.049319
endloop
endfacet
facet normal -0.119023 -0.099871 0.987856
outer loop
vertex -0.103053 0.119783 0.049924
vertex -0.055221 0.056791 0.049319
vertex -0.052273 0.059265 0.049924
endloop
endfacet
facet normal -0.000002 0.000000 1.000000
outer loop
vertex -0.100068 0.122287 0.049924
vertex -0.103053 0.119783 0.049924
vertex -0.052273 0.059265 0.049924
endloop
endfacet
facet normal 0.000002 0.000000 1.000000
outer loop
vertex -0.100068 0.122287 0.049924
vertex -0.052273 0.059265 0.049924
vertex -0.049288 0.061770 0.049924
endloop
endfacet
facet normal 0.119021 0.099871 0.987856
outer loop
vertex -0.097120 0.124761 0.049319
vertex -0.100068 0.122287 0.049924
vertex -0.049288 0.061770 0.049924
endloop
endfacet
facet normal 0.119022 0.099871 0.987856
outer loop
vertex -0.097120 0.124761 0.049319
vertex -0.049288 0.061770 0.049924
vertex -0.046340 0.064244 0.049319
endloop
endfacet
facet normal 0.235155 0.197317 0.951719
outer loop
vertex -0.094279 0.127145 0.048123
vertex -0.097120 0.124761 0.049319
vertex -0.046340 0.064244 0.049319
endloop
endfacet
facet normal 0.235154 0.197318 0.951718
outer loop
vertex -0.094279 0.127145 0.048123
vertex -0.046340 0.064244 0.049319
vertex -0.043499 0.066627 0.048123
endloop
endfacet
facet normal 0.345572 0.289969 0.892467
outer loop
vertex -0.091616 0.129380 0.046365
vertex -0.094279 0.127145 0.048123
vertex -0.043499 0.066627 0.048123
endloop
endfacet
facet normal 0.345574 0.289971 0.892466
outer loop
vertex -0.091616 0.129380 0.046365
vertex -0.043499 0.066627 0.048123
vertex -0.040835 0.068862 0.046365
endloop
endfacet
facet normal 0.447599 0.375581 0.811538
outer loop
vertex -0.089193 0.131412 0.044088
vertex -0.091616 0.129380 0.046365
vertex -0.040835 0.068862 0.046365
endloop
endfacet
facet normal 0.447600 0.375581 0.811537
outer loop
vertex -0.089193 0.131412 0.044088
vertex -0.040835 0.068862 0.046365
vertex -0.038413 0.070895 0.044088
endloop
endfacet
facet normal 0.538756 0.452070 0.710897
outer loop
vertex -0.087072 0.133193 0.041348
vertex -0.089193 0.131412 0.044088
vertex -0.038413 0.070895 0.044088
endloop
endfacet
facet normal 0.538754 0.452070 0.710899
outer loop
vertex -0.087072 0.133193 0.041348
vertex -0.038413 0.070895 0.044088
vertex -0.036291 0.072675 0.041348
endloop
endfacet
facet normal 0.616825 0.517578 0.592992
outer loop
vertex -0.085302 0.134678 0.038211
vertex -0.087072 0.133193 0.041348
vertex -0.036291 0.072675 0.041348
endloop
endfacet
facet normal 0.616824 0.517578 0.592993
outer loop
vertex -0.085302 0.134678 0.038211
vertex -0.036291 0.072675 0.041348
vertex -0.034522 0.074160 0.038211
endloop
endfacet
facet normal 0.679914 0.570515 0.460683
outer loop
vertex -0.083927 0.135831 0.034753
vertex -0.085302 0.134678 0.038211
vertex -0.034522 0.074160 0.038211
endloop
endfacet
facet normal 0.679913 0.570515 0.460686
outer loop
vertex -0.083927 0.135831 0.034753
vertex -0.034522 0.074160 0.038211
vertex -0.033147 0.075314 0.034753
endloop
endfacet
facet normal 0.726487 0.609597 0.317189
outer loop
vertex -0.082980 0.136626 0.031058
vertex -0.083927 0.135831 0.034753
vertex -0.033147 0.075314 0.034753
endloop
endfacet
facet normal 0.726490 0.609596 0.317183
outer loop
vertex -0.082980 0.136626 0.031058
vertex -0.033147 0.075314 0.034753
vertex -0.032200 0.076108 0.031058
endloop
endfacet
facet normal 0.755418 0.633871 0.165988
outer loop
vertex -0.082485 0.137041 0.027216
vertex -0.082980 0.136626 0.031058
vertex -0.032200 0.076108 0.031058
endloop
endfacet
facet normal 0.755418 0.633871 0.165983
outer loop
vertex -0.082485 0.137041 0.027216
vertex -0.032200 0.076108 0.031058
vertex -0.031704 0.076524 0.027216
endloop
endfacet
facet normal 0.766000 0.642751 0.010757
outer loop
vertex -0.082453 0.137068 0.023320
vertex -0.082485 0.137041 0.027216
vertex -0.031704 0.076524 0.027216
endloop
endfacet
facet normal 0.766000 0.642751 0.010749
outer loop
vertex -0.082453 0.137068 0.023320
vertex -0.031704 0.076524 0.027216
vertex -0.031672 0.076551 0.023320
endloop
endfacet
facet normal 0.757978 0.636019 -0.144741
outer loop
vertex -0.082885 0.136706 0.019465
vertex -0.082453 0.137068 0.023320
vertex -0.031672 0.076551 0.023320
endloop
endfacet
facet normal 0.757978 0.636019 -0.144741
outer loop
vertex -0.082885 0.136706 0.019465
vertex -0.031672 0.076551 0.023320
vertex -0.032104 0.076188 0.019465
endloop
endfacet
facet normal 0.731545 0.613839 -0.296720
outer loop
vertex -0.083770 0.135963 0.015744
vertex -0.082885 0.136706 0.019465
vertex -0.032104 0.076188 0.019465
endloop
endfacet
facet normal 0.731546 0.613839 -0.296719
outer loop
vertex -0.083770 0.135963 0.015744
vertex -0.032104 0.076188 0.019465
vertex -0.032990 0.075445 0.015744
endloop
endfacet
facet normal 0.687345 0.576751 -0.441491
outer loop
vertex -0.085088 0.134857 0.012248
vertex -0.083770 0.135963 0.015744
vertex -0.032990 0.075445 0.015744
endloop
endfacet
facet normal 0.687345 0.576751 -0.441491
outer loop
vertex -0.085088 0.134857 0.012248
vertex -0.032990 0.075445 0.015744
vertex -0.034308 0.074340 0.012248
endloop
endfacet
facet normal 0.626451 0.525655 -0.575539
outer loop
vertex -0.086806 0.133416 0.009062
vertex -0.085088 0.134857 0.012248
vertex -0.034308 0.074340 0.012248
endloop
endfacet
facet normal 0.626450 0.525654 -0.575541
outer loop
vertex -0.086806 0.133416 0.009062
vertex -0.034308 0.074340 0.012248
vertex -0.036025 0.072898 0.009062
endloop
endfacet
facet normal 0.550343 0.461793 -0.695607
outer loop
vertex -0.088882 0.131674 0.006263
vertex -0.086806 0.133416 0.009062
vertex -0.036025 0.072898 0.009062
endloop
endfacet
facet normal 0.550340 0.461790 -0.695612
outer loop
vertex -0.088882 0.131674 0.006263
vertex -0.036025 0.072898 0.009062
vertex -0.038102 0.071156 0.006263
endloop
endfacet
facet normal 0.460865 0.386711 -0.798786
outer loop
vertex -0.091266 0.129673 0.003919
vertex -0.088882 0.131674 0.006263
vertex -0.038102 0.071156 0.006263
endloop
endfacet
facet normal 0.460865 0.386712 -0.798785
outer loop
vertex -0.091266 0.129673 0.003919
vertex -0.038102 0.071156 0.006263
vertex -0.040486 0.069156 0.003919
endloop
endfacet
facet normal -0.766044 -0.642788 0.000000
outer loop
vertex 0.144680 -0.187980 0.000000
vertex 0.144680 -0.187980 0.002087
vertex -0.160001 0.175125 0.000000
endloop
endfacet
facet normal -0.766044 -0.642788 0.000000
outer loop
vertex -0.160001 0.175125 0.000000
vertex 0.144680 -0.187980 0.002087
vertex -0.160001 0.175125 0.002087
endloop
endfacet
facet normal -0.642787 0.766045 0.000000
outer loop
vertex -0.160001 0.175125 0.000000
vertex -0.160001 0.175125 0.002087
vertex -0.144680 0.187980 0.000000
endloop
endfacet
facet normal -0.642787 0.766045 0.000000
outer loop
vertex -0.144680 0.187980 0.000000
vertex -0.160001 0.175125 0.002087
vertex -0.144680 0.187980 0.002087
endloop
endfacet
facet normal -0.642787 0.766045 -0.000013
outer loop
vertex -0.144680 0.187980 0.002087
vertex -0.160001 0.175125 0.002087
vertex -0.142116 0.190132 0.003861
endloop
endfacet
facet normal -0.642787 0.766045 0.000000
outer loop
vertex -0.142116 0.190132 0.003861
vertex -0.160001 0.175125 0.002087
vertex -0.139787 0.192086 0.006120
endloop
endfacet
facet normal -0.642788 0.766044 0.000015
outer loop
vertex -0.139787 0.192086 0.006120
vertex -0.160001 0.175125 0.002087
vertex -0.137746 0.193799 0.008813
endloop
endfacet
facet normal -0.642787 0.766045 0.000000
outer loop
vertex -0.137746 0.193799 0.008813
vertex -0.160001 0.175125 0.002087
vertex -0.136040 0.195231 0.011878
endloop
endfacet
facet normal -0.642788 0.766044 0.000000
outer loop
vertex -0.136040 0.195231 0.011878
vertex -0.160001 0.175125 0.002087
vertex -0.134708 0.196348 0.015243
endloop
endfacet
facet normal -0.642787 0.766045 0.000000
outer loop
vertex -0.134708 0.196348 0.015243
vertex -0.160001 0.175125 0.002087
vertex -0.133781 0.197126 0.018833
endloop
endfacet
facet normal -0.642787 0.766045 0.000000
outer loop
vertex -0.133781 0.197126 0.018833
vertex -0.160001 0.175125 0.002087
vertex -0.133281 0.197546 0.022564
endloop
endfacet
facet normal -0.642787 0.766045 -0.000007
outer loop
vertex -0.133281 0.197546 0.022564
vertex -0.160001 0.175125 0.002087
vertex -0.133218 0.197599 0.026352
endloop
endfacet
facet normal -0.642790 0.766042 0.000007
outer loop
vertex -0.133218 0.197599 0.026352
vertex -0.160001 0.175125 0.002087
vertex -0.133594 0.197283 0.030108
endloop
endfacet
facet normal -0.642788 0.766044 -0.000006
outer loop
vertex -0.133594 0.197283 0.030108
vertex -0.160001 0.175125 0.002087
vertex -0.134400 0.196607 0.033747
endloop
endfacet
facet normal -0.642789 0.766043 0.000000
outer loop
vertex -0.134400 0.196607 0.033747
vertex -0.160001 0.175125 0.002087
vertex -0.135618 0.195584 0.037185
endloop
endfacet
facet normal -0.642787 0.766045 0.000005
outer loop
vertex -0.135618 0.195584 0.037185
vertex -0.160001 0.175125 0.002087
vertex -0.137220 0.194240 0.040343
endloop
endfacet
facet normal -0.642789 0.766043 -0.000005
outer loop
vertex -0.137220 0.194240 0.040343
vertex -0.160001 0.175125 0.002087
vertex -0.139170 0.192604 0.043149
endloop
endfacet
facet normal -0.642789 0.766043 0.000005
outer loop
vertex -0.139170 0.192604 0.043149
vertex -0.160001 0.175125 0.002087
vertex -0.141422 0.190715 0.045539
endloop
endfacet
facet normal -0.642784 0.766048 -0.000002
outer loop
vertex -0.141422 0.190715 0.045539
vertex -0.160001 0.175125 0.002087
vertex -0.143924 0.188615 0.047456
endloop
endfacet
facet normal -0.642785 0.766046 0.000000
outer loop
vertex -0.143924 0.188615 0.047456
vertex -0.160001 0.175125 0.002087
vertex -0.146620 0.186353 0.048859
endloop
endfacet
facet normal -0.642792 0.766041 0.000001
outer loop
vertex -0.146620 0.186353 0.048859
vertex -0.160001 0.175125 0.002087
vertex -0.162565 0.172973 0.003861
endloop
endfacet
facet normal -0.642787 0.766045 0.000000
outer loop
vertex -0.146620 0.186353 0.048859
vertex -0.162565 0.172973 0.003861
vertex -0.164894 0.171019 0.006120
endloop
endfacet
facet normal -0.642786 0.766046 -0.000003
outer loop
vertex -0.164894 0.171019 0.006120
vertex -0.166935 0.169306 0.008813
vertex -0.146620 0.186353 0.048859
endloop
endfacet
facet normal -0.642789 0.766043 0.000001
outer loop
vertex -0.146620 0.186353 0.048859
vertex -0.166935 0.169306 0.008813
vertex -0.168641 0.167875 0.011878
endloop
endfacet
facet normal -0.642786 0.766046 0.000000
outer loop
vertex -0.146620 0.186353 0.048859
vertex -0.168641 0.167875 0.011878
vertex -0.169973 0.166757 0.015243
endloop
endfacet
facet normal -0.642787 0.766045 0.000000
outer loop
vertex -0.169973 0.166757 0.015243
vertex -0.170900 0.165979 0.018833
vertex -0.146620 0.186353 0.048859
endloop
endfacet
facet normal -0.642787 0.766045 0.000001
outer loop
vertex -0.146620 0.186353 0.048859
vertex -0.170900 0.165979 0.018833
vertex -0.171401 0.165559 0.022564
endloop
endfacet
facet normal -0.642790 0.766043 0.000000
outer loop
vertex -0.146620 0.186353 0.048859
vertex -0.171401 0.165559 0.022564
vertex -0.171464 0.165506 0.026352
endloop
endfacet
facet normal -0.642787 0.766045 0.000000
outer loop
vertex -0.171464 0.165506 0.026352
vertex -0.171088 0.165822 0.030108
vertex -0.146620 0.186353 0.048859
endloop
endfacet
facet normal -0.642791 0.766042 -0.000010
outer loop
vertex -0.146620 0.186353 0.048859
vertex -0.171088 0.165822 0.030108
vertex -0.149447 0.183981 0.049713
endloop
endfacet
facet normal -0.642787 0.766045 0.000007
outer loop
vertex -0.149447 0.183981 0.049713
vertex -0.171088 0.165822 0.030108
vertex -0.170281 0.166498 0.033747
endloop
endfacet
facet normal -0.642787 0.766045 -0.000002
outer loop
vertex -0.149447 0.183981 0.049713
vertex -0.170281 0.166498 0.033747
vertex -0.169063 0.167521 0.037185
endloop
endfacet
facet normal -0.642788 0.766044 -0.000009
outer loop
vertex -0.169063 0.167521 0.037185
vertex -0.167461 0.168865 0.040343
vertex -0.149447 0.183981 0.049713
endloop
endfacet
facet normal -0.642788 0.766044 0.000001
outer loop
vertex -0.149447 0.183981 0.049713
vertex -0.167461 0.168865 0.040343
vertex -0.165511 0.170501 0.043149
endloop
endfacet
facet normal -0.642789 0.766043 0.000008
outer loop
vertex -0.149447 0.183981 0.049713
vertex -0.165511 0.170501 0.043149
vertex -0.163260 0.172390 0.045539
endloop
endfacet
facet normal -0.642785 0.766047 0.000022
outer loop
vertex -0.163260 0.172390 0.045539
vertex -0.160757 0.174490 0.047456
vertex -0.149447 0.183981 0.049713
endloop
endfacet
facet normal -0.642788 0.766044 -0.000009
outer loop
vertex -0.149447 0.183981 0.049713
vertex -0.160757 0.174490 0.047456
vertex -0.158061 0.176752 0.048859
endloop
endfacet
facet normal -0.642785 0.766046 -0.000018
outer loop
vertex -0.149447 0.183981 0.049713
vertex -0.158061 0.176752 0.048859
vertex -0.155234 0.179125 0.049713
endloop
endfacet
facet normal -0.642794 0.766039 0.000000
outer loop
vertex -0.155234 0.179125 0.049713
vertex -0.152341 0.181553 0.050000
vertex -0.149447 0.183981 0.049713
endloop
endfacet
facet normal 0.642787 -0.766045 0.000000
outer loop
vertex 0.144680 -0.187980 0.000000
vertex 0.160001 -0.175125 0.000000
vertex 0.144680 -0.187980 0.002087
endloop
endfacet
facet normal 0.642787 -0.766045 0.000000
outer loop
vertex 0.144680 -0.187980 0.002087
vertex 0.160001 -0.175125 0.000000
vertex 0.160001 -0.175125 0.002087
endloop
endfacet
facet normal 0.642788 -0.766044 0.000000
outer loop
vertex 0.144680 -0.187980 0.002087
vertex 0.160001 -0.175125 0.002087
vertex 0.162565 -0.172973 0.003861
endloop
endfacet
facet normal 0.642787 -0.766045 0.000010
outer loop
vertex 0.162565 -0.172973 0.003861
vertex 0.164894 -0.171019 0.006120
vertex 0.144680 -0.187980 0.002087
endloop
endfacet
facet normal 0.642790 -0.766043 -0.000012
outer loop
vertex 0.144680 -0.187980 0.002087
vertex 0.164894 -0.171019 0.006120
vertex 0.166935 -0.169306 0.008813
endloop
endfacet
facet normal 0.642787 -0.766045 0.000007
outer loop
vertex 0.144680 -0.187980 0.002087
vertex 0.166935 -0.169306 0.008813
vertex 0.168641 -0.167875 0.011878
endloop
endfacet
facet normal 0.642787 -0.766045 -0.000011
outer loop
vertex 0.168641 -0.167875 0.011878
vertex 0.169973 -0.166757 0.015243
vertex 0.144680 -0.187980 0.002087
endloop
endfacet
facet normal 0.642785 -0.766047 0.000010
outer loop
vertex 0.144680 -0.187980 0.002087
vertex 0.169973 -0.166757 0.015243
vertex 0.170900 -0.165979 0.018833
endloop
endfacet
facet normal 0.642787 -0.766045 -0.000007
outer loop
vertex 0.144680 -0.187980 0.002087
vertex 0.170900 -0.165979 0.018833
vertex 0.171401 -0.165559 0.022564
endloop
endfacet
facet normal 0.642789 -0.766043 0.000007
outer loop
vertex 0.171401 -0.165559 0.022564
vertex 0.171464 -0.165506 0.026352
vertex 0.144680 -0.187980 0.002087
endloop
endfacet
facet normal 0.642788 -0.766044 -0.000004
outer loop
vertex 0.144680 -0.187980 0.002087
vertex 0.171464 -0.165506 0.026352
vertex 0.171088 -0.165822 0.030108
endloop
endfacet
facet normal 0.642785 -0.766046 0.000007
outer loop
vertex 0.144680 -0.187980 0.002087
vertex 0.171088 -0.165822 0.030108
vertex 0.170281 -0.166498 0.033747
endloop
endfacet
facet normal 0.642789 -0.766043 -0.000006
outer loop
vertex 0.170281 -0.166498 0.033747
vertex 0.169063 -0.167521 0.037185
vertex 0.144680 -0.187980 0.002087
endloop
endfacet
facet normal 0.642791 -0.766041 -0.000008
outer loop
vertex 0.144680 -0.187980 0.002087
vertex 0.169063 -0.167521 0.037185
vertex 0.167461 -0.168865 0.040343
endloop
endfacet
facet normal 0.642784 -0.766048 0.000006
outer loop
vertex 0.144680 -0.187980 0.002087
vertex 0.167461 -0.168865 0.040343
vertex 0.165511 -0.170501 0.043149
endloop
endfacet
facet normal 0.642791 -0.766041 -0.000003
outer loop
vertex 0.165511 -0.170501 0.043149
vertex 0.163260 -0.172390 0.045539
vertex 0.144680 -0.187980 0.002087
endloop
endfacet
facet normal 0.642784 -0.766048 0.000002
outer loop
vertex 0.144680 -0.187980 0.002087
vertex 0.163260 -0.172390 0.045539
vertex 0.160757 -0.174490 0.047456
endloop
endfacet
facet normal 0.642788 -0.766044 0.000000
outer loop
vertex 0.144680 -0.187980 0.002087
vertex 0.160757 -0.174490 0.047456
vertex 0.158061 -0.176752 0.048859
endloop
endfacet
facet normal 0.642786 -0.766046 0.000010
outer loop
vertex 0.155234 -0.179125 0.049713
vertex 0.133594 -0.197283 0.030108
vertex 0.158061 -0.176752 0.048859
endloop
endfacet
facet normal 0.642787 -0.766045 0.000000
outer loop
vertex 0.158061 -0.176752 0.048859
vertex 0.133594 -0.197283 0.030108
vertex 0.133218 -0.197599 0.026352
endloop
endfacet
facet normal 0.642791 -0.766042 -0.000000
outer loop
vertex 0.158061 -0.176752 0.048859
vertex 0.133218 -0.197599 0.026352
vertex 0.133281 -0.197546 0.022564
endloop
endfacet
facet normal 0.642794 -0.766039 0.000000
outer loop
vertex 0.152341 -0.181553 0.050000
vertex 0.149447 -0.183980 0.049713
vertex 0.155234 -0.179125 0.049713
endloop
endfacet
facet normal 0.642785 -0.766046 -0.000018
outer loop
vertex 0.155234 -0.179125 0.049713
vertex 0.149447 -0.183980 0.049713
vertex 0.146620 -0.186353 0.048859
endloop
endfacet
facet normal 0.642788 -0.766044 0.000018
outer loop
vertex 0.155234 -0.179125 0.049713
vertex 0.146620 -0.186353 0.048859
vertex 0.143924 -0.188615 0.047456
endloop
endfacet
facet normal 0.642786 -0.766046 0.000000
outer loop
vertex 0.143924 -0.188615 0.047456
vertex 0.141422 -0.190715 0.045539
vertex 0.155234 -0.179125 0.049713
endloop
endfacet
facet normal 0.642789 -0.766043 -0.000002
outer loop
vertex 0.155234 -0.179125 0.049713
vertex 0.141422 -0.190715 0.045539
vertex 0.139170 -0.192604 0.043149
endloop
endfacet
facet normal 0.642788 -0.766044 -0.000001
outer loop
vertex 0.155234 -0.179125 0.049713
vertex 0.139170 -0.192604 0.043149
vertex 0.137220 -0.194240 0.040343
endloop
endfacet
facet normal 0.642786 -0.766046 0.000009
outer loop
vertex 0.137220 -0.194240 0.040343
vertex 0.135618 -0.195584 0.037185
vertex 0.155234 -0.179125 0.049713
endloop
endfacet
facet normal 0.642788 -0.766044 0.000000
outer loop
vertex 0.155234 -0.179125 0.049713
vertex 0.135618 -0.195584 0.037185
vertex 0.134400 -0.196607 0.033747
endloop
endfacet
facet normal 0.642789 -0.766044 -0.000013
outer loop
vertex 0.155234 -0.179125 0.049713
vertex 0.134400 -0.196607 0.033747
vertex 0.133594 -0.197283 0.030108
endloop
endfacet
facet normal 0.642788 -0.766044 0.000000
outer loop
vertex 0.133281 -0.197546 0.022564
vertex 0.133781 -0.197126 0.018833
vertex 0.158061 -0.176752 0.048859
endloop
endfacet
facet normal 0.642787 -0.766045 -0.000003
outer loop
vertex 0.158061 -0.176752 0.048859
vertex 0.133781 -0.197126 0.018833
vertex 0.134708 -0.196348 0.015243
endloop
endfacet
facet normal 0.642786 -0.766046 0.000001
outer loop
vertex 0.158061 -0.176752 0.048859
vertex 0.134708 -0.196348 0.015243
vertex 0.136040 -0.195230 0.011878
endloop
endfacet
facet normal 0.642791 -0.766042 -0.000003
outer loop
vertex 0.136040 -0.195230 0.011878
vertex 0.137746 -0.193799 0.008813
vertex 0.158061 -0.176752 0.048859
endloop
endfacet
facet normal 0.642787 -0.766045 0.000003
outer loop
vertex 0.158061 -0.176752 0.048859
vertex 0.137746 -0.193799 0.008813
vertex 0.139787 -0.192086 0.006120
endloop
endfacet
facet normal 0.642785 -0.766046 0.000001
outer loop
vertex 0.158061 -0.176752 0.048859
vertex 0.139787 -0.192086 0.006120
vertex 0.142116 -0.190132 0.003861
endloop
endfacet
facet normal 0.642793 -0.766040 -0.000002
outer loop
vertex 0.142116 -0.190132 0.003861
vertex 0.144680 -0.187980 0.002087
vertex 0.158061 -0.176752 0.048859
endloop
endfacet
solid cylinder
