solid cylinder
facet normal 0.000000 0.000000 -1.000000
outer loop
vertex 0.226127 -0.071662 0.000000
vertex 0.219287 -0.090456 0.000000
vertex -0.219287 0.090456 0.000000
endloop
endfacet
facet normal 0.000000 0.000000 -1.000000
outer loop
vertex -0.219287 0.090456 0.000000
vertex 0.219287 -0.090456 0.000000
vertex -0.226127 0.071662 0.000000
endloop
endfacet
facet normal 0.342020 0.939693 0.000000
outer loop
vertex 0.226127 -0.071662 0.002087
vertex 0.226127 -0.071662 0.000000
vertex -0.219287 0.090456 0.002087
endloop
endfacet
facet normal 0.342020 0.939693 0.000000
outer loop
vertex -0.219287 0.090456 0.002087
vertex 0.226127 -0.071662 0.000000
vertex -0.219287 0.090456 0.000000
endloop
endfacet
facet normal -0.160264 -0.440010 -0.883576
outer loop
vertex 0.218142 -0.093601 0.003861
vertex 0.143875 -0.066667 0.003919
vertex 0.219287 -0.090456 0.002087
endloop
endfacet
facet normal -0.160819 -0.441846 -0.882558
outer loop
vertex 0.219287 -0.090456 0.002087
vertex 0.143875 -0.066667 0.003919
vertex 0.069639 -0.039648 0.003919
endloop
endfacet
facet normal -0.160818 -0.441844 -0.882560
outer loop
vertex 0.219287 -0.090456 0.002087
vertex 0.069639 -0.039648 0.003919
vertex -0.004596 -0.012628 0.003919
endloop
endfacet
facet normal -0.205765 -0.565335 -0.798785
outer loop
vertex -0.004596 -0.012628 0.003919
vertex 0.069639 -0.039648 0.003919
vertex -0.005661 -0.015553 0.006263
endloop
endfacet
facet normal -0.205765 -0.565334 -0.798785
outer loop
vertex -0.004596 -0.012628 0.003919
vertex -0.005661 -0.015553 0.006263
vertex -0.079896 0.011467 0.006263
endloop
endfacet
facet normal -0.245714 -0.675093 -0.695610
outer loop
vertex -0.079896 0.011467 0.006263
vertex -0.005661 -0.015553 0.006263
vertex -0.080823 0.008920 0.009062
endloop
endfacet
facet normal -0.245714 -0.675093 -0.695610
outer loop
vertex -0.079896 0.011467 0.006263
vertex -0.080823 0.008920 0.009062
vertex -0.155059 0.035940 0.009062
endloop
endfacet
facet normal -0.279695 -0.768455 -0.575542
outer loop
vertex -0.155059 0.035940 0.009062
vertex -0.080823 0.008920 0.009062
vertex -0.155826 0.033833 0.012248
endloop
endfacet
facet normal -0.279338 -0.768586 -0.575540
outer loop
vertex -0.155059 0.035940 0.009062
vertex -0.155826 0.033833 0.012248
vertex -0.229985 0.061063 0.011878
endloop
endfacet
facet normal -0.304226 -0.834777 -0.458906
outer loop
vertex -0.229985 0.061063 0.011878
vertex -0.155826 0.033833 0.012248
vertex -0.230580 0.059429 0.015243
endloop
endfacet
facet normal -0.306451 -0.843312 -0.441489
outer loop
vertex -0.230580 0.059429 0.015243
vertex -0.155826 0.033833 0.012248
vertex -0.156414 0.032216 0.015744
endloop
endfacet
facet normal -0.324524 -0.890321 -0.319393
outer loop
vertex -0.230580 0.059429 0.015243
vertex -0.156414 0.032216 0.015744
vertex -0.230993 0.058292 0.018833
endloop
endfacet
facet normal -0.326115 -0.897556 -0.296720
outer loop
vertex -0.230993 0.058292 0.018833
vertex -0.156414 0.032216 0.015744
vertex -0.156810 0.031130 0.019465
endloop
endfacet
facet normal -0.337375 -0.925421 -0.172549
outer loop
vertex -0.230993 0.058292 0.018833
vertex -0.156810 0.031130 0.019465
vertex -0.231217 0.057678 0.022564
endloop
endfacet
facet normal -0.337852 -0.930003 -0.144741
outer loop
vertex -0.231217 0.057678 0.022564
vertex -0.156810 0.031130 0.019465
vertex -0.157003 0.030600 0.023320
endloop
endfacet
facet normal -0.342486 -0.939271 -0.021749
outer loop
vertex -0.231217 0.057678 0.022564
vertex -0.157003 0.030600 0.023320
vertex -0.231245 0.057601 0.026352
endloop
endfacet
facet normal -0.341375 -0.939866 0.010755
outer loop
vertex -0.231245 0.057601 0.026352
vertex -0.157003 0.030600 0.023320
vertex -0.156988 0.030639 0.027216
endloop
endfacet
facet normal -0.339741 -0.931553 0.129556
outer loop
vertex -0.231245 0.057601 0.026352
vertex -0.156988 0.030639 0.027216
vertex -0.231077 0.058062 0.030108
endloop
endfacet
facet normal -0.336597 -0.926904 0.165986
outer loop
vertex -0.231077 0.058062 0.030108
vertex -0.156988 0.030639 0.027216
vertex -0.156767 0.031247 0.031058
endloop
endfacet
facet normal -0.329202 -0.902444 0.277888
outer loop
vertex -0.231077 0.058062 0.030108
vertex -0.156767 0.031247 0.031058
vertex -0.230717 0.059051 0.033747
endloop
endfacet
facet normal -0.323633 -0.891433 0.317188
outer loop
vertex -0.230717 0.059051 0.033747
vertex -0.156767 0.031247 0.031058
vertex -0.156344 0.032408 0.034753
endloop
endfacet
facet normal -0.311115 -0.852611 0.419835
outer loop
vertex -0.230717 0.059051 0.033747
vertex -0.156344 0.032408 0.034753
vertex -0.230173 0.060546 0.037185
endloop
endfacet
facet normal -0.302797 -0.834317 0.460684
outer loop
vertex -0.230173 0.060546 0.037185
vertex -0.156344 0.032408 0.034753
vertex -0.155731 0.034095 0.038211
endloop
endfacet
facet normal -0.285896 -0.783197 0.552147
outer loop
vertex -0.230173 0.060546 0.037185
vertex -0.155731 0.034095 0.038211
vertex -0.229458 0.062511 0.040343
endloop
endfacet
facet normal -0.274594 -0.756941 0.592991
outer loop
vertex -0.229458 0.062511 0.040343
vertex -0.155731 0.034095 0.038211
vertex -0.154940 0.036266 0.041348
endloop
endfacet
facet normal -0.254122 -0.695799 0.671778
outer loop
vertex -0.229458 0.062511 0.040343
vertex -0.154940 0.036266 0.041348
vertex -0.228588 0.064902 0.043149
endloop
endfacet
facet normal -0.239706 -0.661185 0.710898
outer loop
vertex -0.228588 0.064902 0.043149
vertex -0.154940 0.036266 0.041348
vertex -0.153993 0.038869 0.044088
endloop
endfacet
facet normal -0.216527 -0.592420 0.775986
outer loop
vertex -0.200250 0.056970 0.045000
vertex -0.227809 0.067042 0.045000
vertex -0.228588 0.064902 0.043149
endloop
endfacet
facet normal -0.216528 -0.592418 0.775987
outer loop
vertex -0.200250 0.056970 0.045000
vertex -0.228588 0.064902 0.043149
vertex -0.153993 0.038869 0.044088
endloop
endfacet
facet normal -0.198982 -0.549375 0.811538
outer loop
vertex -0.200250 0.056970 0.045000
vertex -0.153993 0.038869 0.044088
vertex -0.153560 0.040058 0.045000
endloop
endfacet
facet normal 0.200700 0.548746 0.811540
outer loop
vertex -0.190020 0.085077 0.045000
vertex -0.143383 0.068020 0.045000
vertex -0.142950 0.069210 0.044088
endloop
endfacet
facet normal 0.214931 0.592998 0.775989
outer loop
vertex -0.190020 0.085077 0.045000
vertex -0.142950 0.069210 0.044088
vertex -0.216827 0.097215 0.043149
endloop
endfacet
facet normal 0.214930 0.593000 0.775987
outer loop
vertex -0.190020 0.085077 0.045000
vertex -0.216827 0.097215 0.043149
vertex -0.217606 0.095075 0.045000
endloop
endfacet
facet normal 0.241375 0.660578 0.710897
outer loop
vertex -0.216827 0.097215 0.043149
vertex -0.142950 0.069210 0.044088
vertex -0.142003 0.071812 0.041348
endloop
endfacet
facet normal 0.252581 0.696359 0.671779
outer loop
vertex -0.216827 0.097215 0.043149
vertex -0.142003 0.071812 0.041348
vertex -0.215956 0.099606 0.040343
endloop
endfacet
facet normal 0.276201 0.756355 0.592992
outer loop
vertex -0.215956 0.099606 0.040343
vertex -0.142003 0.071812 0.041348
vertex -0.141212 0.073983 0.038211
endloop
endfacet
facet normal 0.284422 0.783735 0.552144
outer loop
vertex -0.215956 0.099606 0.040343
vertex -0.141212 0.073983 0.038211
vertex -0.215241 0.101572 0.037185
endloop
endfacet
facet normal 0.304332 0.833757 0.460685
outer loop
vertex -0.215241 0.101572 0.037185
vertex -0.141212 0.073983 0.038211
vertex -0.140598 0.075670 0.034753
endloop
endfacet
facet normal 0.309721 0.853120 0.419832
outer loop
vertex -0.215241 0.101572 0.037185
vertex -0.140598 0.075670 0.034753
vertex -0.214697 0.103066 0.033747
endloop
endfacet
facet normal 0.325085 0.890906 0.317186
outer loop
vertex -0.214697 0.103066 0.033747
vertex -0.140598 0.075670 0.034753
vertex -0.140176 0.076831 0.031058
endloop
endfacet
facet normal 0.327896 0.902918 0.277891
outer loop
vertex -0.214697 0.103066 0.033747
vertex -0.140176 0.076831 0.031058
vertex -0.214337 0.104056 0.030108
endloop
endfacet
facet normal 0.337954 0.926410 0.165986
outer loop
vertex -0.214337 0.104056 0.030108
vertex -0.140176 0.076831 0.031058
vertex -0.139955 0.077439 0.027216
endloop
endfacet
facet normal 0.338535 0.931992 0.129558
outer loop
vertex -0.214337 0.104056 0.030108
vertex -0.139955 0.077439 0.027216
vertex -0.214169 0.104517 0.026352
endloop
endfacet
facet normal 0.342625 0.939411 0.010754
outer loop
vertex -0.214169 0.104517 0.026352
vertex -0.139955 0.077439 0.027216
vertex -0.139940 0.077478 0.023320
endloop
endfacet
facet normal 0.341392 0.939669 -0.021747
outer loop
vertex -0.214169 0.104517 0.026352
vertex -0.139940 0.077478 0.023320
vertex -0.214197 0.104439 0.022564
endloop
endfacet
facet normal 0.338985 0.929591 -0.144741
outer loop
vertex -0.214197 0.104439 0.022564
vertex -0.139940 0.077478 0.023320
vertex -0.140133 0.076948 0.019465
endloop
endfacet
facet normal 0.336404 0.925775 -0.172548
outer loop
vertex -0.214197 0.104439 0.022564
vertex -0.140133 0.076948 0.019465
vertex -0.214421 0.103825 0.018833
endloop
endfacet
facet normal 0.327119 0.897191 -0.296719
outer loop
vertex -0.214421 0.103825 0.018833
vertex -0.140133 0.076948 0.019465
vertex -0.140529 0.075862 0.015744
endloop
endfacet
facet normal 0.323687 0.890626 -0.319393
outer loop
vertex -0.214421 0.103825 0.018833
vertex -0.140529 0.075862 0.015744
vertex -0.214835 0.102688 0.015243
endloop
endfacet
facet normal 0.307316 0.842997 -0.441489
outer loop
vertex -0.214835 0.102688 0.015243
vertex -0.140529 0.075862 0.015744
vertex -0.141117 0.074246 0.012248
endloop
endfacet
facet normal 0.303534 0.835030 -0.458903
outer loop
vertex -0.214835 0.102688 0.015243
vertex -0.141117 0.074246 0.012248
vertex -0.215429 0.101055 0.011878
endloop
endfacet
facet normal 0.280052 0.768326 -0.575539
outer loop
vertex -0.215429 0.101055 0.011878
vertex -0.141117 0.074246 0.012248
vertex -0.141884 0.072139 0.009062
endloop
endfacet
facet normal 0.276409 0.760261 -0.587878
outer loop
vertex -0.215429 0.101055 0.011878
vertex -0.141884 0.072139 0.009062
vertex -0.216191 0.098962 0.008813
endloop
endfacet
facet normal 0.245990 0.674992 -0.695611
outer loop
vertex -0.216191 0.098962 0.008813
vertex -0.141884 0.072139 0.009062
vertex -0.142811 0.069592 0.006263
endloop
endfacet
facet normal 0.242937 0.668038 -0.703354
outer loop
vertex -0.216191 0.098962 0.008813
vertex -0.142811 0.069592 0.006263
vertex -0.217102 0.096458 0.006120
endloop
endfacet
facet normal 0.205955 0.565266 -0.798785
outer loop
vertex -0.217102 0.096458 0.006120
vertex -0.142811 0.069592 0.006263
vertex -0.143875 0.066667 0.003919
endloop
endfacet
facet normal 0.203891 0.560481 -0.802677
outer loop
vertex -0.217102 0.096458 0.006120
vertex -0.143875 0.066667 0.003919
vertex -0.218142 0.093601 0.003861
endloop
endfacet
facet normal 0.160264 0.440009 -0.883577
outer loop
vertex -0.218142 0.093601 0.003861
vertex -0.143875 0.066667 0.003919
vertex -0.219287 0.090456 0.002087
endloop
endfacet
facet normal 0.160819 0.441846 -0.882558
outer loop
vertex -0.219287 0.090456 0.002087
vertex -0.143875 0.066667 0.003919
vertex -0.069639 0.039648 0.003919
endloop
endfacet
facet normal 0.160818 0.441844 -0.882560
outer loop
vertex -0.219287 0.090456 0.002087
vertex -0.069639 0.039648 0.003919
vertex 0.004596 0.012628 0.003919
endloop
endfacet
facet normal 0.205765 0.565335 -0.798785
outer loop
vertex 0.004596 0.012628 0.003919
vertex -0.069639 0.039648 0.003919
vertex 0.005661 0.015553 0.006263
endloop
endfacet
facet normal 0.205765 0.565335 -0.798785
outer loop
vertex 0.004596 0.012628 0.003919
vertex 0.005661 0.015553 0.006263
vertex 0.079896 -0.011467 0.006263
endloop
endfacet
facet normal 0.245714 0.675093 -0.695610
outer loop
vertex 0.079896 -0.011467 0.006263
vertex 0.005661 0.015553 0.006263
vertex 0.080823 -0.008920 0.009062
endloop
endfacet
facet normal 0.245714 0.675093 -0.695611
outer loop
vertex 0.079896 -0.011467 0.006263
vertex 0.080823 -0.008920 0.009062
vertex 0.155059 -0.035940 0.009062
endloop
endfacet
facet normal 0.279695 0.768455 -0.575541
outer loop
vertex 0.155059 -0.035940 0.009062
vertex 0.080823 -0.008920 0.009062
vertex 0.155826 -0.033833 0.012248
endloop
endfacet
facet normal 0.279338 0.768585 -0.575541
outer loop
vertex 0.155059 -0.035940 0.009062
vertex 0.155826 -0.033833 0.012248
vertex 0.229985 -0.061063 0.011878
endloop
endfacet
facet normal 0.304226 0.834778 -0.458903
outer loop
vertex 0.229985 -0.061063 0.011878
vertex 0.155826 -0.033833 0.012248
vertex 0.230580 -0.059429 0.015243
endloop
endfacet
facet normal 0.306451 0.843312 -0.441489
outer loop
vertex 0.230580 -0.059429 0.015243
vertex 0.155826 -0.033833 0.012248
vertex 0.156414 -0.032216 0.015744
endloop
endfacet
facet normal 0.324524 0.890321 -0.319393
outer loop
vertex 0.230580 -0.059429 0.015243
vertex 0.156414 -0.032216 0.015744
vertex 0.230993 -0.058292 0.018833
endloop
endfacet
facet normal 0.326115 0.897556 -0.296721
outer loop
vertex 0.230993 -0.058292 0.018833
vertex 0.156414 -0.032216 0.015744
vertex 0.156810 -0.031130 0.019465
endloop
endfacet
facet normal 0.337375 0.925421 -0.172551
outer loop
vertex 0.230993 -0.058292 0.018833
vertex 0.156810 -0.031130 0.019465
vertex 0.231217 -0.057678 0.022564
endloop
endfacet
facet normal 0.337852 0.930003 -0.144741
outer loop
vertex 0.231217 -0.057678 0.022564
vertex 0.156810 -0.031130 0.019465
vertex 0.157003 -0.030600 0.023320
endloop
endfacet
facet normal 0.342486 0.939271 -0.021747
outer loop
vertex 0.231217 -0.057678 0.022564
vertex 0.157003 -0.030600 0.023320
vertex 0.231245 -0.057601 0.026352
endloop
endfacet
facet normal 0.341375 0.939866 0.010753
outer loop
vertex 0.231245 -0.057601 0.026352
vertex 0.157003 -0.030600 0.023320
vertex 0.156988 -0.030639 0.027216
endloop
endfacet
facet normal 0.339741 0.931553 0.129558
outer loop
vertex 0.231245 -0.057601 0.026352
vertex 0.156988 -0.030639 0.027216
vertex 0.231077 -0.058062 0.030108
endloop
endfacet
facet normal 0.336597 0.926904 0.165986
outer loop
vertex 0.231077 -0.058062 0.030108
vertex 0.156988 -0.030639 0.027216
vertex 0.156767 -0.031247 0.031058
endloop
endfacet
facet normal 0.329202 0.902444 0.277888
outer loop
vertex 0.231077 -0.058062 0.030108
vertex 0.156767 -0.031247 0.031058
vertex 0.230717 -0.059051 0.033747
endloop
endfacet
facet normal 0.323633 0.891434 0.317187
outer loop
vertex 0.230717 -0.059051 0.033747
vertex 0.156767 -0.031247 0.031058
vertex 0.156344 -0.032408 0.034753
endloop
endfacet
facet normal 0.311115 0.852611 0.419835
outer loop
vertex 0.230717 -0.059051 0.033747
vertex 0.156344 -0.032408 0.034753
vertex 0.230173 -0.060546 0.037185
endloop
endfacet
facet normal 0.302797 0.834317 0.460684
outer loop
vertex 0.230173 -0.060546 0.037185
vertex 0.156344 -0.032408 0.034753
vertex 0.155731 -0.034095 0.038211
endloop
endfacet
facet normal 0.285896 0.783197 0.552147
outer loop
vertex 0.230173 -0.060546 0.037185
vertex 0.155731 -0.034095 0.038211
vertex 0.229458 -0.062511 0.040343
endloop
endfacet
facet normal 0.274594 0.756941 0.592991
outer loop
vertex 0.229458 -0.062511 0.040343
vertex 0.155731 -0.034095 0.038211
vertex 0.154940 -0.036266 0.041348
endloop
endfacet
facet normal 0.254122 0.695798 0.671779
outer loop
vertex 0.229458 -0.062511 0.040343
vertex 0.154940 -0.036266 0.041348
vertex 0.228588 -0.064902 0.043149
endloop
endfacet
facet normal 0.239706 0.661185 0.710898
outer loop
vertex 0.228588 -0.064902 0.043149
vertex 0.154940 -0.036266 0.041348
vertex 0.153993 -0.038869 0.044088
endloop
endfacet
facet normal 0.216527 0.592419 0.775987
outer loop
vertex 0.228588 -0.064902 0.043149
vertex 0.153993 -0.038869 0.044088
vertex 0.200250 -0.056969 0.045000
endloop
endfacet
facet normal 0.216528 0.592420 0.775986
outer loop
vertex 0.228588 -0.064902 0.043149
vertex 0.200250 -0.056969 0.045000
vertex 0.227809 -0.067042 0.045000
endloop
endfacet
facet normal 0.198982 0.549375 0.811538
outer loop
vertex 0.153560 -0.040058 0.045000
vertex 0.200250 -0.056969 0.045000
vertex 0.153993 -0.038869 0.044088
endloop
endfacet
facet normal -0.200700 -0.548747 0.811540
outer loop
vertex 0.142950 -0.069210 0.044088
vertex 0.190020 -0.085077 0.045000
vertex 0.143383 -0.068020 0.045000
endloop
endfacet
facet normal -0.214932 -0.593001 0.775986
outer loop
vertex 0.142950 -0.069210 0.044088
vertex 0.216827 -0.097215 0.043149
vertex 0.217606 -0.095075 0.045000
endloop
endfacet
facet normal -0.214928 -0.592994 0.775992
outer loop
vertex 0.142950 -0.069210 0.044088
vertex 0.217606 -0.095075 0.045000
vertex 0.190020 -0.085077 0.045000
endloop
endfacet
facet normal -0.241375 -0.660578 0.710897
outer loop
vertex 0.216827 -0.097215 0.043149
vertex 0.142950 -0.069210 0.044088
vertex 0.142003 -0.071812 0.041348
endloop
endfacet
facet normal -0.252581 -0.696360 0.671778
outer loop
vertex 0.216827 -0.097215 0.043149
vertex 0.142003 -0.071812 0.041348
vertex 0.215956 -0.099606 0.040343
endloop
endfacet
facet normal -0.276201 -0.756355 0.592992
outer loop
vertex 0.215956 -0.099606 0.040343
vertex 0.142003 -0.071812 0.041348
vertex 0.141212 -0.073983 0.038211
endloop
endfacet
facet normal -0.284422 -0.783735 0.552144
outer loop
vertex 0.215956 -0.099606 0.040343
vertex 0.141212 -0.073983 0.038211
vertex 0.215241 -0.101572 0.037185
endloop
endfacet
facet normal -0.304332 -0.833757 0.460685
outer loop
vertex 0.215241 -0.101572 0.037185
vertex 0.141212 -0.073983 0.038211
vertex 0.140598 -0.075670 0.034753
endloop
endfacet
facet normal -0.309721 -0.853120 0.419832
outer loop
vertex 0.215241 -0.101572 0.037185
vertex 0.140598 -0.075670 0.034753
vertex 0.214697 -0.103066 0.033747
endloop
endfacet
facet normal -0.325084 -0.890905 0.317188
outer loop
vertex 0.214697 -0.103066 0.033747
vertex 0.140598 -0.075670 0.034753
vertex 0.140176 -0.076831 0.031058
endloop
endfacet
facet normal -0.327896 -0.902918 0.277891
outer loop
vertex 0.214697 -0.103066 0.033747
vertex 0.140176 -0.076831 0.031058
vertex 0.214337 -0.104056 0.030108
endloop
endfacet
facet normal -0.337954 -0.926411 0.165983
outer loop
vertex 0.214337 -0.104056 0.030108
vertex 0.140176 -0.076831 0.031058
vertex 0.139955 -0.077439 0.027216
endloop
endfacet
facet normal -0.338535 -0.931991 0.129561
outer loop
vertex 0.214337 -0.104056 0.030108
vertex 0.139955 -0.077439 0.027216
vertex 0.214169 -0.104517 0.026352
endloop
endfacet
facet normal -0.342625 -0.939411 0.010751
outer loop
vertex 0.214169 -0.104517 0.026352
vertex 0.139955 -0.077439 0.027216
vertex 0.139940 -0.077478 0.023320
endloop
endfacet
facet normal -0.341392 -0.939669 -0.021747
outer loop
vertex 0.214169 -0.104517 0.026352
vertex 0.139940 -0.077478 0.023320
vertex 0.214197 -0.104439 0.022564
endloop
endfacet
facet normal -0.338985 -0.929591 -0.144741
outer loop
vertex 0.214197 -0.104439 0.022564
vertex 0.139940 -0.077478 0.023320
vertex 0.140133 -0.076948 0.019465
endloop
endfacet
facet normal -0.336404 -0.925775 -0.172548
outer loop
vertex 0.214197 -0.104439 0.022564
vertex 0.140133 -0.076948 0.019465
vertex 0.214421 -0.103825 0.018833
endloop
endfacet
facet normal -0.327119 -0.897191 -0.296719
outer loop
vertex 0.214421 -0.103825 0.018833
vertex 0.140133 -0.076948 0.019465
vertex 0.140529 -0.075862 0.015744
endloop
endfacet
facet normal -0.323687 -0.890626 -0.319393
outer loop
vertex 0.214421 -0.103825 0.018833
vertex 0.140529 -0.075862 0.015744
vertex 0.214835 -0.102688 0.015243
endloop
endfacet
facet normal -0.307316 -0.842997 -0.441490
outer loop
vertex 0.214835 -0.102688 0.015243
vertex 0.140529 -0.075862 0.015744
vertex 0.141117 -0.074246 0.012248
endloop
endfacet
facet normal -0.303534 -0.835030 -0.458903
outer loop
vertex 0.214835 -0.102688 0.015243
vertex 0.141117 -0.074246 0.012248
vertex 0.215429 -0.101055 0.011878
endloop
endfacet
facet normal -0.280052 -0.768326 -0.575539
outer loop
vertex 0.215429 -0.101055 0.011878
vertex 0.141117 -0.074246 0.012248
vertex 0.141884 -0.072139 0.009062
endloop
endfacet
facet normal -0.276409 -0.760261 -0.587878
outer loop
vertex 0.215429 -0.101055 0.011878
vertex 0.141884 -0.072139 0.009062
vertex 0.216191 -0.098962 0.008813
endloop
endfacet
facet normal -0.245990 -0.674994 -0.695609
outer loop
vertex 0.216191 -0.098962 0.008813
vertex 0.141884 -0.072139 0.009062
vertex 0.142811 -0.069592 0.006263
endloop
endfacet
facet normal -0.242937 -0.668038 -0.703354
outer loop
vertex 0.216191 -0.098962 0.008813
vertex 0.142811 -0.069592 0.006263
vertex 0.217102 -0.096458 0.006120
endloop
endfacet
facet normal -0.205954 -0.565265 -0.798785
outer loop
vertex 0.217102 -0.096458 0.006120
vertex 0.142811 -0.069592 0.006263
vertex 0.143875 -0.066667 0.003919
endloop
endfacet
facet normal -0.203890 -0.560479 -0.802678
outer loop
vertex 0.217102 -0.096458 0.006120
vertex 0.143875 -0.066667 0.003919
vertex 0.218142 -0.093601 0.003861
endloop
endfacet
facet normal 0.276945 0.760068 -0.587875
outer loop
vertex 0.229985 -0.061063 0.011878
vertex 0.229223 -0.063156 0.008813
vertex 0.155059 -0.035940 0.009062
endloop
endfacet
facet normal 0.245437 0.675194 -0.695610
outer loop
vertex 0.155059 -0.035940 0.009062
vertex 0.229223 -0.063156 0.008813
vertex 0.154132 -0.038487 0.006263
endloop
endfacet
facet normal 0.245714 0.675094 -0.695610
outer loop
vertex 0.155059 -0.035940 0.009062
vertex 0.154132 -0.038487 0.006263
vertex 0.079896 -0.011467 0.006263
endloop
endfacet
facet normal 0.205765 0.565335 -0.798785
outer loop
vertex 0.079896 -0.011467 0.006263
vertex 0.154132 -0.038487 0.006263
vertex 0.078832 -0.014391 0.003919
endloop
endfacet
facet normal 0.205765 0.565335 -0.798785
outer loop
vertex 0.079896 -0.011467 0.006263
vertex 0.078832 -0.014391 0.003919
vertex 0.004596 0.012628 0.003919
endloop
endfacet
facet normal 0.160819 0.441847 -0.882558
outer loop
vertex 0.004596 0.012628 0.003919
vertex 0.078832 -0.014391 0.003919
vertex -0.219287 0.090456 0.002087
endloop
endfacet
facet normal 0.243306 0.667905 -0.703353
outer loop
vertex 0.229223 -0.063156 0.008813
vertex 0.228312 -0.065659 0.006120
vertex 0.154132 -0.038487 0.006263
endloop
endfacet
facet normal 0.205576 0.565405 -0.798784
outer loop
vertex 0.154132 -0.038487 0.006263
vertex 0.228312 -0.065659 0.006120
vertex 0.153068 -0.041411 0.003919
endloop
endfacet
facet normal 0.205765 0.565336 -0.798784
outer loop
vertex 0.154132 -0.038487 0.006263
vertex 0.153068 -0.041411 0.003919
vertex 0.078832 -0.014391 0.003919
endloop
endfacet
facet normal 0.160818 0.441843 -0.882560
outer loop
vertex 0.078832 -0.014391 0.003919
vertex 0.153068 -0.041411 0.003919
vertex -0.219287 0.090456 0.002087
endloop
endfacet
facet normal 0.204079 0.560407 -0.802680
outer loop
vertex 0.228312 -0.065659 0.006120
vertex 0.227272 -0.068517 0.003861
vertex 0.153068 -0.041411 0.003919
endloop
endfacet
facet normal 0.163518 0.449529 -0.878172
outer loop
vertex 0.153068 -0.041411 0.003919
vertex 0.227272 -0.068517 0.003861
vertex -0.219287 0.090456 0.002087
endloop
endfacet
facet normal 0.160164 0.440047 -0.883576
outer loop
vertex 0.227272 -0.068517 0.003861
vertex 0.226127 -0.071662 0.002087
vertex -0.219287 0.090456 0.002087
endloop
endfacet
facet normal -0.276945 -0.760068 -0.587876
outer loop
vertex -0.229985 0.061063 0.011878
vertex -0.229223 0.063156 0.008813
vertex -0.155059 0.035940 0.009062
endloop
endfacet
facet normal -0.245438 -0.675195 -0.695609
outer loop
vertex -0.155059 0.035940 0.009062
vertex -0.229223 0.063156 0.008813
vertex -0.154132 0.038487 0.006263
endloop
endfacet
facet normal -0.245714 -0.675094 -0.695610
outer loop
vertex -0.155059 0.035940 0.009062
vertex -0.154132 0.038487 0.006263
vertex -0.079896 0.011467 0.006263
endloop
endfacet
facet normal -0.205765 -0.565335 -0.798785
outer loop
vertex -0.079896 0.011467 0.006263
vertex -0.154132 0.038487 0.006263
vertex -0.078832 0.014391 0.003919
endloop
endfacet
facet normal -0.205765 -0.565335 -0.798785
outer loop
vertex -0.079896 0.011467 0.006263
vertex -0.078832 0.014391 0.003919
vertex -0.004596 -0.012628 0.003919
endloop
endfacet
facet normal -0.160819 -0.441845 -0.882559
outer loop
vertex -0.004596 -0.012628 0.003919
vertex -0.078832 0.014391 0.003919
vertex 0.219287 -0.090456 0.002087
endloop
endfacet
facet normal -0.243306 -0.667905 -0.703353
outer loop
vertex -0.229223 0.063156 0.008813
vertex -0.228312 0.065659 0.006120
vertex -0.154132 0.038487 0.006263
endloop
endfacet
facet normal -0.205575 -0.565404 -0.798785
outer loop
vertex -0.154132 0.038487 0.006263
vertex -0.228312 0.065659 0.006120
vertex -0.153068 0.041411 0.003919
endloop
endfacet
facet normal -0.205765 -0.565335 -0.798784
outer loop
vertex -0.154132 0.038487 0.006263
vertex -0.153068 0.041411 0.003919
vertex -0.078832 0.014391 0.003919
endloop
endfacet
facet normal -0.160818 -0.441843 -0.882560
outer loop
vertex -0.078832 0.014391 0.003919
vertex -0.153068 0.041411 0.003919
vertex 0.219287 -0.090456 0.002087
endloop
endfacet
facet normal -0.204079 -0.560407 -0.802680
outer loop
vertex -0.228312 0.065659 0.006120
vertex -0.227272 0.068517 0.003861
vertex -0.153068 0.041411 0.003919
endloop
endfacet
facet normal -0.163519 -0.449532 -0.878170
outer loop
vertex -0.153068 0.041411 0.003919
vertex -0.227272 0.068517 0.003861
vertex 0.219287 -0.090456 0.002087
endloop
endfacet
facet normal -0.160164 -0.440047 -0.883576
outer loop
vertex -0.227272 0.068517 0.003861
vertex -0.226127 0.071662 0.002087
vertex 0.219287 -0.090456 0.002087
endloop
endfacet
facet normal -0.205765 -0.565335 -0.798785
outer loop
vertex 0.069639 -0.039648 0.003919
vertex 0.143875 -0.066667 0.003919
vertex 0.068575 -0.042572 0.006263
endloop
endfacet
facet normal -0.205765 -0.565334 -0.798785
outer loop
vertex 0.068575 -0.042572 0.006263
vertex 0.143875 -0.066667 0.003919
vertex 0.142811 -0.069592 0.006263
endloop
endfacet
facet normal -0.245714 -0.675095 -0.695609
outer loop
vertex 0.068575 -0.042572 0.006263
vertex 0.142811 -0.069592 0.006263
vertex 0.067648 -0.045119 0.009062
endloop
endfacet
facet normal -0.245714 -0.675094 -0.695610
outer loop
vertex 0.067648 -0.045119 0.009062
vertex 0.142811 -0.069592 0.006263
vertex 0.141884 -0.072139 0.009062
endloop
endfacet
facet normal -0.279695 -0.768455 -0.575541
outer loop
vertex 0.067648 -0.045119 0.009062
vertex 0.141884 -0.072139 0.009062
vertex 0.066881 -0.047226 0.012248
endloop
endfacet
facet normal -0.279695 -0.768455 -0.575541
outer loop
vertex 0.066881 -0.047226 0.012248
vertex 0.141884 -0.072139 0.009062
vertex 0.141117 -0.074246 0.012248
endloop
endfacet
facet normal -0.306883 -0.843154 -0.441491
outer loop
vertex 0.066881 -0.047226 0.012248
vertex 0.141117 -0.074246 0.012248
vertex 0.066293 -0.048843 0.015744
endloop
endfacet
facet normal -0.306883 -0.843154 -0.441490
outer loop
vertex 0.066293 -0.048843 0.015744
vertex 0.141117 -0.074246 0.012248
vertex 0.140529 -0.075862 0.015744
endloop
endfacet
facet normal -0.326617 -0.897372 -0.296723
outer loop
vertex 0.066293 -0.048843 0.015744
vertex 0.140529 -0.075862 0.015744
vertex 0.065897 -0.049929 0.019465
endloop
endfacet
facet normal -0.326617 -0.897374 -0.296718
outer loop
vertex 0.065897 -0.049929 0.019465
vertex 0.140529 -0.075862 0.015744
vertex 0.140133 -0.076948 0.019465
endloop
endfacet
facet normal -0.338419 -0.929797 -0.144744
outer loop
vertex 0.065897 -0.049929 0.019465
vertex 0.140133 -0.076948 0.019465
vertex 0.065705 -0.050459 0.023320
endloop
endfacet
facet normal -0.338419 -0.929798 -0.144738
outer loop
vertex 0.065705 -0.050459 0.023320
vertex 0.140133 -0.076948 0.019465
vertex 0.139940 -0.077478 0.023320
endloop
endfacet
facet normal -0.342001 -0.939638 0.010754
outer loop
vertex 0.065705 -0.050459 0.023320
vertex 0.139940 -0.077478 0.023320
vertex 0.065719 -0.050419 0.027216
endloop
endfacet
facet normal -0.342000 -0.939638 0.010754
outer loop
vertex 0.065719 -0.050419 0.027216
vertex 0.139940 -0.077478 0.023320
vertex 0.139955 -0.077439 0.027216
endloop
endfacet
facet normal -0.337275 -0.926658 0.165985
outer loop
vertex 0.065719 -0.050419 0.027216
vertex 0.139955 -0.077439 0.027216
vertex 0.065940 -0.049812 0.031058
endloop
endfacet
facet normal -0.337276 -0.926657 0.165987
outer loop
vertex 0.065940 -0.049812 0.031058
vertex 0.139955 -0.077439 0.027216
vertex 0.140176 -0.076831 0.031058
endloop
endfacet
facet normal -0.324360 -0.891170 0.317186
outer loop
vertex 0.065940 -0.049812 0.031058
vertex 0.140176 -0.076831 0.031058
vertex 0.066363 -0.048650 0.034753
endloop
endfacet
facet normal -0.324359 -0.891170 0.317187
outer loop
vertex 0.066363 -0.048650 0.034753
vertex 0.140176 -0.076831 0.031058
vertex 0.140598 -0.075670 0.034753
endloop
endfacet
facet normal -0.303564 -0.834037 0.460686
outer loop
vertex 0.066363 -0.048650 0.034753
vertex 0.140598 -0.075670 0.034753
vertex 0.066977 -0.046964 0.038211
endloop
endfacet
facet normal -0.303566 -0.834038 0.460682
outer loop
vertex 0.066977 -0.046964 0.038211
vertex 0.140598 -0.075670 0.034753
vertex 0.141212 -0.073983 0.038211
endloop
endfacet
facet normal -0.275397 -0.756649 0.592992
outer loop
vertex 0.066977 -0.046964 0.038211
vertex 0.141212 -0.073983 0.038211
vertex 0.067767 -0.044793 0.041348
endloop
endfacet
facet normal -0.275398 -0.756647 0.592993
outer loop
vertex 0.067767 -0.044793 0.041348
vertex 0.141212 -0.073983 0.038211
vertex 0.142003 -0.071812 0.041348
endloop
endfacet
facet normal -0.240542 -0.660882 0.710897
outer loop
vertex 0.067767 -0.044793 0.041348
vertex 0.142003 -0.071812 0.041348
vertex 0.068714 -0.042190 0.044088
endloop
endfacet
facet normal -0.240541 -0.660881 0.710899
outer loop
vertex 0.068714 -0.042190 0.044088
vertex 0.142003 -0.071812 0.041348
vertex 0.142950 -0.069210 0.044088
endloop
endfacet
facet normal -0.199842 -0.549061 0.811539
outer loop
vertex 0.113659 -0.057201 0.045000
vertex 0.069147 -0.041000 0.045000
vertex 0.068714 -0.042190 0.044088
endloop
endfacet
facet normal -0.199842 -0.549065 0.811536
outer loop
vertex 0.113659 -0.057201 0.045000
vertex 0.068714 -0.042190 0.044088
vertex 0.142950 -0.069210 0.044088
endloop
endfacet
facet normal -0.199841 -0.549061 0.811539
outer loop
vertex 0.113659 -0.057201 0.045000
vertex 0.142950 -0.069210 0.044088
vertex 0.143383 -0.068020 0.045000
endloop
endfacet
facet normal 0.199844 0.549061 0.811538
outer loop
vertex 0.079324 -0.013039 0.045000
vertex 0.109048 -0.023857 0.045000
vertex 0.079757 -0.011849 0.044088
endloop
endfacet
facet normal 0.199841 0.549060 0.811539
outer loop
vertex 0.153560 -0.040058 0.045000
vertex 0.153993 -0.038869 0.044088
vertex 0.079757 -0.011849 0.044088
endloop
endfacet
facet normal 0.199843 0.549062 0.811538
outer loop
vertex 0.153560 -0.040058 0.045000
vertex 0.079757 -0.011849 0.044088
vertex 0.109048 -0.023857 0.045000
endloop
endfacet
facet normal 0.240541 0.660881 0.710898
outer loop
vertex 0.079757 -0.011849 0.044088
vertex 0.153993 -0.038869 0.044088
vertex 0.080705 -0.009246 0.041348
endloop
endfacet
facet normal 0.240541 0.660881 0.710898
outer loop
vertex 0.080705 -0.009246 0.041348
vertex 0.153993 -0.038869 0.044088
vertex 0.154940 -0.036266 0.041348
endloop
endfacet
facet normal 0.275398 0.756648 0.592992
outer loop
vertex 0.080705 -0.009246 0.041348
vertex 0.154940 -0.036266 0.041348
vertex 0.081495 -0.007075 0.038211
endloop
endfacet
facet normal 0.275398 0.756648 0.592992
outer loop
vertex 0.081495 -0.007075 0.038211
vertex 0.154940 -0.036266 0.041348
vertex 0.155731 -0.034095 0.038211
endloop
endfacet
facet normal 0.303565 0.834037 0.460685
outer loop
vertex 0.081495 -0.007075 0.038211
vertex 0.155731 -0.034095 0.038211
vertex 0.082109 -0.005389 0.034753
endloop
endfacet
facet normal 0.303565 0.834037 0.460684
outer loop
vertex 0.082109 -0.005389 0.034753
vertex 0.155731 -0.034095 0.038211
vertex 0.156344 -0.032408 0.034753
endloop
endfacet
facet normal 0.324359 0.891170 0.317186
outer loop
vertex 0.082109 -0.005389 0.034753
vertex 0.156344 -0.032408 0.034753
vertex 0.082531 -0.004227 0.031058
endloop
endfacet
facet normal 0.324360 0.891169 0.317188
outer loop
vertex 0.082531 -0.004227 0.031058
vertex 0.156344 -0.032408 0.034753
vertex 0.156767 -0.031247 0.031058
endloop
endfacet
facet normal 0.337275 0.926657 0.165985
outer loop
vertex 0.082531 -0.004227 0.031058
vertex 0.156767 -0.031247 0.031058
vertex 0.082753 -0.003620 0.027216
endloop
endfacet
facet normal 0.337276 0.926657 0.165985
outer loop
vertex 0.082753 -0.003620 0.027216
vertex 0.156767 -0.031247 0.031058
vertex 0.156988 -0.030639 0.027216
endloop
endfacet
facet normal 0.342000 0.939638 0.010753
outer loop
vertex 0.082753 -0.003620 0.027216
vertex 0.156988 -0.030639 0.027216
vertex 0.082767 -0.003580 0.023320
endloop
endfacet
facet normal 0.342000 0.939638 0.010754
outer loop
vertex 0.082767 -0.003580 0.023320
vertex 0.156988 -0.030639 0.027216
vertex 0.157003 -0.030600 0.023320
endloop
endfacet
facet normal 0.338419 0.929797 -0.144740
outer loop
vertex 0.082767 -0.003580 0.023320
vertex 0.157003 -0.030600 0.023320
vertex 0.082574 -0.004110 0.019465
endloop
endfacet
facet normal 0.338419 0.929797 -0.144742
outer loop
vertex 0.082574 -0.004110 0.019465
vertex 0.157003 -0.030600 0.023320
vertex 0.156810 -0.031130 0.019465
endloop
endfacet
facet normal 0.326617 0.897373 -0.296720
outer loop
vertex 0.082574 -0.004110 0.019465
vertex 0.156810 -0.031130 0.019465
vertex 0.082179 -0.005197 0.015744
endloop
endfacet
facet normal 0.326617 0.897373 -0.296720
outer loop
vertex 0.082179 -0.005197 0.015744
vertex 0.156810 -0.031130 0.019465
vertex 0.156414 -0.032216 0.015744
endloop
endfacet
facet normal 0.306883 0.843154 -0.441490
outer loop
vertex 0.082179 -0.005197 0.015744
vertex 0.156414 -0.032216 0.015744
vertex 0.081590 -0.006813 0.012248
endloop
endfacet
facet normal 0.306883 0.843154 -0.441490
outer loop
vertex 0.081590 -0.006813 0.012248
vertex 0.156414 -0.032216 0.015744
vertex 0.155826 -0.033833 0.012248
endloop
endfacet
facet normal 0.279695 0.768456 -0.575540
outer loop
vertex 0.081590 -0.006813 0.012248
vertex 0.155826 -0.033833 0.012248
vertex 0.080823 -0.008920 0.009062
endloop
endfacet
facet normal -0.205765 -0.565334 -0.798785
outer loop
vertex 0.069639 -0.039648 0.003919
vertex 0.068575 -0.042572 0.006263
vertex -0.005661 -0.015553 0.006263
endloop
endfacet
facet normal -0.245714 -0.675093 -0.695610
outer loop
vertex -0.005661 -0.015553 0.006263
vertex 0.068575 -0.042572 0.006263
vertex -0.006588 -0.018099 0.009062
endloop
endfacet
facet normal -0.245714 -0.675094 -0.695610
outer loop
vertex -0.005661 -0.015553 0.006263
vertex -0.006588 -0.018099 0.009062
vertex -0.080823 0.008920 0.009062
endloop
endfacet
facet normal -0.279695 -0.768456 -0.575540
outer loop
vertex -0.080823 0.008920 0.009062
vertex -0.006588 -0.018099 0.009062
vertex -0.081590 0.006813 0.012248
endloop
endfacet
facet normal -0.279695 -0.768456 -0.575540
outer loop
vertex -0.080823 0.008920 0.009062
vertex -0.081590 0.006813 0.012248
vertex -0.155826 0.033833 0.012248
endloop
endfacet
facet normal -0.306883 -0.843154 -0.441491
outer loop
vertex -0.155826 0.033833 0.012248
vertex -0.081590 0.006813 0.012248
vertex -0.156414 0.032216 0.015744
endloop
endfacet
facet normal -0.245714 -0.675094 -0.695609
outer loop
vertex -0.006588 -0.018099 0.009062
vertex 0.068575 -0.042572 0.006263
vertex 0.067648 -0.045119 0.009062
endloop
endfacet
facet normal -0.279695 -0.768456 -0.575539
outer loop
vertex -0.006588 -0.018099 0.009062
vertex 0.067648 -0.045119 0.009062
vertex -0.007355 -0.020207 0.012248
endloop
endfacet
facet normal -0.279695 -0.768455 -0.575542
outer loop
vertex -0.007355 -0.020207 0.012248
vertex 0.067648 -0.045119 0.009062
vertex 0.066881 -0.047226 0.012248
endloop
endfacet
facet normal -0.306883 -0.843154 -0.441490
outer loop
vertex -0.007355 -0.020207 0.012248
vertex 0.066881 -0.047226 0.012248
vertex -0.007943 -0.021823 0.015744
endloop
endfacet
facet normal -0.306883 -0.843154 -0.441492
outer loop
vertex -0.007943 -0.021823 0.015744
vertex 0.066881 -0.047226 0.012248
vertex 0.066293 -0.048843 0.015744
endloop
endfacet
facet normal -0.326617 -0.897374 -0.296718
outer loop
vertex -0.007943 -0.021823 0.015744
vertex 0.066293 -0.048843 0.015744
vertex -0.008338 -0.022909 0.019465
endloop
endfacet
facet normal -0.326617 -0.897373 -0.296719
outer loop
vertex -0.008338 -0.022909 0.019465
vertex 0.066293 -0.048843 0.015744
vertex 0.065897 -0.049929 0.019465
endloop
endfacet
facet normal -0.338419 -0.929797 -0.144741
outer loop
vertex -0.008338 -0.022909 0.019465
vertex 0.065897 -0.049929 0.019465
vertex -0.008531 -0.023439 0.023320
endloop
endfacet
facet normal -0.338419 -0.929797 -0.144741
outer loop
vertex -0.008531 -0.023439 0.023320
vertex 0.065897 -0.049929 0.019465
vertex 0.065705 -0.050459 0.023320
endloop
endfacet
facet normal -0.342001 -0.939638 0.010754
outer loop
vertex -0.008531 -0.023439 0.023320
vertex 0.065705 -0.050459 0.023320
vertex -0.008517 -0.023400 0.027216
endloop
endfacet
facet normal -0.342000 -0.939638 0.010752
outer loop
vertex -0.008517 -0.023400 0.027216
vertex 0.065705 -0.050459 0.023320
vertex 0.065719 -0.050419 0.027216
endloop
endfacet
facet normal -0.337276 -0.926657 0.165987
outer loop
vertex -0.008517 -0.023400 0.027216
vertex 0.065719 -0.050419 0.027216
vertex -0.008296 -0.022792 0.031058
endloop
endfacet
facet normal -0.337275 -0.926657 0.165987
outer loop
vertex -0.008296 -0.022792 0.031058
vertex 0.065719 -0.050419 0.027216
vertex 0.065940 -0.049812 0.031058
endloop
endfacet
facet normal -0.324360 -0.891170 0.317185
outer loop
vertex -0.008296 -0.022792 0.031058
vertex 0.065940 -0.049812 0.031058
vertex -0.007873 -0.021631 0.034753
endloop
endfacet
facet normal -0.324359 -0.891170 0.317186
outer loop
vertex -0.007873 -0.021631 0.034753
vertex 0.065940 -0.049812 0.031058
vertex 0.066363 -0.048650 0.034753
endloop
endfacet
facet normal -0.303565 -0.834037 0.460685
outer loop
vertex -0.007873 -0.021631 0.034753
vertex 0.066363 -0.048650 0.034753
vertex -0.007259 -0.019944 0.038211
endloop
endfacet
facet normal -0.303565 -0.834037 0.460685
outer loop
vertex -0.007259 -0.019944 0.038211
vertex 0.066363 -0.048650 0.034753
vertex 0.066977 -0.046964 0.038211
endloop
endfacet
facet normal -0.275397 -0.756648 0.592993
outer loop
vertex -0.007259 -0.019944 0.038211
vertex 0.066977 -0.046964 0.038211
vertex -0.006469 -0.017773 0.041348
endloop
endfacet
facet normal -0.275398 -0.756649 0.592991
outer loop
vertex -0.006469 -0.017773 0.041348
vertex 0.066977 -0.046964 0.038211
vertex 0.067767 -0.044793 0.041348
endloop
endfacet
facet normal -0.240541 -0.660881 0.710898
outer loop
vertex -0.006469 -0.017773 0.041348
vertex 0.067767 -0.044793 0.041348
vertex -0.005522 -0.015170 0.044088
endloop
endfacet
facet normal -0.240541 -0.660881 0.710898
outer loop
vertex -0.005522 -0.015170 0.044088
vertex 0.067767 -0.044793 0.041348
vertex 0.068714 -0.042190 0.044088
endloop
endfacet
facet normal -0.199842 -0.549061 0.811539
outer loop
vertex 0.039424 -0.030182 0.045000
vertex -0.005089 -0.013981 0.045000
vertex -0.005522 -0.015170 0.044088
endloop
endfacet
facet normal -0.199841 -0.549061 0.811539
outer loop
vertex 0.039424 -0.030182 0.045000
vertex -0.005522 -0.015170 0.044088
vertex 0.068714 -0.042190 0.044088
endloop
endfacet
facet normal -0.199841 -0.549061 0.811539
outer loop
vertex 0.039424 -0.030182 0.045000
vertex 0.068714 -0.042190 0.044088
vertex 0.069147 -0.041000 0.045000
endloop
endfacet
facet normal 0.199841 0.549061 0.811539
outer loop
vertex 0.034812 0.003162 0.045000
vertex 0.005522 0.015170 0.044088
vertex 0.005089 0.013981 0.045000
endloop
endfacet
facet normal 0.199841 0.549061 0.811539
outer loop
vertex 0.079324 -0.013039 0.045000
vertex 0.079757 -0.011849 0.044088
vertex 0.005522 0.015170 0.044088
endloop
endfacet
facet normal 0.199843 0.549061 0.811539
outer loop
vertex 0.079324 -0.013039 0.045000
vertex 0.005522 0.015170 0.044088
vertex 0.034812 0.003162 0.045000
endloop
endfacet
facet normal 0.240541 0.660881 0.710898
outer loop
vertex 0.005522 0.015170 0.044088
vertex 0.079757 -0.011849 0.044088
vertex 0.006469 0.017773 0.041348
endloop
endfacet
facet normal 0.240542 0.660881 0.710898
outer loop
vertex 0.006469 0.017773 0.041348
vertex 0.079757 -0.011849 0.044088
vertex 0.080705 -0.009246 0.041348
endloop
endfacet
facet normal 0.275398 0.756648 0.592992
outer loop
vertex 0.006469 0.017773 0.041348
vertex 0.080705 -0.009246 0.041348
vertex 0.007259 0.019944 0.038211
endloop
endfacet
facet normal 0.275397 0.756648 0.592992
outer loop
vertex 0.007259 0.019944 0.038211
vertex 0.080705 -0.009246 0.041348
vertex 0.081495 -0.007075 0.038211
endloop
endfacet
facet normal 0.303566 0.834037 0.460684
outer loop
vertex 0.007259 0.019944 0.038211
vertex 0.081495 -0.007075 0.038211
vertex 0.007873 0.021631 0.034753
endloop
endfacet
facet normal 0.303564 0.834038 0.460684
outer loop
vertex 0.007873 0.021631 0.034753
vertex 0.081495 -0.007075 0.038211
vertex 0.082109 -0.005389 0.034753
endloop
endfacet
facet normal 0.324359 0.891170 0.317187
outer loop
vertex 0.007873 0.021631 0.034753
vertex 0.082109 -0.005389 0.034753
vertex 0.008296 0.022792 0.031058
endloop
endfacet
facet normal 0.324360 0.891170 0.317187
outer loop
vertex 0.008296 0.022792 0.031058
vertex 0.082109 -0.005389 0.034753
vertex 0.082531 -0.004227 0.031058
endloop
endfacet
facet normal 0.337275 0.926657 0.165986
outer loop
vertex 0.008296 0.022792 0.031058
vertex 0.082531 -0.004227 0.031058
vertex 0.008517 0.023400 0.027216
endloop
endfacet
facet normal 0.337276 0.926657 0.165986
outer loop
vertex 0.008517 0.023400 0.027216
vertex 0.082531 -0.004227 0.031058
vertex 0.082753 -0.003620 0.027216
endloop
endfacet
facet normal 0.342000 0.939638 0.010753
outer loop
vertex 0.008517 0.023400 0.027216
vertex 0.082753 -0.003620 0.027216
vertex 0.008531 0.023439 0.023320
endloop
endfacet
facet normal 0.342001 0.939638 0.010753
outer loop
vertex 0.008531 0.023439 0.023320
vertex 0.082753 -0.003620 0.027216
vertex 0.082767 -0.003580 0.023320
endloop
endfacet
facet normal 0.338419 0.929797 -0.144741
outer loop
vertex 0.008531 0.023439 0.023320
vertex 0.082767 -0.003580 0.023320
vertex 0.008338 0.022909 0.019465
endloop
endfacet
facet normal 0.338419 0.929797 -0.144740
outer loop
vertex 0.008338 0.022909 0.019465
vertex 0.082767 -0.003580 0.023320
vertex 0.082574 -0.004110 0.019465
endloop
endfacet
facet normal 0.326617 0.897373 -0.296720
outer loop
vertex 0.008338 0.022909 0.019465
vertex 0.082574 -0.004110 0.019465
vertex 0.007943 0.021823 0.015744
endloop
endfacet
facet normal 0.326617 0.897373 -0.296720
outer loop
vertex 0.007943 0.021823 0.015744
vertex 0.082574 -0.004110 0.019465
vertex 0.082179 -0.005197 0.015744
endloop
endfacet
facet normal 0.306883 0.843154 -0.441491
outer loop
vertex 0.007943 0.021823 0.015744
vertex 0.082179 -0.005197 0.015744
vertex 0.007355 0.020207 0.012248
endloop
endfacet
facet normal 0.306883 0.843154 -0.441491
outer loop
vertex 0.007355 0.020207 0.012248
vertex 0.082179 -0.005197 0.015744
vertex 0.081590 -0.006813 0.012248
endloop
endfacet
facet normal 0.279695 0.768456 -0.575540
outer loop
vertex 0.007355 0.020207 0.012248
vertex 0.081590 -0.006813 0.012248
vertex 0.006588 0.018099 0.009062
endloop
endfacet
facet normal 0.279695 0.768456 -0.575540
outer loop
vertex 0.006588 0.018099 0.009062
vertex 0.081590 -0.006813 0.012248
vertex 0.080823 -0.008920 0.009062
endloop
endfacet
facet normal 0.245714 0.675094 -0.695610
outer loop
vertex 0.006588 0.018099 0.009062
vertex 0.080823 -0.008920 0.009062
vertex 0.005661 0.015553 0.006263
endloop
endfacet
facet normal -0.279695 -0.768456 -0.575540
outer loop
vertex -0.006588 -0.018099 0.009062
vertex -0.007355 -0.020207 0.012248
vertex -0.081590 0.006813 0.012248
endloop
endfacet
facet normal -0.306883 -0.843154 -0.441491
outer loop
vertex -0.081590 0.006813 0.012248
vertex -0.007355 -0.020207 0.012248
vertex -0.082179 0.005197 0.015744
endloop
endfacet
facet normal -0.306883 -0.843154 -0.441491
outer loop
vertex -0.081590 0.006813 0.012248
vertex -0.082179 0.005197 0.015744
vertex -0.156414 0.032216 0.015744
endloop
endfacet
facet normal -0.326617 -0.897373 -0.296720
outer loop
vertex -0.156414 0.032216 0.015744
vertex -0.082179 0.005197 0.015744
vertex -0.156810 0.031130 0.019465
endloop
endfacet
facet normal -0.306883 -0.843154 -0.441491
outer loop
vertex -0.082179 0.005197 0.015744
vertex -0.007355 -0.020207 0.012248
vertex -0.007943 -0.021823 0.015744
endloop
endfacet
facet normal -0.326617 -0.897373 -0.296720
outer loop
vertex -0.082179 0.005197 0.015744
vertex -0.007943 -0.021823 0.015744
vertex -0.082574 0.004110 0.019465
endloop
endfacet
facet normal -0.326617 -0.897373 -0.296720
outer loop
vertex -0.082574 0.004110 0.019465
vertex -0.007943 -0.021823 0.015744
vertex -0.008338 -0.022909 0.019465
endloop
endfacet
facet normal -0.338419 -0.929797 -0.144740
outer loop
vertex -0.082574 0.004110 0.019465
vertex -0.008338 -0.022909 0.019465
vertex -0.082767 0.003580 0.023320
endloop
endfacet
facet normal -0.338419 -0.929797 -0.144741
outer loop
vertex -0.082767 0.003580 0.023320
vertex -0.008338 -0.022909 0.019465
vertex -0.008531 -0.023439 0.023320
endloop
endfacet
facet normal -0.342001 -0.939638 0.010753
outer loop
vertex -0.082767 0.003580 0.023320
vertex -0.008531 -0.023439 0.023320
vertex -0.082753 0.003620 0.027216
endloop
endfacet
facet normal -0.342000 -0.939638 0.010753
outer loop
vertex -0.082753 0.003620 0.027216
vertex -0.008531 -0.023439 0.023320
vertex -0.008517 -0.023400 0.027216
endloop
endfacet
facet normal -0.337276 -0.926657 0.165985
outer loop
vertex -0.082753 0.003620 0.027216
vertex -0.008517 -0.023400 0.027216
vertex -0.082531 0.004227 0.031058
endloop
endfacet
facet normal -0.337275 -0.926657 0.165986
outer loop
vertex -0.082531 0.004227 0.031058
vertex -0.008517 -0.023400 0.027216
vertex -0.008296 -0.022792 0.031058
endloop
endfacet
facet normal -0.324360 -0.891170 0.317187
outer loop
vertex -0.082531 0.004227 0.031058
vertex -0.008296 -0.022792 0.031058
vertex -0.082109 0.005389 0.034753
endloop
endfacet
facet normal -0.324359 -0.891170 0.317187
outer loop
vertex -0.082109 0.005389 0.034753
vertex -0.008296 -0.022792 0.031058
vertex -0.007873 -0.021631 0.034753
endloop
endfacet
facet normal -0.303564 -0.834038 0.460685
outer loop
vertex -0.082109 0.005389 0.034753
vertex -0.007873 -0.021631 0.034753
vertex -0.081495 0.007075 0.038211
endloop
endfacet
facet normal -0.303565 -0.834037 0.460684
outer loop
vertex -0.081495 0.007075 0.038211
vertex -0.007873 -0.021631 0.034753
vertex -0.007259 -0.019944 0.038211
endloop
endfacet
facet normal -0.275397 -0.756648 0.592992
outer loop
vertex -0.081495 0.007075 0.038211
vertex -0.007259 -0.019944 0.038211
vertex -0.080705 0.009246 0.041348
endloop
endfacet
facet normal -0.275398 -0.756648 0.592992
outer loop
vertex -0.080705 0.009246 0.041348
vertex -0.007259 -0.019944 0.038211
vertex -0.006469 -0.017773 0.041348
endloop
endfacet
facet normal -0.240541 -0.660881 0.710898
outer loop
vertex -0.080705 0.009246 0.041348
vertex -0.006469 -0.017773 0.041348
vertex -0.079757 0.011849 0.044088
endloop
endfacet
facet normal -0.240541 -0.660881 0.710898
outer loop
vertex -0.079757 0.011849 0.044088
vertex -0.006469 -0.017773 0.041348
vertex -0.005522 -0.015170 0.044088
endloop
endfacet
facet normal -0.199842 -0.549061 0.811539
outer loop
vertex -0.034812 -0.003162 0.045000
vertex -0.079324 0.013039 0.045000
vertex -0.079757 0.011849 0.044088
endloop
endfacet
facet normal -0.199841 -0.549061 0.811539
outer loop
vertex -0.034812 -0.003162 0.045000
vertex -0.079757 0.011849 0.044088
vertex -0.005522 -0.015170 0.044088
endloop
endfacet
facet normal -0.199841 -0.549061 0.811539
outer loop
vertex -0.034812 -0.003162 0.045000
vertex -0.005522 -0.015170 0.044088
vertex -0.005089 -0.013981 0.045000
endloop
endfacet
facet normal 0.199841 0.549061 0.811539
outer loop
vertex -0.069147 0.041000 0.045000
vertex -0.039424 0.030182 0.045000
vertex -0.068714 0.042190 0.044088
endloop
endfacet
facet normal 0.199841 0.549060 0.811540
outer loop
vertex 0.005089 0.013981 0.045000
vertex 0.005522 0.015170 0.044088
vertex -0.068714 0.042190 0.044088
endloop
endfacet
facet normal 0.199843 0.549061 0.811539
outer loop
vertex 0.005089 0.013981 0.045000
vertex -0.068714 0.042190 0.044088
vertex -0.039424 0.030182 0.045000
endloop
endfacet
facet normal 0.240541 0.660881 0.710898
outer loop
vertex -0.068714 0.042190 0.044088
vertex 0.005522 0.015170 0.044088
vertex -0.067767 0.044793 0.041348
endloop
endfacet
facet normal 0.240542 0.660881 0.710898
outer loop
vertex -0.067767 0.044793 0.041348
vertex 0.005522 0.015170 0.044088
vertex 0.006469 0.017773 0.041348
endloop
endfacet
facet normal 0.275398 0.756648 0.592993
outer loop
vertex -0.067767 0.044793 0.041348
vertex 0.006469 0.017773 0.041348
vertex -0.066977 0.046964 0.038211
endloop
endfacet
facet normal 0.275398 0.756649 0.592992
outer loop
vertex -0.066977 0.046964 0.038211
vertex 0.006469 0.017773 0.041348
vertex 0.007259 0.019944 0.038211
endloop
endfacet
facet normal 0.303565 0.834037 0.460685
outer loop
vertex -0.066977 0.046964 0.038211
vertex 0.007259 0.019944 0.038211
vertex -0.066363 0.048650 0.034753
endloop
endfacet
facet normal 0.303565 0.834037 0.460685
outer loop
vertex -0.066363 0.048650 0.034753
vertex 0.007259 0.019944 0.038211
vertex 0.007873 0.021631 0.034753
endloop
endfacet
facet normal 0.324359 0.891170 0.317186
outer loop
vertex -0.066363 0.048650 0.034753
vertex 0.007873 0.021631 0.034753
vertex -0.065940 0.049812 0.031058
endloop
endfacet
facet normal 0.324360 0.891170 0.317186
outer loop
vertex -0.065940 0.049812 0.031058
vertex 0.007873 0.021631 0.034753
vertex 0.008296 0.022792 0.031058
endloop
endfacet
facet normal 0.337275 0.926657 0.165987
outer loop
vertex -0.065940 0.049812 0.031058
vertex 0.008296 0.022792 0.031058
vertex -0.065719 0.050419 0.027216
endloop
endfacet
facet normal 0.337276 0.926657 0.165985
outer loop
vertex -0.065719 0.050419 0.027216
vertex 0.008296 0.022792 0.031058
vertex 0.008517 0.023400 0.027216
endloop
endfacet
facet normal 0.342000 0.939638 0.010754
outer loop
vertex -0.065719 0.050419 0.027216
vertex 0.008517 0.023400 0.027216
vertex -0.065705 0.050459 0.023320
endloop
endfacet
facet normal 0.342001 0.939638 0.010753
outer loop
vertex -0.065705 0.050459 0.023320
vertex 0.008517 0.023400 0.027216
vertex 0.008531 0.023439 0.023320
endloop
endfacet
facet normal 0.338419 0.929797 -0.144741
outer loop
vertex -0.065705 0.050459 0.023320
vertex 0.008531 0.023439 0.023320
vertex -0.065897 0.049929 0.019465
endloop
endfacet
facet normal 0.338419 0.929797 -0.144742
outer loop
vertex -0.065897 0.049929 0.019465
vertex 0.008531 0.023439 0.023320
vertex 0.008338 0.022909 0.019465
endloop
endfacet
facet normal 0.326617 0.897373 -0.296721
outer loop
vertex -0.065897 0.049929 0.019465
vertex 0.008338 0.022909 0.019465
vertex -0.066293 0.048843 0.015744
endloop
endfacet
facet normal 0.326617 0.897373 -0.296719
outer loop
vertex -0.066293 0.048843 0.015744
vertex 0.008338 0.022909 0.019465
vertex 0.007943 0.021823 0.015744
endloop
endfacet
facet normal 0.306883 0.843154 -0.441490
outer loop
vertex -0.066293 0.048843 0.015744
vertex 0.007943 0.021823 0.015744
vertex -0.066881 0.047226 0.012248
endloop
endfacet
facet normal 0.306883 0.843154 -0.441491
outer loop
vertex -0.066881 0.047226 0.012248
vertex 0.007943 0.021823 0.015744
vertex 0.007355 0.020207 0.012248
endloop
endfacet
facet normal 0.279695 0.768456 -0.575540
outer loop
vertex -0.066881 0.047226 0.012248
vertex 0.007355 0.020207 0.012248
vertex -0.067648 0.045119 0.009062
endloop
endfacet
facet normal 0.279695 0.768456 -0.575539
outer loop
vertex -0.067648 0.045119 0.009062
vertex 0.007355 0.020207 0.012248
vertex 0.006588 0.018099 0.009062
endloop
endfacet
facet normal 0.245714 0.675093 -0.695611
outer loop
vertex -0.067648 0.045119 0.009062
vertex 0.006588 0.018099 0.009062
vertex -0.068575 0.042572 0.006263
endloop
endfacet
facet normal 0.245714 0.675094 -0.695610
outer loop
vertex -0.068575 0.042572 0.006263
vertex 0.006588 0.018099 0.009062
vertex 0.005661 0.015553 0.006263
endloop
endfacet
facet normal 0.205765 0.565334 -0.798786
outer loop
vertex -0.068575 0.042572 0.006263
vertex 0.005661 0.015553 0.006263
vertex -0.069639 0.039648 0.003919
endloop
endfacet
facet normal -0.338419 -0.929797 -0.144742
outer loop
vertex -0.157003 0.030600 0.023320
vertex -0.156810 0.031130 0.019465
vertex -0.082574 0.004110 0.019465
endloop
endfacet
facet normal -0.326617 -0.897373 -0.296720
outer loop
vertex -0.082574 0.004110 0.019465
vertex -0.156810 0.031130 0.019465
vertex -0.082179 0.005197 0.015744
endloop
endfacet
facet normal -0.338419 -0.929797 -0.144740
outer loop
vertex -0.157003 0.030600 0.023320
vertex -0.082574 0.004110 0.019465
vertex -0.082767 0.003580 0.023320
endloop
endfacet
facet normal -0.342000 -0.939638 0.010754
outer loop
vertex -0.156988 0.030639 0.027216
vertex -0.157003 0.030600 0.023320
vertex -0.082767 0.003580 0.023320
endloop
endfacet
facet normal -0.342000 -0.939638 0.010753
outer loop
vertex -0.156988 0.030639 0.027216
vertex -0.082767 0.003580 0.023320
vertex -0.082753 0.003620 0.027216
endloop
endfacet
facet normal -0.337276 -0.926657 0.165985
outer loop
vertex -0.156767 0.031247 0.031058
vertex -0.156988 0.030639 0.027216
vertex -0.082753 0.003620 0.027216
endloop
endfacet
facet normal -0.337275 -0.926657 0.165985
outer loop
vertex -0.156767 0.031247 0.031058
vertex -0.082753 0.003620 0.027216
vertex -0.082531 0.004227 0.031058
endloop
endfacet
facet normal -0.324360 -0.891169 0.317188
outer loop
vertex -0.156344 0.032408 0.034753
vertex -0.156767 0.031247 0.031058
vertex -0.082531 0.004227 0.031058
endloop
endfacet
facet normal -0.324359 -0.891170 0.317186
outer loop
vertex -0.156344 0.032408 0.034753
vertex -0.082531 0.004227 0.031058
vertex -0.082109 0.005389 0.034753
endloop
endfacet
facet normal -0.303564 -0.834037 0.460684
outer loop
vertex -0.155731 0.034095 0.038211
vertex -0.156344 0.032408 0.034753
vertex -0.082109 0.005389 0.034753
endloop
endfacet
facet normal -0.303565 -0.834037 0.460685
outer loop
vertex -0.155731 0.034095 0.038211
vertex -0.082109 0.005389 0.034753
vertex -0.081495 0.007075 0.038211
endloop
endfacet
facet normal -0.275398 -0.756648 0.592992
outer loop
vertex -0.154940 0.036266 0.041348
vertex -0.155731 0.034095 0.038211
vertex -0.081495 0.007075 0.038211
endloop
endfacet
facet normal -0.275398 -0.756648 0.592992
outer loop
vertex -0.154940 0.036266 0.041348
vertex -0.081495 0.007075 0.038211
vertex -0.080705 0.009246 0.041348
endloop
endfacet
facet normal -0.240541 -0.660881 0.710898
outer loop
vertex -0.153993 0.038869 0.044088
vertex -0.154940 0.036266 0.041348
vertex -0.080705 0.009246 0.041348
endloop
endfacet
facet normal -0.240541 -0.660881 0.710898
outer loop
vertex -0.153993 0.038869 0.044088
vertex -0.080705 0.009246 0.041348
vertex -0.079757 0.011849 0.044088
endloop
endfacet
facet normal -0.199842 -0.549060 0.811540
outer loop
vertex -0.109048 0.023857 0.045000
vertex -0.153560 0.040058 0.045000
vertex -0.153993 0.038869 0.044088
endloop
endfacet
facet normal -0.199841 -0.549061 0.811539
outer loop
vertex -0.109048 0.023857 0.045000
vertex -0.153993 0.038869 0.044088
vertex -0.079757 0.011849 0.044088
endloop
endfacet
facet normal -0.199843 -0.549061 0.811538
outer loop
vertex -0.109048 0.023857 0.045000
vertex -0.079757 0.011849 0.044088
vertex -0.079324 0.013039 0.045000
endloop
endfacet
facet normal 0.199841 0.549062 0.811539
outer loop
vertex -0.143383 0.068020 0.045000
vertex -0.113659 0.057201 0.045000
vertex -0.142950 0.069210 0.044088
endloop
endfacet
facet normal 0.199841 0.549061 0.811539
outer loop
vertex -0.069147 0.041000 0.045000
vertex -0.068714 0.042190 0.044088
vertex -0.142950 0.069210 0.044088
endloop
endfacet
facet normal 0.199844 0.549065 0.811535
outer loop
vertex -0.069147 0.041000 0.045000
vertex -0.142950 0.069210 0.044088
vertex -0.113659 0.057201 0.045000
endloop
endfacet
facet normal 0.240541 0.660882 0.710897
outer loop
vertex -0.142003 0.071812 0.041348
vertex -0.142950 0.069210 0.044088
vertex -0.068714 0.042190 0.044088
endloop
endfacet
facet normal 0.240541 0.660880 0.710899
outer loop
vertex -0.142003 0.071812 0.041348
vertex -0.068714 0.042190 0.044088
vertex -0.067767 0.044793 0.041348
endloop
endfacet
facet normal 0.275398 0.756648 0.592992
outer loop
vertex -0.141212 0.073983 0.038211
vertex -0.142003 0.071812 0.041348
vertex -0.067767 0.044793 0.041348
endloop
endfacet
facet normal 0.275397 0.756648 0.592992
outer loop
vertex -0.141212 0.073983 0.038211
vertex -0.067767 0.044793 0.041348
vertex -0.066977 0.046964 0.038211
endloop
endfacet
facet normal 0.303566 0.834037 0.460684
outer loop
vertex -0.140598 0.075670 0.034753
vertex -0.141212 0.073983 0.038211
vertex -0.066977 0.046964 0.038211
endloop
endfacet
facet normal 0.303564 0.834037 0.460686
outer loop
vertex -0.140598 0.075670 0.034753
vertex -0.066977 0.046964 0.038211
vertex -0.066363 0.048650 0.034753
endloop
endfacet
facet normal 0.324359 0.891170 0.317186
outer loop
vertex -0.140176 0.076831 0.031058
vertex -0.140598 0.075670 0.034753
vertex -0.066363 0.048650 0.034753
endloop
endfacet
facet normal 0.324360 0.891170 0.317186
outer loop
vertex -0.140176 0.076831 0.031058
vertex -0.066363 0.048650 0.034753
vertex -0.065940 0.049812 0.031058
endloop
endfacet
facet normal 0.337276 0.926657 0.165988
outer loop
vertex -0.139955 0.077439 0.027216
vertex -0.140176 0.076831 0.031058
vertex -0.065940 0.049812 0.031058
endloop
endfacet
facet normal 0.337276 0.926658 0.165984
outer loop
vertex -0.139955 0.077439 0.027216
vertex -0.065940 0.049812 0.031058
vertex -0.065719 0.050419 0.027216
endloop
endfacet
facet normal 0.342000 0.939638 0.010754
outer loop
vertex -0.139940 0.077478 0.023320
vertex -0.139955 0.077439 0.027216
vertex -0.065719 0.050419 0.027216
endloop
endfacet
facet normal 0.342001 0.939638 0.010751
outer loop
vertex -0.139940 0.077478 0.023320
vertex -0.065719 0.050419 0.027216
vertex -0.065705 0.050459 0.023320
endloop
endfacet
facet normal 0.338419 0.929798 -0.144738
outer loop
vertex -0.140133 0.076948 0.019465
vertex -0.139940 0.077478 0.023320
vertex -0.065705 0.050459 0.023320
endloop
endfacet
facet normal 0.338419 0.929797 -0.144741
outer loop
vertex -0.140133 0.076948 0.019465
vertex -0.065705 0.050459 0.023320
vertex -0.065897 0.049929 0.019465
endloop
endfacet
facet normal 0.326617 0.897374 -0.296717
outer loop
vertex -0.140529 0.075862 0.015744
vertex -0.140133 0.076948 0.019465
vertex -0.065897 0.049929 0.019465
endloop
endfacet
facet normal 0.326617 0.897373 -0.296721
outer loop
vertex -0.140529 0.075862 0.015744
vertex -0.065897 0.049929 0.019465
vertex -0.066293 0.048843 0.015744
endloop
endfacet
facet normal 0.306883 0.843153 -0.441493
outer loop
vertex -0.141117 0.074246 0.012248
vertex -0.140529 0.075862 0.015744
vertex -0.066293 0.048843 0.015744
endloop
endfacet
facet normal 0.306883 0.843154 -0.441491
outer loop
vertex -0.141117 0.074246 0.012248
vertex -0.066293 0.048843 0.015744
vertex -0.066881 0.047226 0.012248
endloop
endfacet
facet normal 0.279694 0.768455 -0.575541
outer loop
vertex -0.141884 0.072139 0.009062
vertex -0.141117 0.074246 0.012248
vertex -0.066881 0.047226 0.012248
endloop
endfacet
facet normal 0.279695 0.768456 -0.575540
outer loop
vertex -0.141884 0.072139 0.009062
vertex -0.066881 0.047226 0.012248
vertex -0.067648 0.045119 0.009062
endloop
endfacet
facet normal 0.245714 0.675093 -0.695611
outer loop
vertex -0.142811 0.069592 0.006263
vertex -0.141884 0.072139 0.009062
vertex -0.067648 0.045119 0.009062
endloop
endfacet
facet normal 0.245714 0.675094 -0.695609
outer loop
vertex -0.142811 0.069592 0.006263
vertex -0.067648 0.045119 0.009062
vertex -0.068575 0.042572 0.006263
endloop
endfacet
facet normal 0.205765 0.565335 -0.798785
outer loop
vertex -0.143875 0.066667 0.003919
vertex -0.142811 0.069592 0.006263
vertex -0.068575 0.042572 0.006263
endloop
endfacet
facet normal 0.205765 0.565335 -0.798785
outer loop
vertex -0.143875 0.066667 0.003919
vertex -0.068575 0.042572 0.006263
vertex -0.069639 0.039648 0.003919
endloop
endfacet
facet normal -0.342020 -0.939693 0.000000
outer loop
vertex 0.219287 -0.090456 0.000000
vertex 0.219287 -0.090456 0.002087
vertex -0.226127 0.071662 0.000000
endloop
endfacet
facet normal -0.342020 -0.939693 0.000000
outer loop
vertex -0.226127 0.071662 0.000000
vertex 0.219287 -0.090456 0.002087
vertex -0.226127 0.071662 0.002087
endloop
endfacet
facet normal -0.939692 0.342020 0.000000
outer loop
vertex -0.226127 0.071662 0.000000
vertex -0.226127 0.071662 0.002087
vertex -0.219287 0.090456 0.000000
endloop
endfacet
facet normal -0.939693 0.342020 0.000000
outer loop
vertex -0.219287 0.090456 0.000000
vertex -0.226127 0.071662 0.002087
vertex -0.219287 0.090456 0.002087
endloop
endfacet
facet normal -0.939692 0.342021 -0.000003
outer loop
vertex -0.219287 0.090456 0.002087
vertex -0.226127 0.071662 0.002087
vertex -0.218142 0.093601 0.003861
endloop
endfacet
facet normal -0.939693 0.342019 -0.000002
outer loop
vertex -0.218142 0.093601 0.003861
vertex -0.226127 0.071662 0.002087
vertex -0.217102 0.096458 0.006120
endloop
endfacet
facet normal -0.939694 0.342016 0.000002
outer loop
vertex -0.217102 0.096458 0.006120
vertex -0.226127 0.071662 0.002087
vertex -0.216191 0.098962 0.008813
endloop
endfacet
facet normal -0.939691 0.342025 0.000003
outer loop
vertex -0.216191 0.098962 0.008813
vertex -0.226127 0.071662 0.002087
vertex -0.215429 0.101055 0.011878
endloop
endfacet
facet normal -0.939691 0.342024 -0.000003
outer loop
vertex -0.215429 0.101055 0.011878
vertex -0.226127 0.071662 0.002087
vertex -0.214835 0.102688 0.015243
endloop
endfacet
facet normal -0.939693 0.342019 0.000002
outer loop
vertex -0.214835 0.102688 0.015243
vertex -0.226127 0.071662 0.002087
vertex -0.214421 0.103825 0.018833
endloop
endfacet
facet normal -0.939692 0.342021 -0.000002
outer loop
vertex -0.214421 0.103825 0.018833
vertex -0.226127 0.071662 0.002087
vertex -0.214197 0.104439 0.022564
endloop
endfacet
facet normal -0.939693 0.342019 0.000002
outer loop
vertex -0.214197 0.104439 0.022564
vertex -0.226127 0.071662 0.002087
vertex -0.214169 0.104517 0.026352
endloop
endfacet
facet normal -0.939693 0.342019 0.000002
outer loop
vertex -0.214169 0.104517 0.026352
vertex -0.226127 0.071662 0.002087
vertex -0.214337 0.104056 0.030108
endloop
endfacet
facet normal -0.939694 0.342017 -0.000002
outer loop
vertex -0.214337 0.104056 0.030108
vertex -0.226127 0.071662 0.002087
vertex -0.214697 0.103066 0.033747
endloop
endfacet
facet normal -0.939692 0.342022 -0.000001
outer loop
vertex -0.214697 0.103066 0.033747
vertex -0.226127 0.071662 0.002087
vertex -0.215241 0.101572 0.037185
endloop
endfacet
facet normal -0.939692 0.342021 0.000002
outer loop
vertex -0.215241 0.101572 0.037185
vertex -0.226127 0.071662 0.002087
vertex -0.215956 0.099606 0.040343
endloop
endfacet
facet normal -0.939695 0.342014 -0.000001
outer loop
vertex -0.215956 0.099606 0.040343
vertex -0.226127 0.071662 0.002087
vertex -0.216827 0.097215 0.043149
endloop
endfacet
facet normal -0.939692 0.342022 0.000001
outer loop
vertex -0.216827 0.097215 0.043149
vertex -0.226127 0.071662 0.002087
vertex -0.217935 0.094170 0.045000
endloop
endfacet
facet normal -0.939692 0.342021 -0.000008
outer loop
vertex -0.216827 0.097215 0.043149
vertex -0.217935 0.094170 0.045000
vertex -0.217606 0.095075 0.045000
endloop
endfacet
facet normal -0.939693 0.342020 -0.000001
outer loop
vertex -0.219338 0.090315 0.045000
vertex -0.217935 0.094170 0.045000
vertex -0.226127 0.071662 0.002087
endloop
endfacet
facet normal -0.939692 0.342021 -0.000001
outer loop
vertex -0.220646 0.086722 0.045000
vertex -0.219338 0.090315 0.045000
vertex -0.226127 0.071662 0.002087
endloop
endfacet
facet normal -0.939687 0.342036 -0.000001
outer loop
vertex -0.220646 0.086722 0.045000
vertex -0.226127 0.071662 0.002087
vertex -0.227272 0.068517 0.003861
endloop
endfacet
facet normal -0.939747 0.341871 0.000025
outer loop
vertex -0.220646 0.086722 0.045000
vertex -0.227272 0.068517 0.003861
vertex -0.220763 0.086399 0.045000
endloop
endfacet
facet normal -0.939693 0.342018 -0.000000
outer loop
vertex -0.220763 0.086399 0.045000
vertex -0.227272 0.068517 0.003861
vertex -0.228312 0.065659 0.006120
endloop
endfacet
facet normal -0.939669 0.342085 -0.000008
outer loop
vertex -0.220763 0.086399 0.045000
vertex -0.228312 0.065659 0.006120
vertex -0.220890 0.086052 0.045000
endloop
endfacet
facet normal -0.939694 0.342016 0.000000
outer loop
vertex -0.220890 0.086052 0.045000
vertex -0.228312 0.065659 0.006120
vertex -0.229223 0.063156 0.008813
endloop
endfacet
facet normal -0.939702 0.341995 -0.000008
outer loop
vertex -0.220890 0.086052 0.045000
vertex -0.229223 0.063156 0.008813
vertex -0.221027 0.085675 0.045000
endloop
endfacet
facet normal -0.939691 0.342024 0.000000
outer loop
vertex -0.221027 0.085675 0.045000
vertex -0.229223 0.063156 0.008813
vertex -0.229985 0.061063 0.011878
endloop
endfacet
facet normal -0.939694 0.342018 0.000016
outer loop
vertex -0.221027 0.085675 0.045000
vertex -0.229985 0.061063 0.011878
vertex -0.221179 0.085258 0.045000
endloop
endfacet
facet normal -0.939694 0.342016 -0.000002
outer loop
vertex -0.221179 0.085258 0.045000
vertex -0.229985 0.061063 0.011878
vertex -0.230580 0.059429 0.015243
endloop
endfacet
facet normal -0.939700 0.341999 0.000008
outer loop
vertex -0.221179 0.085258 0.045000
vertex -0.230580 0.059429 0.015243
vertex -0.221350 0.084788 0.045000
endloop
endfacet
facet normal -0.939689 0.342030 0.000002
outer loop
vertex -0.221350 0.084788 0.045000
vertex -0.230580 0.059429 0.015243
vertex -0.230993 0.058292 0.018833
endloop
endfacet
facet normal -0.939703 0.341992 -0.000016
outer loop
vertex -0.221350 0.084788 0.045000
vertex -0.230993 0.058292 0.018833
vertex -0.221546 0.084249 0.045000
endloop
endfacet
facet normal -0.939692 0.342022 -0.000001
outer loop
vertex -0.221546 0.084249 0.045000
vertex -0.230993 0.058292 0.018833
vertex -0.231217 0.057678 0.022564
endloop
endfacet
facet normal -0.939705 0.341985 0.000008
outer loop
vertex -0.221546 0.084249 0.045000
vertex -0.231217 0.057678 0.022564
vertex -0.221777 0.083615 0.045000
endloop
endfacet
facet normal -0.939692 0.342023 -0.000002
outer loop
vertex -0.221777 0.083615 0.045000
vertex -0.231217 0.057678 0.022564
vertex -0.231245 0.057601 0.026352
endloop
endfacet
facet normal -0.939697 0.342007 0.000023
outer loop
vertex -0.221777 0.083615 0.045000
vertex -0.231245 0.057601 0.026352
vertex -0.222055 0.082852 0.045000
endloop
endfacet
facet normal -0.939693 0.342019 0.000001
outer loop
vertex -0.222055 0.082852 0.045000
vertex -0.231245 0.057601 0.026352
vertex -0.231077 0.058062 0.030108
endloop
endfacet
facet normal -0.939692 0.342021 0.000008
outer loop
vertex -0.222055 0.082852 0.045000
vertex -0.231077 0.058062 0.030108
vertex -0.222401 0.081900 0.045000
endloop
endfacet
facet normal -0.939689 0.342029 0.000000
outer loop
vertex -0.223738 0.078227 0.045000
vertex -0.222401 0.081900 0.045000
vertex -0.231077 0.058062 0.030108
endloop
endfacet
facet normal -0.939695 0.342013 -0.000000
outer loop
vertex -0.223738 0.078227 0.045000
vertex -0.231077 0.058062 0.030108
vertex -0.230717 0.059051 0.033747
endloop
endfacet
facet normal -0.939691 0.342025 -0.000004
outer loop
vertex -0.223738 0.078227 0.045000
vertex -0.230717 0.059051 0.033747
vertex -0.224161 0.077064 0.045000
endloop
endfacet
facet normal -0.939691 0.342025 -0.000004
outer loop
vertex -0.224161 0.077064 0.045000
vertex -0.230717 0.059051 0.033747
vertex -0.230173 0.060546 0.037185
endloop
endfacet
facet normal -0.939695 0.342014 0.000005
outer loop
vertex -0.224161 0.077064 0.045000
vertex -0.230173 0.060546 0.037185
vertex -0.224710 0.075556 0.045000
endloop
endfacet
facet normal -0.939693 0.342018 0.000001
outer loop
vertex -0.224710 0.075556 0.045000
vertex -0.230173 0.060546 0.037185
vertex -0.229458 0.062511 0.040343
endloop
endfacet
facet normal -0.939696 0.342012 -0.000006
outer loop
vertex -0.224710 0.075556 0.045000
vertex -0.229458 0.062511 0.040343
vertex -0.225461 0.073493 0.045000
endloop
endfacet
facet normal -0.939691 0.342025 0.000006
outer loop
vertex -0.225461 0.073493 0.045000
vertex -0.229458 0.062511 0.040343
vertex -0.228588 0.064902 0.043149
endloop
endfacet
facet normal -0.939696 0.342010 0.000005
outer loop
vertex -0.225461 0.073493 0.045000
vertex -0.228588 0.064902 0.043149
vertex -0.226565 0.070459 0.045000
endloop
endfacet
facet normal -0.939689 0.342030 -0.000013
outer loop
vertex -0.227809 0.067042 0.045000
vertex -0.226565 0.070459 0.045000
vertex -0.228588 0.064902 0.043149
endloop
endfacet
facet normal 0.939692 -0.342020 0.000000
outer loop
vertex 0.219287 -0.090456 0.000000
vertex 0.226127 -0.071662 0.000000
vertex 0.219287 -0.090456 0.002087
endloop
endfacet
facet normal 0.939693 -0.342020 0.000000
outer loop
vertex 0.219287 -0.090456 0.002087
vertex 0.226127 -0.071662 0.000000
vertex 0.226127 -0.071662 0.002087
endloop
endfacet
facet normal 0.939692 -0.342021 -0.000002
outer loop
vertex 0.219287 -0.090456 0.002087
vertex 0.226127 -0.071662 0.002087
vertex 0.227272 -0.068517 0.003861
endloop
endfacet
facet normal 0.939693 -0.342019 0.000002
outer loop
vertex 0.227272 -0.068517 0.003861
vertex 0.228312 -0.065659 0.006120
vertex 0.219287 -0.090456 0.002087
endloop
endfacet
facet normal 0.939692 -0.342021 -0.000003
outer loop
vertex 0.219287 -0.090456 0.002087
vertex 0.228312 -0.065659 0.006120
vertex 0.229223 -0.063156 0.008813
endloop
endfacet
facet normal 0.939692 -0.342023 0.000002
outer loop
vertex 0.219287 -0.090456 0.002087
vertex 0.229223 -0.063156 0.008813
vertex 0.229985 -0.061063 0.011878
endloop
endfacet
facet normal 0.939693 -0.342019 -0.000001
outer loop
vertex 0.229985 -0.061063 0.011878
vertex 0.230580 -0.059429 0.015243
vertex 0.219287 -0.090456 0.002087
endloop
endfacet
facet normal 0.939692 -0.342021 0.000003
outer loop
vertex 0.219287 -0.090456 0.002087
vertex 0.230580 -0.059429 0.015243
vertex 0.230993 -0.058292 0.018833
endloop
endfacet
facet normal 0.939694 -0.342018 0.000000
outer loop
vertex 0.219287 -0.090456 0.002087
vertex 0.230993 -0.058292 0.018833
vertex 0.231217 -0.057678 0.022564
endloop
endfacet
facet normal 0.939691 -0.342025 -0.000001
outer loop
vertex 0.231217 -0.057678 0.022564
vertex 0.231245 -0.057601 0.026352
vertex 0.219287 -0.090456 0.002087
endloop
endfacet
facet normal 0.939691 -0.342024 0.000000
outer loop
vertex 0.219287 -0.090456 0.002087
vertex 0.231245 -0.057601 0.026352
vertex 0.231077 -0.058062 0.030108
endloop
endfacet
facet normal 0.939694 -0.342015 0.000001
outer loop
vertex 0.219287 -0.090456 0.002087
vertex 0.231077 -0.058062 0.030108
vertex 0.230717 -0.059051 0.033747
endloop
endfacet
facet normal 0.939692 -0.342022 -0.000001
outer loop
vertex 0.230717 -0.059051 0.033747
vertex 0.230173 -0.060546 0.037185
vertex 0.219287 -0.090456 0.002087
endloop
endfacet
facet normal 0.939694 -0.342018 0.000000
outer loop
vertex 0.219287 -0.090456 0.002087
vertex 0.230173 -0.060546 0.037185
vertex 0.229458 -0.062511 0.040343
endloop
endfacet
facet normal 0.939689 -0.342029 0.000001
outer loop
vertex 0.219287 -0.090456 0.002087
vertex 0.229458 -0.062511 0.040343
vertex 0.228588 -0.064902 0.043149
endloop
endfacet
facet normal 0.939692 -0.342022 -0.000001
outer loop
vertex 0.227479 -0.067947 0.045000
vertex 0.219287 -0.090456 0.002087
vertex 0.228588 -0.064902 0.043149
endloop
endfacet
facet normal 0.939682 -0.342050 -0.000016
outer loop
vertex 0.227479 -0.067947 0.045000
vertex 0.228588 -0.064902 0.043149
vertex 0.227809 -0.067042 0.045000
endloop
endfacet
facet normal 0.939693 -0.342019 0.000000
outer loop
vertex 0.226076 -0.071802 0.045000
vertex 0.219287 -0.090456 0.002087
vertex 0.227479 -0.067947 0.045000
endloop
endfacet
facet normal 0.939696 -0.342012 0.000000
outer loop
vertex 0.224768 -0.075396 0.045000
vertex 0.219287 -0.090456 0.002087
vertex 0.226076 -0.071802 0.045000
endloop
endfacet
facet normal 0.939689 -0.342029 0.000000
outer loop
vertex 0.221676 -0.083891 0.045000
vertex 0.214337 -0.104056 0.030108
vertex 0.223013 -0.080218 0.045000
endloop
endfacet
facet normal 0.939693 -0.342020 0.000004
outer loop
vertex 0.214337 -0.104056 0.030108
vertex 0.214169 -0.104517 0.026352
vertex 0.223360 -0.079266 0.045000
endloop
endfacet
facet normal 0.939693 -0.342020 -0.000015
outer loop
vertex 0.214337 -0.104056 0.030108
vertex 0.223360 -0.079266 0.045000
vertex 0.223013 -0.080218 0.045000
endloop
endfacet
facet normal 0.939693 -0.342019 0.000001
outer loop
vertex 0.214169 -0.104517 0.026352
vertex 0.214197 -0.104439 0.022564
vertex 0.223638 -0.078502 0.045000
endloop
endfacet
facet normal 0.939677 -0.342062 -0.000012
outer loop
vertex 0.214169 -0.104517 0.026352
vertex 0.223638 -0.078502 0.045000
vertex 0.223360 -0.079266 0.045000
endloop
endfacet
facet normal 0.939693 -0.342019 -0.000004
outer loop
vertex 0.217606 -0.095075 0.045000
vertex 0.216827 -0.097215 0.043149
vertex 0.218849 -0.091659 0.045000
endloop
endfacet
facet normal 0.939691 -0.342025 -0.000003
outer loop
vertex 0.216827 -0.097215 0.043149
vertex 0.215956 -0.099606 0.040343
vertex 0.219954 -0.088624 0.045000
endloop
endfacet
facet normal 0.939696 -0.342012 -0.000002
outer loop
vertex 0.216827 -0.097215 0.043149
vertex 0.219954 -0.088624 0.045000
vertex 0.218849 -0.091659 0.045000
endloop
endfacet
facet normal 0.939694 -0.342017 0.000003
outer loop
vertex 0.215956 -0.099606 0.040343
vertex 0.215241 -0.101572 0.037185
vertex 0.220704 -0.086561 0.045000
endloop
endfacet
facet normal 0.939695 -0.342013 -0.000006
outer loop
vertex 0.215956 -0.099606 0.040343
vertex 0.220704 -0.086561 0.045000
vertex 0.219954 -0.088624 0.045000
endloop
endfacet
facet normal 0.939693 -0.342019 0.000000
outer loop
vertex 0.215241 -0.101572 0.037185
vertex 0.214697 -0.103066 0.033747
vertex 0.221253 -0.085053 0.045000
endloop
endfacet
facet normal 0.939695 -0.342015 0.000001
outer loop
vertex 0.215241 -0.101572 0.037185
vertex 0.221253 -0.085053 0.045000
vertex 0.220704 -0.086561 0.045000
endloop
endfacet
facet normal 0.939696 -0.342011 0.000000
outer loop
vertex 0.214697 -0.103066 0.033747
vertex 0.214337 -0.104056 0.030108
vertex 0.221676 -0.083891 0.045000
endloop
endfacet
facet normal 0.939680 -0.342055 0.000007
outer loop
vertex 0.214697 -0.103066 0.033747
vertex 0.221676 -0.083891 0.045000
vertex 0.221253 -0.085053 0.045000
endloop
endfacet
facet normal 0.939694 -0.342016 -0.000003
outer loop
vertex 0.214197 -0.104439 0.022564
vertex 0.214421 -0.103825 0.018833
vertex 0.223868 -0.077869 0.045000
endloop
endfacet
facet normal 0.939685 -0.342040 0.000019
outer loop
vertex 0.214197 -0.104439 0.022564
vertex 0.223868 -0.077869 0.045000
vertex 0.223638 -0.078502 0.045000
endloop
endfacet
facet normal 0.939691 -0.342025 0.000001
outer loop
vertex 0.214421 -0.103825 0.018833
vertex 0.214835 -0.102688 0.015243
vertex 0.224064 -0.077330 0.045000
endloop
endfacet
facet normal 0.939703 -0.341993 -0.000009
outer loop
vertex 0.214421 -0.103825 0.018833
vertex 0.224064 -0.077330 0.045000
vertex 0.223868 -0.077869 0.045000
endloop
endfacet
facet normal 0.939695 -0.342013 -0.000002
outer loop
vertex 0.214835 -0.102688 0.015243
vertex 0.215429 -0.101055 0.011878
vertex 0.224235 -0.076860 0.045000
endloop
endfacet
facet normal 0.939702 -0.341996 -0.000000
outer loop
vertex 0.214835 -0.102688 0.015243
vertex 0.224235 -0.076860 0.045000
vertex 0.224064 -0.077330 0.045000
endloop
endfacet
facet normal 0.939696 -0.342009 0.000002
outer loop
vertex 0.215429 -0.101055 0.011878
vertex 0.216191 -0.098962 0.008813
vertex 0.224387 -0.076443 0.045000
endloop
endfacet
facet normal 0.939673 -0.342073 -0.000003
outer loop
vertex 0.215429 -0.101055 0.011878
vertex 0.224387 -0.076443 0.045000
vertex 0.224235 -0.076860 0.045000
endloop
endfacet
facet normal 0.939692 -0.342022 0.000001
outer loop
vertex 0.216191 -0.098962 0.008813
vertex 0.217102 -0.096458 0.006120
vertex 0.224525 -0.076065 0.045000
endloop
endfacet
facet normal 0.939658 -0.342116 0.000008
outer loop
vertex 0.216191 -0.098962 0.008813
vertex 0.224525 -0.076065 0.045000
vertex 0.224387 -0.076443 0.045000
endloop
endfacet
facet normal 0.939688 -0.342033 0.000001
outer loop
vertex 0.217102 -0.096458 0.006120
vertex 0.218142 -0.093601 0.003861
vertex 0.224651 -0.075719 0.045000
endloop
endfacet
facet normal 0.939714 -0.341962 0.000003
outer loop
vertex 0.217102 -0.096458 0.006120
vertex 0.224651 -0.075719 0.045000
vertex 0.224525 -0.076065 0.045000
endloop
endfacet
facet normal 0.939695 -0.342014 -0.000001
outer loop
vertex 0.218142 -0.093601 0.003861
vertex 0.219287 -0.090456 0.002087
vertex 0.224768 -0.075396 0.045000
endloop
endfacet
facet normal 0.939662 -0.342104 0.000001
outer loop
vertex 0.218142 -0.093601 0.003861
vertex 0.224768 -0.075396 0.045000
vertex 0.224651 -0.075719 0.045000
endloop
endfacet
facet normal 0.000000 0.000000 1.000000
outer loop
vertex 0.227479 -0.067947 0.045000
vertex 0.227809 -0.067042 0.045000
vertex 0.200250 -0.056969 0.045000
endloop
endfacet
facet normal -1.000000 0.000000 0.000000
outer loop
vertex 0.153560 -0.040058 0.045000
vertex 0.109048 -0.023857 0.045000
vertex 0.079324 -0.013039 0.045000
endloop
endfacet
facet normal 0.000002 0.000000 1.000000
outer loop
vertex 0.227479 -0.067947 0.045000
vertex 0.200250 -0.056969 0.045000
vertex 0.153560 -0.040058 0.045000
endloop
endfacet
facet normal -0.707107 0.000000 0.707107
outer loop
vertex 0.224651 -0.075719 0.045000
vertex 0.224768 -0.075396 0.045000
vertex 0.226076 -0.071802 0.045000
endloop
endfacet
facet normal 0.000000 0.000000 1.000000
outer loop
vertex 0.226076 -0.071802 0.045000
vertex 0.227479 -0.067947 0.045000
vertex 0.153560 -0.040058 0.045000
endloop
endfacet
facet normal -0.894427 0.000000 0.447214
outer loop
vertex 0.079324 -0.013039 0.045000
vertex 0.034812 0.003162 0.045000
vertex 0.005089 0.013981 0.045000
endloop
endfacet
facet normal 0.000001 0.000000 1.000000
outer loop
vertex 0.226076 -0.071802 0.045000
vertex 0.153560 -0.040058 0.045000
vertex 0.079324 -0.013039 0.045000
endloop
endfacet
facet normal 0.000000 0.000000 0.000000
outer loop
vertex 0.224525 -0.076065 0.045000
vertex 0.224651 -0.075719 0.045000
vertex 0.226076 -0.071802 0.045000
endloop
endfacet
facet normal -0.894427 0.000000 0.447214
outer loop
vertex 0.224064 -0.077330 0.045000
vertex 0.224235 -0.076860 0.045000
vertex 0.224387 -0.076443 0.045000
endloop
endfacet
facet normal 0.000000 0.000000 0.000000
outer loop
vertex 0.224387 -0.076443 0.045000
vertex 0.224525 -0.076065 0.045000
vertex 0.226076 -0.071802 0.045000
endloop
endfacet
facet normal -0.000001 0.000000 1.000000
outer loop
vertex 0.226076 -0.071802 0.045000
vertex 0.079324 -0.013039 0.045000
vertex 0.005089 0.013981 0.045000
endloop
endfacet
facet normal -1.000000 0.000000 0.000000
outer loop
vertex 0.005089 0.013981 0.045000
vertex -0.039424 0.030182 0.045000
vertex -0.069147 0.041000 0.045000
endloop
endfacet
facet normal -0.242536 0.000000 0.970143
outer loop
vertex -0.069147 0.041000 0.045000
vertex -0.113659 0.057201 0.045000
vertex -0.143383 0.068020 0.045000
endloop
endfacet
facet normal 0.000014 0.000000 1.000000
outer loop
vertex -0.143383 0.068020 0.045000
vertex -0.190020 0.085077 0.045000
vertex -0.217606 0.095075 0.045000
endloop
endfacet
facet normal -0.000001 0.000000 1.000000
outer loop
vertex -0.143383 0.068020 0.045000
vertex -0.217606 0.095075 0.045000
vertex -0.217935 0.094170 0.045000
endloop
endfacet
facet normal 0.000001 0.000000 1.000000
outer loop
vertex 0.226076 -0.071802 0.045000
vertex 0.005089 0.013981 0.045000
vertex -0.069147 0.041000 0.045000
endloop
endfacet
facet normal 0.000000 0.000000 1.000000
outer loop
vertex -0.069147 0.041000 0.045000
vertex -0.143383 0.068020 0.045000
vertex -0.217935 0.094170 0.045000
endloop
endfacet
facet normal 0.780869 0.000000 0.624695
outer loop
vertex -0.219338 0.090315 0.045000
vertex -0.220646 0.086722 0.045000
vertex -0.220763 0.086399 0.045000
endloop
endfacet
facet normal 0.000000 0.000000 1.000000
outer loop
vertex -0.069147 0.041000 0.045000
vertex -0.217935 0.094170 0.045000
vertex -0.219338 0.090315 0.045000
endloop
endfacet
facet normal 0.000000 0.000000 1.000000
outer loop
vertex 0.224387 -0.076443 0.045000
vertex 0.226076 -0.071802 0.045000
vertex -0.069147 0.041000 0.045000
endloop
endfacet
facet normal -0.242536 0.000000 0.970143
outer loop
vertex 0.223638 -0.078502 0.045000
vertex 0.223868 -0.077869 0.045000
vertex 0.224064 -0.077330 0.045000
endloop
endfacet
facet normal 0.000003 0.000000 1.000000
outer loop
vertex 0.224064 -0.077330 0.045000
vertex 0.224387 -0.076443 0.045000
vertex -0.069147 0.041000 0.045000
endloop
endfacet
facet normal -0.000000 0.000000 1.000000
outer loop
vertex -0.069147 0.041000 0.045000
vertex -0.219338 0.090315 0.045000
vertex -0.220763 0.086399 0.045000
endloop
endfacet
facet normal -0.894427 0.000000 0.447214
outer loop
vertex -0.220763 0.086399 0.045000
vertex -0.220890 0.086052 0.045000
vertex -0.221027 0.085675 0.045000
endloop
endfacet
facet normal 0.000000 0.000000 1.000000
outer loop
vertex -0.220763 0.086399 0.045000
vertex -0.221027 0.085675 0.045000
vertex -0.221179 0.085258 0.045000
endloop
endfacet
facet normal 0.000000 0.000000 1.000000
outer loop
vertex 0.224064 -0.077330 0.045000
vertex -0.069147 0.041000 0.045000
vertex -0.220763 0.086399 0.045000
endloop
endfacet
facet normal 1.000000 0.000000 0.000000
outer loop
vertex 0.223013 -0.080218 0.045000
vertex 0.223360 -0.079266 0.045000
vertex 0.223638 -0.078502 0.045000
endloop
endfacet
facet normal 0.000000 0.000000 1.000000
outer loop
vertex 0.223638 -0.078502 0.045000
vertex 0.224064 -0.077330 0.045000
vertex -0.220763 0.086399 0.045000
endloop
endfacet
facet normal 0.894427 0.000000 0.447214
outer loop
vertex -0.220763 0.086399 0.045000
vertex -0.221179 0.085258 0.045000
vertex -0.221350 0.084788 0.045000
endloop
endfacet
facet normal 0.447214 0.000000 0.894427
outer loop
vertex -0.221350 0.084788 0.045000
vertex -0.221546 0.084249 0.045000
vertex -0.221777 0.083615 0.045000
endloop
endfacet
facet normal 0.316228 0.000000 0.948683
outer loop
vertex -0.221350 0.084788 0.045000
vertex -0.221777 0.083615 0.045000
vertex -0.222055 0.082852 0.045000
endloop
endfacet
facet normal -0.000001 0.000000 1.000000
outer loop
vertex 0.223638 -0.078502 0.045000
vertex -0.220763 0.086399 0.045000
vertex -0.221350 0.084788 0.045000
endloop
endfacet
facet normal 0.000000 0.000000 1.000000
outer loop
vertex 0.221676 -0.083891 0.045000
vertex 0.223013 -0.080218 0.045000
vertex 0.223638 -0.078502 0.045000
endloop
endfacet
facet normal 0.707107 0.000000 0.707107
outer loop
vertex 0.219954 -0.088624 0.045000
vertex 0.220704 -0.086561 0.045000
vertex 0.221253 -0.085053 0.045000
endloop
endfacet
facet normal 0.447214 0.000000 0.894427
outer loop
vertex 0.221253 -0.085053 0.045000
vertex 0.221676 -0.083891 0.045000
vertex 0.223638 -0.078502 0.045000
endloop
endfacet
facet normal 0.000000 0.000000 1.000000
outer loop
vertex 0.223638 -0.078502 0.045000
vertex -0.221350 0.084788 0.045000
vertex -0.222055 0.082852 0.045000
endloop
endfacet
facet normal 0.000001 0.000000 1.000000
outer loop
vertex 0.223638 -0.078502 0.045000
vertex -0.222055 0.082852 0.045000
vertex -0.222401 0.081900 0.045000
endloop
endfacet
facet normal 0.000000 0.000000 1.000000
outer loop
vertex 0.221253 -0.085053 0.045000
vertex 0.223638 -0.078502 0.045000
vertex -0.222401 0.081900 0.045000
endloop
endfacet
facet normal 0.000000 0.000000 1.000000
outer loop
vertex -0.223738 0.078227 0.045000
vertex -0.224161 0.077064 0.045000
vertex -0.224710 0.075556 0.045000
endloop
endfacet
facet normal -0.000000 0.000000 1.000000
outer loop
vertex 0.221253 -0.085053 0.045000
vertex -0.222401 0.081900 0.045000
vertex -0.223738 0.078227 0.045000
endloop
endfacet
facet normal 0.000000 0.000000 1.000000
outer loop
vertex 0.217606 -0.095075 0.045000
vertex 0.218849 -0.091659 0.045000
vertex 0.219954 -0.088624 0.045000
endloop
endfacet
facet normal 0.000000 0.000000 1.000000
outer loop
vertex 0.219954 -0.088624 0.045000
vertex 0.221253 -0.085053 0.045000
vertex -0.223738 0.078227 0.045000
endloop
endfacet
facet normal -1.000000 0.000000 0.000000
outer loop
vertex -0.223738 0.078227 0.045000
vertex -0.224710 0.075556 0.045000
vertex -0.225461 0.073493 0.045000
endloop
endfacet
facet normal 0.000000 0.000000 1.000000
outer loop
vertex -0.226565 0.070459 0.045000
vertex -0.227809 0.067042 0.045000
vertex -0.200250 0.056970 0.045000
endloop
endfacet
facet normal 0.000000 0.000000 1.000000
outer loop
vertex -0.223738 0.078227 0.045000
vertex -0.225461 0.073493 0.045000
vertex -0.226565 0.070459 0.045000
endloop
endfacet
facet normal 0.000000 0.000000 1.000000
outer loop
vertex 0.217606 -0.095075 0.045000
vertex 0.219954 -0.088624 0.045000
vertex -0.223738 0.078227 0.045000
endloop
endfacet
facet normal -0.000014 0.000000 1.000000
outer loop
vertex 0.143383 -0.068020 0.045000
vertex 0.190020 -0.085077 0.045000
vertex 0.217606 -0.095075 0.045000
endloop
endfacet
facet normal 0.099504 0.000000 0.995037
outer loop
vertex 0.069147 -0.041000 0.045000
vertex 0.113659 -0.057201 0.045000
vertex 0.143383 -0.068020 0.045000
endloop
endfacet
facet normal 0.447214 0.000000 -0.894427
outer loop
vertex -0.005089 -0.013981 0.045000
vertex 0.039424 -0.030182 0.045000
vertex 0.069147 -0.041000 0.045000
endloop
endfacet
facet normal 0.894427 0.000000 0.447214
outer loop
vertex -0.079324 0.013039 0.045000
vertex -0.034812 -0.003162 0.045000
vertex -0.005089 -0.013981 0.045000
endloop
endfacet
facet normal 0.832050 0.000000 0.554700
outer loop
vertex -0.153560 0.040058 0.045000
vertex -0.109048 0.023857 0.045000
vertex -0.079324 0.013039 0.045000
endloop
endfacet
facet normal -0.000001 0.000000 1.000000
outer loop
vertex -0.226565 0.070459 0.045000
vertex -0.200250 0.056970 0.045000
vertex -0.153560 0.040058 0.045000
endloop
endfacet
facet normal 0.000000 0.000000 1.000000
outer loop
vertex 0.217606 -0.095075 0.045000
vertex -0.223738 0.078227 0.045000
vertex -0.226565 0.070459 0.045000
endloop
endfacet
facet normal 0.000000 0.000000 0.000000
outer loop
vertex -0.005089 -0.013981 0.045000
vertex 0.069147 -0.041000 0.045000
vertex 0.143383 -0.068020 0.045000
endloop
endfacet
facet normal -0.000003 0.000000 1.000000
outer loop
vertex 0.143383 -0.068020 0.045000
vertex 0.217606 -0.095075 0.045000
vertex -0.226565 0.070459 0.045000
endloop
endfacet
facet normal -0.000001 0.000000 1.000000
outer loop
vertex -0.226565 0.070459 0.045000
vertex -0.153560 0.040058 0.045000
vertex -0.079324 0.013039 0.045000
endloop
endfacet
facet normal 0.000002 0.000000 1.000000
outer loop
vertex -0.005089 -0.013981 0.045000
vertex 0.143383 -0.068020 0.045000
vertex -0.226565 0.070459 0.045000
endloop
endfacet
facet normal 0.000001 0.000000 1.000000
outer loop
vertex -0.226565 0.070459 0.045000
vertex -0.079324 0.013039 0.045000
vertex -0.005089 -0.013981 0.045000
endloop
endfacet
solid cylinder
solid bottom
facet normal 0.000000 0.000000 -1.000000
outer loop
vertex -2.000000 0.3950000 0.000000
vertex 4.000000 0.3950000 0.000000
vertex 4.000000 -0.3950000 0.000000
endloop
endfacet
facet normal 0.000000 0.000000 -1.000000
outer loop
vertex -2.000000 0.3950000 0.000000
vertex 4.000000 -0.3950000 0.000000
vertex -2.000000 -0.3950000 0.000000
endloop
endfacet
endsolid bottom
solid frontAndBack
facet normal 0.000000 1.000000 0.000000
outer loop
vertex -2.000000 0.395000 0.000000
vertex -2.000000 0.395000 0.045000
vertex 4.000000 0.395000 0.045000
endloop
endfacet
facet normal 0.000000 1.000000 0.000000
outer loop
vertex -2.000000 0.395000 0.000000
vertex 4.000000 0.395000 0.045000
vertex 4.000000 0.395000 0.000000
endloop
endfacet
facet normal 0.000000 -1.000000 0.000000
outer loop
vertex 4.000000 -0.395000 0.000000
vertex 4.000000 -0.395000 0.045000
vertex -2.000000 -0.395000 0.045000
endloop
endfacet
facet normal 0.000000 -1.000000 0.000000
outer loop
vertex 4.000000 -0.395000 0.000000
vertex -2.000000 -0.395000 0.045000
vertex -2.000000 -0.395000 0.000000
endloop
endfacet
endsolid frontAndBack
solid outlet
facet normal 1.000000 0.000000 0.000000
outer loop
vertex 4.000000 0.395000 0.000000
vertex 4.000000 0.395000 0.045000
vertex 4.000000 -0.395000 0.045000
endloop
endfacet
facet normal 1.000000 0.000000 0.000000
outer loop
vertex 4.000000 0.395000 0.000000
vertex 4.000000 -0.395000 0.045000
vertex 4.000000 -0.395000 0.000000
endloop
endfacet
endsolid outlet
solid inlet
facet normal -1.000000 0.000000 0.000000
outer loop
vertex -2.000000 -0.395000 0.000000
vertex -2.000000 -0.395000 0.045000
vertex -2.000000 0.395000 0.045000
endloop
endfacet
facet normal -1.000000 0.000000 0.000000
outer loop
vertex -2.000000 -0.395000 0.000000
vertex -2.000000 0.395000 0.045000
vertex -2.000000 0.395000 0.000000
endloop
endfacet
endsolid inlet
solid top
facet normal 0.000000 0.000000 1.000000
outer loop
vertex 4.000000 0.395000 0.045000
vertex -2.000000 0.395000 0.045000
vertex -2.000000 -0.395000 0.045000
endloop
endfacet
facet normal 0.000000 0.000000 1.000000
outer loop
vertex 4.000000 0.395000 0.045000
vertex -2.000000 -0.395000 0.045000
vertex 4.000000 -0.395000 0.045000
endloop
endfacet
endsolid top
