solid cylinder
facet normal 0.000000 0.000000 -1.000000
outer loop
vertex 0.210248 -0.109840 0.000000
vertex 0.200248 -0.127160 0.000000
vertex -0.200248 0.127160 0.000000
endloop
endfacet
facet normal 0.000000 0.000000 -1.000000
outer loop
vertex -0.200248 0.127160 0.000000
vertex 0.200248 -0.127160 0.000000
vertex -0.210248 0.109840 0.000000
endloop
endfacet
facet normal 0.500000 0.866026 0.000000
outer loop
vertex 0.210248 -0.109840 0.002087
vertex 0.210248 -0.109840 0.000000
vertex -0.200248 0.127160 0.002087
endloop
endfacet
facet normal 0.500000 0.866025 0.000000
outer loop
vertex -0.200248 0.127160 0.002087
vertex 0.210248 -0.109840 0.000000
vertex -0.200248 0.127160 0.000000
endloop
endfacet
facet normal -0.234237 -0.405497 -0.883576
outer loop
vertex 0.198574 -0.130059 0.003861
vertex 0.130113 -0.090638 0.003919
vertex 0.200248 -0.127160 0.002087
endloop
endfacet
facet normal -0.235101 -0.407207 -0.882559
outer loop
vertex 0.200248 -0.127160 0.002087
vertex 0.130113 -0.090638 0.003919
vertex 0.061697 -0.051138 0.003919
endloop
endfacet
facet normal -0.235101 -0.407208 -0.882558
outer loop
vertex 0.200248 -0.127160 0.002087
vertex 0.061697 -0.051138 0.003919
vertex -0.006719 -0.011638 0.003919
endloop
endfacet
facet normal -0.300808 -0.521014 -0.798786
outer loop
vertex -0.006719 -0.011638 0.003919
vertex 0.061697 -0.051138 0.003919
vertex -0.008275 -0.014333 0.006263
endloop
endfacet
facet normal -0.300808 -0.521015 -0.798785
outer loop
vertex -0.006719 -0.011638 0.003919
vertex -0.008275 -0.014333 0.006263
vertex -0.076691 0.025167 0.006263
endloop
endfacet
facet normal -0.359210 -0.622170 -0.695610
outer loop
vertex -0.076691 0.025167 0.006263
vertex -0.008275 -0.014333 0.006263
vertex -0.078047 0.022820 0.009062
endloop
endfacet
facet normal -0.359210 -0.622170 -0.695610
outer loop
vertex -0.076691 0.025167 0.006263
vertex -0.078047 0.022820 0.009062
vertex -0.146463 0.062320 0.009062
endloop
endfacet
facet normal -0.408887 -0.708213 -0.575539
outer loop
vertex -0.146463 0.062320 0.009062
vertex -0.078047 0.022820 0.009062
vertex -0.147584 0.060378 0.012248
endloop
endfacet
facet normal -0.408559 -0.708404 -0.575537
outer loop
vertex -0.146463 0.062320 0.009062
vertex -0.147584 0.060378 0.012248
vertex -0.215888 0.100072 0.011878
endloop
endfacet
facet normal -0.444562 -0.769268 -0.458903
outer loop
vertex -0.215888 0.100072 0.011878
vertex -0.147584 0.060378 0.012248
vertex -0.216757 0.098566 0.015243
endloop
endfacet
facet normal -0.448234 -0.777284 -0.441493
outer loop
vertex -0.216757 0.098566 0.015243
vertex -0.147584 0.060378 0.012248
vertex -0.148444 0.058888 0.015744
endloop
endfacet
facet normal -0.474197 -0.820442 -0.319393
outer loop
vertex -0.216757 0.098566 0.015243
vertex -0.148444 0.058888 0.015744
vertex -0.217362 0.097518 0.018833
endloop
endfacet
facet normal -0.477019 -0.827291 -0.296720
outer loop
vertex -0.217362 0.097518 0.018833
vertex -0.148444 0.058888 0.015744
vertex -0.149022 0.057887 0.019465
endloop
endfacet
facet normal -0.492948 -0.852778 -0.172548
outer loop
vertex -0.217362 0.097518 0.018833
vertex -0.149022 0.057887 0.019465
vertex -0.217689 0.096952 0.022564
endloop
endfacet
facet normal -0.494212 -0.857207 -0.144742
outer loop
vertex -0.217689 0.096952 0.022564
vertex -0.149022 0.057887 0.019465
vertex -0.149304 0.057398 0.023320
endloop
endfacet
facet normal -0.500386 -0.865530 -0.021744
outer loop
vertex -0.217689 0.096952 0.022564
vertex -0.149304 0.057398 0.023320
vertex -0.217730 0.096881 0.026352
endloop
endfacet
facet normal -0.499395 -0.866308 0.010750
outer loop
vertex -0.217730 0.096881 0.026352
vertex -0.149304 0.057398 0.023320
vertex -0.149283 0.057435 0.027216
endloop
endfacet
facet normal -0.496341 -0.858405 0.129561
outer loop
vertex -0.217730 0.096881 0.026352
vertex -0.149283 0.057435 0.027216
vertex -0.217484 0.097306 0.030108
endloop
endfacet
facet normal -0.492439 -0.854373 0.165985
outer loop
vertex -0.217484 0.097306 0.030108
vertex -0.149283 0.057435 0.027216
vertex -0.148959 0.057995 0.031058
endloop
endfacet
facet normal -0.480909 -0.831568 0.277887
outer loop
vertex -0.217484 0.097306 0.030108
vertex -0.148959 0.057995 0.031058
vertex -0.216958 0.098218 0.033747
endloop
endfacet
facet normal -0.473512 -0.821692 0.317189
outer loop
vertex -0.216958 0.098218 0.033747
vertex -0.148959 0.057995 0.031058
vertex -0.148342 0.059065 0.034753
endloop
endfacet
facet normal -0.454443 -0.785634 0.419835
outer loop
vertex -0.216958 0.098218 0.033747
vertex -0.148342 0.059065 0.034753
vertex -0.216163 0.099595 0.037185
endloop
endfacet
facet normal -0.443074 -0.769061 0.460685
outer loop
vertex -0.216163 0.099595 0.037185
vertex -0.148342 0.059065 0.034753
vertex -0.147444 0.060619 0.038211
endloop
endfacet
facet normal -0.417555 -0.721656 0.552142
outer loop
vertex -0.216163 0.099595 0.037185
vertex -0.147444 0.060619 0.038211
vertex -0.215117 0.101406 0.040343
endloop
endfacet
facet normal -0.401863 -0.697759 0.592991
outer loop
vertex -0.215117 0.101406 0.040343
vertex -0.147444 0.060619 0.038211
vertex -0.146289 0.062620 0.041348
endloop
endfacet
facet normal -0.371085 -0.641099 0.671779
outer loop
vertex -0.215117 0.101406 0.040343
vertex -0.146289 0.062620 0.041348
vertex -0.213845 0.103610 0.043149
endloop
endfacet
facet normal -0.350878 -0.609515 0.710898
outer loop
vertex -0.213845 0.103610 0.043149
vertex -0.146289 0.062620 0.041348
vertex -0.144904 0.065019 0.044088
endloop
endfacet
facet normal -0.316110 -0.545821 0.775986
outer loop
vertex -0.213845 0.103610 0.043149
vertex -0.144904 0.065019 0.044088
vertex -0.212375 0.106156 0.045539
endloop
endfacet
facet normal -0.291357 -0.506476 0.811538
outer loop
vertex -0.212375 0.106156 0.045539
vertex -0.144904 0.065019 0.044088
vertex -0.143323 0.067757 0.046365
endloop
endfacet
facet normal -0.253888 -0.438001 0.862378
outer loop
vertex -0.212375 0.106156 0.045539
vertex -0.143323 0.067757 0.046365
vertex -0.210741 0.108985 0.047456
endloop
endfacet
facet normal -0.224746 -0.391143 0.892467
outer loop
vertex -0.210741 0.108985 0.047456
vertex -0.143323 0.067757 0.046365
vertex -0.141585 0.070768 0.048123
endloop
endfacet
facet normal -0.185850 -0.320119 0.928969
outer loop
vertex -0.210741 0.108985 0.047456
vertex -0.141585 0.070768 0.048123
vertex -0.208982 0.112033 0.048859
endloop
endfacet
facet normal -0.152662 -0.266320 0.951718
outer loop
vertex -0.208982 0.112033 0.048859
vertex -0.141585 0.070768 0.048123
vertex -0.139730 0.073980 0.049319
endloop
endfacet
facet normal -0.113555 -0.194878 0.974232
outer loop
vertex -0.208982 0.112033 0.048859
vertex -0.139730 0.073980 0.049319
vertex -0.207137 0.115229 0.049713
endloop
endfacet
facet normal -0.076855 -0.135035 0.987856
outer loop
vertex -0.207137 0.115229 0.049713
vertex -0.139730 0.073980 0.049319
vertex -0.137806 0.077313 0.049924
endloop
endfacet
facet normal -0.038669 -0.065159 0.997125
outer loop
vertex -0.207137 0.115229 0.049713
vertex -0.137806 0.077313 0.049924
vertex -0.205248 0.118500 0.050000
endloop
endfacet
facet normal 0.000833 -0.000481 1.000000
outer loop
vertex -0.205248 0.118500 0.050000
vertex -0.137806 0.077313 0.049924
vertex -0.135858 0.080687 0.049924
endloop
endfacet
facet normal 0.037096 0.066068 0.997125
outer loop
vertex -0.205248 0.118500 0.050000
vertex -0.135858 0.080687 0.049924
vertex -0.203359 0.121771 0.049713
endloop
endfacet
facet normal 0.078516 0.134076 0.987856
outer loop
vertex -0.203359 0.121771 0.049713
vertex -0.135858 0.080687 0.049924
vertex -0.133934 0.084020 0.049319
endloop
endfacet
facet normal 0.111993 0.195782 0.974231
outer loop
vertex -0.203359 0.121771 0.049713
vertex -0.133934 0.084020 0.049319
vertex -0.201514 0.124967 0.048859
endloop
endfacet
facet normal 0.154309 0.265370 0.951718
outer loop
vertex -0.201514 0.124967 0.048859
vertex -0.133934 0.084020 0.049319
vertex -0.132080 0.087232 0.048123
endloop
endfacet
facet normal 0.184305 0.321009 0.928970
outer loop
vertex -0.201514 0.124967 0.048859
vertex -0.132080 0.087232 0.048123
vertex -0.199755 0.128015 0.047456
endloop
endfacet
facet normal 0.226366 0.390207 0.892466
outer loop
vertex -0.199755 0.128015 0.047456
vertex -0.132080 0.087232 0.048123
vertex -0.130341 0.090243 0.046365
endloop
endfacet
facet normal 0.252376 0.438876 0.862377
outer loop
vertex -0.199755 0.128015 0.047456
vertex -0.130341 0.090243 0.046365
vertex -0.198121 0.130844 0.045539
endloop
endfacet
facet normal 0.292942 0.505562 0.811537
outer loop
vertex -0.198121 0.130844 0.045539
vertex -0.130341 0.090243 0.046365
vertex -0.128760 0.092981 0.044088
endloop
endfacet
facet normal 0.314640 0.546670 0.775986
outer loop
vertex -0.198121 0.130844 0.045539
vertex -0.128760 0.092981 0.044088
vertex -0.196651 0.133390 0.043149
endloop
endfacet
facet normal 0.352416 0.608626 0.710899
outer loop
vertex -0.196651 0.133390 0.043149
vertex -0.128760 0.092981 0.044088
vertex -0.127375 0.095380 0.041348
endloop
endfacet
facet normal 0.369666 0.641919 0.671779
outer loop
vertex -0.196651 0.133390 0.043149
vertex -0.127375 0.095380 0.041348
vertex -0.195379 0.135594 0.040343
endloop
endfacet
facet normal 0.403345 0.696906 0.592988
outer loop
vertex -0.195379 0.135594 0.040343
vertex -0.127375 0.095380 0.041348
vertex -0.126220 0.097381 0.038211
endloop
endfacet
facet normal 0.416195 0.722438 0.552146
outer loop
vertex -0.195379 0.135594 0.040343
vertex -0.126220 0.097381 0.038211
vertex -0.194333 0.137405 0.037185
endloop
endfacet
facet normal 0.444489 0.768244 0.460685
outer loop
vertex -0.194333 0.137405 0.037185
vertex -0.126220 0.097381 0.038211
vertex -0.125322 0.098935 0.034753
endloop
endfacet
facet normal 0.453157 0.786376 0.419835
outer loop
vertex -0.194333 0.137405 0.037185
vertex -0.125322 0.098935 0.034753
vertex -0.193538 0.138782 0.033747
endloop
endfacet
facet normal 0.474850 0.820920 0.317188
outer loop
vertex -0.193538 0.138782 0.033747
vertex -0.125322 0.098935 0.034753
vertex -0.124705 0.100005 0.031058
endloop
endfacet
facet normal 0.479704 0.832262 0.277893
outer loop
vertex -0.193538 0.138782 0.033747
vertex -0.124705 0.100005 0.031058
vertex -0.193012 0.139694 0.030108
endloop
endfacet
facet normal 0.493690 0.853651 0.165981
outer loop
vertex -0.193012 0.139694 0.030108
vertex -0.124705 0.100005 0.031058
vertex -0.124381 0.100565 0.027216
endloop
endfacet
facet normal 0.495230 0.859047 0.129561
outer loop
vertex -0.193012 0.139694 0.030108
vertex -0.124381 0.100565 0.027216
vertex -0.192766 0.140119 0.026352
endloop
endfacet
facet normal 0.500547 0.865642 0.010748
outer loop
vertex -0.192766 0.140119 0.026352
vertex -0.124381 0.100565 0.027216
vertex -0.124360 0.100602 0.023320
endloop
endfacet
facet normal 0.499378 0.866111 -0.021747
outer loop
vertex -0.192766 0.140119 0.026352
vertex -0.124360 0.100602 0.023320
vertex -0.192808 0.140048 0.022564
endloop
endfacet
facet normal 0.495257 0.856604 -0.144740
outer loop
vertex -0.192808 0.140048 0.022564
vertex -0.124360 0.100602 0.023320
vertex -0.124642 0.100113 0.019465
endloop
endfacet
facet normal 0.492053 0.853295 -0.172545
outer loop
vertex -0.192808 0.140048 0.022564
vertex -0.124642 0.100113 0.019465
vertex -0.193134 0.139482 0.018833
endloop
endfacet
facet normal 0.477945 0.826757 -0.296718
outer loop
vertex -0.193134 0.139482 0.018833
vertex -0.124642 0.100113 0.019465
vertex -0.125220 0.099112 0.015744
endloop
endfacet
facet normal 0.473425 0.820887 -0.319396
outer loop
vertex -0.193134 0.139482 0.018833
vertex -0.125220 0.099112 0.015744
vertex -0.193739 0.138434 0.015243
endloop
endfacet
facet normal 0.449032 0.776825 -0.441491
outer loop
vertex -0.193739 0.138434 0.015243
vertex -0.125220 0.099112 0.015744
vertex -0.126080 0.097622 0.012248
endloop
endfacet
facet normal 0.443925 0.769638 -0.458898
outer loop
vertex -0.193739 0.138434 0.015243
vertex -0.126080 0.097622 0.012248
vertex -0.194608 0.136928 0.011878
endloop
endfacet
facet normal 0.409216 0.708023 -0.575539
outer loop
vertex -0.194608 0.136928 0.011878
vertex -0.126080 0.097622 0.012248
vertex -0.127202 0.095681 0.009062
endloop
endfacet
facet normal 0.404226 0.700711 -0.587883
outer loop
vertex -0.194608 0.136928 0.011878
vertex -0.127202 0.095681 0.009062
vertex -0.195722 0.135000 0.008813
endloop
endfacet
facet normal 0.359465 0.622023 -0.695609
outer loop
vertex -0.195722 0.135000 0.008813
vertex -0.127202 0.095681 0.009062
vertex -0.128557 0.093333 0.006263
endloop
endfacet
facet normal 0.355250 0.615704 -0.703354
outer loop
vertex -0.195722 0.135000 0.008813
vertex -0.128557 0.093333 0.006263
vertex -0.197054 0.132692 0.006120
endloop
endfacet
facet normal 0.300983 0.520914 -0.798785
outer loop
vertex -0.197054 0.132692 0.006120
vertex -0.128557 0.093333 0.006263
vertex -0.130113 0.090638 0.003919
endloop
endfacet
facet normal 0.298118 0.516558 -0.802679
outer loop
vertex -0.197054 0.132692 0.006120
vertex -0.130113 0.090638 0.003919
vertex -0.198574 0.130059 0.003861
endloop
endfacet
facet normal 0.234237 0.405497 -0.883575
outer loop
vertex -0.198574 0.130059 0.003861
vertex -0.130113 0.090638 0.003919
vertex -0.200248 0.127160 0.002087
endloop
endfacet
facet normal 0.235101 0.407208 -0.882558
outer loop
vertex -0.200248 0.127160 0.002087
vertex -0.130113 0.090638 0.003919
vertex -0.061697 0.051138 0.003919
endloop
endfacet
facet normal 0.235101 0.407207 -0.882559
outer loop
vertex -0.200248 0.127160 0.002087
vertex -0.061697 0.051138 0.003919
vertex 0.006719 0.011638 0.003919
endloop
endfacet
facet normal 0.300808 0.521015 -0.798786
outer loop
vertex 0.006719 0.011638 0.003919
vertex -0.061697 0.051138 0.003919
vertex 0.008275 0.014333 0.006263
endloop
endfacet
facet normal 0.300808 0.521015 -0.798785
outer loop
vertex 0.006719 0.011638 0.003919
vertex 0.008275 0.014333 0.006263
vertex 0.076691 -0.025167 0.006263
endloop
endfacet
facet normal 0.359210 0.622170 -0.695610
outer loop
vertex 0.076691 -0.025167 0.006263
vertex 0.008275 0.014333 0.006263
vertex 0.078047 -0.022819 0.009062
endloop
endfacet
facet normal 0.359210 0.622170 -0.695609
outer loop
vertex 0.076691 -0.025167 0.006263
vertex 0.078047 -0.022819 0.009062
vertex 0.146463 -0.062319 0.009062
endloop
endfacet
facet normal 0.408887 0.708213 -0.575540
outer loop
vertex 0.146463 -0.062319 0.009062
vertex 0.078047 -0.022819 0.009062
vertex 0.147584 -0.060378 0.012248
endloop
endfacet
facet normal 0.408558 0.708403 -0.575539
outer loop
vertex 0.146463 -0.062319 0.009062
vertex 0.147584 -0.060378 0.012248
vertex 0.215888 -0.100072 0.011878
endloop
endfacet
facet normal 0.444562 0.769268 -0.458903
outer loop
vertex 0.215888 -0.100072 0.011878
vertex 0.147584 -0.060378 0.012248
vertex 0.216757 -0.098566 0.015243
endloop
endfacet
facet normal 0.448234 0.777284 -0.441493
outer loop
vertex 0.216757 -0.098566 0.015243
vertex 0.147584 -0.060378 0.012248
vertex 0.148444 -0.058888 0.015744
endloop
endfacet
facet normal 0.474196 0.820441 -0.319396
outer loop
vertex 0.216757 -0.098566 0.015243
vertex 0.148444 -0.058888 0.015744
vertex 0.217362 -0.097518 0.018833
endloop
endfacet
facet normal 0.477019 0.827291 -0.296717
outer loop
vertex 0.217362 -0.097518 0.018833
vertex 0.148444 -0.058888 0.015744
vertex 0.149022 -0.057887 0.019465
endloop
endfacet
facet normal 0.492948 0.852778 -0.172548
outer loop
vertex 0.217362 -0.097518 0.018833
vertex 0.149022 -0.057887 0.019465
vertex 0.217689 -0.096952 0.022564
endloop
endfacet
facet normal 0.494212 0.857206 -0.144745
outer loop
vertex 0.217689 -0.096952 0.022564
vertex 0.149022 -0.057887 0.019465
vertex 0.149304 -0.057398 0.023320
endloop
endfacet
facet normal 0.500386 0.865529 -0.021744
outer loop
vertex 0.217689 -0.096952 0.022564
vertex 0.149304 -0.057398 0.023320
vertex 0.217730 -0.096881 0.026352
endloop
endfacet
facet normal 0.499395 0.866308 0.010753
outer loop
vertex 0.217730 -0.096881 0.026352
vertex 0.149304 -0.057398 0.023320
vertex 0.149283 -0.057435 0.027216
endloop
endfacet
facet normal 0.496341 0.858406 0.129558
outer loop
vertex 0.217730 -0.096881 0.026352
vertex 0.149283 -0.057435 0.027216
vertex 0.217484 -0.097306 0.030108
endloop
endfacet
facet normal 0.492439 0.854372 0.165988
outer loop
vertex 0.217484 -0.097306 0.030108
vertex 0.149283 -0.057435 0.027216
vertex 0.148959 -0.057995 0.031058
endloop
endfacet
facet normal 0.480909 0.831569 0.277885
outer loop
vertex 0.217484 -0.097306 0.030108
vertex 0.148959 -0.057995 0.031058
vertex 0.216958 -0.098218 0.033747
endloop
endfacet
facet normal 0.473512 0.821691 0.317192
outer loop
vertex 0.216958 -0.098218 0.033747
vertex 0.148959 -0.057995 0.031058
vertex 0.148342 -0.059065 0.034753
endloop
endfacet
facet normal 0.454443 0.785635 0.419832
outer loop
vertex 0.216958 -0.098218 0.033747
vertex 0.148342 -0.059065 0.034753
vertex 0.216163 -0.099595 0.037185
endloop
endfacet
facet normal 0.443074 0.769061 0.460685
outer loop
vertex 0.216163 -0.099595 0.037185
vertex 0.148342 -0.059065 0.034753
vertex 0.147444 -0.060619 0.038211
endloop
endfacet
facet normal 0.417554 0.721655 0.552144
outer loop
vertex 0.216163 -0.099595 0.037185
vertex 0.147444 -0.060619 0.038211
vertex 0.215117 -0.101406 0.040343
endloop
endfacet
facet normal 0.401863 0.697759 0.592992
outer loop
vertex 0.215117 -0.101406 0.040343
vertex 0.147444 -0.060619 0.038211
vertex 0.146289 -0.062620 0.041348
endloop
endfacet
facet normal 0.371086 0.641101 0.671778
outer loop
vertex 0.215117 -0.101406 0.040343
vertex 0.146289 -0.062620 0.041348
vertex 0.213845 -0.103610 0.043149
endloop
endfacet
facet normal 0.350878 0.609515 0.710898
outer loop
vertex 0.213845 -0.103610 0.043149
vertex 0.146289 -0.062620 0.041348
vertex 0.144904 -0.065019 0.044088
endloop
endfacet
facet normal 0.316110 0.545821 0.775986
outer loop
vertex 0.213845 -0.103610 0.043149
vertex 0.144904 -0.065019 0.044088
vertex 0.212375 -0.106156 0.045539
endloop
endfacet
facet normal 0.291357 0.506476 0.811538
outer loop
vertex 0.212375 -0.106156 0.045539
vertex 0.144904 -0.065019 0.044088
vertex 0.143323 -0.067757 0.046365
endloop
endfacet
facet normal 0.253888 0.438001 0.862378
outer loop
vertex 0.212375 -0.106156 0.045539
vertex 0.143323 -0.067757 0.046365
vertex 0.210741 -0.108985 0.047456
endloop
endfacet
facet normal 0.224746 0.391143 0.892467
outer loop
vertex 0.210741 -0.108985 0.047456
vertex 0.143323 -0.067757 0.046365
vertex 0.141585 -0.070768 0.048123
endloop
endfacet
facet normal 0.185851 0.320119 0.928969
outer loop
vertex 0.210741 -0.108985 0.047456
vertex 0.141585 -0.070768 0.048123
vertex 0.208982 -0.112033 0.048859
endloop
endfacet
facet normal 0.152662 0.266320 0.951718
outer loop
vertex 0.208982 -0.112033 0.048859
vertex 0.141585 -0.070768 0.048123
vertex 0.139730 -0.073980 0.049319
endloop
endfacet
facet normal 0.113556 0.194880 0.974232
outer loop
vertex 0.208982 -0.112033 0.048859
vertex 0.139730 -0.073980 0.049319
vertex 0.207137 -0.115229 0.049713
endloop
endfacet
facet normal 0.076855 0.135035 0.987856
outer loop
vertex 0.207137 -0.115229 0.049713
vertex 0.139730 -0.073980 0.049319
vertex 0.137806 -0.077313 0.049924
endloop
endfacet
facet normal 0.038669 0.065159 0.997125
outer loop
vertex 0.207137 -0.115229 0.049713
vertex 0.137806 -0.077313 0.049924
vertex 0.205248 -0.118500 0.050000
endloop
endfacet
facet normal -0.000833 0.000481 1.000000
outer loop
vertex 0.205248 -0.118500 0.050000
vertex 0.137806 -0.077313 0.049924
vertex 0.135858 -0.080687 0.049924
endloop
endfacet
facet normal -0.037096 -0.066068 0.997125
outer loop
vertex 0.205248 -0.118500 0.050000
vertex 0.135858 -0.080687 0.049924
vertex 0.203359 -0.121771 0.049713
endloop
endfacet
facet normal -0.078516 -0.134076 0.987856
outer loop
vertex 0.203359 -0.121771 0.049713
vertex 0.135858 -0.080687 0.049924
vertex 0.133934 -0.084020 0.049319
endloop
endfacet
facet normal -0.111993 -0.195782 0.974232
outer loop
vertex 0.203359 -0.121771 0.049713
vertex 0.133934 -0.084020 0.049319
vertex 0.201514 -0.124967 0.048859
endloop
endfacet
facet normal -0.154307 -0.265369 0.951719
outer loop
vertex 0.201514 -0.124967 0.048859
vertex 0.133934 -0.084020 0.049319
vertex 0.132080 -0.087232 0.048123
endloop
endfacet
facet normal -0.184307 -0.321011 0.928969
outer loop
vertex 0.201514 -0.124967 0.048859
vertex 0.132080 -0.087232 0.048123
vertex 0.199755 -0.128015 0.047456
endloop
endfacet
facet normal -0.226366 -0.390207 0.892467
outer loop
vertex 0.199755 -0.128015 0.047456
vertex 0.132080 -0.087232 0.048123
vertex 0.130341 -0.090243 0.046365
endloop
endfacet
facet normal -0.252376 -0.438875 0.862378
outer loop
vertex 0.199755 -0.128015 0.047456
vertex 0.130341 -0.090243 0.046365
vertex 0.198121 -0.130844 0.045539
endloop
endfacet
facet normal -0.292943 -0.505563 0.811536
outer loop
vertex 0.198121 -0.130844 0.045539
vertex 0.130341 -0.090243 0.046365
vertex 0.128760 -0.092981 0.044088
endloop
endfacet
facet normal -0.314639 -0.546668 0.775987
outer loop
vertex 0.198121 -0.130844 0.045539
vertex 0.128760 -0.092981 0.044088
vertex 0.196651 -0.133390 0.043149
endloop
endfacet
facet normal -0.352417 -0.608628 0.710897
outer loop
vertex 0.196651 -0.133390 0.043149
vertex 0.128760 -0.092981 0.044088
vertex 0.127375 -0.095380 0.041348
endloop
endfacet
facet normal -0.369667 -0.641920 0.671778
outer loop
vertex 0.196651 -0.133390 0.043149
vertex 0.127375 -0.095380 0.041348
vertex 0.195379 -0.135594 0.040343
endloop
endfacet
facet normal -0.403344 -0.696903 0.592992
outer loop
vertex 0.195379 -0.135594 0.040343
vertex 0.127375 -0.095380 0.041348
vertex 0.126220 -0.097381 0.038211
endloop
endfacet
facet normal -0.416195 -0.722438 0.552146
outer loop
vertex 0.195379 -0.135594 0.040343
vertex 0.126220 -0.097381 0.038211
vertex 0.194333 -0.137405 0.037185
endloop
endfacet
facet normal -0.444490 -0.768246 0.460681
outer loop
vertex 0.194333 -0.137405 0.037185
vertex 0.126220 -0.097381 0.038211
vertex 0.125322 -0.098935 0.034753
endloop
endfacet
facet normal -0.453157 -0.786376 0.419835
outer loop
vertex 0.194333 -0.137405 0.037185
vertex 0.125322 -0.098935 0.034753
vertex 0.193538 -0.138782 0.033747
endloop
endfacet
facet normal -0.474849 -0.820919 0.317193
outer loop
vertex 0.193538 -0.138782 0.033747
vertex 0.125322 -0.098935 0.034753
vertex 0.124705 -0.100005 0.031058
endloop
endfacet
facet normal -0.479704 -0.832262 0.277893
outer loop
vertex 0.193538 -0.138782 0.033747
vertex 0.124705 -0.100005 0.031058
vertex 0.193012 -0.139694 0.030108
endloop
endfacet
facet normal -0.493690 -0.853651 0.165982
outer loop
vertex 0.193012 -0.139694 0.030108
vertex 0.124705 -0.100005 0.031058
vertex 0.124381 -0.100565 0.027216
endloop
endfacet
facet normal -0.495230 -0.859047 0.129561
outer loop
vertex 0.193012 -0.139694 0.030108
vertex 0.124381 -0.100565 0.027216
vertex 0.192766 -0.140119 0.026352
endloop
endfacet
facet normal -0.500548 -0.865642 0.010748
outer loop
vertex 0.192766 -0.140119 0.026352
vertex 0.124381 -0.100565 0.027216
vertex 0.124360 -0.100602 0.023320
endloop
endfacet
facet normal -0.499378 -0.866111 -0.021747
outer loop
vertex 0.192766 -0.140119 0.026352
vertex 0.124360 -0.100602 0.023320
vertex 0.192808 -0.140048 0.022564
endloop
endfacet
facet normal -0.495257 -0.856605 -0.144740
outer loop
vertex 0.192808 -0.140048 0.022564
vertex 0.124360 -0.100602 0.023320
vertex 0.124642 -0.100113 0.019465
endloop
endfacet
facet normal -0.492053 -0.853295 -0.172545
outer loop
vertex 0.192808 -0.140048 0.022564
vertex 0.124642 -0.100113 0.019465
vertex 0.193134 -0.139482 0.018833
endloop
endfacet
facet normal -0.477945 -0.826757 -0.296718
outer loop
vertex 0.193134 -0.139482 0.018833
vertex 0.124642 -0.100113 0.019465
vertex 0.125220 -0.099112 0.015744
endloop
endfacet
facet normal -0.473425 -0.820887 -0.319396
outer loop
vertex 0.193134 -0.139482 0.018833
vertex 0.125220 -0.099112 0.015744
vertex 0.193739 -0.138434 0.015243
endloop
endfacet
facet normal -0.449031 -0.776825 -0.441491
outer loop
vertex 0.193739 -0.138434 0.015243
vertex 0.125220 -0.099112 0.015744
vertex 0.126080 -0.097622 0.012248
endloop
endfacet
facet normal -0.443924 -0.769636 -0.458903
outer loop
vertex 0.193739 -0.138434 0.015243
vertex 0.126080 -0.097622 0.012248
vertex 0.194608 -0.136928 0.011878
endloop
endfacet
facet normal -0.409218 -0.708025 -0.575535
outer loop
vertex 0.194608 -0.136928 0.011878
vertex 0.126080 -0.097622 0.012248
vertex 0.127202 -0.095680 0.009062
endloop
endfacet
facet normal -0.404225 -0.700708 -0.587887
outer loop
vertex 0.194608 -0.136928 0.011878
vertex 0.127202 -0.095680 0.009062
vertex 0.195722 -0.135000 0.008813
endloop
endfacet
facet normal -0.359465 -0.622025 -0.695608
outer loop
vertex 0.195722 -0.135000 0.008813
vertex 0.127202 -0.095680 0.009062
vertex 0.128557 -0.093333 0.006263
endloop
endfacet
facet normal -0.355252 -0.615706 -0.703351
outer loop
vertex 0.195722 -0.135000 0.008813
vertex 0.128557 -0.093333 0.006263
vertex 0.197054 -0.132692 0.006120
endloop
endfacet
facet normal -0.300983 -0.520914 -0.798785
outer loop
vertex 0.197054 -0.132692 0.006120
vertex 0.128557 -0.093333 0.006263
vertex 0.130113 -0.090638 0.003919
endloop
endfacet
facet normal -0.298118 -0.516557 -0.802679
outer loop
vertex 0.197054 -0.132692 0.006120
vertex 0.130113 -0.090638 0.003919
vertex 0.198574 -0.130059 0.003861
endloop
endfacet
facet normal 0.404722 0.700429 -0.587876
outer loop
vertex 0.215888 -0.100072 0.011878
vertex 0.214774 -0.102000 0.008813
vertex 0.146463 -0.062319 0.009062
endloop
endfacet
facet normal 0.358956 0.622319 -0.695608
outer loop
vertex 0.146463 -0.062319 0.009062
vertex 0.214774 -0.102000 0.008813
vertex 0.145107 -0.064667 0.006263
endloop
endfacet
facet normal 0.359210 0.622170 -0.695610
outer loop
vertex 0.146463 -0.062319 0.009062
vertex 0.145107 -0.064667 0.006263
vertex 0.076691 -0.025167 0.006263
endloop
endfacet
facet normal 0.300808 0.521015 -0.798786
outer loop
vertex 0.076691 -0.025167 0.006263
vertex 0.145107 -0.064667 0.006263
vertex 0.075135 -0.027862 0.003919
endloop
endfacet
facet normal 0.300808 0.521015 -0.798785
outer loop
vertex 0.076691 -0.025167 0.006263
vertex 0.075135 -0.027862 0.003919
vertex 0.006719 0.011638 0.003919
endloop
endfacet
facet normal 0.235100 0.407204 -0.882560
outer loop
vertex 0.006719 0.011638 0.003919
vertex 0.075135 -0.027862 0.003919
vertex -0.200248 0.127160 0.002087
endloop
endfacet
facet normal 0.355590 0.615508 -0.703354
outer loop
vertex 0.214774 -0.102000 0.008813
vertex 0.213442 -0.104308 0.006120
vertex 0.145107 -0.064667 0.006263
endloop
endfacet
facet normal 0.300633 0.521116 -0.798786
outer loop
vertex 0.145107 -0.064667 0.006263
vertex 0.213442 -0.104308 0.006120
vertex 0.143551 -0.067362 0.003919
endloop
endfacet
facet normal 0.300808 0.521015 -0.798786
outer loop
vertex 0.145107 -0.064667 0.006263
vertex 0.143551 -0.067362 0.003919
vertex 0.075135 -0.027862 0.003919
endloop
endfacet
facet normal 0.235101 0.407207 -0.882559
outer loop
vertex 0.075135 -0.027862 0.003919
vertex 0.143551 -0.067362 0.003919
vertex -0.200248 0.127160 0.002087
endloop
endfacet
facet normal 0.298293 0.516457 -0.802679
outer loop
vertex 0.213442 -0.104308 0.006120
vertex 0.211922 -0.106941 0.003861
vertex 0.143551 -0.067362 0.003919
endloop
endfacet
facet normal 0.239094 0.414306 -0.878171
outer loop
vertex 0.143551 -0.067362 0.003919
vertex 0.211922 -0.106941 0.003861
vertex -0.200248 0.127160 0.002087
endloop
endfacet
facet normal 0.234144 0.405549 -0.883576
outer loop
vertex 0.211922 -0.106941 0.003861
vertex 0.210248 -0.109840 0.002087
vertex -0.200248 0.127160 0.002087
endloop
endfacet
facet normal -0.404722 -0.700429 -0.587876
outer loop
vertex -0.215888 0.100072 0.011878
vertex -0.214774 0.102000 0.008813
vertex -0.146463 0.062320 0.009062
endloop
endfacet
facet normal -0.358956 -0.622317 -0.695609
outer loop
vertex -0.146463 0.062320 0.009062
vertex -0.214774 0.102000 0.008813
vertex -0.145107 0.064667 0.006263
endloop
endfacet
facet normal -0.359210 -0.622170 -0.695610
outer loop
vertex -0.146463 0.062320 0.009062
vertex -0.145107 0.064667 0.006263
vertex -0.076691 0.025167 0.006263
endloop
endfacet
facet normal -0.300808 -0.521014 -0.798786
outer loop
vertex -0.076691 0.025167 0.006263
vertex -0.145107 0.064667 0.006263
vertex -0.075135 0.027862 0.003919
endloop
endfacet
facet normal -0.300808 -0.521015 -0.798785
outer loop
vertex -0.076691 0.025167 0.006263
vertex -0.075135 0.027862 0.003919
vertex -0.006719 -0.011638 0.003919
endloop
endfacet
facet normal -0.235100 -0.407205 -0.882560
outer loop
vertex -0.006719 -0.011638 0.003919
vertex -0.075135 0.027862 0.003919
vertex 0.200248 -0.127160 0.002087
endloop
endfacet
facet normal -0.355590 -0.615508 -0.703354
outer loop
vertex -0.214774 0.102000 0.008813
vertex -0.213442 0.104308 0.006120
vertex -0.145107 0.064667 0.006263
endloop
endfacet
facet normal -0.300633 -0.521115 -0.798786
outer loop
vertex -0.145107 0.064667 0.006263
vertex -0.213442 0.104308 0.006120
vertex -0.143551 0.067362 0.003919
endloop
endfacet
facet normal -0.300808 -0.521014 -0.798786
outer loop
vertex -0.145107 0.064667 0.006263
vertex -0.143551 0.067362 0.003919
vertex -0.075135 0.027862 0.003919
endloop
endfacet
facet normal -0.235101 -0.407207 -0.882559
outer loop
vertex -0.075135 0.027862 0.003919
vertex -0.143551 0.067362 0.003919
vertex 0.200248 -0.127160 0.002087
endloop
endfacet
facet normal -0.298293 -0.516457 -0.802679
outer loop
vertex -0.213442 0.104308 0.006120
vertex -0.211922 0.106941 0.003861
vertex -0.143551 0.067362 0.003919
endloop
endfacet
facet normal -0.239096 -0.414309 -0.878170
outer loop
vertex -0.143551 0.067362 0.003919
vertex -0.211922 0.106941 0.003861
vertex 0.200248 -0.127160 0.002087
endloop
endfacet
facet normal -0.234144 -0.405549 -0.883576
outer loop
vertex -0.211922 0.106941 0.003861
vertex -0.210248 0.109840 0.002087
vertex 0.200248 -0.127160 0.002087
endloop
endfacet
facet normal -0.300807 -0.521013 -0.798787
outer loop
vertex 0.061697 -0.051138 0.003919
vertex 0.130113 -0.090638 0.003919
vertex 0.060141 -0.053833 0.006263
endloop
endfacet
facet normal -0.300808 -0.521015 -0.798785
outer loop
vertex 0.060141 -0.053833 0.006263
vertex 0.130113 -0.090638 0.003919
vertex 0.128557 -0.093333 0.006263
endloop
endfacet
facet normal -0.359210 -0.622169 -0.695610
outer loop
vertex 0.060141 -0.053833 0.006263
vertex 0.128557 -0.093333 0.006263
vertex 0.058786 -0.056180 0.009062
endloop
endfacet
facet normal -0.359211 -0.622171 -0.695608
outer loop
vertex 0.058786 -0.056180 0.009062
vertex 0.128557 -0.093333 0.006263
vertex 0.127202 -0.095680 0.009062
endloop
endfacet
facet normal -0.408887 -0.708213 -0.575539
outer loop
vertex 0.058786 -0.056180 0.009062
vertex 0.127202 -0.095680 0.009062
vertex 0.057664 -0.058122 0.012248
endloop
endfacet
facet normal -0.408886 -0.708212 -0.575541
outer loop
vertex 0.057664 -0.058122 0.012248
vertex 0.127202 -0.095680 0.009062
vertex 0.126080 -0.097622 0.012248
endloop
endfacet
facet normal -0.448633 -0.777055 -0.441491
outer loop
vertex 0.057664 -0.058122 0.012248
vertex 0.126080 -0.097622 0.012248
vertex 0.056804 -0.059612 0.015744
endloop
endfacet
facet normal -0.448633 -0.777055 -0.441491
outer loop
vertex 0.056804 -0.059612 0.015744
vertex 0.126080 -0.097622 0.012248
vertex 0.125220 -0.099112 0.015744
endloop
endfacet
facet normal -0.477483 -0.827024 -0.296717
outer loop
vertex 0.056804 -0.059612 0.015744
vertex 0.125220 -0.099112 0.015744
vertex 0.056226 -0.060613 0.019465
endloop
endfacet
facet normal -0.477482 -0.827023 -0.296721
outer loop
vertex 0.056226 -0.060613 0.019465
vertex 0.125220 -0.099112 0.015744
vertex 0.124642 -0.100113 0.019465
endloop
endfacet
facet normal -0.494735 -0.856906 -0.144741
outer loop
vertex 0.056226 -0.060613 0.019465
vertex 0.124642 -0.100113 0.019465
vertex 0.055944 -0.061102 0.023320
endloop
endfacet
facet normal -0.494735 -0.856906 -0.144742
outer loop
vertex 0.055944 -0.061102 0.023320
vertex 0.124642 -0.100113 0.019465
vertex 0.124360 -0.100602 0.023320
endloop
endfacet
facet normal -0.499971 -0.865975 0.010754
outer loop
vertex 0.055944 -0.061102 0.023320
vertex 0.124360 -0.100602 0.023320
vertex 0.055965 -0.061065 0.027216
endloop
endfacet
facet normal -0.499971 -0.865975 0.010753
outer loop
vertex 0.055965 -0.061065 0.027216
vertex 0.124360 -0.100602 0.023320
vertex 0.124381 -0.100565 0.027216
endloop
endfacet
facet normal -0.493063 -0.854012 0.165988
outer loop
vertex 0.055965 -0.061065 0.027216
vertex 0.124381 -0.100565 0.027216
vertex 0.056289 -0.060505 0.031058
endloop
endfacet
facet normal -0.493064 -0.854012 0.165985
outer loop
vertex 0.056289 -0.060505 0.031058
vertex 0.124381 -0.100565 0.027216
vertex 0.124705 -0.100005 0.031058
endloop
endfacet
facet normal -0.474182 -0.821307 0.317186
outer loop
vertex 0.056289 -0.060505 0.031058
vertex 0.124705 -0.100005 0.031058
vertex 0.056906 -0.059435 0.034753
endloop
endfacet
facet normal -0.474180 -0.821306 0.317190
outer loop
vertex 0.056906 -0.059435 0.034753
vertex 0.124705 -0.100005 0.031058
vertex 0.125322 -0.098935 0.034753
endloop
endfacet
facet normal -0.443782 -0.768655 0.460681
outer loop
vertex 0.056906 -0.059435 0.034753
vertex 0.125322 -0.098935 0.034753
vertex 0.057804 -0.057881 0.038211
endloop
endfacet
facet normal -0.443782 -0.768652 0.460686
outer loop
vertex 0.057804 -0.057881 0.038211
vertex 0.125322 -0.098935 0.034753
vertex 0.126220 -0.097381 0.038211
endloop
endfacet
facet normal -0.402604 -0.697331 0.592992
outer loop
vertex 0.057804 -0.057881 0.038211
vertex 0.126220 -0.097381 0.038211
vertex 0.058959 -0.055880 0.041348
endloop
endfacet
facet normal -0.402605 -0.697331 0.592992
outer loop
vertex 0.058959 -0.055880 0.041348
vertex 0.126220 -0.097381 0.038211
vertex 0.127375 -0.095380 0.041348
endloop
endfacet
facet normal -0.351648 -0.609074 0.710896
outer loop
vertex 0.058959 -0.055880 0.041348
vertex 0.127375 -0.095380 0.041348
vertex 0.060344 -0.053481 0.044088
endloop
endfacet
facet normal -0.351647 -0.609070 0.710899
outer loop
vertex 0.060344 -0.053481 0.044088
vertex 0.127375 -0.095380 0.041348
vertex 0.128760 -0.092981 0.044088
endloop
endfacet
facet normal -0.292149 -0.506017 0.811539
outer loop
vertex 0.060344 -0.053481 0.044088
vertex 0.128760 -0.092981 0.044088
vertex 0.061925 -0.050743 0.046365
endloop
endfacet
facet normal -0.292150 -0.506019 0.811537
outer loop
vertex 0.061925 -0.050743 0.046365
vertex 0.128760 -0.092981 0.044088
vertex 0.130341 -0.090243 0.046365
endloop
endfacet
facet normal -0.225557 -0.390677 0.892466
outer loop
vertex 0.061925 -0.050743 0.046365
vertex 0.130341 -0.090243 0.046365
vertex 0.063664 -0.047732 0.048123
endloop
endfacet
facet normal -0.225558 -0.390675 0.892467
outer loop
vertex 0.063664 -0.047732 0.048123
vertex 0.130341 -0.090243 0.046365
vertex 0.132080 -0.087232 0.048123
endloop
endfacet
facet normal -0.153486 -0.265845 0.951719
outer loop
vertex 0.063664 -0.047732 0.048123
vertex 0.132080 -0.087232 0.048123
vertex 0.065518 -0.044520 0.049319
endloop
endfacet
facet normal -0.153485 -0.265844 0.951719
outer loop
vertex 0.065518 -0.044520 0.049319
vertex 0.132080 -0.087232 0.048123
vertex 0.133934 -0.084020 0.049319
endloop
endfacet
facet normal -0.077685 -0.134556 0.987856
outer loop
vertex 0.065518 -0.044520 0.049319
vertex 0.133934 -0.084020 0.049319
vertex 0.067442 -0.041187 0.049924
endloop
endfacet
facet normal -0.077686 -0.134556 0.987856
outer loop
vertex 0.067442 -0.041187 0.049924
vertex 0.133934 -0.084020 0.049319
vertex 0.135858 -0.080687 0.049924
endloop
endfacet
facet normal 0.000000 0.000000 1.000000
outer loop
vertex 0.067442 -0.041187 0.049924
vertex 0.135858 -0.080687 0.049924
vertex 0.069390 -0.037813 0.049924
endloop
endfacet
facet normal 0.000000 0.000000 1.000000
outer loop
vertex 0.069390 -0.037813 0.049924
vertex 0.135858 -0.080687 0.049924
vertex 0.137806 -0.077313 0.049924
endloop
endfacet
facet normal 0.077685 0.134556 0.987856
outer loop
vertex 0.069390 -0.037813 0.049924
vertex 0.137806 -0.077313 0.049924
vertex 0.071314 -0.034480 0.049319
endloop
endfacet
facet normal 0.077686 0.134556 0.987856
outer loop
vertex 0.071314 -0.034480 0.049319
vertex 0.137806 -0.077313 0.049924
vertex 0.139730 -0.073980 0.049319
endloop
endfacet
facet normal 0.153486 0.265845 0.951719
outer loop
vertex 0.071314 -0.034480 0.049319
vertex 0.139730 -0.073980 0.049319
vertex 0.073168 -0.031268 0.048123
endloop
endfacet
facet normal 0.153485 0.265845 0.951719
outer loop
vertex 0.073168 -0.031268 0.048123
vertex 0.139730 -0.073980 0.049319
vertex 0.141585 -0.070768 0.048123
endloop
endfacet
facet normal 0.225558 0.390676 0.892466
outer loop
vertex 0.073168 -0.031268 0.048123
vertex 0.141585 -0.070768 0.048123
vertex 0.074907 -0.028257 0.046365
endloop
endfacet
facet normal 0.225556 0.390675 0.892467
outer loop
vertex 0.074907 -0.028257 0.046365
vertex 0.141585 -0.070768 0.048123
vertex 0.143323 -0.067757 0.046365
endloop
endfacet
facet normal 0.292150 0.506019 0.811538
outer loop
vertex 0.074907 -0.028257 0.046365
vertex 0.143323 -0.067757 0.046365
vertex 0.076488 -0.025519 0.044088
endloop
endfacet
facet normal 0.292151 0.506020 0.811537
outer loop
vertex 0.076488 -0.025519 0.044088
vertex 0.143323 -0.067757 0.046365
vertex 0.144904 -0.065019 0.044088
endloop
endfacet
facet normal 0.351648 0.609070 0.710899
outer loop
vertex 0.076488 -0.025519 0.044088
vertex 0.144904 -0.065019 0.044088
vertex 0.077873 -0.023120 0.041348
endloop
endfacet
facet normal 0.351647 0.609072 0.710898
outer loop
vertex 0.077873 -0.023120 0.041348
vertex 0.144904 -0.065019 0.044088
vertex 0.146289 -0.062620 0.041348
endloop
endfacet
facet normal 0.402604 0.697330 0.592993
outer loop
vertex 0.077873 -0.023120 0.041348
vertex 0.146289 -0.062620 0.041348
vertex 0.079028 -0.021119 0.038211
endloop
endfacet
facet normal 0.402603 0.697331 0.592993
outer loop
vertex 0.079028 -0.021119 0.038211
vertex 0.146289 -0.062620 0.041348
vertex 0.147444 -0.060619 0.038211
endloop
endfacet
facet normal 0.443783 0.768653 0.460684
outer loop
vertex 0.079028 -0.021119 0.038211
vertex 0.147444 -0.060619 0.038211
vertex 0.079926 -0.019565 0.034753
endloop
endfacet
facet normal 0.443782 0.768653 0.460684
outer loop
vertex 0.079926 -0.019565 0.034753
vertex 0.147444 -0.060619 0.038211
vertex 0.148342 -0.059065 0.034753
endloop
endfacet
facet normal 0.474181 0.821307 0.317188
outer loop
vertex 0.079926 -0.019565 0.034753
vertex 0.148342 -0.059065 0.034753
vertex 0.080543 -0.018495 0.031058
endloop
endfacet
facet normal 0.474182 0.821306 0.317188
outer loop
vertex 0.080543 -0.018495 0.031058
vertex 0.148342 -0.059065 0.034753
vertex 0.148959 -0.057995 0.031058
endloop
endfacet
facet normal 0.493065 0.854012 0.165985
outer loop
vertex 0.080543 -0.018495 0.031058
vertex 0.148959 -0.057995 0.031058
vertex 0.080867 -0.017935 0.027216
endloop
endfacet
facet normal 0.493063 0.854012 0.165987
outer loop
vertex 0.080867 -0.017935 0.027216
vertex 0.148959 -0.057995 0.031058
vertex 0.149283 -0.057435 0.027216
endloop
endfacet
facet normal 0.499971 0.865975 0.010752
outer loop
vertex 0.080867 -0.017935 0.027216
vertex 0.149283 -0.057435 0.027216
vertex 0.080888 -0.017898 0.023320
endloop
endfacet
facet normal 0.499971 0.865975 0.010753
outer loop
vertex 0.080888 -0.017898 0.023320
vertex 0.149283 -0.057435 0.027216
vertex 0.149304 -0.057398 0.023320
endloop
endfacet
facet normal 0.494734 0.856906 -0.144743
outer loop
vertex 0.080888 -0.017898 0.023320
vertex 0.149304 -0.057398 0.023320
vertex 0.080606 -0.018387 0.019465
endloop
endfacet
facet normal 0.494735 0.856906 -0.144741
outer loop
vertex 0.080606 -0.018387 0.019465
vertex 0.149304 -0.057398 0.023320
vertex 0.149022 -0.057887 0.019465
endloop
endfacet
facet normal 0.477482 0.827024 -0.296718
outer loop
vertex 0.080606 -0.018387 0.019465
vertex 0.149022 -0.057887 0.019465
vertex 0.080028 -0.019388 0.015744
endloop
endfacet
facet normal 0.477483 0.827023 -0.296720
outer loop
vertex 0.080028 -0.019388 0.015744
vertex 0.149022 -0.057887 0.019465
vertex 0.148444 -0.058888 0.015744
endloop
endfacet
facet normal 0.448633 0.777055 -0.441490
outer loop
vertex 0.080028 -0.019388 0.015744
vertex 0.148444 -0.058888 0.015744
vertex 0.079168 -0.020878 0.012248
endloop
endfacet
facet normal 0.448633 0.777055 -0.441491
outer loop
vertex 0.079168 -0.020878 0.012248
vertex 0.148444 -0.058888 0.015744
vertex 0.147584 -0.060378 0.012248
endloop
endfacet
facet normal 0.408887 0.708213 -0.575540
outer loop
vertex 0.079168 -0.020878 0.012248
vertex 0.147584 -0.060378 0.012248
vertex 0.078047 -0.022819 0.009062
endloop
endfacet
facet normal -0.300808 -0.521014 -0.798786
outer loop
vertex 0.061697 -0.051138 0.003919
vertex 0.060141 -0.053833 0.006263
vertex -0.008275 -0.014333 0.006263
endloop
endfacet
facet normal -0.359211 -0.622171 -0.695609
outer loop
vertex -0.008275 -0.014333 0.006263
vertex 0.060141 -0.053833 0.006263
vertex -0.009630 -0.016680 0.009062
endloop
endfacet
facet normal -0.359210 -0.622170 -0.695610
outer loop
vertex -0.008275 -0.014333 0.006263
vertex -0.009630 -0.016680 0.009062
vertex -0.078047 0.022820 0.009062
endloop
endfacet
facet normal -0.408887 -0.708212 -0.575541
outer loop
vertex -0.078047 0.022820 0.009062
vertex -0.009630 -0.016680 0.009062
vertex -0.079168 0.020878 0.012248
endloop
endfacet
facet normal -0.408886 -0.708212 -0.575541
outer loop
vertex -0.078047 0.022820 0.009062
vertex -0.079168 0.020878 0.012248
vertex -0.147584 0.060378 0.012248
endloop
endfacet
facet normal -0.448633 -0.777055 -0.441490
outer loop
vertex -0.147584 0.060378 0.012248
vertex -0.079168 0.020878 0.012248
vertex -0.148444 0.058888 0.015744
endloop
endfacet
facet normal -0.359210 -0.622170 -0.695610
outer loop
vertex -0.009630 -0.016680 0.009062
vertex 0.060141 -0.053833 0.006263
vertex 0.058786 -0.056180 0.009062
endloop
endfacet
facet normal -0.408887 -0.708213 -0.575540
outer loop
vertex -0.009630 -0.016680 0.009062
vertex 0.058786 -0.056180 0.009062
vertex -0.010752 -0.018622 0.012248
endloop
endfacet
facet normal -0.408887 -0.708212 -0.575541
outer loop
vertex -0.010752 -0.018622 0.012248
vertex 0.058786 -0.056180 0.009062
vertex 0.057664 -0.058122 0.012248
endloop
endfacet
facet normal -0.448633 -0.777055 -0.441491
outer loop
vertex -0.010752 -0.018622 0.012248
vertex 0.057664 -0.058122 0.012248
vertex -0.011612 -0.020112 0.015744
endloop
endfacet
facet normal -0.448633 -0.777055 -0.441490
outer loop
vertex -0.011612 -0.020112 0.015744
vertex 0.057664 -0.058122 0.012248
vertex 0.056804 -0.059612 0.015744
endloop
endfacet
facet normal -0.477482 -0.827024 -0.296718
outer loop
vertex -0.011612 -0.020112 0.015744
vertex 0.056804 -0.059612 0.015744
vertex -0.012190 -0.021113 0.019465
endloop
endfacet
facet normal -0.477482 -0.827024 -0.296720
outer loop
vertex -0.012190 -0.021113 0.019465
vertex 0.056804 -0.059612 0.015744
vertex 0.056226 -0.060613 0.019465
endloop
endfacet
facet normal -0.494735 -0.856906 -0.144741
outer loop
vertex -0.012190 -0.021113 0.019465
vertex 0.056226 -0.060613 0.019465
vertex -0.012472 -0.021602 0.023320
endloop
endfacet
facet normal -0.494735 -0.856906 -0.144742
outer loop
vertex -0.012472 -0.021602 0.023320
vertex 0.056226 -0.060613 0.019465
vertex 0.055944 -0.061102 0.023320
endloop
endfacet
facet normal -0.499971 -0.865975 0.010752
outer loop
vertex -0.012472 -0.021602 0.023320
vertex 0.055944 -0.061102 0.023320
vertex -0.012451 -0.021565 0.027216
endloop
endfacet
facet normal -0.499971 -0.865975 0.010753
outer loop
vertex -0.012451 -0.021565 0.027216
vertex 0.055944 -0.061102 0.023320
vertex 0.055965 -0.061065 0.027216
endloop
endfacet
facet normal -0.493063 -0.854012 0.165987
outer loop
vertex -0.012451 -0.021565 0.027216
vertex 0.055965 -0.061065 0.027216
vertex -0.012127 -0.021005 0.031058
endloop
endfacet
facet normal -0.493064 -0.854012 0.165985
outer loop
vertex -0.012127 -0.021005 0.031058
vertex 0.055965 -0.061065 0.027216
vertex 0.056289 -0.060505 0.031058
endloop
endfacet
facet normal -0.474182 -0.821306 0.317187
outer loop
vertex -0.012127 -0.021005 0.031058
vertex 0.056289 -0.060505 0.031058
vertex -0.011510 -0.019935 0.034753
endloop
endfacet
facet normal -0.474181 -0.821307 0.317188
outer loop
vertex -0.011510 -0.019935 0.034753
vertex 0.056289 -0.060505 0.031058
vertex 0.056906 -0.059435 0.034753
endloop
endfacet
facet normal -0.443782 -0.768654 0.460683
outer loop
vertex -0.011510 -0.019935 0.034753
vertex 0.056906 -0.059435 0.034753
vertex -0.010612 -0.018381 0.038211
endloop
endfacet
facet normal -0.443783 -0.768653 0.460683
outer loop
vertex -0.010612 -0.018381 0.038211
vertex 0.056906 -0.059435 0.034753
vertex 0.057804 -0.057881 0.038211
endloop
endfacet
facet normal -0.402603 -0.697329 0.592994
outer loop
vertex -0.010612 -0.018381 0.038211
vertex 0.057804 -0.057881 0.038211
vertex -0.009457 -0.016380 0.041348
endloop
endfacet
facet normal -0.402604 -0.697330 0.592993
outer loop
vertex -0.009457 -0.016380 0.041348
vertex 0.057804 -0.057881 0.038211
vertex 0.058959 -0.055880 0.041348
endloop
endfacet
facet normal -0.351647 -0.609072 0.710898
outer loop
vertex -0.009457 -0.016380 0.041348
vertex 0.058959 -0.055880 0.041348
vertex -0.008072 -0.013981 0.044088
endloop
endfacet
facet normal -0.351648 -0.609072 0.710897
outer loop
vertex -0.008072 -0.013981 0.044088
vertex 0.058959 -0.055880 0.041348
vertex 0.060344 -0.053481 0.044088
endloop
endfacet
facet normal -0.292149 -0.506018 0.811538
outer loop
vertex -0.008072 -0.013981 0.044088
vertex 0.060344 -0.053481 0.044088
vertex -0.006491 -0.011243 0.046365
endloop
endfacet
facet normal -0.292150 -0.506018 0.811538
outer loop
vertex -0.006491 -0.011243 0.046365
vertex 0.060344 -0.053481 0.044088
vertex 0.061925 -0.050743 0.046365
endloop
endfacet
facet normal -0.225557 -0.390677 0.892466
outer loop
vertex -0.006491 -0.011243 0.046365
vertex 0.061925 -0.050743 0.046365
vertex -0.004752 -0.008232 0.048123
endloop
endfacet
facet normal -0.225557 -0.390676 0.892466
outer loop
vertex -0.004752 -0.008232 0.048123
vertex 0.061925 -0.050743 0.046365
vertex 0.063664 -0.047732 0.048123
endloop
endfacet
facet normal -0.153486 -0.265845 0.951719
outer loop
vertex -0.004752 -0.008232 0.048123
vertex 0.063664 -0.047732 0.048123
vertex -0.002898 -0.005020 0.049319
endloop
endfacet
facet normal -0.153487 -0.265845 0.951719
outer loop
vertex -0.002898 -0.005020 0.049319
vertex 0.063664 -0.047732 0.048123
vertex 0.065518 -0.044520 0.049319
endloop
endfacet
facet normal -0.077687 -0.134556 0.987856
outer loop
vertex -0.002898 -0.005020 0.049319
vertex 0.065518 -0.044520 0.049319
vertex -0.000974 -0.001687 0.049924
endloop
endfacet
facet normal -0.077685 -0.134556 0.987856
outer loop
vertex -0.000974 -0.001687 0.049924
vertex 0.065518 -0.044520 0.049319
vertex 0.067442 -0.041187 0.049924
endloop
endfacet
facet normal 0.000002 0.000000 1.000000
outer loop
vertex -0.000974 -0.001687 0.049924
vertex 0.067442 -0.041187 0.049924
vertex 0.000974 0.001687 0.049924
endloop
endfacet
facet normal -0.000000 0.000000 1.000000
outer loop
vertex 0.000974 0.001687 0.049924
vertex 0.067442 -0.041187 0.049924
vertex 0.069390 -0.037813 0.049924
endloop
endfacet
facet normal 0.077684 0.134556 0.987856
outer loop
vertex 0.000974 0.001687 0.049924
vertex 0.069390 -0.037813 0.049924
vertex 0.002898 0.005020 0.049319
endloop
endfacet
facet normal 0.077686 0.134556 0.987856
outer loop
vertex 0.002898 0.005020 0.049319
vertex 0.069390 -0.037813 0.049924
vertex 0.071314 -0.034480 0.049319
endloop
endfacet
facet normal 0.153487 0.265845 0.951719
outer loop
vertex 0.002898 0.005020 0.049319
vertex 0.071314 -0.034480 0.049319
vertex 0.004752 0.008232 0.048123
endloop
endfacet
facet normal 0.153485 0.265845 0.951719
outer loop
vertex 0.004752 0.008232 0.048123
vertex 0.071314 -0.034480 0.049319
vertex 0.073168 -0.031268 0.048123
endloop
endfacet
facet normal 0.225557 0.390676 0.892466
outer loop
vertex 0.004752 0.008232 0.048123
vertex 0.073168 -0.031268 0.048123
vertex 0.006491 0.011243 0.046365
endloop
endfacet
facet normal 0.225557 0.390676 0.892466
outer loop
vertex 0.006491 0.011243 0.046365
vertex 0.073168 -0.031268 0.048123
vertex 0.074907 -0.028257 0.046365
endloop
endfacet
facet normal 0.292151 0.506018 0.811538
outer loop
vertex 0.006491 0.011243 0.046365
vertex 0.074907 -0.028257 0.046365
vertex 0.008072 0.013981 0.044088
endloop
endfacet
facet normal 0.292149 0.506018 0.811538
outer loop
vertex 0.008072 0.013981 0.044088
vertex 0.074907 -0.028257 0.046365
vertex 0.076488 -0.025519 0.044088
endloop
endfacet
facet normal 0.351648 0.609071 0.710898
outer loop
vertex 0.008072 0.013981 0.044088
vertex 0.076488 -0.025519 0.044088
vertex 0.009457 0.016380 0.041348
endloop
endfacet
facet normal 0.351648 0.609072 0.710898
outer loop
vertex 0.009457 0.016380 0.041348
vertex 0.076488 -0.025519 0.044088
vertex 0.077873 -0.023120 0.041348
endloop
endfacet
facet normal 0.402605 0.697330 0.592993
outer loop
vertex 0.009457 0.016380 0.041348
vertex 0.077873 -0.023120 0.041348
vertex 0.010612 0.018381 0.038211
endloop
endfacet
facet normal 0.402603 0.697330 0.592993
outer loop
vertex 0.010612 0.018381 0.038211
vertex 0.077873 -0.023120 0.041348
vertex 0.079028 -0.021119 0.038211
endloop
endfacet
facet normal 0.443782 0.768653 0.460684
outer loop
vertex 0.010612 0.018381 0.038211
vertex 0.079028 -0.021119 0.038211
vertex 0.011510 0.019935 0.034753
endloop
endfacet
facet normal 0.443782 0.768653 0.460684
outer loop
vertex 0.011510 0.019935 0.034753
vertex 0.079028 -0.021119 0.038211
vertex 0.079926 -0.019565 0.034753
endloop
endfacet
facet normal 0.474181 0.821307 0.317187
outer loop
vertex 0.011510 0.019935 0.034753
vertex 0.079926 -0.019565 0.034753
vertex 0.012127 0.021005 0.031058
endloop
endfacet
facet normal 0.474182 0.821306 0.317187
outer loop
vertex 0.012127 0.021005 0.031058
vertex 0.079926 -0.019565 0.034753
vertex 0.080543 -0.018495 0.031058
endloop
endfacet
facet normal 0.493065 0.854012 0.165985
outer loop
vertex 0.012127 0.021005 0.031058
vertex 0.080543 -0.018495 0.031058
vertex 0.012451 0.021565 0.027216
endloop
endfacet
facet normal 0.493063 0.854013 0.165986
outer loop
vertex 0.012451 0.021565 0.027216
vertex 0.080543 -0.018495 0.031058
vertex 0.080867 -0.017935 0.027216
endloop
endfacet
facet normal 0.499971 0.865975 0.010753
outer loop
vertex 0.012451 0.021565 0.027216
vertex 0.080867 -0.017935 0.027216
vertex 0.012472 0.021602 0.023320
endloop
endfacet
facet normal 0.499971 0.865975 0.010752
outer loop
vertex 0.012472 0.021602 0.023320
vertex 0.080867 -0.017935 0.027216
vertex 0.080888 -0.017898 0.023320
endloop
endfacet
facet normal 0.494735 0.856906 -0.144741
outer loop
vertex 0.012472 0.021602 0.023320
vertex 0.080888 -0.017898 0.023320
vertex 0.012190 0.021113 0.019465
endloop
endfacet
facet normal 0.494735 0.856906 -0.144741
outer loop
vertex 0.012190 0.021113 0.019465
vertex 0.080888 -0.017898 0.023320
vertex 0.080606 -0.018387 0.019465
endloop
endfacet
facet normal 0.477482 0.827024 -0.296719
outer loop
vertex 0.012190 0.021113 0.019465
vertex 0.080606 -0.018387 0.019465
vertex 0.011612 0.020112 0.015744
endloop
endfacet
facet normal 0.477483 0.827024 -0.296719
outer loop
vertex 0.011612 0.020112 0.015744
vertex 0.080606 -0.018387 0.019465
vertex 0.080028 -0.019388 0.015744
endloop
endfacet
facet normal 0.448633 0.777055 -0.441491
outer loop
vertex 0.011612 0.020112 0.015744
vertex 0.080028 -0.019388 0.015744
vertex 0.010752 0.018622 0.012248
endloop
endfacet
facet normal 0.448633 0.777055 -0.441491
outer loop
vertex 0.010752 0.018622 0.012248
vertex 0.080028 -0.019388 0.015744
vertex 0.079168 -0.020878 0.012248
endloop
endfacet
facet normal 0.408887 0.708213 -0.575540
outer loop
vertex 0.010752 0.018622 0.012248
vertex 0.079168 -0.020878 0.012248
vertex 0.009630 0.016681 0.009062
endloop
endfacet
facet normal 0.408887 0.708212 -0.575541
outer loop
vertex 0.009630 0.016681 0.009062
vertex 0.079168 -0.020878 0.012248
vertex 0.078047 -0.022819 0.009062
endloop
endfacet
facet normal 0.359210 0.622170 -0.695610
outer loop
vertex 0.009630 0.016681 0.009062
vertex 0.078047 -0.022819 0.009062
vertex 0.008275 0.014333 0.006263
endloop
endfacet
facet normal -0.408887 -0.708213 -0.575540
outer loop
vertex -0.009630 -0.016680 0.009062
vertex -0.010752 -0.018622 0.012248
vertex -0.079168 0.020878 0.012248
endloop
endfacet
facet normal -0.448633 -0.777055 -0.441491
outer loop
vertex -0.079168 0.020878 0.012248
vertex -0.010752 -0.018622 0.012248
vertex -0.080028 0.019388 0.015744
endloop
endfacet
facet normal -0.448633 -0.777055 -0.441490
outer loop
vertex -0.079168 0.020878 0.012248
vertex -0.080028 0.019388 0.015744
vertex -0.148444 0.058888 0.015744
endloop
endfacet
facet normal -0.477482 -0.827023 -0.296721
outer loop
vertex -0.148444 0.058888 0.015744
vertex -0.080028 0.019388 0.015744
vertex -0.149022 0.057887 0.019465
endloop
endfacet
facet normal -0.448633 -0.777055 -0.441491
outer loop
vertex -0.080028 0.019388 0.015744
vertex -0.010752 -0.018622 0.012248
vertex -0.011612 -0.020112 0.015744
endloop
endfacet
facet normal -0.477482 -0.827024 -0.296719
outer loop
vertex -0.080028 0.019388 0.015744
vertex -0.011612 -0.020112 0.015744
vertex -0.080606 0.018387 0.019465
endloop
endfacet
facet normal -0.477482 -0.827024 -0.296719
outer loop
vertex -0.080606 0.018387 0.019465
vertex -0.011612 -0.020112 0.015744
vertex -0.012190 -0.021113 0.019465
endloop
endfacet
facet normal -0.494735 -0.856906 -0.144741
outer loop
vertex -0.080606 0.018387 0.019465
vertex -0.012190 -0.021113 0.019465
vertex -0.080888 0.017898 0.023320
endloop
endfacet
facet normal -0.494735 -0.856906 -0.144741
outer loop
vertex -0.080888 0.017898 0.023320
vertex -0.012190 -0.021113 0.019465
vertex -0.012472 -0.021602 0.023320
endloop
endfacet
facet normal -0.499971 -0.865975 0.010752
outer loop
vertex -0.080888 0.017898 0.023320
vertex -0.012472 -0.021602 0.023320
vertex -0.080867 0.017935 0.027216
endloop
endfacet
facet normal -0.499971 -0.865975 0.010753
outer loop
vertex -0.080867 0.017935 0.027216
vertex -0.012472 -0.021602 0.023320
vertex -0.012451 -0.021565 0.027216
endloop
endfacet
facet normal -0.493063 -0.854012 0.165986
outer loop
vertex -0.080867 0.017935 0.027216
vertex -0.012451 -0.021565 0.027216
vertex -0.080543 0.018495 0.031058
endloop
endfacet
facet normal -0.493065 -0.854012 0.165985
outer loop
vertex -0.080543 0.018495 0.031058
vertex -0.012451 -0.021565 0.027216
vertex -0.012127 -0.021005 0.031058
endloop
endfacet
facet normal -0.474182 -0.821306 0.317187
outer loop
vertex -0.080543 0.018495 0.031058
vertex -0.012127 -0.021005 0.031058
vertex -0.079926 0.019565 0.034753
endloop
endfacet
facet normal -0.474181 -0.821307 0.317187
outer loop
vertex -0.079926 0.019565 0.034753
vertex -0.012127 -0.021005 0.031058
vertex -0.011510 -0.019935 0.034753
endloop
endfacet
facet normal -0.443782 -0.768653 0.460684
outer loop
vertex -0.079926 0.019565 0.034753
vertex -0.011510 -0.019935 0.034753
vertex -0.079028 0.021119 0.038211
endloop
endfacet
facet normal -0.443782 -0.768653 0.460684
outer loop
vertex -0.079028 0.021119 0.038211
vertex -0.011510 -0.019935 0.034753
vertex -0.010612 -0.018381 0.038211
endloop
endfacet
facet normal -0.402603 -0.697330 0.592993
outer loop
vertex -0.079028 0.021119 0.038211
vertex -0.010612 -0.018381 0.038211
vertex -0.077873 0.023120 0.041348
endloop
endfacet
facet normal -0.402604 -0.697330 0.592993
outer loop
vertex -0.077873 0.023120 0.041348
vertex -0.010612 -0.018381 0.038211
vertex -0.009457 -0.016380 0.041348
endloop
endfacet
facet normal -0.351647 -0.609072 0.710898
outer loop
vertex -0.077873 0.023120 0.041348
vertex -0.009457 -0.016380 0.041348
vertex -0.076488 0.025519 0.044088
endloop
endfacet
facet normal -0.351648 -0.609071 0.710898
outer loop
vertex -0.076488 0.025519 0.044088
vertex -0.009457 -0.016380 0.041348
vertex -0.008072 -0.013981 0.044088
endloop
endfacet
facet normal -0.292149 -0.506018 0.811538
outer loop
vertex -0.076488 0.025519 0.044088
vertex -0.008072 -0.013981 0.044088
vertex -0.074907 0.028257 0.046365
endloop
endfacet
facet normal -0.292150 -0.506018 0.811538
outer loop
vertex -0.074907 0.028257 0.046365
vertex -0.008072 -0.013981 0.044088
vertex -0.006491 -0.011243 0.046365
endloop
endfacet
facet normal -0.225557 -0.390676 0.892466
outer loop
vertex -0.074907 0.028257 0.046365
vertex -0.006491 -0.011243 0.046365
vertex -0.073168 0.031268 0.048123
endloop
endfacet
facet normal -0.225557 -0.390676 0.892466
outer loop
vertex -0.073168 0.031268 0.048123
vertex -0.006491 -0.011243 0.046365
vertex -0.004752 -0.008232 0.048123
endloop
endfacet
facet normal -0.153485 -0.265845 0.951719
outer loop
vertex -0.073168 0.031268 0.048123
vertex -0.004752 -0.008232 0.048123
vertex -0.071314 0.034480 0.049319
endloop
endfacet
facet normal -0.153487 -0.265845 0.951719
outer loop
vertex -0.071314 0.034480 0.049319
vertex -0.004752 -0.008232 0.048123
vertex -0.002898 -0.005020 0.049319
endloop
endfacet
facet normal -0.077685 -0.134556 0.987856
outer loop
vertex -0.071314 0.034480 0.049319
vertex -0.002898 -0.005020 0.049319
vertex -0.069390 0.037813 0.049924
endloop
endfacet
facet normal -0.077685 -0.134556 0.987856
outer loop
vertex -0.069390 0.037813 0.049924
vertex -0.002898 -0.005020 0.049319
vertex -0.000974 -0.001687 0.049924
endloop
endfacet
facet normal 0.000000 0.000000 1.000000
outer loop
vertex -0.069390 0.037813 0.049924
vertex -0.000974 -0.001687 0.049924
vertex -0.067442 0.041187 0.049924
endloop
endfacet
facet normal -0.000001 0.000000 1.000000
outer loop
vertex -0.067442 0.041187 0.049924
vertex -0.000974 -0.001687 0.049924
vertex 0.000974 0.001687 0.049924
endloop
endfacet
facet normal 0.077685 0.134556 0.987856
outer loop
vertex -0.067442 0.041187 0.049924
vertex 0.000974 0.001687 0.049924
vertex -0.065518 0.044520 0.049319
endloop
endfacet
facet normal 0.077687 0.134556 0.987856
outer loop
vertex -0.065518 0.044520 0.049319
vertex 0.000974 0.001687 0.049924
vertex 0.002898 0.005020 0.049319
endloop
endfacet
facet normal 0.153487 0.265845 0.951719
outer loop
vertex -0.065518 0.044520 0.049319
vertex 0.002898 0.005020 0.049319
vertex -0.063664 0.047732 0.048123
endloop
endfacet
facet normal 0.153485 0.265845 0.951719
outer loop
vertex -0.063664 0.047732 0.048123
vertex 0.002898 0.005020 0.049319
vertex 0.004752 0.008232 0.048123
endloop
endfacet
facet normal 0.225557 0.390677 0.892466
outer loop
vertex -0.063664 0.047732 0.048123
vertex 0.004752 0.008232 0.048123
vertex -0.061925 0.050743 0.046365
endloop
endfacet
facet normal 0.225556 0.390676 0.892466
outer loop
vertex -0.061925 0.050743 0.046365
vertex 0.004752 0.008232 0.048123
vertex 0.006491 0.011243 0.046365
endloop
endfacet
facet normal 0.292150 0.506018 0.811538
outer loop
vertex -0.061925 0.050743 0.046365
vertex 0.006491 0.011243 0.046365
vertex -0.060344 0.053481 0.044088
endloop
endfacet
facet normal 0.292149 0.506018 0.811538
outer loop
vertex -0.060344 0.053481 0.044088
vertex 0.006491 0.011243 0.046365
vertex 0.008072 0.013981 0.044088
endloop
endfacet
facet normal 0.351649 0.609073 0.710896
outer loop
vertex -0.060344 0.053481 0.044088
vertex 0.008072 0.013981 0.044088
vertex -0.058959 0.055880 0.041348
endloop
endfacet
facet normal 0.351647 0.609072 0.710898
outer loop
vertex -0.058959 0.055880 0.041348
vertex 0.008072 0.013981 0.044088
vertex 0.009457 0.016380 0.041348
endloop
endfacet
facet normal 0.402604 0.697329 0.592994
outer loop
vertex -0.058959 0.055880 0.041348
vertex 0.009457 0.016380 0.041348
vertex -0.057804 0.057881 0.038211
endloop
endfacet
facet normal 0.402604 0.697330 0.592993
outer loop
vertex -0.057804 0.057881 0.038211
vertex 0.009457 0.016380 0.041348
vertex 0.010612 0.018381 0.038211
endloop
endfacet
facet normal 0.443782 0.768653 0.460684
outer loop
vertex -0.057804 0.057881 0.038211
vertex 0.010612 0.018381 0.038211
vertex -0.056906 0.059435 0.034753
endloop
endfacet
facet normal 0.443781 0.768654 0.460683
outer loop
vertex -0.056906 0.059435 0.034753
vertex 0.010612 0.018381 0.038211
vertex 0.011510 0.019935 0.034753
endloop
endfacet
facet normal 0.474181 0.821307 0.317188
outer loop
vertex -0.056906 0.059435 0.034753
vertex 0.011510 0.019935 0.034753
vertex -0.056289 0.060505 0.031058
endloop
endfacet
facet normal 0.474182 0.821306 0.317188
outer loop
vertex -0.056289 0.060505 0.031058
vertex 0.011510 0.019935 0.034753
vertex 0.012127 0.021005 0.031058
endloop
endfacet
facet normal 0.493065 0.854012 0.165985
outer loop
vertex -0.056289 0.060505 0.031058
vertex 0.012127 0.021005 0.031058
vertex -0.055965 0.061065 0.027216
endloop
endfacet
facet normal 0.493063 0.854013 0.165985
outer loop
vertex -0.055965 0.061065 0.027216
vertex 0.012127 0.021005 0.031058
vertex 0.012451 0.021565 0.027216
endloop
endfacet
facet normal 0.499971 0.865975 0.010754
outer loop
vertex -0.055965 0.061065 0.027216
vertex 0.012451 0.021565 0.027216
vertex -0.055944 0.061102 0.023320
endloop
endfacet
facet normal 0.499971 0.865975 0.010752
outer loop
vertex -0.055944 0.061102 0.023320
vertex 0.012451 0.021565 0.027216
vertex 0.012472 0.021602 0.023320
endloop
endfacet
facet normal 0.494734 0.856906 -0.144743
outer loop
vertex -0.055944 0.061102 0.023320
vertex 0.012472 0.021602 0.023320
vertex -0.056226 0.060613 0.019465
endloop
endfacet
facet normal 0.494735 0.856906 -0.144740
outer loop
vertex -0.056226 0.060613 0.019465
vertex 0.012472 0.021602 0.023320
vertex 0.012190 0.021113 0.019465
endloop
endfacet
facet normal 0.477482 0.827024 -0.296720
outer loop
vertex -0.056226 0.060613 0.019465
vertex 0.012190 0.021113 0.019465
vertex -0.056804 0.059612 0.015744
endloop
endfacet
facet normal 0.477482 0.827024 -0.296718
outer loop
vertex -0.056804 0.059612 0.015744
vertex 0.012190 0.021113 0.019465
vertex 0.011612 0.020112 0.015744
endloop
endfacet
facet normal 0.448633 0.777055 -0.441490
outer loop
vertex -0.056804 0.059612 0.015744
vertex 0.011612 0.020112 0.015744
vertex -0.057664 0.058122 0.012248
endloop
endfacet
facet normal 0.448633 0.777055 -0.441491
outer loop
vertex -0.057664 0.058122 0.012248
vertex 0.011612 0.020112 0.015744
vertex 0.010752 0.018622 0.012248
endloop
endfacet
facet normal 0.408887 0.708212 -0.575540
outer loop
vertex -0.057664 0.058122 0.012248
vertex 0.010752 0.018622 0.012248
vertex -0.058786 0.056181 0.009062
endloop
endfacet
facet normal 0.408887 0.708212 -0.575541
outer loop
vertex -0.058786 0.056181 0.009062
vertex 0.010752 0.018622 0.012248
vertex 0.009630 0.016681 0.009062
endloop
endfacet
facet normal 0.359210 0.622169 -0.695610
outer loop
vertex -0.058786 0.056181 0.009062
vertex 0.009630 0.016681 0.009062
vertex -0.060141 0.053833 0.006263
endloop
endfacet
facet normal 0.359210 0.622170 -0.695609
outer loop
vertex -0.060141 0.053833 0.006263
vertex 0.009630 0.016681 0.009062
vertex 0.008275 0.014333 0.006263
endloop
endfacet
facet normal 0.300808 0.521015 -0.798785
outer loop
vertex -0.060141 0.053833 0.006263
vertex 0.008275 0.014333 0.006263
vertex -0.061697 0.051138 0.003919
endloop
endfacet
facet normal -0.494734 -0.856906 -0.144741
outer loop
vertex -0.149304 0.057398 0.023320
vertex -0.149022 0.057887 0.019465
vertex -0.080606 0.018387 0.019465
endloop
endfacet
facet normal -0.477482 -0.827024 -0.296718
outer loop
vertex -0.080606 0.018387 0.019465
vertex -0.149022 0.057887 0.019465
vertex -0.080028 0.019388 0.015744
endloop
endfacet
facet normal -0.494735 -0.856906 -0.144744
outer loop
vertex -0.149304 0.057398 0.023320
vertex -0.080606 0.018387 0.019465
vertex -0.080888 0.017898 0.023320
endloop
endfacet
facet normal -0.499971 -0.865976 0.010755
outer loop
vertex -0.149283 0.057435 0.027216
vertex -0.149304 0.057398 0.023320
vertex -0.080888 0.017898 0.023320
endloop
endfacet
facet normal -0.499971 -0.865975 0.010753
outer loop
vertex -0.149283 0.057435 0.027216
vertex -0.080888 0.017898 0.023320
vertex -0.080867 0.017935 0.027216
endloop
endfacet
facet normal -0.493063 -0.854013 0.165985
outer loop
vertex -0.148959 0.057995 0.031058
vertex -0.149283 0.057435 0.027216
vertex -0.080867 0.017935 0.027216
endloop
endfacet
facet normal -0.493065 -0.854012 0.165986
outer loop
vertex -0.148959 0.057995 0.031058
vertex -0.080867 0.017935 0.027216
vertex -0.080543 0.018495 0.031058
endloop
endfacet
facet normal -0.474182 -0.821306 0.317187
outer loop
vertex -0.148342 0.059065 0.034753
vertex -0.148959 0.057995 0.031058
vertex -0.080543 0.018495 0.031058
endloop
endfacet
facet normal -0.474181 -0.821307 0.317188
outer loop
vertex -0.148342 0.059065 0.034753
vertex -0.080543 0.018495 0.031058
vertex -0.079926 0.019565 0.034753
endloop
endfacet
facet normal -0.443782 -0.768653 0.460684
outer loop
vertex -0.147444 0.060619 0.038211
vertex -0.148342 0.059065 0.034753
vertex -0.079926 0.019565 0.034753
endloop
endfacet
facet normal -0.443783 -0.768653 0.460683
outer loop
vertex -0.147444 0.060619 0.038211
vertex -0.079926 0.019565 0.034753
vertex -0.079028 0.021119 0.038211
endloop
endfacet
facet normal -0.402604 -0.697331 0.592992
outer loop
vertex -0.146289 0.062620 0.041348
vertex -0.147444 0.060619 0.038211
vertex -0.079028 0.021119 0.038211
endloop
endfacet
facet normal -0.402603 -0.697330 0.592994
outer loop
vertex -0.146289 0.062620 0.041348
vertex -0.079028 0.021119 0.038211
vertex -0.077873 0.023120 0.041348
endloop
endfacet
facet normal -0.351647 -0.609072 0.710898
outer loop
vertex -0.144904 0.065019 0.044088
vertex -0.146289 0.062620 0.041348
vertex -0.077873 0.023120 0.041348
endloop
endfacet
facet normal -0.351648 -0.609071 0.710898
outer loop
vertex -0.144904 0.065019 0.044088
vertex -0.077873 0.023120 0.041348
vertex -0.076488 0.025519 0.044088
endloop
endfacet
facet normal -0.292150 -0.506019 0.811538
outer loop
vertex -0.143323 0.067757 0.046365
vertex -0.144904 0.065019 0.044088
vertex -0.076488 0.025519 0.044088
endloop
endfacet
facet normal -0.292150 -0.506019 0.811538
outer loop
vertex -0.143323 0.067757 0.046365
vertex -0.076488 0.025519 0.044088
vertex -0.074907 0.028257 0.046365
endloop
endfacet
facet normal -0.225556 -0.390675 0.892467
outer loop
vertex -0.141585 0.070768 0.048123
vertex -0.143323 0.067757 0.046365
vertex -0.074907 0.028257 0.046365
endloop
endfacet
facet normal -0.225558 -0.390676 0.892466
outer loop
vertex -0.141585 0.070768 0.048123
vertex -0.074907 0.028257 0.046365
vertex -0.073168 0.031268 0.048123
endloop
endfacet
facet normal -0.153485 -0.265845 0.951719
outer loop
vertex -0.139730 0.073980 0.049319
vertex -0.141585 0.070768 0.048123
vertex -0.073168 0.031268 0.048123
endloop
endfacet
facet normal -0.153486 -0.265845 0.951719
outer loop
vertex -0.139730 0.073980 0.049319
vertex -0.073168 0.031268 0.048123
vertex -0.071314 0.034480 0.049319
endloop
endfacet
facet normal -0.077687 -0.134556 0.987856
outer loop
vertex -0.137806 0.077313 0.049924
vertex -0.139730 0.073980 0.049319
vertex -0.071314 0.034480 0.049319
endloop
endfacet
facet normal -0.077685 -0.134556 0.987856
outer loop
vertex -0.137806 0.077313 0.049924
vertex -0.071314 0.034480 0.049319
vertex -0.069390 0.037813 0.049924
endloop
endfacet
facet normal 0.000000 0.000000 1.000000
outer loop
vertex -0.135858 0.080687 0.049924
vertex -0.137806 0.077313 0.049924
vertex -0.069390 0.037813 0.049924
endloop
endfacet
facet normal -0.000000 0.000000 1.000000
outer loop
vertex -0.135858 0.080687 0.049924
vertex -0.069390 0.037813 0.049924
vertex -0.067442 0.041187 0.049924
endloop
endfacet
facet normal 0.077686 0.134556 0.987856
outer loop
vertex -0.133934 0.084020 0.049319
vertex -0.135858 0.080687 0.049924
vertex -0.067442 0.041187 0.049924
endloop
endfacet
facet normal 0.077686 0.134556 0.987856
outer loop
vertex -0.133934 0.084020 0.049319
vertex -0.067442 0.041187 0.049924
vertex -0.065518 0.044520 0.049319
endloop
endfacet
facet normal 0.153486 0.265845 0.951719
outer loop
vertex -0.132080 0.087232 0.048123
vertex -0.133934 0.084020 0.049319
vertex -0.065518 0.044520 0.049319
endloop
endfacet
facet normal 0.153486 0.265845 0.951719
outer loop
vertex -0.132080 0.087232 0.048123
vertex -0.065518 0.044520 0.049319
vertex -0.063664 0.047732 0.048123
endloop
endfacet
facet normal 0.225558 0.390676 0.892466
outer loop
vertex -0.130341 0.090243 0.046365
vertex -0.132080 0.087232 0.048123
vertex -0.063664 0.047732 0.048123
endloop
endfacet
facet normal 0.225556 0.390676 0.892467
outer loop
vertex -0.130341 0.090243 0.046365
vertex -0.063664 0.047732 0.048123
vertex -0.061925 0.050743 0.046365
endloop
endfacet
facet normal 0.292151 0.506020 0.811537
outer loop
vertex -0.128760 0.092981 0.044088
vertex -0.130341 0.090243 0.046365
vertex -0.061925 0.050743 0.046365
endloop
endfacet
facet normal 0.292150 0.506019 0.811538
outer loop
vertex -0.128760 0.092981 0.044088
vertex -0.061925 0.050743 0.046365
vertex -0.060344 0.053481 0.044088
endloop
endfacet
facet normal 0.351647 0.609071 0.710899
outer loop
vertex -0.127375 0.095380 0.041348
vertex -0.128760 0.092981 0.044088
vertex -0.060344 0.053481 0.044088
endloop
endfacet
facet normal 0.351648 0.609073 0.710896
outer loop
vertex -0.127375 0.095380 0.041348
vertex -0.060344 0.053481 0.044088
vertex -0.058959 0.055880 0.041348
endloop
endfacet
facet normal 0.402605 0.697330 0.592992
outer loop
vertex -0.126220 0.097381 0.038211
vertex -0.127375 0.095380 0.041348
vertex -0.058959 0.055880 0.041348
endloop
endfacet
facet normal 0.402603 0.697329 0.592995
outer loop
vertex -0.126220 0.097381 0.038211
vertex -0.058959 0.055880 0.041348
vertex -0.057804 0.057881 0.038211
endloop
endfacet
facet normal 0.443782 0.768653 0.460684
outer loop
vertex -0.125322 0.098935 0.034753
vertex -0.126220 0.097381 0.038211
vertex -0.057804 0.057881 0.038211
endloop
endfacet
facet normal 0.443782 0.768654 0.460683
outer loop
vertex -0.125322 0.098935 0.034753
vertex -0.057804 0.057881 0.038211
vertex -0.056906 0.059435 0.034753
endloop
endfacet
facet normal 0.474181 0.821307 0.317186
outer loop
vertex -0.124705 0.100005 0.031058
vertex -0.125322 0.098935 0.034753
vertex -0.056906 0.059435 0.034753
endloop
endfacet
facet normal 0.474182 0.821306 0.317188
outer loop
vertex -0.124705 0.100005 0.031058
vertex -0.056906 0.059435 0.034753
vertex -0.056289 0.060505 0.031058
endloop
endfacet
facet normal 0.493065 0.854012 0.165985
outer loop
vertex -0.124381 0.100565 0.027216
vertex -0.124705 0.100005 0.031058
vertex -0.056289 0.060505 0.031058
endloop
endfacet
facet normal 0.493064 0.854013 0.165984
outer loop
vertex -0.124381 0.100565 0.027216
vertex -0.056289 0.060505 0.031058
vertex -0.055965 0.061065 0.027216
endloop
endfacet
facet normal 0.499971 0.865975 0.010754
outer loop
vertex -0.124360 0.100602 0.023320
vertex -0.124381 0.100565 0.027216
vertex -0.055965 0.061065 0.027216
endloop
endfacet
facet normal 0.499971 0.865975 0.010753
outer loop
vertex -0.124360 0.100602 0.023320
vertex -0.055965 0.061065 0.027216
vertex -0.055944 0.061102 0.023320
endloop
endfacet
facet normal 0.494734 0.856906 -0.144741
outer loop
vertex -0.124642 0.100113 0.019465
vertex -0.124360 0.100602 0.023320
vertex -0.055944 0.061102 0.023320
endloop
endfacet
facet normal 0.494735 0.856906 -0.144737
outer loop
vertex -0.124642 0.100113 0.019465
vertex -0.055944 0.061102 0.023320
vertex -0.056226 0.060613 0.019465
endloop
endfacet
facet normal 0.477482 0.827023 -0.296722
outer loop
vertex -0.125220 0.099112 0.015744
vertex -0.124642 0.100113 0.019465
vertex -0.056226 0.060613 0.019465
endloop
endfacet
facet normal 0.477483 0.827024 -0.296718
outer loop
vertex -0.125220 0.099112 0.015744
vertex -0.056226 0.060613 0.019465
vertex -0.056804 0.059612 0.015744
endloop
endfacet
facet normal 0.448633 0.777055 -0.441491
outer loop
vertex -0.126080 0.097622 0.012248
vertex -0.125220 0.099112 0.015744
vertex -0.056804 0.059612 0.015744
endloop
endfacet
facet normal 0.448633 0.777056 -0.441490
outer loop
vertex -0.126080 0.097622 0.012248
vertex -0.056804 0.059612 0.015744
vertex -0.057664 0.058122 0.012248
endloop
endfacet
facet normal 0.408886 0.708212 -0.575541
outer loop
vertex -0.127202 0.095681 0.009062
vertex -0.126080 0.097622 0.012248
vertex -0.057664 0.058122 0.012248
endloop
endfacet
facet normal 0.408887 0.708213 -0.575540
outer loop
vertex -0.127202 0.095681 0.009062
vertex -0.057664 0.058122 0.012248
vertex -0.058786 0.056181 0.009062
endloop
endfacet
facet normal 0.359210 0.622170 -0.695609
outer loop
vertex -0.128557 0.093333 0.006263
vertex -0.127202 0.095681 0.009062
vertex -0.058786 0.056181 0.009062
endloop
endfacet
facet normal 0.359210 0.622170 -0.695610
outer loop
vertex -0.128557 0.093333 0.006263
vertex -0.058786 0.056181 0.009062
vertex -0.060141 0.053833 0.006263
endloop
endfacet
facet normal 0.300808 0.521015 -0.798786
outer loop
vertex -0.130113 0.090638 0.003919
vertex -0.128557 0.093333 0.006263
vertex -0.060141 0.053833 0.006263
endloop
endfacet
facet normal 0.300808 0.521014 -0.798786
outer loop
vertex -0.130113 0.090638 0.003919
vertex -0.060141 0.053833 0.006263
vertex -0.061697 0.051138 0.003919
endloop
endfacet
facet normal -0.500000 -0.866025 0.000000
outer loop
vertex 0.200248 -0.127160 0.000000
vertex 0.200248 -0.127160 0.002087
vertex -0.210248 0.109840 0.000000
endloop
endfacet
facet normal -0.500000 -0.866026 0.000000
outer loop
vertex -0.210248 0.109840 0.000000
vertex 0.200248 -0.127160 0.002087
vertex -0.210248 0.109840 0.002087
endloop
endfacet
facet normal -0.866026 0.499999 0.000000
outer loop
vertex -0.210248 0.109840 0.000000
vertex -0.210248 0.109840 0.002087
vertex -0.200248 0.127160 0.000000
endloop
endfacet
facet normal -0.866025 0.500000 0.000000
outer loop
vertex -0.200248 0.127160 0.000000
vertex -0.210248 0.109840 0.002087
vertex -0.200248 0.127160 0.002087
endloop
endfacet
facet normal -0.866025 0.500000 0.000007
outer loop
vertex -0.200248 0.127160 0.002087
vertex -0.210248 0.109840 0.002087
vertex -0.198574 0.130059 0.003861
endloop
endfacet
facet normal -0.866025 0.500001 0.000000
outer loop
vertex -0.198574 0.130059 0.003861
vertex -0.210248 0.109840 0.002087
vertex -0.197054 0.132692 0.006120
endloop
endfacet
facet normal -0.866025 0.500001 0.000000
outer loop
vertex -0.197054 0.132692 0.006120
vertex -0.210248 0.109840 0.002087
vertex -0.195722 0.135000 0.008813
endloop
endfacet
facet normal -0.866025 0.500001 0.000000
outer loop
vertex -0.195722 0.135000 0.008813
vertex -0.210248 0.109840 0.002087
vertex -0.194608 0.136928 0.011878
endloop
endfacet
facet normal -0.866024 0.500003 0.000000
outer loop
vertex -0.194608 0.136928 0.011878
vertex -0.210248 0.109840 0.002087
vertex -0.193739 0.138434 0.015243
endloop
endfacet
facet normal -0.866028 0.499996 0.000000
outer loop
vertex -0.193739 0.138434 0.015243
vertex -0.210248 0.109840 0.002087
vertex -0.193134 0.139482 0.018833
endloop
endfacet
facet normal -0.866026 0.499999 0.000004
outer loop
vertex -0.193134 0.139482 0.018833
vertex -0.210248 0.109840 0.002087
vertex -0.192808 0.140048 0.022564
endloop
endfacet
facet normal -0.866027 0.499997 -0.000004
outer loop
vertex -0.192808 0.140048 0.022564
vertex -0.210248 0.109840 0.002087
vertex -0.192766 0.140119 0.026352
endloop
endfacet
facet normal -0.866024 0.500002 -0.000003
outer loop
vertex -0.192766 0.140119 0.026352
vertex -0.210248 0.109840 0.002087
vertex -0.193012 0.139694 0.030108
endloop
endfacet
facet normal -0.866029 0.499994 0.000003
outer loop
vertex -0.193012 0.139694 0.030108
vertex -0.210248 0.109840 0.002087
vertex -0.193538 0.138782 0.033747
endloop
endfacet
facet normal -0.866024 0.500003 -0.000003
outer loop
vertex -0.193538 0.138782 0.033747
vertex -0.210248 0.109840 0.002087
vertex -0.194333 0.137405 0.037185
endloop
endfacet
facet normal -0.866026 0.500000 0.000000
outer loop
vertex -0.194333 0.137405 0.037185
vertex -0.210248 0.109840 0.002087
vertex -0.195379 0.135594 0.040343
endloop
endfacet
facet normal -0.866027 0.499998 0.000000
outer loop
vertex -0.195379 0.135594 0.040343
vertex -0.210248 0.109840 0.002087
vertex -0.196651 0.133390 0.043149
endloop
endfacet
facet normal -0.866029 0.499994 0.000000
outer loop
vertex -0.196651 0.133390 0.043149
vertex -0.210248 0.109840 0.002087
vertex -0.198121 0.130844 0.045539
endloop
endfacet
facet normal -0.866024 0.500003 -0.000001
outer loop
vertex -0.198121 0.130844 0.045539
vertex -0.210248 0.109840 0.002087
vertex -0.199755 0.128015 0.047456
endloop
endfacet
facet normal -0.866026 0.499999 0.000000
outer loop
vertex -0.199755 0.128015 0.047456
vertex -0.210248 0.109840 0.002087
vertex -0.201514 0.124967 0.048859
endloop
endfacet
facet normal -0.866019 0.500010 -0.000000
outer loop
vertex -0.201514 0.124967 0.048859
vertex -0.210248 0.109840 0.002087
vertex -0.211922 0.106941 0.003861
endloop
endfacet
facet normal -0.866026 0.499999 0.000001
outer loop
vertex -0.201514 0.124967 0.048859
vertex -0.211922 0.106941 0.003861
vertex -0.213442 0.104308 0.006120
endloop
endfacet
facet normal -0.866034 0.499986 0.000001
outer loop
vertex -0.213442 0.104308 0.006120
vertex -0.214774 0.102000 0.008813
vertex -0.201514 0.124967 0.048859
endloop
endfacet
facet normal -0.866019 0.500010 -0.000002
outer loop
vertex -0.201514 0.124967 0.048859
vertex -0.214774 0.102000 0.008813
vertex -0.215888 0.100072 0.011878
endloop
endfacet
facet normal -0.866028 0.499995 0.000002
outer loop
vertex -0.201514 0.124967 0.048859
vertex -0.215888 0.100072 0.011878
vertex -0.216757 0.098566 0.015243
endloop
endfacet
facet normal -0.866023 0.500004 -0.000002
outer loop
vertex -0.216757 0.098566 0.015243
vertex -0.217362 0.097518 0.018833
vertex -0.201514 0.124967 0.048859
endloop
endfacet
facet normal -0.866022 0.500005 -0.000002
outer loop
vertex -0.201514 0.124967 0.048859
vertex -0.217362 0.097518 0.018833
vertex -0.217689 0.096952 0.022564
endloop
endfacet
facet normal -0.866026 0.499999 0.000001
outer loop
vertex -0.201514 0.124967 0.048859
vertex -0.217689 0.096952 0.022564
vertex -0.217730 0.096881 0.026352
endloop
endfacet
facet normal -0.866029 0.499994 0.000000
outer loop
vertex -0.217730 0.096881 0.026352
vertex -0.217484 0.097306 0.030108
vertex -0.201514 0.124967 0.048859
endloop
endfacet
facet normal -0.866022 0.500006 0.000000
outer loop
vertex -0.201514 0.124967 0.048859
vertex -0.217484 0.097306 0.030108
vertex -0.203359 0.121771 0.049713
endloop
endfacet
facet normal -0.866026 0.499999 0.000001
outer loop
vertex -0.203359 0.121771 0.049713
vertex -0.217484 0.097306 0.030108
vertex -0.216958 0.098218 0.033747
endloop
endfacet
facet normal -0.866028 0.499995 0.000001
outer loop
vertex -0.203359 0.121771 0.049713
vertex -0.216958 0.098218 0.033747
vertex -0.216163 0.099595 0.037185
endloop
endfacet
facet normal -0.866024 0.500003 -0.000004
outer loop
vertex -0.216163 0.099595 0.037185
vertex -0.215117 0.101406 0.040343
vertex -0.203359 0.121771 0.049713
endloop
endfacet
facet normal -0.866025 0.500001 -0.000004
outer loop
vertex -0.203359 0.121771 0.049713
vertex -0.215117 0.101406 0.040343
vertex -0.213845 0.103610 0.043149
endloop
endfacet
facet normal -0.866024 0.500003 0.000009
outer loop
vertex -0.203359 0.121771 0.049713
vertex -0.213845 0.103610 0.043149
vertex -0.212375 0.106156 0.045539
endloop
endfacet
facet normal -0.866026 0.499999 -0.000006
outer loop
vertex -0.212375 0.106156 0.045539
vertex -0.210741 0.108985 0.047456
vertex -0.203359 0.121771 0.049713
endloop
endfacet
facet normal -0.866026 0.499999 -0.000007
outer loop
vertex -0.203359 0.121771 0.049713
vertex -0.210741 0.108985 0.047456
vertex -0.208982 0.112033 0.048859
endloop
endfacet
facet normal -0.866025 0.500001 0.000014
outer loop
vertex -0.203359 0.121771 0.049713
vertex -0.208982 0.112033 0.048859
vertex -0.207137 0.115229 0.049713
endloop
endfacet
facet normal -0.866030 0.499993 -0.000027
outer loop
vertex -0.207137 0.115229 0.049713
vertex -0.205248 0.118500 0.050000
vertex -0.203359 0.121771 0.049713
endloop
endfacet
facet normal 0.866025 -0.500000 0.000000
outer loop
vertex 0.200248 -0.127160 0.000000
vertex 0.210248 -0.109840 0.000000
vertex 0.200248 -0.127160 0.002087
endloop
endfacet
facet normal 0.866026 -0.499999 0.000000
outer loop
vertex 0.200248 -0.127160 0.002087
vertex 0.210248 -0.109840 0.000000
vertex 0.210248 -0.109840 0.002087
endloop
endfacet
facet normal 0.866025 -0.500000 -0.000004
outer loop
vertex 0.200248 -0.127160 0.002087
vertex 0.210248 -0.109840 0.002087
vertex 0.211922 -0.106941 0.003861
endloop
endfacet
facet normal 0.866025 -0.500001 0.000000
outer loop
vertex 0.211922 -0.106941 0.003861
vertex 0.213442 -0.104308 0.006120
vertex 0.200248 -0.127160 0.002087
endloop
endfacet
facet normal 0.866026 -0.499999 0.000002
outer loop
vertex 0.200248 -0.127160 0.002087
vertex 0.213442 -0.104308 0.006120
vertex 0.214774 -0.102000 0.008813
endloop
endfacet
facet normal 0.866026 -0.499999 -0.000002
outer loop
vertex 0.200248 -0.127160 0.002087
vertex 0.214774 -0.102000 0.008813
vertex 0.215888 -0.100072 0.011878
endloop
endfacet
facet normal 0.866023 -0.500003 0.000003
outer loop
vertex 0.215888 -0.100072 0.011878
vertex 0.216757 -0.098566 0.015243
vertex 0.200248 -0.127160 0.002087
endloop
endfacet
facet normal 0.866028 -0.499996 -0.000002
outer loop
vertex 0.200248 -0.127160 0.002087
vertex 0.216757 -0.098566 0.015243
vertex 0.217362 -0.097518 0.018833
endloop
endfacet
facet normal 0.866025 -0.500001 -0.000002
outer loop
vertex 0.200248 -0.127160 0.002087
vertex 0.217362 -0.097518 0.018833
vertex 0.217689 -0.096952 0.022564
endloop
endfacet
facet normal 0.866028 -0.499996 0.000000
outer loop
vertex 0.217689 -0.096952 0.022564
vertex 0.217730 -0.096881 0.026352
vertex 0.200248 -0.127160 0.002087
endloop
endfacet
facet normal 0.866023 -0.500004 0.000000
outer loop
vertex 0.200248 -0.127160 0.002087
vertex 0.217730 -0.096881 0.026352
vertex 0.217484 -0.097306 0.030108
endloop
endfacet
facet normal 0.866026 -0.499999 -0.000001
outer loop
vertex 0.200248 -0.127160 0.002087
vertex 0.217484 -0.097306 0.030108
vertex 0.216958 -0.098218 0.033747
endloop
endfacet
facet normal 0.866022 -0.500006 0.000001
outer loop
vertex 0.216958 -0.098218 0.033747
vertex 0.216163 -0.099595 0.037185
vertex 0.200248 -0.127160 0.002087
endloop
endfacet
facet normal 0.866033 -0.499987 -0.000002
outer loop
vertex 0.200248 -0.127160 0.002087
vertex 0.216163 -0.099595 0.037185
vertex 0.215117 -0.101406 0.040343
endloop
endfacet
facet normal 0.866022 -0.500005 0.000001
outer loop
vertex 0.200248 -0.127160 0.002087
vertex 0.215117 -0.101406 0.040343
vertex 0.213845 -0.103610 0.043149
endloop
endfacet
facet normal 0.866024 -0.500002 0.000001
outer loop
vertex 0.213845 -0.103610 0.043149
vertex 0.212375 -0.106156 0.045539
vertex 0.200248 -0.127160 0.002087
endloop
endfacet
facet normal 0.866026 -0.499999 -0.000001
outer loop
vertex 0.200248 -0.127160 0.002087
vertex 0.212375 -0.106156 0.045539
vertex 0.210741 -0.108985 0.047456
endloop
endfacet
facet normal 0.866023 -0.500005 0.000000
outer loop
vertex 0.200248 -0.127160 0.002087
vertex 0.210741 -0.108985 0.047456
vertex 0.208982 -0.112033 0.048859
endloop
endfacet
facet normal 0.866026 -0.500000 -0.000005
outer loop
vertex 0.207137 -0.115229 0.049713
vertex 0.193012 -0.139694 0.030108
vertex 0.208982 -0.112033 0.048859
endloop
endfacet
facet normal 0.866026 -0.499998 0.000001
outer loop
vertex 0.208982 -0.112033 0.048859
vertex 0.193012 -0.139694 0.030108
vertex 0.192766 -0.140119 0.026352
endloop
endfacet
facet normal 0.866027 -0.499997 0.000001
outer loop
vertex 0.208982 -0.112033 0.048859
vertex 0.192766 -0.140119 0.026352
vertex 0.192808 -0.140048 0.022564
endloop
endfacet
facet normal 0.866030 -0.499993 0.000027
outer loop
vertex 0.205248 -0.118500 0.050000
vertex 0.203359 -0.121771 0.049713
vertex 0.207137 -0.115229 0.049713
endloop
endfacet
facet normal 0.866025 -0.500001 -0.000005
outer loop
vertex 0.207137 -0.115229 0.049713
vertex 0.203359 -0.121771 0.049713
vertex 0.201514 -0.124967 0.048859
endloop
endfacet
facet normal 0.866024 -0.500003 0.000002
outer loop
vertex 0.207137 -0.115229 0.049713
vertex 0.201514 -0.124967 0.048859
vertex 0.199755 -0.128015 0.047456
endloop
endfacet
facet normal 0.866025 -0.500001 0.000000
outer loop
vertex 0.199755 -0.128015 0.047456
vertex 0.198121 -0.130844 0.045539
vertex 0.207137 -0.115229 0.049713
endloop
endfacet
facet normal 0.866023 -0.500005 0.000006
outer loop
vertex 0.207137 -0.115229 0.049713
vertex 0.198121 -0.130844 0.045539
vertex 0.196651 -0.133390 0.043149
endloop
endfacet
facet normal 0.866026 -0.499999 -0.000004
outer loop
vertex 0.207137 -0.115229 0.049713
vertex 0.196651 -0.133390 0.043149
vertex 0.195379 -0.135594 0.040343
endloop
endfacet
facet normal 0.866025 -0.500001 0.000009
outer loop
vertex 0.195379 -0.135594 0.040343
vertex 0.194333 -0.137405 0.037185
vertex 0.207137 -0.115229 0.049713
endloop
endfacet
facet normal 0.866026 -0.499998 -0.000003
outer loop
vertex 0.207137 -0.115229 0.049713
vertex 0.194333 -0.137405 0.037185
vertex 0.193538 -0.138782 0.033747
endloop
endfacet
facet normal 0.866026 -0.500000 0.000001
outer loop
vertex 0.207137 -0.115229 0.049713
vertex 0.193538 -0.138782 0.033747
vertex 0.193012 -0.139694 0.030108
endloop
endfacet
facet normal 0.866024 -0.500003 0.000000
outer loop
vertex 0.192808 -0.140048 0.022564
vertex 0.193134 -0.139482 0.018833
vertex 0.208982 -0.112033 0.048859
endloop
endfacet
facet normal 0.866028 -0.499996 -0.000004
outer loop
vertex 0.208982 -0.112033 0.048859
vertex 0.193134 -0.139482 0.018833
vertex 0.193739 -0.138434 0.015243
endloop
endfacet
facet normal 0.866025 -0.500001 0.000000
outer loop
vertex 0.208982 -0.112033 0.048859
vertex 0.193739 -0.138434 0.015243
vertex 0.194608 -0.136928 0.011878
endloop
endfacet
facet normal 0.866022 -0.500005 0.000001
outer loop
vertex 0.194608 -0.136928 0.011878
vertex 0.195722 -0.135000 0.008813
vertex 0.208982 -0.112033 0.048859
endloop
endfacet
facet normal 0.866028 -0.499996 0.000000
outer loop
vertex 0.208982 -0.112033 0.048859
vertex 0.195722 -0.135000 0.008813
vertex 0.197054 -0.132692 0.006120
endloop
endfacet
facet normal 0.866026 -0.499999 -0.000001
outer loop
vertex 0.208982 -0.112033 0.048859
vertex 0.197054 -0.132692 0.006120
vertex 0.198574 -0.130059 0.003861
endloop
endfacet
facet normal 0.866022 -0.500005 0.000000
outer loop
vertex 0.198574 -0.130059 0.003861
vertex 0.200248 -0.127160 0.002087
vertex 0.208982 -0.112033 0.048859
endloop
endfacet
solid cylinder
