solid cylinder
facet normal 0.000000 0.000000 -1.000000
outer loop
vertex 0.226127 -0.071662 0.000000
vertex 0.219287 -0.090456 0.000000
vertex -0.219287 0.090456 0.000000
endloop
endfacet
facet normal 0.000000 0.000000 -1.000000
outer loop
vertex -0.219287 0.090456 0.000000
vertex 0.219287 -0.090456 0.000000
vertex -0.226127 0.071662 0.000000
endloop
endfacet
facet normal 0.342020 0.939693 0.000000
outer loop
vertex 0.226127 -0.071662 0.002087
vertex 0.226127 -0.071662 0.000000
vertex -0.219287 0.090456 0.002087
endloop
endfacet
facet normal 0.342020 0.939693 0.000000
outer loop
vertex -0.219287 0.090456 0.002087
vertex 0.226127 -0.071662 0.000000
vertex -0.219287 0.090456 0.000000
endloop
endfacet
facet normal -0.160264 -0.440009 -0.883576
outer loop
vertex 0.218142 -0.093601 0.003861
vertex 0.143875 -0.066667 0.003919
vertex 0.219287 -0.090456 0.002087
endloop
endfacet
facet normal -0.160817 -0.441842 -0.882561
outer loop
vertex 0.219287 -0.090456 0.002087
vertex 0.143875 -0.066667 0.003919
vertex 0.069639 -0.039648 0.003919
endloop
endfacet
facet normal -0.160819 -0.441846 -0.882559
outer loop
vertex 0.219287 -0.090456 0.002087
vertex 0.069639 -0.039648 0.003919
vertex -0.004596 -0.012628 0.003919
endloop
endfacet
facet normal -0.205765 -0.565335 -0.798785
outer loop
vertex -0.004596 -0.012628 0.003919
vertex 0.069639 -0.039648 0.003919
vertex -0.005661 -0.015553 0.006263
endloop
endfacet
facet normal -0.205765 -0.565334 -0.798785
outer loop
vertex -0.004596 -0.012628 0.003919
vertex -0.005661 -0.015553 0.006263
vertex -0.079896 0.011467 0.006263
endloop
endfacet
facet normal -0.245714 -0.675093 -0.695610
outer loop
vertex -0.079896 0.011467 0.006263
vertex -0.005661 -0.015553 0.006263
vertex -0.080823 0.008920 0.009062
endloop
endfacet
facet normal -0.245714 -0.675094 -0.695610
outer loop
vertex -0.079896 0.011467 0.006263
vertex -0.080823 0.008920 0.009062
vertex -0.155059 0.035940 0.009062
endloop
endfacet
facet normal -0.279695 -0.768456 -0.575540
outer loop
vertex -0.155059 0.035940 0.009062
vertex -0.080823 0.008920 0.009062
vertex -0.155826 0.033833 0.012248
endloop
endfacet
facet normal -0.279338 -0.768585 -0.575540
outer loop
vertex -0.155059 0.035940 0.009062
vertex -0.155826 0.033833 0.012248
vertex -0.229985 0.061063 0.011878
endloop
endfacet
facet normal -0.304226 -0.834778 -0.458903
outer loop
vertex -0.229985 0.061063 0.011878
vertex -0.155826 0.033833 0.012248
vertex -0.230580 0.059429 0.015243
endloop
endfacet
facet normal -0.306450 -0.843312 -0.441490
outer loop
vertex -0.230580 0.059429 0.015243
vertex -0.155826 0.033833 0.012248
vertex -0.156414 0.032216 0.015744
endloop
endfacet
facet normal -0.324524 -0.890321 -0.319395
outer loop
vertex -0.230580 0.059429 0.015243
vertex -0.156414 0.032216 0.015744
vertex -0.230993 0.058292 0.018833
endloop
endfacet
facet normal -0.326115 -0.897556 -0.296719
outer loop
vertex -0.230993 0.058292 0.018833
vertex -0.156414 0.032216 0.015744
vertex -0.156810 0.031130 0.019465
endloop
endfacet
facet normal -0.337375 -0.925421 -0.172552
outer loop
vertex -0.230993 0.058292 0.018833
vertex -0.156810 0.031130 0.019465
vertex -0.231217 0.057678 0.022564
endloop
endfacet
facet normal -0.337852 -0.930003 -0.144741
outer loop
vertex -0.231217 0.057678 0.022564
vertex -0.156810 0.031130 0.019465
vertex -0.157003 0.030600 0.023320
endloop
endfacet
facet normal -0.342486 -0.939271 -0.021744
outer loop
vertex -0.231217 0.057678 0.022564
vertex -0.157003 0.030600 0.023320
vertex -0.231245 0.057601 0.026352
endloop
endfacet
facet normal -0.341376 -0.939865 0.010753
outer loop
vertex -0.231245 0.057601 0.026352
vertex -0.157003 0.030600 0.023320
vertex -0.156988 0.030639 0.027216
endloop
endfacet
facet normal -0.339740 -0.931553 0.129556
outer loop
vertex -0.231245 0.057601 0.026352
vertex -0.156988 0.030639 0.027216
vertex -0.231077 0.058062 0.030108
endloop
endfacet
facet normal -0.336598 -0.926904 0.165984
outer loop
vertex -0.231077 0.058062 0.030108
vertex -0.156988 0.030639 0.027216
vertex -0.156767 0.031247 0.031058
endloop
endfacet
facet normal -0.329202 -0.902443 0.277889
outer loop
vertex -0.231077 0.058062 0.030108
vertex -0.156767 0.031247 0.031058
vertex -0.230717 0.059051 0.033747
endloop
endfacet
facet normal -0.323633 -0.891434 0.317186
outer loop
vertex -0.230717 0.059051 0.033747
vertex -0.156767 0.031247 0.031058
vertex -0.156344 0.032408 0.034753
endloop
endfacet
facet normal -0.311115 -0.852611 0.419835
outer loop
vertex -0.230717 0.059051 0.033747
vertex -0.156344 0.032408 0.034753
vertex -0.230173 0.060546 0.037185
endloop
endfacet
facet normal -0.302798 -0.834317 0.460683
outer loop
vertex -0.230173 0.060546 0.037185
vertex -0.156344 0.032408 0.034753
vertex -0.155731 0.034095 0.038211
endloop
endfacet
facet normal -0.285895 -0.783198 0.552145
outer loop
vertex -0.230173 0.060546 0.037185
vertex -0.155731 0.034095 0.038211
vertex -0.229458 0.062511 0.040343
endloop
endfacet
facet normal -0.274593 -0.756939 0.592994
outer loop
vertex -0.229458 0.062511 0.040343
vertex -0.155731 0.034095 0.038211
vertex -0.154940 0.036266 0.041348
endloop
endfacet
facet normal -0.254122 -0.695798 0.671778
outer loop
vertex -0.229458 0.062511 0.040343
vertex -0.154940 0.036266 0.041348
vertex -0.228588 0.064902 0.043149
endloop
endfacet
facet normal -0.239708 -0.661185 0.710897
outer loop
vertex -0.228588 0.064902 0.043149
vertex -0.154940 0.036266 0.041348
vertex -0.153993 0.038869 0.044088
endloop
endfacet
facet normal -0.216528 -0.592422 0.775984
outer loop
vertex -0.228588 0.064902 0.043149
vertex -0.153993 0.038869 0.044088
vertex -0.227582 0.067665 0.045539
endloop
endfacet
facet normal -0.198982 -0.549374 0.811538
outer loop
vertex -0.227582 0.067665 0.045539
vertex -0.153993 0.038869 0.044088
vertex -0.152912 0.041840 0.046365
endloop
endfacet
facet normal -0.173974 -0.475434 0.862378
outer loop
vertex -0.227582 0.067665 0.045539
vertex -0.152912 0.041840 0.046365
vertex -0.226465 0.070735 0.047456
endloop
endfacet
facet normal -0.153410 -0.424228 0.892466
outer loop
vertex -0.226465 0.070735 0.047456
vertex -0.152912 0.041840 0.046365
vertex -0.151722 0.045107 0.048123
endloop
endfacet
facet normal -0.127439 -0.347529 0.928969
outer loop
vertex -0.226465 0.070735 0.047456
vertex -0.151722 0.045107 0.048123
vertex -0.225261 0.074041 0.048859
endloop
endfacet
facet normal -0.104097 -0.288783 0.951718
outer loop
vertex -0.225261 0.074041 0.048859
vertex -0.151722 0.045107 0.048123
vertex -0.150454 0.048592 0.049319
endloop
endfacet
facet normal -0.077990 -0.211637 0.974232
outer loop
vertex -0.225261 0.074041 0.048859
vertex -0.150454 0.048592 0.049319
vertex -0.223999 0.077509 0.049713
endloop
endfacet
facet normal -0.052238 -0.146330 0.987856
outer loop
vertex -0.223999 0.077509 0.049713
vertex -0.150454 0.048592 0.049319
vertex -0.149138 0.052209 0.049924
endloop
endfacet
facet normal -0.026767 -0.070884 0.997125
outer loop
vertex -0.223999 0.077509 0.049713
vertex -0.149138 0.052209 0.049924
vertex -0.222707 0.081059 0.050000
endloop
endfacet
facet normal 0.000904 -0.000329 1.000000
outer loop
vertex -0.222707 0.081059 0.050000
vertex -0.149138 0.052209 0.049924
vertex -0.147805 0.055870 0.049924
endloop
endfacet
facet normal 0.025059 0.071506 0.997125
outer loop
vertex -0.222707 0.081059 0.050000
vertex -0.147805 0.055870 0.049924
vertex -0.221415 0.084608 0.049713
endloop
endfacet
facet normal 0.054041 0.145673 0.987856
outer loop
vertex -0.221415 0.084608 0.049713
vertex -0.147805 0.055870 0.049924
vertex -0.146489 0.059487 0.049319
endloop
endfacet
facet normal 0.076294 0.212255 0.974232
outer loop
vertex -0.221415 0.084608 0.049713
vertex -0.146489 0.059487 0.049319
vertex -0.220153 0.088076 0.048859
endloop
endfacet
facet normal 0.105884 0.288134 0.951718
outer loop
vertex -0.220153 0.088076 0.048859
vertex -0.146489 0.059487 0.049319
vertex -0.145221 0.062971 0.048123
endloop
endfacet
facet normal 0.125763 0.348136 0.928970
outer loop
vertex -0.220153 0.088076 0.048859
vertex -0.145221 0.062971 0.048123
vertex -0.218949 0.091383 0.047456
endloop
endfacet
facet normal 0.155169 0.423588 0.892466
outer loop
vertex -0.218949 0.091383 0.047456
vertex -0.145221 0.062971 0.048123
vertex -0.144031 0.066238 0.046365
endloop
endfacet
facet normal 0.172332 0.476031 0.862378
outer loop
vertex -0.218949 0.091383 0.047456
vertex -0.144031 0.066238 0.046365
vertex -0.217832 0.094453 0.045539
endloop
endfacet
facet normal 0.200702 0.548752 0.811536
outer loop
vertex -0.217832 0.094453 0.045539
vertex -0.144031 0.066238 0.046365
vertex -0.142950 0.069210 0.044088
endloop
endfacet
facet normal 0.214931 0.593001 0.775986
outer loop
vertex -0.217832 0.094453 0.045539
vertex -0.142950 0.069210 0.044088
vertex -0.216827 0.097215 0.043149
endloop
endfacet
facet normal 0.241375 0.660577 0.710898
outer loop
vertex -0.216827 0.097215 0.043149
vertex -0.142950 0.069210 0.044088
vertex -0.142003 0.071812 0.041348
endloop
endfacet
facet normal 0.252582 0.696360 0.671778
outer loop
vertex -0.216827 0.097215 0.043149
vertex -0.142003 0.071812 0.041348
vertex -0.215956 0.099606 0.040343
endloop
endfacet
facet normal 0.276200 0.756354 0.592994
outer loop
vertex -0.215956 0.099606 0.040343
vertex -0.142003 0.071812 0.041348
vertex -0.141212 0.073983 0.038211
endloop
endfacet
facet normal 0.284422 0.783735 0.552145
outer loop
vertex -0.215956 0.099606 0.040343
vertex -0.141212 0.073983 0.038211
vertex -0.215241 0.101572 0.037185
endloop
endfacet
facet normal 0.304332 0.833759 0.460683
outer loop
vertex -0.215241 0.101572 0.037185
vertex -0.141212 0.073983 0.038211
vertex -0.140598 0.075670 0.034753
endloop
endfacet
facet normal 0.309720 0.853118 0.419837
outer loop
vertex -0.215241 0.101572 0.037185
vertex -0.140598 0.075670 0.034753
vertex -0.214697 0.103066 0.033747
endloop
endfacet
facet normal 0.325085 0.890906 0.317185
outer loop
vertex -0.214697 0.103066 0.033747
vertex -0.140598 0.075670 0.034753
vertex -0.140176 0.076831 0.031058
endloop
endfacet
facet normal 0.327897 0.902918 0.277890
outer loop
vertex -0.214697 0.103066 0.033747
vertex -0.140176 0.076831 0.031058
vertex -0.214337 0.104056 0.030108
endloop
endfacet
facet normal 0.337954 0.926411 0.165983
outer loop
vertex -0.214337 0.104056 0.030108
vertex -0.140176 0.076831 0.031058
vertex -0.139955 0.077439 0.027216
endloop
endfacet
facet normal 0.338535 0.931992 0.129561
outer loop
vertex -0.214337 0.104056 0.030108
vertex -0.139955 0.077439 0.027216
vertex -0.214169 0.104517 0.026352
endloop
endfacet
facet normal 0.342625 0.939411 0.010752
outer loop
vertex -0.214169 0.104517 0.026352
vertex -0.139955 0.077439 0.027216
vertex -0.139940 0.077478 0.023320
endloop
endfacet
facet normal 0.341392 0.939669 -0.021744
outer loop
vertex -0.214169 0.104517 0.026352
vertex -0.139940 0.077478 0.023320
vertex -0.214197 0.104439 0.022564
endloop
endfacet
facet normal 0.338985 0.929591 -0.144743
outer loop
vertex -0.214197 0.104439 0.022564
vertex -0.139940 0.077478 0.023320
vertex -0.140133 0.076948 0.019465
endloop
endfacet
facet normal 0.336405 0.925774 -0.172551
outer loop
vertex -0.214197 0.104439 0.022564
vertex -0.140133 0.076948 0.019465
vertex -0.214421 0.103825 0.018833
endloop
endfacet
facet normal 0.327119 0.897190 -0.296722
outer loop
vertex -0.214421 0.103825 0.018833
vertex -0.140133 0.076948 0.019465
vertex -0.140529 0.075862 0.015744
endloop
endfacet
facet normal 0.323688 0.890627 -0.319391
outer loop
vertex -0.214421 0.103825 0.018833
vertex -0.140529 0.075862 0.015744
vertex -0.214835 0.102688 0.015243
endloop
endfacet
facet normal 0.307315 0.842996 -0.441492
outer loop
vertex -0.214835 0.102688 0.015243
vertex -0.140529 0.075862 0.015744
vertex -0.141117 0.074246 0.012248
endloop
endfacet
facet normal 0.303534 0.835030 -0.458903
outer loop
vertex -0.214835 0.102688 0.015243
vertex -0.141117 0.074246 0.012248
vertex -0.215429 0.101055 0.011878
endloop
endfacet
facet normal 0.280053 0.768328 -0.575537
outer loop
vertex -0.215429 0.101055 0.011878
vertex -0.141117 0.074246 0.012248
vertex -0.141884 0.072139 0.009062
endloop
endfacet
facet normal 0.276409 0.760261 -0.587879
outer loop
vertex -0.215429 0.101055 0.011878
vertex -0.141884 0.072139 0.009062
vertex -0.216191 0.098962 0.008813
endloop
endfacet
facet normal 0.245990 0.674994 -0.695609
outer loop
vertex -0.216191 0.098962 0.008813
vertex -0.141884 0.072139 0.009062
vertex -0.142811 0.069592 0.006263
endloop
endfacet
facet normal 0.242937 0.668038 -0.703354
outer loop
vertex -0.216191 0.098962 0.008813
vertex -0.142811 0.069592 0.006263
vertex -0.217102 0.096458 0.006120
endloop
endfacet
facet normal 0.205955 0.565265 -0.798785
outer loop
vertex -0.217102 0.096458 0.006120
vertex -0.142811 0.069592 0.006263
vertex -0.143875 0.066667 0.003919
endloop
endfacet
facet normal 0.203890 0.560478 -0.802679
outer loop
vertex -0.217102 0.096458 0.006120
vertex -0.143875 0.066667 0.003919
vertex -0.218142 0.093601 0.003861
endloop
endfacet
facet normal 0.160265 0.440011 -0.883576
outer loop
vertex -0.218142 0.093601 0.003861
vertex -0.143875 0.066667 0.003919
vertex -0.219287 0.090456 0.002087
endloop
endfacet
facet normal 0.160818 0.441844 -0.882560
outer loop
vertex -0.219287 0.090456 0.002087
vertex -0.143875 0.066667 0.003919
vertex -0.069639 0.039648 0.003919
endloop
endfacet
facet normal 0.160818 0.441844 -0.882559
outer loop
vertex -0.219287 0.090456 0.002087
vertex -0.069639 0.039648 0.003919
vertex 0.004596 0.012628 0.003919
endloop
endfacet
facet normal 0.205765 0.565335 -0.798785
outer loop
vertex 0.004596 0.012628 0.003919
vertex -0.069639 0.039648 0.003919
vertex 0.005661 0.015553 0.006263
endloop
endfacet
facet normal 0.205765 0.565335 -0.798785
outer loop
vertex 0.004596 0.012628 0.003919
vertex 0.005661 0.015553 0.006263
vertex 0.079896 -0.011467 0.006263
endloop
endfacet
facet normal 0.245714 0.675093 -0.695610
outer loop
vertex 0.079896 -0.011467 0.006263
vertex 0.005661 0.015553 0.006263
vertex 0.080823 -0.008920 0.009062
endloop
endfacet
facet normal 0.245714 0.675093 -0.695610
outer loop
vertex 0.079896 -0.011467 0.006263
vertex 0.080823 -0.008920 0.009062
vertex 0.155059 -0.035940 0.009062
endloop
endfacet
facet normal 0.279695 0.768456 -0.575540
outer loop
vertex 0.155059 -0.035940 0.009062
vertex 0.080823 -0.008920 0.009062
vertex 0.155826 -0.033833 0.012248
endloop
endfacet
facet normal 0.279338 0.768586 -0.575539
outer loop
vertex 0.155059 -0.035940 0.009062
vertex 0.155826 -0.033833 0.012248
vertex 0.229985 -0.061063 0.011878
endloop
endfacet
facet normal 0.304226 0.834777 -0.458905
outer loop
vertex 0.229985 -0.061063 0.011878
vertex 0.155826 -0.033833 0.012248
vertex 0.230580 -0.059429 0.015243
endloop
endfacet
facet normal 0.306450 0.843312 -0.441490
outer loop
vertex 0.230580 -0.059429 0.015243
vertex 0.155826 -0.033833 0.012248
vertex 0.156414 -0.032216 0.015744
endloop
endfacet
facet normal 0.324524 0.890321 -0.319395
outer loop
vertex 0.230580 -0.059429 0.015243
vertex 0.156414 -0.032216 0.015744
vertex 0.230993 -0.058292 0.018833
endloop
endfacet
facet normal 0.326115 0.897556 -0.296719
outer loop
vertex 0.230993 -0.058292 0.018833
vertex 0.156414 -0.032216 0.015744
vertex 0.156810 -0.031130 0.019465
endloop
endfacet
facet normal 0.337376 0.925421 -0.172552
outer loop
vertex 0.230993 -0.058292 0.018833
vertex 0.156810 -0.031130 0.019465
vertex 0.231217 -0.057678 0.022564
endloop
endfacet
facet normal 0.337852 0.930003 -0.144741
outer loop
vertex 0.231217 -0.057678 0.022564
vertex 0.156810 -0.031130 0.019465
vertex 0.157003 -0.030600 0.023320
endloop
endfacet
facet normal 0.342486 0.939271 -0.021742
outer loop
vertex 0.231217 -0.057678 0.022564
vertex 0.157003 -0.030600 0.023320
vertex 0.231245 -0.057601 0.026352
endloop
endfacet
facet normal 0.341375 0.939865 0.010753
outer loop
vertex 0.231245 -0.057601 0.026352
vertex 0.157003 -0.030600 0.023320
vertex 0.156988 -0.030639 0.027216
endloop
endfacet
facet normal 0.339740 0.931553 0.129555
outer loop
vertex 0.231245 -0.057601 0.026352
vertex 0.156988 -0.030639 0.027216
vertex 0.231077 -0.058062 0.030108
endloop
endfacet
facet normal 0.336598 0.926904 0.165986
outer loop
vertex 0.231077 -0.058062 0.030108
vertex 0.156988 -0.030639 0.027216
vertex 0.156767 -0.031247 0.031058
endloop
endfacet
facet normal 0.329202 0.902443 0.277889
outer loop
vertex 0.231077 -0.058062 0.030108
vertex 0.156767 -0.031247 0.031058
vertex 0.230717 -0.059051 0.033747
endloop
endfacet
facet normal 0.323633 0.891434 0.317186
outer loop
vertex 0.230717 -0.059051 0.033747
vertex 0.156767 -0.031247 0.031058
vertex 0.156344 -0.032408 0.034753
endloop
endfacet
facet normal 0.311115 0.852611 0.419835
outer loop
vertex 0.230717 -0.059051 0.033747
vertex 0.156344 -0.032408 0.034753
vertex 0.230173 -0.060546 0.037185
endloop
endfacet
facet normal 0.302798 0.834317 0.460683
outer loop
vertex 0.230173 -0.060546 0.037185
vertex 0.156344 -0.032408 0.034753
vertex 0.155731 -0.034095 0.038211
endloop
endfacet
facet normal 0.285895 0.783199 0.552144
outer loop
vertex 0.230173 -0.060546 0.037185
vertex 0.155731 -0.034095 0.038211
vertex 0.229458 -0.062511 0.040343
endloop
endfacet
facet normal 0.274593 0.756939 0.592994
outer loop
vertex 0.229458 -0.062511 0.040343
vertex 0.155731 -0.034095 0.038211
vertex 0.154940 -0.036266 0.041348
endloop
endfacet
facet normal 0.254122 0.695798 0.671778
outer loop
vertex 0.229458 -0.062511 0.040343
vertex 0.154940 -0.036266 0.041348
vertex 0.228588 -0.064902 0.043149
endloop
endfacet
facet normal 0.239707 0.661184 0.710898
outer loop
vertex 0.228588 -0.064902 0.043149
vertex 0.154940 -0.036266 0.041348
vertex 0.153993 -0.038869 0.044088
endloop
endfacet
facet normal 0.216527 0.592422 0.775985
outer loop
vertex 0.228588 -0.064902 0.043149
vertex 0.153993 -0.038869 0.044088
vertex 0.227582 -0.067665 0.045539
endloop
endfacet
facet normal 0.198982 0.549376 0.811537
outer loop
vertex 0.227582 -0.067665 0.045539
vertex 0.153993 -0.038869 0.044088
vertex 0.152912 -0.041840 0.046365
endloop
endfacet
facet normal 0.173974 0.475434 0.862378
outer loop
vertex 0.227582 -0.067665 0.045539
vertex 0.152912 -0.041840 0.046365
vertex 0.226465 -0.070735 0.047456
endloop
endfacet
facet normal 0.153410 0.424228 0.892466
outer loop
vertex 0.226465 -0.070735 0.047456
vertex 0.152912 -0.041840 0.046365
vertex 0.151722 -0.045107 0.048123
endloop
endfacet
facet normal 0.127438 0.347527 0.928970
outer loop
vertex 0.226465 -0.070735 0.047456
vertex 0.151722 -0.045107 0.048123
vertex 0.225261 -0.074041 0.048859
endloop
endfacet
facet normal 0.104098 0.288784 0.951718
outer loop
vertex 0.225261 -0.074041 0.048859
vertex 0.151722 -0.045107 0.048123
vertex 0.150454 -0.048592 0.049319
endloop
endfacet
facet normal 0.077991 0.211638 0.974231
outer loop
vertex 0.225261 -0.074041 0.048859
vertex 0.150454 -0.048592 0.049319
vertex 0.223999 -0.077509 0.049713
endloop
endfacet
facet normal 0.052238 0.146330 0.987856
outer loop
vertex 0.223999 -0.077509 0.049713
vertex 0.150454 -0.048592 0.049319
vertex 0.149138 -0.052209 0.049924
endloop
endfacet
facet normal 0.026767 0.070884 0.997125
outer loop
vertex 0.223999 -0.077509 0.049713
vertex 0.149138 -0.052209 0.049924
vertex 0.222707 -0.081059 0.050000
endloop
endfacet
facet normal -0.000904 0.000329 1.000000
outer loop
vertex 0.222707 -0.081059 0.050000
vertex 0.149138 -0.052209 0.049924
vertex 0.147805 -0.055870 0.049924
endloop
endfacet
facet normal -0.025059 -0.071505 0.997125
outer loop
vertex 0.222707 -0.081059 0.050000
vertex 0.147805 -0.055870 0.049924
vertex 0.221415 -0.084608 0.049713
endloop
endfacet
facet normal -0.054041 -0.145673 0.987856
outer loop
vertex 0.221415 -0.084608 0.049713
vertex 0.147805 -0.055870 0.049924
vertex 0.146489 -0.059486 0.049319
endloop
endfacet
facet normal -0.076294 -0.212254 0.974232
outer loop
vertex 0.221415 -0.084608 0.049713
vertex 0.146489 -0.059486 0.049319
vertex 0.220153 -0.088076 0.048859
endloop
endfacet
facet normal -0.105883 -0.288134 0.951718
outer loop
vertex 0.220153 -0.088076 0.048859
vertex 0.146489 -0.059486 0.049319
vertex 0.145221 -0.062971 0.048123
endloop
endfacet
facet normal -0.125764 -0.348137 0.928969
outer loop
vertex 0.220153 -0.088076 0.048859
vertex 0.145221 -0.062971 0.048123
vertex 0.218949 -0.091383 0.047456
endloop
endfacet
facet normal -0.155169 -0.423588 0.892466
outer loop
vertex 0.218949 -0.091383 0.047456
vertex 0.145221 -0.062971 0.048123
vertex 0.144031 -0.066238 0.046365
endloop
endfacet
facet normal -0.172332 -0.476032 0.862378
outer loop
vertex 0.218949 -0.091383 0.047456
vertex 0.144031 -0.066238 0.046365
vertex 0.217832 -0.094453 0.045539
endloop
endfacet
facet normal -0.200702 -0.548750 0.811537
outer loop
vertex 0.217832 -0.094453 0.045539
vertex 0.144031 -0.066238 0.046365
vertex 0.142950 -0.069210 0.044088
endloop
endfacet
facet normal -0.214932 -0.593002 0.775985
outer loop
vertex 0.217832 -0.094453 0.045539
vertex 0.142950 -0.069210 0.044088
vertex 0.216827 -0.097215 0.043149
endloop
endfacet
facet normal -0.241375 -0.660576 0.710898
outer loop
vertex 0.216827 -0.097215 0.043149
vertex 0.142950 -0.069210 0.044088
vertex 0.142003 -0.071812 0.041348
endloop
endfacet
facet normal -0.252583 -0.696361 0.671776
outer loop
vertex 0.216827 -0.097215 0.043149
vertex 0.142003 -0.071812 0.041348
vertex 0.215956 -0.099606 0.040343
endloop
endfacet
facet normal -0.276200 -0.756352 0.592996
outer loop
vertex 0.215956 -0.099606 0.040343
vertex 0.142003 -0.071812 0.041348
vertex 0.141212 -0.073983 0.038211
endloop
endfacet
facet normal -0.284422 -0.783736 0.552142
outer loop
vertex 0.215956 -0.099606 0.040343
vertex 0.141212 -0.073983 0.038211
vertex 0.215241 -0.101572 0.037185
endloop
endfacet
facet normal -0.304332 -0.833759 0.460683
outer loop
vertex 0.215241 -0.101572 0.037185
vertex 0.141212 -0.073983 0.038211
vertex 0.140598 -0.075670 0.034753
endloop
endfacet
facet normal -0.309720 -0.853118 0.419837
outer loop
vertex 0.215241 -0.101572 0.037185
vertex 0.140598 -0.075670 0.034753
vertex 0.214697 -0.103066 0.033747
endloop
endfacet
facet normal -0.325085 -0.890906 0.317185
outer loop
vertex 0.214697 -0.103066 0.033747
vertex 0.140598 -0.075670 0.034753
vertex 0.140176 -0.076831 0.031058
endloop
endfacet
facet normal -0.327897 -0.902918 0.277890
outer loop
vertex 0.214697 -0.103066 0.033747
vertex 0.140176 -0.076831 0.031058
vertex 0.214337 -0.104056 0.030108
endloop
endfacet
facet normal -0.337953 -0.926410 0.165986
outer loop
vertex 0.214337 -0.104056 0.030108
vertex 0.140176 -0.076831 0.031058
vertex 0.139955 -0.077439 0.027216
endloop
endfacet
facet normal -0.338535 -0.931992 0.129558
outer loop
vertex 0.214337 -0.104056 0.030108
vertex 0.139955 -0.077439 0.027216
vertex 0.214169 -0.104517 0.026352
endloop
endfacet
facet normal -0.342626 -0.939410 0.010755
outer loop
vertex 0.214169 -0.104517 0.026352
vertex 0.139955 -0.077439 0.027216
vertex 0.139940 -0.077478 0.023320
endloop
endfacet
facet normal -0.341392 -0.939669 -0.021747
outer loop
vertex 0.214169 -0.104517 0.026352
vertex 0.139940 -0.077478 0.023320
vertex 0.214197 -0.104439 0.022564
endloop
endfacet
facet normal -0.338985 -0.929591 -0.144743
outer loop
vertex 0.214197 -0.104439 0.022564
vertex 0.139940 -0.077478 0.023320
vertex 0.140133 -0.076948 0.019465
endloop
endfacet
facet normal -0.336404 -0.925774 -0.172551
outer loop
vertex 0.214197 -0.104439 0.022564
vertex 0.140133 -0.076948 0.019465
vertex 0.214421 -0.103825 0.018833
endloop
endfacet
facet normal -0.327119 -0.897190 -0.296722
outer loop
vertex 0.214421 -0.103825 0.018833
vertex 0.140133 -0.076948 0.019465
vertex 0.140529 -0.075862 0.015744
endloop
endfacet
facet normal -0.323688 -0.890627 -0.319391
outer loop
vertex 0.214421 -0.103825 0.018833
vertex 0.140529 -0.075862 0.015744
vertex 0.214835 -0.102688 0.015243
endloop
endfacet
facet normal -0.307315 -0.842996 -0.441492
outer loop
vertex 0.214835 -0.102688 0.015243
vertex 0.140529 -0.075862 0.015744
vertex 0.141117 -0.074246 0.012248
endloop
endfacet
facet normal -0.303535 -0.835031 -0.458901
outer loop
vertex 0.214835 -0.102688 0.015243
vertex 0.141117 -0.074246 0.012248
vertex 0.215429 -0.101055 0.011878
endloop
endfacet
facet normal -0.280052 -0.768326 -0.575539
outer loop
vertex 0.215429 -0.101055 0.011878
vertex 0.141117 -0.074246 0.012248
vertex 0.141884 -0.072139 0.009062
endloop
endfacet
facet normal -0.276409 -0.760261 -0.587879
outer loop
vertex 0.215429 -0.101055 0.011878
vertex 0.141884 -0.072139 0.009062
vertex 0.216191 -0.098962 0.008813
endloop
endfacet
facet normal -0.245991 -0.674994 -0.695609
outer loop
vertex 0.216191 -0.098962 0.008813
vertex 0.141884 -0.072139 0.009062
vertex 0.142811 -0.069592 0.006263
endloop
endfacet
facet normal -0.242937 -0.668038 -0.703354
outer loop
vertex 0.216191 -0.098962 0.008813
vertex 0.142811 -0.069592 0.006263
vertex 0.217102 -0.096458 0.006120
endloop
endfacet
facet normal -0.205955 -0.565265 -0.798785
outer loop
vertex 0.217102 -0.096458 0.006120
vertex 0.142811 -0.069592 0.006263
vertex 0.143875 -0.066667 0.003919
endloop
endfacet
facet normal -0.203891 -0.560480 -0.802677
outer loop
vertex 0.217102 -0.096458 0.006120
vertex 0.143875 -0.066667 0.003919
vertex 0.218142 -0.093601 0.003861
endloop
endfacet
facet normal 0.276945 0.760067 -0.587876
outer loop
vertex 0.229985 -0.061063 0.011878
vertex 0.229223 -0.063156 0.008813
vertex 0.155059 -0.035940 0.009062
endloop
endfacet
facet normal 0.245438 0.675194 -0.695611
outer loop
vertex 0.155059 -0.035940 0.009062
vertex 0.229223 -0.063156 0.008813
vertex 0.154132 -0.038487 0.006263
endloop
endfacet
facet normal 0.245714 0.675093 -0.695611
outer loop
vertex 0.155059 -0.035940 0.009062
vertex 0.154132 -0.038487 0.006263
vertex 0.079896 -0.011467 0.006263
endloop
endfacet
facet normal 0.205765 0.565335 -0.798785
outer loop
vertex 0.079896 -0.011467 0.006263
vertex 0.154132 -0.038487 0.006263
vertex 0.078832 -0.014391 0.003919
endloop
endfacet
facet normal 0.205765 0.565335 -0.798785
outer loop
vertex 0.079896 -0.011467 0.006263
vertex 0.078832 -0.014391 0.003919
vertex 0.004596 0.012628 0.003919
endloop
endfacet
facet normal 0.160819 0.441847 -0.882558
outer loop
vertex 0.004596 0.012628 0.003919
vertex 0.078832 -0.014391 0.003919
vertex -0.219287 0.090456 0.002087
endloop
endfacet
facet normal 0.243306 0.667906 -0.703352
outer loop
vertex 0.229223 -0.063156 0.008813
vertex 0.228312 -0.065659 0.006120
vertex 0.154132 -0.038487 0.006263
endloop
endfacet
facet normal 0.205575 0.565403 -0.798785
outer loop
vertex 0.154132 -0.038487 0.006263
vertex 0.228312 -0.065659 0.006120
vertex 0.153068 -0.041411 0.003919
endloop
endfacet
facet normal 0.205765 0.565334 -0.798785
outer loop
vertex 0.154132 -0.038487 0.006263
vertex 0.153068 -0.041411 0.003919
vertex 0.078832 -0.014391 0.003919
endloop
endfacet
facet normal 0.160819 0.441845 -0.882559
outer loop
vertex 0.078832 -0.014391 0.003919
vertex 0.153068 -0.041411 0.003919
vertex -0.219287 0.090456 0.002087
endloop
endfacet
facet normal 0.204080 0.560410 -0.802678
outer loop
vertex 0.228312 -0.065659 0.006120
vertex 0.227272 -0.068517 0.003861
vertex 0.153068 -0.041411 0.003919
endloop
endfacet
facet normal 0.163518 0.449529 -0.878172
outer loop
vertex 0.153068 -0.041411 0.003919
vertex 0.227272 -0.068517 0.003861
vertex -0.219287 0.090456 0.002087
endloop
endfacet
facet normal 0.160164 0.440046 -0.883576
outer loop
vertex 0.227272 -0.068517 0.003861
vertex 0.226127 -0.071662 0.002087
vertex -0.219287 0.090456 0.002087
endloop
endfacet
facet normal -0.276945 -0.760067 -0.587877
outer loop
vertex -0.229985 0.061063 0.011878
vertex -0.229223 0.063156 0.008813
vertex -0.155059 0.035940 0.009062
endloop
endfacet
facet normal -0.245438 -0.675195 -0.695609
outer loop
vertex -0.155059 0.035940 0.009062
vertex -0.229223 0.063156 0.008813
vertex -0.154132 0.038487 0.006263
endloop
endfacet
facet normal -0.245714 -0.675093 -0.695610
outer loop
vertex -0.155059 0.035940 0.009062
vertex -0.154132 0.038487 0.006263
vertex -0.079896 0.011467 0.006263
endloop
endfacet
facet normal -0.205765 -0.565334 -0.798785
outer loop
vertex -0.079896 0.011467 0.006263
vertex -0.154132 0.038487 0.006263
vertex -0.078832 0.014391 0.003919
endloop
endfacet
facet normal -0.205765 -0.565335 -0.798785
outer loop
vertex -0.079896 0.011467 0.006263
vertex -0.078832 0.014391 0.003919
vertex -0.004596 -0.012628 0.003919
endloop
endfacet
facet normal -0.160819 -0.441848 -0.882558
outer loop
vertex -0.004596 -0.012628 0.003919
vertex -0.078832 0.014391 0.003919
vertex 0.219287 -0.090456 0.002087
endloop
endfacet
facet normal -0.243306 -0.667904 -0.703354
outer loop
vertex -0.229223 0.063156 0.008813
vertex -0.228312 0.065659 0.006120
vertex -0.154132 0.038487 0.006263
endloop
endfacet
facet normal -0.205575 -0.565403 -0.798786
outer loop
vertex -0.154132 0.038487 0.006263
vertex -0.228312 0.065659 0.006120
vertex -0.153068 0.041411 0.003919
endloop
endfacet
facet normal -0.205765 -0.565335 -0.798785
outer loop
vertex -0.154132 0.038487 0.006263
vertex -0.153068 0.041411 0.003919
vertex -0.078832 0.014391 0.003919
endloop
endfacet
facet normal -0.160819 -0.441845 -0.882559
outer loop
vertex -0.078832 0.014391 0.003919
vertex -0.153068 0.041411 0.003919
vertex 0.219287 -0.090456 0.002087
endloop
endfacet
facet normal -0.204080 -0.560410 -0.802678
outer loop
vertex -0.228312 0.065659 0.006120
vertex -0.227272 0.068517 0.003861
vertex -0.153068 0.041411 0.003919
endloop
endfacet
facet normal -0.163519 -0.449532 -0.878170
outer loop
vertex -0.153068 0.041411 0.003919
vertex -0.227272 0.068517 0.003861
vertex 0.219287 -0.090456 0.002087
endloop
endfacet
facet normal -0.160164 -0.440046 -0.883576
outer loop
vertex -0.227272 0.068517 0.003861
vertex -0.226127 0.071662 0.002087
vertex 0.219287 -0.090456 0.002087
endloop
endfacet
facet normal -0.205765 -0.565335 -0.798785
outer loop
vertex 0.069639 -0.039648 0.003919
vertex 0.143875 -0.066667 0.003919
vertex 0.068575 -0.042572 0.006263
endloop
endfacet
facet normal -0.205765 -0.565334 -0.798785
outer loop
vertex 0.068575 -0.042572 0.006263
vertex 0.143875 -0.066667 0.003919
vertex 0.142811 -0.069592 0.006263
endloop
endfacet
facet normal -0.245714 -0.675093 -0.695610
outer loop
vertex 0.068575 -0.042572 0.006263
vertex 0.142811 -0.069592 0.006263
vertex 0.067648 -0.045119 0.009062
endloop
endfacet
facet normal -0.245714 -0.675094 -0.695610
outer loop
vertex 0.067648 -0.045119 0.009062
vertex 0.142811 -0.069592 0.006263
vertex 0.141884 -0.072139 0.009062
endloop
endfacet
facet normal -0.279695 -0.768456 -0.575539
outer loop
vertex 0.067648 -0.045119 0.009062
vertex 0.141884 -0.072139 0.009062
vertex 0.066881 -0.047226 0.012248
endloop
endfacet
facet normal -0.279695 -0.768455 -0.575542
outer loop
vertex 0.066881 -0.047226 0.012248
vertex 0.141884 -0.072139 0.009062
vertex 0.141117 -0.074246 0.012248
endloop
endfacet
facet normal -0.306883 -0.843155 -0.441489
outer loop
vertex 0.066881 -0.047226 0.012248
vertex 0.141117 -0.074246 0.012248
vertex 0.066293 -0.048843 0.015744
endloop
endfacet
facet normal -0.306883 -0.843153 -0.441493
outer loop
vertex 0.066293 -0.048843 0.015744
vertex 0.141117 -0.074246 0.012248
vertex 0.140529 -0.075862 0.015744
endloop
endfacet
facet normal -0.326617 -0.897373 -0.296719
outer loop
vertex 0.066293 -0.048843 0.015744
vertex 0.140529 -0.075862 0.015744
vertex 0.065897 -0.049929 0.019465
endloop
endfacet
facet normal -0.326617 -0.897372 -0.296723
outer loop
vertex 0.065897 -0.049929 0.019465
vertex 0.140529 -0.075862 0.015744
vertex 0.140133 -0.076948 0.019465
endloop
endfacet
facet normal -0.338418 -0.929798 -0.144738
outer loop
vertex 0.065897 -0.049929 0.019465
vertex 0.140133 -0.076948 0.019465
vertex 0.065705 -0.050459 0.023320
endloop
endfacet
facet normal -0.338419 -0.929797 -0.144742
outer loop
vertex 0.065705 -0.050459 0.023320
vertex 0.140133 -0.076948 0.019465
vertex 0.139940 -0.077478 0.023320
endloop
endfacet
facet normal -0.342000 -0.939638 0.010754
outer loop
vertex 0.065705 -0.050459 0.023320
vertex 0.139940 -0.077478 0.023320
vertex 0.065719 -0.050419 0.027216
endloop
endfacet
facet normal -0.342000 -0.939638 0.010752
outer loop
vertex 0.065719 -0.050419 0.027216
vertex 0.139940 -0.077478 0.023320
vertex 0.139955 -0.077439 0.027216
endloop
endfacet
facet normal -0.337275 -0.926656 0.165991
outer loop
vertex 0.065719 -0.050419 0.027216
vertex 0.139955 -0.077439 0.027216
vertex 0.065940 -0.049812 0.031058
endloop
endfacet
facet normal -0.337276 -0.926658 0.165984
outer loop
vertex 0.065940 -0.049812 0.031058
vertex 0.139955 -0.077439 0.027216
vertex 0.140176 -0.076831 0.031058
endloop
endfacet
facet normal -0.324359 -0.891170 0.317186
outer loop
vertex 0.065940 -0.049812 0.031058
vertex 0.140176 -0.076831 0.031058
vertex 0.066363 -0.048650 0.034753
endloop
endfacet
facet normal -0.324359 -0.891170 0.317187
outer loop
vertex 0.066363 -0.048650 0.034753
vertex 0.140176 -0.076831 0.031058
vertex 0.140598 -0.075670 0.034753
endloop
endfacet
facet normal -0.303564 -0.834038 0.460684
outer loop
vertex 0.066363 -0.048650 0.034753
vertex 0.140598 -0.075670 0.034753
vertex 0.066977 -0.046964 0.038211
endloop
endfacet
facet normal -0.303565 -0.834037 0.460684
outer loop
vertex 0.066977 -0.046964 0.038211
vertex 0.140598 -0.075670 0.034753
vertex 0.141212 -0.073983 0.038211
endloop
endfacet
facet normal -0.275397 -0.756648 0.592992
outer loop
vertex 0.066977 -0.046964 0.038211
vertex 0.141212 -0.073983 0.038211
vertex 0.067767 -0.044793 0.041348
endloop
endfacet
facet normal -0.275397 -0.756647 0.592994
outer loop
vertex 0.067767 -0.044793 0.041348
vertex 0.141212 -0.073983 0.038211
vertex 0.142003 -0.071812 0.041348
endloop
endfacet
facet normal -0.240541 -0.660882 0.710897
outer loop
vertex 0.067767 -0.044793 0.041348
vertex 0.142003 -0.071812 0.041348
vertex 0.068714 -0.042190 0.044088
endloop
endfacet
facet normal -0.240541 -0.660880 0.710899
outer loop
vertex 0.068714 -0.042190 0.044088
vertex 0.142003 -0.071812 0.041348
vertex 0.142950 -0.069210 0.044088
endloop
endfacet
facet normal -0.199842 -0.549062 0.811538
outer loop
vertex 0.068714 -0.042190 0.044088
vertex 0.142950 -0.069210 0.044088
vertex 0.069796 -0.039219 0.046365
endloop
endfacet
facet normal -0.199843 -0.549064 0.811537
outer loop
vertex 0.069796 -0.039219 0.046365
vertex 0.142950 -0.069210 0.044088
vertex 0.144031 -0.066238 0.046365
endloop
endfacet
facet normal -0.154289 -0.423908 0.892467
outer loop
vertex 0.069796 -0.039219 0.046365
vertex 0.144031 -0.066238 0.046365
vertex 0.070985 -0.035951 0.048123
endloop
endfacet
facet normal -0.154290 -0.423909 0.892466
outer loop
vertex 0.070985 -0.035951 0.048123
vertex 0.144031 -0.066238 0.046365
vertex 0.145221 -0.062971 0.048123
endloop
endfacet
facet normal -0.104990 -0.288458 0.951719
outer loop
vertex 0.070985 -0.035951 0.048123
vertex 0.145221 -0.062971 0.048123
vertex 0.072253 -0.032467 0.049319
endloop
endfacet
facet normal -0.104991 -0.288460 0.951718
outer loop
vertex 0.072253 -0.032467 0.049319
vertex 0.145221 -0.062971 0.048123
vertex 0.146489 -0.059486 0.049319
endloop
endfacet
facet normal -0.053140 -0.146002 0.987856
outer loop
vertex 0.072253 -0.032467 0.049319
vertex 0.146489 -0.059486 0.049319
vertex 0.073569 -0.028850 0.049924
endloop
endfacet
facet normal -0.053140 -0.146001 0.987856
outer loop
vertex 0.073569 -0.028850 0.049924
vertex 0.146489 -0.059486 0.049319
vertex 0.147805 -0.055870 0.049924
endloop
endfacet
facet normal 0.000000 0.000000 1.000000
outer loop
vertex 0.073569 -0.028850 0.049924
vertex 0.147805 -0.055870 0.049924
vertex 0.074902 -0.025189 0.049924
endloop
endfacet
facet normal 0.000000 0.000000 1.000000
outer loop
vertex 0.074902 -0.025189 0.049924
vertex 0.147805 -0.055870 0.049924
vertex 0.149138 -0.052209 0.049924
endloop
endfacet
facet normal 0.053140 0.146002 0.987856
outer loop
vertex 0.074902 -0.025189 0.049924
vertex 0.149138 -0.052209 0.049924
vertex 0.076218 -0.021572 0.049319
endloop
endfacet
facet normal 0.053140 0.146002 0.987856
outer loop
vertex 0.076218 -0.021572 0.049319
vertex 0.149138 -0.052209 0.049924
vertex 0.150454 -0.048592 0.049319
endloop
endfacet
facet normal 0.104990 0.288458 0.951719
outer loop
vertex 0.076218 -0.021572 0.049319
vertex 0.150454 -0.048592 0.049319
vertex 0.077487 -0.018088 0.048123
endloop
endfacet
facet normal 0.104991 0.288459 0.951719
outer loop
vertex 0.077487 -0.018088 0.048123
vertex 0.150454 -0.048592 0.049319
vertex 0.151722 -0.045107 0.048123
endloop
endfacet
facet normal 0.154290 0.423908 0.892467
outer loop
vertex 0.077487 -0.018088 0.048123
vertex 0.151722 -0.045107 0.048123
vertex 0.078676 -0.014820 0.046365
endloop
endfacet
facet normal 0.154290 0.423908 0.892467
outer loop
vertex 0.078676 -0.014820 0.046365
vertex 0.151722 -0.045107 0.048123
vertex 0.152912 -0.041840 0.046365
endloop
endfacet
facet normal 0.199843 0.549062 0.811538
outer loop
vertex 0.078676 -0.014820 0.046365
vertex 0.152912 -0.041840 0.046365
vertex 0.079757 -0.011849 0.044088
endloop
endfacet
facet normal 0.199842 0.549062 0.811538
outer loop
vertex 0.079757 -0.011849 0.044088
vertex 0.152912 -0.041840 0.046365
vertex 0.153993 -0.038869 0.044088
endloop
endfacet
facet normal 0.240542 0.660881 0.710898
outer loop
vertex 0.079757 -0.011849 0.044088
vertex 0.153993 -0.038869 0.044088
vertex 0.080705 -0.009246 0.041348
endloop
endfacet
facet normal 0.240540 0.660882 0.710898
outer loop
vertex 0.080705 -0.009246 0.041348
vertex 0.153993 -0.038869 0.044088
vertex 0.154940 -0.036266 0.041348
endloop
endfacet
facet normal 0.275398 0.756648 0.592993
outer loop
vertex 0.080705 -0.009246 0.041348
vertex 0.154940 -0.036266 0.041348
vertex 0.081495 -0.007075 0.038211
endloop
endfacet
facet normal 0.275397 0.756647 0.592994
outer loop
vertex 0.081495 -0.007075 0.038211
vertex 0.154940 -0.036266 0.041348
vertex 0.155731 -0.034095 0.038211
endloop
endfacet
facet normal 0.303566 0.834037 0.460684
outer loop
vertex 0.081495 -0.007075 0.038211
vertex 0.155731 -0.034095 0.038211
vertex 0.082109 -0.005389 0.034753
endloop
endfacet
facet normal 0.303564 0.834038 0.460684
outer loop
vertex 0.082109 -0.005389 0.034753
vertex 0.155731 -0.034095 0.038211
vertex 0.156344 -0.032408 0.034753
endloop
endfacet
facet normal 0.324359 0.891170 0.317187
outer loop
vertex 0.082109 -0.005389 0.034753
vertex 0.156344 -0.032408 0.034753
vertex 0.082531 -0.004227 0.031058
endloop
endfacet
facet normal 0.324359 0.891170 0.317187
outer loop
vertex 0.082531 -0.004227 0.031058
vertex 0.156344 -0.032408 0.034753
vertex 0.156767 -0.031247 0.031058
endloop
endfacet
facet normal 0.337276 0.926657 0.165985
outer loop
vertex 0.082531 -0.004227 0.031058
vertex 0.156767 -0.031247 0.031058
vertex 0.082753 -0.003620 0.027216
endloop
endfacet
facet normal 0.337275 0.926657 0.165987
outer loop
vertex 0.082753 -0.003620 0.027216
vertex 0.156767 -0.031247 0.031058
vertex 0.156988 -0.030639 0.027216
endloop
endfacet
facet normal 0.342000 0.939638 0.010753
outer loop
vertex 0.082753 -0.003620 0.027216
vertex 0.156988 -0.030639 0.027216
vertex 0.082767 -0.003580 0.023320
endloop
endfacet
facet normal 0.342001 0.939638 0.010753
outer loop
vertex 0.082767 -0.003580 0.023320
vertex 0.156988 -0.030639 0.027216
vertex 0.157003 -0.030600 0.023320
endloop
endfacet
facet normal 0.338418 0.929798 -0.144740
outer loop
vertex 0.082767 -0.003580 0.023320
vertex 0.157003 -0.030600 0.023320
vertex 0.082574 -0.004110 0.019465
endloop
endfacet
facet normal 0.338419 0.929797 -0.144742
outer loop
vertex 0.082574 -0.004110 0.019465
vertex 0.157003 -0.030600 0.023320
vertex 0.156810 -0.031130 0.019465
endloop
endfacet
facet normal 0.326617 0.897373 -0.296720
outer loop
vertex 0.082574 -0.004110 0.019465
vertex 0.156810 -0.031130 0.019465
vertex 0.082179 -0.005197 0.015744
endloop
endfacet
facet normal 0.326617 0.897373 -0.296720
outer loop
vertex 0.082179 -0.005197 0.015744
vertex 0.156810 -0.031130 0.019465
vertex 0.156414 -0.032216 0.015744
endloop
endfacet
facet normal 0.306883 0.843154 -0.441491
outer loop
vertex 0.082179 -0.005197 0.015744
vertex 0.156414 -0.032216 0.015744
vertex 0.081590 -0.006813 0.012248
endloop
endfacet
facet normal 0.306883 0.843154 -0.441491
outer loop
vertex 0.081590 -0.006813 0.012248
vertex 0.156414 -0.032216 0.015744
vertex 0.155826 -0.033833 0.012248
endloop
endfacet
facet normal 0.279695 0.768456 -0.575541
outer loop
vertex 0.081590 -0.006813 0.012248
vertex 0.155826 -0.033833 0.012248
vertex 0.080823 -0.008920 0.009062
endloop
endfacet
facet normal -0.205765 -0.565334 -0.798785
outer loop
vertex 0.069639 -0.039648 0.003919
vertex 0.068575 -0.042572 0.006263
vertex -0.005661 -0.015553 0.006263
endloop
endfacet
facet normal -0.245714 -0.675093 -0.695610
outer loop
vertex -0.005661 -0.015553 0.006263
vertex 0.068575 -0.042572 0.006263
vertex -0.006588 -0.018099 0.009062
endloop
endfacet
facet normal -0.245714 -0.675094 -0.695610
outer loop
vertex -0.005661 -0.015553 0.006263
vertex -0.006588 -0.018099 0.009062
vertex -0.080823 0.008920 0.009062
endloop
endfacet
facet normal -0.279695 -0.768456 -0.575540
outer loop
vertex -0.080823 0.008920 0.009062
vertex -0.006588 -0.018099 0.009062
vertex -0.081590 0.006813 0.012248
endloop
endfacet
facet normal -0.279695 -0.768455 -0.575540
outer loop
vertex -0.080823 0.008920 0.009062
vertex -0.081590 0.006813 0.012248
vertex -0.155826 0.033833 0.012248
endloop
endfacet
facet normal -0.306883 -0.843154 -0.441491
outer loop
vertex -0.155826 0.033833 0.012248
vertex -0.081590 0.006813 0.012248
vertex -0.156414 0.032216 0.015744
endloop
endfacet
facet normal -0.245714 -0.675094 -0.695610
outer loop
vertex -0.006588 -0.018099 0.009062
vertex 0.068575 -0.042572 0.006263
vertex 0.067648 -0.045119 0.009062
endloop
endfacet
facet normal -0.279695 -0.768457 -0.575538
outer loop
vertex -0.006588 -0.018099 0.009062
vertex 0.067648 -0.045119 0.009062
vertex -0.007355 -0.020207 0.012248
endloop
endfacet
facet normal -0.279695 -0.768456 -0.575540
outer loop
vertex -0.007355 -0.020207 0.012248
vertex 0.067648 -0.045119 0.009062
vertex 0.066881 -0.047226 0.012248
endloop
endfacet
facet normal -0.306883 -0.843153 -0.441493
outer loop
vertex -0.007355 -0.020207 0.012248
vertex 0.066881 -0.047226 0.012248
vertex -0.007943 -0.021823 0.015744
endloop
endfacet
facet normal -0.306883 -0.843155 -0.441489
outer loop
vertex -0.007943 -0.021823 0.015744
vertex 0.066881 -0.047226 0.012248
vertex 0.066293 -0.048843 0.015744
endloop
endfacet
facet normal -0.326617 -0.897373 -0.296721
outer loop
vertex -0.007943 -0.021823 0.015744
vertex 0.066293 -0.048843 0.015744
vertex -0.008338 -0.022909 0.019465
endloop
endfacet
facet normal -0.326617 -0.897373 -0.296719
outer loop
vertex -0.008338 -0.022909 0.019465
vertex 0.066293 -0.048843 0.015744
vertex 0.065897 -0.049929 0.019465
endloop
endfacet
facet normal -0.338419 -0.929797 -0.144741
outer loop
vertex -0.008338 -0.022909 0.019465
vertex 0.065897 -0.049929 0.019465
vertex -0.008531 -0.023439 0.023320
endloop
endfacet
facet normal -0.338419 -0.929798 -0.144739
outer loop
vertex -0.008531 -0.023439 0.023320
vertex 0.065897 -0.049929 0.019465
vertex 0.065705 -0.050459 0.023320
endloop
endfacet
facet normal -0.342000 -0.939638 0.010752
outer loop
vertex -0.008531 -0.023439 0.023320
vertex 0.065705 -0.050459 0.023320
vertex -0.008517 -0.023400 0.027216
endloop
endfacet
facet normal -0.342001 -0.939638 0.010753
outer loop
vertex -0.008517 -0.023400 0.027216
vertex 0.065705 -0.050459 0.023320
vertex 0.065719 -0.050419 0.027216
endloop
endfacet
facet normal -0.337276 -0.926657 0.165985
outer loop
vertex -0.008517 -0.023400 0.027216
vertex 0.065719 -0.050419 0.027216
vertex -0.008296 -0.022792 0.031058
endloop
endfacet
facet normal -0.337276 -0.926657 0.165985
outer loop
vertex -0.008296 -0.022792 0.031058
vertex 0.065719 -0.050419 0.027216
vertex 0.065940 -0.049812 0.031058
endloop
endfacet
facet normal -0.324359 -0.891170 0.317187
outer loop
vertex -0.008296 -0.022792 0.031058
vertex 0.065940 -0.049812 0.031058
vertex -0.007873 -0.021631 0.034753
endloop
endfacet
facet normal -0.324359 -0.891170 0.317188
outer loop
vertex -0.007873 -0.021631 0.034753
vertex 0.065940 -0.049812 0.031058
vertex 0.066363 -0.048650 0.034753
endloop
endfacet
facet normal -0.303564 -0.834038 0.460684
outer loop
vertex -0.007873 -0.021631 0.034753
vertex 0.066363 -0.048650 0.034753
vertex -0.007259 -0.019944 0.038211
endloop
endfacet
facet normal -0.303565 -0.834037 0.460684
outer loop
vertex -0.007259 -0.019944 0.038211
vertex 0.066363 -0.048650 0.034753
vertex 0.066977 -0.046964 0.038211
endloop
endfacet
facet normal -0.275396 -0.756648 0.592993
outer loop
vertex -0.007259 -0.019944 0.038211
vertex 0.066977 -0.046964 0.038211
vertex -0.006469 -0.017773 0.041348
endloop
endfacet
facet normal -0.275398 -0.756648 0.592993
outer loop
vertex -0.006469 -0.017773 0.041348
vertex 0.066977 -0.046964 0.038211
vertex 0.067767 -0.044793 0.041348
endloop
endfacet
facet normal -0.240540 -0.660882 0.710898
outer loop
vertex -0.006469 -0.017773 0.041348
vertex 0.067767 -0.044793 0.041348
vertex -0.005522 -0.015170 0.044088
endloop
endfacet
facet normal -0.240541 -0.660881 0.710898
outer loop
vertex -0.005522 -0.015170 0.044088
vertex 0.067767 -0.044793 0.041348
vertex 0.068714 -0.042190 0.044088
endloop
endfacet
facet normal -0.199842 -0.549063 0.811537
outer loop
vertex -0.005522 -0.015170 0.044088
vertex 0.068714 -0.042190 0.044088
vertex -0.004440 -0.012199 0.046365
endloop
endfacet
facet normal -0.199843 -0.549062 0.811538
outer loop
vertex -0.004440 -0.012199 0.046365
vertex 0.068714 -0.042190 0.044088
vertex 0.069796 -0.039219 0.046365
endloop
endfacet
facet normal -0.154290 -0.423908 0.892466
outer loop
vertex -0.004440 -0.012199 0.046365
vertex 0.069796 -0.039219 0.046365
vertex -0.003251 -0.008932 0.048123
endloop
endfacet
facet normal -0.154290 -0.423908 0.892466
outer loop
vertex -0.003251 -0.008932 0.048123
vertex 0.069796 -0.039219 0.046365
vertex 0.070985 -0.035951 0.048123
endloop
endfacet
facet normal -0.104990 -0.288459 0.951719
outer loop
vertex -0.003251 -0.008932 0.048123
vertex 0.070985 -0.035951 0.048123
vertex -0.001983 -0.005447 0.049319
endloop
endfacet
facet normal -0.104991 -0.288459 0.951719
outer loop
vertex -0.001983 -0.005447 0.049319
vertex 0.070985 -0.035951 0.048123
vertex 0.072253 -0.032467 0.049319
endloop
endfacet
facet normal -0.053140 -0.146002 0.987856
outer loop
vertex -0.001983 -0.005447 0.049319
vertex 0.072253 -0.032467 0.049319
vertex -0.000666 -0.001831 0.049924
endloop
endfacet
facet normal -0.053140 -0.146002 0.987856
outer loop
vertex -0.000666 -0.001831 0.049924
vertex 0.072253 -0.032467 0.049319
vertex 0.073569 -0.028850 0.049924
endloop
endfacet
facet normal 0.000000 0.000000 1.000000
outer loop
vertex -0.000666 -0.001831 0.049924
vertex 0.073569 -0.028850 0.049924
vertex 0.000666 0.001831 0.049924
endloop
endfacet
facet normal -0.000000 0.000000 1.000000
outer loop
vertex 0.000666 0.001831 0.049924
vertex 0.073569 -0.028850 0.049924
vertex 0.074902 -0.025189 0.049924
endloop
endfacet
facet normal 0.053140 0.146002 0.987856
outer loop
vertex 0.000666 0.001831 0.049924
vertex 0.074902 -0.025189 0.049924
vertex 0.001983 0.005447 0.049319
endloop
endfacet
facet normal 0.053140 0.146002 0.987856
outer loop
vertex 0.001983 0.005447 0.049319
vertex 0.074902 -0.025189 0.049924
vertex 0.076218 -0.021572 0.049319
endloop
endfacet
facet normal 0.104991 0.288459 0.951719
outer loop
vertex 0.001983 0.005447 0.049319
vertex 0.076218 -0.021572 0.049319
vertex 0.003251 0.008932 0.048123
endloop
endfacet
facet normal 0.104990 0.288459 0.951719
outer loop
vertex 0.003251 0.008932 0.048123
vertex 0.076218 -0.021572 0.049319
vertex 0.077487 -0.018088 0.048123
endloop
endfacet
facet normal 0.154290 0.423909 0.892466
outer loop
vertex 0.003251 0.008932 0.048123
vertex 0.077487 -0.018088 0.048123
vertex 0.004440 0.012199 0.046365
endloop
endfacet
facet normal 0.154290 0.423909 0.892466
outer loop
vertex 0.004440 0.012199 0.046365
vertex 0.077487 -0.018088 0.048123
vertex 0.078676 -0.014820 0.046365
endloop
endfacet
facet normal 0.199843 0.549062 0.811538
outer loop
vertex 0.004440 0.012199 0.046365
vertex 0.078676 -0.014820 0.046365
vertex 0.005522 0.015170 0.044088
endloop
endfacet
facet normal 0.199842 0.549062 0.811538
outer loop
vertex 0.005522 0.015170 0.044088
vertex 0.078676 -0.014820 0.046365
vertex 0.079757 -0.011849 0.044088
endloop
endfacet
facet normal 0.240542 0.660881 0.710898
outer loop
vertex 0.005522 0.015170 0.044088
vertex 0.079757 -0.011849 0.044088
vertex 0.006469 0.017773 0.041348
endloop
endfacet
facet normal 0.240541 0.660881 0.710898
outer loop
vertex 0.006469 0.017773 0.041348
vertex 0.079757 -0.011849 0.044088
vertex 0.080705 -0.009246 0.041348
endloop
endfacet
facet normal 0.275398 0.756648 0.592993
outer loop
vertex 0.006469 0.017773 0.041348
vertex 0.080705 -0.009246 0.041348
vertex 0.007259 0.019944 0.038211
endloop
endfacet
facet normal 0.275397 0.756648 0.592993
outer loop
vertex 0.007259 0.019944 0.038211
vertex 0.080705 -0.009246 0.041348
vertex 0.081495 -0.007075 0.038211
endloop
endfacet
facet normal 0.303566 0.834037 0.460684
outer loop
vertex 0.007259 0.019944 0.038211
vertex 0.081495 -0.007075 0.038211
vertex 0.007873 0.021631 0.034753
endloop
endfacet
facet normal 0.303564 0.834038 0.460684
outer loop
vertex 0.007873 0.021631 0.034753
vertex 0.081495 -0.007075 0.038211
vertex 0.082109 -0.005389 0.034753
endloop
endfacet
facet normal 0.324359 0.891170 0.317187
outer loop
vertex 0.007873 0.021631 0.034753
vertex 0.082109 -0.005389 0.034753
vertex 0.008296 0.022792 0.031058
endloop
endfacet
facet normal 0.324360 0.891170 0.317187
outer loop
vertex 0.008296 0.022792 0.031058
vertex 0.082109 -0.005389 0.034753
vertex 0.082531 -0.004227 0.031058
endloop
endfacet
facet normal 0.337276 0.926657 0.165986
outer loop
vertex 0.008296 0.022792 0.031058
vertex 0.082531 -0.004227 0.031058
vertex 0.008517 0.023400 0.027216
endloop
endfacet
facet normal 0.337275 0.926657 0.165986
outer loop
vertex 0.008517 0.023400 0.027216
vertex 0.082531 -0.004227 0.031058
vertex 0.082753 -0.003620 0.027216
endloop
endfacet
facet normal 0.342000 0.939638 0.010753
outer loop
vertex 0.008517 0.023400 0.027216
vertex 0.082753 -0.003620 0.027216
vertex 0.008531 0.023439 0.023320
endloop
endfacet
facet normal 0.342001 0.939638 0.010753
outer loop
vertex 0.008531 0.023439 0.023320
vertex 0.082753 -0.003620 0.027216
vertex 0.082767 -0.003580 0.023320
endloop
endfacet
facet normal 0.338418 0.929797 -0.144741
outer loop
vertex 0.008531 0.023439 0.023320
vertex 0.082767 -0.003580 0.023320
vertex 0.008338 0.022909 0.019465
endloop
endfacet
facet normal 0.338419 0.929797 -0.144741
outer loop
vertex 0.008338 0.022909 0.019465
vertex 0.082767 -0.003580 0.023320
vertex 0.082574 -0.004110 0.019465
endloop
endfacet
facet normal 0.326617 0.897373 -0.296719
outer loop
vertex 0.008338 0.022909 0.019465
vertex 0.082574 -0.004110 0.019465
vertex 0.007943 0.021823 0.015744
endloop
endfacet
facet normal 0.326617 0.897373 -0.296720
outer loop
vertex 0.007943 0.021823 0.015744
vertex 0.082574 -0.004110 0.019465
vertex 0.082179 -0.005197 0.015744
endloop
endfacet
facet normal 0.306883 0.843154 -0.441491
outer loop
vertex 0.007943 0.021823 0.015744
vertex 0.082179 -0.005197 0.015744
vertex 0.007355 0.020207 0.012248
endloop
endfacet
facet normal 0.306883 0.843154 -0.441491
outer loop
vertex 0.007355 0.020207 0.012248
vertex 0.082179 -0.005197 0.015744
vertex 0.081590 -0.006813 0.012248
endloop
endfacet
facet normal 0.279695 0.768456 -0.575540
outer loop
vertex 0.007355 0.020207 0.012248
vertex 0.081590 -0.006813 0.012248
vertex 0.006588 0.018099 0.009062
endloop
endfacet
facet normal 0.279695 0.768456 -0.575540
outer loop
vertex 0.006588 0.018099 0.009062
vertex 0.081590 -0.006813 0.012248
vertex 0.080823 -0.008920 0.009062
endloop
endfacet
facet normal 0.245714 0.675094 -0.695610
outer loop
vertex 0.006588 0.018099 0.009062
vertex 0.080823 -0.008920 0.009062
vertex 0.005661 0.015553 0.006263
endloop
endfacet
facet normal -0.279695 -0.768456 -0.575540
outer loop
vertex -0.006588 -0.018099 0.009062
vertex -0.007355 -0.020207 0.012248
vertex -0.081590 0.006813 0.012248
endloop
endfacet
facet normal -0.306883 -0.843154 -0.441491
outer loop
vertex -0.081590 0.006813 0.012248
vertex -0.007355 -0.020207 0.012248
vertex -0.082179 0.005197 0.015744
endloop
endfacet
facet normal -0.306883 -0.843154 -0.441491
outer loop
vertex -0.081590 0.006813 0.012248
vertex -0.082179 0.005197 0.015744
vertex -0.156414 0.032216 0.015744
endloop
endfacet
facet normal -0.326617 -0.897373 -0.296719
outer loop
vertex -0.156414 0.032216 0.015744
vertex -0.082179 0.005197 0.015744
vertex -0.156810 0.031130 0.019465
endloop
endfacet
facet normal -0.306883 -0.843154 -0.441491
outer loop
vertex -0.082179 0.005197 0.015744
vertex -0.007355 -0.020207 0.012248
vertex -0.007943 -0.021823 0.015744
endloop
endfacet
facet normal -0.326617 -0.897373 -0.296720
outer loop
vertex -0.082179 0.005197 0.015744
vertex -0.007943 -0.021823 0.015744
vertex -0.082574 0.004110 0.019465
endloop
endfacet
facet normal -0.326617 -0.897373 -0.296719
outer loop
vertex -0.082574 0.004110 0.019465
vertex -0.007943 -0.021823 0.015744
vertex -0.008338 -0.022909 0.019465
endloop
endfacet
facet normal -0.338419 -0.929797 -0.144741
outer loop
vertex -0.082574 0.004110 0.019465
vertex -0.008338 -0.022909 0.019465
vertex -0.082767 0.003580 0.023320
endloop
endfacet
facet normal -0.338418 -0.929797 -0.144741
outer loop
vertex -0.082767 0.003580 0.023320
vertex -0.008338 -0.022909 0.019465
vertex -0.008531 -0.023439 0.023320
endloop
endfacet
facet normal -0.342000 -0.939638 0.010753
outer loop
vertex -0.082767 0.003580 0.023320
vertex -0.008531 -0.023439 0.023320
vertex -0.082753 0.003620 0.027216
endloop
endfacet
facet normal -0.342000 -0.939638 0.010753
outer loop
vertex -0.082753 0.003620 0.027216
vertex -0.008531 -0.023439 0.023320
vertex -0.008517 -0.023400 0.027216
endloop
endfacet
facet normal -0.337275 -0.926657 0.165985
outer loop
vertex -0.082753 0.003620 0.027216
vertex -0.008517 -0.023400 0.027216
vertex -0.082531 0.004227 0.031058
endloop
endfacet
facet normal -0.337276 -0.926657 0.165986
outer loop
vertex -0.082531 0.004227 0.031058
vertex -0.008517 -0.023400 0.027216
vertex -0.008296 -0.022792 0.031058
endloop
endfacet
facet normal -0.324359 -0.891170 0.317187
outer loop
vertex -0.082531 0.004227 0.031058
vertex -0.008296 -0.022792 0.031058
vertex -0.082109 0.005389 0.034753
endloop
endfacet
facet normal -0.324359 -0.891170 0.317187
outer loop
vertex -0.082109 0.005389 0.034753
vertex -0.008296 -0.022792 0.031058
vertex -0.007873 -0.021631 0.034753
endloop
endfacet
facet normal -0.303564 -0.834038 0.460684
outer loop
vertex -0.082109 0.005389 0.034753
vertex -0.007873 -0.021631 0.034753
vertex -0.081495 0.007075 0.038211
endloop
endfacet
facet normal -0.303565 -0.834037 0.460684
outer loop
vertex -0.081495 0.007075 0.038211
vertex -0.007873 -0.021631 0.034753
vertex -0.007259 -0.019944 0.038211
endloop
endfacet
facet normal -0.275397 -0.756648 0.592993
outer loop
vertex -0.081495 0.007075 0.038211
vertex -0.007259 -0.019944 0.038211
vertex -0.080705 0.009246 0.041348
endloop
endfacet
facet normal -0.275398 -0.756648 0.592993
outer loop
vertex -0.080705 0.009246 0.041348
vertex -0.007259 -0.019944 0.038211
vertex -0.006469 -0.017773 0.041348
endloop
endfacet
facet normal -0.240541 -0.660881 0.710898
outer loop
vertex -0.080705 0.009246 0.041348
vertex -0.006469 -0.017773 0.041348
vertex -0.079757 0.011849 0.044088
endloop
endfacet
facet normal -0.240541 -0.660881 0.710898
outer loop
vertex -0.079757 0.011849 0.044088
vertex -0.006469 -0.017773 0.041348
vertex -0.005522 -0.015170 0.044088
endloop
endfacet
facet normal -0.199842 -0.549062 0.811538
outer loop
vertex -0.079757 0.011849 0.044088
vertex -0.005522 -0.015170 0.044088
vertex -0.078676 0.014820 0.046365
endloop
endfacet
facet normal -0.199843 -0.549062 0.811538
outer loop
vertex -0.078676 0.014820 0.046365
vertex -0.005522 -0.015170 0.044088
vertex -0.004440 -0.012199 0.046365
endloop
endfacet
facet normal -0.154290 -0.423908 0.892466
outer loop
vertex -0.078676 0.014820 0.046365
vertex -0.004440 -0.012199 0.046365
vertex -0.077487 0.018088 0.048123
endloop
endfacet
facet normal -0.154290 -0.423909 0.892466
outer loop
vertex -0.077487 0.018088 0.048123
vertex -0.004440 -0.012199 0.046365
vertex -0.003251 -0.008932 0.048123
endloop
endfacet
facet normal -0.104991 -0.288459 0.951719
outer loop
vertex -0.077487 0.018088 0.048123
vertex -0.003251 -0.008932 0.048123
vertex -0.076218 0.021572 0.049319
endloop
endfacet
facet normal -0.104991 -0.288459 0.951719
outer loop
vertex -0.076218 0.021572 0.049319
vertex -0.003251 -0.008932 0.048123
vertex -0.001983 -0.005447 0.049319
endloop
endfacet
facet normal -0.053140 -0.146002 0.987856
outer loop
vertex -0.076218 0.021572 0.049319
vertex -0.001983 -0.005447 0.049319
vertex -0.074902 0.025189 0.049924
endloop
endfacet
facet normal -0.053140 -0.146002 0.987856
outer loop
vertex -0.074902 0.025189 0.049924
vertex -0.001983 -0.005447 0.049319
vertex -0.000666 -0.001831 0.049924
endloop
endfacet
facet normal 0.000000 0.000000 1.000000
outer loop
vertex -0.074902 0.025189 0.049924
vertex -0.000666 -0.001831 0.049924
vertex -0.073569 0.028850 0.049924
endloop
endfacet
facet normal 0.000000 0.000000 1.000000
outer loop
vertex -0.073569 0.028850 0.049924
vertex -0.000666 -0.001831 0.049924
vertex 0.000666 0.001831 0.049924
endloop
endfacet
facet normal 0.053140 0.146002 0.987856
outer loop
vertex -0.073569 0.028850 0.049924
vertex 0.000666 0.001831 0.049924
vertex -0.072253 0.032467 0.049319
endloop
endfacet
facet normal 0.053140 0.146002 0.987856
outer loop
vertex -0.072253 0.032467 0.049319
vertex 0.000666 0.001831 0.049924
vertex 0.001983 0.005447 0.049319
endloop
endfacet
facet normal 0.104991 0.288459 0.951719
outer loop
vertex -0.072253 0.032467 0.049319
vertex 0.001983 0.005447 0.049319
vertex -0.070985 0.035951 0.048123
endloop
endfacet
facet normal 0.104990 0.288459 0.951719
outer loop
vertex -0.070985 0.035951 0.048123
vertex 0.001983 0.005447 0.049319
vertex 0.003251 0.008932 0.048123
endloop
endfacet
facet normal 0.154290 0.423908 0.892466
outer loop
vertex -0.070985 0.035951 0.048123
vertex 0.003251 0.008932 0.048123
vertex -0.069796 0.039219 0.046365
endloop
endfacet
facet normal 0.154290 0.423908 0.892466
outer loop
vertex -0.069796 0.039219 0.046365
vertex 0.003251 0.008932 0.048123
vertex 0.004440 0.012199 0.046365
endloop
endfacet
facet normal 0.199843 0.549062 0.811538
outer loop
vertex -0.069796 0.039219 0.046365
vertex 0.004440 0.012199 0.046365
vertex -0.068714 0.042190 0.044088
endloop
endfacet
facet normal 0.199842 0.549062 0.811538
outer loop
vertex -0.068714 0.042190 0.044088
vertex 0.004440 0.012199 0.046365
vertex 0.005522 0.015170 0.044088
endloop
endfacet
facet normal 0.240541 0.660881 0.710898
outer loop
vertex -0.068714 0.042190 0.044088
vertex 0.005522 0.015170 0.044088
vertex -0.067767 0.044793 0.041348
endloop
endfacet
facet normal 0.240540 0.660881 0.710898
outer loop
vertex -0.067767 0.044793 0.041348
vertex 0.005522 0.015170 0.044088
vertex 0.006469 0.017773 0.041348
endloop
endfacet
facet normal 0.275398 0.756648 0.592992
outer loop
vertex -0.067767 0.044793 0.041348
vertex 0.006469 0.017773 0.041348
vertex -0.066977 0.046964 0.038211
endloop
endfacet
facet normal 0.275397 0.756647 0.592994
outer loop
vertex -0.066977 0.046964 0.038211
vertex 0.006469 0.017773 0.041348
vertex 0.007259 0.019944 0.038211
endloop
endfacet
facet normal 0.303566 0.834038 0.460682
outer loop
vertex -0.066977 0.046964 0.038211
vertex 0.007259 0.019944 0.038211
vertex -0.066363 0.048650 0.034753
endloop
endfacet
facet normal 0.303564 0.834038 0.460683
outer loop
vertex -0.066363 0.048650 0.034753
vertex 0.007259 0.019944 0.038211
vertex 0.007873 0.021631 0.034753
endloop
endfacet
facet normal 0.324359 0.891170 0.317187
outer loop
vertex -0.066363 0.048650 0.034753
vertex 0.007873 0.021631 0.034753
vertex -0.065940 0.049812 0.031058
endloop
endfacet
facet normal 0.324359 0.891169 0.317189
outer loop
vertex -0.065940 0.049812 0.031058
vertex 0.007873 0.021631 0.034753
vertex 0.008296 0.022792 0.031058
endloop
endfacet
facet normal 0.337276 0.926658 0.165984
outer loop
vertex -0.065940 0.049812 0.031058
vertex 0.008296 0.022792 0.031058
vertex -0.065719 0.050419 0.027216
endloop
endfacet
facet normal 0.337276 0.926657 0.165987
outer loop
vertex -0.065719 0.050419 0.027216
vertex 0.008296 0.022792 0.031058
vertex 0.008517 0.023400 0.027216
endloop
endfacet
facet normal 0.342000 0.939638 0.010752
outer loop
vertex -0.065719 0.050419 0.027216
vertex 0.008517 0.023400 0.027216
vertex -0.065705 0.050459 0.023320
endloop
endfacet
facet normal 0.342000 0.939638 0.010753
outer loop
vertex -0.065705 0.050459 0.023320
vertex 0.008517 0.023400 0.027216
vertex 0.008531 0.023439 0.023320
endloop
endfacet
facet normal 0.338418 0.929797 -0.144741
outer loop
vertex -0.065705 0.050459 0.023320
vertex 0.008531 0.023439 0.023320
vertex -0.065897 0.049929 0.019465
endloop
endfacet
facet normal 0.338419 0.929797 -0.144742
outer loop
vertex -0.065897 0.049929 0.019465
vertex 0.008531 0.023439 0.023320
vertex 0.008338 0.022909 0.019465
endloop
endfacet
facet normal 0.326617 0.897374 -0.296718
outer loop
vertex -0.065897 0.049929 0.019465
vertex 0.008338 0.022909 0.019465
vertex -0.066293 0.048843 0.015744
endloop
endfacet
facet normal 0.326617 0.897372 -0.296723
outer loop
vertex -0.066293 0.048843 0.015744
vertex 0.008338 0.022909 0.019465
vertex 0.007943 0.021823 0.015744
endloop
endfacet
facet normal 0.306883 0.843155 -0.441489
outer loop
vertex -0.066293 0.048843 0.015744
vertex 0.007943 0.021823 0.015744
vertex -0.066881 0.047226 0.012248
endloop
endfacet
facet normal 0.306883 0.843153 -0.441492
outer loop
vertex -0.066881 0.047226 0.012248
vertex 0.007943 0.021823 0.015744
vertex 0.007355 0.020207 0.012248
endloop
endfacet
facet normal 0.279695 0.768456 -0.575539
outer loop
vertex -0.066881 0.047226 0.012248
vertex 0.007355 0.020207 0.012248
vertex -0.067648 0.045119 0.009062
endloop
endfacet
facet normal 0.279695 0.768456 -0.575539
outer loop
vertex -0.067648 0.045119 0.009062
vertex 0.007355 0.020207 0.012248
vertex 0.006588 0.018099 0.009062
endloop
endfacet
facet normal 0.245714 0.675094 -0.695610
outer loop
vertex -0.067648 0.045119 0.009062
vertex 0.006588 0.018099 0.009062
vertex -0.068575 0.042572 0.006263
endloop
endfacet
facet normal 0.245713 0.675092 -0.695612
outer loop
vertex -0.068575 0.042572 0.006263
vertex 0.006588 0.018099 0.009062
vertex 0.005661 0.015553 0.006263
endloop
endfacet
facet normal 0.205765 0.565335 -0.798785
outer loop
vertex -0.068575 0.042572 0.006263
vertex 0.005661 0.015553 0.006263
vertex -0.069639 0.039648 0.003919
endloop
endfacet
facet normal -0.338419 -0.929797 -0.144742
outer loop
vertex -0.157003 0.030600 0.023320
vertex -0.156810 0.031130 0.019465
vertex -0.082574 0.004110 0.019465
endloop
endfacet
facet normal -0.326617 -0.897373 -0.296720
outer loop
vertex -0.082574 0.004110 0.019465
vertex -0.156810 0.031130 0.019465
vertex -0.082179 0.005197 0.015744
endloop
endfacet
facet normal -0.338418 -0.929797 -0.144740
outer loop
vertex -0.157003 0.030600 0.023320
vertex -0.082574 0.004110 0.019465
vertex -0.082767 0.003580 0.023320
endloop
endfacet
facet normal -0.342000 -0.939638 0.010753
outer loop
vertex -0.156988 0.030639 0.027216
vertex -0.157003 0.030600 0.023320
vertex -0.082767 0.003580 0.023320
endloop
endfacet
facet normal -0.342000 -0.939638 0.010753
outer loop
vertex -0.156988 0.030639 0.027216
vertex -0.082767 0.003580 0.023320
vertex -0.082753 0.003620 0.027216
endloop
endfacet
facet normal -0.337275 -0.926657 0.165987
outer loop
vertex -0.156767 0.031247 0.031058
vertex -0.156988 0.030639 0.027216
vertex -0.082753 0.003620 0.027216
endloop
endfacet
facet normal -0.337276 -0.926657 0.165985
outer loop
vertex -0.156767 0.031247 0.031058
vertex -0.082753 0.003620 0.027216
vertex -0.082531 0.004227 0.031058
endloop
endfacet
facet normal -0.324359 -0.891170 0.317187
outer loop
vertex -0.156344 0.032408 0.034753
vertex -0.156767 0.031247 0.031058
vertex -0.082531 0.004227 0.031058
endloop
endfacet
facet normal -0.324359 -0.891170 0.317187
outer loop
vertex -0.156344 0.032408 0.034753
vertex -0.082531 0.004227 0.031058
vertex -0.082109 0.005389 0.034753
endloop
endfacet
facet normal -0.303564 -0.834038 0.460684
outer loop
vertex -0.155731 0.034095 0.038211
vertex -0.156344 0.032408 0.034753
vertex -0.082109 0.005389 0.034753
endloop
endfacet
facet normal -0.303565 -0.834037 0.460684
outer loop
vertex -0.155731 0.034095 0.038211
vertex -0.082109 0.005389 0.034753
vertex -0.081495 0.007075 0.038211
endloop
endfacet
facet normal -0.275397 -0.756647 0.592994
outer loop
vertex -0.154940 0.036266 0.041348
vertex -0.155731 0.034095 0.038211
vertex -0.081495 0.007075 0.038211
endloop
endfacet
facet normal -0.275398 -0.756648 0.592992
outer loop
vertex -0.154940 0.036266 0.041348
vertex -0.081495 0.007075 0.038211
vertex -0.080705 0.009246 0.041348
endloop
endfacet
facet normal -0.240540 -0.660882 0.710898
outer loop
vertex -0.153993 0.038869 0.044088
vertex -0.154940 0.036266 0.041348
vertex -0.080705 0.009246 0.041348
endloop
endfacet
facet normal -0.240542 -0.660881 0.710898
outer loop
vertex -0.153993 0.038869 0.044088
vertex -0.080705 0.009246 0.041348
vertex -0.079757 0.011849 0.044088
endloop
endfacet
facet normal -0.199842 -0.549062 0.811538
outer loop
vertex -0.152912 0.041840 0.046365
vertex -0.153993 0.038869 0.044088
vertex -0.079757 0.011849 0.044088
endloop
endfacet
facet normal -0.199843 -0.549063 0.811537
outer loop
vertex -0.152912 0.041840 0.046365
vertex -0.079757 0.011849 0.044088
vertex -0.078676 0.014820 0.046365
endloop
endfacet
facet normal -0.154289 -0.423908 0.892467
outer loop
vertex -0.151722 0.045107 0.048123
vertex -0.152912 0.041840 0.046365
vertex -0.078676 0.014820 0.046365
endloop
endfacet
facet normal -0.154290 -0.423908 0.892467
outer loop
vertex -0.151722 0.045107 0.048123
vertex -0.078676 0.014820 0.046365
vertex -0.077487 0.018088 0.048123
endloop
endfacet
facet normal -0.104991 -0.288459 0.951719
outer loop
vertex -0.150454 0.048592 0.049319
vertex -0.151722 0.045107 0.048123
vertex -0.077487 0.018088 0.048123
endloop
endfacet
facet normal -0.104991 -0.288458 0.951719
outer loop
vertex -0.150454 0.048592 0.049319
vertex -0.077487 0.018088 0.048123
vertex -0.076218 0.021572 0.049319
endloop
endfacet
facet normal -0.053140 -0.146002 0.987856
outer loop
vertex -0.149138 0.052209 0.049924
vertex -0.150454 0.048592 0.049319
vertex -0.076218 0.021572 0.049319
endloop
endfacet
facet normal -0.053140 -0.146002 0.987856
outer loop
vertex -0.149138 0.052209 0.049924
vertex -0.076218 0.021572 0.049319
vertex -0.074902 0.025189 0.049924
endloop
endfacet
facet normal 0.000000 0.000000 1.000000
outer loop
vertex -0.147805 0.055870 0.049924
vertex -0.149138 0.052209 0.049924
vertex -0.074902 0.025189 0.049924
endloop
endfacet
facet normal -0.000000 0.000000 1.000000
outer loop
vertex -0.147805 0.055870 0.049924
vertex -0.074902 0.025189 0.049924
vertex -0.073569 0.028850 0.049924
endloop
endfacet
facet normal 0.053140 0.146001 0.987856
outer loop
vertex -0.146489 0.059487 0.049319
vertex -0.147805 0.055870 0.049924
vertex -0.073569 0.028850 0.049924
endloop
endfacet
facet normal 0.053140 0.146002 0.987856
outer loop
vertex -0.146489 0.059487 0.049319
vertex -0.073569 0.028850 0.049924
vertex -0.072253 0.032467 0.049319
endloop
endfacet
facet normal 0.104991 0.288460 0.951718
outer loop
vertex -0.145221 0.062971 0.048123
vertex -0.146489 0.059487 0.049319
vertex -0.072253 0.032467 0.049319
endloop
endfacet
facet normal 0.104990 0.288458 0.951719
outer loop
vertex -0.145221 0.062971 0.048123
vertex -0.072253 0.032467 0.049319
vertex -0.070985 0.035951 0.048123
endloop
endfacet
facet normal 0.154290 0.423909 0.892466
outer loop
vertex -0.144031 0.066238 0.046365
vertex -0.145221 0.062971 0.048123
vertex -0.070985 0.035951 0.048123
endloop
endfacet
facet normal 0.154289 0.423908 0.892467
outer loop
vertex -0.144031 0.066238 0.046365
vertex -0.070985 0.035951 0.048123
vertex -0.069796 0.039219 0.046365
endloop
endfacet
facet normal 0.199843 0.549062 0.811538
outer loop
vertex -0.142950 0.069210 0.044088
vertex -0.144031 0.066238 0.046365
vertex -0.069796 0.039219 0.046365
endloop
endfacet
facet normal 0.199842 0.549063 0.811538
outer loop
vertex -0.142950 0.069210 0.044088
vertex -0.069796 0.039219 0.046365
vertex -0.068714 0.042190 0.044088
endloop
endfacet
facet normal 0.240542 0.660882 0.710897
outer loop
vertex -0.142003 0.071812 0.041348
vertex -0.142950 0.069210 0.044088
vertex -0.068714 0.042190 0.044088
endloop
endfacet
facet normal 0.240540 0.660880 0.710899
outer loop
vertex -0.142003 0.071812 0.041348
vertex -0.068714 0.042190 0.044088
vertex -0.067767 0.044793 0.041348
endloop
endfacet
facet normal 0.275397 0.756647 0.592994
outer loop
vertex -0.141212 0.073983 0.038211
vertex -0.142003 0.071812 0.041348
vertex -0.067767 0.044793 0.041348
endloop
endfacet
facet normal 0.275397 0.756648 0.592993
outer loop
vertex -0.141212 0.073983 0.038211
vertex -0.067767 0.044793 0.041348
vertex -0.066977 0.046964 0.038211
endloop
endfacet
facet normal 0.303565 0.834039 0.460681
outer loop
vertex -0.140598 0.075670 0.034753
vertex -0.141212 0.073983 0.038211
vertex -0.066977 0.046964 0.038211
endloop
endfacet
facet normal 0.303564 0.834037 0.460686
outer loop
vertex -0.140598 0.075670 0.034753
vertex -0.066977 0.046964 0.038211
vertex -0.066363 0.048650 0.034753
endloop
endfacet
facet normal 0.324359 0.891170 0.317186
outer loop
vertex -0.140176 0.076831 0.031058
vertex -0.140598 0.075670 0.034753
vertex -0.066363 0.048650 0.034753
endloop
endfacet
facet normal 0.324360 0.891170 0.317186
outer loop
vertex -0.140176 0.076831 0.031058
vertex -0.066363 0.048650 0.034753
vertex -0.065940 0.049812 0.031058
endloop
endfacet
facet normal 0.337276 0.926657 0.165985
outer loop
vertex -0.139955 0.077439 0.027216
vertex -0.140176 0.076831 0.031058
vertex -0.065940 0.049812 0.031058
endloop
endfacet
facet normal 0.337276 0.926657 0.165986
outer loop
vertex -0.139955 0.077439 0.027216
vertex -0.065940 0.049812 0.031058
vertex -0.065719 0.050419 0.027216
endloop
endfacet
facet normal 0.342000 0.939638 0.010754
outer loop
vertex -0.139940 0.077478 0.023320
vertex -0.139955 0.077439 0.027216
vertex -0.065719 0.050419 0.027216
endloop
endfacet
facet normal 0.342000 0.939638 0.010754
outer loop
vertex -0.139940 0.077478 0.023320
vertex -0.065719 0.050419 0.027216
vertex -0.065705 0.050459 0.023320
endloop
endfacet
facet normal 0.338418 0.929797 -0.144744
outer loop
vertex -0.140133 0.076948 0.019465
vertex -0.139940 0.077478 0.023320
vertex -0.065705 0.050459 0.023320
endloop
endfacet
facet normal 0.338419 0.929798 -0.144738
outer loop
vertex -0.140133 0.076948 0.019465
vertex -0.065705 0.050459 0.023320
vertex -0.065897 0.049929 0.019465
endloop
endfacet
facet normal 0.326617 0.897373 -0.296720
outer loop
vertex -0.140529 0.075862 0.015744
vertex -0.140133 0.076948 0.019465
vertex -0.065897 0.049929 0.019465
endloop
endfacet
facet normal 0.326617 0.897373 -0.296718
outer loop
vertex -0.140529 0.075862 0.015744
vertex -0.065897 0.049929 0.019465
vertex -0.066293 0.048843 0.015744
endloop
endfacet
facet normal 0.306882 0.843153 -0.441493
outer loop
vertex -0.141117 0.074246 0.012248
vertex -0.140529 0.075862 0.015744
vertex -0.066293 0.048843 0.015744
endloop
endfacet
facet normal 0.306883 0.843154 -0.441491
outer loop
vertex -0.141117 0.074246 0.012248
vertex -0.066293 0.048843 0.015744
vertex -0.066881 0.047226 0.012248
endloop
endfacet
facet normal 0.279695 0.768456 -0.575539
outer loop
vertex -0.141884 0.072139 0.009062
vertex -0.141117 0.074246 0.012248
vertex -0.066881 0.047226 0.012248
endloop
endfacet
facet normal 0.279695 0.768456 -0.575540
outer loop
vertex -0.141884 0.072139 0.009062
vertex -0.066881 0.047226 0.012248
vertex -0.067648 0.045119 0.009062
endloop
endfacet
facet normal 0.245714 0.675093 -0.695610
outer loop
vertex -0.142811 0.069592 0.006263
vertex -0.141884 0.072139 0.009062
vertex -0.067648 0.045119 0.009062
endloop
endfacet
facet normal 0.245714 0.675094 -0.695610
outer loop
vertex -0.142811 0.069592 0.006263
vertex -0.067648 0.045119 0.009062
vertex -0.068575 0.042572 0.006263
endloop
endfacet
facet normal 0.205765 0.565334 -0.798786
outer loop
vertex -0.143875 0.066667 0.003919
vertex -0.142811 0.069592 0.006263
vertex -0.068575 0.042572 0.006263
endloop
endfacet
facet normal 0.205765 0.565335 -0.798785
outer loop
vertex -0.143875 0.066667 0.003919
vertex -0.068575 0.042572 0.006263
vertex -0.069639 0.039648 0.003919
endloop
endfacet
facet normal -0.342020 -0.939693 0.000000
outer loop
vertex 0.219287 -0.090456 0.000000
vertex 0.219287 -0.090456 0.002087
vertex -0.226127 0.071662 0.000000
endloop
endfacet
facet normal -0.342020 -0.939693 0.000000
outer loop
vertex -0.226127 0.071662 0.000000
vertex 0.219287 -0.090456 0.002087
vertex -0.226127 0.071662 0.002087
endloop
endfacet
facet normal -0.939692 0.342020 0.000000
outer loop
vertex -0.226127 0.071662 0.000000
vertex -0.226127 0.071662 0.002087
vertex -0.219287 0.090456 0.000000
endloop
endfacet
facet normal -0.939692 0.342020 0.000000
outer loop
vertex -0.219287 0.090456 0.000000
vertex -0.226127 0.071662 0.002087
vertex -0.219287 0.090456 0.002087
endloop
endfacet
facet normal -0.939692 0.342021 0.000000
outer loop
vertex -0.219287 0.090456 0.002087
vertex -0.226127 0.071662 0.002087
vertex -0.218142 0.093601 0.003861
endloop
endfacet
facet normal -0.939692 0.342021 -0.000002
outer loop
vertex -0.218142 0.093601 0.003861
vertex -0.226127 0.071662 0.002087
vertex -0.217102 0.096458 0.006120
endloop
endfacet
facet normal -0.939693 0.342019 -0.000006
outer loop
vertex -0.217102 0.096458 0.006120
vertex -0.226127 0.071662 0.002087
vertex -0.216191 0.098962 0.008813
endloop
endfacet
facet normal -0.939693 0.342020 0.000006
outer loop
vertex -0.216191 0.098962 0.008813
vertex -0.226127 0.071662 0.002087
vertex -0.215429 0.101055 0.011878
endloop
endfacet
facet normal -0.939691 0.342024 -0.000003
outer loop
vertex -0.215429 0.101055 0.011878
vertex -0.226127 0.071662 0.002087
vertex -0.214835 0.102688 0.015243
endloop
endfacet
facet normal -0.939692 0.342023 0.000002
outer loop
vertex -0.214835 0.102688 0.015243
vertex -0.226127 0.071662 0.002087
vertex -0.214421 0.103825 0.018833
endloop
endfacet
facet normal -0.939692 0.342021 -0.000002
outer loop
vertex -0.214421 0.103825 0.018833
vertex -0.226127 0.071662 0.002087
vertex -0.214197 0.104439 0.022564
endloop
endfacet
facet normal -0.939693 0.342019 -0.000002
outer loop
vertex -0.214197 0.104439 0.022564
vertex -0.226127 0.071662 0.002087
vertex -0.214169 0.104517 0.026352
endloop
endfacet
facet normal -0.939693 0.342019 0.000003
outer loop
vertex -0.214169 0.104517 0.026352
vertex -0.226127 0.071662 0.002087
vertex -0.214337 0.104056 0.030108
endloop
endfacet
facet normal -0.939692 0.342022 -0.000002
outer loop
vertex -0.214337 0.104056 0.030108
vertex -0.226127 0.071662 0.002087
vertex -0.214697 0.103066 0.033747
endloop
endfacet
facet normal -0.939692 0.342022 -0.000001
outer loop
vertex -0.214697 0.103066 0.033747
vertex -0.226127 0.071662 0.002087
vertex -0.215241 0.101572 0.037185
endloop
endfacet
facet normal -0.939692 0.342022 0.000001
outer loop
vertex -0.215241 0.101572 0.037185
vertex -0.226127 0.071662 0.002087
vertex -0.215956 0.099606 0.040343
endloop
endfacet
facet normal -0.939695 0.342013 -0.000001
outer loop
vertex -0.215956 0.099606 0.040343
vertex -0.226127 0.071662 0.002087
vertex -0.216827 0.097215 0.043149
endloop
endfacet
facet normal -0.939691 0.342026 0.000001
outer loop
vertex -0.216827 0.097215 0.043149
vertex -0.226127 0.071662 0.002087
vertex -0.217832 0.094453 0.045539
endloop
endfacet
facet normal -0.939694 0.342017 -0.000001
outer loop
vertex -0.217832 0.094453 0.045539
vertex -0.226127 0.071662 0.002087
vertex -0.218949 0.091383 0.047456
endloop
endfacet
facet normal -0.939693 0.342020 0.000001
outer loop
vertex -0.218949 0.091383 0.047456
vertex -0.226127 0.071662 0.002087
vertex -0.220153 0.088076 0.048859
endloop
endfacet
facet normal -0.939690 0.342027 0.000000
outer loop
vertex -0.220153 0.088076 0.048859
vertex -0.226127 0.071662 0.002087
vertex -0.227272 0.068517 0.003861
endloop
endfacet
facet normal -0.939692 0.342022 0.000000
outer loop
vertex -0.220153 0.088076 0.048859
vertex -0.227272 0.068517 0.003861
vertex -0.228312 0.065659 0.006120
endloop
endfacet
facet normal -0.939698 0.342006 0.000002
outer loop
vertex -0.228312 0.065659 0.006120
vertex -0.229223 0.063156 0.008813
vertex -0.220153 0.088076 0.048859
endloop
endfacet
facet normal -0.939692 0.342022 -0.000002
outer loop
vertex -0.220153 0.088076 0.048859
vertex -0.229223 0.063156 0.008813
vertex -0.229985 0.061063 0.011878
endloop
endfacet
facet normal -0.939694 0.342017 0.000001
outer loop
vertex -0.220153 0.088076 0.048859
vertex -0.229985 0.061063 0.011878
vertex -0.230580 0.059429 0.015243
endloop
endfacet
facet normal -0.939688 0.342032 -0.000001
outer loop
vertex -0.230580 0.059429 0.015243
vertex -0.230993 0.058292 0.018833
vertex -0.220153 0.088076 0.048859
endloop
endfacet
facet normal -0.939693 0.342018 -0.000001
outer loop
vertex -0.220153 0.088076 0.048859
vertex -0.230993 0.058292 0.018833
vertex -0.231217 0.057678 0.022564
endloop
endfacet
facet normal -0.939694 0.342016 0.000002
outer loop
vertex -0.220153 0.088076 0.048859
vertex -0.231217 0.057678 0.022564
vertex -0.231245 0.057601 0.026352
endloop
endfacet
facet normal -0.939690 0.342026 -0.000003
outer loop
vertex -0.231245 0.057601 0.026352
vertex -0.231077 0.058062 0.030108
vertex -0.220153 0.088076 0.048859
endloop
endfacet
facet normal -0.939694 0.342017 0.000001
outer loop
vertex -0.220153 0.088076 0.048859
vertex -0.231077 0.058062 0.030108
vertex -0.221415 0.084608 0.049713
endloop
endfacet
facet normal -0.939695 0.342015 0.000001
outer loop
vertex -0.221415 0.084608 0.049713
vertex -0.231077 0.058062 0.030108
vertex -0.230717 0.059051 0.033747
endloop
endfacet
facet normal -0.939693 0.342019 0.000002
outer loop
vertex -0.221415 0.084608 0.049713
vertex -0.230717 0.059051 0.033747
vertex -0.230173 0.060546 0.037185
endloop
endfacet
facet normal -0.939690 0.342026 -0.000006
outer loop
vertex -0.230173 0.060546 0.037185
vertex -0.229458 0.062511 0.040343
vertex -0.221415 0.084608 0.049713
endloop
endfacet
facet normal -0.939691 0.342023 0.000004
outer loop
vertex -0.221415 0.084608 0.049713
vertex -0.229458 0.062511 0.040343
vertex -0.228588 0.064902 0.043149
endloop
endfacet
facet normal -0.939693 0.342018 0.000001
outer loop
vertex -0.221415 0.084608 0.049713
vertex -0.228588 0.064902 0.043149
vertex -0.227582 0.067665 0.045539
endloop
endfacet
facet normal -0.939693 0.342018 0.000000
outer loop
vertex -0.227582 0.067665 0.045539
vertex -0.226465 0.070735 0.047456
vertex -0.221415 0.084608 0.049713
endloop
endfacet
facet normal -0.939691 0.342024 -0.000015
outer loop
vertex -0.221415 0.084608 0.049713
vertex -0.226465 0.070735 0.047456
vertex -0.225261 0.074041 0.048859
endloop
endfacet
facet normal -0.939692 0.342021 0.000005
outer loop
vertex -0.221415 0.084608 0.049713
vertex -0.225261 0.074041 0.048859
vertex -0.223999 0.077509 0.049713
endloop
endfacet
facet normal -0.939695 0.342013 -0.000007
outer loop
vertex -0.223999 0.077509 0.049713
vertex -0.222707 0.081059 0.050000
vertex -0.221415 0.084608 0.049713
endloop
endfacet
facet normal 0.939692 -0.342020 0.000000
outer loop
vertex 0.219287 -0.090456 0.000000
vertex 0.226127 -0.071662 0.000000
vertex 0.219287 -0.090456 0.002087
endloop
endfacet
facet normal 0.939692 -0.342020 0.000000
outer loop
vertex 0.219287 -0.090456 0.002087
vertex 0.226127 -0.071662 0.000000
vertex 0.226127 -0.071662 0.002087
endloop
endfacet
facet normal 0.939693 -0.342019 -0.000001
outer loop
vertex 0.219287 -0.090456 0.002087
vertex 0.226127 -0.071662 0.002087
vertex 0.227272 -0.068517 0.003861
endloop
endfacet
facet normal 0.939692 -0.342021 0.000000
outer loop
vertex 0.227272 -0.068517 0.003861
vertex 0.228312 -0.065659 0.006120
vertex 0.219287 -0.090456 0.002087
endloop
endfacet
facet normal 0.939692 -0.342023 0.000006
outer loop
vertex 0.219287 -0.090456 0.002087
vertex 0.228312 -0.065659 0.006120
vertex 0.229223 -0.063156 0.008813
endloop
endfacet
facet normal 0.939694 -0.342017 -0.000006
outer loop
vertex 0.219287 -0.090456 0.002087
vertex 0.229223 -0.063156 0.008813
vertex 0.229985 -0.061063 0.011878
endloop
endfacet
facet normal 0.939693 -0.342020 0.000003
outer loop
vertex 0.229985 -0.061063 0.011878
vertex 0.230580 -0.059429 0.015243
vertex 0.219287 -0.090456 0.002087
endloop
endfacet
facet normal 0.939692 -0.342022 -0.000002
outer loop
vertex 0.219287 -0.090456 0.002087
vertex 0.230580 -0.059429 0.015243
vertex 0.230993 -0.058292 0.018833
endloop
endfacet
facet normal 0.939692 -0.342021 0.000001
outer loop
vertex 0.219287 -0.090456 0.002087
vertex 0.230993 -0.058292 0.018833
vertex 0.231217 -0.057678 0.022564
endloop
endfacet
facet normal 0.939693 -0.342019 0.000002
outer loop
vertex 0.231217 -0.057678 0.022564
vertex 0.231245 -0.057601 0.026352
vertex 0.219287 -0.090456 0.002087
endloop
endfacet
facet normal 0.939693 -0.342018 -0.000003
outer loop
vertex 0.219287 -0.090456 0.002087
vertex 0.231245 -0.057601 0.026352
vertex 0.231077 -0.058062 0.030108
endloop
endfacet
facet normal 0.939689 -0.342031 0.000001
outer loop
vertex 0.219287 -0.090456 0.002087
vertex 0.231077 -0.058062 0.030108
vertex 0.230717 -0.059051 0.033747
endloop
endfacet
facet normal 0.939692 -0.342022 0.000001
outer loop
vertex 0.230717 -0.059051 0.033747
vertex 0.230173 -0.060546 0.037185
vertex 0.219287 -0.090456 0.002087
endloop
endfacet
facet normal 0.939696 -0.342010 -0.000002
outer loop
vertex 0.219287 -0.090456 0.002087
vertex 0.230173 -0.060546 0.037185
vertex 0.229458 -0.062511 0.040343
endloop
endfacet
facet normal 0.939690 -0.342029 0.000001
outer loop
vertex 0.219287 -0.090456 0.002087
vertex 0.229458 -0.062511 0.040343
vertex 0.228588 -0.064902 0.043149
endloop
endfacet
facet normal 0.939694 -0.342017 0.000000
outer loop
vertex 0.228588 -0.064902 0.043149
vertex 0.227582 -0.067665 0.045539
vertex 0.219287 -0.090456 0.002087
endloop
endfacet
facet normal 0.939693 -0.342019 0.000001
outer loop
vertex 0.219287 -0.090456 0.002087
vertex 0.227582 -0.067665 0.045539
vertex 0.226465 -0.070735 0.047456
endloop
endfacet
facet normal 0.939691 -0.342024 -0.000001
outer loop
vertex 0.219287 -0.090456 0.002087
vertex 0.226465 -0.070735 0.047456
vertex 0.225261 -0.074041 0.048859
endloop
endfacet
facet normal 0.939691 -0.342026 -0.000002
outer loop
vertex 0.223999 -0.077509 0.049713
vertex 0.214337 -0.104056 0.030108
vertex 0.225261 -0.074041 0.048859
endloop
endfacet
facet normal 0.939693 -0.342019 0.000002
outer loop
vertex 0.225261 -0.074041 0.048859
vertex 0.214337 -0.104056 0.030108
vertex 0.214169 -0.104517 0.026352
endloop
endfacet
facet normal 0.939693 -0.342018 -0.000001
outer loop
vertex 0.225261 -0.074041 0.048859
vertex 0.214169 -0.104517 0.026352
vertex 0.214197 -0.104439 0.022564
endloop
endfacet
facet normal 0.939695 -0.342013 0.000000
outer loop
vertex 0.222707 -0.081059 0.050000
vertex 0.221415 -0.084608 0.049713
vertex 0.223999 -0.077509 0.049713
endloop
endfacet
facet normal 0.939692 -0.342021 -0.000002
outer loop
vertex 0.223999 -0.077509 0.049713
vertex 0.221415 -0.084608 0.049713
vertex 0.220153 -0.088076 0.048859
endloop
endfacet
facet normal 0.939691 -0.342024 0.000015
outer loop
vertex 0.223999 -0.077509 0.049713
vertex 0.220153 -0.088076 0.048859
vertex 0.218949 -0.091383 0.047456
endloop
endfacet
facet normal 0.939693 -0.342018 0.000000
outer loop
vertex 0.218949 -0.091383 0.047456
vertex 0.217832 -0.094453 0.045539
vertex 0.223999 -0.077509 0.049713
endloop
endfacet
facet normal 0.939692 -0.342021 0.000001
outer loop
vertex 0.223999 -0.077509 0.049713
vertex 0.217832 -0.094453 0.045539
vertex 0.216827 -0.097215 0.043149
endloop
endfacet
facet normal 0.939693 -0.342019 -0.000003
outer loop
vertex 0.223999 -0.077509 0.049713
vertex 0.216827 -0.097215 0.043149
vertex 0.215956 -0.099606 0.040343
endloop
endfacet
facet normal 0.939690 -0.342026 0.000002
outer loop
vertex 0.215956 -0.099606 0.040343
vertex 0.215241 -0.101572 0.037185
vertex 0.223999 -0.077509 0.049713
endloop
endfacet
facet normal 0.939692 -0.342021 -0.000001
outer loop
vertex 0.223999 -0.077509 0.049713
vertex 0.215241 -0.101572 0.037185
vertex 0.214697 -0.103066 0.033747
endloop
endfacet
facet normal 0.939694 -0.342017 -0.000001
outer loop
vertex 0.223999 -0.077509 0.049713
vertex 0.214697 -0.103066 0.033747
vertex 0.214337 -0.104056 0.030108
endloop
endfacet
facet normal 0.939693 -0.342019 0.000001
outer loop
vertex 0.214197 -0.104439 0.022564
vertex 0.214421 -0.103825 0.018833
vertex 0.225261 -0.074041 0.048859
endloop
endfacet
facet normal 0.939693 -0.342020 0.000001
outer loop
vertex 0.225261 -0.074041 0.048859
vertex 0.214421 -0.103825 0.018833
vertex 0.214835 -0.102688 0.015243
endloop
endfacet
facet normal 0.939692 -0.342021 -0.000001
outer loop
vertex 0.225261 -0.074041 0.048859
vertex 0.214835 -0.102688 0.015243
vertex 0.215429 -0.101055 0.011878
endloop
endfacet
facet normal 0.939692 -0.342023 0.000001
outer loop
vertex 0.215429 -0.101055 0.011878
vertex 0.216191 -0.098962 0.008813
vertex 0.225261 -0.074041 0.048859
endloop
endfacet
facet normal 0.939698 -0.342006 -0.000002
outer loop
vertex 0.225261 -0.074041 0.048859
vertex 0.216191 -0.098962 0.008813
vertex 0.217102 -0.096458 0.006120
endloop
endfacet
facet normal 0.939689 -0.342031 -0.000000
outer loop
vertex 0.225261 -0.074041 0.048859
vertex 0.217102 -0.096458 0.006120
vertex 0.218142 -0.093601 0.003861
endloop
endfacet
facet normal 0.939694 -0.342016 0.000000
outer loop
vertex 0.218142 -0.093601 0.003861
vertex 0.219287 -0.090456 0.002087
vertex 0.225261 -0.074041 0.048859
endloop
endfacet
solid cylinder
