solid cylinder
facet normal 0.000000 0.000000 -1.000000
outer loop
vertex 0.141832 -0.070340 0.000000
vertex 0.131832 -0.087660 0.000000
vertex -0.131832 0.087660 0.000000
endloop
endfacet
facet normal 0.000000 0.000000 -1.000000
outer loop
vertex -0.131832 0.087660 0.000000
vertex 0.131832 -0.087660 0.000000
vertex -0.141832 0.070340 0.000000
endloop
endfacet
facet normal 0.500000 0.866026 0.000000
outer loop
vertex 0.141832 -0.070340 0.002087
vertex 0.141832 -0.070340 0.000000
vertex -0.131832 0.087660 0.002087
endloop
endfacet
facet normal 0.500000 0.866025 0.000000
outer loop
vertex -0.131832 0.087660 0.002087
vertex 0.141832 -0.070340 0.000000
vertex -0.131832 0.087660 0.000000
endloop
endfacet
facet normal -0.234283 -0.405469 -0.883576
outer loop
vertex 0.130158 -0.090559 0.003861
vertex 0.084502 -0.064305 0.003919
vertex 0.131832 -0.087660 0.002087
endloop
endfacet
facet normal -0.235100 -0.407206 -0.882560
outer loop
vertex 0.131832 -0.087660 0.002087
vertex 0.084502 -0.064305 0.003919
vertex 0.038891 -0.037971 0.003919
endloop
endfacet
facet normal -0.235099 -0.407204 -0.882561
outer loop
vertex 0.131832 -0.087660 0.002087
vertex 0.038891 -0.037971 0.003919
vertex -0.006719 -0.011638 0.003919
endloop
endfacet
facet normal -0.300808 -0.521015 -0.798785
outer loop
vertex -0.006719 -0.011638 0.003919
vertex 0.038891 -0.037971 0.003919
vertex -0.008275 -0.014333 0.006263
endloop
endfacet
facet normal -0.300808 -0.521015 -0.798785
outer loop
vertex -0.006719 -0.011638 0.003919
vertex -0.008275 -0.014333 0.006263
vertex -0.053886 0.012000 0.006263
endloop
endfacet
facet normal -0.359210 -0.622170 -0.695610
outer loop
vertex -0.053886 0.012000 0.006263
vertex -0.008275 -0.014333 0.006263
vertex -0.055241 0.009653 0.009062
endloop
endfacet
facet normal -0.359210 -0.622170 -0.695610
outer loop
vertex -0.053886 0.012000 0.006263
vertex -0.055241 0.009653 0.009062
vertex -0.100852 0.035986 0.009062
endloop
endfacet
facet normal -0.408886 -0.708212 -0.575541
outer loop
vertex -0.100852 0.035986 0.009062
vertex -0.055241 0.009653 0.009062
vertex -0.101973 0.034044 0.012248
endloop
endfacet
facet normal -0.408393 -0.708498 -0.575539
outer loop
vertex -0.100852 0.035986 0.009062
vertex -0.101973 0.034044 0.012248
vertex -0.147472 0.060572 0.011878
endloop
endfacet
facet normal -0.444721 -0.769175 -0.458904
outer loop
vertex -0.147472 0.060572 0.011878
vertex -0.101973 0.034044 0.012248
vertex -0.148341 0.059066 0.015243
endloop
endfacet
facet normal -0.448034 -0.777400 -0.441491
outer loop
vertex -0.148341 0.059066 0.015243
vertex -0.101973 0.034044 0.012248
vertex -0.102833 0.032555 0.015744
endloop
endfacet
facet normal -0.474390 -0.820331 -0.319393
outer loop
vertex -0.148341 0.059066 0.015243
vertex -0.102833 0.032555 0.015744
vertex -0.148946 0.058018 0.018833
endloop
endfacet
facet normal -0.476787 -0.827424 -0.296719
outer loop
vertex -0.148946 0.058018 0.018833
vertex -0.102833 0.032555 0.015744
vertex -0.103411 0.031553 0.019465
endloop
endfacet
facet normal -0.493171 -0.852647 -0.172553
outer loop
vertex -0.148946 0.058018 0.018833
vertex -0.103411 0.031553 0.019465
vertex -0.149273 0.057452 0.022564
endloop
endfacet
facet normal -0.493951 -0.857358 -0.144741
outer loop
vertex -0.149273 0.057452 0.022564
vertex -0.103411 0.031553 0.019465
vertex -0.103693 0.031065 0.023320
endloop
endfacet
facet normal -0.500638 -0.865384 -0.021744
outer loop
vertex -0.149273 0.057452 0.022564
vertex -0.103693 0.031065 0.023320
vertex -0.149314 0.057381 0.026352
endloop
endfacet
facet normal -0.499107 -0.866474 0.010750
outer loop
vertex -0.149314 0.057381 0.026352
vertex -0.103693 0.031065 0.023320
vertex -0.103672 0.031101 0.027216
endloop
endfacet
facet normal -0.496619 -0.858245 0.129560
outer loop
vertex -0.149314 0.057381 0.026352
vertex -0.103672 0.031101 0.027216
vertex -0.149068 0.057806 0.030108
endloop
endfacet
facet normal -0.492126 -0.854553 0.165985
outer loop
vertex -0.149068 0.057806 0.030108
vertex -0.103672 0.031101 0.027216
vertex -0.103349 0.031661 0.031058
endloop
endfacet
facet normal -0.481210 -0.831394 0.277886
outer loop
vertex -0.149068 0.057806 0.030108
vertex -0.103349 0.031661 0.031058
vertex -0.148542 0.058718 0.033747
endloop
endfacet
facet normal -0.473178 -0.821885 0.317187
outer loop
vertex -0.148542 0.058718 0.033747
vertex -0.103349 0.031661 0.031058
vertex -0.102731 0.032732 0.034753
endloop
endfacet
facet normal -0.454764 -0.785448 0.419835
outer loop
vertex -0.148542 0.058718 0.033747
vertex -0.102731 0.032732 0.034753
vertex -0.147747 0.060095 0.037185
endloop
endfacet
facet normal -0.442721 -0.769265 0.460684
outer loop
vertex -0.147747 0.060095 0.037185
vertex -0.102731 0.032732 0.034753
vertex -0.101833 0.034286 0.038211
endloop
endfacet
facet normal -0.417892 -0.721458 0.552145
outer loop
vertex -0.147747 0.060095 0.037185
vertex -0.101833 0.034286 0.038211
vertex -0.146701 0.061906 0.040343
endloop
endfacet
facet normal -0.401492 -0.697972 0.592993
outer loop
vertex -0.146701 0.061906 0.040343
vertex -0.101833 0.034286 0.038211
vertex -0.100678 0.036287 0.041348
endloop
endfacet
facet normal -0.371442 -0.640896 0.671777
outer loop
vertex -0.146701 0.061906 0.040343
vertex -0.100678 0.036287 0.041348
vertex -0.145429 0.064110 0.043149
endloop
endfacet
facet normal -0.350493 -0.609736 0.710898
outer loop
vertex -0.145429 0.064110 0.043149
vertex -0.100678 0.036287 0.041348
vertex -0.099293 0.038686 0.044088
endloop
endfacet
facet normal -0.316479 -0.545608 0.775985
outer loop
vertex -0.145429 0.064110 0.043149
vertex -0.099293 0.038686 0.044088
vertex -0.143959 0.066656 0.045539
endloop
endfacet
facet normal -0.290961 -0.506704 0.811537
outer loop
vertex -0.143959 0.066656 0.045539
vertex -0.099293 0.038686 0.044088
vertex -0.097712 0.041424 0.046365
endloop
endfacet
facet normal -0.254265 -0.437782 0.862378
outer loop
vertex -0.143959 0.066656 0.045539
vertex -0.097712 0.041424 0.046365
vertex -0.142325 0.069485 0.047456
endloop
endfacet
facet normal -0.224341 -0.391378 0.892465
outer loop
vertex -0.142325 0.069485 0.047456
vertex -0.097712 0.041424 0.046365
vertex -0.095974 0.044435 0.048123
endloop
endfacet
facet normal -0.186236 -0.319896 0.928969
outer loop
vertex -0.142325 0.069485 0.047456
vertex -0.095974 0.044435 0.048123
vertex -0.140566 0.072533 0.048859
endloop
endfacet
facet normal -0.152250 -0.266557 0.951718
outer loop
vertex -0.140566 0.072533 0.048859
vertex -0.095974 0.044435 0.048123
vertex -0.094120 0.047646 0.049319
endloop
endfacet
facet normal -0.113947 -0.194653 0.974231
outer loop
vertex -0.140566 0.072533 0.048859
vertex -0.094120 0.047646 0.049319
vertex -0.138721 0.075729 0.049713
endloop
endfacet
facet normal -0.076440 -0.135275 0.987855
outer loop
vertex -0.138721 0.075729 0.049713
vertex -0.094120 0.047646 0.049319
vertex -0.092195 0.050980 0.049924
endloop
endfacet
facet normal -0.039062 -0.064932 0.997125
outer loop
vertex -0.138721 0.075729 0.049713
vertex -0.092195 0.050980 0.049924
vertex -0.136832 0.079000 0.050000
endloop
endfacet
facet normal 0.001250 -0.000722 0.999999
outer loop
vertex -0.136832 0.079000 0.050000
vertex -0.092195 0.050980 0.049924
vertex -0.090247 0.054354 0.049924
endloop
endfacet
facet normal 0.036702 0.066295 0.997125
outer loop
vertex -0.136832 0.079000 0.050000
vertex -0.090247 0.054354 0.049924
vertex -0.134943 0.082271 0.049713
endloop
endfacet
facet normal 0.078931 0.133836 0.987855
outer loop
vertex -0.134943 0.082271 0.049713
vertex -0.090247 0.054354 0.049924
vertex -0.088323 0.057687 0.049319
endloop
endfacet
facet normal 0.111602 0.196008 0.974231
outer loop
vertex -0.134943 0.082271 0.049713
vertex -0.088323 0.057687 0.049319
vertex -0.133098 0.085467 0.048859
endloop
endfacet
facet normal 0.154721 0.265132 0.951718
outer loop
vertex -0.133098 0.085467 0.048859
vertex -0.088323 0.057687 0.049319
vertex -0.086469 0.060898 0.048123
endloop
endfacet
facet normal 0.183920 0.321233 0.928969
outer loop
vertex -0.133098 0.085467 0.048859
vertex -0.086469 0.060898 0.048123
vertex -0.131339 0.088515 0.047456
endloop
endfacet
facet normal 0.226771 0.389974 0.892466
outer loop
vertex -0.131339 0.088515 0.047456
vertex -0.086469 0.060898 0.048123
vertex -0.084730 0.063910 0.046365
endloop
endfacet
facet normal 0.251998 0.439093 0.862377
outer loop
vertex -0.131339 0.088515 0.047456
vertex -0.084730 0.063910 0.046365
vertex -0.129705 0.091344 0.045539
endloop
endfacet
facet normal 0.293337 0.505331 0.811538
outer loop
vertex -0.129705 0.091344 0.045539
vertex -0.084730 0.063910 0.046365
vertex -0.083149 0.066648 0.044088
endloop
endfacet
facet normal 0.314272 0.546883 0.775984
outer loop
vertex -0.129705 0.091344 0.045539
vertex -0.083149 0.066648 0.044088
vertex -0.128235 0.093890 0.043149
endloop
endfacet
facet normal 0.352802 0.608404 0.710898
outer loop
vertex -0.128235 0.093890 0.043149
vertex -0.083149 0.066648 0.044088
vertex -0.081764 0.069047 0.041348
endloop
endfacet
facet normal 0.369311 0.642124 0.671778
outer loop
vertex -0.128235 0.093890 0.043149
vertex -0.081764 0.069047 0.041348
vertex -0.126963 0.096094 0.040343
endloop
endfacet
facet normal 0.403714 0.696688 0.592993
outer loop
vertex -0.126963 0.096094 0.040343
vertex -0.081764 0.069047 0.041348
vertex -0.080609 0.071047 0.038211
endloop
endfacet
facet normal 0.415856 0.722636 0.552142
outer loop
vertex -0.126963 0.096094 0.040343
vertex -0.080609 0.071047 0.038211
vertex -0.125917 0.097905 0.037185
endloop
endfacet
facet normal 0.444842 0.768040 0.460684
outer loop
vertex -0.125917 0.097905 0.037185
vertex -0.080609 0.071047 0.038211
vertex -0.079712 0.072602 0.034753
endloop
endfacet
facet normal 0.452835 0.786560 0.419837
outer loop
vertex -0.125917 0.097905 0.037185
vertex -0.079712 0.072602 0.034753
vertex -0.125122 0.099282 0.033747
endloop
endfacet
facet normal 0.475183 0.820727 0.317188
outer loop
vertex -0.125122 0.099282 0.033747
vertex -0.079712 0.072602 0.034753
vertex -0.079094 0.073672 0.031058
endloop
endfacet
facet normal 0.479404 0.832437 0.277886
outer loop
vertex -0.125122 0.099282 0.033747
vertex -0.079094 0.073672 0.031058
vertex -0.124596 0.100194 0.030108
endloop
endfacet
facet normal 0.494001 0.853471 0.165982
outer loop
vertex -0.124596 0.100194 0.030108
vertex -0.079094 0.073672 0.031058
vertex -0.078771 0.074232 0.027216
endloop
endfacet
facet normal 0.494951 0.859207 0.129562
outer loop
vertex -0.124596 0.100194 0.030108
vertex -0.078771 0.074232 0.027216
vertex -0.124350 0.100619 0.026352
endloop
endfacet
facet normal 0.500835 0.865476 0.010754
outer loop
vertex -0.124350 0.100619 0.026352
vertex -0.078771 0.074232 0.027216
vertex -0.078750 0.074268 0.023320
endloop
endfacet
facet normal 0.499125 0.866257 -0.021744
outer loop
vertex -0.124350 0.100619 0.026352
vertex -0.078750 0.074268 0.023320
vertex -0.124391 0.100548 0.022564
endloop
endfacet
facet normal 0.495517 0.856453 -0.144746
outer loop
vertex -0.124391 0.100548 0.022564
vertex -0.078750 0.074268 0.023320
vertex -0.079032 0.073780 0.019465
endloop
endfacet
facet normal 0.491830 0.853423 -0.172546
outer loop
vertex -0.124391 0.100548 0.022564
vertex -0.079032 0.073780 0.019465
vertex -0.124718 0.099982 0.018833
endloop
endfacet
facet normal 0.478176 0.826623 -0.296719
outer loop
vertex -0.124718 0.099982 0.018833
vertex -0.079032 0.073780 0.019465
vertex -0.079610 0.072779 0.015744
endloop
endfacet
facet normal 0.473232 0.820997 -0.319399
outer loop
vertex -0.124718 0.099982 0.018833
vertex -0.079610 0.072779 0.015744
vertex -0.125323 0.098934 0.015243
endloop
endfacet
facet normal 0.449231 0.776710 -0.441490
outer loop
vertex -0.125323 0.098934 0.015243
vertex -0.079610 0.072779 0.015744
vertex -0.080470 0.071289 0.012248
endloop
endfacet
facet normal 0.443764 0.769727 -0.458904
outer loop
vertex -0.125323 0.098934 0.015243
vertex -0.080470 0.071289 0.012248
vertex -0.126192 0.097428 0.011878
endloop
endfacet
facet normal 0.409381 0.707929 -0.575537
outer loop
vertex -0.126192 0.097428 0.011878
vertex -0.080470 0.071289 0.012248
vertex -0.081591 0.069347 0.009062
endloop
endfacet
facet normal 0.404104 0.700786 -0.587877
outer loop
vertex -0.126192 0.097428 0.011878
vertex -0.081591 0.069347 0.009062
vertex -0.127306 0.095500 0.008813
endloop
endfacet
facet normal 0.359592 0.621950 -0.695609
outer loop
vertex -0.127306 0.095500 0.008813
vertex -0.081591 0.069347 0.009062
vertex -0.082946 0.067000 0.006263
endloop
endfacet
facet normal 0.355165 0.615752 -0.703354
outer loop
vertex -0.127306 0.095500 0.008813
vertex -0.082946 0.067000 0.006263
vertex -0.128638 0.093192 0.006120
endloop
endfacet
facet normal 0.301071 0.520864 -0.798785
outer loop
vertex -0.128638 0.093192 0.006120
vertex -0.082946 0.067000 0.006263
vertex -0.084502 0.064305 0.003919
endloop
endfacet
facet normal 0.298075 0.516583 -0.802679
outer loop
vertex -0.128638 0.093192 0.006120
vertex -0.084502 0.064305 0.003919
vertex -0.130158 0.090559 0.003861
endloop
endfacet
facet normal 0.234283 0.405469 -0.883576
outer loop
vertex -0.130158 0.090559 0.003861
vertex -0.084502 0.064305 0.003919
vertex -0.131832 0.087660 0.002087
endloop
endfacet
facet normal 0.235101 0.407206 -0.882559
outer loop
vertex -0.131832 0.087660 0.002087
vertex -0.084502 0.064305 0.003919
vertex -0.038891 0.037972 0.003919
endloop
endfacet
facet normal 0.235099 0.407204 -0.882561
outer loop
vertex -0.131832 0.087660 0.002087
vertex -0.038891 0.037972 0.003919
vertex 0.006719 0.011638 0.003919
endloop
endfacet
facet normal 0.300808 0.521015 -0.798785
outer loop
vertex 0.006719 0.011638 0.003919
vertex -0.038891 0.037972 0.003919
vertex 0.008275 0.014333 0.006263
endloop
endfacet
facet normal 0.300808 0.521015 -0.798785
outer loop
vertex 0.006719 0.011638 0.003919
vertex 0.008275 0.014333 0.006263
vertex 0.053886 -0.012000 0.006263
endloop
endfacet
facet normal 0.359210 0.622170 -0.695610
outer loop
vertex 0.053886 -0.012000 0.006263
vertex 0.008275 0.014333 0.006263
vertex 0.055241 -0.009653 0.009062
endloop
endfacet
facet normal 0.359210 0.622169 -0.695610
outer loop
vertex 0.053886 -0.012000 0.006263
vertex 0.055241 -0.009653 0.009062
vertex 0.100852 -0.035986 0.009062
endloop
endfacet
facet normal 0.408887 0.708212 -0.575540
outer loop
vertex 0.100852 -0.035986 0.009062
vertex 0.055241 -0.009653 0.009062
vertex 0.101973 -0.034044 0.012248
endloop
endfacet
facet normal 0.408393 0.708498 -0.575539
outer loop
vertex 0.100852 -0.035986 0.009062
vertex 0.101973 -0.034044 0.012248
vertex 0.147472 -0.060572 0.011878
endloop
endfacet
facet normal 0.444721 0.769176 -0.458903
outer loop
vertex 0.147472 -0.060572 0.011878
vertex 0.101973 -0.034044 0.012248
vertex 0.148341 -0.059066 0.015243
endloop
endfacet
facet normal 0.448035 0.777400 -0.441491
outer loop
vertex 0.148341 -0.059066 0.015243
vertex 0.101973 -0.034044 0.012248
vertex 0.102833 -0.032555 0.015744
endloop
endfacet
facet normal 0.474390 0.820331 -0.319393
outer loop
vertex 0.148341 -0.059066 0.015243
vertex 0.102833 -0.032555 0.015744
vertex 0.148946 -0.058018 0.018833
endloop
endfacet
facet normal 0.476787 0.827424 -0.296720
outer loop
vertex 0.148946 -0.058018 0.018833
vertex 0.102833 -0.032555 0.015744
vertex 0.103411 -0.031553 0.019465
endloop
endfacet
facet normal 0.493172 0.852647 -0.172551
outer loop
vertex 0.148946 -0.058018 0.018833
vertex 0.103411 -0.031553 0.019465
vertex 0.149273 -0.057452 0.022564
endloop
endfacet
facet normal 0.493950 0.857358 -0.144743
outer loop
vertex 0.149273 -0.057452 0.022564
vertex 0.103411 -0.031553 0.019465
vertex 0.103693 -0.031065 0.023320
endloop
endfacet
facet normal 0.500638 0.865384 -0.021744
outer loop
vertex 0.149273 -0.057452 0.022564
vertex 0.103693 -0.031065 0.023320
vertex 0.149314 -0.057381 0.026352
endloop
endfacet
facet normal 0.499106 0.866474 0.010750
outer loop
vertex 0.149314 -0.057381 0.026352
vertex 0.103693 -0.031065 0.023320
vertex 0.103672 -0.031101 0.027216
endloop
endfacet
facet normal 0.496619 0.858245 0.129560
outer loop
vertex 0.149314 -0.057381 0.026352
vertex 0.103672 -0.031101 0.027216
vertex 0.149068 -0.057806 0.030108
endloop
endfacet
facet normal 0.492126 0.854553 0.165985
outer loop
vertex 0.149068 -0.057806 0.030108
vertex 0.103672 -0.031101 0.027216
vertex 0.103349 -0.031661 0.031058
endloop
endfacet
facet normal 0.481210 0.831394 0.277886
outer loop
vertex 0.149068 -0.057806 0.030108
vertex 0.103349 -0.031661 0.031058
vertex 0.148542 -0.058718 0.033747
endloop
endfacet
facet normal 0.473178 0.821885 0.317187
outer loop
vertex 0.148542 -0.058718 0.033747
vertex 0.103349 -0.031661 0.031058
vertex 0.102731 -0.032732 0.034753
endloop
endfacet
facet normal 0.454763 0.785447 0.419837
outer loop
vertex 0.148542 -0.058718 0.033747
vertex 0.102731 -0.032732 0.034753
vertex 0.147747 -0.060095 0.037185
endloop
endfacet
facet normal 0.442721 0.769266 0.460683
outer loop
vertex 0.147747 -0.060095 0.037185
vertex 0.102731 -0.032732 0.034753
vertex 0.101833 -0.034286 0.038211
endloop
endfacet
facet normal 0.417892 0.721457 0.552147
outer loop
vertex 0.147747 -0.060095 0.037185
vertex 0.101833 -0.034286 0.038211
vertex 0.146701 -0.061906 0.040343
endloop
endfacet
facet normal 0.401492 0.697972 0.592991
outer loop
vertex 0.146701 -0.061906 0.040343
vertex 0.101833 -0.034286 0.038211
vertex 0.100678 -0.036287 0.041348
endloop
endfacet
facet normal 0.371441 0.640895 0.671778
outer loop
vertex 0.146701 -0.061906 0.040343
vertex 0.100678 -0.036287 0.041348
vertex 0.145429 -0.064110 0.043149
endloop
endfacet
facet normal 0.350494 0.609737 0.710897
outer loop
vertex 0.145429 -0.064110 0.043149
vertex 0.100678 -0.036287 0.041348
vertex 0.099293 -0.038686 0.044088
endloop
endfacet
facet normal 0.316479 0.545608 0.775985
outer loop
vertex 0.145429 -0.064110 0.043149
vertex 0.099293 -0.038686 0.044088
vertex 0.143959 -0.066656 0.045539
endloop
endfacet
facet normal 0.290961 0.506704 0.811537
outer loop
vertex 0.143959 -0.066656 0.045539
vertex 0.099293 -0.038686 0.044088
vertex 0.097712 -0.041424 0.046365
endloop
endfacet
facet normal 0.254265 0.437782 0.862378
outer loop
vertex 0.143959 -0.066656 0.045539
vertex 0.097712 -0.041424 0.046365
vertex 0.142325 -0.069485 0.047456
endloop
endfacet
facet normal 0.224341 0.391378 0.892465
outer loop
vertex 0.142325 -0.069485 0.047456
vertex 0.097712 -0.041424 0.046365
vertex 0.095974 -0.044435 0.048123
endloop
endfacet
facet normal 0.186235 0.319896 0.928969
outer loop
vertex 0.142325 -0.069485 0.047456
vertex 0.095974 -0.044435 0.048123
vertex 0.140566 -0.072533 0.048859
endloop
endfacet
facet normal 0.152251 0.266557 0.951718
outer loop
vertex 0.140566 -0.072533 0.048859
vertex 0.095974 -0.044435 0.048123
vertex 0.094120 -0.047646 0.049319
endloop
endfacet
facet normal 0.113948 0.194654 0.974231
outer loop
vertex 0.140566 -0.072533 0.048859
vertex 0.094120 -0.047646 0.049319
vertex 0.138721 -0.075729 0.049713
endloop
endfacet
facet normal 0.076440 0.135275 0.987855
outer loop
vertex 0.138721 -0.075729 0.049713
vertex 0.094120 -0.047646 0.049319
vertex 0.092195 -0.050980 0.049924
endloop
endfacet
facet normal 0.039062 0.064932 0.997125
outer loop
vertex 0.138721 -0.075729 0.049713
vertex 0.092195 -0.050980 0.049924
vertex 0.136832 -0.079000 0.050000
endloop
endfacet
facet normal -0.001250 0.000722 0.999999
outer loop
vertex 0.136832 -0.079000 0.050000
vertex 0.092195 -0.050980 0.049924
vertex 0.090247 -0.054354 0.049924
endloop
endfacet
facet normal -0.036702 -0.066295 0.997125
outer loop
vertex 0.136832 -0.079000 0.050000
vertex 0.090247 -0.054354 0.049924
vertex 0.134943 -0.082271 0.049713
endloop
endfacet
facet normal -0.078931 -0.133836 0.987855
outer loop
vertex 0.134943 -0.082271 0.049713
vertex 0.090247 -0.054354 0.049924
vertex 0.088323 -0.057687 0.049319
endloop
endfacet
facet normal -0.111602 -0.196007 0.974231
outer loop
vertex 0.134943 -0.082271 0.049713
vertex 0.088323 -0.057687 0.049319
vertex 0.133098 -0.085467 0.048859
endloop
endfacet
facet normal -0.154719 -0.265131 0.951718
outer loop
vertex 0.133098 -0.085467 0.048859
vertex 0.088323 -0.057687 0.049319
vertex 0.086469 -0.060898 0.048123
endloop
endfacet
facet normal -0.183922 -0.321234 0.928968
outer loop
vertex 0.133098 -0.085467 0.048859
vertex 0.086469 -0.060898 0.048123
vertex 0.131339 -0.088515 0.047456
endloop
endfacet
facet normal -0.226771 -0.389973 0.892466
outer loop
vertex 0.131339 -0.088515 0.047456
vertex 0.086469 -0.060898 0.048123
vertex 0.084730 -0.063910 0.046365
endloop
endfacet
facet normal -0.251998 -0.439093 0.862377
outer loop
vertex 0.131339 -0.088515 0.047456
vertex 0.084730 -0.063910 0.046365
vertex 0.129705 -0.091344 0.045539
endloop
endfacet
facet normal -0.293337 -0.505331 0.811538
outer loop
vertex 0.129705 -0.091344 0.045539
vertex 0.084730 -0.063910 0.046365
vertex 0.083149 -0.066648 0.044088
endloop
endfacet
facet normal -0.314272 -0.546883 0.775984
outer loop
vertex 0.129705 -0.091344 0.045539
vertex 0.083149 -0.066648 0.044088
vertex 0.128235 -0.093890 0.043149
endloop
endfacet
facet normal -0.352801 -0.608404 0.710898
outer loop
vertex 0.128235 -0.093890 0.043149
vertex 0.083149 -0.066648 0.044088
vertex 0.081764 -0.069046 0.041348
endloop
endfacet
facet normal -0.369311 -0.642124 0.671778
outer loop
vertex 0.128235 -0.093890 0.043149
vertex 0.081764 -0.069046 0.041348
vertex 0.126963 -0.096094 0.040343
endloop
endfacet
facet normal -0.403714 -0.696689 0.592992
outer loop
vertex 0.126963 -0.096094 0.040343
vertex 0.081764 -0.069046 0.041348
vertex 0.080609 -0.071047 0.038211
endloop
endfacet
facet normal -0.415855 -0.722635 0.552144
outer loop
vertex 0.126963 -0.096094 0.040343
vertex 0.080609 -0.071047 0.038211
vertex 0.125917 -0.097905 0.037185
endloop
endfacet
facet normal -0.444842 -0.768041 0.460683
outer loop
vertex 0.125917 -0.097905 0.037185
vertex 0.080609 -0.071047 0.038211
vertex 0.079712 -0.072602 0.034753
endloop
endfacet
facet normal -0.452835 -0.786559 0.419839
outer loop
vertex 0.125917 -0.097905 0.037185
vertex 0.079712 -0.072602 0.034753
vertex 0.125122 -0.099282 0.033747
endloop
endfacet
facet normal -0.475183 -0.820727 0.317186
outer loop
vertex 0.125122 -0.099282 0.033747
vertex 0.079712 -0.072602 0.034753
vertex 0.079094 -0.073672 0.031058
endloop
endfacet
facet normal -0.479404 -0.832437 0.277886
outer loop
vertex 0.125122 -0.099282 0.033747
vertex 0.079094 -0.073672 0.031058
vertex 0.124596 -0.100194 0.030108
endloop
endfacet
facet normal -0.494001 -0.853471 0.165982
outer loop
vertex 0.124596 -0.100194 0.030108
vertex 0.079094 -0.073672 0.031058
vertex 0.078771 -0.074232 0.027216
endloop
endfacet
facet normal -0.494951 -0.859207 0.129562
outer loop
vertex 0.124596 -0.100194 0.030108
vertex 0.078771 -0.074232 0.027216
vertex 0.124350 -0.100619 0.026352
endloop
endfacet
facet normal -0.500835 -0.865476 0.010754
outer loop
vertex 0.124350 -0.100619 0.026352
vertex 0.078771 -0.074232 0.027216
vertex 0.078750 -0.074268 0.023320
endloop
endfacet
facet normal -0.499125 -0.866257 -0.021744
outer loop
vertex 0.124350 -0.100619 0.026352
vertex 0.078750 -0.074268 0.023320
vertex 0.124391 -0.100548 0.022564
endloop
endfacet
facet normal -0.495517 -0.856453 -0.144746
outer loop
vertex 0.124391 -0.100548 0.022564
vertex 0.078750 -0.074268 0.023320
vertex 0.079032 -0.073780 0.019465
endloop
endfacet
facet normal -0.491829 -0.853424 -0.172546
outer loop
vertex 0.124391 -0.100548 0.022564
vertex 0.079032 -0.073780 0.019465
vertex 0.124718 -0.099982 0.018833
endloop
endfacet
facet normal -0.478176 -0.826623 -0.296719
outer loop
vertex 0.124718 -0.099982 0.018833
vertex 0.079032 -0.073780 0.019465
vertex 0.079610 -0.072779 0.015744
endloop
endfacet
facet normal -0.473232 -0.820998 -0.319395
outer loop
vertex 0.124718 -0.099982 0.018833
vertex 0.079610 -0.072779 0.015744
vertex 0.125323 -0.098934 0.015243
endloop
endfacet
facet normal -0.449230 -0.776710 -0.441491
outer loop
vertex 0.125323 -0.098934 0.015243
vertex 0.079610 -0.072779 0.015744
vertex 0.080470 -0.071289 0.012248
endloop
endfacet
facet normal -0.443765 -0.769728 -0.458903
outer loop
vertex 0.125323 -0.098934 0.015243
vertex 0.080470 -0.071289 0.012248
vertex 0.126192 -0.097428 0.011878
endloop
endfacet
facet normal -0.409381 -0.707929 -0.575537
outer loop
vertex 0.126192 -0.097428 0.011878
vertex 0.080470 -0.071289 0.012248
vertex 0.081591 -0.069347 0.009062
endloop
endfacet
facet normal -0.404104 -0.700786 -0.587877
outer loop
vertex 0.126192 -0.097428 0.011878
vertex 0.081591 -0.069347 0.009062
vertex 0.127306 -0.095500 0.008813
endloop
endfacet
facet normal -0.359592 -0.621950 -0.695610
outer loop
vertex 0.127306 -0.095500 0.008813
vertex 0.081591 -0.069347 0.009062
vertex 0.082946 -0.067000 0.006263
endloop
endfacet
facet normal -0.355165 -0.615752 -0.703354
outer loop
vertex 0.127306 -0.095500 0.008813
vertex 0.082946 -0.067000 0.006263
vertex 0.128638 -0.093192 0.006120
endloop
endfacet
facet normal -0.301070 -0.520864 -0.798785
outer loop
vertex 0.128638 -0.093192 0.006120
vertex 0.082946 -0.067000 0.006263
vertex 0.084502 -0.064305 0.003919
endloop
endfacet
facet normal -0.298075 -0.516584 -0.802678
outer loop
vertex 0.128638 -0.093192 0.006120
vertex 0.084502 -0.064305 0.003919
vertex 0.130158 -0.090559 0.003861
endloop
endfacet
facet normal 0.404845 0.700358 -0.587877
outer loop
vertex 0.147472 -0.060572 0.011878
vertex 0.146358 -0.062500 0.008813
vertex 0.100852 -0.035986 0.009062
endloop
endfacet
facet normal 0.358827 0.622389 -0.695611
outer loop
vertex 0.100852 -0.035986 0.009062
vertex 0.146358 -0.062500 0.008813
vertex 0.099497 -0.038333 0.006263
endloop
endfacet
facet normal 0.359210 0.622170 -0.695610
outer loop
vertex 0.100852 -0.035986 0.009062
vertex 0.099497 -0.038333 0.006263
vertex 0.053886 -0.012000 0.006263
endloop
endfacet
facet normal 0.300808 0.521015 -0.798785
outer loop
vertex 0.053886 -0.012000 0.006263
vertex 0.099497 -0.038333 0.006263
vertex 0.052330 -0.014695 0.003919
endloop
endfacet
facet normal 0.300808 0.521015 -0.798785
outer loop
vertex 0.053886 -0.012000 0.006263
vertex 0.052330 -0.014695 0.003919
vertex 0.006719 0.011638 0.003919
endloop
endfacet
facet normal 0.235100 0.407205 -0.882560
outer loop
vertex 0.006719 0.011638 0.003919
vertex 0.052330 -0.014695 0.003919
vertex -0.131832 0.087660 0.002087
endloop
endfacet
facet normal 0.355675 0.615460 -0.703352
outer loop
vertex 0.146358 -0.062500 0.008813
vertex 0.145026 -0.064808 0.006120
vertex 0.099497 -0.038333 0.006263
endloop
endfacet
facet normal 0.300546 0.521167 -0.798785
outer loop
vertex 0.099497 -0.038333 0.006263
vertex 0.145026 -0.064808 0.006120
vertex 0.097941 -0.041028 0.003919
endloop
endfacet
facet normal 0.300808 0.521016 -0.798785
outer loop
vertex 0.099497 -0.038333 0.006263
vertex 0.097941 -0.041028 0.003919
vertex 0.052330 -0.014695 0.003919
endloop
endfacet
facet normal 0.235101 0.407207 -0.882559
outer loop
vertex 0.052330 -0.014695 0.003919
vertex 0.097941 -0.041028 0.003919
vertex -0.131832 0.087660 0.002087
endloop
endfacet
facet normal 0.298337 0.516432 -0.802679
outer loop
vertex 0.145026 -0.064808 0.006120
vertex 0.143506 -0.067441 0.003861
vertex 0.097941 -0.041028 0.003919
endloop
endfacet
facet normal 0.239056 0.414331 -0.878170
outer loop
vertex 0.097941 -0.041028 0.003919
vertex 0.143506 -0.067441 0.003861
vertex -0.131832 0.087660 0.002087
endloop
endfacet
facet normal 0.234144 0.405549 -0.883576
outer loop
vertex 0.143506 -0.067441 0.003861
vertex 0.141832 -0.070340 0.002087
vertex -0.131832 0.087660 0.002087
endloop
endfacet
facet normal -0.404846 -0.700358 -0.587877
outer loop
vertex -0.147472 0.060572 0.011878
vertex -0.146358 0.062500 0.008813
vertex -0.100852 0.035986 0.009062
endloop
endfacet
facet normal -0.358827 -0.622390 -0.695611
outer loop
vertex -0.100852 0.035986 0.009062
vertex -0.146358 0.062500 0.008813
vertex -0.099497 0.038333 0.006263
endloop
endfacet
facet normal -0.359210 -0.622170 -0.695609
outer loop
vertex -0.100852 0.035986 0.009062
vertex -0.099497 0.038333 0.006263
vertex -0.053886 0.012000 0.006263
endloop
endfacet
facet normal -0.300808 -0.521015 -0.798785
outer loop
vertex -0.053886 0.012000 0.006263
vertex -0.099497 0.038333 0.006263
vertex -0.052330 0.014695 0.003919
endloop
endfacet
facet normal -0.300808 -0.521015 -0.798785
outer loop
vertex -0.053886 0.012000 0.006263
vertex -0.052330 0.014695 0.003919
vertex -0.006719 -0.011638 0.003919
endloop
endfacet
facet normal -0.235100 -0.407206 -0.882560
outer loop
vertex -0.006719 -0.011638 0.003919
vertex -0.052330 0.014695 0.003919
vertex 0.131832 -0.087660 0.002087
endloop
endfacet
facet normal -0.355675 -0.615460 -0.703352
outer loop
vertex -0.146358 0.062500 0.008813
vertex -0.145026 0.064808 0.006120
vertex -0.099497 0.038333 0.006263
endloop
endfacet
facet normal -0.300546 -0.521167 -0.798785
outer loop
vertex -0.099497 0.038333 0.006263
vertex -0.145026 0.064808 0.006120
vertex -0.097941 0.041029 0.003919
endloop
endfacet
facet normal -0.300808 -0.521015 -0.798785
outer loop
vertex -0.099497 0.038333 0.006263
vertex -0.097941 0.041029 0.003919
vertex -0.052330 0.014695 0.003919
endloop
endfacet
facet normal -0.235102 -0.407207 -0.882558
outer loop
vertex -0.052330 0.014695 0.003919
vertex -0.097941 0.041029 0.003919
vertex 0.131832 -0.087660 0.002087
endloop
endfacet
facet normal -0.298337 -0.516432 -0.802679
outer loop
vertex -0.145026 0.064808 0.006120
vertex -0.143506 0.067441 0.003861
vertex -0.097941 0.041029 0.003919
endloop
endfacet
facet normal -0.239056 -0.414332 -0.878169
outer loop
vertex -0.097941 0.041029 0.003919
vertex -0.143506 0.067441 0.003861
vertex 0.131832 -0.087660 0.002087
endloop
endfacet
facet normal -0.234144 -0.405549 -0.883576
outer loop
vertex -0.143506 0.067441 0.003861
vertex -0.141832 0.070340 0.002087
vertex 0.131832 -0.087660 0.002087
endloop
endfacet
facet normal -0.300808 -0.521015 -0.798785
outer loop
vertex 0.038891 -0.037971 0.003919
vertex 0.084502 -0.064305 0.003919
vertex 0.037335 -0.040667 0.006263
endloop
endfacet
facet normal -0.300808 -0.521015 -0.798785
outer loop
vertex 0.037335 -0.040667 0.006263
vertex 0.084502 -0.064305 0.003919
vertex 0.082946 -0.067000 0.006263
endloop
endfacet
facet normal -0.359210 -0.622170 -0.695610
outer loop
vertex 0.037335 -0.040667 0.006263
vertex 0.082946 -0.067000 0.006263
vertex 0.035980 -0.043014 0.009062
endloop
endfacet
facet normal -0.359209 -0.622169 -0.695611
outer loop
vertex 0.035980 -0.043014 0.009062
vertex 0.082946 -0.067000 0.006263
vertex 0.081591 -0.069347 0.009062
endloop
endfacet
facet normal -0.408887 -0.708213 -0.575539
outer loop
vertex 0.035980 -0.043014 0.009062
vertex 0.081591 -0.069347 0.009062
vertex 0.034859 -0.044956 0.012248
endloop
endfacet
facet normal -0.408887 -0.708213 -0.575540
outer loop
vertex 0.034859 -0.044956 0.012248
vertex 0.081591 -0.069347 0.009062
vertex 0.080470 -0.071289 0.012248
endloop
endfacet
facet normal -0.448632 -0.777054 -0.441494
outer loop
vertex 0.034859 -0.044956 0.012248
vertex 0.080470 -0.071289 0.012248
vertex 0.033999 -0.046445 0.015744
endloop
endfacet
facet normal -0.448633 -0.777055 -0.441491
outer loop
vertex 0.033999 -0.046445 0.015744
vertex 0.080470 -0.071289 0.012248
vertex 0.079610 -0.072779 0.015744
endloop
endfacet
facet normal -0.477482 -0.827024 -0.296719
outer loop
vertex 0.033999 -0.046445 0.015744
vertex 0.079610 -0.072779 0.015744
vertex 0.033421 -0.047447 0.019465
endloop
endfacet
facet normal -0.477483 -0.827024 -0.296718
outer loop
vertex 0.033421 -0.047447 0.019465
vertex 0.079610 -0.072779 0.015744
vertex 0.079032 -0.073780 0.019465
endloop
endfacet
facet normal -0.494735 -0.856906 -0.144743
outer loop
vertex 0.033421 -0.047447 0.019465
vertex 0.079032 -0.073780 0.019465
vertex 0.033139 -0.047935 0.023320
endloop
endfacet
facet normal -0.494735 -0.856906 -0.144741
outer loop
vertex 0.033139 -0.047935 0.023320
vertex 0.079032 -0.073780 0.019465
vertex 0.078750 -0.074268 0.023320
endloop
endfacet
facet normal -0.499971 -0.865975 0.010750
outer loop
vertex 0.033139 -0.047935 0.023320
vertex 0.078750 -0.074268 0.023320
vertex 0.033160 -0.047899 0.027216
endloop
endfacet
facet normal -0.499971 -0.865975 0.010754
outer loop
vertex 0.033160 -0.047899 0.027216
vertex 0.078750 -0.074268 0.023320
vertex 0.078771 -0.074232 0.027216
endloop
endfacet
facet normal -0.493064 -0.854012 0.165986
outer loop
vertex 0.033160 -0.047899 0.027216
vertex 0.078771 -0.074232 0.027216
vertex 0.033483 -0.047339 0.031058
endloop
endfacet
facet normal -0.493064 -0.854012 0.165985
outer loop
vertex 0.033483 -0.047339 0.031058
vertex 0.078771 -0.074232 0.027216
vertex 0.079094 -0.073672 0.031058
endloop
endfacet
facet normal -0.474182 -0.821306 0.317187
outer loop
vertex 0.033483 -0.047339 0.031058
vertex 0.079094 -0.073672 0.031058
vertex 0.034101 -0.046268 0.034753
endloop
endfacet
facet normal -0.474181 -0.821306 0.317189
outer loop
vertex 0.034101 -0.046268 0.034753
vertex 0.079094 -0.073672 0.031058
vertex 0.079712 -0.072602 0.034753
endloop
endfacet
facet normal -0.443782 -0.768653 0.460684
outer loop
vertex 0.034101 -0.046268 0.034753
vertex 0.079712 -0.072602 0.034753
vertex 0.034999 -0.044714 0.038211
endloop
endfacet
facet normal -0.443782 -0.768653 0.460685
outer loop
vertex 0.034999 -0.044714 0.038211
vertex 0.079712 -0.072602 0.034753
vertex 0.080609 -0.071047 0.038211
endloop
endfacet
facet normal -0.402604 -0.697330 0.592993
outer loop
vertex 0.034999 -0.044714 0.038211
vertex 0.080609 -0.071047 0.038211
vertex 0.036154 -0.042713 0.041348
endloop
endfacet
facet normal -0.402604 -0.697330 0.592993
outer loop
vertex 0.036154 -0.042713 0.041348
vertex 0.080609 -0.071047 0.038211
vertex 0.081764 -0.069046 0.041348
endloop
endfacet
facet normal -0.351647 -0.609071 0.710899
outer loop
vertex 0.036154 -0.042713 0.041348
vertex 0.081764 -0.069046 0.041348
vertex 0.037539 -0.040314 0.044088
endloop
endfacet
facet normal -0.351648 -0.609072 0.710898
outer loop
vertex 0.037539 -0.040314 0.044088
vertex 0.081764 -0.069046 0.041348
vertex 0.083149 -0.066648 0.044088
endloop
endfacet
facet normal -0.292150 -0.506018 0.811538
outer loop
vertex 0.037539 -0.040314 0.044088
vertex 0.083149 -0.066648 0.044088
vertex 0.039120 -0.037576 0.046365
endloop
endfacet
facet normal -0.292150 -0.506019 0.811538
outer loop
vertex 0.039120 -0.037576 0.046365
vertex 0.083149 -0.066648 0.044088
vertex 0.084730 -0.063910 0.046365
endloop
endfacet
facet normal -0.225556 -0.390676 0.892467
outer loop
vertex 0.039120 -0.037576 0.046365
vertex 0.084730 -0.063910 0.046365
vertex 0.040858 -0.034565 0.048123
endloop
endfacet
facet normal -0.225557 -0.390677 0.892466
outer loop
vertex 0.040858 -0.034565 0.048123
vertex 0.084730 -0.063910 0.046365
vertex 0.086469 -0.060898 0.048123
endloop
endfacet
facet normal -0.153485 -0.265845 0.951719
outer loop
vertex 0.040858 -0.034565 0.048123
vertex 0.086469 -0.060898 0.048123
vertex 0.042712 -0.031354 0.049319
endloop
endfacet
facet normal -0.153486 -0.265845 0.951719
outer loop
vertex 0.042712 -0.031354 0.049319
vertex 0.086469 -0.060898 0.048123
vertex 0.088323 -0.057687 0.049319
endloop
endfacet
facet normal -0.077686 -0.134556 0.987856
outer loop
vertex 0.042712 -0.031354 0.049319
vertex 0.088323 -0.057687 0.049319
vertex 0.044637 -0.028020 0.049924
endloop
endfacet
facet normal -0.077686 -0.134556 0.987856
outer loop
vertex 0.044637 -0.028020 0.049924
vertex 0.088323 -0.057687 0.049319
vertex 0.090247 -0.054354 0.049924
endloop
endfacet
facet normal 0.000000 0.000000 1.000000
outer loop
vertex 0.044637 -0.028020 0.049924
vertex 0.090247 -0.054354 0.049924
vertex 0.046585 -0.024646 0.049924
endloop
endfacet
facet normal 0.000001 0.000000 1.000000
outer loop
vertex 0.046585 -0.024646 0.049924
vertex 0.090247 -0.054354 0.049924
vertex 0.092195 -0.050980 0.049924
endloop
endfacet
facet normal 0.077686 0.134556 0.987856
outer loop
vertex 0.046585 -0.024646 0.049924
vertex 0.092195 -0.050980 0.049924
vertex 0.048509 -0.021313 0.049319
endloop
endfacet
facet normal 0.077686 0.134556 0.987856
outer loop
vertex 0.048509 -0.021313 0.049319
vertex 0.092195 -0.050980 0.049924
vertex 0.094120 -0.047646 0.049319
endloop
endfacet
facet normal 0.153486 0.265845 0.951719
outer loop
vertex 0.048509 -0.021313 0.049319
vertex 0.094120 -0.047646 0.049319
vertex 0.050363 -0.018102 0.048123
endloop
endfacet
facet normal 0.153485 0.265845 0.951719
outer loop
vertex 0.050363 -0.018102 0.048123
vertex 0.094120 -0.047646 0.049319
vertex 0.095974 -0.044435 0.048123
endloop
endfacet
facet normal 0.225557 0.390676 0.892466
outer loop
vertex 0.050363 -0.018102 0.048123
vertex 0.095974 -0.044435 0.048123
vertex 0.052102 -0.015090 0.046365
endloop
endfacet
facet normal 0.225557 0.390676 0.892466
outer loop
vertex 0.052102 -0.015090 0.046365
vertex 0.095974 -0.044435 0.048123
vertex 0.097712 -0.041424 0.046365
endloop
endfacet
facet normal 0.292151 0.506019 0.811538
outer loop
vertex 0.052102 -0.015090 0.046365
vertex 0.097712 -0.041424 0.046365
vertex 0.053683 -0.012352 0.044088
endloop
endfacet
facet normal 0.292150 0.506018 0.811538
outer loop
vertex 0.053683 -0.012352 0.044088
vertex 0.097712 -0.041424 0.046365
vertex 0.099293 -0.038686 0.044088
endloop
endfacet
facet normal 0.351648 0.609072 0.710898
outer loop
vertex 0.053683 -0.012352 0.044088
vertex 0.099293 -0.038686 0.044088
vertex 0.055068 -0.009953 0.041348
endloop
endfacet
facet normal 0.351647 0.609071 0.710898
outer loop
vertex 0.055068 -0.009953 0.041348
vertex 0.099293 -0.038686 0.044088
vertex 0.100678 -0.036287 0.041348
endloop
endfacet
facet normal 0.402605 0.697330 0.592993
outer loop
vertex 0.055068 -0.009953 0.041348
vertex 0.100678 -0.036287 0.041348
vertex 0.056223 -0.007953 0.038211
endloop
endfacet
facet normal 0.402603 0.697331 0.592993
outer loop
vertex 0.056223 -0.007953 0.038211
vertex 0.100678 -0.036287 0.041348
vertex 0.101833 -0.034286 0.038211
endloop
endfacet
facet normal 0.443783 0.768653 0.460684
outer loop
vertex 0.056223 -0.007953 0.038211
vertex 0.101833 -0.034286 0.038211
vertex 0.057120 -0.006398 0.034753
endloop
endfacet
facet normal 0.443782 0.768653 0.460685
outer loop
vertex 0.057120 -0.006398 0.034753
vertex 0.101833 -0.034286 0.038211
vertex 0.102731 -0.032732 0.034753
endloop
endfacet
facet normal 0.474181 0.821306 0.317188
outer loop
vertex 0.057120 -0.006398 0.034753
vertex 0.102731 -0.032732 0.034753
vertex 0.057738 -0.005328 0.031058
endloop
endfacet
facet normal 0.474182 0.821306 0.317186
outer loop
vertex 0.057738 -0.005328 0.031058
vertex 0.102731 -0.032732 0.034753
vertex 0.103349 -0.031661 0.031058
endloop
endfacet
facet normal 0.493064 0.854012 0.165986
outer loop
vertex 0.057738 -0.005328 0.031058
vertex 0.103349 -0.031661 0.031058
vertex 0.058061 -0.004768 0.027216
endloop
endfacet
facet normal 0.493064 0.854012 0.165986
outer loop
vertex 0.058061 -0.004768 0.027216
vertex 0.103349 -0.031661 0.031058
vertex 0.103672 -0.031101 0.027216
endloop
endfacet
facet normal 0.499971 0.865976 0.010752
outer loop
vertex 0.058061 -0.004768 0.027216
vertex 0.103672 -0.031101 0.027216
vertex 0.058082 -0.004732 0.023320
endloop
endfacet
facet normal 0.499971 0.865975 0.010752
outer loop
vertex 0.058082 -0.004732 0.023320
vertex 0.103672 -0.031101 0.027216
vertex 0.103693 -0.031065 0.023320
endloop
endfacet
facet normal 0.494735 0.856906 -0.144740
outer loop
vertex 0.058082 -0.004732 0.023320
vertex 0.103693 -0.031065 0.023320
vertex 0.057800 -0.005220 0.019465
endloop
endfacet
facet normal 0.494735 0.856905 -0.144742
outer loop
vertex 0.057800 -0.005220 0.019465
vertex 0.103693 -0.031065 0.023320
vertex 0.103411 -0.031553 0.019465
endloop
endfacet
facet normal 0.477483 0.827024 -0.296719
outer loop
vertex 0.057800 -0.005220 0.019465
vertex 0.103411 -0.031553 0.019465
vertex 0.057222 -0.006221 0.015744
endloop
endfacet
facet normal 0.477483 0.827024 -0.296719
outer loop
vertex 0.057222 -0.006221 0.015744
vertex 0.103411 -0.031553 0.019465
vertex 0.102833 -0.032555 0.015744
endloop
endfacet
facet normal 0.448633 0.777055 -0.441491
outer loop
vertex 0.057222 -0.006221 0.015744
vertex 0.102833 -0.032555 0.015744
vertex 0.056362 -0.007711 0.012248
endloop
endfacet
facet normal 0.448633 0.777054 -0.441492
outer loop
vertex 0.056362 -0.007711 0.012248
vertex 0.102833 -0.032555 0.015744
vertex 0.101973 -0.034044 0.012248
endloop
endfacet
facet normal 0.408887 0.708213 -0.575540
outer loop
vertex 0.056362 -0.007711 0.012248
vertex 0.101973 -0.034044 0.012248
vertex 0.055241 -0.009653 0.009062
endloop
endfacet
facet normal -0.300808 -0.521014 -0.798786
outer loop
vertex 0.038891 -0.037971 0.003919
vertex 0.037335 -0.040667 0.006263
vertex -0.008275 -0.014333 0.006263
endloop
endfacet
facet normal -0.359210 -0.622169 -0.695610
outer loop
vertex -0.008275 -0.014333 0.006263
vertex 0.037335 -0.040667 0.006263
vertex -0.009630 -0.016680 0.009062
endloop
endfacet
facet normal -0.359210 -0.622170 -0.695610
outer loop
vertex -0.008275 -0.014333 0.006263
vertex -0.009630 -0.016680 0.009062
vertex -0.055241 0.009653 0.009062
endloop
endfacet
facet normal -0.408887 -0.708213 -0.575540
outer loop
vertex -0.055241 0.009653 0.009062
vertex -0.009630 -0.016680 0.009062
vertex -0.056362 0.007711 0.012248
endloop
endfacet
facet normal -0.408887 -0.708213 -0.575540
outer loop
vertex -0.055241 0.009653 0.009062
vertex -0.056362 0.007711 0.012248
vertex -0.101973 0.034044 0.012248
endloop
endfacet
facet normal -0.448633 -0.777055 -0.441491
outer loop
vertex -0.101973 0.034044 0.012248
vertex -0.056362 0.007711 0.012248
vertex -0.102833 0.032555 0.015744
endloop
endfacet
facet normal -0.359210 -0.622170 -0.695610
outer loop
vertex -0.009630 -0.016680 0.009062
vertex 0.037335 -0.040667 0.006263
vertex 0.035980 -0.043014 0.009062
endloop
endfacet
facet normal -0.408887 -0.708213 -0.575540
outer loop
vertex -0.009630 -0.016680 0.009062
vertex 0.035980 -0.043014 0.009062
vertex -0.010752 -0.018622 0.012248
endloop
endfacet
facet normal -0.408887 -0.708212 -0.575541
outer loop
vertex -0.010752 -0.018622 0.012248
vertex 0.035980 -0.043014 0.009062
vertex 0.034859 -0.044956 0.012248
endloop
endfacet
facet normal -0.448633 -0.777055 -0.441490
outer loop
vertex -0.010752 -0.018622 0.012248
vertex 0.034859 -0.044956 0.012248
vertex -0.011612 -0.020112 0.015744
endloop
endfacet
facet normal -0.448633 -0.777055 -0.441492
outer loop
vertex -0.011612 -0.020112 0.015744
vertex 0.034859 -0.044956 0.012248
vertex 0.033999 -0.046445 0.015744
endloop
endfacet
facet normal -0.477483 -0.827024 -0.296717
outer loop
vertex -0.011612 -0.020112 0.015744
vertex 0.033999 -0.046445 0.015744
vertex -0.012190 -0.021113 0.019465
endloop
endfacet
facet normal -0.477483 -0.827023 -0.296720
outer loop
vertex -0.012190 -0.021113 0.019465
vertex 0.033999 -0.046445 0.015744
vertex 0.033421 -0.047447 0.019465
endloop
endfacet
facet normal -0.494734 -0.856906 -0.144740
outer loop
vertex -0.012190 -0.021113 0.019465
vertex 0.033421 -0.047447 0.019465
vertex -0.012472 -0.021602 0.023320
endloop
endfacet
facet normal -0.494735 -0.856906 -0.144740
outer loop
vertex -0.012472 -0.021602 0.023320
vertex 0.033421 -0.047447 0.019465
vertex 0.033139 -0.047935 0.023320
endloop
endfacet
facet normal -0.499971 -0.865975 0.010752
outer loop
vertex -0.012472 -0.021602 0.023320
vertex 0.033139 -0.047935 0.023320
vertex -0.012451 -0.021565 0.027216
endloop
endfacet
facet normal -0.499971 -0.865975 0.010750
outer loop
vertex -0.012451 -0.021565 0.027216
vertex 0.033139 -0.047935 0.023320
vertex 0.033160 -0.047899 0.027216
endloop
endfacet
facet normal -0.493064 -0.854011 0.165988
outer loop
vertex -0.012451 -0.021565 0.027216
vertex 0.033160 -0.047899 0.027216
vertex -0.012127 -0.021005 0.031058
endloop
endfacet
facet normal -0.493064 -0.854012 0.165984
outer loop
vertex -0.012127 -0.021005 0.031058
vertex 0.033160 -0.047899 0.027216
vertex 0.033483 -0.047339 0.031058
endloop
endfacet
facet normal -0.474182 -0.821306 0.317189
outer loop
vertex -0.012127 -0.021005 0.031058
vertex 0.033483 -0.047339 0.031058
vertex -0.011510 -0.019935 0.034753
endloop
endfacet
facet normal -0.474181 -0.821307 0.317187
outer loop
vertex -0.011510 -0.019935 0.034753
vertex 0.033483 -0.047339 0.031058
vertex 0.034101 -0.046268 0.034753
endloop
endfacet
facet normal -0.443782 -0.768654 0.460683
outer loop
vertex -0.011510 -0.019935 0.034753
vertex 0.034101 -0.046268 0.034753
vertex -0.010612 -0.018381 0.038211
endloop
endfacet
facet normal -0.443783 -0.768653 0.460683
outer loop
vertex -0.010612 -0.018381 0.038211
vertex 0.034101 -0.046268 0.034753
vertex 0.034999 -0.044714 0.038211
endloop
endfacet
facet normal -0.402603 -0.697330 0.592994
outer loop
vertex -0.010612 -0.018381 0.038211
vertex 0.034999 -0.044714 0.038211
vertex -0.009457 -0.016380 0.041348
endloop
endfacet
facet normal -0.402604 -0.697331 0.592992
outer loop
vertex -0.009457 -0.016380 0.041348
vertex 0.034999 -0.044714 0.038211
vertex 0.036154 -0.042713 0.041348
endloop
endfacet
facet normal -0.351646 -0.609071 0.710898
outer loop
vertex -0.009457 -0.016380 0.041348
vertex 0.036154 -0.042713 0.041348
vertex -0.008072 -0.013981 0.044088
endloop
endfacet
facet normal -0.351648 -0.609071 0.710898
outer loop
vertex -0.008072 -0.013981 0.044088
vertex 0.036154 -0.042713 0.041348
vertex 0.037539 -0.040314 0.044088
endloop
endfacet
facet normal -0.292151 -0.506019 0.811538
outer loop
vertex -0.008072 -0.013981 0.044088
vertex 0.037539 -0.040314 0.044088
vertex -0.006491 -0.011243 0.046365
endloop
endfacet
facet normal -0.292150 -0.506018 0.811538
outer loop
vertex -0.006491 -0.011243 0.046365
vertex 0.037539 -0.040314 0.044088
vertex 0.039120 -0.037576 0.046365
endloop
endfacet
facet normal -0.225556 -0.390677 0.892466
outer loop
vertex -0.006491 -0.011243 0.046365
vertex 0.039120 -0.037576 0.046365
vertex -0.004752 -0.008232 0.048123
endloop
endfacet
facet normal -0.225558 -0.390676 0.892466
outer loop
vertex -0.004752 -0.008232 0.048123
vertex 0.039120 -0.037576 0.046365
vertex 0.040858 -0.034565 0.048123
endloop
endfacet
facet normal -0.153486 -0.265845 0.951719
outer loop
vertex -0.004752 -0.008232 0.048123
vertex 0.040858 -0.034565 0.048123
vertex -0.002898 -0.005020 0.049319
endloop
endfacet
facet normal -0.153486 -0.265845 0.951719
outer loop
vertex -0.002898 -0.005020 0.049319
vertex 0.040858 -0.034565 0.048123
vertex 0.042712 -0.031354 0.049319
endloop
endfacet
facet normal -0.077685 -0.134556 0.987856
outer loop
vertex -0.002898 -0.005020 0.049319
vertex 0.042712 -0.031354 0.049319
vertex -0.000974 -0.001687 0.049924
endloop
endfacet
facet normal -0.077686 -0.134556 0.987856
outer loop
vertex -0.000974 -0.001687 0.049924
vertex 0.042712 -0.031354 0.049319
vertex 0.044637 -0.028020 0.049924
endloop
endfacet
facet normal 0.000000 0.000000 1.000000
outer loop
vertex -0.000974 -0.001687 0.049924
vertex 0.044637 -0.028020 0.049924
vertex 0.000974 0.001687 0.049924
endloop
endfacet
facet normal 0.000000 0.000000 1.000000
outer loop
vertex 0.000974 0.001687 0.049924
vertex 0.044637 -0.028020 0.049924
vertex 0.046585 -0.024646 0.049924
endloop
endfacet
facet normal 0.077686 0.134556 0.987856
outer loop
vertex 0.000974 0.001687 0.049924
vertex 0.046585 -0.024646 0.049924
vertex 0.002898 0.005020 0.049319
endloop
endfacet
facet normal 0.077685 0.134556 0.987856
outer loop
vertex 0.002898 0.005020 0.049319
vertex 0.046585 -0.024646 0.049924
vertex 0.048509 -0.021313 0.049319
endloop
endfacet
facet normal 0.153486 0.265845 0.951719
outer loop
vertex 0.002898 0.005020 0.049319
vertex 0.048509 -0.021313 0.049319
vertex 0.004752 0.008232 0.048123
endloop
endfacet
facet normal 0.153485 0.265845 0.951719
outer loop
vertex 0.004752 0.008232 0.048123
vertex 0.048509 -0.021313 0.049319
vertex 0.050363 -0.018102 0.048123
endloop
endfacet
facet normal 0.225558 0.390676 0.892466
outer loop
vertex 0.004752 0.008232 0.048123
vertex 0.050363 -0.018102 0.048123
vertex 0.006491 0.011243 0.046365
endloop
endfacet
facet normal 0.225556 0.390676 0.892466
outer loop
vertex 0.006491 0.011243 0.046365
vertex 0.050363 -0.018102 0.048123
vertex 0.052102 -0.015090 0.046365
endloop
endfacet
facet normal 0.292149 0.506018 0.811538
outer loop
vertex 0.006491 0.011243 0.046365
vertex 0.052102 -0.015090 0.046365
vertex 0.008072 0.013981 0.044088
endloop
endfacet
facet normal 0.292149 0.506018 0.811538
outer loop
vertex 0.008072 0.013981 0.044088
vertex 0.052102 -0.015090 0.046365
vertex 0.053683 -0.012352 0.044088
endloop
endfacet
facet normal 0.351649 0.609071 0.710898
outer loop
vertex 0.008072 0.013981 0.044088
vertex 0.053683 -0.012352 0.044088
vertex 0.009457 0.016380 0.041348
endloop
endfacet
facet normal 0.351647 0.609072 0.710898
outer loop
vertex 0.009457 0.016380 0.041348
vertex 0.053683 -0.012352 0.044088
vertex 0.055068 -0.009953 0.041348
endloop
endfacet
facet normal 0.402605 0.697330 0.592992
outer loop
vertex 0.009457 0.016380 0.041348
vertex 0.055068 -0.009953 0.041348
vertex 0.010612 0.018381 0.038211
endloop
endfacet
facet normal 0.402604 0.697330 0.592993
outer loop
vertex 0.010612 0.018381 0.038211
vertex 0.055068 -0.009953 0.041348
vertex 0.056223 -0.007953 0.038211
endloop
endfacet
facet normal 0.443783 0.768653 0.460684
outer loop
vertex 0.010612 0.018381 0.038211
vertex 0.056223 -0.007953 0.038211
vertex 0.011510 0.019935 0.034753
endloop
endfacet
facet normal 0.443781 0.768654 0.460684
outer loop
vertex 0.011510 0.019935 0.034753
vertex 0.056223 -0.007953 0.038211
vertex 0.057120 -0.006398 0.034753
endloop
endfacet
facet normal 0.474181 0.821307 0.317187
outer loop
vertex 0.011510 0.019935 0.034753
vertex 0.057120 -0.006398 0.034753
vertex 0.012127 0.021005 0.031058
endloop
endfacet
facet normal 0.474182 0.821306 0.317187
outer loop
vertex 0.012127 0.021005 0.031058
vertex 0.057120 -0.006398 0.034753
vertex 0.057738 -0.005328 0.031058
endloop
endfacet
facet normal 0.493064 0.854012 0.165985
outer loop
vertex 0.012127 0.021005 0.031058
vertex 0.057738 -0.005328 0.031058
vertex 0.012451 0.021565 0.027216
endloop
endfacet
facet normal 0.493064 0.854012 0.165986
outer loop
vertex 0.012451 0.021565 0.027216
vertex 0.057738 -0.005328 0.031058
vertex 0.058061 -0.004768 0.027216
endloop
endfacet
facet normal 0.499971 0.865976 0.010754
outer loop
vertex 0.012451 0.021565 0.027216
vertex 0.058061 -0.004768 0.027216
vertex 0.012472 0.021602 0.023320
endloop
endfacet
facet normal 0.499971 0.865975 0.010752
outer loop
vertex 0.012472 0.021602 0.023320
vertex 0.058061 -0.004768 0.027216
vertex 0.058082 -0.004732 0.023320
endloop
endfacet
facet normal 0.494735 0.856906 -0.144741
outer loop
vertex 0.012472 0.021602 0.023320
vertex 0.058082 -0.004732 0.023320
vertex 0.012190 0.021113 0.019465
endloop
endfacet
facet normal 0.494735 0.856906 -0.144741
outer loop
vertex 0.012190 0.021113 0.019465
vertex 0.058082 -0.004732 0.023320
vertex 0.057800 -0.005220 0.019465
endloop
endfacet
facet normal 0.477482 0.827024 -0.296719
outer loop
vertex 0.012190 0.021113 0.019465
vertex 0.057800 -0.005220 0.019465
vertex 0.011612 0.020112 0.015744
endloop
endfacet
facet normal 0.477483 0.827024 -0.296719
outer loop
vertex 0.011612 0.020112 0.015744
vertex 0.057800 -0.005220 0.019465
vertex 0.057222 -0.006221 0.015744
endloop
endfacet
facet normal 0.448633 0.777055 -0.441491
outer loop
vertex 0.011612 0.020112 0.015744
vertex 0.057222 -0.006221 0.015744
vertex 0.010752 0.018622 0.012248
endloop
endfacet
facet normal 0.448633 0.777055 -0.441491
outer loop
vertex 0.010752 0.018622 0.012248
vertex 0.057222 -0.006221 0.015744
vertex 0.056362 -0.007711 0.012248
endloop
endfacet
facet normal 0.408887 0.708213 -0.575540
outer loop
vertex 0.010752 0.018622 0.012248
vertex 0.056362 -0.007711 0.012248
vertex 0.009630 0.016681 0.009062
endloop
endfacet
facet normal 0.408887 0.708213 -0.575540
outer loop
vertex 0.009630 0.016681 0.009062
vertex 0.056362 -0.007711 0.012248
vertex 0.055241 -0.009653 0.009062
endloop
endfacet
facet normal 0.359210 0.622169 -0.695610
outer loop
vertex 0.009630 0.016681 0.009062
vertex 0.055241 -0.009653 0.009062
vertex 0.008275 0.014333 0.006263
endloop
endfacet
facet normal -0.408887 -0.708213 -0.575540
outer loop
vertex -0.009630 -0.016680 0.009062
vertex -0.010752 -0.018622 0.012248
vertex -0.056362 0.007711 0.012248
endloop
endfacet
facet normal -0.448633 -0.777055 -0.441491
outer loop
vertex -0.056362 0.007711 0.012248
vertex -0.010752 -0.018622 0.012248
vertex -0.057222 0.006221 0.015744
endloop
endfacet
facet normal -0.448633 -0.777055 -0.441491
outer loop
vertex -0.056362 0.007711 0.012248
vertex -0.057222 0.006221 0.015744
vertex -0.102833 0.032555 0.015744
endloop
endfacet
facet normal -0.477482 -0.827024 -0.296719
outer loop
vertex -0.102833 0.032555 0.015744
vertex -0.057222 0.006221 0.015744
vertex -0.103411 0.031553 0.019465
endloop
endfacet
facet normal -0.448633 -0.777055 -0.441492
outer loop
vertex -0.057222 0.006221 0.015744
vertex -0.010752 -0.018622 0.012248
vertex -0.011612 -0.020112 0.015744
endloop
endfacet
facet normal -0.477482 -0.827024 -0.296719
outer loop
vertex -0.057222 0.006221 0.015744
vertex -0.011612 -0.020112 0.015744
vertex -0.057800 0.005220 0.019465
endloop
endfacet
facet normal -0.477482 -0.827024 -0.296719
outer loop
vertex -0.057800 0.005220 0.019465
vertex -0.011612 -0.020112 0.015744
vertex -0.012190 -0.021113 0.019465
endloop
endfacet
facet normal -0.494734 -0.856906 -0.144742
outer loop
vertex -0.057800 0.005220 0.019465
vertex -0.012190 -0.021113 0.019465
vertex -0.058082 0.004732 0.023320
endloop
endfacet
facet normal -0.494735 -0.856906 -0.144741
outer loop
vertex -0.058082 0.004732 0.023320
vertex -0.012190 -0.021113 0.019465
vertex -0.012472 -0.021602 0.023320
endloop
endfacet
facet normal -0.499971 -0.865975 0.010752
outer loop
vertex -0.058082 0.004732 0.023320
vertex -0.012472 -0.021602 0.023320
vertex -0.058061 0.004768 0.027216
endloop
endfacet
facet normal -0.499971 -0.865975 0.010753
outer loop
vertex -0.058061 0.004768 0.027216
vertex -0.012472 -0.021602 0.023320
vertex -0.012451 -0.021565 0.027216
endloop
endfacet
facet normal -0.493064 -0.854012 0.165985
outer loop
vertex -0.058061 0.004768 0.027216
vertex -0.012451 -0.021565 0.027216
vertex -0.057738 0.005328 0.031058
endloop
endfacet
facet normal -0.493064 -0.854012 0.165985
outer loop
vertex -0.057738 0.005328 0.031058
vertex -0.012451 -0.021565 0.027216
vertex -0.012127 -0.021005 0.031058
endloop
endfacet
facet normal -0.474182 -0.821306 0.317187
outer loop
vertex -0.057738 0.005328 0.031058
vertex -0.012127 -0.021005 0.031058
vertex -0.057120 0.006398 0.034753
endloop
endfacet
facet normal -0.474181 -0.821307 0.317187
outer loop
vertex -0.057120 0.006398 0.034753
vertex -0.012127 -0.021005 0.031058
vertex -0.011510 -0.019935 0.034753
endloop
endfacet
facet normal -0.443781 -0.768654 0.460684
outer loop
vertex -0.057120 0.006398 0.034753
vertex -0.011510 -0.019935 0.034753
vertex -0.056223 0.007953 0.038211
endloop
endfacet
facet normal -0.443783 -0.768653 0.460684
outer loop
vertex -0.056223 0.007953 0.038211
vertex -0.011510 -0.019935 0.034753
vertex -0.010612 -0.018381 0.038211
endloop
endfacet
facet normal -0.402604 -0.697330 0.592993
outer loop
vertex -0.056223 0.007953 0.038211
vertex -0.010612 -0.018381 0.038211
vertex -0.055068 0.009954 0.041348
endloop
endfacet
facet normal -0.402604 -0.697330 0.592993
outer loop
vertex -0.055068 0.009954 0.041348
vertex -0.010612 -0.018381 0.038211
vertex -0.009457 -0.016380 0.041348
endloop
endfacet
facet normal -0.351647 -0.609072 0.710898
outer loop
vertex -0.055068 0.009954 0.041348
vertex -0.009457 -0.016380 0.041348
vertex -0.053683 0.012352 0.044088
endloop
endfacet
facet normal -0.351649 -0.609071 0.710898
outer loop
vertex -0.053683 0.012352 0.044088
vertex -0.009457 -0.016380 0.041348
vertex -0.008072 -0.013981 0.044088
endloop
endfacet
facet normal -0.292149 -0.506018 0.811538
outer loop
vertex -0.053683 0.012352 0.044088
vertex -0.008072 -0.013981 0.044088
vertex -0.052102 0.015090 0.046365
endloop
endfacet
facet normal -0.292149 -0.506018 0.811538
outer loop
vertex -0.052102 0.015090 0.046365
vertex -0.008072 -0.013981 0.044088
vertex -0.006491 -0.011243 0.046365
endloop
endfacet
facet normal -0.225557 -0.390676 0.892466
outer loop
vertex -0.052102 0.015090 0.046365
vertex -0.006491 -0.011243 0.046365
vertex -0.050363 0.018102 0.048123
endloop
endfacet
facet normal -0.225558 -0.390676 0.892466
outer loop
vertex -0.050363 0.018102 0.048123
vertex -0.006491 -0.011243 0.046365
vertex -0.004752 -0.008232 0.048123
endloop
endfacet
facet normal -0.153485 -0.265845 0.951719
outer loop
vertex -0.050363 0.018102 0.048123
vertex -0.004752 -0.008232 0.048123
vertex -0.048509 0.021313 0.049319
endloop
endfacet
facet normal -0.153486 -0.265845 0.951719
outer loop
vertex -0.048509 0.021313 0.049319
vertex -0.004752 -0.008232 0.048123
vertex -0.002898 -0.005020 0.049319
endloop
endfacet
facet normal -0.077685 -0.134556 0.987856
outer loop
vertex -0.048509 0.021313 0.049319
vertex -0.002898 -0.005020 0.049319
vertex -0.046585 0.024646 0.049924
endloop
endfacet
facet normal -0.077686 -0.134556 0.987856
outer loop
vertex -0.046585 0.024646 0.049924
vertex -0.002898 -0.005020 0.049319
vertex -0.000974 -0.001687 0.049924
endloop
endfacet
facet normal 0.000000 0.000000 1.000000
outer loop
vertex -0.046585 0.024646 0.049924
vertex -0.000974 -0.001687 0.049924
vertex -0.044637 0.028020 0.049924
endloop
endfacet
facet normal 0.000001 0.000000 1.000000
outer loop
vertex -0.044637 0.028020 0.049924
vertex -0.000974 -0.001687 0.049924
vertex 0.000974 0.001687 0.049924
endloop
endfacet
facet normal 0.077686 0.134556 0.987856
outer loop
vertex -0.044637 0.028020 0.049924
vertex 0.000974 0.001687 0.049924
vertex -0.042712 0.031354 0.049319
endloop
endfacet
facet normal 0.077685 0.134556 0.987856
outer loop
vertex -0.042712 0.031354 0.049319
vertex 0.000974 0.001687 0.049924
vertex 0.002898 0.005020 0.049319
endloop
endfacet
facet normal 0.153486 0.265845 0.951719
outer loop
vertex -0.042712 0.031354 0.049319
vertex 0.002898 0.005020 0.049319
vertex -0.040858 0.034565 0.048123
endloop
endfacet
facet normal 0.153486 0.265845 0.951719
outer loop
vertex -0.040858 0.034565 0.048123
vertex 0.002898 0.005020 0.049319
vertex 0.004752 0.008232 0.048123
endloop
endfacet
facet normal 0.225558 0.390676 0.892466
outer loop
vertex -0.040858 0.034565 0.048123
vertex 0.004752 0.008232 0.048123
vertex -0.039120 0.037576 0.046365
endloop
endfacet
facet normal 0.225556 0.390676 0.892467
outer loop
vertex -0.039120 0.037576 0.046365
vertex 0.004752 0.008232 0.048123
vertex 0.006491 0.011243 0.046365
endloop
endfacet
facet normal 0.292150 0.506019 0.811538
outer loop
vertex -0.039120 0.037576 0.046365
vertex 0.006491 0.011243 0.046365
vertex -0.037539 0.040314 0.044088
endloop
endfacet
facet normal 0.292150 0.506018 0.811538
outer loop
vertex -0.037539 0.040314 0.044088
vertex 0.006491 0.011243 0.046365
vertex 0.008072 0.013981 0.044088
endloop
endfacet
facet normal 0.351647 0.609071 0.710898
outer loop
vertex -0.037539 0.040314 0.044088
vertex 0.008072 0.013981 0.044088
vertex -0.036154 0.042713 0.041348
endloop
endfacet
facet normal 0.351647 0.609072 0.710898
outer loop
vertex -0.036154 0.042713 0.041348
vertex 0.008072 0.013981 0.044088
vertex 0.009457 0.016380 0.041348
endloop
endfacet
facet normal 0.402605 0.697330 0.592993
outer loop
vertex -0.036154 0.042713 0.041348
vertex 0.009457 0.016380 0.041348
vertex -0.034999 0.044714 0.038211
endloop
endfacet
facet normal 0.402604 0.697330 0.592993
outer loop
vertex -0.034999 0.044714 0.038211
vertex 0.009457 0.016380 0.041348
vertex 0.010612 0.018381 0.038211
endloop
endfacet
facet normal 0.443783 0.768653 0.460684
outer loop
vertex -0.034999 0.044714 0.038211
vertex 0.010612 0.018381 0.038211
vertex -0.034101 0.046268 0.034753
endloop
endfacet
facet normal 0.443781 0.768654 0.460684
outer loop
vertex -0.034101 0.046268 0.034753
vertex 0.010612 0.018381 0.038211
vertex 0.011510 0.019935 0.034753
endloop
endfacet
facet normal 0.474181 0.821307 0.317187
outer loop
vertex -0.034101 0.046268 0.034753
vertex 0.011510 0.019935 0.034753
vertex -0.033483 0.047339 0.031058
endloop
endfacet
facet normal 0.474182 0.821306 0.317188
outer loop
vertex -0.033483 0.047339 0.031058
vertex 0.011510 0.019935 0.034753
vertex 0.012127 0.021005 0.031058
endloop
endfacet
facet normal 0.493064 0.854012 0.165986
outer loop
vertex -0.033483 0.047339 0.031058
vertex 0.012127 0.021005 0.031058
vertex -0.033160 0.047899 0.027216
endloop
endfacet
facet normal 0.493064 0.854012 0.165987
outer loop
vertex -0.033160 0.047899 0.027216
vertex 0.012127 0.021005 0.031058
vertex 0.012451 0.021565 0.027216
endloop
endfacet
facet normal 0.499971 0.865976 0.010751
outer loop
vertex -0.033160 0.047899 0.027216
vertex 0.012451 0.021565 0.027216
vertex -0.033139 0.047935 0.023320
endloop
endfacet
facet normal 0.499971 0.865975 0.010752
outer loop
vertex -0.033139 0.047935 0.023320
vertex 0.012451 0.021565 0.027216
vertex 0.012472 0.021602 0.023320
endloop
endfacet
facet normal 0.494734 0.856906 -0.144740
outer loop
vertex -0.033139 0.047935 0.023320
vertex 0.012472 0.021602 0.023320
vertex -0.033421 0.047447 0.019465
endloop
endfacet
facet normal 0.494735 0.856906 -0.144741
outer loop
vertex -0.033421 0.047447 0.019465
vertex 0.012472 0.021602 0.023320
vertex 0.012190 0.021113 0.019465
endloop
endfacet
facet normal 0.477482 0.827023 -0.296721
outer loop
vertex -0.033421 0.047447 0.019465
vertex 0.012190 0.021113 0.019465
vertex -0.033999 0.046445 0.015744
endloop
endfacet
facet normal 0.477483 0.827024 -0.296718
outer loop
vertex -0.033999 0.046445 0.015744
vertex 0.012190 0.021113 0.019465
vertex 0.011612 0.020112 0.015744
endloop
endfacet
facet normal 0.448632 0.777055 -0.441492
outer loop
vertex -0.033999 0.046445 0.015744
vertex 0.011612 0.020112 0.015744
vertex -0.034859 0.044956 0.012248
endloop
endfacet
facet normal 0.448633 0.777055 -0.441490
outer loop
vertex -0.034859 0.044956 0.012248
vertex 0.011612 0.020112 0.015744
vertex 0.010752 0.018622 0.012248
endloop
endfacet
facet normal 0.408887 0.708212 -0.575541
outer loop
vertex -0.034859 0.044956 0.012248
vertex 0.010752 0.018622 0.012248
vertex -0.035980 0.043014 0.009062
endloop
endfacet
facet normal 0.408887 0.708212 -0.575540
outer loop
vertex -0.035980 0.043014 0.009062
vertex 0.010752 0.018622 0.012248
vertex 0.009630 0.016681 0.009062
endloop
endfacet
facet normal 0.359210 0.622170 -0.695609
outer loop
vertex -0.035980 0.043014 0.009062
vertex 0.009630 0.016681 0.009062
vertex -0.037335 0.040667 0.006263
endloop
endfacet
facet normal 0.359210 0.622170 -0.695610
outer loop
vertex -0.037335 0.040667 0.006263
vertex 0.009630 0.016681 0.009062
vertex 0.008275 0.014333 0.006263
endloop
endfacet
facet normal 0.300808 0.521015 -0.798785
outer loop
vertex -0.037335 0.040667 0.006263
vertex 0.008275 0.014333 0.006263
vertex -0.038891 0.037972 0.003919
endloop
endfacet
facet normal -0.494734 -0.856906 -0.144742
outer loop
vertex -0.103693 0.031065 0.023320
vertex -0.103411 0.031553 0.019465
vertex -0.057800 0.005220 0.019465
endloop
endfacet
facet normal -0.477483 -0.827024 -0.296718
outer loop
vertex -0.057800 0.005220 0.019465
vertex -0.103411 0.031553 0.019465
vertex -0.057222 0.006221 0.015744
endloop
endfacet
facet normal -0.494735 -0.856906 -0.144741
outer loop
vertex -0.103693 0.031065 0.023320
vertex -0.057800 0.005220 0.019465
vertex -0.058082 0.004732 0.023320
endloop
endfacet
facet normal -0.499971 -0.865975 0.010752
outer loop
vertex -0.103672 0.031101 0.027216
vertex -0.103693 0.031065 0.023320
vertex -0.058082 0.004732 0.023320
endloop
endfacet
facet normal -0.499971 -0.865975 0.010752
outer loop
vertex -0.103672 0.031101 0.027216
vertex -0.058082 0.004732 0.023320
vertex -0.058061 0.004768 0.027216
endloop
endfacet
facet normal -0.493065 -0.854012 0.165986
outer loop
vertex -0.103349 0.031661 0.031058
vertex -0.103672 0.031101 0.027216
vertex -0.058061 0.004768 0.027216
endloop
endfacet
facet normal -0.493064 -0.854012 0.165986
outer loop
vertex -0.103349 0.031661 0.031058
vertex -0.058061 0.004768 0.027216
vertex -0.057738 0.005328 0.031058
endloop
endfacet
facet normal -0.474182 -0.821306 0.317186
outer loop
vertex -0.102731 0.032732 0.034753
vertex -0.103349 0.031661 0.031058
vertex -0.057738 0.005328 0.031058
endloop
endfacet
facet normal -0.474181 -0.821306 0.317188
outer loop
vertex -0.102731 0.032732 0.034753
vertex -0.057738 0.005328 0.031058
vertex -0.057120 0.006398 0.034753
endloop
endfacet
facet normal -0.443782 -0.768653 0.460685
outer loop
vertex -0.101833 0.034286 0.038211
vertex -0.102731 0.032732 0.034753
vertex -0.057120 0.006398 0.034753
endloop
endfacet
facet normal -0.443783 -0.768653 0.460684
outer loop
vertex -0.101833 0.034286 0.038211
vertex -0.057120 0.006398 0.034753
vertex -0.056223 0.007953 0.038211
endloop
endfacet
facet normal -0.402604 -0.697330 0.592993
outer loop
vertex -0.100678 0.036287 0.041348
vertex -0.101833 0.034286 0.038211
vertex -0.056223 0.007953 0.038211
endloop
endfacet
facet normal -0.402604 -0.697330 0.592993
outer loop
vertex -0.100678 0.036287 0.041348
vertex -0.056223 0.007953 0.038211
vertex -0.055068 0.009954 0.041348
endloop
endfacet
facet normal -0.351648 -0.609072 0.710898
outer loop
vertex -0.099293 0.038686 0.044088
vertex -0.100678 0.036287 0.041348
vertex -0.055068 0.009954 0.041348
endloop
endfacet
facet normal -0.351647 -0.609071 0.710898
outer loop
vertex -0.099293 0.038686 0.044088
vertex -0.055068 0.009954 0.041348
vertex -0.053683 0.012352 0.044088
endloop
endfacet
facet normal -0.292149 -0.506018 0.811538
outer loop
vertex -0.097712 0.041424 0.046365
vertex -0.099293 0.038686 0.044088
vertex -0.053683 0.012352 0.044088
endloop
endfacet
facet normal -0.292151 -0.506019 0.811538
outer loop
vertex -0.097712 0.041424 0.046365
vertex -0.053683 0.012352 0.044088
vertex -0.052102 0.015090 0.046365
endloop
endfacet
facet normal -0.225557 -0.390676 0.892466
outer loop
vertex -0.095974 0.044435 0.048123
vertex -0.097712 0.041424 0.046365
vertex -0.052102 0.015090 0.046365
endloop
endfacet
facet normal -0.225557 -0.390676 0.892466
outer loop
vertex -0.095974 0.044435 0.048123
vertex -0.052102 0.015090 0.046365
vertex -0.050363 0.018102 0.048123
endloop
endfacet
facet normal -0.153485 -0.265845 0.951719
outer loop
vertex -0.094120 0.047646 0.049319
vertex -0.095974 0.044435 0.048123
vertex -0.050363 0.018102 0.048123
endloop
endfacet
facet normal -0.153486 -0.265845 0.951719
outer loop
vertex -0.094120 0.047646 0.049319
vertex -0.050363 0.018102 0.048123
vertex -0.048509 0.021313 0.049319
endloop
endfacet
facet normal -0.077686 -0.134556 0.987856
outer loop
vertex -0.092195 0.050980 0.049924
vertex -0.094120 0.047646 0.049319
vertex -0.048509 0.021313 0.049319
endloop
endfacet
facet normal -0.077686 -0.134556 0.987856
outer loop
vertex -0.092195 0.050980 0.049924
vertex -0.048509 0.021313 0.049319
vertex -0.046585 0.024646 0.049924
endloop
endfacet
facet normal -0.000001 0.000000 1.000000
outer loop
vertex -0.090247 0.054354 0.049924
vertex -0.092195 0.050980 0.049924
vertex -0.046585 0.024646 0.049924
endloop
endfacet
facet normal 0.000000 0.000000 1.000000
outer loop
vertex -0.090247 0.054354 0.049924
vertex -0.046585 0.024646 0.049924
vertex -0.044637 0.028020 0.049924
endloop
endfacet
facet normal 0.077686 0.134556 0.987856
outer loop
vertex -0.088323 0.057687 0.049319
vertex -0.090247 0.054354 0.049924
vertex -0.044637 0.028020 0.049924
endloop
endfacet
facet normal 0.077686 0.134556 0.987856
outer loop
vertex -0.088323 0.057687 0.049319
vertex -0.044637 0.028020 0.049924
vertex -0.042712 0.031354 0.049319
endloop
endfacet
facet normal 0.153486 0.265844 0.951719
outer loop
vertex -0.086469 0.060898 0.048123
vertex -0.088323 0.057687 0.049319
vertex -0.042712 0.031354 0.049319
endloop
endfacet
facet normal 0.153485 0.265845 0.951719
outer loop
vertex -0.086469 0.060898 0.048123
vertex -0.042712 0.031354 0.049319
vertex -0.040858 0.034565 0.048123
endloop
endfacet
facet normal 0.225557 0.390677 0.892466
outer loop
vertex -0.084730 0.063910 0.046365
vertex -0.086469 0.060898 0.048123
vertex -0.040858 0.034565 0.048123
endloop
endfacet
facet normal 0.225556 0.390677 0.892466
outer loop
vertex -0.084730 0.063910 0.046365
vertex -0.040858 0.034565 0.048123
vertex -0.039120 0.037576 0.046365
endloop
endfacet
facet normal 0.292150 0.506017 0.811539
outer loop
vertex -0.083149 0.066648 0.044088
vertex -0.084730 0.063910 0.046365
vertex -0.039120 0.037576 0.046365
endloop
endfacet
facet normal 0.292150 0.506018 0.811538
outer loop
vertex -0.083149 0.066648 0.044088
vertex -0.039120 0.037576 0.046365
vertex -0.037539 0.040314 0.044088
endloop
endfacet
facet normal 0.351648 0.609073 0.710897
outer loop
vertex -0.081764 0.069047 0.041348
vertex -0.083149 0.066648 0.044088
vertex -0.037539 0.040314 0.044088
endloop
endfacet
facet normal 0.351647 0.609070 0.710899
outer loop
vertex -0.081764 0.069047 0.041348
vertex -0.037539 0.040314 0.044088
vertex -0.036154 0.042713 0.041348
endloop
endfacet
facet normal 0.402604 0.697331 0.592991
outer loop
vertex -0.080609 0.071047 0.038211
vertex -0.081764 0.069047 0.041348
vertex -0.036154 0.042713 0.041348
endloop
endfacet
facet normal 0.402604 0.697330 0.592993
outer loop
vertex -0.080609 0.071047 0.038211
vertex -0.036154 0.042713 0.041348
vertex -0.034999 0.044714 0.038211
endloop
endfacet
facet normal 0.443781 0.768653 0.460686
outer loop
vertex -0.079712 0.072602 0.034753
vertex -0.080609 0.071047 0.038211
vertex -0.034999 0.044714 0.038211
endloop
endfacet
facet normal 0.443782 0.768653 0.460684
outer loop
vertex -0.079712 0.072602 0.034753
vertex -0.034999 0.044714 0.038211
vertex -0.034101 0.046268 0.034753
endloop
endfacet
facet normal 0.474181 0.821307 0.317187
outer loop
vertex -0.079094 0.073672 0.031058
vertex -0.079712 0.072602 0.034753
vertex -0.034101 0.046268 0.034753
endloop
endfacet
facet normal 0.474182 0.821306 0.317188
outer loop
vertex -0.079094 0.073672 0.031058
vertex -0.034101 0.046268 0.034753
vertex -0.033483 0.047339 0.031058
endloop
endfacet
facet normal 0.493064 0.854012 0.165986
outer loop
vertex -0.078771 0.074232 0.027216
vertex -0.079094 0.073672 0.031058
vertex -0.033483 0.047339 0.031058
endloop
endfacet
facet normal 0.493064 0.854012 0.165986
outer loop
vertex -0.078771 0.074232 0.027216
vertex -0.033483 0.047339 0.031058
vertex -0.033160 0.047899 0.027216
endloop
endfacet
facet normal 0.499971 0.865975 0.010752
outer loop
vertex -0.078750 0.074268 0.023320
vertex -0.078771 0.074232 0.027216
vertex -0.033160 0.047899 0.027216
endloop
endfacet
facet normal 0.499971 0.865975 0.010752
outer loop
vertex -0.078750 0.074268 0.023320
vertex -0.033160 0.047899 0.027216
vertex -0.033139 0.047935 0.023320
endloop
endfacet
facet normal 0.494735 0.856906 -0.144740
outer loop
vertex -0.079032 0.073780 0.019465
vertex -0.078750 0.074268 0.023320
vertex -0.033139 0.047935 0.023320
endloop
endfacet
facet normal 0.494735 0.856906 -0.144741
outer loop
vertex -0.079032 0.073780 0.019465
vertex -0.033139 0.047935 0.023320
vertex -0.033421 0.047447 0.019465
endloop
endfacet
facet normal 0.477482 0.827024 -0.296718
outer loop
vertex -0.079610 0.072779 0.015744
vertex -0.079032 0.073780 0.019465
vertex -0.033421 0.047447 0.019465
endloop
endfacet
facet normal 0.477483 0.827024 -0.296719
outer loop
vertex -0.079610 0.072779 0.015744
vertex -0.033421 0.047447 0.019465
vertex -0.033999 0.046445 0.015744
endloop
endfacet
facet normal 0.448632 0.777054 -0.441493
outer loop
vertex -0.080470 0.071289 0.012248
vertex -0.079610 0.072779 0.015744
vertex -0.033999 0.046445 0.015744
endloop
endfacet
facet normal 0.448633 0.777055 -0.441491
outer loop
vertex -0.080470 0.071289 0.012248
vertex -0.033999 0.046445 0.015744
vertex -0.034859 0.044956 0.012248
endloop
endfacet
facet normal 0.408886 0.708212 -0.575541
outer loop
vertex -0.081591 0.069347 0.009062
vertex -0.080470 0.071289 0.012248
vertex -0.034859 0.044956 0.012248
endloop
endfacet
facet normal 0.408886 0.708212 -0.575541
outer loop
vertex -0.081591 0.069347 0.009062
vertex -0.034859 0.044956 0.012248
vertex -0.035980 0.043014 0.009062
endloop
endfacet
facet normal 0.359210 0.622170 -0.695610
outer loop
vertex -0.082946 0.067000 0.006263
vertex -0.081591 0.069347 0.009062
vertex -0.035980 0.043014 0.009062
endloop
endfacet
facet normal 0.359210 0.622170 -0.695610
outer loop
vertex -0.082946 0.067000 0.006263
vertex -0.035980 0.043014 0.009062
vertex -0.037335 0.040667 0.006263
endloop
endfacet
facet normal 0.300808 0.521016 -0.798785
outer loop
vertex -0.084502 0.064305 0.003919
vertex -0.082946 0.067000 0.006263
vertex -0.037335 0.040667 0.006263
endloop
endfacet
facet normal 0.300808 0.521015 -0.798785
outer loop
vertex -0.084502 0.064305 0.003919
vertex -0.037335 0.040667 0.006263
vertex -0.038891 0.037972 0.003919
endloop
endfacet
facet normal -0.500000 -0.866025 0.000000
outer loop
vertex 0.131832 -0.087660 0.000000
vertex 0.131832 -0.087660 0.002087
vertex -0.141832 0.070340 0.000000
endloop
endfacet
facet normal -0.500000 -0.866026 0.000000
outer loop
vertex -0.141832 0.070340 0.000000
vertex 0.131832 -0.087660 0.002087
vertex -0.141832 0.070340 0.002087
endloop
endfacet
facet normal -0.866026 0.499999 0.000000
outer loop
vertex -0.141832 0.070340 0.000000
vertex -0.141832 0.070340 0.002087
vertex -0.131832 0.087660 0.000000
endloop
endfacet
facet normal -0.866025 0.500000 0.000000
outer loop
vertex -0.131832 0.087660 0.000000
vertex -0.141832 0.070340 0.002087
vertex -0.131832 0.087660 0.002087
endloop
endfacet
facet normal -0.866026 0.499999 0.000007
outer loop
vertex -0.131832 0.087660 0.002087
vertex -0.141832 0.070340 0.002087
vertex -0.130158 0.090559 0.003861
endloop
endfacet
facet normal -0.866025 0.500001 0.000000
outer loop
vertex -0.130158 0.090559 0.003861
vertex -0.141832 0.070340 0.002087
vertex -0.128638 0.093192 0.006120
endloop
endfacet
facet normal -0.866026 0.499999 -0.000004
outer loop
vertex -0.128638 0.093192 0.006120
vertex -0.141832 0.070340 0.002087
vertex -0.127306 0.095500 0.008813
endloop
endfacet
facet normal -0.866027 0.499998 0.000006
outer loop
vertex -0.127306 0.095500 0.008813
vertex -0.141832 0.070340 0.002087
vertex -0.126192 0.097428 0.011878
endloop
endfacet
facet normal -0.866026 0.500000 -0.000005
outer loop
vertex -0.126192 0.097428 0.011878
vertex -0.141832 0.070340 0.002087
vertex -0.125323 0.098934 0.015243
endloop
endfacet
facet normal -0.866024 0.500002 0.000002
outer loop
vertex -0.125323 0.098934 0.015243
vertex -0.141832 0.070340 0.002087
vertex -0.124718 0.099982 0.018833
endloop
endfacet
facet normal -0.866028 0.499996 0.000000
outer loop
vertex -0.124718 0.099982 0.018833
vertex -0.141832 0.070340 0.002087
vertex -0.124391 0.100548 0.022564
endloop
endfacet
facet normal -0.866024 0.500002 0.000002
outer loop
vertex -0.124391 0.100548 0.022564
vertex -0.141832 0.070340 0.002087
vertex -0.124350 0.100619 0.026352
endloop
endfacet
facet normal -0.866026 0.499999 -0.000002
outer loop
vertex -0.124350 0.100619 0.026352
vertex -0.141832 0.070340 0.002087
vertex -0.124596 0.100194 0.030108
endloop
endfacet
facet normal -0.866026 0.499999 0.000002
outer loop
vertex -0.124596 0.100194 0.030108
vertex -0.141832 0.070340 0.002087
vertex -0.125122 0.099282 0.033747
endloop
endfacet
facet normal -0.866029 0.499994 -0.000003
outer loop
vertex -0.125122 0.099282 0.033747
vertex -0.141832 0.070340 0.002087
vertex -0.125917 0.097905 0.037185
endloop
endfacet
facet normal -0.866021 0.500009 0.000003
outer loop
vertex -0.125917 0.097905 0.037185
vertex -0.141832 0.070340 0.002087
vertex -0.126963 0.096094 0.040343
endloop
endfacet
facet normal -0.866029 0.499994 0.000000
outer loop
vertex -0.126963 0.096094 0.040343
vertex -0.141832 0.070340 0.002087
vertex -0.128235 0.093890 0.043149
endloop
endfacet
facet normal -0.866024 0.500002 0.000000
outer loop
vertex -0.128235 0.093890 0.043149
vertex -0.141832 0.070340 0.002087
vertex -0.129705 0.091344 0.045539
endloop
endfacet
facet normal -0.866026 0.499998 0.000000
outer loop
vertex -0.129705 0.091344 0.045539
vertex -0.141832 0.070340 0.002087
vertex -0.131339 0.088515 0.047456
endloop
endfacet
facet normal -0.866024 0.500002 0.000000
outer loop
vertex -0.131339 0.088515 0.047456
vertex -0.141832 0.070340 0.002087
vertex -0.133098 0.085467 0.048859
endloop
endfacet
facet normal -0.866024 0.500002 -0.000001
outer loop
vertex -0.133098 0.085467 0.048859
vertex -0.141832 0.070340 0.002087
vertex -0.143506 0.067441 0.003861
endloop
endfacet
facet normal -0.866031 0.499991 0.000001
outer loop
vertex -0.133098 0.085467 0.048859
vertex -0.143506 0.067441 0.003861
vertex -0.145026 0.064808 0.006120
endloop
endfacet
facet normal -0.866022 0.500005 0.000001
outer loop
vertex -0.145026 0.064808 0.006120
vertex -0.146358 0.062500 0.008813
vertex -0.133098 0.085467 0.048859
endloop
endfacet
facet normal -0.866027 0.499998 -0.000003
outer loop
vertex -0.133098 0.085467 0.048859
vertex -0.146358 0.062500 0.008813
vertex -0.147472 0.060572 0.011878
endloop
endfacet
facet normal -0.866025 0.500000 0.000003
outer loop
vertex -0.133098 0.085467 0.048859
vertex -0.147472 0.060572 0.011878
vertex -0.148341 0.059066 0.015243
endloop
endfacet
facet normal -0.866023 0.500005 -0.000002
outer loop
vertex -0.148341 0.059066 0.015243
vertex -0.148946 0.058018 0.018833
vertex -0.133098 0.085467 0.048859
endloop
endfacet
facet normal -0.866028 0.499996 -0.000000
outer loop
vertex -0.133098 0.085467 0.048859
vertex -0.148946 0.058018 0.018833
vertex -0.149273 0.057452 0.022564
endloop
endfacet
facet normal -0.866025 0.500001 -0.000001
outer loop
vertex -0.133098 0.085467 0.048859
vertex -0.149273 0.057452 0.022564
vertex -0.149314 0.057381 0.026352
endloop
endfacet
facet normal -0.866025 0.500001 0.000000
outer loop
vertex -0.149314 0.057381 0.026352
vertex -0.149068 0.057806 0.030108
vertex -0.133098 0.085467 0.048859
endloop
endfacet
facet normal -0.866024 0.500003 0.000002
outer loop
vertex -0.133098 0.085467 0.048859
vertex -0.149068 0.057806 0.030108
vertex -0.134943 0.082271 0.049713
endloop
endfacet
facet normal -0.866026 0.499998 -0.000002
outer loop
vertex -0.134943 0.082271 0.049713
vertex -0.149068 0.057806 0.030108
vertex -0.148542 0.058718 0.033747
endloop
endfacet
facet normal -0.866024 0.500003 0.000004
outer loop
vertex -0.134943 0.082271 0.049713
vertex -0.148542 0.058718 0.033747
vertex -0.147747 0.060095 0.037185
endloop
endfacet
facet normal -0.866027 0.499997 -0.000004
outer loop
vertex -0.147747 0.060095 0.037185
vertex -0.146701 0.061906 0.040343
vertex -0.134943 0.082271 0.049713
endloop
endfacet
facet normal -0.866024 0.500002 0.000000
outer loop
vertex -0.134943 0.082271 0.049713
vertex -0.146701 0.061906 0.040343
vertex -0.145429 0.064110 0.043149
endloop
endfacet
facet normal -0.866028 0.499995 0.000002
outer loop
vertex -0.134943 0.082271 0.049713
vertex -0.145429 0.064110 0.043149
vertex -0.143959 0.066656 0.045539
endloop
endfacet
facet normal -0.866025 0.500001 -0.000006
outer loop
vertex -0.143959 0.066656 0.045539
vertex -0.142325 0.069485 0.047456
vertex -0.134943 0.082271 0.049713
endloop
endfacet
facet normal -0.866025 0.500001 0.000000
outer loop
vertex -0.134943 0.082271 0.049713
vertex -0.142325 0.069485 0.047456
vertex -0.140566 0.072533 0.048859
endloop
endfacet
facet normal -0.866023 0.500004 0.000000
outer loop
vertex -0.134943 0.082271 0.049713
vertex -0.140566 0.072533 0.048859
vertex -0.138721 0.075729 0.049713
endloop
endfacet
facet normal -0.866028 0.499995 -0.000013
outer loop
vertex -0.138721 0.075729 0.049713
vertex -0.136832 0.079000 0.050000
vertex -0.134943 0.082271 0.049713
endloop
endfacet
facet normal 0.866025 -0.500000 0.000000
outer loop
vertex 0.131832 -0.087660 0.000000
vertex 0.141832 -0.070340 0.000000
vertex 0.131832 -0.087660 0.002087
endloop
endfacet
facet normal 0.866026 -0.499999 0.000000
outer loop
vertex 0.131832 -0.087660 0.002087
vertex 0.141832 -0.070340 0.000000
vertex 0.141832 -0.070340 0.002087
endloop
endfacet
facet normal 0.866025 -0.500000 -0.000007
outer loop
vertex 0.131832 -0.087660 0.002087
vertex 0.141832 -0.070340 0.002087
vertex 0.143506 -0.067441 0.003861
endloop
endfacet
facet normal 0.866025 -0.500001 0.000005
outer loop
vertex 0.143506 -0.067441 0.003861
vertex 0.145026 -0.064808 0.006120
vertex 0.131832 -0.087660 0.002087
endloop
endfacet
facet normal 0.866026 -0.499999 0.000004
outer loop
vertex 0.131832 -0.087660 0.002087
vertex 0.145026 -0.064808 0.006120
vertex 0.146358 -0.062500 0.008813
endloop
endfacet
facet normal 0.866025 -0.500001 -0.000007
outer loop
vertex 0.131832 -0.087660 0.002087
vertex 0.146358 -0.062500 0.008813
vertex 0.147472 -0.060572 0.011878
endloop
endfacet
facet normal 0.866027 -0.499998 0.000005
outer loop
vertex 0.147472 -0.060572 0.011878
vertex 0.148341 -0.059066 0.015243
vertex 0.131832 -0.087660 0.002087
endloop
endfacet
facet normal 0.866024 -0.500003 -0.000003
outer loop
vertex 0.131832 -0.087660 0.002087
vertex 0.148341 -0.059066 0.015243
vertex 0.148946 -0.058018 0.018833
endloop
endfacet
facet normal 0.866026 -0.499999 0.000001
outer loop
vertex 0.131832 -0.087660 0.002087
vertex 0.148946 -0.058018 0.018833
vertex 0.149273 -0.057452 0.022564
endloop
endfacet
facet normal 0.866026 -0.499999 0.000000
outer loop
vertex 0.149273 -0.057452 0.022564
vertex 0.149314 -0.057381 0.026352
vertex 0.131832 -0.087660 0.002087
endloop
endfacet
facet normal 0.866025 -0.500000 0.000001
outer loop
vertex 0.131832 -0.087660 0.002087
vertex 0.149314 -0.057381 0.026352
vertex 0.149068 -0.057806 0.030108
endloop
endfacet
facet normal 0.866024 -0.500003 -0.000001
outer loop
vertex 0.131832 -0.087660 0.002087
vertex 0.149068 -0.057806 0.030108
vertex 0.148542 -0.058718 0.033747
endloop
endfacet
facet normal 0.866027 -0.499997 0.000001
outer loop
vertex 0.148542 -0.058718 0.033747
vertex 0.147747 -0.060095 0.037185
vertex 0.131832 -0.087660 0.002087
endloop
endfacet
facet normal 0.866026 -0.500000 -0.000002
outer loop
vertex 0.131832 -0.087660 0.002087
vertex 0.147747 -0.060095 0.037185
vertex 0.146701 -0.061906 0.040343
endloop
endfacet
facet normal 0.866026 -0.500000 0.000000
outer loop
vertex 0.131832 -0.087660 0.002087
vertex 0.146701 -0.061906 0.040343
vertex 0.145429 -0.064110 0.043149
endloop
endfacet
facet normal 0.866024 -0.500002 0.000001
outer loop
vertex 0.145429 -0.064110 0.043149
vertex 0.143959 -0.066656 0.045539
vertex 0.131832 -0.087660 0.002087
endloop
endfacet
facet normal 0.866025 -0.500000 -0.000001
outer loop
vertex 0.131832 -0.087660 0.002087
vertex 0.143959 -0.066656 0.045539
vertex 0.142325 -0.069485 0.047456
endloop
endfacet
facet normal 0.866026 -0.500000 0.000000
outer loop
vertex 0.131832 -0.087660 0.002087
vertex 0.142325 -0.069485 0.047456
vertex 0.140566 -0.072533 0.048859
endloop
endfacet
facet normal 0.866024 -0.500002 0.000000
outer loop
vertex 0.138721 -0.075729 0.049713
vertex 0.124596 -0.100194 0.030108
vertex 0.140566 -0.072533 0.048859
endloop
endfacet
facet normal 0.866025 -0.500001 -0.000002
outer loop
vertex 0.140566 -0.072533 0.048859
vertex 0.124596 -0.100194 0.030108
vertex 0.124350 -0.100619 0.026352
endloop
endfacet
facet normal 0.866026 -0.500000 0.000001
outer loop
vertex 0.140566 -0.072533 0.048859
vertex 0.124350 -0.100619 0.026352
vertex 0.124391 -0.100548 0.022564
endloop
endfacet
facet normal 0.866028 -0.499995 0.000027
outer loop
vertex 0.136832 -0.079000 0.050000
vertex 0.134943 -0.082271 0.049713
vertex 0.138721 -0.075729 0.049713
endloop
endfacet
facet normal 0.866023 -0.500004 -0.000009
outer loop
vertex 0.138721 -0.075729 0.049713
vertex 0.134943 -0.082271 0.049713
vertex 0.133098 -0.085467 0.048859
endloop
endfacet
facet normal 0.866024 -0.500003 0.000002
outer loop
vertex 0.138721 -0.075729 0.049713
vertex 0.133098 -0.085467 0.048859
vertex 0.131339 -0.088515 0.047456
endloop
endfacet
facet normal 0.866025 -0.500001 0.000006
outer loop
vertex 0.131339 -0.088515 0.047456
vertex 0.129705 -0.091344 0.045539
vertex 0.138721 -0.075729 0.049713
endloop
endfacet
facet normal 0.866027 -0.499997 -0.000003
outer loop
vertex 0.138721 -0.075729 0.049713
vertex 0.129705 -0.091344 0.045539
vertex 0.128235 -0.093890 0.043149
endloop
endfacet
facet normal 0.866023 -0.500003 0.000000
outer loop
vertex 0.138721 -0.075729 0.049713
vertex 0.128235 -0.093890 0.043149
vertex 0.126963 -0.096094 0.040343
endloop
endfacet
facet normal 0.866028 -0.499996 0.000004
outer loop
vertex 0.126963 -0.096094 0.040343
vertex 0.125917 -0.097905 0.037185
vertex 0.138721 -0.075729 0.049713
endloop
endfacet
facet normal 0.866026 -0.499999 -0.000001
outer loop
vertex 0.138721 -0.075729 0.049713
vertex 0.125917 -0.097905 0.037185
vertex 0.125122 -0.099282 0.033747
endloop
endfacet
facet normal 0.866024 -0.500002 0.000001
outer loop
vertex 0.138721 -0.075729 0.049713
vertex 0.125122 -0.099282 0.033747
vertex 0.124596 -0.100194 0.030108
endloop
endfacet
facet normal 0.866024 -0.500002 0.000000
outer loop
vertex 0.124391 -0.100548 0.022564
vertex 0.124718 -0.099982 0.018833
vertex 0.140566 -0.072533 0.048859
endloop
endfacet
facet normal 0.866027 -0.499998 0.000002
outer loop
vertex 0.140566 -0.072533 0.048859
vertex 0.124718 -0.099982 0.018833
vertex 0.125323 -0.098934 0.015243
endloop
endfacet
facet normal 0.866026 -0.499999 -0.000002
outer loop
vertex 0.140566 -0.072533 0.048859
vertex 0.125323 -0.098934 0.015243
vertex 0.126192 -0.097428 0.011878
endloop
endfacet
facet normal 0.866026 -0.499999 0.000001
outer loop
vertex 0.126192 -0.097428 0.011878
vertex 0.127306 -0.095500 0.008813
vertex 0.140566 -0.072533 0.048859
endloop
endfacet
facet normal 0.866023 -0.500004 -0.000002
outer loop
vertex 0.140566 -0.072533 0.048859
vertex 0.127306 -0.095500 0.008813
vertex 0.128638 -0.093192 0.006120
endloop
endfacet
facet normal 0.866026 -0.499998 -0.000000
outer loop
vertex 0.140566 -0.072533 0.048859
vertex 0.128638 -0.093192 0.006120
vertex 0.130158 -0.090559 0.003861
endloop
endfacet
facet normal 0.866026 -0.499998 0.000001
outer loop
vertex 0.130158 -0.090559 0.003861
vertex 0.131832 -0.087660 0.002087
vertex 0.140566 -0.072533 0.048859
endloop
endfacet
solid cylinder
