solid bottom
facet normal 0.000000 0.000000 -1.000000
outer loop
vertex -2.000000 0.3950000 0.000000
vertex 4.000000 0.3950000 0.000000
vertex 4.000000 -0.3950000 0.000000
endloop
endfacet
facet normal 0.000000 0.000000 -1.000000
outer loop
vertex -2.000000 0.3950000 0.000000
vertex 4.000000 -0.3950000 0.000000
vertex -2.000000 -0.3950000 0.000000
endloop
endfacet
endsolid bottom
solid frontAndBack
facet normal 0.000000 1.000000 0.000000
outer loop
vertex -2.000000 0.395000 0.000000
vertex -2.000000 0.395000 0.045000
vertex 4.000000 0.395000 0.045000
endloop
endfacet
facet normal 0.000000 1.000000 0.000000
outer loop
vertex -2.000000 0.395000 0.000000
vertex 4.000000 0.395000 0.045000
vertex 4.000000 0.395000 0.000000
endloop
endfacet
facet normal 0.000000 -1.000000 0.000000
outer loop
vertex 4.000000 -0.395000 0.000000
vertex 4.000000 -0.395000 0.045000
vertex -2.000000 -0.395000 0.045000
endloop
endfacet
facet normal 0.000000 -1.000000 0.000000
outer loop
vertex 4.000000 -0.395000 0.000000
vertex -2.000000 -0.395000 0.045000
vertex -2.000000 -0.395000 0.000000
endloop
endfacet
endsolid frontAndBack
solid outlet
facet normal 1.000000 0.000000 0.000000
outer loop
vertex 4.000000 0.395000 0.000000
vertex 4.000000 0.395000 0.045000
vertex 4.000000 -0.395000 0.045000
endloop
endfacet
facet normal 1.000000 0.000000 0.000000
outer loop
vertex 4.000000 0.395000 0.000000
vertex 4.000000 -0.395000 0.045000
vertex 4.000000 -0.395000 0.000000
endloop
endfacet
endsolid outlet
solid inlet
facet normal -1.000000 0.000000 0.000000
outer loop
vertex -2.000000 -0.395000 0.000000
vertex -2.000000 -0.395000 0.045000
vertex -2.000000 0.395000 0.045000
endloop
endfacet
facet normal -1.000000 0.000000 0.000000
outer loop
vertex -2.000000 -0.395000 0.000000
vertex -2.000000 0.395000 0.045000
vertex -2.000000 0.395000 0.000000
endloop
endfacet
endsolid inlet
solid top
facet normal 0.000000 0.000000 1.000000
outer loop
vertex 4.000000 0.395000 0.045000
vertex -2.000000 0.395000 0.045000
vertex -2.000000 -0.395000 0.045000
endloop
endfacet
facet normal 0.000000 0.000000 1.000000
outer loop
vertex 4.000000 0.395000 0.045000
vertex -2.000000 -0.395000 0.045000
vertex 4.000000 -0.395000 0.045000
endloop
endfacet
endsolid top
solid cylinder
facet normal 0.000000 0.000000 -1.000000
outer loop
vertex 0.090456 -0.038456 0.000000
vertex 0.071662 -0.045297 0.000000
vertex -0.071662 0.406958 0.000000
endloop
endfacet
facet normal 0.000000 0.000000 -1.000000
outer loop
vertex -0.071662 0.406958 0.000000
vertex 0.071662 -0.045297 0.000000
vertex -0.090456 0.400118 0.000000
endloop
endfacet
facet normal 0.939693 0.342020 0.000000
outer loop
vertex 0.090456 -0.038456 0.002087
vertex 0.090456 -0.038456 0.000000
vertex -0.071662 0.406958 0.002087
endloop
endfacet
facet normal 0.939693 0.342020 0.000000
outer loop
vertex -0.071662 0.406958 0.002087
vertex 0.090456 -0.038456 0.000000
vertex -0.071662 0.406958 0.000000
endloop
endfacet
facet normal -0.440083 -0.160063 -0.883576
outer loop
vertex 0.068517 -0.046441 0.003861
vertex 0.041411 0.027763 0.003919
vertex 0.071662 -0.045297 0.002087
endloop
endfacet
facet normal -0.441845 -0.160819 -0.882559
outer loop
vertex 0.071662 -0.045297 0.002087
vertex 0.041411 0.027763 0.003919
vertex 0.014391 0.101999 0.003919
endloop
endfacet
facet normal -0.441845 -0.160818 -0.882559
outer loop
vertex 0.071662 -0.045297 0.002087
vertex 0.014391 0.101999 0.003919
vertex -0.012628 0.176235 0.003919
endloop
endfacet
facet normal -0.565334 -0.205765 -0.798786
outer loop
vertex -0.012628 0.176235 0.003919
vertex 0.014391 0.101999 0.003919
vertex -0.015553 0.175170 0.006263
endloop
endfacet
facet normal -0.565334 -0.205765 -0.798786
outer loop
vertex -0.012628 0.176235 0.003919
vertex -0.015553 0.175170 0.006263
vertex -0.042572 0.249406 0.006263
endloop
endfacet
facet normal -0.675095 -0.245714 -0.695609
outer loop
vertex -0.042572 0.249406 0.006263
vertex -0.015553 0.175170 0.006263
vertex -0.045119 0.248479 0.009062
endloop
endfacet
facet normal -0.675096 -0.245715 -0.695607
outer loop
vertex -0.042572 0.249406 0.006263
vertex -0.045119 0.248479 0.009062
vertex -0.072139 0.322715 0.009062
endloop
endfacet
facet normal -0.768454 -0.279694 -0.575543
outer loop
vertex -0.072139 0.322715 0.009062
vertex -0.045119 0.248479 0.009062
vertex -0.074246 0.321948 0.012248
endloop
endfacet
facet normal -0.768329 -0.280053 -0.575535
outer loop
vertex -0.072139 0.322715 0.009062
vertex -0.074246 0.321948 0.012248
vertex -0.101055 0.396260 0.011878
endloop
endfacet
facet normal -0.835027 -0.303533 -0.458908
outer loop
vertex -0.101055 0.396260 0.011878
vertex -0.074246 0.321948 0.012248
vertex -0.102688 0.395666 0.015243
endloop
endfacet
facet normal -0.842997 -0.307316 -0.441491
outer loop
vertex -0.102688 0.395666 0.015243
vertex -0.074246 0.321948 0.012248
vertex -0.075862 0.321359 0.015744
endloop
endfacet
facet normal -0.890629 -0.323688 -0.319385
outer loop
vertex -0.102688 0.395666 0.015243
vertex -0.075862 0.321359 0.015744
vertex -0.103825 0.395252 0.018833
endloop
endfacet
facet normal -0.897189 -0.327119 -0.296725
outer loop
vertex -0.103825 0.395252 0.018833
vertex -0.075862 0.321359 0.015744
vertex -0.076948 0.320964 0.019465
endloop
endfacet
facet normal -0.925774 -0.336404 -0.172551
outer loop
vertex -0.103825 0.395252 0.018833
vertex -0.076948 0.320964 0.019465
vertex -0.104439 0.395028 0.022564
endloop
endfacet
facet normal -0.929591 -0.338985 -0.144743
outer loop
vertex -0.104439 0.395028 0.022564
vertex -0.076948 0.320964 0.019465
vertex -0.077478 0.320771 0.023320
endloop
endfacet
facet normal -0.939669 -0.341392 -0.021741
outer loop
vertex -0.104439 0.395028 0.022564
vertex -0.077478 0.320771 0.023320
vertex -0.104517 0.395000 0.026352
endloop
endfacet
facet normal -0.939411 -0.342625 0.010754
outer loop
vertex -0.104517 0.395000 0.026352
vertex -0.077478 0.320771 0.023320
vertex -0.077439 0.320785 0.027216
endloop
endfacet
facet normal -0.931992 -0.338535 0.129555
outer loop
vertex -0.104517 0.395000 0.026352
vertex -0.077439 0.320785 0.027216
vertex -0.104056 0.395168 0.030108
endloop
endfacet
facet normal -0.926410 -0.337954 0.165985
outer loop
vertex -0.104056 0.395168 0.030108
vertex -0.077439 0.320785 0.027216
vertex -0.076831 0.321007 0.031058
endloop
endfacet
facet normal -0.902921 -0.327896 0.277881
outer loop
vertex -0.104056 0.395168 0.030108
vertex -0.076831 0.321007 0.031058
vertex -0.103066 0.395528 0.033747
endloop
endfacet
facet normal -0.890904 -0.325084 0.317191
outer loop
vertex -0.103066 0.395528 0.033747
vertex -0.076831 0.321007 0.031058
vertex -0.075670 0.321429 0.034753
endloop
endfacet
facet normal -0.853119 -0.309720 0.419835
outer loop
vertex -0.103066 0.395528 0.033747
vertex -0.075670 0.321429 0.034753
vertex -0.101572 0.396072 0.037185
endloop
endfacet
facet normal -0.833758 -0.304332 0.460683
outer loop
vertex -0.101572 0.396072 0.037185
vertex -0.075670 0.321429 0.034753
vertex -0.073983 0.322043 0.038211
endloop
endfacet
facet normal -0.783733 -0.284422 0.552147
outer loop
vertex -0.101572 0.396072 0.037185
vertex -0.073983 0.322043 0.038211
vertex -0.099606 0.396787 0.040343
endloop
endfacet
facet normal -0.756357 -0.276202 0.592989
outer loop
vertex -0.099606 0.396787 0.040343
vertex -0.073983 0.322043 0.038211
vertex -0.071812 0.322833 0.041348
endloop
endfacet
facet normal -0.696358 -0.252581 0.671779
outer loop
vertex -0.099606 0.396787 0.040343
vertex -0.071812 0.322833 0.041348
vertex -0.097215 0.397658 0.043149
endloop
endfacet
facet normal -0.660576 -0.241375 0.710900
outer loop
vertex -0.097215 0.397658 0.043149
vertex -0.071812 0.322833 0.041348
vertex -0.069210 0.323781 0.044088
endloop
endfacet
facet normal -0.593000 -0.214930 0.775987
outer loop
vertex -0.097215 0.397658 0.043149
vertex -0.069210 0.323781 0.044088
vertex -0.094453 0.398663 0.045539
endloop
endfacet
facet normal -0.548748 -0.200702 0.811539
outer loop
vertex -0.094453 0.398663 0.045539
vertex -0.069210 0.323781 0.044088
vertex -0.066238 0.324862 0.046365
endloop
endfacet
facet normal -0.476033 -0.172333 0.862377
outer loop
vertex -0.094453 0.398663 0.045539
vertex -0.066238 0.324862 0.046365
vertex -0.091383 0.399780 0.047456
endloop
endfacet
facet normal -0.423587 -0.155169 0.892467
outer loop
vertex -0.091383 0.399780 0.047456
vertex -0.066238 0.324862 0.046365
vertex -0.062971 0.326051 0.048123
endloop
endfacet
facet normal -0.348138 -0.125763 0.928969
outer loop
vertex -0.091383 0.399780 0.047456
vertex -0.062971 0.326051 0.048123
vertex -0.088076 0.400984 0.048859
endloop
endfacet
facet normal -0.288133 -0.105884 0.951718
outer loop
vertex -0.088076 0.400984 0.048859
vertex -0.062971 0.326051 0.048123
vertex -0.059487 0.327320 0.049319
endloop
endfacet
facet normal -0.212254 -0.076293 0.974232
outer loop
vertex -0.088076 0.400984 0.048859
vertex -0.059487 0.327320 0.049319
vertex -0.084608 0.402246 0.049713
endloop
endfacet
facet normal -0.145675 -0.054042 0.987855
outer loop
vertex -0.084608 0.402246 0.049713
vertex -0.059487 0.327320 0.049319
vertex -0.055870 0.328636 0.049924
endloop
endfacet
facet normal -0.071504 -0.025059 0.997125
outer loop
vertex -0.084608 0.402246 0.049713
vertex -0.055870 0.328636 0.049924
vertex -0.081059 0.403538 0.050000
endloop
endfacet
facet normal 0.000329 -0.000904 1.000000
outer loop
vertex -0.081059 0.403538 0.050000
vertex -0.055870 0.328636 0.049924
vertex -0.052209 0.329969 0.049924
endloop
endfacet
facet normal 0.070883 0.026767 0.997125
outer loop
vertex -0.081059 0.403538 0.050000
vertex -0.052209 0.329969 0.049924
vertex -0.077509 0.404830 0.049713
endloop
endfacet
facet normal 0.146329 0.052239 0.987856
outer loop
vertex -0.077509 0.404830 0.049713
vertex -0.052209 0.329969 0.049924
vertex -0.048592 0.331285 0.049319
endloop
endfacet
facet normal 0.211640 0.077991 0.974231
outer loop
vertex -0.077509 0.404830 0.049713
vertex -0.048592 0.331285 0.049319
vertex -0.074041 0.406092 0.048859
endloop
endfacet
facet normal 0.288782 0.104097 0.951719
outer loop
vertex -0.074041 0.406092 0.048859
vertex -0.048592 0.331285 0.049319
vertex -0.045107 0.332553 0.048123
endloop
endfacet
facet normal 0.347531 0.127439 0.928968
outer loop
vertex -0.074041 0.406092 0.048859
vertex -0.045107 0.332553 0.048123
vertex -0.070735 0.407296 0.047456
endloop
endfacet
facet normal 0.424226 0.153410 0.892467
outer loop
vertex -0.070735 0.407296 0.047456
vertex -0.045107 0.332553 0.048123
vertex -0.041840 0.333742 0.046365
endloop
endfacet
facet normal 0.475433 0.173973 0.862379
outer loop
vertex -0.070735 0.407296 0.047456
vertex -0.041840 0.333742 0.046365
vertex -0.067665 0.408413 0.045539
endloop
endfacet
facet normal 0.549374 0.198983 0.811538
outer loop
vertex -0.067665 0.408413 0.045539
vertex -0.041840 0.333742 0.046365
vertex -0.038869 0.334824 0.044088
endloop
endfacet
facet normal 0.592422 0.216528 0.775985
outer loop
vertex -0.067665 0.408413 0.045539
vertex -0.038869 0.334824 0.044088
vertex -0.064902 0.409418 0.043149
endloop
endfacet
facet normal 0.661185 0.239707 0.710897
outer loop
vertex -0.064902 0.409418 0.043149
vertex -0.038869 0.334824 0.044088
vertex -0.036266 0.335771 0.041348
endloop
endfacet
facet normal 0.695796 0.254120 0.671782
outer loop
vertex -0.064902 0.409418 0.043149
vertex -0.036266 0.335771 0.041348
vertex -0.062511 0.410289 0.040343
endloop
endfacet
facet normal 0.756940 0.274594 0.592992
outer loop
vertex -0.062511 0.410289 0.040343
vertex -0.036266 0.335771 0.041348
vertex -0.034095 0.336561 0.038211
endloop
endfacet
facet normal 0.783203 0.285897 0.552138
outer loop
vertex -0.062511 0.410289 0.040343
vertex -0.034095 0.336561 0.038211
vertex -0.060546 0.411004 0.037185
endloop
endfacet
facet normal 0.834315 0.302797 0.460687
outer loop
vertex -0.060546 0.411004 0.037185
vertex -0.034095 0.336561 0.038211
vertex -0.032408 0.337175 0.034753
endloop
endfacet
facet normal 0.852609 0.311114 0.419840
outer loop
vertex -0.060546 0.411004 0.037185
vertex -0.032408 0.337175 0.034753
vertex -0.059051 0.411548 0.033747
endloop
endfacet
facet normal 0.891435 0.323634 0.317182
outer loop
vertex -0.059051 0.411548 0.033747
vertex -0.032408 0.337175 0.034753
vertex -0.031247 0.337598 0.031058
endloop
endfacet
facet normal 0.902444 0.329202 0.277887
outer loop
vertex -0.059051 0.411548 0.033747
vertex -0.031247 0.337598 0.031058
vertex -0.058062 0.411908 0.030108
endloop
endfacet
facet normal 0.926904 0.336598 0.165983
outer loop
vertex -0.058062 0.411908 0.030108
vertex -0.031247 0.337598 0.031058
vertex -0.030639 0.337819 0.027216
endloop
endfacet
facet normal 0.931553 0.339741 0.129555
outer loop
vertex -0.058062 0.411908 0.030108
vertex -0.030639 0.337819 0.027216
vertex -0.057601 0.412076 0.026352
endloop
endfacet
facet normal 0.939865 0.341375 0.010756
outer loop
vertex -0.057601 0.412076 0.026352
vertex -0.030639 0.337819 0.027216
vertex -0.030600 0.337833 0.023320
endloop
endfacet
facet normal 0.939271 0.342486 -0.021741
outer loop
vertex -0.057601 0.412076 0.026352
vertex -0.030600 0.337833 0.023320
vertex -0.057678 0.412048 0.022564
endloop
endfacet
facet normal 0.930003 0.337852 -0.144741
outer loop
vertex -0.057678 0.412048 0.022564
vertex -0.030600 0.337833 0.023320
vertex -0.031130 0.337641 0.019465
endloop
endfacet
facet normal 0.925421 0.337375 -0.172551
outer loop
vertex -0.057678 0.412048 0.022564
vertex -0.031130 0.337641 0.019465
vertex -0.058292 0.411824 0.018833
endloop
endfacet
facet normal 0.897555 0.326115 -0.296724
outer loop
vertex -0.058292 0.411824 0.018833
vertex -0.031130 0.337641 0.019465
vertex -0.032216 0.337245 0.015744
endloop
endfacet
facet normal 0.890322 0.324524 -0.319390
outer loop
vertex -0.058292 0.411824 0.018833
vertex -0.032216 0.337245 0.015744
vertex -0.059429 0.411410 0.015243
endloop
endfacet
facet normal 0.843312 0.306451 -0.441490
outer loop
vertex -0.059429 0.411410 0.015243
vertex -0.032216 0.337245 0.015744
vertex -0.033833 0.336657 0.012248
endloop
endfacet
facet normal 0.834778 0.304226 -0.458903
outer loop
vertex -0.059429 0.411410 0.015243
vertex -0.033833 0.336657 0.012248
vertex -0.061063 0.410816 0.011878
endloop
endfacet
facet normal 0.768587 0.279338 -0.575538
outer loop
vertex -0.061063 0.410816 0.011878
vertex -0.033833 0.336657 0.012248
vertex -0.035940 0.335890 0.009062
endloop
endfacet
facet normal 0.760066 0.276945 -0.587879
outer loop
vertex -0.061063 0.410816 0.011878
vertex -0.035940 0.335890 0.009062
vertex -0.063156 0.410054 0.008813
endloop
endfacet
facet normal 0.675192 0.245437 -0.695612
outer loop
vertex -0.063156 0.410054 0.008813
vertex -0.035940 0.335890 0.009062
vertex -0.038487 0.334963 0.006263
endloop
endfacet
facet normal 0.667907 0.243307 -0.703350
outer loop
vertex -0.063156 0.410054 0.008813
vertex -0.038487 0.334963 0.006263
vertex -0.065659 0.409143 0.006120
endloop
endfacet
facet normal 0.565406 0.205576 -0.798783
outer loop
vertex -0.065659 0.409143 0.006120
vertex -0.038487 0.334963 0.006263
vertex -0.041411 0.333899 0.003919
endloop
endfacet
facet normal 0.560406 0.204078 -0.802681
outer loop
vertex -0.065659 0.409143 0.006120
vertex -0.041411 0.333899 0.003919
vertex -0.068517 0.408103 0.003861
endloop
endfacet
facet normal 0.440084 0.160064 -0.883576
outer loop
vertex -0.068517 0.408103 0.003861
vertex -0.041411 0.333899 0.003919
vertex -0.071662 0.406958 0.002087
endloop
endfacet
facet normal 0.441845 0.160818 -0.882559
outer loop
vertex -0.071662 0.406958 0.002087
vertex -0.041411 0.333899 0.003919
vertex -0.014391 0.259663 0.003919
endloop
endfacet
facet normal 0.441839 0.160816 -0.882562
outer loop
vertex -0.071662 0.406958 0.002087
vertex -0.014391 0.259663 0.003919
vertex 0.012628 0.185427 0.003919
endloop
endfacet
facet normal 0.565334 0.205765 -0.798786
outer loop
vertex 0.012628 0.185427 0.003919
vertex -0.014391 0.259663 0.003919
vertex 0.015553 0.186492 0.006263
endloop
endfacet
facet normal 0.565334 0.205765 -0.798786
outer loop
vertex 0.012628 0.185427 0.003919
vertex 0.015553 0.186492 0.006263
vertex 0.042572 0.112256 0.006263
endloop
endfacet
facet normal 0.675095 0.245714 -0.695609
outer loop
vertex 0.042572 0.112256 0.006263
vertex 0.015553 0.186492 0.006263
vertex 0.045119 0.113183 0.009062
endloop
endfacet
facet normal 0.675094 0.245714 -0.695610
outer loop
vertex 0.042572 0.112256 0.006263
vertex 0.045119 0.113183 0.009062
vertex 0.072139 0.038947 0.009062
endloop
endfacet
facet normal 0.768456 0.279695 -0.575540
outer loop
vertex 0.072139 0.038947 0.009062
vertex 0.045119 0.113183 0.009062
vertex 0.074246 0.039714 0.012248
endloop
endfacet
facet normal 0.768326 0.280052 -0.575540
outer loop
vertex 0.072139 0.038947 0.009062
vertex 0.074246 0.039714 0.012248
vertex 0.101055 -0.034598 0.011878
endloop
endfacet
facet normal 0.835030 0.303534 -0.458903
outer loop
vertex 0.101055 -0.034598 0.011878
vertex 0.074246 0.039714 0.012248
vertex 0.102688 -0.034004 0.015243
endloop
endfacet
facet normal 0.842996 0.307315 -0.441491
outer loop
vertex 0.102688 -0.034004 0.015243
vertex 0.074246 0.039714 0.012248
vertex 0.075862 0.040302 0.015744
endloop
endfacet
facet normal 0.890626 0.323687 -0.319393
outer loop
vertex 0.102688 -0.034004 0.015243
vertex 0.075862 0.040302 0.015744
vertex 0.103825 -0.033590 0.018833
endloop
endfacet
facet normal 0.897190 0.327119 -0.296720
outer loop
vertex 0.103825 -0.033590 0.018833
vertex 0.075862 0.040302 0.015744
vertex 0.076948 0.040698 0.019465
endloop
endfacet
facet normal 0.925774 0.336404 -0.172552
outer loop
vertex 0.103825 -0.033590 0.018833
vertex 0.076948 0.040698 0.019465
vertex 0.104439 -0.033367 0.022564
endloop
endfacet
facet normal 0.929591 0.338985 -0.144741
outer loop
vertex 0.104439 -0.033367 0.022564
vertex 0.076948 0.040698 0.019465
vertex 0.077478 0.040891 0.023320
endloop
endfacet
facet normal 0.939669 0.341392 -0.021744
outer loop
vertex 0.104439 -0.033367 0.022564
vertex 0.077478 0.040891 0.023320
vertex 0.104517 -0.033338 0.026352
endloop
endfacet
facet normal 0.939410 0.342626 0.010754
outer loop
vertex 0.104517 -0.033338 0.026352
vertex 0.077478 0.040891 0.023320
vertex 0.077439 0.040876 0.027216
endloop
endfacet
facet normal 0.931992 0.338535 0.129556
outer loop
vertex 0.104517 -0.033338 0.026352
vertex 0.077439 0.040876 0.027216
vertex 0.104056 -0.033506 0.030108
endloop
endfacet
facet normal 0.926410 0.337954 0.165985
outer loop
vertex 0.104056 -0.033506 0.030108
vertex 0.077439 0.040876 0.027216
vertex 0.076831 0.040655 0.031058
endloop
endfacet
facet normal 0.902919 0.327895 0.277887
outer loop
vertex 0.104056 -0.033506 0.030108
vertex 0.076831 0.040655 0.031058
vertex 0.103066 -0.033866 0.033747
endloop
endfacet
facet normal 0.890905 0.325085 0.317188
outer loop
vertex 0.103066 -0.033866 0.033747
vertex 0.076831 0.040655 0.031058
vertex 0.075670 0.040232 0.034753
endloop
endfacet
facet normal 0.853119 0.309720 0.419835
outer loop
vertex 0.103066 -0.033866 0.033747
vertex 0.075670 0.040232 0.034753
vertex 0.101572 -0.034410 0.037185
endloop
endfacet
facet normal 0.833758 0.304332 0.460685
outer loop
vertex 0.101572 -0.034410 0.037185
vertex 0.075670 0.040232 0.034753
vertex 0.073983 0.039618 0.038211
endloop
endfacet
facet normal 0.783735 0.284422 0.552144
outer loop
vertex 0.101572 -0.034410 0.037185
vertex 0.073983 0.039618 0.038211
vertex 0.099606 -0.035126 0.040343
endloop
endfacet
facet normal 0.756354 0.276201 0.592993
outer loop
vertex 0.099606 -0.035126 0.040343
vertex 0.073983 0.039618 0.038211
vertex 0.071812 0.038828 0.041348
endloop
endfacet
facet normal 0.696360 0.252581 0.671778
outer loop
vertex 0.099606 -0.035126 0.040343
vertex 0.071812 0.038828 0.041348
vertex 0.097215 -0.035996 0.043149
endloop
endfacet
facet normal 0.660578 0.241375 0.710897
outer loop
vertex 0.097215 -0.035996 0.043149
vertex 0.071812 0.038828 0.041348
vertex 0.069210 0.037881 0.044088
endloop
endfacet
facet normal 0.593002 0.214931 0.775985
outer loop
vertex 0.097215 -0.035996 0.043149
vertex 0.069210 0.037881 0.044088
vertex 0.094453 -0.037001 0.045539
endloop
endfacet
facet normal 0.548749 0.200702 0.811538
outer loop
vertex 0.094453 -0.037001 0.045539
vertex 0.069210 0.037881 0.044088
vertex 0.066238 0.036800 0.046365
endloop
endfacet
facet normal 0.476032 0.172332 0.862378
outer loop
vertex 0.094453 -0.037001 0.045539
vertex 0.066238 0.036800 0.046365
vertex 0.091383 -0.038119 0.047456
endloop
endfacet
facet normal 0.423588 0.155169 0.892466
outer loop
vertex 0.091383 -0.038119 0.047456
vertex 0.066238 0.036800 0.046365
vertex 0.062971 0.035610 0.048123
endloop
endfacet
facet normal 0.348136 0.125763 0.928970
outer loop
vertex 0.091383 -0.038119 0.047456
vertex 0.062971 0.035610 0.048123
vertex 0.088076 -0.039322 0.048859
endloop
endfacet
facet normal 0.288134 0.105883 0.951718
outer loop
vertex 0.088076 -0.039322 0.048859
vertex 0.062971 0.035610 0.048123
vertex 0.059487 0.034342 0.049319
endloop
endfacet
facet normal 0.212255 0.076294 0.974232
outer loop
vertex 0.088076 -0.039322 0.048859
vertex 0.059487 0.034342 0.049319
vertex 0.084608 -0.040584 0.049713
endloop
endfacet
facet normal 0.145673 0.054042 0.987856
outer loop
vertex 0.084608 -0.040584 0.049713
vertex 0.059487 0.034342 0.049319
vertex 0.055870 0.033026 0.049924
endloop
endfacet
facet normal 0.071506 0.025059 0.997125
outer loop
vertex 0.084608 -0.040584 0.049713
vertex 0.055870 0.033026 0.049924
vertex 0.081059 -0.041876 0.050000
endloop
endfacet
facet normal -0.000328 0.000904 1.000000
outer loop
vertex 0.081059 -0.041876 0.050000
vertex 0.055870 0.033026 0.049924
vertex 0.052209 0.031693 0.049924
endloop
endfacet
facet normal -0.070883 -0.026767 0.997125
outer loop
vertex 0.081059 -0.041876 0.050000
vertex 0.052209 0.031693 0.049924
vertex 0.077509 -0.043168 0.049713
endloop
endfacet
facet normal -0.146331 -0.052239 0.987855
outer loop
vertex 0.077509 -0.043168 0.049713
vertex 0.052209 0.031693 0.049924
vertex 0.048592 0.030377 0.049319
endloop
endfacet
facet normal -0.211639 -0.077990 0.974231
outer loop
vertex 0.077509 -0.043168 0.049713
vertex 0.048592 0.030377 0.049319
vertex 0.074041 -0.044430 0.048859
endloop
endfacet
facet normal -0.288783 -0.104097 0.951719
outer loop
vertex 0.074041 -0.044430 0.048859
vertex 0.048592 0.030377 0.049319
vertex 0.045107 0.029109 0.048123
endloop
endfacet
facet normal -0.347529 -0.127438 0.928969
outer loop
vertex 0.074041 -0.044430 0.048859
vertex 0.045107 0.029109 0.048123
vertex 0.070735 -0.045634 0.047456
endloop
endfacet
facet normal -0.424227 -0.153411 0.892466
outer loop
vertex 0.070735 -0.045634 0.047456
vertex 0.045107 0.029109 0.048123
vertex 0.041840 0.027919 0.046365
endloop
endfacet
facet normal -0.475434 -0.173973 0.862378
outer loop
vertex 0.070735 -0.045634 0.047456
vertex 0.041840 0.027919 0.046365
vertex 0.067665 -0.046751 0.045539
endloop
endfacet
facet normal -0.549374 -0.198983 0.811538
outer loop
vertex 0.067665 -0.046751 0.045539
vertex 0.041840 0.027919 0.046365
vertex 0.038869 0.026838 0.044088
endloop
endfacet
facet normal -0.592422 -0.216527 0.775985
outer loop
vertex 0.067665 -0.046751 0.045539
vertex 0.038869 0.026838 0.044088
vertex 0.064902 -0.047757 0.043149
endloop
endfacet
facet normal -0.661186 -0.239707 0.710897
outer loop
vertex 0.064902 -0.047757 0.043149
vertex 0.038869 0.026838 0.044088
vertex 0.036266 0.025890 0.041348
endloop
endfacet
facet normal -0.695798 -0.254122 0.671779
outer loop
vertex 0.064902 -0.047757 0.043149
vertex 0.036266 0.025890 0.041348
vertex 0.062511 -0.048627 0.040343
endloop
endfacet
facet normal -0.756939 -0.274594 0.592994
outer loop
vertex 0.062511 -0.048627 0.040343
vertex 0.036266 0.025890 0.041348
vertex 0.034095 0.025100 0.038211
endloop
endfacet
facet normal -0.783199 -0.285895 0.552145
outer loop
vertex 0.062511 -0.048627 0.040343
vertex 0.034095 0.025100 0.038211
vertex 0.060546 -0.049342 0.037185
endloop
endfacet
facet normal -0.834316 -0.302798 0.460684
outer loop
vertex 0.060546 -0.049342 0.037185
vertex 0.034095 0.025100 0.038211
vertex 0.032408 0.024486 0.034753
endloop
endfacet
facet normal -0.852611 -0.311115 0.419836
outer loop
vertex 0.060546 -0.049342 0.037185
vertex 0.032408 0.024486 0.034753
vertex 0.059051 -0.049886 0.033747
endloop
endfacet
facet normal -0.891434 -0.323634 0.317187
outer loop
vertex 0.059051 -0.049886 0.033747
vertex 0.032408 0.024486 0.034753
vertex 0.031247 0.024064 0.031058
endloop
endfacet
facet normal -0.902444 -0.329202 0.277887
outer loop
vertex 0.059051 -0.049886 0.033747
vertex 0.031247 0.024064 0.031058
vertex 0.058062 -0.050246 0.030108
endloop
endfacet
facet normal -0.926904 -0.336597 0.165986
outer loop
vertex 0.058062 -0.050246 0.030108
vertex 0.031247 0.024064 0.031058
vertex 0.030639 0.023843 0.027216
endloop
endfacet
facet normal -0.931553 -0.339740 0.129557
outer loop
vertex 0.058062 -0.050246 0.030108
vertex 0.030639 0.023843 0.027216
vertex 0.057601 -0.050414 0.026352
endloop
endfacet
facet normal -0.939866 -0.341375 0.010753
outer loop
vertex 0.057601 -0.050414 0.026352
vertex 0.030639 0.023843 0.027216
vertex 0.030600 0.023828 0.023320
endloop
endfacet
facet normal -0.939271 -0.342486 -0.021744
outer loop
vertex 0.057601 -0.050414 0.026352
vertex 0.030600 0.023828 0.023320
vertex 0.057678 -0.050386 0.022564
endloop
endfacet
facet normal -0.930003 -0.337852 -0.144742
outer loop
vertex 0.057678 -0.050386 0.022564
vertex 0.030600 0.023828 0.023320
vertex 0.031130 0.024021 0.019465
endloop
endfacet
facet normal -0.925421 -0.337375 -0.172552
outer loop
vertex 0.057678 -0.050386 0.022564
vertex 0.031130 0.024021 0.019465
vertex 0.058292 -0.050163 0.018833
endloop
endfacet
facet normal -0.897556 -0.326115 -0.296720
outer loop
vertex 0.058292 -0.050163 0.018833
vertex 0.031130 0.024021 0.019465
vertex 0.032216 0.024416 0.015744
endloop
endfacet
facet normal -0.890321 -0.324524 -0.319394
outer loop
vertex 0.058292 -0.050163 0.018833
vertex 0.032216 0.024416 0.015744
vertex 0.059429 -0.049749 0.015243
endloop
endfacet
facet normal -0.843311 -0.306450 -0.441491
outer loop
vertex 0.059429 -0.049749 0.015243
vertex 0.032216 0.024416 0.015744
vertex 0.033833 0.025005 0.012248
endloop
endfacet
facet normal -0.834778 -0.304226 -0.458903
outer loop
vertex 0.059429 -0.049749 0.015243
vertex 0.033833 0.025005 0.012248
vertex 0.061063 -0.049154 0.011878
endloop
endfacet
facet normal -0.768586 -0.279338 -0.575540
outer loop
vertex 0.061063 -0.049154 0.011878
vertex 0.033833 0.025005 0.012248
vertex 0.035940 0.025772 0.009062
endloop
endfacet
facet normal -0.760067 -0.276945 -0.587877
outer loop
vertex 0.061063 -0.049154 0.011878
vertex 0.035940 0.025772 0.009062
vertex 0.063156 -0.048393 0.008813
endloop
endfacet
facet normal -0.675194 -0.245438 -0.695610
outer loop
vertex 0.063156 -0.048393 0.008813
vertex 0.035940 0.025772 0.009062
vertex 0.038487 0.026699 0.006263
endloop
endfacet
facet normal -0.667906 -0.243306 -0.703352
outer loop
vertex 0.063156 -0.048393 0.008813
vertex 0.038487 0.026699 0.006263
vertex 0.065659 -0.047481 0.006120
endloop
endfacet
facet normal -0.565403 -0.205575 -0.798785
outer loop
vertex 0.065659 -0.047481 0.006120
vertex 0.038487 0.026699 0.006263
vertex 0.041411 0.027763 0.003919
endloop
endfacet
facet normal -0.560409 -0.204080 -0.802679
outer loop
vertex 0.065659 -0.047481 0.006120
vertex 0.041411 0.027763 0.003919
vertex 0.068517 -0.046441 0.003861
endloop
endfacet
facet normal 0.760262 0.276410 -0.587876
outer loop
vertex 0.101055 -0.034598 0.011878
vertex 0.098962 -0.035360 0.008813
vertex 0.072139 0.038947 0.009062
endloop
endfacet
facet normal 0.674992 0.245990 -0.695611
outer loop
vertex 0.072139 0.038947 0.009062
vertex 0.098962 -0.035360 0.008813
vertex 0.069592 0.038020 0.006263
endloop
endfacet
facet normal 0.675093 0.245714 -0.695611
outer loop
vertex 0.072139 0.038947 0.009062
vertex 0.069592 0.038020 0.006263
vertex 0.042572 0.112256 0.006263
endloop
endfacet
facet normal 0.565335 0.205765 -0.798785
outer loop
vertex 0.042572 0.112256 0.006263
vertex 0.069592 0.038020 0.006263
vertex 0.039648 0.111191 0.003919
endloop
endfacet
facet normal 0.565334 0.205765 -0.798786
outer loop
vertex 0.042572 0.112256 0.006263
vertex 0.039648 0.111191 0.003919
vertex 0.012628 0.185427 0.003919
endloop
endfacet
facet normal 0.441855 0.160822 -0.882554
outer loop
vertex 0.012628 0.185427 0.003919
vertex 0.039648 0.111191 0.003919
vertex -0.071662 0.406958 0.002087
endloop
endfacet
facet normal 0.668040 0.242938 -0.703352
outer loop
vertex 0.098962 -0.035360 0.008813
vertex 0.096458 -0.036271 0.006120
vertex 0.069592 0.038020 0.006263
endloop
endfacet
facet normal 0.565266 0.205955 -0.798785
outer loop
vertex 0.069592 0.038020 0.006263
vertex 0.096458 -0.036271 0.006120
vertex 0.066667 0.036956 0.003919
endloop
endfacet
facet normal 0.565335 0.205765 -0.798785
outer loop
vertex 0.069592 0.038020 0.006263
vertex 0.066667 0.036956 0.003919
vertex 0.039648 0.111191 0.003919
endloop
endfacet
facet normal 0.441845 0.160818 -0.882559
outer loop
vertex 0.039648 0.111191 0.003919
vertex 0.066667 0.036956 0.003919
vertex -0.071662 0.406958 0.002087
endloop
endfacet
facet normal 0.560478 0.203890 -0.802679
outer loop
vertex 0.096458 -0.036271 0.006120
vertex 0.093601 -0.037311 0.003861
vertex 0.066667 0.036956 0.003919
endloop
endfacet
facet normal 0.449469 0.163690 -0.878171
outer loop
vertex 0.066667 0.036956 0.003919
vertex 0.093601 -0.037311 0.003861
vertex -0.071662 0.406958 0.002087
endloop
endfacet
facet normal 0.440047 0.160164 -0.883576
outer loop
vertex 0.093601 -0.037311 0.003861
vertex 0.090456 -0.038456 0.002087
vertex -0.071662 0.406958 0.002087
endloop
endfacet
facet normal -0.760261 -0.276409 -0.587878
outer loop
vertex -0.101055 0.396260 0.011878
vertex -0.098962 0.397022 0.008813
vertex -0.072139 0.322715 0.009062
endloop
endfacet
facet normal -0.674989 -0.245989 -0.695615
outer loop
vertex -0.072139 0.322715 0.009062
vertex -0.098962 0.397022 0.008813
vertex -0.069592 0.323642 0.006263
endloop
endfacet
facet normal -0.675092 -0.245713 -0.695612
outer loop
vertex -0.072139 0.322715 0.009062
vertex -0.069592 0.323642 0.006263
vertex -0.042572 0.249406 0.006263
endloop
endfacet
facet normal -0.565334 -0.205765 -0.798786
outer loop
vertex -0.042572 0.249406 0.006263
vertex -0.069592 0.323642 0.006263
vertex -0.039648 0.250470 0.003919
endloop
endfacet
facet normal -0.565335 -0.205765 -0.798785
outer loop
vertex -0.042572 0.249406 0.006263
vertex -0.039648 0.250470 0.003919
vertex -0.012628 0.176235 0.003919
endloop
endfacet
facet normal -0.441845 -0.160819 -0.882559
outer loop
vertex -0.012628 0.176235 0.003919
vertex -0.039648 0.250470 0.003919
vertex 0.071662 -0.045297 0.002087
endloop
endfacet
facet normal -0.668038 -0.242937 -0.703354
outer loop
vertex -0.098962 0.397022 0.008813
vertex -0.096458 0.397933 0.006120
vertex -0.069592 0.323642 0.006263
endloop
endfacet
facet normal -0.565267 -0.205955 -0.798784
outer loop
vertex -0.069592 0.323642 0.006263
vertex -0.096458 0.397933 0.006120
vertex -0.066667 0.324706 0.003919
endloop
endfacet
facet normal -0.565337 -0.205766 -0.798784
outer loop
vertex -0.069592 0.323642 0.006263
vertex -0.066667 0.324706 0.003919
vertex -0.039648 0.250470 0.003919
endloop
endfacet
facet normal -0.441841 -0.160817 -0.882562
outer loop
vertex -0.039648 0.250470 0.003919
vertex -0.066667 0.324706 0.003919
vertex 0.071662 -0.045297 0.002087
endloop
endfacet
facet normal -0.560477 -0.203890 -0.802679
outer loop
vertex -0.096458 0.397933 0.006120
vertex -0.093601 0.398973 0.003861
vertex -0.066667 0.324706 0.003919
endloop
endfacet
facet normal -0.449471 -0.163691 -0.878169
outer loop
vertex -0.066667 0.324706 0.003919
vertex -0.093601 0.398973 0.003861
vertex 0.071662 -0.045297 0.002087
endloop
endfacet
facet normal -0.440046 -0.160164 -0.883576
outer loop
vertex -0.093601 0.398973 0.003861
vertex -0.090456 0.400118 0.002087
vertex 0.071662 -0.045297 0.002087
endloop
endfacet
facet normal -0.565335 -0.205765 -0.798785
outer loop
vertex 0.014391 0.101999 0.003919
vertex 0.041411 0.027763 0.003919
vertex 0.011467 0.100934 0.006263
endloop
endfacet
facet normal -0.565334 -0.205765 -0.798785
outer loop
vertex 0.011467 0.100934 0.006263
vertex 0.041411 0.027763 0.003919
vertex 0.038487 0.026699 0.006263
endloop
endfacet
facet normal -0.675094 -0.245714 -0.695610
outer loop
vertex 0.011467 0.100934 0.006263
vertex 0.038487 0.026699 0.006263
vertex 0.008920 0.100007 0.009062
endloop
endfacet
facet normal -0.675094 -0.245714 -0.695610
outer loop
vertex 0.008920 0.100007 0.009062
vertex 0.038487 0.026699 0.006263
vertex 0.035940 0.025772 0.009062
endloop
endfacet
facet normal -0.768456 -0.279695 -0.575540
outer loop
vertex 0.008920 0.100007 0.009062
vertex 0.035940 0.025772 0.009062
vertex 0.006813 0.099241 0.012248
endloop
endfacet
facet normal -0.768456 -0.279695 -0.575540
outer loop
vertex 0.006813 0.099241 0.012248
vertex 0.035940 0.025772 0.009062
vertex 0.033833 0.025005 0.012248
endloop
endfacet
facet normal -0.843154 -0.306883 -0.441491
outer loop
vertex 0.006813 0.099241 0.012248
vertex 0.033833 0.025005 0.012248
vertex 0.005197 0.098652 0.015744
endloop
endfacet
facet normal -0.843154 -0.306883 -0.441491
outer loop
vertex 0.005197 0.098652 0.015744
vertex 0.033833 0.025005 0.012248
vertex 0.032216 0.024416 0.015744
endloop
endfacet
facet normal -0.897373 -0.326617 -0.296720
outer loop
vertex 0.005197 0.098652 0.015744
vertex 0.032216 0.024416 0.015744
vertex 0.004110 0.098257 0.019465
endloop
endfacet
facet normal -0.897373 -0.326617 -0.296720
outer loop
vertex 0.004110 0.098257 0.019465
vertex 0.032216 0.024416 0.015744
vertex 0.031130 0.024021 0.019465
endloop
endfacet
facet normal -0.929797 -0.338419 -0.144741
outer loop
vertex 0.004110 0.098257 0.019465
vertex 0.031130 0.024021 0.019465
vertex 0.003580 0.098064 0.023320
endloop
endfacet
facet normal -0.929797 -0.338419 -0.144742
outer loop
vertex 0.003580 0.098064 0.023320
vertex 0.031130 0.024021 0.019465
vertex 0.030600 0.023828 0.023320
endloop
endfacet
facet normal -0.939638 -0.342000 0.010753
outer loop
vertex 0.003580 0.098064 0.023320
vertex 0.030600 0.023828 0.023320
vertex 0.003620 0.098078 0.027216
endloop
endfacet
facet normal -0.939638 -0.342000 0.010753
outer loop
vertex 0.003620 0.098078 0.027216
vertex 0.030600 0.023828 0.023320
vertex 0.030639 0.023843 0.027216
endloop
endfacet
facet normal -0.926657 -0.337276 0.165986
outer loop
vertex 0.003620 0.098078 0.027216
vertex 0.030639 0.023843 0.027216
vertex 0.004227 0.098299 0.031058
endloop
endfacet
facet normal -0.926657 -0.337276 0.165986
outer loop
vertex 0.004227 0.098299 0.031058
vertex 0.030639 0.023843 0.027216
vertex 0.031247 0.024064 0.031058
endloop
endfacet
facet normal -0.891170 -0.324359 0.317186
outer loop
vertex 0.004227 0.098299 0.031058
vertex 0.031247 0.024064 0.031058
vertex 0.005389 0.098722 0.034753
endloop
endfacet
facet normal -0.891170 -0.324360 0.317187
outer loop
vertex 0.005389 0.098722 0.034753
vertex 0.031247 0.024064 0.031058
vertex 0.032408 0.024486 0.034753
endloop
endfacet
facet normal -0.834037 -0.303565 0.460684
outer loop
vertex 0.005389 0.098722 0.034753
vertex 0.032408 0.024486 0.034753
vertex 0.007075 0.099336 0.038211
endloop
endfacet
facet normal -0.834038 -0.303565 0.460683
outer loop
vertex 0.007075 0.099336 0.038211
vertex 0.032408 0.024486 0.034753
vertex 0.034095 0.025100 0.038211
endloop
endfacet
facet normal -0.756648 -0.275397 0.592993
outer loop
vertex 0.007075 0.099336 0.038211
vertex 0.034095 0.025100 0.038211
vertex 0.009246 0.100126 0.041348
endloop
endfacet
facet normal -0.756647 -0.275397 0.592993
outer loop
vertex 0.009246 0.100126 0.041348
vertex 0.034095 0.025100 0.038211
vertex 0.036266 0.025890 0.041348
endloop
endfacet
facet normal -0.660880 -0.240541 0.710899
outer loop
vertex 0.009246 0.100126 0.041348
vertex 0.036266 0.025890 0.041348
vertex 0.011849 0.101074 0.044088
endloop
endfacet
facet normal -0.660882 -0.240541 0.710898
outer loop
vertex 0.011849 0.101074 0.044088
vertex 0.036266 0.025890 0.041348
vertex 0.038869 0.026838 0.044088
endloop
endfacet
facet normal -0.549062 -0.199842 0.811538
outer loop
vertex 0.011849 0.101074 0.044088
vertex 0.038869 0.026838 0.044088
vertex 0.014820 0.102155 0.046365
endloop
endfacet
facet normal -0.549063 -0.199842 0.811538
outer loop
vertex 0.014820 0.102155 0.046365
vertex 0.038869 0.026838 0.044088
vertex 0.041840 0.027919 0.046365
endloop
endfacet
facet normal -0.423910 -0.154290 0.892466
outer loop
vertex 0.014820 0.102155 0.046365
vertex 0.041840 0.027919 0.046365
vertex 0.018088 0.103344 0.048123
endloop
endfacet
facet normal -0.423908 -0.154290 0.892467
outer loop
vertex 0.018088 0.103344 0.048123
vertex 0.041840 0.027919 0.046365
vertex 0.045107 0.029109 0.048123
endloop
endfacet
facet normal -0.288458 -0.104990 0.951719
outer loop
vertex 0.018088 0.103344 0.048123
vertex 0.045107 0.029109 0.048123
vertex 0.021572 0.104612 0.049319
endloop
endfacet
facet normal -0.288459 -0.104990 0.951719
outer loop
vertex 0.021572 0.104612 0.049319
vertex 0.045107 0.029109 0.048123
vertex 0.048592 0.030377 0.049319
endloop
endfacet
facet normal -0.146001 -0.053140 0.987856
outer loop
vertex 0.021572 0.104612 0.049319
vertex 0.048592 0.030377 0.049319
vertex 0.025189 0.105929 0.049924
endloop
endfacet
facet normal -0.146002 -0.053140 0.987856
outer loop
vertex 0.025189 0.105929 0.049924
vertex 0.048592 0.030377 0.049319
vertex 0.052209 0.031693 0.049924
endloop
endfacet
facet normal -0.000002 0.000000 1.000000
outer loop
vertex 0.025189 0.105929 0.049924
vertex 0.052209 0.031693 0.049924
vertex 0.028850 0.107261 0.049924
endloop
endfacet
facet normal 0.000001 0.000000 1.000000
outer loop
vertex 0.028850 0.107261 0.049924
vertex 0.052209 0.031693 0.049924
vertex 0.055870 0.033026 0.049924
endloop
endfacet
facet normal 0.146001 0.053140 0.987856
outer loop
vertex 0.028850 0.107261 0.049924
vertex 0.055870 0.033026 0.049924
vertex 0.032467 0.108578 0.049319
endloop
endfacet
facet normal 0.146002 0.053140 0.987856
outer loop
vertex 0.032467 0.108578 0.049319
vertex 0.055870 0.033026 0.049924
vertex 0.059487 0.034342 0.049319
endloop
endfacet
facet normal 0.288459 0.104990 0.951719
outer loop
vertex 0.032467 0.108578 0.049319
vertex 0.059487 0.034342 0.049319
vertex 0.035951 0.109846 0.048123
endloop
endfacet
facet normal 0.288458 0.104990 0.951719
outer loop
vertex 0.035951 0.109846 0.048123
vertex 0.059487 0.034342 0.049319
vertex 0.062971 0.035610 0.048123
endloop
endfacet
facet normal 0.423910 0.154290 0.892466
outer loop
vertex 0.035951 0.109846 0.048123
vertex 0.062971 0.035610 0.048123
vertex 0.039219 0.111035 0.046365
endloop
endfacet
facet normal 0.423908 0.154290 0.892467
outer loop
vertex 0.039219 0.111035 0.046365
vertex 0.062971 0.035610 0.048123
vertex 0.066238 0.036800 0.046365
endloop
endfacet
facet normal 0.549063 0.199842 0.811538
outer loop
vertex 0.039219 0.111035 0.046365
vertex 0.066238 0.036800 0.046365
vertex 0.042190 0.112117 0.044088
endloop
endfacet
facet normal 0.549062 0.199842 0.811538
outer loop
vertex 0.042190 0.112117 0.044088
vertex 0.066238 0.036800 0.046365
vertex 0.069210 0.037881 0.044088
endloop
endfacet
facet normal 0.660883 0.240541 0.710897
outer loop
vertex 0.042190 0.112117 0.044088
vertex 0.069210 0.037881 0.044088
vertex 0.044793 0.113064 0.041348
endloop
endfacet
facet normal 0.660880 0.240541 0.710899
outer loop
vertex 0.044793 0.113064 0.041348
vertex 0.069210 0.037881 0.044088
vertex 0.071812 0.038828 0.041348
endloop
endfacet
facet normal 0.756649 0.275397 0.592992
outer loop
vertex 0.044793 0.113064 0.041348
vertex 0.071812 0.038828 0.041348
vertex 0.046964 0.113854 0.038211
endloop
endfacet
facet normal 0.756647 0.275397 0.592993
outer loop
vertex 0.046964 0.113854 0.038211
vertex 0.071812 0.038828 0.041348
vertex 0.073983 0.039618 0.038211
endloop
endfacet
facet normal 0.834038 0.303565 0.460683
outer loop
vertex 0.046964 0.113854 0.038211
vertex 0.073983 0.039618 0.038211
vertex 0.048650 0.114468 0.034753
endloop
endfacet
facet normal 0.834036 0.303565 0.460686
outer loop
vertex 0.048650 0.114468 0.034753
vertex 0.073983 0.039618 0.038211
vertex 0.075670 0.040232 0.034753
endloop
endfacet
facet normal 0.891170 0.324359 0.317186
outer loop
vertex 0.048650 0.114468 0.034753
vertex 0.075670 0.040232 0.034753
vertex 0.049812 0.114891 0.031058
endloop
endfacet
facet normal 0.891169 0.324359 0.317188
outer loop
vertex 0.049812 0.114891 0.031058
vertex 0.075670 0.040232 0.034753
vertex 0.076831 0.040655 0.031058
endloop
endfacet
facet normal 0.926657 0.337276 0.165985
outer loop
vertex 0.049812 0.114891 0.031058
vertex 0.076831 0.040655 0.031058
vertex 0.050419 0.115112 0.027216
endloop
endfacet
facet normal 0.926658 0.337275 0.165984
outer loop
vertex 0.050419 0.115112 0.027216
vertex 0.076831 0.040655 0.031058
vertex 0.077439 0.040876 0.027216
endloop
endfacet
facet normal 0.939638 0.342000 0.010752
outer loop
vertex 0.050419 0.115112 0.027216
vertex 0.077439 0.040876 0.027216
vertex 0.050459 0.115126 0.023320
endloop
endfacet
facet normal 0.939638 0.342000 0.010754
outer loop
vertex 0.050459 0.115126 0.023320
vertex 0.077439 0.040876 0.027216
vertex 0.077478 0.040891 0.023320
endloop
endfacet
facet normal 0.929797 0.338419 -0.144740
outer loop
vertex 0.050459 0.115126 0.023320
vertex 0.077478 0.040891 0.023320
vertex 0.049929 0.114933 0.019465
endloop
endfacet
facet normal 0.929797 0.338418 -0.144742
outer loop
vertex 0.049929 0.114933 0.019465
vertex 0.077478 0.040891 0.023320
vertex 0.076948 0.040698 0.019465
endloop
endfacet
facet normal 0.897373 0.326617 -0.296720
outer loop
vertex 0.049929 0.114933 0.019465
vertex 0.076948 0.040698 0.019465
vertex 0.048843 0.114538 0.015744
endloop
endfacet
facet normal 0.897373 0.326617 -0.296720
outer loop
vertex 0.048843 0.114538 0.015744
vertex 0.076948 0.040698 0.019465
vertex 0.075862 0.040302 0.015744
endloop
endfacet
facet normal 0.843154 0.306883 -0.441492
outer loop
vertex 0.048843 0.114538 0.015744
vertex 0.075862 0.040302 0.015744
vertex 0.047226 0.113950 0.012248
endloop
endfacet
facet normal 0.843154 0.306883 -0.441490
outer loop
vertex 0.047226 0.113950 0.012248
vertex 0.075862 0.040302 0.015744
vertex 0.074246 0.039714 0.012248
endloop
endfacet
facet normal 0.768456 0.279695 -0.575539
outer loop
vertex 0.047226 0.113950 0.012248
vertex 0.074246 0.039714 0.012248
vertex 0.045119 0.113183 0.009062
endloop
endfacet
facet normal -0.565336 -0.205765 -0.798784
outer loop
vertex 0.014391 0.101999 0.003919
vertex 0.011467 0.100934 0.006263
vertex -0.015553 0.175170 0.006263
endloop
endfacet
facet normal -0.675092 -0.245713 -0.695612
outer loop
vertex -0.015553 0.175170 0.006263
vertex 0.011467 0.100934 0.006263
vertex -0.018099 0.174243 0.009062
endloop
endfacet
facet normal -0.675092 -0.245713 -0.695612
outer loop
vertex -0.015553 0.175170 0.006263
vertex -0.018099 0.174243 0.009062
vertex -0.045119 0.248479 0.009062
endloop
endfacet
facet normal -0.768455 -0.279695 -0.575541
outer loop
vertex -0.045119 0.248479 0.009062
vertex -0.018099 0.174243 0.009062
vertex -0.047226 0.247712 0.012248
endloop
endfacet
facet normal -0.768456 -0.279695 -0.575539
outer loop
vertex -0.045119 0.248479 0.009062
vertex -0.047226 0.247712 0.012248
vertex -0.074246 0.321948 0.012248
endloop
endfacet
facet normal -0.843156 -0.306883 -0.441486
outer loop
vertex -0.074246 0.321948 0.012248
vertex -0.047226 0.247712 0.012248
vertex -0.075862 0.321359 0.015744
endloop
endfacet
facet normal -0.675095 -0.245715 -0.695608
outer loop
vertex -0.018099 0.174243 0.009062
vertex 0.011467 0.100934 0.006263
vertex 0.008920 0.100007 0.009062
endloop
endfacet
facet normal -0.768455 -0.279695 -0.575541
outer loop
vertex -0.018099 0.174243 0.009062
vertex 0.008920 0.100007 0.009062
vertex -0.020207 0.173476 0.012248
endloop
endfacet
facet normal -0.768455 -0.279695 -0.575542
outer loop
vertex -0.020207 0.173476 0.012248
vertex 0.008920 0.100007 0.009062
vertex 0.006813 0.099241 0.012248
endloop
endfacet
facet normal -0.843155 -0.306883 -0.441489
outer loop
vertex -0.020207 0.173476 0.012248
vertex 0.006813 0.099241 0.012248
vertex -0.021823 0.172888 0.015744
endloop
endfacet
facet normal -0.843154 -0.306883 -0.441490
outer loop
vertex -0.021823 0.172888 0.015744
vertex 0.006813 0.099241 0.012248
vertex 0.005197 0.098652 0.015744
endloop
endfacet
facet normal -0.897373 -0.326617 -0.296721
outer loop
vertex -0.021823 0.172888 0.015744
vertex 0.005197 0.098652 0.015744
vertex -0.022909 0.172493 0.019465
endloop
endfacet
facet normal -0.897373 -0.326617 -0.296720
outer loop
vertex -0.022909 0.172493 0.019465
vertex 0.005197 0.098652 0.015744
vertex 0.004110 0.098257 0.019465
endloop
endfacet
facet normal -0.929797 -0.338419 -0.144743
outer loop
vertex -0.022909 0.172493 0.019465
vertex 0.004110 0.098257 0.019465
vertex -0.023439 0.172300 0.023320
endloop
endfacet
facet normal -0.929798 -0.338419 -0.144738
outer loop
vertex -0.023439 0.172300 0.023320
vertex 0.004110 0.098257 0.019465
vertex 0.003580 0.098064 0.023320
endloop
endfacet
facet normal -0.939638 -0.342000 0.010754
outer loop
vertex -0.023439 0.172300 0.023320
vertex 0.003580 0.098064 0.023320
vertex -0.023400 0.172314 0.027216
endloop
endfacet
facet normal -0.939638 -0.342000 0.010751
outer loop
vertex -0.023400 0.172314 0.027216
vertex 0.003580 0.098064 0.023320
vertex 0.003620 0.098078 0.027216
endloop
endfacet
facet normal -0.926657 -0.337276 0.165986
outer loop
vertex -0.023400 0.172314 0.027216
vertex 0.003620 0.098078 0.027216
vertex -0.022792 0.172535 0.031058
endloop
endfacet
facet normal -0.926657 -0.337276 0.165987
outer loop
vertex -0.022792 0.172535 0.031058
vertex 0.003620 0.098078 0.027216
vertex 0.004227 0.098299 0.031058
endloop
endfacet
facet normal -0.891169 -0.324359 0.317188
outer loop
vertex -0.022792 0.172535 0.031058
vertex 0.004227 0.098299 0.031058
vertex -0.021631 0.172958 0.034753
endloop
endfacet
facet normal -0.891170 -0.324359 0.317185
outer loop
vertex -0.021631 0.172958 0.034753
vertex 0.004227 0.098299 0.031058
vertex 0.005389 0.098722 0.034753
endloop
endfacet
facet normal -0.834037 -0.303565 0.460686
outer loop
vertex -0.021631 0.172958 0.034753
vertex 0.005389 0.098722 0.034753
vertex -0.019944 0.173572 0.038211
endloop
endfacet
facet normal -0.834038 -0.303565 0.460682
outer loop
vertex -0.019944 0.173572 0.038211
vertex 0.005389 0.098722 0.034753
vertex 0.007075 0.099336 0.038211
endloop
endfacet
facet normal -0.756646 -0.275397 0.592995
outer loop
vertex -0.019944 0.173572 0.038211
vertex 0.007075 0.099336 0.038211
vertex -0.017773 0.174362 0.041348
endloop
endfacet
facet normal -0.756649 -0.275397 0.592991
outer loop
vertex -0.017773 0.174362 0.041348
vertex 0.007075 0.099336 0.038211
vertex 0.009246 0.100126 0.041348
endloop
endfacet
facet normal -0.660881 -0.240541 0.710898
outer loop
vertex -0.017773 0.174362 0.041348
vertex 0.009246 0.100126 0.041348
vertex -0.015170 0.175309 0.044088
endloop
endfacet
facet normal -0.660881 -0.240541 0.710899
outer loop
vertex -0.015170 0.175309 0.044088
vertex 0.009246 0.100126 0.041348
vertex 0.011849 0.101074 0.044088
endloop
endfacet
facet normal -0.549063 -0.199843 0.811537
outer loop
vertex -0.015170 0.175309 0.044088
vertex 0.011849 0.101074 0.044088
vertex -0.012199 0.176391 0.046365
endloop
endfacet
facet normal -0.549063 -0.199842 0.811537
outer loop
vertex -0.012199 0.176391 0.046365
vertex 0.011849 0.101074 0.044088
vertex 0.014820 0.102155 0.046365
endloop
endfacet
facet normal -0.423908 -0.154290 0.892467
outer loop
vertex -0.012199 0.176391 0.046365
vertex 0.014820 0.102155 0.046365
vertex -0.008932 0.177580 0.048123
endloop
endfacet
facet normal -0.423910 -0.154290 0.892465
outer loop
vertex -0.008932 0.177580 0.048123
vertex 0.014820 0.102155 0.046365
vertex 0.018088 0.103344 0.048123
endloop
endfacet
facet normal -0.288457 -0.104990 0.951719
outer loop
vertex -0.008932 0.177580 0.048123
vertex 0.018088 0.103344 0.048123
vertex -0.005447 0.178848 0.049319
endloop
endfacet
facet normal -0.288459 -0.104991 0.951719
outer loop
vertex -0.005447 0.178848 0.049319
vertex 0.018088 0.103344 0.048123
vertex 0.021572 0.104612 0.049319
endloop
endfacet
facet normal -0.146002 -0.053140 0.987856
outer loop
vertex -0.005447 0.178848 0.049319
vertex 0.021572 0.104612 0.049319
vertex -0.001831 0.180165 0.049924
endloop
endfacet
facet normal -0.146001 -0.053140 0.987856
outer loop
vertex -0.001831 0.180165 0.049924
vertex 0.021572 0.104612 0.049319
vertex 0.025189 0.105929 0.049924
endloop
endfacet
facet normal -0.000002 0.000000 1.000000
outer loop
vertex -0.001831 0.180165 0.049924
vertex 0.025189 0.105929 0.049924
vertex 0.001831 0.181497 0.049924
endloop
endfacet
facet normal 0.000001 0.000000 1.000000
outer loop
vertex 0.001831 0.181497 0.049924
vertex 0.025189 0.105929 0.049924
vertex 0.028850 0.107261 0.049924
endloop
endfacet
facet normal 0.146002 0.053140 0.987856
outer loop
vertex 0.001831 0.181497 0.049924
vertex 0.028850 0.107261 0.049924
vertex 0.005447 0.182813 0.049319
endloop
endfacet
facet normal 0.146002 0.053140 0.987856
outer loop
vertex 0.005447 0.182813 0.049319
vertex 0.028850 0.107261 0.049924
vertex 0.032467 0.108578 0.049319
endloop
endfacet
facet normal 0.288459 0.104990 0.951719
outer loop
vertex 0.005447 0.182813 0.049319
vertex 0.032467 0.108578 0.049319
vertex 0.008932 0.184082 0.048123
endloop
endfacet
facet normal 0.288458 0.104990 0.951719
outer loop
vertex 0.008932 0.184082 0.048123
vertex 0.032467 0.108578 0.049319
vertex 0.035951 0.109846 0.048123
endloop
endfacet
facet normal 0.423909 0.154290 0.892466
outer loop
vertex 0.008932 0.184082 0.048123
vertex 0.035951 0.109846 0.048123
vertex 0.012199 0.185271 0.046365
endloop
endfacet
facet normal 0.423909 0.154290 0.892466
outer loop
vertex 0.012199 0.185271 0.046365
vertex 0.035951 0.109846 0.048123
vertex 0.039219 0.111035 0.046365
endloop
endfacet
facet normal 0.549062 0.199842 0.811538
outer loop
vertex 0.012199 0.185271 0.046365
vertex 0.039219 0.111035 0.046365
vertex 0.015170 0.186352 0.044088
endloop
endfacet
facet normal 0.549062 0.199842 0.811538
outer loop
vertex 0.015170 0.186352 0.044088
vertex 0.039219 0.111035 0.046365
vertex 0.042190 0.112117 0.044088
endloop
endfacet
facet normal 0.660881 0.240541 0.710898
outer loop
vertex 0.015170 0.186352 0.044088
vertex 0.042190 0.112117 0.044088
vertex 0.017773 0.187300 0.041348
endloop
endfacet
facet normal 0.660881 0.240541 0.710899
outer loop
vertex 0.017773 0.187300 0.041348
vertex 0.042190 0.112117 0.044088
vertex 0.044793 0.113064 0.041348
endloop
endfacet
facet normal 0.756648 0.275397 0.592993
outer loop
vertex 0.017773 0.187300 0.041348
vertex 0.044793 0.113064 0.041348
vertex 0.019944 0.188090 0.038211
endloop
endfacet
facet normal 0.756648 0.275397 0.592993
outer loop
vertex 0.019944 0.188090 0.038211
vertex 0.044793 0.113064 0.041348
vertex 0.046964 0.113854 0.038211
endloop
endfacet
facet normal 0.834038 0.303565 0.460683
outer loop
vertex 0.019944 0.188090 0.038211
vertex 0.046964 0.113854 0.038211
vertex 0.021631 0.188704 0.034753
endloop
endfacet
facet normal 0.834037 0.303565 0.460686
outer loop
vertex 0.021631 0.188704 0.034753
vertex 0.046964 0.113854 0.038211
vertex 0.048650 0.114468 0.034753
endloop
endfacet
facet normal 0.891170 0.324360 0.317185
outer loop
vertex 0.021631 0.188704 0.034753
vertex 0.048650 0.114468 0.034753
vertex 0.022792 0.189126 0.031058
endloop
endfacet
facet normal 0.891169 0.324359 0.317188
outer loop
vertex 0.022792 0.189126 0.031058
vertex 0.048650 0.114468 0.034753
vertex 0.049812 0.114891 0.031058
endloop
endfacet
facet normal 0.926657 0.337276 0.165985
outer loop
vertex 0.022792 0.189126 0.031058
vertex 0.049812 0.114891 0.031058
vertex 0.023400 0.189348 0.027216
endloop
endfacet
facet normal 0.926658 0.337276 0.165984
outer loop
vertex 0.023400 0.189348 0.027216
vertex 0.049812 0.114891 0.031058
vertex 0.050419 0.115112 0.027216
endloop
endfacet
facet normal 0.939638 0.342000 0.010757
outer loop
vertex 0.023400 0.189348 0.027216
vertex 0.050419 0.115112 0.027216
vertex 0.023439 0.189362 0.023320
endloop
endfacet
facet normal 0.939638 0.342000 0.010749
outer loop
vertex 0.023439 0.189362 0.023320
vertex 0.050419 0.115112 0.027216
vertex 0.050459 0.115126 0.023320
endloop
endfacet
facet normal 0.929797 0.338419 -0.144741
outer loop
vertex 0.023439 0.189362 0.023320
vertex 0.050459 0.115126 0.023320
vertex 0.022909 0.189169 0.019465
endloop
endfacet
facet normal 0.929797 0.338418 -0.144741
outer loop
vertex 0.022909 0.189169 0.019465
vertex 0.050459 0.115126 0.023320
vertex 0.049929 0.114933 0.019465
endloop
endfacet
facet normal 0.897373 0.326617 -0.296720
outer loop
vertex 0.022909 0.189169 0.019465
vertex 0.049929 0.114933 0.019465
vertex 0.021823 0.188774 0.015744
endloop
endfacet
facet normal 0.897374 0.326617 -0.296719
outer loop
vertex 0.021823 0.188774 0.015744
vertex 0.049929 0.114933 0.019465
vertex 0.048843 0.114538 0.015744
endloop
endfacet
facet normal 0.843154 0.306883 -0.441491
outer loop
vertex 0.021823 0.188774 0.015744
vertex 0.048843 0.114538 0.015744
vertex 0.020207 0.188185 0.012248
endloop
endfacet
facet normal 0.843154 0.306883 -0.441492
outer loop
vertex 0.020207 0.188185 0.012248
vertex 0.048843 0.114538 0.015744
vertex 0.047226 0.113950 0.012248
endloop
endfacet
facet normal 0.768456 0.279695 -0.575539
outer loop
vertex 0.020207 0.188185 0.012248
vertex 0.047226 0.113950 0.012248
vertex 0.018099 0.187418 0.009062
endloop
endfacet
facet normal 0.768457 0.279695 -0.575539
outer loop
vertex 0.018099 0.187418 0.009062
vertex 0.047226 0.113950 0.012248
vertex 0.045119 0.113183 0.009062
endloop
endfacet
facet normal 0.675093 0.245714 -0.695611
outer loop
vertex 0.018099 0.187418 0.009062
vertex 0.045119 0.113183 0.009062
vertex 0.015553 0.186492 0.006263
endloop
endfacet
facet normal -0.768456 -0.279695 -0.575539
outer loop
vertex -0.018099 0.174243 0.009062
vertex -0.020207 0.173476 0.012248
vertex -0.047226 0.247712 0.012248
endloop
endfacet
facet normal -0.843154 -0.306883 -0.441491
outer loop
vertex -0.047226 0.247712 0.012248
vertex -0.020207 0.173476 0.012248
vertex -0.048843 0.247124 0.015744
endloop
endfacet
facet normal -0.843154 -0.306883 -0.441491
outer loop
vertex -0.047226 0.247712 0.012248
vertex -0.048843 0.247124 0.015744
vertex -0.075862 0.321359 0.015744
endloop
endfacet
facet normal -0.897373 -0.326617 -0.296719
outer loop
vertex -0.075862 0.321359 0.015744
vertex -0.048843 0.247124 0.015744
vertex -0.076948 0.320964 0.019465
endloop
endfacet
facet normal -0.843153 -0.306883 -0.441493
outer loop
vertex -0.048843 0.247124 0.015744
vertex -0.020207 0.173476 0.012248
vertex -0.021823 0.172888 0.015744
endloop
endfacet
facet normal -0.897373 -0.326617 -0.296719
outer loop
vertex -0.048843 0.247124 0.015744
vertex -0.021823 0.172888 0.015744
vertex -0.049929 0.246728 0.019465
endloop
endfacet
facet normal -0.897373 -0.326617 -0.296719
outer loop
vertex -0.049929 0.246728 0.019465
vertex -0.021823 0.172888 0.015744
vertex -0.022909 0.172493 0.019465
endloop
endfacet
facet normal -0.929797 -0.338419 -0.144741
outer loop
vertex -0.049929 0.246728 0.019465
vertex -0.022909 0.172493 0.019465
vertex -0.050459 0.246535 0.023320
endloop
endfacet
facet normal -0.929797 -0.338418 -0.144743
outer loop
vertex -0.050459 0.246535 0.023320
vertex -0.022909 0.172493 0.019465
vertex -0.023439 0.172300 0.023320
endloop
endfacet
facet normal -0.939638 -0.342000 0.010754
outer loop
vertex -0.050459 0.246535 0.023320
vertex -0.023439 0.172300 0.023320
vertex -0.050419 0.246550 0.027216
endloop
endfacet
facet normal -0.939638 -0.342000 0.010755
outer loop
vertex -0.050419 0.246550 0.027216
vertex -0.023439 0.172300 0.023320
vertex -0.023400 0.172314 0.027216
endloop
endfacet
facet normal -0.926658 -0.337276 0.165985
outer loop
vertex -0.050419 0.246550 0.027216
vertex -0.023400 0.172314 0.027216
vertex -0.049812 0.246771 0.031058
endloop
endfacet
facet normal -0.926657 -0.337276 0.165987
outer loop
vertex -0.049812 0.246771 0.031058
vertex -0.023400 0.172314 0.027216
vertex -0.022792 0.172535 0.031058
endloop
endfacet
facet normal -0.891170 -0.324359 0.317186
outer loop
vertex -0.049812 0.246771 0.031058
vertex -0.022792 0.172535 0.031058
vertex -0.048650 0.247194 0.034753
endloop
endfacet
facet normal -0.891170 -0.324360 0.317187
outer loop
vertex -0.048650 0.247194 0.034753
vertex -0.022792 0.172535 0.031058
vertex -0.021631 0.172958 0.034753
endloop
endfacet
facet normal -0.834038 -0.303565 0.460684
outer loop
vertex -0.048650 0.247194 0.034753
vertex -0.021631 0.172958 0.034753
vertex -0.046964 0.247807 0.038211
endloop
endfacet
facet normal -0.834037 -0.303564 0.460686
outer loop
vertex -0.046964 0.247807 0.038211
vertex -0.021631 0.172958 0.034753
vertex -0.019944 0.173572 0.038211
endloop
endfacet
facet normal -0.756647 -0.275398 0.592993
outer loop
vertex -0.046964 0.247807 0.038211
vertex -0.019944 0.173572 0.038211
vertex -0.044793 0.248598 0.041348
endloop
endfacet
facet normal -0.756649 -0.275397 0.592992
outer loop
vertex -0.044793 0.248598 0.041348
vertex -0.019944 0.173572 0.038211
vertex -0.017773 0.174362 0.041348
endloop
endfacet
facet normal -0.660881 -0.240541 0.710898
outer loop
vertex -0.044793 0.248598 0.041348
vertex -0.017773 0.174362 0.041348
vertex -0.042190 0.249545 0.044088
endloop
endfacet
facet normal -0.660882 -0.240541 0.710897
outer loop
vertex -0.042190 0.249545 0.044088
vertex -0.017773 0.174362 0.041348
vertex -0.015170 0.175309 0.044088
endloop
endfacet
facet normal -0.549061 -0.199842 0.811539
outer loop
vertex -0.042190 0.249545 0.044088
vertex -0.015170 0.175309 0.044088
vertex -0.039219 0.250626 0.046365
endloop
endfacet
facet normal -0.549063 -0.199842 0.811537
outer loop
vertex -0.039219 0.250626 0.046365
vertex -0.015170 0.175309 0.044088
vertex -0.012199 0.176391 0.046365
endloop
endfacet
facet normal -0.423907 -0.154289 0.892467
outer loop
vertex -0.039219 0.250626 0.046365
vertex -0.012199 0.176391 0.046365
vertex -0.035951 0.251816 0.048123
endloop
endfacet
facet normal -0.423909 -0.154290 0.892466
outer loop
vertex -0.035951 0.251816 0.048123
vertex -0.012199 0.176391 0.046365
vertex -0.008932 0.177580 0.048123
endloop
endfacet
facet normal -0.288458 -0.104990 0.951719
outer loop
vertex -0.035951 0.251816 0.048123
vertex -0.008932 0.177580 0.048123
vertex -0.032467 0.253084 0.049319
endloop
endfacet
facet normal -0.288460 -0.104990 0.951718
outer loop
vertex -0.032467 0.253084 0.049319
vertex -0.008932 0.177580 0.048123
vertex -0.005447 0.178848 0.049319
endloop
endfacet
facet normal -0.146003 -0.053140 0.987856
outer loop
vertex -0.032467 0.253084 0.049319
vertex -0.005447 0.178848 0.049319
vertex -0.028850 0.254400 0.049924
endloop
endfacet
facet normal -0.146002 -0.053140 0.987856
outer loop
vertex -0.028850 0.254400 0.049924
vertex -0.005447 0.178848 0.049319
vertex -0.001831 0.180165 0.049924
endloop
endfacet
facet normal 0.000000 0.000000 1.000000
outer loop
vertex -0.028850 0.254400 0.049924
vertex -0.001831 0.180165 0.049924
vertex -0.025189 0.255733 0.049924
endloop
endfacet
facet normal -0.000000 0.000000 1.000000
outer loop
vertex -0.025189 0.255733 0.049924
vertex -0.001831 0.180165 0.049924
vertex 0.001831 0.181497 0.049924
endloop
endfacet
facet normal 0.146003 0.053140 0.987856
outer loop
vertex -0.025189 0.255733 0.049924
vertex 0.001831 0.181497 0.049924
vertex -0.021572 0.257049 0.049319
endloop
endfacet
facet normal 0.146001 0.053140 0.987856
outer loop
vertex -0.021572 0.257049 0.049319
vertex 0.001831 0.181497 0.049924
vertex 0.005447 0.182813 0.049319
endloop
endfacet
facet normal 0.288459 0.104990 0.951719
outer loop
vertex -0.021572 0.257049 0.049319
vertex 0.005447 0.182813 0.049319
vertex -0.018088 0.258317 0.048123
endloop
endfacet
facet normal 0.288459 0.104991 0.951719
outer loop
vertex -0.018088 0.258317 0.048123
vertex 0.005447 0.182813 0.049319
vertex 0.008932 0.184082 0.048123
endloop
endfacet
facet normal 0.423908 0.154289 0.892467
outer loop
vertex -0.018088 0.258317 0.048123
vertex 0.008932 0.184082 0.048123
vertex -0.014820 0.259507 0.046365
endloop
endfacet
facet normal 0.423909 0.154290 0.892466
outer loop
vertex -0.014820 0.259507 0.046365
vertex 0.008932 0.184082 0.048123
vertex 0.012199 0.185271 0.046365
endloop
endfacet
facet normal 0.549061 0.199842 0.811539
outer loop
vertex -0.014820 0.259507 0.046365
vertex 0.012199 0.185271 0.046365
vertex -0.011849 0.260588 0.044088
endloop
endfacet
facet normal 0.549062 0.199842 0.811538
outer loop
vertex -0.011849 0.260588 0.044088
vertex 0.012199 0.185271 0.046365
vertex 0.015170 0.186352 0.044088
endloop
endfacet
facet normal 0.660882 0.240541 0.710897
outer loop
vertex -0.011849 0.260588 0.044088
vertex 0.015170 0.186352 0.044088
vertex -0.009246 0.261535 0.041348
endloop
endfacet
facet normal 0.660881 0.240541 0.710898
outer loop
vertex -0.009246 0.261535 0.041348
vertex 0.015170 0.186352 0.044088
vertex 0.017773 0.187300 0.041348
endloop
endfacet
facet normal 0.756649 0.275397 0.592992
outer loop
vertex -0.009246 0.261535 0.041348
vertex 0.017773 0.187300 0.041348
vertex -0.007075 0.262326 0.038211
endloop
endfacet
facet normal 0.756647 0.275397 0.592994
outer loop
vertex -0.007075 0.262326 0.038211
vertex 0.017773 0.187300 0.041348
vertex 0.019944 0.188090 0.038211
endloop
endfacet
facet normal 0.834038 0.303565 0.460684
outer loop
vertex -0.007075 0.262326 0.038211
vertex 0.019944 0.188090 0.038211
vertex -0.005389 0.262940 0.034753
endloop
endfacet
facet normal 0.834038 0.303565 0.460684
outer loop
vertex -0.005389 0.262940 0.034753
vertex 0.019944 0.188090 0.038211
vertex 0.021631 0.188704 0.034753
endloop
endfacet
facet normal 0.891169 0.324359 0.317189
outer loop
vertex -0.005389 0.262940 0.034753
vertex 0.021631 0.188704 0.034753
vertex -0.004227 0.263362 0.031058
endloop
endfacet
facet normal 0.891170 0.324359 0.317187
outer loop
vertex -0.004227 0.263362 0.031058
vertex 0.021631 0.188704 0.034753
vertex 0.022792 0.189126 0.031058
endloop
endfacet
facet normal 0.926657 0.337275 0.165988
outer loop
vertex -0.004227 0.263362 0.031058
vertex 0.022792 0.189126 0.031058
vertex -0.003620 0.263583 0.027216
endloop
endfacet
facet normal 0.926658 0.337276 0.165984
outer loop
vertex -0.003620 0.263583 0.027216
vertex 0.022792 0.189126 0.031058
vertex 0.023400 0.189348 0.027216
endloop
endfacet
facet normal 0.939638 0.342001 0.010751
outer loop
vertex -0.003620 0.263583 0.027216
vertex 0.023400 0.189348 0.027216
vertex -0.003580 0.263598 0.023320
endloop
endfacet
facet normal 0.939638 0.342000 0.010754
outer loop
vertex -0.003580 0.263598 0.023320
vertex 0.023400 0.189348 0.027216
vertex 0.023439 0.189362 0.023320
endloop
endfacet
facet normal 0.929797 0.338419 -0.144741
outer loop
vertex -0.003580 0.263598 0.023320
vertex 0.023439 0.189362 0.023320
vertex -0.004110 0.263405 0.019465
endloop
endfacet
facet normal 0.929797 0.338418 -0.144744
outer loop
vertex -0.004110 0.263405 0.019465
vertex 0.023439 0.189362 0.023320
vertex 0.022909 0.189169 0.019465
endloop
endfacet
facet normal 0.897374 0.326617 -0.296717
outer loop
vertex -0.004110 0.263405 0.019465
vertex 0.022909 0.189169 0.019465
vertex -0.005197 0.263009 0.015744
endloop
endfacet
facet normal 0.897373 0.326617 -0.296720
outer loop
vertex -0.005197 0.263009 0.015744
vertex 0.022909 0.189169 0.019465
vertex 0.021823 0.188774 0.015744
endloop
endfacet
facet normal 0.843154 0.306883 -0.441491
outer loop
vertex -0.005197 0.263009 0.015744
vertex 0.021823 0.188774 0.015744
vertex -0.006813 0.262421 0.012248
endloop
endfacet
facet normal 0.843153 0.306883 -0.441493
outer loop
vertex -0.006813 0.262421 0.012248
vertex 0.021823 0.188774 0.015744
vertex 0.020207 0.188185 0.012248
endloop
endfacet
facet normal 0.768457 0.279696 -0.575538
outer loop
vertex -0.006813 0.262421 0.012248
vertex 0.020207 0.188185 0.012248
vertex -0.008920 0.261654 0.009062
endloop
endfacet
facet normal 0.768455 0.279695 -0.575541
outer loop
vertex -0.008920 0.261654 0.009062
vertex 0.020207 0.188185 0.012248
vertex 0.018099 0.187418 0.009062
endloop
endfacet
facet normal 0.675095 0.245714 -0.695609
outer loop
vertex -0.008920 0.261654 0.009062
vertex 0.018099 0.187418 0.009062
vertex -0.011467 0.260727 0.006263
endloop
endfacet
facet normal 0.675093 0.245714 -0.695610
outer loop
vertex -0.011467 0.260727 0.006263
vertex 0.018099 0.187418 0.009062
vertex 0.015553 0.186492 0.006263
endloop
endfacet
facet normal 0.565335 0.205765 -0.798785
outer loop
vertex -0.011467 0.260727 0.006263
vertex 0.015553 0.186492 0.006263
vertex -0.014391 0.259663 0.003919
endloop
endfacet
facet normal -0.929797 -0.338419 -0.144741
outer loop
vertex -0.077478 0.320771 0.023320
vertex -0.076948 0.320964 0.019465
vertex -0.049929 0.246728 0.019465
endloop
endfacet
facet normal -0.897373 -0.326617 -0.296720
outer loop
vertex -0.049929 0.246728 0.019465
vertex -0.076948 0.320964 0.019465
vertex -0.048843 0.247124 0.015744
endloop
endfacet
facet normal -0.929798 -0.338419 -0.144735
outer loop
vertex -0.077478 0.320771 0.023320
vertex -0.049929 0.246728 0.019465
vertex -0.050459 0.246535 0.023320
endloop
endfacet
facet normal -0.939638 -0.342000 0.010751
outer loop
vertex -0.077439 0.320785 0.027216
vertex -0.077478 0.320771 0.023320
vertex -0.050459 0.246535 0.023320
endloop
endfacet
facet normal -0.939638 -0.342001 0.010752
outer loop
vertex -0.077439 0.320785 0.027216
vertex -0.050459 0.246535 0.023320
vertex -0.050419 0.246550 0.027216
endloop
endfacet
facet normal -0.926658 -0.337276 0.165985
outer loop
vertex -0.076831 0.321007 0.031058
vertex -0.077439 0.320785 0.027216
vertex -0.050419 0.246550 0.027216
endloop
endfacet
facet normal -0.926657 -0.337276 0.165986
outer loop
vertex -0.076831 0.321007 0.031058
vertex -0.050419 0.246550 0.027216
vertex -0.049812 0.246771 0.031058
endloop
endfacet
facet normal -0.891169 -0.324359 0.317188
outer loop
vertex -0.075670 0.321429 0.034753
vertex -0.076831 0.321007 0.031058
vertex -0.049812 0.246771 0.031058
endloop
endfacet
facet normal -0.891169 -0.324359 0.317189
outer loop
vertex -0.075670 0.321429 0.034753
vertex -0.049812 0.246771 0.031058
vertex -0.048650 0.247194 0.034753
endloop
endfacet
facet normal -0.834038 -0.303566 0.460682
outer loop
vertex -0.073983 0.322043 0.038211
vertex -0.075670 0.321429 0.034753
vertex -0.048650 0.247194 0.034753
endloop
endfacet
facet normal -0.834039 -0.303565 0.460682
outer loop
vertex -0.073983 0.322043 0.038211
vertex -0.048650 0.247194 0.034753
vertex -0.046964 0.247807 0.038211
endloop
endfacet
facet normal -0.756647 -0.275397 0.592995
outer loop
vertex -0.071812 0.322833 0.041348
vertex -0.073983 0.322043 0.038211
vertex -0.046964 0.247807 0.038211
endloop
endfacet
facet normal -0.756648 -0.275397 0.592993
outer loop
vertex -0.071812 0.322833 0.041348
vertex -0.046964 0.247807 0.038211
vertex -0.044793 0.248598 0.041348
endloop
endfacet
facet normal -0.660880 -0.240541 0.710899
outer loop
vertex -0.069210 0.323781 0.044088
vertex -0.071812 0.322833 0.041348
vertex -0.044793 0.248598 0.041348
endloop
endfacet
facet normal -0.660883 -0.240541 0.710897
outer loop
vertex -0.069210 0.323781 0.044088
vertex -0.044793 0.248598 0.041348
vertex -0.042190 0.249545 0.044088
endloop
endfacet
facet normal -0.549063 -0.199843 0.811538
outer loop
vertex -0.066238 0.324862 0.046365
vertex -0.069210 0.323781 0.044088
vertex -0.042190 0.249545 0.044088
endloop
endfacet
facet normal -0.549064 -0.199843 0.811537
outer loop
vertex -0.066238 0.324862 0.046365
vertex -0.042190 0.249545 0.044088
vertex -0.039219 0.250626 0.046365
endloop
endfacet
facet normal -0.423908 -0.154290 0.892467
outer loop
vertex -0.062971 0.326051 0.048123
vertex -0.066238 0.324862 0.046365
vertex -0.039219 0.250626 0.046365
endloop
endfacet
facet normal -0.423909 -0.154290 0.892466
outer loop
vertex -0.062971 0.326051 0.048123
vertex -0.039219 0.250626 0.046365
vertex -0.035951 0.251816 0.048123
endloop
endfacet
facet normal -0.288458 -0.104990 0.951719
outer loop
vertex -0.059487 0.327320 0.049319
vertex -0.062971 0.326051 0.048123
vertex -0.035951 0.251816 0.048123
endloop
endfacet
facet normal -0.288459 -0.104990 0.951719
outer loop
vertex -0.059487 0.327320 0.049319
vertex -0.035951 0.251816 0.048123
vertex -0.032467 0.253084 0.049319
endloop
endfacet
facet normal -0.146003 -0.053140 0.987856
outer loop
vertex -0.055870 0.328636 0.049924
vertex -0.059487 0.327320 0.049319
vertex -0.032467 0.253084 0.049319
endloop
endfacet
facet normal -0.146001 -0.053140 0.987856
outer loop
vertex -0.055870 0.328636 0.049924
vertex -0.032467 0.253084 0.049319
vertex -0.028850 0.254400 0.049924
endloop
endfacet
facet normal 0.000002 0.000000 1.000000
outer loop
vertex -0.052209 0.329969 0.049924
vertex -0.055870 0.328636 0.049924
vertex -0.028850 0.254400 0.049924
endloop
endfacet
facet normal -0.000000 0.000000 1.000000
outer loop
vertex -0.052209 0.329969 0.049924
vertex -0.028850 0.254400 0.049924
vertex -0.025189 0.255733 0.049924
endloop
endfacet
facet normal 0.146001 0.053140 0.987856
outer loop
vertex -0.048592 0.331285 0.049319
vertex -0.052209 0.329969 0.049924
vertex -0.025189 0.255733 0.049924
endloop
endfacet
facet normal 0.146003 0.053140 0.987856
outer loop
vertex -0.048592 0.331285 0.049319
vertex -0.025189 0.255733 0.049924
vertex -0.021572 0.257049 0.049319
endloop
endfacet
facet normal 0.288460 0.104991 0.951718
outer loop
vertex -0.045107 0.332553 0.048123
vertex -0.048592 0.331285 0.049319
vertex -0.021572 0.257049 0.049319
endloop
endfacet
facet normal 0.288457 0.104990 0.951719
outer loop
vertex -0.045107 0.332553 0.048123
vertex -0.021572 0.257049 0.049319
vertex -0.018088 0.258317 0.048123
endloop
endfacet
facet normal 0.423910 0.154290 0.892465
outer loop
vertex -0.041840 0.333742 0.046365
vertex -0.045107 0.332553 0.048123
vertex -0.018088 0.258317 0.048123
endloop
endfacet
facet normal 0.423907 0.154290 0.892467
outer loop
vertex -0.041840 0.333742 0.046365
vertex -0.018088 0.258317 0.048123
vertex -0.014820 0.259507 0.046365
endloop
endfacet
facet normal 0.549063 0.199842 0.811537
outer loop
vertex -0.038869 0.334824 0.044088
vertex -0.041840 0.333742 0.046365
vertex -0.014820 0.259507 0.046365
endloop
endfacet
facet normal 0.549059 0.199842 0.811540
outer loop
vertex -0.038869 0.334824 0.044088
vertex -0.014820 0.259507 0.046365
vertex -0.011849 0.260588 0.044088
endloop
endfacet
facet normal 0.660884 0.240542 0.710895
outer loop
vertex -0.036266 0.335771 0.041348
vertex -0.038869 0.334824 0.044088
vertex -0.011849 0.260588 0.044088
endloop
endfacet
facet normal 0.660883 0.240542 0.710896
outer loop
vertex -0.036266 0.335771 0.041348
vertex -0.011849 0.260588 0.044088
vertex -0.009246 0.261535 0.041348
endloop
endfacet
facet normal 0.756646 0.275396 0.592996
outer loop
vertex -0.034095 0.336561 0.038211
vertex -0.036266 0.335771 0.041348
vertex -0.009246 0.261535 0.041348
endloop
endfacet
facet normal 0.756649 0.275398 0.592991
outer loop
vertex -0.034095 0.336561 0.038211
vertex -0.009246 0.261535 0.041348
vertex -0.007075 0.262326 0.038211
endloop
endfacet
facet normal 0.834039 0.303565 0.460681
outer loop
vertex -0.032408 0.337175 0.034753
vertex -0.034095 0.336561 0.038211
vertex -0.007075 0.262326 0.038211
endloop
endfacet
facet normal 0.834035 0.303564 0.460689
outer loop
vertex -0.032408 0.337175 0.034753
vertex -0.007075 0.262326 0.038211
vertex -0.005389 0.262940 0.034753
endloop
endfacet
facet normal 0.891170 0.324359 0.317186
outer loop
vertex -0.031247 0.337598 0.031058
vertex -0.032408 0.337175 0.034753
vertex -0.005389 0.262940 0.034753
endloop
endfacet
facet normal 0.891170 0.324359 0.317186
outer loop
vertex -0.031247 0.337598 0.031058
vertex -0.005389 0.262940 0.034753
vertex -0.004227 0.263362 0.031058
endloop
endfacet
facet normal 0.926656 0.337275 0.165994
outer loop
vertex -0.030639 0.337819 0.027216
vertex -0.031247 0.337598 0.031058
vertex -0.004227 0.263362 0.031058
endloop
endfacet
facet normal 0.926659 0.337276 0.165978
outer loop
vertex -0.030639 0.337819 0.027216
vertex -0.004227 0.263362 0.031058
vertex -0.003620 0.263583 0.027216
endloop
endfacet
facet normal 0.939638 0.342000 0.010760
outer loop
vertex -0.030600 0.337833 0.023320
vertex -0.030639 0.337819 0.027216
vertex -0.003620 0.263583 0.027216
endloop
endfacet
facet normal 0.939638 0.342000 0.010751
outer loop
vertex -0.030600 0.337833 0.023320
vertex -0.003620 0.263583 0.027216
vertex -0.003580 0.263598 0.023320
endloop
endfacet
facet normal 0.929797 0.338419 -0.144741
outer loop
vertex -0.031130 0.337641 0.019465
vertex -0.030600 0.337833 0.023320
vertex -0.003580 0.263598 0.023320
endloop
endfacet
facet normal 0.929797 0.338418 -0.144742
outer loop
vertex -0.031130 0.337641 0.019465
vertex -0.003580 0.263598 0.023320
vertex -0.004110 0.263405 0.019465
endloop
endfacet
facet normal 0.897373 0.326617 -0.296720
outer loop
vertex -0.032216 0.337245 0.015744
vertex -0.031130 0.337641 0.019465
vertex -0.004110 0.263405 0.019465
endloop
endfacet
facet normal 0.897374 0.326617 -0.296716
outer loop
vertex -0.032216 0.337245 0.015744
vertex -0.004110 0.263405 0.019465
vertex -0.005197 0.263009 0.015744
endloop
endfacet
facet normal 0.843156 0.306884 -0.441486
outer loop
vertex -0.033833 0.336657 0.012248
vertex -0.032216 0.337245 0.015744
vertex -0.005197 0.263009 0.015744
endloop
endfacet
facet normal 0.843152 0.306882 -0.441494
outer loop
vertex -0.033833 0.336657 0.012248
vertex -0.005197 0.263009 0.015744
vertex -0.006813 0.262421 0.012248
endloop
endfacet
facet normal 0.768456 0.279695 -0.575539
outer loop
vertex -0.035940 0.335890 0.009062
vertex -0.033833 0.336657 0.012248
vertex -0.006813 0.262421 0.012248
endloop
endfacet
facet normal 0.768457 0.279695 -0.575538
outer loop
vertex -0.035940 0.335890 0.009062
vertex -0.006813 0.262421 0.012248
vertex -0.008920 0.261654 0.009062
endloop
endfacet
facet normal 0.675092 0.245713 -0.695612
outer loop
vertex -0.038487 0.334963 0.006263
vertex -0.035940 0.335890 0.009062
vertex -0.008920 0.261654 0.009062
endloop
endfacet
facet normal 0.675095 0.245715 -0.695608
outer loop
vertex -0.038487 0.334963 0.006263
vertex -0.008920 0.261654 0.009062
vertex -0.011467 0.260727 0.006263
endloop
endfacet
facet normal 0.565334 0.205765 -0.798786
outer loop
vertex -0.041411 0.333899 0.003919
vertex -0.038487 0.334963 0.006263
vertex -0.011467 0.260727 0.006263
endloop
endfacet
facet normal 0.565335 0.205765 -0.798785
outer loop
vertex -0.041411 0.333899 0.003919
vertex -0.011467 0.260727 0.006263
vertex -0.014391 0.259663 0.003919
endloop
endfacet
facet normal -0.939693 -0.342020 0.000000
outer loop
vertex 0.071662 -0.045297 0.000000
vertex 0.071662 -0.045297 0.002087
vertex -0.090456 0.400118 0.000000
endloop
endfacet
facet normal -0.939693 -0.342020 0.000000
outer loop
vertex -0.090456 0.400118 0.000000
vertex 0.071662 -0.045297 0.002087
vertex -0.090456 0.400118 0.002087
endloop
endfacet
facet normal -0.342021 0.939692 0.000000
outer loop
vertex -0.090456 0.400118 0.000000
vertex -0.090456 0.400118 0.002087
vertex -0.071662 0.406958 0.000000
endloop
endfacet
facet normal -0.342020 0.939693 0.000000
outer loop
vertex -0.071662 0.406958 0.000000
vertex -0.090456 0.400118 0.002087
vertex -0.071662 0.406958 0.002087
endloop
endfacet
facet normal -0.342020 0.939693 0.000000
outer loop
vertex -0.071662 0.406958 0.002087
vertex -0.090456 0.400118 0.002087
vertex -0.068517 0.408103 0.003861
endloop
endfacet
facet normal -0.342020 0.939693 0.000000
outer loop
vertex -0.068517 0.408103 0.003861
vertex -0.090456 0.400118 0.002087
vertex -0.065659 0.409143 0.006120
endloop
endfacet
facet normal -0.342023 0.939692 0.000031
outer loop
vertex -0.065659 0.409143 0.006120
vertex -0.090456 0.400118 0.002087
vertex -0.063156 0.410054 0.008813
endloop
endfacet
facet normal -0.342016 0.939694 -0.000025
outer loop
vertex -0.063156 0.410054 0.008813
vertex -0.090456 0.400118 0.002087
vertex -0.061063 0.410816 0.011878
endloop
endfacet
facet normal -0.342021 0.939692 0.000000
outer loop
vertex -0.061063 0.410816 0.011878
vertex -0.090456 0.400118 0.002087
vertex -0.059429 0.411410 0.015243
endloop
endfacet
facet normal -0.342017 0.939694 -0.000018
outer loop
vertex -0.059429 0.411410 0.015243
vertex -0.090456 0.400118 0.002087
vertex -0.058292 0.411824 0.018833
endloop
endfacet
facet normal -0.342023 0.939691 0.000016
outer loop
vertex -0.058292 0.411824 0.018833
vertex -0.090456 0.400118 0.002087
vertex -0.057678 0.412048 0.022564
endloop
endfacet
facet normal -0.342021 0.939692 0.000000
outer loop
vertex -0.057678 0.412048 0.022564
vertex -0.090456 0.400118 0.002087
vertex -0.057601 0.412076 0.026352
endloop
endfacet
facet normal -0.342017 0.939694 0.000000
outer loop
vertex -0.057601 0.412076 0.026352
vertex -0.090456 0.400118 0.002087
vertex -0.058062 0.411908 0.030108
endloop
endfacet
facet normal -0.342022 0.939692 0.000012
outer loop
vertex -0.058062 0.411908 0.030108
vertex -0.090456 0.400118 0.002087
vertex -0.059051 0.411548 0.033747
endloop
endfacet
facet normal -0.342021 0.939692 0.000000
outer loop
vertex -0.059051 0.411548 0.033747
vertex -0.090456 0.400118 0.002087
vertex -0.060546 0.411004 0.037185
endloop
endfacet
facet normal -0.342014 0.939695 -0.000011
outer loop
vertex -0.060546 0.411004 0.037185
vertex -0.090456 0.400118 0.002087
vertex -0.062511 0.410289 0.040343
endloop
endfacet
facet normal -0.342028 0.939690 0.000010
outer loop
vertex -0.062511 0.410289 0.040343
vertex -0.090456 0.400118 0.002087
vertex -0.064902 0.409418 0.043149
endloop
endfacet
facet normal -0.342013 0.939695 -0.000010
outer loop
vertex -0.064902 0.409418 0.043149
vertex -0.090456 0.400118 0.002087
vertex -0.067665 0.408413 0.045539
endloop
endfacet
facet normal -0.342027 0.939690 0.000010
outer loop
vertex -0.067665 0.408413 0.045539
vertex -0.090456 0.400118 0.002087
vertex -0.070735 0.407296 0.047456
endloop
endfacet
facet normal -0.342016 0.939694 0.000005
outer loop
vertex -0.070735 0.407296 0.047456
vertex -0.090456 0.400118 0.002087
vertex -0.074041 0.406092 0.048859
endloop
endfacet
facet normal -0.342022 0.939692 -0.000004
outer loop
vertex -0.074041 0.406092 0.048859
vertex -0.090456 0.400118 0.002087
vertex -0.093601 0.398973 0.003861
endloop
endfacet
facet normal -0.342019 0.939693 0.000006
outer loop
vertex -0.074041 0.406092 0.048859
vertex -0.093601 0.398973 0.003861
vertex -0.096458 0.397933 0.006120
endloop
endfacet
facet normal -0.342023 0.939692 -0.000010
outer loop
vertex -0.096458 0.397933 0.006120
vertex -0.098962 0.397022 0.008813
vertex -0.074041 0.406092 0.048859
endloop
endfacet
facet normal -0.342020 0.939693 0.000006
outer loop
vertex -0.074041 0.406092 0.048859
vertex -0.098962 0.397022 0.008813
vertex -0.101055 0.396260 0.011878
endloop
endfacet
facet normal -0.342018 0.939693 0.000001
outer loop
vertex -0.074041 0.406092 0.048859
vertex -0.101055 0.396260 0.011878
vertex -0.102688 0.395666 0.015243
endloop
endfacet
facet normal -0.342018 0.939694 -0.000012
outer loop
vertex -0.102688 0.395666 0.015243
vertex -0.103825 0.395252 0.018833
vertex -0.074041 0.406092 0.048859
endloop
endfacet
facet normal -0.342023 0.939692 0.000012
outer loop
vertex -0.074041 0.406092 0.048859
vertex -0.103825 0.395252 0.018833
vertex -0.104439 0.395028 0.022564
endloop
endfacet
facet normal -0.342020 0.939693 -0.000009
outer loop
vertex -0.074041 0.406092 0.048859
vertex -0.104439 0.395028 0.022564
vertex -0.104517 0.395000 0.026352
endloop
endfacet
facet normal -0.342022 0.939692 0.000017
outer loop
vertex -0.104517 0.395000 0.026352
vertex -0.104056 0.395168 0.030108
vertex -0.074041 0.406092 0.048859
endloop
endfacet
facet normal -0.342017 0.939694 -0.000019
outer loop
vertex -0.074041 0.406092 0.048859
vertex -0.104056 0.395168 0.030108
vertex -0.077509 0.404830 0.049713
endloop
endfacet
facet normal -0.342020 0.939693 0.000018
outer loop
vertex -0.077509 0.404830 0.049713
vertex -0.104056 0.395168 0.030108
vertex -0.103066 0.395528 0.033747
endloop
endfacet
facet normal -0.342019 0.939693 -0.000009
outer loop
vertex -0.077509 0.404830 0.049713
vertex -0.103066 0.395528 0.033747
vertex -0.101572 0.396072 0.037185
endloop
endfacet
facet normal -0.342020 0.939693 0.000000
outer loop
vertex -0.101572 0.396072 0.037185
vertex -0.099606 0.396787 0.040343
vertex -0.077509 0.404830 0.049713
endloop
endfacet
facet normal -0.342026 0.939691 0.000017
outer loop
vertex -0.077509 0.404830 0.049713
vertex -0.099606 0.396787 0.040343
vertex -0.097215 0.397658 0.043149
endloop
endfacet
facet normal -0.342016 0.939694 -0.000030
outer loop
vertex -0.077509 0.404830 0.049713
vertex -0.097215 0.397658 0.043149
vertex -0.094453 0.398663 0.045539
endloop
endfacet
facet normal -0.342025 0.939691 0.000044
outer loop
vertex -0.094453 0.398663 0.045539
vertex -0.091383 0.399780 0.047456
vertex -0.077509 0.404830 0.049713
endloop
endfacet
facet normal -0.342024 0.939691 0.000000
outer loop
vertex -0.077509 0.404830 0.049713
vertex -0.091383 0.399780 0.047456
vertex -0.088076 0.400984 0.048859
endloop
endfacet
facet normal -0.342017 0.939694 -0.000036
outer loop
vertex -0.077509 0.404830 0.049713
vertex -0.088076 0.400984 0.048859
vertex -0.084608 0.402246 0.049713
endloop
endfacet
facet normal -0.342023 0.939691 0.000107
outer loop
vertex -0.084608 0.402246 0.049713
vertex -0.081059 0.403538 0.050000
vertex -0.077509 0.404830 0.049713
endloop
endfacet
facet normal 0.342020 -0.939693 0.000000
outer loop
vertex 0.071662 -0.045297 0.000000
vertex 0.090456 -0.038456 0.000000
vertex 0.071662 -0.045297 0.002087
endloop
endfacet
facet normal 0.342021 -0.939692 0.000000
outer loop
vertex 0.071662 -0.045297 0.002087
vertex 0.090456 -0.038456 0.000000
vertex 0.090456 -0.038456 0.002087
endloop
endfacet
facet normal 0.342020 -0.939692 0.000001
outer loop
vertex 0.071662 -0.045297 0.002087
vertex 0.090456 -0.038456 0.002087
vertex 0.093601 -0.037311 0.003861
endloop
endfacet
facet normal 0.342021 -0.939692 -0.000005
outer loop
vertex 0.093601 -0.037311 0.003861
vertex 0.096458 -0.036271 0.006120
vertex 0.071662 -0.045297 0.002087
endloop
endfacet
facet normal 0.342021 -0.939692 -0.000002
outer loop
vertex 0.071662 -0.045297 0.002087
vertex 0.096458 -0.036271 0.006120
vertex 0.098962 -0.035360 0.008813
endloop
endfacet
facet normal 0.342019 -0.939693 0.000002
outer loop
vertex 0.071662 -0.045297 0.002087
vertex 0.098962 -0.035360 0.008813
vertex 0.101055 -0.034598 0.011878
endloop
endfacet
facet normal 0.342021 -0.939692 -0.000003
outer loop
vertex 0.101055 -0.034598 0.011878
vertex 0.102688 -0.034004 0.015243
vertex 0.071662 -0.045297 0.002087
endloop
endfacet
facet normal 0.342019 -0.939693 0.000003
outer loop
vertex 0.071662 -0.045297 0.002087
vertex 0.102688 -0.034004 0.015243
vertex 0.103825 -0.033590 0.018833
endloop
endfacet
facet normal 0.342021 -0.939692 -0.000000
outer loop
vertex 0.071662 -0.045297 0.002087
vertex 0.103825 -0.033590 0.018833
vertex 0.104439 -0.033367 0.022564
endloop
endfacet
facet normal 0.342021 -0.939692 -0.000004
outer loop
vertex 0.104439 -0.033367 0.022564
vertex 0.104517 -0.033338 0.026352
vertex 0.071662 -0.045297 0.002087
endloop
endfacet
facet normal 0.342018 -0.939693 0.000002
outer loop
vertex 0.071662 -0.045297 0.002087
vertex 0.104517 -0.033338 0.026352
vertex 0.104056 -0.033506 0.030108
endloop
endfacet
facet normal 0.342021 -0.939692 -0.000001
outer loop
vertex 0.071662 -0.045297 0.002087
vertex 0.104056 -0.033506 0.030108
vertex 0.103066 -0.033866 0.033747
endloop
endfacet
facet normal 0.342020 -0.939693 0.000000
outer loop
vertex 0.103066 -0.033866 0.033747
vertex 0.101572 -0.034410 0.037185
vertex 0.071662 -0.045297 0.002087
endloop
endfacet
facet normal 0.342020 -0.939693 0.000002
outer loop
vertex 0.071662 -0.045297 0.002087
vertex 0.101572 -0.034410 0.037185
vertex 0.099606 -0.035126 0.040343
endloop
endfacet
facet normal 0.342021 -0.939692 -0.000001
outer loop
vertex 0.071662 -0.045297 0.002087
vertex 0.099606 -0.035126 0.040343
vertex 0.097215 -0.035996 0.043149
endloop
endfacet
facet normal 0.342019 -0.939693 0.000001
outer loop
vertex 0.097215 -0.035996 0.043149
vertex 0.094453 -0.037001 0.045539
vertex 0.071662 -0.045297 0.002087
endloop
endfacet
facet normal 0.342022 -0.939692 -0.000001
outer loop
vertex 0.071662 -0.045297 0.002087
vertex 0.094453 -0.037001 0.045539
vertex 0.091383 -0.038119 0.047456
endloop
endfacet
facet normal 0.342018 -0.939694 0.000001
outer loop
vertex 0.071662 -0.045297 0.002087
vertex 0.091383 -0.038119 0.047456
vertex 0.088076 -0.039322 0.048859
endloop
endfacet
facet normal 0.342019 -0.939693 0.000002
outer loop
vertex 0.084608 -0.040584 0.049713
vertex 0.058062 -0.050246 0.030108
vertex 0.088076 -0.039322 0.048859
endloop
endfacet
facet normal 0.342022 -0.939692 -0.000004
outer loop
vertex 0.088076 -0.039322 0.048859
vertex 0.058062 -0.050246 0.030108
vertex 0.057601 -0.050414 0.026352
endloop
endfacet
facet normal 0.342019 -0.939693 0.000002
outer loop
vertex 0.088076 -0.039322 0.048859
vertex 0.057601 -0.050414 0.026352
vertex 0.057678 -0.050386 0.022564
endloop
endfacet
facet normal 0.342023 -0.939691 0.000027
outer loop
vertex 0.081059 -0.041876 0.050000
vertex 0.077509 -0.043168 0.049713
vertex 0.084608 -0.040584 0.049713
endloop
endfacet
facet normal 0.342018 -0.939693 -0.000005
outer loop
vertex 0.084608 -0.040584 0.049713
vertex 0.077509 -0.043168 0.049713
vertex 0.074041 -0.044430 0.048859
endloop
endfacet
facet normal 0.342023 -0.939691 -0.000014
outer loop
vertex 0.084608 -0.040584 0.049713
vertex 0.074041 -0.044430 0.048859
vertex 0.070735 -0.045634 0.047456
endloop
endfacet
facet normal 0.342020 -0.939693 0.000000
outer loop
vertex 0.070735 -0.045634 0.047456
vertex 0.067665 -0.046751 0.045539
vertex 0.084608 -0.040584 0.049713
endloop
endfacet
facet normal 0.342020 -0.939693 -0.000001
outer loop
vertex 0.084608 -0.040584 0.049713
vertex 0.067665 -0.046751 0.045539
vertex 0.064902 -0.047757 0.043149
endloop
endfacet
facet normal 0.342019 -0.939693 0.000005
outer loop
vertex 0.084608 -0.040584 0.049713
vertex 0.064902 -0.047757 0.043149
vertex 0.062511 -0.048627 0.040343
endloop
endfacet
facet normal 0.342021 -0.939692 -0.000004
outer loop
vertex 0.062511 -0.048627 0.040343
vertex 0.060546 -0.049342 0.037185
vertex 0.084608 -0.040584 0.049713
endloop
endfacet
facet normal 0.342020 -0.939693 0.000001
outer loop
vertex 0.084608 -0.040584 0.049713
vertex 0.060546 -0.049342 0.037185
vertex 0.059051 -0.049886 0.033747
endloop
endfacet
facet normal 0.342020 -0.939693 0.000003
outer loop
vertex 0.084608 -0.040584 0.049713
vertex 0.059051 -0.049886 0.033747
vertex 0.058062 -0.050246 0.030108
endloop
endfacet
facet normal 0.342021 -0.939692 0.000000
outer loop
vertex 0.057678 -0.050386 0.022564
vertex 0.058292 -0.050163 0.018833
vertex 0.088076 -0.039322 0.048859
endloop
endfacet
facet normal 0.342021 -0.939692 -0.000001
outer loop
vertex 0.088076 -0.039322 0.048859
vertex 0.058292 -0.050163 0.018833
vertex 0.059429 -0.049749 0.015243
endloop
endfacet
facet normal 0.342019 -0.939693 0.000001
outer loop
vertex 0.088076 -0.039322 0.048859
vertex 0.059429 -0.049749 0.015243
vertex 0.061063 -0.049154 0.011878
endloop
endfacet
facet normal 0.342022 -0.939692 -0.000001
outer loop
vertex 0.061063 -0.049154 0.011878
vertex 0.063156 -0.048393 0.008813
vertex 0.088076 -0.039322 0.048859
endloop
endfacet
facet normal 0.342018 -0.939694 0.000002
outer loop
vertex 0.088076 -0.039322 0.048859
vertex 0.063156 -0.048393 0.008813
vertex 0.065659 -0.047481 0.006120
endloop
endfacet
facet normal 0.342019 -0.939693 0.000000
outer loop
vertex 0.088076 -0.039322 0.048859
vertex 0.065659 -0.047481 0.006120
vertex 0.068517 -0.046441 0.003861
endloop
endfacet
facet normal 0.342021 -0.939692 0.000000
outer loop
vertex 0.068517 -0.046441 0.003861
vertex 0.071662 -0.045297 0.002087
vertex 0.088076 -0.039322 0.048859
endloop
endfacet
endsolid cylinder
