solid cylinder
facet normal 0.000000 0.000000 -1.000000
outer loop
vertex 0.235136 -0.031307 0.000000
vertex 0.231663 -0.051003 0.000000
vertex -0.231663 0.051003 0.000000
endloop
endfacet
facet normal 0.000000 0.000000 -1.000000
outer loop
vertex -0.231663 0.051003 0.000000
vertex 0.231663 -0.051003 0.000000
vertex -0.235136 0.031307 0.000000
endloop
endfacet
facet normal 0.173648 0.984808 0.000000
outer loop
vertex 0.235136 -0.031307 0.002087
vertex 0.235136 -0.031307 0.000000
vertex -0.231663 0.051003 0.002087
endloop
endfacet
facet normal 0.173648 0.984808 0.000000
outer loop
vertex -0.231663 0.051003 0.002087
vertex 0.235136 -0.031307 0.000000
vertex -0.231663 0.051003 0.000000
endloop
endfacet
facet normal -0.081423 -0.461155 -0.883576
outer loop
vertex 0.231082 -0.054299 0.003861
vertex 0.153266 -0.040671 0.003919
vertex 0.231663 -0.051003 0.002087
endloop
endfacet
facet normal -0.081650 -0.463058 -0.882559
outer loop
vertex 0.231663 -0.051003 0.002087
vertex 0.153266 -0.040671 0.003919
vertex 0.075466 -0.026953 0.003919
endloop
endfacet
facet normal -0.081650 -0.463059 -0.882559
outer loop
vertex 0.231663 -0.051003 0.002087
vertex 0.075466 -0.026953 0.003919
vertex -0.002334 -0.013234 0.003919
endloop
endfacet
facet normal -0.104470 -0.592476 -0.798785
outer loop
vertex -0.002334 -0.013234 0.003919
vertex 0.075466 -0.026953 0.003919
vertex -0.002874 -0.016299 0.006263
endloop
endfacet
facet normal -0.104470 -0.592477 -0.798785
outer loop
vertex -0.002334 -0.013234 0.003919
vertex -0.002874 -0.016299 0.006263
vertex -0.080674 -0.002581 0.006263
endloop
endfacet
facet normal -0.124752 -0.707506 -0.695610
outer loop
vertex -0.080674 -0.002581 0.006263
vertex -0.002874 -0.016299 0.006263
vertex -0.081144 -0.005250 0.009062
endloop
endfacet
facet normal -0.124752 -0.707505 -0.695610
outer loop
vertex -0.080674 -0.002581 0.006263
vertex -0.081144 -0.005250 0.009062
vertex -0.158944 0.008468 0.009062
endloop
endfacet
facet normal -0.142005 -0.805350 -0.575540
outer loop
vertex -0.158944 0.008468 0.009062
vertex -0.081144 -0.005250 0.009062
vertex -0.159334 0.006260 0.012248
endloop
endfacet
facet normal -0.141631 -0.805416 -0.575540
outer loop
vertex -0.158944 0.008468 0.009062
vertex -0.159334 0.006260 0.012248
vertex -0.237095 0.020199 0.011878
endloop
endfacet
facet normal -0.154647 -0.874924 -0.458903
outer loop
vertex -0.237095 0.020199 0.011878
vertex -0.159334 0.006260 0.012248
vertex -0.237396 0.018487 0.015243
endloop
endfacet
facet normal -0.155355 -0.883714 -0.441491
outer loop
vertex -0.237396 0.018487 0.015243
vertex -0.159334 0.006260 0.012248
vertex -0.159632 0.004566 0.015744
endloop
endfacet
facet normal -0.164991 -0.933148 -0.319393
outer loop
vertex -0.237396 0.018487 0.015243
vertex -0.159632 0.004566 0.015744
vertex -0.237606 0.017295 0.018833
endloop
endfacet
facet normal -0.165302 -0.940549 -0.296719
outer loop
vertex -0.237606 0.017295 0.018833
vertex -0.159632 0.004566 0.015744
vertex -0.159833 0.003427 0.019465
endloop
endfacet
facet normal -0.171552 -0.969946 -0.172550
outer loop
vertex -0.237606 0.017295 0.018833
vertex -0.159833 0.003427 0.019465
vertex -0.237720 0.016652 0.022564
endloop
endfacet
facet normal -0.171226 -0.974542 -0.144741
outer loop
vertex -0.237720 0.016652 0.022564
vertex -0.159833 0.003427 0.019465
vertex -0.159931 0.002872 0.023320
endloop
endfacet
facet normal -0.174180 -0.984474 -0.021746
outer loop
vertex -0.237720 0.016652 0.022564
vertex -0.159931 0.002872 0.023320
vertex -0.237734 0.016570 0.026352
endloop
endfacet
facet normal -0.172983 -0.984866 0.010753
outer loop
vertex -0.237734 0.016570 0.026352
vertex -0.159931 0.002872 0.023320
vertex -0.159924 0.002913 0.027216
endloop
endfacet
facet normal -0.172817 -0.976396 0.129557
outer loop
vertex -0.237734 0.016570 0.026352
vertex -0.159924 0.002913 0.027216
vertex -0.237649 0.017054 0.030108
endloop
endfacet
facet normal -0.170529 -0.971272 0.165986
outer loop
vertex -0.237649 0.017054 0.030108
vertex -0.159924 0.002913 0.027216
vertex -0.159811 0.003550 0.031058
endloop
endfacet
facet normal -0.167493 -0.945899 0.277887
outer loop
vertex -0.237649 0.017054 0.030108
vertex -0.159811 0.003550 0.031058
vertex -0.237466 0.018090 0.033747
endloop
endfacet
facet normal -0.163921 -0.934089 0.317186
outer loop
vertex -0.237466 0.018090 0.033747
vertex -0.159811 0.003550 0.031058
vertex -0.159597 0.004767 0.034753
endloop
endfacet
facet normal -0.158334 -0.893682 0.419837
outer loop
vertex -0.237466 0.018090 0.033747
vertex -0.159597 0.004767 0.034753
vertex -0.237190 0.019657 0.037185
endloop
endfacet
facet normal -0.153320 -0.874222 0.460684
outer loop
vertex -0.237190 0.019657 0.037185
vertex -0.159597 0.004767 0.034753
vertex -0.159285 0.006535 0.038211
endloop
endfacet
facet normal -0.145551 -0.820945 0.552146
outer loop
vertex -0.237190 0.019657 0.037185
vertex -0.159285 0.006535 0.038211
vertex -0.236827 0.021717 0.040343
endloop
endfacet
facet normal -0.138981 -0.793123 0.592992
outer loop
vertex -0.236827 0.021717 0.040343
vertex -0.159285 0.006535 0.038211
vertex -0.158884 0.008810 0.041348
endloop
endfacet
facet normal -0.129437 -0.729356 0.671778
outer loop
vertex -0.236827 0.021717 0.040343
vertex -0.158884 0.008810 0.041348
vertex -0.236385 0.024223 0.043149
endloop
endfacet
facet normal -0.121251 -0.692765 0.710898
outer loop
vertex -0.236385 0.024223 0.043149
vertex -0.158884 0.008810 0.041348
vertex -0.158403 0.011538 0.044088
endloop
endfacet
facet normal -0.110365 -0.621019 0.775986
outer loop
vertex -0.207101 0.021331 0.045000
vertex -0.235990 0.026465 0.045000
vertex -0.236385 0.024223 0.043149
endloop
endfacet
facet normal -0.110365 -0.621019 0.775987
outer loop
vertex -0.207101 0.021331 0.045000
vertex -0.236385 0.024223 0.043149
vertex -0.158403 0.011538 0.044088
endloop
endfacet
facet normal -0.100562 -0.575579 0.811539
outer loop
vertex -0.207101 0.021331 0.045000
vertex -0.158403 0.011538 0.044088
vertex -0.158183 0.012784 0.045000
endloop
endfacet
facet normal 0.102363 0.575262 0.811539
outer loop
vertex -0.201906 0.050788 0.045000
vertex -0.153016 0.042088 0.045000
vertex -0.152796 0.043335 0.044088
endloop
endfacet
facet normal 0.108693 0.621315 0.775986
outer loop
vertex -0.201906 0.050788 0.045000
vertex -0.152796 0.043335 0.044088
vertex -0.230414 0.058087 0.043149
endloop
endfacet
facet normal 0.108692 0.621315 0.775985
outer loop
vertex -0.201906 0.050788 0.045000
vertex -0.230414 0.058087 0.043149
vertex -0.230809 0.055844 0.045000
endloop
endfacet
facet normal 0.123000 0.692455 0.710898
outer loop
vertex -0.230414 0.058087 0.043149
vertex -0.152796 0.043335 0.044088
vertex -0.152315 0.046063 0.041348
endloop
endfacet
facet normal 0.127823 0.729641 0.671778
outer loop
vertex -0.230414 0.058087 0.043149
vertex -0.152315 0.046063 0.041348
vertex -0.229972 0.060593 0.040343
endloop
endfacet
facet normal 0.140665 0.792827 0.592991
outer loop
vertex -0.229972 0.060593 0.040343
vertex -0.152315 0.046063 0.041348
vertex -0.151914 0.048338 0.038211
endloop
endfacet
facet normal 0.144007 0.821215 0.552148
outer loop
vertex -0.229972 0.060593 0.040343
vertex -0.151914 0.048338 0.038211
vertex -0.229609 0.062653 0.037185
endloop
endfacet
facet normal 0.154928 0.873938 0.460684
outer loop
vertex -0.229609 0.062653 0.037185
vertex -0.151914 0.048338 0.038211
vertex -0.151602 0.050106 0.034753
endloop
endfacet
facet normal 0.156872 0.893941 0.419835
outer loop
vertex -0.229609 0.062653 0.037185
vertex -0.151602 0.050106 0.034753
vertex -0.229333 0.064219 0.033747
endloop
endfacet
facet normal 0.165442 0.933822 0.317184
outer loop
vertex -0.229333 0.064219 0.033747
vertex -0.151602 0.050106 0.034753
vertex -0.151388 0.051323 0.031058
endloop
endfacet
facet normal 0.166124 0.946139 0.277891
outer loop
vertex -0.229333 0.064219 0.033747
vertex -0.151388 0.051323 0.031058
vertex -0.229150 0.065256 0.030108
endloop
endfacet
facet normal 0.171950 0.971021 0.165985
outer loop
vertex -0.229150 0.065256 0.030108
vertex -0.151388 0.051323 0.031058
vertex -0.151275 0.051960 0.027216
endloop
endfacet
facet normal 0.171553 0.976618 0.129561
outer loop
vertex -0.229150 0.065256 0.030108
vertex -0.151275 0.051960 0.027216
vertex -0.229065 0.065739 0.026352
endloop
endfacet
facet normal 0.174293 0.984635 0.010751
outer loop
vertex -0.229065 0.065739 0.026352
vertex -0.151275 0.051960 0.027216
vertex -0.151268 0.052001 0.023320
endloop
endfacet
facet normal 0.173034 0.984676 -0.021747
outer loop
vertex -0.229065 0.065739 0.026352
vertex -0.151268 0.052001 0.023320
vertex -0.229079 0.065658 0.022564
endloop
endfacet
facet normal 0.172413 0.974332 -0.144742
outer loop
vertex -0.229079 0.065658 0.022564
vertex -0.151268 0.052001 0.023320
vertex -0.151366 0.051446 0.019465
endloop
endfacet
facet normal 0.170535 0.970126 -0.172548
outer loop
vertex -0.229079 0.065658 0.022564
vertex -0.151366 0.051446 0.019465
vertex -0.229192 0.065014 0.018833
endloop
endfacet
facet normal 0.166354 0.940364 -0.296720
outer loop
vertex -0.229192 0.065014 0.018833
vertex -0.151366 0.051446 0.019465
vertex -0.151567 0.050307 0.015744
endloop
endfacet
facet normal 0.164114 0.933304 -0.319391
outer loop
vertex -0.229192 0.065014 0.018833
vertex -0.151567 0.050307 0.015744
vertex -0.229402 0.063822 0.015243
endloop
endfacet
facet normal 0.156262 0.883553 -0.441494
outer loop
vertex -0.229402 0.063822 0.015243
vertex -0.151567 0.050307 0.015744
vertex -0.151866 0.048613 0.012248
endloop
endfacet
facet normal 0.153922 0.875053 -0.458901
outer loop
vertex -0.229402 0.063822 0.015243
vertex -0.151866 0.048613 0.012248
vertex -0.229704 0.062110 0.011878
endloop
endfacet
facet normal 0.142379 0.805284 -0.575540
outer loop
vertex -0.229704 0.062110 0.011878
vertex -0.151866 0.048613 0.012248
vertex -0.152255 0.046405 0.009062
endloop
endfacet
facet normal 0.140192 0.796710 -0.587877
outer loop
vertex -0.229704 0.062110 0.011878
vertex -0.152255 0.046405 0.009062
vertex -0.230091 0.059917 0.008813
endloop
endfacet
facet normal 0.125042 0.707454 -0.695610
outer loop
vertex -0.230091 0.059917 0.008813
vertex -0.152255 0.046405 0.009062
vertex -0.152726 0.043736 0.006263
endloop
endfacet
facet normal 0.123243 0.700076 -0.703352
outer loop
vertex -0.230091 0.059917 0.008813
vertex -0.152726 0.043736 0.006263
vertex -0.230554 0.057293 0.006120
endloop
endfacet
facet normal 0.104669 0.592443 -0.798784
outer loop
vertex -0.230554 0.057293 0.006120
vertex -0.152726 0.043736 0.006263
vertex -0.153266 0.040671 0.003919
endloop
endfacet
facet normal 0.103466 0.587368 -0.802679
outer loop
vertex -0.230554 0.057293 0.006120
vertex -0.153266 0.040671 0.003919
vertex -0.231082 0.054299 0.003861
endloop
endfacet
facet normal 0.081423 0.461156 -0.883576
outer loop
vertex -0.231082 0.054299 0.003861
vertex -0.153266 0.040671 0.003919
vertex -0.231663 0.051003 0.002087
endloop
endfacet
facet normal 0.081649 0.463057 -0.882560
outer loop
vertex -0.231663 0.051003 0.002087
vertex -0.153266 0.040671 0.003919
vertex -0.075466 0.026953 0.003919
endloop
endfacet
facet normal 0.081650 0.463059 -0.882559
outer loop
vertex -0.231663 0.051003 0.002087
vertex -0.075466 0.026953 0.003919
vertex 0.002334 0.013234 0.003919
endloop
endfacet
facet normal 0.104470 0.592476 -0.798785
outer loop
vertex 0.002334 0.013234 0.003919
vertex -0.075466 0.026953 0.003919
vertex 0.002874 0.016299 0.006263
endloop
endfacet
facet normal 0.104470 0.592477 -0.798785
outer loop
vertex 0.002334 0.013234 0.003919
vertex 0.002874 0.016299 0.006263
vertex 0.080674 0.002581 0.006263
endloop
endfacet
facet normal 0.124752 0.707505 -0.695610
outer loop
vertex 0.080674 0.002581 0.006263
vertex 0.002874 0.016299 0.006263
vertex 0.081144 0.005250 0.009062
endloop
endfacet
facet normal 0.124752 0.707505 -0.695610
outer loop
vertex 0.080674 0.002581 0.006263
vertex 0.081144 0.005250 0.009062
vertex 0.158944 -0.008468 0.009062
endloop
endfacet
facet normal 0.142005 0.805350 -0.575540
outer loop
vertex 0.158944 -0.008468 0.009062
vertex 0.081144 0.005250 0.009062
vertex 0.159334 -0.006260 0.012248
endloop
endfacet
facet normal 0.141631 0.805416 -0.575540
outer loop
vertex 0.158944 -0.008468 0.009062
vertex 0.159334 -0.006260 0.012248
vertex 0.237095 -0.020199 0.011878
endloop
endfacet
facet normal 0.154647 0.874924 -0.458903
outer loop
vertex 0.237095 -0.020199 0.011878
vertex 0.159334 -0.006260 0.012248
vertex 0.237396 -0.018487 0.015243
endloop
endfacet
facet normal 0.155355 0.883714 -0.441491
outer loop
vertex 0.237396 -0.018487 0.015243
vertex 0.159334 -0.006260 0.012248
vertex 0.159632 -0.004566 0.015744
endloop
endfacet
facet normal 0.164991 0.933148 -0.319393
outer loop
vertex 0.237396 -0.018487 0.015243
vertex 0.159632 -0.004566 0.015744
vertex 0.237606 -0.017295 0.018833
endloop
endfacet
facet normal 0.165302 0.940549 -0.296719
outer loop
vertex 0.237606 -0.017295 0.018833
vertex 0.159632 -0.004566 0.015744
vertex 0.159833 -0.003427 0.019465
endloop
endfacet
facet normal 0.171552 0.969946 -0.172550
outer loop
vertex 0.237606 -0.017295 0.018833
vertex 0.159833 -0.003427 0.019465
vertex 0.237720 -0.016652 0.022564
endloop
endfacet
facet normal 0.171226 0.974542 -0.144741
outer loop
vertex 0.237720 -0.016652 0.022564
vertex 0.159833 -0.003427 0.019465
vertex 0.159931 -0.002872 0.023320
endloop
endfacet
facet normal 0.174180 0.984474 -0.021746
outer loop
vertex 0.237720 -0.016652 0.022564
vertex 0.159931 -0.002872 0.023320
vertex 0.237734 -0.016570 0.026352
endloop
endfacet
facet normal 0.172983 0.984866 0.010752
outer loop
vertex 0.237734 -0.016570 0.026352
vertex 0.159931 -0.002872 0.023320
vertex 0.159924 -0.002913 0.027216
endloop
endfacet
facet normal 0.172817 0.976396 0.129557
outer loop
vertex 0.237734 -0.016570 0.026352
vertex 0.159924 -0.002913 0.027216
vertex 0.237649 -0.017054 0.030108
endloop
endfacet
facet normal 0.170529 0.971272 0.165986
outer loop
vertex 0.237649 -0.017054 0.030108
vertex 0.159924 -0.002913 0.027216
vertex 0.159811 -0.003550 0.031058
endloop
endfacet
facet normal 0.167493 0.945899 0.277887
outer loop
vertex 0.237649 -0.017054 0.030108
vertex 0.159811 -0.003550 0.031058
vertex 0.237466 -0.018090 0.033747
endloop
endfacet
facet normal 0.163921 0.934089 0.317187
outer loop
vertex 0.237466 -0.018090 0.033747
vertex 0.159811 -0.003550 0.031058
vertex 0.159597 -0.004767 0.034753
endloop
endfacet
facet normal 0.158334 0.893682 0.419836
outer loop
vertex 0.237466 -0.018090 0.033747
vertex 0.159597 -0.004767 0.034753
vertex 0.237190 -0.019657 0.037185
endloop
endfacet
facet normal 0.153320 0.874221 0.460684
outer loop
vertex 0.237190 -0.019657 0.037185
vertex 0.159597 -0.004767 0.034753
vertex 0.159285 -0.006535 0.038211
endloop
endfacet
facet normal 0.145551 0.820945 0.552145
outer loop
vertex 0.237190 -0.019657 0.037185
vertex 0.159285 -0.006535 0.038211
vertex 0.236827 -0.021716 0.040343
endloop
endfacet
facet normal 0.138981 0.793123 0.592992
outer loop
vertex 0.236827 -0.021716 0.040343
vertex 0.159285 -0.006535 0.038211
vertex 0.158884 -0.008810 0.041348
endloop
endfacet
facet normal 0.129437 0.729356 0.671778
outer loop
vertex 0.236827 -0.021716 0.040343
vertex 0.158884 -0.008810 0.041348
vertex 0.236385 -0.024223 0.043149
endloop
endfacet
facet normal 0.121251 0.692765 0.710898
outer loop
vertex 0.236385 -0.024223 0.043149
vertex 0.158884 -0.008810 0.041348
vertex 0.158403 -0.011538 0.044088
endloop
endfacet
facet normal 0.110365 0.621019 0.775986
outer loop
vertex 0.236385 -0.024223 0.043149
vertex 0.158403 -0.011538 0.044088
vertex 0.207101 -0.021331 0.045000
endloop
endfacet
facet normal 0.110365 0.621019 0.775986
outer loop
vertex 0.236385 -0.024223 0.043149
vertex 0.207101 -0.021331 0.045000
vertex 0.235990 -0.026465 0.045000
endloop
endfacet
facet normal 0.100561 0.575579 0.811540
outer loop
vertex 0.158183 -0.012784 0.045000
vertex 0.207101 -0.021331 0.045000
vertex 0.158403 -0.011538 0.044088
endloop
endfacet
facet normal -0.102363 -0.575264 0.811538
outer loop
vertex 0.152796 -0.043335 0.044088
vertex 0.201906 -0.050788 0.045000
vertex 0.153016 -0.042088 0.045000
endloop
endfacet
facet normal -0.108692 -0.621315 0.775986
outer loop
vertex 0.152796 -0.043335 0.044088
vertex 0.230414 -0.058087 0.043149
vertex 0.230809 -0.055844 0.045000
endloop
endfacet
facet normal -0.108692 -0.621309 0.775990
outer loop
vertex 0.152796 -0.043335 0.044088
vertex 0.230809 -0.055844 0.045000
vertex 0.201906 -0.050788 0.045000
endloop
endfacet
facet normal -0.123000 -0.692455 0.710899
outer loop
vertex 0.230414 -0.058087 0.043149
vertex 0.152796 -0.043335 0.044088
vertex 0.152315 -0.046063 0.041348
endloop
endfacet
facet normal -0.127823 -0.729641 0.671778
outer loop
vertex 0.230414 -0.058087 0.043149
vertex 0.152315 -0.046063 0.041348
vertex 0.229972 -0.060593 0.040343
endloop
endfacet
facet normal -0.140665 -0.792827 0.592991
outer loop
vertex 0.229972 -0.060593 0.040343
vertex 0.152315 -0.046063 0.041348
vertex 0.151914 -0.048338 0.038211
endloop
endfacet
facet normal -0.144007 -0.821215 0.552148
outer loop
vertex 0.229972 -0.060593 0.040343
vertex 0.151914 -0.048338 0.038211
vertex 0.229609 -0.062653 0.037185
endloop
endfacet
facet normal -0.154928 -0.873938 0.460684
outer loop
vertex 0.229609 -0.062653 0.037185
vertex 0.151914 -0.048338 0.038211
vertex 0.151602 -0.050106 0.034753
endloop
endfacet
facet normal -0.156872 -0.893941 0.419835
outer loop
vertex 0.229609 -0.062653 0.037185
vertex 0.151602 -0.050106 0.034753
vertex 0.229333 -0.064219 0.033747
endloop
endfacet
facet normal -0.165442 -0.933822 0.317184
outer loop
vertex 0.229333 -0.064219 0.033747
vertex 0.151602 -0.050106 0.034753
vertex 0.151388 -0.051323 0.031058
endloop
endfacet
facet normal -0.166124 -0.946139 0.277891
outer loop
vertex 0.229333 -0.064219 0.033747
vertex 0.151388 -0.051323 0.031058
vertex 0.229150 -0.065255 0.030108
endloop
endfacet
facet normal -0.171950 -0.971021 0.165985
outer loop
vertex 0.229150 -0.065255 0.030108
vertex 0.151388 -0.051323 0.031058
vertex 0.151275 -0.051960 0.027216
endloop
endfacet
facet normal -0.171553 -0.976618 0.129561
outer loop
vertex 0.229150 -0.065255 0.030108
vertex 0.151275 -0.051960 0.027216
vertex 0.229065 -0.065739 0.026352
endloop
endfacet
facet normal -0.174293 -0.984635 0.010751
outer loop
vertex 0.229065 -0.065739 0.026352
vertex 0.151275 -0.051960 0.027216
vertex 0.151268 -0.052001 0.023320
endloop
endfacet
facet normal -0.173034 -0.984676 -0.021747
outer loop
vertex 0.229065 -0.065739 0.026352
vertex 0.151268 -0.052001 0.023320
vertex 0.229079 -0.065658 0.022564
endloop
endfacet
facet normal -0.172413 -0.974332 -0.144742
outer loop
vertex 0.229079 -0.065658 0.022564
vertex 0.151268 -0.052001 0.023320
vertex 0.151366 -0.051446 0.019465
endloop
endfacet
facet normal -0.170535 -0.970126 -0.172548
outer loop
vertex 0.229079 -0.065658 0.022564
vertex 0.151366 -0.051446 0.019465
vertex 0.229192 -0.065014 0.018833
endloop
endfacet
facet normal -0.166354 -0.940364 -0.296720
outer loop
vertex 0.229192 -0.065014 0.018833
vertex 0.151366 -0.051446 0.019465
vertex 0.151567 -0.050307 0.015744
endloop
endfacet
facet normal -0.164114 -0.933304 -0.319391
outer loop
vertex 0.229192 -0.065014 0.018833
vertex 0.151567 -0.050307 0.015744
vertex 0.229402 -0.063822 0.015243
endloop
endfacet
facet normal -0.156262 -0.883553 -0.441494
outer loop
vertex 0.229402 -0.063822 0.015243
vertex 0.151567 -0.050307 0.015744
vertex 0.151866 -0.048613 0.012248
endloop
endfacet
facet normal -0.153922 -0.875053 -0.458901
outer loop
vertex 0.229402 -0.063822 0.015243
vertex 0.151866 -0.048613 0.012248
vertex 0.229704 -0.062110 0.011878
endloop
endfacet
facet normal -0.142379 -0.805284 -0.575540
outer loop
vertex 0.229704 -0.062110 0.011878
vertex 0.151866 -0.048613 0.012248
vertex 0.152255 -0.046405 0.009062
endloop
endfacet
facet normal -0.140192 -0.796710 -0.587877
outer loop
vertex 0.229704 -0.062110 0.011878
vertex 0.152255 -0.046405 0.009062
vertex 0.230091 -0.059917 0.008813
endloop
endfacet
facet normal -0.125042 -0.707455 -0.695610
outer loop
vertex 0.230091 -0.059917 0.008813
vertex 0.152255 -0.046405 0.009062
vertex 0.152726 -0.043736 0.006263
endloop
endfacet
facet normal -0.123243 -0.700076 -0.703352
outer loop
vertex 0.230091 -0.059917 0.008813
vertex 0.152726 -0.043736 0.006263
vertex 0.230554 -0.057293 0.006120
endloop
endfacet
facet normal -0.104669 -0.592442 -0.798784
outer loop
vertex 0.230554 -0.057293 0.006120
vertex 0.152726 -0.043736 0.006263
vertex 0.153266 -0.040671 0.003919
endloop
endfacet
facet normal -0.103466 -0.587368 -0.802679
outer loop
vertex 0.230554 -0.057293 0.006120
vertex 0.153266 -0.040671 0.003919
vertex 0.231082 -0.054299 0.003861
endloop
endfacet
facet normal 0.140754 0.796611 -0.587877
outer loop
vertex 0.237095 -0.020199 0.011878
vertex 0.236708 -0.022392 0.008813
vertex 0.158944 -0.008468 0.009062
endloop
endfacet
facet normal 0.124463 0.707556 -0.695610
outer loop
vertex 0.158944 -0.008468 0.009062
vertex 0.236708 -0.022392 0.008813
vertex 0.158474 -0.011137 0.006263
endloop
endfacet
facet normal 0.124752 0.707505 -0.695610
outer loop
vertex 0.158944 -0.008468 0.009062
vertex 0.158474 -0.011137 0.006263
vertex 0.080674 0.002581 0.006263
endloop
endfacet
facet normal 0.104470 0.592477 -0.798785
outer loop
vertex 0.080674 0.002581 0.006263
vertex 0.158474 -0.011137 0.006263
vertex 0.080133 -0.000484 0.003919
endloop
endfacet
facet normal 0.104470 0.592477 -0.798785
outer loop
vertex 0.080674 0.002581 0.006263
vertex 0.080133 -0.000484 0.003919
vertex 0.002334 0.013234 0.003919
endloop
endfacet
facet normal 0.081650 0.463058 -0.882559
outer loop
vertex 0.002334 0.013234 0.003919
vertex 0.080133 -0.000484 0.003919
vertex -0.231663 0.051003 0.002087
endloop
endfacet
facet normal 0.123629 0.700008 -0.703353
outer loop
vertex 0.236708 -0.022392 0.008813
vertex 0.236245 -0.025016 0.006120
vertex 0.158474 -0.011137 0.006263
endloop
endfacet
facet normal 0.104271 0.592512 -0.798785
outer loop
vertex 0.158474 -0.011137 0.006263
vertex 0.236245 -0.025016 0.006120
vertex 0.157933 -0.014202 0.003919
endloop
endfacet
facet normal 0.104470 0.592476 -0.798785
outer loop
vertex 0.158474 -0.011137 0.006263
vertex 0.157933 -0.014202 0.003919
vertex 0.080133 -0.000484 0.003919
endloop
endfacet
facet normal 0.081649 0.463057 -0.882560
outer loop
vertex 0.080133 -0.000484 0.003919
vertex 0.157933 -0.014202 0.003919
vertex -0.231663 0.051003 0.002087
endloop
endfacet
facet normal 0.103665 0.587333 -0.802679
outer loop
vertex 0.236245 -0.025016 0.006120
vertex 0.235717 -0.028010 0.003861
vertex 0.157933 -0.014202 0.003919
endloop
endfacet
facet normal 0.082973 0.471091 -0.878174
outer loop
vertex 0.157933 -0.014202 0.003919
vertex 0.235717 -0.028010 0.003861
vertex -0.231663 0.051003 0.002087
endloop
endfacet
facet normal 0.081317 0.461174 -0.883576
outer loop
vertex 0.235717 -0.028010 0.003861
vertex 0.235136 -0.031307 0.002087
vertex -0.231663 0.051003 0.002087
endloop
endfacet
facet normal -0.140754 -0.796611 -0.587877
outer loop
vertex -0.237095 0.020199 0.011878
vertex -0.236708 0.022392 0.008813
vertex -0.158944 0.008468 0.009062
endloop
endfacet
facet normal -0.124463 -0.707556 -0.695610
outer loop
vertex -0.158944 0.008468 0.009062
vertex -0.236708 0.022392 0.008813
vertex -0.158474 0.011137 0.006263
endloop
endfacet
facet normal -0.124752 -0.707505 -0.695610
outer loop
vertex -0.158944 0.008468 0.009062
vertex -0.158474 0.011137 0.006263
vertex -0.080674 -0.002581 0.006263
endloop
endfacet
facet normal -0.104470 -0.592477 -0.798785
outer loop
vertex -0.080674 -0.002581 0.006263
vertex -0.158474 0.011137 0.006263
vertex -0.080133 0.000484 0.003919
endloop
endfacet
facet normal -0.104470 -0.592477 -0.798785
outer loop
vertex -0.080674 -0.002581 0.006263
vertex -0.080133 0.000484 0.003919
vertex -0.002334 -0.013234 0.003919
endloop
endfacet
facet normal -0.081650 -0.463059 -0.882559
outer loop
vertex -0.002334 -0.013234 0.003919
vertex -0.080133 0.000484 0.003919
vertex 0.231663 -0.051003 0.002087
endloop
endfacet
facet normal -0.123629 -0.700008 -0.703352
outer loop
vertex -0.236708 0.022392 0.008813
vertex -0.236245 0.025016 0.006120
vertex -0.158474 0.011137 0.006263
endloop
endfacet
facet normal -0.104271 -0.592511 -0.798785
outer loop
vertex -0.158474 0.011137 0.006263
vertex -0.236245 0.025016 0.006120
vertex -0.157933 0.014202 0.003919
endloop
endfacet
facet normal -0.104470 -0.592476 -0.798785
outer loop
vertex -0.158474 0.011137 0.006263
vertex -0.157933 0.014202 0.003919
vertex -0.080133 0.000484 0.003919
endloop
endfacet
facet normal -0.081649 -0.463057 -0.882560
outer loop
vertex -0.080133 0.000484 0.003919
vertex -0.157933 0.014202 0.003919
vertex 0.231663 -0.051003 0.002087
endloop
endfacet
facet normal -0.103665 -0.587333 -0.802679
outer loop
vertex -0.236245 0.025016 0.006120
vertex -0.235717 0.028010 0.003861
vertex -0.157933 0.014202 0.003919
endloop
endfacet
facet normal -0.082974 -0.471094 -0.878172
outer loop
vertex -0.157933 0.014202 0.003919
vertex -0.235717 0.028010 0.003861
vertex 0.231663 -0.051003 0.002087
endloop
endfacet
facet normal -0.081317 -0.461174 -0.883576
outer loop
vertex -0.235717 0.028010 0.003861
vertex -0.235136 0.031307 0.002087
vertex 0.231663 -0.051003 0.002087
endloop
endfacet
facet normal -0.104470 -0.592476 -0.798785
outer loop
vertex 0.075466 -0.026953 0.003919
vertex 0.153266 -0.040671 0.003919
vertex 0.074926 -0.030018 0.006263
endloop
endfacet
facet normal -0.104470 -0.592476 -0.798786
outer loop
vertex 0.074926 -0.030018 0.006263
vertex 0.153266 -0.040671 0.003919
vertex 0.152726 -0.043736 0.006263
endloop
endfacet
facet normal -0.124752 -0.707506 -0.695610
outer loop
vertex 0.074926 -0.030018 0.006263
vertex 0.152726 -0.043736 0.006263
vertex 0.074455 -0.032687 0.009062
endloop
endfacet
facet normal -0.124752 -0.707506 -0.695610
outer loop
vertex 0.074455 -0.032687 0.009062
vertex 0.152726 -0.043736 0.006263
vertex 0.152255 -0.046405 0.009062
endloop
endfacet
facet normal -0.142005 -0.805349 -0.575542
outer loop
vertex 0.074455 -0.032687 0.009062
vertex 0.152255 -0.046405 0.009062
vertex 0.074066 -0.034895 0.012248
endloop
endfacet
facet normal -0.142005 -0.805350 -0.575540
outer loop
vertex 0.074066 -0.034895 0.012248
vertex 0.152255 -0.046405 0.009062
vertex 0.151866 -0.048613 0.012248
endloop
endfacet
facet normal -0.155809 -0.883635 -0.441490
outer loop
vertex 0.074066 -0.034895 0.012248
vertex 0.151866 -0.048613 0.012248
vertex 0.073767 -0.036589 0.015744
endloop
endfacet
facet normal -0.155809 -0.883634 -0.441492
outer loop
vertex 0.073767 -0.036589 0.015744
vertex 0.151866 -0.048613 0.012248
vertex 0.151567 -0.050307 0.015744
endloop
endfacet
facet normal -0.165828 -0.940457 -0.296720
outer loop
vertex 0.073767 -0.036589 0.015744
vertex 0.151567 -0.050307 0.015744
vertex 0.073566 -0.037727 0.019465
endloop
endfacet
facet normal -0.165828 -0.940457 -0.296718
outer loop
vertex 0.073566 -0.037727 0.019465
vertex 0.151567 -0.050307 0.015744
vertex 0.151366 -0.051446 0.019465
endloop
endfacet
facet normal -0.171820 -0.974437 -0.144742
outer loop
vertex 0.073566 -0.037727 0.019465
vertex 0.151366 -0.051446 0.019465
vertex 0.073468 -0.038283 0.023320
endloop
endfacet
facet normal -0.171820 -0.974437 -0.144741
outer loop
vertex 0.073468 -0.038283 0.023320
vertex 0.151366 -0.051446 0.019465
vertex 0.151268 -0.052001 0.023320
endloop
endfacet
facet normal -0.173638 -0.984751 0.010755
outer loop
vertex 0.073468 -0.038283 0.023320
vertex 0.151268 -0.052001 0.023320
vertex 0.073476 -0.038241 0.027216
endloop
endfacet
facet normal -0.173638 -0.984751 0.010751
outer loop
vertex 0.073476 -0.038241 0.027216
vertex 0.151268 -0.052001 0.023320
vertex 0.151275 -0.051960 0.027216
endloop
endfacet
facet normal -0.171239 -0.971147 0.165987
outer loop
vertex 0.073476 -0.038241 0.027216
vertex 0.151275 -0.051960 0.027216
vertex 0.073588 -0.037605 0.031058
endloop
endfacet
facet normal -0.171239 -0.971147 0.165985
outer loop
vertex 0.073588 -0.037605 0.031058
vertex 0.151275 -0.051960 0.027216
vertex 0.151388 -0.051323 0.031058
endloop
endfacet
facet normal -0.164682 -0.933955 0.317188
outer loop
vertex 0.073588 -0.037605 0.031058
vertex 0.151388 -0.051323 0.031058
vertex 0.073803 -0.036388 0.034753
endloop
endfacet
facet normal -0.164681 -0.933956 0.317186
outer loop
vertex 0.073803 -0.036388 0.034753
vertex 0.151388 -0.051323 0.031058
vertex 0.151602 -0.050106 0.034753
endloop
endfacet
facet normal -0.154124 -0.874080 0.460685
outer loop
vertex 0.073803 -0.036388 0.034753
vertex 0.151602 -0.050106 0.034753
vertex 0.074114 -0.034620 0.038211
endloop
endfacet
facet normal -0.154124 -0.874080 0.460685
outer loop
vertex 0.074114 -0.034620 0.038211
vertex 0.151602 -0.050106 0.034753
vertex 0.151914 -0.048338 0.038211
endloop
endfacet
facet normal -0.139823 -0.792975 0.592993
outer loop
vertex 0.074114 -0.034620 0.038211
vertex 0.151914 -0.048338 0.038211
vertex 0.074515 -0.032345 0.041348
endloop
endfacet
facet normal -0.139823 -0.792976 0.592992
outer loop
vertex 0.074515 -0.032345 0.041348
vertex 0.151914 -0.048338 0.038211
vertex 0.152315 -0.046063 0.041348
endloop
endfacet
facet normal -0.122126 -0.692610 0.710899
outer loop
vertex 0.074515 -0.032345 0.041348
vertex 0.152315 -0.046063 0.041348
vertex 0.074996 -0.029617 0.044088
endloop
endfacet
facet normal -0.122126 -0.692611 0.710898
outer loop
vertex 0.074996 -0.029617 0.044088
vertex 0.152315 -0.046063 0.041348
vertex 0.152796 -0.043335 0.044088
endloop
endfacet
facet normal -0.101462 -0.575422 0.811539
outer loop
vertex 0.121865 -0.036596 0.045000
vertex 0.075216 -0.028370 0.045000
vertex 0.074996 -0.029617 0.044088
endloop
endfacet
facet normal -0.101463 -0.575422 0.811539
outer loop
vertex 0.121865 -0.036596 0.045000
vertex 0.074996 -0.029617 0.044088
vertex 0.152796 -0.043335 0.044088
endloop
endfacet
facet normal -0.101462 -0.575422 0.811539
outer loop
vertex 0.152796 -0.043335 0.044088
vertex 0.153016 -0.042088 0.045000
vertex 0.121865 -0.036596 0.045000
endloop
endfacet
facet normal 0.101462 0.575421 0.811539
outer loop
vertex 0.080383 0.000934 0.045000
vertex 0.111534 -0.004559 0.045000
vertex 0.080603 0.002181 0.044088
endloop
endfacet
facet normal 0.101462 0.575421 0.811539
outer loop
vertex 0.158403 -0.011538 0.044088
vertex 0.080603 0.002181 0.044088
vertex 0.111534 -0.004559 0.045000
endloop
endfacet
facet normal 0.101463 0.575421 0.811539
outer loop
vertex 0.158403 -0.011538 0.044088
vertex 0.111534 -0.004559 0.045000
vertex 0.158183 -0.012784 0.045000
endloop
endfacet
facet normal 0.122126 0.692611 0.710898
outer loop
vertex 0.080603 0.002181 0.044088
vertex 0.158403 -0.011538 0.044088
vertex 0.081084 0.004908 0.041348
endloop
endfacet
facet normal 0.122126 0.692611 0.710898
outer loop
vertex 0.081084 0.004908 0.041348
vertex 0.158403 -0.011538 0.044088
vertex 0.158884 -0.008810 0.041348
endloop
endfacet
facet normal 0.139823 0.792975 0.592992
outer loop
vertex 0.081084 0.004908 0.041348
vertex 0.158884 -0.008810 0.041348
vertex 0.081485 0.007184 0.038211
endloop
endfacet
facet normal 0.139823 0.792975 0.592992
outer loop
vertex 0.081485 0.007184 0.038211
vertex 0.158884 -0.008810 0.041348
vertex 0.159285 -0.006535 0.038211
endloop
endfacet
facet normal 0.154124 0.874080 0.460684
outer loop
vertex 0.081485 0.007184 0.038211
vertex 0.159285 -0.006535 0.038211
vertex 0.081797 0.008951 0.034753
endloop
endfacet
facet normal 0.154124 0.874080 0.460684
outer loop
vertex 0.081797 0.008951 0.034753
vertex 0.159285 -0.006535 0.038211
vertex 0.159597 -0.004767 0.034753
endloop
endfacet
facet normal 0.164681 0.933955 0.317187
outer loop
vertex 0.081797 0.008951 0.034753
vertex 0.159597 -0.004767 0.034753
vertex 0.082012 0.010168 0.031058
endloop
endfacet
facet normal 0.164682 0.933955 0.317187
outer loop
vertex 0.082012 0.010168 0.031058
vertex 0.159597 -0.004767 0.034753
vertex 0.159811 -0.003550 0.031058
endloop
endfacet
facet normal 0.171240 0.971147 0.165986
outer loop
vertex 0.082012 0.010168 0.031058
vertex 0.159811 -0.003550 0.031058
vertex 0.082124 0.010805 0.027216
endloop
endfacet
facet normal 0.171239 0.971147 0.165986
outer loop
vertex 0.082124 0.010805 0.027216
vertex 0.159811 -0.003550 0.031058
vertex 0.159924 -0.002913 0.027216
endloop
endfacet
facet normal 0.173638 0.984751 0.010753
outer loop
vertex 0.082124 0.010805 0.027216
vertex 0.159924 -0.002913 0.027216
vertex 0.082131 0.010846 0.023320
endloop
endfacet
facet normal 0.173638 0.984751 0.010753
outer loop
vertex 0.082131 0.010846 0.023320
vertex 0.159924 -0.002913 0.027216
vertex 0.159931 -0.002872 0.023320
endloop
endfacet
facet normal 0.171820 0.974437 -0.144741
outer loop
vertex 0.082131 0.010846 0.023320
vertex 0.159931 -0.002872 0.023320
vertex 0.082033 0.010291 0.019465
endloop
endfacet
facet normal 0.171820 0.974437 -0.144741
outer loop
vertex 0.082033 0.010291 0.019465
vertex 0.159931 -0.002872 0.023320
vertex 0.159833 -0.003427 0.019465
endloop
endfacet
facet normal 0.165828 0.940457 -0.296719
outer loop
vertex 0.082033 0.010291 0.019465
vertex 0.159833 -0.003427 0.019465
vertex 0.081833 0.009152 0.015744
endloop
endfacet
facet normal 0.165828 0.940457 -0.296719
outer loop
vertex 0.081833 0.009152 0.015744
vertex 0.159833 -0.003427 0.019465
vertex 0.159632 -0.004566 0.015744
endloop
endfacet
facet normal 0.155809 0.883634 -0.441491
outer loop
vertex 0.081833 0.009152 0.015744
vertex 0.159632 -0.004566 0.015744
vertex 0.081534 0.007458 0.012248
endloop
endfacet
facet normal 0.155809 0.883634 -0.441491
outer loop
vertex 0.081534 0.007458 0.012248
vertex 0.159632 -0.004566 0.015744
vertex 0.159334 -0.006260 0.012248
endloop
endfacet
facet normal 0.142005 0.805350 -0.575540
outer loop
vertex 0.081534 0.007458 0.012248
vertex 0.159334 -0.006260 0.012248
vertex 0.081144 0.005250 0.009062
endloop
endfacet
facet normal -0.104470 -0.592477 -0.798785
outer loop
vertex 0.075466 -0.026953 0.003919
vertex 0.074926 -0.030018 0.006263
vertex -0.002874 -0.016299 0.006263
endloop
endfacet
facet normal -0.124752 -0.707506 -0.695609
outer loop
vertex -0.002874 -0.016299 0.006263
vertex 0.074926 -0.030018 0.006263
vertex -0.003345 -0.018968 0.009062
endloop
endfacet
facet normal -0.124752 -0.707505 -0.695610
outer loop
vertex -0.002874 -0.016299 0.006263
vertex -0.003345 -0.018968 0.009062
vertex -0.081144 -0.005250 0.009062
endloop
endfacet
facet normal -0.142005 -0.805350 -0.575540
outer loop
vertex -0.081144 -0.005250 0.009062
vertex -0.003345 -0.018968 0.009062
vertex -0.081534 -0.007458 0.012248
endloop
endfacet
facet normal -0.142005 -0.805350 -0.575540
outer loop
vertex -0.081144 -0.005250 0.009062
vertex -0.081534 -0.007458 0.012248
vertex -0.159334 0.006260 0.012248
endloop
endfacet
facet normal -0.155809 -0.883634 -0.441491
outer loop
vertex -0.159334 0.006260 0.012248
vertex -0.081534 -0.007458 0.012248
vertex -0.159632 0.004566 0.015744
endloop
endfacet
facet normal -0.124752 -0.707506 -0.695609
outer loop
vertex -0.003345 -0.018968 0.009062
vertex 0.074926 -0.030018 0.006263
vertex 0.074455 -0.032687 0.009062
endloop
endfacet
facet normal -0.142005 -0.805349 -0.575541
outer loop
vertex -0.003345 -0.018968 0.009062
vertex 0.074455 -0.032687 0.009062
vertex -0.003734 -0.021177 0.012248
endloop
endfacet
facet normal -0.142005 -0.805350 -0.575540
outer loop
vertex -0.003734 -0.021177 0.012248
vertex 0.074455 -0.032687 0.009062
vertex 0.074066 -0.034895 0.012248
endloop
endfacet
facet normal -0.155809 -0.883634 -0.441491
outer loop
vertex -0.003734 -0.021177 0.012248
vertex 0.074066 -0.034895 0.012248
vertex -0.004033 -0.022871 0.015744
endloop
endfacet
facet normal -0.155809 -0.883634 -0.441492
outer loop
vertex -0.004033 -0.022871 0.015744
vertex 0.074066 -0.034895 0.012248
vertex 0.073767 -0.036589 0.015744
endloop
endfacet
facet normal -0.165828 -0.940457 -0.296720
outer loop
vertex -0.004033 -0.022871 0.015744
vertex 0.073767 -0.036589 0.015744
vertex -0.004233 -0.024009 0.019465
endloop
endfacet
facet normal -0.165828 -0.940457 -0.296718
outer loop
vertex -0.004233 -0.024009 0.019465
vertex 0.073767 -0.036589 0.015744
vertex 0.073566 -0.037727 0.019465
endloop
endfacet
facet normal -0.171820 -0.974437 -0.144742
outer loop
vertex -0.004233 -0.024009 0.019465
vertex 0.073566 -0.037727 0.019465
vertex -0.004331 -0.024565 0.023320
endloop
endfacet
facet normal -0.171820 -0.974438 -0.144740
outer loop
vertex -0.004331 -0.024565 0.023320
vertex 0.073566 -0.037727 0.019465
vertex 0.073468 -0.038283 0.023320
endloop
endfacet
facet normal -0.173638 -0.984751 0.010752
outer loop
vertex -0.004331 -0.024565 0.023320
vertex 0.073468 -0.038283 0.023320
vertex -0.004324 -0.024523 0.027216
endloop
endfacet
facet normal -0.173638 -0.984751 0.010754
outer loop
vertex -0.004324 -0.024523 0.027216
vertex 0.073468 -0.038283 0.023320
vertex 0.073476 -0.038241 0.027216
endloop
endfacet
facet normal -0.171239 -0.971147 0.165984
outer loop
vertex -0.004324 -0.024523 0.027216
vertex 0.073476 -0.038241 0.027216
vertex -0.004212 -0.023886 0.031058
endloop
endfacet
facet normal -0.171239 -0.971147 0.165984
outer loop
vertex -0.004212 -0.023886 0.031058
vertex 0.073476 -0.038241 0.027216
vertex 0.073588 -0.037605 0.031058
endloop
endfacet
facet normal -0.164682 -0.933955 0.317188
outer loop
vertex -0.004212 -0.023886 0.031058
vertex 0.073588 -0.037605 0.031058
vertex -0.003997 -0.022669 0.034753
endloop
endfacet
facet normal -0.164681 -0.933956 0.317186
outer loop
vertex -0.003997 -0.022669 0.034753
vertex 0.073588 -0.037605 0.031058
vertex 0.073803 -0.036388 0.034753
endloop
endfacet
facet normal -0.154124 -0.874080 0.460685
outer loop
vertex -0.003997 -0.022669 0.034753
vertex 0.073803 -0.036388 0.034753
vertex -0.003686 -0.020902 0.038211
endloop
endfacet
facet normal -0.154124 -0.874079 0.460685
outer loop
vertex -0.003686 -0.020902 0.038211
vertex 0.073803 -0.036388 0.034753
vertex 0.074114 -0.034620 0.038211
endloop
endfacet
facet normal -0.139823 -0.792975 0.592992
outer loop
vertex -0.003686 -0.020902 0.038211
vertex 0.074114 -0.034620 0.038211
vertex -0.003284 -0.018626 0.041348
endloop
endfacet
facet normal -0.139823 -0.792976 0.592991
outer loop
vertex -0.003284 -0.018626 0.041348
vertex 0.074114 -0.034620 0.038211
vertex 0.074515 -0.032345 0.041348
endloop
endfacet
facet normal -0.122126 -0.692610 0.710898
outer loop
vertex -0.003284 -0.018626 0.041348
vertex 0.074515 -0.032345 0.041348
vertex -0.002803 -0.015899 0.044088
endloop
endfacet
facet normal -0.122126 -0.692610 0.710898
outer loop
vertex -0.002803 -0.015899 0.044088
vertex 0.074515 -0.032345 0.041348
vertex 0.074996 -0.029617 0.044088
endloop
endfacet
facet normal -0.101462 -0.575421 0.811539
outer loop
vertex 0.044066 -0.022877 0.045000
vertex -0.002584 -0.014652 0.045000
vertex -0.002803 -0.015899 0.044088
endloop
endfacet
facet normal -0.101462 -0.575422 0.811539
outer loop
vertex 0.044066 -0.022877 0.045000
vertex -0.002803 -0.015899 0.044088
vertex 0.074996 -0.029617 0.044088
endloop
endfacet
facet normal -0.101462 -0.575422 0.811538
outer loop
vertex 0.074996 -0.029617 0.044088
vertex 0.075216 -0.028370 0.045000
vertex 0.044066 -0.022877 0.045000
endloop
endfacet
facet normal 0.101463 0.575421 0.811539
outer loop
vertex 0.002803 0.015899 0.044088
vertex 0.002584 0.014652 0.045000
vertex 0.033734 0.009159 0.045000
endloop
endfacet
facet normal 0.101462 0.575421 0.811539
outer loop
vertex 0.080603 0.002181 0.044088
vertex 0.002803 0.015899 0.044088
vertex 0.033734 0.009159 0.045000
endloop
endfacet
facet normal 0.101462 0.575421 0.811539
outer loop
vertex 0.080603 0.002181 0.044088
vertex 0.033734 0.009159 0.045000
vertex 0.080383 0.000934 0.045000
endloop
endfacet
facet normal 0.122126 0.692611 0.710898
outer loop
vertex 0.002803 0.015899 0.044088
vertex 0.080603 0.002181 0.044088
vertex 0.003284 0.018626 0.041348
endloop
endfacet
facet normal 0.122126 0.692611 0.710898
outer loop
vertex 0.003284 0.018626 0.041348
vertex 0.080603 0.002181 0.044088
vertex 0.081084 0.004908 0.041348
endloop
endfacet
facet normal 0.139823 0.792975 0.592993
outer loop
vertex 0.003284 0.018626 0.041348
vertex 0.081084 0.004908 0.041348
vertex 0.003686 0.020902 0.038211
endloop
endfacet
facet normal 0.139823 0.792976 0.592992
outer loop
vertex 0.003686 0.020902 0.038211
vertex 0.081084 0.004908 0.041348
vertex 0.081485 0.007184 0.038211
endloop
endfacet
facet normal 0.154124 0.874080 0.460685
outer loop
vertex 0.003686 0.020902 0.038211
vertex 0.081485 0.007184 0.038211
vertex 0.003997 0.022669 0.034753
endloop
endfacet
facet normal 0.154124 0.874080 0.460685
outer loop
vertex 0.003997 0.022669 0.034753
vertex 0.081485 0.007184 0.038211
vertex 0.081797 0.008951 0.034753
endloop
endfacet
facet normal 0.164681 0.933955 0.317187
outer loop
vertex 0.003997 0.022669 0.034753
vertex 0.081797 0.008951 0.034753
vertex 0.004212 0.023886 0.031058
endloop
endfacet
facet normal 0.164682 0.933955 0.317187
outer loop
vertex 0.004212 0.023886 0.031058
vertex 0.081797 0.008951 0.034753
vertex 0.082012 0.010168 0.031058
endloop
endfacet
facet normal 0.171239 0.971146 0.165987
outer loop
vertex 0.004212 0.023886 0.031058
vertex 0.082012 0.010168 0.031058
vertex 0.004324 0.024523 0.027216
endloop
endfacet
facet normal 0.171239 0.971147 0.165985
outer loop
vertex 0.004324 0.024523 0.027216
vertex 0.082012 0.010168 0.031058
vertex 0.082124 0.010805 0.027216
endloop
endfacet
facet normal 0.173638 0.984751 0.010753
outer loop
vertex 0.004324 0.024523 0.027216
vertex 0.082124 0.010805 0.027216
vertex 0.004331 0.024565 0.023320
endloop
endfacet
facet normal 0.173638 0.984751 0.010753
outer loop
vertex 0.004331 0.024565 0.023320
vertex 0.082124 0.010805 0.027216
vertex 0.082131 0.010846 0.023320
endloop
endfacet
facet normal 0.171820 0.974437 -0.144741
outer loop
vertex 0.004331 0.024565 0.023320
vertex 0.082131 0.010846 0.023320
vertex 0.004233 0.024009 0.019465
endloop
endfacet
facet normal 0.171819 0.974437 -0.144741
outer loop
vertex 0.004233 0.024009 0.019465
vertex 0.082131 0.010846 0.023320
vertex 0.082033 0.010291 0.019465
endloop
endfacet
facet normal 0.165828 0.940457 -0.296719
outer loop
vertex 0.004233 0.024009 0.019465
vertex 0.082033 0.010291 0.019465
vertex 0.004033 0.022871 0.015744
endloop
endfacet
facet normal 0.165828 0.940457 -0.296720
outer loop
vertex 0.004033 0.022871 0.015744
vertex 0.082033 0.010291 0.019465
vertex 0.081833 0.009152 0.015744
endloop
endfacet
facet normal 0.155809 0.883634 -0.441491
outer loop
vertex 0.004033 0.022871 0.015744
vertex 0.081833 0.009152 0.015744
vertex 0.003734 0.021177 0.012248
endloop
endfacet
facet normal 0.155809 0.883634 -0.441492
outer loop
vertex 0.003734 0.021177 0.012248
vertex 0.081833 0.009152 0.015744
vertex 0.081534 0.007458 0.012248
endloop
endfacet
facet normal 0.142005 0.805350 -0.575540
outer loop
vertex 0.003734 0.021177 0.012248
vertex 0.081534 0.007458 0.012248
vertex 0.003345 0.018968 0.009062
endloop
endfacet
facet normal 0.142005 0.805350 -0.575540
outer loop
vertex 0.003345 0.018968 0.009062
vertex 0.081534 0.007458 0.012248
vertex 0.081144 0.005250 0.009062
endloop
endfacet
facet normal 0.124752 0.707505 -0.695610
outer loop
vertex 0.003345 0.018968 0.009062
vertex 0.081144 0.005250 0.009062
vertex 0.002874 0.016299 0.006263
endloop
endfacet
facet normal -0.142005 -0.805350 -0.575540
outer loop
vertex -0.003345 -0.018968 0.009062
vertex -0.003734 -0.021177 0.012248
vertex -0.081534 -0.007458 0.012248
endloop
endfacet
facet normal -0.155809 -0.883634 -0.441492
outer loop
vertex -0.081534 -0.007458 0.012248
vertex -0.003734 -0.021177 0.012248
vertex -0.081833 -0.009152 0.015744
endloop
endfacet
facet normal -0.155809 -0.883634 -0.441491
outer loop
vertex -0.081534 -0.007458 0.012248
vertex -0.081833 -0.009152 0.015744
vertex -0.159632 0.004566 0.015744
endloop
endfacet
facet normal -0.165828 -0.940457 -0.296719
outer loop
vertex -0.159632 0.004566 0.015744
vertex -0.081833 -0.009152 0.015744
vertex -0.159833 0.003427 0.019465
endloop
endfacet
facet normal -0.155809 -0.883634 -0.441491
outer loop
vertex -0.081833 -0.009152 0.015744
vertex -0.003734 -0.021177 0.012248
vertex -0.004033 -0.022871 0.015744
endloop
endfacet
facet normal -0.165828 -0.940457 -0.296720
outer loop
vertex -0.081833 -0.009152 0.015744
vertex -0.004033 -0.022871 0.015744
vertex -0.082033 -0.010291 0.019465
endloop
endfacet
facet normal -0.165828 -0.940457 -0.296719
outer loop
vertex -0.082033 -0.010291 0.019465
vertex -0.004033 -0.022871 0.015744
vertex -0.004233 -0.024009 0.019465
endloop
endfacet
facet normal -0.171819 -0.974437 -0.144741
outer loop
vertex -0.082033 -0.010291 0.019465
vertex -0.004233 -0.024009 0.019465
vertex -0.082131 -0.010846 0.023320
endloop
endfacet
facet normal -0.171820 -0.974437 -0.144741
outer loop
vertex -0.082131 -0.010846 0.023320
vertex -0.004233 -0.024009 0.019465
vertex -0.004331 -0.024565 0.023320
endloop
endfacet
facet normal -0.173638 -0.984751 0.010753
outer loop
vertex -0.082131 -0.010846 0.023320
vertex -0.004331 -0.024565 0.023320
vertex -0.082124 -0.010805 0.027216
endloop
endfacet
facet normal -0.173638 -0.984751 0.010752
outer loop
vertex -0.082124 -0.010805 0.027216
vertex -0.004331 -0.024565 0.023320
vertex -0.004324 -0.024523 0.027216
endloop
endfacet
facet normal -0.171239 -0.971147 0.165986
outer loop
vertex -0.082124 -0.010805 0.027216
vertex -0.004324 -0.024523 0.027216
vertex -0.082012 -0.010168 0.031058
endloop
endfacet
facet normal -0.171239 -0.971146 0.165987
outer loop
vertex -0.082012 -0.010168 0.031058
vertex -0.004324 -0.024523 0.027216
vertex -0.004212 -0.023886 0.031058
endloop
endfacet
facet normal -0.164682 -0.933955 0.317187
outer loop
vertex -0.082012 -0.010168 0.031058
vertex -0.004212 -0.023886 0.031058
vertex -0.081797 -0.008951 0.034753
endloop
endfacet
facet normal -0.164681 -0.933955 0.317187
outer loop
vertex -0.081797 -0.008951 0.034753
vertex -0.004212 -0.023886 0.031058
vertex -0.003997 -0.022669 0.034753
endloop
endfacet
facet normal -0.154124 -0.874080 0.460684
outer loop
vertex -0.081797 -0.008951 0.034753
vertex -0.003997 -0.022669 0.034753
vertex -0.081485 -0.007184 0.038211
endloop
endfacet
facet normal -0.154124 -0.874079 0.460685
outer loop
vertex -0.081485 -0.007184 0.038211
vertex -0.003997 -0.022669 0.034753
vertex -0.003686 -0.020902 0.038211
endloop
endfacet
facet normal -0.139823 -0.792975 0.592992
outer loop
vertex -0.081485 -0.007184 0.038211
vertex -0.003686 -0.020902 0.038211
vertex -0.081084 -0.004908 0.041348
endloop
endfacet
facet normal -0.139823 -0.792975 0.592993
outer loop
vertex -0.081084 -0.004908 0.041348
vertex -0.003686 -0.020902 0.038211
vertex -0.003284 -0.018626 0.041348
endloop
endfacet
facet normal -0.122126 -0.692611 0.710898
outer loop
vertex -0.081084 -0.004908 0.041348
vertex -0.003284 -0.018626 0.041348
vertex -0.080603 -0.002181 0.044088
endloop
endfacet
facet normal -0.122126 -0.692611 0.710898
outer loop
vertex -0.080603 -0.002181 0.044088
vertex -0.003284 -0.018626 0.041348
vertex -0.002803 -0.015899 0.044088
endloop
endfacet
facet normal -0.101462 -0.575421 0.811539
outer loop
vertex -0.033734 -0.009159 0.045000
vertex -0.080383 -0.000934 0.045000
vertex -0.080603 -0.002181 0.044088
endloop
endfacet
facet normal -0.101462 -0.575421 0.811539
outer loop
vertex -0.033734 -0.009159 0.045000
vertex -0.080603 -0.002181 0.044088
vertex -0.002803 -0.015899 0.044088
endloop
endfacet
facet normal -0.101463 -0.575421 0.811539
outer loop
vertex -0.002803 -0.015899 0.044088
vertex -0.002584 -0.014652 0.045000
vertex -0.033734 -0.009159 0.045000
endloop
endfacet
facet normal 0.101462 0.575422 0.811538
outer loop
vertex -0.075216 0.028370 0.045000
vertex -0.044066 0.022878 0.045000
vertex -0.074996 0.029617 0.044088
endloop
endfacet
facet normal 0.101463 0.575423 0.811538
outer loop
vertex 0.002803 0.015899 0.044088
vertex -0.074996 0.029617 0.044088
vertex -0.044066 0.022878 0.045000
endloop
endfacet
facet normal 0.101462 0.575421 0.811539
outer loop
vertex 0.002803 0.015899 0.044088
vertex -0.044066 0.022878 0.045000
vertex 0.002584 0.014652 0.045000
endloop
endfacet
facet normal 0.122125 0.692610 0.710899
outer loop
vertex -0.074996 0.029617 0.044088
vertex 0.002803 0.015899 0.044088
vertex -0.074515 0.032345 0.041348
endloop
endfacet
facet normal 0.122126 0.692610 0.710898
outer loop
vertex -0.074515 0.032345 0.041348
vertex 0.002803 0.015899 0.044088
vertex 0.003284 0.018626 0.041348
endloop
endfacet
facet normal 0.139823 0.792976 0.592992
outer loop
vertex -0.074515 0.032345 0.041348
vertex 0.003284 0.018626 0.041348
vertex -0.074114 0.034620 0.038211
endloop
endfacet
facet normal 0.139823 0.792975 0.592992
outer loop
vertex -0.074114 0.034620 0.038211
vertex 0.003284 0.018626 0.041348
vertex 0.003686 0.020902 0.038211
endloop
endfacet
facet normal 0.154124 0.874080 0.460685
outer loop
vertex -0.074114 0.034620 0.038211
vertex 0.003686 0.020902 0.038211
vertex -0.073803 0.036388 0.034753
endloop
endfacet
facet normal 0.154124 0.874080 0.460684
outer loop
vertex -0.073803 0.036388 0.034753
vertex 0.003686 0.020902 0.038211
vertex 0.003997 0.022669 0.034753
endloop
endfacet
facet normal 0.164681 0.933956 0.317186
outer loop
vertex -0.073803 0.036388 0.034753
vertex 0.003997 0.022669 0.034753
vertex -0.073588 0.037605 0.031058
endloop
endfacet
facet normal 0.164682 0.933955 0.317188
outer loop
vertex -0.073588 0.037605 0.031058
vertex 0.003997 0.022669 0.034753
vertex 0.004212 0.023886 0.031058
endloop
endfacet
facet normal 0.171240 0.971147 0.165984
outer loop
vertex -0.073588 0.037605 0.031058
vertex 0.004212 0.023886 0.031058
vertex -0.073476 0.038242 0.027216
endloop
endfacet
facet normal 0.171239 0.971147 0.165984
outer loop
vertex -0.073476 0.038242 0.027216
vertex 0.004212 0.023886 0.031058
vertex 0.004324 0.024523 0.027216
endloop
endfacet
facet normal 0.173638 0.984751 0.010754
outer loop
vertex -0.073476 0.038242 0.027216
vertex 0.004324 0.024523 0.027216
vertex -0.073468 0.038283 0.023320
endloop
endfacet
facet normal 0.173638 0.984751 0.010752
outer loop
vertex -0.073468 0.038283 0.023320
vertex 0.004324 0.024523 0.027216
vertex 0.004331 0.024565 0.023320
endloop
endfacet
facet normal 0.171820 0.974438 -0.144740
outer loop
vertex -0.073468 0.038283 0.023320
vertex 0.004331 0.024565 0.023320
vertex -0.073566 0.037727 0.019465
endloop
endfacet
facet normal 0.171820 0.974437 -0.144743
outer loop
vertex -0.073566 0.037727 0.019465
vertex 0.004331 0.024565 0.023320
vertex 0.004233 0.024009 0.019465
endloop
endfacet
facet normal 0.165828 0.940457 -0.296718
outer loop
vertex -0.073566 0.037727 0.019465
vertex 0.004233 0.024009 0.019465
vertex -0.073767 0.036589 0.015744
endloop
endfacet
facet normal 0.165828 0.940457 -0.296720
outer loop
vertex -0.073767 0.036589 0.015744
vertex 0.004233 0.024009 0.019465
vertex 0.004033 0.022871 0.015744
endloop
endfacet
facet normal 0.155809 0.883634 -0.441492
outer loop
vertex -0.073767 0.036589 0.015744
vertex 0.004033 0.022871 0.015744
vertex -0.074066 0.034895 0.012248
endloop
endfacet
facet normal 0.155809 0.883634 -0.441491
outer loop
vertex -0.074066 0.034895 0.012248
vertex 0.004033 0.022871 0.015744
vertex 0.003734 0.021177 0.012248
endloop
endfacet
facet normal 0.142005 0.805350 -0.575539
outer loop
vertex -0.074066 0.034895 0.012248
vertex 0.003734 0.021177 0.012248
vertex -0.074455 0.032687 0.009062
endloop
endfacet
facet normal 0.142005 0.805349 -0.575541
outer loop
vertex -0.074455 0.032687 0.009062
vertex 0.003734 0.021177 0.012248
vertex 0.003345 0.018968 0.009062
endloop
endfacet
facet normal 0.124752 0.707506 -0.695609
outer loop
vertex -0.074455 0.032687 0.009062
vertex 0.003345 0.018968 0.009062
vertex -0.074926 0.030018 0.006263
endloop
endfacet
facet normal 0.124752 0.707506 -0.695609
outer loop
vertex -0.074926 0.030018 0.006263
vertex 0.003345 0.018968 0.009062
vertex 0.002874 0.016299 0.006263
endloop
endfacet
facet normal 0.104470 0.592477 -0.798785
outer loop
vertex -0.074926 0.030018 0.006263
vertex 0.002874 0.016299 0.006263
vertex -0.075466 0.026953 0.003919
endloop
endfacet
facet normal -0.171819 -0.974437 -0.144741
outer loop
vertex -0.159931 0.002872 0.023320
vertex -0.159833 0.003427 0.019465
vertex -0.082033 -0.010291 0.019465
endloop
endfacet
facet normal -0.165828 -0.940457 -0.296719
outer loop
vertex -0.082033 -0.010291 0.019465
vertex -0.159833 0.003427 0.019465
vertex -0.081833 -0.009152 0.015744
endloop
endfacet
facet normal -0.171820 -0.974437 -0.144741
outer loop
vertex -0.159931 0.002872 0.023320
vertex -0.082033 -0.010291 0.019465
vertex -0.082131 -0.010846 0.023320
endloop
endfacet
facet normal -0.173638 -0.984751 0.010752
outer loop
vertex -0.159924 0.002913 0.027216
vertex -0.159931 0.002872 0.023320
vertex -0.082131 -0.010846 0.023320
endloop
endfacet
facet normal -0.173638 -0.984751 0.010753
outer loop
vertex -0.159924 0.002913 0.027216
vertex -0.082131 -0.010846 0.023320
vertex -0.082124 -0.010805 0.027216
endloop
endfacet
facet normal -0.171239 -0.971147 0.165986
outer loop
vertex -0.159811 0.003550 0.031058
vertex -0.159924 0.002913 0.027216
vertex -0.082124 -0.010805 0.027216
endloop
endfacet
facet normal -0.171239 -0.971147 0.165985
outer loop
vertex -0.159811 0.003550 0.031058
vertex -0.082124 -0.010805 0.027216
vertex -0.082012 -0.010168 0.031058
endloop
endfacet
facet normal -0.164682 -0.933955 0.317187
outer loop
vertex -0.159597 0.004767 0.034753
vertex -0.159811 0.003550 0.031058
vertex -0.082012 -0.010168 0.031058
endloop
endfacet
facet normal -0.164681 -0.933955 0.317187
outer loop
vertex -0.159597 0.004767 0.034753
vertex -0.082012 -0.010168 0.031058
vertex -0.081797 -0.008951 0.034753
endloop
endfacet
facet normal -0.154124 -0.874080 0.460684
outer loop
vertex -0.159285 0.006535 0.038211
vertex -0.159597 0.004767 0.034753
vertex -0.081797 -0.008951 0.034753
endloop
endfacet
facet normal -0.154124 -0.874080 0.460684
outer loop
vertex -0.159285 0.006535 0.038211
vertex -0.081797 -0.008951 0.034753
vertex -0.081485 -0.007184 0.038211
endloop
endfacet
facet normal -0.139823 -0.792975 0.592992
outer loop
vertex -0.158884 0.008810 0.041348
vertex -0.159285 0.006535 0.038211
vertex -0.081485 -0.007184 0.038211
endloop
endfacet
facet normal -0.139823 -0.792975 0.592992
outer loop
vertex -0.158884 0.008810 0.041348
vertex -0.081485 -0.007184 0.038211
vertex -0.081084 -0.004908 0.041348
endloop
endfacet
facet normal -0.122126 -0.692611 0.710898
outer loop
vertex -0.158403 0.011538 0.044088
vertex -0.158884 0.008810 0.041348
vertex -0.081084 -0.004908 0.041348
endloop
endfacet
facet normal -0.122126 -0.692611 0.710898
outer loop
vertex -0.158403 0.011538 0.044088
vertex -0.081084 -0.004908 0.041348
vertex -0.080603 -0.002181 0.044088
endloop
endfacet
facet normal -0.101462 -0.575421 0.811539
outer loop
vertex -0.111534 0.004559 0.045000
vertex -0.158183 0.012784 0.045000
vertex -0.158403 0.011538 0.044088
endloop
endfacet
facet normal -0.101462 -0.575421 0.811539
outer loop
vertex -0.111534 0.004559 0.045000
vertex -0.158403 0.011538 0.044088
vertex -0.080603 -0.002181 0.044088
endloop
endfacet
facet normal -0.101461 -0.575422 0.811539
outer loop
vertex -0.080603 -0.002181 0.044088
vertex -0.080383 -0.000934 0.045000
vertex -0.111534 0.004559 0.045000
endloop
endfacet
facet normal 0.101462 0.575422 0.811539
outer loop
vertex -0.153016 0.042088 0.045000
vertex -0.121865 0.036596 0.045000
vertex -0.152796 0.043335 0.044088
endloop
endfacet
facet normal 0.101463 0.575422 0.811539
outer loop
vertex -0.074996 0.029617 0.044088
vertex -0.152796 0.043335 0.044088
vertex -0.121865 0.036596 0.045000
endloop
endfacet
facet normal 0.101462 0.575422 0.811539
outer loop
vertex -0.074996 0.029617 0.044088
vertex -0.121865 0.036596 0.045000
vertex -0.075216 0.028370 0.045000
endloop
endfacet
facet normal 0.122126 0.692611 0.710898
outer loop
vertex -0.152315 0.046063 0.041348
vertex -0.152796 0.043335 0.044088
vertex -0.074996 0.029617 0.044088
endloop
endfacet
facet normal 0.122126 0.692610 0.710899
outer loop
vertex -0.152315 0.046063 0.041348
vertex -0.074996 0.029617 0.044088
vertex -0.074515 0.032345 0.041348
endloop
endfacet
facet normal 0.139823 0.792975 0.592992
outer loop
vertex -0.151914 0.048338 0.038211
vertex -0.152315 0.046063 0.041348
vertex -0.074515 0.032345 0.041348
endloop
endfacet
facet normal 0.139823 0.792975 0.592992
outer loop
vertex -0.151914 0.048338 0.038211
vertex -0.074515 0.032345 0.041348
vertex -0.074114 0.034620 0.038211
endloop
endfacet
facet normal 0.154124 0.874080 0.460685
outer loop
vertex -0.151602 0.050106 0.034753
vertex -0.151914 0.048338 0.038211
vertex -0.074114 0.034620 0.038211
endloop
endfacet
facet normal 0.154124 0.874080 0.460685
outer loop
vertex -0.151602 0.050106 0.034753
vertex -0.074114 0.034620 0.038211
vertex -0.073803 0.036388 0.034753
endloop
endfacet
facet normal 0.164681 0.933956 0.317186
outer loop
vertex -0.151388 0.051323 0.031058
vertex -0.151602 0.050106 0.034753
vertex -0.073803 0.036388 0.034753
endloop
endfacet
facet normal 0.164682 0.933955 0.317187
outer loop
vertex -0.151388 0.051323 0.031058
vertex -0.073803 0.036388 0.034753
vertex -0.073588 0.037605 0.031058
endloop
endfacet
facet normal 0.171239 0.971147 0.165985
outer loop
vertex -0.151275 0.051960 0.027216
vertex -0.151388 0.051323 0.031058
vertex -0.073588 0.037605 0.031058
endloop
endfacet
facet normal 0.171239 0.971147 0.165986
outer loop
vertex -0.151275 0.051960 0.027216
vertex -0.073588 0.037605 0.031058
vertex -0.073476 0.038242 0.027216
endloop
endfacet
facet normal 0.173638 0.984751 0.010751
outer loop
vertex -0.151268 0.052001 0.023320
vertex -0.151275 0.051960 0.027216
vertex -0.073476 0.038242 0.027216
endloop
endfacet
facet normal 0.173638 0.984751 0.010755
outer loop
vertex -0.151268 0.052001 0.023320
vertex -0.073476 0.038242 0.027216
vertex -0.073468 0.038283 0.023320
endloop
endfacet
facet normal 0.171820 0.974437 -0.144741
outer loop
vertex -0.151366 0.051446 0.019465
vertex -0.151268 0.052001 0.023320
vertex -0.073468 0.038283 0.023320
endloop
endfacet
facet normal 0.171820 0.974437 -0.144742
outer loop
vertex -0.151366 0.051446 0.019465
vertex -0.073468 0.038283 0.023320
vertex -0.073566 0.037727 0.019465
endloop
endfacet
facet normal 0.165828 0.940457 -0.296718
outer loop
vertex -0.151567 0.050307 0.015744
vertex -0.151366 0.051446 0.019465
vertex -0.073566 0.037727 0.019465
endloop
endfacet
facet normal 0.165828 0.940457 -0.296720
outer loop
vertex -0.151567 0.050307 0.015744
vertex -0.073566 0.037727 0.019465
vertex -0.073767 0.036589 0.015744
endloop
endfacet
facet normal 0.155809 0.883634 -0.441491
outer loop
vertex -0.151866 0.048613 0.012248
vertex -0.151567 0.050307 0.015744
vertex -0.073767 0.036589 0.015744
endloop
endfacet
facet normal 0.155809 0.883634 -0.441490
outer loop
vertex -0.151866 0.048613 0.012248
vertex -0.073767 0.036589 0.015744
vertex -0.074066 0.034895 0.012248
endloop
endfacet
facet normal 0.142005 0.805350 -0.575539
outer loop
vertex -0.152255 0.046405 0.009062
vertex -0.151866 0.048613 0.012248
vertex -0.074066 0.034895 0.012248
endloop
endfacet
facet normal 0.142005 0.805349 -0.575541
outer loop
vertex -0.152255 0.046405 0.009062
vertex -0.074066 0.034895 0.012248
vertex -0.074455 0.032687 0.009062
endloop
endfacet
facet normal 0.124752 0.707505 -0.695610
outer loop
vertex -0.152726 0.043736 0.006263
vertex -0.152255 0.046405 0.009062
vertex -0.074455 0.032687 0.009062
endloop
endfacet
facet normal 0.124752 0.707506 -0.695610
outer loop
vertex -0.152726 0.043736 0.006263
vertex -0.074455 0.032687 0.009062
vertex -0.074926 0.030018 0.006263
endloop
endfacet
facet normal 0.104470 0.592477 -0.798785
outer loop
vertex -0.153266 0.040671 0.003919
vertex -0.152726 0.043736 0.006263
vertex -0.074926 0.030018 0.006263
endloop
endfacet
facet normal 0.104470 0.592477 -0.798785
outer loop
vertex -0.153266 0.040671 0.003919
vertex -0.074926 0.030018 0.006263
vertex -0.075466 0.026953 0.003919
endloop
endfacet
facet normal -0.173648 -0.984808 0.000000
outer loop
vertex 0.231663 -0.051003 0.000000
vertex 0.231663 -0.051003 0.002087
vertex -0.235136 0.031307 0.000000
endloop
endfacet
facet normal -0.173648 -0.984808 0.000000
outer loop
vertex -0.235136 0.031307 0.000000
vertex 0.231663 -0.051003 0.002087
vertex -0.235136 0.031307 0.002087
endloop
endfacet
facet normal -0.984808 0.173649 0.000000
outer loop
vertex -0.235136 0.031307 0.000000
vertex -0.235136 0.031307 0.002087
vertex -0.231663 0.051003 0.000000
endloop
endfacet
facet normal -0.984808 0.173648 0.000000
outer loop
vertex -0.231663 0.051003 0.000000
vertex -0.235136 0.031307 0.002087
vertex -0.231663 0.051003 0.002087
endloop
endfacet
facet normal -0.984808 0.173649 0.000002
outer loop
vertex -0.231663 0.051003 0.002087
vertex -0.235136 0.031307 0.002087
vertex -0.231082 0.054299 0.003861
endloop
endfacet
facet normal -0.984808 0.173647 0.000002
outer loop
vertex -0.231082 0.054299 0.003861
vertex -0.235136 0.031307 0.002087
vertex -0.230554 0.057293 0.006120
endloop
endfacet
facet normal -0.984808 0.173648 -0.000000
outer loop
vertex -0.230554 0.057293 0.006120
vertex -0.235136 0.031307 0.002087
vertex -0.230091 0.059917 0.008813
endloop
endfacet
facet normal -0.984807 0.173651 0.000003
outer loop
vertex -0.230091 0.059917 0.008813
vertex -0.235136 0.031307 0.002087
vertex -0.229704 0.062110 0.011878
endloop
endfacet
facet normal -0.984808 0.173645 -0.000001
outer loop
vertex -0.229704 0.062110 0.011878
vertex -0.235136 0.031307 0.002087
vertex -0.229402 0.063822 0.015243
endloop
endfacet
facet normal -0.984807 0.173651 -0.000002
outer loop
vertex -0.229402 0.063822 0.015243
vertex -0.235136 0.031307 0.002087
vertex -0.229192 0.065014 0.018833
endloop
endfacet
facet normal -0.984809 0.173643 0.000000
outer loop
vertex -0.229192 0.065014 0.018833
vertex -0.235136 0.031307 0.002087
vertex -0.229079 0.065658 0.022564
endloop
endfacet
facet normal -0.984808 0.173645 -0.000000
outer loop
vertex -0.229079 0.065658 0.022564
vertex -0.235136 0.031307 0.002087
vertex -0.229065 0.065739 0.026352
endloop
endfacet
facet normal -0.984808 0.173646 0.000001
outer loop
vertex -0.229065 0.065739 0.026352
vertex -0.235136 0.031307 0.002087
vertex -0.229150 0.065256 0.030108
endloop
endfacet
facet normal -0.984807 0.173653 0.000001
outer loop
vertex -0.229150 0.065256 0.030108
vertex -0.235136 0.031307 0.002087
vertex -0.229333 0.064219 0.033747
endloop
endfacet
facet normal -0.984808 0.173648 -0.000002
outer loop
vertex -0.229333 0.064219 0.033747
vertex -0.235136 0.031307 0.002087
vertex -0.229609 0.062653 0.037185
endloop
endfacet
facet normal -0.984807 0.173650 -0.000000
outer loop
vertex -0.229609 0.062653 0.037185
vertex -0.235136 0.031307 0.002087
vertex -0.229972 0.060593 0.040343
endloop
endfacet
facet normal -0.984807 0.173654 0.000001
outer loop
vertex -0.229972 0.060593 0.040343
vertex -0.235136 0.031307 0.002087
vertex -0.230414 0.058087 0.043149
endloop
endfacet
facet normal -0.984807 0.173652 -0.000001
outer loop
vertex -0.230414 0.058087 0.043149
vertex -0.235136 0.031307 0.002087
vertex -0.230977 0.054896 0.045000
endloop
endfacet
facet normal -0.984804 0.173670 0.000003
outer loop
vertex -0.230414 0.058087 0.043149
vertex -0.230977 0.054896 0.045000
vertex -0.230809 0.055844 0.045000
endloop
endfacet
facet normal -0.984809 0.173644 0.000000
outer loop
vertex -0.231689 0.050856 0.045000
vertex -0.230977 0.054896 0.045000
vertex -0.235136 0.031307 0.002087
endloop
endfacet
facet normal -0.984807 0.173650 -0.000001
outer loop
vertex -0.232353 0.047090 0.045000
vertex -0.231689 0.050856 0.045000
vertex -0.235136 0.031307 0.002087
endloop
endfacet
facet normal -0.984807 0.173655 -0.000000
outer loop
vertex -0.232353 0.047090 0.045000
vertex -0.235136 0.031307 0.002087
vertex -0.235717 0.028010 0.003861
endloop
endfacet
facet normal -0.984800 0.173690 -0.000002
outer loop
vertex -0.232353 0.047090 0.045000
vertex -0.235717 0.028010 0.003861
vertex -0.232413 0.046751 0.045000
endloop
endfacet
facet normal -0.984809 0.173641 -0.000001
outer loop
vertex -0.232413 0.046751 0.045000
vertex -0.235717 0.028010 0.003861
vertex -0.236245 0.025016 0.006120
endloop
endfacet
facet normal -0.984809 0.173643 0.000014
outer loop
vertex -0.232413 0.046751 0.045000
vertex -0.236245 0.025016 0.006120
vertex -0.232477 0.046388 0.045000
endloop
endfacet
facet normal -0.984809 0.173642 0.000000
outer loop
vertex -0.232477 0.046388 0.045000
vertex -0.236245 0.025016 0.006120
vertex -0.236708 0.022392 0.008813
endloop
endfacet
facet normal -0.984801 0.173687 -0.000012
outer loop
vertex -0.232477 0.046388 0.045000
vertex -0.236708 0.022392 0.008813
vertex -0.232546 0.045992 0.045000
endloop
endfacet
facet normal -0.984807 0.173654 -0.000001
outer loop
vertex -0.232546 0.045992 0.045000
vertex -0.236708 0.022392 0.008813
vertex -0.237095 0.020199 0.011878
endloop
endfacet
facet normal -0.984816 0.173604 0.000012
outer loop
vertex -0.232546 0.045992 0.045000
vertex -0.237095 0.020199 0.011878
vertex -0.232624 0.045555 0.045000
endloop
endfacet
facet normal -0.984808 0.173647 0.000000
outer loop
vertex -0.232624 0.045555 0.045000
vertex -0.237095 0.020199 0.011878
vertex -0.237396 0.018487 0.015243
endloop
endfacet
facet normal -0.984811 0.173628 0.000000
outer loop
vertex -0.232624 0.045555 0.045000
vertex -0.237396 0.018487 0.015243
vertex -0.232710 0.045063 0.045000
endloop
endfacet
facet normal -0.984808 0.173648 0.000001
outer loop
vertex -0.232710 0.045063 0.045000
vertex -0.237396 0.018487 0.015243
vertex -0.237606 0.017295 0.018833
endloop
endfacet
facet normal -0.984805 0.173661 0.000010
outer loop
vertex -0.232710 0.045063 0.045000
vertex -0.237606 0.017295 0.018833
vertex -0.232810 0.044498 0.045000
endloop
endfacet
facet normal -0.984808 0.173646 0.000000
outer loop
vertex -0.232810 0.044498 0.045000
vertex -0.237606 0.017295 0.018833
vertex -0.237720 0.016652 0.022564
endloop
endfacet
facet normal -0.984809 0.173640 -0.000015
outer loop
vertex -0.232810 0.044498 0.045000
vertex -0.237720 0.016652 0.022564
vertex -0.232927 0.043834 0.045000
endloop
endfacet
facet normal -0.984808 0.173646 -0.000000
outer loop
vertex -0.232927 0.043834 0.045000
vertex -0.237720 0.016652 0.022564
vertex -0.237734 0.016570 0.026352
endloop
endfacet
facet normal -0.984803 0.173677 0.000000
outer loop
vertex -0.232927 0.043834 0.045000
vertex -0.237734 0.016570 0.026352
vertex -0.233068 0.043033 0.045000
endloop
endfacet
facet normal -0.984808 0.173648 -0.000001
outer loop
vertex -0.233068 0.043033 0.045000
vertex -0.237734 0.016570 0.026352
vertex -0.237649 0.017054 0.030108
endloop
endfacet
facet normal -0.984810 0.173635 0.000012
outer loop
vertex -0.233068 0.043033 0.045000
vertex -0.237649 0.017054 0.030108
vertex -0.233244 0.042036 0.045000
endloop
endfacet
facet normal -0.984807 0.173651 -0.000003
outer loop
vertex -0.233923 0.038187 0.045000
vertex -0.233244 0.042036 0.045000
vertex -0.237649 0.017054 0.030108
endloop
endfacet
facet normal -0.984807 0.173653 -0.000001
outer loop
vertex -0.233923 0.038187 0.045000
vertex -0.237649 0.017054 0.030108
vertex -0.237466 0.018090 0.033747
endloop
endfacet
facet normal -0.984809 0.173640 -0.000004
outer loop
vertex -0.233923 0.038187 0.045000
vertex -0.237466 0.018090 0.033747
vertex -0.234138 0.036968 0.045000
endloop
endfacet
facet normal -0.984809 0.173641 0.000003
outer loop
vertex -0.234138 0.036968 0.045000
vertex -0.237466 0.018090 0.033747
vertex -0.237190 0.019657 0.037185
endloop
endfacet
facet normal -0.984806 0.173660 0.000003
outer loop
vertex -0.234138 0.036968 0.045000
vertex -0.237190 0.019657 0.037185
vertex -0.234416 0.035388 0.045000
endloop
endfacet
facet normal -0.984809 0.173641 -0.000001
outer loop
vertex -0.234416 0.035388 0.045000
vertex -0.237190 0.019657 0.037185
vertex -0.236827 0.021717 0.040343
endloop
endfacet
facet normal -0.984806 0.173659 0.000001
outer loop
vertex -0.234416 0.035388 0.045000
vertex -0.236827 0.021717 0.040343
vertex -0.234797 0.033226 0.045000
endloop
endfacet
facet normal -0.984807 0.173653 -0.000002
outer loop
vertex -0.234797 0.033226 0.045000
vertex -0.236827 0.021717 0.040343
vertex -0.236385 0.024223 0.043149
endloop
endfacet
facet normal -0.984807 0.173653 -0.000004
outer loop
vertex -0.234797 0.033226 0.045000
vertex -0.236385 0.024223 0.043149
vertex -0.235358 0.030046 0.045000
endloop
endfacet
facet normal -0.984808 0.173649 0.000002
outer loop
vertex -0.235990 0.026465 0.045000
vertex -0.235358 0.030046 0.045000
vertex -0.236385 0.024223 0.043149
endloop
endfacet
facet normal 0.984808 -0.173648 0.000000
outer loop
vertex 0.231663 -0.051003 0.000000
vertex 0.235136 -0.031307 0.000000
vertex 0.231663 -0.051003 0.002087
endloop
endfacet
facet normal 0.984808 -0.173649 0.000000
outer loop
vertex 0.231663 -0.051003 0.002087
vertex 0.235136 -0.031307 0.000000
vertex 0.235136 -0.031307 0.002087
endloop
endfacet
facet normal 0.984808 -0.173649 -0.000002
outer loop
vertex 0.231663 -0.051003 0.002087
vertex 0.235136 -0.031307 0.002087
vertex 0.235717 -0.028010 0.003861
endloop
endfacet
facet normal 0.984808 -0.173645 -0.000002
outer loop
vertex 0.235717 -0.028010 0.003861
vertex 0.236245 -0.025016 0.006120
vertex 0.231663 -0.051003 0.002087
endloop
endfacet
facet normal 0.984808 -0.173648 -0.000000
outer loop
vertex 0.231663 -0.051003 0.002087
vertex 0.236245 -0.025016 0.006120
vertex 0.236708 -0.022392 0.008813
endloop
endfacet
facet normal 0.984808 -0.173648 -0.000003
outer loop
vertex 0.231663 -0.051003 0.002087
vertex 0.236708 -0.022392 0.008813
vertex 0.237095 -0.020199 0.011878
endloop
endfacet
facet normal 0.984808 -0.173645 0.000000
outer loop
vertex 0.237095 -0.020199 0.011878
vertex 0.237396 -0.018487 0.015243
vertex 0.231663 -0.051003 0.002087
endloop
endfacet
facet normal 0.984807 -0.173650 0.000002
outer loop
vertex 0.231663 -0.051003 0.002087
vertex 0.237396 -0.018487 0.015243
vertex 0.237606 -0.017295 0.018833
endloop
endfacet
facet normal 0.984807 -0.173651 0.000001
outer loop
vertex 0.231663 -0.051003 0.002087
vertex 0.237606 -0.017295 0.018833
vertex 0.237720 -0.016652 0.022564
endloop
endfacet
facet normal 0.984808 -0.173645 -0.000000
outer loop
vertex 0.237720 -0.016652 0.022564
vertex 0.237734 -0.016570 0.026352
vertex 0.231663 -0.051003 0.002087
endloop
endfacet
facet normal 0.984808 -0.173646 -0.000001
outer loop
vertex 0.231663 -0.051003 0.002087
vertex 0.237734 -0.016570 0.026352
vertex 0.237649 -0.017054 0.030108
endloop
endfacet
facet normal 0.984807 -0.173650 -0.000000
outer loop
vertex 0.231663 -0.051003 0.002087
vertex 0.237649 -0.017054 0.030108
vertex 0.237466 -0.018090 0.033747
endloop
endfacet
facet normal 0.984808 -0.173648 0.000002
outer loop
vertex 0.237466 -0.018090 0.033747
vertex 0.237190 -0.019657 0.037185
vertex 0.231663 -0.051003 0.002087
endloop
endfacet
facet normal 0.984808 -0.173644 -0.000000
outer loop
vertex 0.231663 -0.051003 0.002087
vertex 0.237190 -0.019657 0.037185
vertex 0.236827 -0.021716 0.040343
endloop
endfacet
facet normal 0.984807 -0.173652 -0.000001
outer loop
vertex 0.231663 -0.051003 0.002087
vertex 0.236827 -0.021716 0.040343
vertex 0.236385 -0.024223 0.043149
endloop
endfacet
facet normal 0.984809 -0.173642 0.000001
outer loop
vertex 0.235822 -0.027414 0.045000
vertex 0.231663 -0.051003 0.002087
vertex 0.236385 -0.024223 0.043149
endloop
endfacet
facet normal 0.984804 -0.173668 -0.000003
outer loop
vertex 0.235822 -0.027414 0.045000
vertex 0.236385 -0.024223 0.043149
vertex 0.235990 -0.026465 0.045000
endloop
endfacet
facet normal 0.984808 -0.173644 -0.000000
outer loop
vertex 0.235110 -0.031454 0.045000
vertex 0.231663 -0.051003 0.002087
vertex 0.235822 -0.027414 0.045000
endloop
endfacet
facet normal 0.984807 -0.173650 0.000001
outer loop
vertex 0.234446 -0.035219 0.045000
vertex 0.231663 -0.051003 0.002087
vertex 0.235110 -0.031454 0.045000
endloop
endfacet
facet normal 0.984807 -0.173651 0.000003
outer loop
vertex 0.232876 -0.044123 0.045000
vertex 0.229150 -0.065255 0.030108
vertex 0.233555 -0.040273 0.045000
endloop
endfacet
facet normal 0.984808 -0.173648 0.000001
outer loop
vertex 0.229150 -0.065255 0.030108
vertex 0.229065 -0.065739 0.026352
vertex 0.233731 -0.039276 0.045000
endloop
endfacet
facet normal 0.984810 -0.173634 -0.000011
outer loop
vertex 0.229150 -0.065255 0.030108
vertex 0.233731 -0.039276 0.045000
vertex 0.233555 -0.040273 0.045000
endloop
endfacet
facet normal 0.984807 -0.173653 0.000001
outer loop
vertex 0.229065 -0.065739 0.026352
vertex 0.229079 -0.065658 0.022564
vertex 0.233872 -0.038475 0.045000
endloop
endfacet
facet normal 0.984813 -0.173617 -0.000004
outer loop
vertex 0.229065 -0.065739 0.026352
vertex 0.233872 -0.038475 0.045000
vertex 0.233731 -0.039276 0.045000
endloop
endfacet
facet normal 0.984808 -0.173649 -0.000001
outer loop
vertex 0.230809 -0.055844 0.045000
vertex 0.230414 -0.058087 0.043149
vertex 0.231441 -0.052263 0.045000
endloop
endfacet
facet normal 0.984809 -0.173643 0.000002
outer loop
vertex 0.230414 -0.058087 0.043149
vertex 0.229972 -0.060593 0.040343
vertex 0.232001 -0.049083 0.045000
endloop
endfacet
facet normal 0.984807 -0.173653 0.000004
outer loop
vertex 0.230414 -0.058087 0.043149
vertex 0.232001 -0.049083 0.045000
vertex 0.231441 -0.052263 0.045000
endloop
endfacet
facet normal 0.984810 -0.173638 0.000000
outer loop
vertex 0.229972 -0.060593 0.040343
vertex 0.229609 -0.062653 0.037185
vertex 0.232383 -0.046921 0.045000
endloop
endfacet
facet normal 0.984806 -0.173657 -0.000000
outer loop
vertex 0.229972 -0.060593 0.040343
vertex 0.232383 -0.046921 0.045000
vertex 0.232001 -0.049083 0.045000
endloop
endfacet
facet normal 0.984810 -0.173633 -0.000004
outer loop
vertex 0.229609 -0.062653 0.037185
vertex 0.229333 -0.064219 0.033747
vertex 0.232661 -0.045341 0.045000
endloop
endfacet
facet normal 0.984802 -0.173679 0.000000
outer loop
vertex 0.229609 -0.062653 0.037185
vertex 0.232661 -0.045341 0.045000
vertex 0.232383 -0.046921 0.045000
endloop
endfacet
facet normal 0.984808 -0.173646 0.000001
outer loop
vertex 0.229333 -0.064219 0.033747
vertex 0.229150 -0.065255 0.030108
vertex 0.232876 -0.044123 0.045000
endloop
endfacet
facet normal 0.984803 -0.173674 0.000003
outer loop
vertex 0.229333 -0.064219 0.033747
vertex 0.232876 -0.044123 0.045000
vertex 0.232661 -0.045341 0.045000
endloop
endfacet
facet normal 0.984809 -0.173639 -0.000000
outer loop
vertex 0.229079 -0.065658 0.022564
vertex 0.229192 -0.065014 0.018833
vertex 0.233989 -0.037812 0.045000
endloop
endfacet
facet normal 0.984799 -0.173698 0.000015
outer loop
vertex 0.229079 -0.065658 0.022564
vertex 0.233989 -0.037812 0.045000
vertex 0.233872 -0.038475 0.045000
endloop
endfacet
facet normal 0.984808 -0.173648 -0.000001
outer loop
vertex 0.229192 -0.065014 0.018833
vertex 0.229402 -0.063822 0.015243
vertex 0.234089 -0.037246 0.045000
endloop
endfacet
facet normal 0.984805 -0.173661 -0.000010
outer loop
vertex 0.229192 -0.065014 0.018833
vertex 0.234089 -0.037246 0.045000
vertex 0.233989 -0.037812 0.045000
endloop
endfacet
facet normal 0.984808 -0.173644 -0.000000
outer loop
vertex 0.229402 -0.063822 0.015243
vertex 0.229704 -0.062110 0.011878
vertex 0.234175 -0.036754 0.045000
endloop
endfacet
facet normal 0.984811 -0.173628 -0.000001
outer loop
vertex 0.229402 -0.063822 0.015243
vertex 0.234175 -0.036754 0.045000
vertex 0.234089 -0.037246 0.045000
endloop
endfacet
facet normal 0.984808 -0.173646 0.000001
outer loop
vertex 0.229704 -0.062110 0.011878
vertex 0.230091 -0.059917 0.008813
vertex 0.234252 -0.036317 0.045000
endloop
endfacet
facet normal 0.984805 -0.173666 -0.000008
outer loop
vertex 0.229704 -0.062110 0.011878
vertex 0.234252 -0.036317 0.045000
vertex 0.234175 -0.036754 0.045000
endloop
endfacet
facet normal 0.984807 -0.173655 0.000000
outer loop
vertex 0.230091 -0.059917 0.008813
vertex 0.230554 -0.057293 0.006120
vertex 0.234322 -0.035921 0.045000
endloop
endfacet
facet normal 0.984823 -0.173563 0.000014
outer loop
vertex 0.230091 -0.059917 0.008813
vertex 0.234322 -0.035921 0.045000
vertex 0.234252 -0.036317 0.045000
endloop
endfacet
facet normal 0.984806 -0.173660 0.000001
outer loop
vertex 0.230554 -0.057293 0.006120
vertex 0.231082 -0.054299 0.003861
vertex 0.234386 -0.035558 0.045000
endloop
endfacet
facet normal 0.984809 -0.173643 -0.000016
outer loop
vertex 0.230554 -0.057293 0.006120
vertex 0.234386 -0.035558 0.045000
vertex 0.234322 -0.035921 0.045000
endloop
endfacet
facet normal 0.984806 -0.173659 0.000000
outer loop
vertex 0.231082 -0.054299 0.003861
vertex 0.231663 -0.051003 0.002087
vertex 0.234446 -0.035219 0.045000
endloop
endfacet
facet normal 0.984823 -0.173562 0.000004
outer loop
vertex 0.231082 -0.054299 0.003861
vertex 0.234446 -0.035219 0.045000
vertex 0.234386 -0.035558 0.045000
endloop
endfacet
facet normal 0.000000 0.000000 1.000000
outer loop
vertex 0.235822 -0.027414 0.045000
vertex 0.235990 -0.026465 0.045000
vertex 0.207101 -0.021331 0.045000
endloop
endfacet
facet normal 0.000000 0.000000 1.000000
outer loop
vertex 0.235822 -0.027414 0.045000
vertex 0.207101 -0.021331 0.045000
vertex 0.158183 -0.012784 0.045000
endloop
endfacet
facet normal -0.707107 0.000000 0.707107
outer loop
vertex 0.234446 -0.035219 0.045000
vertex 0.235110 -0.031454 0.045000
vertex 0.235822 -0.027414 0.045000
endloop
endfacet
facet normal 0.000000 0.000000 1.000000
outer loop
vertex 0.234252 -0.036317 0.045000
vertex 0.234322 -0.035921 0.045000
vertex 0.234386 -0.035558 0.045000
endloop
endfacet
facet normal 0.894427 0.000000 0.447214
outer loop
vertex 0.234386 -0.035558 0.045000
vertex 0.234446 -0.035219 0.045000
vertex 0.235822 -0.027414 0.045000
endloop
endfacet
facet normal 0.000000 0.000000 1.000000
outer loop
vertex 0.235822 -0.027414 0.045000
vertex 0.158183 -0.012784 0.045000
vertex 0.111534 -0.004559 0.045000
endloop
endfacet
facet normal 1.000000 0.000000 0.000000
outer loop
vertex 0.111534 -0.004559 0.045000
vertex 0.080383 0.000934 0.045000
vertex 0.033734 0.009159 0.045000
endloop
endfacet
facet normal -1.000000 0.000000 0.000000
outer loop
vertex 0.033734 0.009159 0.045000
vertex 0.002584 0.014652 0.045000
vertex -0.044066 0.022878 0.045000
endloop
endfacet
facet normal 0.316228 0.000000 0.948683
outer loop
vertex 0.033734 0.009159 0.045000
vertex -0.044066 0.022878 0.045000
vertex -0.075216 0.028370 0.045000
endloop
endfacet
facet normal 0.000002 0.000000 1.000000
outer loop
vertex 0.235822 -0.027414 0.045000
vertex 0.111534 -0.004559 0.045000
vertex 0.033734 0.009159 0.045000
endloop
endfacet
facet normal -0.000000 0.000000 1.000000
outer loop
vertex 0.234386 -0.035558 0.045000
vertex 0.235822 -0.027414 0.045000
vertex 0.033734 0.009159 0.045000
endloop
endfacet
facet normal 0.000000 0.000000 0.000000
outer loop
vertex 0.033734 0.009159 0.045000
vertex -0.075216 0.028370 0.045000
vertex -0.121865 0.036596 0.045000
endloop
endfacet
facet normal 0.000000 0.000000 1.000000
outer loop
vertex 0.234252 -0.036317 0.045000
vertex 0.234386 -0.035558 0.045000
vertex 0.033734 0.009159 0.045000
endloop
endfacet
facet normal 0.000000 0.000000 1.000000
outer loop
vertex 0.234089 -0.037246 0.045000
vertex 0.234175 -0.036754 0.045000
vertex 0.234252 -0.036317 0.045000
endloop
endfacet
facet normal -0.406138 0.000000 0.913812
outer loop
vertex 0.233872 -0.038475 0.045000
vertex 0.233989 -0.037812 0.045000
vertex 0.234089 -0.037246 0.045000
endloop
endfacet
facet normal 0.000000 0.000000 1.000000
outer loop
vertex 0.232876 -0.044123 0.045000
vertex 0.233555 -0.040273 0.045000
vertex 0.233731 -0.039276 0.045000
endloop
endfacet
facet normal 0.554700 0.000000 0.832050
outer loop
vertex 0.233872 -0.038475 0.045000
vertex 0.234089 -0.037246 0.045000
vertex 0.234252 -0.036317 0.045000
endloop
endfacet
facet normal -0.905459 0.000000 0.424434
outer loop
vertex 0.232876 -0.044123 0.045000
vertex 0.233731 -0.039276 0.045000
vertex 0.233872 -0.038475 0.045000
endloop
endfacet
facet normal -0.894427 0.000000 0.447214
outer loop
vertex 0.232001 -0.049083 0.045000
vertex 0.232383 -0.046921 0.045000
vertex 0.232661 -0.045341 0.045000
endloop
endfacet
facet normal 0.000000 0.000000 1.000000
outer loop
vertex 0.232661 -0.045341 0.045000
vertex 0.232876 -0.044123 0.045000
vertex 0.233872 -0.038475 0.045000
endloop
endfacet
facet normal 0.000000 0.000000 1.000000
outer loop
vertex 0.233872 -0.038475 0.045000
vertex 0.234252 -0.036317 0.045000
vertex 0.033734 0.009159 0.045000
endloop
endfacet
facet normal -0.000000 0.000000 1.000000
outer loop
vertex 0.233872 -0.038475 0.045000
vertex 0.033734 0.009159 0.045000
vertex -0.121865 0.036596 0.045000
endloop
endfacet
facet normal 0.894427 0.000000 0.447214
outer loop
vertex 0.231441 -0.052263 0.045000
vertex 0.232001 -0.049083 0.045000
vertex 0.232661 -0.045341 0.045000
endloop
endfacet
facet normal 0.000000 0.000000 1.000000
outer loop
vertex 0.232661 -0.045341 0.045000
vertex 0.233872 -0.038475 0.045000
vertex -0.121865 0.036596 0.045000
endloop
endfacet
facet normal 0.000000 0.000000 1.000000
outer loop
vertex -0.153016 0.042088 0.045000
vertex -0.201906 0.050788 0.045000
vertex -0.230809 0.055844 0.045000
endloop
endfacet
facet normal 0.000001 0.000000 1.000000
outer loop
vertex 0.232661 -0.045341 0.045000
vertex -0.121865 0.036596 0.045000
vertex -0.153016 0.042088 0.045000
endloop
endfacet
facet normal 0.000000 0.000000 1.000000
outer loop
vertex 0.201906 -0.050788 0.045000
vertex 0.230809 -0.055844 0.045000
vertex 0.231441 -0.052263 0.045000
endloop
endfacet
facet normal 0.000000 0.000000 1.000000
outer loop
vertex 0.231441 -0.052263 0.045000
vertex 0.232661 -0.045341 0.045000
vertex -0.153016 0.042088 0.045000
endloop
endfacet
facet normal 0.000001 0.000000 1.000000
outer loop
vertex -0.153016 0.042088 0.045000
vertex -0.230809 0.055844 0.045000
vertex -0.230977 0.054896 0.045000
endloop
endfacet
facet normal -0.000000 0.000000 1.000000
outer loop
vertex -0.153016 0.042088 0.045000
vertex -0.230977 0.054896 0.045000
vertex -0.231689 0.050856 0.045000
endloop
endfacet
facet normal 0.000000 0.000000 1.000000
outer loop
vertex 0.201906 -0.050788 0.045000
vertex 0.231441 -0.052263 0.045000
vertex -0.153016 0.042088 0.045000
endloop
endfacet
facet normal 0.000000 0.000000 1.000000
outer loop
vertex 0.153016 -0.042088 0.045000
vertex 0.201906 -0.050788 0.045000
vertex -0.153016 0.042088 0.045000
endloop
endfacet
facet normal 0.000000 0.000000 1.000000
outer loop
vertex -0.153016 0.042088 0.045000
vertex -0.231689 0.050856 0.045000
vertex -0.232353 0.047090 0.045000
endloop
endfacet
facet normal 0.624695 0.000000 0.780869
outer loop
vertex -0.232353 0.047090 0.045000
vertex -0.232413 0.046751 0.045000
vertex -0.232477 0.046388 0.045000
endloop
endfacet
facet normal 0.000000 0.000000 1.000000
outer loop
vertex -0.232477 0.046388 0.045000
vertex -0.232546 0.045992 0.045000
vertex -0.232624 0.045555 0.045000
endloop
endfacet
facet normal 0.000000 0.000000 1.000000
outer loop
vertex -0.232624 0.045555 0.045000
vertex -0.232710 0.045063 0.045000
vertex -0.232810 0.044498 0.045000
endloop
endfacet
facet normal -0.707107 0.000000 0.707107
outer loop
vertex -0.232810 0.044498 0.045000
vertex -0.232927 0.043834 0.045000
vertex -0.233068 0.043033 0.045000
endloop
endfacet
facet normal 0.894427 0.000000 -0.447214
outer loop
vertex -0.233244 0.042036 0.045000
vertex -0.233923 0.038187 0.045000
vertex -0.234138 0.036968 0.045000
endloop
endfacet
facet normal 0.685365 0.000000 0.728200
outer loop
vertex -0.232810 0.044498 0.045000
vertex -0.233068 0.043033 0.045000
vertex -0.233244 0.042036 0.045000
endloop
endfacet
facet normal 0.624695 0.000000 0.780869
outer loop
vertex -0.232477 0.046388 0.045000
vertex -0.232624 0.045555 0.045000
vertex -0.232810 0.044498 0.045000
endloop
endfacet
facet normal 0.000000 0.000000 1.000000
outer loop
vertex -0.153016 0.042088 0.045000
vertex -0.232353 0.047090 0.045000
vertex -0.232477 0.046388 0.045000
endloop
endfacet
facet normal 0.000000 0.000000 1.000000
outer loop
vertex 0.121865 -0.036596 0.045000
vertex 0.153016 -0.042088 0.045000
vertex -0.153016 0.042088 0.045000
endloop
endfacet
facet normal 0.000000 0.000000 1.000000
outer loop
vertex 0.075216 -0.028370 0.045000
vertex 0.121865 -0.036596 0.045000
vertex -0.153016 0.042088 0.045000
endloop
endfacet
facet normal 0.000000 0.000000 1.000000
outer loop
vertex -0.153016 0.042088 0.045000
vertex -0.232477 0.046388 0.045000
vertex -0.232810 0.044498 0.045000
endloop
endfacet
facet normal -0.371391 0.000000 0.928477
outer loop
vertex -0.233244 0.042036 0.045000
vertex -0.234138 0.036968 0.045000
vertex -0.234416 0.035388 0.045000
endloop
endfacet
facet normal 0.000000 0.000000 1.000000
outer loop
vertex -0.153016 0.042088 0.045000
vertex -0.232810 0.044498 0.045000
vertex -0.233244 0.042036 0.045000
endloop
endfacet
facet normal 0.000000 0.000000 1.000000
outer loop
vertex 0.044066 -0.022877 0.045000
vertex 0.075216 -0.028370 0.045000
vertex -0.153016 0.042088 0.045000
endloop
endfacet
facet normal 1.000000 0.000000 0.000000
outer loop
vertex -0.033734 -0.009159 0.045000
vertex -0.002584 -0.014652 0.045000
vertex 0.044066 -0.022877 0.045000
endloop
endfacet
facet normal -1.000000 0.000000 0.000000
outer loop
vertex -0.111534 0.004559 0.045000
vertex -0.080383 -0.000934 0.045000
vertex -0.033734 -0.009159 0.045000
endloop
endfacet
facet normal -0.000014 0.000000 1.000000
outer loop
vertex -0.235990 0.026465 0.045000
vertex -0.207101 0.021331 0.045000
vertex -0.158183 0.012784 0.045000
endloop
endfacet
facet normal 0.000000 0.000000 1.000000
outer loop
vertex -0.235358 0.030046 0.045000
vertex -0.235990 0.026465 0.045000
vertex -0.158183 0.012784 0.045000
endloop
endfacet
facet normal 0.685365 0.000000 0.728200
outer loop
vertex -0.233244 0.042036 0.045000
vertex -0.234416 0.035388 0.045000
vertex -0.234797 0.033226 0.045000
endloop
endfacet
facet normal 0.000000 0.000000 1.000000
outer loop
vertex -0.234797 0.033226 0.045000
vertex -0.235358 0.030046 0.045000
vertex -0.158183 0.012784 0.045000
endloop
endfacet
facet normal 0.000000 0.000000 1.000000
outer loop
vertex -0.234797 0.033226 0.045000
vertex -0.158183 0.012784 0.045000
vertex -0.111534 0.004559 0.045000
endloop
endfacet
facet normal 0.000000 0.000000 1.000000
outer loop
vertex -0.153016 0.042088 0.045000
vertex -0.233244 0.042036 0.045000
vertex -0.234797 0.033226 0.045000
endloop
endfacet
facet normal 0.000000 0.000000 1.000000
outer loop
vertex -0.033734 -0.009159 0.045000
vertex 0.044066 -0.022877 0.045000
vertex -0.153016 0.042088 0.045000
endloop
endfacet
facet normal 0.000000 0.000000 1.000000
outer loop
vertex -0.234797 0.033226 0.045000
vertex -0.111534 0.004559 0.045000
vertex -0.033734 -0.009159 0.045000
endloop
endfacet
facet normal 0.000000 0.000000 1.000000
outer loop
vertex -0.153016 0.042088 0.045000
vertex -0.234797 0.033226 0.045000
vertex -0.033734 -0.009159 0.045000
endloop
endfacet
solid cylinder
solid bottom
facet normal 0.000000 0.000000 -1.000000
outer loop
vertex -2.000000 0.3950000 0.000000
vertex 4.000000 0.3950000 0.000000
vertex 4.000000 -0.3950000 0.000000
endloop
endfacet
facet normal 0.000000 0.000000 -1.000000
outer loop
vertex -2.000000 0.3950000 0.000000
vertex 4.000000 -0.3950000 0.000000
vertex -2.000000 -0.3950000 0.000000
endloop
endfacet
endsolid bottom
solid frontAndBack
facet normal 0.000000 1.000000 0.000000
outer loop
vertex -2.000000 0.395000 0.000000
vertex -2.000000 0.395000 0.045000
vertex 4.000000 0.395000 0.045000
endloop
endfacet
facet normal 0.000000 1.000000 0.000000
outer loop
vertex -2.000000 0.395000 0.000000
vertex 4.000000 0.395000 0.045000
vertex 4.000000 0.395000 0.000000
endloop
endfacet
facet normal 0.000000 -1.000000 0.000000
outer loop
vertex 4.000000 -0.395000 0.000000
vertex 4.000000 -0.395000 0.045000
vertex -2.000000 -0.395000 0.045000
endloop
endfacet
facet normal 0.000000 -1.000000 0.000000
outer loop
vertex 4.000000 -0.395000 0.000000
vertex -2.000000 -0.395000 0.045000
vertex -2.000000 -0.395000 0.000000
endloop
endfacet
endsolid frontAndBack
solid outlet
facet normal 1.000000 0.000000 0.000000
outer loop
vertex 4.000000 0.395000 0.000000
vertex 4.000000 0.395000 0.045000
vertex 4.000000 -0.395000 0.045000
endloop
endfacet
facet normal 1.000000 0.000000 0.000000
outer loop
vertex 4.000000 0.395000 0.000000
vertex 4.000000 -0.395000 0.045000
vertex 4.000000 -0.395000 0.000000
endloop
endfacet
endsolid outlet
solid inlet
facet normal -1.000000 0.000000 0.000000
outer loop
vertex -2.000000 -0.395000 0.000000
vertex -2.000000 -0.395000 0.045000
vertex -2.000000 0.395000 0.045000
endloop
endfacet
facet normal -1.000000 0.000000 0.000000
outer loop
vertex -2.000000 -0.395000 0.000000
vertex -2.000000 0.395000 0.045000
vertex -2.000000 0.395000 0.000000
endloop
endfacet
endsolid inlet
solid top
facet normal 0.000000 0.000000 1.000000
outer loop
vertex 4.000000 0.395000 0.045000
vertex -2.000000 0.395000 0.045000
vertex -2.000000 -0.395000 0.045000
endloop
endfacet
facet normal 0.000000 0.000000 1.000000
outer loop
vertex 4.000000 0.395000 0.045000
vertex -2.000000 -0.395000 0.045000
vertex 4.000000 -0.395000 0.045000
endloop
endfacet
endsolid top
