solid cylinder
facet normal 0.000000 0.000000 -1.000000
outer loop
vertex 0.236970 -0.010694 0.000000
vertex 0.235227 -0.030618 0.000000
vertex -0.235227 0.030618 0.000000
endloop
endfacet
facet normal 0.000000 0.000000 -1.000000
outer loop
vertex -0.235227 0.030618 0.000000
vertex 0.235227 -0.030618 0.000000
vertex -0.236970 0.010694 0.000000
endloop
endfacet
facet normal 0.087156 0.996195 0.000000
outer loop
vertex 0.236970 -0.010694 0.002087
vertex 0.236970 -0.010694 0.000000
vertex -0.235227 0.030618 0.002087
endloop
endfacet
facet normal 0.087156 0.996195 0.000000
outer loop
vertex -0.235227 0.030618 0.002087
vertex 0.236970 -0.010694 0.000000
vertex -0.235227 0.030618 0.000000
endloop
endfacet
facet normal -0.040920 -0.466496 -0.883576
outer loop
vertex 0.234935 -0.033952 0.003861
vertex 0.156228 -0.027158 0.003919
vertex 0.235227 -0.030618 0.002087
endloop
endfacet
facet normal -0.040981 -0.468413 -0.882559
outer loop
vertex 0.235227 -0.030618 0.002087
vertex 0.156228 -0.027158 0.003919
vertex 0.077528 -0.020273 0.003919
endloop
endfacet
facet normal -0.040981 -0.468413 -0.882559
outer loop
vertex 0.235227 -0.030618 0.002087
vertex 0.077528 -0.020273 0.003919
vertex -0.001171 -0.013387 0.003919
endloop
endfacet
facet normal -0.052434 -0.599327 -0.798785
outer loop
vertex -0.001171 -0.013387 0.003919
vertex 0.077528 -0.020273 0.003919
vertex -0.001442 -0.016488 0.006263
endloop
endfacet
facet normal -0.052434 -0.599327 -0.798785
outer loop
vertex -0.001171 -0.013387 0.003919
vertex -0.001442 -0.016488 0.006263
vertex -0.080142 -0.009602 0.006263
endloop
endfacet
facet normal -0.062614 -0.715686 -0.695610
outer loop
vertex -0.080142 -0.009602 0.006263
vertex -0.001442 -0.016488 0.006263
vertex -0.080378 -0.012302 0.009062
endloop
endfacet
facet normal -0.062614 -0.715686 -0.695610
outer loop
vertex -0.080142 -0.009602 0.006263
vertex -0.080378 -0.012302 0.009062
vertex -0.159077 -0.005417 0.009062
endloop
endfacet
facet normal -0.071274 -0.814661 -0.575540
outer loop
vertex -0.159077 -0.005417 0.009062
vertex -0.080378 -0.012302 0.009062
vertex -0.159273 -0.007651 0.012248
endloop
endfacet
facet normal -0.070895 -0.814695 -0.575540
outer loop
vertex -0.159077 -0.005417 0.009062
vertex -0.159273 -0.007651 0.012248
vertex -0.237953 -0.000542 0.011878
endloop
endfacet
facet normal -0.077804 -0.885073 -0.458903
outer loop
vertex -0.237953 -0.000542 0.011878
vertex -0.159273 -0.007651 0.012248
vertex -0.238104 -0.002274 0.015243
endloop
endfacet
facet normal -0.077743 -0.893891 -0.441491
outer loop
vertex -0.238104 -0.002274 0.015243
vertex -0.159273 -0.007651 0.012248
vertex -0.159423 -0.009364 0.015744
endloop
endfacet
facet normal -0.083034 -0.943977 -0.319393
outer loop
vertex -0.238104 -0.002274 0.015243
vertex -0.159423 -0.009364 0.015744
vertex -0.238210 -0.003479 0.018833
endloop
endfacet
facet normal -0.082698 -0.951377 -0.296719
outer loop
vertex -0.238210 -0.003479 0.018833
vertex -0.159423 -0.009364 0.015744
vertex -0.159524 -0.010516 0.019465
endloop
endfacet
facet normal -0.086363 -0.981207 -0.172551
outer loop
vertex -0.238210 -0.003479 0.018833
vertex -0.159524 -0.010516 0.019465
vertex -0.238267 -0.004130 0.022564
endloop
endfacet
facet normal -0.085638 -0.985757 -0.144741
outer loop
vertex -0.238267 -0.004130 0.022564
vertex -0.159524 -0.010516 0.019465
vertex -0.159573 -0.011078 0.023320
endloop
endfacet
facet normal -0.087715 -0.995908 -0.021746
outer loop
vertex -0.238267 -0.004130 0.022564
vertex -0.159573 -0.011078 0.023320
vertex -0.238274 -0.004213 0.026352
endloop
endfacet
facet normal -0.086488 -0.996195 0.010752
outer loop
vertex -0.238274 -0.004213 0.026352
vertex -0.159573 -0.011078 0.023320
vertex -0.159569 -0.011036 0.027216
endloop
endfacet
facet normal -0.087060 -0.987742 0.129558
outer loop
vertex -0.238274 -0.004213 0.026352
vertex -0.159569 -0.011036 0.027216
vertex -0.238231 -0.003724 0.030108
endloop
endfacet
facet normal -0.085228 -0.982438 0.165985
outer loop
vertex -0.238231 -0.003724 0.030108
vertex -0.159569 -0.011036 0.027216
vertex -0.159513 -0.010392 0.031058
endloop
endfacet
facet normal -0.084415 -0.956898 0.277887
outer loop
vertex -0.238231 -0.003724 0.030108
vertex -0.159513 -0.010392 0.031058
vertex -0.238139 -0.002675 0.033747
endloop
endfacet
facet normal -0.081886 -0.944821 0.317187
outer loop
vertex -0.238139 -0.002675 0.033747
vertex -0.159513 -0.010392 0.031058
vertex -0.159405 -0.009161 0.034753
endloop
endfacet
facet normal -0.079842 -0.904081 0.419836
outer loop
vertex -0.238139 -0.002675 0.033747
vertex -0.159405 -0.009161 0.034753
vertex -0.238001 -0.001091 0.037185
endloop
endfacet
facet normal -0.076543 -0.884258 0.460684
outer loop
vertex -0.238001 -0.001091 0.037185
vertex -0.159405 -0.009161 0.034753
vertex -0.159249 -0.007373 0.038211
endloop
endfacet
facet normal -0.073447 -0.830506 0.552146
outer loop
vertex -0.238001 -0.001091 0.037185
vertex -0.159249 -0.007373 0.038211
vertex -0.237818 0.000993 0.040343
endloop
endfacet
facet normal -0.069326 -0.802218 0.592992
outer loop
vertex -0.237818 0.000993 0.040343
vertex -0.159249 -0.007373 0.038211
vertex -0.159047 -0.005071 0.041348
endloop
endfacet
facet normal -0.065377 -0.737862 0.671778
outer loop
vertex -0.237818 0.000993 0.040343
vertex -0.159047 -0.005071 0.041348
vertex -0.237597 0.003528 0.043149
endloop
endfacet
facet normal -0.060412 -0.700696 0.710897
outer loop
vertex -0.237597 0.003528 0.043149
vertex -0.159047 -0.005071 0.041348
vertex -0.158806 -0.002312 0.044088
endloop
endfacet
facet normal -0.055820 -0.628275 0.775986
outer loop
vertex -0.208172 0.003200 0.045000
vertex -0.237398 0.005796 0.045000
vertex -0.237597 0.003528 0.043149
endloop
endfacet
facet normal -0.055820 -0.628274 0.775987
outer loop
vertex -0.208172 0.003200 0.045000
vertex -0.237597 0.003528 0.043149
vertex -0.158806 -0.002312 0.044088
endloop
endfacet
facet normal -0.050013 -0.582154 0.811539
outer loop
vertex -0.208172 0.003200 0.045000
vertex -0.158806 -0.002312 0.044088
vertex -0.158695 -0.001051 0.045000
endloop
endfacet
facet normal 0.051836 0.581994 0.811539
outer loop
vertex -0.205565 0.032997 0.045000
vertex -0.156102 0.028592 0.045000
vertex -0.155992 0.029853 0.044088
endloop
endfacet
facet normal 0.054127 0.628424 0.775986
outer loop
vertex -0.205565 0.032997 0.045000
vertex -0.155992 0.029853 0.044088
vertex -0.234600 0.037784 0.043149
endloop
endfacet
facet normal 0.054128 0.628423 0.775986
outer loop
vertex -0.205565 0.032997 0.045000
vertex -0.234600 0.037784 0.043149
vertex -0.234798 0.035515 0.045000
endloop
endfacet
facet normal 0.062181 0.700541 0.710898
outer loop
vertex -0.234600 0.037784 0.043149
vertex -0.155992 0.029853 0.044088
vertex -0.155750 0.032612 0.041348
endloop
endfacet
facet normal 0.063744 0.738005 0.671778
outer loop
vertex -0.234600 0.037784 0.043149
vertex -0.155750 0.032612 0.041348
vertex -0.234378 0.040319 0.040343
endloop
endfacet
facet normal 0.071031 0.802069 0.592993
outer loop
vertex -0.234378 0.040319 0.040343
vertex -0.155750 0.032612 0.041348
vertex -0.155549 0.034914 0.038211
endloop
endfacet
facet normal 0.071885 0.830643 0.552146
outer loop
vertex -0.234378 0.040319 0.040343
vertex -0.155549 0.034914 0.038211
vertex -0.234196 0.042402 0.037185
endloop
endfacet
facet normal 0.078170 0.884115 0.460684
outer loop
vertex -0.234196 0.042402 0.037185
vertex -0.155549 0.034914 0.038211
vertex -0.155393 0.036702 0.034753
endloop
endfacet
facet normal 0.078363 0.904211 0.419835
outer loop
vertex -0.234196 0.042402 0.037185
vertex -0.155393 0.036702 0.034753
vertex -0.234057 0.043987 0.033747
endloop
endfacet
facet normal 0.083424 0.944687 0.317186
outer loop
vertex -0.234057 0.043987 0.033747
vertex -0.155393 0.036702 0.034753
vertex -0.155285 0.037933 0.031058
endloop
endfacet
facet normal 0.083031 0.957018 0.277888
outer loop
vertex -0.234057 0.043987 0.033747
vertex -0.155285 0.037933 0.031058
vertex -0.233965 0.045035 0.030108
endloop
endfacet
facet normal 0.086666 0.982312 0.165988
outer loop
vertex -0.233965 0.045035 0.030108
vertex -0.155285 0.037933 0.031058
vertex -0.155228 0.038577 0.027216
endloop
endfacet
facet normal 0.085782 0.987855 0.129555
outer loop
vertex -0.233965 0.045035 0.030108
vertex -0.155228 0.038577 0.027216
vertex -0.233922 0.045524 0.026352
endloop
endfacet
facet normal 0.087813 0.996079 0.010755
outer loop
vertex -0.233922 0.045524 0.026352
vertex -0.155228 0.038577 0.027216
vertex -0.155225 0.038619 0.023320
endloop
endfacet
facet normal 0.086555 0.996010 -0.021745
outer loop
vertex -0.233922 0.045524 0.026352
vertex -0.155225 0.038619 0.023320
vertex -0.233930 0.045442 0.022564
endloop
endfacet
facet normal 0.086839 0.985651 -0.144742
outer loop
vertex -0.233930 0.045442 0.022564
vertex -0.155225 0.038619 0.023320
vertex -0.155274 0.038057 0.019465
endloop
endfacet
facet normal 0.085334 0.981297 -0.172552
outer loop
vertex -0.233930 0.045442 0.022564
vertex -0.155274 0.038057 0.019465
vertex -0.233987 0.044791 0.018833
endloop
endfacet
facet normal 0.083763 0.951284 -0.296720
outer loop
vertex -0.233987 0.044791 0.018833
vertex -0.155274 0.038057 0.019465
vertex -0.155375 0.036906 0.015744
endloop
endfacet
facet normal 0.082147 0.944056 -0.319390
outer loop
vertex -0.233987 0.044791 0.018833
vertex -0.155375 0.036906 0.015744
vertex -0.234092 0.043586 0.015243
endloop
endfacet
facet normal 0.078660 0.893811 -0.441492
outer loop
vertex -0.234092 0.043586 0.015243
vertex -0.155375 0.036906 0.015744
vertex -0.155525 0.035192 0.012248
endloop
endfacet
facet normal 0.077070 0.885137 -0.458903
outer loop
vertex -0.234092 0.043586 0.015243
vertex -0.155525 0.035192 0.012248
vertex -0.234244 0.041854 0.011878
endloop
endfacet
facet normal 0.071652 0.814629 -0.575539
outer loop
vertex -0.234244 0.041854 0.011878
vertex -0.155525 0.035192 0.012248
vertex -0.155720 0.032958 0.009062
endloop
endfacet
facet normal 0.070221 0.805896 -0.587878
outer loop
vertex -0.234244 0.041854 0.011878
vertex -0.155720 0.032958 0.009062
vertex -0.234438 0.039636 0.008813
endloop
endfacet
facet normal 0.062907 0.715659 -0.695611
outer loop
vertex -0.234438 0.039636 0.008813
vertex -0.155720 0.032958 0.009062
vertex -0.155956 0.030258 0.006263
endloop
endfacet
facet normal 0.061759 0.708154 -0.703351
outer loop
vertex -0.234438 0.039636 0.008813
vertex -0.155956 0.030258 0.006263
vertex -0.234670 0.036981 0.006120
endloop
endfacet
facet normal 0.052635 0.599309 -0.798786
outer loop
vertex -0.234670 0.036981 0.006120
vertex -0.155956 0.030258 0.006263
vertex -0.156228 0.027158 0.003919
endloop
endfacet
facet normal 0.051880 0.594151 -0.802678
outer loop
vertex -0.234670 0.036981 0.006120
vertex -0.156228 0.027158 0.003919
vertex -0.234935 0.033952 0.003861
endloop
endfacet
facet normal 0.040920 0.466496 -0.883576
outer loop
vertex -0.234935 0.033952 0.003861
vertex -0.156228 0.027158 0.003919
vertex -0.235227 0.030618 0.002087
endloop
endfacet
facet normal 0.040981 0.468412 -0.882559
outer loop
vertex -0.235227 0.030618 0.002087
vertex -0.156228 0.027158 0.003919
vertex -0.077528 0.020273 0.003919
endloop
endfacet
facet normal 0.040981 0.468411 -0.882560
outer loop
vertex -0.235227 0.030618 0.002087
vertex -0.077528 0.020273 0.003919
vertex 0.001171 0.013387 0.003919
endloop
endfacet
facet normal 0.052434 0.599327 -0.798785
outer loop
vertex 0.001171 0.013387 0.003919
vertex -0.077528 0.020273 0.003919
vertex 0.001442 0.016488 0.006263
endloop
endfacet
facet normal 0.052434 0.599327 -0.798785
outer loop
vertex 0.001171 0.013387 0.003919
vertex 0.001442 0.016488 0.006263
vertex 0.080142 0.009603 0.006263
endloop
endfacet
facet normal 0.062614 0.715686 -0.695610
outer loop
vertex 0.080142 0.009603 0.006263
vertex 0.001442 0.016488 0.006263
vertex 0.080378 0.012302 0.009062
endloop
endfacet
facet normal 0.062614 0.715686 -0.695610
outer loop
vertex 0.080142 0.009603 0.006263
vertex 0.080378 0.012302 0.009062
vertex 0.159077 0.005417 0.009062
endloop
endfacet
facet normal 0.071274 0.814661 -0.575540
outer loop
vertex 0.159077 0.005417 0.009062
vertex 0.080378 0.012302 0.009062
vertex 0.159273 0.007651 0.012248
endloop
endfacet
facet normal 0.070895 0.814694 -0.575540
outer loop
vertex 0.159077 0.005417 0.009062
vertex 0.159273 0.007651 0.012248
vertex 0.237953 0.000542 0.011878
endloop
endfacet
facet normal 0.077803 0.885073 -0.458903
outer loop
vertex 0.237953 0.000542 0.011878
vertex 0.159273 0.007651 0.012248
vertex 0.238104 0.002274 0.015243
endloop
endfacet
facet normal 0.077743 0.893891 -0.441491
outer loop
vertex 0.238104 0.002274 0.015243
vertex 0.159273 0.007651 0.012248
vertex 0.159423 0.009365 0.015744
endloop
endfacet
facet normal 0.083034 0.943977 -0.319393
outer loop
vertex 0.238104 0.002274 0.015243
vertex 0.159423 0.009365 0.015744
vertex 0.238210 0.003479 0.018833
endloop
endfacet
facet normal 0.082698 0.951377 -0.296719
outer loop
vertex 0.238210 0.003479 0.018833
vertex 0.159423 0.009365 0.015744
vertex 0.159524 0.010516 0.019465
endloop
endfacet
facet normal 0.086363 0.981207 -0.172551
outer loop
vertex 0.238210 0.003479 0.018833
vertex 0.159524 0.010516 0.019465
vertex 0.238267 0.004130 0.022564
endloop
endfacet
facet normal 0.085638 0.985757 -0.144741
outer loop
vertex 0.238267 0.004130 0.022564
vertex 0.159524 0.010516 0.019465
vertex 0.159573 0.011078 0.023320
endloop
endfacet
facet normal 0.087715 0.995908 -0.021746
outer loop
vertex 0.238267 0.004130 0.022564
vertex 0.159573 0.011078 0.023320
vertex 0.238274 0.004213 0.026352
endloop
endfacet
facet normal 0.086488 0.996195 0.010753
outer loop
vertex 0.238274 0.004213 0.026352
vertex 0.159573 0.011078 0.023320
vertex 0.159569 0.011036 0.027216
endloop
endfacet
facet normal 0.087060 0.987742 0.129557
outer loop
vertex 0.238274 0.004213 0.026352
vertex 0.159569 0.011036 0.027216
vertex 0.238231 0.003724 0.030108
endloop
endfacet
facet normal 0.085228 0.982438 0.165986
outer loop
vertex 0.238231 0.003724 0.030108
vertex 0.159569 0.011036 0.027216
vertex 0.159513 0.010392 0.031058
endloop
endfacet
facet normal 0.084415 0.956898 0.277887
outer loop
vertex 0.238231 0.003724 0.030108
vertex 0.159513 0.010392 0.031058
vertex 0.238139 0.002675 0.033747
endloop
endfacet
facet normal 0.081886 0.944821 0.317187
outer loop
vertex 0.238139 0.002675 0.033747
vertex 0.159513 0.010392 0.031058
vertex 0.159405 0.009161 0.034753
endloop
endfacet
facet normal 0.079842 0.904081 0.419836
outer loop
vertex 0.238139 0.002675 0.033747
vertex 0.159405 0.009161 0.034753
vertex 0.238001 0.001091 0.037185
endloop
endfacet
facet normal 0.076543 0.884257 0.460684
outer loop
vertex 0.238001 0.001091 0.037185
vertex 0.159405 0.009161 0.034753
vertex 0.159249 0.007373 0.038211
endloop
endfacet
facet normal 0.073447 0.830506 0.552145
outer loop
vertex 0.238001 0.001091 0.037185
vertex 0.159249 0.007373 0.038211
vertex 0.237818 -0.000993 0.040343
endloop
endfacet
facet normal 0.069326 0.802218 0.592992
outer loop
vertex 0.237818 -0.000993 0.040343
vertex 0.159249 0.007373 0.038211
vertex 0.159047 0.005071 0.041348
endloop
endfacet
facet normal 0.065377 0.737862 0.671778
outer loop
vertex 0.237818 -0.000993 0.040343
vertex 0.159047 0.005071 0.041348
vertex 0.237597 -0.003528 0.043149
endloop
endfacet
facet normal 0.060412 0.700696 0.710897
outer loop
vertex 0.237597 -0.003528 0.043149
vertex 0.159047 0.005071 0.041348
vertex 0.158806 0.002312 0.044088
endloop
endfacet
facet normal 0.055820 0.628275 0.775986
outer loop
vertex 0.237597 -0.003528 0.043149
vertex 0.158806 0.002312 0.044088
vertex 0.208172 -0.003200 0.045000
endloop
endfacet
facet normal 0.055820 0.628275 0.775986
outer loop
vertex 0.237597 -0.003528 0.043149
vertex 0.208172 -0.003200 0.045000
vertex 0.237398 -0.005796 0.045000
endloop
endfacet
facet normal 0.050013 0.582154 0.811539
outer loop
vertex 0.158695 0.001051 0.045000
vertex 0.208172 -0.003200 0.045000
vertex 0.158806 0.002312 0.044088
endloop
endfacet
facet normal -0.051836 -0.581994 0.811539
outer loop
vertex 0.155992 -0.029853 0.044088
vertex 0.205565 -0.032997 0.045000
vertex 0.156102 -0.028592 0.045000
endloop
endfacet
facet normal -0.054127 -0.628424 0.775985
outer loop
vertex 0.155992 -0.029853 0.044088
vertex 0.234600 -0.037784 0.043149
vertex 0.234798 -0.035515 0.045000
endloop
endfacet
facet normal -0.054127 -0.628418 0.775990
outer loop
vertex 0.155992 -0.029853 0.044088
vertex 0.234798 -0.035515 0.045000
vertex 0.205565 -0.032997 0.045000
endloop
endfacet
facet normal -0.062181 -0.700541 0.710898
outer loop
vertex 0.234600 -0.037784 0.043149
vertex 0.155992 -0.029853 0.044088
vertex 0.155750 -0.032612 0.041348
endloop
endfacet
facet normal -0.063744 -0.738005 0.671778
outer loop
vertex 0.234600 -0.037784 0.043149
vertex 0.155750 -0.032612 0.041348
vertex 0.234378 -0.040319 0.040343
endloop
endfacet
facet normal -0.071031 -0.802069 0.592993
outer loop
vertex 0.234378 -0.040319 0.040343
vertex 0.155750 -0.032612 0.041348
vertex 0.155549 -0.034914 0.038211
endloop
endfacet
facet normal -0.071885 -0.830643 0.552146
outer loop
vertex 0.234378 -0.040319 0.040343
vertex 0.155549 -0.034914 0.038211
vertex 0.234196 -0.042402 0.037185
endloop
endfacet
facet normal -0.078170 -0.884115 0.460684
outer loop
vertex 0.234196 -0.042402 0.037185
vertex 0.155549 -0.034914 0.038211
vertex 0.155393 -0.036702 0.034753
endloop
endfacet
facet normal -0.078363 -0.904211 0.419835
outer loop
vertex 0.234196 -0.042402 0.037185
vertex 0.155393 -0.036702 0.034753
vertex 0.234057 -0.043987 0.033747
endloop
endfacet
facet normal -0.083424 -0.944687 0.317186
outer loop
vertex 0.234057 -0.043987 0.033747
vertex 0.155393 -0.036702 0.034753
vertex 0.155285 -0.037933 0.031058
endloop
endfacet
facet normal -0.083031 -0.957018 0.277888
outer loop
vertex 0.234057 -0.043987 0.033747
vertex 0.155285 -0.037933 0.031058
vertex 0.233965 -0.045035 0.030108
endloop
endfacet
facet normal -0.086666 -0.982312 0.165988
outer loop
vertex 0.233965 -0.045035 0.030108
vertex 0.155285 -0.037933 0.031058
vertex 0.155228 -0.038577 0.027216
endloop
endfacet
facet normal -0.085782 -0.987855 0.129555
outer loop
vertex 0.233965 -0.045035 0.030108
vertex 0.155228 -0.038577 0.027216
vertex 0.233922 -0.045524 0.026352
endloop
endfacet
facet normal -0.087813 -0.996079 0.010755
outer loop
vertex 0.233922 -0.045524 0.026352
vertex 0.155228 -0.038577 0.027216
vertex 0.155225 -0.038619 0.023320
endloop
endfacet
facet normal -0.086555 -0.996010 -0.021745
outer loop
vertex 0.233922 -0.045524 0.026352
vertex 0.155225 -0.038619 0.023320
vertex 0.233930 -0.045442 0.022564
endloop
endfacet
facet normal -0.086839 -0.985651 -0.144742
outer loop
vertex 0.233930 -0.045442 0.022564
vertex 0.155225 -0.038619 0.023320
vertex 0.155274 -0.038057 0.019465
endloop
endfacet
facet normal -0.085334 -0.981297 -0.172552
outer loop
vertex 0.233930 -0.045442 0.022564
vertex 0.155274 -0.038057 0.019465
vertex 0.233987 -0.044791 0.018833
endloop
endfacet
facet normal -0.083763 -0.951284 -0.296721
outer loop
vertex 0.233987 -0.044791 0.018833
vertex 0.155274 -0.038057 0.019465
vertex 0.155375 -0.036906 0.015744
endloop
endfacet
facet normal -0.082147 -0.944056 -0.319390
outer loop
vertex 0.233987 -0.044791 0.018833
vertex 0.155375 -0.036906 0.015744
vertex 0.234092 -0.043586 0.015243
endloop
endfacet
facet normal -0.078660 -0.893811 -0.441492
outer loop
vertex 0.234092 -0.043586 0.015243
vertex 0.155375 -0.036906 0.015744
vertex 0.155525 -0.035192 0.012248
endloop
endfacet
facet normal -0.077070 -0.885137 -0.458903
outer loop
vertex 0.234092 -0.043586 0.015243
vertex 0.155525 -0.035192 0.012248
vertex 0.234244 -0.041854 0.011878
endloop
endfacet
facet normal -0.071652 -0.814629 -0.575539
outer loop
vertex 0.234244 -0.041854 0.011878
vertex 0.155525 -0.035192 0.012248
vertex 0.155720 -0.032958 0.009062
endloop
endfacet
facet normal -0.070221 -0.805896 -0.587878
outer loop
vertex 0.234244 -0.041854 0.011878
vertex 0.155720 -0.032958 0.009062
vertex 0.234438 -0.039636 0.008813
endloop
endfacet
facet normal -0.062907 -0.715660 -0.695611
outer loop
vertex 0.234438 -0.039636 0.008813
vertex 0.155720 -0.032958 0.009062
vertex 0.155956 -0.030258 0.006263
endloop
endfacet
facet normal -0.061759 -0.708154 -0.703351
outer loop
vertex 0.234438 -0.039636 0.008813
vertex 0.155956 -0.030258 0.006263
vertex 0.234670 -0.036981 0.006120
endloop
endfacet
facet normal -0.052635 -0.599308 -0.798786
outer loop
vertex 0.234670 -0.036981 0.006120
vertex 0.155956 -0.030258 0.006263
vertex 0.156228 -0.027158 0.003919
endloop
endfacet
facet normal -0.051880 -0.594151 -0.802678
outer loop
vertex 0.234670 -0.036981 0.006120
vertex 0.156228 -0.027158 0.003919
vertex 0.234935 -0.033952 0.003861
endloop
endfacet
facet normal 0.070789 0.805848 -0.587876
outer loop
vertex 0.237953 0.000542 0.011878
vertex 0.237759 -0.001676 0.008813
vertex 0.159077 0.005417 0.009062
endloop
endfacet
facet normal 0.062322 0.715711 -0.695610
outer loop
vertex 0.159077 0.005417 0.009062
vertex 0.237759 -0.001676 0.008813
vertex 0.158841 0.002717 0.006263
endloop
endfacet
facet normal 0.062614 0.715686 -0.695610
outer loop
vertex 0.159077 0.005417 0.009062
vertex 0.158841 0.002717 0.006263
vertex 0.080142 0.009603 0.006263
endloop
endfacet
facet normal 0.052434 0.599327 -0.798785
outer loop
vertex 0.080142 0.009603 0.006263
vertex 0.158841 0.002717 0.006263
vertex 0.079871 0.006502 0.003919
endloop
endfacet
facet normal 0.052434 0.599327 -0.798785
outer loop
vertex 0.080142 0.009603 0.006263
vertex 0.079871 0.006502 0.003919
vertex 0.001171 0.013387 0.003919
endloop
endfacet
facet normal 0.040981 0.468414 -0.882558
outer loop
vertex 0.001171 0.013387 0.003919
vertex 0.079871 0.006502 0.003919
vertex -0.235227 0.030618 0.002087
endloop
endfacet
facet normal 0.062149 0.708119 -0.703352
outer loop
vertex 0.237759 -0.001676 0.008813
vertex 0.237526 -0.004331 0.006120
vertex 0.158841 0.002717 0.006263
endloop
endfacet
facet normal 0.052233 0.599344 -0.798785
outer loop
vertex 0.158841 0.002717 0.006263
vertex 0.237526 -0.004331 0.006120
vertex 0.158570 -0.000383 0.003919
endloop
endfacet
facet normal 0.052434 0.599327 -0.798785
outer loop
vertex 0.158841 0.002717 0.006263
vertex 0.158570 -0.000383 0.003919
vertex 0.079871 0.006502 0.003919
endloop
endfacet
facet normal 0.040981 0.468411 -0.882560
outer loop
vertex 0.079871 0.006502 0.003919
vertex 0.158570 -0.000383 0.003919
vertex -0.235227 0.030618 0.002087
endloop
endfacet
facet normal 0.052081 0.594133 -0.802679
outer loop
vertex 0.237526 -0.004331 0.006120
vertex 0.237261 -0.007360 0.003861
vertex 0.158570 -0.000383 0.003919
endloop
endfacet
facet normal 0.041600 0.476532 -0.878172
outer loop
vertex 0.158570 -0.000383 0.003919
vertex 0.237261 -0.007360 0.003861
vertex -0.235227 0.030618 0.002087
endloop
endfacet
facet normal 0.040814 0.466506 -0.883576
outer loop
vertex 0.237261 -0.007360 0.003861
vertex 0.236970 -0.010694 0.002087
vertex -0.235227 0.030618 0.002087
endloop
endfacet
facet normal -0.070789 -0.805848 -0.587876
outer loop
vertex -0.237953 -0.000542 0.011878
vertex -0.237759 0.001676 0.008813
vertex -0.159077 -0.005417 0.009062
endloop
endfacet
facet normal -0.062322 -0.715712 -0.695610
outer loop
vertex -0.159077 -0.005417 0.009062
vertex -0.237759 0.001676 0.008813
vertex -0.158841 -0.002717 0.006263
endloop
endfacet
facet normal -0.062614 -0.715686 -0.695610
outer loop
vertex -0.159077 -0.005417 0.009062
vertex -0.158841 -0.002717 0.006263
vertex -0.080142 -0.009602 0.006263
endloop
endfacet
facet normal -0.052434 -0.599327 -0.798785
outer loop
vertex -0.080142 -0.009602 0.006263
vertex -0.158841 -0.002717 0.006263
vertex -0.079871 -0.006502 0.003919
endloop
endfacet
facet normal -0.052434 -0.599327 -0.798785
outer loop
vertex -0.080142 -0.009602 0.006263
vertex -0.079871 -0.006502 0.003919
vertex -0.001171 -0.013387 0.003919
endloop
endfacet
facet normal -0.040981 -0.468413 -0.882559
outer loop
vertex -0.001171 -0.013387 0.003919
vertex -0.079871 -0.006502 0.003919
vertex 0.235227 -0.030618 0.002087
endloop
endfacet
facet normal -0.062149 -0.708119 -0.703352
outer loop
vertex -0.237759 0.001676 0.008813
vertex -0.237526 0.004331 0.006120
vertex -0.158841 -0.002717 0.006263
endloop
endfacet
facet normal -0.052233 -0.599344 -0.798785
outer loop
vertex -0.158841 -0.002717 0.006263
vertex -0.237526 0.004331 0.006120
vertex -0.158570 0.000383 0.003919
endloop
endfacet
facet normal -0.052434 -0.599327 -0.798785
outer loop
vertex -0.158841 -0.002717 0.006263
vertex -0.158570 0.000383 0.003919
vertex -0.079871 -0.006502 0.003919
endloop
endfacet
facet normal -0.040981 -0.468410 -0.882560
outer loop
vertex -0.079871 -0.006502 0.003919
vertex -0.158570 0.000383 0.003919
vertex 0.235227 -0.030618 0.002087
endloop
endfacet
facet normal -0.052081 -0.594133 -0.802679
outer loop
vertex -0.237526 0.004331 0.006120
vertex -0.237261 0.007360 0.003861
vertex -0.158570 0.000383 0.003919
endloop
endfacet
facet normal -0.041600 -0.476535 -0.878171
outer loop
vertex -0.158570 0.000383 0.003919
vertex -0.237261 0.007360 0.003861
vertex 0.235227 -0.030618 0.002087
endloop
endfacet
facet normal -0.040814 -0.466506 -0.883576
outer loop
vertex -0.237261 0.007360 0.003861
vertex -0.236970 0.010694 0.002087
vertex 0.235227 -0.030618 0.002087
endloop
endfacet
facet normal -0.052434 -0.599327 -0.798785
outer loop
vertex 0.077528 -0.020273 0.003919
vertex 0.156228 -0.027158 0.003919
vertex 0.077257 -0.023373 0.006263
endloop
endfacet
facet normal -0.052434 -0.599326 -0.798786
outer loop
vertex 0.077257 -0.023373 0.006263
vertex 0.156228 -0.027158 0.003919
vertex 0.155956 -0.030258 0.006263
endloop
endfacet
facet normal -0.062614 -0.715686 -0.695609
outer loop
vertex 0.077257 -0.023373 0.006263
vertex 0.155956 -0.030258 0.006263
vertex 0.077021 -0.026073 0.009062
endloop
endfacet
facet normal -0.062614 -0.715685 -0.695611
outer loop
vertex 0.077021 -0.026073 0.009062
vertex 0.155956 -0.030258 0.006263
vertex 0.155720 -0.032958 0.009062
endloop
endfacet
facet normal -0.071274 -0.814662 -0.575539
outer loop
vertex 0.077021 -0.026073 0.009062
vertex 0.155720 -0.032958 0.009062
vertex 0.076825 -0.028307 0.012248
endloop
endfacet
facet normal -0.071274 -0.814661 -0.575541
outer loop
vertex 0.076825 -0.028307 0.012248
vertex 0.155720 -0.032958 0.009062
vertex 0.155525 -0.035192 0.012248
endloop
endfacet
facet normal -0.078202 -0.893852 -0.441490
outer loop
vertex 0.076825 -0.028307 0.012248
vertex 0.155525 -0.035192 0.012248
vertex 0.076675 -0.030020 0.015744
endloop
endfacet
facet normal -0.078202 -0.893851 -0.441491
outer loop
vertex 0.076675 -0.030020 0.015744
vertex 0.155525 -0.035192 0.012248
vertex 0.155375 -0.036906 0.015744
endloop
endfacet
facet normal -0.083231 -0.951331 -0.296720
outer loop
vertex 0.076675 -0.030020 0.015744
vertex 0.155375 -0.036906 0.015744
vertex 0.076575 -0.031172 0.019465
endloop
endfacet
facet normal -0.083231 -0.951331 -0.296719
outer loop
vertex 0.076575 -0.031172 0.019465
vertex 0.155375 -0.036906 0.015744
vertex 0.155274 -0.038057 0.019465
endloop
endfacet
facet normal -0.086238 -0.985704 -0.144741
outer loop
vertex 0.076575 -0.031172 0.019465
vertex 0.155274 -0.038057 0.019465
vertex 0.076525 -0.031734 0.023320
endloop
endfacet
facet normal -0.086238 -0.985704 -0.144742
outer loop
vertex 0.076525 -0.031734 0.023320
vertex 0.155274 -0.038057 0.019465
vertex 0.155225 -0.038619 0.023320
endloop
endfacet
facet normal -0.087151 -0.996137 0.010754
outer loop
vertex 0.076525 -0.031734 0.023320
vertex 0.155225 -0.038619 0.023320
vertex 0.076529 -0.031692 0.027216
endloop
endfacet
facet normal -0.087151 -0.996137 0.010754
outer loop
vertex 0.076529 -0.031692 0.027216
vertex 0.155225 -0.038619 0.023320
vertex 0.155228 -0.038577 0.027216
endloop
endfacet
facet normal -0.085947 -0.982376 0.165984
outer loop
vertex 0.076529 -0.031692 0.027216
vertex 0.155228 -0.038577 0.027216
vertex 0.076585 -0.031048 0.031058
endloop
endfacet
facet normal -0.085947 -0.982376 0.165985
outer loop
vertex 0.076585 -0.031048 0.031058
vertex 0.155228 -0.038577 0.027216
vertex 0.155285 -0.037933 0.031058
endloop
endfacet
facet normal -0.082655 -0.944754 0.317189
outer loop
vertex 0.076585 -0.031048 0.031058
vertex 0.155285 -0.037933 0.031058
vertex 0.076693 -0.029817 0.034753
endloop
endfacet
facet normal -0.082655 -0.944755 0.317186
outer loop
vertex 0.076693 -0.029817 0.034753
vertex 0.155285 -0.037933 0.031058
vertex 0.155393 -0.036702 0.034753
endloop
endfacet
facet normal -0.077356 -0.884187 0.460684
outer loop
vertex 0.076693 -0.029817 0.034753
vertex 0.155393 -0.036702 0.034753
vertex 0.076850 -0.028029 0.038211
endloop
endfacet
facet normal -0.077356 -0.884187 0.460684
outer loop
vertex 0.076850 -0.028029 0.038211
vertex 0.155393 -0.036702 0.034753
vertex 0.155549 -0.034914 0.038211
endloop
endfacet
facet normal -0.070178 -0.802144 0.592993
outer loop
vertex 0.076850 -0.028029 0.038211
vertex 0.155549 -0.034914 0.038211
vertex 0.077051 -0.025727 0.041348
endloop
endfacet
facet normal -0.070178 -0.802143 0.592993
outer loop
vertex 0.077051 -0.025727 0.041348
vertex 0.155549 -0.034914 0.038211
vertex 0.155750 -0.032612 0.041348
endloop
endfacet
facet normal -0.061296 -0.700619 0.710898
outer loop
vertex 0.077051 -0.025727 0.041348
vertex 0.155750 -0.032612 0.041348
vertex 0.077292 -0.022968 0.044088
endloop
endfacet
facet normal -0.061296 -0.700619 0.710898
outer loop
vertex 0.077292 -0.022968 0.044088
vertex 0.155750 -0.032612 0.041348
vertex 0.155992 -0.029853 0.044088
endloop
endfacet
facet normal -0.050925 -0.582075 0.811539
outer loop
vertex 0.124591 -0.025835 0.045000
vertex 0.077403 -0.021707 0.045000
vertex 0.077292 -0.022968 0.044088
endloop
endfacet
facet normal -0.050925 -0.582075 0.811539
outer loop
vertex 0.124591 -0.025835 0.045000
vertex 0.077292 -0.022968 0.044088
vertex 0.155992 -0.029853 0.044088
endloop
endfacet
facet normal -0.050925 -0.582075 0.811539
outer loop
vertex 0.155992 -0.029853 0.044088
vertex 0.156102 -0.028592 0.045000
vertex 0.124591 -0.025835 0.045000
endloop
endfacet
facet normal 0.050925 0.582075 0.811539
outer loop
vertex 0.079996 0.007936 0.045000
vertex 0.111507 0.005179 0.045000
vertex 0.080106 0.009197 0.044088
endloop
endfacet
facet normal 0.050925 0.582075 0.811539
outer loop
vertex 0.158695 0.001051 0.045000
vertex 0.158806 0.002312 0.044088
vertex 0.080106 0.009197 0.044088
endloop
endfacet
facet normal 0.050925 0.582075 0.811539
outer loop
vertex 0.158695 0.001051 0.045000
vertex 0.080106 0.009197 0.044088
vertex 0.111507 0.005179 0.045000
endloop
endfacet
facet normal 0.061296 0.700619 0.710898
outer loop
vertex 0.080106 0.009197 0.044088
vertex 0.158806 0.002312 0.044088
vertex 0.080348 0.011957 0.041348
endloop
endfacet
facet normal 0.061296 0.700619 0.710898
outer loop
vertex 0.080348 0.011957 0.041348
vertex 0.158806 0.002312 0.044088
vertex 0.159047 0.005071 0.041348
endloop
endfacet
facet normal 0.070179 0.802144 0.592993
outer loop
vertex 0.080348 0.011957 0.041348
vertex 0.159047 0.005071 0.041348
vertex 0.080549 0.014258 0.038211
endloop
endfacet
facet normal 0.070179 0.802144 0.592993
outer loop
vertex 0.080549 0.014258 0.038211
vertex 0.159047 0.005071 0.041348
vertex 0.159249 0.007373 0.038211
endloop
endfacet
facet normal 0.077356 0.884187 0.460684
outer loop
vertex 0.080549 0.014258 0.038211
vertex 0.159249 0.007373 0.038211
vertex 0.080706 0.016046 0.034753
endloop
endfacet
facet normal 0.077356 0.884187 0.460684
outer loop
vertex 0.080706 0.016046 0.034753
vertex 0.159249 0.007373 0.038211
vertex 0.159405 0.009161 0.034753
endloop
endfacet
facet normal 0.082655 0.944754 0.317188
outer loop
vertex 0.080706 0.016046 0.034753
vertex 0.159405 0.009161 0.034753
vertex 0.080813 0.017277 0.031058
endloop
endfacet
facet normal 0.082655 0.944754 0.317187
outer loop
vertex 0.080813 0.017277 0.031058
vertex 0.159405 0.009161 0.034753
vertex 0.159513 0.010392 0.031058
endloop
endfacet
facet normal 0.085947 0.982376 0.165986
outer loop
vertex 0.080813 0.017277 0.031058
vertex 0.159513 0.010392 0.031058
vertex 0.080870 0.017922 0.027216
endloop
endfacet
facet normal 0.085947 0.982376 0.165986
outer loop
vertex 0.080870 0.017922 0.027216
vertex 0.159513 0.010392 0.031058
vertex 0.159569 0.011036 0.027216
endloop
endfacet
facet normal 0.087151 0.996137 0.010753
outer loop
vertex 0.080870 0.017922 0.027216
vertex 0.159569 0.011036 0.027216
vertex 0.080873 0.017963 0.023320
endloop
endfacet
facet normal 0.087151 0.996137 0.010752
outer loop
vertex 0.080873 0.017963 0.023320
vertex 0.159569 0.011036 0.027216
vertex 0.159573 0.011078 0.023320
endloop
endfacet
facet normal 0.086238 0.985704 -0.144741
outer loop
vertex 0.080873 0.017963 0.023320
vertex 0.159573 0.011078 0.023320
vertex 0.080824 0.017401 0.019465
endloop
endfacet
facet normal 0.086238 0.985704 -0.144741
outer loop
vertex 0.080824 0.017401 0.019465
vertex 0.159573 0.011078 0.023320
vertex 0.159524 0.010516 0.019465
endloop
endfacet
facet normal 0.083231 0.951331 -0.296720
outer loop
vertex 0.080824 0.017401 0.019465
vertex 0.159524 0.010516 0.019465
vertex 0.080723 0.016250 0.015744
endloop
endfacet
facet normal 0.083231 0.951331 -0.296719
outer loop
vertex 0.080723 0.016250 0.015744
vertex 0.159524 0.010516 0.019465
vertex 0.159423 0.009365 0.015744
endloop
endfacet
facet normal 0.078202 0.893851 -0.441491
outer loop
vertex 0.080723 0.016250 0.015744
vertex 0.159423 0.009365 0.015744
vertex 0.080574 0.014536 0.012248
endloop
endfacet
facet normal 0.078202 0.893851 -0.441491
outer loop
vertex 0.080574 0.014536 0.012248
vertex 0.159423 0.009365 0.015744
vertex 0.159273 0.007651 0.012248
endloop
endfacet
facet normal 0.071274 0.814662 -0.575540
outer loop
vertex 0.080574 0.014536 0.012248
vertex 0.159273 0.007651 0.012248
vertex 0.080378 0.012302 0.009062
endloop
endfacet
facet normal -0.052434 -0.599326 -0.798786
outer loop
vertex 0.077528 -0.020273 0.003919
vertex 0.077257 -0.023373 0.006263
vertex -0.001442 -0.016488 0.006263
endloop
endfacet
facet normal -0.062614 -0.715686 -0.695610
outer loop
vertex -0.001442 -0.016488 0.006263
vertex 0.077257 -0.023373 0.006263
vertex -0.001679 -0.019188 0.009062
endloop
endfacet
facet normal -0.062614 -0.715686 -0.695610
outer loop
vertex -0.001442 -0.016488 0.006263
vertex -0.001679 -0.019188 0.009062
vertex -0.080378 -0.012302 0.009062
endloop
endfacet
facet normal -0.071274 -0.814662 -0.575540
outer loop
vertex -0.080378 -0.012302 0.009062
vertex -0.001679 -0.019188 0.009062
vertex -0.080574 -0.014536 0.012248
endloop
endfacet
facet normal -0.071274 -0.814662 -0.575540
outer loop
vertex -0.080378 -0.012302 0.009062
vertex -0.080574 -0.014536 0.012248
vertex -0.159273 -0.007651 0.012248
endloop
endfacet
facet normal -0.078202 -0.893851 -0.441491
outer loop
vertex -0.159273 -0.007651 0.012248
vertex -0.080574 -0.014536 0.012248
vertex -0.159423 -0.009364 0.015744
endloop
endfacet
facet normal -0.062614 -0.715686 -0.695610
outer loop
vertex -0.001679 -0.019188 0.009062
vertex 0.077257 -0.023373 0.006263
vertex 0.077021 -0.026073 0.009062
endloop
endfacet
facet normal -0.071274 -0.814662 -0.575540
outer loop
vertex -0.001679 -0.019188 0.009062
vertex 0.077021 -0.026073 0.009062
vertex -0.001874 -0.021422 0.012248
endloop
endfacet
facet normal -0.071274 -0.814661 -0.575541
outer loop
vertex -0.001874 -0.021422 0.012248
vertex 0.077021 -0.026073 0.009062
vertex 0.076825 -0.028307 0.012248
endloop
endfacet
facet normal -0.078202 -0.893851 -0.441491
outer loop
vertex -0.001874 -0.021422 0.012248
vertex 0.076825 -0.028307 0.012248
vertex -0.002024 -0.023135 0.015744
endloop
endfacet
facet normal -0.078202 -0.893851 -0.441492
outer loop
vertex -0.002024 -0.023135 0.015744
vertex 0.076825 -0.028307 0.012248
vertex 0.076675 -0.030020 0.015744
endloop
endfacet
facet normal -0.083231 -0.951331 -0.296718
outer loop
vertex -0.002024 -0.023135 0.015744
vertex 0.076675 -0.030020 0.015744
vertex -0.002125 -0.024287 0.019465
endloop
endfacet
facet normal -0.083231 -0.951331 -0.296720
outer loop
vertex -0.002125 -0.024287 0.019465
vertex 0.076675 -0.030020 0.015744
vertex 0.076575 -0.031172 0.019465
endloop
endfacet
facet normal -0.086238 -0.985704 -0.144741
outer loop
vertex -0.002125 -0.024287 0.019465
vertex 0.076575 -0.031172 0.019465
vertex -0.002174 -0.024849 0.023320
endloop
endfacet
facet normal -0.086238 -0.985704 -0.144741
outer loop
vertex -0.002174 -0.024849 0.023320
vertex 0.076575 -0.031172 0.019465
vertex 0.076525 -0.031734 0.023320
endloop
endfacet
facet normal -0.087151 -0.996137 0.010752
outer loop
vertex -0.002174 -0.024849 0.023320
vertex 0.076525 -0.031734 0.023320
vertex -0.002170 -0.024807 0.027216
endloop
endfacet
facet normal -0.087151 -0.996137 0.010754
outer loop
vertex -0.002170 -0.024807 0.027216
vertex 0.076525 -0.031734 0.023320
vertex 0.076529 -0.031692 0.027216
endloop
endfacet
facet normal -0.085947 -0.982376 0.165985
outer loop
vertex -0.002170 -0.024807 0.027216
vertex 0.076529 -0.031692 0.027216
vertex -0.002114 -0.024163 0.031058
endloop
endfacet
facet normal -0.085947 -0.982376 0.165987
outer loop
vertex -0.002114 -0.024163 0.031058
vertex 0.076529 -0.031692 0.027216
vertex 0.076585 -0.031048 0.031058
endloop
endfacet
facet normal -0.082655 -0.944754 0.317186
outer loop
vertex -0.002114 -0.024163 0.031058
vertex 0.076585 -0.031048 0.031058
vertex -0.002006 -0.022931 0.034753
endloop
endfacet
facet normal -0.082655 -0.944754 0.317187
outer loop
vertex -0.002006 -0.022931 0.034753
vertex 0.076585 -0.031048 0.031058
vertex 0.076693 -0.029817 0.034753
endloop
endfacet
facet normal -0.077356 -0.884187 0.460684
outer loop
vertex -0.002006 -0.022931 0.034753
vertex 0.076693 -0.029817 0.034753
vertex -0.001850 -0.021143 0.038211
endloop
endfacet
facet normal -0.077357 -0.884186 0.460685
outer loop
vertex -0.001850 -0.021143 0.038211
vertex 0.076693 -0.029817 0.034753
vertex 0.076850 -0.028029 0.038211
endloop
endfacet
facet normal -0.070179 -0.802144 0.592992
outer loop
vertex -0.001850 -0.021143 0.038211
vertex 0.076850 -0.028029 0.038211
vertex -0.001648 -0.018842 0.041348
endloop
endfacet
facet normal -0.070179 -0.802144 0.592993
outer loop
vertex -0.001648 -0.018842 0.041348
vertex 0.076850 -0.028029 0.038211
vertex 0.077051 -0.025727 0.041348
endloop
endfacet
facet normal -0.061296 -0.700619 0.710898
outer loop
vertex -0.001648 -0.018842 0.041348
vertex 0.077051 -0.025727 0.041348
vertex -0.001407 -0.016083 0.044088
endloop
endfacet
facet normal -0.061296 -0.700619 0.710898
outer loop
vertex -0.001407 -0.016083 0.044088
vertex 0.077051 -0.025727 0.041348
vertex 0.077292 -0.022968 0.044088
endloop
endfacet
facet normal -0.050925 -0.582074 0.811539
outer loop
vertex 0.045892 -0.018950 0.045000
vertex -0.001297 -0.014821 0.045000
vertex -0.001407 -0.016083 0.044088
endloop
endfacet
facet normal -0.050925 -0.582075 0.811539
outer loop
vertex 0.045892 -0.018950 0.045000
vertex -0.001407 -0.016083 0.044088
vertex 0.077292 -0.022968 0.044088
endloop
endfacet
facet normal -0.050925 -0.582075 0.811539
outer loop
vertex 0.045892 -0.018950 0.045000
vertex 0.077292 -0.022968 0.044088
vertex 0.077403 -0.021707 0.045000
endloop
endfacet
facet normal 0.050925 0.582074 0.811539
outer loop
vertex 0.032808 0.012065 0.045000
vertex 0.001407 0.016083 0.044088
vertex 0.001297 0.014821 0.045000
endloop
endfacet
facet normal 0.050925 0.582074 0.811539
outer loop
vertex 0.080106 0.009197 0.044088
vertex 0.001407 0.016083 0.044088
vertex 0.032808 0.012065 0.045000
endloop
endfacet
facet normal 0.050925 0.582075 0.811539
outer loop
vertex 0.080106 0.009197 0.044088
vertex 0.032808 0.012065 0.045000
vertex 0.079996 0.007936 0.045000
endloop
endfacet
facet normal 0.061296 0.700619 0.710898
outer loop
vertex 0.001407 0.016083 0.044088
vertex 0.080106 0.009197 0.044088
vertex 0.001648 0.018842 0.041348
endloop
endfacet
facet normal 0.061296 0.700619 0.710898
outer loop
vertex 0.001648 0.018842 0.041348
vertex 0.080106 0.009197 0.044088
vertex 0.080348 0.011957 0.041348
endloop
endfacet
facet normal 0.070178 0.802144 0.592993
outer loop
vertex 0.001648 0.018842 0.041348
vertex 0.080348 0.011957 0.041348
vertex 0.001850 0.021143 0.038211
endloop
endfacet
facet normal 0.070178 0.802144 0.592993
outer loop
vertex 0.001850 0.021143 0.038211
vertex 0.080348 0.011957 0.041348
vertex 0.080549 0.014258 0.038211
endloop
endfacet
facet normal 0.077357 0.884187 0.460684
outer loop
vertex 0.001850 0.021143 0.038211
vertex 0.080549 0.014258 0.038211
vertex 0.002006 0.022932 0.034753
endloop
endfacet
facet normal 0.077356 0.884187 0.460684
outer loop
vertex 0.002006 0.022932 0.034753
vertex 0.080549 0.014258 0.038211
vertex 0.080706 0.016046 0.034753
endloop
endfacet
facet normal 0.082655 0.944754 0.317188
outer loop
vertex 0.002006 0.022932 0.034753
vertex 0.080706 0.016046 0.034753
vertex 0.002114 0.024163 0.031058
endloop
endfacet
facet normal 0.082655 0.944754 0.317187
outer loop
vertex 0.002114 0.024163 0.031058
vertex 0.080706 0.016046 0.034753
vertex 0.080813 0.017277 0.031058
endloop
endfacet
facet normal 0.085947 0.982376 0.165986
outer loop
vertex 0.002114 0.024163 0.031058
vertex 0.080813 0.017277 0.031058
vertex 0.002170 0.024807 0.027216
endloop
endfacet
facet normal 0.085947 0.982376 0.165985
outer loop
vertex 0.002170 0.024807 0.027216
vertex 0.080813 0.017277 0.031058
vertex 0.080870 0.017922 0.027216
endloop
endfacet
facet normal 0.087151 0.996137 0.010754
outer loop
vertex 0.002170 0.024807 0.027216
vertex 0.080870 0.017922 0.027216
vertex 0.002174 0.024849 0.023320
endloop
endfacet
facet normal 0.087151 0.996137 0.010752
outer loop
vertex 0.002174 0.024849 0.023320
vertex 0.080870 0.017922 0.027216
vertex 0.080873 0.017963 0.023320
endloop
endfacet
facet normal 0.086238 0.985704 -0.144741
outer loop
vertex 0.002174 0.024849 0.023320
vertex 0.080873 0.017963 0.023320
vertex 0.002125 0.024287 0.019465
endloop
endfacet
facet normal 0.086238 0.985705 -0.144740
outer loop
vertex 0.002125 0.024287 0.019465
vertex 0.080873 0.017963 0.023320
vertex 0.080824 0.017401 0.019465
endloop
endfacet
facet normal 0.083231 0.951330 -0.296720
outer loop
vertex 0.002125 0.024287 0.019465
vertex 0.080824 0.017401 0.019465
vertex 0.002024 0.023135 0.015744
endloop
endfacet
facet normal 0.083231 0.951331 -0.296720
outer loop
vertex 0.002024 0.023135 0.015744
vertex 0.080824 0.017401 0.019465
vertex 0.080723 0.016250 0.015744
endloop
endfacet
facet normal 0.078202 0.893852 -0.441490
outer loop
vertex 0.002024 0.023135 0.015744
vertex 0.080723 0.016250 0.015744
vertex 0.001874 0.021422 0.012248
endloop
endfacet
facet normal 0.078202 0.893851 -0.441491
outer loop
vertex 0.001874 0.021422 0.012248
vertex 0.080723 0.016250 0.015744
vertex 0.080574 0.014536 0.012248
endloop
endfacet
facet normal 0.071274 0.814661 -0.575541
outer loop
vertex 0.001874 0.021422 0.012248
vertex 0.080574 0.014536 0.012248
vertex 0.001679 0.019188 0.009062
endloop
endfacet
facet normal 0.071274 0.814662 -0.575540
outer loop
vertex 0.001679 0.019188 0.009062
vertex 0.080574 0.014536 0.012248
vertex 0.080378 0.012302 0.009062
endloop
endfacet
facet normal 0.062614 0.715686 -0.695610
outer loop
vertex 0.001679 0.019188 0.009062
vertex 0.080378 0.012302 0.009062
vertex 0.001442 0.016488 0.006263
endloop
endfacet
facet normal -0.071274 -0.814661 -0.575540
outer loop
vertex -0.001679 -0.019188 0.009062
vertex -0.001874 -0.021422 0.012248
vertex -0.080574 -0.014536 0.012248
endloop
endfacet
facet normal -0.078202 -0.893851 -0.441492
outer loop
vertex -0.080574 -0.014536 0.012248
vertex -0.001874 -0.021422 0.012248
vertex -0.080723 -0.016250 0.015744
endloop
endfacet
facet normal -0.078202 -0.893851 -0.441491
outer loop
vertex -0.080574 -0.014536 0.012248
vertex -0.080723 -0.016250 0.015744
vertex -0.159423 -0.009364 0.015744
endloop
endfacet
facet normal -0.083231 -0.951331 -0.296720
outer loop
vertex -0.159423 -0.009364 0.015744
vertex -0.080723 -0.016250 0.015744
vertex -0.159524 -0.010516 0.019465
endloop
endfacet
facet normal -0.078202 -0.893852 -0.441490
outer loop
vertex -0.080723 -0.016250 0.015744
vertex -0.001874 -0.021422 0.012248
vertex -0.002024 -0.023135 0.015744
endloop
endfacet
facet normal -0.083231 -0.951331 -0.296720
outer loop
vertex -0.080723 -0.016250 0.015744
vertex -0.002024 -0.023135 0.015744
vertex -0.080824 -0.017401 0.019465
endloop
endfacet
facet normal -0.083231 -0.951331 -0.296720
outer loop
vertex -0.080824 -0.017401 0.019465
vertex -0.002024 -0.023135 0.015744
vertex -0.002125 -0.024287 0.019465
endloop
endfacet
facet normal -0.086238 -0.985704 -0.144740
outer loop
vertex -0.080824 -0.017401 0.019465
vertex -0.002125 -0.024287 0.019465
vertex -0.080873 -0.017963 0.023320
endloop
endfacet
facet normal -0.086238 -0.985704 -0.144741
outer loop
vertex -0.080873 -0.017963 0.023320
vertex -0.002125 -0.024287 0.019465
vertex -0.002174 -0.024849 0.023320
endloop
endfacet
facet normal -0.087151 -0.996137 0.010753
outer loop
vertex -0.080873 -0.017963 0.023320
vertex -0.002174 -0.024849 0.023320
vertex -0.080870 -0.017922 0.027216
endloop
endfacet
facet normal -0.087151 -0.996137 0.010753
outer loop
vertex -0.080870 -0.017922 0.027216
vertex -0.002174 -0.024849 0.023320
vertex -0.002170 -0.024807 0.027216
endloop
endfacet
facet normal -0.085947 -0.982376 0.165985
outer loop
vertex -0.080870 -0.017922 0.027216
vertex -0.002170 -0.024807 0.027216
vertex -0.080813 -0.017277 0.031058
endloop
endfacet
facet normal -0.085947 -0.982376 0.165985
outer loop
vertex -0.080813 -0.017277 0.031058
vertex -0.002170 -0.024807 0.027216
vertex -0.002114 -0.024163 0.031058
endloop
endfacet
facet normal -0.082655 -0.944754 0.317188
outer loop
vertex -0.080813 -0.017277 0.031058
vertex -0.002114 -0.024163 0.031058
vertex -0.080706 -0.016046 0.034753
endloop
endfacet
facet normal -0.082655 -0.944754 0.317187
outer loop
vertex -0.080706 -0.016046 0.034753
vertex -0.002114 -0.024163 0.031058
vertex -0.002006 -0.022931 0.034753
endloop
endfacet
facet normal -0.077356 -0.884187 0.460684
outer loop
vertex -0.080706 -0.016046 0.034753
vertex -0.002006 -0.022931 0.034753
vertex -0.080549 -0.014258 0.038211
endloop
endfacet
facet normal -0.077357 -0.884187 0.460685
outer loop
vertex -0.080549 -0.014258 0.038211
vertex -0.002006 -0.022931 0.034753
vertex -0.001850 -0.021143 0.038211
endloop
endfacet
facet normal -0.070179 -0.802144 0.592992
outer loop
vertex -0.080549 -0.014258 0.038211
vertex -0.001850 -0.021143 0.038211
vertex -0.080348 -0.011956 0.041348
endloop
endfacet
facet normal -0.070179 -0.802144 0.592993
outer loop
vertex -0.080348 -0.011956 0.041348
vertex -0.001850 -0.021143 0.038211
vertex -0.001648 -0.018842 0.041348
endloop
endfacet
facet normal -0.061296 -0.700619 0.710898
outer loop
vertex -0.080348 -0.011956 0.041348
vertex -0.001648 -0.018842 0.041348
vertex -0.080106 -0.009197 0.044088
endloop
endfacet
facet normal -0.061296 -0.700620 0.710897
outer loop
vertex -0.080106 -0.009197 0.044088
vertex -0.001648 -0.018842 0.041348
vertex -0.001407 -0.016083 0.044088
endloop
endfacet
facet normal -0.050925 -0.582075 0.811539
outer loop
vertex -0.032808 -0.012065 0.045000
vertex -0.079996 -0.007936 0.045000
vertex -0.080106 -0.009197 0.044088
endloop
endfacet
facet normal -0.050925 -0.582074 0.811539
outer loop
vertex -0.032808 -0.012065 0.045000
vertex -0.080106 -0.009197 0.044088
vertex -0.001407 -0.016083 0.044088
endloop
endfacet
facet normal -0.050925 -0.582075 0.811539
outer loop
vertex -0.032808 -0.012065 0.045000
vertex -0.001407 -0.016083 0.044088
vertex -0.001297 -0.014821 0.045000
endloop
endfacet
facet normal 0.050925 0.582075 0.811539
outer loop
vertex -0.077403 0.021707 0.045000
vertex -0.045892 0.018950 0.045000
vertex -0.077292 0.022968 0.044088
endloop
endfacet
facet normal 0.050925 0.582075 0.811539
outer loop
vertex 0.001407 0.016083 0.044088
vertex -0.077292 0.022968 0.044088
vertex -0.045892 0.018950 0.045000
endloop
endfacet
facet normal 0.050925 0.582075 0.811539
outer loop
vertex 0.001407 0.016083 0.044088
vertex -0.045892 0.018950 0.045000
vertex 0.001297 0.014821 0.045000
endloop
endfacet
facet normal 0.061296 0.700619 0.710898
outer loop
vertex -0.077292 0.022968 0.044088
vertex 0.001407 0.016083 0.044088
vertex -0.077051 0.025727 0.041348
endloop
endfacet
facet normal 0.061296 0.700619 0.710898
outer loop
vertex -0.077051 0.025727 0.041348
vertex 0.001407 0.016083 0.044088
vertex 0.001648 0.018842 0.041348
endloop
endfacet
facet normal 0.070178 0.802144 0.592993
outer loop
vertex -0.077051 0.025727 0.041348
vertex 0.001648 0.018842 0.041348
vertex -0.076850 0.028029 0.038211
endloop
endfacet
facet normal 0.070178 0.802144 0.592992
outer loop
vertex -0.076850 0.028029 0.038211
vertex 0.001648 0.018842 0.041348
vertex 0.001850 0.021143 0.038211
endloop
endfacet
facet normal 0.077357 0.884186 0.460685
outer loop
vertex -0.076850 0.028029 0.038211
vertex 0.001850 0.021143 0.038211
vertex -0.076693 0.029817 0.034753
endloop
endfacet
facet normal 0.077356 0.884187 0.460684
outer loop
vertex -0.076693 0.029817 0.034753
vertex 0.001850 0.021143 0.038211
vertex 0.002006 0.022932 0.034753
endloop
endfacet
facet normal 0.082655 0.944754 0.317188
outer loop
vertex -0.076693 0.029817 0.034753
vertex 0.002006 0.022932 0.034753
vertex -0.076585 0.031048 0.031058
endloop
endfacet
facet normal 0.082655 0.944754 0.317188
outer loop
vertex -0.076585 0.031048 0.031058
vertex 0.002006 0.022932 0.034753
vertex 0.002114 0.024163 0.031058
endloop
endfacet
facet normal 0.085947 0.982376 0.165985
outer loop
vertex -0.076585 0.031048 0.031058
vertex 0.002114 0.024163 0.031058
vertex -0.076529 0.031692 0.027216
endloop
endfacet
facet normal 0.085947 0.982376 0.165985
outer loop
vertex -0.076529 0.031692 0.027216
vertex 0.002114 0.024163 0.031058
vertex 0.002170 0.024807 0.027216
endloop
endfacet
facet normal 0.087151 0.996137 0.010754
outer loop
vertex -0.076529 0.031692 0.027216
vertex 0.002170 0.024807 0.027216
vertex -0.076525 0.031734 0.023320
endloop
endfacet
facet normal 0.087151 0.996137 0.010752
outer loop
vertex -0.076525 0.031734 0.023320
vertex 0.002170 0.024807 0.027216
vertex 0.002174 0.024849 0.023320
endloop
endfacet
facet normal 0.086238 0.985704 -0.144741
outer loop
vertex -0.076525 0.031734 0.023320
vertex 0.002174 0.024849 0.023320
vertex -0.076575 0.031172 0.019465
endloop
endfacet
facet normal 0.086238 0.985704 -0.144741
outer loop
vertex -0.076575 0.031172 0.019465
vertex 0.002174 0.024849 0.023320
vertex 0.002125 0.024287 0.019465
endloop
endfacet
facet normal 0.083231 0.951331 -0.296720
outer loop
vertex -0.076575 0.031172 0.019465
vertex 0.002125 0.024287 0.019465
vertex -0.076675 0.030020 0.015744
endloop
endfacet
facet normal 0.083231 0.951331 -0.296718
outer loop
vertex -0.076675 0.030020 0.015744
vertex 0.002125 0.024287 0.019465
vertex 0.002024 0.023135 0.015744
endloop
endfacet
facet normal 0.078202 0.893851 -0.441492
outer loop
vertex -0.076675 0.030020 0.015744
vertex 0.002024 0.023135 0.015744
vertex -0.076825 0.028307 0.012248
endloop
endfacet
facet normal 0.078202 0.893851 -0.441491
outer loop
vertex -0.076825 0.028307 0.012248
vertex 0.002024 0.023135 0.015744
vertex 0.001874 0.021422 0.012248
endloop
endfacet
facet normal 0.071274 0.814662 -0.575540
outer loop
vertex -0.076825 0.028307 0.012248
vertex 0.001874 0.021422 0.012248
vertex -0.077021 0.026073 0.009062
endloop
endfacet
facet normal 0.071274 0.814662 -0.575540
outer loop
vertex -0.077021 0.026073 0.009062
vertex 0.001874 0.021422 0.012248
vertex 0.001679 0.019188 0.009062
endloop
endfacet
facet normal 0.062614 0.715686 -0.695610
outer loop
vertex -0.077021 0.026073 0.009062
vertex 0.001679 0.019188 0.009062
vertex -0.077257 0.023373 0.006263
endloop
endfacet
facet normal 0.062614 0.715686 -0.695610
outer loop
vertex -0.077257 0.023373 0.006263
vertex 0.001679 0.019188 0.009062
vertex 0.001442 0.016488 0.006263
endloop
endfacet
facet normal 0.052434 0.599327 -0.798785
outer loop
vertex -0.077257 0.023373 0.006263
vertex 0.001442 0.016488 0.006263
vertex -0.077528 0.020273 0.003919
endloop
endfacet
facet normal -0.086238 -0.985704 -0.144741
outer loop
vertex -0.159573 -0.011078 0.023320
vertex -0.159524 -0.010516 0.019465
vertex -0.080824 -0.017401 0.019465
endloop
endfacet
facet normal -0.083231 -0.951331 -0.296720
outer loop
vertex -0.080824 -0.017401 0.019465
vertex -0.159524 -0.010516 0.019465
vertex -0.080723 -0.016250 0.015744
endloop
endfacet
facet normal -0.086238 -0.985704 -0.144741
outer loop
vertex -0.159573 -0.011078 0.023320
vertex -0.080824 -0.017401 0.019465
vertex -0.080873 -0.017963 0.023320
endloop
endfacet
facet normal -0.087151 -0.996137 0.010752
outer loop
vertex -0.159569 -0.011036 0.027216
vertex -0.159573 -0.011078 0.023320
vertex -0.080873 -0.017963 0.023320
endloop
endfacet
facet normal -0.087151 -0.996137 0.010753
outer loop
vertex -0.159569 -0.011036 0.027216
vertex -0.080873 -0.017963 0.023320
vertex -0.080870 -0.017922 0.027216
endloop
endfacet
facet normal -0.085947 -0.982376 0.165986
outer loop
vertex -0.159513 -0.010392 0.031058
vertex -0.159569 -0.011036 0.027216
vertex -0.080870 -0.017922 0.027216
endloop
endfacet
facet normal -0.085947 -0.982376 0.165986
outer loop
vertex -0.159513 -0.010392 0.031058
vertex -0.080870 -0.017922 0.027216
vertex -0.080813 -0.017277 0.031058
endloop
endfacet
facet normal -0.082655 -0.944754 0.317187
outer loop
vertex -0.159405 -0.009161 0.034753
vertex -0.159513 -0.010392 0.031058
vertex -0.080813 -0.017277 0.031058
endloop
endfacet
facet normal -0.082655 -0.944754 0.317188
outer loop
vertex -0.159405 -0.009161 0.034753
vertex -0.080813 -0.017277 0.031058
vertex -0.080706 -0.016046 0.034753
endloop
endfacet
facet normal -0.077356 -0.884187 0.460684
outer loop
vertex -0.159249 -0.007373 0.038211
vertex -0.159405 -0.009161 0.034753
vertex -0.080706 -0.016046 0.034753
endloop
endfacet
facet normal -0.077356 -0.884187 0.460684
outer loop
vertex -0.159249 -0.007373 0.038211
vertex -0.080706 -0.016046 0.034753
vertex -0.080549 -0.014258 0.038211
endloop
endfacet
facet normal -0.070179 -0.802144 0.592992
outer loop
vertex -0.159047 -0.005071 0.041348
vertex -0.159249 -0.007373 0.038211
vertex -0.080549 -0.014258 0.038211
endloop
endfacet
facet normal -0.070179 -0.802144 0.592993
outer loop
vertex -0.159047 -0.005071 0.041348
vertex -0.080549 -0.014258 0.038211
vertex -0.080348 -0.011956 0.041348
endloop
endfacet
facet normal -0.061296 -0.700619 0.710898
outer loop
vertex -0.158806 -0.002312 0.044088
vertex -0.159047 -0.005071 0.041348
vertex -0.080348 -0.011956 0.041348
endloop
endfacet
facet normal -0.061296 -0.700619 0.710898
outer loop
vertex -0.158806 -0.002312 0.044088
vertex -0.080348 -0.011956 0.041348
vertex -0.080106 -0.009197 0.044088
endloop
endfacet
facet normal -0.050925 -0.582075 0.811539
outer loop
vertex -0.111507 -0.005179 0.045000
vertex -0.158695 -0.001051 0.045000
vertex -0.158806 -0.002312 0.044088
endloop
endfacet
facet normal -0.050925 -0.582075 0.811539
outer loop
vertex -0.111507 -0.005179 0.045000
vertex -0.158806 -0.002312 0.044088
vertex -0.080106 -0.009197 0.044088
endloop
endfacet
facet normal -0.050925 -0.582075 0.811539
outer loop
vertex -0.080106 -0.009197 0.044088
vertex -0.079996 -0.007936 0.045000
vertex -0.111507 -0.005179 0.045000
endloop
endfacet
facet normal 0.050925 0.582074 0.811539
outer loop
vertex -0.156102 0.028592 0.045000
vertex -0.124591 0.025835 0.045000
vertex -0.155992 0.029853 0.044088
endloop
endfacet
facet normal 0.050925 0.582075 0.811539
outer loop
vertex -0.077403 0.021707 0.045000
vertex -0.077292 0.022968 0.044088
vertex -0.155992 0.029853 0.044088
endloop
endfacet
facet normal 0.050925 0.582075 0.811539
outer loop
vertex -0.077403 0.021707 0.045000
vertex -0.155992 0.029853 0.044088
vertex -0.124591 0.025835 0.045000
endloop
endfacet
facet normal 0.061296 0.700619 0.710898
outer loop
vertex -0.155750 0.032612 0.041348
vertex -0.155992 0.029853 0.044088
vertex -0.077292 0.022968 0.044088
endloop
endfacet
facet normal 0.061296 0.700619 0.710898
outer loop
vertex -0.155750 0.032612 0.041348
vertex -0.077292 0.022968 0.044088
vertex -0.077051 0.025727 0.041348
endloop
endfacet
facet normal 0.070178 0.802143 0.592994
outer loop
vertex -0.155549 0.034914 0.038211
vertex -0.155750 0.032612 0.041348
vertex -0.077051 0.025727 0.041348
endloop
endfacet
facet normal 0.070178 0.802144 0.592993
outer loop
vertex -0.155549 0.034914 0.038211
vertex -0.077051 0.025727 0.041348
vertex -0.076850 0.028029 0.038211
endloop
endfacet
facet normal 0.077356 0.884187 0.460684
outer loop
vertex -0.155393 0.036702 0.034753
vertex -0.155549 0.034914 0.038211
vertex -0.076850 0.028029 0.038211
endloop
endfacet
facet normal 0.077356 0.884187 0.460683
outer loop
vertex -0.155393 0.036702 0.034753
vertex -0.076850 0.028029 0.038211
vertex -0.076693 0.029817 0.034753
endloop
endfacet
facet normal 0.082655 0.944754 0.317188
outer loop
vertex -0.155285 0.037933 0.031058
vertex -0.155393 0.036702 0.034753
vertex -0.076693 0.029817 0.034753
endloop
endfacet
facet normal 0.082655 0.944754 0.317188
outer loop
vertex -0.155285 0.037933 0.031058
vertex -0.076693 0.029817 0.034753
vertex -0.076585 0.031048 0.031058
endloop
endfacet
facet normal 0.085947 0.982376 0.165985
outer loop
vertex -0.155228 0.038577 0.027216
vertex -0.155285 0.037933 0.031058
vertex -0.076585 0.031048 0.031058
endloop
endfacet
facet normal 0.085947 0.982376 0.165983
outer loop
vertex -0.155228 0.038577 0.027216
vertex -0.076585 0.031048 0.031058
vertex -0.076529 0.031692 0.027216
endloop
endfacet
facet normal 0.087151 0.996137 0.010754
outer loop
vertex -0.155225 0.038619 0.023320
vertex -0.155228 0.038577 0.027216
vertex -0.076529 0.031692 0.027216
endloop
endfacet
facet normal 0.087151 0.996137 0.010753
outer loop
vertex -0.155225 0.038619 0.023320
vertex -0.076529 0.031692 0.027216
vertex -0.076525 0.031734 0.023320
endloop
endfacet
facet normal 0.086238 0.985704 -0.144742
outer loop
vertex -0.155274 0.038057 0.019465
vertex -0.155225 0.038619 0.023320
vertex -0.076525 0.031734 0.023320
endloop
endfacet
facet normal 0.086238 0.985704 -0.144741
outer loop
vertex -0.155274 0.038057 0.019465
vertex -0.076525 0.031734 0.023320
vertex -0.076575 0.031172 0.019465
endloop
endfacet
facet normal 0.083231 0.951331 -0.296718
outer loop
vertex -0.155375 0.036906 0.015744
vertex -0.155274 0.038057 0.019465
vertex -0.076575 0.031172 0.019465
endloop
endfacet
facet normal 0.083231 0.951331 -0.296720
outer loop
vertex -0.155375 0.036906 0.015744
vertex -0.076575 0.031172 0.019465
vertex -0.076675 0.030020 0.015744
endloop
endfacet
facet normal 0.078202 0.893851 -0.441491
outer loop
vertex -0.155525 0.035192 0.012248
vertex -0.155375 0.036906 0.015744
vertex -0.076675 0.030020 0.015744
endloop
endfacet
facet normal 0.078202 0.893852 -0.441490
outer loop
vertex -0.155525 0.035192 0.012248
vertex -0.076675 0.030020 0.015744
vertex -0.076825 0.028307 0.012248
endloop
endfacet
facet normal 0.071274 0.814661 -0.575541
outer loop
vertex -0.155720 0.032958 0.009062
vertex -0.155525 0.035192 0.012248
vertex -0.076825 0.028307 0.012248
endloop
endfacet
facet normal 0.071274 0.814662 -0.575539
outer loop
vertex -0.155720 0.032958 0.009062
vertex -0.076825 0.028307 0.012248
vertex -0.077021 0.026073 0.009062
endloop
endfacet
facet normal 0.062614 0.715685 -0.695611
outer loop
vertex -0.155956 0.030258 0.006263
vertex -0.155720 0.032958 0.009062
vertex -0.077021 0.026073 0.009062
endloop
endfacet
facet normal 0.062614 0.715686 -0.695610
outer loop
vertex -0.155956 0.030258 0.006263
vertex -0.077021 0.026073 0.009062
vertex -0.077257 0.023373 0.006263
endloop
endfacet
facet normal 0.052434 0.599326 -0.798786
outer loop
vertex -0.156228 0.027158 0.003919
vertex -0.155956 0.030258 0.006263
vertex -0.077257 0.023373 0.006263
endloop
endfacet
facet normal 0.052434 0.599328 -0.798785
outer loop
vertex -0.156228 0.027158 0.003919
vertex -0.077257 0.023373 0.006263
vertex -0.077528 0.020273 0.003919
endloop
endfacet
facet normal -0.087156 -0.996195 0.000000
outer loop
vertex 0.235227 -0.030618 0.000000
vertex 0.235227 -0.030618 0.002087
vertex -0.236970 0.010694 0.000000
endloop
endfacet
facet normal -0.087156 -0.996195 0.000000
outer loop
vertex -0.236970 0.010694 0.000000
vertex 0.235227 -0.030618 0.002087
vertex -0.236970 0.010694 0.002087
endloop
endfacet
facet normal -0.996195 0.087156 0.000000
outer loop
vertex -0.236970 0.010694 0.000000
vertex -0.236970 0.010694 0.002087
vertex -0.235227 0.030618 0.000000
endloop
endfacet
facet normal -0.996195 0.087156 0.000000
outer loop
vertex -0.235227 0.030618 0.000000
vertex -0.236970 0.010694 0.002087
vertex -0.235227 0.030618 0.002087
endloop
endfacet
facet normal -0.996195 0.087157 0.000001
outer loop
vertex -0.235227 0.030618 0.002087
vertex -0.236970 0.010694 0.002087
vertex -0.234935 0.033952 0.003861
endloop
endfacet
facet normal -0.996195 0.087153 0.000004
outer loop
vertex -0.234935 0.033952 0.003861
vertex -0.236970 0.010694 0.002087
vertex -0.234670 0.036981 0.006120
endloop
endfacet
facet normal -0.996195 0.087156 0.000001
outer loop
vertex -0.234670 0.036981 0.006120
vertex -0.236970 0.010694 0.002087
vertex -0.234438 0.039636 0.008813
endloop
endfacet
facet normal -0.996195 0.087153 -0.000002
outer loop
vertex -0.234438 0.039636 0.008813
vertex -0.236970 0.010694 0.002087
vertex -0.234244 0.041854 0.011878
endloop
endfacet
facet normal -0.996195 0.087158 0.000002
outer loop
vertex -0.234244 0.041854 0.011878
vertex -0.236970 0.010694 0.002087
vertex -0.234092 0.043586 0.015243
endloop
endfacet
facet normal -0.996195 0.087154 -0.000003
outer loop
vertex -0.234092 0.043586 0.015243
vertex -0.236970 0.010694 0.002087
vertex -0.233987 0.044791 0.018833
endloop
endfacet
facet normal -0.996195 0.087152 0.000004
outer loop
vertex -0.233987 0.044791 0.018833
vertex -0.236970 0.010694 0.002087
vertex -0.233930 0.045442 0.022564
endloop
endfacet
facet normal -0.996194 0.087165 -0.000003
outer loop
vertex -0.233930 0.045442 0.022564
vertex -0.236970 0.010694 0.002087
vertex -0.233922 0.045524 0.026352
endloop
endfacet
facet normal -0.996195 0.087151 0.000002
outer loop
vertex -0.233922 0.045524 0.026352
vertex -0.236970 0.010694 0.002087
vertex -0.233965 0.045035 0.030108
endloop
endfacet
facet normal -0.996195 0.087157 0.000000
outer loop
vertex -0.233965 0.045035 0.030108
vertex -0.236970 0.010694 0.002087
vertex -0.234057 0.043987 0.033747
endloop
endfacet
facet normal -0.996195 0.087151 0.000000
outer loop
vertex -0.234057 0.043987 0.033747
vertex -0.236970 0.010694 0.002087
vertex -0.234196 0.042402 0.037185
endloop
endfacet
facet normal -0.996194 0.087168 -0.000001
outer loop
vertex -0.234196 0.042402 0.037185
vertex -0.236970 0.010694 0.002087
vertex -0.234378 0.040319 0.040343
endloop
endfacet
facet normal -0.996195 0.087157 0.000001
outer loop
vertex -0.234378 0.040319 0.040343
vertex -0.236970 0.010694 0.002087
vertex -0.234600 0.037784 0.043149
endloop
endfacet
facet normal -0.996195 0.087151 -0.000001
outer loop
vertex -0.234600 0.037784 0.043149
vertex -0.236970 0.010694 0.002087
vertex -0.234882 0.034556 0.045000
endloop
endfacet
facet normal -0.996196 0.087146 0.000001
outer loop
vertex -0.234600 0.037784 0.043149
vertex -0.234882 0.034556 0.045000
vertex -0.234798 0.035515 0.045000
endloop
endfacet
facet normal -0.996194 0.087161 -0.000000
outer loop
vertex -0.235240 0.030469 0.045000
vertex -0.234882 0.034556 0.045000
vertex -0.236970 0.010694 0.002087
endloop
endfacet
facet normal -0.996195 0.087154 0.000001
outer loop
vertex -0.235573 0.026660 0.045000
vertex -0.235240 0.030469 0.045000
vertex -0.236970 0.010694 0.002087
endloop
endfacet
facet normal -0.996195 0.087153 -0.000000
outer loop
vertex -0.235573 0.026660 0.045000
vertex -0.236970 0.010694 0.002087
vertex -0.237261 0.007360 0.003861
endloop
endfacet
facet normal -0.996193 0.087175 0.000001
outer loop
vertex -0.235573 0.026660 0.045000
vertex -0.237261 0.007360 0.003861
vertex -0.235603 0.026317 0.045000
endloop
endfacet
facet normal -0.996195 0.087152 -0.000001
outer loop
vertex -0.235603 0.026317 0.045000
vertex -0.237261 0.007360 0.003861
vertex -0.237526 0.004331 0.006120
endloop
endfacet
facet normal -0.996196 0.087146 -0.000010
outer loop
vertex -0.235603 0.026317 0.045000
vertex -0.237526 0.004331 0.006120
vertex -0.235635 0.025950 0.045000
endloop
endfacet
facet normal -0.996195 0.087155 -0.000000
outer loop
vertex -0.235635 0.025950 0.045000
vertex -0.237526 0.004331 0.006120
vertex -0.237759 0.001676 0.008813
endloop
endfacet
facet normal -0.996194 0.087165 0.000016
outer loop
vertex -0.235635 0.025950 0.045000
vertex -0.237759 0.001676 0.008813
vertex -0.235670 0.025550 0.045000
endloop
endfacet
facet normal -0.996194 0.087163 0.000001
outer loop
vertex -0.235670 0.025550 0.045000
vertex -0.237759 0.001676 0.008813
vertex -0.237953 -0.000542 0.011878
endloop
endfacet
facet normal -0.996198 0.087119 -0.000012
outer loop
vertex -0.235670 0.025550 0.045000
vertex -0.237953 -0.000542 0.011878
vertex -0.235709 0.025107 0.045000
endloop
endfacet
facet normal -0.996195 0.087151 -0.000001
outer loop
vertex -0.235709 0.025107 0.045000
vertex -0.237953 -0.000542 0.011878
vertex -0.238104 -0.002274 0.015243
endloop
endfacet
facet normal -0.996194 0.087158 -0.000010
outer loop
vertex -0.235709 0.025107 0.045000
vertex -0.238104 -0.002274 0.015243
vertex -0.235752 0.024609 0.045000
endloop
endfacet
facet normal -0.996195 0.087156 0.000002
outer loop
vertex -0.235752 0.024609 0.045000
vertex -0.238104 -0.002274 0.015243
vertex -0.238210 -0.003479 0.018833
endloop
endfacet
facet normal -0.996196 0.087142 0.000010
outer loop
vertex -0.235752 0.024609 0.045000
vertex -0.238210 -0.003479 0.018833
vertex -0.235802 0.024038 0.045000
endloop
endfacet
facet normal -0.996194 0.087159 -0.000003
outer loop
vertex -0.235802 0.024038 0.045000
vertex -0.238210 -0.003479 0.018833
vertex -0.238267 -0.004130 0.022564
endloop
endfacet
facet normal -0.996189 0.087218 -0.000007
outer loop
vertex -0.235802 0.024038 0.045000
vertex -0.238267 -0.004130 0.022564
vertex -0.235861 0.023366 0.045000
endloop
endfacet
facet normal -0.996195 0.087148 0.000003
outer loop
vertex -0.235861 0.023366 0.045000
vertex -0.238267 -0.004130 0.022564
vertex -0.238274 -0.004213 0.026352
endloop
endfacet
facet normal -0.996198 0.087115 0.000017
outer loop
vertex -0.235861 0.023366 0.045000
vertex -0.238274 -0.004213 0.026352
vertex -0.235932 0.022556 0.045000
endloop
endfacet
facet normal -0.996194 0.087163 -0.000002
outer loop
vertex -0.235932 0.022556 0.045000
vertex -0.238274 -0.004213 0.026352
vertex -0.238231 -0.003724 0.030108
endloop
endfacet
facet normal -0.996195 0.087157 -0.000006
outer loop
vertex -0.235932 0.022556 0.045000
vertex -0.238231 -0.003724 0.030108
vertex -0.236020 0.021548 0.045000
endloop
endfacet
facet normal -0.996194 0.087162 -0.000001
outer loop
vertex -0.236361 0.017654 0.045000
vertex -0.236020 0.021548 0.045000
vertex -0.238231 -0.003724 0.030108
endloop
endfacet
facet normal -0.996195 0.087151 -0.000000
outer loop
vertex -0.236361 0.017654 0.045000
vertex -0.238231 -0.003724 0.030108
vertex -0.238139 -0.002675 0.033747
endloop
endfacet
facet normal -0.996196 0.087138 0.000010
outer loop
vertex -0.236361 0.017654 0.045000
vertex -0.238139 -0.002675 0.033747
vertex -0.236469 0.016421 0.045000
endloop
endfacet
facet normal -0.996194 0.087161 -0.000001
outer loop
vertex -0.236469 0.016421 0.045000
vertex -0.238139 -0.002675 0.033747
vertex -0.238001 -0.001091 0.037185
endloop
endfacet
facet normal -0.996195 0.087154 -0.000002
outer loop
vertex -0.236469 0.016421 0.045000
vertex -0.238001 -0.001091 0.037185
vertex -0.236609 0.014822 0.045000
endloop
endfacet
facet normal -0.996194 0.087160 0.000002
outer loop
vertex -0.236609 0.014822 0.045000
vertex -0.238001 -0.001091 0.037185
vertex -0.237818 0.000993 0.040343
endloop
endfacet
facet normal -0.996195 0.087149 -0.000011
outer loop
vertex -0.236609 0.014822 0.045000
vertex -0.237818 0.000993 0.040343
vertex -0.236800 0.012636 0.045000
endloop
endfacet
facet normal -0.996194 0.087160 -0.000002
outer loop
vertex -0.236800 0.012636 0.045000
vertex -0.237818 0.000993 0.040343
vertex -0.237597 0.003528 0.043149
endloop
endfacet
facet normal -0.996195 0.087152 0.000006
outer loop
vertex -0.236800 0.012636 0.045000
vertex -0.237597 0.003528 0.043149
vertex -0.237081 0.009419 0.045000
endloop
endfacet
facet normal -0.996195 0.087153 0.000003
outer loop
vertex -0.237398 0.005796 0.045000
vertex -0.237081 0.009419 0.045000
vertex -0.237597 0.003528 0.043149
endloop
endfacet
facet normal 0.996195 -0.087156 0.000000
outer loop
vertex 0.235227 -0.030618 0.000000
vertex 0.236970 -0.010694 0.000000
vertex 0.235227 -0.030618 0.002087
endloop
endfacet
facet normal 0.996195 -0.087156 0.000000
outer loop
vertex 0.235227 -0.030618 0.002087
vertex 0.236970 -0.010694 0.000000
vertex 0.236970 -0.010694 0.002087
endloop
endfacet
facet normal 0.996195 -0.087157 -0.000001
outer loop
vertex 0.235227 -0.030618 0.002087
vertex 0.236970 -0.010694 0.002087
vertex 0.237261 -0.007360 0.003861
endloop
endfacet
facet normal 0.996195 -0.087155 -0.000003
outer loop
vertex 0.237261 -0.007360 0.003861
vertex 0.237526 -0.004331 0.006120
vertex 0.235227 -0.030618 0.002087
endloop
endfacet
facet normal 0.996195 -0.087154 -0.000001
outer loop
vertex 0.235227 -0.030618 0.002087
vertex 0.237526 -0.004331 0.006120
vertex 0.237759 -0.001676 0.008813
endloop
endfacet
facet normal 0.996195 -0.087153 0.000002
outer loop
vertex 0.235227 -0.030618 0.002087
vertex 0.237759 -0.001676 0.008813
vertex 0.237953 0.000542 0.011878
endloop
endfacet
facet normal 0.996195 -0.087158 -0.000002
outer loop
vertex 0.237953 0.000542 0.011878
vertex 0.238104 0.002274 0.015243
vertex 0.235227 -0.030618 0.002087
endloop
endfacet
facet normal 0.996195 -0.087153 0.000003
outer loop
vertex 0.235227 -0.030618 0.002087
vertex 0.238104 0.002274 0.015243
vertex 0.238210 0.003479 0.018833
endloop
endfacet
facet normal 0.996195 -0.087155 -0.000004
outer loop
vertex 0.235227 -0.030618 0.002087
vertex 0.238210 0.003479 0.018833
vertex 0.238267 0.004130 0.022564
endloop
endfacet
facet normal 0.996194 -0.087165 0.000003
outer loop
vertex 0.238267 0.004130 0.022564
vertex 0.238274 0.004213 0.026352
vertex 0.235227 -0.030618 0.002087
endloop
endfacet
facet normal 0.996195 -0.087151 -0.000002
outer loop
vertex 0.235227 -0.030618 0.002087
vertex 0.238274 0.004213 0.026352
vertex 0.238231 0.003724 0.030108
endloop
endfacet
facet normal 0.996194 -0.087162 -0.000000
outer loop
vertex 0.235227 -0.030618 0.002087
vertex 0.238231 0.003724 0.030108
vertex 0.238139 0.002675 0.033747
endloop
endfacet
facet normal 0.996196 -0.087140 -0.000000
outer loop
vertex 0.238139 0.002675 0.033747
vertex 0.238001 0.001091 0.037185
vertex 0.235227 -0.030618 0.002087
endloop
endfacet
facet normal 0.996193 -0.087172 0.000001
outer loop
vertex 0.235227 -0.030618 0.002087
vertex 0.238001 0.001091 0.037185
vertex 0.237818 -0.000993 0.040343
endloop
endfacet
facet normal 0.996196 -0.087146 -0.000001
outer loop
vertex 0.235227 -0.030618 0.002087
vertex 0.237818 -0.000993 0.040343
vertex 0.237597 -0.003528 0.043149
endloop
endfacet
facet normal 0.996194 -0.087161 0.000001
outer loop
vertex 0.237314 -0.006756 0.045000
vertex 0.235227 -0.030618 0.002087
vertex 0.237597 -0.003528 0.043149
endloop
endfacet
facet normal 0.996193 -0.087178 -0.000000
outer loop
vertex 0.237314 -0.006756 0.045000
vertex 0.237597 -0.003528 0.043149
vertex 0.237398 -0.005796 0.045000
endloop
endfacet
facet normal 0.996194 -0.087161 0.000000
outer loop
vertex 0.236957 -0.010843 0.045000
vertex 0.235227 -0.030618 0.002087
vertex 0.237314 -0.006756 0.045000
endloop
endfacet
facet normal 0.996195 -0.087154 -0.000001
outer loop
vertex 0.236623 -0.014652 0.045000
vertex 0.235227 -0.030618 0.002087
vertex 0.236957 -0.010843 0.045000
endloop
endfacet
facet normal 0.996194 -0.087162 0.000001
outer loop
vertex 0.235835 -0.023658 0.045000
vertex 0.233965 -0.045035 0.030108
vertex 0.236176 -0.019764 0.045000
endloop
endfacet
facet normal 0.996194 -0.087164 0.000002
outer loop
vertex 0.233965 -0.045035 0.030108
vertex 0.233922 -0.045524 0.026352
vertex 0.236264 -0.018755 0.045000
endloop
endfacet
facet normal 0.996195 -0.087157 0.000006
outer loop
vertex 0.233965 -0.045035 0.030108
vertex 0.236264 -0.018755 0.045000
vertex 0.236176 -0.019764 0.045000
endloop
endfacet
facet normal 0.996195 -0.087151 -0.000003
outer loop
vertex 0.233922 -0.045524 0.026352
vertex 0.233930 -0.045442 0.022564
vertex 0.236335 -0.017946 0.045000
endloop
endfacet
facet normal 0.996198 -0.087115 -0.000016
outer loop
vertex 0.233922 -0.045524 0.026352
vertex 0.236335 -0.017946 0.045000
vertex 0.236264 -0.018755 0.045000
endloop
endfacet
facet normal 0.996195 -0.087153 -0.000003
outer loop
vertex 0.234798 -0.035515 0.045000
vertex 0.234600 -0.037784 0.043149
vertex 0.235115 -0.031893 0.045000
endloop
endfacet
facet normal 0.996195 -0.087155 0.000002
outer loop
vertex 0.234600 -0.037784 0.043149
vertex 0.234378 -0.040319 0.040343
vertex 0.235396 -0.028676 0.045000
endloop
endfacet
facet normal 0.996195 -0.087153 -0.000006
outer loop
vertex 0.234600 -0.037784 0.043149
vertex 0.235396 -0.028676 0.045000
vertex 0.235115 -0.031893 0.045000
endloop
endfacet
facet normal 0.996195 -0.087153 -0.000002
outer loop
vertex 0.234378 -0.040319 0.040343
vertex 0.234196 -0.042402 0.037185
vertex 0.235588 -0.026489 0.045000
endloop
endfacet
facet normal 0.996193 -0.087170 0.000010
outer loop
vertex 0.234378 -0.040319 0.040343
vertex 0.235588 -0.026489 0.045000
vertex 0.235396 -0.028676 0.045000
endloop
endfacet
facet normal 0.996194 -0.087161 0.000001
outer loop
vertex 0.234196 -0.042402 0.037185
vertex 0.234057 -0.043987 0.033747
vertex 0.235728 -0.024891 0.045000
endloop
endfacet
facet normal 0.996195 -0.087154 0.000002
outer loop
vertex 0.234196 -0.042402 0.037185
vertex 0.235728 -0.024891 0.045000
vertex 0.235588 -0.026489 0.045000
endloop
endfacet
facet normal 0.996195 -0.087148 0.000000
outer loop
vertex 0.234057 -0.043987 0.033747
vertex 0.233965 -0.045035 0.030108
vertex 0.235835 -0.023658 0.045000
endloop
endfacet
facet normal 0.996196 -0.087138 -0.000011
outer loop
vertex 0.234057 -0.043987 0.033747
vertex 0.235835 -0.023658 0.045000
vertex 0.235728 -0.024891 0.045000
endloop
endfacet
facet normal 0.996195 -0.087156 0.000003
outer loop
vertex 0.233930 -0.045442 0.022564
vertex 0.233987 -0.044791 0.018833
vertex 0.236394 -0.017274 0.045000
endloop
endfacet
facet normal 0.996189 -0.087219 0.000007
outer loop
vertex 0.233930 -0.045442 0.022564
vertex 0.236394 -0.017274 0.045000
vertex 0.236335 -0.017946 0.045000
endloop
endfacet
facet normal 0.996195 -0.087157 -0.000002
outer loop
vertex 0.233987 -0.044791 0.018833
vertex 0.234092 -0.043586 0.015243
vertex 0.236444 -0.016703 0.045000
endloop
endfacet
facet normal 0.996196 -0.087142 -0.000010
outer loop
vertex 0.233987 -0.044791 0.018833
vertex 0.236444 -0.016703 0.045000
vertex 0.236394 -0.017274 0.045000
endloop
endfacet
facet normal 0.996194 -0.087161 0.000001
outer loop
vertex 0.234092 -0.043586 0.015243
vertex 0.234244 -0.041854 0.011878
vertex 0.236488 -0.016205 0.045000
endloop
endfacet
facet normal 0.996195 -0.087158 0.000009
outer loop
vertex 0.234092 -0.043586 0.015243
vertex 0.236488 -0.016205 0.045000
vertex 0.236444 -0.016703 0.045000
endloop
endfacet
facet normal 0.996195 -0.087156 -0.000001
outer loop
vertex 0.234244 -0.041854 0.011878
vertex 0.234438 -0.039636 0.008813
vertex 0.236526 -0.015762 0.045000
endloop
endfacet
facet normal 0.996198 -0.087118 0.000012
outer loop
vertex 0.234244 -0.041854 0.011878
vertex 0.236526 -0.015762 0.045000
vertex 0.236488 -0.016205 0.045000
endloop
endfacet
facet normal 0.996194 -0.087161 0.000000
outer loop
vertex 0.234438 -0.039636 0.008813
vertex 0.234670 -0.036981 0.006120
vertex 0.236561 -0.015362 0.045000
endloop
endfacet
facet normal 0.996194 -0.087165 -0.000016
outer loop
vertex 0.234438 -0.039636 0.008813
vertex 0.236561 -0.015362 0.045000
vertex 0.236526 -0.015762 0.045000
endloop
endfacet
facet normal 0.996195 -0.087157 0.000001
outer loop
vertex 0.234670 -0.036981 0.006120
vertex 0.234935 -0.033952 0.003861
vertex 0.236593 -0.014995 0.045000
endloop
endfacet
facet normal 0.996195 -0.087146 0.000009
outer loop
vertex 0.234670 -0.036981 0.006120
vertex 0.236593 -0.014995 0.045000
vertex 0.236561 -0.015362 0.045000
endloop
endfacet
facet normal 0.996196 -0.087144 0.000000
outer loop
vertex 0.234935 -0.033952 0.003861
vertex 0.235227 -0.030618 0.002087
vertex 0.236623 -0.014652 0.045000
endloop
endfacet
facet normal 0.996193 -0.087175 -0.000001
outer loop
vertex 0.234935 -0.033952 0.003861
vertex 0.236623 -0.014652 0.045000
vertex 0.236593 -0.014995 0.045000
endloop
endfacet
facet normal -0.000001 0.000000 1.000000
outer loop
vertex 0.237314 -0.006756 0.045000
vertex 0.237398 -0.005796 0.045000
vertex 0.208172 -0.003200 0.045000
endloop
endfacet
facet normal 0.000000 0.000000 1.000000
outer loop
vertex 0.237314 -0.006756 0.045000
vertex 0.208172 -0.003200 0.045000
vertex 0.158695 0.001051 0.045000
endloop
endfacet
facet normal 0.000000 0.000000 0.000000
outer loop
vertex 0.236593 -0.014995 0.045000
vertex 0.236623 -0.014652 0.045000
vertex 0.236957 -0.010843 0.045000
endloop
endfacet
facet normal 0.000000 0.000000 1.000000
outer loop
vertex 0.236957 -0.010843 0.045000
vertex 0.237314 -0.006756 0.045000
vertex 0.158695 0.001051 0.045000
endloop
endfacet
facet normal -0.242536 0.000000 -0.970143
outer loop
vertex 0.111507 0.005179 0.045000
vertex 0.079996 0.007936 0.045000
vertex 0.032808 0.012065 0.045000
endloop
endfacet
facet normal 0.000001 0.000000 1.000000
outer loop
vertex 0.236957 -0.010843 0.045000
vertex 0.158695 0.001051 0.045000
vertex 0.111507 0.005179 0.045000
endloop
endfacet
facet normal 0.000000 0.000000 1.000000
outer loop
vertex 0.236561 -0.015362 0.045000
vertex 0.236593 -0.014995 0.045000
vertex 0.236957 -0.010843 0.045000
endloop
endfacet
facet normal 0.447214 0.000000 0.894427
outer loop
vertex 0.236488 -0.016205 0.045000
vertex 0.236526 -0.015762 0.045000
vertex 0.236561 -0.015362 0.045000
endloop
endfacet
facet normal 0.000000 0.000000 1.000000
outer loop
vertex 0.236335 -0.017946 0.045000
vertex 0.236394 -0.017274 0.045000
vertex 0.236444 -0.016703 0.045000
endloop
endfacet
facet normal 0.000000 0.000000 1.000000
outer loop
vertex 0.236444 -0.016703 0.045000
vertex 0.236488 -0.016205 0.045000
vertex 0.236561 -0.015362 0.045000
endloop
endfacet
facet normal -0.000000 0.000000 1.000000
outer loop
vertex 0.236561 -0.015362 0.045000
vertex 0.236957 -0.010843 0.045000
vertex 0.111507 0.005179 0.045000
endloop
endfacet
facet normal 1.000000 0.000000 0.000000
outer loop
vertex 0.111507 0.005179 0.045000
vertex 0.032808 0.012065 0.045000
vertex 0.001297 0.014821 0.045000
endloop
endfacet
facet normal -0.242536 0.000000 0.970143
outer loop
vertex 0.001297 0.014821 0.045000
vertex -0.045892 0.018950 0.045000
vertex -0.077403 0.021707 0.045000
endloop
endfacet
facet normal 0.000000 0.000000 0.000000
outer loop
vertex 0.001297 0.014821 0.045000
vertex -0.077403 0.021707 0.045000
vertex -0.124591 0.025835 0.045000
endloop
endfacet
facet normal 0.000000 0.000000 1.000000
outer loop
vertex 0.236561 -0.015362 0.045000
vertex 0.111507 0.005179 0.045000
vertex 0.001297 0.014821 0.045000
endloop
endfacet
facet normal 0.000000 0.000000 1.000000
outer loop
vertex 0.236444 -0.016703 0.045000
vertex 0.236561 -0.015362 0.045000
vertex 0.001297 0.014821 0.045000
endloop
endfacet
facet normal 0.000000 0.000000 1.000000
outer loop
vertex 0.236444 -0.016703 0.045000
vertex 0.001297 0.014821 0.045000
vertex -0.124591 0.025835 0.045000
endloop
endfacet
facet normal 0.000000 0.000000 1.000000
outer loop
vertex 0.236176 -0.019764 0.045000
vertex 0.236264 -0.018755 0.045000
vertex 0.236335 -0.017946 0.045000
endloop
endfacet
facet normal 0.000000 0.000000 1.000000
outer loop
vertex 0.236335 -0.017946 0.045000
vertex 0.236444 -0.016703 0.045000
vertex -0.124591 0.025835 0.045000
endloop
endfacet
facet normal 0.000007 0.000000 1.000000
outer loop
vertex -0.156102 0.028592 0.045000
vertex -0.205565 0.032997 0.045000
vertex -0.234798 0.035515 0.045000
endloop
endfacet
facet normal 0.000001 0.000000 1.000000
outer loop
vertex 0.236335 -0.017946 0.045000
vertex -0.124591 0.025835 0.045000
vertex -0.156102 0.028592 0.045000
endloop
endfacet
facet normal 0.436274 0.000000 0.899814
outer loop
vertex 0.235835 -0.023658 0.045000
vertex 0.236176 -0.019764 0.045000
vertex 0.236335 -0.017946 0.045000
endloop
endfacet
facet normal 0.470588 0.000000 0.882353
outer loop
vertex 0.235588 -0.026489 0.045000
vertex 0.235728 -0.024891 0.045000
vertex 0.235835 -0.023658 0.045000
endloop
endfacet
facet normal 0.954480 0.000000 0.298275
outer loop
vertex 0.234798 -0.035515 0.045000
vertex 0.235115 -0.031893 0.045000
vertex 0.235396 -0.028676 0.045000
endloop
endfacet
facet normal -0.644136 0.000000 0.764911
outer loop
vertex 0.235396 -0.028676 0.045000
vertex 0.235588 -0.026489 0.045000
vertex 0.235835 -0.023658 0.045000
endloop
endfacet
facet normal -0.000000 0.000000 1.000000
outer loop
vertex 0.235835 -0.023658 0.045000
vertex 0.236335 -0.017946 0.045000
vertex -0.156102 0.028592 0.045000
endloop
endfacet
facet normal -0.000000 0.000000 1.000000
outer loop
vertex -0.156102 0.028592 0.045000
vertex -0.234798 0.035515 0.045000
vertex -0.234882 0.034556 0.045000
endloop
endfacet
facet normal -0.644136 0.000000 0.764911
outer loop
vertex -0.234882 0.034556 0.045000
vertex -0.235240 0.030469 0.045000
vertex -0.235573 0.026660 0.045000
endloop
endfacet
facet normal 0.000000 0.000000 1.000000
outer loop
vertex -0.235603 0.026317 0.045000
vertex -0.235635 0.025950 0.045000
vertex -0.235670 0.025550 0.045000
endloop
endfacet
facet normal 0.984237 0.000000 0.176855
outer loop
vertex -0.234882 0.034556 0.045000
vertex -0.235573 0.026660 0.045000
vertex -0.235603 0.026317 0.045000
endloop
endfacet
facet normal -0.000000 0.000000 1.000000
outer loop
vertex 0.235835 -0.023658 0.045000
vertex -0.156102 0.028592 0.045000
vertex -0.234882 0.034556 0.045000
endloop
endfacet
facet normal 0.000000 0.000000 1.000000
outer loop
vertex 0.205565 -0.032997 0.045000
vertex 0.234798 -0.035515 0.045000
vertex 0.235396 -0.028676 0.045000
endloop
endfacet
facet normal 0.000000 0.000000 1.000000
outer loop
vertex 0.235396 -0.028676 0.045000
vertex 0.235835 -0.023658 0.045000
vertex -0.234882 0.034556 0.045000
endloop
endfacet
facet normal 0.313289 0.000000 0.949658
outer loop
vertex -0.234882 0.034556 0.045000
vertex -0.235603 0.026317 0.045000
vertex -0.235670 0.025550 0.045000
endloop
endfacet
facet normal 0.000000 0.000000 1.000000
outer loop
vertex -0.235670 0.025550 0.045000
vertex -0.235709 0.025107 0.045000
vertex -0.235752 0.024609 0.045000
endloop
endfacet
facet normal -0.579524 0.000000 0.814955
outer loop
vertex -0.235802 0.024038 0.045000
vertex -0.235861 0.023366 0.045000
vertex -0.235932 0.022556 0.045000
endloop
endfacet
facet normal 0.274721 0.000000 0.961524
outer loop
vertex -0.235670 0.025550 0.045000
vertex -0.235752 0.024609 0.045000
vertex -0.235802 0.024038 0.045000
endloop
endfacet
facet normal -0.000000 0.000000 1.000000
outer loop
vertex 0.235396 -0.028676 0.045000
vertex -0.234882 0.034556 0.045000
vertex -0.235670 0.025550 0.045000
endloop
endfacet
facet normal 0.000000 0.000000 1.000000
outer loop
vertex 0.156102 -0.028592 0.045000
vertex 0.205565 -0.032997 0.045000
vertex 0.235396 -0.028676 0.045000
endloop
endfacet
facet normal 0.000000 0.000000 1.000000
outer loop
vertex 0.124591 -0.025835 0.045000
vertex 0.156102 -0.028592 0.045000
vertex 0.235396 -0.028676 0.045000
endloop
endfacet
facet normal 0.000001 0.000000 1.000000
outer loop
vertex 0.235396 -0.028676 0.045000
vertex -0.235670 0.025550 0.045000
vertex -0.235802 0.024038 0.045000
endloop
endfacet
facet normal 0.000000 0.000000 1.000000
outer loop
vertex -0.235932 0.022556 0.045000
vertex -0.236020 0.021548 0.045000
vertex -0.236361 0.017654 0.045000
endloop
endfacet
facet normal -0.000000 0.000000 1.000000
outer loop
vertex 0.235396 -0.028676 0.045000
vertex -0.235802 0.024038 0.045000
vertex -0.235932 0.022556 0.045000
endloop
endfacet
facet normal 0.000000 0.000000 1.000000
outer loop
vertex 0.077403 -0.021707 0.045000
vertex 0.124591 -0.025835 0.045000
vertex 0.235396 -0.028676 0.045000
endloop
endfacet
facet normal 0.242536 0.000000 0.970143
outer loop
vertex -0.001297 -0.014821 0.045000
vertex 0.045892 -0.018950 0.045000
vertex 0.077403 -0.021707 0.045000
endloop
endfacet
facet normal 0.000000 0.000000 -1.000000
outer loop
vertex -0.079996 -0.007936 0.045000
vertex -0.032808 -0.012065 0.045000
vertex -0.001297 -0.014821 0.045000
endloop
endfacet
facet normal 0.000000 0.000000 1.000000
outer loop
vertex -0.111507 -0.005179 0.045000
vertex -0.079996 -0.007936 0.045000
vertex -0.001297 -0.014821 0.045000
endloop
endfacet
facet normal -0.000000 0.000000 1.000000
outer loop
vertex -0.001297 -0.014821 0.045000
vertex 0.077403 -0.021707 0.045000
vertex 0.235396 -0.028676 0.045000
endloop
endfacet
facet normal -0.000000 0.000000 1.000000
outer loop
vertex 0.235396 -0.028676 0.045000
vertex -0.235932 0.022556 0.045000
vertex -0.236361 0.017654 0.045000
endloop
endfacet
facet normal 0.000000 0.000000 1.000000
outer loop
vertex 0.235396 -0.028676 0.045000
vertex -0.236361 0.017654 0.045000
vertex -0.236469 0.016421 0.045000
endloop
endfacet
facet normal 0.000000 0.000000 1.000000
outer loop
vertex -0.111507 -0.005179 0.045000
vertex -0.001297 -0.014821 0.045000
vertex 0.235396 -0.028676 0.045000
endloop
endfacet
facet normal 0.000000 0.000000 1.000000
outer loop
vertex -0.237398 0.005796 0.045000
vertex -0.208172 0.003200 0.045000
vertex -0.158695 -0.001051 0.045000
endloop
endfacet
facet normal 0.000000 0.000000 1.000000
outer loop
vertex -0.158695 -0.001051 0.045000
vertex -0.111507 -0.005179 0.045000
vertex 0.235396 -0.028676 0.045000
endloop
endfacet
facet normal -0.000000 0.000000 1.000000
outer loop
vertex 0.235396 -0.028676 0.045000
vertex -0.236469 0.016421 0.045000
vertex -0.236609 0.014822 0.045000
endloop
endfacet
facet normal 0.610633 0.000000 0.791914
outer loop
vertex -0.236609 0.014822 0.045000
vertex -0.236800 0.012636 0.045000
vertex -0.237081 0.009419 0.045000
endloop
endfacet
facet normal -0.000000 0.000000 1.000000
outer loop
vertex -0.237081 0.009419 0.045000
vertex -0.237398 0.005796 0.045000
vertex -0.158695 -0.001051 0.045000
endloop
endfacet
facet normal 0.000000 0.000000 1.000000
outer loop
vertex -0.158695 -0.001051 0.045000
vertex 0.235396 -0.028676 0.045000
vertex -0.236609 0.014822 0.045000
endloop
endfacet
facet normal -0.000000 0.000000 1.000000
outer loop
vertex -0.236609 0.014822 0.045000
vertex -0.237081 0.009419 0.045000
vertex -0.158695 -0.001051 0.045000
endloop
endfacet
solid cylinder
solid bottom
facet normal 0.000000 0.000000 -1.000000
outer loop
vertex -2.000000 0.3950000 0.000000
vertex 4.000000 0.3950000 0.000000
vertex 4.000000 -0.3950000 0.000000
endloop
endfacet
facet normal 0.000000 0.000000 -1.000000
outer loop
vertex -2.000000 0.3950000 0.000000
vertex 4.000000 -0.3950000 0.000000
vertex -2.000000 -0.3950000 0.000000
endloop
endfacet
endsolid bottom
solid frontAndBack
facet normal 0.000000 1.000000 0.000000
outer loop
vertex -2.000000 0.395000 0.000000
vertex -2.000000 0.395000 0.045000
vertex 4.000000 0.395000 0.045000
endloop
endfacet
facet normal 0.000000 1.000000 0.000000
outer loop
vertex -2.000000 0.395000 0.000000
vertex 4.000000 0.395000 0.045000
vertex 4.000000 0.395000 0.000000
endloop
endfacet
facet normal 0.000000 -1.000000 0.000000
outer loop
vertex 4.000000 -0.395000 0.000000
vertex 4.000000 -0.395000 0.045000
vertex -2.000000 -0.395000 0.045000
endloop
endfacet
facet normal 0.000000 -1.000000 0.000000
outer loop
vertex 4.000000 -0.395000 0.000000
vertex -2.000000 -0.395000 0.045000
vertex -2.000000 -0.395000 0.000000
endloop
endfacet
endsolid frontAndBack
solid outlet
facet normal 1.000000 0.000000 0.000000
outer loop
vertex 4.000000 0.395000 0.000000
vertex 4.000000 0.395000 0.045000
vertex 4.000000 -0.395000 0.045000
endloop
endfacet
facet normal 1.000000 0.000000 0.000000
outer loop
vertex 4.000000 0.395000 0.000000
vertex 4.000000 -0.395000 0.045000
vertex 4.000000 -0.395000 0.000000
endloop
endfacet
endsolid outlet
solid inlet
facet normal -1.000000 0.000000 0.000000
outer loop
vertex -2.000000 -0.395000 0.000000
vertex -2.000000 -0.395000 0.045000
vertex -2.000000 0.395000 0.045000
endloop
endfacet
facet normal -1.000000 0.000000 0.000000
outer loop
vertex -2.000000 -0.395000 0.000000
vertex -2.000000 0.395000 0.045000
vertex -2.000000 0.395000 0.000000
endloop
endfacet
endsolid inlet
solid top
facet normal 0.000000 0.000000 1.000000
outer loop
vertex 4.000000 0.395000 0.045000
vertex -2.000000 0.395000 0.045000
vertex -2.000000 -0.395000 0.045000
endloop
endfacet
facet normal 0.000000 0.000000 1.000000
outer loop
vertex 4.000000 0.395000 0.045000
vertex -2.000000 -0.395000 0.045000
vertex 4.000000 -0.395000 0.045000
endloop
endfacet
endsolid top
