solid cylinder
facet normal 0.000000 0.000000 -1.000000
outer loop
vertex 0.174655 -0.160513 0.000000
vertex 0.160513 -0.174655 0.000000
vertex -0.160513 0.174655 0.000000
endloop
endfacet
facet normal 0.000000 0.000000 -1.000000
outer loop
vertex -0.160513 0.174655 0.000000
vertex 0.160513 -0.174655 0.000000
vertex -0.174655 0.160513 0.000000
endloop
endfacet
facet normal 0.707107 0.707107 0.000000
outer loop
vertex 0.174655 -0.160513 0.002087
vertex 0.174655 -0.160513 0.000000
vertex -0.160513 0.174655 0.002087
endloop
endfacet
facet normal 0.707107 0.707107 0.000000
outer loop
vertex -0.160513 0.174655 0.002087
vertex 0.174655 -0.160513 0.000000
vertex -0.160513 0.174655 0.000000
endloop
endfacet
facet normal -0.331206 -0.331055 -0.883575
outer loop
vertex 0.158146 -0.177022 0.003861
vertex 0.102220 -0.121225 0.003919
vertex 0.160513 -0.174655 0.002087
endloop
endfacet
facet normal -0.332483 -0.332483 -0.882559
outer loop
vertex 0.160513 -0.174655 0.002087
vertex 0.102220 -0.121225 0.003919
vertex 0.046359 -0.065364 0.003919
endloop
endfacet
facet normal -0.332481 -0.332481 -0.882560
outer loop
vertex 0.160513 -0.174655 0.002087
vertex 0.046359 -0.065364 0.003919
vertex -0.009503 -0.009503 0.003919
endloop
endfacet
facet normal -0.425407 -0.425407 -0.798785
outer loop
vertex -0.009503 -0.009503 0.003919
vertex 0.046359 -0.065364 0.003919
vertex -0.011703 -0.011703 0.006263
endloop
endfacet
facet normal -0.425407 -0.425407 -0.798785
outer loop
vertex -0.009503 -0.009503 0.003919
vertex -0.011703 -0.011703 0.006263
vertex -0.067565 0.044158 0.006263
endloop
endfacet
facet normal -0.507999 -0.508000 -0.695610
outer loop
vertex -0.067565 0.044158 0.006263
vertex -0.011703 -0.011703 0.006263
vertex -0.069481 0.042242 0.009062
endloop
endfacet
facet normal -0.507999 -0.507999 -0.695610
outer loop
vertex -0.067565 0.044158 0.006263
vertex -0.069481 0.042242 0.009062
vertex -0.125342 0.098103 0.009062
endloop
endfacet
facet normal -0.578254 -0.578254 -0.575539
outer loop
vertex -0.125342 0.098103 0.009062
vertex -0.069481 0.042242 0.009062
vertex -0.126928 0.096518 0.012248
endloop
endfacet
facet normal -0.577986 -0.578523 -0.575537
outer loop
vertex -0.125342 0.098103 0.009062
vertex -0.126928 0.096518 0.012248
vertex -0.182631 0.152538 0.011878
endloop
endfacet
facet normal -0.628515 -0.627994 -0.458903
outer loop
vertex -0.182631 0.152538 0.011878
vertex -0.126928 0.096518 0.012248
vertex -0.183860 0.151308 0.015243
endloop
endfacet
facet normal -0.634136 -0.634787 -0.441494
outer loop
vertex -0.183860 0.151308 0.015243
vertex -0.126928 0.096518 0.012248
vertex -0.128144 0.095301 0.015744
endloop
endfacet
facet normal -0.670385 -0.669755 -0.319393
outer loop
vertex -0.183860 0.151308 0.015243
vertex -0.128144 0.095301 0.015744
vertex -0.184716 0.150453 0.018833
endloop
endfacet
facet normal -0.674885 -0.675640 -0.296717
outer loop
vertex -0.184716 0.150453 0.018833
vertex -0.128144 0.095301 0.015744
vertex -0.128962 0.094484 0.019465
endloop
endfacet
facet normal -0.696865 -0.696136 -0.172551
outer loop
vertex -0.184716 0.150453 0.018833
vertex -0.128962 0.094484 0.019465
vertex -0.185178 0.149991 0.022564
endloop
endfacet
facet normal -0.699235 -0.700086 -0.144742
outer loop
vertex -0.185178 0.149991 0.022564
vertex -0.128962 0.094484 0.019465
vertex -0.129361 0.094085 0.023320
endloop
endfacet
facet normal -0.707351 -0.706527 -0.021744
outer loop
vertex -0.185178 0.149991 0.022564
vertex -0.129361 0.094085 0.023320
vertex -0.185236 0.149933 0.026352
endloop
endfacet
facet normal -0.706596 -0.707536 0.010753
outer loop
vertex -0.185236 0.149933 0.026352
vertex -0.129361 0.094085 0.023320
vertex -0.129331 0.094115 0.027216
endloop
endfacet
facet normal -0.701601 -0.700694 0.129555
outer loop
vertex -0.185236 0.149933 0.026352
vertex -0.129331 0.094115 0.027216
vertex -0.184889 0.150280 0.030108
endloop
endfacet
facet normal -0.696788 -0.697808 0.165986
outer loop
vertex -0.184889 0.150280 0.030108
vertex -0.129331 0.094115 0.027216
vertex -0.128874 0.094572 0.031058
endloop
endfacet
facet normal -0.679748 -0.678766 0.277882
outer loop
vertex -0.184889 0.150280 0.030108
vertex -0.128874 0.094572 0.031058
vertex -0.184145 0.151024 0.033747
endloop
endfacet
facet normal -0.670046 -0.671138 0.317192
outer loop
vertex -0.184145 0.151024 0.033747
vertex -0.128874 0.094572 0.031058
vertex -0.128000 0.095446 0.034753
endloop
endfacet
facet normal -0.642293 -0.641244 0.419840
outer loop
vertex -0.184145 0.151024 0.033747
vertex -0.128000 0.095446 0.034753
vertex -0.183020 0.152148 0.037185
endloop
endfacet
facet normal -0.627026 -0.628181 0.460681
outer loop
vertex -0.183020 0.152148 0.037185
vertex -0.128000 0.095446 0.034753
vertex -0.126731 0.096715 0.038211
endloop
endfacet
facet normal -0.590103 -0.588993 0.552146
outer loop
vertex -0.183020 0.152148 0.037185
vertex -0.126731 0.096715 0.038211
vertex -0.181541 0.153627 0.040343
endloop
endfacet
facet normal -0.568765 -0.569974 0.592989
outer loop
vertex -0.181541 0.153627 0.040343
vertex -0.126731 0.096715 0.038211
vertex -0.125097 0.098349 0.041348
endloop
endfacet
facet normal -0.524368 -0.523209 0.671781
outer loop
vertex -0.181541 0.153627 0.040343
vertex -0.125097 0.098349 0.041348
vertex -0.179742 0.155427 0.043149
endloop
endfacet
facet normal -0.496675 -0.497932 0.710899
outer loop
vertex -0.179742 0.155427 0.043149
vertex -0.125097 0.098349 0.041348
vertex -0.123138 0.100307 0.044088
endloop
endfacet
facet normal -0.446609 -0.445407 0.775985
outer loop
vertex -0.157412 0.136261 0.045000
vertex -0.178132 0.157037 0.045000
vertex -0.179742 0.155427 0.043149
endloop
endfacet
facet normal -0.446611 -0.445407 0.775984
outer loop
vertex -0.157412 0.136261 0.045000
vertex -0.179742 0.155427 0.043149
vertex -0.123138 0.100307 0.044088
endloop
endfacet
facet normal -0.412514 -0.413809 0.811538
outer loop
vertex -0.157412 0.136261 0.045000
vertex -0.123138 0.100307 0.044088
vertex -0.122243 0.101203 0.045000
endloop
endfacet
facet normal 0.413807 0.412515 0.811539
outer loop
vertex -0.136261 0.157412 0.045000
vertex -0.101203 0.122243 0.045000
vertex -0.100307 0.123138 0.044088
endloop
endfacet
facet normal 0.445411 0.446613 0.775981
outer loop
vertex -0.136261 0.157412 0.045000
vertex -0.100307 0.123138 0.044088
vertex -0.155427 0.179742 0.043149
endloop
endfacet
facet normal 0.445410 0.446609 0.775984
outer loop
vertex -0.136261 0.157412 0.045000
vertex -0.155427 0.179742 0.043149
vertex -0.157037 0.178132 0.045000
endloop
endfacet
facet normal 0.497928 0.496673 0.710903
outer loop
vertex -0.155427 0.179742 0.043149
vertex -0.100307 0.123138 0.044088
vertex -0.098349 0.125097 0.041348
endloop
endfacet
facet normal 0.523215 0.524374 0.671773
outer loop
vertex -0.155427 0.179742 0.043149
vertex -0.098349 0.125097 0.041348
vertex -0.153627 0.181541 0.040343
endloop
endfacet
facet normal 0.569973 0.568764 0.592992
outer loop
vertex -0.153627 0.181541 0.040343
vertex -0.098349 0.125097 0.041348
vertex -0.096715 0.126731 0.038211
endloop
endfacet
facet normal 0.588996 0.590104 0.552142
outer loop
vertex -0.153627 0.181541 0.040343
vertex -0.096715 0.126731 0.038211
vertex -0.152148 0.183020 0.037185
endloop
endfacet
facet normal 0.628179 0.627025 0.460685
outer loop
vertex -0.152148 0.183020 0.037185
vertex -0.096715 0.126731 0.038211
vertex -0.095446 0.128000 0.034753
endloop
endfacet
facet normal 0.641245 0.642295 0.419835
outer loop
vertex -0.152148 0.183020 0.037185
vertex -0.095446 0.128000 0.034753
vertex -0.151024 0.184145 0.033747
endloop
endfacet
facet normal 0.671139 0.670048 0.317188
outer loop
vertex -0.151024 0.184145 0.033747
vertex -0.095446 0.128000 0.034753
vertex -0.094572 0.128874 0.031058
endloop
endfacet
facet normal 0.678765 0.679747 0.277888
outer loop
vertex -0.151024 0.184145 0.033747
vertex -0.094572 0.128874 0.031058
vertex -0.150280 0.184889 0.030108
endloop
endfacet
facet normal 0.697808 0.696788 0.165986
outer loop
vertex -0.150280 0.184889 0.030108
vertex -0.094572 0.128874 0.031058
vertex -0.094115 0.129331 0.027216
endloop
endfacet
facet normal 0.700694 0.701601 0.129555
outer loop
vertex -0.150280 0.184889 0.030108
vertex -0.094115 0.129331 0.027216
vertex -0.149932 0.185236 0.026352
endloop
endfacet
facet normal 0.707536 0.706596 0.010752
outer loop
vertex -0.149932 0.185236 0.026352
vertex -0.094115 0.129331 0.027216
vertex -0.094085 0.129361 0.023320
endloop
endfacet
facet normal 0.706527 0.707351 -0.021747
outer loop
vertex -0.149932 0.185236 0.026352
vertex -0.094085 0.129361 0.023320
vertex -0.149991 0.185178 0.022564
endloop
endfacet
facet normal 0.700087 0.699235 -0.144737
outer loop
vertex -0.149991 0.185178 0.022564
vertex -0.094085 0.129361 0.023320
vertex -0.094484 0.128962 0.019465
endloop
endfacet
facet normal 0.696135 0.696866 -0.172551
outer loop
vertex -0.149991 0.185178 0.022564
vertex -0.094484 0.128962 0.019465
vertex -0.150453 0.184716 0.018833
endloop
endfacet
facet normal 0.675639 0.674884 -0.296721
outer loop
vertex -0.150453 0.184716 0.018833
vertex -0.094484 0.128962 0.019465
vertex -0.095301 0.128144 0.015744
endloop
endfacet
facet normal 0.669754 0.670384 -0.319396
outer loop
vertex -0.150453 0.184716 0.018833
vertex -0.095301 0.128144 0.015744
vertex -0.151308 0.183860 0.015243
endloop
endfacet
facet normal 0.634789 0.634138 -0.441490
outer loop
vertex -0.151308 0.183860 0.015243
vertex -0.095301 0.128144 0.015744
vertex -0.096518 0.126928 0.012248
endloop
endfacet
facet normal 0.627994 0.628515 -0.458903
outer loop
vertex -0.151308 0.183860 0.015243
vertex -0.096518 0.126928 0.012248
vertex -0.152538 0.182631 0.011878
endloop
endfacet
facet normal 0.578522 0.577984 -0.575540
outer loop
vertex -0.152538 0.182631 0.011878
vertex -0.096518 0.126928 0.012248
vertex -0.098103 0.125342 0.009062
endloop
endfacet
facet normal 0.571814 0.572217 -0.587875
outer loop
vertex -0.152538 0.182631 0.011878
vertex -0.098103 0.125342 0.009062
vertex -0.154112 0.181056 0.008813
endloop
endfacet
facet normal 0.508206 0.507790 -0.695612
outer loop
vertex -0.154112 0.181056 0.008813
vertex -0.098103 0.125342 0.009062
vertex -0.100020 0.123426 0.006263
endloop
endfacet
facet normal 0.502503 0.502780 -0.703351
outer loop
vertex -0.154112 0.181056 0.008813
vertex -0.100020 0.123426 0.006263
vertex -0.155996 0.179172 0.006120
endloop
endfacet
facet normal 0.425551 0.425265 -0.798784
outer loop
vertex -0.155996 0.179172 0.006120
vertex -0.100020 0.123426 0.006263
vertex -0.102220 0.121225 0.003919
endloop
endfacet
facet normal 0.421655 0.421798 -0.802679
outer loop
vertex -0.155996 0.179172 0.006120
vertex -0.102220 0.121225 0.003919
vertex -0.158146 0.177022 0.003861
endloop
endfacet
facet normal 0.331206 0.331055 -0.883575
outer loop
vertex -0.158146 0.177022 0.003861
vertex -0.102220 0.121225 0.003919
vertex -0.160513 0.174655 0.002087
endloop
endfacet
facet normal 0.332483 0.332483 -0.882559
outer loop
vertex -0.160513 0.174655 0.002087
vertex -0.102220 0.121225 0.003919
vertex -0.046359 0.065364 0.003919
endloop
endfacet
facet normal 0.332481 0.332481 -0.882560
outer loop
vertex -0.160513 0.174655 0.002087
vertex -0.046359 0.065364 0.003919
vertex 0.009503 0.009503 0.003919
endloop
endfacet
facet normal 0.425407 0.425407 -0.798786
outer loop
vertex 0.009503 0.009503 0.003919
vertex -0.046359 0.065364 0.003919
vertex 0.011703 0.011703 0.006263
endloop
endfacet
facet normal 0.425407 0.425407 -0.798785
outer loop
vertex 0.009503 0.009503 0.003919
vertex 0.011703 0.011703 0.006263
vertex 0.067565 -0.044158 0.006263
endloop
endfacet
facet normal 0.507999 0.507999 -0.695610
outer loop
vertex 0.067565 -0.044158 0.006263
vertex 0.011703 0.011703 0.006263
vertex 0.069481 -0.042242 0.009062
endloop
endfacet
facet normal 0.507999 0.507999 -0.695611
outer loop
vertex 0.067565 -0.044158 0.006263
vertex 0.069481 -0.042242 0.009062
vertex 0.125342 -0.098103 0.009062
endloop
endfacet
facet normal 0.578255 0.578255 -0.575537
outer loop
vertex 0.125342 -0.098103 0.009062
vertex 0.069481 -0.042242 0.009062
vertex 0.126928 -0.096518 0.012248
endloop
endfacet
facet normal 0.577986 0.578523 -0.575537
outer loop
vertex 0.125342 -0.098103 0.009062
vertex 0.126928 -0.096518 0.012248
vertex 0.182631 -0.152538 0.011878
endloop
endfacet
facet normal 0.628515 0.627994 -0.458903
outer loop
vertex 0.182631 -0.152538 0.011878
vertex 0.126928 -0.096518 0.012248
vertex 0.183860 -0.151308 0.015243
endloop
endfacet
facet normal 0.634137 0.634788 -0.441492
outer loop
vertex 0.183860 -0.151308 0.015243
vertex 0.126928 -0.096518 0.012248
vertex 0.128144 -0.095301 0.015744
endloop
endfacet
facet normal 0.670385 0.669755 -0.319393
outer loop
vertex 0.183860 -0.151308 0.015243
vertex 0.128144 -0.095301 0.015744
vertex 0.184716 -0.150453 0.018833
endloop
endfacet
facet normal 0.674885 0.675640 -0.296717
outer loop
vertex 0.184716 -0.150453 0.018833
vertex 0.128144 -0.095301 0.015744
vertex 0.128962 -0.094484 0.019465
endloop
endfacet
facet normal 0.696865 0.696136 -0.172551
outer loop
vertex 0.184716 -0.150453 0.018833
vertex 0.128962 -0.094484 0.019465
vertex 0.185178 -0.149991 0.022564
endloop
endfacet
facet normal 0.699235 0.700086 -0.144742
outer loop
vertex 0.185178 -0.149991 0.022564
vertex 0.128962 -0.094484 0.019465
vertex 0.129361 -0.094085 0.023320
endloop
endfacet
facet normal 0.707351 0.706527 -0.021744
outer loop
vertex 0.185178 -0.149991 0.022564
vertex 0.129361 -0.094085 0.023320
vertex 0.185236 -0.149932 0.026352
endloop
endfacet
facet normal 0.706596 0.707536 0.010750
outer loop
vertex 0.185236 -0.149932 0.026352
vertex 0.129361 -0.094085 0.023320
vertex 0.129331 -0.094115 0.027216
endloop
endfacet
facet normal 0.701601 0.700693 0.129558
outer loop
vertex 0.185236 -0.149932 0.026352
vertex 0.129331 -0.094115 0.027216
vertex 0.184889 -0.150280 0.030108
endloop
endfacet
facet normal 0.696788 0.697808 0.165983
outer loop
vertex 0.184889 -0.150280 0.030108
vertex 0.129331 -0.094115 0.027216
vertex 0.128874 -0.094572 0.031058
endloop
endfacet
facet normal 0.679748 0.678766 0.277885
outer loop
vertex 0.184889 -0.150280 0.030108
vertex 0.128874 -0.094572 0.031058
vertex 0.184145 -0.151024 0.033747
endloop
endfacet
facet normal 0.670047 0.671139 0.317190
outer loop
vertex 0.184145 -0.151024 0.033747
vertex 0.128874 -0.094572 0.031058
vertex 0.128000 -0.095446 0.034753
endloop
endfacet
facet normal 0.642293 0.641244 0.419840
outer loop
vertex 0.184145 -0.151024 0.033747
vertex 0.128000 -0.095446 0.034753
vertex 0.183020 -0.152148 0.037185
endloop
endfacet
facet normal 0.627026 0.628181 0.460682
outer loop
vertex 0.183020 -0.152148 0.037185
vertex 0.128000 -0.095446 0.034753
vertex 0.126731 -0.096715 0.038211
endloop
endfacet
facet normal 0.590103 0.588993 0.552146
outer loop
vertex 0.183020 -0.152148 0.037185
vertex 0.126731 -0.096715 0.038211
vertex 0.181541 -0.153627 0.040343
endloop
endfacet
facet normal 0.568764 0.569974 0.592989
outer loop
vertex 0.181541 -0.153627 0.040343
vertex 0.126731 -0.096715 0.038211
vertex 0.125097 -0.098349 0.041348
endloop
endfacet
facet normal 0.524370 0.523210 0.671780
outer loop
vertex 0.181541 -0.153627 0.040343
vertex 0.125097 -0.098349 0.041348
vertex 0.179742 -0.155427 0.043149
endloop
endfacet
facet normal 0.496675 0.497932 0.710899
outer loop
vertex 0.179742 -0.155427 0.043149
vertex 0.125097 -0.098349 0.041348
vertex 0.123138 -0.100307 0.044088
endloop
endfacet
facet normal 0.446611 0.445407 0.775984
outer loop
vertex 0.179742 -0.155427 0.043149
vertex 0.123138 -0.100307 0.044088
vertex 0.157412 -0.136261 0.045000
endloop
endfacet
facet normal 0.446609 0.445407 0.775986
outer loop
vertex 0.179742 -0.155427 0.043149
vertex 0.157412 -0.136261 0.045000
vertex 0.178132 -0.157037 0.045000
endloop
endfacet
facet normal 0.412514 0.413809 0.811538
outer loop
vertex 0.122243 -0.101203 0.045000
vertex 0.157412 -0.136261 0.045000
vertex 0.123138 -0.100307 0.044088
endloop
endfacet
facet normal -0.413805 -0.412512 0.811542
outer loop
vertex 0.100307 -0.123138 0.044088
vertex 0.136261 -0.157412 0.045000
vertex 0.101203 -0.122243 0.045000
endloop
endfacet
facet normal -0.445406 -0.446606 0.775987
outer loop
vertex 0.100307 -0.123138 0.044088
vertex 0.155427 -0.179742 0.043149
vertex 0.157037 -0.178132 0.045000
endloop
endfacet
facet normal -0.445418 -0.446622 0.775971
outer loop
vertex 0.100307 -0.123138 0.044088
vertex 0.157037 -0.178132 0.045000
vertex 0.136261 -0.157412 0.045000
endloop
endfacet
facet normal -0.497930 -0.496675 0.710900
outer loop
vertex 0.155427 -0.179742 0.043149
vertex 0.100307 -0.123138 0.044088
vertex 0.098349 -0.125097 0.041348
endloop
endfacet
facet normal -0.523215 -0.524374 0.671773
outer loop
vertex 0.155427 -0.179742 0.043149
vertex 0.098349 -0.125097 0.041348
vertex 0.153627 -0.181541 0.040343
endloop
endfacet
facet normal -0.569973 -0.568763 0.592992
outer loop
vertex 0.153627 -0.181541 0.040343
vertex 0.098349 -0.125097 0.041348
vertex 0.096715 -0.126731 0.038211
endloop
endfacet
facet normal -0.588996 -0.590104 0.552142
outer loop
vertex 0.153627 -0.181541 0.040343
vertex 0.096715 -0.126731 0.038211
vertex 0.152148 -0.183020 0.037185
endloop
endfacet
facet normal -0.628179 -0.627025 0.460685
outer loop
vertex 0.152148 -0.183020 0.037185
vertex 0.096715 -0.126731 0.038211
vertex 0.095446 -0.128000 0.034753
endloop
endfacet
facet normal -0.641245 -0.642295 0.419835
outer loop
vertex 0.152148 -0.183020 0.037185
vertex 0.095446 -0.128000 0.034753
vertex 0.151024 -0.184145 0.033747
endloop
endfacet
facet normal -0.671138 -0.670046 0.317194
outer loop
vertex 0.151024 -0.184145 0.033747
vertex 0.095446 -0.128000 0.034753
vertex 0.094572 -0.128874 0.031058
endloop
endfacet
facet normal -0.678766 -0.679749 0.277882
outer loop
vertex 0.151024 -0.184145 0.033747
vertex 0.094572 -0.128874 0.031058
vertex 0.150280 -0.184889 0.030108
endloop
endfacet
facet normal -0.697808 -0.696788 0.165986
outer loop
vertex 0.150280 -0.184889 0.030108
vertex 0.094572 -0.128874 0.031058
vertex 0.094115 -0.129331 0.027216
endloop
endfacet
facet normal -0.700694 -0.701601 0.129555
outer loop
vertex 0.150280 -0.184889 0.030108
vertex 0.094115 -0.129331 0.027216
vertex 0.149932 -0.185236 0.026352
endloop
endfacet
facet normal -0.707536 -0.706596 0.010752
outer loop
vertex 0.149932 -0.185236 0.026352
vertex 0.094115 -0.129331 0.027216
vertex 0.094085 -0.129361 0.023320
endloop
endfacet
facet normal -0.706527 -0.707351 -0.021747
outer loop
vertex 0.149932 -0.185236 0.026352
vertex 0.094085 -0.129361 0.023320
vertex 0.149991 -0.185178 0.022564
endloop
endfacet
facet normal -0.700087 -0.699235 -0.144737
outer loop
vertex 0.149991 -0.185178 0.022564
vertex 0.094085 -0.129361 0.023320
vertex 0.094484 -0.128962 0.019465
endloop
endfacet
facet normal -0.696135 -0.696866 -0.172551
outer loop
vertex 0.149991 -0.185178 0.022564
vertex 0.094484 -0.128962 0.019465
vertex 0.150453 -0.184716 0.018833
endloop
endfacet
facet normal -0.675639 -0.674884 -0.296722
outer loop
vertex 0.150453 -0.184716 0.018833
vertex 0.094484 -0.128962 0.019465
vertex 0.095301 -0.128144 0.015744
endloop
endfacet
facet normal -0.669754 -0.670384 -0.319396
outer loop
vertex 0.150453 -0.184716 0.018833
vertex 0.095301 -0.128144 0.015744
vertex 0.151308 -0.183860 0.015243
endloop
endfacet
facet normal -0.634788 -0.634138 -0.441490
outer loop
vertex 0.151308 -0.183860 0.015243
vertex 0.095301 -0.128144 0.015744
vertex 0.096518 -0.126928 0.012248
endloop
endfacet
facet normal -0.627994 -0.628515 -0.458903
outer loop
vertex 0.151308 -0.183860 0.015243
vertex 0.096518 -0.126928 0.012248
vertex 0.152538 -0.182631 0.011878
endloop
endfacet
facet normal -0.578522 -0.577984 -0.575540
outer loop
vertex 0.152538 -0.182631 0.011878
vertex 0.096518 -0.126928 0.012248
vertex 0.098103 -0.125342 0.009062
endloop
endfacet
facet normal -0.571814 -0.572217 -0.587875
outer loop
vertex 0.152538 -0.182631 0.011878
vertex 0.098103 -0.125342 0.009062
vertex 0.154112 -0.181056 0.008813
endloop
endfacet
facet normal -0.508206 -0.507790 -0.695612
outer loop
vertex 0.154112 -0.181056 0.008813
vertex 0.098103 -0.125342 0.009062
vertex 0.100020 -0.123426 0.006263
endloop
endfacet
facet normal -0.502503 -0.502780 -0.703351
outer loop
vertex 0.154112 -0.181056 0.008813
vertex 0.100020 -0.123426 0.006263
vertex 0.155996 -0.179172 0.006120
endloop
endfacet
facet normal -0.425551 -0.425265 -0.798784
outer loop
vertex 0.155996 -0.179172 0.006120
vertex 0.100020 -0.123426 0.006263
vertex 0.102220 -0.121225 0.003919
endloop
endfacet
facet normal -0.421655 -0.421798 -0.802679
outer loop
vertex 0.155996 -0.179172 0.006120
vertex 0.102220 -0.121225 0.003919
vertex 0.158146 -0.177022 0.003861
endloop
endfacet
facet normal 0.572216 0.571813 -0.587877
outer loop
vertex 0.182631 -0.152538 0.011878
vertex 0.181056 -0.154112 0.008813
vertex 0.125342 -0.098103 0.009062
endloop
endfacet
facet normal 0.507790 0.508206 -0.695612
outer loop
vertex 0.125342 -0.098103 0.009062
vertex 0.181056 -0.154112 0.008813
vertex 0.123426 -0.100020 0.006263
endloop
endfacet
facet normal 0.507999 0.507999 -0.695611
outer loop
vertex 0.125342 -0.098103 0.009062
vertex 0.123426 -0.100020 0.006263
vertex 0.067565 -0.044158 0.006263
endloop
endfacet
facet normal 0.425406 0.425406 -0.798787
outer loop
vertex 0.067565 -0.044158 0.006263
vertex 0.123426 -0.100020 0.006263
vertex 0.065364 -0.046359 0.003919
endloop
endfacet
facet normal 0.425407 0.425407 -0.798785
outer loop
vertex 0.067565 -0.044158 0.006263
vertex 0.065364 -0.046359 0.003919
vertex 0.009503 0.009503 0.003919
endloop
endfacet
facet normal 0.332481 0.332481 -0.882560
outer loop
vertex 0.009503 0.009503 0.003919
vertex 0.065364 -0.046359 0.003919
vertex -0.160513 0.174655 0.002087
endloop
endfacet
facet normal 0.502779 0.502502 -0.703352
outer loop
vertex 0.181056 -0.154112 0.008813
vertex 0.179172 -0.155996 0.006120
vertex 0.123426 -0.100020 0.006263
endloop
endfacet
facet normal 0.425264 0.425549 -0.798786
outer loop
vertex 0.123426 -0.100020 0.006263
vertex 0.179172 -0.155996 0.006120
vertex 0.121225 -0.102220 0.003919
endloop
endfacet
facet normal 0.425408 0.425408 -0.798784
outer loop
vertex 0.123426 -0.100020 0.006263
vertex 0.121225 -0.102220 0.003919
vertex 0.065364 -0.046359 0.003919
endloop
endfacet
facet normal 0.332484 0.332485 -0.882558
outer loop
vertex 0.065364 -0.046359 0.003919
vertex 0.121225 -0.102220 0.003919
vertex -0.160513 0.174655 0.002087
endloop
endfacet
facet normal 0.421799 0.421656 -0.802678
outer loop
vertex 0.179172 -0.155996 0.006120
vertex 0.177022 -0.158146 0.003861
vertex 0.121225 -0.102220 0.003919
endloop
endfacet
facet normal 0.338174 0.338303 -0.878174
outer loop
vertex 0.121225 -0.102220 0.003919
vertex 0.177022 -0.158146 0.003861
vertex -0.160513 0.174655 0.002087
endloop
endfacet
facet normal 0.331129 0.331129 -0.883576
outer loop
vertex 0.177022 -0.158146 0.003861
vertex 0.174655 -0.160513 0.002087
vertex -0.160513 0.174655 0.002087
endloop
endfacet
facet normal -0.572216 -0.571813 -0.587877
outer loop
vertex -0.182631 0.152538 0.011878
vertex -0.181056 0.154112 0.008813
vertex -0.125342 0.098103 0.009062
endloop
endfacet
facet normal -0.507791 -0.508207 -0.695610
outer loop
vertex -0.125342 0.098103 0.009062
vertex -0.181056 0.154112 0.008813
vertex -0.123426 0.100020 0.006263
endloop
endfacet
facet normal -0.507999 -0.507999 -0.695610
outer loop
vertex -0.125342 0.098103 0.009062
vertex -0.123426 0.100020 0.006263
vertex -0.067565 0.044158 0.006263
endloop
endfacet
facet normal -0.425406 -0.425405 -0.798787
outer loop
vertex -0.067565 0.044158 0.006263
vertex -0.123426 0.100020 0.006263
vertex -0.065364 0.046359 0.003919
endloop
endfacet
facet normal -0.425406 -0.425407 -0.798786
outer loop
vertex -0.067565 0.044158 0.006263
vertex -0.065364 0.046359 0.003919
vertex -0.009503 -0.009503 0.003919
endloop
endfacet
facet normal -0.332481 -0.332481 -0.882560
outer loop
vertex -0.009503 -0.009503 0.003919
vertex -0.065364 0.046359 0.003919
vertex 0.160513 -0.174655 0.002087
endloop
endfacet
facet normal -0.502778 -0.502501 -0.703354
outer loop
vertex -0.181056 0.154112 0.008813
vertex -0.179172 0.155996 0.006120
vertex -0.123426 0.100020 0.006263
endloop
endfacet
facet normal -0.425263 -0.425549 -0.798786
outer loop
vertex -0.123426 0.100020 0.006263
vertex -0.179172 0.155996 0.006120
vertex -0.121225 0.102220 0.003919
endloop
endfacet
facet normal -0.425408 -0.425408 -0.798784
outer loop
vertex -0.123426 0.100020 0.006263
vertex -0.121225 0.102220 0.003919
vertex -0.065364 0.046359 0.003919
endloop
endfacet
facet normal -0.332483 -0.332483 -0.882559
outer loop
vertex -0.065364 0.046359 0.003919
vertex -0.121225 0.102220 0.003919
vertex 0.160513 -0.174655 0.002087
endloop
endfacet
facet normal -0.421799 -0.421656 -0.802678
outer loop
vertex -0.179172 0.155996 0.006120
vertex -0.177022 0.158146 0.003861
vertex -0.121225 0.102220 0.003919
endloop
endfacet
facet normal -0.338175 -0.338304 -0.878173
outer loop
vertex -0.121225 0.102220 0.003919
vertex -0.177022 0.158146 0.003861
vertex 0.160513 -0.174655 0.002087
endloop
endfacet
facet normal -0.331129 -0.331129 -0.883576
outer loop
vertex -0.177022 0.158146 0.003861
vertex -0.174655 0.160513 0.002087
vertex 0.160513 -0.174655 0.002087
endloop
endfacet
facet normal -0.425406 -0.425406 -0.798786
outer loop
vertex 0.046359 -0.065364 0.003919
vertex 0.102220 -0.121225 0.003919
vertex 0.044158 -0.067565 0.006263
endloop
endfacet
facet normal -0.425407 -0.425407 -0.798786
outer loop
vertex 0.044158 -0.067565 0.006263
vertex 0.102220 -0.121225 0.003919
vertex 0.100020 -0.123426 0.006263
endloop
endfacet
facet normal -0.508000 -0.508000 -0.695609
outer loop
vertex 0.044158 -0.067565 0.006263
vertex 0.100020 -0.123426 0.006263
vertex 0.042242 -0.069481 0.009062
endloop
endfacet
facet normal -0.507999 -0.507999 -0.695610
outer loop
vertex 0.042242 -0.069481 0.009062
vertex 0.100020 -0.123426 0.006263
vertex 0.098103 -0.125342 0.009062
endloop
endfacet
facet normal -0.578253 -0.578253 -0.575541
outer loop
vertex 0.042242 -0.069481 0.009062
vertex 0.098103 -0.125342 0.009062
vertex 0.040656 -0.071067 0.012248
endloop
endfacet
facet normal -0.578253 -0.578253 -0.575541
outer loop
vertex 0.040656 -0.071067 0.012248
vertex 0.098103 -0.125342 0.009062
vertex 0.096518 -0.126928 0.012248
endloop
endfacet
facet normal -0.634463 -0.634463 -0.441491
outer loop
vertex 0.040656 -0.071067 0.012248
vertex 0.096518 -0.126928 0.012248
vertex 0.039440 -0.072283 0.015744
endloop
endfacet
facet normal -0.634462 -0.634462 -0.441492
outer loop
vertex 0.039440 -0.072283 0.015744
vertex 0.096518 -0.126928 0.012248
vertex 0.095301 -0.128144 0.015744
endloop
endfacet
facet normal -0.675262 -0.675262 -0.296720
outer loop
vertex 0.039440 -0.072283 0.015744
vertex 0.095301 -0.128144 0.015744
vertex 0.038622 -0.073100 0.019465
endloop
endfacet
facet normal -0.675261 -0.675262 -0.296721
outer loop
vertex 0.038622 -0.073100 0.019465
vertex 0.095301 -0.128144 0.015744
vertex 0.094484 -0.128962 0.019465
endloop
endfacet
facet normal -0.699661 -0.699661 -0.144738
outer loop
vertex 0.038622 -0.073100 0.019465
vertex 0.094484 -0.128962 0.019465
vertex 0.038224 -0.073499 0.023320
endloop
endfacet
facet normal -0.699661 -0.699660 -0.144742
outer loop
vertex 0.038224 -0.073499 0.023320
vertex 0.094484 -0.128962 0.019465
vertex 0.094085 -0.129361 0.023320
endloop
endfacet
facet normal -0.707066 -0.707066 0.010751
outer loop
vertex 0.038224 -0.073499 0.023320
vertex 0.094085 -0.129361 0.023320
vertex 0.038253 -0.073470 0.027216
endloop
endfacet
facet normal -0.707066 -0.707066 0.010755
outer loop
vertex 0.038253 -0.073470 0.027216
vertex 0.094085 -0.129361 0.023320
vertex 0.094115 -0.129331 0.027216
endloop
endfacet
facet normal -0.697298 -0.697298 0.165985
outer loop
vertex 0.038253 -0.073470 0.027216
vertex 0.094115 -0.129331 0.027216
vertex 0.038711 -0.073012 0.031058
endloop
endfacet
facet normal -0.697298 -0.697298 0.165987
outer loop
vertex 0.038711 -0.073012 0.031058
vertex 0.094115 -0.129331 0.027216
vertex 0.094572 -0.128874 0.031058
endloop
endfacet
facet normal -0.670595 -0.670594 0.317186
outer loop
vertex 0.038711 -0.073012 0.031058
vertex 0.094572 -0.128874 0.031058
vertex 0.039584 -0.072138 0.034753
endloop
endfacet
facet normal -0.670593 -0.670594 0.317190
outer loop
vertex 0.039584 -0.072138 0.034753
vertex 0.094572 -0.128874 0.031058
vertex 0.095446 -0.128000 0.034753
endloop
endfacet
facet normal -0.627602 -0.627603 0.460684
outer loop
vertex 0.039584 -0.072138 0.034753
vertex 0.095446 -0.128000 0.034753
vertex 0.040854 -0.070869 0.038211
endloop
endfacet
facet normal -0.627603 -0.627602 0.460685
outer loop
vertex 0.040854 -0.070869 0.038211
vertex 0.095446 -0.128000 0.034753
vertex 0.096715 -0.126731 0.038211
endloop
endfacet
facet normal -0.569369 -0.569368 0.592991
outer loop
vertex 0.040854 -0.070869 0.038211
vertex 0.096715 -0.126731 0.038211
vertex 0.042487 -0.069235 0.041348
endloop
endfacet
facet normal -0.569370 -0.569370 0.592990
outer loop
vertex 0.042487 -0.069235 0.041348
vertex 0.096715 -0.126731 0.038211
vertex 0.098349 -0.125097 0.041348
endloop
endfacet
facet normal -0.497306 -0.497305 0.710897
outer loop
vertex 0.042487 -0.069235 0.041348
vertex 0.098349 -0.125097 0.041348
vertex 0.044446 -0.067277 0.044088
endloop
endfacet
facet normal -0.497303 -0.497305 0.710900
outer loop
vertex 0.044446 -0.067277 0.044088
vertex 0.098349 -0.125097 0.041348
vertex 0.100307 -0.123138 0.044088
endloop
endfacet
facet normal -0.413162 -0.413163 0.811538
outer loop
vertex 0.078836 -0.099877 0.045000
vertex 0.045341 -0.066382 0.045000
vertex 0.044446 -0.067277 0.044088
endloop
endfacet
facet normal -0.413163 -0.413161 0.811538
outer loop
vertex 0.078836 -0.099877 0.045000
vertex 0.044446 -0.067277 0.044088
vertex 0.100307 -0.123138 0.044088
endloop
endfacet
facet normal -0.413159 -0.413162 0.811540
outer loop
vertex 0.100307 -0.123138 0.044088
vertex 0.101203 -0.122243 0.045000
vertex 0.078836 -0.099877 0.045000
endloop
endfacet
facet normal 0.413161 0.413164 0.811538
outer loop
vertex 0.066382 -0.045341 0.045000
vertex 0.088748 -0.067708 0.045000
vertex 0.067277 -0.044446 0.044088
endloop
endfacet
facet normal 0.413165 0.413163 0.811536
outer loop
vertex 0.123138 -0.100307 0.044088
vertex 0.067277 -0.044446 0.044088
vertex 0.088748 -0.067708 0.045000
endloop
endfacet
facet normal 0.413159 0.413160 0.811541
outer loop
vertex 0.123138 -0.100307 0.044088
vertex 0.088748 -0.067708 0.045000
vertex 0.122243 -0.101203 0.045000
endloop
endfacet
facet normal 0.497303 0.497305 0.710899
outer loop
vertex 0.067277 -0.044446 0.044088
vertex 0.123138 -0.100307 0.044088
vertex 0.069236 -0.042487 0.041348
endloop
endfacet
facet normal 0.497306 0.497306 0.710897
outer loop
vertex 0.069236 -0.042487 0.041348
vertex 0.123138 -0.100307 0.044088
vertex 0.125097 -0.098349 0.041348
endloop
endfacet
facet normal 0.569367 0.569367 0.592994
outer loop
vertex 0.069236 -0.042487 0.041348
vertex 0.125097 -0.098349 0.041348
vertex 0.070869 -0.040854 0.038211
endloop
endfacet
facet normal 0.569368 0.569367 0.592993
outer loop
vertex 0.070869 -0.040854 0.038211
vertex 0.125097 -0.098349 0.041348
vertex 0.126731 -0.096715 0.038211
endloop
endfacet
facet normal 0.627603 0.627602 0.460683
outer loop
vertex 0.070869 -0.040854 0.038211
vertex 0.126731 -0.096715 0.038211
vertex 0.072138 -0.039584 0.034753
endloop
endfacet
facet normal 0.627603 0.627604 0.460681
outer loop
vertex 0.072138 -0.039584 0.034753
vertex 0.126731 -0.096715 0.038211
vertex 0.128000 -0.095446 0.034753
endloop
endfacet
facet normal 0.670593 0.670594 0.317189
outer loop
vertex 0.072138 -0.039584 0.034753
vertex 0.128000 -0.095446 0.034753
vertex 0.073012 -0.038711 0.031058
endloop
endfacet
facet normal 0.670594 0.670594 0.317188
outer loop
vertex 0.073012 -0.038711 0.031058
vertex 0.128000 -0.095446 0.034753
vertex 0.128874 -0.094572 0.031058
endloop
endfacet
facet normal 0.697298 0.697298 0.165986
outer loop
vertex 0.073012 -0.038711 0.031058
vertex 0.128874 -0.094572 0.031058
vertex 0.073470 -0.038253 0.027216
endloop
endfacet
facet normal 0.697298 0.697298 0.165984
outer loop
vertex 0.073470 -0.038253 0.027216
vertex 0.128874 -0.094572 0.031058
vertex 0.129331 -0.094115 0.027216
endloop
endfacet
facet normal 0.707066 0.707066 0.010754
outer loop
vertex 0.073470 -0.038253 0.027216
vertex 0.129331 -0.094115 0.027216
vertex 0.073499 -0.038224 0.023320
endloop
endfacet
facet normal 0.707066 0.707066 0.010751
outer loop
vertex 0.073499 -0.038224 0.023320
vertex 0.129331 -0.094115 0.027216
vertex 0.129361 -0.094085 0.023320
endloop
endfacet
facet normal 0.699661 0.699661 -0.144738
outer loop
vertex 0.073499 -0.038224 0.023320
vertex 0.129361 -0.094085 0.023320
vertex 0.073100 -0.038622 0.019465
endloop
endfacet
facet normal 0.699660 0.699660 -0.144745
outer loop
vertex 0.073100 -0.038622 0.019465
vertex 0.129361 -0.094085 0.023320
vertex 0.128962 -0.094484 0.019465
endloop
endfacet
facet normal 0.675263 0.675262 -0.296717
outer loop
vertex 0.073100 -0.038622 0.019465
vertex 0.128962 -0.094484 0.019465
vertex 0.072283 -0.039440 0.015744
endloop
endfacet
facet normal 0.675261 0.675262 -0.296722
outer loop
vertex 0.072283 -0.039440 0.015744
vertex 0.128962 -0.094484 0.019465
vertex 0.128144 -0.095301 0.015744
endloop
endfacet
facet normal 0.634464 0.634463 -0.441488
outer loop
vertex 0.072283 -0.039440 0.015744
vertex 0.128144 -0.095301 0.015744
vertex 0.071067 -0.040656 0.012248
endloop
endfacet
facet normal 0.634462 0.634462 -0.441494
outer loop
vertex 0.071067 -0.040656 0.012248
vertex 0.128144 -0.095301 0.015744
vertex 0.126928 -0.096518 0.012248
endloop
endfacet
facet normal 0.578254 0.578253 -0.575539
outer loop
vertex 0.071067 -0.040656 0.012248
vertex 0.126928 -0.096518 0.012248
vertex 0.069481 -0.042242 0.009062
endloop
endfacet
facet normal -0.425407 -0.425407 -0.798785
outer loop
vertex 0.046359 -0.065364 0.003919
vertex 0.044158 -0.067565 0.006263
vertex -0.011703 -0.011703 0.006263
endloop
endfacet
facet normal -0.508000 -0.508000 -0.695610
outer loop
vertex -0.011703 -0.011703 0.006263
vertex 0.044158 -0.067565 0.006263
vertex -0.013620 -0.013620 0.009062
endloop
endfacet
facet normal -0.508000 -0.508000 -0.695610
outer loop
vertex -0.011703 -0.011703 0.006263
vertex -0.013620 -0.013620 0.009062
vertex -0.069481 0.042242 0.009062
endloop
endfacet
facet normal -0.578253 -0.578253 -0.575540
outer loop
vertex -0.069481 0.042242 0.009062
vertex -0.013620 -0.013620 0.009062
vertex -0.071067 0.040656 0.012248
endloop
endfacet
facet normal -0.578254 -0.578254 -0.575538
outer loop
vertex -0.069481 0.042242 0.009062
vertex -0.071067 0.040656 0.012248
vertex -0.126928 0.096518 0.012248
endloop
endfacet
facet normal -0.634462 -0.634462 -0.441492
outer loop
vertex -0.126928 0.096518 0.012248
vertex -0.071067 0.040656 0.012248
vertex -0.128144 0.095301 0.015744
endloop
endfacet
facet normal -0.507999 -0.507999 -0.695610
outer loop
vertex -0.013620 -0.013620 0.009062
vertex 0.044158 -0.067565 0.006263
vertex 0.042242 -0.069481 0.009062
endloop
endfacet
facet normal -0.578253 -0.578253 -0.575540
outer loop
vertex -0.013620 -0.013620 0.009062
vertex 0.042242 -0.069481 0.009062
vertex -0.015205 -0.015205 0.012248
endloop
endfacet
facet normal -0.578253 -0.578253 -0.575540
outer loop
vertex -0.015205 -0.015205 0.012248
vertex 0.042242 -0.069481 0.009062
vertex 0.040656 -0.071067 0.012248
endloop
endfacet
facet normal -0.634462 -0.634463 -0.441491
outer loop
vertex -0.015205 -0.015205 0.012248
vertex 0.040656 -0.071067 0.012248
vertex -0.016421 -0.016421 0.015744
endloop
endfacet
facet normal -0.634463 -0.634462 -0.441491
outer loop
vertex -0.016421 -0.016421 0.015744
vertex 0.040656 -0.071067 0.012248
vertex 0.039440 -0.072283 0.015744
endloop
endfacet
facet normal -0.675262 -0.675262 -0.296720
outer loop
vertex -0.016421 -0.016421 0.015744
vertex 0.039440 -0.072283 0.015744
vertex -0.017239 -0.017239 0.019465
endloop
endfacet
facet normal -0.675262 -0.675262 -0.296721
outer loop
vertex -0.017239 -0.017239 0.019465
vertex 0.039440 -0.072283 0.015744
vertex 0.038622 -0.073100 0.019465
endloop
endfacet
facet normal -0.699661 -0.699661 -0.144741
outer loop
vertex -0.017239 -0.017239 0.019465
vertex 0.038622 -0.073100 0.019465
vertex -0.017638 -0.017638 0.023320
endloop
endfacet
facet normal -0.699661 -0.699661 -0.144738
outer loop
vertex -0.017638 -0.017638 0.023320
vertex 0.038622 -0.073100 0.019465
vertex 0.038224 -0.073499 0.023320
endloop
endfacet
facet normal -0.707066 -0.707066 0.010752
outer loop
vertex -0.017638 -0.017638 0.023320
vertex 0.038224 -0.073499 0.023320
vertex -0.017608 -0.017608 0.027216
endloop
endfacet
facet normal -0.707066 -0.707066 0.010753
outer loop
vertex -0.017608 -0.017608 0.027216
vertex 0.038224 -0.073499 0.023320
vertex 0.038253 -0.073470 0.027216
endloop
endfacet
facet normal -0.697298 -0.697298 0.165987
outer loop
vertex -0.017608 -0.017608 0.027216
vertex 0.038253 -0.073470 0.027216
vertex -0.017151 -0.017151 0.031058
endloop
endfacet
facet normal -0.697298 -0.697298 0.165984
outer loop
vertex -0.017151 -0.017151 0.031058
vertex 0.038253 -0.073470 0.027216
vertex 0.038711 -0.073012 0.031058
endloop
endfacet
facet normal -0.670594 -0.670593 0.317187
outer loop
vertex -0.017151 -0.017151 0.031058
vertex 0.038711 -0.073012 0.031058
vertex -0.016277 -0.016277 0.034753
endloop
endfacet
facet normal -0.670594 -0.670594 0.317187
outer loop
vertex -0.016277 -0.016277 0.034753
vertex 0.038711 -0.073012 0.031058
vertex 0.039584 -0.072138 0.034753
endloop
endfacet
facet normal -0.627602 -0.627603 0.460684
outer loop
vertex -0.016277 -0.016277 0.034753
vertex 0.039584 -0.072138 0.034753
vertex -0.015008 -0.015008 0.038211
endloop
endfacet
facet normal -0.627603 -0.627602 0.460684
outer loop
vertex -0.015008 -0.015008 0.038211
vertex 0.039584 -0.072138 0.034753
vertex 0.040854 -0.070869 0.038211
endloop
endfacet
facet normal -0.569368 -0.569368 0.592993
outer loop
vertex -0.015008 -0.015008 0.038211
vertex 0.040854 -0.070869 0.038211
vertex -0.013374 -0.013374 0.041348
endloop
endfacet
facet normal -0.569368 -0.569368 0.592992
outer loop
vertex -0.013374 -0.013374 0.041348
vertex 0.040854 -0.070869 0.038211
vertex 0.042487 -0.069235 0.041348
endloop
endfacet
facet normal -0.497304 -0.497304 0.710899
outer loop
vertex -0.013374 -0.013374 0.041348
vertex 0.042487 -0.069235 0.041348
vertex -0.011416 -0.011416 0.044088
endloop
endfacet
facet normal -0.497304 -0.497305 0.710898
outer loop
vertex -0.011416 -0.011416 0.044088
vertex 0.042487 -0.069235 0.041348
vertex 0.044446 -0.067277 0.044088
endloop
endfacet
facet normal -0.413158 -0.413162 0.811540
outer loop
vertex 0.022974 -0.044015 0.045000
vertex -0.010520 -0.010520 0.045000
vertex -0.011416 -0.011416 0.044088
endloop
endfacet
facet normal -0.413163 -0.413161 0.811538
outer loop
vertex 0.022974 -0.044015 0.045000
vertex -0.011416 -0.011416 0.044088
vertex 0.044446 -0.067277 0.044088
endloop
endfacet
facet normal -0.413161 -0.413164 0.811538
outer loop
vertex 0.044446 -0.067277 0.044088
vertex 0.045341 -0.066382 0.045000
vertex 0.022974 -0.044015 0.045000
endloop
endfacet
facet normal 0.413159 0.413162 0.811540
outer loop
vertex 0.010520 0.010520 0.045000
vertex 0.032887 -0.011846 0.045000
vertex 0.011416 0.011416 0.044088
endloop
endfacet
facet normal 0.413163 0.413161 0.811538
outer loop
vertex 0.067277 -0.044446 0.044088
vertex 0.011416 0.011416 0.044088
vertex 0.032887 -0.011846 0.045000
endloop
endfacet
facet normal 0.413164 0.413161 0.811538
outer loop
vertex 0.067277 -0.044446 0.044088
vertex 0.032887 -0.011846 0.045000
vertex 0.066382 -0.045341 0.045000
endloop
endfacet
facet normal 0.497303 0.497305 0.710899
outer loop
vertex 0.011416 0.011416 0.044088
vertex 0.067277 -0.044446 0.044088
vertex 0.013374 0.013374 0.041348
endloop
endfacet
facet normal 0.497305 0.497305 0.710898
outer loop
vertex 0.013374 0.013374 0.041348
vertex 0.067277 -0.044446 0.044088
vertex 0.069236 -0.042487 0.041348
endloop
endfacet
facet normal 0.569369 0.569368 0.592992
outer loop
vertex 0.013374 0.013374 0.041348
vertex 0.069236 -0.042487 0.041348
vertex 0.015008 0.015008 0.038211
endloop
endfacet
facet normal 0.569368 0.569368 0.592993
outer loop
vertex 0.015008 0.015008 0.038211
vertex 0.069236 -0.042487 0.041348
vertex 0.070869 -0.040854 0.038211
endloop
endfacet
facet normal 0.627603 0.627602 0.460684
outer loop
vertex 0.015008 0.015008 0.038211
vertex 0.070869 -0.040854 0.038211
vertex 0.016277 0.016277 0.034753
endloop
endfacet
facet normal 0.627602 0.627603 0.460685
outer loop
vertex 0.016277 0.016277 0.034753
vertex 0.070869 -0.040854 0.038211
vertex 0.072138 -0.039584 0.034753
endloop
endfacet
facet normal 0.670594 0.670594 0.317187
outer loop
vertex 0.016277 0.016277 0.034753
vertex 0.072138 -0.039584 0.034753
vertex 0.017151 0.017151 0.031058
endloop
endfacet
facet normal 0.670594 0.670594 0.317187
outer loop
vertex 0.017151 0.017151 0.031058
vertex 0.072138 -0.039584 0.034753
vertex 0.073012 -0.038711 0.031058
endloop
endfacet
facet normal 0.697298 0.697298 0.165985
outer loop
vertex 0.017151 0.017151 0.031058
vertex 0.073012 -0.038711 0.031058
vertex 0.017608 0.017608 0.027216
endloop
endfacet
facet normal 0.697298 0.697298 0.165985
outer loop
vertex 0.017608 0.017608 0.027216
vertex 0.073012 -0.038711 0.031058
vertex 0.073470 -0.038253 0.027216
endloop
endfacet
facet normal 0.707066 0.707066 0.010753
outer loop
vertex 0.017608 0.017608 0.027216
vertex 0.073470 -0.038253 0.027216
vertex 0.017638 0.017638 0.023320
endloop
endfacet
facet normal 0.707066 0.707066 0.010753
outer loop
vertex 0.017638 0.017638 0.023320
vertex 0.073470 -0.038253 0.027216
vertex 0.073499 -0.038224 0.023320
endloop
endfacet
facet normal 0.699661 0.699660 -0.144741
outer loop
vertex 0.017638 0.017638 0.023320
vertex 0.073499 -0.038224 0.023320
vertex 0.017239 0.017239 0.019465
endloop
endfacet
facet normal 0.699660 0.699661 -0.144739
outer loop
vertex 0.017239 0.017239 0.019465
vertex 0.073499 -0.038224 0.023320
vertex 0.073100 -0.038622 0.019465
endloop
endfacet
facet normal 0.675262 0.675262 -0.296720
outer loop
vertex 0.017239 0.017239 0.019465
vertex 0.073100 -0.038622 0.019465
vertex 0.016421 0.016422 0.015744
endloop
endfacet
facet normal 0.675262 0.675262 -0.296720
outer loop
vertex 0.016421 0.016422 0.015744
vertex 0.073100 -0.038622 0.019465
vertex 0.072283 -0.039440 0.015744
endloop
endfacet
facet normal 0.634463 0.634463 -0.441491
outer loop
vertex 0.016421 0.016422 0.015744
vertex 0.072283 -0.039440 0.015744
vertex 0.015205 0.015205 0.012248
endloop
endfacet
facet normal 0.634463 0.634463 -0.441491
outer loop
vertex 0.015205 0.015205 0.012248
vertex 0.072283 -0.039440 0.015744
vertex 0.071067 -0.040656 0.012248
endloop
endfacet
facet normal 0.578253 0.578253 -0.575540
outer loop
vertex 0.015205 0.015205 0.012248
vertex 0.071067 -0.040656 0.012248
vertex 0.013620 0.013620 0.009062
endloop
endfacet
facet normal 0.578253 0.578253 -0.575540
outer loop
vertex 0.013620 0.013620 0.009062
vertex 0.071067 -0.040656 0.012248
vertex 0.069481 -0.042242 0.009062
endloop
endfacet
facet normal 0.507999 0.507999 -0.695610
outer loop
vertex 0.013620 0.013620 0.009062
vertex 0.069481 -0.042242 0.009062
vertex 0.011703 0.011703 0.006263
endloop
endfacet
facet normal -0.578253 -0.578253 -0.575540
outer loop
vertex -0.013620 -0.013620 0.009062
vertex -0.015205 -0.015205 0.012248
vertex -0.071067 0.040656 0.012248
endloop
endfacet
facet normal -0.634463 -0.634463 -0.441491
outer loop
vertex -0.071067 0.040656 0.012248
vertex -0.015205 -0.015205 0.012248
vertex -0.072283 0.039440 0.015744
endloop
endfacet
facet normal -0.634463 -0.634463 -0.441490
outer loop
vertex -0.071067 0.040656 0.012248
vertex -0.072283 0.039440 0.015744
vertex -0.128144 0.095301 0.015744
endloop
endfacet
facet normal -0.675261 -0.675261 -0.296723
outer loop
vertex -0.128144 0.095301 0.015744
vertex -0.072283 0.039440 0.015744
vertex -0.128962 0.094484 0.019465
endloop
endfacet
facet normal -0.634463 -0.634463 -0.441491
outer loop
vertex -0.072283 0.039440 0.015744
vertex -0.015205 -0.015205 0.012248
vertex -0.016421 -0.016421 0.015744
endloop
endfacet
facet normal -0.675262 -0.675262 -0.296720
outer loop
vertex -0.072283 0.039440 0.015744
vertex -0.016421 -0.016421 0.015744
vertex -0.073100 0.038622 0.019465
endloop
endfacet
facet normal -0.675262 -0.675262 -0.296720
outer loop
vertex -0.073100 0.038622 0.019465
vertex -0.016421 -0.016421 0.015744
vertex -0.017239 -0.017239 0.019465
endloop
endfacet
facet normal -0.699660 -0.699661 -0.144740
outer loop
vertex -0.073100 0.038622 0.019465
vertex -0.017239 -0.017239 0.019465
vertex -0.073499 0.038224 0.023320
endloop
endfacet
facet normal -0.699661 -0.699660 -0.144741
outer loop
vertex -0.073499 0.038224 0.023320
vertex -0.017239 -0.017239 0.019465
vertex -0.017638 -0.017638 0.023320
endloop
endfacet
facet normal -0.707066 -0.707066 0.010752
outer loop
vertex -0.073499 0.038224 0.023320
vertex -0.017638 -0.017638 0.023320
vertex -0.073470 0.038253 0.027216
endloop
endfacet
facet normal -0.707066 -0.707066 0.010753
outer loop
vertex -0.073470 0.038253 0.027216
vertex -0.017638 -0.017638 0.023320
vertex -0.017608 -0.017608 0.027216
endloop
endfacet
facet normal -0.697298 -0.697298 0.165985
outer loop
vertex -0.073470 0.038253 0.027216
vertex -0.017608 -0.017608 0.027216
vertex -0.073012 0.038711 0.031058
endloop
endfacet
facet normal -0.697298 -0.697298 0.165986
outer loop
vertex -0.073012 0.038711 0.031058
vertex -0.017608 -0.017608 0.027216
vertex -0.017151 -0.017151 0.031058
endloop
endfacet
facet normal -0.670594 -0.670594 0.317187
outer loop
vertex -0.073012 0.038711 0.031058
vertex -0.017151 -0.017151 0.031058
vertex -0.072138 0.039585 0.034753
endloop
endfacet
facet normal -0.670594 -0.670594 0.317187
outer loop
vertex -0.072138 0.039585 0.034753
vertex -0.017151 -0.017151 0.031058
vertex -0.016277 -0.016277 0.034753
endloop
endfacet
facet normal -0.627602 -0.627603 0.460685
outer loop
vertex -0.072138 0.039585 0.034753
vertex -0.016277 -0.016277 0.034753
vertex -0.070869 0.040854 0.038211
endloop
endfacet
facet normal -0.627603 -0.627602 0.460684
outer loop
vertex -0.070869 0.040854 0.038211
vertex -0.016277 -0.016277 0.034753
vertex -0.015008 -0.015008 0.038211
endloop
endfacet
facet normal -0.569368 -0.569368 0.592993
outer loop
vertex -0.070869 0.040854 0.038211
vertex -0.015008 -0.015008 0.038211
vertex -0.069236 0.042487 0.041348
endloop
endfacet
facet normal -0.569369 -0.569368 0.592992
outer loop
vertex -0.069236 0.042487 0.041348
vertex -0.015008 -0.015008 0.038211
vertex -0.013374 -0.013374 0.041348
endloop
endfacet
facet normal -0.497306 -0.497305 0.710897
outer loop
vertex -0.069236 0.042487 0.041348
vertex -0.013374 -0.013374 0.041348
vertex -0.067277 0.044446 0.044088
endloop
endfacet
facet normal -0.497304 -0.497305 0.710898
outer loop
vertex -0.067277 0.044446 0.044088
vertex -0.013374 -0.013374 0.041348
vertex -0.011416 -0.011416 0.044088
endloop
endfacet
facet normal -0.413163 -0.413161 0.811538
outer loop
vertex -0.032887 0.011846 0.045000
vertex -0.066382 0.045341 0.045000
vertex -0.067277 0.044446 0.044088
endloop
endfacet
facet normal -0.413163 -0.413161 0.811538
outer loop
vertex -0.032887 0.011846 0.045000
vertex -0.067277 0.044446 0.044088
vertex -0.011416 -0.011416 0.044088
endloop
endfacet
facet normal -0.413159 -0.413162 0.811540
outer loop
vertex -0.011416 -0.011416 0.044088
vertex -0.010520 -0.010520 0.045000
vertex -0.032887 0.011846 0.045000
endloop
endfacet
facet normal 0.413159 0.413162 0.811540
outer loop
vertex -0.045341 0.066382 0.045000
vertex -0.022974 0.044015 0.045000
vertex -0.044446 0.067277 0.044088
endloop
endfacet
facet normal 0.413163 0.413161 0.811538
outer loop
vertex 0.011416 0.011416 0.044088
vertex -0.044446 0.067277 0.044088
vertex -0.022974 0.044015 0.045000
endloop
endfacet
facet normal 0.413158 0.413162 0.811540
outer loop
vertex 0.011416 0.011416 0.044088
vertex -0.022974 0.044015 0.045000
vertex 0.010520 0.010520 0.045000
endloop
endfacet
facet normal 0.497305 0.497305 0.710898
outer loop
vertex -0.044446 0.067277 0.044088
vertex 0.011416 0.011416 0.044088
vertex -0.042487 0.069236 0.041348
endloop
endfacet
facet normal 0.497305 0.497304 0.710898
outer loop
vertex -0.042487 0.069236 0.041348
vertex 0.011416 0.011416 0.044088
vertex 0.013374 0.013374 0.041348
endloop
endfacet
facet normal 0.569368 0.569368 0.592992
outer loop
vertex -0.042487 0.069236 0.041348
vertex 0.013374 0.013374 0.041348
vertex -0.040854 0.070869 0.038211
endloop
endfacet
facet normal 0.569368 0.569368 0.592993
outer loop
vertex -0.040854 0.070869 0.038211
vertex 0.013374 0.013374 0.041348
vertex 0.015008 0.015008 0.038211
endloop
endfacet
facet normal 0.627603 0.627602 0.460685
outer loop
vertex -0.040854 0.070869 0.038211
vertex 0.015008 0.015008 0.038211
vertex -0.039584 0.072138 0.034753
endloop
endfacet
facet normal 0.627602 0.627603 0.460684
outer loop
vertex -0.039584 0.072138 0.034753
vertex 0.015008 0.015008 0.038211
vertex 0.016277 0.016277 0.034753
endloop
endfacet
facet normal 0.670594 0.670594 0.317186
outer loop
vertex -0.039584 0.072138 0.034753
vertex 0.016277 0.016277 0.034753
vertex -0.038711 0.073012 0.031058
endloop
endfacet
facet normal 0.670594 0.670593 0.317188
outer loop
vertex -0.038711 0.073012 0.031058
vertex 0.016277 0.016277 0.034753
vertex 0.017151 0.017151 0.031058
endloop
endfacet
facet normal 0.697298 0.697298 0.165985
outer loop
vertex -0.038711 0.073012 0.031058
vertex 0.017151 0.017151 0.031058
vertex -0.038253 0.073470 0.027216
endloop
endfacet
facet normal 0.697298 0.697298 0.165986
outer loop
vertex -0.038253 0.073470 0.027216
vertex 0.017151 0.017151 0.031058
vertex 0.017608 0.017608 0.027216
endloop
endfacet
facet normal 0.707066 0.707066 0.010754
outer loop
vertex -0.038253 0.073470 0.027216
vertex 0.017608 0.017608 0.027216
vertex -0.038224 0.073499 0.023320
endloop
endfacet
facet normal 0.707066 0.707066 0.010753
outer loop
vertex -0.038224 0.073499 0.023320
vertex 0.017608 0.017608 0.027216
vertex 0.017638 0.017638 0.023320
endloop
endfacet
facet normal 0.699661 0.699661 -0.144740
outer loop
vertex -0.038224 0.073499 0.023320
vertex 0.017638 0.017638 0.023320
vertex -0.038622 0.073100 0.019465
endloop
endfacet
facet normal 0.699661 0.699660 -0.144741
outer loop
vertex -0.038622 0.073100 0.019465
vertex 0.017638 0.017638 0.023320
vertex 0.017239 0.017239 0.019465
endloop
endfacet
facet normal 0.675262 0.675262 -0.296720
outer loop
vertex -0.038622 0.073100 0.019465
vertex 0.017239 0.017239 0.019465
vertex -0.039440 0.072283 0.015744
endloop
endfacet
facet normal 0.675262 0.675262 -0.296720
outer loop
vertex -0.039440 0.072283 0.015744
vertex 0.017239 0.017239 0.019465
vertex 0.016421 0.016422 0.015744
endloop
endfacet
facet normal 0.634463 0.634463 -0.441491
outer loop
vertex -0.039440 0.072283 0.015744
vertex 0.016421 0.016422 0.015744
vertex -0.040656 0.071067 0.012248
endloop
endfacet
facet normal 0.634463 0.634463 -0.441491
outer loop
vertex -0.040656 0.071067 0.012248
vertex 0.016421 0.016422 0.015744
vertex 0.015205 0.015205 0.012248
endloop
endfacet
facet normal 0.578253 0.578253 -0.575540
outer loop
vertex -0.040656 0.071067 0.012248
vertex 0.015205 0.015205 0.012248
vertex -0.042242 0.069481 0.009062
endloop
endfacet
facet normal 0.578253 0.578253 -0.575540
outer loop
vertex -0.042242 0.069481 0.009062
vertex 0.015205 0.015205 0.012248
vertex 0.013620 0.013620 0.009062
endloop
endfacet
facet normal 0.507999 0.508000 -0.695610
outer loop
vertex -0.042242 0.069481 0.009062
vertex 0.013620 0.013620 0.009062
vertex -0.044158 0.067565 0.006263
endloop
endfacet
facet normal 0.507999 0.507999 -0.695610
outer loop
vertex -0.044158 0.067565 0.006263
vertex 0.013620 0.013620 0.009062
vertex 0.011703 0.011703 0.006263
endloop
endfacet
facet normal 0.425408 0.425408 -0.798784
outer loop
vertex -0.044158 0.067565 0.006263
vertex 0.011703 0.011703 0.006263
vertex -0.046359 0.065364 0.003919
endloop
endfacet
facet normal -0.699660 -0.699660 -0.144745
outer loop
vertex -0.129361 0.094085 0.023320
vertex -0.128962 0.094484 0.019465
vertex -0.073100 0.038622 0.019465
endloop
endfacet
facet normal -0.675263 -0.675262 -0.296717
outer loop
vertex -0.073100 0.038622 0.019465
vertex -0.128962 0.094484 0.019465
vertex -0.072283 0.039440 0.015744
endloop
endfacet
facet normal -0.699661 -0.699661 -0.144738
outer loop
vertex -0.129361 0.094085 0.023320
vertex -0.073100 0.038622 0.019465
vertex -0.073499 0.038224 0.023320
endloop
endfacet
facet normal -0.707066 -0.707066 0.010754
outer loop
vertex -0.129331 0.094115 0.027216
vertex -0.129361 0.094085 0.023320
vertex -0.073499 0.038224 0.023320
endloop
endfacet
facet normal -0.707066 -0.707066 0.010752
outer loop
vertex -0.129331 0.094115 0.027216
vertex -0.073499 0.038224 0.023320
vertex -0.073470 0.038253 0.027216
endloop
endfacet
facet normal -0.697298 -0.697298 0.165985
outer loop
vertex -0.128874 0.094572 0.031058
vertex -0.129331 0.094115 0.027216
vertex -0.073470 0.038253 0.027216
endloop
endfacet
facet normal -0.697297 -0.697298 0.165988
outer loop
vertex -0.128874 0.094572 0.031058
vertex -0.073470 0.038253 0.027216
vertex -0.073012 0.038711 0.031058
endloop
endfacet
facet normal -0.670594 -0.670594 0.317186
outer loop
vertex -0.128000 0.095446 0.034753
vertex -0.128874 0.094572 0.031058
vertex -0.073012 0.038711 0.031058
endloop
endfacet
facet normal -0.670593 -0.670594 0.317189
outer loop
vertex -0.128000 0.095446 0.034753
vertex -0.073012 0.038711 0.031058
vertex -0.072138 0.039585 0.034753
endloop
endfacet
facet normal -0.627603 -0.627604 0.460682
outer loop
vertex -0.126731 0.096715 0.038211
vertex -0.128000 0.095446 0.034753
vertex -0.072138 0.039585 0.034753
endloop
endfacet
facet normal -0.627603 -0.627602 0.460684
outer loop
vertex -0.126731 0.096715 0.038211
vertex -0.072138 0.039585 0.034753
vertex -0.070869 0.040854 0.038211
endloop
endfacet
facet normal -0.569369 -0.569368 0.592992
outer loop
vertex -0.125097 0.098349 0.041348
vertex -0.126731 0.096715 0.038211
vertex -0.070869 0.040854 0.038211
endloop
endfacet
facet normal -0.569368 -0.569368 0.592993
outer loop
vertex -0.125097 0.098349 0.041348
vertex -0.070869 0.040854 0.038211
vertex -0.069236 0.042487 0.041348
endloop
endfacet
facet normal -0.497306 -0.497305 0.710897
outer loop
vertex -0.123138 0.100307 0.044088
vertex -0.125097 0.098349 0.041348
vertex -0.069236 0.042487 0.041348
endloop
endfacet
facet normal -0.497303 -0.497304 0.710900
outer loop
vertex -0.123138 0.100307 0.044088
vertex -0.069236 0.042487 0.041348
vertex -0.067277 0.044446 0.044088
endloop
endfacet
facet normal -0.413159 -0.413160 0.811541
outer loop
vertex -0.088748 0.067708 0.045000
vertex -0.122243 0.101203 0.045000
vertex -0.123138 0.100307 0.044088
endloop
endfacet
facet normal -0.413166 -0.413164 0.811535
outer loop
vertex -0.088748 0.067708 0.045000
vertex -0.123138 0.100307 0.044088
vertex -0.067277 0.044446 0.044088
endloop
endfacet
facet normal -0.413159 -0.413162 0.811540
outer loop
vertex -0.067277 0.044446 0.044088
vertex -0.066382 0.045341 0.045000
vertex -0.088748 0.067708 0.045000
endloop
endfacet
facet normal 0.413159 0.413162 0.811540
outer loop
vertex -0.101203 0.122243 0.045000
vertex -0.078836 0.099877 0.045000
vertex -0.100307 0.123138 0.044088
endloop
endfacet
facet normal 0.413161 0.413159 0.811540
outer loop
vertex -0.044446 0.067277 0.044088
vertex -0.100307 0.123138 0.044088
vertex -0.078836 0.099877 0.045000
endloop
endfacet
facet normal 0.413163 0.413164 0.811537
outer loop
vertex -0.044446 0.067277 0.044088
vertex -0.078836 0.099877 0.045000
vertex -0.045341 0.066382 0.045000
endloop
endfacet
facet normal 0.497304 0.497306 0.710898
outer loop
vertex -0.098349 0.125097 0.041348
vertex -0.100307 0.123138 0.044088
vertex -0.044446 0.067277 0.044088
endloop
endfacet
facet normal 0.497306 0.497305 0.710897
outer loop
vertex -0.098349 0.125097 0.041348
vertex -0.044446 0.067277 0.044088
vertex -0.042487 0.069236 0.041348
endloop
endfacet
facet normal 0.569368 0.569368 0.592992
outer loop
vertex -0.096715 0.126731 0.038211
vertex -0.098349 0.125097 0.041348
vertex -0.042487 0.069236 0.041348
endloop
endfacet
facet normal 0.569368 0.569368 0.592992
outer loop
vertex -0.096715 0.126731 0.038211
vertex -0.042487 0.069236 0.041348
vertex -0.040854 0.070869 0.038211
endloop
endfacet
facet normal 0.627602 0.627602 0.460686
outer loop
vertex -0.095446 0.128000 0.034753
vertex -0.096715 0.126731 0.038211
vertex -0.040854 0.070869 0.038211
endloop
endfacet
facet normal 0.627603 0.627603 0.460683
outer loop
vertex -0.095446 0.128000 0.034753
vertex -0.040854 0.070869 0.038211
vertex -0.039584 0.072138 0.034753
endloop
endfacet
facet normal 0.670593 0.670594 0.317189
outer loop
vertex -0.094572 0.128874 0.031058
vertex -0.095446 0.128000 0.034753
vertex -0.039584 0.072138 0.034753
endloop
endfacet
facet normal 0.670595 0.670594 0.317186
outer loop
vertex -0.094572 0.128874 0.031058
vertex -0.039584 0.072138 0.034753
vertex -0.038711 0.073012 0.031058
endloop
endfacet
facet normal 0.697298 0.697298 0.165988
outer loop
vertex -0.094115 0.129331 0.027216
vertex -0.094572 0.128874 0.031058
vertex -0.038711 0.073012 0.031058
endloop
endfacet
facet normal 0.697298 0.697298 0.165984
outer loop
vertex -0.094115 0.129331 0.027216
vertex -0.038711 0.073012 0.031058
vertex -0.038253 0.073470 0.027216
endloop
endfacet
facet normal 0.707066 0.707066 0.010751
outer loop
vertex -0.094085 0.129361 0.023320
vertex -0.094115 0.129331 0.027216
vertex -0.038253 0.073470 0.027216
endloop
endfacet
facet normal 0.707066 0.707066 0.010754
outer loop
vertex -0.094085 0.129361 0.023320
vertex -0.038253 0.073470 0.027216
vertex -0.038224 0.073499 0.023320
endloop
endfacet
facet normal 0.699661 0.699661 -0.144741
outer loop
vertex -0.094484 0.128962 0.019465
vertex -0.094085 0.129361 0.023320
vertex -0.038224 0.073499 0.023320
endloop
endfacet
facet normal 0.699661 0.699660 -0.144742
outer loop
vertex -0.094484 0.128962 0.019465
vertex -0.038224 0.073499 0.023320
vertex -0.038622 0.073100 0.019465
endloop
endfacet
facet normal 0.675262 0.675263 -0.296717
outer loop
vertex -0.095301 0.128144 0.015744
vertex -0.094484 0.128962 0.019465
vertex -0.038622 0.073100 0.019465
endloop
endfacet
facet normal 0.675262 0.675262 -0.296722
outer loop
vertex -0.095301 0.128144 0.015744
vertex -0.038622 0.073100 0.019465
vertex -0.039440 0.072283 0.015744
endloop
endfacet
facet normal 0.634463 0.634463 -0.441491
outer loop
vertex -0.096518 0.126928 0.012248
vertex -0.095301 0.128144 0.015744
vertex -0.039440 0.072283 0.015744
endloop
endfacet
facet normal 0.634462 0.634462 -0.441492
outer loop
vertex -0.096518 0.126928 0.012248
vertex -0.039440 0.072283 0.015744
vertex -0.040656 0.071067 0.012248
endloop
endfacet
facet normal 0.578254 0.578254 -0.575539
outer loop
vertex -0.098103 0.125342 0.009062
vertex -0.096518 0.126928 0.012248
vertex -0.040656 0.071067 0.012248
endloop
endfacet
facet normal 0.578253 0.578253 -0.575541
outer loop
vertex -0.098103 0.125342 0.009062
vertex -0.040656 0.071067 0.012248
vertex -0.042242 0.069481 0.009062
endloop
endfacet
facet normal 0.507999 0.507999 -0.695610
outer loop
vertex -0.100020 0.123426 0.006263
vertex -0.098103 0.125342 0.009062
vertex -0.042242 0.069481 0.009062
endloop
endfacet
facet normal 0.507999 0.507999 -0.695610
outer loop
vertex -0.100020 0.123426 0.006263
vertex -0.042242 0.069481 0.009062
vertex -0.044158 0.067565 0.006263
endloop
endfacet
facet normal 0.425408 0.425408 -0.798785
outer loop
vertex -0.102220 0.121225 0.003919
vertex -0.100020 0.123426 0.006263
vertex -0.044158 0.067565 0.006263
endloop
endfacet
facet normal 0.425407 0.425407 -0.798785
outer loop
vertex -0.102220 0.121225 0.003919
vertex -0.044158 0.067565 0.006263
vertex -0.046359 0.065364 0.003919
endloop
endfacet
facet normal -0.707107 -0.707107 0.000000
outer loop
vertex 0.160513 -0.174655 0.000000
vertex 0.160513 -0.174655 0.002087
vertex -0.174655 0.160513 0.000000
endloop
endfacet
facet normal -0.707107 -0.707107 0.000000
outer loop
vertex -0.174655 0.160513 0.000000
vertex 0.160513 -0.174655 0.002087
vertex -0.174655 0.160513 0.002087
endloop
endfacet
facet normal -0.707107 0.707107 0.000000
outer loop
vertex -0.174655 0.160513 0.000000
vertex -0.174655 0.160513 0.002087
vertex -0.160513 0.174655 0.000000
endloop
endfacet
facet normal -0.707107 0.707107 0.000000
outer loop
vertex -0.160513 0.174655 0.000000
vertex -0.174655 0.160513 0.002087
vertex -0.160513 0.174655 0.002087
endloop
endfacet
facet normal -0.707107 0.707107 0.000000
outer loop
vertex -0.160513 0.174655 0.002087
vertex -0.174655 0.160513 0.002087
vertex -0.158146 0.177022 0.003861
endloop
endfacet
facet normal -0.707108 0.707106 0.000000
outer loop
vertex -0.158146 0.177022 0.003861
vertex -0.174655 0.160513 0.002087
vertex -0.155996 0.179172 0.006120
endloop
endfacet
facet normal -0.707106 0.707108 0.000000
outer loop
vertex -0.155996 0.179172 0.006120
vertex -0.174655 0.160513 0.002087
vertex -0.154112 0.181056 0.008813
endloop
endfacet
facet normal -0.707107 0.707107 0.000000
outer loop
vertex -0.154112 0.181056 0.008813
vertex -0.174655 0.160513 0.002087
vertex -0.152538 0.182631 0.011878
endloop
endfacet
facet normal -0.707107 0.707107 0.000000
outer loop
vertex -0.152538 0.182631 0.011878
vertex -0.174655 0.160513 0.002087
vertex -0.151308 0.183860 0.015243
endloop
endfacet
facet normal -0.707107 0.707106 0.000009
outer loop
vertex -0.151308 0.183860 0.015243
vertex -0.174655 0.160513 0.002087
vertex -0.150453 0.184716 0.018833
endloop
endfacet
facet normal -0.707105 0.707109 -0.000008
outer loop
vertex -0.150453 0.184716 0.018833
vertex -0.174655 0.160513 0.002087
vertex -0.149991 0.185178 0.022564
endloop
endfacet
facet normal -0.707109 0.707105 0.000007
outer loop
vertex -0.149991 0.185178 0.022564
vertex -0.174655 0.160513 0.002087
vertex -0.149932 0.185236 0.026352
endloop
endfacet
facet normal -0.707106 0.707107 -0.000007
outer loop
vertex -0.149932 0.185236 0.026352
vertex -0.174655 0.160513 0.002087
vertex -0.150280 0.184889 0.030108
endloop
endfacet
facet normal -0.707107 0.707106 -0.000006
outer loop
vertex -0.150280 0.184889 0.030108
vertex -0.174655 0.160513 0.002087
vertex -0.151024 0.184145 0.033747
endloop
endfacet
facet normal -0.707109 0.707105 0.000006
outer loop
vertex -0.151024 0.184145 0.033747
vertex -0.174655 0.160513 0.002087
vertex -0.152148 0.183020 0.037185
endloop
endfacet
facet normal -0.707105 0.707108 -0.000003
outer loop
vertex -0.152148 0.183020 0.037185
vertex -0.174655 0.160513 0.002087
vertex -0.153627 0.181541 0.040343
endloop
endfacet
facet normal -0.707106 0.707108 0.000000
outer loop
vertex -0.153627 0.181541 0.040343
vertex -0.174655 0.160513 0.002087
vertex -0.155427 0.179742 0.043149
endloop
endfacet
facet normal -0.707106 0.707107 0.000000
outer loop
vertex -0.155427 0.179742 0.043149
vertex -0.174655 0.160513 0.002087
vertex -0.157718 0.177451 0.045000
endloop
endfacet
facet normal -0.707113 0.707101 0.000008
outer loop
vertex -0.155427 0.179742 0.043149
vertex -0.157718 0.177451 0.045000
vertex -0.157037 0.178132 0.045000
endloop
endfacet
facet normal -0.707104 0.707109 -0.000003
outer loop
vertex -0.160619 0.174550 0.045000
vertex -0.157718 0.177451 0.045000
vertex -0.174655 0.160513 0.002087
endloop
endfacet
facet normal -0.707111 0.707103 0.000003
outer loop
vertex -0.163323 0.171846 0.045000
vertex -0.160619 0.174550 0.045000
vertex -0.174655 0.160513 0.002087
endloop
endfacet
facet normal -0.707104 0.707109 -0.000000
outer loop
vertex -0.163323 0.171846 0.045000
vertex -0.174655 0.160513 0.002087
vertex -0.177022 0.158146 0.003861
endloop
endfacet
facet normal -0.707094 0.707119 0.000000
outer loop
vertex -0.163323 0.171846 0.045000
vertex -0.177022 0.158146 0.003861
vertex -0.163566 0.171603 0.045000
endloop
endfacet
facet normal -0.707110 0.707104 -0.000001
outer loop
vertex -0.163566 0.171603 0.045000
vertex -0.177022 0.158146 0.003861
vertex -0.179172 0.155996 0.006120
endloop
endfacet
facet normal -0.707133 0.707080 0.000000
outer loop
vertex -0.163566 0.171603 0.045000
vertex -0.179172 0.155996 0.006120
vertex -0.163827 0.171342 0.045000
endloop
endfacet
facet normal -0.707101 0.707113 -0.000001
outer loop
vertex -0.163827 0.171342 0.045000
vertex -0.179172 0.155996 0.006120
vertex -0.181056 0.154112 0.008813
endloop
endfacet
facet normal -0.707127 0.707087 0.000000
outer loop
vertex -0.163827 0.171342 0.045000
vertex -0.181056 0.154112 0.008813
vertex -0.164111 0.171058 0.045000
endloop
endfacet
facet normal -0.707109 0.707105 -0.000001
outer loop
vertex -0.164111 0.171058 0.045000
vertex -0.181056 0.154112 0.008813
vertex -0.182631 0.152538 0.011878
endloop
endfacet
facet normal -0.707083 0.707130 0.000000
outer loop
vertex -0.164111 0.171058 0.045000
vertex -0.182631 0.152538 0.011878
vertex -0.164425 0.170744 0.045000
endloop
endfacet
facet normal -0.707108 0.707105 0.000000
outer loop
vertex -0.164425 0.170744 0.045000
vertex -0.182631 0.152538 0.011878
vertex -0.183860 0.151308 0.015243
endloop
endfacet
facet normal -0.707115 0.707099 0.000000
outer loop
vertex -0.164425 0.170744 0.045000
vertex -0.183860 0.151308 0.015243
vertex -0.164778 0.170390 0.045000
endloop
endfacet
facet normal -0.707106 0.707108 -0.000002
outer loop
vertex -0.164778 0.170390 0.045000
vertex -0.183860 0.151308 0.015243
vertex -0.184716 0.150453 0.018833
endloop
endfacet
facet normal -0.707134 0.707080 0.000031
outer loop
vertex -0.164778 0.170390 0.045000
vertex -0.184716 0.150453 0.018833
vertex -0.165184 0.169985 0.045000
endloop
endfacet
facet normal -0.707105 0.707108 -0.000002
outer loop
vertex -0.165184 0.169985 0.045000
vertex -0.184716 0.150453 0.018833
vertex -0.185178 0.149991 0.022564
endloop
endfacet
facet normal -0.707107 0.707107 0.000000
outer loop
vertex -0.165184 0.169985 0.045000
vertex -0.185178 0.149991 0.022564
vertex -0.165660 0.169508 0.045000
endloop
endfacet
facet normal -0.707103 0.707110 -0.000001
outer loop
vertex -0.165660 0.169508 0.045000
vertex -0.185178 0.149991 0.022564
vertex -0.185236 0.149933 0.026352
endloop
endfacet
facet normal -0.707118 0.707095 0.000031
outer loop
vertex -0.165660 0.169508 0.045000
vertex -0.185236 0.149933 0.026352
vertex -0.166235 0.168933 0.045000
endloop
endfacet
facet normal -0.707108 0.707106 0.000003
outer loop
vertex -0.166235 0.168933 0.045000
vertex -0.185236 0.149933 0.026352
vertex -0.184889 0.150280 0.030108
endloop
endfacet
facet normal -0.707107 0.707107 -0.000031
outer loop
vertex -0.166235 0.168933 0.045000
vertex -0.184889 0.150280 0.030108
vertex -0.166951 0.168217 0.045000
endloop
endfacet
facet normal -0.707107 0.707107 -0.000008
outer loop
vertex -0.169715 0.165453 0.045000
vertex -0.166951 0.168217 0.045000
vertex -0.184889 0.150280 0.030108
endloop
endfacet
facet normal -0.707106 0.707108 0.000003
outer loop
vertex -0.169715 0.165453 0.045000
vertex -0.184889 0.150280 0.030108
vertex -0.184145 0.151024 0.033747
endloop
endfacet
facet normal -0.707103 0.707111 0.000000
outer loop
vertex -0.169715 0.165453 0.045000
vertex -0.184145 0.151024 0.033747
vertex -0.170590 0.164578 0.045000
endloop
endfacet
facet normal -0.707106 0.707107 -0.000004
outer loop
vertex -0.170590 0.164578 0.045000
vertex -0.184145 0.151024 0.033747
vertex -0.183020 0.152148 0.037185
endloop
endfacet
facet normal -0.707102 0.707111 0.000000
outer loop
vertex -0.170590 0.164578 0.045000
vertex -0.183020 0.152148 0.037185
vertex -0.171725 0.163444 0.045000
endloop
endfacet
facet normal -0.707110 0.707104 0.000003
outer loop
vertex -0.171725 0.163444 0.045000
vertex -0.183020 0.152148 0.037185
vertex -0.181541 0.153627 0.040343
endloop
endfacet
facet normal -0.707104 0.707110 0.000023
outer loop
vertex -0.171725 0.163444 0.045000
vertex -0.181541 0.153627 0.040343
vertex -0.173277 0.161892 0.045000
endloop
endfacet
facet normal -0.707103 0.707111 -0.000014
outer loop
vertex -0.173277 0.161892 0.045000
vertex -0.181541 0.153627 0.040343
vertex -0.179742 0.155427 0.043149
endloop
endfacet
facet normal -0.707109 0.707104 0.000000
outer loop
vertex -0.173277 0.161892 0.045000
vertex -0.179742 0.155427 0.043149
vertex -0.175561 0.159608 0.045000
endloop
endfacet
facet normal -0.707113 0.707100 0.000017
outer loop
vertex -0.178132 0.157037 0.045000
vertex -0.175561 0.159608 0.045000
vertex -0.179742 0.155427 0.043149
endloop
endfacet
facet normal 0.707107 -0.707107 0.000000
outer loop
vertex 0.160513 -0.174655 0.000000
vertex 0.174655 -0.160513 0.000000
vertex 0.160513 -0.174655 0.002087
endloop
endfacet
facet normal 0.707107 -0.707107 0.000000
outer loop
vertex 0.160513 -0.174655 0.002087
vertex 0.174655 -0.160513 0.000000
vertex 0.174655 -0.160513 0.002087
endloop
endfacet
facet normal 0.707108 -0.707106 -0.000013
outer loop
vertex 0.160513 -0.174655 0.002087
vertex 0.174655 -0.160513 0.002087
vertex 0.177022 -0.158146 0.003861
endloop
endfacet
facet normal 0.707108 -0.707106 0.000000
outer loop
vertex 0.177022 -0.158146 0.003861
vertex 0.179172 -0.155996 0.006120
vertex 0.160513 -0.174655 0.002087
endloop
endfacet
facet normal 0.707107 -0.707106 0.000002
outer loop
vertex 0.160513 -0.174655 0.002087
vertex 0.179172 -0.155996 0.006120
vertex 0.181056 -0.154112 0.008813
endloop
endfacet
facet normal 0.707106 -0.707108 -0.000002
outer loop
vertex 0.160513 -0.174655 0.002087
vertex 0.181056 -0.154112 0.008813
vertex 0.182631 -0.152538 0.011878
endloop
endfacet
facet normal 0.707104 -0.707109 0.000005
outer loop
vertex 0.182631 -0.152538 0.011878
vertex 0.183860 -0.151308 0.015243
vertex 0.160513 -0.174655 0.002087
endloop
endfacet
facet normal 0.707108 -0.707106 -0.000003
outer loop
vertex 0.160513 -0.174655 0.002087
vertex 0.183860 -0.151308 0.015243
vertex 0.184716 -0.150453 0.018833
endloop
endfacet
facet normal 0.707105 -0.707108 0.000006
outer loop
vertex 0.160513 -0.174655 0.002087
vertex 0.184716 -0.150453 0.018833
vertex 0.185178 -0.149991 0.022564
endloop
endfacet
facet normal 0.707109 -0.707105 -0.000007
outer loop
vertex 0.185178 -0.149991 0.022564
vertex 0.185236 -0.149932 0.026352
vertex 0.160513 -0.174655 0.002087
endloop
endfacet
facet normal 0.707107 -0.707106 -0.000001
outer loop
vertex 0.160513 -0.174655 0.002087
vertex 0.185236 -0.149932 0.026352
vertex 0.184889 -0.150280 0.030108
endloop
endfacet
facet normal 0.707106 -0.707108 0.000001
outer loop
vertex 0.160513 -0.174655 0.002087
vertex 0.184889 -0.150280 0.030108
vertex 0.184145 -0.151024 0.033747
endloop
endfacet
facet normal 0.707112 -0.707102 -0.000003
outer loop
vertex 0.184145 -0.151024 0.033747
vertex 0.183020 -0.152148 0.037185
vertex 0.160513 -0.174655 0.002087
endloop
endfacet
facet normal 0.707103 -0.707110 0.000001
outer loop
vertex 0.160513 -0.174655 0.002087
vertex 0.183020 -0.152148 0.037185
vertex 0.181541 -0.153627 0.040343
endloop
endfacet
facet normal 0.707108 -0.707105 0.000000
outer loop
vertex 0.160513 -0.174655 0.002087
vertex 0.181541 -0.153627 0.040343
vertex 0.179742 -0.155427 0.043149
endloop
endfacet
facet normal 0.707106 -0.707107 0.000000
outer loop
vertex 0.177451 -0.157718 0.045000
vertex 0.160513 -0.174655 0.002087
vertex 0.179742 -0.155427 0.043149
endloop
endfacet
facet normal 0.707111 -0.707103 0.000000
outer loop
vertex 0.177451 -0.157718 0.045000
vertex 0.179742 -0.155427 0.043149
vertex 0.178132 -0.157037 0.045000
endloop
endfacet
facet normal 0.707104 -0.707109 0.000000
outer loop
vertex 0.174550 -0.160619 0.045000
vertex 0.160513 -0.174655 0.002087
vertex 0.177451 -0.157718 0.045000
endloop
endfacet
facet normal 0.707111 -0.707103 -0.000003
outer loop
vertex 0.171846 -0.163323 0.045000
vertex 0.160513 -0.174655 0.002087
vertex 0.174550 -0.160619 0.045000
endloop
endfacet
facet normal 0.707103 -0.707111 0.000000
outer loop
vertex 0.165453 -0.169715 0.045000
vertex 0.150280 -0.184889 0.030108
vertex 0.168217 -0.166951 0.045000
endloop
endfacet
facet normal 0.707111 -0.707102 -0.000005
outer loop
vertex 0.150280 -0.184889 0.030108
vertex 0.149932 -0.185236 0.026352
vertex 0.168933 -0.166235 0.045000
endloop
endfacet
facet normal 0.707108 -0.707106 0.000016
outer loop
vertex 0.150280 -0.184889 0.030108
vertex 0.168933 -0.166235 0.045000
vertex 0.168217 -0.166951 0.045000
endloop
endfacet
facet normal 0.707107 -0.707107 0.000000
outer loop
vertex 0.149932 -0.185236 0.026352
vertex 0.149991 -0.185178 0.022564
vertex 0.169508 -0.165660 0.045000
endloop
endfacet
facet normal 0.707103 -0.707110 -0.000002
outer loop
vertex 0.149932 -0.185236 0.026352
vertex 0.169508 -0.165660 0.045000
vertex 0.168933 -0.166235 0.045000
endloop
endfacet
facet normal 0.707113 -0.707100 -0.000017
outer loop
vertex 0.157037 -0.178132 0.045000
vertex 0.155427 -0.179742 0.043149
vertex 0.159608 -0.175561 0.045000
endloop
endfacet
facet normal 0.707103 -0.707111 0.000011
outer loop
vertex 0.155427 -0.179742 0.043149
vertex 0.153627 -0.181541 0.040343
vertex 0.161892 -0.173277 0.045000
endloop
endfacet
facet normal 0.707109 -0.707104 -0.000010
outer loop
vertex 0.155427 -0.179742 0.043149
vertex 0.161892 -0.173277 0.045000
vertex 0.159608 -0.175561 0.045000
endloop
endfacet
facet normal 0.707109 -0.707105 0.000000
outer loop
vertex 0.153627 -0.181541 0.040343
vertex 0.152148 -0.183020 0.037185
vertex 0.163444 -0.171725 0.045000
endloop
endfacet
facet normal 0.707111 -0.707103 -0.000011
outer loop
vertex 0.153627 -0.181541 0.040343
vertex 0.163444 -0.171725 0.045000
vertex 0.161892 -0.173277 0.045000
endloop
endfacet
facet normal 0.707108 -0.707106 0.000000
outer loop
vertex 0.152148 -0.183020 0.037185
vertex 0.151024 -0.184145 0.033747
vertex 0.164578 -0.170590 0.045000
endloop
endfacet
facet normal 0.707103 -0.707111 -0.000007
outer loop
vertex 0.152148 -0.183020 0.037185
vertex 0.164578 -0.170590 0.045000
vertex 0.163444 -0.171725 0.045000
endloop
endfacet
facet normal 0.707106 -0.707108 0.000000
outer loop
vertex 0.151024 -0.184145 0.033747
vertex 0.150280 -0.184889 0.030108
vertex 0.165453 -0.169715 0.045000
endloop
endfacet
facet normal 0.707103 -0.707111 0.000008
outer loop
vertex 0.151024 -0.184145 0.033747
vertex 0.165453 -0.169715 0.045000
vertex 0.164578 -0.170590 0.045000
endloop
endfacet
facet normal 0.707105 -0.707109 0.000004
outer loop
vertex 0.149991 -0.185178 0.022564
vertex 0.150453 -0.184716 0.018833
vertex 0.169985 -0.165184 0.045000
endloop
endfacet
facet normal 0.707105 -0.707108 0.000003
outer loop
vertex 0.149991 -0.185178 0.022564
vertex 0.169985 -0.165184 0.045000
vertex 0.169508 -0.165660 0.045000
endloop
endfacet
facet normal 0.707105 -0.707108 0.000000
outer loop
vertex 0.150453 -0.184716 0.018833
vertex 0.151308 -0.183860 0.015243
vertex 0.170390 -0.164778 0.045000
endloop
endfacet
facet normal 0.707134 -0.707079 -0.000010
outer loop
vertex 0.150453 -0.184716 0.018833
vertex 0.170390 -0.164778 0.045000
vertex 0.169985 -0.165184 0.045000
endloop
endfacet
facet normal 0.707106 -0.707107 0.000000
outer loop
vertex 0.151308 -0.183860 0.015243
vertex 0.152538 -0.182631 0.011878
vertex 0.170744 -0.164425 0.045000
endloop
endfacet
facet normal 0.707116 -0.707097 -0.000003
outer loop
vertex 0.151308 -0.183860 0.015243
vertex 0.170744 -0.164425 0.045000
vertex 0.170390 -0.164778 0.045000
endloop
endfacet
facet normal 0.707106 -0.707107 0.000000
outer loop
vertex 0.152538 -0.182631 0.011878
vertex 0.154112 -0.181056 0.008813
vertex 0.171058 -0.164111 0.045000
endloop
endfacet
facet normal 0.707117 -0.707097 0.000009
outer loop
vertex 0.152538 -0.182631 0.011878
vertex 0.171058 -0.164111 0.045000
vertex 0.170744 -0.164425 0.045000
endloop
endfacet
facet normal 0.707105 -0.707109 0.000003
outer loop
vertex 0.154112 -0.181056 0.008813
vertex 0.155996 -0.179172 0.006120
vertex 0.171342 -0.163827 0.045000
endloop
endfacet
facet normal 0.707127 -0.707086 -0.000003
outer loop
vertex 0.154112 -0.181056 0.008813
vertex 0.171342 -0.163827 0.045000
vertex 0.171058 -0.164111 0.045000
endloop
endfacet
facet normal 0.707106 -0.707107 0.000000
outer loop
vertex 0.155996 -0.179172 0.006120
vertex 0.158146 -0.177022 0.003861
vertex 0.171603 -0.163566 0.045000
endloop
endfacet
facet normal 0.707101 -0.707112 0.000008
outer loop
vertex 0.155996 -0.179172 0.006120
vertex 0.171603 -0.163566 0.045000
vertex 0.171342 -0.163827 0.045000
endloop
endfacet
facet normal 0.707107 -0.707107 0.000001
outer loop
vertex 0.158146 -0.177022 0.003861
vertex 0.160513 -0.174655 0.002087
vertex 0.171846 -0.163323 0.045000
endloop
endfacet
facet normal 0.707094 -0.707120 -0.000016
outer loop
vertex 0.158146 -0.177022 0.003861
vertex 0.171846 -0.163323 0.045000
vertex 0.171603 -0.163566 0.045000
endloop
endfacet
facet normal 0.000000 0.000000 1.000000
outer loop
vertex 0.177451 -0.157718 0.045000
vertex 0.178132 -0.157037 0.045000
vertex 0.157412 -0.136261 0.045000
endloop
endfacet
facet normal 0.000000 0.000000 -1.000000
outer loop
vertex 0.122243 -0.101203 0.045000
vertex 0.088748 -0.067708 0.045000
vertex 0.066382 -0.045341 0.045000
endloop
endfacet
facet normal 0.000004 0.000000 1.000000
outer loop
vertex 0.177451 -0.157718 0.045000
vertex 0.157412 -0.136261 0.045000
vertex 0.122243 -0.101203 0.045000
endloop
endfacet
facet normal 0.000000 0.000000 0.000000
outer loop
vertex 0.171603 -0.163566 0.045000
vertex 0.171846 -0.163323 0.045000
vertex 0.174550 -0.160619 0.045000
endloop
endfacet
facet normal 0.000000 0.000000 1.000000
outer loop
vertex 0.174550 -0.160619 0.045000
vertex 0.177451 -0.157718 0.045000
vertex 0.122243 -0.101203 0.045000
endloop
endfacet
facet normal -0.294086 0.000000 0.955779
outer loop
vertex 0.122243 -0.101203 0.045000
vertex 0.066382 -0.045341 0.045000
vertex 0.032887 -0.011846 0.045000
endloop
endfacet
facet normal 0.970143 0.000000 0.242536
outer loop
vertex 0.032887 -0.011846 0.045000
vertex 0.010520 0.010520 0.045000
vertex -0.022974 0.044015 0.045000
endloop
endfacet
facet normal 1.000000 0.000000 0.000000
outer loop
vertex -0.022974 0.044015 0.045000
vertex -0.045341 0.066382 0.045000
vertex -0.078836 0.099877 0.045000
endloop
endfacet
facet normal 0.000000 0.000000 1.000000
outer loop
vertex -0.101203 0.122243 0.045000
vertex -0.136261 0.157412 0.045000
vertex -0.157037 0.178132 0.045000
endloop
endfacet
facet normal -0.164399 0.000000 0.986394
outer loop
vertex -0.022974 0.044015 0.045000
vertex -0.078836 0.099877 0.045000
vertex -0.101203 0.122243 0.045000
endloop
endfacet
facet normal -0.000001 0.000000 1.000000
outer loop
vertex 0.174550 -0.160619 0.045000
vertex 0.122243 -0.101203 0.045000
vertex 0.032887 -0.011846 0.045000
endloop
endfacet
facet normal 0.000000 0.000000 -1.000000
outer loop
vertex 0.032887 -0.011846 0.045000
vertex -0.022974 0.044015 0.045000
vertex -0.101203 0.122243 0.045000
endloop
endfacet
facet normal 0.000000 0.000000 1.000000
outer loop
vertex 0.171603 -0.163566 0.045000
vertex 0.174550 -0.160619 0.045000
vertex 0.032887 -0.011846 0.045000
endloop
endfacet
facet normal 0.000000 0.000000 -1.000000
outer loop
vertex 0.170744 -0.164425 0.045000
vertex 0.171058 -0.164111 0.045000
vertex 0.171342 -0.163827 0.045000
endloop
endfacet
facet normal 0.000000 0.000000 1.000000
outer loop
vertex 0.171342 -0.163827 0.045000
vertex 0.171603 -0.163566 0.045000
vertex 0.032887 -0.011846 0.045000
endloop
endfacet
facet normal 0.000000 0.000000 1.000000
outer loop
vertex -0.101203 0.122243 0.045000
vertex -0.157037 0.178132 0.045000
vertex -0.157718 0.177451 0.045000
endloop
endfacet
facet normal 0.000000 0.000000 1.000000
outer loop
vertex 0.171342 -0.163827 0.045000
vertex 0.032887 -0.011846 0.045000
vertex -0.101203 0.122243 0.045000
endloop
endfacet
facet normal 0.447214 0.000000 -0.894427
outer loop
vertex 0.169985 -0.165184 0.045000
vertex 0.170390 -0.164778 0.045000
vertex 0.170744 -0.164425 0.045000
endloop
endfacet
facet normal 0.000006 0.000000 1.000000
outer loop
vertex 0.170744 -0.164425 0.045000
vertex 0.171342 -0.163827 0.045000
vertex -0.101203 0.122243 0.045000
endloop
endfacet
facet normal 0.000000 0.000000 1.000000
outer loop
vertex -0.101203 0.122243 0.045000
vertex -0.157718 0.177451 0.045000
vertex -0.160619 0.174550 0.045000
endloop
endfacet
facet normal 0.242536 0.000000 0.970143
outer loop
vertex -0.163323 0.171846 0.045000
vertex -0.163566 0.171603 0.045000
vertex -0.163827 0.171342 0.045000
endloop
endfacet
facet normal 0.000001 0.000000 1.000000
outer loop
vertex -0.101203 0.122243 0.045000
vertex -0.160619 0.174550 0.045000
vertex -0.163323 0.171846 0.045000
endloop
endfacet
facet normal -0.000004 0.000000 1.000000
outer loop
vertex 0.169985 -0.165184 0.045000
vertex 0.170744 -0.164425 0.045000
vertex -0.101203 0.122243 0.045000
endloop
endfacet
facet normal -0.242536 0.000000 0.970143
outer loop
vertex 0.168217 -0.166951 0.045000
vertex 0.168933 -0.166235 0.045000
vertex 0.169508 -0.165660 0.045000
endloop
endfacet
facet normal -0.000007 0.000000 1.000000
outer loop
vertex 0.169508 -0.165660 0.045000
vertex 0.169985 -0.165184 0.045000
vertex -0.101203 0.122243 0.045000
endloop
endfacet
facet normal -0.000003 0.000000 1.000000
outer loop
vertex -0.101203 0.122243 0.045000
vertex -0.163323 0.171846 0.045000
vertex -0.163827 0.171342 0.045000
endloop
endfacet
facet normal -0.447214 0.000000 -0.894427
outer loop
vertex -0.164111 0.171058 0.045000
vertex -0.164425 0.170744 0.045000
vertex -0.164778 0.170390 0.045000
endloop
endfacet
facet normal -0.000009 0.000000 1.000000
outer loop
vertex -0.101203 0.122243 0.045000
vertex -0.163827 0.171342 0.045000
vertex -0.164111 0.171058 0.045000
endloop
endfacet
facet normal 0.000000 0.000000 1.000000
outer loop
vertex 0.168217 -0.166951 0.045000
vertex 0.169508 -0.165660 0.045000
vertex -0.101203 0.122243 0.045000
endloop
endfacet
facet normal 0.000000 0.000000 1.000000
outer loop
vertex 0.163444 -0.171725 0.045000
vertex 0.164578 -0.170590 0.045000
vertex 0.165453 -0.169715 0.045000
endloop
endfacet
facet normal 0.000001 0.000000 1.000000
outer loop
vertex 0.165453 -0.169715 0.045000
vertex 0.168217 -0.166951 0.045000
vertex -0.101203 0.122243 0.045000
endloop
endfacet
facet normal 0.000005 0.000000 1.000000
outer loop
vertex -0.101203 0.122243 0.045000
vertex -0.164111 0.171058 0.045000
vertex -0.164778 0.170390 0.045000
endloop
endfacet
facet normal 1.000000 0.000000 0.000000
outer loop
vertex -0.165184 0.169985 0.045000
vertex -0.165660 0.169508 0.045000
vertex -0.166235 0.168933 0.045000
endloop
endfacet
facet normal -0.000007 0.000000 1.000000
outer loop
vertex -0.101203 0.122243 0.045000
vertex -0.164778 0.170390 0.045000
vertex -0.165184 0.169985 0.045000
endloop
endfacet
facet normal -0.000002 0.000000 1.000000
outer loop
vertex 0.163444 -0.171725 0.045000
vertex 0.165453 -0.169715 0.045000
vertex -0.101203 0.122243 0.045000
endloop
endfacet
facet normal 0.000000 0.000000 1.000000
outer loop
vertex 0.157037 -0.178132 0.045000
vertex 0.159608 -0.175561 0.045000
vertex 0.161892 -0.173277 0.045000
endloop
endfacet
facet normal 0.000004 0.000000 1.000000
outer loop
vertex 0.161892 -0.173277 0.045000
vertex 0.163444 -0.171725 0.045000
vertex -0.101203 0.122243 0.045000
endloop
endfacet
facet normal 0.000002 0.000000 1.000000
outer loop
vertex -0.101203 0.122243 0.045000
vertex -0.165184 0.169985 0.045000
vertex -0.166235 0.168933 0.045000
endloop
endfacet
facet normal -0.242536 0.000000 0.970142
outer loop
vertex -0.166951 0.168217 0.045000
vertex -0.169715 0.165453 0.045000
vertex -0.170590 0.164578 0.045000
endloop
endfacet
facet normal -0.000001 0.000000 1.000000
outer loop
vertex -0.101203 0.122243 0.045000
vertex -0.166235 0.168933 0.045000
vertex -0.166951 0.168217 0.045000
endloop
endfacet
facet normal 0.000000 0.000000 1.000000
outer loop
vertex 0.157037 -0.178132 0.045000
vertex 0.161892 -0.173277 0.045000
vertex -0.101203 0.122243 0.045000
endloop
endfacet
facet normal 0.000000 0.000000 1.000000
outer loop
vertex 0.101203 -0.122243 0.045000
vertex 0.136261 -0.157412 0.045000
vertex 0.157037 -0.178132 0.045000
endloop
endfacet
facet normal -0.447214 0.000000 0.894427
outer loop
vertex 0.022974 -0.044015 0.045000
vertex 0.045341 -0.066382 0.045000
vertex 0.078836 -0.099877 0.045000
endloop
endfacet
facet normal -0.000001 0.000000 1.000000
outer loop
vertex 0.101203 -0.122243 0.045000
vertex 0.157037 -0.178132 0.045000
vertex -0.101203 0.122243 0.045000
endloop
endfacet
facet normal 0.242536 0.000000 0.970143
outer loop
vertex 0.022974 -0.044015 0.045000
vertex 0.078836 -0.099877 0.045000
vertex 0.101203 -0.122243 0.045000
endloop
endfacet
facet normal -1.000000 0.000000 0.000000
outer loop
vertex -0.032887 0.011846 0.045000
vertex -0.010520 -0.010520 0.045000
vertex 0.022974 -0.044015 0.045000
endloop
endfacet
facet normal -0.707107 0.000000 0.707107
outer loop
vertex -0.088748 0.067708 0.045000
vertex -0.066382 0.045341 0.045000
vertex -0.032887 0.011846 0.045000
endloop
endfacet
facet normal 0.000055 0.000000 1.000000
outer loop
vertex -0.178132 0.157037 0.045000
vertex -0.157412 0.136261 0.045000
vertex -0.122243 0.101203 0.045000
endloop
endfacet
facet normal 0.000000 0.000000 -1.000000
outer loop
vertex -0.088748 0.067708 0.045000
vertex -0.032887 0.011846 0.045000
vertex 0.022974 -0.044015 0.045000
endloop
endfacet
facet normal 0.000000 0.000000 1.000000
outer loop
vertex -0.175561 0.159608 0.045000
vertex -0.178132 0.157037 0.045000
vertex -0.122243 0.101203 0.045000
endloop
endfacet
facet normal -0.000001 0.000000 1.000000
outer loop
vertex -0.175561 0.159608 0.045000
vertex -0.122243 0.101203 0.045000
vertex -0.088748 0.067708 0.045000
endloop
endfacet
facet normal 0.000000 0.000000 -1.000000
outer loop
vertex -0.170590 0.164578 0.045000
vertex -0.171725 0.163444 0.045000
vertex -0.173277 0.161892 0.045000
endloop
endfacet
facet normal 0.000000 0.000000 1.000000
outer loop
vertex -0.173277 0.161892 0.045000
vertex -0.175561 0.159608 0.045000
vertex -0.088748 0.067708 0.045000
endloop
endfacet
facet normal 0.000000 0.000000 1.000000
outer loop
vertex 0.022974 -0.044015 0.045000
vertex 0.101203 -0.122243 0.045000
vertex -0.101203 0.122243 0.045000
endloop
endfacet
facet normal 0.000001 0.000000 1.000000
outer loop
vertex -0.173277 0.161892 0.045000
vertex -0.088748 0.067708 0.045000
vertex 0.022974 -0.044015 0.045000
endloop
endfacet
facet normal 0.000000 0.000000 1.000000
outer loop
vertex -0.101203 0.122243 0.045000
vertex -0.166951 0.168217 0.045000
vertex -0.170590 0.164578 0.045000
endloop
endfacet
facet normal 0.000000 0.000000 1.000000
outer loop
vertex -0.170590 0.164578 0.045000
vertex -0.173277 0.161892 0.045000
vertex 0.022974 -0.044015 0.045000
endloop
endfacet
facet normal 0.000000 0.000000 1.000000
outer loop
vertex -0.101203 0.122243 0.045000
vertex -0.170590 0.164578 0.045000
vertex 0.022974 -0.044015 0.045000
endloop
endfacet
solid cylinder
