solid cylinder
facet normal 0.000000 0.000000 -1.000000
outer loop
vertex 0.010000 -0.237000 0.000000
vertex -0.010000 -0.237000 0.000000
vertex 0.010000 0.237000 0.000000
endloop
endfacet
facet normal 0.000000 0.000000 -1.000000
outer loop
vertex 0.010000 0.237000 0.000000
vertex -0.010000 -0.237000 0.000000
vertex -0.010000 0.237000 0.000000
endloop
endfacet
facet normal 1.000000 0.000000 0.000000
outer loop
vertex 0.010000 -0.237000 0.002087
vertex 0.010000 -0.237000 0.000000
vertex 0.010000 0.237000 0.002087
endloop
endfacet
facet normal 1.000000 0.000000 0.000000
outer loop
vertex 0.010000 0.237000 0.002087
vertex 0.010000 -0.237000 0.000000
vertex 0.010000 0.237000 0.000000
endloop
endfacet
facet normal -0.468288 0.000107 -0.883576
outer loop
vertex -0.013347 -0.237000 0.003861
vertex -0.013439 -0.158000 0.003919
vertex -0.010000 -0.237000 0.002087
endloop
endfacet
facet normal -0.470201 0.000000 -0.882559
outer loop
vertex -0.010000 -0.237000 0.002087
vertex -0.013439 -0.158000 0.003919
vertex -0.013439 -0.079000 0.003919
endloop
endfacet
facet normal -0.470202 0.000000 -0.882559
outer loop
vertex -0.010000 -0.237000 0.002087
vertex -0.013439 -0.079000 0.003919
vertex -0.013439 0.000000 0.003919
endloop
endfacet
facet normal -0.601616 0.000000 -0.798785
outer loop
vertex -0.013439 0.000000 0.003919
vertex -0.013439 -0.079000 0.003919
vertex -0.016551 0.000000 0.006263
endloop
endfacet
facet normal -0.601617 0.000000 -0.798785
outer loop
vertex -0.013439 0.000000 0.003919
vertex -0.016551 0.000000 0.006263
vertex -0.016551 0.079000 0.006263
endloop
endfacet
facet normal -0.718420 0.000000 -0.695610
outer loop
vertex -0.016551 0.079000 0.006263
vertex -0.016551 0.000000 0.006263
vertex -0.019261 0.079000 0.009062
endloop
endfacet
facet normal -0.718420 0.000000 -0.695610
outer loop
vertex -0.016551 0.079000 0.006263
vertex -0.019261 0.079000 0.009062
vertex -0.019261 0.158000 0.009062
endloop
endfacet
facet normal -0.817773 0.000000 -0.575540
outer loop
vertex -0.019261 0.158000 0.009062
vertex -0.019261 0.079000 0.009062
vertex -0.021503 0.158000 0.012248
endloop
endfacet
facet normal -0.817773 -0.000380 -0.575540
outer loop
vertex -0.019261 0.158000 0.009062
vertex -0.021503 0.158000 0.012248
vertex -0.021279 0.237000 0.011878
endloop
endfacet
facet normal -0.888486 0.000368 -0.458903
outer loop
vertex -0.021279 0.237000 0.011878
vertex -0.021503 0.158000 0.012248
vertex -0.023018 0.237000 0.015243
endloop
endfacet
facet normal -0.897265 -0.000460 -0.441491
outer loop
vertex -0.023018 0.237000 0.015243
vertex -0.021503 0.158000 0.012248
vertex -0.023223 0.158000 0.015744
endloop
endfacet
facet normal -0.947622 0.000445 -0.319394
outer loop
vertex -0.023018 0.237000 0.015243
vertex -0.023223 0.158000 0.015744
vertex -0.024227 0.237000 0.018833
endloop
endfacet
facet normal -0.954965 -0.000534 -0.296719
outer loop
vertex -0.024227 0.237000 0.018833
vertex -0.023223 0.158000 0.015744
vertex -0.024380 0.158000 0.019465
endloop
endfacet
facet normal -0.985000 0.000517 -0.172551
outer loop
vertex -0.024227 0.237000 0.018833
vertex -0.024380 0.158000 0.019465
vertex -0.024881 0.237000 0.022564
endloop
endfacet
facet normal -0.989469 -0.000603 -0.144741
outer loop
vertex -0.024881 0.237000 0.022564
vertex -0.024380 0.158000 0.019465
vertex -0.024943 0.158000 0.023320
endloop
endfacet
facet normal -0.999763 0.000582 -0.021746
outer loop
vertex -0.024881 0.237000 0.022564
vertex -0.024943 0.158000 0.023320
vertex -0.024963 0.237000 0.026352
endloop
endfacet
facet normal -0.999942 -0.000665 0.010753
outer loop
vertex -0.024963 0.237000 0.026352
vertex -0.024943 0.158000 0.023320
vertex -0.024902 0.158000 0.027216
endloop
endfacet
facet normal -0.991572 0.000641 0.129557
outer loop
vertex -0.024963 0.237000 0.026352
vertex -0.024902 0.158000 0.027216
vertex -0.024473 0.237000 0.030108
endloop
endfacet
facet normal -0.986128 -0.000722 0.165985
outer loop
vertex -0.024473 0.237000 0.030108
vertex -0.024902 0.158000 0.027216
vertex -0.024255 0.158000 0.031058
endloop
endfacet
facet normal -0.960614 0.000695 0.277887
outer loop
vertex -0.024473 0.237000 0.030108
vertex -0.024255 0.158000 0.031058
vertex -0.023420 0.237000 0.033747
endloop
endfacet
facet normal -0.948363 -0.000772 0.317187
outer loop
vertex -0.023420 0.237000 0.033747
vertex -0.024255 0.158000 0.031058
vertex -0.023019 0.158000 0.034753
endloop
endfacet
facet normal -0.907600 0.000742 0.419836
outer loop
vertex -0.023420 0.237000 0.033747
vertex -0.023019 0.158000 0.034753
vertex -0.021830 0.237000 0.037185
endloop
endfacet
facet normal -0.887564 -0.000817 0.460684
outer loop
vertex -0.021830 0.237000 0.037185
vertex -0.023019 0.158000 0.034753
vertex -0.021224 0.158000 0.038211
endloop
endfacet
facet normal -0.833748 0.000784 0.552144
outer loop
vertex -0.021830 0.237000 0.037185
vertex -0.021224 0.158000 0.038211
vertex -0.019738 0.237000 0.040343
endloop
endfacet
facet normal -0.805207 -0.000855 0.592993
outer loop
vertex -0.019738 0.237000 0.040343
vertex -0.021224 0.158000 0.038211
vertex -0.018914 0.158000 0.041348
endloop
endfacet
facet normal -0.740752 0.000820 0.671779
outer loop
vertex -0.019738 0.237000 0.040343
vertex -0.018914 0.158000 0.041348
vertex -0.017193 0.237000 0.043149
endloop
endfacet
facet normal -0.703295 -0.000888 0.710898
outer loop
vertex -0.017193 0.237000 0.043149
vertex -0.018914 0.158000 0.041348
vertex -0.016144 0.158000 0.044088
endloop
endfacet
facet normal -0.630750 0.000849 0.775986
outer loop
vertex -0.014956 0.207658 0.045000
vertex -0.014916 0.237000 0.045000
vertex -0.017193 0.237000 0.043149
endloop
endfacet
facet normal -0.630750 0.000849 0.775986
outer loop
vertex -0.014956 0.207658 0.045000
vertex -0.017193 0.237000 0.043149
vertex -0.016144 0.158000 0.044088
endloop
endfacet
facet normal -0.584298 -0.000915 0.811539
outer loop
vertex -0.014956 0.207658 0.045000
vertex -0.016144 0.158000 0.044088
vertex -0.014878 0.158000 0.045000
endloop
endfacet
facet normal 0.584298 -0.000915 0.811539
outer loop
vertex 0.014956 0.207658 0.045000
vertex 0.014878 0.158000 0.045000
vertex 0.016144 0.158000 0.044088
endloop
endfacet
facet normal 0.630750 0.000849 0.775986
outer loop
vertex 0.014956 0.207658 0.045000
vertex 0.016144 0.158000 0.044088
vertex 0.017193 0.237000 0.043149
endloop
endfacet
facet normal 0.630750 0.000849 0.775986
outer loop
vertex 0.014956 0.207658 0.045000
vertex 0.017193 0.237000 0.043149
vertex 0.014916 0.237000 0.045000
endloop
endfacet
facet normal 0.703295 -0.000888 0.710898
outer loop
vertex 0.017193 0.237000 0.043149
vertex 0.016144 0.158000 0.044088
vertex 0.018914 0.158000 0.041348
endloop
endfacet
facet normal 0.740752 0.000820 0.671779
outer loop
vertex 0.017193 0.237000 0.043149
vertex 0.018914 0.158000 0.041348
vertex 0.019738 0.237000 0.040343
endloop
endfacet
facet normal 0.805207 -0.000855 0.592993
outer loop
vertex 0.019738 0.237000 0.040343
vertex 0.018914 0.158000 0.041348
vertex 0.021224 0.158000 0.038211
endloop
endfacet
facet normal 0.833748 0.000784 0.552144
outer loop
vertex 0.019738 0.237000 0.040343
vertex 0.021224 0.158000 0.038211
vertex 0.021830 0.237000 0.037185
endloop
endfacet
facet normal 0.887564 -0.000817 0.460684
outer loop
vertex 0.021830 0.237000 0.037185
vertex 0.021224 0.158000 0.038211
vertex 0.023019 0.158000 0.034753
endloop
endfacet
facet normal 0.907600 0.000742 0.419836
outer loop
vertex 0.021830 0.237000 0.037185
vertex 0.023019 0.158000 0.034753
vertex 0.023420 0.237000 0.033747
endloop
endfacet
facet normal 0.948363 -0.000772 0.317187
outer loop
vertex 0.023420 0.237000 0.033747
vertex 0.023019 0.158000 0.034753
vertex 0.024255 0.158000 0.031058
endloop
endfacet
facet normal 0.960614 0.000695 0.277887
outer loop
vertex 0.023420 0.237000 0.033747
vertex 0.024255 0.158000 0.031058
vertex 0.024473 0.237000 0.030108
endloop
endfacet
facet normal 0.986128 -0.000722 0.165985
outer loop
vertex 0.024473 0.237000 0.030108
vertex 0.024255 0.158000 0.031058
vertex 0.024902 0.158000 0.027216
endloop
endfacet
facet normal 0.991572 0.000641 0.129557
outer loop
vertex 0.024473 0.237000 0.030108
vertex 0.024902 0.158000 0.027216
vertex 0.024963 0.237000 0.026352
endloop
endfacet
facet normal 0.999942 -0.000665 0.010753
outer loop
vertex 0.024963 0.237000 0.026352
vertex 0.024902 0.158000 0.027216
vertex 0.024943 0.158000 0.023320
endloop
endfacet
facet normal 0.999763 0.000582 -0.021746
outer loop
vertex 0.024963 0.237000 0.026352
vertex 0.024943 0.158000 0.023320
vertex 0.024881 0.237000 0.022564
endloop
endfacet
facet normal 0.989469 -0.000603 -0.144741
outer loop
vertex 0.024881 0.237000 0.022564
vertex 0.024943 0.158000 0.023320
vertex 0.024380 0.158000 0.019465
endloop
endfacet
facet normal 0.985000 0.000517 -0.172551
outer loop
vertex 0.024881 0.237000 0.022564
vertex 0.024380 0.158000 0.019465
vertex 0.024227 0.237000 0.018833
endloop
endfacet
facet normal 0.954965 -0.000534 -0.296719
outer loop
vertex 0.024227 0.237000 0.018833
vertex 0.024380 0.158000 0.019465
vertex 0.023223 0.158000 0.015744
endloop
endfacet
facet normal 0.947622 0.000445 -0.319394
outer loop
vertex 0.024227 0.237000 0.018833
vertex 0.023223 0.158000 0.015744
vertex 0.023018 0.237000 0.015243
endloop
endfacet
facet normal 0.897266 -0.000460 -0.441491
outer loop
vertex 0.023018 0.237000 0.015243
vertex 0.023223 0.158000 0.015744
vertex 0.021503 0.158000 0.012248
endloop
endfacet
facet normal 0.888486 0.000368 -0.458903
outer loop
vertex 0.023018 0.237000 0.015243
vertex 0.021503 0.158000 0.012248
vertex 0.021279 0.237000 0.011878
endloop
endfacet
facet normal 0.817773 -0.000380 -0.575540
outer loop
vertex 0.021279 0.237000 0.011878
vertex 0.021503 0.158000 0.012248
vertex 0.019261 0.158000 0.009062
endloop
endfacet
facet normal 0.808950 0.000285 -0.587877
outer loop
vertex 0.021279 0.237000 0.011878
vertex 0.019261 0.158000 0.009062
vertex 0.019052 0.237000 0.008813
endloop
endfacet
facet normal 0.718419 -0.000294 -0.695610
outer loop
vertex 0.019052 0.237000 0.008813
vertex 0.019261 0.158000 0.009062
vertex 0.016551 0.158000 0.006263
endloop
endfacet
facet normal 0.710841 0.000196 -0.703352
outer loop
vertex 0.019052 0.237000 0.008813
vertex 0.016551 0.158000 0.006263
vertex 0.016388 0.237000 0.006120
endloop
endfacet
facet normal 0.601617 -0.000202 -0.798785
outer loop
vertex 0.016388 0.237000 0.006120
vertex 0.016551 0.158000 0.006263
vertex 0.013439 0.158000 0.003919
endloop
endfacet
facet normal 0.596412 0.000101 -0.802679
outer loop
vertex 0.016388 0.237000 0.006120
vertex 0.013439 0.158000 0.003919
vertex 0.013347 0.237000 0.003861
endloop
endfacet
facet normal 0.468288 -0.000107 -0.883576
outer loop
vertex 0.013347 0.237000 0.003861
vertex 0.013439 0.158000 0.003919
vertex 0.010000 0.237000 0.002087
endloop
endfacet
facet normal 0.470201 0.000000 -0.882559
outer loop
vertex 0.010000 0.237000 0.002087
vertex 0.013439 0.158000 0.003919
vertex 0.013439 0.079000 0.003919
endloop
endfacet
facet normal 0.470201 0.000000 -0.882559
outer loop
vertex 0.010000 0.237000 0.002087
vertex 0.013439 0.079000 0.003919
vertex 0.013439 0.000000 0.003919
endloop
endfacet
facet normal 0.601617 0.000000 -0.798785
outer loop
vertex 0.013439 0.000000 0.003919
vertex 0.013439 0.079000 0.003919
vertex 0.016551 0.000000 0.006263
endloop
endfacet
facet normal 0.601617 0.000000 -0.798785
outer loop
vertex 0.013439 0.000000 0.003919
vertex 0.016551 0.000000 0.006263
vertex 0.016551 -0.079000 0.006263
endloop
endfacet
facet normal 0.718419 0.000000 -0.695610
outer loop
vertex 0.016551 -0.079000 0.006263
vertex 0.016551 0.000000 0.006263
vertex 0.019261 -0.079000 0.009062
endloop
endfacet
facet normal 0.718419 0.000000 -0.695610
outer loop
vertex 0.016551 -0.079000 0.006263
vertex 0.019261 -0.079000 0.009062
vertex 0.019261 -0.158000 0.009062
endloop
endfacet
facet normal 0.817773 0.000000 -0.575540
outer loop
vertex 0.019261 -0.158000 0.009062
vertex 0.019261 -0.079000 0.009062
vertex 0.021503 -0.158000 0.012248
endloop
endfacet
facet normal 0.817773 0.000380 -0.575540
outer loop
vertex 0.019261 -0.158000 0.009062
vertex 0.021503 -0.158000 0.012248
vertex 0.021279 -0.237000 0.011878
endloop
endfacet
facet normal 0.888486 -0.000368 -0.458903
outer loop
vertex 0.021279 -0.237000 0.011878
vertex 0.021503 -0.158000 0.012248
vertex 0.023018 -0.237000 0.015243
endloop
endfacet
facet normal 0.897266 0.000460 -0.441491
outer loop
vertex 0.023018 -0.237000 0.015243
vertex 0.021503 -0.158000 0.012248
vertex 0.023223 -0.158000 0.015744
endloop
endfacet
facet normal 0.947622 -0.000445 -0.319394
outer loop
vertex 0.023018 -0.237000 0.015243
vertex 0.023223 -0.158000 0.015744
vertex 0.024227 -0.237000 0.018833
endloop
endfacet
facet normal 0.954965 0.000534 -0.296719
outer loop
vertex 0.024227 -0.237000 0.018833
vertex 0.023223 -0.158000 0.015744
vertex 0.024380 -0.158000 0.019465
endloop
endfacet
facet normal 0.985000 -0.000517 -0.172551
outer loop
vertex 0.024227 -0.237000 0.018833
vertex 0.024380 -0.158000 0.019465
vertex 0.024881 -0.237000 0.022564
endloop
endfacet
facet normal 0.989469 0.000603 -0.144741
outer loop
vertex 0.024881 -0.237000 0.022564
vertex 0.024380 -0.158000 0.019465
vertex 0.024943 -0.158000 0.023320
endloop
endfacet
facet normal 0.999763 -0.000582 -0.021746
outer loop
vertex 0.024881 -0.237000 0.022564
vertex 0.024943 -0.158000 0.023320
vertex 0.024963 -0.237000 0.026352
endloop
endfacet
facet normal 0.999942 0.000665 0.010753
outer loop
vertex 0.024963 -0.237000 0.026352
vertex 0.024943 -0.158000 0.023320
vertex 0.024902 -0.158000 0.027216
endloop
endfacet
facet normal 0.991572 -0.000641 0.129557
outer loop
vertex 0.024963 -0.237000 0.026352
vertex 0.024902 -0.158000 0.027216
vertex 0.024473 -0.237000 0.030108
endloop
endfacet
facet normal 0.986128 0.000722 0.165985
outer loop
vertex 0.024473 -0.237000 0.030108
vertex 0.024902 -0.158000 0.027216
vertex 0.024255 -0.158000 0.031058
endloop
endfacet
facet normal 0.960614 -0.000695 0.277887
outer loop
vertex 0.024473 -0.237000 0.030108
vertex 0.024255 -0.158000 0.031058
vertex 0.023420 -0.237000 0.033747
endloop
endfacet
facet normal 0.948363 0.000772 0.317187
outer loop
vertex 0.023420 -0.237000 0.033747
vertex 0.024255 -0.158000 0.031058
vertex 0.023019 -0.158000 0.034753
endloop
endfacet
facet normal 0.907600 -0.000742 0.419836
outer loop
vertex 0.023420 -0.237000 0.033747
vertex 0.023019 -0.158000 0.034753
vertex 0.021830 -0.237000 0.037185
endloop
endfacet
facet normal 0.887564 0.000817 0.460685
outer loop
vertex 0.021830 -0.237000 0.037185
vertex 0.023019 -0.158000 0.034753
vertex 0.021224 -0.158000 0.038211
endloop
endfacet
facet normal 0.833748 -0.000784 0.552144
outer loop
vertex 0.021830 -0.237000 0.037185
vertex 0.021224 -0.158000 0.038211
vertex 0.019738 -0.237000 0.040343
endloop
endfacet
facet normal 0.805207 0.000855 0.592993
outer loop
vertex 0.019738 -0.237000 0.040343
vertex 0.021224 -0.158000 0.038211
vertex 0.018914 -0.158000 0.041348
endloop
endfacet
facet normal 0.740752 -0.000820 0.671778
outer loop
vertex 0.019738 -0.237000 0.040343
vertex 0.018914 -0.158000 0.041348
vertex 0.017193 -0.237000 0.043149
endloop
endfacet
facet normal 0.703295 0.000888 0.710898
outer loop
vertex 0.017193 -0.237000 0.043149
vertex 0.018914 -0.158000 0.041348
vertex 0.016144 -0.158000 0.044088
endloop
endfacet
facet normal 0.630750 -0.000849 0.775986
outer loop
vertex 0.017193 -0.237000 0.043149
vertex 0.016144 -0.158000 0.044088
vertex 0.014956 -0.207658 0.045000
endloop
endfacet
facet normal 0.630750 -0.000849 0.775986
outer loop
vertex 0.017193 -0.237000 0.043149
vertex 0.014956 -0.207658 0.045000
vertex 0.014916 -0.237000 0.045000
endloop
endfacet
facet normal 0.584298 0.000915 0.811539
outer loop
vertex 0.014878 -0.158000 0.045000
vertex 0.014956 -0.207658 0.045000
vertex 0.016144 -0.158000 0.044088
endloop
endfacet
facet normal -0.584298 0.000915 0.811539
outer loop
vertex -0.016144 -0.158000 0.044088
vertex -0.014956 -0.207658 0.045000
vertex -0.014878 -0.158000 0.045000
endloop
endfacet
facet normal -0.630750 -0.000849 0.775986
outer loop
vertex -0.016144 -0.158000 0.044088
vertex -0.017193 -0.237000 0.043149
vertex -0.014916 -0.237000 0.045000
endloop
endfacet
facet normal -0.630747 -0.000849 0.775988
outer loop
vertex -0.016144 -0.158000 0.044088
vertex -0.014916 -0.237000 0.045000
vertex -0.014956 -0.207658 0.045000
endloop
endfacet
facet normal -0.703295 0.000888 0.710898
outer loop
vertex -0.017193 -0.237000 0.043149
vertex -0.016144 -0.158000 0.044088
vertex -0.018914 -0.158000 0.041348
endloop
endfacet
facet normal -0.740752 -0.000820 0.671778
outer loop
vertex -0.017193 -0.237000 0.043149
vertex -0.018914 -0.158000 0.041348
vertex -0.019738 -0.237000 0.040343
endloop
endfacet
facet normal -0.805207 0.000855 0.592993
outer loop
vertex -0.019738 -0.237000 0.040343
vertex -0.018914 -0.158000 0.041348
vertex -0.021224 -0.158000 0.038211
endloop
endfacet
facet normal -0.833748 -0.000784 0.552144
outer loop
vertex -0.019738 -0.237000 0.040343
vertex -0.021224 -0.158000 0.038211
vertex -0.021830 -0.237000 0.037185
endloop
endfacet
facet normal -0.887564 0.000817 0.460685
outer loop
vertex -0.021830 -0.237000 0.037185
vertex -0.021224 -0.158000 0.038211
vertex -0.023019 -0.158000 0.034753
endloop
endfacet
facet normal -0.907600 -0.000742 0.419836
outer loop
vertex -0.021830 -0.237000 0.037185
vertex -0.023019 -0.158000 0.034753
vertex -0.023420 -0.237000 0.033747
endloop
endfacet
facet normal -0.948363 0.000772 0.317187
outer loop
vertex -0.023420 -0.237000 0.033747
vertex -0.023019 -0.158000 0.034753
vertex -0.024255 -0.158000 0.031058
endloop
endfacet
facet normal -0.960614 -0.000695 0.277887
outer loop
vertex -0.023420 -0.237000 0.033747
vertex -0.024255 -0.158000 0.031058
vertex -0.024473 -0.237000 0.030108
endloop
endfacet
facet normal -0.986128 0.000722 0.165985
outer loop
vertex -0.024473 -0.237000 0.030108
vertex -0.024255 -0.158000 0.031058
vertex -0.024902 -0.158000 0.027216
endloop
endfacet
facet normal -0.991572 -0.000641 0.129557
outer loop
vertex -0.024473 -0.237000 0.030108
vertex -0.024902 -0.158000 0.027216
vertex -0.024963 -0.237000 0.026352
endloop
endfacet
facet normal -0.999942 0.000665 0.010753
outer loop
vertex -0.024963 -0.237000 0.026352
vertex -0.024902 -0.158000 0.027216
vertex -0.024943 -0.158000 0.023320
endloop
endfacet
facet normal -0.999763 -0.000582 -0.021746
outer loop
vertex -0.024963 -0.237000 0.026352
vertex -0.024943 -0.158000 0.023320
vertex -0.024881 -0.237000 0.022564
endloop
endfacet
facet normal -0.989469 0.000603 -0.144741
outer loop
vertex -0.024881 -0.237000 0.022564
vertex -0.024943 -0.158000 0.023320
vertex -0.024380 -0.158000 0.019465
endloop
endfacet
facet normal -0.985000 -0.000517 -0.172551
outer loop
vertex -0.024881 -0.237000 0.022564
vertex -0.024380 -0.158000 0.019465
vertex -0.024227 -0.237000 0.018833
endloop
endfacet
facet normal -0.954965 0.000534 -0.296719
outer loop
vertex -0.024227 -0.237000 0.018833
vertex -0.024380 -0.158000 0.019465
vertex -0.023223 -0.158000 0.015744
endloop
endfacet
facet normal -0.947622 -0.000445 -0.319394
outer loop
vertex -0.024227 -0.237000 0.018833
vertex -0.023223 -0.158000 0.015744
vertex -0.023018 -0.237000 0.015243
endloop
endfacet
facet normal -0.897265 0.000460 -0.441491
outer loop
vertex -0.023018 -0.237000 0.015243
vertex -0.023223 -0.158000 0.015744
vertex -0.021503 -0.158000 0.012248
endloop
endfacet
facet normal -0.888486 -0.000368 -0.458903
outer loop
vertex -0.023018 -0.237000 0.015243
vertex -0.021503 -0.158000 0.012248
vertex -0.021279 -0.237000 0.011878
endloop
endfacet
facet normal -0.817773 0.000380 -0.575540
outer loop
vertex -0.021279 -0.237000 0.011878
vertex -0.021503 -0.158000 0.012248
vertex -0.019261 -0.158000 0.009062
endloop
endfacet
facet normal -0.808950 -0.000285 -0.587877
outer loop
vertex -0.021279 -0.237000 0.011878
vertex -0.019261 -0.158000 0.009062
vertex -0.019052 -0.237000 0.008813
endloop
endfacet
facet normal -0.718420 0.000294 -0.695610
outer loop
vertex -0.019052 -0.237000 0.008813
vertex -0.019261 -0.158000 0.009062
vertex -0.016551 -0.158000 0.006263
endloop
endfacet
facet normal -0.710841 -0.000196 -0.703352
outer loop
vertex -0.019052 -0.237000 0.008813
vertex -0.016551 -0.158000 0.006263
vertex -0.016388 -0.237000 0.006120
endloop
endfacet
facet normal -0.601617 0.000202 -0.798785
outer loop
vertex -0.016388 -0.237000 0.006120
vertex -0.016551 -0.158000 0.006263
vertex -0.013439 -0.158000 0.003919
endloop
endfacet
facet normal -0.596412 -0.000101 -0.802679
outer loop
vertex -0.016388 -0.237000 0.006120
vertex -0.013439 -0.158000 0.003919
vertex -0.013347 -0.237000 0.003861
endloop
endfacet
facet normal 0.808950 -0.000285 -0.587877
outer loop
vertex 0.021279 -0.237000 0.011878
vertex 0.019052 -0.237000 0.008813
vertex 0.019261 -0.158000 0.009062
endloop
endfacet
facet normal 0.718420 0.000294 -0.695610
outer loop
vertex 0.019261 -0.158000 0.009062
vertex 0.019052 -0.237000 0.008813
vertex 0.016551 -0.158000 0.006263
endloop
endfacet
facet normal 0.718419 0.000000 -0.695610
outer loop
vertex 0.019261 -0.158000 0.009062
vertex 0.016551 -0.158000 0.006263
vertex 0.016551 -0.079000 0.006263
endloop
endfacet
facet normal 0.601617 0.000000 -0.798785
outer loop
vertex 0.016551 -0.079000 0.006263
vertex 0.016551 -0.158000 0.006263
vertex 0.013439 -0.079000 0.003919
endloop
endfacet
facet normal 0.601617 0.000000 -0.798785
outer loop
vertex 0.016551 -0.079000 0.006263
vertex 0.013439 -0.079000 0.003919
vertex 0.013439 0.000000 0.003919
endloop
endfacet
facet normal 0.470201 0.000000 -0.882559
outer loop
vertex 0.013439 0.000000 0.003919
vertex 0.013439 -0.079000 0.003919
vertex 0.010000 0.237000 0.002087
endloop
endfacet
facet normal 0.710841 -0.000196 -0.703352
outer loop
vertex 0.019052 -0.237000 0.008813
vertex 0.016388 -0.237000 0.006120
vertex 0.016551 -0.158000 0.006263
endloop
endfacet
facet normal 0.601617 0.000202 -0.798785
outer loop
vertex 0.016551 -0.158000 0.006263
vertex 0.016388 -0.237000 0.006120
vertex 0.013439 -0.158000 0.003919
endloop
endfacet
facet normal 0.601617 0.000000 -0.798785
outer loop
vertex 0.016551 -0.158000 0.006263
vertex 0.013439 -0.158000 0.003919
vertex 0.013439 -0.079000 0.003919
endloop
endfacet
facet normal 0.470201 0.000000 -0.882560
outer loop
vertex 0.013439 -0.079000 0.003919
vertex 0.013439 -0.158000 0.003919
vertex 0.010000 0.237000 0.002087
endloop
endfacet
facet normal 0.596412 -0.000101 -0.802679
outer loop
vertex 0.016388 -0.237000 0.006120
vertex 0.013347 -0.237000 0.003861
vertex 0.013439 -0.158000 0.003919
endloop
endfacet
facet normal 0.478345 0.000091 -0.878172
outer loop
vertex 0.013439 -0.158000 0.003919
vertex 0.013347 -0.237000 0.003861
vertex 0.010000 0.237000 0.002087
endloop
endfacet
facet normal 0.468288 0.000000 -0.883576
outer loop
vertex 0.013347 -0.237000 0.003861
vertex 0.010000 -0.237000 0.002087
vertex 0.010000 0.237000 0.002087
endloop
endfacet
facet normal -0.808950 0.000285 -0.587877
outer loop
vertex -0.021279 0.237000 0.011878
vertex -0.019052 0.237000 0.008813
vertex -0.019261 0.158000 0.009062
endloop
endfacet
facet normal -0.718420 -0.000294 -0.695610
outer loop
vertex -0.019261 0.158000 0.009062
vertex -0.019052 0.237000 0.008813
vertex -0.016551 0.158000 0.006263
endloop
endfacet
facet normal -0.718420 0.000000 -0.695610
outer loop
vertex -0.019261 0.158000 0.009062
vertex -0.016551 0.158000 0.006263
vertex -0.016551 0.079000 0.006263
endloop
endfacet
facet normal -0.601617 0.000000 -0.798785
outer loop
vertex -0.016551 0.079000 0.006263
vertex -0.016551 0.158000 0.006263
vertex -0.013439 0.079000 0.003919
endloop
endfacet
facet normal -0.601616 0.000000 -0.798785
outer loop
vertex -0.016551 0.079000 0.006263
vertex -0.013439 0.079000 0.003919
vertex -0.013439 0.000000 0.003919
endloop
endfacet
facet normal -0.470201 0.000000 -0.882559
outer loop
vertex -0.013439 0.000000 0.003919
vertex -0.013439 0.079000 0.003919
vertex -0.010000 -0.237000 0.002087
endloop
endfacet
facet normal -0.710841 0.000196 -0.703352
outer loop
vertex -0.019052 0.237000 0.008813
vertex -0.016388 0.237000 0.006120
vertex -0.016551 0.158000 0.006263
endloop
endfacet
facet normal -0.601617 -0.000202 -0.798785
outer loop
vertex -0.016551 0.158000 0.006263
vertex -0.016388 0.237000 0.006120
vertex -0.013439 0.158000 0.003919
endloop
endfacet
facet normal -0.601617 0.000000 -0.798785
outer loop
vertex -0.016551 0.158000 0.006263
vertex -0.013439 0.158000 0.003919
vertex -0.013439 0.079000 0.003919
endloop
endfacet
facet normal -0.470201 0.000000 -0.882559
outer loop
vertex -0.013439 0.079000 0.003919
vertex -0.013439 0.158000 0.003919
vertex -0.010000 -0.237000 0.002087
endloop
endfacet
facet normal -0.596412 0.000101 -0.802679
outer loop
vertex -0.016388 0.237000 0.006120
vertex -0.013347 0.237000 0.003861
vertex -0.013439 0.158000 0.003919
endloop
endfacet
facet normal -0.478347 -0.000091 -0.878171
outer loop
vertex -0.013439 0.158000 0.003919
vertex -0.013347 0.237000 0.003861
vertex -0.010000 -0.237000 0.002087
endloop
endfacet
facet normal -0.468288 0.000000 -0.883576
outer loop
vertex -0.013347 0.237000 0.003861
vertex -0.010000 0.237000 0.002087
vertex -0.010000 -0.237000 0.002087
endloop
endfacet
facet normal -0.601616 0.000000 -0.798785
outer loop
vertex -0.013439 -0.079000 0.003919
vertex -0.013439 -0.158000 0.003919
vertex -0.016551 -0.079000 0.006263
endloop
endfacet
facet normal -0.601617 0.000000 -0.798785
outer loop
vertex -0.016551 -0.079000 0.006263
vertex -0.013439 -0.158000 0.003919
vertex -0.016551 -0.158000 0.006263
endloop
endfacet
facet normal -0.718420 0.000000 -0.695610
outer loop
vertex -0.016551 -0.079000 0.006263
vertex -0.016551 -0.158000 0.006263
vertex -0.019261 -0.079000 0.009062
endloop
endfacet
facet normal -0.718420 0.000000 -0.695610
outer loop
vertex -0.019261 -0.079000 0.009062
vertex -0.016551 -0.158000 0.006263
vertex -0.019261 -0.158000 0.009062
endloop
endfacet
facet normal -0.817773 0.000000 -0.575540
outer loop
vertex -0.019261 -0.079000 0.009062
vertex -0.019261 -0.158000 0.009062
vertex -0.021503 -0.079000 0.012248
endloop
endfacet
facet normal -0.817773 0.000000 -0.575540
outer loop
vertex -0.021503 -0.079000 0.012248
vertex -0.019261 -0.158000 0.009062
vertex -0.021503 -0.158000 0.012248
endloop
endfacet
facet normal -0.897266 0.000000 -0.441491
outer loop
vertex -0.021503 -0.079000 0.012248
vertex -0.021503 -0.158000 0.012248
vertex -0.023223 -0.079000 0.015744
endloop
endfacet
facet normal -0.897266 0.000000 -0.441491
outer loop
vertex -0.023223 -0.079000 0.015744
vertex -0.021503 -0.158000 0.012248
vertex -0.023223 -0.158000 0.015744
endloop
endfacet
facet normal -0.954965 0.000000 -0.296719
outer loop
vertex -0.023223 -0.079000 0.015744
vertex -0.023223 -0.158000 0.015744
vertex -0.024380 -0.079000 0.019465
endloop
endfacet
facet normal -0.954965 0.000000 -0.296719
outer loop
vertex -0.024380 -0.079000 0.019465
vertex -0.023223 -0.158000 0.015744
vertex -0.024380 -0.158000 0.019465
endloop
endfacet
facet normal -0.989470 0.000000 -0.144741
outer loop
vertex -0.024380 -0.079000 0.019465
vertex -0.024380 -0.158000 0.019465
vertex -0.024943 -0.079000 0.023320
endloop
endfacet
facet normal -0.989470 0.000000 -0.144741
outer loop
vertex -0.024943 -0.079000 0.023320
vertex -0.024380 -0.158000 0.019465
vertex -0.024943 -0.158000 0.023320
endloop
endfacet
facet normal -0.999942 0.000000 0.010753
outer loop
vertex -0.024943 -0.079000 0.023320
vertex -0.024943 -0.158000 0.023320
vertex -0.024902 -0.079000 0.027216
endloop
endfacet
facet normal -0.999942 0.000000 0.010753
outer loop
vertex -0.024902 -0.079000 0.027216
vertex -0.024943 -0.158000 0.023320
vertex -0.024902 -0.158000 0.027216
endloop
endfacet
facet normal -0.986128 0.000000 0.165986
outer loop
vertex -0.024902 -0.079000 0.027216
vertex -0.024902 -0.158000 0.027216
vertex -0.024255 -0.079000 0.031058
endloop
endfacet
facet normal -0.986128 0.000000 0.165985
outer loop
vertex -0.024255 -0.079000 0.031058
vertex -0.024902 -0.158000 0.027216
vertex -0.024255 -0.158000 0.031058
endloop
endfacet
facet normal -0.948363 0.000000 0.317187
outer loop
vertex -0.024255 -0.079000 0.031058
vertex -0.024255 -0.158000 0.031058
vertex -0.023019 -0.079000 0.034753
endloop
endfacet
facet normal -0.948363 0.000000 0.317187
outer loop
vertex -0.023019 -0.079000 0.034753
vertex -0.024255 -0.158000 0.031058
vertex -0.023019 -0.158000 0.034753
endloop
endfacet
facet normal -0.887564 0.000000 0.460685
outer loop
vertex -0.023019 -0.079000 0.034753
vertex -0.023019 -0.158000 0.034753
vertex -0.021224 -0.079000 0.038211
endloop
endfacet
facet normal -0.887564 0.000000 0.460684
outer loop
vertex -0.021224 -0.079000 0.038211
vertex -0.023019 -0.158000 0.034753
vertex -0.021224 -0.158000 0.038211
endloop
endfacet
facet normal -0.805208 0.000000 0.592992
outer loop
vertex -0.021224 -0.079000 0.038211
vertex -0.021224 -0.158000 0.038211
vertex -0.018914 -0.079000 0.041348
endloop
endfacet
facet normal -0.805208 0.000000 0.592993
outer loop
vertex -0.018914 -0.079000 0.041348
vertex -0.021224 -0.158000 0.038211
vertex -0.018914 -0.158000 0.041348
endloop
endfacet
facet normal -0.703296 0.000000 0.710897
outer loop
vertex -0.018914 -0.079000 0.041348
vertex -0.018914 -0.158000 0.041348
vertex -0.016144 -0.079000 0.044088
endloop
endfacet
facet normal -0.703295 0.000000 0.710898
outer loop
vertex -0.016144 -0.079000 0.044088
vertex -0.018914 -0.158000 0.041348
vertex -0.016144 -0.158000 0.044088
endloop
endfacet
facet normal -0.584300 0.000000 0.811538
outer loop
vertex -0.014878 -0.126369 0.045000
vertex -0.014878 -0.079000 0.045000
vertex -0.016144 -0.079000 0.044088
endloop
endfacet
facet normal -0.584297 0.000000 0.811540
outer loop
vertex -0.014878 -0.126369 0.045000
vertex -0.016144 -0.079000 0.044088
vertex -0.016144 -0.158000 0.044088
endloop
endfacet
facet normal -0.584297 0.000000 0.811540
outer loop
vertex -0.016144 -0.158000 0.044088
vertex -0.014878 -0.158000 0.045000
vertex -0.014878 -0.126369 0.045000
endloop
endfacet
facet normal 0.584297 0.000000 0.811540
outer loop
vertex 0.014878 -0.079000 0.045000
vertex 0.014878 -0.110631 0.045000
vertex 0.016144 -0.079000 0.044088
endloop
endfacet
facet normal 0.584297 0.000000 0.811540
outer loop
vertex 0.016144 -0.158000 0.044088
vertex 0.016144 -0.079000 0.044088
vertex 0.014878 -0.110631 0.045000
endloop
endfacet
facet normal 0.584300 0.000000 0.811538
outer loop
vertex 0.016144 -0.158000 0.044088
vertex 0.014878 -0.110631 0.045000
vertex 0.014878 -0.158000 0.045000
endloop
endfacet
facet normal 0.703295 0.000000 0.710898
outer loop
vertex 0.016144 -0.079000 0.044088
vertex 0.016144 -0.158000 0.044088
vertex 0.018914 -0.079000 0.041348
endloop
endfacet
facet normal 0.703296 0.000000 0.710897
outer loop
vertex 0.018914 -0.079000 0.041348
vertex 0.016144 -0.158000 0.044088
vertex 0.018914 -0.158000 0.041348
endloop
endfacet
facet normal 0.805208 0.000000 0.592993
outer loop
vertex 0.018914 -0.079000 0.041348
vertex 0.018914 -0.158000 0.041348
vertex 0.021224 -0.079000 0.038211
endloop
endfacet
facet normal 0.805208 0.000000 0.592992
outer loop
vertex 0.021224 -0.079000 0.038211
vertex 0.018914 -0.158000 0.041348
vertex 0.021224 -0.158000 0.038211
endloop
endfacet
facet normal 0.887564 0.000000 0.460684
outer loop
vertex 0.021224 -0.079000 0.038211
vertex 0.021224 -0.158000 0.038211
vertex 0.023019 -0.079000 0.034753
endloop
endfacet
facet normal 0.887564 0.000000 0.460685
outer loop
vertex 0.023019 -0.079000 0.034753
vertex 0.021224 -0.158000 0.038211
vertex 0.023019 -0.158000 0.034753
endloop
endfacet
facet normal 0.948363 0.000000 0.317187
outer loop
vertex 0.023019 -0.079000 0.034753
vertex 0.023019 -0.158000 0.034753
vertex 0.024255 -0.079000 0.031058
endloop
endfacet
facet normal 0.948363 0.000000 0.317187
outer loop
vertex 0.024255 -0.079000 0.031058
vertex 0.023019 -0.158000 0.034753
vertex 0.024255 -0.158000 0.031058
endloop
endfacet
facet normal 0.986128 0.000000 0.165985
outer loop
vertex 0.024255 -0.079000 0.031058
vertex 0.024255 -0.158000 0.031058
vertex 0.024902 -0.079000 0.027216
endloop
endfacet
facet normal 0.986128 0.000000 0.165985
outer loop
vertex 0.024902 -0.079000 0.027216
vertex 0.024255 -0.158000 0.031058
vertex 0.024902 -0.158000 0.027216
endloop
endfacet
facet normal 0.999942 0.000000 0.010753
outer loop
vertex 0.024902 -0.079000 0.027216
vertex 0.024902 -0.158000 0.027216
vertex 0.024943 -0.079000 0.023320
endloop
endfacet
facet normal 0.999942 0.000000 0.010753
outer loop
vertex 0.024943 -0.079000 0.023320
vertex 0.024902 -0.158000 0.027216
vertex 0.024943 -0.158000 0.023320
endloop
endfacet
facet normal 0.989470 0.000000 -0.144741
outer loop
vertex 0.024943 -0.079000 0.023320
vertex 0.024943 -0.158000 0.023320
vertex 0.024380 -0.079000 0.019465
endloop
endfacet
facet normal 0.989470 0.000000 -0.144741
outer loop
vertex 0.024380 -0.079000 0.019465
vertex 0.024943 -0.158000 0.023320
vertex 0.024380 -0.158000 0.019465
endloop
endfacet
facet normal 0.954965 0.000000 -0.296719
outer loop
vertex 0.024380 -0.079000 0.019465
vertex 0.024380 -0.158000 0.019465
vertex 0.023223 -0.079000 0.015744
endloop
endfacet
facet normal 0.954965 0.000000 -0.296719
outer loop
vertex 0.023223 -0.079000 0.015744
vertex 0.024380 -0.158000 0.019465
vertex 0.023223 -0.158000 0.015744
endloop
endfacet
facet normal 0.897266 0.000000 -0.441491
outer loop
vertex 0.023223 -0.079000 0.015744
vertex 0.023223 -0.158000 0.015744
vertex 0.021503 -0.079000 0.012248
endloop
endfacet
facet normal 0.897266 0.000000 -0.441491
outer loop
vertex 0.021503 -0.079000 0.012248
vertex 0.023223 -0.158000 0.015744
vertex 0.021503 -0.158000 0.012248
endloop
endfacet
facet normal 0.817773 0.000000 -0.575540
outer loop
vertex 0.021503 -0.079000 0.012248
vertex 0.021503 -0.158000 0.012248
vertex 0.019261 -0.079000 0.009062
endloop
endfacet
facet normal -0.601617 0.000000 -0.798785
outer loop
vertex -0.013439 -0.079000 0.003919
vertex -0.016551 -0.079000 0.006263
vertex -0.016551 0.000000 0.006263
endloop
endfacet
facet normal -0.718420 0.000000 -0.695610
outer loop
vertex -0.016551 0.000000 0.006263
vertex -0.016551 -0.079000 0.006263
vertex -0.019261 0.000000 0.009062
endloop
endfacet
facet normal -0.718420 0.000000 -0.695610
outer loop
vertex -0.016551 0.000000 0.006263
vertex -0.019261 0.000000 0.009062
vertex -0.019261 0.079000 0.009062
endloop
endfacet
facet normal -0.817773 0.000000 -0.575540
outer loop
vertex -0.019261 0.079000 0.009062
vertex -0.019261 0.000000 0.009062
vertex -0.021503 0.079000 0.012248
endloop
endfacet
facet normal -0.817773 0.000000 -0.575540
outer loop
vertex -0.019261 0.079000 0.009062
vertex -0.021503 0.079000 0.012248
vertex -0.021503 0.158000 0.012248
endloop
endfacet
facet normal -0.897266 0.000000 -0.441491
outer loop
vertex -0.021503 0.158000 0.012248
vertex -0.021503 0.079000 0.012248
vertex -0.023223 0.158000 0.015744
endloop
endfacet
facet normal -0.718420 0.000000 -0.695610
outer loop
vertex -0.019261 0.000000 0.009062
vertex -0.016551 -0.079000 0.006263
vertex -0.019261 -0.079000 0.009062
endloop
endfacet
facet normal -0.817773 0.000000 -0.575540
outer loop
vertex -0.019261 0.000000 0.009062
vertex -0.019261 -0.079000 0.009062
vertex -0.021503 0.000000 0.012248
endloop
endfacet
facet normal -0.817773 0.000000 -0.575540
outer loop
vertex -0.021503 0.000000 0.012248
vertex -0.019261 -0.079000 0.009062
vertex -0.021503 -0.079000 0.012248
endloop
endfacet
facet normal -0.897266 0.000000 -0.441491
outer loop
vertex -0.021503 0.000000 0.012248
vertex -0.021503 -0.079000 0.012248
vertex -0.023223 0.000000 0.015744
endloop
endfacet
facet normal -0.897266 0.000000 -0.441491
outer loop
vertex -0.023223 0.000000 0.015744
vertex -0.021503 -0.079000 0.012248
vertex -0.023223 -0.079000 0.015744
endloop
endfacet
facet normal -0.954965 0.000000 -0.296719
outer loop
vertex -0.023223 0.000000 0.015744
vertex -0.023223 -0.079000 0.015744
vertex -0.024380 0.000000 0.019465
endloop
endfacet
facet normal -0.954965 0.000000 -0.296719
outer loop
vertex -0.024380 0.000000 0.019465
vertex -0.023223 -0.079000 0.015744
vertex -0.024380 -0.079000 0.019465
endloop
endfacet
facet normal -0.989470 0.000000 -0.144741
outer loop
vertex -0.024380 0.000000 0.019465
vertex -0.024380 -0.079000 0.019465
vertex -0.024943 0.000000 0.023320
endloop
endfacet
facet normal -0.989470 0.000000 -0.144741
outer loop
vertex -0.024943 0.000000 0.023320
vertex -0.024380 -0.079000 0.019465
vertex -0.024943 -0.079000 0.023320
endloop
endfacet
facet normal -0.999942 0.000000 0.010753
outer loop
vertex -0.024943 0.000000 0.023320
vertex -0.024943 -0.079000 0.023320
vertex -0.024902 0.000000 0.027216
endloop
endfacet
facet normal -0.999942 0.000000 0.010753
outer loop
vertex -0.024902 0.000000 0.027216
vertex -0.024943 -0.079000 0.023320
vertex -0.024902 -0.079000 0.027216
endloop
endfacet
facet normal -0.986128 0.000000 0.165985
outer loop
vertex -0.024902 0.000000 0.027216
vertex -0.024902 -0.079000 0.027216
vertex -0.024255 0.000000 0.031058
endloop
endfacet
facet normal -0.986128 0.000000 0.165985
outer loop
vertex -0.024255 0.000000 0.031058
vertex -0.024902 -0.079000 0.027216
vertex -0.024255 -0.079000 0.031058
endloop
endfacet
facet normal -0.948363 0.000000 0.317187
outer loop
vertex -0.024255 0.000000 0.031058
vertex -0.024255 -0.079000 0.031058
vertex -0.023019 0.000000 0.034753
endloop
endfacet
facet normal -0.948363 0.000000 0.317187
outer loop
vertex -0.023019 0.000000 0.034753
vertex -0.024255 -0.079000 0.031058
vertex -0.023019 -0.079000 0.034753
endloop
endfacet
facet normal -0.887564 0.000000 0.460685
outer loop
vertex -0.023019 0.000000 0.034753
vertex -0.023019 -0.079000 0.034753
vertex -0.021224 0.000000 0.038211
endloop
endfacet
facet normal -0.887564 0.000000 0.460684
outer loop
vertex -0.021224 0.000000 0.038211
vertex -0.023019 -0.079000 0.034753
vertex -0.021224 -0.079000 0.038211
endloop
endfacet
facet normal -0.805208 0.000000 0.592992
outer loop
vertex -0.021224 0.000000 0.038211
vertex -0.021224 -0.079000 0.038211
vertex -0.018914 0.000000 0.041348
endloop
endfacet
facet normal -0.805208 0.000000 0.592993
outer loop
vertex -0.018914 0.000000 0.041348
vertex -0.021224 -0.079000 0.038211
vertex -0.018914 -0.079000 0.041348
endloop
endfacet
facet normal -0.703296 0.000000 0.710897
outer loop
vertex -0.018914 0.000000 0.041348
vertex -0.018914 -0.079000 0.041348
vertex -0.016144 0.000000 0.044088
endloop
endfacet
facet normal -0.703295 0.000000 0.710898
outer loop
vertex -0.016144 0.000000 0.044088
vertex -0.018914 -0.079000 0.041348
vertex -0.016144 -0.079000 0.044088
endloop
endfacet
facet normal -0.584297 0.000000 0.811540
outer loop
vertex -0.014878 0.000000 0.045000
vertex -0.016144 0.000000 0.044088
vertex -0.016144 -0.079000 0.044088
endloop
endfacet
facet normal -0.584298 0.000000 0.811539
outer loop
vertex -0.014878 0.000000 0.045000
vertex -0.016144 -0.079000 0.044088
vertex -0.014878 -0.047369 0.045000
endloop
endfacet
facet normal -0.584301 0.000000 0.811537
outer loop
vertex -0.016144 -0.079000 0.044088
vertex -0.014878 -0.079000 0.045000
vertex -0.014878 -0.047369 0.045000
endloop
endfacet
facet normal 0.584297 0.000000 0.811540
outer loop
vertex 0.014878 0.000000 0.045000
vertex 0.014878 -0.031631 0.045000
vertex 0.016144 0.000000 0.044088
endloop
endfacet
facet normal 0.584297 0.000000 0.811540
outer loop
vertex 0.016144 -0.079000 0.044088
vertex 0.016144 0.000000 0.044088
vertex 0.014878 -0.031631 0.045000
endloop
endfacet
facet normal 0.584300 0.000000 0.811538
outer loop
vertex 0.016144 -0.079000 0.044088
vertex 0.014878 -0.031631 0.045000
vertex 0.014878 -0.079000 0.045000
endloop
endfacet
facet normal 0.703295 0.000000 0.710898
outer loop
vertex 0.016144 0.000000 0.044088
vertex 0.016144 -0.079000 0.044088
vertex 0.018914 0.000000 0.041348
endloop
endfacet
facet normal 0.703296 0.000000 0.710897
outer loop
vertex 0.018914 0.000000 0.041348
vertex 0.016144 -0.079000 0.044088
vertex 0.018914 -0.079000 0.041348
endloop
endfacet
facet normal 0.805208 0.000000 0.592993
outer loop
vertex 0.018914 0.000000 0.041348
vertex 0.018914 -0.079000 0.041348
vertex 0.021224 0.000000 0.038211
endloop
endfacet
facet normal 0.805208 0.000000 0.592992
outer loop
vertex 0.021224 0.000000 0.038211
vertex 0.018914 -0.079000 0.041348
vertex 0.021224 -0.079000 0.038211
endloop
endfacet
facet normal 0.887564 0.000000 0.460684
outer loop
vertex 0.021224 0.000000 0.038211
vertex 0.021224 -0.079000 0.038211
vertex 0.023019 0.000000 0.034753
endloop
endfacet
facet normal 0.887564 0.000000 0.460685
outer loop
vertex 0.023019 0.000000 0.034753
vertex 0.021224 -0.079000 0.038211
vertex 0.023019 -0.079000 0.034753
endloop
endfacet
facet normal 0.948363 0.000000 0.317187
outer loop
vertex 0.023019 0.000000 0.034753
vertex 0.023019 -0.079000 0.034753
vertex 0.024255 0.000000 0.031058
endloop
endfacet
facet normal 0.948363 0.000000 0.317187
outer loop
vertex 0.024255 0.000000 0.031058
vertex 0.023019 -0.079000 0.034753
vertex 0.024255 -0.079000 0.031058
endloop
endfacet
facet normal 0.986128 0.000000 0.165985
outer loop
vertex 0.024255 0.000000 0.031058
vertex 0.024255 -0.079000 0.031058
vertex 0.024902 0.000000 0.027216
endloop
endfacet
facet normal 0.986128 0.000000 0.165985
outer loop
vertex 0.024902 0.000000 0.027216
vertex 0.024255 -0.079000 0.031058
vertex 0.024902 -0.079000 0.027216
endloop
endfacet
facet normal 0.999942 0.000000 0.010753
outer loop
vertex 0.024902 0.000000 0.027216
vertex 0.024902 -0.079000 0.027216
vertex 0.024943 0.000000 0.023320
endloop
endfacet
facet normal 0.999942 0.000000 0.010753
outer loop
vertex 0.024943 0.000000 0.023320
vertex 0.024902 -0.079000 0.027216
vertex 0.024943 -0.079000 0.023320
endloop
endfacet
facet normal 0.989470 0.000000 -0.144741
outer loop
vertex 0.024943 0.000000 0.023320
vertex 0.024943 -0.079000 0.023320
vertex 0.024380 0.000000 0.019465
endloop
endfacet
facet normal 0.989470 0.000000 -0.144741
outer loop
vertex 0.024380 0.000000 0.019465
vertex 0.024943 -0.079000 0.023320
vertex 0.024380 -0.079000 0.019465
endloop
endfacet
facet normal 0.954965 0.000000 -0.296719
outer loop
vertex 0.024380 0.000000 0.019465
vertex 0.024380 -0.079000 0.019465
vertex 0.023223 0.000000 0.015744
endloop
endfacet
facet normal 0.954965 0.000000 -0.296719
outer loop
vertex 0.023223 0.000000 0.015744
vertex 0.024380 -0.079000 0.019465
vertex 0.023223 -0.079000 0.015744
endloop
endfacet
facet normal 0.897266 0.000000 -0.441491
outer loop
vertex 0.023223 0.000000 0.015744
vertex 0.023223 -0.079000 0.015744
vertex 0.021503 0.000000 0.012248
endloop
endfacet
facet normal 0.897266 0.000000 -0.441491
outer loop
vertex 0.021503 0.000000 0.012248
vertex 0.023223 -0.079000 0.015744
vertex 0.021503 -0.079000 0.012248
endloop
endfacet
facet normal 0.817773 0.000000 -0.575540
outer loop
vertex 0.021503 0.000000 0.012248
vertex 0.021503 -0.079000 0.012248
vertex 0.019261 0.000000 0.009062
endloop
endfacet
facet normal 0.817773 0.000000 -0.575540
outer loop
vertex 0.019261 0.000000 0.009062
vertex 0.021503 -0.079000 0.012248
vertex 0.019261 -0.079000 0.009062
endloop
endfacet
facet normal 0.718420 0.000000 -0.695610
outer loop
vertex 0.019261 0.000000 0.009062
vertex 0.019261 -0.079000 0.009062
vertex 0.016551 0.000000 0.006263
endloop
endfacet
facet normal -0.817773 0.000000 -0.575540
outer loop
vertex -0.019261 0.000000 0.009062
vertex -0.021503 0.000000 0.012248
vertex -0.021503 0.079000 0.012248
endloop
endfacet
facet normal -0.897266 0.000000 -0.441491
outer loop
vertex -0.021503 0.079000 0.012248
vertex -0.021503 0.000000 0.012248
vertex -0.023223 0.079000 0.015744
endloop
endfacet
facet normal -0.897265 0.000000 -0.441491
outer loop
vertex -0.021503 0.079000 0.012248
vertex -0.023223 0.079000 0.015744
vertex -0.023223 0.158000 0.015744
endloop
endfacet
facet normal -0.954965 0.000000 -0.296719
outer loop
vertex -0.023223 0.158000 0.015744
vertex -0.023223 0.079000 0.015744
vertex -0.024380 0.158000 0.019465
endloop
endfacet
facet normal -0.897266 0.000000 -0.441491
outer loop
vertex -0.023223 0.079000 0.015744
vertex -0.021503 0.000000 0.012248
vertex -0.023223 0.000000 0.015744
endloop
endfacet
facet normal -0.954965 0.000000 -0.296719
outer loop
vertex -0.023223 0.079000 0.015744
vertex -0.023223 0.000000 0.015744
vertex -0.024380 0.079000 0.019465
endloop
endfacet
facet normal -0.954965 0.000000 -0.296719
outer loop
vertex -0.024380 0.079000 0.019465
vertex -0.023223 0.000000 0.015744
vertex -0.024380 0.000000 0.019465
endloop
endfacet
facet normal -0.989470 0.000000 -0.144741
outer loop
vertex -0.024380 0.079000 0.019465
vertex -0.024380 0.000000 0.019465
vertex -0.024943 0.079000 0.023320
endloop
endfacet
facet normal -0.989470 0.000000 -0.144741
outer loop
vertex -0.024943 0.079000 0.023320
vertex -0.024380 0.000000 0.019465
vertex -0.024943 0.000000 0.023320
endloop
endfacet
facet normal -0.999942 0.000000 0.010753
outer loop
vertex -0.024943 0.079000 0.023320
vertex -0.024943 0.000000 0.023320
vertex -0.024902 0.079000 0.027216
endloop
endfacet
facet normal -0.999942 0.000000 0.010753
outer loop
vertex -0.024902 0.079000 0.027216
vertex -0.024943 0.000000 0.023320
vertex -0.024902 0.000000 0.027216
endloop
endfacet
facet normal -0.986128 0.000000 0.165985
outer loop
vertex -0.024902 0.079000 0.027216
vertex -0.024902 0.000000 0.027216
vertex -0.024255 0.079000 0.031058
endloop
endfacet
facet normal -0.986128 0.000000 0.165985
outer loop
vertex -0.024255 0.079000 0.031058
vertex -0.024902 0.000000 0.027216
vertex -0.024255 0.000000 0.031058
endloop
endfacet
facet normal -0.948363 0.000000 0.317187
outer loop
vertex -0.024255 0.079000 0.031058
vertex -0.024255 0.000000 0.031058
vertex -0.023019 0.079000 0.034753
endloop
endfacet
facet normal -0.948363 0.000000 0.317187
outer loop
vertex -0.023019 0.079000 0.034753
vertex -0.024255 0.000000 0.031058
vertex -0.023019 0.000000 0.034753
endloop
endfacet
facet normal -0.887564 0.000000 0.460685
outer loop
vertex -0.023019 0.079000 0.034753
vertex -0.023019 0.000000 0.034753
vertex -0.021224 0.079000 0.038211
endloop
endfacet
facet normal -0.887564 0.000000 0.460684
outer loop
vertex -0.021224 0.079000 0.038211
vertex -0.023019 0.000000 0.034753
vertex -0.021224 0.000000 0.038211
endloop
endfacet
facet normal -0.805208 0.000000 0.592992
outer loop
vertex -0.021224 0.079000 0.038211
vertex -0.021224 0.000000 0.038211
vertex -0.018914 0.079000 0.041348
endloop
endfacet
facet normal -0.805208 0.000000 0.592993
outer loop
vertex -0.018914 0.079000 0.041348
vertex -0.021224 0.000000 0.038211
vertex -0.018914 0.000000 0.041348
endloop
endfacet
facet normal -0.703296 0.000000 0.710897
outer loop
vertex -0.018914 0.079000 0.041348
vertex -0.018914 0.000000 0.041348
vertex -0.016144 0.079000 0.044088
endloop
endfacet
facet normal -0.703295 0.000000 0.710898
outer loop
vertex -0.016144 0.079000 0.044088
vertex -0.018914 0.000000 0.041348
vertex -0.016144 0.000000 0.044088
endloop
endfacet
facet normal -0.584300 0.000000 0.811538
outer loop
vertex -0.014878 0.031631 0.045000
vertex -0.014878 0.079000 0.045000
vertex -0.016144 0.079000 0.044088
endloop
endfacet
facet normal -0.584297 0.000000 0.811540
outer loop
vertex -0.014878 0.031631 0.045000
vertex -0.016144 0.079000 0.044088
vertex -0.016144 0.000000 0.044088
endloop
endfacet
facet normal -0.584297 0.000000 0.811540
outer loop
vertex -0.016144 0.000000 0.044088
vertex -0.014878 0.000000 0.045000
vertex -0.014878 0.031631 0.045000
endloop
endfacet
facet normal 0.584301 0.000000 0.811537
outer loop
vertex 0.014878 0.079000 0.045000
vertex 0.014878 0.047369 0.045000
vertex 0.016144 0.079000 0.044088
endloop
endfacet
facet normal 0.584297 0.000000 0.811540
outer loop
vertex 0.014878 0.000000 0.045000
vertex 0.016144 0.000000 0.044088
vertex 0.016144 0.079000 0.044088
endloop
endfacet
facet normal 0.584298 0.000000 0.811539
outer loop
vertex 0.014878 0.000000 0.045000
vertex 0.016144 0.079000 0.044088
vertex 0.014878 0.047369 0.045000
endloop
endfacet
facet normal 0.703295 0.000000 0.710898
outer loop
vertex 0.016144 0.079000 0.044088
vertex 0.016144 0.000000 0.044088
vertex 0.018914 0.079000 0.041348
endloop
endfacet
facet normal 0.703296 0.000000 0.710897
outer loop
vertex 0.018914 0.079000 0.041348
vertex 0.016144 0.000000 0.044088
vertex 0.018914 0.000000 0.041348
endloop
endfacet
facet normal 0.805208 0.000000 0.592993
outer loop
vertex 0.018914 0.079000 0.041348
vertex 0.018914 0.000000 0.041348
vertex 0.021224 0.079000 0.038211
endloop
endfacet
facet normal 0.805208 0.000000 0.592992
outer loop
vertex 0.021224 0.079000 0.038211
vertex 0.018914 0.000000 0.041348
vertex 0.021224 0.000000 0.038211
endloop
endfacet
facet normal 0.887564 0.000000 0.460684
outer loop
vertex 0.021224 0.079000 0.038211
vertex 0.021224 0.000000 0.038211
vertex 0.023019 0.079000 0.034753
endloop
endfacet
facet normal 0.887564 0.000000 0.460685
outer loop
vertex 0.023019 0.079000 0.034753
vertex 0.021224 0.000000 0.038211
vertex 0.023019 0.000000 0.034753
endloop
endfacet
facet normal 0.948363 0.000000 0.317187
outer loop
vertex 0.023019 0.079000 0.034753
vertex 0.023019 0.000000 0.034753
vertex 0.024255 0.079000 0.031058
endloop
endfacet
facet normal 0.948363 0.000000 0.317187
outer loop
vertex 0.024255 0.079000 0.031058
vertex 0.023019 0.000000 0.034753
vertex 0.024255 0.000000 0.031058
endloop
endfacet
facet normal 0.986128 0.000000 0.165985
outer loop
vertex 0.024255 0.079000 0.031058
vertex 0.024255 0.000000 0.031058
vertex 0.024902 0.079000 0.027216
endloop
endfacet
facet normal 0.986128 0.000000 0.165985
outer loop
vertex 0.024902 0.079000 0.027216
vertex 0.024255 0.000000 0.031058
vertex 0.024902 0.000000 0.027216
endloop
endfacet
facet normal 0.999942 0.000000 0.010753
outer loop
vertex 0.024902 0.079000 0.027216
vertex 0.024902 0.000000 0.027216
vertex 0.024943 0.079000 0.023320
endloop
endfacet
facet normal 0.999942 0.000000 0.010753
outer loop
vertex 0.024943 0.079000 0.023320
vertex 0.024902 0.000000 0.027216
vertex 0.024943 0.000000 0.023320
endloop
endfacet
facet normal 0.989470 0.000000 -0.144741
outer loop
vertex 0.024943 0.079000 0.023320
vertex 0.024943 0.000000 0.023320
vertex 0.024380 0.079000 0.019465
endloop
endfacet
facet normal 0.989470 0.000000 -0.144741
outer loop
vertex 0.024380 0.079000 0.019465
vertex 0.024943 0.000000 0.023320
vertex 0.024380 0.000000 0.019465
endloop
endfacet
facet normal 0.954965 0.000000 -0.296719
outer loop
vertex 0.024380 0.079000 0.019465
vertex 0.024380 0.000000 0.019465
vertex 0.023223 0.079000 0.015744
endloop
endfacet
facet normal 0.954965 0.000000 -0.296719
outer loop
vertex 0.023223 0.079000 0.015744
vertex 0.024380 0.000000 0.019465
vertex 0.023223 0.000000 0.015744
endloop
endfacet
facet normal 0.897266 0.000000 -0.441491
outer loop
vertex 0.023223 0.079000 0.015744
vertex 0.023223 0.000000 0.015744
vertex 0.021503 0.079000 0.012248
endloop
endfacet
facet normal 0.897266 0.000000 -0.441491
outer loop
vertex 0.021503 0.079000 0.012248
vertex 0.023223 0.000000 0.015744
vertex 0.021503 0.000000 0.012248
endloop
endfacet
facet normal 0.817773 0.000000 -0.575540
outer loop
vertex 0.021503 0.079000 0.012248
vertex 0.021503 0.000000 0.012248
vertex 0.019261 0.079000 0.009062
endloop
endfacet
facet normal 0.817773 0.000000 -0.575540
outer loop
vertex 0.019261 0.079000 0.009062
vertex 0.021503 0.000000 0.012248
vertex 0.019261 0.000000 0.009062
endloop
endfacet
facet normal 0.718420 0.000000 -0.695610
outer loop
vertex 0.019261 0.079000 0.009062
vertex 0.019261 0.000000 0.009062
vertex 0.016551 0.079000 0.006263
endloop
endfacet
facet normal 0.718419 0.000000 -0.695610
outer loop
vertex 0.016551 0.079000 0.006263
vertex 0.019261 0.000000 0.009062
vertex 0.016551 0.000000 0.006263
endloop
endfacet
facet normal 0.601617 0.000000 -0.798785
outer loop
vertex 0.016551 0.079000 0.006263
vertex 0.016551 0.000000 0.006263
vertex 0.013439 0.079000 0.003919
endloop
endfacet
facet normal -0.989470 0.000000 -0.144741
outer loop
vertex -0.024943 0.158000 0.023320
vertex -0.024380 0.158000 0.019465
vertex -0.024380 0.079000 0.019465
endloop
endfacet
facet normal -0.954965 0.000000 -0.296719
outer loop
vertex -0.024380 0.079000 0.019465
vertex -0.024380 0.158000 0.019465
vertex -0.023223 0.079000 0.015744
endloop
endfacet
facet normal -0.989470 0.000000 -0.144741
outer loop
vertex -0.024943 0.158000 0.023320
vertex -0.024380 0.079000 0.019465
vertex -0.024943 0.079000 0.023320
endloop
endfacet
facet normal -0.999942 0.000000 0.010753
outer loop
vertex -0.024902 0.158000 0.027216
vertex -0.024943 0.158000 0.023320
vertex -0.024943 0.079000 0.023320
endloop
endfacet
facet normal -0.999942 0.000000 0.010753
outer loop
vertex -0.024902 0.158000 0.027216
vertex -0.024943 0.079000 0.023320
vertex -0.024902 0.079000 0.027216
endloop
endfacet
facet normal -0.986128 0.000000 0.165985
outer loop
vertex -0.024255 0.158000 0.031058
vertex -0.024902 0.158000 0.027216
vertex -0.024902 0.079000 0.027216
endloop
endfacet
facet normal -0.986128 0.000000 0.165985
outer loop
vertex -0.024255 0.158000 0.031058
vertex -0.024902 0.079000 0.027216
vertex -0.024255 0.079000 0.031058
endloop
endfacet
facet normal -0.948363 0.000000 0.317187
outer loop
vertex -0.023019 0.158000 0.034753
vertex -0.024255 0.158000 0.031058
vertex -0.024255 0.079000 0.031058
endloop
endfacet
facet normal -0.948363 0.000000 0.317187
outer loop
vertex -0.023019 0.158000 0.034753
vertex -0.024255 0.079000 0.031058
vertex -0.023019 0.079000 0.034753
endloop
endfacet
facet normal -0.887564 0.000000 0.460685
outer loop
vertex -0.021224 0.158000 0.038211
vertex -0.023019 0.158000 0.034753
vertex -0.023019 0.079000 0.034753
endloop
endfacet
facet normal -0.887564 0.000000 0.460684
outer loop
vertex -0.021224 0.158000 0.038211
vertex -0.023019 0.079000 0.034753
vertex -0.021224 0.079000 0.038211
endloop
endfacet
facet normal -0.805208 0.000000 0.592992
outer loop
vertex -0.018914 0.158000 0.041348
vertex -0.021224 0.158000 0.038211
vertex -0.021224 0.079000 0.038211
endloop
endfacet
facet normal -0.805208 0.000000 0.592993
outer loop
vertex -0.018914 0.158000 0.041348
vertex -0.021224 0.079000 0.038211
vertex -0.018914 0.079000 0.041348
endloop
endfacet
facet normal -0.703296 0.000000 0.710897
outer loop
vertex -0.016144 0.158000 0.044088
vertex -0.018914 0.158000 0.041348
vertex -0.018914 0.079000 0.041348
endloop
endfacet
facet normal -0.703295 0.000000 0.710898
outer loop
vertex -0.016144 0.158000 0.044088
vertex -0.018914 0.079000 0.041348
vertex -0.016144 0.079000 0.044088
endloop
endfacet
facet normal -0.584300 0.000000 0.811538
outer loop
vertex -0.014878 0.110631 0.045000
vertex -0.014878 0.158000 0.045000
vertex -0.016144 0.158000 0.044088
endloop
endfacet
facet normal -0.584297 0.000000 0.811540
outer loop
vertex -0.014878 0.110631 0.045000
vertex -0.016144 0.158000 0.044088
vertex -0.016144 0.079000 0.044088
endloop
endfacet
facet normal -0.584297 0.000000 0.811540
outer loop
vertex -0.016144 0.079000 0.044088
vertex -0.014878 0.079000 0.045000
vertex -0.014878 0.110631 0.045000
endloop
endfacet
facet normal 0.584297 0.000000 0.811540
outer loop
vertex 0.014878 0.158000 0.045000
vertex 0.014878 0.126369 0.045000
vertex 0.016144 0.158000 0.044088
endloop
endfacet
facet normal 0.584297 0.000000 0.811540
outer loop
vertex 0.016144 0.079000 0.044088
vertex 0.016144 0.158000 0.044088
vertex 0.014878 0.126369 0.045000
endloop
endfacet
facet normal 0.584300 0.000000 0.811538
outer loop
vertex 0.016144 0.079000 0.044088
vertex 0.014878 0.126369 0.045000
vertex 0.014878 0.079000 0.045000
endloop
endfacet
facet normal 0.703295 0.000000 0.710898
outer loop
vertex 0.018914 0.158000 0.041348
vertex 0.016144 0.158000 0.044088
vertex 0.016144 0.079000 0.044088
endloop
endfacet
facet normal 0.703296 0.000000 0.710897
outer loop
vertex 0.018914 0.158000 0.041348
vertex 0.016144 0.079000 0.044088
vertex 0.018914 0.079000 0.041348
endloop
endfacet
facet normal 0.805208 0.000000 0.592993
outer loop
vertex 0.021224 0.158000 0.038211
vertex 0.018914 0.158000 0.041348
vertex 0.018914 0.079000 0.041348
endloop
endfacet
facet normal 0.805208 0.000000 0.592992
outer loop
vertex 0.021224 0.158000 0.038211
vertex 0.018914 0.079000 0.041348
vertex 0.021224 0.079000 0.038211
endloop
endfacet
facet normal 0.887564 0.000000 0.460684
outer loop
vertex 0.023019 0.158000 0.034753
vertex 0.021224 0.158000 0.038211
vertex 0.021224 0.079000 0.038211
endloop
endfacet
facet normal 0.887564 0.000000 0.460685
outer loop
vertex 0.023019 0.158000 0.034753
vertex 0.021224 0.079000 0.038211
vertex 0.023019 0.079000 0.034753
endloop
endfacet
facet normal 0.948363 0.000000 0.317187
outer loop
vertex 0.024255 0.158000 0.031058
vertex 0.023019 0.158000 0.034753
vertex 0.023019 0.079000 0.034753
endloop
endfacet
facet normal 0.948363 0.000000 0.317187
outer loop
vertex 0.024255 0.158000 0.031058
vertex 0.023019 0.079000 0.034753
vertex 0.024255 0.079000 0.031058
endloop
endfacet
facet normal 0.986128 0.000000 0.165985
outer loop
vertex 0.024902 0.158000 0.027216
vertex 0.024255 0.158000 0.031058
vertex 0.024255 0.079000 0.031058
endloop
endfacet
facet normal 0.986128 0.000000 0.165985
outer loop
vertex 0.024902 0.158000 0.027216
vertex 0.024255 0.079000 0.031058
vertex 0.024902 0.079000 0.027216
endloop
endfacet
facet normal 0.999942 0.000000 0.010753
outer loop
vertex 0.024943 0.158000 0.023320
vertex 0.024902 0.158000 0.027216
vertex 0.024902 0.079000 0.027216
endloop
endfacet
facet normal 0.999942 0.000000 0.010753
outer loop
vertex 0.024943 0.158000 0.023320
vertex 0.024902 0.079000 0.027216
vertex 0.024943 0.079000 0.023320
endloop
endfacet
facet normal 0.989470 0.000000 -0.144741
outer loop
vertex 0.024380 0.158000 0.019465
vertex 0.024943 0.158000 0.023320
vertex 0.024943 0.079000 0.023320
endloop
endfacet
facet normal 0.989470 0.000000 -0.144741
outer loop
vertex 0.024380 0.158000 0.019465
vertex 0.024943 0.079000 0.023320
vertex 0.024380 0.079000 0.019465
endloop
endfacet
facet normal 0.954965 0.000000 -0.296719
outer loop
vertex 0.023223 0.158000 0.015744
vertex 0.024380 0.158000 0.019465
vertex 0.024380 0.079000 0.019465
endloop
endfacet
facet normal 0.954965 0.000000 -0.296719
outer loop
vertex 0.023223 0.158000 0.015744
vertex 0.024380 0.079000 0.019465
vertex 0.023223 0.079000 0.015744
endloop
endfacet
facet normal 0.897266 0.000000 -0.441491
outer loop
vertex 0.021503 0.158000 0.012248
vertex 0.023223 0.158000 0.015744
vertex 0.023223 0.079000 0.015744
endloop
endfacet
facet normal 0.897266 0.000000 -0.441491
outer loop
vertex 0.021503 0.158000 0.012248
vertex 0.023223 0.079000 0.015744
vertex 0.021503 0.079000 0.012248
endloop
endfacet
facet normal 0.817773 0.000000 -0.575540
outer loop
vertex 0.019261 0.158000 0.009062
vertex 0.021503 0.158000 0.012248
vertex 0.021503 0.079000 0.012248
endloop
endfacet
facet normal 0.817773 0.000000 -0.575540
outer loop
vertex 0.019261 0.158000 0.009062
vertex 0.021503 0.079000 0.012248
vertex 0.019261 0.079000 0.009062
endloop
endfacet
facet normal 0.718420 0.000000 -0.695610
outer loop
vertex 0.016551 0.158000 0.006263
vertex 0.019261 0.158000 0.009062
vertex 0.019261 0.079000 0.009062
endloop
endfacet
facet normal 0.718419 0.000000 -0.695610
outer loop
vertex 0.016551 0.158000 0.006263
vertex 0.019261 0.079000 0.009062
vertex 0.016551 0.079000 0.006263
endloop
endfacet
facet normal 0.601617 0.000000 -0.798785
outer loop
vertex 0.013439 0.158000 0.003919
vertex 0.016551 0.158000 0.006263
vertex 0.016551 0.079000 0.006263
endloop
endfacet
facet normal 0.601617 0.000000 -0.798785
outer loop
vertex 0.013439 0.158000 0.003919
vertex 0.016551 0.079000 0.006263
vertex 0.013439 0.079000 0.003919
endloop
endfacet
facet normal -1.000000 0.000000 0.000000
outer loop
vertex -0.010000 -0.237000 0.000000
vertex -0.010000 -0.237000 0.002087
vertex -0.010000 0.237000 0.000000
endloop
endfacet
facet normal -1.000000 0.000000 0.000000
outer loop
vertex -0.010000 0.237000 0.000000
vertex -0.010000 -0.237000 0.002087
vertex -0.010000 0.237000 0.002087
endloop
endfacet
facet normal 0.000000 1.000000 0.000000
outer loop
vertex -0.010000 0.237000 0.000000
vertex -0.010000 0.237000 0.002087
vertex 0.010000 0.237000 0.000000
endloop
endfacet
facet normal 0.000000 1.000000 0.000000
outer loop
vertex 0.010000 0.237000 0.000000
vertex -0.010000 0.237000 0.002087
vertex 0.010000 0.237000 0.002087
endloop
endfacet
facet normal 0.000000 1.000000 0.000000
outer loop
vertex 0.010000 0.237000 0.002087
vertex -0.010000 0.237000 0.002087
vertex 0.013347 0.237000 0.003861
endloop
endfacet
facet normal 0.000000 1.000000 0.000020
outer loop
vertex 0.013347 0.237000 0.003861
vertex -0.010000 0.237000 0.002087
vertex 0.016388 0.237000 0.006120
endloop
endfacet
facet normal 0.000000 1.000000 0.000000
outer loop
vertex 0.016388 0.237000 0.006120
vertex -0.010000 0.237000 0.002087
vertex 0.019052 0.237000 0.008813
endloop
endfacet
facet normal 0.000000 1.000000 0.000000
outer loop
vertex 0.019052 0.237000 0.008813
vertex -0.010000 0.237000 0.002087
vertex 0.021279 0.237000 0.011878
endloop
endfacet
facet normal 0.000000 1.000000 0.000000
outer loop
vertex 0.021279 0.237000 0.011878
vertex -0.010000 0.237000 0.002087
vertex 0.023018 0.237000 0.015243
endloop
endfacet
facet normal 0.000000 1.000000 -0.000018
outer loop
vertex 0.023018 0.237000 0.015243
vertex -0.010000 0.237000 0.002087
vertex 0.024227 0.237000 0.018833
endloop
endfacet
facet normal 0.000000 1.000000 0.000000
outer loop
vertex 0.024227 0.237000 0.018833
vertex -0.010000 0.237000 0.002087
vertex 0.024881 0.237000 0.022564
endloop
endfacet
facet normal 0.000000 1.000000 0.000014
outer loop
vertex 0.024881 0.237000 0.022564
vertex -0.010000 0.237000 0.002087
vertex 0.024963 0.237000 0.026352
endloop
endfacet
facet normal 0.000000 1.000000 0.000000
outer loop
vertex 0.024963 0.237000 0.026352
vertex -0.010000 0.237000 0.002087
vertex 0.024473 0.237000 0.030108
endloop
endfacet
facet normal 0.000000 1.000000 -0.000012
outer loop
vertex 0.024473 0.237000 0.030108
vertex -0.010000 0.237000 0.002087
vertex 0.023420 0.237000 0.033747
endloop
endfacet
facet normal 0.000000 1.000000 0.000000
outer loop
vertex 0.023420 0.237000 0.033747
vertex -0.010000 0.237000 0.002087
vertex 0.021830 0.237000 0.037185
endloop
endfacet
facet normal 0.000000 1.000000 0.000011
outer loop
vertex 0.021830 0.237000 0.037185
vertex -0.010000 0.237000 0.002087
vertex 0.019738 0.237000 0.040343
endloop
endfacet
facet normal 0.000000 1.000000 -0.000010
outer loop
vertex 0.019738 0.237000 0.040343
vertex -0.010000 0.237000 0.002087
vertex 0.017193 0.237000 0.043149
endloop
endfacet
facet normal 0.000000 1.000000 0.000005
outer loop
vertex 0.017193 0.237000 0.043149
vertex -0.010000 0.237000 0.002087
vertex 0.013953 0.237000 0.045000
endloop
endfacet
facet normal 0.000000 1.000000 0.000000
outer loop
vertex 0.017193 0.237000 0.043149
vertex 0.013953 0.237000 0.045000
vertex 0.014916 0.237000 0.045000
endloop
endfacet
facet normal 0.000000 1.000000 0.000000
outer loop
vertex 0.009851 0.237000 0.045000
vertex 0.013953 0.237000 0.045000
vertex -0.010000 0.237000 0.002087
endloop
endfacet
facet normal 0.000000 1.000000 -0.000006
outer loop
vertex 0.006027 0.237000 0.045000
vertex 0.009851 0.237000 0.045000
vertex -0.010000 0.237000 0.002087
endloop
endfacet
facet normal 0.000000 1.000000 0.000000
outer loop
vertex 0.006027 0.237000 0.045000
vertex -0.010000 0.237000 0.002087
vertex -0.013347 0.237000 0.003861
endloop
endfacet
facet normal 0.000000 1.000000 -0.000066
outer loop
vertex 0.006027 0.237000 0.045000
vertex -0.013347 0.237000 0.003861
vertex 0.005683 0.237000 0.045000
endloop
endfacet
facet normal 0.000000 1.000000 0.000004
outer loop
vertex 0.005683 0.237000 0.045000
vertex -0.013347 0.237000 0.003861
vertex -0.016388 0.237000 0.006120
endloop
endfacet
facet normal 0.000000 1.000000 0.000000
outer loop
vertex 0.005683 0.237000 0.045000
vertex -0.016388 0.237000 0.006120
vertex 0.005314 0.237000 0.045000
endloop
endfacet
facet normal 0.000000 1.000000 0.000003
outer loop
vertex 0.005314 0.237000 0.045000
vertex -0.016388 0.237000 0.006120
vertex -0.019052 0.237000 0.008813
endloop
endfacet
facet normal 0.000000 1.000000 0.000000
outer loop
vertex 0.005314 0.237000 0.045000
vertex -0.019052 0.237000 0.008813
vertex 0.004912 0.237000 0.045000
endloop
endfacet
facet normal 0.000000 1.000000 0.000003
outer loop
vertex 0.004912 0.237000 0.045000
vertex -0.019052 0.237000 0.008813
vertex -0.021279 0.237000 0.011878
endloop
endfacet
facet normal 0.000000 1.000000 -0.000063
outer loop
vertex 0.004912 0.237000 0.045000
vertex -0.021279 0.237000 0.011878
vertex 0.004468 0.237000 0.045000
endloop
endfacet
facet normal 0.000000 1.000000 0.000000
outer loop
vertex 0.004468 0.237000 0.045000
vertex -0.021279 0.237000 0.011878
vertex -0.023018 0.237000 0.015243
endloop
endfacet
facet normal 0.000000 1.000000 0.000063
outer loop
vertex 0.004468 0.237000 0.045000
vertex -0.023018 0.237000 0.015243
vertex 0.003968 0.237000 0.045000
endloop
endfacet
facet normal 0.000000 1.000000 -0.000002
outer loop
vertex 0.003968 0.237000 0.045000
vertex -0.023018 0.237000 0.015243
vertex -0.024227 0.237000 0.018833
endloop
endfacet
facet normal 0.000000 1.000000 0.000000
outer loop
vertex 0.003968 0.237000 0.045000
vertex -0.024227 0.237000 0.018833
vertex 0.003395 0.237000 0.045000
endloop
endfacet
facet normal 0.000000 1.000000 0.000000
outer loop
vertex 0.003395 0.237000 0.045000
vertex -0.024227 0.237000 0.018833
vertex -0.024881 0.237000 0.022564
endloop
endfacet
facet normal 0.000000 1.000000 0.000000
outer loop
vertex 0.003395 0.237000 0.045000
vertex -0.024881 0.237000 0.022564
vertex 0.002721 0.237000 0.045000
endloop
endfacet
facet normal 0.000000 1.000000 -0.000015
outer loop
vertex 0.002721 0.237000 0.045000
vertex -0.024881 0.237000 0.022564
vertex -0.024963 0.237000 0.026352
endloop
endfacet
facet normal 0.000000 1.000000 0.000061
outer loop
vertex 0.002721 0.237000 0.045000
vertex -0.024963 0.237000 0.026352
vertex 0.001908 0.237000 0.045000
endloop
endfacet
facet normal 0.000000 1.000000 0.000002
outer loop
vertex 0.001908 0.237000 0.045000
vertex -0.024963 0.237000 0.026352
vertex -0.024473 0.237000 0.030108
endloop
endfacet
facet normal 0.000000 1.000000 0.000000
outer loop
vertex 0.001908 0.237000 0.045000
vertex -0.024473 0.237000 0.030108
vertex 0.000895 0.237000 0.045000
endloop
endfacet
facet normal 0.000000 1.000000 0.000000
outer loop
vertex -0.003014 0.237000 0.045000
vertex 0.000895 0.237000 0.045000
vertex -0.024473 0.237000 0.030108
endloop
endfacet
facet normal 0.000000 1.000000 -0.000004
outer loop
vertex -0.003014 0.237000 0.045000
vertex -0.024473 0.237000 0.030108
vertex -0.023420 0.237000 0.033747
endloop
endfacet
facet normal 0.000000 1.000000 0.000067
outer loop
vertex -0.003014 0.237000 0.045000
vertex -0.023420 0.237000 0.033747
vertex -0.004251 0.237000 0.045000
endloop
endfacet
facet normal 0.000000 1.000000 -0.000011
outer loop
vertex -0.004251 0.237000 0.045000
vertex -0.023420 0.237000 0.033747
vertex -0.021830 0.237000 0.037185
endloop
endfacet
facet normal 0.000000 1.000000 0.000074
outer loop
vertex -0.004251 0.237000 0.045000
vertex -0.021830 0.237000 0.037185
vertex -0.005856 0.237000 0.045000
endloop
endfacet
facet normal 0.000000 1.000000 -0.000020
outer loop
vertex -0.005856 0.237000 0.045000
vertex -0.021830 0.237000 0.037185
vertex -0.019738 0.237000 0.040343
endloop
endfacet
facet normal 0.000000 1.000000 0.000000
outer loop
vertex -0.005856 0.237000 0.045000
vertex -0.019738 0.237000 0.040343
vertex -0.008051 0.237000 0.045000
endloop
endfacet
facet normal 0.000000 1.000000 -0.000006
outer loop
vertex -0.008051 0.237000 0.045000
vertex -0.019738 0.237000 0.040343
vertex -0.017193 0.237000 0.043149
endloop
endfacet
facet normal 0.000000 1.000000 0.000078
outer loop
vertex -0.008051 0.237000 0.045000
vertex -0.017193 0.237000 0.043149
vertex -0.011280 0.237000 0.045000
endloop
endfacet
facet normal 0.000000 1.000000 0.000000
outer loop
vertex -0.014916 0.237000 0.045000
vertex -0.011280 0.237000 0.045000
vertex -0.017193 0.237000 0.043149
endloop
endfacet
facet normal 0.000000 -1.000000 0.000000
outer loop
vertex -0.010000 -0.237000 0.000000
vertex 0.010000 -0.237000 0.000000
vertex -0.010000 -0.237000 0.002087
endloop
endfacet
facet normal 0.000000 -1.000000 0.000000
outer loop
vertex -0.010000 -0.237000 0.002087
vertex 0.010000 -0.237000 0.000000
vertex 0.010000 -0.237000 0.002087
endloop
endfacet
facet normal 0.000000 -1.000000 -0.000003
outer loop
vertex -0.010000 -0.237000 0.002087
vertex 0.010000 -0.237000 0.002087
vertex 0.013347 -0.237000 0.003861
endloop
endfacet
facet normal 0.000000 -1.000000 0.000020
outer loop
vertex 0.013347 -0.237000 0.003861
vertex 0.016388 -0.237000 0.006120
vertex -0.010000 -0.237000 0.002087
endloop
endfacet
facet normal 0.000000 -1.000000 -0.000027
outer loop
vertex -0.010000 -0.237000 0.002087
vertex 0.016388 -0.237000 0.006120
vertex 0.019052 -0.237000 0.008813
endloop
endfacet
facet normal 0.000000 -1.000000 0.000017
outer loop
vertex -0.010000 -0.237000 0.002087
vertex 0.019052 -0.237000 0.008813
vertex 0.021279 -0.237000 0.011878
endloop
endfacet
facet normal 0.000000 -1.000000 0.000000
outer loop
vertex 0.021279 -0.237000 0.011878
vertex 0.023018 -0.237000 0.015243
vertex -0.010000 -0.237000 0.002087
endloop
endfacet
facet normal 0.000000 -1.000000 -0.000012
outer loop
vertex -0.010000 -0.237000 0.002087
vertex 0.023018 -0.237000 0.015243
vertex 0.024227 -0.237000 0.018833
endloop
endfacet
facet normal 0.000000 -1.000000 -0.000000
outer loop
vertex -0.010000 -0.237000 0.002087
vertex 0.024227 -0.237000 0.018833
vertex 0.024881 -0.237000 0.022564
endloop
endfacet
facet normal 0.000000 -1.000000 0.000014
outer loop
vertex 0.024881 -0.237000 0.022564
vertex 0.024963 -0.237000 0.026352
vertex -0.010000 -0.237000 0.002087
endloop
endfacet
facet normal 0.000000 -1.000000 -0.000005
outer loop
vertex -0.010000 -0.237000 0.002087
vertex 0.024963 -0.237000 0.026352
vertex 0.024473 -0.237000 0.030108
endloop
endfacet
facet normal 0.000000 -1.000000 0.000005
outer loop
vertex -0.010000 -0.237000 0.002087
vertex 0.024473 -0.237000 0.030108
vertex 0.023420 -0.237000 0.033747
endloop
endfacet
facet normal 0.000000 -1.000000 0.000000
outer loop
vertex 0.023420 -0.237000 0.033747
vertex 0.021830 -0.237000 0.037185
vertex -0.010000 -0.237000 0.002087
endloop
endfacet
facet normal 0.000000 -1.000000 0.000005
outer loop
vertex -0.010000 -0.237000 0.002087
vertex 0.021830 -0.237000 0.037185
vertex 0.019738 -0.237000 0.040343
endloop
endfacet
facet normal 0.000000 -1.000000 -0.000007
outer loop
vertex -0.010000 -0.237000 0.002087
vertex 0.019738 -0.237000 0.040343
vertex 0.017193 -0.237000 0.043149
endloop
endfacet
facet normal 0.000000 -1.000000 0.000000
outer loop
vertex 0.013953 -0.237000 0.045000
vertex -0.010000 -0.237000 0.002087
vertex 0.017193 -0.237000 0.043149
endloop
endfacet
facet normal 0.000000 -1.000000 0.000065
outer loop
vertex 0.013953 -0.237000 0.045000
vertex 0.017193 -0.237000 0.043149
vertex 0.014916 -0.237000 0.045000
endloop
endfacet
facet normal 0.000000 -1.000000 0.000005
outer loop
vertex 0.009851 -0.237000 0.045000
vertex -0.010000 -0.237000 0.002087
vertex 0.013953 -0.237000 0.045000
endloop
endfacet
facet normal 0.000000 -1.000000 -0.000006
outer loop
vertex 0.006027 -0.237000 0.045000
vertex -0.010000 -0.237000 0.002087
vertex 0.009851 -0.237000 0.045000
endloop
endfacet
facet normal 0.000000 -1.000000 0.000000
outer loop
vertex -0.003014 -0.237000 0.045000
vertex -0.024473 -0.237000 0.030108
vertex 0.000895 -0.237000 0.045000
endloop
endfacet
facet normal 0.000000 -1.000000 0.000000
outer loop
vertex -0.024473 -0.237000 0.030108
vertex -0.024963 -0.237000 0.026352
vertex 0.001908 -0.237000 0.045000
endloop
endfacet
facet normal 0.000000 -1.000000 -0.000039
outer loop
vertex -0.024473 -0.237000 0.030108
vertex 0.001908 -0.237000 0.045000
vertex 0.000895 -0.237000 0.045000
endloop
endfacet
facet normal 0.000000 -1.000000 -0.000009
outer loop
vertex -0.024963 -0.237000 0.026352
vertex -0.024881 -0.237000 0.022564
vertex 0.002721 -0.237000 0.045000
endloop
endfacet
facet normal 0.000000 -1.000000 0.000035
outer loop
vertex -0.024963 -0.237000 0.026352
vertex 0.002721 -0.237000 0.045000
vertex 0.001908 -0.237000 0.045000
endloop
endfacet
facet normal 0.000000 -1.000000 0.000000
outer loop
vertex -0.014916 -0.237000 0.045000
vertex -0.017193 -0.237000 0.043149
vertex -0.011280 -0.237000 0.045000
endloop
endfacet
facet normal 0.000000 -1.000000 0.000000
outer loop
vertex -0.017193 -0.237000 0.043149
vertex -0.019738 -0.237000 0.040343
vertex -0.008051 -0.237000 0.045000
endloop
endfacet
facet normal 0.000000 -1.000000 -0.000039
outer loop
vertex -0.017193 -0.237000 0.043149
vertex -0.008051 -0.237000 0.045000
vertex -0.011280 -0.237000 0.045000
endloop
endfacet
facet normal 0.000000 -1.000000 -0.000014
outer loop
vertex -0.019738 -0.237000 0.040343
vertex -0.021830 -0.237000 0.037185
vertex -0.005856 -0.237000 0.045000
endloop
endfacet
facet normal 0.000000 -1.000000 0.000011
outer loop
vertex -0.019738 -0.237000 0.040343
vertex -0.005856 -0.237000 0.045000
vertex -0.008051 -0.237000 0.045000
endloop
endfacet
facet normal 0.000000 -1.000000 0.000000
outer loop
vertex -0.021830 -0.237000 0.037185
vertex -0.023420 -0.237000 0.033747
vertex -0.004251 -0.237000 0.045000
endloop
endfacet
facet normal 0.000000 -1.000000 0.000065
outer loop
vertex -0.021830 -0.237000 0.037185
vertex -0.004251 -0.237000 0.045000
vertex -0.005856 -0.237000 0.045000
endloop
endfacet
facet normal 0.000000 -1.000000 0.000000
outer loop
vertex -0.023420 -0.237000 0.033747
vertex -0.024473 -0.237000 0.030108
vertex -0.003014 -0.237000 0.045000
endloop
endfacet
facet normal 0.000000 -1.000000 0.000042
outer loop
vertex -0.023420 -0.237000 0.033747
vertex -0.003014 -0.237000 0.045000
vertex -0.004251 -0.237000 0.045000
endloop
endfacet
facet normal 0.000000 -1.000000 0.000000
outer loop
vertex -0.024881 -0.237000 0.022564
vertex -0.024227 -0.237000 0.018833
vertex 0.003395 -0.237000 0.045000
endloop
endfacet
facet normal 0.000000 -1.000000 0.000008
outer loop
vertex -0.024881 -0.237000 0.022564
vertex 0.003395 -0.237000 0.045000
vertex 0.002721 -0.237000 0.045000
endloop
endfacet
facet normal 0.000000 -1.000000 0.000007
outer loop
vertex -0.024227 -0.237000 0.018833
vertex -0.023018 -0.237000 0.015243
vertex 0.003968 -0.237000 0.045000
endloop
endfacet
facet normal 0.000000 -1.000000 -0.000035
outer loop
vertex -0.024227 -0.237000 0.018833
vertex 0.003968 -0.237000 0.045000
vertex 0.003395 -0.237000 0.045000
endloop
endfacet
facet normal 0.000000 -1.000000 0.000000
outer loop
vertex -0.023018 -0.237000 0.015243
vertex -0.021279 -0.237000 0.011878
vertex 0.004468 -0.237000 0.045000
endloop
endfacet
facet normal 0.000000 -1.000000 0.000016
outer loop
vertex -0.023018 -0.237000 0.015243
vertex 0.004468 -0.237000 0.045000
vertex 0.003968 -0.237000 0.045000
endloop
endfacet
facet normal 0.000000 -1.000000 -0.000006
outer loop
vertex -0.021279 -0.237000 0.011878
vertex -0.019052 -0.237000 0.008813
vertex 0.004912 -0.237000 0.045000
endloop
endfacet
facet normal 0.000000 -1.000000 0.000016
outer loop
vertex -0.021279 -0.237000 0.011878
vertex 0.004912 -0.237000 0.045000
vertex 0.004468 -0.237000 0.045000
endloop
endfacet
facet normal 0.000000 -1.000000 0.000006
outer loop
vertex -0.019052 -0.237000 0.008813
vertex -0.016388 -0.237000 0.006120
vertex 0.005314 -0.237000 0.045000
endloop
endfacet
facet normal 0.000000 -1.000000 -0.000029
outer loop
vertex -0.019052 -0.237000 0.008813
vertex 0.005314 -0.237000 0.045000
vertex 0.004912 -0.237000 0.045000
endloop
endfacet
facet normal 0.000000 -1.000000 0.000006
outer loop
vertex -0.016388 -0.237000 0.006120
vertex -0.013347 -0.237000 0.003861
vertex 0.005683 -0.237000 0.045000
endloop
endfacet
facet normal 0.000000 -1.000000 -0.000025
outer loop
vertex -0.016388 -0.237000 0.006120
vertex 0.005683 -0.237000 0.045000
vertex 0.005314 -0.237000 0.045000
endloop
endfacet
facet normal 0.000000 -1.000000 0.000000
outer loop
vertex -0.013347 -0.237000 0.003861
vertex -0.010000 -0.237000 0.002087
vertex 0.006027 -0.237000 0.045000
endloop
endfacet
facet normal 0.000000 -1.000000 -0.000045
outer loop
vertex -0.013347 -0.237000 0.003861
vertex 0.006027 -0.237000 0.045000
vertex 0.005683 -0.237000 0.045000
endloop
endfacet
facet normal 0.000000 0.000000 1.000000
outer loop
vertex 0.013953 -0.237000 0.045000
vertex 0.014916 -0.237000 0.045000
vertex 0.014956 -0.207658 0.045000
endloop
endfacet
facet normal 0.000000 0.000000 0.000000
outer loop
vertex 0.014878 -0.158000 0.045000
vertex 0.014878 -0.110631 0.045000
vertex 0.014878 -0.079000 0.045000
endloop
endfacet
facet normal 0.000000 0.000000 1.000000
outer loop
vertex 0.013953 -0.237000 0.045000
vertex 0.014956 -0.207658 0.045000
vertex 0.014878 -0.158000 0.045000
endloop
endfacet
facet normal 0.000000 0.000000 1.000000
outer loop
vertex 0.005683 -0.237000 0.045000
vertex 0.006027 -0.237000 0.045000
vertex 0.009851 -0.237000 0.045000
endloop
endfacet
facet normal 0.000000 0.000000 1.000000
outer loop
vertex 0.009851 -0.237000 0.045000
vertex 0.013953 -0.237000 0.045000
vertex 0.014878 -0.158000 0.045000
endloop
endfacet
facet normal 0.000000 0.000000 0.000000
outer loop
vertex 0.014878 -0.079000 0.045000
vertex 0.014878 -0.031631 0.045000
vertex 0.014878 0.000000 0.045000
endloop
endfacet
facet normal 0.000001 0.000000 1.000000
outer loop
vertex 0.009851 -0.237000 0.045000
vertex 0.014878 -0.158000 0.045000
vertex 0.014878 -0.079000 0.045000
endloop
endfacet
facet normal 0.000000 0.000000 0.000000
outer loop
vertex 0.004912 -0.237000 0.045000
vertex 0.005314 -0.237000 0.045000
vertex 0.005683 -0.237000 0.045000
endloop
endfacet
facet normal 0.000000 0.000000 1.000000
outer loop
vertex 0.005683 -0.237000 0.045000
vertex 0.009851 -0.237000 0.045000
vertex 0.014878 -0.079000 0.045000
endloop
endfacet
facet normal 0.000000 0.000000 0.000000
outer loop
vertex 0.014878 0.000000 0.045000
vertex 0.014878 0.047369 0.045000
vertex 0.014878 0.079000 0.045000
endloop
endfacet
facet normal 0.000000 0.000000 1.000000
outer loop
vertex 0.005683 -0.237000 0.045000
vertex 0.014878 -0.079000 0.045000
vertex 0.014878 0.000000 0.045000
endloop
endfacet
facet normal 0.000000 0.000000 0.000000
outer loop
vertex 0.003968 -0.237000 0.045000
vertex 0.004468 -0.237000 0.045000
vertex 0.004912 -0.237000 0.045000
endloop
endfacet
facet normal 0.000000 0.000000 1.000000
outer loop
vertex 0.004912 -0.237000 0.045000
vertex 0.005683 -0.237000 0.045000
vertex 0.014878 0.000000 0.045000
endloop
endfacet
facet normal 0.000000 0.000000 0.000000
outer loop
vertex 0.014878 0.079000 0.045000
vertex 0.014878 0.126369 0.045000
vertex 0.014878 0.158000 0.045000
endloop
endfacet
facet normal -0.000001 0.000000 1.000000
outer loop
vertex 0.004912 -0.237000 0.045000
vertex 0.014878 0.000000 0.045000
vertex 0.014878 0.079000 0.045000
endloop
endfacet
facet normal 0.000000 0.000000 0.000000
outer loop
vertex 0.002721 -0.237000 0.045000
vertex 0.003395 -0.237000 0.045000
vertex 0.003968 -0.237000 0.045000
endloop
endfacet
facet normal 0.000000 0.000000 1.000000
outer loop
vertex 0.003968 -0.237000 0.045000
vertex 0.004912 -0.237000 0.045000
vertex 0.014878 0.079000 0.045000
endloop
endfacet
facet normal -0.000055 0.000000 1.000000
outer loop
vertex 0.014878 0.158000 0.045000
vertex 0.014956 0.207658 0.045000
vertex 0.014916 0.237000 0.045000
endloop
endfacet
facet normal 0.000003 0.000000 1.000000
outer loop
vertex 0.003968 -0.237000 0.045000
vertex 0.014878 0.079000 0.045000
vertex 0.014878 0.158000 0.045000
endloop
endfacet
facet normal 0.000000 0.000000 0.000000
outer loop
vertex 0.000895 -0.237000 0.045000
vertex 0.001908 -0.237000 0.045000
vertex 0.002721 -0.237000 0.045000
endloop
endfacet
facet normal 0.000000 0.000000 1.000000
outer loop
vertex 0.002721 -0.237000 0.045000
vertex 0.003968 -0.237000 0.045000
vertex 0.014878 0.158000 0.045000
endloop
endfacet
facet normal 0.000000 0.000000 1.000000
outer loop
vertex 0.014878 0.158000 0.045000
vertex 0.014916 0.237000 0.045000
vertex 0.013953 0.237000 0.045000
endloop
endfacet
facet normal 0.000000 0.000000 1.000000
outer loop
vertex 0.009851 0.237000 0.045000
vertex 0.006027 0.237000 0.045000
vertex 0.005683 0.237000 0.045000
endloop
endfacet
facet normal 0.000000 0.000000 1.000000
outer loop
vertex 0.014878 0.158000 0.045000
vertex 0.013953 0.237000 0.045000
vertex 0.009851 0.237000 0.045000
endloop
endfacet
facet normal 0.000000 0.000000 1.000000
outer loop
vertex 0.000895 -0.237000 0.045000
vertex 0.002721 -0.237000 0.045000
vertex 0.014878 0.158000 0.045000
endloop
endfacet
facet normal 0.000000 0.000000 0.000000
outer loop
vertex -0.005856 -0.237000 0.045000
vertex -0.004251 -0.237000 0.045000
vertex -0.003014 -0.237000 0.045000
endloop
endfacet
facet normal 0.000000 0.000000 1.000000
outer loop
vertex -0.003014 -0.237000 0.045000
vertex 0.000895 -0.237000 0.045000
vertex 0.014878 0.158000 0.045000
endloop
endfacet
facet normal 0.000000 0.000000 1.000000
outer loop
vertex 0.014878 0.158000 0.045000
vertex 0.009851 0.237000 0.045000
vertex 0.005683 0.237000 0.045000
endloop
endfacet
facet normal 0.000000 0.000000 0.000000
outer loop
vertex 0.005314 0.237000 0.045000
vertex 0.004912 0.237000 0.045000
vertex 0.004468 0.237000 0.045000
endloop
endfacet
facet normal 0.000000 0.000000 1.000000
outer loop
vertex 0.014878 0.158000 0.045000
vertex 0.005683 0.237000 0.045000
vertex 0.005314 0.237000 0.045000
endloop
endfacet
facet normal 0.000000 0.000000 1.000000
outer loop
vertex -0.005856 -0.237000 0.045000
vertex -0.003014 -0.237000 0.045000
vertex 0.014878 0.158000 0.045000
endloop
endfacet
facet normal 0.000000 0.000000 1.000000
outer loop
vertex -0.014916 -0.237000 0.045000
vertex -0.011280 -0.237000 0.045000
vertex -0.008051 -0.237000 0.045000
endloop
endfacet
facet normal 0.000000 0.000000 1.000000
outer loop
vertex -0.008051 -0.237000 0.045000
vertex -0.005856 -0.237000 0.045000
vertex 0.014878 0.158000 0.045000
endloop
endfacet
facet normal 0.000000 0.000000 1.000000
outer loop
vertex 0.014878 0.158000 0.045000
vertex 0.005314 0.237000 0.045000
vertex 0.004468 0.237000 0.045000
endloop
endfacet
facet normal 0.000000 0.000000 1.000000
outer loop
vertex 0.003968 0.237000 0.045000
vertex 0.003395 0.237000 0.045000
vertex 0.002721 0.237000 0.045000
endloop
endfacet
facet normal 0.000000 0.000000 1.000000
outer loop
vertex 0.014878 0.158000 0.045000
vertex 0.004468 0.237000 0.045000
vertex 0.003968 0.237000 0.045000
endloop
endfacet
facet normal 0.000000 0.000000 1.000000
outer loop
vertex -0.014916 -0.237000 0.045000
vertex -0.008051 -0.237000 0.045000
vertex 0.014878 0.158000 0.045000
endloop
endfacet
facet normal 0.000055 0.000000 1.000000
outer loop
vertex -0.014878 -0.158000 0.045000
vertex -0.014956 -0.207658 0.045000
vertex -0.014916 -0.237000 0.045000
endloop
endfacet
facet normal 0.000000 0.000000 0.000000
outer loop
vertex -0.014878 -0.047369 0.045000
vertex -0.014878 -0.079000 0.045000
vertex -0.014878 -0.126369 0.045000
endloop
endfacet
facet normal -0.000002 0.000000 1.000000
outer loop
vertex -0.014878 -0.158000 0.045000
vertex -0.014916 -0.237000 0.045000
vertex 0.014878 0.158000 0.045000
endloop
endfacet
facet normal 0.000000 0.000000 0.000000
outer loop
vertex -0.014878 0.000000 0.045000
vertex -0.014878 -0.047369 0.045000
vertex -0.014878 -0.126369 0.045000
endloop
endfacet
facet normal 0.000000 0.000000 1.000000
outer loop
vertex -0.014878 -0.126369 0.045000
vertex -0.014878 -0.158000 0.045000
vertex 0.014878 0.158000 0.045000
endloop
endfacet
facet normal 0.000000 0.000000 1.000000
outer loop
vertex 0.014878 0.158000 0.045000
vertex 0.003968 0.237000 0.045000
vertex 0.002721 0.237000 0.045000
endloop
endfacet
facet normal 0.000000 0.000000 1.000000
outer loop
vertex 0.001908 0.237000 0.045000
vertex 0.000895 0.237000 0.045000
vertex -0.003014 0.237000 0.045000
endloop
endfacet
facet normal 0.000000 0.000000 1.000000
outer loop
vertex 0.014878 0.158000 0.045000
vertex 0.002721 0.237000 0.045000
vertex 0.001908 0.237000 0.045000
endloop
endfacet
facet normal 0.000000 0.000000 1.000000
outer loop
vertex -0.014878 0.000000 0.045000
vertex -0.014878 -0.126369 0.045000
vertex 0.014878 0.158000 0.045000
endloop
endfacet
facet normal 0.000000 0.000000 0.000000
outer loop
vertex -0.014878 0.110631 0.045000
vertex -0.014878 0.079000 0.045000
vertex -0.014878 0.031631 0.045000
endloop
endfacet
facet normal 0.000000 0.000000 1.000000
outer loop
vertex -0.014878 0.031631 0.045000
vertex -0.014878 0.000000 0.045000
vertex 0.014878 0.158000 0.045000
endloop
endfacet
facet normal 0.000000 0.000000 1.000000
outer loop
vertex 0.014878 0.158000 0.045000
vertex 0.001908 0.237000 0.045000
vertex -0.003014 0.237000 0.045000
endloop
endfacet
facet normal 0.000000 0.000000 1.000000
outer loop
vertex -0.004251 0.237000 0.045000
vertex -0.005856 0.237000 0.045000
vertex -0.008051 0.237000 0.045000
endloop
endfacet
facet normal 0.000000 0.000000 1.000000
outer loop
vertex 0.014878 0.158000 0.045000
vertex -0.003014 0.237000 0.045000
vertex -0.004251 0.237000 0.045000
endloop
endfacet
facet normal 0.000000 0.000000 1.000000
outer loop
vertex -0.014878 0.110631 0.045000
vertex -0.014878 0.031631 0.045000
vertex 0.014878 0.158000 0.045000
endloop
endfacet
facet normal 0.000000 0.000000 1.000000
outer loop
vertex -0.014916 0.237000 0.045000
vertex -0.014956 0.207658 0.045000
vertex -0.014878 0.158000 0.045000
endloop
endfacet
facet normal 0.000000 0.000000 1.000000
outer loop
vertex -0.014878 0.158000 0.045000
vertex -0.014878 0.110631 0.045000
vertex 0.014878 0.158000 0.045000
endloop
endfacet
facet normal 0.000000 0.000000 1.000000
outer loop
vertex 0.014878 0.158000 0.045000
vertex -0.004251 0.237000 0.045000
vertex -0.008051 0.237000 0.045000
endloop
endfacet
facet normal 0.000000 0.000000 1.000000
outer loop
vertex -0.011280 0.237000 0.045000
vertex -0.014916 0.237000 0.045000
vertex -0.014878 0.158000 0.045000
endloop
endfacet
facet normal 0.000000 0.000000 1.000000
outer loop
vertex 0.014878 0.158000 0.045000
vertex -0.008051 0.237000 0.045000
vertex -0.011280 0.237000 0.045000
endloop
endfacet
facet normal 0.000000 0.000000 1.000000
outer loop
vertex 0.014878 0.158000 0.045000
vertex -0.011280 0.237000 0.045000
vertex -0.014878 0.158000 0.045000
endloop
endfacet
solid cylinder
