solid cylinder
facet normal -0.707107 -0.707107 0.000000
outer loop
vertex 0.149907 -0.185262 0.000000
vertex 0.149907 -0.185262 0.050000
vertex -0.185262 0.149907 0.050000
endloop
endfacet
facet normal -0.707107 -0.707107 0.000000
outer loop
vertex 0.149907 -0.185262 0.000000
vertex -0.185262 0.149907 0.050000
vertex -0.185262 0.149907 0.000000
endloop
endfacet
facet normal -0.707107 0.707107 0.000000
outer loop
vertex -0.185262 0.149907 0.000000
vertex -0.185262 0.149907 0.050000
vertex -0.149907 0.185262 0.050000
endloop
endfacet
facet normal -0.707107 0.707107 0.000000
outer loop
vertex -0.185262 0.149907 0.000000
vertex -0.149907 0.185262 0.050000
vertex -0.149907 0.185262 0.000000
endloop
endfacet
facet normal 0.707107 0.707107 0.000000
outer loop
vertex -0.149907 0.185262 0.000000
vertex -0.149907 0.185262 0.050000
vertex 0.185262 -0.149907 0.050000
endloop
endfacet
facet normal 0.707107 0.707107 0.000000
outer loop
vertex -0.149907 0.185262 0.000000
vertex 0.185262 -0.149907 0.050000
vertex 0.185262 -0.149907 0.000000
endloop
endfacet
facet normal 0.707107 -0.707107 0.000000
outer loop
vertex 0.185262 -0.149907 0.000000
vertex 0.185262 -0.149907 0.050000
vertex 0.149907 -0.185262 0.050000
endloop
endfacet
facet normal 0.707107 -0.707107 0.000000
outer loop
vertex 0.185262 -0.149907 0.000000
vertex 0.149907 -0.185262 0.050000
vertex 0.149907 -0.185262 0.000000
endloop
endfacet
facet normal 0.000000 0.000000 -1.000000
outer loop
vertex -0.185262 0.149907 0.000000
vertex -0.149907 0.185262 0.000000
vertex 0.185262 -0.149907 0.000000
endloop
endfacet
facet normal 0.000000 0.000000 -1.000000
outer loop
vertex -0.185262 0.149907 0.000000
vertex 0.185262 -0.149907 0.000000
vertex 0.149907 -0.185262 0.000000
endloop
endfacet
facet normal 0.000000 0.000000 1.000000
outer loop
vertex -0.149907 0.185262 0.050000
vertex -0.185262 0.149907 0.050000
vertex 0.149907 -0.185262 0.050000
endloop
endfacet
facet normal -0.000000 0.000000 1.000000
outer loop
vertex -0.149907 0.185262 0.050000
vertex 0.149907 -0.185262 0.050000
vertex 0.185262 -0.149907 0.050000
endloop
endfacet
endsolid cylinder
