solid obstacle
facet normal 0.000000 0.000000 -1.000000
outer loop
vertex 0.010000 -0.158000 0.000000
vertex -0.010000 -0.158000 0.000000
vertex 0.010000 0.158000 0.000000
endloop
endfacet
facet normal 0.000000 0.000000 -1.000000
outer loop
vertex 0.010000 0.158000 0.000000
vertex -0.010000 -0.158000 0.000000
vertex -0.010000 0.158000 0.000000
endloop
endfacet
facet normal 1.000000 0.000000 0.000000
outer loop
vertex 0.010000 -0.158000 0.002087
vertex 0.010000 -0.158000 0.000000
vertex 0.010000 0.158000 0.002087
endloop
endfacet
facet normal 1.000000 0.000000 0.000000
outer loop
vertex 0.010000 0.158000 0.002087
vertex 0.010000 -0.158000 0.000000
vertex 0.010000 0.158000 0.000000
endloop
endfacet
facet normal -0.457345 0.000000 -0.889290
outer loop
vertex -0.012821 -0.158000 0.003538
vertex -0.012821 -0.094800 0.003538
vertex -0.010000 -0.158000 0.002087
endloop
endfacet
facet normal -0.457344 0.000000 -0.889290
outer loop
vertex -0.010000 -0.158000 0.002087
vertex -0.012821 -0.094800 0.003538
vertex -0.012821 -0.031600 0.003538
endloop
endfacet
facet normal -0.457344 0.000000 -0.889290
outer loop
vertex -0.010000 -0.158000 0.002087
vertex -0.012821 -0.031600 0.003538
vertex -0.012821 0.031600 0.003538
endloop
endfacet
facet normal -0.566282 0.000000 -0.824212
outer loop
vertex -0.012821 0.031600 0.003538
vertex -0.012821 -0.031600 0.003538
vertex -0.015436 0.031600 0.005334
endloop
endfacet
facet normal -0.566282 0.000000 -0.824212
outer loop
vertex -0.012821 0.031600 0.003538
vertex -0.015436 0.031600 0.005334
vertex -0.015436 0.094800 0.005334
endloop
endfacet
facet normal -0.666100 0.000000 -0.745863
outer loop
vertex -0.015436 0.094800 0.005334
vertex -0.015436 0.031600 0.005334
vertex -0.017802 0.094800 0.007448
endloop
endfacet
facet normal -0.666100 0.000000 -0.745863
outer loop
vertex -0.015436 0.094800 0.005334
vertex -0.017802 0.094800 0.007448
vertex -0.017802 0.158000 0.007448
endloop
endfacet
facet normal -0.755192 0.000000 -0.655503
outer loop
vertex -0.017802 0.158000 0.007448
vertex -0.017802 0.094800 0.007448
vertex -0.019882 0.158000 0.009843
endloop
endfacet
facet normal -0.755193 0.000000 -0.655503
outer loop
vertex -0.019882 0.158000 0.009843
vertex -0.017802 0.094800 0.007448
vertex -0.019882 0.094800 0.009843
endloop
endfacet
facet normal -0.832125 0.000000 -0.554588
outer loop
vertex -0.019882 0.158000 0.009843
vertex -0.019882 0.094800 0.009843
vertex -0.021641 0.158000 0.012483
endloop
endfacet
facet normal -0.832125 0.000000 -0.554588
outer loop
vertex -0.021641 0.158000 0.012483
vertex -0.019882 0.094800 0.009843
vertex -0.021641 0.094800 0.012483
endloop
endfacet
facet normal -0.895658 0.000000 -0.444744
outer loop
vertex -0.021641 0.158000 0.012483
vertex -0.021641 0.094800 0.012483
vertex -0.023052 0.158000 0.015324
endloop
endfacet
facet normal -0.895658 0.000000 -0.444744
outer loop
vertex -0.023052 0.158000 0.015324
vertex -0.021641 0.094800 0.012483
vertex -0.023052 0.094800 0.015324
endloop
endfacet
facet normal -0.944769 0.000000 -0.327738
outer loop
vertex -0.023052 0.158000 0.015324
vertex -0.023052 0.094800 0.015324
vertex -0.024091 0.158000 0.018322
endloop
endfacet
facet normal -0.944769 0.000000 -0.327737
outer loop
vertex -0.024091 0.158000 0.018322
vertex -0.023052 0.094800 0.015324
vertex -0.024091 0.094800 0.018322
endloop
endfacet
facet normal -0.978667 0.000000 -0.205454
outer loop
vertex -0.024091 0.158000 0.018322
vertex -0.024091 0.094800 0.018322
vertex -0.024743 0.158000 0.021426
endloop
endfacet
facet normal -0.978667 0.000000 -0.205454
outer loop
vertex -0.024743 0.158000 0.021426
vertex -0.024091 0.094800 0.018322
vertex -0.024743 0.094800 0.021426
endloop
endfacet
facet normal -0.996806 0.000000 -0.079862
outer loop
vertex -0.024743 0.158000 0.021426
vertex -0.024743 0.094800 0.021426
vertex -0.024997 0.158000 0.024589
endloop
endfacet
facet normal -0.996806 0.000000 -0.079862
outer loop
vertex -0.024997 0.158000 0.024589
vertex -0.024743 0.094800 0.021426
vertex -0.024997 0.094800 0.024589
endloop
endfacet
facet normal -0.998894 0.000000 0.047016
outer loop
vertex -0.024997 0.158000 0.024589
vertex -0.024997 0.094800 0.024589
vertex -0.024847 0.158000 0.027757
endloop
endfacet
facet normal -0.998894 0.000000 0.047016
outer loop
vertex -0.024847 0.158000 0.027757
vertex -0.024997 0.094800 0.024589
vertex -0.024847 0.094800 0.027757
endloop
endfacet
facet normal -0.984898 0.000000 0.173136
outer loop
vertex -0.024847 0.158000 0.027757
vertex -0.024847 0.094800 0.027757
vertex -0.024298 0.158000 0.030882
endloop
endfacet
facet normal -0.984898 0.000000 0.173136
outer loop
vertex -0.024298 0.158000 0.030882
vertex -0.024847 0.094800 0.027757
vertex -0.024298 0.094800 0.030882
endloop
endfacet
facet normal -0.955042 0.000000 0.296470
outer loop
vertex -0.024298 0.158000 0.030882
vertex -0.024298 0.094800 0.030882
vertex -0.023358 0.158000 0.033912
endloop
endfacet
facet normal -0.955042 0.000000 0.296470
outer loop
vertex -0.023358 0.158000 0.033912
vertex -0.024298 0.094800 0.030882
vertex -0.023358 0.094800 0.033912
endloop
endfacet
facet normal -0.909808 0.000000 0.415028
outer loop
vertex -0.023358 0.158000 0.033912
vertex -0.023358 0.094800 0.033912
vertex -0.022041 0.158000 0.036798
endloop
endfacet
facet normal -0.909809 0.000000 0.415028
outer loop
vertex -0.022041 0.158000 0.036798
vertex -0.023358 0.094800 0.033912
vertex -0.022041 0.094800 0.036798
endloop
endfacet
facet normal -0.849925 0.000000 0.526903
outer loop
vertex -0.022041 0.158000 0.036798
vertex -0.022041 0.094800 0.036798
vertex -0.020370 0.158000 0.039494
endloop
endfacet
facet normal -0.849925 0.000000 0.526904
outer loop
vertex -0.020370 0.158000 0.039494
vertex -0.022041 0.094800 0.036798
vertex -0.020370 0.094800 0.039494
endloop
endfacet
facet normal -0.776354 0.000000 0.630297
outer loop
vertex -0.020370 0.158000 0.039494
vertex -0.020370 0.094800 0.039494
vertex -0.018370 0.158000 0.041957
endloop
endfacet
facet normal -0.776354 0.000000 0.630297
outer loop
vertex -0.018370 0.158000 0.041957
vertex -0.020370 0.094800 0.039494
vertex -0.018370 0.094800 0.041957
endloop
endfacet
facet normal -0.690285 0.000000 0.723537
outer loop
vertex -0.018370 0.158000 0.041957
vertex -0.018370 0.094800 0.041957
vertex -0.016075 0.158000 0.044147
endloop
endfacet
facet normal -0.690285 0.000000 0.723537
outer loop
vertex -0.016075 0.158000 0.044147
vertex -0.018370 0.094800 0.041957
vertex -0.016075 0.094800 0.044147
endloop
endfacet
facet normal -0.593098 0.000000 0.805130
outer loop
vertex -0.016075 0.158000 0.044147
vertex -0.016075 0.094800 0.044147
vertex -0.013520 0.158000 0.046028
endloop
endfacet
facet normal -0.593096 0.000000 0.805131
outer loop
vertex -0.013520 0.158000 0.046028
vertex -0.016075 0.094800 0.044147
vertex -0.013520 0.094800 0.046028
endloop
endfacet
facet normal -0.486362 0.000000 0.873757
outer loop
vertex -0.013520 0.158000 0.046028
vertex -0.013520 0.094800 0.046028
vertex -0.010749 0.158000 0.047571
endloop
endfacet
facet normal -0.486362 0.000000 0.873757
outer loop
vertex -0.010749 0.158000 0.047571
vertex -0.013520 0.094800 0.046028
vertex -0.010749 0.094800 0.047571
endloop
endfacet
facet normal -0.371794 0.000000 0.928315
outer loop
vertex -0.010749 0.158000 0.047571
vertex -0.010749 0.094800 0.047571
vertex -0.007804 0.158000 0.048751
endloop
endfacet
facet normal -0.371794 0.000000 0.928315
outer loop
vertex -0.007804 0.158000 0.048751
vertex -0.010749 0.094800 0.047571
vertex -0.007804 0.094800 0.048751
endloop
endfacet
facet normal -0.251239 0.000000 0.967925
outer loop
vertex -0.007804 0.158000 0.048751
vertex -0.007804 0.094800 0.048751
vertex -0.004733 0.158000 0.049548
endloop
endfacet
facet normal -0.251237 0.000000 0.967926
outer loop
vertex -0.004733 0.158000 0.049548
vertex -0.007804 0.094800 0.048751
vertex -0.004733 0.094800 0.049548
endloop
endfacet
facet normal -0.126640 0.000000 0.991949
outer loop
vertex -0.004733 0.158000 0.049548
vertex -0.004733 0.094800 0.049548
vertex -0.001586 0.158000 0.049950
endloop
endfacet
facet normal -0.126640 0.000000 0.991949
outer loop
vertex -0.001586 0.158000 0.049950
vertex -0.004733 0.094800 0.049548
vertex -0.001586 0.094800 0.049950
endloop
endfacet
facet normal 0.000000 0.000000 1.000000
outer loop
vertex -0.001586 0.158000 0.049950
vertex -0.001586 0.094800 0.049950
vertex 0.001586 0.158000 0.049950
endloop
endfacet
facet normal 0.000000 0.000000 1.000000
outer loop
vertex 0.001586 0.158000 0.049950
vertex -0.001586 0.094800 0.049950
vertex 0.001586 0.094800 0.049950
endloop
endfacet
facet normal 0.126640 0.000000 0.991949
outer loop
vertex 0.001586 0.158000 0.049950
vertex 0.001586 0.094800 0.049950
vertex 0.004733 0.158000 0.049548
endloop
endfacet
facet normal 0.126640 0.000000 0.991949
outer loop
vertex 0.004733 0.158000 0.049548
vertex 0.001586 0.094800 0.049950
vertex 0.004733 0.094800 0.049548
endloop
endfacet
facet normal 0.251237 0.000000 0.967926
outer loop
vertex 0.004733 0.158000 0.049548
vertex 0.004733 0.094800 0.049548
vertex 0.007804 0.158000 0.048751
endloop
endfacet
facet normal 0.251239 0.000000 0.967925
outer loop
vertex 0.007804 0.158000 0.048751
vertex 0.004733 0.094800 0.049548
vertex 0.007804 0.094800 0.048751
endloop
endfacet
facet normal 0.371794 0.000000 0.928315
outer loop
vertex 0.007804 0.158000 0.048751
vertex 0.007804 0.094800 0.048751
vertex 0.010749 0.158000 0.047571
endloop
endfacet
facet normal 0.371794 0.000000 0.928315
outer loop
vertex 0.010749 0.158000 0.047571
vertex 0.007804 0.094800 0.048751
vertex 0.010749 0.094800 0.047571
endloop
endfacet
facet normal 0.486362 0.000000 0.873757
outer loop
vertex 0.010749 0.158000 0.047571
vertex 0.010749 0.094800 0.047571
vertex 0.013520 0.158000 0.046028
endloop
endfacet
facet normal 0.486362 0.000000 0.873757
outer loop
vertex 0.013520 0.158000 0.046028
vertex 0.010749 0.094800 0.047571
vertex 0.013520 0.094800 0.046028
endloop
endfacet
facet normal 0.593097 0.000000 0.805131
outer loop
vertex 0.013520 0.158000 0.046028
vertex 0.013520 0.094800 0.046028
vertex 0.016075 0.158000 0.044147
endloop
endfacet
facet normal 0.593098 0.000000 0.805130
outer loop
vertex 0.016075 0.158000 0.044147
vertex 0.013520 0.094800 0.046028
vertex 0.016075 0.094800 0.044147
endloop
endfacet
facet normal 0.690285 0.000000 0.723538
outer loop
vertex 0.016075 0.158000 0.044147
vertex 0.016075 0.094800 0.044147
vertex 0.018370 0.158000 0.041957
endloop
endfacet
facet normal 0.690285 0.000000 0.723538
outer loop
vertex 0.018370 0.158000 0.041957
vertex 0.016075 0.094800 0.044147
vertex 0.018370 0.094800 0.041957
endloop
endfacet
facet normal 0.776354 0.000000 0.630297
outer loop
vertex 0.018370 0.158000 0.041957
vertex 0.018370 0.094800 0.041957
vertex 0.020370 0.158000 0.039494
endloop
endfacet
facet normal 0.776354 0.000000 0.630297
outer loop
vertex 0.020370 0.158000 0.039494
vertex 0.018370 0.094800 0.041957
vertex 0.020370 0.094800 0.039494
endloop
endfacet
facet normal 0.849925 0.000000 0.526904
outer loop
vertex 0.020370 0.158000 0.039494
vertex 0.020370 0.094800 0.039494
vertex 0.022041 0.158000 0.036798
endloop
endfacet
facet normal 0.849925 0.000000 0.526903
outer loop
vertex 0.022041 0.158000 0.036798
vertex 0.020370 0.094800 0.039494
vertex 0.022041 0.094800 0.036798
endloop
endfacet
facet normal 0.909809 0.000000 0.415028
outer loop
vertex 0.022041 0.158000 0.036798
vertex 0.022041 0.094800 0.036798
vertex 0.023358 0.158000 0.033912
endloop
endfacet
facet normal 0.909808 0.000000 0.415028
outer loop
vertex 0.023358 0.158000 0.033912
vertex 0.022041 0.094800 0.036798
vertex 0.023358 0.094800 0.033912
endloop
endfacet
facet normal 0.955042 0.000000 0.296470
outer loop
vertex 0.023358 0.158000 0.033912
vertex 0.023358 0.094800 0.033912
vertex 0.024298 0.158000 0.030882
endloop
endfacet
facet normal 0.955042 0.000000 0.296469
outer loop
vertex 0.024298 0.158000 0.030882
vertex 0.023358 0.094800 0.033912
vertex 0.024298 0.094800 0.030882
endloop
endfacet
facet normal 0.984898 0.000000 0.173136
outer loop
vertex 0.024298 0.158000 0.030882
vertex 0.024298 0.094800 0.030882
vertex 0.024847 0.158000 0.027757
endloop
endfacet
facet normal 0.984898 0.000000 0.173136
outer loop
vertex 0.024847 0.158000 0.027757
vertex 0.024298 0.094800 0.030882
vertex 0.024847 0.094800 0.027757
endloop
endfacet
facet normal 0.998894 0.000000 0.047016
outer loop
vertex 0.024847 0.158000 0.027757
vertex 0.024847 0.094800 0.027757
vertex 0.024997 0.158000 0.024589
endloop
endfacet
facet normal 0.998894 0.000000 0.047016
outer loop
vertex 0.024997 0.158000 0.024589
vertex 0.024847 0.094800 0.027757
vertex 0.024997 0.094800 0.024589
endloop
endfacet
facet normal 0.996806 0.000000 -0.079862
outer loop
vertex 0.024997 0.158000 0.024589
vertex 0.024997 0.094800 0.024589
vertex 0.024743 0.158000 0.021426
endloop
endfacet
facet normal 0.996806 0.000000 -0.079862
outer loop
vertex 0.024743 0.158000 0.021426
vertex 0.024997 0.094800 0.024589
vertex 0.024743 0.094800 0.021426
endloop
endfacet
facet normal 0.978667 0.000000 -0.205454
outer loop
vertex 0.024743 0.158000 0.021426
vertex 0.024743 0.094800 0.021426
vertex 0.024091 0.158000 0.018322
endloop
endfacet
facet normal 0.978667 0.000000 -0.205454
outer loop
vertex 0.024091 0.158000 0.018322
vertex 0.024743 0.094800 0.021426
vertex 0.024091 0.094800 0.018322
endloop
endfacet
facet normal 0.944769 0.000000 -0.327738
outer loop
vertex 0.024091 0.158000 0.018322
vertex 0.024091 0.094800 0.018322
vertex 0.023052 0.158000 0.015324
endloop
endfacet
facet normal 0.944769 0.000000 -0.327738
outer loop
vertex 0.023052 0.158000 0.015324
vertex 0.024091 0.094800 0.018322
vertex 0.023052 0.094800 0.015324
endloop
endfacet
facet normal 0.895658 0.000000 -0.444744
outer loop
vertex 0.023052 0.158000 0.015324
vertex 0.023052 0.094800 0.015324
vertex 0.021641 0.158000 0.012483
endloop
endfacet
facet normal 0.895658 0.000000 -0.444744
outer loop
vertex 0.021641 0.158000 0.012483
vertex 0.023052 0.094800 0.015324
vertex 0.021641 0.094800 0.012483
endloop
endfacet
facet normal 0.832125 0.000000 -0.554588
outer loop
vertex 0.021641 0.158000 0.012483
vertex 0.021641 0.094800 0.012483
vertex 0.019882 0.158000 0.009843
endloop
endfacet
facet normal 0.832125 0.000000 -0.554588
outer loop
vertex 0.019882 0.158000 0.009843
vertex 0.021641 0.094800 0.012483
vertex 0.019882 0.094800 0.009843
endloop
endfacet
facet normal 0.755192 0.000000 -0.655503
outer loop
vertex 0.019882 0.158000 0.009843
vertex 0.019882 0.094800 0.009843
vertex 0.017802 0.158000 0.007448
endloop
endfacet
facet normal 0.755192 0.000000 -0.655503
outer loop
vertex 0.017802 0.158000 0.007448
vertex 0.019882 0.094800 0.009843
vertex 0.017802 0.094800 0.007448
endloop
endfacet
facet normal 0.666100 0.000000 -0.745863
outer loop
vertex 0.017802 0.158000 0.007448
vertex 0.017802 0.094800 0.007448
vertex 0.015436 0.158000 0.005334
endloop
endfacet
facet normal 0.666100 0.000000 -0.745862
outer loop
vertex 0.015436 0.158000 0.005334
vertex 0.017802 0.094800 0.007448
vertex 0.015436 0.094800 0.005334
endloop
endfacet
facet normal 0.566281 0.000000 -0.824212
outer loop
vertex 0.015436 0.158000 0.005334
vertex 0.015436 0.094800 0.005334
vertex 0.012821 0.158000 0.003538
endloop
endfacet
facet normal 0.566281 0.000000 -0.824212
outer loop
vertex 0.012821 0.158000 0.003538
vertex 0.015436 0.094800 0.005334
vertex 0.012821 0.094800 0.003538
endloop
endfacet
facet normal 0.457345 0.000000 -0.889290
outer loop
vertex 0.012821 0.158000 0.003538
vertex 0.012821 0.094800 0.003538
vertex 0.010000 0.158000 0.002087
endloop
endfacet
facet normal 0.457345 0.000000 -0.889290
outer loop
vertex 0.010000 0.158000 0.002087
vertex 0.012821 0.094800 0.003538
vertex 0.012821 0.031600 0.003538
endloop
endfacet
facet normal 0.457345 0.000000 -0.889290
outer loop
vertex 0.010000 0.158000 0.002087
vertex 0.012821 0.031600 0.003538
vertex 0.012821 -0.031600 0.003538
endloop
endfacet
facet normal 0.566281 0.000000 -0.824212
outer loop
vertex 0.012821 -0.031600 0.003538
vertex 0.012821 0.031600 0.003538
vertex 0.015436 -0.031600 0.005334
endloop
endfacet
facet normal 0.566281 0.000000 -0.824212
outer loop
vertex 0.012821 -0.031600 0.003538
vertex 0.015436 -0.031600 0.005334
vertex 0.015436 -0.094800 0.005334
endloop
endfacet
facet normal 0.666100 0.000000 -0.745863
outer loop
vertex 0.015436 -0.094800 0.005334
vertex 0.015436 -0.031600 0.005334
vertex 0.017802 -0.094800 0.007448
endloop
endfacet
facet normal 0.666100 0.000000 -0.745862
outer loop
vertex 0.015436 -0.094800 0.005334
vertex 0.017802 -0.094800 0.007448
vertex 0.017802 -0.158000 0.007448
endloop
endfacet
facet normal 0.755192 0.000000 -0.655503
outer loop
vertex 0.017802 -0.158000 0.007448
vertex 0.017802 -0.094800 0.007448
vertex 0.019882 -0.158000 0.009843
endloop
endfacet
facet normal 0.755193 0.000000 -0.655503
outer loop
vertex 0.019882 -0.158000 0.009843
vertex 0.017802 -0.094800 0.007448
vertex 0.019882 -0.094800 0.009843
endloop
endfacet
facet normal 0.832125 0.000000 -0.554588
outer loop
vertex 0.019882 -0.158000 0.009843
vertex 0.019882 -0.094800 0.009843
vertex 0.021641 -0.158000 0.012483
endloop
endfacet
facet normal 0.832125 0.000000 -0.554588
outer loop
vertex 0.021641 -0.158000 0.012483
vertex 0.019882 -0.094800 0.009843
vertex 0.021641 -0.094800 0.012483
endloop
endfacet
facet normal 0.895658 0.000000 -0.444744
outer loop
vertex 0.021641 -0.158000 0.012483
vertex 0.021641 -0.094800 0.012483
vertex 0.023052 -0.158000 0.015324
endloop
endfacet
facet normal 0.895658 0.000000 -0.444744
outer loop
vertex 0.023052 -0.158000 0.015324
vertex 0.021641 -0.094800 0.012483
vertex 0.023052 -0.094800 0.015324
endloop
endfacet
facet normal 0.944769 0.000000 -0.327738
outer loop
vertex 0.023052 -0.158000 0.015324
vertex 0.023052 -0.094800 0.015324
vertex 0.024091 -0.158000 0.018322
endloop
endfacet
facet normal 0.944769 0.000000 -0.327738
outer loop
vertex 0.024091 -0.158000 0.018322
vertex 0.023052 -0.094800 0.015324
vertex 0.024091 -0.094800 0.018322
endloop
endfacet
facet normal 0.978667 0.000000 -0.205454
outer loop
vertex 0.024091 -0.158000 0.018322
vertex 0.024091 -0.094800 0.018322
vertex 0.024743 -0.158000 0.021426
endloop
endfacet
facet normal 0.978667 0.000000 -0.205454
outer loop
vertex 0.024743 -0.158000 0.021426
vertex 0.024091 -0.094800 0.018322
vertex 0.024743 -0.094800 0.021426
endloop
endfacet
facet normal 0.996806 0.000000 -0.079862
outer loop
vertex 0.024743 -0.158000 0.021426
vertex 0.024743 -0.094800 0.021426
vertex 0.024997 -0.158000 0.024589
endloop
endfacet
facet normal 0.996806 0.000000 -0.079862
outer loop
vertex 0.024997 -0.158000 0.024589
vertex 0.024743 -0.094800 0.021426
vertex 0.024997 -0.094800 0.024589
endloop
endfacet
facet normal 0.998894 0.000000 0.047016
outer loop
vertex 0.024997 -0.158000 0.024589
vertex 0.024997 -0.094800 0.024589
vertex 0.024847 -0.158000 0.027757
endloop
endfacet
facet normal 0.998894 0.000000 0.047016
outer loop
vertex 0.024847 -0.158000 0.027757
vertex 0.024997 -0.094800 0.024589
vertex 0.024847 -0.094800 0.027757
endloop
endfacet
facet normal 0.984898 0.000000 0.173136
outer loop
vertex 0.024847 -0.158000 0.027757
vertex 0.024847 -0.094800 0.027757
vertex 0.024298 -0.158000 0.030882
endloop
endfacet
facet normal 0.984898 0.000000 0.173136
outer loop
vertex 0.024298 -0.158000 0.030882
vertex 0.024847 -0.094800 0.027757
vertex 0.024298 -0.094800 0.030882
endloop
endfacet
facet normal 0.955042 0.000000 0.296469
outer loop
vertex 0.024298 -0.158000 0.030882
vertex 0.024298 -0.094800 0.030882
vertex 0.023358 -0.158000 0.033912
endloop
endfacet
facet normal 0.955042 0.000000 0.296470
outer loop
vertex 0.023358 -0.158000 0.033912
vertex 0.024298 -0.094800 0.030882
vertex 0.023358 -0.094800 0.033912
endloop
endfacet
facet normal 0.909808 0.000000 0.415028
outer loop
vertex 0.023358 -0.158000 0.033912
vertex 0.023358 -0.094800 0.033912
vertex 0.022041 -0.158000 0.036798
endloop
endfacet
facet normal 0.909809 0.000000 0.415028
outer loop
vertex 0.022041 -0.158000 0.036798
vertex 0.023358 -0.094800 0.033912
vertex 0.022041 -0.094800 0.036798
endloop
endfacet
facet normal 0.849925 0.000000 0.526903
outer loop
vertex 0.022041 -0.158000 0.036798
vertex 0.022041 -0.094800 0.036798
vertex 0.020370 -0.158000 0.039494
endloop
endfacet
facet normal 0.849924 0.000000 0.526905
outer loop
vertex 0.020370 -0.158000 0.039494
vertex 0.022041 -0.094800 0.036798
vertex 0.020370 -0.094800 0.039494
endloop
endfacet
facet normal 0.776355 0.000000 0.630296
outer loop
vertex 0.020370 -0.158000 0.039494
vertex 0.020370 -0.094800 0.039494
vertex 0.018370 -0.158000 0.041957
endloop
endfacet
facet normal 0.776354 0.000000 0.630297
outer loop
vertex 0.018370 -0.158000 0.041957
vertex 0.020370 -0.094800 0.039494
vertex 0.018370 -0.094800 0.041957
endloop
endfacet
facet normal 0.690285 0.000000 0.723538
outer loop
vertex 0.018370 -0.158000 0.041957
vertex 0.018370 -0.094800 0.041957
vertex 0.016075 -0.158000 0.044147
endloop
endfacet
facet normal 0.690285 0.000000 0.723538
outer loop
vertex 0.016075 -0.158000 0.044147
vertex 0.018370 -0.094800 0.041957
vertex 0.016075 -0.094800 0.044147
endloop
endfacet
facet normal 0.593097 0.000000 0.805131
outer loop
vertex 0.016075 -0.158000 0.044147
vertex 0.016075 -0.094800 0.044147
vertex 0.013520 -0.158000 0.046028
endloop
endfacet
facet normal 0.593096 0.000000 0.805131
outer loop
vertex 0.013520 -0.158000 0.046028
vertex 0.016075 -0.094800 0.044147
vertex 0.013520 -0.094800 0.046028
endloop
endfacet
facet normal 0.486364 0.000000 0.873756
outer loop
vertex 0.013520 -0.158000 0.046028
vertex 0.013520 -0.094800 0.046028
vertex 0.010749 -0.158000 0.047571
endloop
endfacet
facet normal 0.486360 0.000000 0.873758
outer loop
vertex 0.010749 -0.158000 0.047571
vertex 0.013520 -0.094800 0.046028
vertex 0.010749 -0.094800 0.047571
endloop
endfacet
facet normal 0.371794 0.000000 0.928315
outer loop
vertex 0.010749 -0.158000 0.047571
vertex 0.010749 -0.094800 0.047571
vertex 0.007804 -0.158000 0.048751
endloop
endfacet
facet normal 0.371794 0.000000 0.928315
outer loop
vertex 0.007804 -0.158000 0.048751
vertex 0.010749 -0.094800 0.047571
vertex 0.007804 -0.094800 0.048751
endloop
endfacet
facet normal 0.251239 0.000000 0.967925
outer loop
vertex 0.007804 -0.158000 0.048751
vertex 0.007804 -0.094800 0.048751
vertex 0.004733 -0.158000 0.049548
endloop
endfacet
facet normal 0.251239 0.000000 0.967925
outer loop
vertex 0.004733 -0.158000 0.049548
vertex 0.007804 -0.094800 0.048751
vertex 0.004733 -0.094800 0.049548
endloop
endfacet
facet normal 0.126638 0.000000 0.991949
outer loop
vertex 0.004733 -0.158000 0.049548
vertex 0.004733 -0.094800 0.049548
vertex 0.001586 -0.158000 0.049950
endloop
endfacet
facet normal 0.126640 0.000000 0.991949
outer loop
vertex 0.001586 -0.158000 0.049950
vertex 0.004733 -0.094800 0.049548
vertex 0.001586 -0.094800 0.049950
endloop
endfacet
facet normal 0.000000 0.000000 1.000000
outer loop
vertex 0.001586 -0.158000 0.049950
vertex 0.001586 -0.094800 0.049950
vertex -0.001586 -0.158000 0.049950
endloop
endfacet
facet normal 0.000000 0.000000 1.000000
outer loop
vertex -0.001586 -0.158000 0.049950
vertex 0.001586 -0.094800 0.049950
vertex -0.001586 -0.094800 0.049950
endloop
endfacet
facet normal -0.126640 0.000000 0.991949
outer loop
vertex -0.001586 -0.158000 0.049950
vertex -0.001586 -0.094800 0.049950
vertex -0.004733 -0.158000 0.049548
endloop
endfacet
facet normal -0.126638 0.000000 0.991949
outer loop
vertex -0.004733 -0.158000 0.049548
vertex -0.001586 -0.094800 0.049950
vertex -0.004733 -0.094800 0.049548
endloop
endfacet
facet normal -0.251239 0.000000 0.967925
outer loop
vertex -0.004733 -0.158000 0.049548
vertex -0.004733 -0.094800 0.049548
vertex -0.007804 -0.158000 0.048751
endloop
endfacet
facet normal -0.251239 0.000000 0.967925
outer loop
vertex -0.007804 -0.158000 0.048751
vertex -0.004733 -0.094800 0.049548
vertex -0.007804 -0.094800 0.048751
endloop
endfacet
facet normal -0.371794 0.000000 0.928315
outer loop
vertex -0.007804 -0.158000 0.048751
vertex -0.007804 -0.094800 0.048751
vertex -0.010749 -0.158000 0.047571
endloop
endfacet
facet normal -0.371794 0.000000 0.928315
outer loop
vertex -0.010749 -0.158000 0.047571
vertex -0.007804 -0.094800 0.048751
vertex -0.010749 -0.094800 0.047571
endloop
endfacet
facet normal -0.486360 0.000000 0.873758
outer loop
vertex -0.010749 -0.158000 0.047571
vertex -0.010749 -0.094800 0.047571
vertex -0.013520 -0.158000 0.046028
endloop
endfacet
facet normal -0.486364 0.000000 0.873756
outer loop
vertex -0.013520 -0.158000 0.046028
vertex -0.010749 -0.094800 0.047571
vertex -0.013520 -0.094800 0.046028
endloop
endfacet
facet normal -0.593097 0.000000 0.805131
outer loop
vertex -0.013520 -0.158000 0.046028
vertex -0.013520 -0.094800 0.046028
vertex -0.016075 -0.158000 0.044147
endloop
endfacet
facet normal -0.593096 0.000000 0.805131
outer loop
vertex -0.016075 -0.158000 0.044147
vertex -0.013520 -0.094800 0.046028
vertex -0.016075 -0.094800 0.044147
endloop
endfacet
facet normal -0.690285 0.000000 0.723537
outer loop
vertex -0.016075 -0.158000 0.044147
vertex -0.016075 -0.094800 0.044147
vertex -0.018370 -0.158000 0.041957
endloop
endfacet
facet normal -0.690285 0.000000 0.723537
outer loop
vertex -0.018370 -0.158000 0.041957
vertex -0.016075 -0.094800 0.044147
vertex -0.018370 -0.094800 0.041957
endloop
endfacet
facet normal -0.776354 0.000000 0.630297
outer loop
vertex -0.018370 -0.158000 0.041957
vertex -0.018370 -0.094800 0.041957
vertex -0.020370 -0.158000 0.039494
endloop
endfacet
facet normal -0.776355 0.000000 0.630296
outer loop
vertex -0.020370 -0.158000 0.039494
vertex -0.018370 -0.094800 0.041957
vertex -0.020370 -0.094800 0.039494
endloop
endfacet
facet normal -0.849925 0.000000 0.526904
outer loop
vertex -0.020370 -0.158000 0.039494
vertex -0.020370 -0.094800 0.039494
vertex -0.022041 -0.158000 0.036798
endloop
endfacet
facet normal -0.849925 0.000000 0.526904
outer loop
vertex -0.022041 -0.158000 0.036798
vertex -0.020370 -0.094800 0.039494
vertex -0.022041 -0.094800 0.036798
endloop
endfacet
facet normal -0.909809 0.000000 0.415028
outer loop
vertex -0.022041 -0.158000 0.036798
vertex -0.022041 -0.094800 0.036798
vertex -0.023358 -0.158000 0.033912
endloop
endfacet
facet normal -0.909808 0.000000 0.415029
outer loop
vertex -0.023358 -0.158000 0.033912
vertex -0.022041 -0.094800 0.036798
vertex -0.023358 -0.094800 0.033912
endloop
endfacet
facet normal -0.955042 0.000000 0.296470
outer loop
vertex -0.023358 -0.158000 0.033912
vertex -0.023358 -0.094800 0.033912
vertex -0.024298 -0.158000 0.030882
endloop
endfacet
facet normal -0.955042 0.000000 0.296470
outer loop
vertex -0.024298 -0.158000 0.030882
vertex -0.023358 -0.094800 0.033912
vertex -0.024298 -0.094800 0.030882
endloop
endfacet
facet normal -0.984898 0.000000 0.173136
outer loop
vertex -0.024298 -0.158000 0.030882
vertex -0.024298 -0.094800 0.030882
vertex -0.024847 -0.158000 0.027757
endloop
endfacet
facet normal -0.984898 0.000000 0.173136
outer loop
vertex -0.024847 -0.158000 0.027757
vertex -0.024298 -0.094800 0.030882
vertex -0.024847 -0.094800 0.027757
endloop
endfacet
facet normal -0.998894 0.000000 0.047016
outer loop
vertex -0.024847 -0.158000 0.027757
vertex -0.024847 -0.094800 0.027757
vertex -0.024997 -0.158000 0.024589
endloop
endfacet
facet normal -0.998894 0.000000 0.047016
outer loop
vertex -0.024997 -0.158000 0.024589
vertex -0.024847 -0.094800 0.027757
vertex -0.024997 -0.094800 0.024589
endloop
endfacet
facet normal -0.996806 0.000000 -0.079862
outer loop
vertex -0.024997 -0.158000 0.024589
vertex -0.024997 -0.094800 0.024589
vertex -0.024743 -0.158000 0.021426
endloop
endfacet
facet normal -0.996806 0.000000 -0.079862
outer loop
vertex -0.024743 -0.158000 0.021426
vertex -0.024997 -0.094800 0.024589
vertex -0.024743 -0.094800 0.021426
endloop
endfacet
facet normal -0.978667 0.000000 -0.205454
outer loop
vertex -0.024743 -0.158000 0.021426
vertex -0.024743 -0.094800 0.021426
vertex -0.024091 -0.158000 0.018322
endloop
endfacet
facet normal -0.978667 0.000000 -0.205454
outer loop
vertex -0.024091 -0.158000 0.018322
vertex -0.024743 -0.094800 0.021426
vertex -0.024091 -0.094800 0.018322
endloop
endfacet
facet normal -0.944769 0.000000 -0.327737
outer loop
vertex -0.024091 -0.158000 0.018322
vertex -0.024091 -0.094800 0.018322
vertex -0.023052 -0.158000 0.015324
endloop
endfacet
facet normal -0.944769 0.000000 -0.327738
outer loop
vertex -0.023052 -0.158000 0.015324
vertex -0.024091 -0.094800 0.018322
vertex -0.023052 -0.094800 0.015324
endloop
endfacet
facet normal -0.895658 0.000000 -0.444744
outer loop
vertex -0.023052 -0.158000 0.015324
vertex -0.023052 -0.094800 0.015324
vertex -0.021641 -0.158000 0.012483
endloop
endfacet
facet normal -0.895658 0.000000 -0.444744
outer loop
vertex -0.021641 -0.158000 0.012483
vertex -0.023052 -0.094800 0.015324
vertex -0.021641 -0.094800 0.012483
endloop
endfacet
facet normal -0.832125 0.000000 -0.554588
outer loop
vertex -0.021641 -0.158000 0.012483
vertex -0.021641 -0.094800 0.012483
vertex -0.019882 -0.158000 0.009843
endloop
endfacet
facet normal -0.832125 0.000000 -0.554588
outer loop
vertex -0.019882 -0.158000 0.009843
vertex -0.021641 -0.094800 0.012483
vertex -0.019882 -0.094800 0.009843
endloop
endfacet
facet normal -0.755193 0.000000 -0.655503
outer loop
vertex -0.019882 -0.158000 0.009843
vertex -0.019882 -0.094800 0.009843
vertex -0.017802 -0.158000 0.007448
endloop
endfacet
facet normal -0.755192 0.000000 -0.655503
outer loop
vertex -0.017802 -0.158000 0.007448
vertex -0.019882 -0.094800 0.009843
vertex -0.017802 -0.094800 0.007448
endloop
endfacet
facet normal -0.666100 0.000000 -0.745863
outer loop
vertex -0.017802 -0.158000 0.007448
vertex -0.017802 -0.094800 0.007448
vertex -0.015436 -0.158000 0.005334
endloop
endfacet
facet normal -0.666100 0.000000 -0.745863
outer loop
vertex -0.015436 -0.158000 0.005334
vertex -0.017802 -0.094800 0.007448
vertex -0.015436 -0.094800 0.005334
endloop
endfacet
facet normal -0.566282 0.000000 -0.824212
outer loop
vertex -0.015436 -0.158000 0.005334
vertex -0.015436 -0.094800 0.005334
vertex -0.012821 -0.158000 0.003538
endloop
endfacet
facet normal -0.566282 0.000000 -0.824212
outer loop
vertex -0.012821 -0.158000 0.003538
vertex -0.015436 -0.094800 0.005334
vertex -0.012821 -0.094800 0.003538
endloop
endfacet
facet normal 0.666100 0.000000 -0.745863
outer loop
vertex 0.017802 -0.158000 0.007448
vertex 0.015436 -0.158000 0.005334
vertex 0.015436 -0.094800 0.005334
endloop
endfacet
facet normal 0.566281 0.000000 -0.824212
outer loop
vertex 0.015436 -0.094800 0.005334
vertex 0.015436 -0.158000 0.005334
vertex 0.012821 -0.094800 0.003538
endloop
endfacet
facet normal 0.566281 0.000000 -0.824212
outer loop
vertex 0.015436 -0.094800 0.005334
vertex 0.012821 -0.094800 0.003538
vertex 0.012821 -0.031600 0.003538
endloop
endfacet
facet normal 0.457344 0.000000 -0.889290
outer loop
vertex 0.012821 -0.031600 0.003538
vertex 0.012821 -0.094800 0.003538
vertex 0.010000 -0.158000 0.002087
endloop
endfacet
facet normal 0.457345 0.000000 -0.889290
outer loop
vertex 0.012821 -0.031600 0.003538
vertex 0.010000 -0.158000 0.002087
vertex 0.010000 0.158000 0.002087
endloop
endfacet
facet normal 0.566281 0.000000 -0.824212
outer loop
vertex 0.015436 -0.158000 0.005334
vertex 0.012821 -0.158000 0.003538
vertex 0.012821 -0.094800 0.003538
endloop
endfacet
facet normal 0.457345 0.000000 -0.889290
outer loop
vertex 0.012821 -0.094800 0.003538
vertex 0.012821 -0.158000 0.003538
vertex 0.010000 -0.158000 0.002087
endloop
endfacet
facet normal -0.666100 0.000000 -0.745863
outer loop
vertex -0.017802 0.158000 0.007448
vertex -0.015436 0.158000 0.005334
vertex -0.015436 0.094800 0.005334
endloop
endfacet
facet normal -0.566282 0.000000 -0.824212
outer loop
vertex -0.015436 0.094800 0.005334
vertex -0.015436 0.158000 0.005334
vertex -0.012821 0.094800 0.003538
endloop
endfacet
facet normal -0.566282 0.000000 -0.824212
outer loop
vertex -0.015436 0.094800 0.005334
vertex -0.012821 0.094800 0.003538
vertex -0.012821 0.031600 0.003538
endloop
endfacet
facet normal -0.457345 0.000000 -0.889290
outer loop
vertex -0.012821 0.031600 0.003538
vertex -0.012821 0.094800 0.003538
vertex -0.010000 0.158000 0.002087
endloop
endfacet
facet normal -0.457345 0.000000 -0.889290
outer loop
vertex -0.012821 0.031600 0.003538
vertex -0.010000 0.158000 0.002087
vertex -0.010000 -0.158000 0.002087
endloop
endfacet
facet normal -0.566282 0.000000 -0.824212
outer loop
vertex -0.015436 0.158000 0.005334
vertex -0.012821 0.158000 0.003538
vertex -0.012821 0.094800 0.003538
endloop
endfacet
facet normal -0.457345 0.000000 -0.889290
outer loop
vertex -0.012821 0.094800 0.003538
vertex -0.012821 0.158000 0.003538
vertex -0.010000 0.158000 0.002087
endloop
endfacet
facet normal -0.566282 0.000000 -0.824212
outer loop
vertex -0.012821 -0.031600 0.003538
vertex -0.012821 -0.094800 0.003538
vertex -0.015436 -0.031600 0.005334
endloop
endfacet
facet normal -0.566282 0.000000 -0.824212
outer loop
vertex -0.015436 -0.031600 0.005334
vertex -0.012821 -0.094800 0.003538
vertex -0.015436 -0.094800 0.005334
endloop
endfacet
facet normal -0.666100 0.000000 -0.745863
outer loop
vertex -0.015436 -0.031600 0.005334
vertex -0.015436 -0.094800 0.005334
vertex -0.017802 -0.031600 0.007448
endloop
endfacet
facet normal -0.666100 0.000000 -0.745863
outer loop
vertex -0.017802 -0.031600 0.007448
vertex -0.015436 -0.094800 0.005334
vertex -0.017802 -0.094800 0.007448
endloop
endfacet
facet normal -0.755192 0.000000 -0.655503
outer loop
vertex -0.017802 -0.031600 0.007448
vertex -0.017802 -0.094800 0.007448
vertex -0.019882 -0.031600 0.009843
endloop
endfacet
facet normal -0.755193 0.000000 -0.655503
outer loop
vertex -0.019882 -0.031600 0.009843
vertex -0.017802 -0.094800 0.007448
vertex -0.019882 -0.094800 0.009843
endloop
endfacet
facet normal -0.832125 0.000000 -0.554588
outer loop
vertex -0.019882 -0.031600 0.009843
vertex -0.019882 -0.094800 0.009843
vertex -0.021641 -0.031600 0.012483
endloop
endfacet
facet normal -0.832125 0.000000 -0.554588
outer loop
vertex -0.021641 -0.031600 0.012483
vertex -0.019882 -0.094800 0.009843
vertex -0.021641 -0.094800 0.012483
endloop
endfacet
facet normal -0.895658 0.000000 -0.444744
outer loop
vertex -0.021641 -0.031600 0.012483
vertex -0.021641 -0.094800 0.012483
vertex -0.023052 -0.031600 0.015324
endloop
endfacet
facet normal -0.895658 0.000000 -0.444744
outer loop
vertex -0.023052 -0.031600 0.015324
vertex -0.021641 -0.094800 0.012483
vertex -0.023052 -0.094800 0.015324
endloop
endfacet
facet normal -0.944769 0.000000 -0.327738
outer loop
vertex -0.023052 -0.031600 0.015324
vertex -0.023052 -0.094800 0.015324
vertex -0.024091 -0.031600 0.018322
endloop
endfacet
facet normal -0.944769 0.000000 -0.327737
outer loop
vertex -0.024091 -0.031600 0.018322
vertex -0.023052 -0.094800 0.015324
vertex -0.024091 -0.094800 0.018322
endloop
endfacet
facet normal -0.978667 0.000000 -0.205454
outer loop
vertex -0.024091 -0.031600 0.018322
vertex -0.024091 -0.094800 0.018322
vertex -0.024743 -0.031600 0.021426
endloop
endfacet
facet normal -0.978667 0.000000 -0.205454
outer loop
vertex -0.024743 -0.031600 0.021426
vertex -0.024091 -0.094800 0.018322
vertex -0.024743 -0.094800 0.021426
endloop
endfacet
facet normal -0.996806 0.000000 -0.079862
outer loop
vertex -0.024743 -0.031600 0.021426
vertex -0.024743 -0.094800 0.021426
vertex -0.024997 -0.031600 0.024589
endloop
endfacet
facet normal -0.996806 0.000000 -0.079862
outer loop
vertex -0.024997 -0.031600 0.024589
vertex -0.024743 -0.094800 0.021426
vertex -0.024997 -0.094800 0.024589
endloop
endfacet
facet normal -0.998894 0.000000 0.047016
outer loop
vertex -0.024997 -0.031600 0.024589
vertex -0.024997 -0.094800 0.024589
vertex -0.024847 -0.031600 0.027757
endloop
endfacet
facet normal -0.998894 0.000000 0.047016
outer loop
vertex -0.024847 -0.031600 0.027757
vertex -0.024997 -0.094800 0.024589
vertex -0.024847 -0.094800 0.027757
endloop
endfacet
facet normal -0.984898 0.000000 0.173136
outer loop
vertex -0.024847 -0.031600 0.027757
vertex -0.024847 -0.094800 0.027757
vertex -0.024298 -0.031600 0.030882
endloop
endfacet
facet normal -0.984898 0.000000 0.173136
outer loop
vertex -0.024298 -0.031600 0.030882
vertex -0.024847 -0.094800 0.027757
vertex -0.024298 -0.094800 0.030882
endloop
endfacet
facet normal -0.955042 0.000000 0.296470
outer loop
vertex -0.024298 -0.031600 0.030882
vertex -0.024298 -0.094800 0.030882
vertex -0.023358 -0.031600 0.033912
endloop
endfacet
facet normal -0.955042 0.000000 0.296470
outer loop
vertex -0.023358 -0.031600 0.033912
vertex -0.024298 -0.094800 0.030882
vertex -0.023358 -0.094800 0.033912
endloop
endfacet
facet normal -0.909808 0.000000 0.415028
outer loop
vertex -0.023358 -0.031600 0.033912
vertex -0.023358 -0.094800 0.033912
vertex -0.022041 -0.031600 0.036798
endloop
endfacet
facet normal -0.909809 0.000000 0.415028
outer loop
vertex -0.022041 -0.031600 0.036798
vertex -0.023358 -0.094800 0.033912
vertex -0.022041 -0.094800 0.036798
endloop
endfacet
facet normal -0.849925 0.000000 0.526903
outer loop
vertex -0.022041 -0.031600 0.036798
vertex -0.022041 -0.094800 0.036798
vertex -0.020370 -0.031600 0.039494
endloop
endfacet
facet normal -0.849924 0.000000 0.526905
outer loop
vertex -0.020370 -0.031600 0.039494
vertex -0.022041 -0.094800 0.036798
vertex -0.020370 -0.094800 0.039494
endloop
endfacet
facet normal -0.776355 0.000000 0.630296
outer loop
vertex -0.020370 -0.031600 0.039494
vertex -0.020370 -0.094800 0.039494
vertex -0.018370 -0.031600 0.041957
endloop
endfacet
facet normal -0.776354 0.000000 0.630297
outer loop
vertex -0.018370 -0.031600 0.041957
vertex -0.020370 -0.094800 0.039494
vertex -0.018370 -0.094800 0.041957
endloop
endfacet
facet normal -0.690285 0.000000 0.723537
outer loop
vertex -0.018370 -0.031600 0.041957
vertex -0.018370 -0.094800 0.041957
vertex -0.016075 -0.031600 0.044147
endloop
endfacet
facet normal -0.690285 0.000000 0.723537
outer loop
vertex -0.016075 -0.031600 0.044147
vertex -0.018370 -0.094800 0.041957
vertex -0.016075 -0.094800 0.044147
endloop
endfacet
facet normal -0.593097 0.000000 0.805131
outer loop
vertex -0.016075 -0.031600 0.044147
vertex -0.016075 -0.094800 0.044147
vertex -0.013520 -0.031600 0.046028
endloop
endfacet
facet normal -0.593096 0.000000 0.805131
outer loop
vertex -0.013520 -0.031600 0.046028
vertex -0.016075 -0.094800 0.044147
vertex -0.013520 -0.094800 0.046028
endloop
endfacet
facet normal -0.486364 0.000000 0.873756
outer loop
vertex -0.013520 -0.031600 0.046028
vertex -0.013520 -0.094800 0.046028
vertex -0.010749 -0.031600 0.047571
endloop
endfacet
facet normal -0.486360 0.000000 0.873758
outer loop
vertex -0.010749 -0.031600 0.047571
vertex -0.013520 -0.094800 0.046028
vertex -0.010749 -0.094800 0.047571
endloop
endfacet
facet normal -0.371794 0.000000 0.928315
outer loop
vertex -0.010749 -0.031600 0.047571
vertex -0.010749 -0.094800 0.047571
vertex -0.007804 -0.031600 0.048751
endloop
endfacet
facet normal -0.371794 0.000000 0.928315
outer loop
vertex -0.007804 -0.031600 0.048751
vertex -0.010749 -0.094800 0.047571
vertex -0.007804 -0.094800 0.048751
endloop
endfacet
facet normal -0.251239 0.000000 0.967925
outer loop
vertex -0.007804 -0.031600 0.048751
vertex -0.007804 -0.094800 0.048751
vertex -0.004733 -0.031600 0.049548
endloop
endfacet
facet normal -0.251239 0.000000 0.967925
outer loop
vertex -0.004733 -0.031600 0.049548
vertex -0.007804 -0.094800 0.048751
vertex -0.004733 -0.094800 0.049548
endloop
endfacet
facet normal -0.126638 0.000000 0.991949
outer loop
vertex -0.004733 -0.031600 0.049548
vertex -0.004733 -0.094800 0.049548
vertex -0.001586 -0.031600 0.049950
endloop
endfacet
facet normal -0.126640 0.000000 0.991949
outer loop
vertex -0.001586 -0.031600 0.049950
vertex -0.004733 -0.094800 0.049548
vertex -0.001586 -0.094800 0.049950
endloop
endfacet
facet normal 0.000000 0.000000 1.000000
outer loop
vertex -0.001586 -0.031600 0.049950
vertex -0.001586 -0.094800 0.049950
vertex 0.001586 -0.031600 0.049950
endloop
endfacet
facet normal 0.000000 0.000000 1.000000
outer loop
vertex 0.001586 -0.031600 0.049950
vertex -0.001586 -0.094800 0.049950
vertex 0.001586 -0.094800 0.049950
endloop
endfacet
facet normal 0.126640 0.000000 0.991949
outer loop
vertex 0.001586 -0.031600 0.049950
vertex 0.001586 -0.094800 0.049950
vertex 0.004733 -0.031600 0.049548
endloop
endfacet
facet normal 0.126638 0.000000 0.991949
outer loop
vertex 0.004733 -0.031600 0.049548
vertex 0.001586 -0.094800 0.049950
vertex 0.004733 -0.094800 0.049548
endloop
endfacet
facet normal 0.251239 0.000000 0.967925
outer loop
vertex 0.004733 -0.031600 0.049548
vertex 0.004733 -0.094800 0.049548
vertex 0.007804 -0.031600 0.048751
endloop
endfacet
facet normal 0.251239 0.000000 0.967925
outer loop
vertex 0.007804 -0.031600 0.048751
vertex 0.004733 -0.094800 0.049548
vertex 0.007804 -0.094800 0.048751
endloop
endfacet
facet normal 0.371794 0.000000 0.928315
outer loop
vertex 0.007804 -0.031600 0.048751
vertex 0.007804 -0.094800 0.048751
vertex 0.010749 -0.031600 0.047571
endloop
endfacet
facet normal 0.371794 0.000000 0.928315
outer loop
vertex 0.010749 -0.031600 0.047571
vertex 0.007804 -0.094800 0.048751
vertex 0.010749 -0.094800 0.047571
endloop
endfacet
facet normal 0.486360 0.000000 0.873758
outer loop
vertex 0.010749 -0.031600 0.047571
vertex 0.010749 -0.094800 0.047571
vertex 0.013520 -0.031600 0.046028
endloop
endfacet
facet normal 0.486364 0.000000 0.873756
outer loop
vertex 0.013520 -0.031600 0.046028
vertex 0.010749 -0.094800 0.047571
vertex 0.013520 -0.094800 0.046028
endloop
endfacet
facet normal 0.593097 0.000000 0.805131
outer loop
vertex 0.013520 -0.031600 0.046028
vertex 0.013520 -0.094800 0.046028
vertex 0.016075 -0.031600 0.044147
endloop
endfacet
facet normal 0.593096 0.000000 0.805131
outer loop
vertex 0.016075 -0.031600 0.044147
vertex 0.013520 -0.094800 0.046028
vertex 0.016075 -0.094800 0.044147
endloop
endfacet
facet normal 0.690285 0.000000 0.723538
outer loop
vertex 0.016075 -0.031600 0.044147
vertex 0.016075 -0.094800 0.044147
vertex 0.018370 -0.031600 0.041957
endloop
endfacet
facet normal 0.690285 0.000000 0.723538
outer loop
vertex 0.018370 -0.031600 0.041957
vertex 0.016075 -0.094800 0.044147
vertex 0.018370 -0.094800 0.041957
endloop
endfacet
facet normal 0.776354 0.000000 0.630297
outer loop
vertex 0.018370 -0.031600 0.041957
vertex 0.018370 -0.094800 0.041957
vertex 0.020370 -0.031600 0.039494
endloop
endfacet
facet normal 0.776355 0.000000 0.630296
outer loop
vertex 0.020370 -0.031600 0.039494
vertex 0.018370 -0.094800 0.041957
vertex 0.020370 -0.094800 0.039494
endloop
endfacet
facet normal 0.849925 0.000000 0.526905
outer loop
vertex 0.020370 -0.031600 0.039494
vertex 0.020370 -0.094800 0.039494
vertex 0.022041 -0.031600 0.036798
endloop
endfacet
facet normal 0.849925 0.000000 0.526904
outer loop
vertex 0.022041 -0.031600 0.036798
vertex 0.020370 -0.094800 0.039494
vertex 0.022041 -0.094800 0.036798
endloop
endfacet
facet normal 0.909809 0.000000 0.415028
outer loop
vertex 0.022041 -0.031600 0.036798
vertex 0.022041 -0.094800 0.036798
vertex 0.023358 -0.031600 0.033912
endloop
endfacet
facet normal 0.909808 0.000000 0.415029
outer loop
vertex 0.023358 -0.031600 0.033912
vertex 0.022041 -0.094800 0.036798
vertex 0.023358 -0.094800 0.033912
endloop
endfacet
facet normal 0.955042 0.000000 0.296470
outer loop
vertex 0.023358 -0.031600 0.033912
vertex 0.023358 -0.094800 0.033912
vertex 0.024298 -0.031600 0.030882
endloop
endfacet
facet normal 0.955042 0.000000 0.296469
outer loop
vertex 0.024298 -0.031600 0.030882
vertex 0.023358 -0.094800 0.033912
vertex 0.024298 -0.094800 0.030882
endloop
endfacet
facet normal 0.984898 0.000000 0.173136
outer loop
vertex 0.024298 -0.031600 0.030882
vertex 0.024298 -0.094800 0.030882
vertex 0.024847 -0.031600 0.027757
endloop
endfacet
facet normal 0.984898 0.000000 0.173136
outer loop
vertex 0.024847 -0.031600 0.027757
vertex 0.024298 -0.094800 0.030882
vertex 0.024847 -0.094800 0.027757
endloop
endfacet
facet normal 0.998894 0.000000 0.047016
outer loop
vertex 0.024847 -0.031600 0.027757
vertex 0.024847 -0.094800 0.027757
vertex 0.024997 -0.031600 0.024589
endloop
endfacet
facet normal 0.998894 0.000000 0.047016
outer loop
vertex 0.024997 -0.031600 0.024589
vertex 0.024847 -0.094800 0.027757
vertex 0.024997 -0.094800 0.024589
endloop
endfacet
facet normal 0.996806 0.000000 -0.079862
outer loop
vertex 0.024997 -0.031600 0.024589
vertex 0.024997 -0.094800 0.024589
vertex 0.024743 -0.031600 0.021426
endloop
endfacet
facet normal 0.996806 0.000000 -0.079862
outer loop
vertex 0.024743 -0.031600 0.021426
vertex 0.024997 -0.094800 0.024589
vertex 0.024743 -0.094800 0.021426
endloop
endfacet
facet normal 0.978667 0.000000 -0.205454
outer loop
vertex 0.024743 -0.031600 0.021426
vertex 0.024743 -0.094800 0.021426
vertex 0.024091 -0.031600 0.018322
endloop
endfacet
facet normal 0.978667 0.000000 -0.205454
outer loop
vertex 0.024091 -0.031600 0.018322
vertex 0.024743 -0.094800 0.021426
vertex 0.024091 -0.094800 0.018322
endloop
endfacet
facet normal 0.944769 0.000000 -0.327738
outer loop
vertex 0.024091 -0.031600 0.018322
vertex 0.024091 -0.094800 0.018322
vertex 0.023052 -0.031600 0.015324
endloop
endfacet
facet normal 0.944769 0.000000 -0.327738
outer loop
vertex 0.023052 -0.031600 0.015324
vertex 0.024091 -0.094800 0.018322
vertex 0.023052 -0.094800 0.015324
endloop
endfacet
facet normal 0.895658 0.000000 -0.444744
outer loop
vertex 0.023052 -0.031600 0.015324
vertex 0.023052 -0.094800 0.015324
vertex 0.021641 -0.031600 0.012483
endloop
endfacet
facet normal 0.895658 0.000000 -0.444744
outer loop
vertex 0.021641 -0.031600 0.012483
vertex 0.023052 -0.094800 0.015324
vertex 0.021641 -0.094800 0.012483
endloop
endfacet
facet normal 0.832125 0.000000 -0.554588
outer loop
vertex 0.021641 -0.031600 0.012483
vertex 0.021641 -0.094800 0.012483
vertex 0.019882 -0.031600 0.009843
endloop
endfacet
facet normal 0.832125 0.000000 -0.554588
outer loop
vertex 0.019882 -0.031600 0.009843
vertex 0.021641 -0.094800 0.012483
vertex 0.019882 -0.094800 0.009843
endloop
endfacet
facet normal 0.755193 0.000000 -0.655503
outer loop
vertex 0.019882 -0.031600 0.009843
vertex 0.019882 -0.094800 0.009843
vertex 0.017802 -0.031600 0.007448
endloop
endfacet
facet normal 0.755192 0.000000 -0.655503
outer loop
vertex 0.017802 -0.031600 0.007448
vertex 0.019882 -0.094800 0.009843
vertex 0.017802 -0.094800 0.007448
endloop
endfacet
facet normal 0.666100 0.000000 -0.745862
outer loop
vertex 0.017802 -0.031600 0.007448
vertex 0.017802 -0.094800 0.007448
vertex 0.015436 -0.031600 0.005334
endloop
endfacet
facet normal -0.566282 0.000000 -0.824212
outer loop
vertex -0.012821 -0.031600 0.003538
vertex -0.015436 -0.031600 0.005334
vertex -0.015436 0.031600 0.005334
endloop
endfacet
facet normal -0.666100 0.000000 -0.745863
outer loop
vertex -0.015436 0.031600 0.005334
vertex -0.015436 -0.031600 0.005334
vertex -0.017802 0.031600 0.007448
endloop
endfacet
facet normal -0.666100 0.000000 -0.745863
outer loop
vertex -0.015436 0.031600 0.005334
vertex -0.017802 0.031600 0.007448
vertex -0.017802 0.094800 0.007448
endloop
endfacet
facet normal -0.755192 0.000000 -0.655503
outer loop
vertex -0.017802 0.094800 0.007448
vertex -0.017802 0.031600 0.007448
vertex -0.019882 0.094800 0.009843
endloop
endfacet
facet normal -0.666100 0.000000 -0.745863
outer loop
vertex -0.017802 0.031600 0.007448
vertex -0.015436 -0.031600 0.005334
vertex -0.017802 -0.031600 0.007448
endloop
endfacet
facet normal -0.755192 0.000000 -0.655503
outer loop
vertex -0.017802 0.031600 0.007448
vertex -0.017802 -0.031600 0.007448
vertex -0.019882 0.031600 0.009843
endloop
endfacet
facet normal -0.755193 0.000000 -0.655503
outer loop
vertex -0.019882 0.031600 0.009843
vertex -0.017802 -0.031600 0.007448
vertex -0.019882 -0.031600 0.009843
endloop
endfacet
facet normal -0.832125 0.000000 -0.554588
outer loop
vertex -0.019882 0.031600 0.009843
vertex -0.019882 -0.031600 0.009843
vertex -0.021641 0.031600 0.012483
endloop
endfacet
facet normal -0.832125 0.000000 -0.554588
outer loop
vertex -0.021641 0.031600 0.012483
vertex -0.019882 -0.031600 0.009843
vertex -0.021641 -0.031600 0.012483
endloop
endfacet
facet normal -0.895658 0.000000 -0.444744
outer loop
vertex -0.021641 0.031600 0.012483
vertex -0.021641 -0.031600 0.012483
vertex -0.023052 0.031600 0.015324
endloop
endfacet
facet normal -0.895658 0.000000 -0.444744
outer loop
vertex -0.023052 0.031600 0.015324
vertex -0.021641 -0.031600 0.012483
vertex -0.023052 -0.031600 0.015324
endloop
endfacet
facet normal -0.944769 0.000000 -0.327738
outer loop
vertex -0.023052 0.031600 0.015324
vertex -0.023052 -0.031600 0.015324
vertex -0.024091 0.031600 0.018322
endloop
endfacet
facet normal -0.944769 0.000000 -0.327737
outer loop
vertex -0.024091 0.031600 0.018322
vertex -0.023052 -0.031600 0.015324
vertex -0.024091 -0.031600 0.018322
endloop
endfacet
facet normal -0.978667 0.000000 -0.205454
outer loop
vertex -0.024091 0.031600 0.018322
vertex -0.024091 -0.031600 0.018322
vertex -0.024743 0.031600 0.021426
endloop
endfacet
facet normal -0.978667 0.000000 -0.205454
outer loop
vertex -0.024743 0.031600 0.021426
vertex -0.024091 -0.031600 0.018322
vertex -0.024743 -0.031600 0.021426
endloop
endfacet
facet normal -0.996806 0.000000 -0.079862
outer loop
vertex -0.024743 0.031600 0.021426
vertex -0.024743 -0.031600 0.021426
vertex -0.024997 0.031600 0.024589
endloop
endfacet
facet normal -0.996806 0.000000 -0.079862
outer loop
vertex -0.024997 0.031600 0.024589
vertex -0.024743 -0.031600 0.021426
vertex -0.024997 -0.031600 0.024589
endloop
endfacet
facet normal -0.998894 0.000000 0.047016
outer loop
vertex -0.024997 0.031600 0.024589
vertex -0.024997 -0.031600 0.024589
vertex -0.024847 0.031600 0.027757
endloop
endfacet
facet normal -0.998894 0.000000 0.047016
outer loop
vertex -0.024847 0.031600 0.027757
vertex -0.024997 -0.031600 0.024589
vertex -0.024847 -0.031600 0.027757
endloop
endfacet
facet normal -0.984898 0.000000 0.173136
outer loop
vertex -0.024847 0.031600 0.027757
vertex -0.024847 -0.031600 0.027757
vertex -0.024298 0.031600 0.030882
endloop
endfacet
facet normal -0.984898 0.000000 0.173136
outer loop
vertex -0.024298 0.031600 0.030882
vertex -0.024847 -0.031600 0.027757
vertex -0.024298 -0.031600 0.030882
endloop
endfacet
facet normal -0.955042 0.000000 0.296470
outer loop
vertex -0.024298 0.031600 0.030882
vertex -0.024298 -0.031600 0.030882
vertex -0.023358 0.031600 0.033912
endloop
endfacet
facet normal -0.955042 0.000000 0.296470
outer loop
vertex -0.023358 0.031600 0.033912
vertex -0.024298 -0.031600 0.030882
vertex -0.023358 -0.031600 0.033912
endloop
endfacet
facet normal -0.909808 0.000000 0.415029
outer loop
vertex -0.023358 0.031600 0.033912
vertex -0.023358 -0.031600 0.033912
vertex -0.022041 0.031600 0.036798
endloop
endfacet
facet normal -0.909809 0.000000 0.415028
outer loop
vertex -0.022041 0.031600 0.036798
vertex -0.023358 -0.031600 0.033912
vertex -0.022041 -0.031600 0.036798
endloop
endfacet
facet normal -0.849925 0.000000 0.526904
outer loop
vertex -0.022041 0.031600 0.036798
vertex -0.022041 -0.031600 0.036798
vertex -0.020370 0.031600 0.039494
endloop
endfacet
facet normal -0.849924 0.000000 0.526905
outer loop
vertex -0.020370 0.031600 0.039494
vertex -0.022041 -0.031600 0.036798
vertex -0.020370 -0.031600 0.039494
endloop
endfacet
facet normal -0.776355 0.000000 0.630296
outer loop
vertex -0.020370 0.031600 0.039494
vertex -0.020370 -0.031600 0.039494
vertex -0.018370 0.031600 0.041957
endloop
endfacet
facet normal -0.776354 0.000000 0.630297
outer loop
vertex -0.018370 0.031600 0.041957
vertex -0.020370 -0.031600 0.039494
vertex -0.018370 -0.031600 0.041957
endloop
endfacet
facet normal -0.690285 0.000000 0.723537
outer loop
vertex -0.018370 0.031600 0.041957
vertex -0.018370 -0.031600 0.041957
vertex -0.016075 0.031600 0.044147
endloop
endfacet
facet normal -0.690285 0.000000 0.723537
outer loop
vertex -0.016075 0.031600 0.044147
vertex -0.018370 -0.031600 0.041957
vertex -0.016075 -0.031600 0.044147
endloop
endfacet
facet normal -0.593096 0.000000 0.805131
outer loop
vertex -0.016075 0.031600 0.044147
vertex -0.016075 -0.031600 0.044147
vertex -0.013520 0.031600 0.046028
endloop
endfacet
facet normal -0.593098 0.000000 0.805130
outer loop
vertex -0.013520 0.031600 0.046028
vertex -0.016075 -0.031600 0.044147
vertex -0.013520 -0.031600 0.046028
endloop
endfacet
facet normal -0.486362 0.000000 0.873757
outer loop
vertex -0.013520 0.031600 0.046028
vertex -0.013520 -0.031600 0.046028
vertex -0.010749 0.031600 0.047571
endloop
endfacet
facet normal -0.486362 0.000000 0.873757
outer loop
vertex -0.010749 0.031600 0.047571
vertex -0.013520 -0.031600 0.046028
vertex -0.010749 -0.031600 0.047571
endloop
endfacet
facet normal -0.371794 0.000000 0.928315
outer loop
vertex -0.010749 0.031600 0.047571
vertex -0.010749 -0.031600 0.047571
vertex -0.007804 0.031600 0.048751
endloop
endfacet
facet normal -0.371794 0.000000 0.928315
outer loop
vertex -0.007804 0.031600 0.048751
vertex -0.010749 -0.031600 0.047571
vertex -0.007804 -0.031600 0.048751
endloop
endfacet
facet normal -0.251239 0.000000 0.967925
outer loop
vertex -0.007804 0.031600 0.048751
vertex -0.007804 -0.031600 0.048751
vertex -0.004733 0.031600 0.049548
endloop
endfacet
facet normal -0.251237 0.000000 0.967926
outer loop
vertex -0.004733 0.031600 0.049548
vertex -0.007804 -0.031600 0.048751
vertex -0.004733 -0.031600 0.049548
endloop
endfacet
facet normal -0.126640 0.000000 0.991949
outer loop
vertex -0.004733 0.031600 0.049548
vertex -0.004733 -0.031600 0.049548
vertex -0.001586 0.031600 0.049950
endloop
endfacet
facet normal -0.126640 0.000000 0.991949
outer loop
vertex -0.001586 0.031600 0.049950
vertex -0.004733 -0.031600 0.049548
vertex -0.001586 -0.031600 0.049950
endloop
endfacet
facet normal 0.000000 0.000000 1.000000
outer loop
vertex -0.001586 0.031600 0.049950
vertex -0.001586 -0.031600 0.049950
vertex 0.001586 0.031600 0.049950
endloop
endfacet
facet normal 0.000000 0.000000 1.000000
outer loop
vertex 0.001586 0.031600 0.049950
vertex -0.001586 -0.031600 0.049950
vertex 0.001586 -0.031600 0.049950
endloop
endfacet
facet normal 0.126640 0.000000 0.991949
outer loop
vertex 0.001586 0.031600 0.049950
vertex 0.001586 -0.031600 0.049950
vertex 0.004733 0.031600 0.049548
endloop
endfacet
facet normal 0.126640 0.000000 0.991949
outer loop
vertex 0.004733 0.031600 0.049548
vertex 0.001586 -0.031600 0.049950
vertex 0.004733 -0.031600 0.049548
endloop
endfacet
facet normal 0.251237 0.000000 0.967926
outer loop
vertex 0.004733 0.031600 0.049548
vertex 0.004733 -0.031600 0.049548
vertex 0.007804 0.031600 0.048751
endloop
endfacet
facet normal 0.251239 0.000000 0.967925
outer loop
vertex 0.007804 0.031600 0.048751
vertex 0.004733 -0.031600 0.049548
vertex 0.007804 -0.031600 0.048751
endloop
endfacet
facet normal 0.371794 0.000000 0.928315
outer loop
vertex 0.007804 0.031600 0.048751
vertex 0.007804 -0.031600 0.048751
vertex 0.010749 0.031600 0.047571
endloop
endfacet
facet normal 0.371794 0.000000 0.928315
outer loop
vertex 0.010749 0.031600 0.047571
vertex 0.007804 -0.031600 0.048751
vertex 0.010749 -0.031600 0.047571
endloop
endfacet
facet normal 0.486362 0.000000 0.873757
outer loop
vertex 0.010749 0.031600 0.047571
vertex 0.010749 -0.031600 0.047571
vertex 0.013520 0.031600 0.046028
endloop
endfacet
facet normal 0.486362 0.000000 0.873757
outer loop
vertex 0.013520 0.031600 0.046028
vertex 0.010749 -0.031600 0.047571
vertex 0.013520 -0.031600 0.046028
endloop
endfacet
facet normal 0.593098 0.000000 0.805130
outer loop
vertex 0.013520 0.031600 0.046028
vertex 0.013520 -0.031600 0.046028
vertex 0.016075 0.031600 0.044147
endloop
endfacet
facet normal 0.593096 0.000000 0.805131
outer loop
vertex 0.016075 0.031600 0.044147
vertex 0.013520 -0.031600 0.046028
vertex 0.016075 -0.031600 0.044147
endloop
endfacet
facet normal 0.690285 0.000000 0.723538
outer loop
vertex 0.016075 0.031600 0.044147
vertex 0.016075 -0.031600 0.044147
vertex 0.018370 0.031600 0.041957
endloop
endfacet
facet normal 0.690285 0.000000 0.723538
outer loop
vertex 0.018370 0.031600 0.041957
vertex 0.016075 -0.031600 0.044147
vertex 0.018370 -0.031600 0.041957
endloop
endfacet
facet normal 0.776354 0.000000 0.630297
outer loop
vertex 0.018370 0.031600 0.041957
vertex 0.018370 -0.031600 0.041957
vertex 0.020370 0.031600 0.039494
endloop
endfacet
facet normal 0.776355 0.000000 0.630296
outer loop
vertex 0.020370 0.031600 0.039494
vertex 0.018370 -0.031600 0.041957
vertex 0.020370 -0.031600 0.039494
endloop
endfacet
facet normal 0.849924 0.000000 0.526905
outer loop
vertex 0.020370 0.031600 0.039494
vertex 0.020370 -0.031600 0.039494
vertex 0.022041 0.031600 0.036798
endloop
endfacet
facet normal 0.849925 0.000000 0.526904
outer loop
vertex 0.022041 0.031600 0.036798
vertex 0.020370 -0.031600 0.039494
vertex 0.022041 -0.031600 0.036798
endloop
endfacet
facet normal 0.909809 0.000000 0.415028
outer loop
vertex 0.022041 0.031600 0.036798
vertex 0.022041 -0.031600 0.036798
vertex 0.023358 0.031600 0.033912
endloop
endfacet
facet normal 0.909808 0.000000 0.415029
outer loop
vertex 0.023358 0.031600 0.033912
vertex 0.022041 -0.031600 0.036798
vertex 0.023358 -0.031600 0.033912
endloop
endfacet
facet normal 0.955042 0.000000 0.296470
outer loop
vertex 0.023358 0.031600 0.033912
vertex 0.023358 -0.031600 0.033912
vertex 0.024298 0.031600 0.030882
endloop
endfacet
facet normal 0.955042 0.000000 0.296469
outer loop
vertex 0.024298 0.031600 0.030882
vertex 0.023358 -0.031600 0.033912
vertex 0.024298 -0.031600 0.030882
endloop
endfacet
facet normal 0.984898 0.000000 0.173136
outer loop
vertex 0.024298 0.031600 0.030882
vertex 0.024298 -0.031600 0.030882
vertex 0.024847 0.031600 0.027757
endloop
endfacet
facet normal 0.984898 0.000000 0.173136
outer loop
vertex 0.024847 0.031600 0.027757
vertex 0.024298 -0.031600 0.030882
vertex 0.024847 -0.031600 0.027757
endloop
endfacet
facet normal 0.998894 0.000000 0.047016
outer loop
vertex 0.024847 0.031600 0.027757
vertex 0.024847 -0.031600 0.027757
vertex 0.024997 0.031600 0.024589
endloop
endfacet
facet normal 0.998894 0.000000 0.047016
outer loop
vertex 0.024997 0.031600 0.024589
vertex 0.024847 -0.031600 0.027757
vertex 0.024997 -0.031600 0.024589
endloop
endfacet
facet normal 0.996806 0.000000 -0.079862
outer loop
vertex 0.024997 0.031600 0.024589
vertex 0.024997 -0.031600 0.024589
vertex 0.024743 0.031600 0.021426
endloop
endfacet
facet normal 0.996806 0.000000 -0.079862
outer loop
vertex 0.024743 0.031600 0.021426
vertex 0.024997 -0.031600 0.024589
vertex 0.024743 -0.031600 0.021426
endloop
endfacet
facet normal 0.978667 0.000000 -0.205454
outer loop
vertex 0.024743 0.031600 0.021426
vertex 0.024743 -0.031600 0.021426
vertex 0.024091 0.031600 0.018322
endloop
endfacet
facet normal 0.978667 0.000000 -0.205454
outer loop
vertex 0.024091 0.031600 0.018322
vertex 0.024743 -0.031600 0.021426
vertex 0.024091 -0.031600 0.018322
endloop
endfacet
facet normal 0.944769 0.000000 -0.327738
outer loop
vertex 0.024091 0.031600 0.018322
vertex 0.024091 -0.031600 0.018322
vertex 0.023052 0.031600 0.015324
endloop
endfacet
facet normal 0.944769 0.000000 -0.327738
outer loop
vertex 0.023052 0.031600 0.015324
vertex 0.024091 -0.031600 0.018322
vertex 0.023052 -0.031600 0.015324
endloop
endfacet
facet normal 0.895658 0.000000 -0.444744
outer loop
vertex 0.023052 0.031600 0.015324
vertex 0.023052 -0.031600 0.015324
vertex 0.021641 0.031600 0.012483
endloop
endfacet
facet normal 0.895658 0.000000 -0.444744
outer loop
vertex 0.021641 0.031600 0.012483
vertex 0.023052 -0.031600 0.015324
vertex 0.021641 -0.031600 0.012483
endloop
endfacet
facet normal 0.832125 0.000000 -0.554588
outer loop
vertex 0.021641 0.031600 0.012483
vertex 0.021641 -0.031600 0.012483
vertex 0.019882 0.031600 0.009843
endloop
endfacet
facet normal 0.832125 0.000000 -0.554588
outer loop
vertex 0.019882 0.031600 0.009843
vertex 0.021641 -0.031600 0.012483
vertex 0.019882 -0.031600 0.009843
endloop
endfacet
facet normal 0.755193 0.000000 -0.655503
outer loop
vertex 0.019882 0.031600 0.009843
vertex 0.019882 -0.031600 0.009843
vertex 0.017802 0.031600 0.007448
endloop
endfacet
facet normal 0.755192 0.000000 -0.655503
outer loop
vertex 0.017802 0.031600 0.007448
vertex 0.019882 -0.031600 0.009843
vertex 0.017802 -0.031600 0.007448
endloop
endfacet
facet normal 0.666100 0.000000 -0.745862
outer loop
vertex 0.017802 0.031600 0.007448
vertex 0.017802 -0.031600 0.007448
vertex 0.015436 0.031600 0.005334
endloop
endfacet
facet normal 0.666100 0.000000 -0.745862
outer loop
vertex 0.015436 0.031600 0.005334
vertex 0.017802 -0.031600 0.007448
vertex 0.015436 -0.031600 0.005334
endloop
endfacet
facet normal 0.566281 0.000000 -0.824212
outer loop
vertex 0.015436 0.031600 0.005334
vertex 0.015436 -0.031600 0.005334
vertex 0.012821 0.031600 0.003538
endloop
endfacet
facet normal -0.832125 0.000000 -0.554588
outer loop
vertex -0.021641 0.094800 0.012483
vertex -0.019882 0.094800 0.009843
vertex -0.019882 0.031600 0.009843
endloop
endfacet
facet normal -0.755193 0.000000 -0.655503
outer loop
vertex -0.019882 0.031600 0.009843
vertex -0.019882 0.094800 0.009843
vertex -0.017802 0.031600 0.007448
endloop
endfacet
facet normal -0.832125 0.000000 -0.554588
outer loop
vertex -0.021641 0.094800 0.012483
vertex -0.019882 0.031600 0.009843
vertex -0.021641 0.031600 0.012483
endloop
endfacet
facet normal -0.895658 0.000000 -0.444744
outer loop
vertex -0.023052 0.094800 0.015324
vertex -0.021641 0.094800 0.012483
vertex -0.021641 0.031600 0.012483
endloop
endfacet
facet normal -0.895658 0.000000 -0.444744
outer loop
vertex -0.023052 0.094800 0.015324
vertex -0.021641 0.031600 0.012483
vertex -0.023052 0.031600 0.015324
endloop
endfacet
facet normal -0.944769 0.000000 -0.327738
outer loop
vertex -0.024091 0.094800 0.018322
vertex -0.023052 0.094800 0.015324
vertex -0.023052 0.031600 0.015324
endloop
endfacet
facet normal -0.944769 0.000000 -0.327737
outer loop
vertex -0.024091 0.094800 0.018322
vertex -0.023052 0.031600 0.015324
vertex -0.024091 0.031600 0.018322
endloop
endfacet
facet normal -0.978667 0.000000 -0.205454
outer loop
vertex -0.024743 0.094800 0.021426
vertex -0.024091 0.094800 0.018322
vertex -0.024091 0.031600 0.018322
endloop
endfacet
facet normal -0.978667 0.000000 -0.205454
outer loop
vertex -0.024743 0.094800 0.021426
vertex -0.024091 0.031600 0.018322
vertex -0.024743 0.031600 0.021426
endloop
endfacet
facet normal -0.996806 0.000000 -0.079862
outer loop
vertex -0.024997 0.094800 0.024589
vertex -0.024743 0.094800 0.021426
vertex -0.024743 0.031600 0.021426
endloop
endfacet
facet normal -0.996806 0.000000 -0.079862
outer loop
vertex -0.024997 0.094800 0.024589
vertex -0.024743 0.031600 0.021426
vertex -0.024997 0.031600 0.024589
endloop
endfacet
facet normal -0.998894 0.000000 0.047016
outer loop
vertex -0.024847 0.094800 0.027757
vertex -0.024997 0.094800 0.024589
vertex -0.024997 0.031600 0.024589
endloop
endfacet
facet normal -0.998894 0.000000 0.047016
outer loop
vertex -0.024847 0.094800 0.027757
vertex -0.024997 0.031600 0.024589
vertex -0.024847 0.031600 0.027757
endloop
endfacet
facet normal -0.984898 0.000000 0.173136
outer loop
vertex -0.024298 0.094800 0.030882
vertex -0.024847 0.094800 0.027757
vertex -0.024847 0.031600 0.027757
endloop
endfacet
facet normal -0.984898 0.000000 0.173136
outer loop
vertex -0.024298 0.094800 0.030882
vertex -0.024847 0.031600 0.027757
vertex -0.024298 0.031600 0.030882
endloop
endfacet
facet normal -0.955042 0.000000 0.296470
outer loop
vertex -0.023358 0.094800 0.033912
vertex -0.024298 0.094800 0.030882
vertex -0.024298 0.031600 0.030882
endloop
endfacet
facet normal -0.955042 0.000000 0.296470
outer loop
vertex -0.023358 0.094800 0.033912
vertex -0.024298 0.031600 0.030882
vertex -0.023358 0.031600 0.033912
endloop
endfacet
facet normal -0.909808 0.000000 0.415029
outer loop
vertex -0.022041 0.094800 0.036798
vertex -0.023358 0.094800 0.033912
vertex -0.023358 0.031600 0.033912
endloop
endfacet
facet normal -0.909809 0.000000 0.415028
outer loop
vertex -0.022041 0.094800 0.036798
vertex -0.023358 0.031600 0.033912
vertex -0.022041 0.031600 0.036798
endloop
endfacet
facet normal -0.849925 0.000000 0.526903
outer loop
vertex -0.020370 0.094800 0.039494
vertex -0.022041 0.094800 0.036798
vertex -0.022041 0.031600 0.036798
endloop
endfacet
facet normal -0.849925 0.000000 0.526905
outer loop
vertex -0.020370 0.094800 0.039494
vertex -0.022041 0.031600 0.036798
vertex -0.020370 0.031600 0.039494
endloop
endfacet
facet normal -0.776354 0.000000 0.630297
outer loop
vertex -0.018370 0.094800 0.041957
vertex -0.020370 0.094800 0.039494
vertex -0.020370 0.031600 0.039494
endloop
endfacet
facet normal -0.776354 0.000000 0.630297
outer loop
vertex -0.018370 0.094800 0.041957
vertex -0.020370 0.031600 0.039494
vertex -0.018370 0.031600 0.041957
endloop
endfacet
facet normal -0.690285 0.000000 0.723537
outer loop
vertex -0.016075 0.094800 0.044147
vertex -0.018370 0.094800 0.041957
vertex -0.018370 0.031600 0.041957
endloop
endfacet
facet normal -0.690285 0.000000 0.723537
outer loop
vertex -0.016075 0.094800 0.044147
vertex -0.018370 0.031600 0.041957
vertex -0.016075 0.031600 0.044147
endloop
endfacet
facet normal -0.593098 0.000000 0.805130
outer loop
vertex -0.013520 0.094800 0.046028
vertex -0.016075 0.094800 0.044147
vertex -0.016075 0.031600 0.044147
endloop
endfacet
facet normal -0.593097 0.000000 0.805131
outer loop
vertex -0.013520 0.094800 0.046028
vertex -0.016075 0.031600 0.044147
vertex -0.013520 0.031600 0.046028
endloop
endfacet
facet normal -0.486362 0.000000 0.873757
outer loop
vertex -0.010749 0.094800 0.047571
vertex -0.013520 0.094800 0.046028
vertex -0.013520 0.031600 0.046028
endloop
endfacet
facet normal -0.486362 0.000000 0.873757
outer loop
vertex -0.010749 0.094800 0.047571
vertex -0.013520 0.031600 0.046028
vertex -0.010749 0.031600 0.047571
endloop
endfacet
facet normal -0.371794 0.000000 0.928315
outer loop
vertex -0.007804 0.094800 0.048751
vertex -0.010749 0.094800 0.047571
vertex -0.010749 0.031600 0.047571
endloop
endfacet
facet normal -0.371794 0.000000 0.928315
outer loop
vertex -0.007804 0.094800 0.048751
vertex -0.010749 0.031600 0.047571
vertex -0.007804 0.031600 0.048751
endloop
endfacet
facet normal -0.251239 0.000000 0.967925
outer loop
vertex -0.004733 0.094800 0.049548
vertex -0.007804 0.094800 0.048751
vertex -0.007804 0.031600 0.048751
endloop
endfacet
facet normal -0.251237 0.000000 0.967926
outer loop
vertex -0.004733 0.094800 0.049548
vertex -0.007804 0.031600 0.048751
vertex -0.004733 0.031600 0.049548
endloop
endfacet
facet normal -0.126640 0.000000 0.991949
outer loop
vertex -0.001586 0.094800 0.049950
vertex -0.004733 0.094800 0.049548
vertex -0.004733 0.031600 0.049548
endloop
endfacet
facet normal -0.126640 0.000000 0.991949
outer loop
vertex -0.001586 0.094800 0.049950
vertex -0.004733 0.031600 0.049548
vertex -0.001586 0.031600 0.049950
endloop
endfacet
facet normal 0.000000 0.000000 1.000000
outer loop
vertex 0.001586 0.094800 0.049950
vertex -0.001586 0.094800 0.049950
vertex -0.001586 0.031600 0.049950
endloop
endfacet
facet normal 0.000000 0.000000 1.000000
outer loop
vertex 0.001586 0.094800 0.049950
vertex -0.001586 0.031600 0.049950
vertex 0.001586 0.031600 0.049950
endloop
endfacet
facet normal 0.126640 0.000000 0.991949
outer loop
vertex 0.004733 0.094800 0.049548
vertex 0.001586 0.094800 0.049950
vertex 0.001586 0.031600 0.049950
endloop
endfacet
facet normal 0.126640 0.000000 0.991949
outer loop
vertex 0.004733 0.094800 0.049548
vertex 0.001586 0.031600 0.049950
vertex 0.004733 0.031600 0.049548
endloop
endfacet
facet normal 0.251237 0.000000 0.967926
outer loop
vertex 0.007804 0.094800 0.048751
vertex 0.004733 0.094800 0.049548
vertex 0.004733 0.031600 0.049548
endloop
endfacet
facet normal 0.251239 0.000000 0.967925
outer loop
vertex 0.007804 0.094800 0.048751
vertex 0.004733 0.031600 0.049548
vertex 0.007804 0.031600 0.048751
endloop
endfacet
facet normal 0.371794 0.000000 0.928315
outer loop
vertex 0.010749 0.094800 0.047571
vertex 0.007804 0.094800 0.048751
vertex 0.007804 0.031600 0.048751
endloop
endfacet
facet normal 0.371794 0.000000 0.928315
outer loop
vertex 0.010749 0.094800 0.047571
vertex 0.007804 0.031600 0.048751
vertex 0.010749 0.031600 0.047571
endloop
endfacet
facet normal 0.486362 0.000000 0.873757
outer loop
vertex 0.013520 0.094800 0.046028
vertex 0.010749 0.094800 0.047571
vertex 0.010749 0.031600 0.047571
endloop
endfacet
facet normal 0.486362 0.000000 0.873757
outer loop
vertex 0.013520 0.094800 0.046028
vertex 0.010749 0.031600 0.047571
vertex 0.013520 0.031600 0.046028
endloop
endfacet
facet normal 0.593097 0.000000 0.805131
outer loop
vertex 0.016075 0.094800 0.044147
vertex 0.013520 0.094800 0.046028
vertex 0.013520 0.031600 0.046028
endloop
endfacet
facet normal 0.593098 0.000000 0.805130
outer loop
vertex 0.016075 0.094800 0.044147
vertex 0.013520 0.031600 0.046028
vertex 0.016075 0.031600 0.044147
endloop
endfacet
facet normal 0.690285 0.000000 0.723538
outer loop
vertex 0.018370 0.094800 0.041957
vertex 0.016075 0.094800 0.044147
vertex 0.016075 0.031600 0.044147
endloop
endfacet
facet normal 0.690285 0.000000 0.723538
outer loop
vertex 0.018370 0.094800 0.041957
vertex 0.016075 0.031600 0.044147
vertex 0.018370 0.031600 0.041957
endloop
endfacet
facet normal 0.776354 0.000000 0.630297
outer loop
vertex 0.020370 0.094800 0.039494
vertex 0.018370 0.094800 0.041957
vertex 0.018370 0.031600 0.041957
endloop
endfacet
facet normal 0.776354 0.000000 0.630297
outer loop
vertex 0.020370 0.094800 0.039494
vertex 0.018370 0.031600 0.041957
vertex 0.020370 0.031600 0.039494
endloop
endfacet
facet normal 0.849925 0.000000 0.526905
outer loop
vertex 0.022041 0.094800 0.036798
vertex 0.020370 0.094800 0.039494
vertex 0.020370 0.031600 0.039494
endloop
endfacet
facet normal 0.849925 0.000000 0.526903
outer loop
vertex 0.022041 0.094800 0.036798
vertex 0.020370 0.031600 0.039494
vertex 0.022041 0.031600 0.036798
endloop
endfacet
facet normal 0.909809 0.000000 0.415028
outer loop
vertex 0.023358 0.094800 0.033912
vertex 0.022041 0.094800 0.036798
vertex 0.022041 0.031600 0.036798
endloop
endfacet
facet normal 0.909808 0.000000 0.415028
outer loop
vertex 0.023358 0.094800 0.033912
vertex 0.022041 0.031600 0.036798
vertex 0.023358 0.031600 0.033912
endloop
endfacet
facet normal 0.955042 0.000000 0.296470
outer loop
vertex 0.024298 0.094800 0.030882
vertex 0.023358 0.094800 0.033912
vertex 0.023358 0.031600 0.033912
endloop
endfacet
facet normal 0.955042 0.000000 0.296469
outer loop
vertex 0.024298 0.094800 0.030882
vertex 0.023358 0.031600 0.033912
vertex 0.024298 0.031600 0.030882
endloop
endfacet
facet normal 0.984898 0.000000 0.173136
outer loop
vertex 0.024847 0.094800 0.027757
vertex 0.024298 0.094800 0.030882
vertex 0.024298 0.031600 0.030882
endloop
endfacet
facet normal 0.984898 0.000000 0.173136
outer loop
vertex 0.024847 0.094800 0.027757
vertex 0.024298 0.031600 0.030882
vertex 0.024847 0.031600 0.027757
endloop
endfacet
facet normal 0.998894 0.000000 0.047016
outer loop
vertex 0.024997 0.094800 0.024589
vertex 0.024847 0.094800 0.027757
vertex 0.024847 0.031600 0.027757
endloop
endfacet
facet normal 0.998894 0.000000 0.047016
outer loop
vertex 0.024997 0.094800 0.024589
vertex 0.024847 0.031600 0.027757
vertex 0.024997 0.031600 0.024589
endloop
endfacet
facet normal 0.996806 0.000000 -0.079862
outer loop
vertex 0.024743 0.094800 0.021426
vertex 0.024997 0.094800 0.024589
vertex 0.024997 0.031600 0.024589
endloop
endfacet
facet normal 0.996806 0.000000 -0.079862
outer loop
vertex 0.024743 0.094800 0.021426
vertex 0.024997 0.031600 0.024589
vertex 0.024743 0.031600 0.021426
endloop
endfacet
facet normal 0.978667 0.000000 -0.205454
outer loop
vertex 0.024091 0.094800 0.018322
vertex 0.024743 0.094800 0.021426
vertex 0.024743 0.031600 0.021426
endloop
endfacet
facet normal 0.978667 0.000000 -0.205454
outer loop
vertex 0.024091 0.094800 0.018322
vertex 0.024743 0.031600 0.021426
vertex 0.024091 0.031600 0.018322
endloop
endfacet
facet normal 0.944769 0.000000 -0.327738
outer loop
vertex 0.023052 0.094800 0.015324
vertex 0.024091 0.094800 0.018322
vertex 0.024091 0.031600 0.018322
endloop
endfacet
facet normal 0.944769 0.000000 -0.327738
outer loop
vertex 0.023052 0.094800 0.015324
vertex 0.024091 0.031600 0.018322
vertex 0.023052 0.031600 0.015324
endloop
endfacet
facet normal 0.895658 0.000000 -0.444744
outer loop
vertex 0.021641 0.094800 0.012483
vertex 0.023052 0.094800 0.015324
vertex 0.023052 0.031600 0.015324
endloop
endfacet
facet normal 0.895658 0.000000 -0.444744
outer loop
vertex 0.021641 0.094800 0.012483
vertex 0.023052 0.031600 0.015324
vertex 0.021641 0.031600 0.012483
endloop
endfacet
facet normal 0.832125 0.000000 -0.554588
outer loop
vertex 0.019882 0.094800 0.009843
vertex 0.021641 0.094800 0.012483
vertex 0.021641 0.031600 0.012483
endloop
endfacet
facet normal 0.832125 0.000000 -0.554588
outer loop
vertex 0.019882 0.094800 0.009843
vertex 0.021641 0.031600 0.012483
vertex 0.019882 0.031600 0.009843
endloop
endfacet
facet normal 0.755192 0.000000 -0.655503
outer loop
vertex 0.017802 0.094800 0.007448
vertex 0.019882 0.094800 0.009843
vertex 0.019882 0.031600 0.009843
endloop
endfacet
facet normal 0.755192 0.000000 -0.655503
outer loop
vertex 0.017802 0.094800 0.007448
vertex 0.019882 0.031600 0.009843
vertex 0.017802 0.031600 0.007448
endloop
endfacet
facet normal 0.666100 0.000000 -0.745863
outer loop
vertex 0.015436 0.094800 0.005334
vertex 0.017802 0.094800 0.007448
vertex 0.017802 0.031600 0.007448
endloop
endfacet
facet normal 0.666100 0.000000 -0.745863
outer loop
vertex 0.015436 0.094800 0.005334
vertex 0.017802 0.031600 0.007448
vertex 0.015436 0.031600 0.005334
endloop
endfacet
facet normal 0.566281 0.000000 -0.824212
outer loop
vertex 0.012821 0.094800 0.003538
vertex 0.015436 0.094800 0.005334
vertex 0.015436 0.031600 0.005334
endloop
endfacet
facet normal 0.566281 0.000000 -0.824212
outer loop
vertex 0.012821 0.094800 0.003538
vertex 0.015436 0.031600 0.005334
vertex 0.012821 0.031600 0.003538
endloop
endfacet
facet normal -1.000000 0.000000 0.000000
outer loop
vertex -0.010000 -0.158000 0.000000
vertex -0.010000 -0.158000 0.002087
vertex -0.010000 0.158000 0.000000
endloop
endfacet
facet normal -1.000000 0.000000 0.000000
outer loop
vertex -0.010000 0.158000 0.000000
vertex -0.010000 -0.158000 0.002087
vertex -0.010000 0.158000 0.002087
endloop
endfacet
facet normal 0.000000 1.000000 0.000000
outer loop
vertex -0.010000 0.158000 0.000000
vertex -0.010000 0.158000 0.002087
vertex 0.010000 0.158000 0.000000
endloop
endfacet
facet normal 0.000000 1.000000 0.000000
outer loop
vertex 0.010000 0.158000 0.000000
vertex -0.010000 0.158000 0.002087
vertex 0.010000 0.158000 0.002087
endloop
endfacet
facet normal 0.000000 1.000000 0.000000
outer loop
vertex 0.010000 0.158000 0.002087
vertex -0.010000 0.158000 0.002087
vertex 0.012821 0.158000 0.003538
endloop
endfacet
facet normal 0.000000 1.000000 -0.000005
outer loop
vertex 0.012821 0.158000 0.003538
vertex -0.010000 0.158000 0.002087
vertex -0.012821 0.158000 0.003538
endloop
endfacet
facet normal 0.000000 1.000000 0.000000
outer loop
vertex 0.012821 0.158000 0.003538
vertex -0.012821 0.158000 0.003538
vertex 0.015436 0.158000 0.005334
endloop
endfacet
facet normal 0.000000 1.000000 0.000000
outer loop
vertex 0.015436 0.158000 0.005334
vertex -0.012821 0.158000 0.003538
vertex -0.015436 0.158000 0.005334
endloop
endfacet
facet normal 0.000000 1.000000 0.000000
outer loop
vertex 0.015436 0.158000 0.005334
vertex -0.015436 0.158000 0.005334
vertex 0.017802 0.158000 0.007448
endloop
endfacet
facet normal 0.000000 1.000000 0.000003
outer loop
vertex 0.017802 0.158000 0.007448
vertex -0.015436 0.158000 0.005334
vertex -0.017802 0.158000 0.007448
endloop
endfacet
facet normal 0.000000 1.000000 0.000000
outer loop
vertex 0.017802 0.158000 0.007448
vertex -0.017802 0.158000 0.007448
vertex 0.019882 0.158000 0.009843
endloop
endfacet
facet normal 0.000000 1.000000 0.000000
outer loop
vertex 0.019882 0.158000 0.009843
vertex -0.017802 0.158000 0.007448
vertex -0.019882 0.158000 0.009843
endloop
endfacet
facet normal 0.000000 1.000000 0.000000
outer loop
vertex 0.019882 0.158000 0.009843
vertex -0.019882 0.158000 0.009843
vertex 0.021641 0.158000 0.012483
endloop
endfacet
facet normal 0.000000 1.000000 -0.000003
outer loop
vertex 0.021641 0.158000 0.012483
vertex -0.019882 0.158000 0.009843
vertex -0.021641 0.158000 0.012483
endloop
endfacet
facet normal 0.000000 1.000000 0.000008
outer loop
vertex 0.021641 0.158000 0.012483
vertex -0.021641 0.158000 0.012483
vertex 0.023052 0.158000 0.015324
endloop
endfacet
facet normal 0.000000 1.000000 -0.000001
outer loop
vertex 0.023052 0.158000 0.015324
vertex -0.021641 0.158000 0.012483
vertex -0.023052 0.158000 0.015324
endloop
endfacet
facet normal 0.000000 1.000000 0.000000
outer loop
vertex 0.023052 0.158000 0.015324
vertex -0.023052 0.158000 0.015324
vertex 0.024091 0.158000 0.018322
endloop
endfacet
facet normal 0.000000 1.000000 -0.000001
outer loop
vertex 0.024091 0.158000 0.018322
vertex -0.023052 0.158000 0.015324
vertex -0.024091 0.158000 0.018322
endloop
endfacet
facet normal 0.000000 1.000000 0.000000
outer loop
vertex 0.024091 0.158000 0.018322
vertex -0.024091 0.158000 0.018322
vertex 0.024743 0.158000 0.021426
endloop
endfacet
facet normal 0.000000 1.000000 -0.000003
outer loop
vertex 0.024743 0.158000 0.021426
vertex -0.024091 0.158000 0.018322
vertex -0.024743 0.158000 0.021426
endloop
endfacet
facet normal 0.000000 1.000000 -0.000012
outer loop
vertex 0.024743 0.158000 0.021426
vertex -0.024743 0.158000 0.021426
vertex 0.024997 0.158000 0.024589
endloop
endfacet
facet normal 0.000000 1.000000 0.000004
outer loop
vertex 0.024997 0.158000 0.024589
vertex -0.024743 0.158000 0.021426
vertex -0.024997 0.158000 0.024589
endloop
endfacet
facet normal 0.000000 1.000000 0.000000
outer loop
vertex 0.024997 0.158000 0.024589
vertex -0.024997 0.158000 0.024589
vertex 0.024847 0.158000 0.027757
endloop
endfacet
facet normal 0.000000 1.000000 0.000004
outer loop
vertex 0.024847 0.158000 0.027757
vertex -0.024997 0.158000 0.024589
vertex -0.024847 0.158000 0.027757
endloop
endfacet
facet normal 0.000000 1.000000 0.000000
outer loop
vertex 0.024847 0.158000 0.027757
vertex -0.024847 0.158000 0.027757
vertex 0.024298 0.158000 0.030882
endloop
endfacet
facet normal 0.000000 1.000000 -0.000006
outer loop
vertex 0.024298 0.158000 0.030882
vertex -0.024847 0.158000 0.027757
vertex -0.024298 0.158000 0.030882
endloop
endfacet
facet normal 0.000000 1.000000 0.000006
outer loop
vertex 0.024298 0.158000 0.030882
vertex -0.024298 0.158000 0.030882
vertex 0.023358 0.158000 0.033912
endloop
endfacet
facet normal 0.000000 1.000000 -0.000002
outer loop
vertex 0.023358 0.158000 0.033912
vertex -0.024298 0.158000 0.030882
vertex -0.023358 0.158000 0.033912
endloop
endfacet
facet normal 0.000000 1.000000 0.000000
outer loop
vertex 0.023358 0.158000 0.033912
vertex -0.023358 0.158000 0.033912
vertex 0.022041 0.158000 0.036798
endloop
endfacet
facet normal 0.000000 1.000000 0.000005
outer loop
vertex 0.022041 0.158000 0.036798
vertex -0.023358 0.158000 0.033912
vertex -0.022041 0.158000 0.036798
endloop
endfacet
facet normal 0.000000 1.000000 -0.000008
outer loop
vertex 0.022041 0.158000 0.036798
vertex -0.022041 0.158000 0.036798
vertex 0.020370 0.158000 0.039494
endloop
endfacet
facet normal 0.000000 1.000000 0.000007
outer loop
vertex 0.020370 0.158000 0.039494
vertex -0.022041 0.158000 0.036798
vertex -0.020370 0.158000 0.039494
endloop
endfacet
facet normal 0.000000 1.000000 0.000000
outer loop
vertex 0.020370 0.158000 0.039494
vertex -0.020370 0.158000 0.039494
vertex 0.018370 0.158000 0.041957
endloop
endfacet
facet normal 0.000000 1.000000 -0.000006
outer loop
vertex 0.018370 0.158000 0.041957
vertex -0.020370 0.158000 0.039494
vertex -0.018370 0.158000 0.041957
endloop
endfacet
facet normal 0.000000 1.000000 0.000012
outer loop
vertex 0.018370 0.158000 0.041957
vertex -0.018370 0.158000 0.041957
vertex 0.016075 0.158000 0.044147
endloop
endfacet
facet normal 0.000000 1.000000 -0.000005
outer loop
vertex 0.016075 0.158000 0.044147
vertex -0.018370 0.158000 0.041957
vertex -0.016075 0.158000 0.044147
endloop
endfacet
facet normal 0.000000 1.000000 0.000000
outer loop
vertex 0.016075 0.158000 0.044147
vertex -0.016075 0.158000 0.044147
vertex 0.013520 0.158000 0.046028
endloop
endfacet
facet normal 0.000000 1.000000 0.000001
outer loop
vertex 0.013520 0.158000 0.046028
vertex -0.016075 0.158000 0.044147
vertex -0.013520 0.158000 0.046028
endloop
endfacet
facet normal 0.000000 1.000000 0.000000
outer loop
vertex 0.013520 0.158000 0.046028
vertex -0.013520 0.158000 0.046028
vertex 0.010749 0.158000 0.047571
endloop
endfacet
facet normal 0.000000 1.000000 -0.000005
outer loop
vertex 0.010749 0.158000 0.047571
vertex -0.013520 0.158000 0.046028
vertex -0.010749 0.158000 0.047571
endloop
endfacet
facet normal 0.000000 1.000000 0.000000
outer loop
vertex 0.010749 0.158000 0.047571
vertex -0.010749 0.158000 0.047571
vertex 0.007804 0.158000 0.048751
endloop
endfacet
facet normal 0.000000 1.000000 0.000003
outer loop
vertex 0.007804 0.158000 0.048751
vertex -0.010749 0.158000 0.047571
vertex -0.007804 0.158000 0.048751
endloop
endfacet
facet normal 0.000000 1.000000 0.000000
outer loop
vertex 0.007804 0.158000 0.048751
vertex -0.007804 0.158000 0.048751
vertex 0.004733 0.158000 0.049548
endloop
endfacet
facet normal 0.000000 1.000000 0.000015
outer loop
vertex 0.004733 0.158000 0.049548
vertex -0.007804 0.158000 0.048751
vertex -0.004733 0.158000 0.049548
endloop
endfacet
facet normal 0.000000 1.000000 -0.000061
outer loop
vertex 0.004733 0.158000 0.049548
vertex -0.004733 0.158000 0.049548
vertex 0.001586 0.158000 0.049950
endloop
endfacet
facet normal 0.000000 1.000000 0.000183
outer loop
vertex 0.001586 0.158000 0.049950
vertex -0.004733 0.158000 0.049548
vertex -0.001586 0.158000 0.049950
endloop
endfacet
facet normal 0.000000 -1.000000 0.000000
outer loop
vertex -0.010000 -0.158000 0.000000
vertex 0.010000 -0.158000 0.000000
vertex -0.010000 -0.158000 0.002087
endloop
endfacet
facet normal 0.000000 -1.000000 0.000000
outer loop
vertex -0.010000 -0.158000 0.002087
vertex 0.010000 -0.158000 0.000000
vertex 0.010000 -0.158000 0.002087
endloop
endfacet
facet normal 0.000000 -1.000000 -0.000006
outer loop
vertex -0.010000 -0.158000 0.002087
vertex 0.010000 -0.158000 0.002087
vertex 0.012821 -0.158000 0.003538
endloop
endfacet
facet normal 0.000000 -1.000000 0.000000
outer loop
vertex -0.010000 -0.158000 0.002087
vertex 0.012821 -0.158000 0.003538
vertex -0.012821 -0.158000 0.003538
endloop
endfacet
facet normal 0.000000 -1.000000 0.000000
outer loop
vertex -0.012821 -0.158000 0.003538
vertex 0.012821 -0.158000 0.003538
vertex 0.015436 -0.158000 0.005334
endloop
endfacet
facet normal 0.000000 -1.000000 0.000000
outer loop
vertex -0.012821 -0.158000 0.003538
vertex 0.015436 -0.158000 0.005334
vertex -0.015436 -0.158000 0.005334
endloop
endfacet
facet normal 0.000000 -1.000000 0.000004
outer loop
vertex -0.015436 -0.158000 0.005334
vertex 0.015436 -0.158000 0.005334
vertex 0.017802 -0.158000 0.007448
endloop
endfacet
facet normal 0.000000 -1.000000 0.000000
outer loop
vertex -0.015436 -0.158000 0.005334
vertex 0.017802 -0.158000 0.007448
vertex -0.017802 -0.158000 0.007448
endloop
endfacet
facet normal 0.000000 -1.000000 0.000000
outer loop
vertex -0.017802 -0.158000 0.007448
vertex 0.017802 -0.158000 0.007448
vertex 0.019882 -0.158000 0.009843
endloop
endfacet
facet normal 0.000000 -1.000000 0.000000
outer loop
vertex -0.017802 -0.158000 0.007448
vertex 0.019882 -0.158000 0.009843
vertex -0.019882 -0.158000 0.009843
endloop
endfacet
facet normal 0.000000 -1.000000 -0.000003
outer loop
vertex -0.019882 -0.158000 0.009843
vertex 0.019882 -0.158000 0.009843
vertex 0.021641 -0.158000 0.012483
endloop
endfacet
facet normal 0.000000 -1.000000 0.000000
outer loop
vertex -0.019882 -0.158000 0.009843
vertex 0.021641 -0.158000 0.012483
vertex -0.021641 -0.158000 0.012483
endloop
endfacet
facet normal 0.000000 -1.000000 0.000006
outer loop
vertex -0.021641 -0.158000 0.012483
vertex 0.021641 -0.158000 0.012483
vertex 0.023052 -0.158000 0.015324
endloop
endfacet
facet normal 0.000000 -1.000000 0.000000
outer loop
vertex -0.021641 -0.158000 0.012483
vertex 0.023052 -0.158000 0.015324
vertex -0.023052 -0.158000 0.015324
endloop
endfacet
facet normal 0.000000 -1.000000 -0.000001
outer loop
vertex -0.023052 -0.158000 0.015324
vertex 0.023052 -0.158000 0.015324
vertex 0.024091 -0.158000 0.018322
endloop
endfacet
facet normal 0.000000 -1.000000 0.000000
outer loop
vertex -0.023052 -0.158000 0.015324
vertex 0.024091 -0.158000 0.018322
vertex -0.024091 -0.158000 0.018322
endloop
endfacet
facet normal 0.000000 -1.000000 0.000003
outer loop
vertex -0.024091 -0.158000 0.018322
vertex 0.024091 -0.158000 0.018322
vertex 0.024743 -0.158000 0.021426
endloop
endfacet
facet normal 0.000000 -1.000000 0.000000
outer loop
vertex -0.024091 -0.158000 0.018322
vertex 0.024743 -0.158000 0.021426
vertex -0.024743 -0.158000 0.021426
endloop
endfacet
facet normal 0.000000 -1.000000 -0.000007
outer loop
vertex -0.024743 -0.158000 0.021426
vertex 0.024743 -0.158000 0.021426
vertex 0.024997 -0.158000 0.024589
endloop
endfacet
facet normal 0.000000 -1.000000 0.000000
outer loop
vertex -0.024743 -0.158000 0.021426
vertex 0.024997 -0.158000 0.024589
vertex -0.024997 -0.158000 0.024589
endloop
endfacet
facet normal 0.000000 -1.000000 0.000004
outer loop
vertex -0.024997 -0.158000 0.024589
vertex 0.024997 -0.158000 0.024589
vertex 0.024847 -0.158000 0.027757
endloop
endfacet
facet normal 0.000000 -1.000000 0.000000
outer loop
vertex -0.024997 -0.158000 0.024589
vertex 0.024847 -0.158000 0.027757
vertex -0.024847 -0.158000 0.027757
endloop
endfacet
facet normal 0.000000 -1.000000 0.000001
outer loop
vertex -0.024847 -0.158000 0.027757
vertex 0.024847 -0.158000 0.027757
vertex 0.024298 -0.158000 0.030882
endloop
endfacet
facet normal 0.000000 -1.000000 -0.000006
outer loop
vertex -0.024847 -0.158000 0.027757
vertex 0.024298 -0.158000 0.030882
vertex -0.024298 -0.158000 0.030882
endloop
endfacet
facet normal 0.000000 -1.000000 0.000004
outer loop
vertex -0.024298 -0.158000 0.030882
vertex 0.024298 -0.158000 0.030882
vertex 0.023358 -0.158000 0.033912
endloop
endfacet
facet normal 0.000000 -1.000000 0.000000
outer loop
vertex -0.024298 -0.158000 0.030882
vertex 0.023358 -0.158000 0.033912
vertex -0.023358 -0.158000 0.033912
endloop
endfacet
facet normal 0.000000 -1.000000 -0.000002
outer loop
vertex -0.023358 -0.158000 0.033912
vertex 0.023358 -0.158000 0.033912
vertex 0.022041 -0.158000 0.036798
endloop
endfacet
facet normal 0.000000 -1.000000 0.000007
outer loop
vertex -0.023358 -0.158000 0.033912
vertex 0.022041 -0.158000 0.036798
vertex -0.022041 -0.158000 0.036798
endloop
endfacet
facet normal 0.000000 -1.000000 -0.000009
outer loop
vertex -0.022041 -0.158000 0.036798
vertex 0.022041 -0.158000 0.036798
vertex 0.020370 -0.158000 0.039494
endloop
endfacet
facet normal 0.000000 -1.000000 0.000008
outer loop
vertex -0.022041 -0.158000 0.036798
vertex 0.020370 -0.158000 0.039494
vertex -0.020370 -0.158000 0.039494
endloop
endfacet
facet normal 0.000000 -1.000000 0.000000
outer loop
vertex -0.020370 -0.158000 0.039494
vertex 0.020370 -0.158000 0.039494
vertex 0.018370 -0.158000 0.041957
endloop
endfacet
facet normal 0.000000 -1.000000 -0.000010
outer loop
vertex -0.020370 -0.158000 0.039494
vertex 0.018370 -0.158000 0.041957
vertex -0.018370 -0.158000 0.041957
endloop
endfacet
facet normal 0.000000 -1.000000 0.000012
outer loop
vertex -0.018370 -0.158000 0.041957
vertex 0.018370 -0.158000 0.041957
vertex 0.016075 -0.158000 0.044147
endloop
endfacet
facet normal 0.000000 -1.000000 0.000000
outer loop
vertex -0.018370 -0.158000 0.041957
vertex 0.016075 -0.158000 0.044147
vertex -0.016075 -0.158000 0.044147
endloop
endfacet
facet normal 0.000000 -1.000000 0.000001
outer loop
vertex -0.016075 -0.158000 0.044147
vertex 0.016075 -0.158000 0.044147
vertex 0.013520 -0.158000 0.046028
endloop
endfacet
facet normal 0.000000 -1.000000 0.000000
outer loop
vertex -0.016075 -0.158000 0.044147
vertex 0.013520 -0.158000 0.046028
vertex -0.013520 -0.158000 0.046028
endloop
endfacet
facet normal 0.000000 -1.000000 -0.000004
outer loop
vertex -0.013520 -0.158000 0.046028
vertex 0.013520 -0.158000 0.046028
vertex 0.010749 -0.158000 0.047571
endloop
endfacet
facet normal 0.000000 -1.000000 0.000000
outer loop
vertex -0.013520 -0.158000 0.046028
vertex 0.010749 -0.158000 0.047571
vertex -0.010749 -0.158000 0.047571
endloop
endfacet
facet normal 0.000000 -1.000000 0.000002
outer loop
vertex -0.010749 -0.158000 0.047571
vertex 0.010749 -0.158000 0.047571
vertex 0.007804 -0.158000 0.048751
endloop
endfacet
facet normal 0.000000 -1.000000 0.000000
outer loop
vertex -0.010749 -0.158000 0.047571
vertex 0.007804 -0.158000 0.048751
vertex -0.007804 -0.158000 0.048751
endloop
endfacet
facet normal 0.000000 -1.000000 -0.000009
outer loop
vertex -0.007804 -0.158000 0.048751
vertex 0.007804 -0.158000 0.048751
vertex 0.004733 -0.158000 0.049548
endloop
endfacet
facet normal 0.000000 -1.000000 0.000031
outer loop
vertex -0.007804 -0.158000 0.048751
vertex 0.004733 -0.158000 0.049548
vertex -0.004733 -0.158000 0.049548
endloop
endfacet
facet normal 0.000000 -1.000000 -0.000031
outer loop
vertex -0.004733 -0.158000 0.049548
vertex 0.004733 -0.158000 0.049548
vertex 0.001586 -0.158000 0.049950
endloop
endfacet
facet normal 0.000000 -1.000000 0.000183
outer loop
vertex -0.004733 -0.158000 0.049548
vertex 0.001586 -0.158000 0.049950
vertex -0.001586 -0.158000 0.049950
endloop
endfacet
endsolid obstacle
