solid cylinder
facet normal 0.000000 0.000000 -1.000000
outer loop
vertex 0.127160 -0.200248 0.000000
vertex 0.109840 -0.210248 0.000000
vertex -0.109840 0.210248 0.000000
endloop
endfacet
facet normal 0.000000 0.000000 -1.000000
outer loop
vertex -0.109840 0.210248 0.000000
vertex 0.109840 -0.210248 0.000000
vertex -0.127160 0.200248 0.000000
endloop
endfacet
facet normal 0.866025 0.500000 0.000000
outer loop
vertex 0.127160 -0.200248 0.002087
vertex 0.127160 -0.200248 0.000000
vertex -0.109840 0.210248 0.002087
endloop
endfacet
facet normal 0.866025 0.500000 0.000000
outer loop
vertex -0.109840 0.210248 0.002087
vertex 0.127160 -0.200248 0.000000
vertex -0.109840 0.210248 0.000000
endloop
endfacet
facet normal -0.405603 -0.234052 -0.883576
outer loop
vertex 0.106941 -0.211922 0.003861
vertex 0.067362 -0.143551 0.003919
vertex 0.109840 -0.210248 0.002087
endloop
endfacet
facet normal -0.407204 -0.235099 -0.882561
outer loop
vertex 0.109840 -0.210248 0.002087
vertex 0.067362 -0.143551 0.003919
vertex 0.027862 -0.075135 0.003919
endloop
endfacet
facet normal -0.407207 -0.235101 -0.882559
outer loop
vertex 0.109840 -0.210248 0.002087
vertex 0.027862 -0.075135 0.003919
vertex -0.011638 -0.006719 0.003919
endloop
endfacet
facet normal -0.521015 -0.300808 -0.798786
outer loop
vertex -0.011638 -0.006719 0.003919
vertex 0.027862 -0.075135 0.003919
vertex -0.014333 -0.008275 0.006263
endloop
endfacet
facet normal -0.521015 -0.300808 -0.798785
outer loop
vertex -0.011638 -0.006719 0.003919
vertex -0.014333 -0.008275 0.006263
vertex -0.053833 0.060141 0.006263
endloop
endfacet
facet normal -0.622170 -0.359210 -0.695610
outer loop
vertex -0.053833 0.060141 0.006263
vertex -0.014333 -0.008275 0.006263
vertex -0.056180 0.058786 0.009062
endloop
endfacet
facet normal -0.622171 -0.359210 -0.695609
outer loop
vertex -0.053833 0.060141 0.006263
vertex -0.056180 0.058786 0.009062
vertex -0.095681 0.127202 0.009062
endloop
endfacet
facet normal -0.708213 -0.408887 -0.575539
outer loop
vertex -0.095681 0.127202 0.009062
vertex -0.056180 0.058786 0.009062
vertex -0.097622 0.126080 0.012248
endloop
endfacet
facet normal -0.708023 -0.409216 -0.575539
outer loop
vertex -0.095681 0.127202 0.009062
vertex -0.097622 0.126080 0.012248
vertex -0.136928 0.194608 0.011878
endloop
endfacet
facet normal -0.769634 -0.443924 -0.458906
outer loop
vertex -0.136928 0.194608 0.011878
vertex -0.097622 0.126080 0.012248
vertex -0.138434 0.193739 0.015243
endloop
endfacet
facet normal -0.776825 -0.449032 -0.441490
outer loop
vertex -0.138434 0.193739 0.015243
vertex -0.097622 0.126080 0.012248
vertex -0.099112 0.125220 0.015744
endloop
endfacet
facet normal -0.820887 -0.473425 -0.319396
outer loop
vertex -0.138434 0.193739 0.015243
vertex -0.099112 0.125220 0.015744
vertex -0.139482 0.193134 0.018833
endloop
endfacet
facet normal -0.826757 -0.477946 -0.296716
outer loop
vertex -0.139482 0.193134 0.018833
vertex -0.099112 0.125220 0.015744
vertex -0.100113 0.124642 0.019465
endloop
endfacet
facet normal -0.853293 -0.492053 -0.172554
outer loop
vertex -0.139482 0.193134 0.018833
vertex -0.100113 0.124642 0.019465
vertex -0.140048 0.192808 0.022564
endloop
endfacet
facet normal -0.856604 -0.495256 -0.144741
outer loop
vertex -0.140048 0.192808 0.022564
vertex -0.100113 0.124642 0.019465
vertex -0.100602 0.124360 0.023320
endloop
endfacet
facet normal -0.866111 -0.499378 -0.021747
outer loop
vertex -0.140048 0.192808 0.022564
vertex -0.100602 0.124360 0.023320
vertex -0.140119 0.192766 0.026352
endloop
endfacet
facet normal -0.865642 -0.500547 0.010751
outer loop
vertex -0.140119 0.192766 0.026352
vertex -0.100602 0.124360 0.023320
vertex -0.100565 0.124381 0.027216
endloop
endfacet
facet normal -0.859047 -0.495230 0.129558
outer loop
vertex -0.140119 0.192766 0.026352
vertex -0.100565 0.124381 0.027216
vertex -0.139694 0.193012 0.030108
endloop
endfacet
facet normal -0.853651 -0.493689 0.165984
outer loop
vertex -0.139694 0.193012 0.030108
vertex -0.100565 0.124381 0.027216
vertex -0.100005 0.124705 0.031058
endloop
endfacet
facet normal -0.832262 -0.479704 0.277894
outer loop
vertex -0.139694 0.193012 0.030108
vertex -0.100005 0.124705 0.031058
vertex -0.138782 0.193538 0.033747
endloop
endfacet
facet normal -0.820920 -0.474851 0.317186
outer loop
vertex -0.138782 0.193538 0.033747
vertex -0.100005 0.124705 0.031058
vertex -0.098935 0.125323 0.034753
endloop
endfacet
facet normal -0.786374 -0.453156 0.419840
outer loop
vertex -0.138782 0.193538 0.033747
vertex -0.098935 0.125323 0.034753
vertex -0.137405 0.194333 0.037185
endloop
endfacet
facet normal -0.768246 -0.444490 0.460680
outer loop
vertex -0.137405 0.194333 0.037185
vertex -0.098935 0.125323 0.034753
vertex -0.097381 0.126220 0.038211
endloop
endfacet
facet normal -0.722439 -0.416194 0.552146
outer loop
vertex -0.137405 0.194333 0.037185
vertex -0.097381 0.126220 0.038211
vertex -0.135594 0.195379 0.040343
endloop
endfacet
facet normal -0.696903 -0.403344 0.592992
outer loop
vertex -0.135594 0.195379 0.040343
vertex -0.097381 0.126220 0.038211
vertex -0.095380 0.127375 0.041348
endloop
endfacet
facet normal -0.641921 -0.369667 0.671776
outer loop
vertex -0.135594 0.195379 0.040343
vertex -0.095380 0.127375 0.041348
vertex -0.133390 0.196651 0.043149
endloop
endfacet
facet normal -0.608627 -0.352417 0.710898
outer loop
vertex -0.133390 0.196651 0.043149
vertex -0.095380 0.127375 0.041348
vertex -0.092981 0.128760 0.044088
endloop
endfacet
facet normal -0.546667 -0.314636 0.775989
outer loop
vertex -0.116781 0.172359 0.045000
vertex -0.131418 0.197790 0.045000
vertex -0.133390 0.196651 0.043149
endloop
endfacet
facet normal -0.546669 -0.314639 0.775987
outer loop
vertex -0.116781 0.172359 0.045000
vertex -0.133390 0.196651 0.043149
vertex -0.092981 0.128760 0.044088
endloop
endfacet
facet normal -0.505561 -0.292942 0.811537
outer loop
vertex -0.116781 0.172359 0.045000
vertex -0.092981 0.128760 0.044088
vertex -0.091885 0.129393 0.045000
endloop
endfacet
facet normal 0.506471 0.291356 0.811541
outer loop
vertex -0.090877 0.187315 0.045000
vertex -0.066115 0.144271 0.045000
vertex -0.065019 0.144904 0.044088
endloop
endfacet
facet normal 0.545820 0.316110 0.775987
outer loop
vertex -0.090877 0.187315 0.045000
vertex -0.065019 0.144904 0.044088
vertex -0.103610 0.213845 0.043149
endloop
endfacet
facet normal 0.545822 0.316111 0.775985
outer loop
vertex -0.090877 0.187315 0.045000
vertex -0.103610 0.213845 0.043149
vertex -0.105582 0.212706 0.045000
endloop
endfacet
facet normal 0.609515 0.350879 0.710898
outer loop
vertex -0.103610 0.213845 0.043149
vertex -0.065019 0.144904 0.044088
vertex -0.062620 0.146289 0.041348
endloop
endfacet
facet normal 0.641101 0.371086 0.671778
outer loop
vertex -0.103610 0.213845 0.043149
vertex -0.062620 0.146289 0.041348
vertex -0.101406 0.215117 0.040343
endloop
endfacet
facet normal 0.697759 0.401864 0.592991
outer loop
vertex -0.101406 0.215117 0.040343
vertex -0.062620 0.146289 0.041348
vertex -0.060619 0.147444 0.038211
endloop
endfacet
facet normal 0.721653 0.417551 0.552148
outer loop
vertex -0.101406 0.215117 0.040343
vertex -0.060619 0.147444 0.038211
vertex -0.099595 0.216163 0.037185
endloop
endfacet
facet normal 0.769063 0.443076 0.460680
outer loop
vertex -0.099595 0.216163 0.037185
vertex -0.060619 0.147444 0.038211
vertex -0.059065 0.148342 0.034753
endloop
endfacet
facet normal 0.785633 0.454443 0.419837
outer loop
vertex -0.099595 0.216163 0.037185
vertex -0.059065 0.148342 0.034753
vertex -0.098218 0.216958 0.033747
endloop
endfacet
facet normal 0.821693 0.473514 0.317184
outer loop
vertex -0.098218 0.216958 0.033747
vertex -0.059065 0.148342 0.034753
vertex -0.057995 0.148959 0.031058
endloop
endfacet
facet normal 0.831567 0.480907 0.277893
outer loop
vertex -0.098218 0.216958 0.033747
vertex -0.057995 0.148959 0.031058
vertex -0.097306 0.217484 0.030108
endloop
endfacet
facet normal 0.854373 0.492439 0.165985
outer loop
vertex -0.097306 0.217484 0.030108
vertex -0.057995 0.148959 0.031058
vertex -0.057435 0.149283 0.027216
endloop
endfacet
facet normal 0.858406 0.496341 0.129558
outer loop
vertex -0.097306 0.217484 0.030108
vertex -0.057435 0.149283 0.027216
vertex -0.096881 0.217730 0.026352
endloop
endfacet
facet normal 0.866308 0.499395 0.010751
outer loop
vertex -0.096881 0.217730 0.026352
vertex -0.057435 0.149283 0.027216
vertex -0.057398 0.149304 0.023320
endloop
endfacet
facet normal 0.865529 0.500386 -0.021750
outer loop
vertex -0.096881 0.217730 0.026352
vertex -0.057398 0.149304 0.023320
vertex -0.096952 0.217689 0.022564
endloop
endfacet
facet normal 0.857207 0.494213 -0.144739
outer loop
vertex -0.096952 0.217689 0.022564
vertex -0.057398 0.149304 0.023320
vertex -0.057887 0.149022 0.019465
endloop
endfacet
facet normal 0.852776 0.492948 -0.172554
outer loop
vertex -0.096952 0.217689 0.022564
vertex -0.057887 0.149022 0.019465
vertex -0.097518 0.217362 0.018833
endloop
endfacet
facet normal 0.827291 0.477020 -0.296720
outer loop
vertex -0.097518 0.217362 0.018833
vertex -0.057887 0.149022 0.019465
vertex -0.058888 0.148444 0.015744
endloop
endfacet
facet normal 0.820442 0.474197 -0.319393
outer loop
vertex -0.097518 0.217362 0.018833
vertex -0.058888 0.148444 0.015744
vertex -0.098566 0.216757 0.015243
endloop
endfacet
facet normal 0.777286 0.448235 -0.441489
outer loop
vertex -0.098566 0.216757 0.015243
vertex -0.058888 0.148444 0.015744
vertex -0.060378 0.147584 0.012248
endloop
endfacet
facet normal 0.769267 0.444562 -0.458903
outer loop
vertex -0.098566 0.216757 0.015243
vertex -0.060378 0.147584 0.012248
vertex -0.100072 0.215888 0.011878
endloop
endfacet
facet normal 0.708403 0.408558 -0.575539
outer loop
vertex -0.100072 0.215888 0.011878
vertex -0.060378 0.147584 0.012248
vertex -0.062320 0.146463 0.009062
endloop
endfacet
facet normal 0.700427 0.404721 -0.587881
outer loop
vertex -0.100072 0.215888 0.011878
vertex -0.062320 0.146463 0.009062
vertex -0.102000 0.214774 0.008813
endloop
endfacet
facet normal 0.622319 0.358956 -0.695608
outer loop
vertex -0.102000 0.214774 0.008813
vertex -0.062320 0.146463 0.009062
vertex -0.064667 0.145107 0.006263
endloop
endfacet
facet normal 0.615509 0.355590 -0.703352
outer loop
vertex -0.102000 0.214774 0.008813
vertex -0.064667 0.145107 0.006263
vertex -0.104308 0.213442 0.006120
endloop
endfacet
facet normal 0.521116 0.300633 -0.798785
outer loop
vertex -0.104308 0.213442 0.006120
vertex -0.064667 0.145107 0.006263
vertex -0.067362 0.143551 0.003919
endloop
endfacet
facet normal 0.516458 0.298294 -0.802678
outer loop
vertex -0.104308 0.213442 0.006120
vertex -0.067362 0.143551 0.003919
vertex -0.106941 0.211922 0.003861
endloop
endfacet
facet normal 0.405603 0.234052 -0.883575
outer loop
vertex -0.106941 0.211922 0.003861
vertex -0.067362 0.143551 0.003919
vertex -0.109840 0.210248 0.002087
endloop
endfacet
facet normal 0.407203 0.235099 -0.882561
outer loop
vertex -0.109840 0.210248 0.002087
vertex -0.067362 0.143551 0.003919
vertex -0.027862 0.075135 0.003919
endloop
endfacet
facet normal 0.407208 0.235102 -0.882558
outer loop
vertex -0.109840 0.210248 0.002087
vertex -0.027862 0.075135 0.003919
vertex 0.011638 0.006719 0.003919
endloop
endfacet
facet normal 0.521015 0.300808 -0.798785
outer loop
vertex 0.011638 0.006719 0.003919
vertex -0.027862 0.075135 0.003919
vertex 0.014333 0.008275 0.006263
endloop
endfacet
facet normal 0.521015 0.300808 -0.798785
outer loop
vertex 0.011638 0.006719 0.003919
vertex 0.014333 0.008275 0.006263
vertex 0.053833 -0.060141 0.006263
endloop
endfacet
facet normal 0.622170 0.359210 -0.695610
outer loop
vertex 0.053833 -0.060141 0.006263
vertex 0.014333 0.008275 0.006263
vertex 0.056180 -0.058786 0.009062
endloop
endfacet
facet normal 0.622169 0.359210 -0.695611
outer loop
vertex 0.053833 -0.060141 0.006263
vertex 0.056180 -0.058786 0.009062
vertex 0.095681 -0.127202 0.009062
endloop
endfacet
facet normal 0.708213 0.408887 -0.575540
outer loop
vertex 0.095681 -0.127202 0.009062
vertex 0.056180 -0.058786 0.009062
vertex 0.097622 -0.126080 0.012248
endloop
endfacet
facet normal 0.708023 0.409216 -0.575539
outer loop
vertex 0.095681 -0.127202 0.009062
vertex 0.097622 -0.126080 0.012248
vertex 0.136928 -0.194608 0.011878
endloop
endfacet
facet normal 0.769633 0.443923 -0.458908
outer loop
vertex 0.136928 -0.194608 0.011878
vertex 0.097622 -0.126080 0.012248
vertex 0.138434 -0.193739 0.015243
endloop
endfacet
facet normal 0.776826 0.449032 -0.441488
outer loop
vertex 0.138434 -0.193739 0.015243
vertex 0.097622 -0.126080 0.012248
vertex 0.099112 -0.125220 0.015744
endloop
endfacet
facet normal 0.820887 0.473425 -0.319396
outer loop
vertex 0.138434 -0.193739 0.015243
vertex 0.099112 -0.125220 0.015744
vertex 0.139482 -0.193134 0.018833
endloop
endfacet
facet normal 0.826756 0.477945 -0.296719
outer loop
vertex 0.139482 -0.193134 0.018833
vertex 0.099112 -0.125220 0.015744
vertex 0.100113 -0.124642 0.019465
endloop
endfacet
facet normal 0.853294 0.492053 -0.172551
outer loop
vertex 0.139482 -0.193134 0.018833
vertex 0.100113 -0.124642 0.019465
vertex 0.140048 -0.192807 0.022564
endloop
endfacet
facet normal 0.856604 0.495256 -0.144741
outer loop
vertex 0.140048 -0.192807 0.022564
vertex 0.100113 -0.124642 0.019465
vertex 0.100602 -0.124360 0.023320
endloop
endfacet
facet normal 0.866111 0.499378 -0.021747
outer loop
vertex 0.140048 -0.192807 0.022564
vertex 0.100602 -0.124360 0.023320
vertex 0.140119 -0.192766 0.026352
endloop
endfacet
facet normal 0.865642 0.500547 0.010751
outer loop
vertex 0.140119 -0.192766 0.026352
vertex 0.100602 -0.124360 0.023320
vertex 0.100565 -0.124381 0.027216
endloop
endfacet
facet normal 0.859048 0.495230 0.129555
outer loop
vertex 0.140119 -0.192766 0.026352
vertex 0.100565 -0.124381 0.027216
vertex 0.139694 -0.193012 0.030108
endloop
endfacet
facet normal 0.853651 0.493689 0.165987
outer loop
vertex 0.139694 -0.193012 0.030108
vertex 0.100565 -0.124381 0.027216
vertex 0.100005 -0.124705 0.031058
endloop
endfacet
facet normal 0.832262 0.479704 0.277894
outer loop
vertex 0.139694 -0.193012 0.030108
vertex 0.100005 -0.124705 0.031058
vertex 0.138782 -0.193538 0.033747
endloop
endfacet
facet normal 0.820920 0.474850 0.317186
outer loop
vertex 0.138782 -0.193538 0.033747
vertex 0.100005 -0.124705 0.031058
vertex 0.098935 -0.125322 0.034753
endloop
endfacet
facet normal 0.786375 0.453157 0.419837
outer loop
vertex 0.138782 -0.193538 0.033747
vertex 0.098935 -0.125322 0.034753
vertex 0.137405 -0.194333 0.037185
endloop
endfacet
facet normal 0.768246 0.444490 0.460680
outer loop
vertex 0.137405 -0.194333 0.037185
vertex 0.098935 -0.125322 0.034753
vertex 0.097381 -0.126220 0.038211
endloop
endfacet
facet normal 0.722440 0.416195 0.552144
outer loop
vertex 0.137405 -0.194333 0.037185
vertex 0.097381 -0.126220 0.038211
vertex 0.135594 -0.195379 0.040343
endloop
endfacet
facet normal 0.696903 0.403344 0.592992
outer loop
vertex 0.135594 -0.195379 0.040343
vertex 0.097381 -0.126220 0.038211
vertex 0.095380 -0.127375 0.041348
endloop
endfacet
facet normal 0.641921 0.369667 0.671776
outer loop
vertex 0.135594 -0.195379 0.040343
vertex 0.095380 -0.127375 0.041348
vertex 0.133390 -0.196651 0.043149
endloop
endfacet
facet normal 0.608626 0.352417 0.710898
outer loop
vertex 0.133390 -0.196651 0.043149
vertex 0.095380 -0.127375 0.041348
vertex 0.092981 -0.128760 0.044088
endloop
endfacet
facet normal 0.546669 0.314639 0.775987
outer loop
vertex 0.133390 -0.196651 0.043149
vertex 0.092981 -0.128760 0.044088
vertex 0.116781 -0.172359 0.045000
endloop
endfacet
facet normal 0.546666 0.314636 0.775990
outer loop
vertex 0.133390 -0.196651 0.043149
vertex 0.116781 -0.172359 0.045000
vertex 0.131418 -0.197790 0.045000
endloop
endfacet
facet normal 0.505562 0.292942 0.811537
outer loop
vertex 0.091885 -0.129393 0.045000
vertex 0.116781 -0.172359 0.045000
vertex 0.092981 -0.128760 0.044088
endloop
endfacet
facet normal -0.506469 -0.291355 0.811543
outer loop
vertex 0.065019 -0.144904 0.044088
vertex 0.090877 -0.187315 0.045000
vertex 0.066115 -0.144271 0.045000
endloop
endfacet
facet normal -0.545822 -0.316110 0.775985
outer loop
vertex 0.065019 -0.144904 0.044088
vertex 0.103610 -0.213845 0.043149
vertex 0.105582 -0.212706 0.045000
endloop
endfacet
facet normal -0.545821 -0.316109 0.775987
outer loop
vertex 0.065019 -0.144904 0.044088
vertex 0.105582 -0.212706 0.045000
vertex 0.090877 -0.187315 0.045000
endloop
endfacet
facet normal -0.609514 -0.350879 0.710898
outer loop
vertex 0.103610 -0.213845 0.043149
vertex 0.065019 -0.144904 0.044088
vertex 0.062620 -0.146289 0.041348
endloop
endfacet
facet normal -0.641101 -0.371086 0.671778
outer loop
vertex 0.103610 -0.213845 0.043149
vertex 0.062620 -0.146289 0.041348
vertex 0.101406 -0.215117 0.040343
endloop
endfacet
facet normal -0.697757 -0.401863 0.592993
outer loop
vertex 0.101406 -0.215117 0.040343
vertex 0.062620 -0.146289 0.041348
vertex 0.060619 -0.147444 0.038211
endloop
endfacet
facet normal -0.721654 -0.417552 0.552146
outer loop
vertex 0.101406 -0.215117 0.040343
vertex 0.060619 -0.147444 0.038211
vertex 0.099595 -0.216163 0.037185
endloop
endfacet
facet normal -0.769063 -0.443076 0.460680
outer loop
vertex 0.099595 -0.216163 0.037185
vertex 0.060619 -0.147444 0.038211
vertex 0.059065 -0.148342 0.034753
endloop
endfacet
facet normal -0.785633 -0.454443 0.419837
outer loop
vertex 0.099595 -0.216163 0.037185
vertex 0.059065 -0.148342 0.034753
vertex 0.098218 -0.216958 0.033747
endloop
endfacet
facet normal -0.821692 -0.473514 0.317187
outer loop
vertex 0.098218 -0.216958 0.033747
vertex 0.059065 -0.148342 0.034753
vertex 0.057995 -0.148959 0.031058
endloop
endfacet
facet normal -0.831567 -0.480908 0.277890
outer loop
vertex 0.098218 -0.216958 0.033747
vertex 0.057995 -0.148959 0.031058
vertex 0.097306 -0.217484 0.030108
endloop
endfacet
facet normal -0.854373 -0.492439 0.165985
outer loop
vertex 0.097306 -0.217484 0.030108
vertex 0.057995 -0.148959 0.031058
vertex 0.057435 -0.149283 0.027216
endloop
endfacet
facet normal -0.858406 -0.496341 0.129558
outer loop
vertex 0.097306 -0.217484 0.030108
vertex 0.057435 -0.149283 0.027216
vertex 0.096881 -0.217730 0.026352
endloop
endfacet
facet normal -0.866308 -0.499395 0.010748
outer loop
vertex 0.096881 -0.217730 0.026352
vertex 0.057435 -0.149283 0.027216
vertex 0.057398 -0.149304 0.023320
endloop
endfacet
facet normal -0.865529 -0.500386 -0.021747
outer loop
vertex 0.096881 -0.217730 0.026352
vertex 0.057398 -0.149304 0.023320
vertex 0.096952 -0.217689 0.022564
endloop
endfacet
facet normal -0.857207 -0.494212 -0.144742
outer loop
vertex 0.096952 -0.217689 0.022564
vertex 0.057398 -0.149304 0.023320
vertex 0.057887 -0.149022 0.019465
endloop
endfacet
facet normal -0.852776 -0.492948 -0.172554
outer loop
vertex 0.096952 -0.217689 0.022564
vertex 0.057887 -0.149022 0.019465
vertex 0.097518 -0.217362 0.018833
endloop
endfacet
facet normal -0.827291 -0.477020 -0.296717
outer loop
vertex 0.097518 -0.217362 0.018833
vertex 0.057887 -0.149022 0.019465
vertex 0.058888 -0.148444 0.015744
endloop
endfacet
facet normal -0.820441 -0.474196 -0.319396
outer loop
vertex 0.097518 -0.217362 0.018833
vertex 0.058888 -0.148444 0.015744
vertex 0.098566 -0.216757 0.015243
endloop
endfacet
facet normal -0.777287 -0.448235 -0.441487
outer loop
vertex 0.098566 -0.216757 0.015243
vertex 0.058888 -0.148444 0.015744
vertex 0.060378 -0.147584 0.012248
endloop
endfacet
facet normal -0.769267 -0.444562 -0.458903
outer loop
vertex 0.098566 -0.216757 0.015243
vertex 0.060378 -0.147584 0.012248
vertex 0.100072 -0.215888 0.011878
endloop
endfacet
facet normal -0.708403 -0.408558 -0.575539
outer loop
vertex 0.100072 -0.215888 0.011878
vertex 0.060378 -0.147584 0.012248
vertex 0.062320 -0.146463 0.009062
endloop
endfacet
facet normal -0.700427 -0.404721 -0.587881
outer loop
vertex 0.100072 -0.215888 0.011878
vertex 0.062320 -0.146463 0.009062
vertex 0.102000 -0.214774 0.008813
endloop
endfacet
facet normal -0.622317 -0.358956 -0.695609
outer loop
vertex 0.102000 -0.214774 0.008813
vertex 0.062320 -0.146463 0.009062
vertex 0.064667 -0.145107 0.006263
endloop
endfacet
facet normal -0.615510 -0.355591 -0.703351
outer loop
vertex 0.102000 -0.214774 0.008813
vertex 0.064667 -0.145107 0.006263
vertex 0.104308 -0.213442 0.006120
endloop
endfacet
facet normal -0.521115 -0.300633 -0.798786
outer loop
vertex 0.104308 -0.213442 0.006120
vertex 0.064667 -0.145107 0.006263
vertex 0.067362 -0.143551 0.003919
endloop
endfacet
facet normal -0.516457 -0.298293 -0.802679
outer loop
vertex 0.104308 -0.213442 0.006120
vertex 0.067362 -0.143551 0.003919
vertex 0.106941 -0.211922 0.003861
endloop
endfacet
facet normal 0.700714 0.404228 -0.587877
outer loop
vertex 0.136928 -0.194608 0.011878
vertex 0.135000 -0.195722 0.008813
vertex 0.095681 -0.127202 0.009062
endloop
endfacet
facet normal 0.622025 0.359466 -0.695607
outer loop
vertex 0.095681 -0.127202 0.009062
vertex 0.135000 -0.195722 0.008813
vertex 0.093333 -0.128557 0.006263
endloop
endfacet
facet normal 0.622171 0.359210 -0.695609
outer loop
vertex 0.095681 -0.127202 0.009062
vertex 0.093333 -0.128557 0.006263
vertex 0.053833 -0.060141 0.006263
endloop
endfacet
facet normal 0.521015 0.300808 -0.798786
outer loop
vertex 0.053833 -0.060141 0.006263
vertex 0.093333 -0.128557 0.006263
vertex 0.051138 -0.061697 0.003919
endloop
endfacet
facet normal 0.521015 0.300808 -0.798785
outer loop
vertex 0.053833 -0.060141 0.006263
vertex 0.051138 -0.061697 0.003919
vertex 0.011638 0.006719 0.003919
endloop
endfacet
facet normal 0.407207 0.235101 -0.882559
outer loop
vertex 0.011638 0.006719 0.003919
vertex 0.051138 -0.061697 0.003919
vertex -0.109840 0.210248 0.002087
endloop
endfacet
facet normal 0.615705 0.355251 -0.703352
outer loop
vertex 0.135000 -0.195722 0.008813
vertex 0.132692 -0.197054 0.006120
vertex 0.093333 -0.128557 0.006263
endloop
endfacet
facet normal 0.520914 0.300983 -0.798786
outer loop
vertex 0.093333 -0.128557 0.006263
vertex 0.132692 -0.197054 0.006120
vertex 0.090638 -0.130113 0.003919
endloop
endfacet
facet normal 0.521015 0.300808 -0.798786
outer loop
vertex 0.093333 -0.128557 0.006263
vertex 0.090638 -0.130113 0.003919
vertex 0.051138 -0.061697 0.003919
endloop
endfacet
facet normal 0.407203 0.235100 -0.882561
outer loop
vertex 0.051138 -0.061697 0.003919
vertex 0.090638 -0.130113 0.003919
vertex -0.109840 0.210248 0.002087
endloop
endfacet
facet normal 0.516558 0.298118 -0.802679
outer loop
vertex 0.132692 -0.197054 0.006120
vertex 0.130059 -0.198574 0.003861
vertex 0.090638 -0.130113 0.003919
endloop
endfacet
facet normal 0.414219 0.239254 -0.878168
outer loop
vertex 0.090638 -0.130113 0.003919
vertex 0.130059 -0.198574 0.003861
vertex -0.109840 0.210248 0.002087
endloop
endfacet
facet normal 0.405549 0.234144 -0.883576
outer loop
vertex 0.130059 -0.198574 0.003861
vertex 0.127160 -0.200248 0.002087
vertex -0.109840 0.210248 0.002087
endloop
endfacet
facet normal -0.700713 -0.404228 -0.587879
outer loop
vertex -0.136928 0.194608 0.011878
vertex -0.135000 0.195722 0.008813
vertex -0.095681 0.127202 0.009062
endloop
endfacet
facet normal -0.622025 -0.359466 -0.695607
outer loop
vertex -0.095681 0.127202 0.009062
vertex -0.135000 0.195722 0.008813
vertex -0.093333 0.128557 0.006263
endloop
endfacet
facet normal -0.622169 -0.359210 -0.695610
outer loop
vertex -0.095681 0.127202 0.009062
vertex -0.093333 0.128557 0.006263
vertex -0.053833 0.060141 0.006263
endloop
endfacet
facet normal -0.521015 -0.300808 -0.798785
outer loop
vertex -0.053833 0.060141 0.006263
vertex -0.093333 0.128557 0.006263
vertex -0.051138 0.061697 0.003919
endloop
endfacet
facet normal -0.521015 -0.300808 -0.798785
outer loop
vertex -0.053833 0.060141 0.006263
vertex -0.051138 0.061697 0.003919
vertex -0.011638 -0.006719 0.003919
endloop
endfacet
facet normal -0.407205 -0.235100 -0.882560
outer loop
vertex -0.011638 -0.006719 0.003919
vertex -0.051138 0.061697 0.003919
vertex 0.109840 -0.210248 0.002087
endloop
endfacet
facet normal -0.615705 -0.355251 -0.703352
outer loop
vertex -0.135000 0.195722 0.008813
vertex -0.132692 0.197054 0.006120
vertex -0.093333 0.128557 0.006263
endloop
endfacet
facet normal -0.520913 -0.300983 -0.798786
outer loop
vertex -0.093333 0.128557 0.006263
vertex -0.132692 0.197054 0.006120
vertex -0.090638 0.130113 0.003919
endloop
endfacet
facet normal -0.521015 -0.300808 -0.798785
outer loop
vertex -0.093333 0.128557 0.006263
vertex -0.090638 0.130113 0.003919
vertex -0.051138 0.061697 0.003919
endloop
endfacet
facet normal -0.407207 -0.235101 -0.882559
outer loop
vertex -0.051138 0.061697 0.003919
vertex -0.090638 0.130113 0.003919
vertex 0.109840 -0.210248 0.002087
endloop
endfacet
facet normal -0.516558 -0.298118 -0.802679
outer loop
vertex -0.132692 0.197054 0.006120
vertex -0.130059 0.198574 0.003861
vertex -0.090638 0.130113 0.003919
endloop
endfacet
facet normal -0.414220 -0.239255 -0.878168
outer loop
vertex -0.090638 0.130113 0.003919
vertex -0.130059 0.198574 0.003861
vertex 0.109840 -0.210248 0.002087
endloop
endfacet
facet normal -0.405549 -0.234144 -0.883576
outer loop
vertex -0.130059 0.198574 0.003861
vertex -0.127160 0.200248 0.002087
vertex 0.109840 -0.210248 0.002087
endloop
endfacet
facet normal -0.521016 -0.300809 -0.798785
outer loop
vertex 0.027862 -0.075135 0.003919
vertex 0.067362 -0.143551 0.003919
vertex 0.025167 -0.076691 0.006263
endloop
endfacet
facet normal -0.521014 -0.300808 -0.798786
outer loop
vertex 0.025167 -0.076691 0.006263
vertex 0.067362 -0.143551 0.003919
vertex 0.064667 -0.145107 0.006263
endloop
endfacet
facet normal -0.622171 -0.359210 -0.695609
outer loop
vertex 0.025167 -0.076691 0.006263
vertex 0.064667 -0.145107 0.006263
vertex 0.022820 -0.078046 0.009062
endloop
endfacet
facet normal -0.622169 -0.359210 -0.695610
outer loop
vertex 0.022820 -0.078046 0.009062
vertex 0.064667 -0.145107 0.006263
vertex 0.062320 -0.146463 0.009062
endloop
endfacet
facet normal -0.708212 -0.408886 -0.575541
outer loop
vertex 0.022820 -0.078046 0.009062
vertex 0.062320 -0.146463 0.009062
vertex 0.020878 -0.079168 0.012248
endloop
endfacet
facet normal -0.708213 -0.408887 -0.575539
outer loop
vertex 0.020878 -0.079168 0.012248
vertex 0.062320 -0.146463 0.009062
vertex 0.060378 -0.147584 0.012248
endloop
endfacet
facet normal -0.777055 -0.448633 -0.441491
outer loop
vertex 0.020878 -0.079168 0.012248
vertex 0.060378 -0.147584 0.012248
vertex 0.019388 -0.080028 0.015744
endloop
endfacet
facet normal -0.777055 -0.448633 -0.441490
outer loop
vertex 0.019388 -0.080028 0.015744
vertex 0.060378 -0.147584 0.012248
vertex 0.058888 -0.148444 0.015744
endloop
endfacet
facet normal -0.827024 -0.477482 -0.296720
outer loop
vertex 0.019388 -0.080028 0.015744
vertex 0.058888 -0.148444 0.015744
vertex 0.018387 -0.080606 0.019465
endloop
endfacet
facet normal -0.827023 -0.477482 -0.296720
outer loop
vertex 0.018387 -0.080606 0.019465
vertex 0.058888 -0.148444 0.015744
vertex 0.057887 -0.149022 0.019465
endloop
endfacet
facet normal -0.856905 -0.494735 -0.144744
outer loop
vertex 0.018387 -0.080606 0.019465
vertex 0.057887 -0.149022 0.019465
vertex 0.017898 -0.080888 0.023320
endloop
endfacet
facet normal -0.856906 -0.494735 -0.144737
outer loop
vertex 0.017898 -0.080888 0.023320
vertex 0.057887 -0.149022 0.019465
vertex 0.057398 -0.149304 0.023320
endloop
endfacet
facet normal -0.865976 -0.499971 0.010751
outer loop
vertex 0.017898 -0.080888 0.023320
vertex 0.057398 -0.149304 0.023320
vertex 0.017935 -0.080867 0.027216
endloop
endfacet
facet normal -0.865975 -0.499971 0.010753
outer loop
vertex 0.017935 -0.080867 0.027216
vertex 0.057398 -0.149304 0.023320
vertex 0.057435 -0.149283 0.027216
endloop
endfacet
facet normal -0.854012 -0.493064 0.165988
outer loop
vertex 0.017935 -0.080867 0.027216
vertex 0.057435 -0.149283 0.027216
vertex 0.018495 -0.080543 0.031058
endloop
endfacet
facet normal -0.854012 -0.493064 0.165985
outer loop
vertex 0.018495 -0.080543 0.031058
vertex 0.057435 -0.149283 0.027216
vertex 0.057995 -0.148959 0.031058
endloop
endfacet
facet normal -0.821307 -0.474182 0.317186
outer loop
vertex 0.018495 -0.080543 0.031058
vertex 0.057995 -0.148959 0.031058
vertex 0.019565 -0.079926 0.034753
endloop
endfacet
facet normal -0.821306 -0.474182 0.317189
outer loop
vertex 0.019565 -0.079926 0.034753
vertex 0.057995 -0.148959 0.031058
vertex 0.059065 -0.148342 0.034753
endloop
endfacet
facet normal -0.768652 -0.443782 0.460686
outer loop
vertex 0.019565 -0.079926 0.034753
vertex 0.059065 -0.148342 0.034753
vertex 0.021119 -0.079028 0.038211
endloop
endfacet
facet normal -0.768654 -0.443782 0.460683
outer loop
vertex 0.021119 -0.079028 0.038211
vertex 0.059065 -0.148342 0.034753
vertex 0.060619 -0.147444 0.038211
endloop
endfacet
facet normal -0.697331 -0.402604 0.592992
outer loop
vertex 0.021119 -0.079028 0.038211
vertex 0.060619 -0.147444 0.038211
vertex 0.023120 -0.077873 0.041348
endloop
endfacet
facet normal -0.697331 -0.402604 0.592992
outer loop
vertex 0.023120 -0.077873 0.041348
vertex 0.060619 -0.147444 0.038211
vertex 0.062620 -0.146289 0.041348
endloop
endfacet
facet normal -0.609072 -0.351648 0.710897
outer loop
vertex 0.023120 -0.077873 0.041348
vertex 0.062620 -0.146289 0.041348
vertex 0.025519 -0.076488 0.044088
endloop
endfacet
facet normal -0.609071 -0.351648 0.710898
outer loop
vertex 0.025519 -0.076488 0.044088
vertex 0.062620 -0.146289 0.041348
vertex 0.065019 -0.144904 0.044088
endloop
endfacet
facet normal -0.506017 -0.292148 0.811540
outer loop
vertex 0.050300 -0.116878 0.045000
vertex 0.026615 -0.075855 0.045000
vertex 0.025519 -0.076488 0.044088
endloop
endfacet
facet normal -0.506014 -0.292148 0.811542
outer loop
vertex 0.050300 -0.116878 0.045000
vertex 0.025519 -0.076488 0.044088
vertex 0.065019 -0.144904 0.044088
endloop
endfacet
facet normal -0.506018 -0.292149 0.811539
outer loop
vertex 0.065019 -0.144904 0.044088
vertex 0.066115 -0.144271 0.045000
vertex 0.050300 -0.116878 0.045000
endloop
endfacet
facet normal 0.506018 0.292149 0.811538
outer loop
vertex 0.052385 -0.060977 0.045000
vertex 0.068200 -0.088370 0.045000
vertex 0.053481 -0.060344 0.044088
endloop
endfacet
facet normal 0.506016 0.292149 0.811540
outer loop
vertex 0.092981 -0.128760 0.044088
vertex 0.053481 -0.060344 0.044088
vertex 0.068200 -0.088370 0.045000
endloop
endfacet
facet normal 0.506019 0.292149 0.811538
outer loop
vertex 0.092981 -0.128760 0.044088
vertex 0.068200 -0.088370 0.045000
vertex 0.091885 -0.129393 0.045000
endloop
endfacet
facet normal 0.609072 0.351648 0.710897
outer loop
vertex 0.053481 -0.060344 0.044088
vertex 0.092981 -0.128760 0.044088
vertex 0.055880 -0.058959 0.041348
endloop
endfacet
facet normal 0.609071 0.351648 0.710898
outer loop
vertex 0.055880 -0.058959 0.041348
vertex 0.092981 -0.128760 0.044088
vertex 0.095380 -0.127375 0.041348
endloop
endfacet
facet normal 0.697331 0.402603 0.592992
outer loop
vertex 0.055880 -0.058959 0.041348
vertex 0.095380 -0.127375 0.041348
vertex 0.057881 -0.057804 0.038211
endloop
endfacet
facet normal 0.697331 0.402604 0.592992
outer loop
vertex 0.057881 -0.057804 0.038211
vertex 0.095380 -0.127375 0.041348
vertex 0.097381 -0.126220 0.038211
endloop
endfacet
facet normal 0.768654 0.443781 0.460685
outer loop
vertex 0.057881 -0.057804 0.038211
vertex 0.097381 -0.126220 0.038211
vertex 0.059435 -0.056906 0.034753
endloop
endfacet
facet normal 0.768653 0.443783 0.460684
outer loop
vertex 0.059435 -0.056906 0.034753
vertex 0.097381 -0.126220 0.038211
vertex 0.098935 -0.125322 0.034753
endloop
endfacet
facet normal 0.821306 0.474182 0.317188
outer loop
vertex 0.059435 -0.056906 0.034753
vertex 0.098935 -0.125322 0.034753
vertex 0.060505 -0.056289 0.031058
endloop
endfacet
facet normal 0.821306 0.474181 0.317188
outer loop
vertex 0.060505 -0.056289 0.031058
vertex 0.098935 -0.125322 0.034753
vertex 0.100005 -0.124705 0.031058
endloop
endfacet
facet normal 0.854012 0.493064 0.165987
outer loop
vertex 0.060505 -0.056289 0.031058
vertex 0.100005 -0.124705 0.031058
vertex 0.061065 -0.055965 0.027216
endloop
endfacet
facet normal 0.854012 0.493064 0.165984
outer loop
vertex 0.061065 -0.055965 0.027216
vertex 0.100005 -0.124705 0.031058
vertex 0.100565 -0.124381 0.027216
endloop
endfacet
facet normal 0.865975 0.499971 0.010752
outer loop
vertex 0.061065 -0.055965 0.027216
vertex 0.100565 -0.124381 0.027216
vertex 0.061102 -0.055944 0.023320
endloop
endfacet
facet normal 0.865976 0.499971 0.010752
outer loop
vertex 0.061102 -0.055944 0.023320
vertex 0.100565 -0.124381 0.027216
vertex 0.100602 -0.124360 0.023320
endloop
endfacet
facet normal 0.856906 0.494735 -0.144738
outer loop
vertex 0.061102 -0.055944 0.023320
vertex 0.100602 -0.124360 0.023320
vertex 0.060613 -0.056226 0.019465
endloop
endfacet
facet normal 0.856906 0.494734 -0.144744
outer loop
vertex 0.060613 -0.056226 0.019465
vertex 0.100602 -0.124360 0.023320
vertex 0.100113 -0.124642 0.019465
endloop
endfacet
facet normal 0.827023 0.477483 -0.296720
outer loop
vertex 0.060613 -0.056226 0.019465
vertex 0.100113 -0.124642 0.019465
vertex 0.059612 -0.056804 0.015744
endloop
endfacet
facet normal 0.827024 0.477482 -0.296719
outer loop
vertex 0.059612 -0.056804 0.015744
vertex 0.100113 -0.124642 0.019465
vertex 0.099112 -0.125220 0.015744
endloop
endfacet
facet normal 0.777056 0.448633 -0.441489
outer loop
vertex 0.059612 -0.056804 0.015744
vertex 0.099112 -0.125220 0.015744
vertex 0.058122 -0.057664 0.012248
endloop
endfacet
facet normal 0.777055 0.448633 -0.441492
outer loop
vertex 0.058122 -0.057664 0.012248
vertex 0.099112 -0.125220 0.015744
vertex 0.097622 -0.126080 0.012248
endloop
endfacet
facet normal 0.708213 0.408886 -0.575540
outer loop
vertex 0.058122 -0.057664 0.012248
vertex 0.097622 -0.126080 0.012248
vertex 0.056180 -0.058786 0.009062
endloop
endfacet
facet normal -0.521015 -0.300808 -0.798785
outer loop
vertex 0.027862 -0.075135 0.003919
vertex 0.025167 -0.076691 0.006263
vertex -0.014333 -0.008275 0.006263
endloop
endfacet
facet normal -0.622169 -0.359210 -0.695610
outer loop
vertex -0.014333 -0.008275 0.006263
vertex 0.025167 -0.076691 0.006263
vertex -0.016680 -0.009630 0.009062
endloop
endfacet
facet normal -0.622170 -0.359210 -0.695610
outer loop
vertex -0.014333 -0.008275 0.006263
vertex -0.016680 -0.009630 0.009062
vertex -0.056180 0.058786 0.009062
endloop
endfacet
facet normal -0.708213 -0.408887 -0.575540
outer loop
vertex -0.056180 0.058786 0.009062
vertex -0.016680 -0.009630 0.009062
vertex -0.058122 0.057664 0.012248
endloop
endfacet
facet normal -0.708213 -0.408886 -0.575540
outer loop
vertex -0.056180 0.058786 0.009062
vertex -0.058122 0.057664 0.012248
vertex -0.097622 0.126080 0.012248
endloop
endfacet
facet normal -0.777054 -0.448633 -0.441492
outer loop
vertex -0.097622 0.126080 0.012248
vertex -0.058122 0.057664 0.012248
vertex -0.099112 0.125220 0.015744
endloop
endfacet
facet normal -0.622170 -0.359210 -0.695610
outer loop
vertex -0.016680 -0.009630 0.009062
vertex 0.025167 -0.076691 0.006263
vertex 0.022820 -0.078046 0.009062
endloop
endfacet
facet normal -0.708213 -0.408887 -0.575540
outer loop
vertex -0.016680 -0.009630 0.009062
vertex 0.022820 -0.078046 0.009062
vertex -0.018622 -0.010752 0.012248
endloop
endfacet
facet normal -0.708213 -0.408887 -0.575540
outer loop
vertex -0.018622 -0.010752 0.012248
vertex 0.022820 -0.078046 0.009062
vertex 0.020878 -0.079168 0.012248
endloop
endfacet
facet normal -0.777055 -0.448633 -0.441491
outer loop
vertex -0.018622 -0.010752 0.012248
vertex 0.020878 -0.079168 0.012248
vertex -0.020112 -0.011612 0.015744
endloop
endfacet
facet normal -0.777055 -0.448633 -0.441491
outer loop
vertex -0.020112 -0.011612 0.015744
vertex 0.020878 -0.079168 0.012248
vertex 0.019388 -0.080028 0.015744
endloop
endfacet
facet normal -0.827024 -0.477482 -0.296720
outer loop
vertex -0.020112 -0.011612 0.015744
vertex 0.019388 -0.080028 0.015744
vertex -0.021113 -0.012190 0.019465
endloop
endfacet
facet normal -0.827024 -0.477482 -0.296720
outer loop
vertex -0.021113 -0.012190 0.019465
vertex 0.019388 -0.080028 0.015744
vertex 0.018387 -0.080606 0.019465
endloop
endfacet
facet normal -0.856906 -0.494735 -0.144741
outer loop
vertex -0.021113 -0.012190 0.019465
vertex 0.018387 -0.080606 0.019465
vertex -0.021602 -0.012472 0.023320
endloop
endfacet
facet normal -0.856906 -0.494735 -0.144741
outer loop
vertex -0.021602 -0.012472 0.023320
vertex 0.018387 -0.080606 0.019465
vertex 0.017898 -0.080888 0.023320
endloop
endfacet
facet normal -0.865975 -0.499971 0.010752
outer loop
vertex -0.021602 -0.012472 0.023320
vertex 0.017898 -0.080888 0.023320
vertex -0.021565 -0.012451 0.027216
endloop
endfacet
facet normal -0.865975 -0.499971 0.010752
outer loop
vertex -0.021565 -0.012451 0.027216
vertex 0.017898 -0.080888 0.023320
vertex 0.017935 -0.080867 0.027216
endloop
endfacet
facet normal -0.854012 -0.493064 0.165986
outer loop
vertex -0.021565 -0.012451 0.027216
vertex 0.017935 -0.080867 0.027216
vertex -0.021005 -0.012127 0.031058
endloop
endfacet
facet normal -0.854012 -0.493064 0.165986
outer loop
vertex -0.021005 -0.012127 0.031058
vertex 0.017935 -0.080867 0.027216
vertex 0.018495 -0.080543 0.031058
endloop
endfacet
facet normal -0.821307 -0.474181 0.317187
outer loop
vertex -0.021005 -0.012127 0.031058
vertex 0.018495 -0.080543 0.031058
vertex -0.019935 -0.011510 0.034753
endloop
endfacet
facet normal -0.821306 -0.474182 0.317188
outer loop
vertex -0.019935 -0.011510 0.034753
vertex 0.018495 -0.080543 0.031058
vertex 0.019565 -0.079926 0.034753
endloop
endfacet
facet normal -0.768653 -0.443783 0.460684
outer loop
vertex -0.019935 -0.011510 0.034753
vertex 0.019565 -0.079926 0.034753
vertex -0.018381 -0.010612 0.038211
endloop
endfacet
facet normal -0.768653 -0.443782 0.460685
outer loop
vertex -0.018381 -0.010612 0.038211
vertex 0.019565 -0.079926 0.034753
vertex 0.021119 -0.079028 0.038211
endloop
endfacet
facet normal -0.697331 -0.402603 0.592992
outer loop
vertex -0.018381 -0.010612 0.038211
vertex 0.021119 -0.079028 0.038211
vertex -0.016380 -0.009457 0.041348
endloop
endfacet
facet normal -0.697331 -0.402604 0.592992
outer loop
vertex -0.016380 -0.009457 0.041348
vertex 0.021119 -0.079028 0.038211
vertex 0.023120 -0.077873 0.041348
endloop
endfacet
facet normal -0.609072 -0.351648 0.710898
outer loop
vertex -0.016380 -0.009457 0.041348
vertex 0.023120 -0.077873 0.041348
vertex -0.013981 -0.008072 0.044088
endloop
endfacet
facet normal -0.609071 -0.351648 0.710898
outer loop
vertex -0.013981 -0.008072 0.044088
vertex 0.023120 -0.077873 0.041348
vertex 0.025519 -0.076488 0.044088
endloop
endfacet
facet normal -0.506016 -0.292149 0.811540
outer loop
vertex -0.012885 -0.007439 0.045000
vertex -0.013981 -0.008072 0.044088
vertex 0.025519 -0.076488 0.044088
endloop
endfacet
facet normal -0.506016 -0.292149 0.811540
outer loop
vertex -0.012885 -0.007439 0.045000
vertex 0.025519 -0.076488 0.044088
vertex 0.010800 -0.048462 0.045000
endloop
endfacet
facet normal -0.506020 -0.292150 0.811537
outer loop
vertex 0.025519 -0.076488 0.044088
vertex 0.026615 -0.075855 0.045000
vertex 0.010800 -0.048462 0.045000
endloop
endfacet
facet normal 0.506017 0.292149 0.811539
outer loop
vertex 0.012885 0.007439 0.045000
vertex 0.028700 -0.019954 0.045000
vertex 0.013981 0.008072 0.044088
endloop
endfacet
facet normal 0.506015 0.292150 0.811540
outer loop
vertex 0.053481 -0.060344 0.044088
vertex 0.013981 0.008072 0.044088
vertex 0.028700 -0.019954 0.045000
endloop
endfacet
facet normal 0.506023 0.292148 0.811535
outer loop
vertex 0.053481 -0.060344 0.044088
vertex 0.028700 -0.019954 0.045000
vertex 0.052385 -0.060977 0.045000
endloop
endfacet
facet normal 0.609072 0.351648 0.710898
outer loop
vertex 0.013981 0.008072 0.044088
vertex 0.053481 -0.060344 0.044088
vertex 0.016380 0.009457 0.041348
endloop
endfacet
facet normal 0.609072 0.351647 0.710897
outer loop
vertex 0.016380 0.009457 0.041348
vertex 0.053481 -0.060344 0.044088
vertex 0.055880 -0.058959 0.041348
endloop
endfacet
facet normal 0.697330 0.402604 0.592993
outer loop
vertex 0.016380 0.009457 0.041348
vertex 0.055880 -0.058959 0.041348
vertex 0.018381 0.010612 0.038211
endloop
endfacet
facet normal 0.697331 0.402604 0.592992
outer loop
vertex 0.018381 0.010612 0.038211
vertex 0.055880 -0.058959 0.041348
vertex 0.057881 -0.057804 0.038211
endloop
endfacet
facet normal 0.768653 0.443782 0.460684
outer loop
vertex 0.018381 0.010612 0.038211
vertex 0.057881 -0.057804 0.038211
vertex 0.019935 0.011510 0.034753
endloop
endfacet
facet normal 0.768653 0.443782 0.460684
outer loop
vertex 0.019935 0.011510 0.034753
vertex 0.057881 -0.057804 0.038211
vertex 0.059435 -0.056906 0.034753
endloop
endfacet
facet normal 0.821306 0.474182 0.317188
outer loop
vertex 0.019935 0.011510 0.034753
vertex 0.059435 -0.056906 0.034753
vertex 0.021005 0.012127 0.031058
endloop
endfacet
facet normal 0.821307 0.474181 0.317185
outer loop
vertex 0.021005 0.012127 0.031058
vertex 0.059435 -0.056906 0.034753
vertex 0.060505 -0.056289 0.031058
endloop
endfacet
facet normal 0.854012 0.493064 0.165985
outer loop
vertex 0.021005 0.012127 0.031058
vertex 0.060505 -0.056289 0.031058
vertex 0.021565 0.012451 0.027216
endloop
endfacet
facet normal 0.854012 0.493064 0.165987
outer loop
vertex 0.021565 0.012451 0.027216
vertex 0.060505 -0.056289 0.031058
vertex 0.061065 -0.055965 0.027216
endloop
endfacet
facet normal 0.865975 0.499971 0.010753
outer loop
vertex 0.021565 0.012451 0.027216
vertex 0.061065 -0.055965 0.027216
vertex 0.021602 0.012472 0.023320
endloop
endfacet
facet normal 0.865975 0.499971 0.010752
outer loop
vertex 0.021602 0.012472 0.023320
vertex 0.061065 -0.055965 0.027216
vertex 0.061102 -0.055944 0.023320
endloop
endfacet
facet normal 0.856906 0.494735 -0.144741
outer loop
vertex 0.021602 0.012472 0.023320
vertex 0.061102 -0.055944 0.023320
vertex 0.021113 0.012190 0.019465
endloop
endfacet
facet normal 0.856906 0.494735 -0.144740
outer loop
vertex 0.021113 0.012190 0.019465
vertex 0.061102 -0.055944 0.023320
vertex 0.060613 -0.056226 0.019465
endloop
endfacet
facet normal 0.827024 0.477482 -0.296720
outer loop
vertex 0.021113 0.012190 0.019465
vertex 0.060613 -0.056226 0.019465
vertex 0.020112 0.011612 0.015744
endloop
endfacet
facet normal 0.827023 0.477482 -0.296720
outer loop
vertex 0.020112 0.011612 0.015744
vertex 0.060613 -0.056226 0.019465
vertex 0.059612 -0.056804 0.015744
endloop
endfacet
facet normal 0.777055 0.448633 -0.441491
outer loop
vertex 0.020112 0.011612 0.015744
vertex 0.059612 -0.056804 0.015744
vertex 0.018622 0.010752 0.012248
endloop
endfacet
facet normal 0.777055 0.448633 -0.441491
outer loop
vertex 0.018622 0.010752 0.012248
vertex 0.059612 -0.056804 0.015744
vertex 0.058122 -0.057664 0.012248
endloop
endfacet
facet normal 0.708212 0.408887 -0.575540
outer loop
vertex 0.018622 0.010752 0.012248
vertex 0.058122 -0.057664 0.012248
vertex 0.016680 0.009631 0.009062
endloop
endfacet
facet normal 0.708213 0.408887 -0.575540
outer loop
vertex 0.016680 0.009631 0.009062
vertex 0.058122 -0.057664 0.012248
vertex 0.056180 -0.058786 0.009062
endloop
endfacet
facet normal 0.622169 0.359210 -0.695610
outer loop
vertex 0.016680 0.009631 0.009062
vertex 0.056180 -0.058786 0.009062
vertex 0.014333 0.008275 0.006263
endloop
endfacet
facet normal -0.708213 -0.408887 -0.575540
outer loop
vertex -0.016680 -0.009630 0.009062
vertex -0.018622 -0.010752 0.012248
vertex -0.058122 0.057664 0.012248
endloop
endfacet
facet normal -0.777055 -0.448633 -0.441491
outer loop
vertex -0.058122 0.057664 0.012248
vertex -0.018622 -0.010752 0.012248
vertex -0.059612 0.056804 0.015744
endloop
endfacet
facet normal -0.777055 -0.448633 -0.441490
outer loop
vertex -0.058122 0.057664 0.012248
vertex -0.059612 0.056804 0.015744
vertex -0.099112 0.125220 0.015744
endloop
endfacet
facet normal -0.827024 -0.477482 -0.296718
outer loop
vertex -0.099112 0.125220 0.015744
vertex -0.059612 0.056804 0.015744
vertex -0.100113 0.124642 0.019465
endloop
endfacet
facet normal -0.777055 -0.448633 -0.441491
outer loop
vertex -0.059612 0.056804 0.015744
vertex -0.018622 -0.010752 0.012248
vertex -0.020112 -0.011612 0.015744
endloop
endfacet
facet normal -0.827023 -0.477482 -0.296721
outer loop
vertex -0.059612 0.056804 0.015744
vertex -0.020112 -0.011612 0.015744
vertex -0.060613 0.056226 0.019465
endloop
endfacet
facet normal -0.827024 -0.477482 -0.296720
outer loop
vertex -0.060613 0.056226 0.019465
vertex -0.020112 -0.011612 0.015744
vertex -0.021113 -0.012190 0.019465
endloop
endfacet
facet normal -0.856906 -0.494735 -0.144741
outer loop
vertex -0.060613 0.056226 0.019465
vertex -0.021113 -0.012190 0.019465
vertex -0.061102 0.055944 0.023320
endloop
endfacet
facet normal -0.856906 -0.494735 -0.144741
outer loop
vertex -0.061102 0.055944 0.023320
vertex -0.021113 -0.012190 0.019465
vertex -0.021602 -0.012472 0.023320
endloop
endfacet
facet normal -0.865975 -0.499971 0.010752
outer loop
vertex -0.061102 0.055944 0.023320
vertex -0.021602 -0.012472 0.023320
vertex -0.061065 0.055965 0.027216
endloop
endfacet
facet normal -0.865975 -0.499971 0.010753
outer loop
vertex -0.061065 0.055965 0.027216
vertex -0.021602 -0.012472 0.023320
vertex -0.021565 -0.012451 0.027216
endloop
endfacet
facet normal -0.854012 -0.493064 0.165987
outer loop
vertex -0.061065 0.055965 0.027216
vertex -0.021565 -0.012451 0.027216
vertex -0.060505 0.056289 0.031058
endloop
endfacet
facet normal -0.854012 -0.493064 0.165985
outer loop
vertex -0.060505 0.056289 0.031058
vertex -0.021565 -0.012451 0.027216
vertex -0.021005 -0.012127 0.031058
endloop
endfacet
facet normal -0.821307 -0.474181 0.317185
outer loop
vertex -0.060505 0.056289 0.031058
vertex -0.021005 -0.012127 0.031058
vertex -0.059435 0.056906 0.034753
endloop
endfacet
facet normal -0.821306 -0.474182 0.317188
outer loop
vertex -0.059435 0.056906 0.034753
vertex -0.021005 -0.012127 0.031058
vertex -0.019935 -0.011510 0.034753
endloop
endfacet
facet normal -0.768653 -0.443782 0.460685
outer loop
vertex -0.059435 0.056906 0.034753
vertex -0.019935 -0.011510 0.034753
vertex -0.057881 0.057804 0.038211
endloop
endfacet
facet normal -0.768653 -0.443782 0.460684
outer loop
vertex -0.057881 0.057804 0.038211
vertex -0.019935 -0.011510 0.034753
vertex -0.018381 -0.010612 0.038211
endloop
endfacet
facet normal -0.697330 -0.402604 0.592993
outer loop
vertex -0.057881 0.057804 0.038211
vertex -0.018381 -0.010612 0.038211
vertex -0.055880 0.058959 0.041348
endloop
endfacet
facet normal -0.697330 -0.402604 0.592993
outer loop
vertex -0.055880 0.058959 0.041348
vertex -0.018381 -0.010612 0.038211
vertex -0.016380 -0.009457 0.041348
endloop
endfacet
facet normal -0.609072 -0.351648 0.710897
outer loop
vertex -0.055880 0.058959 0.041348
vertex -0.016380 -0.009457 0.041348
vertex -0.053481 0.060344 0.044088
endloop
endfacet
facet normal -0.609071 -0.351648 0.710898
outer loop
vertex -0.053481 0.060344 0.044088
vertex -0.016380 -0.009457 0.041348
vertex -0.013981 -0.008072 0.044088
endloop
endfacet
facet normal -0.506021 -0.292148 0.811537
outer loop
vertex -0.028700 0.019954 0.045000
vertex -0.052385 0.060977 0.045000
vertex -0.053481 0.060344 0.044088
endloop
endfacet
facet normal -0.506014 -0.292150 0.811540
outer loop
vertex -0.028700 0.019954 0.045000
vertex -0.053481 0.060344 0.044088
vertex -0.013981 -0.008072 0.044088
endloop
endfacet
facet normal -0.506017 -0.292149 0.811539
outer loop
vertex -0.013981 -0.008072 0.044088
vertex -0.012885 -0.007439 0.045000
vertex -0.028700 0.019954 0.045000
endloop
endfacet
facet normal 0.506019 0.292150 0.811538
outer loop
vertex -0.026615 0.075855 0.045000
vertex -0.010800 0.048462 0.045000
vertex -0.025519 0.076488 0.044088
endloop
endfacet
facet normal 0.506017 0.292150 0.811539
outer loop
vertex 0.012885 0.007439 0.045000
vertex 0.013981 0.008072 0.044088
vertex -0.025519 0.076488 0.044088
endloop
endfacet
facet normal 0.506016 0.292149 0.811540
outer loop
vertex 0.012885 0.007439 0.045000
vertex -0.025519 0.076488 0.044088
vertex -0.010800 0.048462 0.045000
endloop
endfacet
facet normal 0.609072 0.351647 0.710898
outer loop
vertex -0.025519 0.076488 0.044088
vertex 0.013981 0.008072 0.044088
vertex -0.023120 0.077873 0.041348
endloop
endfacet
facet normal 0.609072 0.351648 0.710897
outer loop
vertex -0.023120 0.077873 0.041348
vertex 0.013981 0.008072 0.044088
vertex 0.016380 0.009457 0.041348
endloop
endfacet
facet normal 0.697331 0.402604 0.592992
outer loop
vertex -0.023120 0.077873 0.041348
vertex 0.016380 0.009457 0.041348
vertex -0.021119 0.079028 0.038211
endloop
endfacet
facet normal 0.697331 0.402604 0.592992
outer loop
vertex -0.021119 0.079028 0.038211
vertex 0.016380 0.009457 0.041348
vertex 0.018381 0.010612 0.038211
endloop
endfacet
facet normal 0.768653 0.443782 0.460684
outer loop
vertex -0.021119 0.079028 0.038211
vertex 0.018381 0.010612 0.038211
vertex -0.019565 0.079926 0.034753
endloop
endfacet
facet normal 0.768653 0.443782 0.460684
outer loop
vertex -0.019565 0.079926 0.034753
vertex 0.018381 0.010612 0.038211
vertex 0.019935 0.011510 0.034753
endloop
endfacet
facet normal 0.821306 0.474181 0.317188
outer loop
vertex -0.019565 0.079926 0.034753
vertex 0.019935 0.011510 0.034753
vertex -0.018495 0.080543 0.031058
endloop
endfacet
facet normal 0.821307 0.474181 0.317187
outer loop
vertex -0.018495 0.080543 0.031058
vertex 0.019935 0.011510 0.034753
vertex 0.021005 0.012127 0.031058
endloop
endfacet
facet normal 0.854012 0.493064 0.165986
outer loop
vertex -0.018495 0.080543 0.031058
vertex 0.021005 0.012127 0.031058
vertex -0.017935 0.080867 0.027216
endloop
endfacet
facet normal 0.854012 0.493064 0.165986
outer loop
vertex -0.017935 0.080867 0.027216
vertex 0.021005 0.012127 0.031058
vertex 0.021565 0.012451 0.027216
endloop
endfacet
facet normal 0.865975 0.499971 0.010751
outer loop
vertex -0.017935 0.080867 0.027216
vertex 0.021565 0.012451 0.027216
vertex -0.017898 0.080888 0.023320
endloop
endfacet
facet normal 0.865975 0.499971 0.010752
outer loop
vertex -0.017898 0.080888 0.023320
vertex 0.021565 0.012451 0.027216
vertex 0.021602 0.012472 0.023320
endloop
endfacet
facet normal 0.856906 0.494735 -0.144740
outer loop
vertex -0.017898 0.080888 0.023320
vertex 0.021602 0.012472 0.023320
vertex -0.018387 0.080606 0.019465
endloop
endfacet
facet normal 0.856906 0.494735 -0.144741
outer loop
vertex -0.018387 0.080606 0.019465
vertex 0.021602 0.012472 0.023320
vertex 0.021113 0.012190 0.019465
endloop
endfacet
facet normal 0.827024 0.477482 -0.296720
outer loop
vertex -0.018387 0.080606 0.019465
vertex 0.021113 0.012190 0.019465
vertex -0.019388 0.080028 0.015744
endloop
endfacet
facet normal 0.827024 0.477482 -0.296720
outer loop
vertex -0.019388 0.080028 0.015744
vertex 0.021113 0.012190 0.019465
vertex 0.020112 0.011612 0.015744
endloop
endfacet
facet normal 0.777055 0.448633 -0.441491
outer loop
vertex -0.019388 0.080028 0.015744
vertex 0.020112 0.011612 0.015744
vertex -0.020878 0.079168 0.012248
endloop
endfacet
facet normal 0.777055 0.448633 -0.441490
outer loop
vertex -0.020878 0.079168 0.012248
vertex 0.020112 0.011612 0.015744
vertex 0.018622 0.010752 0.012248
endloop
endfacet
facet normal 0.708212 0.408887 -0.575540
outer loop
vertex -0.020878 0.079168 0.012248
vertex 0.018622 0.010752 0.012248
vertex -0.022820 0.078047 0.009062
endloop
endfacet
facet normal 0.708213 0.408887 -0.575539
outer loop
vertex -0.022820 0.078047 0.009062
vertex 0.018622 0.010752 0.012248
vertex 0.016680 0.009631 0.009062
endloop
endfacet
facet normal 0.622169 0.359210 -0.695610
outer loop
vertex -0.022820 0.078047 0.009062
vertex 0.016680 0.009631 0.009062
vertex -0.025167 0.076691 0.006263
endloop
endfacet
facet normal 0.622169 0.359210 -0.695611
outer loop
vertex -0.025167 0.076691 0.006263
vertex 0.016680 0.009631 0.009062
vertex 0.014333 0.008275 0.006263
endloop
endfacet
facet normal 0.521015 0.300808 -0.798785
outer loop
vertex -0.025167 0.076691 0.006263
vertex 0.014333 0.008275 0.006263
vertex -0.027862 0.075135 0.003919
endloop
endfacet
facet normal -0.856906 -0.494734 -0.144744
outer loop
vertex -0.100602 0.124360 0.023320
vertex -0.100113 0.124642 0.019465
vertex -0.060613 0.056226 0.019465
endloop
endfacet
facet normal -0.827023 -0.477483 -0.296720
outer loop
vertex -0.060613 0.056226 0.019465
vertex -0.100113 0.124642 0.019465
vertex -0.059612 0.056804 0.015744
endloop
endfacet
facet normal -0.856906 -0.494735 -0.144739
outer loop
vertex -0.100602 0.124360 0.023320
vertex -0.060613 0.056226 0.019465
vertex -0.061102 0.055944 0.023320
endloop
endfacet
facet normal -0.865975 -0.499971 0.010752
outer loop
vertex -0.100565 0.124381 0.027216
vertex -0.100602 0.124360 0.023320
vertex -0.061102 0.055944 0.023320
endloop
endfacet
facet normal -0.865975 -0.499971 0.010752
outer loop
vertex -0.100565 0.124381 0.027216
vertex -0.061102 0.055944 0.023320
vertex -0.061065 0.055965 0.027216
endloop
endfacet
facet normal -0.854012 -0.493064 0.165985
outer loop
vertex -0.100005 0.124705 0.031058
vertex -0.100565 0.124381 0.027216
vertex -0.061065 0.055965 0.027216
endloop
endfacet
facet normal -0.854012 -0.493064 0.165987
outer loop
vertex -0.100005 0.124705 0.031058
vertex -0.061065 0.055965 0.027216
vertex -0.060505 0.056289 0.031058
endloop
endfacet
facet normal -0.821306 -0.474182 0.317188
outer loop
vertex -0.098935 0.125323 0.034753
vertex -0.100005 0.124705 0.031058
vertex -0.060505 0.056289 0.031058
endloop
endfacet
facet normal -0.821306 -0.474182 0.317187
outer loop
vertex -0.098935 0.125323 0.034753
vertex -0.060505 0.056289 0.031058
vertex -0.059435 0.056906 0.034753
endloop
endfacet
facet normal -0.768653 -0.443783 0.460684
outer loop
vertex -0.097381 0.126220 0.038211
vertex -0.098935 0.125323 0.034753
vertex -0.059435 0.056906 0.034753
endloop
endfacet
facet normal -0.768653 -0.443781 0.460685
outer loop
vertex -0.097381 0.126220 0.038211
vertex -0.059435 0.056906 0.034753
vertex -0.057881 0.057804 0.038211
endloop
endfacet
facet normal -0.697331 -0.402605 0.592991
outer loop
vertex -0.095380 0.127375 0.041348
vertex -0.097381 0.126220 0.038211
vertex -0.057881 0.057804 0.038211
endloop
endfacet
facet normal -0.697331 -0.402603 0.592993
outer loop
vertex -0.095380 0.127375 0.041348
vertex -0.057881 0.057804 0.038211
vertex -0.055880 0.058959 0.041348
endloop
endfacet
facet normal -0.609071 -0.351648 0.710898
outer loop
vertex -0.092981 0.128760 0.044088
vertex -0.095380 0.127375 0.041348
vertex -0.055880 0.058959 0.041348
endloop
endfacet
facet normal -0.609071 -0.351647 0.710898
outer loop
vertex -0.092981 0.128760 0.044088
vertex -0.055880 0.058959 0.041348
vertex -0.053481 0.060344 0.044088
endloop
endfacet
facet normal -0.506019 -0.292149 0.811538
outer loop
vertex -0.068200 0.088370 0.045000
vertex -0.091885 0.129393 0.045000
vertex -0.092981 0.128760 0.044088
endloop
endfacet
facet normal -0.506019 -0.292150 0.811538
outer loop
vertex -0.068200 0.088370 0.045000
vertex -0.092981 0.128760 0.044088
vertex -0.053481 0.060344 0.044088
endloop
endfacet
facet normal -0.506018 -0.292149 0.811538
outer loop
vertex -0.053481 0.060344 0.044088
vertex -0.052385 0.060977 0.045000
vertex -0.068200 0.088370 0.045000
endloop
endfacet
facet normal 0.506018 0.292149 0.811539
outer loop
vertex -0.066115 0.144271 0.045000
vertex -0.050300 0.116878 0.045000
vertex -0.065019 0.144904 0.044088
endloop
endfacet
facet normal 0.506016 0.292149 0.811540
outer loop
vertex -0.025519 0.076488 0.044088
vertex -0.065019 0.144904 0.044088
vertex -0.050300 0.116878 0.045000
endloop
endfacet
facet normal 0.506016 0.292148 0.811540
outer loop
vertex -0.025519 0.076488 0.044088
vertex -0.050300 0.116878 0.045000
vertex -0.026615 0.075855 0.045000
endloop
endfacet
facet normal 0.609071 0.351647 0.710899
outer loop
vertex -0.062620 0.146289 0.041348
vertex -0.065019 0.144904 0.044088
vertex -0.025519 0.076488 0.044088
endloop
endfacet
facet normal 0.609073 0.351648 0.710897
outer loop
vertex -0.062620 0.146289 0.041348
vertex -0.025519 0.076488 0.044088
vertex -0.023120 0.077873 0.041348
endloop
endfacet
facet normal 0.697331 0.402604 0.592992
outer loop
vertex -0.060619 0.147444 0.038211
vertex -0.062620 0.146289 0.041348
vertex -0.023120 0.077873 0.041348
endloop
endfacet
facet normal 0.697330 0.402603 0.592994
outer loop
vertex -0.060619 0.147444 0.038211
vertex -0.023120 0.077873 0.041348
vertex -0.021119 0.079028 0.038211
endloop
endfacet
facet normal 0.768653 0.443782 0.460684
outer loop
vertex -0.059065 0.148342 0.034753
vertex -0.060619 0.147444 0.038211
vertex -0.021119 0.079028 0.038211
endloop
endfacet
facet normal 0.768653 0.443782 0.460685
outer loop
vertex -0.059065 0.148342 0.034753
vertex -0.021119 0.079028 0.038211
vertex -0.019565 0.079926 0.034753
endloop
endfacet
facet normal 0.821307 0.474182 0.317186
outer loop
vertex -0.057995 0.148959 0.031058
vertex -0.059065 0.148342 0.034753
vertex -0.019565 0.079926 0.034753
endloop
endfacet
facet normal 0.821307 0.474182 0.317185
outer loop
vertex -0.057995 0.148959 0.031058
vertex -0.019565 0.079926 0.034753
vertex -0.018495 0.080543 0.031058
endloop
endfacet
facet normal 0.854012 0.493064 0.165985
outer loop
vertex -0.057435 0.149283 0.027216
vertex -0.057995 0.148959 0.031058
vertex -0.018495 0.080543 0.031058
endloop
endfacet
facet normal 0.854011 0.493064 0.165990
outer loop
vertex -0.057435 0.149283 0.027216
vertex -0.018495 0.080543 0.031058
vertex -0.017935 0.080867 0.027216
endloop
endfacet
facet normal 0.865975 0.499971 0.010754
outer loop
vertex -0.057398 0.149304 0.023320
vertex -0.057435 0.149283 0.027216
vertex -0.017935 0.080867 0.027216
endloop
endfacet
facet normal 0.865976 0.499971 0.010750
outer loop
vertex -0.057398 0.149304 0.023320
vertex -0.017935 0.080867 0.027216
vertex -0.017898 0.080888 0.023320
endloop
endfacet
facet normal 0.856906 0.494735 -0.144741
outer loop
vertex -0.057887 0.149022 0.019465
vertex -0.057398 0.149304 0.023320
vertex -0.017898 0.080888 0.023320
endloop
endfacet
facet normal 0.856906 0.494735 -0.144743
outer loop
vertex -0.057887 0.149022 0.019465
vertex -0.017898 0.080888 0.023320
vertex -0.018387 0.080606 0.019465
endloop
endfacet
facet normal 0.827024 0.477483 -0.296717
outer loop
vertex -0.058888 0.148444 0.015744
vertex -0.057887 0.149022 0.019465
vertex -0.018387 0.080606 0.019465
endloop
endfacet
facet normal 0.827024 0.477482 -0.296720
outer loop
vertex -0.058888 0.148444 0.015744
vertex -0.018387 0.080606 0.019465
vertex -0.019388 0.080028 0.015744
endloop
endfacet
facet normal 0.777055 0.448633 -0.441491
outer loop
vertex -0.060378 0.147584 0.012248
vertex -0.058888 0.148444 0.015744
vertex -0.019388 0.080028 0.015744
endloop
endfacet
facet normal 0.777055 0.448633 -0.441492
outer loop
vertex -0.060378 0.147584 0.012248
vertex -0.019388 0.080028 0.015744
vertex -0.020878 0.079168 0.012248
endloop
endfacet
facet normal 0.708213 0.408887 -0.575539
outer loop
vertex -0.062320 0.146463 0.009062
vertex -0.060378 0.147584 0.012248
vertex -0.020878 0.079168 0.012248
endloop
endfacet
facet normal 0.708212 0.408886 -0.575541
outer loop
vertex -0.062320 0.146463 0.009062
vertex -0.020878 0.079168 0.012248
vertex -0.022820 0.078047 0.009062
endloop
endfacet
facet normal 0.622169 0.359210 -0.695611
outer loop
vertex -0.064667 0.145107 0.006263
vertex -0.062320 0.146463 0.009062
vertex -0.022820 0.078047 0.009062
endloop
endfacet
facet normal 0.622170 0.359210 -0.695610
outer loop
vertex -0.064667 0.145107 0.006263
vertex -0.022820 0.078047 0.009062
vertex -0.025167 0.076691 0.006263
endloop
endfacet
facet normal 0.521016 0.300809 -0.798784
outer loop
vertex -0.067362 0.143551 0.003919
vertex -0.064667 0.145107 0.006263
vertex -0.025167 0.076691 0.006263
endloop
endfacet
facet normal 0.521014 0.300808 -0.798786
outer loop
vertex -0.067362 0.143551 0.003919
vertex -0.025167 0.076691 0.006263
vertex -0.027862 0.075135 0.003919
endloop
endfacet
facet normal -0.866025 -0.500000 0.000000
outer loop
vertex 0.109840 -0.210248 0.000000
vertex 0.109840 -0.210248 0.002087
vertex -0.127160 0.200248 0.000000
endloop
endfacet
facet normal -0.866025 -0.500000 0.000000
outer loop
vertex -0.127160 0.200248 0.000000
vertex 0.109840 -0.210248 0.002087
vertex -0.127160 0.200248 0.002087
endloop
endfacet
facet normal -0.499999 0.866026 0.000000
outer loop
vertex -0.127160 0.200248 0.000000
vertex -0.127160 0.200248 0.002087
vertex -0.109840 0.210248 0.000000
endloop
endfacet
facet normal -0.500000 0.866025 0.000000
outer loop
vertex -0.109840 0.210248 0.000000
vertex -0.127160 0.200248 0.002087
vertex -0.109840 0.210248 0.002087
endloop
endfacet
facet normal -0.500000 0.866026 0.000000
outer loop
vertex -0.109840 0.210248 0.002087
vertex -0.127160 0.200248 0.002087
vertex -0.106941 0.211922 0.003861
endloop
endfacet
facet normal -0.500001 0.866025 0.000000
outer loop
vertex -0.106941 0.211922 0.003861
vertex -0.127160 0.200248 0.002087
vertex -0.104308 0.213442 0.006120
endloop
endfacet
facet normal -0.499999 0.866026 0.000000
outer loop
vertex -0.104308 0.213442 0.006120
vertex -0.127160 0.200248 0.002087
vertex -0.102000 0.214774 0.008813
endloop
endfacet
facet normal -0.500000 0.866026 0.000000
outer loop
vertex -0.102000 0.214774 0.008813
vertex -0.127160 0.200248 0.002087
vertex -0.100072 0.215888 0.011878
endloop
endfacet
facet normal -0.499999 0.866026 0.000000
outer loop
vertex -0.100072 0.215888 0.011878
vertex -0.127160 0.200248 0.002087
vertex -0.098566 0.216757 0.015243
endloop
endfacet
facet normal -0.500001 0.866025 0.000000
outer loop
vertex -0.098566 0.216757 0.015243
vertex -0.127160 0.200248 0.002087
vertex -0.097518 0.217362 0.018833
endloop
endfacet
facet normal -0.499998 0.866026 0.000000
outer loop
vertex -0.097518 0.217362 0.018833
vertex -0.127160 0.200248 0.002087
vertex -0.096952 0.217689 0.022564
endloop
endfacet
facet normal -0.500001 0.866025 0.000007
outer loop
vertex -0.096952 0.217689 0.022564
vertex -0.127160 0.200248 0.002087
vertex -0.096881 0.217730 0.026352
endloop
endfacet
facet normal -0.500001 0.866025 0.000000
outer loop
vertex -0.096881 0.217730 0.026352
vertex -0.127160 0.200248 0.002087
vertex -0.097306 0.217484 0.030108
endloop
endfacet
facet normal -0.499999 0.866026 0.000006
outer loop
vertex -0.097306 0.217484 0.030108
vertex -0.127160 0.200248 0.002087
vertex -0.098218 0.216958 0.033747
endloop
endfacet
facet normal -0.500000 0.866026 0.000006
outer loop
vertex -0.098218 0.216958 0.033747
vertex -0.127160 0.200248 0.002087
vertex -0.099595 0.216163 0.037185
endloop
endfacet
facet normal -0.499999 0.866026 -0.000011
outer loop
vertex -0.099595 0.216163 0.037185
vertex -0.127160 0.200248 0.002087
vertex -0.101406 0.215117 0.040343
endloop
endfacet
facet normal -0.499998 0.866027 0.000005
outer loop
vertex -0.101406 0.215117 0.040343
vertex -0.127160 0.200248 0.002087
vertex -0.103610 0.213845 0.043149
endloop
endfacet
facet normal -0.500000 0.866026 0.000000
outer loop
vertex -0.103610 0.213845 0.043149
vertex -0.127160 0.200248 0.002087
vertex -0.106416 0.212225 0.045000
endloop
endfacet
facet normal -0.500003 0.866024 0.000000
outer loop
vertex -0.103610 0.213845 0.043149
vertex -0.106416 0.212225 0.045000
vertex -0.105582 0.212706 0.045000
endloop
endfacet
facet normal -0.500001 0.866025 0.000000
outer loop
vertex -0.109969 0.210173 0.045000
vertex -0.106416 0.212225 0.045000
vertex -0.127160 0.200248 0.002087
endloop
endfacet
facet normal -0.499998 0.866026 0.000000
outer loop
vertex -0.113281 0.208261 0.045000
vertex -0.109969 0.210173 0.045000
vertex -0.127160 0.200248 0.002087
endloop
endfacet
facet normal -0.500000 0.866025 0.000000
outer loop
vertex -0.113281 0.208261 0.045000
vertex -0.127160 0.200248 0.002087
vertex -0.130059 0.198574 0.003861
endloop
endfacet
facet normal -0.500002 0.866024 0.000033
outer loop
vertex -0.113281 0.208261 0.045000
vertex -0.130059 0.198574 0.003861
vertex -0.113578 0.208089 0.045000
endloop
endfacet
facet normal -0.500000 0.866026 -0.000003
outer loop
vertex -0.113578 0.208089 0.045000
vertex -0.130059 0.198574 0.003861
vertex -0.132692 0.197054 0.006120
endloop
endfacet
facet normal -0.500025 0.866011 0.000000
outer loop
vertex -0.113578 0.208089 0.045000
vertex -0.132692 0.197054 0.006120
vertex -0.113898 0.207905 0.045000
endloop
endfacet
facet normal -0.499999 0.866026 -0.000001
outer loop
vertex -0.113898 0.207905 0.045000
vertex -0.132692 0.197054 0.006120
vertex -0.135000 0.195722 0.008813
endloop
endfacet
facet normal -0.499980 0.866037 0.000000
outer loop
vertex -0.113898 0.207905 0.045000
vertex -0.135000 0.195722 0.008813
vertex -0.114246 0.207704 0.045000
endloop
endfacet
facet normal -0.500004 0.866023 -0.000003
outer loop
vertex -0.114246 0.207704 0.045000
vertex -0.135000 0.195722 0.008813
vertex -0.136928 0.194608 0.011878
endloop
endfacet
facet normal -0.499993 0.866029 0.000063
outer loop
vertex -0.114246 0.207704 0.045000
vertex -0.136928 0.194608 0.011878
vertex -0.114630 0.207482 0.045000
endloop
endfacet
facet normal -0.500002 0.866024 -0.000001
outer loop
vertex -0.114630 0.207482 0.045000
vertex -0.136928 0.194608 0.011878
vertex -0.138434 0.193739 0.015243
endloop
endfacet
facet normal -0.499999 0.866026 -0.000063
outer loop
vertex -0.114630 0.207482 0.045000
vertex -0.138434 0.193739 0.015243
vertex -0.115063 0.207232 0.045000
endloop
endfacet
facet normal -0.499994 0.866029 -0.000001
outer loop
vertex -0.115063 0.207232 0.045000
vertex -0.138434 0.193739 0.015243
vertex -0.139482 0.193134 0.018833
endloop
endfacet
facet normal -0.500012 0.866019 0.000000
outer loop
vertex -0.115063 0.207232 0.045000
vertex -0.139482 0.193134 0.018833
vertex -0.115560 0.206945 0.045000
endloop
endfacet
facet normal -0.500002 0.866024 0.000004
outer loop
vertex -0.115560 0.206945 0.045000
vertex -0.139482 0.193134 0.018833
vertex -0.140048 0.192808 0.022564
endloop
endfacet
facet normal -0.500008 0.866021 -0.000062
outer loop
vertex -0.115560 0.206945 0.045000
vertex -0.140048 0.192808 0.022564
vertex -0.116144 0.206608 0.045000
endloop
endfacet
facet normal -0.499999 0.866026 0.000000
outer loop
vertex -0.116144 0.206608 0.045000
vertex -0.140048 0.192808 0.022564
vertex -0.140119 0.192766 0.026352
endloop
endfacet
facet normal -0.499993 0.866030 0.000000
outer loop
vertex -0.116144 0.206608 0.045000
vertex -0.140119 0.192766 0.026352
vertex -0.116848 0.206202 0.045000
endloop
endfacet
facet normal -0.500001 0.866025 0.000003
outer loop
vertex -0.116848 0.206202 0.045000
vertex -0.140119 0.192766 0.026352
vertex -0.139694 0.193012 0.030108
endloop
endfacet
facet normal -0.499994 0.866029 0.000000
outer loop
vertex -0.116848 0.206202 0.045000
vertex -0.139694 0.193012 0.030108
vertex -0.117725 0.205696 0.045000
endloop
endfacet
facet normal -0.499999 0.866026 0.000000
outer loop
vertex -0.121110 0.203741 0.045000
vertex -0.117725 0.205696 0.045000
vertex -0.139694 0.193012 0.030108
endloop
endfacet
facet normal -0.500001 0.866025 0.000010
outer loop
vertex -0.121110 0.203741 0.045000
vertex -0.139694 0.193012 0.030108
vertex -0.138782 0.193538 0.033747
endloop
endfacet
facet normal -0.500001 0.866025 0.000000
outer loop
vertex -0.121110 0.203741 0.045000
vertex -0.138782 0.193538 0.033747
vertex -0.122181 0.203123 0.045000
endloop
endfacet
facet normal -0.500000 0.866025 0.000002
outer loop
vertex -0.122181 0.203123 0.045000
vertex -0.138782 0.193538 0.033747
vertex -0.137405 0.194333 0.037185
endloop
endfacet
facet normal -0.499988 0.866032 -0.000037
outer loop
vertex -0.122181 0.203123 0.045000
vertex -0.137405 0.194333 0.037185
vertex -0.123571 0.202320 0.045000
endloop
endfacet
facet normal -0.500001 0.866025 0.000010
outer loop
vertex -0.123571 0.202320 0.045000
vertex -0.137405 0.194333 0.037185
vertex -0.135594 0.195379 0.040343
endloop
endfacet
facet normal -0.500002 0.866024 0.000000
outer loop
vertex -0.123571 0.202320 0.045000
vertex -0.135594 0.195379 0.040343
vertex -0.125472 0.201223 0.045000
endloop
endfacet
facet normal -0.500000 0.866025 0.000017
outer loop
vertex -0.125472 0.201223 0.045000
vertex -0.135594 0.195379 0.040343
vertex -0.133390 0.196651 0.043149
endloop
endfacet
facet normal -0.499999 0.866026 -0.000039
outer loop
vertex -0.125472 0.201223 0.045000
vertex -0.133390 0.196651 0.043149
vertex -0.128269 0.199608 0.045000
endloop
endfacet
facet normal -0.499999 0.866026 0.000000
outer loop
vertex -0.131418 0.197790 0.045000
vertex -0.128269 0.199608 0.045000
vertex -0.133390 0.196651 0.043149
endloop
endfacet
facet normal 0.500000 -0.866025 0.000000
outer loop
vertex 0.109840 -0.210248 0.000000
vertex 0.127160 -0.200248 0.000000
vertex 0.109840 -0.210248 0.002087
endloop
endfacet
facet normal 0.499999 -0.866026 0.000000
outer loop
vertex 0.109840 -0.210248 0.002087
vertex 0.127160 -0.200248 0.000000
vertex 0.127160 -0.200248 0.002087
endloop
endfacet
facet normal 0.500000 -0.866026 0.000010
outer loop
vertex 0.109840 -0.210248 0.002087
vertex 0.127160 -0.200248 0.002087
vertex 0.130059 -0.198574 0.003861
endloop
endfacet
facet normal 0.500000 -0.866025 0.000000
outer loop
vertex 0.130059 -0.198574 0.003861
vertex 0.132692 -0.197054 0.006120
vertex 0.109840 -0.210248 0.002087
endloop
endfacet
facet normal 0.500000 -0.866025 -0.000005
outer loop
vertex 0.109840 -0.210248 0.002087
vertex 0.132692 -0.197054 0.006120
vertex 0.135000 -0.195722 0.008813
endloop
endfacet
facet normal 0.499999 -0.866026 0.000017
outer loop
vertex 0.109840 -0.210248 0.002087
vertex 0.135000 -0.195722 0.008813
vertex 0.136928 -0.194608 0.011878
endloop
endfacet
facet normal 0.500000 -0.866026 -0.000011
outer loop
vertex 0.136928 -0.194608 0.011878
vertex 0.138434 -0.193739 0.015243
vertex 0.109840 -0.210248 0.002087
endloop
endfacet
facet normal 0.500002 -0.866024 0.000007
outer loop
vertex 0.109840 -0.210248 0.002087
vertex 0.138434 -0.193739 0.015243
vertex 0.139482 -0.193134 0.018833
endloop
endfacet
facet normal 0.499998 -0.866026 -0.000004
outer loop
vertex 0.109840 -0.210248 0.002087
vertex 0.139482 -0.193134 0.018833
vertex 0.140048 -0.192807 0.022564
endloop
endfacet
facet normal 0.500000 -0.866026 0.000000
outer loop
vertex 0.140048 -0.192807 0.022564
vertex 0.140119 -0.192766 0.026352
vertex 0.109840 -0.210248 0.002087
endloop
endfacet
facet normal 0.500001 -0.866025 -0.000005
outer loop
vertex 0.109840 -0.210248 0.002087
vertex 0.140119 -0.192766 0.026352
vertex 0.139694 -0.193012 0.030108
endloop
endfacet
facet normal 0.499999 -0.866026 0.000001
outer loop
vertex 0.109840 -0.210248 0.002087
vertex 0.139694 -0.193012 0.030108
vertex 0.138782 -0.193538 0.033747
endloop
endfacet
facet normal 0.500000 -0.866026 0.000000
outer loop
vertex 0.138782 -0.193538 0.033747
vertex 0.137405 -0.194333 0.037185
vertex 0.109840 -0.210248 0.002087
endloop
endfacet
facet normal 0.500001 -0.866025 0.000003
outer loop
vertex 0.109840 -0.210248 0.002087
vertex 0.137405 -0.194333 0.037185
vertex 0.135594 -0.195379 0.040343
endloop
endfacet
facet normal 0.499998 -0.866026 -0.000001
outer loop
vertex 0.109840 -0.210248 0.002087
vertex 0.135594 -0.195379 0.040343
vertex 0.133390 -0.196651 0.043149
endloop
endfacet
facet normal 0.500002 -0.866024 0.000000
outer loop
vertex 0.130584 -0.198271 0.045000
vertex 0.109840 -0.210248 0.002087
vertex 0.133390 -0.196651 0.043149
endloop
endfacet
facet normal 0.500002 -0.866024 0.000033
outer loop
vertex 0.130584 -0.198271 0.045000
vertex 0.133390 -0.196651 0.043149
vertex 0.131418 -0.197790 0.045000
endloop
endfacet
facet normal 0.499999 -0.866026 0.000000
outer loop
vertex 0.127031 -0.200323 0.045000
vertex 0.109840 -0.210248 0.002087
vertex 0.130584 -0.198271 0.045000
endloop
endfacet
facet normal 0.499998 -0.866026 -0.000003
outer loop
vertex 0.123719 -0.202235 0.045000
vertex 0.109840 -0.210248 0.002087
vertex 0.127031 -0.200323 0.045000
endloop
endfacet
facet normal 0.499999 -0.866026 0.000000
outer loop
vertex 0.115890 -0.206755 0.045000
vertex 0.097306 -0.217484 0.030108
vertex 0.119275 -0.204801 0.045000
endloop
endfacet
facet normal 0.500001 -0.866025 0.000000
outer loop
vertex 0.097306 -0.217484 0.030108
vertex 0.096881 -0.217730 0.026352
vertex 0.120152 -0.204294 0.045000
endloop
endfacet
facet normal 0.500002 -0.866024 0.000014
outer loop
vertex 0.097306 -0.217484 0.030108
vertex 0.120152 -0.204294 0.045000
vertex 0.119275 -0.204801 0.045000
endloop
endfacet
facet normal 0.500000 -0.866025 0.000000
outer loop
vertex 0.096881 -0.217730 0.026352
vertex 0.096952 -0.217689 0.022564
vertex 0.120856 -0.203888 0.045000
endloop
endfacet
facet normal 0.500006 -0.866022 0.000031
outer loop
vertex 0.096881 -0.217730 0.026352
vertex 0.120856 -0.203888 0.045000
vertex 0.120152 -0.204294 0.045000
endloop
endfacet
facet normal 0.500003 -0.866024 -0.000035
outer loop
vertex 0.105582 -0.212706 0.045000
vertex 0.103610 -0.213845 0.043149
vertex 0.108731 -0.210888 0.045000
endloop
endfacet
facet normal 0.500000 -0.866025 0.000000
outer loop
vertex 0.103610 -0.213845 0.043149
vertex 0.101406 -0.215117 0.040343
vertex 0.111528 -0.209273 0.045000
endloop
endfacet
facet normal 0.499997 -0.866027 0.000019
outer loop
vertex 0.103610 -0.213845 0.043149
vertex 0.111528 -0.209273 0.045000
vertex 0.108731 -0.210888 0.045000
endloop
endfacet
facet normal 0.500002 -0.866024 -0.000014
outer loop
vertex 0.101406 -0.215117 0.040343
vertex 0.099595 -0.216163 0.037185
vertex 0.113429 -0.208176 0.045000
endloop
endfacet
facet normal 0.500002 -0.866024 0.000011
outer loop
vertex 0.101406 -0.215117 0.040343
vertex 0.113429 -0.208176 0.045000
vertex 0.111528 -0.209273 0.045000
endloop
endfacet
facet normal 0.499999 -0.866026 0.000000
outer loop
vertex 0.099595 -0.216163 0.037185
vertex 0.098218 -0.216958 0.033747
vertex 0.114819 -0.207373 0.045000
endloop
endfacet
facet normal 0.499992 -0.866030 0.000051
outer loop
vertex 0.099595 -0.216163 0.037185
vertex 0.114819 -0.207373 0.045000
vertex 0.113429 -0.208176 0.045000
endloop
endfacet
facet normal 0.500001 -0.866025 -0.000015
outer loop
vertex 0.098218 -0.216958 0.033747
vertex 0.097306 -0.217484 0.030108
vertex 0.115890 -0.206755 0.045000
endloop
endfacet
facet normal 0.500002 -0.866024 0.000019
outer loop
vertex 0.098218 -0.216958 0.033747
vertex 0.115890 -0.206755 0.045000
vertex 0.114819 -0.207373 0.045000
endloop
endfacet
facet normal 0.500002 -0.866024 0.000000
outer loop
vertex 0.096952 -0.217689 0.022564
vertex 0.097518 -0.217362 0.018833
vertex 0.121440 -0.203551 0.045000
endloop
endfacet
facet normal 0.499994 -0.866029 0.000049
outer loop
vertex 0.096952 -0.217689 0.022564
vertex 0.121440 -0.203551 0.045000
vertex 0.120856 -0.203888 0.045000
endloop
endfacet
facet normal 0.499999 -0.866026 0.000000
outer loop
vertex 0.097518 -0.217362 0.018833
vertex 0.098566 -0.216757 0.015243
vertex 0.121937 -0.203264 0.045000
endloop
endfacet
facet normal 0.499985 -0.866034 0.000018
outer loop
vertex 0.097518 -0.217362 0.018833
vertex 0.121937 -0.203264 0.045000
vertex 0.121440 -0.203551 0.045000
endloop
endfacet
facet normal 0.500002 -0.866024 0.000000
outer loop
vertex 0.098566 -0.216757 0.015243
vertex 0.100072 -0.215888 0.011878
vertex 0.122370 -0.203014 0.045000
endloop
endfacet
facet normal 0.499985 -0.866034 -0.000006
outer loop
vertex 0.098566 -0.216757 0.015243
vertex 0.122370 -0.203014 0.045000
vertex 0.121937 -0.203264 0.045000
endloop
endfacet
facet normal 0.500002 -0.866024 0.000006
outer loop
vertex 0.100072 -0.215888 0.011878
vertex 0.102000 -0.214774 0.008813
vertex 0.122754 -0.202792 0.045000
endloop
endfacet
facet normal 0.500007 -0.866021 -0.000063
outer loop
vertex 0.100072 -0.215888 0.011878
vertex 0.122754 -0.202792 0.045000
vertex 0.122370 -0.203014 0.045000
endloop
endfacet
facet normal 0.500000 -0.866025 0.000000
outer loop
vertex 0.102000 -0.214774 0.008813
vertex 0.104308 -0.213442 0.006120
vertex 0.123102 -0.202591 0.045000
endloop
endfacet
facet normal 0.499980 -0.866037 0.000004
outer loop
vertex 0.102000 -0.214774 0.008813
vertex 0.123102 -0.202591 0.045000
vertex 0.122754 -0.202792 0.045000
endloop
endfacet
facet normal 0.499998 -0.866026 0.000006
outer loop
vertex 0.104308 -0.213442 0.006120
vertex 0.106941 -0.211922 0.003861
vertex 0.123422 -0.202407 0.045000
endloop
endfacet
facet normal 0.499998 -0.866027 -0.000043
outer loop
vertex 0.104308 -0.213442 0.006120
vertex 0.123422 -0.202407 0.045000
vertex 0.123102 -0.202591 0.045000
endloop
endfacet
facet normal 0.500003 -0.866024 0.000000
outer loop
vertex 0.106941 -0.211922 0.003861
vertex 0.109840 -0.210248 0.002087
vertex 0.123719 -0.202235 0.045000
endloop
endfacet
facet normal 0.500002 -0.866024 -0.000026
outer loop
vertex 0.106941 -0.211922 0.003861
vertex 0.123719 -0.202235 0.045000
vertex 0.123422 -0.202407 0.045000
endloop
endfacet
facet normal 0.000000 0.000000 1.000000
outer loop
vertex 0.130584 -0.198271 0.045000
vertex 0.131418 -0.197790 0.045000
vertex 0.116781 -0.172359 0.045000
endloop
endfacet
facet normal 0.000004 0.000000 1.000000
outer loop
vertex 0.130584 -0.198271 0.045000
vertex 0.116781 -0.172359 0.045000
vertex 0.091885 -0.129393 0.045000
endloop
endfacet
facet normal 0.124035 0.000000 0.992278
outer loop
vertex 0.123719 -0.202235 0.045000
vertex 0.127031 -0.200323 0.045000
vertex 0.130584 -0.198271 0.045000
endloop
endfacet
facet normal 1.000000 0.000000 0.000000
outer loop
vertex 0.122754 -0.202792 0.045000
vertex 0.123102 -0.202591 0.045000
vertex 0.123422 -0.202407 0.045000
endloop
endfacet
facet normal 0.000000 0.000000 1.000000
outer loop
vertex 0.123719 -0.202235 0.045000
vertex 0.130584 -0.198271 0.045000
vertex 0.091885 -0.129393 0.045000
endloop
endfacet
facet normal 0.000000 0.000000 0.000000
outer loop
vertex 0.122370 -0.203014 0.045000
vertex 0.122754 -0.202792 0.045000
vertex 0.123422 -0.202407 0.045000
endloop
endfacet
facet normal 0.000000 0.000000 1.000000
outer loop
vertex 0.123422 -0.202407 0.045000
vertex 0.123719 -0.202235 0.045000
vertex 0.091885 -0.129393 0.045000
endloop
endfacet
facet normal 0.000000 0.000000 1.000000
outer loop
vertex 0.123422 -0.202407 0.045000
vertex 0.091885 -0.129393 0.045000
vertex 0.068200 -0.088370 0.045000
endloop
endfacet
facet normal 1.000000 0.000000 0.000000
outer loop
vertex 0.121937 -0.203264 0.045000
vertex 0.122370 -0.203014 0.045000
vertex 0.123422 -0.202407 0.045000
endloop
endfacet
facet normal -1.000000 0.000000 0.000000
outer loop
vertex 0.121440 -0.203551 0.045000
vertex 0.121937 -0.203264 0.045000
vertex 0.123422 -0.202407 0.045000
endloop
endfacet
facet normal -0.000001 0.000000 1.000000
outer loop
vertex 0.123422 -0.202407 0.045000
vertex 0.068200 -0.088370 0.045000
vertex 0.052385 -0.060977 0.045000
endloop
endfacet
facet normal 0.000000 0.000000 0.000000
outer loop
vertex 0.028700 -0.019954 0.045000
vertex 0.012885 0.007439 0.045000
vertex -0.010800 0.048462 0.045000
endloop
endfacet
facet normal -0.000002 0.000000 1.000000
outer loop
vertex 0.123422 -0.202407 0.045000
vertex 0.052385 -0.060977 0.045000
vertex 0.028700 -0.019954 0.045000
endloop
endfacet
facet normal 0.000000 0.000000 -1.000000
outer loop
vertex 0.120856 -0.203888 0.045000
vertex 0.121440 -0.203551 0.045000
vertex 0.123422 -0.202407 0.045000
endloop
endfacet
facet normal 0.000000 0.000000 -1.000000
outer loop
vertex 0.119275 -0.204801 0.045000
vertex 0.120152 -0.204294 0.045000
vertex 0.120856 -0.203888 0.045000
endloop
endfacet
facet normal 0.242536 0.000000 0.970143
outer loop
vertex 0.113429 -0.208176 0.045000
vertex 0.114819 -0.207373 0.045000
vertex 0.115890 -0.206755 0.045000
endloop
endfacet
facet normal 0.000000 0.000000 1.000000
outer loop
vertex 0.115890 -0.206755 0.045000
vertex 0.119275 -0.204801 0.045000
vertex 0.120856 -0.203888 0.045000
endloop
endfacet
facet normal 0.000000 0.000000 1.000000
outer loop
vertex 0.120856 -0.203888 0.045000
vertex 0.123422 -0.202407 0.045000
vertex 0.028700 -0.019954 0.045000
endloop
endfacet
facet normal -0.447214 0.000000 0.894427
outer loop
vertex 0.028700 -0.019954 0.045000
vertex -0.010800 0.048462 0.045000
vertex -0.026615 0.075855 0.045000
endloop
endfacet
facet normal 0.000000 0.000000 0.000000
outer loop
vertex 0.028700 -0.019954 0.045000
vertex -0.026615 0.075855 0.045000
vertex -0.050300 0.116878 0.045000
endloop
endfacet
facet normal 0.000000 0.000000 1.000000
outer loop
vertex 0.115890 -0.206755 0.045000
vertex 0.120856 -0.203888 0.045000
vertex 0.028700 -0.019954 0.045000
endloop
endfacet
facet normal 0.031235 0.000000 0.999512
outer loop
vertex 0.108731 -0.210888 0.045000
vertex 0.111528 -0.209273 0.045000
vertex 0.113429 -0.208176 0.045000
endloop
endfacet
facet normal 0.000000 0.000000 1.000000
outer loop
vertex 0.113429 -0.208176 0.045000
vertex 0.115890 -0.206755 0.045000
vertex 0.028700 -0.019954 0.045000
endloop
endfacet
facet normal 0.000001 0.000000 1.000000
outer loop
vertex 0.113429 -0.208176 0.045000
vertex 0.028700 -0.019954 0.045000
vertex -0.050300 0.116878 0.045000
endloop
endfacet
facet normal 0.000000 0.000000 0.000000
outer loop
vertex 0.105582 -0.212706 0.045000
vertex 0.108731 -0.210888 0.045000
vertex 0.113429 -0.208176 0.045000
endloop
endfacet
facet normal 0.000000 0.000000 1.000000
outer loop
vertex 0.066115 -0.144271 0.045000
vertex 0.090877 -0.187315 0.045000
vertex 0.105582 -0.212706 0.045000
endloop
endfacet
facet normal -1.000000 0.000000 0.000000
outer loop
vertex 0.010800 -0.048462 0.045000
vertex 0.026615 -0.075855 0.045000
vertex 0.050300 -0.116878 0.045000
endloop
endfacet
facet normal 0.000000 0.000000 1.000000
outer loop
vertex 0.066115 -0.144271 0.045000
vertex 0.105582 -0.212706 0.045000
vertex 0.113429 -0.208176 0.045000
endloop
endfacet
facet normal 0.707107 0.000000 0.707107
outer loop
vertex -0.012885 -0.007439 0.045000
vertex 0.010800 -0.048462 0.045000
vertex 0.050300 -0.116878 0.045000
endloop
endfacet
facet normal -0.000003 0.000000 1.000000
outer loop
vertex 0.050300 -0.116878 0.045000
vertex 0.066115 -0.144271 0.045000
vertex 0.113429 -0.208176 0.045000
endloop
endfacet
facet normal -0.000002 0.000000 1.000000
outer loop
vertex 0.113429 -0.208176 0.045000
vertex -0.050300 0.116878 0.045000
vertex -0.066115 0.144271 0.045000
endloop
endfacet
facet normal 0.000000 0.000000 1.000000
outer loop
vertex -0.066115 0.144271 0.045000
vertex -0.090877 0.187315 0.045000
vertex -0.105582 0.212706 0.045000
endloop
endfacet
facet normal -0.124035 0.000000 0.992278
outer loop
vertex -0.105582 0.212706 0.045000
vertex -0.106416 0.212225 0.045000
vertex -0.109969 0.210173 0.045000
endloop
endfacet
facet normal 0.000000 0.000000 1.000000
outer loop
vertex -0.109969 0.210173 0.045000
vertex -0.113281 0.208261 0.045000
vertex -0.113578 0.208089 0.045000
endloop
endfacet
facet normal 0.242536 0.000000 0.970143
outer loop
vertex -0.109969 0.210173 0.045000
vertex -0.113578 0.208089 0.045000
vertex -0.113898 0.207905 0.045000
endloop
endfacet
facet normal -0.000000 0.000000 1.000000
outer loop
vertex -0.066115 0.144271 0.045000
vertex -0.105582 0.212706 0.045000
vertex -0.109969 0.210173 0.045000
endloop
endfacet
facet normal 0.000000 0.000000 1.000000
outer loop
vertex 0.050300 -0.116878 0.045000
vertex 0.113429 -0.208176 0.045000
vertex -0.066115 0.144271 0.045000
endloop
endfacet
facet normal 0.916157 0.000000 0.400819
outer loop
vertex -0.052385 0.060977 0.045000
vertex -0.028700 0.019954 0.045000
vertex -0.012885 -0.007439 0.045000
endloop
endfacet
facet normal 0.000000 0.000000 1.000000
outer loop
vertex -0.012885 -0.007439 0.045000
vertex 0.050300 -0.116878 0.045000
vertex -0.066115 0.144271 0.045000
endloop
endfacet
facet normal 0.000000 0.000000 1.000000
outer loop
vertex -0.066115 0.144271 0.045000
vertex -0.109969 0.210173 0.045000
vertex -0.113898 0.207905 0.045000
endloop
endfacet
facet normal 0.000002 0.000000 1.000000
outer loop
vertex -0.066115 0.144271 0.045000
vertex -0.113898 0.207905 0.045000
vertex -0.114246 0.207704 0.045000
endloop
endfacet
facet normal 0.000000 0.000000 1.000000
outer loop
vertex -0.052385 0.060977 0.045000
vertex -0.012885 -0.007439 0.045000
vertex -0.066115 0.144271 0.045000
endloop
endfacet
facet normal -0.000000 0.000000 1.000000
outer loop
vertex -0.068200 0.088370 0.045000
vertex -0.052385 0.060977 0.045000
vertex -0.066115 0.144271 0.045000
endloop
endfacet
facet normal -0.000003 0.000000 1.000000
outer loop
vertex -0.066115 0.144271 0.045000
vertex -0.114246 0.207704 0.045000
vertex -0.114630 0.207482 0.045000
endloop
endfacet
facet normal 0.000000 0.000000 0.000000
outer loop
vertex -0.114630 0.207482 0.045000
vertex -0.115063 0.207232 0.045000
vertex -0.115560 0.206945 0.045000
endloop
endfacet
facet normal 0.000000 0.000000 -1.000000
outer loop
vertex -0.115560 0.206945 0.045000
vertex -0.116144 0.206608 0.045000
vertex -0.116848 0.206202 0.045000
endloop
endfacet
facet normal -0.124035 0.000000 -0.992278
outer loop
vertex -0.117725 0.205696 0.045000
vertex -0.121110 0.203741 0.045000
vertex -0.122181 0.203123 0.045000
endloop
endfacet
facet normal 0.000000 0.000000 1.000000
outer loop
vertex -0.115560 0.206945 0.045000
vertex -0.116848 0.206202 0.045000
vertex -0.117725 0.205696 0.045000
endloop
endfacet
facet normal -0.000001 0.000000 1.000000
outer loop
vertex -0.066115 0.144271 0.045000
vertex -0.114630 0.207482 0.045000
vertex -0.115560 0.206945 0.045000
endloop
endfacet
facet normal 0.000000 0.000000 1.000000
outer loop
vertex -0.091885 0.129393 0.045000
vertex -0.068200 0.088370 0.045000
vertex -0.066115 0.144271 0.045000
endloop
endfacet
facet normal 0.000000 0.000000 1.000000
outer loop
vertex -0.131418 0.197790 0.045000
vertex -0.116781 0.172359 0.045000
vertex -0.091885 0.129393 0.045000
endloop
endfacet
facet normal -0.062378 0.000000 -0.998053
outer loop
vertex -0.125472 0.201223 0.045000
vertex -0.128269 0.199608 0.045000
vertex -0.131418 0.197790 0.045000
endloop
endfacet
facet normal -1.000000 0.000000 0.000000
outer loop
vertex -0.122181 0.203123 0.045000
vertex -0.123571 0.202320 0.045000
vertex -0.125472 0.201223 0.045000
endloop
endfacet
facet normal 0.000000 0.000000 1.000000
outer loop
vertex -0.066115 0.144271 0.045000
vertex -0.115560 0.206945 0.045000
vertex -0.117725 0.205696 0.045000
endloop
endfacet
facet normal 0.124035 0.000000 0.992278
outer loop
vertex -0.117725 0.205696 0.045000
vertex -0.122181 0.203123 0.045000
vertex -0.125472 0.201223 0.045000
endloop
endfacet
facet normal 0.000000 0.000000 1.000000
outer loop
vertex -0.125472 0.201223 0.045000
vertex -0.131418 0.197790 0.045000
vertex -0.091885 0.129393 0.045000
endloop
endfacet
facet normal 0.000000 0.000000 1.000000
outer loop
vertex -0.091885 0.129393 0.045000
vertex -0.066115 0.144271 0.045000
vertex -0.117725 0.205696 0.045000
endloop
endfacet
facet normal -0.000001 0.000000 1.000000
outer loop
vertex -0.117725 0.205696 0.045000
vertex -0.125472 0.201223 0.045000
vertex -0.091885 0.129393 0.045000
endloop
endfacet
solid cylinder
