solid obstacle
facet normal 0.000000 0.000000 -1.000000
outer loop
vertex -0.160513 -0.174655 0.000000
vertex -0.174655 -0.160513 0.000000
vertex 0.174655 0.160513 0.000000
endloop
endfacet
facet normal 0.000000 0.000000 -1.000000
outer loop
vertex 0.174655 0.160513 0.000000
vertex -0.174655 -0.160513 0.000000
vertex 0.160513 0.174655 0.000000
endloop
endfacet
facet normal 0.707107 -0.707107 0.000000
outer loop
vertex -0.160513 -0.174655 0.002087
vertex -0.160513 -0.174655 0.000000
vertex 0.174655 0.160513 0.002087
endloop
endfacet
facet normal 0.707107 -0.707107 0.000000
outer loop
vertex 0.174655 0.160513 0.002087
vertex -0.160513 -0.174655 0.000000
vertex 0.174655 0.160513 0.000000
endloop
endfacet
facet normal -0.331054 0.331205 -0.883576
outer loop
vertex -0.177022 -0.158146 0.003861
vertex -0.121225 -0.102220 0.003919
vertex -0.174655 -0.160513 0.002087
endloop
endfacet
facet normal -0.332482 0.332482 -0.882560
outer loop
vertex -0.174655 -0.160513 0.002087
vertex -0.121225 -0.102220 0.003919
vertex -0.065364 -0.046359 0.003919
endloop
endfacet
facet normal -0.332483 0.332482 -0.882559
outer loop
vertex -0.174655 -0.160513 0.002087
vertex -0.065364 -0.046359 0.003919
vertex -0.009503 0.009503 0.003919
endloop
endfacet
facet normal -0.425407 0.425407 -0.798786
outer loop
vertex -0.009503 0.009503 0.003919
vertex -0.065364 -0.046359 0.003919
vertex -0.011703 0.011703 0.006263
endloop
endfacet
facet normal -0.425407 0.425407 -0.798785
outer loop
vertex -0.009503 0.009503 0.003919
vertex -0.011703 0.011703 0.006263
vertex 0.044158 0.067565 0.006263
endloop
endfacet
facet normal -0.507999 0.507999 -0.695610
outer loop
vertex 0.044158 0.067565 0.006263
vertex -0.011703 0.011703 0.006263
vertex 0.042242 0.069481 0.009062
endloop
endfacet
facet normal -0.508000 0.508000 -0.695609
outer loop
vertex 0.044158 0.067565 0.006263
vertex 0.042242 0.069481 0.009062
vertex 0.098103 0.125342 0.009062
endloop
endfacet
facet normal -0.578254 0.578254 -0.575539
outer loop
vertex 0.098103 0.125342 0.009062
vertex 0.042242 0.069481 0.009062
vertex 0.096518 0.126928 0.012248
endloop
endfacet
facet normal -0.578522 0.577985 -0.575539
outer loop
vertex 0.098103 0.125342 0.009062
vertex 0.096518 0.126928 0.012248
vertex 0.152538 0.182631 0.011878
endloop
endfacet
facet normal -0.627994 0.628515 -0.458903
outer loop
vertex 0.152538 0.182631 0.011878
vertex 0.096518 0.126928 0.012248
vertex 0.151308 0.183860 0.015243
endloop
endfacet
facet normal -0.634788 0.634138 -0.441490
outer loop
vertex 0.151308 0.183860 0.015243
vertex 0.096518 0.126928 0.012248
vertex 0.095301 0.128144 0.015744
endloop
endfacet
facet normal -0.669755 0.670384 -0.319396
outer loop
vertex 0.151308 0.183860 0.015243
vertex 0.095301 0.128144 0.015744
vertex 0.150453 0.184716 0.018833
endloop
endfacet
facet normal -0.675640 0.674884 -0.296721
outer loop
vertex 0.150453 0.184716 0.018833
vertex 0.095301 0.128144 0.015744
vertex 0.094484 0.128962 0.019465
endloop
endfacet
facet normal -0.696135 0.696866 -0.172551
outer loop
vertex 0.150453 0.184716 0.018833
vertex 0.094484 0.128962 0.019465
vertex 0.149991 0.185178 0.022564
endloop
endfacet
facet normal -0.700087 0.699235 -0.144737
outer loop
vertex 0.149991 0.185178 0.022564
vertex 0.094484 0.128962 0.019465
vertex 0.094085 0.129361 0.023320
endloop
endfacet
facet normal -0.706527 0.707351 -0.021747
outer loop
vertex 0.149991 0.185178 0.022564
vertex 0.094085 0.129361 0.023320
vertex 0.149932 0.185236 0.026352
endloop
endfacet
facet normal -0.707536 0.706595 0.010752
outer loop
vertex 0.149932 0.185236 0.026352
vertex 0.094085 0.129361 0.023320
vertex 0.094115 0.129331 0.027216
endloop
endfacet
facet normal -0.700693 0.701601 0.129555
outer loop
vertex 0.149932 0.185236 0.026352
vertex 0.094115 0.129331 0.027216
vertex 0.150280 0.184889 0.030108
endloop
endfacet
facet normal -0.697808 0.696787 0.165986
outer loop
vertex 0.150280 0.184889 0.030108
vertex 0.094115 0.129331 0.027216
vertex 0.094572 0.128874 0.031058
endloop
endfacet
facet normal -0.678765 0.679747 0.277887
outer loop
vertex 0.150280 0.184889 0.030108
vertex 0.094572 0.128874 0.031058
vertex 0.151024 0.184145 0.033747
endloop
endfacet
facet normal -0.671139 0.670048 0.317188
outer loop
vertex 0.151024 0.184145 0.033747
vertex 0.094572 0.128874 0.031058
vertex 0.095446 0.128000 0.034753
endloop
endfacet
facet normal -0.641246 0.642295 0.419835
outer loop
vertex 0.151024 0.184145 0.033747
vertex 0.095446 0.128000 0.034753
vertex 0.152148 0.183020 0.037185
endloop
endfacet
facet normal -0.628179 0.627025 0.460685
outer loop
vertex 0.152148 0.183020 0.037185
vertex 0.095446 0.128000 0.034753
vertex 0.096715 0.126731 0.038211
endloop
endfacet
facet normal -0.588996 0.590104 0.552142
outer loop
vertex 0.152148 0.183020 0.037185
vertex 0.096715 0.126731 0.038211
vertex 0.153627 0.181541 0.040343
endloop
endfacet
facet normal -0.569972 0.568763 0.592992
outer loop
vertex 0.153627 0.181541 0.040343
vertex 0.096715 0.126731 0.038211
vertex 0.098349 0.125097 0.041348
endloop
endfacet
facet normal -0.523216 0.524373 0.671772
outer loop
vertex 0.153627 0.181541 0.040343
vertex 0.098349 0.125097 0.041348
vertex 0.155427 0.179742 0.043149
endloop
endfacet
facet normal -0.497929 0.496673 0.710903
outer loop
vertex 0.155427 0.179742 0.043149
vertex 0.098349 0.125097 0.041348
vertex 0.100307 0.123138 0.044088
endloop
endfacet
facet normal -0.445408 0.446609 0.775985
outer loop
vertex 0.155427 0.179742 0.043149
vertex 0.100307 0.123138 0.044088
vertex 0.157505 0.177663 0.045539
endloop
endfacet
facet normal -0.413806 0.412514 0.811539
outer loop
vertex 0.157505 0.177663 0.045539
vertex 0.100307 0.123138 0.044088
vertex 0.102543 0.120903 0.046365
endloop
endfacet
facet normal -0.357367 0.358601 0.862377
outer loop
vertex 0.157505 0.177663 0.045539
vertex 0.102543 0.120903 0.046365
vertex 0.159815 0.175353 0.047456
endloop
endfacet
facet normal -0.319646 0.318323 0.892467
outer loop
vertex 0.159815 0.175353 0.047456
vertex 0.102543 0.120903 0.046365
vertex 0.105002 0.118444 0.048123
endloop
endfacet
facet normal -0.261111 0.262370 0.928969
outer loop
vertex 0.159815 0.175353 0.047456
vertex 0.105002 0.118444 0.048123
vertex 0.162304 0.172865 0.048859
endloop
endfacet
facet normal -0.217733 0.216390 0.951718
outer loop
vertex 0.162304 0.172865 0.048859
vertex 0.105002 0.118444 0.048123
vertex 0.107624 0.115822 0.049319
endloop
endfacet
facet normal -0.158850 0.160124 0.974231
outer loop
vertex 0.162304 0.172865 0.048859
vertex 0.107624 0.115822 0.049319
vertex 0.164913 0.170255 0.049713
endloop
endfacet
facet normal -0.110543 0.109186 0.987855
outer loop
vertex 0.164913 0.170255 0.049713
vertex 0.107624 0.115822 0.049319
vertex 0.110345 0.113100 0.049924
endloop
endfacet
facet normal -0.052930 0.054216 0.997125
outer loop
vertex 0.164913 0.170255 0.049713
vertex 0.110345 0.113100 0.049924
vertex 0.167584 0.167584 0.050000
endloop
endfacet
facet normal -0.000680 -0.000680 1.000000
outer loop
vertex 0.167584 0.167584 0.050000
vertex 0.110345 0.113100 0.049924
vertex 0.113100 0.110345 0.049924
endloop
endfacet
facet normal 0.054215 -0.052931 0.997125
outer loop
vertex 0.167584 0.167584 0.050000
vertex 0.113100 0.110345 0.049924
vertex 0.170255 0.164913 0.049713
endloop
endfacet
facet normal 0.109186 -0.110543 0.987856
outer loop
vertex 0.170255 0.164913 0.049713
vertex 0.113100 0.110345 0.049924
vertex 0.115822 0.107624 0.049319
endloop
endfacet
facet normal 0.160125 -0.158849 0.974231
outer loop
vertex 0.170255 0.164913 0.049713
vertex 0.115822 0.107624 0.049319
vertex 0.172865 0.162304 0.048859
endloop
endfacet
facet normal 0.216390 -0.217733 0.951718
outer loop
vertex 0.172865 0.162304 0.048859
vertex 0.115822 0.107624 0.049319
vertex 0.118444 0.105002 0.048123
endloop
endfacet
facet normal 0.262369 -0.261108 0.928970
outer loop
vertex 0.172865 0.162304 0.048859
vertex 0.118444 0.105002 0.048123
vertex 0.175353 0.159815 0.047456
endloop
endfacet
facet normal 0.318323 -0.319648 0.892466
outer loop
vertex 0.175353 0.159815 0.047456
vertex 0.118444 0.105002 0.048123
vertex 0.120903 0.102543 0.046365
endloop
endfacet
facet normal 0.358601 -0.357367 0.862377
outer loop
vertex 0.175353 0.159815 0.047456
vertex 0.120903 0.102543 0.046365
vertex 0.177663 0.157505 0.045539
endloop
endfacet
facet normal 0.412513 -0.413808 0.811539
outer loop
vertex 0.177663 0.157505 0.045539
vertex 0.120903 0.102543 0.046365
vertex 0.123138 0.100307 0.044088
endloop
endfacet
facet normal 0.446609 -0.445408 0.775985
outer loop
vertex 0.177663 0.157505 0.045539
vertex 0.123138 0.100307 0.044088
vertex 0.179742 0.155427 0.043149
endloop
endfacet
facet normal 0.496676 -0.497932 0.710898
outer loop
vertex 0.179742 0.155427 0.043149
vertex 0.123138 0.100307 0.044088
vertex 0.125097 0.098349 0.041348
endloop
endfacet
facet normal 0.524370 -0.523209 0.671781
outer loop
vertex 0.179742 0.155427 0.043149
vertex 0.125097 0.098349 0.041348
vertex 0.181541 0.153627 0.040343
endloop
endfacet
facet normal 0.568764 -0.569974 0.592990
outer loop
vertex 0.181541 0.153627 0.040343
vertex 0.125097 0.098349 0.041348
vertex 0.126731 0.096715 0.038211
endloop
endfacet
facet normal 0.590103 -0.588993 0.552146
outer loop
vertex 0.181541 0.153627 0.040343
vertex 0.126731 0.096715 0.038211
vertex 0.183020 0.152148 0.037185
endloop
endfacet
facet normal 0.627026 -0.628181 0.460681
outer loop
vertex 0.183020 0.152148 0.037185
vertex 0.126731 0.096715 0.038211
vertex 0.128000 0.095446 0.034753
endloop
endfacet
facet normal 0.642294 -0.641244 0.419840
outer loop
vertex 0.183020 0.152148 0.037185
vertex 0.128000 0.095446 0.034753
vertex 0.184145 0.151024 0.033747
endloop
endfacet
facet normal 0.670046 -0.671139 0.317192
outer loop
vertex 0.184145 0.151024 0.033747
vertex 0.128000 0.095446 0.034753
vertex 0.128874 0.094572 0.031058
endloop
endfacet
facet normal 0.679749 -0.678766 0.277882
outer loop
vertex 0.184145 0.151024 0.033747
vertex 0.128874 0.094572 0.031058
vertex 0.184889 0.150280 0.030108
endloop
endfacet
facet normal 0.696788 -0.697808 0.165986
outer loop
vertex 0.184889 0.150280 0.030108
vertex 0.128874 0.094572 0.031058
vertex 0.129331 0.094115 0.027216
endloop
endfacet
facet normal 0.701601 -0.700694 0.129555
outer loop
vertex 0.184889 0.150280 0.030108
vertex 0.129331 0.094115 0.027216
vertex 0.185236 0.149933 0.026352
endloop
endfacet
facet normal 0.706596 -0.707536 0.010753
outer loop
vertex 0.185236 0.149933 0.026352
vertex 0.129331 0.094115 0.027216
vertex 0.129361 0.094085 0.023320
endloop
endfacet
facet normal 0.707351 -0.706527 -0.021744
outer loop
vertex 0.185236 0.149933 0.026352
vertex 0.129361 0.094085 0.023320
vertex 0.185178 0.149991 0.022564
endloop
endfacet
facet normal 0.699235 -0.700086 -0.144742
outer loop
vertex 0.185178 0.149991 0.022564
vertex 0.129361 0.094085 0.023320
vertex 0.128962 0.094484 0.019465
endloop
endfacet
facet normal 0.696866 -0.696135 -0.172551
outer loop
vertex 0.185178 0.149991 0.022564
vertex 0.128962 0.094484 0.019465
vertex 0.184716 0.150453 0.018833
endloop
endfacet
facet normal 0.674884 -0.675641 -0.296717
outer loop
vertex 0.184716 0.150453 0.018833
vertex 0.128962 0.094484 0.019465
vertex 0.128144 0.095301 0.015744
endloop
endfacet
facet normal 0.670385 -0.669755 -0.319393
outer loop
vertex 0.184716 0.150453 0.018833
vertex 0.128144 0.095301 0.015744
vertex 0.183860 0.151308 0.015243
endloop
endfacet
facet normal 0.634136 -0.634787 -0.441494
outer loop
vertex 0.183860 0.151308 0.015243
vertex 0.128144 0.095301 0.015744
vertex 0.126928 0.096518 0.012248
endloop
endfacet
facet normal 0.628515 -0.627994 -0.458903
outer loop
vertex 0.183860 0.151308 0.015243
vertex 0.126928 0.096518 0.012248
vertex 0.182631 0.152538 0.011878
endloop
endfacet
facet normal 0.577986 -0.578523 -0.575538
outer loop
vertex 0.182631 0.152538 0.011878
vertex 0.126928 0.096518 0.012248
vertex 0.125342 0.098103 0.009062
endloop
endfacet
facet normal 0.572216 -0.571813 -0.587877
outer loop
vertex 0.182631 0.152538 0.011878
vertex 0.125342 0.098103 0.009062
vertex 0.181056 0.154112 0.008813
endloop
endfacet
facet normal 0.507791 -0.508207 -0.695610
outer loop
vertex 0.181056 0.154112 0.008813
vertex 0.125342 0.098103 0.009062
vertex 0.123426 0.100020 0.006263
endloop
endfacet
facet normal 0.502778 -0.502501 -0.703354
outer loop
vertex 0.181056 0.154112 0.008813
vertex 0.123426 0.100020 0.006263
vertex 0.179172 0.155996 0.006120
endloop
endfacet
facet normal 0.425264 -0.425549 -0.798786
outer loop
vertex 0.179172 0.155996 0.006120
vertex 0.123426 0.100020 0.006263
vertex 0.121225 0.102220 0.003919
endloop
endfacet
facet normal 0.421799 -0.421656 -0.802678
outer loop
vertex 0.179172 0.155996 0.006120
vertex 0.121225 0.102220 0.003919
vertex 0.177022 0.158146 0.003861
endloop
endfacet
facet normal 0.331053 -0.331204 -0.883577
outer loop
vertex 0.177022 0.158146 0.003861
vertex 0.121225 0.102220 0.003919
vertex 0.174655 0.160513 0.002087
endloop
endfacet
facet normal 0.332481 -0.332481 -0.882560
outer loop
vertex 0.174655 0.160513 0.002087
vertex 0.121225 0.102220 0.003919
vertex 0.065364 0.046359 0.003919
endloop
endfacet
facet normal 0.332483 -0.332484 -0.882558
outer loop
vertex 0.174655 0.160513 0.002087
vertex 0.065364 0.046359 0.003919
vertex 0.009503 -0.009503 0.003919
endloop
endfacet
facet normal 0.425407 -0.425407 -0.798785
outer loop
vertex 0.009503 -0.009503 0.003919
vertex 0.065364 0.046359 0.003919
vertex 0.011703 -0.011703 0.006263
endloop
endfacet
facet normal 0.425407 -0.425407 -0.798785
outer loop
vertex 0.009503 -0.009503 0.003919
vertex 0.011703 -0.011703 0.006263
vertex -0.044158 -0.067565 0.006263
endloop
endfacet
facet normal 0.507999 -0.507999 -0.695611
outer loop
vertex -0.044158 -0.067565 0.006263
vertex 0.011703 -0.011703 0.006263
vertex -0.042242 -0.069481 0.009062
endloop
endfacet
facet normal 0.508000 -0.508000 -0.695609
outer loop
vertex -0.044158 -0.067565 0.006263
vertex -0.042242 -0.069481 0.009062
vertex -0.098103 -0.125342 0.009062
endloop
endfacet
facet normal 0.578252 -0.578253 -0.575541
outer loop
vertex -0.098103 -0.125342 0.009062
vertex -0.042242 -0.069481 0.009062
vertex -0.096518 -0.126928 0.012248
endloop
endfacet
facet normal 0.578522 -0.577985 -0.575539
outer loop
vertex -0.098103 -0.125342 0.009062
vertex -0.096518 -0.126928 0.012248
vertex -0.152538 -0.182631 0.011878
endloop
endfacet
facet normal 0.627994 -0.628515 -0.458903
outer loop
vertex -0.152538 -0.182631 0.011878
vertex -0.096518 -0.126928 0.012248
vertex -0.151308 -0.183860 0.015243
endloop
endfacet
facet normal 0.634788 -0.634138 -0.441490
outer loop
vertex -0.151308 -0.183860 0.015243
vertex -0.096518 -0.126928 0.012248
vertex -0.095301 -0.128144 0.015744
endloop
endfacet
facet normal 0.669755 -0.670384 -0.319396
outer loop
vertex -0.151308 -0.183860 0.015243
vertex -0.095301 -0.128144 0.015744
vertex -0.150453 -0.184716 0.018833
endloop
endfacet
facet normal 0.675639 -0.674884 -0.296722
outer loop
vertex -0.150453 -0.184716 0.018833
vertex -0.095301 -0.128144 0.015744
vertex -0.094484 -0.128962 0.019465
endloop
endfacet
facet normal 0.696136 -0.696865 -0.172551
outer loop
vertex -0.150453 -0.184716 0.018833
vertex -0.094484 -0.128962 0.019465
vertex -0.149991 -0.185178 0.022564
endloop
endfacet
facet normal 0.700087 -0.699235 -0.144737
outer loop
vertex -0.149991 -0.185178 0.022564
vertex -0.094484 -0.128962 0.019465
vertex -0.094085 -0.129361 0.023320
endloop
endfacet
facet normal 0.706527 -0.707351 -0.021747
outer loop
vertex -0.149991 -0.185178 0.022564
vertex -0.094085 -0.129361 0.023320
vertex -0.149932 -0.185236 0.026352
endloop
endfacet
facet normal 0.707536 -0.706595 0.010752
outer loop
vertex -0.149932 -0.185236 0.026352
vertex -0.094085 -0.129361 0.023320
vertex -0.094115 -0.129331 0.027216
endloop
endfacet
facet normal 0.700693 -0.701601 0.129555
outer loop
vertex -0.149932 -0.185236 0.026352
vertex -0.094115 -0.129331 0.027216
vertex -0.150280 -0.184889 0.030108
endloop
endfacet
facet normal 0.697808 -0.696787 0.165986
outer loop
vertex -0.150280 -0.184889 0.030108
vertex -0.094115 -0.129331 0.027216
vertex -0.094572 -0.128874 0.031058
endloop
endfacet
facet normal 0.678767 -0.679748 0.277882
outer loop
vertex -0.150280 -0.184889 0.030108
vertex -0.094572 -0.128874 0.031058
vertex -0.151024 -0.184145 0.033747
endloop
endfacet
facet normal 0.671138 -0.670047 0.317194
outer loop
vertex -0.151024 -0.184145 0.033747
vertex -0.094572 -0.128874 0.031058
vertex -0.095446 -0.128000 0.034753
endloop
endfacet
facet normal 0.641246 -0.642295 0.419835
outer loop
vertex -0.151024 -0.184145 0.033747
vertex -0.095446 -0.128000 0.034753
vertex -0.152148 -0.183020 0.037185
endloop
endfacet
facet normal 0.628179 -0.627025 0.460685
outer loop
vertex -0.152148 -0.183020 0.037185
vertex -0.095446 -0.128000 0.034753
vertex -0.096715 -0.126731 0.038211
endloop
endfacet
facet normal 0.588996 -0.590104 0.552142
outer loop
vertex -0.152148 -0.183020 0.037185
vertex -0.096715 -0.126731 0.038211
vertex -0.153627 -0.181541 0.040343
endloop
endfacet
facet normal 0.569972 -0.568763 0.592993
outer loop
vertex -0.153627 -0.181541 0.040343
vertex -0.096715 -0.126731 0.038211
vertex -0.098349 -0.125097 0.041348
endloop
endfacet
facet normal 0.523216 -0.524373 0.671772
outer loop
vertex -0.153627 -0.181541 0.040343
vertex -0.098349 -0.125097 0.041348
vertex -0.155427 -0.179742 0.043149
endloop
endfacet
facet normal 0.497931 -0.496675 0.710900
outer loop
vertex -0.155427 -0.179742 0.043149
vertex -0.098349 -0.125097 0.041348
vertex -0.100307 -0.123138 0.044088
endloop
endfacet
facet normal 0.445406 -0.446607 0.775987
outer loop
vertex -0.155427 -0.179742 0.043149
vertex -0.100307 -0.123138 0.044088
vertex -0.157505 -0.177663 0.045539
endloop
endfacet
facet normal 0.413808 -0.412516 0.811537
outer loop
vertex -0.157505 -0.177663 0.045539
vertex -0.100307 -0.123138 0.044088
vertex -0.102543 -0.120903 0.046365
endloop
endfacet
facet normal 0.357365 -0.358599 0.862378
outer loop
vertex -0.157505 -0.177663 0.045539
vertex -0.102543 -0.120903 0.046365
vertex -0.159815 -0.175353 0.047456
endloop
endfacet
facet normal 0.319648 -0.318325 0.892466
outer loop
vertex -0.159815 -0.175353 0.047456
vertex -0.102543 -0.120903 0.046365
vertex -0.105002 -0.118444 0.048123
endloop
endfacet
facet normal 0.261108 -0.262368 0.928970
outer loop
vertex -0.159815 -0.175353 0.047456
vertex -0.105002 -0.118444 0.048123
vertex -0.162304 -0.172865 0.048859
endloop
endfacet
facet normal 0.217736 -0.216391 0.951717
outer loop
vertex -0.162304 -0.172865 0.048859
vertex -0.105002 -0.118444 0.048123
vertex -0.107624 -0.115822 0.049319
endloop
endfacet
facet normal 0.158847 -0.160124 0.974232
outer loop
vertex -0.162304 -0.172865 0.048859
vertex -0.107624 -0.115822 0.049319
vertex -0.164913 -0.170255 0.049713
endloop
endfacet
facet normal 0.110543 -0.109187 0.987856
outer loop
vertex -0.164913 -0.170255 0.049713
vertex -0.107624 -0.115822 0.049319
vertex -0.110345 -0.113100 0.049924
endloop
endfacet
facet normal 0.052930 -0.054216 0.997125
outer loop
vertex -0.164913 -0.170255 0.049713
vertex -0.110345 -0.113100 0.049924
vertex -0.167584 -0.167584 0.050000
endloop
endfacet
facet normal 0.000680 0.000680 0.999999
outer loop
vertex -0.167584 -0.167584 0.050000
vertex -0.110345 -0.113100 0.049924
vertex -0.113100 -0.110345 0.049924
endloop
endfacet
facet normal -0.054215 0.052931 0.997125
outer loop
vertex -0.167584 -0.167584 0.050000
vertex -0.113100 -0.110345 0.049924
vertex -0.170255 -0.164913 0.049713
endloop
endfacet
facet normal -0.109186 0.110543 0.987856
outer loop
vertex -0.170255 -0.164913 0.049713
vertex -0.113100 -0.110345 0.049924
vertex -0.115822 -0.107624 0.049319
endloop
endfacet
facet normal -0.160125 0.158848 0.974232
outer loop
vertex -0.170255 -0.164913 0.049713
vertex -0.115822 -0.107624 0.049319
vertex -0.172865 -0.162304 0.048859
endloop
endfacet
facet normal -0.216389 0.217733 0.951719
outer loop
vertex -0.172865 -0.162304 0.048859
vertex -0.115822 -0.107624 0.049319
vertex -0.118444 -0.105002 0.048123
endloop
endfacet
facet normal -0.262370 0.261109 0.928969
outer loop
vertex -0.172865 -0.162304 0.048859
vertex -0.118444 -0.105002 0.048123
vertex -0.175353 -0.159815 0.047456
endloop
endfacet
facet normal -0.318324 0.319649 0.892465
outer loop
vertex -0.175353 -0.159815 0.047456
vertex -0.118444 -0.105002 0.048123
vertex -0.120903 -0.102543 0.046365
endloop
endfacet
facet normal -0.358601 0.357367 0.862377
outer loop
vertex -0.175353 -0.159815 0.047456
vertex -0.120903 -0.102543 0.046365
vertex -0.177663 -0.157505 0.045539
endloop
endfacet
facet normal -0.412513 0.413808 0.811539
outer loop
vertex -0.177663 -0.157505 0.045539
vertex -0.120903 -0.102543 0.046365
vertex -0.123138 -0.100307 0.044088
endloop
endfacet
facet normal -0.446608 0.445407 0.775986
outer loop
vertex -0.177663 -0.157505 0.045539
vertex -0.123138 -0.100307 0.044088
vertex -0.179742 -0.155427 0.043149
endloop
endfacet
facet normal -0.496676 0.497932 0.710898
outer loop
vertex -0.179742 -0.155427 0.043149
vertex -0.123138 -0.100307 0.044088
vertex -0.125097 -0.098349 0.041348
endloop
endfacet
facet normal -0.524371 0.523210 0.671779
outer loop
vertex -0.179742 -0.155427 0.043149
vertex -0.125097 -0.098349 0.041348
vertex -0.181541 -0.153627 0.040343
endloop
endfacet
facet normal -0.568764 0.569974 0.592990
outer loop
vertex -0.181541 -0.153627 0.040343
vertex -0.125097 -0.098349 0.041348
vertex -0.126731 -0.096715 0.038211
endloop
endfacet
facet normal -0.590103 0.588993 0.552146
outer loop
vertex -0.181541 -0.153627 0.040343
vertex -0.126731 -0.096715 0.038211
vertex -0.183020 -0.152148 0.037185
endloop
endfacet
facet normal -0.627026 0.628181 0.460682
outer loop
vertex -0.183020 -0.152148 0.037185
vertex -0.126731 -0.096715 0.038211
vertex -0.128000 -0.095446 0.034753
endloop
endfacet
facet normal -0.642294 0.641244 0.419840
outer loop
vertex -0.183020 -0.152148 0.037185
vertex -0.128000 -0.095446 0.034753
vertex -0.184145 -0.151024 0.033747
endloop
endfacet
facet normal -0.670047 0.671139 0.317190
outer loop
vertex -0.184145 -0.151024 0.033747
vertex -0.128000 -0.095446 0.034753
vertex -0.128874 -0.094572 0.031058
endloop
endfacet
facet normal -0.679749 0.678765 0.277885
outer loop
vertex -0.184145 -0.151024 0.033747
vertex -0.128874 -0.094572 0.031058
vertex -0.184889 -0.150280 0.030108
endloop
endfacet
facet normal -0.696788 0.697808 0.165983
outer loop
vertex -0.184889 -0.150280 0.030108
vertex -0.128874 -0.094572 0.031058
vertex -0.129331 -0.094115 0.027216
endloop
endfacet
facet normal -0.701600 0.700694 0.129558
outer loop
vertex -0.184889 -0.150280 0.030108
vertex -0.129331 -0.094115 0.027216
vertex -0.185236 -0.149932 0.026352
endloop
endfacet
facet normal -0.706596 0.707536 0.010750
outer loop
vertex -0.185236 -0.149932 0.026352
vertex -0.129331 -0.094115 0.027216
vertex -0.129361 -0.094085 0.023320
endloop
endfacet
facet normal -0.707352 0.706527 -0.021744
outer loop
vertex -0.185236 -0.149932 0.026352
vertex -0.129361 -0.094085 0.023320
vertex -0.185178 -0.149991 0.022564
endloop
endfacet
facet normal -0.699235 0.700086 -0.144742
outer loop
vertex -0.185178 -0.149991 0.022564
vertex -0.129361 -0.094085 0.023320
vertex -0.128962 -0.094484 0.019465
endloop
endfacet
facet normal -0.696865 0.696136 -0.172551
outer loop
vertex -0.185178 -0.149991 0.022564
vertex -0.128962 -0.094484 0.019465
vertex -0.184716 -0.150453 0.018833
endloop
endfacet
facet normal -0.674884 0.675640 -0.296717
outer loop
vertex -0.184716 -0.150453 0.018833
vertex -0.128962 -0.094484 0.019465
vertex -0.128144 -0.095301 0.015744
endloop
endfacet
facet normal -0.670385 0.669755 -0.319393
outer loop
vertex -0.184716 -0.150453 0.018833
vertex -0.128144 -0.095301 0.015744
vertex -0.183860 -0.151308 0.015243
endloop
endfacet
facet normal -0.634137 0.634787 -0.441492
outer loop
vertex -0.183860 -0.151308 0.015243
vertex -0.128144 -0.095301 0.015744
vertex -0.126928 -0.096518 0.012248
endloop
endfacet
facet normal -0.628515 0.627994 -0.458903
outer loop
vertex -0.183860 -0.151308 0.015243
vertex -0.126928 -0.096518 0.012248
vertex -0.182631 -0.152538 0.011878
endloop
endfacet
facet normal -0.577985 0.578523 -0.575538
outer loop
vertex -0.182631 -0.152538 0.011878
vertex -0.126928 -0.096518 0.012248
vertex -0.125342 -0.098103 0.009062
endloop
endfacet
facet normal -0.572216 0.571813 -0.587877
outer loop
vertex -0.182631 -0.152538 0.011878
vertex -0.125342 -0.098103 0.009062
vertex -0.181056 -0.154112 0.008813
endloop
endfacet
facet normal -0.507790 0.508206 -0.695612
outer loop
vertex -0.181056 -0.154112 0.008813
vertex -0.125342 -0.098103 0.009062
vertex -0.123426 -0.100020 0.006263
endloop
endfacet
facet normal -0.502779 0.502502 -0.703352
outer loop
vertex -0.181056 -0.154112 0.008813
vertex -0.123426 -0.100020 0.006263
vertex -0.179172 -0.155996 0.006120
endloop
endfacet
facet normal -0.425263 0.425549 -0.798786
outer loop
vertex -0.179172 -0.155996 0.006120
vertex -0.123426 -0.100020 0.006263
vertex -0.121225 -0.102220 0.003919
endloop
endfacet
facet normal -0.421799 0.421656 -0.802678
outer loop
vertex -0.179172 -0.155996 0.006120
vertex -0.121225 -0.102220 0.003919
vertex -0.177022 -0.158146 0.003861
endloop
endfacet
facet normal 0.571814 -0.572217 -0.587875
outer loop
vertex -0.152538 -0.182631 0.011878
vertex -0.154112 -0.181056 0.008813
vertex -0.098103 -0.125342 0.009062
endloop
endfacet
facet normal 0.508206 -0.507790 -0.695612
outer loop
vertex -0.098103 -0.125342 0.009062
vertex -0.154112 -0.181056 0.008813
vertex -0.100020 -0.123426 0.006263
endloop
endfacet
facet normal 0.507999 -0.507999 -0.695611
outer loop
vertex -0.098103 -0.125342 0.009062
vertex -0.100020 -0.123426 0.006263
vertex -0.044158 -0.067565 0.006263
endloop
endfacet
facet normal 0.425407 -0.425407 -0.798786
outer loop
vertex -0.044158 -0.067565 0.006263
vertex -0.100020 -0.123426 0.006263
vertex -0.046359 -0.065364 0.003919
endloop
endfacet
facet normal 0.425407 -0.425407 -0.798785
outer loop
vertex -0.044158 -0.067565 0.006263
vertex -0.046359 -0.065364 0.003919
vertex 0.009503 -0.009503 0.003919
endloop
endfacet
facet normal 0.332481 -0.332481 -0.882560
outer loop
vertex 0.009503 -0.009503 0.003919
vertex -0.046359 -0.065364 0.003919
vertex 0.174655 0.160513 0.002087
endloop
endfacet
facet normal 0.502503 -0.502781 -0.703351
outer loop
vertex -0.154112 -0.181056 0.008813
vertex -0.155996 -0.179172 0.006120
vertex -0.100020 -0.123426 0.006263
endloop
endfacet
facet normal 0.425551 -0.425266 -0.798783
outer loop
vertex -0.100020 -0.123426 0.006263
vertex -0.155996 -0.179172 0.006120
vertex -0.102220 -0.121225 0.003919
endloop
endfacet
facet normal 0.425407 -0.425407 -0.798786
outer loop
vertex -0.100020 -0.123426 0.006263
vertex -0.102220 -0.121225 0.003919
vertex -0.046359 -0.065364 0.003919
endloop
endfacet
facet normal 0.332482 -0.332483 -0.882559
outer loop
vertex -0.046359 -0.065364 0.003919
vertex -0.102220 -0.121225 0.003919
vertex 0.174655 0.160513 0.002087
endloop
endfacet
facet normal 0.421655 -0.421798 -0.802679
outer loop
vertex -0.155996 -0.179172 0.006120
vertex -0.158146 -0.177022 0.003861
vertex -0.102220 -0.121225 0.003919
endloop
endfacet
facet normal 0.338304 -0.338175 -0.878173
outer loop
vertex -0.102220 -0.121225 0.003919
vertex -0.158146 -0.177022 0.003861
vertex 0.174655 0.160513 0.002087
endloop
endfacet
facet normal 0.331130 -0.331129 -0.883576
outer loop
vertex -0.158146 -0.177022 0.003861
vertex -0.160513 -0.174655 0.002087
vertex 0.174655 0.160513 0.002087
endloop
endfacet
facet normal -0.571814 0.572217 -0.587875
outer loop
vertex 0.152538 0.182631 0.011878
vertex 0.154112 0.181056 0.008813
vertex 0.098103 0.125342 0.009062
endloop
endfacet
facet normal -0.508206 0.507790 -0.695612
outer loop
vertex 0.098103 0.125342 0.009062
vertex 0.154112 0.181056 0.008813
vertex 0.100020 0.123426 0.006263
endloop
endfacet
facet normal -0.507998 0.507998 -0.695612
outer loop
vertex 0.098103 0.125342 0.009062
vertex 0.100020 0.123426 0.006263
vertex 0.044158 0.067565 0.006263
endloop
endfacet
facet normal -0.425407 0.425407 -0.798785
outer loop
vertex 0.044158 0.067565 0.006263
vertex 0.100020 0.123426 0.006263
vertex 0.046359 0.065364 0.003919
endloop
endfacet
facet normal -0.425407 0.425407 -0.798785
outer loop
vertex 0.044158 0.067565 0.006263
vertex 0.046359 0.065364 0.003919
vertex -0.009503 0.009503 0.003919
endloop
endfacet
facet normal -0.332481 0.332481 -0.882560
outer loop
vertex -0.009503 0.009503 0.003919
vertex 0.046359 0.065364 0.003919
vertex -0.174655 -0.160513 0.002087
endloop
endfacet
facet normal -0.502503 0.502781 -0.703351
outer loop
vertex 0.154112 0.181056 0.008813
vertex 0.155996 0.179172 0.006120
vertex 0.100020 0.123426 0.006263
endloop
endfacet
facet normal -0.425551 0.425266 -0.798784
outer loop
vertex 0.100020 0.123426 0.006263
vertex 0.155996 0.179172 0.006120
vertex 0.102220 0.121225 0.003919
endloop
endfacet
facet normal -0.425406 0.425406 -0.798786
outer loop
vertex 0.100020 0.123426 0.006263
vertex 0.102220 0.121225 0.003919
vertex 0.046359 0.065364 0.003919
endloop
endfacet
facet normal -0.332483 0.332483 -0.882559
outer loop
vertex 0.046359 0.065364 0.003919
vertex 0.102220 0.121225 0.003919
vertex -0.174655 -0.160513 0.002087
endloop
endfacet
facet normal -0.421655 0.421798 -0.802679
outer loop
vertex 0.155996 0.179172 0.006120
vertex 0.158146 0.177022 0.003861
vertex 0.102220 0.121225 0.003919
endloop
endfacet
facet normal -0.338305 0.338176 -0.878172
outer loop
vertex 0.102220 0.121225 0.003919
vertex 0.158146 0.177022 0.003861
vertex -0.174655 -0.160513 0.002087
endloop
endfacet
facet normal -0.331129 0.331129 -0.883576
outer loop
vertex 0.158146 0.177022 0.003861
vertex 0.160513 0.174655 0.002087
vertex -0.174655 -0.160513 0.002087
endloop
endfacet
facet normal -0.425406 0.425406 -0.798786
outer loop
vertex -0.065364 -0.046359 0.003919
vertex -0.121225 -0.102220 0.003919
vertex -0.067565 -0.044158 0.006263
endloop
endfacet
facet normal -0.425407 0.425407 -0.798785
outer loop
vertex -0.067565 -0.044158 0.006263
vertex -0.121225 -0.102220 0.003919
vertex -0.123426 -0.100020 0.006263
endloop
endfacet
facet normal -0.508000 0.507999 -0.695610
outer loop
vertex -0.067565 -0.044158 0.006263
vertex -0.123426 -0.100020 0.006263
vertex -0.069481 -0.042242 0.009062
endloop
endfacet
facet normal -0.507998 0.507999 -0.695611
outer loop
vertex -0.069481 -0.042242 0.009062
vertex -0.123426 -0.100020 0.006263
vertex -0.125342 -0.098103 0.009062
endloop
endfacet
facet normal -0.578254 0.578254 -0.575538
outer loop
vertex -0.069481 -0.042242 0.009062
vertex -0.125342 -0.098103 0.009062
vertex -0.071067 -0.040656 0.012248
endloop
endfacet
facet normal -0.578255 0.578254 -0.575538
outer loop
vertex -0.071067 -0.040656 0.012248
vertex -0.125342 -0.098103 0.009062
vertex -0.126928 -0.096518 0.012248
endloop
endfacet
facet normal -0.634462 0.634462 -0.441494
outer loop
vertex -0.071067 -0.040656 0.012248
vertex -0.126928 -0.096518 0.012248
vertex -0.072283 -0.039440 0.015744
endloop
endfacet
facet normal -0.634463 0.634463 -0.441489
outer loop
vertex -0.072283 -0.039440 0.015744
vertex -0.126928 -0.096518 0.012248
vertex -0.128144 -0.095301 0.015744
endloop
endfacet
facet normal -0.675261 0.675261 -0.296722
outer loop
vertex -0.072283 -0.039440 0.015744
vertex -0.128144 -0.095301 0.015744
vertex -0.073100 -0.038622 0.019465
endloop
endfacet
facet normal -0.675263 0.675263 -0.296716
outer loop
vertex -0.073100 -0.038622 0.019465
vertex -0.128144 -0.095301 0.015744
vertex -0.128962 -0.094484 0.019465
endloop
endfacet
facet normal -0.699660 0.699661 -0.144743
outer loop
vertex -0.073100 -0.038622 0.019465
vertex -0.128962 -0.094484 0.019465
vertex -0.073499 -0.038224 0.023320
endloop
endfacet
facet normal -0.699661 0.699661 -0.144740
outer loop
vertex -0.073499 -0.038224 0.023320
vertex -0.128962 -0.094484 0.019465
vertex -0.129361 -0.094085 0.023320
endloop
endfacet
facet normal -0.707066 0.707066 0.010752
outer loop
vertex -0.073499 -0.038224 0.023320
vertex -0.129361 -0.094085 0.023320
vertex -0.073470 -0.038253 0.027216
endloop
endfacet
facet normal -0.707066 0.707066 0.010753
outer loop
vertex -0.073470 -0.038253 0.027216
vertex -0.129361 -0.094085 0.023320
vertex -0.129331 -0.094115 0.027216
endloop
endfacet
facet normal -0.697298 0.697298 0.165984
outer loop
vertex -0.073470 -0.038253 0.027216
vertex -0.129331 -0.094115 0.027216
vertex -0.073012 -0.038711 0.031058
endloop
endfacet
facet normal -0.697298 0.697298 0.165987
outer loop
vertex -0.073012 -0.038711 0.031058
vertex -0.129331 -0.094115 0.027216
vertex -0.128874 -0.094572 0.031058
endloop
endfacet
facet normal -0.670595 0.670594 0.317185
outer loop
vertex -0.073012 -0.038711 0.031058
vertex -0.128874 -0.094572 0.031058
vertex -0.072138 -0.039584 0.034753
endloop
endfacet
facet normal -0.670592 0.670593 0.317192
outer loop
vertex -0.072138 -0.039584 0.034753
vertex -0.128874 -0.094572 0.031058
vertex -0.128000 -0.095446 0.034753
endloop
endfacet
facet normal -0.627603 0.627603 0.460683
outer loop
vertex -0.072138 -0.039584 0.034753
vertex -0.128000 -0.095446 0.034753
vertex -0.070869 -0.040854 0.038211
endloop
endfacet
facet normal -0.627603 0.627603 0.460682
outer loop
vertex -0.070869 -0.040854 0.038211
vertex -0.128000 -0.095446 0.034753
vertex -0.126731 -0.096715 0.038211
endloop
endfacet
facet normal -0.569367 0.569367 0.592994
outer loop
vertex -0.070869 -0.040854 0.038211
vertex -0.126731 -0.096715 0.038211
vertex -0.069236 -0.042487 0.041348
endloop
endfacet
facet normal -0.569368 0.569368 0.592993
outer loop
vertex -0.069236 -0.042487 0.041348
vertex -0.126731 -0.096715 0.038211
vertex -0.125097 -0.098349 0.041348
endloop
endfacet
facet normal -0.497306 0.497306 0.710896
outer loop
vertex -0.069236 -0.042487 0.041348
vertex -0.125097 -0.098349 0.041348
vertex -0.067277 -0.044446 0.044088
endloop
endfacet
facet normal -0.497304 0.497304 0.710899
outer loop
vertex -0.067277 -0.044446 0.044088
vertex -0.125097 -0.098349 0.041348
vertex -0.123138 -0.100307 0.044088
endloop
endfacet
facet normal -0.413163 0.413163 0.811537
outer loop
vertex -0.067277 -0.044446 0.044088
vertex -0.123138 -0.100307 0.044088
vertex -0.065041 -0.046682 0.046365
endloop
endfacet
facet normal -0.413161 0.413162 0.811539
outer loop
vertex -0.065041 -0.046682 0.046365
vertex -0.123138 -0.100307 0.044088
vertex -0.120903 -0.102543 0.046365
endloop
endfacet
facet normal -0.318987 0.318986 0.892466
outer loop
vertex -0.065041 -0.046682 0.046365
vertex -0.120903 -0.102543 0.046365
vertex -0.062582 -0.049140 0.048123
endloop
endfacet
facet normal -0.318986 0.318986 0.892466
outer loop
vertex -0.062582 -0.049140 0.048123
vertex -0.120903 -0.102543 0.046365
vertex -0.118444 -0.105002 0.048123
endloop
endfacet
facet normal -0.217062 0.217062 0.951719
outer loop
vertex -0.062582 -0.049140 0.048123
vertex -0.118444 -0.105002 0.048123
vertex -0.059960 -0.051762 0.049319
endloop
endfacet
facet normal -0.217063 0.217062 0.951718
outer loop
vertex -0.059960 -0.051762 0.049319
vertex -0.118444 -0.105002 0.048123
vertex -0.115822 -0.107624 0.049319
endloop
endfacet
facet normal -0.109864 0.109864 0.987856
outer loop
vertex -0.059960 -0.051762 0.049319
vertex -0.115822 -0.107624 0.049319
vertex -0.057239 -0.054484 0.049924
endloop
endfacet
facet normal -0.109864 0.109864 0.987856
outer loop
vertex -0.057239 -0.054484 0.049924
vertex -0.115822 -0.107624 0.049319
vertex -0.113100 -0.110345 0.049924
endloop
endfacet
facet normal 0.000000 0.000000 1.000000
outer loop
vertex -0.057239 -0.054484 0.049924
vertex -0.113100 -0.110345 0.049924
vertex -0.054484 -0.057239 0.049924
endloop
endfacet
facet normal -0.000001 0.000000 1.000000
outer loop
vertex -0.054484 -0.057239 0.049924
vertex -0.113100 -0.110345 0.049924
vertex -0.110345 -0.113100 0.049924
endloop
endfacet
facet normal 0.109865 -0.109865 0.987856
outer loop
vertex -0.054484 -0.057239 0.049924
vertex -0.110345 -0.113100 0.049924
vertex -0.051762 -0.059960 0.049319
endloop
endfacet
facet normal 0.109864 -0.109864 0.987856
outer loop
vertex -0.051762 -0.059960 0.049319
vertex -0.110345 -0.113100 0.049924
vertex -0.107624 -0.115822 0.049319
endloop
endfacet
facet normal 0.217063 -0.217061 0.951718
outer loop
vertex -0.051762 -0.059960 0.049319
vertex -0.107624 -0.115822 0.049319
vertex -0.049140 -0.062582 0.048123
endloop
endfacet
facet normal 0.217061 -0.217062 0.951719
outer loop
vertex -0.049140 -0.062582 0.048123
vertex -0.107624 -0.115822 0.049319
vertex -0.105002 -0.118444 0.048123
endloop
endfacet
facet normal 0.318987 -0.318985 0.892466
outer loop
vertex -0.049140 -0.062582 0.048123
vertex -0.105002 -0.118444 0.048123
vertex -0.046682 -0.065041 0.046365
endloop
endfacet
facet normal 0.318985 -0.318985 0.892467
outer loop
vertex -0.046682 -0.065041 0.046365
vertex -0.105002 -0.118444 0.048123
vertex -0.102543 -0.120903 0.046365
endloop
endfacet
facet normal 0.413162 -0.413162 0.811538
outer loop
vertex -0.046682 -0.065041 0.046365
vertex -0.102543 -0.120903 0.046365
vertex -0.044446 -0.067277 0.044088
endloop
endfacet
facet normal 0.413161 -0.413162 0.811539
outer loop
vertex -0.044446 -0.067277 0.044088
vertex -0.102543 -0.120903 0.046365
vertex -0.100307 -0.123138 0.044088
endloop
endfacet
facet normal 0.497306 -0.497305 0.710897
outer loop
vertex -0.044446 -0.067277 0.044088
vertex -0.100307 -0.123138 0.044088
vertex -0.042487 -0.069235 0.041348
endloop
endfacet
facet normal 0.497304 -0.497304 0.710899
outer loop
vertex -0.042487 -0.069235 0.041348
vertex -0.100307 -0.123138 0.044088
vertex -0.098349 -0.125097 0.041348
endloop
endfacet
facet normal 0.569369 -0.569368 0.592992
outer loop
vertex -0.042487 -0.069235 0.041348
vertex -0.098349 -0.125097 0.041348
vertex -0.040854 -0.070869 0.038211
endloop
endfacet
facet normal 0.569369 -0.569370 0.592990
outer loop
vertex -0.040854 -0.070869 0.038211
vertex -0.098349 -0.125097 0.041348
vertex -0.096715 -0.126731 0.038211
endloop
endfacet
facet normal 0.627602 -0.627602 0.460686
outer loop
vertex -0.040854 -0.070869 0.038211
vertex -0.096715 -0.126731 0.038211
vertex -0.039584 -0.072138 0.034753
endloop
endfacet
facet normal 0.627603 -0.627603 0.460683
outer loop
vertex -0.039584 -0.072138 0.034753
vertex -0.096715 -0.126731 0.038211
vertex -0.095446 -0.128000 0.034753
endloop
endfacet
facet normal 0.670593 -0.670594 0.317189
outer loop
vertex -0.039584 -0.072138 0.034753
vertex -0.095446 -0.128000 0.034753
vertex -0.038711 -0.073012 0.031058
endloop
endfacet
facet normal 0.670594 -0.670594 0.317187
outer loop
vertex -0.038711 -0.073012 0.031058
vertex -0.095446 -0.128000 0.034753
vertex -0.094572 -0.128874 0.031058
endloop
endfacet
facet normal 0.697298 -0.697298 0.165988
outer loop
vertex -0.038711 -0.073012 0.031058
vertex -0.094572 -0.128874 0.031058
vertex -0.038253 -0.073470 0.027216
endloop
endfacet
facet normal 0.697298 -0.697298 0.165984
outer loop
vertex -0.038253 -0.073470 0.027216
vertex -0.094572 -0.128874 0.031058
vertex -0.094115 -0.129331 0.027216
endloop
endfacet
facet normal 0.707066 -0.707066 0.010754
outer loop
vertex -0.038253 -0.073470 0.027216
vertex -0.094115 -0.129331 0.027216
vertex -0.038224 -0.073499 0.023320
endloop
endfacet
facet normal 0.707066 -0.707066 0.010752
outer loop
vertex -0.038224 -0.073499 0.023320
vertex -0.094115 -0.129331 0.027216
vertex -0.094085 -0.129361 0.023320
endloop
endfacet
facet normal 0.699661 -0.699661 -0.144738
outer loop
vertex -0.038224 -0.073499 0.023320
vertex -0.094085 -0.129361 0.023320
vertex -0.038622 -0.073100 0.019465
endloop
endfacet
facet normal 0.699661 -0.699660 -0.144742
outer loop
vertex -0.038622 -0.073100 0.019465
vertex -0.094085 -0.129361 0.023320
vertex -0.094484 -0.128962 0.019465
endloop
endfacet
facet normal 0.675261 -0.675262 -0.296723
outer loop
vertex -0.038622 -0.073100 0.019465
vertex -0.094484 -0.128962 0.019465
vertex -0.039440 -0.072283 0.015744
endloop
endfacet
facet normal 0.675263 -0.675262 -0.296718
outer loop
vertex -0.039440 -0.072283 0.015744
vertex -0.094484 -0.128962 0.019465
vertex -0.095301 -0.128144 0.015744
endloop
endfacet
facet normal 0.634462 -0.634462 -0.441494
outer loop
vertex -0.039440 -0.072283 0.015744
vertex -0.095301 -0.128144 0.015744
vertex -0.040656 -0.071067 0.012248
endloop
endfacet
facet normal 0.634463 -0.634463 -0.441490
outer loop
vertex -0.040656 -0.071067 0.012248
vertex -0.095301 -0.128144 0.015744
vertex -0.096518 -0.126928 0.012248
endloop
endfacet
facet normal 0.578253 -0.578253 -0.575541
outer loop
vertex -0.040656 -0.071067 0.012248
vertex -0.096518 -0.126928 0.012248
vertex -0.042242 -0.069481 0.009062
endloop
endfacet
facet normal -0.425407 0.425407 -0.798786
outer loop
vertex -0.065364 -0.046359 0.003919
vertex -0.067565 -0.044158 0.006263
vertex -0.011703 0.011703 0.006263
endloop
endfacet
facet normal -0.507999 0.507999 -0.695610
outer loop
vertex -0.011703 0.011703 0.006263
vertex -0.067565 -0.044158 0.006263
vertex -0.013620 0.013620 0.009062
endloop
endfacet
facet normal -0.508000 0.508000 -0.695610
outer loop
vertex -0.011703 0.011703 0.006263
vertex -0.013620 0.013620 0.009062
vertex 0.042242 0.069481 0.009062
endloop
endfacet
facet normal -0.578253 0.578253 -0.575540
outer loop
vertex 0.042242 0.069481 0.009062
vertex -0.013620 0.013620 0.009062
vertex 0.040656 0.071067 0.012248
endloop
endfacet
facet normal -0.578253 0.578253 -0.575541
outer loop
vertex 0.042242 0.069481 0.009062
vertex 0.040656 0.071067 0.012248
vertex 0.096518 0.126928 0.012248
endloop
endfacet
facet normal -0.634462 0.634462 -0.441494
outer loop
vertex 0.096518 0.126928 0.012248
vertex 0.040656 0.071067 0.012248
vertex 0.095301 0.128144 0.015744
endloop
endfacet
facet normal -0.508000 0.508000 -0.695610
outer loop
vertex -0.013620 0.013620 0.009062
vertex -0.067565 -0.044158 0.006263
vertex -0.069481 -0.042242 0.009062
endloop
endfacet
facet normal -0.578253 0.578253 -0.575540
outer loop
vertex -0.013620 0.013620 0.009062
vertex -0.069481 -0.042242 0.009062
vertex -0.015205 0.015205 0.012248
endloop
endfacet
facet normal -0.578254 0.578254 -0.575540
outer loop
vertex -0.015205 0.015205 0.012248
vertex -0.069481 -0.042242 0.009062
vertex -0.071067 -0.040656 0.012248
endloop
endfacet
facet normal -0.634463 0.634463 -0.441491
outer loop
vertex -0.015205 0.015205 0.012248
vertex -0.071067 -0.040656 0.012248
vertex -0.016421 0.016422 0.015744
endloop
endfacet
facet normal -0.634463 0.634462 -0.441491
outer loop
vertex -0.016421 0.016422 0.015744
vertex -0.071067 -0.040656 0.012248
vertex -0.072283 -0.039440 0.015744
endloop
endfacet
facet normal -0.675262 0.675262 -0.296719
outer loop
vertex -0.016421 0.016422 0.015744
vertex -0.072283 -0.039440 0.015744
vertex -0.017239 0.017239 0.019465
endloop
endfacet
facet normal -0.675262 0.675262 -0.296720
outer loop
vertex -0.017239 0.017239 0.019465
vertex -0.072283 -0.039440 0.015744
vertex -0.073100 -0.038622 0.019465
endloop
endfacet
facet normal -0.699660 0.699661 -0.144741
outer loop
vertex -0.017239 0.017239 0.019465
vertex -0.073100 -0.038622 0.019465
vertex -0.017638 0.017638 0.023320
endloop
endfacet
facet normal -0.699661 0.699661 -0.144739
outer loop
vertex -0.017638 0.017638 0.023320
vertex -0.073100 -0.038622 0.019465
vertex -0.073499 -0.038224 0.023320
endloop
endfacet
facet normal -0.707066 0.707066 0.010753
outer loop
vertex -0.017638 0.017638 0.023320
vertex -0.073499 -0.038224 0.023320
vertex -0.017608 0.017608 0.027216
endloop
endfacet
facet normal -0.707066 0.707066 0.010753
outer loop
vertex -0.017608 0.017608 0.027216
vertex -0.073499 -0.038224 0.023320
vertex -0.073470 -0.038253 0.027216
endloop
endfacet
facet normal -0.697298 0.697298 0.165985
outer loop
vertex -0.017608 0.017608 0.027216
vertex -0.073470 -0.038253 0.027216
vertex -0.017151 0.017151 0.031058
endloop
endfacet
facet normal -0.697298 0.697298 0.165985
outer loop
vertex -0.017151 0.017151 0.031058
vertex -0.073470 -0.038253 0.027216
vertex -0.073012 -0.038711 0.031058
endloop
endfacet
facet normal -0.670595 0.670593 0.317187
outer loop
vertex -0.017151 0.017151 0.031058
vertex -0.073012 -0.038711 0.031058
vertex -0.016277 0.016277 0.034753
endloop
endfacet
facet normal -0.670593 0.670595 0.317187
outer loop
vertex -0.016277 0.016277 0.034753
vertex -0.073012 -0.038711 0.031058
vertex -0.072138 -0.039584 0.034753
endloop
endfacet
facet normal -0.627602 0.627603 0.460685
outer loop
vertex -0.016277 0.016277 0.034753
vertex -0.072138 -0.039584 0.034753
vertex -0.015008 0.015008 0.038211
endloop
endfacet
facet normal -0.627603 0.627603 0.460684
outer loop
vertex -0.015008 0.015008 0.038211
vertex -0.072138 -0.039584 0.034753
vertex -0.070869 -0.040854 0.038211
endloop
endfacet
facet normal -0.569368 0.569368 0.592993
outer loop
vertex -0.015008 0.015008 0.038211
vertex -0.070869 -0.040854 0.038211
vertex -0.013374 0.013374 0.041348
endloop
endfacet
facet normal -0.569368 0.569368 0.592993
outer loop
vertex -0.013374 0.013374 0.041348
vertex -0.070869 -0.040854 0.038211
vertex -0.069236 -0.042487 0.041348
endloop
endfacet
facet normal -0.497303 0.497305 0.710899
outer loop
vertex -0.013374 0.013374 0.041348
vertex -0.069236 -0.042487 0.041348
vertex -0.011416 0.011416 0.044088
endloop
endfacet
facet normal -0.497306 0.497305 0.710897
outer loop
vertex -0.011416 0.011416 0.044088
vertex -0.069236 -0.042487 0.041348
vertex -0.067277 -0.044446 0.044088
endloop
endfacet
facet normal -0.413161 0.413163 0.811538
outer loop
vertex -0.011416 0.011416 0.044088
vertex -0.067277 -0.044446 0.044088
vertex -0.009180 0.009180 0.046365
endloop
endfacet
facet normal -0.413161 0.413162 0.811538
outer loop
vertex -0.009180 0.009180 0.046365
vertex -0.067277 -0.044446 0.044088
vertex -0.065041 -0.046682 0.046365
endloop
endfacet
facet normal -0.318987 0.318986 0.892466
outer loop
vertex -0.009180 0.009180 0.046365
vertex -0.065041 -0.046682 0.046365
vertex -0.006721 0.006721 0.048123
endloop
endfacet
facet normal -0.318987 0.318986 0.892466
outer loop
vertex -0.006721 0.006721 0.048123
vertex -0.065041 -0.046682 0.046365
vertex -0.062582 -0.049140 0.048123
endloop
endfacet
facet normal -0.217059 0.217062 0.951720
outer loop
vertex -0.006721 0.006721 0.048123
vertex -0.062582 -0.049140 0.048123
vertex -0.004099 0.004099 0.049319
endloop
endfacet
facet normal -0.217065 0.217062 0.951718
outer loop
vertex -0.004099 0.004099 0.049319
vertex -0.062582 -0.049140 0.048123
vertex -0.059960 -0.051762 0.049319
endloop
endfacet
facet normal -0.109863 0.109864 0.987856
outer loop
vertex -0.004099 0.004099 0.049319
vertex -0.059960 -0.051762 0.049319
vertex -0.001377 0.001378 0.049924
endloop
endfacet
facet normal -0.109865 0.109864 0.987856
outer loop
vertex -0.001377 0.001378 0.049924
vertex -0.059960 -0.051762 0.049319
vertex -0.057239 -0.054484 0.049924
endloop
endfacet
facet normal -0.000002 0.000000 1.000000
outer loop
vertex -0.001377 0.001378 0.049924
vertex -0.057239 -0.054484 0.049924
vertex 0.001377 -0.001377 0.049924
endloop
endfacet
facet normal 0.000001 0.000000 1.000000
outer loop
vertex 0.001377 -0.001377 0.049924
vertex -0.057239 -0.054484 0.049924
vertex -0.054484 -0.057239 0.049924
endloop
endfacet
facet normal 0.109864 -0.109864 0.987856
outer loop
vertex 0.001377 -0.001377 0.049924
vertex -0.054484 -0.057239 0.049924
vertex 0.004099 -0.004099 0.049319
endloop
endfacet
facet normal 0.109864 -0.109864 0.987856
outer loop
vertex 0.004099 -0.004099 0.049319
vertex -0.054484 -0.057239 0.049924
vertex -0.051762 -0.059960 0.049319
endloop
endfacet
facet normal 0.217063 -0.217062 0.951718
outer loop
vertex 0.004099 -0.004099 0.049319
vertex -0.051762 -0.059960 0.049319
vertex 0.006721 -0.006721 0.048123
endloop
endfacet
facet normal 0.217061 -0.217062 0.951719
outer loop
vertex 0.006721 -0.006721 0.048123
vertex -0.051762 -0.059960 0.049319
vertex -0.049140 -0.062582 0.048123
endloop
endfacet
facet normal 0.318986 -0.318985 0.892466
outer loop
vertex 0.006721 -0.006721 0.048123
vertex -0.049140 -0.062582 0.048123
vertex 0.009180 -0.009180 0.046365
endloop
endfacet
facet normal 0.318986 -0.318986 0.892466
outer loop
vertex 0.009180 -0.009180 0.046365
vertex -0.049140 -0.062582 0.048123
vertex -0.046682 -0.065041 0.046365
endloop
endfacet
facet normal 0.413162 -0.413162 0.811538
outer loop
vertex 0.009180 -0.009180 0.046365
vertex -0.046682 -0.065041 0.046365
vertex 0.011416 -0.011416 0.044088
endloop
endfacet
facet normal 0.413162 -0.413163 0.811538
outer loop
vertex 0.011416 -0.011416 0.044088
vertex -0.046682 -0.065041 0.046365
vertex -0.044446 -0.067277 0.044088
endloop
endfacet
facet normal 0.497306 -0.497304 0.710898
outer loop
vertex 0.011416 -0.011416 0.044088
vertex -0.044446 -0.067277 0.044088
vertex 0.013374 -0.013374 0.041348
endloop
endfacet
facet normal 0.497304 -0.497305 0.710898
outer loop
vertex 0.013374 -0.013374 0.041348
vertex -0.044446 -0.067277 0.044088
vertex -0.042487 -0.069235 0.041348
endloop
endfacet
facet normal 0.569368 -0.569368 0.592992
outer loop
vertex 0.013374 -0.013374 0.041348
vertex -0.042487 -0.069235 0.041348
vertex 0.015008 -0.015008 0.038211
endloop
endfacet
facet normal 0.569367 -0.569368 0.592994
outer loop
vertex 0.015008 -0.015008 0.038211
vertex -0.042487 -0.069235 0.041348
vertex -0.040854 -0.070869 0.038211
endloop
endfacet
facet normal 0.627602 -0.627603 0.460684
outer loop
vertex 0.015008 -0.015008 0.038211
vertex -0.040854 -0.070869 0.038211
vertex 0.016277 -0.016277 0.034753
endloop
endfacet
facet normal 0.627602 -0.627603 0.460684
outer loop
vertex 0.016277 -0.016277 0.034753
vertex -0.040854 -0.070869 0.038211
vertex -0.039584 -0.072138 0.034753
endloop
endfacet
facet normal 0.670594 -0.670595 0.317186
outer loop
vertex 0.016277 -0.016277 0.034753
vertex -0.039584 -0.072138 0.034753
vertex 0.017151 -0.017151 0.031058
endloop
endfacet
facet normal 0.670594 -0.670593 0.317187
outer loop
vertex 0.017151 -0.017151 0.031058
vertex -0.039584 -0.072138 0.034753
vertex -0.038711 -0.073012 0.031058
endloop
endfacet
facet normal 0.697298 -0.697298 0.165987
outer loop
vertex 0.017151 -0.017151 0.031058
vertex -0.038711 -0.073012 0.031058
vertex 0.017608 -0.017608 0.027216
endloop
endfacet
facet normal 0.697298 -0.697298 0.165984
outer loop
vertex 0.017608 -0.017608 0.027216
vertex -0.038711 -0.073012 0.031058
vertex -0.038253 -0.073470 0.027216
endloop
endfacet
facet normal 0.707066 -0.707066 0.010754
outer loop
vertex 0.017608 -0.017608 0.027216
vertex -0.038253 -0.073470 0.027216
vertex 0.017638 -0.017638 0.023320
endloop
endfacet
facet normal 0.707066 -0.707066 0.010751
outer loop
vertex 0.017638 -0.017638 0.023320
vertex -0.038253 -0.073470 0.027216
vertex -0.038224 -0.073499 0.023320
endloop
endfacet
facet normal 0.699660 -0.699661 -0.144741
outer loop
vertex 0.017638 -0.017638 0.023320
vertex -0.038224 -0.073499 0.023320
vertex 0.017239 -0.017239 0.019465
endloop
endfacet
facet normal 0.699661 -0.699661 -0.144738
outer loop
vertex 0.017239 -0.017239 0.019465
vertex -0.038224 -0.073499 0.023320
vertex -0.038622 -0.073100 0.019465
endloop
endfacet
facet normal 0.675261 -0.675262 -0.296721
outer loop
vertex 0.017239 -0.017239 0.019465
vertex -0.038622 -0.073100 0.019465
vertex 0.016421 -0.016421 0.015744
endloop
endfacet
facet normal 0.675262 -0.675262 -0.296719
outer loop
vertex 0.016421 -0.016421 0.015744
vertex -0.038622 -0.073100 0.019465
vertex -0.039440 -0.072283 0.015744
endloop
endfacet
facet normal 0.634463 -0.634463 -0.441491
outer loop
vertex 0.016421 -0.016421 0.015744
vertex -0.039440 -0.072283 0.015744
vertex 0.015205 -0.015205 0.012248
endloop
endfacet
facet normal 0.634463 -0.634463 -0.441491
outer loop
vertex 0.015205 -0.015205 0.012248
vertex -0.039440 -0.072283 0.015744
vertex -0.040656 -0.071067 0.012248
endloop
endfacet
facet normal 0.578253 -0.578253 -0.575541
outer loop
vertex 0.015205 -0.015205 0.012248
vertex -0.040656 -0.071067 0.012248
vertex 0.013620 -0.013620 0.009062
endloop
endfacet
facet normal 0.578253 -0.578253 -0.575540
outer loop
vertex 0.013620 -0.013620 0.009062
vertex -0.040656 -0.071067 0.012248
vertex -0.042242 -0.069481 0.009062
endloop
endfacet
facet normal 0.507999 -0.508000 -0.695610
outer loop
vertex 0.013620 -0.013620 0.009062
vertex -0.042242 -0.069481 0.009062
vertex 0.011703 -0.011703 0.006263
endloop
endfacet
facet normal -0.578254 0.578254 -0.575539
outer loop
vertex -0.013620 0.013620 0.009062
vertex -0.015205 0.015205 0.012248
vertex 0.040656 0.071067 0.012248
endloop
endfacet
facet normal -0.634463 0.634463 -0.441491
outer loop
vertex 0.040656 0.071067 0.012248
vertex -0.015205 0.015205 0.012248
vertex 0.039440 0.072283 0.015744
endloop
endfacet
facet normal -0.634463 0.634463 -0.441489
outer loop
vertex 0.040656 0.071067 0.012248
vertex 0.039440 0.072283 0.015744
vertex 0.095301 0.128144 0.015744
endloop
endfacet
facet normal -0.675262 0.675262 -0.296719
outer loop
vertex 0.095301 0.128144 0.015744
vertex 0.039440 0.072283 0.015744
vertex 0.094484 0.128962 0.019465
endloop
endfacet
facet normal -0.634463 0.634462 -0.441491
outer loop
vertex 0.039440 0.072283 0.015744
vertex -0.015205 0.015205 0.012248
vertex -0.016421 0.016422 0.015744
endloop
endfacet
facet normal -0.675262 0.675262 -0.296719
outer loop
vertex 0.039440 0.072283 0.015744
vertex -0.016421 0.016422 0.015744
vertex 0.038622 0.073100 0.019465
endloop
endfacet
facet normal -0.675262 0.675262 -0.296720
outer loop
vertex 0.038622 0.073100 0.019465
vertex -0.016421 0.016422 0.015744
vertex -0.017239 0.017239 0.019465
endloop
endfacet
facet normal -0.699661 0.699661 -0.144738
outer loop
vertex 0.038622 0.073100 0.019465
vertex -0.017239 0.017239 0.019465
vertex 0.038224 0.073499 0.023320
endloop
endfacet
facet normal -0.699661 0.699660 -0.144742
outer loop
vertex 0.038224 0.073499 0.023320
vertex -0.017239 0.017239 0.019465
vertex -0.017638 0.017638 0.023320
endloop
endfacet
facet normal -0.707066 0.707066 0.010754
outer loop
vertex 0.038224 0.073499 0.023320
vertex -0.017638 0.017638 0.023320
vertex 0.038253 0.073470 0.027216
endloop
endfacet
facet normal -0.707066 0.707066 0.010753
outer loop
vertex 0.038253 0.073470 0.027216
vertex -0.017638 0.017638 0.023320
vertex -0.017608 0.017608 0.027216
endloop
endfacet
facet normal -0.697298 0.697298 0.165985
outer loop
vertex 0.038253 0.073470 0.027216
vertex -0.017608 0.017608 0.027216
vertex 0.038711 0.073012 0.031058
endloop
endfacet
facet normal -0.697298 0.697298 0.165986
outer loop
vertex 0.038711 0.073012 0.031058
vertex -0.017608 0.017608 0.027216
vertex -0.017151 0.017151 0.031058
endloop
endfacet
facet normal -0.670594 0.670593 0.317187
outer loop
vertex 0.038711 0.073012 0.031058
vertex -0.017151 0.017151 0.031058
vertex 0.039584 0.072138 0.034753
endloop
endfacet
facet normal -0.670593 0.670595 0.317187
outer loop
vertex 0.039584 0.072138 0.034753
vertex -0.017151 0.017151 0.031058
vertex -0.016277 0.016277 0.034753
endloop
endfacet
facet normal -0.627602 0.627603 0.460685
outer loop
vertex 0.039584 0.072138 0.034753
vertex -0.016277 0.016277 0.034753
vertex 0.040854 0.070869 0.038211
endloop
endfacet
facet normal -0.627603 0.627603 0.460684
outer loop
vertex 0.040854 0.070869 0.038211
vertex -0.016277 0.016277 0.034753
vertex -0.015008 0.015008 0.038211
endloop
endfacet
facet normal -0.569367 0.569368 0.592994
outer loop
vertex 0.040854 0.070869 0.038211
vertex -0.015008 0.015008 0.038211
vertex 0.042487 0.069236 0.041348
endloop
endfacet
facet normal -0.569369 0.569368 0.592992
outer loop
vertex 0.042487 0.069236 0.041348
vertex -0.015008 0.015008 0.038211
vertex -0.013374 0.013374 0.041348
endloop
endfacet
facet normal -0.497305 0.497305 0.710898
outer loop
vertex 0.042487 0.069236 0.041348
vertex -0.013374 0.013374 0.041348
vertex 0.044446 0.067277 0.044088
endloop
endfacet
facet normal -0.497306 0.497304 0.710898
outer loop
vertex 0.044446 0.067277 0.044088
vertex -0.013374 0.013374 0.041348
vertex -0.011416 0.011416 0.044088
endloop
endfacet
facet normal -0.413162 0.413162 0.811538
outer loop
vertex 0.044446 0.067277 0.044088
vertex -0.011416 0.011416 0.044088
vertex 0.046682 0.065041 0.046365
endloop
endfacet
facet normal -0.413162 0.413162 0.811538
outer loop
vertex 0.046682 0.065041 0.046365
vertex -0.011416 0.011416 0.044088
vertex -0.009180 0.009180 0.046365
endloop
endfacet
facet normal -0.318985 0.318986 0.892466
outer loop
vertex 0.046682 0.065041 0.046365
vertex -0.009180 0.009180 0.046365
vertex 0.049140 0.062582 0.048123
endloop
endfacet
facet normal -0.318986 0.318986 0.892466
outer loop
vertex 0.049140 0.062582 0.048123
vertex -0.009180 0.009180 0.046365
vertex -0.006721 0.006721 0.048123
endloop
endfacet
facet normal -0.217060 0.217062 0.951719
outer loop
vertex 0.049140 0.062582 0.048123
vertex -0.006721 0.006721 0.048123
vertex 0.051762 0.059960 0.049319
endloop
endfacet
facet normal -0.217063 0.217062 0.951718
outer loop
vertex 0.051762 0.059960 0.049319
vertex -0.006721 0.006721 0.048123
vertex -0.004099 0.004099 0.049319
endloop
endfacet
facet normal -0.109866 0.109864 0.987856
outer loop
vertex 0.051762 0.059960 0.049319
vertex -0.004099 0.004099 0.049319
vertex 0.054484 0.057239 0.049924
endloop
endfacet
facet normal -0.109865 0.109864 0.987856
outer loop
vertex 0.054484 0.057239 0.049924
vertex -0.004099 0.004099 0.049319
vertex -0.001377 0.001378 0.049924
endloop
endfacet
facet normal 0.000000 0.000000 1.000000
outer loop
vertex 0.054484 0.057239 0.049924
vertex -0.001377 0.001378 0.049924
vertex 0.057239 0.054484 0.049924
endloop
endfacet
facet normal -0.000000 0.000000 1.000000
outer loop
vertex 0.057239 0.054484 0.049924
vertex -0.001377 0.001378 0.049924
vertex 0.001377 -0.001377 0.049924
endloop
endfacet
facet normal 0.109864 -0.109864 0.987856
outer loop
vertex 0.057239 0.054484 0.049924
vertex 0.001377 -0.001377 0.049924
vertex 0.059960 0.051762 0.049319
endloop
endfacet
facet normal 0.109864 -0.109864 0.987856
outer loop
vertex 0.059960 0.051762 0.049319
vertex 0.001377 -0.001377 0.049924
vertex 0.004099 -0.004099 0.049319
endloop
endfacet
facet normal 0.217065 -0.217062 0.951718
outer loop
vertex 0.059960 0.051762 0.049319
vertex 0.004099 -0.004099 0.049319
vertex 0.062582 0.049140 0.048123
endloop
endfacet
facet normal 0.217059 -0.217062 0.951719
outer loop
vertex 0.062582 0.049140 0.048123
vertex 0.004099 -0.004099 0.049319
vertex 0.006721 -0.006721 0.048123
endloop
endfacet
facet normal 0.318987 -0.318986 0.892466
outer loop
vertex 0.062582 0.049140 0.048123
vertex 0.006721 -0.006721 0.048123
vertex 0.065041 0.046682 0.046365
endloop
endfacet
facet normal 0.318987 -0.318986 0.892466
outer loop
vertex 0.065041 0.046682 0.046365
vertex 0.006721 -0.006721 0.048123
vertex 0.009180 -0.009180 0.046365
endloop
endfacet
facet normal 0.413162 -0.413162 0.811538
outer loop
vertex 0.065041 0.046682 0.046365
vertex 0.009180 -0.009180 0.046365
vertex 0.067277 0.044446 0.044088
endloop
endfacet
facet normal 0.413161 -0.413162 0.811538
outer loop
vertex 0.067277 0.044446 0.044088
vertex 0.009180 -0.009180 0.046365
vertex 0.011416 -0.011416 0.044088
endloop
endfacet
facet normal 0.497307 -0.497304 0.710897
outer loop
vertex 0.067277 0.044446 0.044088
vertex 0.011416 -0.011416 0.044088
vertex 0.069236 0.042487 0.041348
endloop
endfacet
facet normal 0.497304 -0.497305 0.710898
outer loop
vertex 0.069236 0.042487 0.041348
vertex 0.011416 -0.011416 0.044088
vertex 0.013374 -0.013374 0.041348
endloop
endfacet
facet normal 0.569368 -0.569368 0.592993
outer loop
vertex 0.069236 0.042487 0.041348
vertex 0.013374 -0.013374 0.041348
vertex 0.070869 0.040854 0.038211
endloop
endfacet
facet normal 0.569368 -0.569368 0.592993
outer loop
vertex 0.070869 0.040854 0.038211
vertex 0.013374 -0.013374 0.041348
vertex 0.015008 -0.015008 0.038211
endloop
endfacet
facet normal 0.627602 -0.627603 0.460685
outer loop
vertex 0.070869 0.040854 0.038211
vertex 0.015008 -0.015008 0.038211
vertex 0.072138 0.039585 0.034753
endloop
endfacet
facet normal 0.627602 -0.627603 0.460684
outer loop
vertex 0.072138 0.039585 0.034753
vertex 0.015008 -0.015008 0.038211
vertex 0.016277 -0.016277 0.034753
endloop
endfacet
facet normal 0.670593 -0.670595 0.317187
outer loop
vertex 0.072138 0.039585 0.034753
vertex 0.016277 -0.016277 0.034753
vertex 0.073012 0.038711 0.031058
endloop
endfacet
facet normal 0.670595 -0.670593 0.317186
outer loop
vertex 0.073012 0.038711 0.031058
vertex 0.016277 -0.016277 0.034753
vertex 0.017151 -0.017151 0.031058
endloop
endfacet
facet normal 0.697298 -0.697298 0.165985
outer loop
vertex 0.073012 0.038711 0.031058
vertex 0.017151 -0.017151 0.031058
vertex 0.073470 0.038253 0.027216
endloop
endfacet
facet normal 0.697298 -0.697298 0.165986
outer loop
vertex 0.073470 0.038253 0.027216
vertex 0.017151 -0.017151 0.031058
vertex 0.017608 -0.017608 0.027216
endloop
endfacet
facet normal 0.707066 -0.707066 0.010753
outer loop
vertex 0.073470 0.038253 0.027216
vertex 0.017608 -0.017608 0.027216
vertex 0.073499 0.038224 0.023320
endloop
endfacet
facet normal 0.707066 -0.707066 0.010752
outer loop
vertex 0.073499 0.038224 0.023320
vertex 0.017608 -0.017608 0.027216
vertex 0.017638 -0.017638 0.023320
endloop
endfacet
facet normal 0.699661 -0.699661 -0.144740
outer loop
vertex 0.073499 0.038224 0.023320
vertex 0.017638 -0.017638 0.023320
vertex 0.073100 0.038622 0.019465
endloop
endfacet
facet normal 0.699661 -0.699661 -0.144741
outer loop
vertex 0.073100 0.038622 0.019465
vertex 0.017638 -0.017638 0.023320
vertex 0.017239 -0.017239 0.019465
endloop
endfacet
facet normal 0.675262 -0.675262 -0.296720
outer loop
vertex 0.073100 0.038622 0.019465
vertex 0.017239 -0.017239 0.019465
vertex 0.072283 0.039440 0.015744
endloop
endfacet
facet normal 0.675262 -0.675262 -0.296720
outer loop
vertex 0.072283 0.039440 0.015744
vertex 0.017239 -0.017239 0.019465
vertex 0.016421 -0.016421 0.015744
endloop
endfacet
facet normal 0.634463 -0.634463 -0.441491
outer loop
vertex 0.072283 0.039440 0.015744
vertex 0.016421 -0.016421 0.015744
vertex 0.071067 0.040656 0.012248
endloop
endfacet
facet normal 0.634463 -0.634463 -0.441491
outer loop
vertex 0.071067 0.040656 0.012248
vertex 0.016421 -0.016421 0.015744
vertex 0.015205 -0.015205 0.012248
endloop
endfacet
facet normal 0.578253 -0.578254 -0.575540
outer loop
vertex 0.071067 0.040656 0.012248
vertex 0.015205 -0.015205 0.012248
vertex 0.069481 0.042242 0.009062
endloop
endfacet
facet normal 0.578253 -0.578253 -0.575540
outer loop
vertex 0.069481 0.042242 0.009062
vertex 0.015205 -0.015205 0.012248
vertex 0.013620 -0.013620 0.009062
endloop
endfacet
facet normal 0.507999 -0.507999 -0.695610
outer loop
vertex 0.069481 0.042242 0.009062
vertex 0.013620 -0.013620 0.009062
vertex 0.067565 0.044158 0.006263
endloop
endfacet
facet normal 0.507999 -0.507999 -0.695610
outer loop
vertex 0.067565 0.044158 0.006263
vertex 0.013620 -0.013620 0.009062
vertex 0.011703 -0.011703 0.006263
endloop
endfacet
facet normal 0.425407 -0.425407 -0.798785
outer loop
vertex 0.067565 0.044158 0.006263
vertex 0.011703 -0.011703 0.006263
vertex 0.065364 0.046359 0.003919
endloop
endfacet
facet normal -0.699660 0.699661 -0.144744
outer loop
vertex 0.094085 0.129361 0.023320
vertex 0.094484 0.128962 0.019465
vertex 0.038622 0.073100 0.019465
endloop
endfacet
facet normal -0.675262 0.675262 -0.296720
outer loop
vertex 0.038622 0.073100 0.019465
vertex 0.094484 0.128962 0.019465
vertex 0.039440 0.072283 0.015744
endloop
endfacet
facet normal -0.699661 0.699661 -0.144739
outer loop
vertex 0.094085 0.129361 0.023320
vertex 0.038622 0.073100 0.019465
vertex 0.038224 0.073499 0.023320
endloop
endfacet
facet normal -0.707066 0.707066 0.010751
outer loop
vertex 0.094115 0.129331 0.027216
vertex 0.094085 0.129361 0.023320
vertex 0.038224 0.073499 0.023320
endloop
endfacet
facet normal -0.707066 0.707066 0.010754
outer loop
vertex 0.094115 0.129331 0.027216
vertex 0.038224 0.073499 0.023320
vertex 0.038253 0.073470 0.027216
endloop
endfacet
facet normal -0.697298 0.697298 0.165988
outer loop
vertex 0.094572 0.128874 0.031058
vertex 0.094115 0.129331 0.027216
vertex 0.038253 0.073470 0.027216
endloop
endfacet
facet normal -0.697298 0.697298 0.165984
outer loop
vertex 0.094572 0.128874 0.031058
vertex 0.038253 0.073470 0.027216
vertex 0.038711 0.073012 0.031058
endloop
endfacet
facet normal -0.670594 0.670593 0.317189
outer loop
vertex 0.095446 0.128000 0.034753
vertex 0.094572 0.128874 0.031058
vertex 0.038711 0.073012 0.031058
endloop
endfacet
facet normal -0.670594 0.670594 0.317186
outer loop
vertex 0.095446 0.128000 0.034753
vertex 0.038711 0.073012 0.031058
vertex 0.039584 0.072138 0.034753
endloop
endfacet
facet normal -0.627602 0.627603 0.460684
outer loop
vertex 0.096715 0.126731 0.038211
vertex 0.095446 0.128000 0.034753
vertex 0.039584 0.072138 0.034753
endloop
endfacet
facet normal -0.627602 0.627602 0.460685
outer loop
vertex 0.096715 0.126731 0.038211
vertex 0.039584 0.072138 0.034753
vertex 0.040854 0.070869 0.038211
endloop
endfacet
facet normal -0.569368 0.569369 0.592991
outer loop
vertex 0.098349 0.125097 0.041348
vertex 0.096715 0.126731 0.038211
vertex 0.040854 0.070869 0.038211
endloop
endfacet
facet normal -0.569368 0.569366 0.592994
outer loop
vertex 0.098349 0.125097 0.041348
vertex 0.040854 0.070869 0.038211
vertex 0.042487 0.069236 0.041348
endloop
endfacet
facet normal -0.497305 0.497305 0.710898
outer loop
vertex 0.100307 0.123138 0.044088
vertex 0.098349 0.125097 0.041348
vertex 0.042487 0.069236 0.041348
endloop
endfacet
facet normal -0.497306 0.497305 0.710897
outer loop
vertex 0.100307 0.123138 0.044088
vertex 0.042487 0.069236 0.041348
vertex 0.044446 0.067277 0.044088
endloop
endfacet
facet normal -0.413160 0.413162 0.811539
outer loop
vertex 0.102543 0.120903 0.046365
vertex 0.100307 0.123138 0.044088
vertex 0.044446 0.067277 0.044088
endloop
endfacet
facet normal -0.413162 0.413163 0.811538
outer loop
vertex 0.102543 0.120903 0.046365
vertex 0.044446 0.067277 0.044088
vertex 0.046682 0.065041 0.046365
endloop
endfacet
facet normal -0.318985 0.318985 0.892467
outer loop
vertex 0.105002 0.118444 0.048123
vertex 0.102543 0.120903 0.046365
vertex 0.046682 0.065041 0.046365
endloop
endfacet
facet normal -0.318987 0.318985 0.892466
outer loop
vertex 0.105002 0.118444 0.048123
vertex 0.046682 0.065041 0.046365
vertex 0.049140 0.062582 0.048123
endloop
endfacet
facet normal -0.217061 0.217062 0.951719
outer loop
vertex 0.107624 0.115822 0.049319
vertex 0.105002 0.118444 0.048123
vertex 0.049140 0.062582 0.048123
endloop
endfacet
facet normal -0.217063 0.217062 0.951718
outer loop
vertex 0.107624 0.115822 0.049319
vertex 0.049140 0.062582 0.048123
vertex 0.051762 0.059960 0.049319
endloop
endfacet
facet normal -0.109864 0.109864 0.987856
outer loop
vertex 0.110345 0.113100 0.049924
vertex 0.107624 0.115822 0.049319
vertex 0.051762 0.059960 0.049319
endloop
endfacet
facet normal -0.109863 0.109864 0.987856
outer loop
vertex 0.110345 0.113100 0.049924
vertex 0.051762 0.059960 0.049319
vertex 0.054484 0.057239 0.049924
endloop
endfacet
facet normal -0.000002 0.000000 1.000000
outer loop
vertex 0.113100 0.110345 0.049924
vertex 0.110345 0.113100 0.049924
vertex 0.054484 0.057239 0.049924
endloop
endfacet
facet normal -0.000000 0.000000 1.000000
outer loop
vertex 0.113100 0.110345 0.049924
vertex 0.054484 0.057239 0.049924
vertex 0.057239 0.054484 0.049924
endloop
endfacet
facet normal 0.109864 -0.109864 0.987856
outer loop
vertex 0.115822 0.107624 0.049319
vertex 0.113100 0.110345 0.049924
vertex 0.057239 0.054484 0.049924
endloop
endfacet
facet normal 0.109864 -0.109864 0.987856
outer loop
vertex 0.115822 0.107624 0.049319
vertex 0.057239 0.054484 0.049924
vertex 0.059960 0.051762 0.049319
endloop
endfacet
facet normal 0.217064 -0.217062 0.951718
outer loop
vertex 0.118444 0.105002 0.048123
vertex 0.115822 0.107624 0.049319
vertex 0.059960 0.051762 0.049319
endloop
endfacet
facet normal 0.217062 -0.217062 0.951719
outer loop
vertex 0.118444 0.105002 0.048123
vertex 0.059960 0.051762 0.049319
vertex 0.062582 0.049140 0.048123
endloop
endfacet
facet normal 0.318987 -0.318986 0.892466
outer loop
vertex 0.120903 0.102543 0.046365
vertex 0.118444 0.105002 0.048123
vertex 0.062582 0.049140 0.048123
endloop
endfacet
facet normal 0.318986 -0.318986 0.892466
outer loop
vertex 0.120903 0.102543 0.046365
vertex 0.062582 0.049140 0.048123
vertex 0.065041 0.046682 0.046365
endloop
endfacet
facet normal 0.413161 -0.413161 0.811539
outer loop
vertex 0.123138 0.100307 0.044088
vertex 0.120903 0.102543 0.046365
vertex 0.065041 0.046682 0.046365
endloop
endfacet
facet normal 0.413163 -0.413163 0.811537
outer loop
vertex 0.123138 0.100307 0.044088
vertex 0.065041 0.046682 0.046365
vertex 0.067277 0.044446 0.044088
endloop
endfacet
facet normal 0.497305 -0.497304 0.710898
outer loop
vertex 0.125097 0.098349 0.041348
vertex 0.123138 0.100307 0.044088
vertex 0.067277 0.044446 0.044088
endloop
endfacet
facet normal 0.497305 -0.497305 0.710898
outer loop
vertex 0.125097 0.098349 0.041348
vertex 0.067277 0.044446 0.044088
vertex 0.069236 0.042487 0.041348
endloop
endfacet
facet normal 0.569369 -0.569369 0.592991
outer loop
vertex 0.126731 0.096715 0.038211
vertex 0.125097 0.098349 0.041348
vertex 0.069236 0.042487 0.041348
endloop
endfacet
facet normal 0.569367 -0.569367 0.592995
outer loop
vertex 0.126731 0.096715 0.038211
vertex 0.069236 0.042487 0.041348
vertex 0.070869 0.040854 0.038211
endloop
endfacet
facet normal 0.627603 -0.627603 0.460683
outer loop
vertex 0.128000 0.095446 0.034753
vertex 0.126731 0.096715 0.038211
vertex 0.070869 0.040854 0.038211
endloop
endfacet
facet normal 0.627603 -0.627603 0.460683
outer loop
vertex 0.128000 0.095446 0.034753
vertex 0.070869 0.040854 0.038211
vertex 0.072138 0.039585 0.034753
endloop
endfacet
facet normal 0.670592 -0.670593 0.317192
outer loop
vertex 0.128874 0.094572 0.031058
vertex 0.128000 0.095446 0.034753
vertex 0.072138 0.039585 0.034753
endloop
endfacet
facet normal 0.670595 -0.670594 0.317183
outer loop
vertex 0.128874 0.094572 0.031058
vertex 0.072138 0.039585 0.034753
vertex 0.073012 0.038711 0.031058
endloop
endfacet
facet normal 0.697298 -0.697298 0.165988
outer loop
vertex 0.129331 0.094115 0.027216
vertex 0.128874 0.094572 0.031058
vertex 0.073012 0.038711 0.031058
endloop
endfacet
facet normal 0.697298 -0.697298 0.165985
outer loop
vertex 0.129331 0.094115 0.027216
vertex 0.073012 0.038711 0.031058
vertex 0.073470 0.038253 0.027216
endloop
endfacet
facet normal 0.707066 -0.707066 0.010754
outer loop
vertex 0.129361 0.094085 0.023320
vertex 0.129331 0.094115 0.027216
vertex 0.073470 0.038253 0.027216
endloop
endfacet
facet normal 0.707066 -0.707066 0.010752
outer loop
vertex 0.129361 0.094085 0.023320
vertex 0.073470 0.038253 0.027216
vertex 0.073499 0.038224 0.023320
endloop
endfacet
facet normal 0.699660 -0.699661 -0.144741
outer loop
vertex 0.128962 0.094484 0.019465
vertex 0.129361 0.094085 0.023320
vertex 0.073499 0.038224 0.023320
endloop
endfacet
facet normal 0.699661 -0.699660 -0.144743
outer loop
vertex 0.128962 0.094484 0.019465
vertex 0.073499 0.038224 0.023320
vertex 0.073100 0.038622 0.019465
endloop
endfacet
facet normal 0.675262 -0.675263 -0.296717
outer loop
vertex 0.128144 0.095301 0.015744
vertex 0.128962 0.094484 0.019465
vertex 0.073100 0.038622 0.019465
endloop
endfacet
facet normal 0.675262 -0.675261 -0.296723
outer loop
vertex 0.128144 0.095301 0.015744
vertex 0.073100 0.038622 0.019465
vertex 0.072283 0.039440 0.015744
endloop
endfacet
facet normal 0.634463 -0.634463 -0.441490
outer loop
vertex 0.126928 0.096518 0.012248
vertex 0.128144 0.095301 0.015744
vertex 0.072283 0.039440 0.015744
endloop
endfacet
facet normal 0.634462 -0.634462 -0.441493
outer loop
vertex 0.126928 0.096518 0.012248
vertex 0.072283 0.039440 0.015744
vertex 0.071067 0.040656 0.012248
endloop
endfacet
facet normal 0.578254 -0.578254 -0.575539
outer loop
vertex 0.125342 0.098103 0.009062
vertex 0.126928 0.096518 0.012248
vertex 0.071067 0.040656 0.012248
endloop
endfacet
facet normal 0.578254 -0.578253 -0.575539
outer loop
vertex 0.125342 0.098103 0.009062
vertex 0.071067 0.040656 0.012248
vertex 0.069481 0.042242 0.009062
endloop
endfacet
facet normal 0.507999 -0.507999 -0.695611
outer loop
vertex 0.123426 0.100020 0.006263
vertex 0.125342 0.098103 0.009062
vertex 0.069481 0.042242 0.009062
endloop
endfacet
facet normal 0.507999 -0.507999 -0.695610
outer loop
vertex 0.123426 0.100020 0.006263
vertex 0.069481 0.042242 0.009062
vertex 0.067565 0.044158 0.006263
endloop
endfacet
facet normal 0.425408 -0.425408 -0.798785
outer loop
vertex 0.121225 0.102220 0.003919
vertex 0.123426 0.100020 0.006263
vertex 0.067565 0.044158 0.006263
endloop
endfacet
facet normal 0.425407 -0.425407 -0.798785
outer loop
vertex 0.121225 0.102220 0.003919
vertex 0.067565 0.044158 0.006263
vertex 0.065364 0.046359 0.003919
endloop
endfacet
facet normal -0.707107 0.707107 0.000000
outer loop
vertex -0.174655 -0.160513 0.000000
vertex -0.174655 -0.160513 0.002087
vertex 0.160513 0.174655 0.000000
endloop
endfacet
facet normal -0.707107 0.707107 0.000000
outer loop
vertex 0.160513 0.174655 0.000000
vertex -0.174655 -0.160513 0.002087
vertex 0.160513 0.174655 0.002087
endloop
endfacet
facet normal 0.707107 0.707107 0.000000
outer loop
vertex 0.160513 0.174655 0.000000
vertex 0.160513 0.174655 0.002087
vertex 0.174655 0.160513 0.000000
endloop
endfacet
facet normal 0.707107 0.707107 0.000000
outer loop
vertex 0.174655 0.160513 0.000000
vertex 0.160513 0.174655 0.002087
vertex 0.174655 0.160513 0.002087
endloop
endfacet
facet normal 0.707108 0.707106 -0.000013
outer loop
vertex 0.174655 0.160513 0.002087
vertex 0.160513 0.174655 0.002087
vertex 0.177022 0.158146 0.003861
endloop
endfacet
facet normal 0.707108 0.707106 0.000010
outer loop
vertex 0.177022 0.158146 0.003861
vertex 0.160513 0.174655 0.002087
vertex 0.179172 0.155996 0.006120
endloop
endfacet
facet normal 0.707107 0.707106 -0.000008
outer loop
vertex 0.179172 0.155996 0.006120
vertex 0.160513 0.174655 0.002087
vertex 0.181056 0.154112 0.008813
endloop
endfacet
facet normal 0.707105 0.707108 0.000006
outer loop
vertex 0.181056 0.154112 0.008813
vertex 0.160513 0.174655 0.002087
vertex 0.182631 0.152538 0.011878
endloop
endfacet
facet normal 0.707104 0.707109 0.000000
outer loop
vertex 0.182631 0.152538 0.011878
vertex 0.160513 0.174655 0.002087
vertex 0.183860 0.151308 0.015243
endloop
endfacet
facet normal 0.707107 0.707106 -0.000009
outer loop
vertex 0.183860 0.151308 0.015243
vertex 0.160513 0.174655 0.002087
vertex 0.184716 0.150453 0.018833
endloop
endfacet
facet normal 0.707105 0.707109 0.000008
outer loop
vertex 0.184716 0.150453 0.018833
vertex 0.160513 0.174655 0.002087
vertex 0.185178 0.149991 0.022564
endloop
endfacet
facet normal 0.707109 0.707105 -0.000007
outer loop
vertex 0.185178 0.149991 0.022564
vertex 0.160513 0.174655 0.002087
vertex 0.185236 0.149933 0.026352
endloop
endfacet
facet normal 0.707106 0.707107 0.000007
outer loop
vertex 0.185236 0.149933 0.026352
vertex 0.160513 0.174655 0.002087
vertex 0.184889 0.150280 0.030108
endloop
endfacet
facet normal 0.707105 0.707109 -0.000003
outer loop
vertex 0.184889 0.150280 0.030108
vertex 0.160513 0.174655 0.002087
vertex 0.184145 0.151024 0.033747
endloop
endfacet
facet normal 0.707112 0.707102 -0.000003
outer loop
vertex 0.184145 0.151024 0.033747
vertex 0.160513 0.174655 0.002087
vertex 0.183020 0.152148 0.037185
endloop
endfacet
facet normal 0.707108 0.707106 0.000003
outer loop
vertex 0.183020 0.152148 0.037185
vertex 0.160513 0.174655 0.002087
vertex 0.181541 0.153627 0.040343
endloop
endfacet
facet normal 0.707103 0.707110 0.000000
outer loop
vertex 0.181541 0.153627 0.040343
vertex 0.160513 0.174655 0.002087
vertex 0.179742 0.155427 0.043149
endloop
endfacet
facet normal 0.707103 0.707110 0.000000
outer loop
vertex 0.179742 0.155427 0.043149
vertex 0.160513 0.174655 0.002087
vertex 0.177663 0.157505 0.045539
endloop
endfacet
facet normal 0.707107 0.707107 0.000000
outer loop
vertex 0.177663 0.157505 0.045539
vertex 0.160513 0.174655 0.002087
vertex 0.175353 0.159815 0.047456
endloop
endfacet
facet normal 0.707110 0.707104 0.000000
outer loop
vertex 0.175353 0.159815 0.047456
vertex 0.160513 0.174655 0.002087
vertex 0.172865 0.162304 0.048859
endloop
endfacet
facet normal 0.707110 0.707104 -0.000002
outer loop
vertex 0.172865 0.162304 0.048859
vertex 0.160513 0.174655 0.002087
vertex 0.158146 0.177022 0.003861
endloop
endfacet
facet normal 0.707104 0.707110 0.000002
outer loop
vertex 0.172865 0.162304 0.048859
vertex 0.158146 0.177022 0.003861
vertex 0.155996 0.179172 0.006120
endloop
endfacet
facet normal 0.707108 0.707106 0.000000
outer loop
vertex 0.155996 0.179172 0.006120
vertex 0.154112 0.181056 0.008813
vertex 0.172865 0.162304 0.048859
endloop
endfacet
facet normal 0.707105 0.707109 0.000000
outer loop
vertex 0.172865 0.162304 0.048859
vertex 0.154112 0.181056 0.008813
vertex 0.152538 0.182631 0.011878
endloop
endfacet
facet normal 0.707108 0.707106 -0.000001
outer loop
vertex 0.172865 0.162304 0.048859
vertex 0.152538 0.182631 0.011878
vertex 0.151308 0.183860 0.015243
endloop
endfacet
facet normal 0.707108 0.707106 0.000000
outer loop
vertex 0.151308 0.183860 0.015243
vertex 0.150453 0.184716 0.018833
vertex 0.172865 0.162304 0.048859
endloop
endfacet
facet normal 0.707107 0.707107 0.000005
outer loop
vertex 0.172865 0.162304 0.048859
vertex 0.150453 0.184716 0.018833
vertex 0.149991 0.185178 0.022564
endloop
endfacet
facet normal 0.707107 0.707107 -0.000006
outer loop
vertex 0.172865 0.162304 0.048859
vertex 0.149991 0.185178 0.022564
vertex 0.149932 0.185236 0.026352
endloop
endfacet
facet normal 0.707105 0.707109 0.000000
outer loop
vertex 0.149932 0.185236 0.026352
vertex 0.150280 0.184889 0.030108
vertex 0.172865 0.162304 0.048859
endloop
endfacet
facet normal 0.707107 0.707106 -0.000005
outer loop
vertex 0.172865 0.162304 0.048859
vertex 0.150280 0.184889 0.030108
vertex 0.170255 0.164913 0.049713
endloop
endfacet
facet normal 0.707107 0.707106 0.000004
outer loop
vertex 0.170255 0.164913 0.049713
vertex 0.150280 0.184889 0.030108
vertex 0.151024 0.184145 0.033747
endloop
endfacet
facet normal 0.707105 0.707108 0.000000
outer loop
vertex 0.170255 0.164913 0.049713
vertex 0.151024 0.184145 0.033747
vertex 0.152148 0.183020 0.037185
endloop
endfacet
facet normal 0.707107 0.707107 0.000000
outer loop
vertex 0.152148 0.183020 0.037185
vertex 0.153627 0.181541 0.040343
vertex 0.170255 0.164913 0.049713
endloop
endfacet
facet normal 0.707110 0.707104 -0.000007
outer loop
vertex 0.170255 0.164913 0.049713
vertex 0.153627 0.181541 0.040343
vertex 0.155427 0.179742 0.043149
endloop
endfacet
facet normal 0.707106 0.707108 0.000008
outer loop
vertex 0.170255 0.164913 0.049713
vertex 0.155427 0.179742 0.043149
vertex 0.157505 0.177663 0.045539
endloop
endfacet
facet normal 0.707103 0.707111 -0.000011
outer loop
vertex 0.157505 0.177663 0.045539
vertex 0.159815 0.175353 0.047456
vertex 0.170255 0.164913 0.049713
endloop
endfacet
facet normal 0.707108 0.707105 0.000005
outer loop
vertex 0.170255 0.164913 0.049713
vertex 0.159815 0.175353 0.047456
vertex 0.162304 0.172865 0.048859
endloop
endfacet
facet normal 0.707102 0.707111 -0.000009
outer loop
vertex 0.170255 0.164913 0.049713
vertex 0.162304 0.172865 0.048859
vertex 0.164913 0.170255 0.049713
endloop
endfacet
facet normal 0.707108 0.707105 0.000027
outer loop
vertex 0.164913 0.170255 0.049713
vertex 0.167584 0.167584 0.050000
vertex 0.170255 0.164913 0.049713
endloop
endfacet
facet normal -0.707107 -0.707107 0.000000
outer loop
vertex -0.174655 -0.160513 0.000000
vertex -0.160513 -0.174655 0.000000
vertex -0.174655 -0.160513 0.002087
endloop
endfacet
facet normal -0.707107 -0.707107 0.000000
outer loop
vertex -0.174655 -0.160513 0.002087
vertex -0.160513 -0.174655 0.000000
vertex -0.160513 -0.174655 0.002087
endloop
endfacet
facet normal -0.707107 -0.707107 0.000002
outer loop
vertex -0.174655 -0.160513 0.002087
vertex -0.160513 -0.174655 0.002087
vertex -0.158146 -0.177022 0.003861
endloop
endfacet
facet normal -0.707108 -0.707106 -0.000010
outer loop
vertex -0.158146 -0.177022 0.003861
vertex -0.155996 -0.179172 0.006120
vertex -0.174655 -0.160513 0.002087
endloop
endfacet
facet normal -0.707106 -0.707107 0.000006
outer loop
vertex -0.174655 -0.160513 0.002087
vertex -0.155996 -0.179172 0.006120
vertex -0.154112 -0.181056 0.008813
endloop
endfacet
facet normal -0.707107 -0.707107 -0.000001
outer loop
vertex -0.174655 -0.160513 0.002087
vertex -0.154112 -0.181056 0.008813
vertex -0.152538 -0.182631 0.011878
endloop
endfacet
facet normal -0.707107 -0.707107 0.000000
outer loop
vertex -0.152538 -0.182631 0.011878
vertex -0.151308 -0.183860 0.015243
vertex -0.174655 -0.160513 0.002087
endloop
endfacet
facet normal -0.707107 -0.707106 -0.000004
outer loop
vertex -0.174655 -0.160513 0.002087
vertex -0.151308 -0.183860 0.015243
vertex -0.150453 -0.184716 0.018833
endloop
endfacet
facet normal -0.707105 -0.707108 -0.000002
outer loop
vertex -0.174655 -0.160513 0.002087
vertex -0.150453 -0.184716 0.018833
vertex -0.149991 -0.185178 0.022564
endloop
endfacet
facet normal -0.707109 -0.707105 0.000000
outer loop
vertex -0.149991 -0.185178 0.022564
vertex -0.149932 -0.185236 0.026352
vertex -0.174655 -0.160513 0.002087
endloop
endfacet
facet normal -0.707105 -0.707108 -0.000003
outer loop
vertex -0.174655 -0.160513 0.002087
vertex -0.149932 -0.185236 0.026352
vertex -0.150280 -0.184889 0.030108
endloop
endfacet
facet normal -0.707108 -0.707105 0.000002
outer loop
vertex -0.174655 -0.160513 0.002087
vertex -0.150280 -0.184889 0.030108
vertex -0.151024 -0.184145 0.033747
endloop
endfacet
facet normal -0.707109 -0.707105 0.000003
outer loop
vertex -0.151024 -0.184145 0.033747
vertex -0.152148 -0.183020 0.037185
vertex -0.174655 -0.160513 0.002087
endloop
endfacet
facet normal -0.707102 -0.707111 -0.000001
outer loop
vertex -0.174655 -0.160513 0.002087
vertex -0.152148 -0.183020 0.037185
vertex -0.153627 -0.181541 0.040343
endloop
endfacet
facet normal -0.707110 -0.707104 -0.000001
outer loop
vertex -0.174655 -0.160513 0.002087
vertex -0.153627 -0.181541 0.040343
vertex -0.155427 -0.179742 0.043149
endloop
endfacet
facet normal -0.707106 -0.707107 0.000000
outer loop
vertex -0.155427 -0.179742 0.043149
vertex -0.157505 -0.177663 0.045539
vertex -0.174655 -0.160513 0.002087
endloop
endfacet
facet normal -0.707106 -0.707107 0.000001
outer loop
vertex -0.174655 -0.160513 0.002087
vertex -0.157505 -0.177663 0.045539
vertex -0.159815 -0.175353 0.047456
endloop
endfacet
facet normal -0.707109 -0.707105 0.000001
outer loop
vertex -0.174655 -0.160513 0.002087
vertex -0.159815 -0.175353 0.047456
vertex -0.162304 -0.172865 0.048859
endloop
endfacet
facet normal -0.707105 -0.707109 0.000005
outer loop
vertex -0.164913 -0.170255 0.049713
vertex -0.184889 -0.150280 0.030108
vertex -0.162304 -0.172865 0.048859
endloop
endfacet
facet normal -0.707108 -0.707105 -0.000006
outer loop
vertex -0.162304 -0.172865 0.048859
vertex -0.184889 -0.150280 0.030108
vertex -0.185236 -0.149932 0.026352
endloop
endfacet
facet normal -0.707106 -0.707107 0.000003
outer loop
vertex -0.162304 -0.172865 0.048859
vertex -0.185236 -0.149932 0.026352
vertex -0.185178 -0.149991 0.022564
endloop
endfacet
facet normal -0.707108 -0.707105 0.000054
outer loop
vertex -0.167584 -0.167584 0.050000
vertex -0.170255 -0.164913 0.049713
vertex -0.164913 -0.170255 0.049713
endloop
endfacet
facet normal -0.707102 -0.707111 0.000027
outer loop
vertex -0.164913 -0.170255 0.049713
vertex -0.170255 -0.164913 0.049713
vertex -0.172865 -0.162304 0.048859
endloop
endfacet
facet normal -0.707108 -0.707105 -0.000005
outer loop
vertex -0.164913 -0.170255 0.049713
vertex -0.172865 -0.162304 0.048859
vertex -0.175353 -0.159815 0.047456
endloop
endfacet
facet normal -0.707107 -0.707107 0.000000
outer loop
vertex -0.175353 -0.159815 0.047456
vertex -0.177663 -0.157505 0.045539
vertex -0.164913 -0.170255 0.049713
endloop
endfacet
facet normal -0.707107 -0.707107 -0.000011
outer loop
vertex -0.164913 -0.170255 0.049713
vertex -0.177663 -0.157505 0.045539
vertex -0.179742 -0.155427 0.043149
endloop
endfacet
facet normal -0.707109 -0.707105 0.000012
outer loop
vertex -0.164913 -0.170255 0.049713
vertex -0.179742 -0.155427 0.043149
vertex -0.181541 -0.153627 0.040343
endloop
endfacet
facet normal -0.707105 -0.707109 -0.000009
outer loop
vertex -0.181541 -0.153627 0.040343
vertex -0.183020 -0.152148 0.037185
vertex -0.164913 -0.170255 0.049713
endloop
endfacet
facet normal -0.707105 -0.707108 -0.000001
outer loop
vertex -0.164913 -0.170255 0.049713
vertex -0.183020 -0.152148 0.037185
vertex -0.184145 -0.151024 0.033747
endloop
endfacet
facet normal -0.707108 -0.707105 0.000002
outer loop
vertex -0.164913 -0.170255 0.049713
vertex -0.184145 -0.151024 0.033747
vertex -0.184889 -0.150280 0.030108
endloop
endfacet
facet normal -0.707105 -0.707108 0.000000
outer loop
vertex -0.185178 -0.149991 0.022564
vertex -0.184716 -0.150453 0.018833
vertex -0.162304 -0.172865 0.048859
endloop
endfacet
facet normal -0.707105 -0.707108 0.000001
outer loop
vertex -0.162304 -0.172865 0.048859
vertex -0.184716 -0.150453 0.018833
vertex -0.183860 -0.151308 0.015243
endloop
endfacet
facet normal -0.707107 -0.707107 0.000000
outer loop
vertex -0.162304 -0.172865 0.048859
vertex -0.183860 -0.151308 0.015243
vertex -0.182631 -0.152538 0.011878
endloop
endfacet
facet normal -0.707108 -0.707106 0.000000
outer loop
vertex -0.182631 -0.152538 0.011878
vertex -0.181056 -0.154112 0.008813
vertex -0.162304 -0.172865 0.048859
endloop
endfacet
facet normal -0.707107 -0.707107 0.000001
outer loop
vertex -0.162304 -0.172865 0.048859
vertex -0.181056 -0.154112 0.008813
vertex -0.179172 -0.155996 0.006120
endloop
endfacet
facet normal -0.707106 -0.707107 -0.000002
outer loop
vertex -0.162304 -0.172865 0.048859
vertex -0.179172 -0.155996 0.006120
vertex -0.177022 -0.158146 0.003861
endloop
endfacet
facet normal -0.707104 -0.707110 0.000000
outer loop
vertex -0.177022 -0.158146 0.003861
vertex -0.174655 -0.160513 0.002087
vertex -0.162304 -0.172865 0.048859
endloop
endfacet
endsolid obstacle
