solid cylinder
facet normal 0.000000 0.000000 -1.000000
outer loop
vertex 0.090456 -0.219287 0.000000
vertex 0.071662 -0.226127 0.000000
vertex -0.071662 0.226127 0.000000
endloop
endfacet
facet normal 0.000000 0.000000 -1.000000
outer loop
vertex -0.071662 0.226127 0.000000
vertex 0.071662 -0.226127 0.000000
vertex -0.090456 0.219287 0.000000
endloop
endfacet
facet normal 0.939693 0.342020 0.000000
outer loop
vertex 0.090456 -0.219287 0.002087
vertex 0.090456 -0.219287 0.000000
vertex -0.071662 0.226127 0.002087
endloop
endfacet
facet normal 0.939693 0.342020 0.000000
outer loop
vertex -0.071662 0.226127 0.002087
vertex 0.090456 -0.219287 0.000000
vertex -0.071662 0.226127 0.000000
endloop
endfacet
facet normal -0.440083 -0.160063 -0.883576
outer loop
vertex 0.068517 -0.227272 0.003861
vertex 0.041411 -0.153068 0.003919
vertex 0.071662 -0.226127 0.002087
endloop
endfacet
facet normal -0.441843 -0.160818 -0.882560
outer loop
vertex 0.071662 -0.226127 0.002087
vertex 0.041411 -0.153068 0.003919
vertex 0.014391 -0.078832 0.003919
endloop
endfacet
facet normal -0.441844 -0.160818 -0.882560
outer loop
vertex 0.071662 -0.226127 0.002087
vertex 0.014391 -0.078832 0.003919
vertex -0.012628 -0.004596 0.003919
endloop
endfacet
facet normal -0.565335 -0.205765 -0.798785
outer loop
vertex -0.012628 -0.004596 0.003919
vertex 0.014391 -0.078832 0.003919
vertex -0.015553 -0.005661 0.006263
endloop
endfacet
facet normal -0.565335 -0.205765 -0.798785
outer loop
vertex -0.012628 -0.004596 0.003919
vertex -0.015553 -0.005661 0.006263
vertex -0.042572 0.068575 0.006263
endloop
endfacet
facet normal -0.675094 -0.245714 -0.695610
outer loop
vertex -0.042572 0.068575 0.006263
vertex -0.015553 -0.005661 0.006263
vertex -0.045119 0.067648 0.009062
endloop
endfacet
facet normal -0.675094 -0.245714 -0.695610
outer loop
vertex -0.042572 0.068575 0.006263
vertex -0.045119 0.067648 0.009062
vertex -0.072139 0.141884 0.009062
endloop
endfacet
facet normal -0.768456 -0.279695 -0.575540
outer loop
vertex -0.072139 0.141884 0.009062
vertex -0.045119 0.067648 0.009062
vertex -0.074246 0.141117 0.012248
endloop
endfacet
facet normal -0.768328 -0.280053 -0.575537
outer loop
vertex -0.072139 0.141884 0.009062
vertex -0.074246 0.141117 0.012248
vertex -0.101055 0.215429 0.011878
endloop
endfacet
facet normal -0.835030 -0.303534 -0.458903
outer loop
vertex -0.101055 0.215429 0.011878
vertex -0.074246 0.141117 0.012248
vertex -0.102688 0.214835 0.015243
endloop
endfacet
facet normal -0.842996 -0.307315 -0.441491
outer loop
vertex -0.102688 0.214835 0.015243
vertex -0.074246 0.141117 0.012248
vertex -0.075862 0.140529 0.015744
endloop
endfacet
facet normal -0.890626 -0.323687 -0.319393
outer loop
vertex -0.102688 0.214835 0.015243
vertex -0.075862 0.140529 0.015744
vertex -0.103825 0.214421 0.018833
endloop
endfacet
facet normal -0.897190 -0.327119 -0.296721
outer loop
vertex -0.103825 0.214421 0.018833
vertex -0.075862 0.140529 0.015744
vertex -0.076948 0.140133 0.019465
endloop
endfacet
facet normal -0.925774 -0.336404 -0.172554
outer loop
vertex -0.103825 0.214421 0.018833
vertex -0.076948 0.140133 0.019465
vertex -0.104439 0.214197 0.022564
endloop
endfacet
facet normal -0.929591 -0.338985 -0.144739
outer loop
vertex -0.104439 0.214197 0.022564
vertex -0.076948 0.140133 0.019465
vertex -0.077478 0.139940 0.023320
endloop
endfacet
facet normal -0.939669 -0.341392 -0.021744
outer loop
vertex -0.104439 0.214197 0.022564
vertex -0.077478 0.139940 0.023320
vertex -0.104517 0.214169 0.026352
endloop
endfacet
facet normal -0.939411 -0.342625 0.010754
outer loop
vertex -0.104517 0.214169 0.026352
vertex -0.077478 0.139940 0.023320
vertex -0.077439 0.139955 0.027216
endloop
endfacet
facet normal -0.931992 -0.338535 0.129555
outer loop
vertex -0.104517 0.214169 0.026352
vertex -0.077439 0.139955 0.027216
vertex -0.104056 0.214337 0.030108
endloop
endfacet
facet normal -0.926410 -0.337954 0.165987
outer loop
vertex -0.104056 0.214337 0.030108
vertex -0.077439 0.139955 0.027216
vertex -0.076831 0.140176 0.031058
endloop
endfacet
facet normal -0.902919 -0.327895 0.277887
outer loop
vertex -0.104056 0.214337 0.030108
vertex -0.076831 0.140176 0.031058
vertex -0.103066 0.214697 0.033747
endloop
endfacet
facet normal -0.890905 -0.325085 0.317186
outer loop
vertex -0.103066 0.214697 0.033747
vertex -0.076831 0.140176 0.031058
vertex -0.075670 0.140598 0.034753
endloop
endfacet
facet normal -0.853118 -0.309719 0.419837
outer loop
vertex -0.103066 0.214697 0.033747
vertex -0.075670 0.140598 0.034753
vertex -0.101572 0.215241 0.037185
endloop
endfacet
facet normal -0.833757 -0.304332 0.460685
outer loop
vertex -0.101572 0.215241 0.037185
vertex -0.075670 0.140598 0.034753
vertex -0.073983 0.141212 0.038211
endloop
endfacet
facet normal -0.783735 -0.284422 0.552144
outer loop
vertex -0.101572 0.215241 0.037185
vertex -0.073983 0.141212 0.038211
vertex -0.099606 0.215956 0.040343
endloop
endfacet
facet normal -0.756354 -0.276201 0.592994
outer loop
vertex -0.099606 0.215956 0.040343
vertex -0.073983 0.141212 0.038211
vertex -0.071812 0.142003 0.041348
endloop
endfacet
facet normal -0.696359 -0.252581 0.671779
outer loop
vertex -0.099606 0.215956 0.040343
vertex -0.071812 0.142003 0.041348
vertex -0.097215 0.216827 0.043149
endloop
endfacet
facet normal -0.660577 -0.241375 0.710898
outer loop
vertex -0.097215 0.216827 0.043149
vertex -0.071812 0.142003 0.041348
vertex -0.069210 0.142950 0.044088
endloop
endfacet
facet normal -0.593002 -0.214932 0.775985
outer loop
vertex -0.097215 0.216827 0.043149
vertex -0.069210 0.142950 0.044088
vertex -0.094453 0.217832 0.045539
endloop
endfacet
facet normal -0.548749 -0.200702 0.811538
outer loop
vertex -0.094453 0.217832 0.045539
vertex -0.069210 0.142950 0.044088
vertex -0.066238 0.144031 0.046365
endloop
endfacet
facet normal -0.476031 -0.172332 0.862378
outer loop
vertex -0.094453 0.217832 0.045539
vertex -0.066238 0.144031 0.046365
vertex -0.091383 0.218949 0.047456
endloop
endfacet
facet normal -0.423588 -0.155169 0.892466
outer loop
vertex -0.091383 0.218949 0.047456
vertex -0.066238 0.144031 0.046365
vertex -0.062971 0.145221 0.048123
endloop
endfacet
facet normal -0.348137 -0.125764 0.928969
outer loop
vertex -0.091383 0.218949 0.047456
vertex -0.062971 0.145221 0.048123
vertex -0.088076 0.220153 0.048859
endloop
endfacet
facet normal -0.288133 -0.105883 0.951719
outer loop
vertex -0.088076 0.220153 0.048859
vertex -0.062971 0.145221 0.048123
vertex -0.059487 0.146489 0.049319
endloop
endfacet
facet normal -0.212255 -0.076293 0.974232
outer loop
vertex -0.088076 0.220153 0.048859
vertex -0.059487 0.146489 0.049319
vertex -0.084608 0.221415 0.049713
endloop
endfacet
facet normal -0.145673 -0.054042 0.987856
outer loop
vertex -0.084608 0.221415 0.049713
vertex -0.059487 0.146489 0.049319
vertex -0.055870 0.147805 0.049924
endloop
endfacet
facet normal -0.071506 -0.025059 0.997125
outer loop
vertex -0.084608 0.221415 0.049713
vertex -0.055870 0.147805 0.049924
vertex -0.081059 0.222707 0.050000
endloop
endfacet
facet normal 0.000328 -0.000904 1.000000
outer loop
vertex -0.081059 0.222707 0.050000
vertex -0.055870 0.147805 0.049924
vertex -0.052209 0.149138 0.049924
endloop
endfacet
facet normal 0.070883 0.026767 0.997125
outer loop
vertex -0.081059 0.222707 0.050000
vertex -0.052209 0.149138 0.049924
vertex -0.077509 0.223999 0.049713
endloop
endfacet
facet normal 0.146331 0.052239 0.987855
outer loop
vertex -0.077509 0.223999 0.049713
vertex -0.052209 0.149138 0.049924
vertex -0.048592 0.150454 0.049319
endloop
endfacet
facet normal 0.211638 0.077991 0.974231
outer loop
vertex -0.077509 0.223999 0.049713
vertex -0.048592 0.150454 0.049319
vertex -0.074041 0.225261 0.048859
endloop
endfacet
facet normal 0.288785 0.104098 0.951718
outer loop
vertex -0.074041 0.225261 0.048859
vertex -0.048592 0.150454 0.049319
vertex -0.045107 0.151722 0.048123
endloop
endfacet
facet normal 0.347528 0.127438 0.928969
outer loop
vertex -0.074041 0.225261 0.048859
vertex -0.045107 0.151722 0.048123
vertex -0.070735 0.226465 0.047456
endloop
endfacet
facet normal 0.424227 0.153411 0.892467
outer loop
vertex -0.070735 0.226465 0.047456
vertex -0.045107 0.151722 0.048123
vertex -0.041840 0.152912 0.046365
endloop
endfacet
facet normal 0.475434 0.173973 0.862378
outer loop
vertex -0.070735 0.226465 0.047456
vertex -0.041840 0.152912 0.046365
vertex -0.067665 0.227582 0.045539
endloop
endfacet
facet normal 0.549373 0.198983 0.811539
outer loop
vertex -0.067665 0.227582 0.045539
vertex -0.041840 0.152912 0.046365
vertex -0.038869 0.153993 0.044088
endloop
endfacet
facet normal 0.592423 0.216527 0.775984
outer loop
vertex -0.067665 0.227582 0.045539
vertex -0.038869 0.153993 0.044088
vertex -0.064902 0.228588 0.043149
endloop
endfacet
facet normal 0.661187 0.239707 0.710895
outer loop
vertex -0.064902 0.228588 0.043149
vertex -0.038869 0.153993 0.044088
vertex -0.036266 0.154940 0.041348
endloop
endfacet
facet normal 0.695797 0.254121 0.671781
outer loop
vertex -0.064902 0.228588 0.043149
vertex -0.036266 0.154940 0.041348
vertex -0.062511 0.229458 0.040343
endloop
endfacet
facet normal 0.756940 0.274594 0.592992
outer loop
vertex -0.062511 0.229458 0.040343
vertex -0.036266 0.154940 0.041348
vertex -0.034095 0.155731 0.038211
endloop
endfacet
facet normal 0.783199 0.285895 0.552144
outer loop
vertex -0.062511 0.229458 0.040343
vertex -0.034095 0.155731 0.038211
vertex -0.060546 0.230173 0.037185
endloop
endfacet
facet normal 0.834316 0.302798 0.460685
outer loop
vertex -0.060546 0.230173 0.037185
vertex -0.034095 0.155731 0.038211
vertex -0.032408 0.156344 0.034753
endloop
endfacet
facet normal 0.852611 0.311115 0.419835
outer loop
vertex -0.060546 0.230173 0.037185
vertex -0.032408 0.156344 0.034753
vertex -0.059051 0.230717 0.033747
endloop
endfacet
facet normal 0.891433 0.323633 0.317189
outer loop
vertex -0.059051 0.230717 0.033747
vertex -0.032408 0.156344 0.034753
vertex -0.031247 0.156767 0.031058
endloop
endfacet
facet normal 0.902444 0.329202 0.277887
outer loop
vertex -0.059051 0.230717 0.033747
vertex -0.031247 0.156767 0.031058
vertex -0.058062 0.231077 0.030108
endloop
endfacet
facet normal 0.926904 0.336597 0.165988
outer loop
vertex -0.058062 0.231077 0.030108
vertex -0.031247 0.156767 0.031058
vertex -0.030639 0.156988 0.027216
endloop
endfacet
facet normal 0.931553 0.339741 0.129555
outer loop
vertex -0.058062 0.231077 0.030108
vertex -0.030639 0.156988 0.027216
vertex -0.057601 0.231245 0.026352
endloop
endfacet
facet normal 0.939865 0.341375 0.010754
outer loop
vertex -0.057601 0.231245 0.026352
vertex -0.030639 0.156988 0.027216
vertex -0.030600 0.157003 0.023320
endloop
endfacet
facet normal 0.939271 0.342486 -0.021744
outer loop
vertex -0.057601 0.231245 0.026352
vertex -0.030600 0.157003 0.023320
vertex -0.057678 0.231217 0.022564
endloop
endfacet
facet normal 0.930003 0.337852 -0.144741
outer loop
vertex -0.057678 0.231217 0.022564
vertex -0.030600 0.157003 0.023320
vertex -0.031130 0.156810 0.019465
endloop
endfacet
facet normal 0.925421 0.337375 -0.172554
outer loop
vertex -0.057678 0.231217 0.022564
vertex -0.031130 0.156810 0.019465
vertex -0.058292 0.230993 0.018833
endloop
endfacet
facet normal 0.897556 0.326115 -0.296719
outer loop
vertex -0.058292 0.230993 0.018833
vertex -0.031130 0.156810 0.019465
vertex -0.032216 0.156414 0.015744
endloop
endfacet
facet normal 0.890322 0.324524 -0.319390
outer loop
vertex -0.058292 0.230993 0.018833
vertex -0.032216 0.156414 0.015744
vertex -0.059429 0.230580 0.015243
endloop
endfacet
facet normal 0.843310 0.306450 -0.441493
outer loop
vertex -0.059429 0.230580 0.015243
vertex -0.032216 0.156414 0.015744
vertex -0.033833 0.155826 0.012248
endloop
endfacet
facet normal 0.834778 0.304226 -0.458903
outer loop
vertex -0.059429 0.230580 0.015243
vertex -0.033833 0.155826 0.012248
vertex -0.061063 0.229985 0.011878
endloop
endfacet
facet normal 0.768585 0.279338 -0.575541
outer loop
vertex -0.061063 0.229985 0.011878
vertex -0.033833 0.155826 0.012248
vertex -0.035940 0.155059 0.009062
endloop
endfacet
facet normal 0.760068 0.276945 -0.587876
outer loop
vertex -0.061063 0.229985 0.011878
vertex -0.035940 0.155059 0.009062
vertex -0.063156 0.229223 0.008813
endloop
endfacet
facet normal 0.675194 0.245438 -0.695610
outer loop
vertex -0.063156 0.229223 0.008813
vertex -0.035940 0.155059 0.009062
vertex -0.038487 0.154132 0.006263
endloop
endfacet
facet normal 0.667906 0.243306 -0.703352
outer loop
vertex -0.063156 0.229223 0.008813
vertex -0.038487 0.154132 0.006263
vertex -0.065659 0.228312 0.006120
endloop
endfacet
facet normal 0.565404 0.205575 -0.798785
outer loop
vertex -0.065659 0.228312 0.006120
vertex -0.038487 0.154132 0.006263
vertex -0.041411 0.153068 0.003919
endloop
endfacet
facet normal 0.560410 0.204080 -0.802678
outer loop
vertex -0.065659 0.228312 0.006120
vertex -0.041411 0.153068 0.003919
vertex -0.068517 0.227272 0.003861
endloop
endfacet
facet normal 0.440083 0.160063 -0.883576
outer loop
vertex -0.068517 0.227272 0.003861
vertex -0.041411 0.153068 0.003919
vertex -0.071662 0.226127 0.002087
endloop
endfacet
facet normal 0.441844 0.160818 -0.882559
outer loop
vertex -0.071662 0.226127 0.002087
vertex -0.041411 0.153068 0.003919
vertex -0.014391 0.078832 0.003919
endloop
endfacet
facet normal 0.441844 0.160818 -0.882559
outer loop
vertex -0.071662 0.226127 0.002087
vertex -0.014391 0.078832 0.003919
vertex 0.012628 0.004596 0.003919
endloop
endfacet
facet normal 0.565334 0.205765 -0.798785
outer loop
vertex 0.012628 0.004596 0.003919
vertex -0.014391 0.078832 0.003919
vertex 0.015553 0.005661 0.006263
endloop
endfacet
facet normal 0.565335 0.205765 -0.798785
outer loop
vertex 0.012628 0.004596 0.003919
vertex 0.015553 0.005661 0.006263
vertex 0.042572 -0.068575 0.006263
endloop
endfacet
facet normal 0.675094 0.245714 -0.695610
outer loop
vertex 0.042572 -0.068575 0.006263
vertex 0.015553 0.005661 0.006263
vertex 0.045119 -0.067648 0.009062
endloop
endfacet
facet normal 0.675093 0.245714 -0.695611
outer loop
vertex 0.042572 -0.068575 0.006263
vertex 0.045119 -0.067648 0.009062
vertex 0.072139 -0.141884 0.009062
endloop
endfacet
facet normal 0.768456 0.279695 -0.575540
outer loop
vertex 0.072139 -0.141884 0.009062
vertex 0.045119 -0.067648 0.009062
vertex 0.074246 -0.141117 0.012248
endloop
endfacet
facet normal 0.768326 0.280052 -0.575539
outer loop
vertex 0.072139 -0.141884 0.009062
vertex 0.074246 -0.141117 0.012248
vertex 0.101055 -0.215429 0.011878
endloop
endfacet
facet normal 0.835030 0.303534 -0.458903
outer loop
vertex 0.101055 -0.215429 0.011878
vertex 0.074246 -0.141117 0.012248
vertex 0.102688 -0.214835 0.015243
endloop
endfacet
facet normal 0.842996 0.307315 -0.441491
outer loop
vertex 0.102688 -0.214835 0.015243
vertex 0.074246 -0.141117 0.012248
vertex 0.075862 -0.140529 0.015744
endloop
endfacet
facet normal 0.890626 0.323687 -0.319393
outer loop
vertex 0.102688 -0.214835 0.015243
vertex 0.075862 -0.140529 0.015744
vertex 0.103825 -0.214421 0.018833
endloop
endfacet
facet normal 0.897190 0.327119 -0.296721
outer loop
vertex 0.103825 -0.214421 0.018833
vertex 0.075862 -0.140529 0.015744
vertex 0.076948 -0.140133 0.019465
endloop
endfacet
facet normal 0.925775 0.336404 -0.172551
outer loop
vertex 0.103825 -0.214421 0.018833
vertex 0.076948 -0.140133 0.019465
vertex 0.104439 -0.214197 0.022564
endloop
endfacet
facet normal 0.929591 0.338985 -0.144742
outer loop
vertex 0.104439 -0.214197 0.022564
vertex 0.076948 -0.140133 0.019465
vertex 0.077478 -0.139940 0.023320
endloop
endfacet
facet normal 0.939669 0.341392 -0.021744
outer loop
vertex 0.104439 -0.214197 0.022564
vertex 0.077478 -0.139940 0.023320
vertex 0.104517 -0.214169 0.026352
endloop
endfacet
facet normal 0.939410 0.342626 0.010754
outer loop
vertex 0.104517 -0.214169 0.026352
vertex 0.077478 -0.139940 0.023320
vertex 0.077439 -0.139955 0.027216
endloop
endfacet
facet normal 0.931992 0.338535 0.129558
outer loop
vertex 0.104517 -0.214169 0.026352
vertex 0.077439 -0.139955 0.027216
vertex 0.104056 -0.214337 0.030108
endloop
endfacet
facet normal 0.926411 0.337954 0.165984
outer loop
vertex 0.104056 -0.214337 0.030108
vertex 0.077439 -0.139955 0.027216
vertex 0.076831 -0.140176 0.031058
endloop
endfacet
facet normal 0.902919 0.327895 0.277890
outer loop
vertex 0.104056 -0.214337 0.030108
vertex 0.076831 -0.140176 0.031058
vertex 0.103066 -0.214697 0.033747
endloop
endfacet
facet normal 0.890905 0.325085 0.317187
outer loop
vertex 0.103066 -0.214697 0.033747
vertex 0.076831 -0.140176 0.031058
vertex 0.075670 -0.140598 0.034753
endloop
endfacet
facet normal 0.853119 0.309720 0.419835
outer loop
vertex 0.103066 -0.214697 0.033747
vertex 0.075670 -0.140598 0.034753
vertex 0.101572 -0.215241 0.037185
endloop
endfacet
facet normal 0.833757 0.304332 0.460686
outer loop
vertex 0.101572 -0.215241 0.037185
vertex 0.075670 -0.140598 0.034753
vertex 0.073983 -0.141212 0.038211
endloop
endfacet
facet normal 0.783737 0.284422 0.552142
outer loop
vertex 0.101572 -0.215241 0.037185
vertex 0.073983 -0.141212 0.038211
vertex 0.099606 -0.215956 0.040343
endloop
endfacet
facet normal 0.756352 0.276200 0.592997
outer loop
vertex 0.099606 -0.215956 0.040343
vertex 0.073983 -0.141212 0.038211
vertex 0.071812 -0.142003 0.041348
endloop
endfacet
facet normal 0.696361 0.252582 0.671777
outer loop
vertex 0.099606 -0.215956 0.040343
vertex 0.071812 -0.142003 0.041348
vertex 0.097215 -0.216827 0.043149
endloop
endfacet
facet normal 0.660577 0.241375 0.710898
outer loop
vertex 0.097215 -0.216827 0.043149
vertex 0.071812 -0.142003 0.041348
vertex 0.069210 -0.142950 0.044088
endloop
endfacet
facet normal 0.593002 0.214932 0.775985
outer loop
vertex 0.097215 -0.216827 0.043149
vertex 0.069210 -0.142950 0.044088
vertex 0.094453 -0.217832 0.045539
endloop
endfacet
facet normal 0.548749 0.200702 0.811538
outer loop
vertex 0.094453 -0.217832 0.045539
vertex 0.069210 -0.142950 0.044088
vertex 0.066238 -0.144031 0.046365
endloop
endfacet
facet normal 0.476031 0.172332 0.862378
outer loop
vertex 0.094453 -0.217832 0.045539
vertex 0.066238 -0.144031 0.046365
vertex 0.091383 -0.218949 0.047456
endloop
endfacet
facet normal 0.423589 0.155169 0.892466
outer loop
vertex 0.091383 -0.218949 0.047456
vertex 0.066238 -0.144031 0.046365
vertex 0.062971 -0.145221 0.048123
endloop
endfacet
facet normal 0.348137 0.125764 0.928969
outer loop
vertex 0.091383 -0.218949 0.047456
vertex 0.062971 -0.145221 0.048123
vertex 0.088076 -0.220153 0.048859
endloop
endfacet
facet normal 0.288134 0.105883 0.951718
outer loop
vertex 0.088076 -0.220153 0.048859
vertex 0.062971 -0.145221 0.048123
vertex 0.059487 -0.146489 0.049319
endloop
endfacet
facet normal 0.212255 0.076294 0.974231
outer loop
vertex 0.088076 -0.220153 0.048859
vertex 0.059487 -0.146489 0.049319
vertex 0.084608 -0.221415 0.049713
endloop
endfacet
facet normal 0.145673 0.054042 0.987856
outer loop
vertex 0.084608 -0.221415 0.049713
vertex 0.059487 -0.146489 0.049319
vertex 0.055870 -0.147805 0.049924
endloop
endfacet
facet normal 0.071506 0.025059 0.997125
outer loop
vertex 0.084608 -0.221415 0.049713
vertex 0.055870 -0.147805 0.049924
vertex 0.081059 -0.222707 0.050000
endloop
endfacet
facet normal -0.000328 0.000904 1.000000
outer loop
vertex 0.081059 -0.222707 0.050000
vertex 0.055870 -0.147805 0.049924
vertex 0.052209 -0.149138 0.049924
endloop
endfacet
facet normal -0.070883 -0.026767 0.997125
outer loop
vertex 0.081059 -0.222707 0.050000
vertex 0.052209 -0.149138 0.049924
vertex 0.077509 -0.223999 0.049713
endloop
endfacet
facet normal -0.146331 -0.052239 0.987855
outer loop
vertex 0.077509 -0.223999 0.049713
vertex 0.052209 -0.149138 0.049924
vertex 0.048592 -0.150454 0.049319
endloop
endfacet
facet normal -0.211639 -0.077991 0.974231
outer loop
vertex 0.077509 -0.223999 0.049713
vertex 0.048592 -0.150454 0.049319
vertex 0.074041 -0.225261 0.048859
endloop
endfacet
facet normal -0.288783 -0.104097 0.951719
outer loop
vertex 0.074041 -0.225261 0.048859
vertex 0.048592 -0.150454 0.049319
vertex 0.045107 -0.151722 0.048123
endloop
endfacet
facet normal -0.347529 -0.127438 0.928969
outer loop
vertex 0.074041 -0.225261 0.048859
vertex 0.045107 -0.151722 0.048123
vertex 0.070735 -0.226465 0.047456
endloop
endfacet
facet normal -0.424227 -0.153411 0.892467
outer loop
vertex 0.070735 -0.226465 0.047456
vertex 0.045107 -0.151722 0.048123
vertex 0.041840 -0.152912 0.046365
endloop
endfacet
facet normal -0.475436 -0.173974 0.862377
outer loop
vertex 0.070735 -0.226465 0.047456
vertex 0.041840 -0.152912 0.046365
vertex 0.067665 -0.227582 0.045539
endloop
endfacet
facet normal -0.549373 -0.198983 0.811539
outer loop
vertex 0.067665 -0.227582 0.045539
vertex 0.041840 -0.152912 0.046365
vertex 0.038869 -0.153993 0.044088
endloop
endfacet
facet normal -0.592423 -0.216527 0.775984
outer loop
vertex 0.067665 -0.227582 0.045539
vertex 0.038869 -0.153993 0.044088
vertex 0.064902 -0.228588 0.043149
endloop
endfacet
facet normal -0.661187 -0.239707 0.710896
outer loop
vertex 0.064902 -0.228588 0.043149
vertex 0.038869 -0.153993 0.044088
vertex 0.036266 -0.154940 0.041348
endloop
endfacet
facet normal -0.695797 -0.254121 0.671781
outer loop
vertex 0.064902 -0.228588 0.043149
vertex 0.036266 -0.154940 0.041348
vertex 0.062511 -0.229458 0.040343
endloop
endfacet
facet normal -0.756940 -0.274594 0.592992
outer loop
vertex 0.062511 -0.229458 0.040343
vertex 0.036266 -0.154940 0.041348
vertex 0.034095 -0.155731 0.038211
endloop
endfacet
facet normal -0.783198 -0.285895 0.552146
outer loop
vertex 0.062511 -0.229458 0.040343
vertex 0.034095 -0.155731 0.038211
vertex 0.060546 -0.230173 0.037185
endloop
endfacet
facet normal -0.834317 -0.302798 0.460683
outer loop
vertex 0.060546 -0.230173 0.037185
vertex 0.034095 -0.155731 0.038211
vertex 0.032408 -0.156344 0.034753
endloop
endfacet
facet normal -0.852610 -0.311115 0.419837
outer loop
vertex 0.060546 -0.230173 0.037185
vertex 0.032408 -0.156344 0.034753
vertex 0.059051 -0.230717 0.033747
endloop
endfacet
facet normal -0.891434 -0.323634 0.317187
outer loop
vertex 0.059051 -0.230717 0.033747
vertex 0.032408 -0.156344 0.034753
vertex 0.031247 -0.156767 0.031058
endloop
endfacet
facet normal -0.902444 -0.329202 0.277887
outer loop
vertex 0.059051 -0.230717 0.033747
vertex 0.031247 -0.156767 0.031058
vertex 0.058062 -0.231077 0.030108
endloop
endfacet
facet normal -0.926904 -0.336597 0.165988
outer loop
vertex 0.058062 -0.231077 0.030108
vertex 0.031247 -0.156767 0.031058
vertex 0.030639 -0.156988 0.027216
endloop
endfacet
facet normal -0.931553 -0.339741 0.129555
outer loop
vertex 0.058062 -0.231077 0.030108
vertex 0.030639 -0.156988 0.027216
vertex 0.057601 -0.231245 0.026352
endloop
endfacet
facet normal -0.939866 -0.341375 0.010754
outer loop
vertex 0.057601 -0.231245 0.026352
vertex 0.030639 -0.156988 0.027216
vertex 0.030600 -0.157003 0.023320
endloop
endfacet
facet normal -0.939271 -0.342486 -0.021744
outer loop
vertex 0.057601 -0.231245 0.026352
vertex 0.030600 -0.157003 0.023320
vertex 0.057678 -0.231217 0.022564
endloop
endfacet
facet normal -0.930003 -0.337852 -0.144742
outer loop
vertex 0.057678 -0.231217 0.022564
vertex 0.030600 -0.157003 0.023320
vertex 0.031130 -0.156810 0.019465
endloop
endfacet
facet normal -0.925420 -0.337375 -0.172554
outer loop
vertex 0.057678 -0.231217 0.022564
vertex 0.031130 -0.156810 0.019465
vertex 0.058292 -0.230993 0.018833
endloop
endfacet
facet normal -0.897557 -0.326115 -0.296716
outer loop
vertex 0.058292 -0.230993 0.018833
vertex 0.031130 -0.156810 0.019465
vertex 0.032216 -0.156414 0.015744
endloop
endfacet
facet normal -0.890321 -0.324524 -0.319393
outer loop
vertex 0.058292 -0.230993 0.018833
vertex 0.032216 -0.156414 0.015744
vertex 0.059429 -0.230580 0.015243
endloop
endfacet
facet normal -0.843311 -0.306450 -0.441492
outer loop
vertex 0.059429 -0.230580 0.015243
vertex 0.032216 -0.156414 0.015744
vertex 0.033833 -0.155826 0.012248
endloop
endfacet
facet normal -0.834777 -0.304226 -0.458906
outer loop
vertex 0.059429 -0.230580 0.015243
vertex 0.033833 -0.155826 0.012248
vertex 0.061063 -0.229985 0.011878
endloop
endfacet
facet normal -0.768585 -0.279338 -0.575541
outer loop
vertex 0.061063 -0.229985 0.011878
vertex 0.033833 -0.155826 0.012248
vertex 0.035940 -0.155059 0.009062
endloop
endfacet
facet normal -0.760069 -0.276946 -0.587875
outer loop
vertex 0.061063 -0.229985 0.011878
vertex 0.035940 -0.155059 0.009062
vertex 0.063156 -0.229223 0.008813
endloop
endfacet
facet normal -0.675194 -0.245438 -0.695610
outer loop
vertex 0.063156 -0.229223 0.008813
vertex 0.035940 -0.155059 0.009062
vertex 0.038487 -0.154132 0.006263
endloop
endfacet
facet normal -0.667904 -0.243306 -0.703354
outer loop
vertex 0.063156 -0.229223 0.008813
vertex 0.038487 -0.154132 0.006263
vertex 0.065659 -0.228312 0.006120
endloop
endfacet
facet normal -0.565404 -0.205575 -0.798785
outer loop
vertex 0.065659 -0.228312 0.006120
vertex 0.038487 -0.154132 0.006263
vertex 0.041411 -0.153068 0.003919
endloop
endfacet
facet normal -0.560410 -0.204080 -0.802678
outer loop
vertex 0.065659 -0.228312 0.006120
vertex 0.041411 -0.153068 0.003919
vertex 0.068517 -0.227272 0.003861
endloop
endfacet
facet normal 0.760261 0.276409 -0.587878
outer loop
vertex 0.101055 -0.215429 0.011878
vertex 0.098962 -0.216191 0.008813
vertex 0.072139 -0.141884 0.009062
endloop
endfacet
facet normal 0.674993 0.245990 -0.695611
outer loop
vertex 0.072139 -0.141884 0.009062
vertex 0.098962 -0.216191 0.008813
vertex 0.069592 -0.142811 0.006263
endloop
endfacet
facet normal 0.675092 0.245713 -0.695611
outer loop
vertex 0.072139 -0.141884 0.009062
vertex 0.069592 -0.142811 0.006263
vertex 0.042572 -0.068575 0.006263
endloop
endfacet
facet normal 0.565335 0.205765 -0.798785
outer loop
vertex 0.042572 -0.068575 0.006263
vertex 0.069592 -0.142811 0.006263
vertex 0.039648 -0.069639 0.003919
endloop
endfacet
facet normal 0.565335 0.205765 -0.798785
outer loop
vertex 0.042572 -0.068575 0.006263
vertex 0.039648 -0.069639 0.003919
vertex 0.012628 0.004596 0.003919
endloop
endfacet
facet normal 0.441845 0.160818 -0.882559
outer loop
vertex 0.012628 0.004596 0.003919
vertex 0.039648 -0.069639 0.003919
vertex -0.071662 0.226127 0.002087
endloop
endfacet
facet normal 0.668041 0.242938 -0.703351
outer loop
vertex 0.098962 -0.216191 0.008813
vertex 0.096458 -0.217102 0.006120
vertex 0.069592 -0.142811 0.006263
endloop
endfacet
facet normal 0.565266 0.205955 -0.798785
outer loop
vertex 0.069592 -0.142811 0.006263
vertex 0.096458 -0.217102 0.006120
vertex 0.066667 -0.143875 0.003919
endloop
endfacet
facet normal 0.565335 0.205765 -0.798785
outer loop
vertex 0.069592 -0.142811 0.006263
vertex 0.066667 -0.143875 0.003919
vertex 0.039648 -0.069639 0.003919
endloop
endfacet
facet normal 0.441842 0.160818 -0.882560
outer loop
vertex 0.039648 -0.069639 0.003919
vertex 0.066667 -0.143875 0.003919
vertex -0.071662 0.226127 0.002087
endloop
endfacet
facet normal 0.560478 0.203890 -0.802679
outer loop
vertex 0.096458 -0.217102 0.006120
vertex 0.093601 -0.218142 0.003861
vertex 0.066667 -0.143875 0.003919
endloop
endfacet
facet normal 0.449469 0.163691 -0.878170
outer loop
vertex 0.066667 -0.143875 0.003919
vertex 0.093601 -0.218142 0.003861
vertex -0.071662 0.226127 0.002087
endloop
endfacet
facet normal 0.440047 0.160164 -0.883576
outer loop
vertex 0.093601 -0.218142 0.003861
vertex 0.090456 -0.219287 0.002087
vertex -0.071662 0.226127 0.002087
endloop
endfacet
facet normal -0.760261 -0.276409 -0.587879
outer loop
vertex -0.101055 0.215429 0.011878
vertex -0.098962 0.216191 0.008813
vertex -0.072139 0.141884 0.009062
endloop
endfacet
facet normal -0.674994 -0.245991 -0.695609
outer loop
vertex -0.072139 0.141884 0.009062
vertex -0.098962 0.216191 0.008813
vertex -0.069592 0.142811 0.006263
endloop
endfacet
facet normal -0.675093 -0.245714 -0.695610
outer loop
vertex -0.072139 0.141884 0.009062
vertex -0.069592 0.142811 0.006263
vertex -0.042572 0.068575 0.006263
endloop
endfacet
facet normal -0.565334 -0.205765 -0.798785
outer loop
vertex -0.042572 0.068575 0.006263
vertex -0.069592 0.142811 0.006263
vertex -0.039648 0.069639 0.003919
endloop
endfacet
facet normal -0.565335 -0.205765 -0.798785
outer loop
vertex -0.042572 0.068575 0.006263
vertex -0.039648 0.069639 0.003919
vertex -0.012628 -0.004596 0.003919
endloop
endfacet
facet normal -0.441845 -0.160819 -0.882559
outer loop
vertex -0.012628 -0.004596 0.003919
vertex -0.039648 0.069639 0.003919
vertex 0.071662 -0.226127 0.002087
endloop
endfacet
facet normal -0.668040 -0.242938 -0.703352
outer loop
vertex -0.098962 0.216191 0.008813
vertex -0.096458 0.217102 0.006120
vertex -0.069592 0.142811 0.006263
endloop
endfacet
facet normal -0.565266 -0.205955 -0.798785
outer loop
vertex -0.069592 0.142811 0.006263
vertex -0.096458 0.217102 0.006120
vertex -0.066667 0.143875 0.003919
endloop
endfacet
facet normal -0.565335 -0.205765 -0.798785
outer loop
vertex -0.069592 0.142811 0.006263
vertex -0.066667 0.143875 0.003919
vertex -0.039648 0.069639 0.003919
endloop
endfacet
facet normal -0.441844 -0.160818 -0.882560
outer loop
vertex -0.039648 0.069639 0.003919
vertex -0.066667 0.143875 0.003919
vertex 0.071662 -0.226127 0.002087
endloop
endfacet
facet normal -0.560478 -0.203890 -0.802679
outer loop
vertex -0.096458 0.217102 0.006120
vertex -0.093601 0.218142 0.003861
vertex -0.066667 0.143875 0.003919
endloop
endfacet
facet normal -0.449472 -0.163691 -0.878169
outer loop
vertex -0.066667 0.143875 0.003919
vertex -0.093601 0.218142 0.003861
vertex 0.071662 -0.226127 0.002087
endloop
endfacet
facet normal -0.440047 -0.160164 -0.883576
outer loop
vertex -0.093601 0.218142 0.003861
vertex -0.090456 0.219287 0.002087
vertex 0.071662 -0.226127 0.002087
endloop
endfacet
facet normal -0.565335 -0.205765 -0.798785
outer loop
vertex 0.014391 -0.078832 0.003919
vertex 0.041411 -0.153068 0.003919
vertex 0.011467 -0.079896 0.006263
endloop
endfacet
facet normal -0.565334 -0.205765 -0.798786
outer loop
vertex 0.011467 -0.079896 0.006263
vertex 0.041411 -0.153068 0.003919
vertex 0.038487 -0.154132 0.006263
endloop
endfacet
facet normal -0.675094 -0.245714 -0.695609
outer loop
vertex 0.011467 -0.079896 0.006263
vertex 0.038487 -0.154132 0.006263
vertex 0.008920 -0.080823 0.009062
endloop
endfacet
facet normal -0.675093 -0.245714 -0.695611
outer loop
vertex 0.008920 -0.080823 0.009062
vertex 0.038487 -0.154132 0.006263
vertex 0.035940 -0.155059 0.009062
endloop
endfacet
facet normal -0.768456 -0.279695 -0.575539
outer loop
vertex 0.008920 -0.080823 0.009062
vertex 0.035940 -0.155059 0.009062
vertex 0.006813 -0.081590 0.012248
endloop
endfacet
facet normal -0.768456 -0.279695 -0.575540
outer loop
vertex 0.006813 -0.081590 0.012248
vertex 0.035940 -0.155059 0.009062
vertex 0.033833 -0.155826 0.012248
endloop
endfacet
facet normal -0.843154 -0.306883 -0.441491
outer loop
vertex 0.006813 -0.081590 0.012248
vertex 0.033833 -0.155826 0.012248
vertex 0.005197 -0.082179 0.015744
endloop
endfacet
facet normal -0.843154 -0.306883 -0.441491
outer loop
vertex 0.005197 -0.082179 0.015744
vertex 0.033833 -0.155826 0.012248
vertex 0.032216 -0.156414 0.015744
endloop
endfacet
facet normal -0.897373 -0.326617 -0.296721
outer loop
vertex 0.005197 -0.082179 0.015744
vertex 0.032216 -0.156414 0.015744
vertex 0.004110 -0.082574 0.019465
endloop
endfacet
facet normal -0.897373 -0.326617 -0.296720
outer loop
vertex 0.004110 -0.082574 0.019465
vertex 0.032216 -0.156414 0.015744
vertex 0.031130 -0.156810 0.019465
endloop
endfacet
facet normal -0.929797 -0.338419 -0.144740
outer loop
vertex 0.004110 -0.082574 0.019465
vertex 0.031130 -0.156810 0.019465
vertex 0.003580 -0.082767 0.023320
endloop
endfacet
facet normal -0.929797 -0.338419 -0.144741
outer loop
vertex 0.003580 -0.082767 0.023320
vertex 0.031130 -0.156810 0.019465
vertex 0.030600 -0.157003 0.023320
endloop
endfacet
facet normal -0.939638 -0.342000 0.010751
outer loop
vertex 0.003580 -0.082767 0.023320
vertex 0.030600 -0.157003 0.023320
vertex 0.003620 -0.082753 0.027216
endloop
endfacet
facet normal -0.939638 -0.342000 0.010754
outer loop
vertex 0.003620 -0.082753 0.027216
vertex 0.030600 -0.157003 0.023320
vertex 0.030639 -0.156988 0.027216
endloop
endfacet
facet normal -0.926657 -0.337276 0.165986
outer loop
vertex 0.003620 -0.082753 0.027216
vertex 0.030639 -0.156988 0.027216
vertex 0.004227 -0.082531 0.031058
endloop
endfacet
facet normal -0.926657 -0.337276 0.165985
outer loop
vertex 0.004227 -0.082531 0.031058
vertex 0.030639 -0.156988 0.027216
vertex 0.031247 -0.156767 0.031058
endloop
endfacet
facet normal -0.891170 -0.324359 0.317187
outer loop
vertex 0.004227 -0.082531 0.031058
vertex 0.031247 -0.156767 0.031058
vertex 0.005389 -0.082109 0.034753
endloop
endfacet
facet normal -0.891170 -0.324360 0.317187
outer loop
vertex 0.005389 -0.082109 0.034753
vertex 0.031247 -0.156767 0.031058
vertex 0.032408 -0.156344 0.034753
endloop
endfacet
facet normal -0.834037 -0.303565 0.460685
outer loop
vertex 0.005389 -0.082109 0.034753
vertex 0.032408 -0.156344 0.034753
vertex 0.007075 -0.081495 0.038211
endloop
endfacet
facet normal -0.834038 -0.303565 0.460683
outer loop
vertex 0.007075 -0.081495 0.038211
vertex 0.032408 -0.156344 0.034753
vertex 0.034095 -0.155731 0.038211
endloop
endfacet
facet normal -0.756649 -0.275398 0.592992
outer loop
vertex 0.007075 -0.081495 0.038211
vertex 0.034095 -0.155731 0.038211
vertex 0.009246 -0.080705 0.041348
endloop
endfacet
facet normal -0.756647 -0.275397 0.592994
outer loop
vertex 0.009246 -0.080705 0.041348
vertex 0.034095 -0.155731 0.038211
vertex 0.036266 -0.154940 0.041348
endloop
endfacet
facet normal -0.660881 -0.240541 0.710898
outer loop
vertex 0.009246 -0.080705 0.041348
vertex 0.036266 -0.154940 0.041348
vertex 0.011849 -0.079757 0.044088
endloop
endfacet
facet normal -0.660882 -0.240541 0.710898
outer loop
vertex 0.011849 -0.079757 0.044088
vertex 0.036266 -0.154940 0.041348
vertex 0.038869 -0.153993 0.044088
endloop
endfacet
facet normal -0.549062 -0.199842 0.811538
outer loop
vertex 0.011849 -0.079757 0.044088
vertex 0.038869 -0.153993 0.044088
vertex 0.014820 -0.078676 0.046365
endloop
endfacet
facet normal -0.549063 -0.199842 0.811537
outer loop
vertex 0.014820 -0.078676 0.046365
vertex 0.038869 -0.153993 0.044088
vertex 0.041840 -0.152912 0.046365
endloop
endfacet
facet normal -0.423909 -0.154290 0.892466
outer loop
vertex 0.014820 -0.078676 0.046365
vertex 0.041840 -0.152912 0.046365
vertex 0.018088 -0.077487 0.048123
endloop
endfacet
facet normal -0.423908 -0.154290 0.892466
outer loop
vertex 0.018088 -0.077487 0.048123
vertex 0.041840 -0.152912 0.046365
vertex 0.045107 -0.151722 0.048123
endloop
endfacet
facet normal -0.288458 -0.104990 0.951719
outer loop
vertex 0.018088 -0.077487 0.048123
vertex 0.045107 -0.151722 0.048123
vertex 0.021572 -0.076218 0.049319
endloop
endfacet
facet normal -0.288460 -0.104990 0.951718
outer loop
vertex 0.021572 -0.076218 0.049319
vertex 0.045107 -0.151722 0.048123
vertex 0.048592 -0.150454 0.049319
endloop
endfacet
facet normal -0.146001 -0.053140 0.987856
outer loop
vertex 0.021572 -0.076218 0.049319
vertex 0.048592 -0.150454 0.049319
vertex 0.025189 -0.074902 0.049924
endloop
endfacet
facet normal -0.146002 -0.053140 0.987856
outer loop
vertex 0.025189 -0.074902 0.049924
vertex 0.048592 -0.150454 0.049319
vertex 0.052209 -0.149138 0.049924
endloop
endfacet
facet normal -0.000002 0.000000 1.000000
outer loop
vertex 0.025189 -0.074902 0.049924
vertex 0.052209 -0.149138 0.049924
vertex 0.028850 -0.073569 0.049924
endloop
endfacet
facet normal 0.000001 0.000000 1.000000
outer loop
vertex 0.028850 -0.073569 0.049924
vertex 0.052209 -0.149138 0.049924
vertex 0.055870 -0.147805 0.049924
endloop
endfacet
facet normal 0.146001 0.053140 0.987856
outer loop
vertex 0.028850 -0.073569 0.049924
vertex 0.055870 -0.147805 0.049924
vertex 0.032467 -0.072253 0.049319
endloop
endfacet
facet normal 0.146002 0.053140 0.987856
outer loop
vertex 0.032467 -0.072253 0.049319
vertex 0.055870 -0.147805 0.049924
vertex 0.059487 -0.146489 0.049319
endloop
endfacet
facet normal 0.288459 0.104990 0.951719
outer loop
vertex 0.032467 -0.072253 0.049319
vertex 0.059487 -0.146489 0.049319
vertex 0.035951 -0.070985 0.048123
endloop
endfacet
facet normal 0.288458 0.104990 0.951719
outer loop
vertex 0.035951 -0.070985 0.048123
vertex 0.059487 -0.146489 0.049319
vertex 0.062971 -0.145221 0.048123
endloop
endfacet
facet normal 0.423910 0.154290 0.892466
outer loop
vertex 0.035951 -0.070985 0.048123
vertex 0.062971 -0.145221 0.048123
vertex 0.039219 -0.069796 0.046365
endloop
endfacet
facet normal 0.423908 0.154290 0.892467
outer loop
vertex 0.039219 -0.069796 0.046365
vertex 0.062971 -0.145221 0.048123
vertex 0.066238 -0.144031 0.046365
endloop
endfacet
facet normal 0.549062 0.199842 0.811538
outer loop
vertex 0.039219 -0.069796 0.046365
vertex 0.066238 -0.144031 0.046365
vertex 0.042190 -0.068714 0.044088
endloop
endfacet
facet normal 0.549063 0.199843 0.811538
outer loop
vertex 0.042190 -0.068714 0.044088
vertex 0.066238 -0.144031 0.046365
vertex 0.069210 -0.142950 0.044088
endloop
endfacet
facet normal 0.660882 0.240541 0.710897
outer loop
vertex 0.042190 -0.068714 0.044088
vertex 0.069210 -0.142950 0.044088
vertex 0.044793 -0.067767 0.041348
endloop
endfacet
facet normal 0.660880 0.240541 0.710899
outer loop
vertex 0.044793 -0.067767 0.041348
vertex 0.069210 -0.142950 0.044088
vertex 0.071812 -0.142003 0.041348
endloop
endfacet
facet normal 0.756649 0.275397 0.592992
outer loop
vertex 0.044793 -0.067767 0.041348
vertex 0.071812 -0.142003 0.041348
vertex 0.046964 -0.066977 0.038211
endloop
endfacet
facet normal 0.756647 0.275397 0.592993
outer loop
vertex 0.046964 -0.066977 0.038211
vertex 0.071812 -0.142003 0.041348
vertex 0.073983 -0.141212 0.038211
endloop
endfacet
facet normal 0.834038 0.303564 0.460684
outer loop
vertex 0.046964 -0.066977 0.038211
vertex 0.073983 -0.141212 0.038211
vertex 0.048650 -0.066363 0.034753
endloop
endfacet
facet normal 0.834037 0.303565 0.460685
outer loop
vertex 0.048650 -0.066363 0.034753
vertex 0.073983 -0.141212 0.038211
vertex 0.075670 -0.140598 0.034753
endloop
endfacet
facet normal 0.891170 0.324359 0.317186
outer loop
vertex 0.048650 -0.066363 0.034753
vertex 0.075670 -0.140598 0.034753
vertex 0.049812 -0.065940 0.031058
endloop
endfacet
facet normal 0.891169 0.324359 0.317189
outer loop
vertex 0.049812 -0.065940 0.031058
vertex 0.075670 -0.140598 0.034753
vertex 0.076831 -0.140176 0.031058
endloop
endfacet
facet normal 0.926657 0.337276 0.165985
outer loop
vertex 0.049812 -0.065940 0.031058
vertex 0.076831 -0.140176 0.031058
vertex 0.050419 -0.065719 0.027216
endloop
endfacet
facet normal 0.926658 0.337275 0.165985
outer loop
vertex 0.050419 -0.065719 0.027216
vertex 0.076831 -0.140176 0.031058
vertex 0.077439 -0.139955 0.027216
endloop
endfacet
facet normal 0.939638 0.342000 0.010752
outer loop
vertex 0.050419 -0.065719 0.027216
vertex 0.077439 -0.139955 0.027216
vertex 0.050459 -0.065705 0.023320
endloop
endfacet
facet normal 0.939638 0.342000 0.010754
outer loop
vertex 0.050459 -0.065705 0.023320
vertex 0.077439 -0.139955 0.027216
vertex 0.077478 -0.139940 0.023320
endloop
endfacet
facet normal 0.929797 0.338419 -0.144741
outer loop
vertex 0.050459 -0.065705 0.023320
vertex 0.077478 -0.139940 0.023320
vertex 0.049929 -0.065897 0.019465
endloop
endfacet
facet normal 0.929797 0.338418 -0.144740
outer loop
vertex 0.049929 -0.065897 0.019465
vertex 0.077478 -0.139940 0.023320
vertex 0.076948 -0.140133 0.019465
endloop
endfacet
facet normal 0.897373 0.326617 -0.296720
outer loop
vertex 0.049929 -0.065897 0.019465
vertex 0.076948 -0.140133 0.019465
vertex 0.048843 -0.066293 0.015744
endloop
endfacet
facet normal 0.897373 0.326617 -0.296721
outer loop
vertex 0.048843 -0.066293 0.015744
vertex 0.076948 -0.140133 0.019465
vertex 0.075862 -0.140529 0.015744
endloop
endfacet
facet normal 0.843154 0.306883 -0.441491
outer loop
vertex 0.048843 -0.066293 0.015744
vertex 0.075862 -0.140529 0.015744
vertex 0.047226 -0.066881 0.012248
endloop
endfacet
facet normal 0.843154 0.306883 -0.441490
outer loop
vertex 0.047226 -0.066881 0.012248
vertex 0.075862 -0.140529 0.015744
vertex 0.074246 -0.141117 0.012248
endloop
endfacet
facet normal 0.768456 0.279695 -0.575540
outer loop
vertex 0.047226 -0.066881 0.012248
vertex 0.074246 -0.141117 0.012248
vertex 0.045119 -0.067648 0.009062
endloop
endfacet
facet normal -0.565335 -0.205765 -0.798785
outer loop
vertex 0.014391 -0.078832 0.003919
vertex 0.011467 -0.079896 0.006263
vertex -0.015553 -0.005661 0.006263
endloop
endfacet
facet normal -0.675094 -0.245714 -0.695610
outer loop
vertex -0.015553 -0.005661 0.006263
vertex 0.011467 -0.079896 0.006263
vertex -0.018099 -0.006588 0.009062
endloop
endfacet
facet normal -0.675093 -0.245714 -0.695610
outer loop
vertex -0.015553 -0.005661 0.006263
vertex -0.018099 -0.006588 0.009062
vertex -0.045119 0.067648 0.009062
endloop
endfacet
facet normal -0.768456 -0.279695 -0.575540
outer loop
vertex -0.045119 0.067648 0.009062
vertex -0.018099 -0.006588 0.009062
vertex -0.047226 0.066881 0.012248
endloop
endfacet
facet normal -0.768456 -0.279695 -0.575539
outer loop
vertex -0.045119 0.067648 0.009062
vertex -0.047226 0.066881 0.012248
vertex -0.074246 0.141117 0.012248
endloop
endfacet
facet normal -0.843154 -0.306883 -0.441491
outer loop
vertex -0.074246 0.141117 0.012248
vertex -0.047226 0.066881 0.012248
vertex -0.075862 0.140529 0.015744
endloop
endfacet
facet normal -0.675094 -0.245714 -0.695610
outer loop
vertex -0.018099 -0.006588 0.009062
vertex 0.011467 -0.079896 0.006263
vertex 0.008920 -0.080823 0.009062
endloop
endfacet
facet normal -0.768455 -0.279695 -0.575541
outer loop
vertex -0.018099 -0.006588 0.009062
vertex 0.008920 -0.080823 0.009062
vertex -0.020207 -0.007355 0.012248
endloop
endfacet
facet normal -0.768455 -0.279695 -0.575541
outer loop
vertex -0.020207 -0.007355 0.012248
vertex 0.008920 -0.080823 0.009062
vertex 0.006813 -0.081590 0.012248
endloop
endfacet
facet normal -0.843154 -0.306883 -0.441491
outer loop
vertex -0.020207 -0.007355 0.012248
vertex 0.006813 -0.081590 0.012248
vertex -0.021823 -0.007943 0.015744
endloop
endfacet
facet normal -0.843154 -0.306883 -0.441491
outer loop
vertex -0.021823 -0.007943 0.015744
vertex 0.006813 -0.081590 0.012248
vertex 0.005197 -0.082179 0.015744
endloop
endfacet
facet normal -0.897373 -0.326617 -0.296720
outer loop
vertex -0.021823 -0.007943 0.015744
vertex 0.005197 -0.082179 0.015744
vertex -0.022909 -0.008338 0.019465
endloop
endfacet
facet normal -0.897373 -0.326617 -0.296720
outer loop
vertex -0.022909 -0.008338 0.019465
vertex 0.005197 -0.082179 0.015744
vertex 0.004110 -0.082574 0.019465
endloop
endfacet
facet normal -0.929797 -0.338418 -0.144740
outer loop
vertex -0.022909 -0.008338 0.019465
vertex 0.004110 -0.082574 0.019465
vertex -0.023439 -0.008531 0.023320
endloop
endfacet
facet normal -0.929797 -0.338418 -0.144741
outer loop
vertex -0.023439 -0.008531 0.023320
vertex 0.004110 -0.082574 0.019465
vertex 0.003580 -0.082767 0.023320
endloop
endfacet
facet normal -0.939638 -0.342001 0.010753
outer loop
vertex -0.023439 -0.008531 0.023320
vertex 0.003580 -0.082767 0.023320
vertex -0.023400 -0.008517 0.027216
endloop
endfacet
facet normal -0.939638 -0.342000 0.010753
outer loop
vertex -0.023400 -0.008517 0.027216
vertex 0.003580 -0.082767 0.023320
vertex 0.003620 -0.082753 0.027216
endloop
endfacet
facet normal -0.926657 -0.337276 0.165985
outer loop
vertex -0.023400 -0.008517 0.027216
vertex 0.003620 -0.082753 0.027216
vertex -0.022792 -0.008296 0.031058
endloop
endfacet
facet normal -0.926657 -0.337276 0.165986
outer loop
vertex -0.022792 -0.008296 0.031058
vertex 0.003620 -0.082753 0.027216
vertex 0.004227 -0.082531 0.031058
endloop
endfacet
facet normal -0.891170 -0.324359 0.317186
outer loop
vertex -0.022792 -0.008296 0.031058
vertex 0.004227 -0.082531 0.031058
vertex -0.021631 -0.007873 0.034753
endloop
endfacet
facet normal -0.891170 -0.324360 0.317187
outer loop
vertex -0.021631 -0.007873 0.034753
vertex 0.004227 -0.082531 0.031058
vertex 0.005389 -0.082109 0.034753
endloop
endfacet
facet normal -0.834037 -0.303565 0.460684
outer loop
vertex -0.021631 -0.007873 0.034753
vertex 0.005389 -0.082109 0.034753
vertex -0.019944 -0.007259 0.038211
endloop
endfacet
facet normal -0.834038 -0.303564 0.460683
outer loop
vertex -0.019944 -0.007259 0.038211
vertex 0.005389 -0.082109 0.034753
vertex 0.007075 -0.081495 0.038211
endloop
endfacet
facet normal -0.756647 -0.275397 0.592993
outer loop
vertex -0.019944 -0.007259 0.038211
vertex 0.007075 -0.081495 0.038211
vertex -0.017773 -0.006469 0.041348
endloop
endfacet
facet normal -0.756648 -0.275397 0.592992
outer loop
vertex -0.017773 -0.006469 0.041348
vertex 0.007075 -0.081495 0.038211
vertex 0.009246 -0.080705 0.041348
endloop
endfacet
facet normal -0.660880 -0.240541 0.710899
outer loop
vertex -0.017773 -0.006469 0.041348
vertex 0.009246 -0.080705 0.041348
vertex -0.015170 -0.005522 0.044088
endloop
endfacet
facet normal -0.660881 -0.240541 0.710898
outer loop
vertex -0.015170 -0.005522 0.044088
vertex 0.009246 -0.080705 0.041348
vertex 0.011849 -0.079757 0.044088
endloop
endfacet
facet normal -0.549062 -0.199843 0.811538
outer loop
vertex -0.015170 -0.005522 0.044088
vertex 0.011849 -0.079757 0.044088
vertex -0.012199 -0.004440 0.046365
endloop
endfacet
facet normal -0.549063 -0.199842 0.811538
outer loop
vertex -0.012199 -0.004440 0.046365
vertex 0.011849 -0.079757 0.044088
vertex 0.014820 -0.078676 0.046365
endloop
endfacet
facet normal -0.423910 -0.154290 0.892466
outer loop
vertex -0.012199 -0.004440 0.046365
vertex 0.014820 -0.078676 0.046365
vertex -0.008932 -0.003251 0.048123
endloop
endfacet
facet normal -0.423908 -0.154290 0.892466
outer loop
vertex -0.008932 -0.003251 0.048123
vertex 0.014820 -0.078676 0.046365
vertex 0.018088 -0.077487 0.048123
endloop
endfacet
facet normal -0.288459 -0.104990 0.951719
outer loop
vertex -0.008932 -0.003251 0.048123
vertex 0.018088 -0.077487 0.048123
vertex -0.005447 -0.001983 0.049319
endloop
endfacet
facet normal -0.288459 -0.104990 0.951719
outer loop
vertex -0.005447 -0.001983 0.049319
vertex 0.018088 -0.077487 0.048123
vertex 0.021572 -0.076218 0.049319
endloop
endfacet
facet normal -0.146000 -0.053140 0.987856
outer loop
vertex -0.005447 -0.001983 0.049319
vertex 0.021572 -0.076218 0.049319
vertex -0.001831 -0.000666 0.049924
endloop
endfacet
facet normal -0.146002 -0.053140 0.987856
outer loop
vertex -0.001831 -0.000666 0.049924
vertex 0.021572 -0.076218 0.049319
vertex 0.025189 -0.074902 0.049924
endloop
endfacet
facet normal 0.000000 0.000000 1.000000
outer loop
vertex -0.001831 -0.000666 0.049924
vertex 0.025189 -0.074902 0.049924
vertex 0.001831 0.000666 0.049924
endloop
endfacet
facet normal -0.000001 0.000000 1.000000
outer loop
vertex 0.001831 0.000666 0.049924
vertex 0.025189 -0.074902 0.049924
vertex 0.028850 -0.073569 0.049924
endloop
endfacet
facet normal 0.146004 0.053140 0.987856
outer loop
vertex 0.001831 0.000666 0.049924
vertex 0.028850 -0.073569 0.049924
vertex 0.005447 0.001983 0.049319
endloop
endfacet
facet normal 0.146002 0.053140 0.987856
outer loop
vertex 0.005447 0.001983 0.049319
vertex 0.028850 -0.073569 0.049924
vertex 0.032467 -0.072253 0.049319
endloop
endfacet
facet normal 0.288458 0.104990 0.951719
outer loop
vertex 0.005447 0.001983 0.049319
vertex 0.032467 -0.072253 0.049319
vertex 0.008932 0.003251 0.048123
endloop
endfacet
facet normal 0.288458 0.104990 0.951719
outer loop
vertex 0.008932 0.003251 0.048123
vertex 0.032467 -0.072253 0.049319
vertex 0.035951 -0.070985 0.048123
endloop
endfacet
facet normal 0.423908 0.154290 0.892467
outer loop
vertex 0.008932 0.003251 0.048123
vertex 0.035951 -0.070985 0.048123
vertex 0.012199 0.004440 0.046365
endloop
endfacet
facet normal 0.423909 0.154290 0.892466
outer loop
vertex 0.012199 0.004440 0.046365
vertex 0.035951 -0.070985 0.048123
vertex 0.039219 -0.069796 0.046365
endloop
endfacet
facet normal 0.549063 0.199842 0.811537
outer loop
vertex 0.012199 0.004440 0.046365
vertex 0.039219 -0.069796 0.046365
vertex 0.015170 0.005522 0.044088
endloop
endfacet
facet normal 0.549062 0.199842 0.811538
outer loop
vertex 0.015170 0.005522 0.044088
vertex 0.039219 -0.069796 0.046365
vertex 0.042190 -0.068714 0.044088
endloop
endfacet
facet normal 0.660881 0.240541 0.710898
outer loop
vertex 0.015170 0.005522 0.044088
vertex 0.042190 -0.068714 0.044088
vertex 0.017773 0.006469 0.041348
endloop
endfacet
facet normal 0.660881 0.240541 0.710898
outer loop
vertex 0.017773 0.006469 0.041348
vertex 0.042190 -0.068714 0.044088
vertex 0.044793 -0.067767 0.041348
endloop
endfacet
facet normal 0.756648 0.275397 0.592992
outer loop
vertex 0.017773 0.006469 0.041348
vertex 0.044793 -0.067767 0.041348
vertex 0.019944 0.007259 0.038211
endloop
endfacet
facet normal 0.756647 0.275397 0.592993
outer loop
vertex 0.019944 0.007259 0.038211
vertex 0.044793 -0.067767 0.041348
vertex 0.046964 -0.066977 0.038211
endloop
endfacet
facet normal 0.834038 0.303564 0.460684
outer loop
vertex 0.019944 0.007259 0.038211
vertex 0.046964 -0.066977 0.038211
vertex 0.021631 0.007873 0.034753
endloop
endfacet
facet normal 0.834037 0.303565 0.460684
outer loop
vertex 0.021631 0.007873 0.034753
vertex 0.046964 -0.066977 0.038211
vertex 0.048650 -0.066363 0.034753
endloop
endfacet
facet normal 0.891169 0.324360 0.317188
outer loop
vertex 0.021631 0.007873 0.034753
vertex 0.048650 -0.066363 0.034753
vertex 0.022792 0.008296 0.031058
endloop
endfacet
facet normal 0.891170 0.324359 0.317186
outer loop
vertex 0.022792 0.008296 0.031058
vertex 0.048650 -0.066363 0.034753
vertex 0.049812 -0.065940 0.031058
endloop
endfacet
facet normal 0.926657 0.337276 0.165986
outer loop
vertex 0.022792 0.008296 0.031058
vertex 0.049812 -0.065940 0.031058
vertex 0.023400 0.008517 0.027216
endloop
endfacet
facet normal 0.926658 0.337275 0.165985
outer loop
vertex 0.023400 0.008517 0.027216
vertex 0.049812 -0.065940 0.031058
vertex 0.050419 -0.065719 0.027216
endloop
endfacet
facet normal 0.939638 0.342000 0.010753
outer loop
vertex 0.023400 0.008517 0.027216
vertex 0.050419 -0.065719 0.027216
vertex 0.023439 0.008531 0.023320
endloop
endfacet
facet normal 0.939638 0.342000 0.010753
outer loop
vertex 0.023439 0.008531 0.023320
vertex 0.050419 -0.065719 0.027216
vertex 0.050459 -0.065705 0.023320
endloop
endfacet
facet normal 0.929797 0.338418 -0.144741
outer loop
vertex 0.023439 0.008531 0.023320
vertex 0.050459 -0.065705 0.023320
vertex 0.022909 0.008338 0.019465
endloop
endfacet
facet normal 0.929797 0.338419 -0.144740
outer loop
vertex 0.022909 0.008338 0.019465
vertex 0.050459 -0.065705 0.023320
vertex 0.049929 -0.065897 0.019465
endloop
endfacet
facet normal 0.897373 0.326617 -0.296720
outer loop
vertex 0.022909 0.008338 0.019465
vertex 0.049929 -0.065897 0.019465
vertex 0.021823 0.007943 0.015744
endloop
endfacet
facet normal 0.897373 0.326617 -0.296720
outer loop
vertex 0.021823 0.007943 0.015744
vertex 0.049929 -0.065897 0.019465
vertex 0.048843 -0.066293 0.015744
endloop
endfacet
facet normal 0.843154 0.306883 -0.441491
outer loop
vertex 0.021823 0.007943 0.015744
vertex 0.048843 -0.066293 0.015744
vertex 0.020207 0.007355 0.012248
endloop
endfacet
facet normal 0.843154 0.306883 -0.441491
outer loop
vertex 0.020207 0.007355 0.012248
vertex 0.048843 -0.066293 0.015744
vertex 0.047226 -0.066881 0.012248
endloop
endfacet
facet normal 0.768456 0.279695 -0.575540
outer loop
vertex 0.020207 0.007355 0.012248
vertex 0.047226 -0.066881 0.012248
vertex 0.018099 0.006588 0.009062
endloop
endfacet
facet normal 0.768456 0.279695 -0.575540
outer loop
vertex 0.018099 0.006588 0.009062
vertex 0.047226 -0.066881 0.012248
vertex 0.045119 -0.067648 0.009062
endloop
endfacet
facet normal 0.675093 0.245714 -0.695610
outer loop
vertex 0.018099 0.006588 0.009062
vertex 0.045119 -0.067648 0.009062
vertex 0.015553 0.005661 0.006263
endloop
endfacet
facet normal -0.768456 -0.279695 -0.575540
outer loop
vertex -0.018099 -0.006588 0.009062
vertex -0.020207 -0.007355 0.012248
vertex -0.047226 0.066881 0.012248
endloop
endfacet
facet normal -0.843154 -0.306883 -0.441491
outer loop
vertex -0.047226 0.066881 0.012248
vertex -0.020207 -0.007355 0.012248
vertex -0.048843 0.066293 0.015744
endloop
endfacet
facet normal -0.843154 -0.306883 -0.441491
outer loop
vertex -0.047226 0.066881 0.012248
vertex -0.048843 0.066293 0.015744
vertex -0.075862 0.140529 0.015744
endloop
endfacet
facet normal -0.897373 -0.326617 -0.296719
outer loop
vertex -0.075862 0.140529 0.015744
vertex -0.048843 0.066293 0.015744
vertex -0.076948 0.140133 0.019465
endloop
endfacet
facet normal -0.843154 -0.306883 -0.441491
outer loop
vertex -0.048843 0.066293 0.015744
vertex -0.020207 -0.007355 0.012248
vertex -0.021823 -0.007943 0.015744
endloop
endfacet
facet normal -0.897373 -0.326617 -0.296720
outer loop
vertex -0.048843 0.066293 0.015744
vertex -0.021823 -0.007943 0.015744
vertex -0.049929 0.065897 0.019465
endloop
endfacet
facet normal -0.897373 -0.326617 -0.296719
outer loop
vertex -0.049929 0.065897 0.019465
vertex -0.021823 -0.007943 0.015744
vertex -0.022909 -0.008338 0.019465
endloop
endfacet
facet normal -0.929797 -0.338419 -0.144741
outer loop
vertex -0.049929 0.065897 0.019465
vertex -0.022909 -0.008338 0.019465
vertex -0.050459 0.065705 0.023320
endloop
endfacet
facet normal -0.929797 -0.338418 -0.144741
outer loop
vertex -0.050459 0.065705 0.023320
vertex -0.022909 -0.008338 0.019465
vertex -0.023439 -0.008531 0.023320
endloop
endfacet
facet normal -0.939638 -0.342001 0.010753
outer loop
vertex -0.050459 0.065705 0.023320
vertex -0.023439 -0.008531 0.023320
vertex -0.050419 0.065719 0.027216
endloop
endfacet
facet normal -0.939638 -0.342000 0.010753
outer loop
vertex -0.050419 0.065719 0.027216
vertex -0.023439 -0.008531 0.023320
vertex -0.023400 -0.008517 0.027216
endloop
endfacet
facet normal -0.926658 -0.337276 0.165985
outer loop
vertex -0.050419 0.065719 0.027216
vertex -0.023400 -0.008517 0.027216
vertex -0.049812 0.065940 0.031058
endloop
endfacet
facet normal -0.926657 -0.337276 0.165986
outer loop
vertex -0.049812 0.065940 0.031058
vertex -0.023400 -0.008517 0.027216
vertex -0.022792 -0.008296 0.031058
endloop
endfacet
facet normal -0.891170 -0.324359 0.317187
outer loop
vertex -0.049812 0.065940 0.031058
vertex -0.022792 -0.008296 0.031058
vertex -0.048650 0.066363 0.034753
endloop
endfacet
facet normal -0.891170 -0.324359 0.317187
outer loop
vertex -0.048650 0.066363 0.034753
vertex -0.022792 -0.008296 0.031058
vertex -0.021631 -0.007873 0.034753
endloop
endfacet
facet normal -0.834038 -0.303565 0.460684
outer loop
vertex -0.048650 0.066363 0.034753
vertex -0.021631 -0.007873 0.034753
vertex -0.046964 0.066977 0.038211
endloop
endfacet
facet normal -0.834038 -0.303564 0.460684
outer loop
vertex -0.046964 0.066977 0.038211
vertex -0.021631 -0.007873 0.034753
vertex -0.019944 -0.007259 0.038211
endloop
endfacet
facet normal -0.756647 -0.275397 0.592993
outer loop
vertex -0.046964 0.066977 0.038211
vertex -0.019944 -0.007259 0.038211
vertex -0.044793 0.067767 0.041348
endloop
endfacet
facet normal -0.756648 -0.275397 0.592992
outer loop
vertex -0.044793 0.067767 0.041348
vertex -0.019944 -0.007259 0.038211
vertex -0.017773 -0.006469 0.041348
endloop
endfacet
facet normal -0.660880 -0.240542 0.710899
outer loop
vertex -0.044793 0.067767 0.041348
vertex -0.017773 -0.006469 0.041348
vertex -0.042190 0.068714 0.044088
endloop
endfacet
facet normal -0.660881 -0.240541 0.710898
outer loop
vertex -0.042190 0.068714 0.044088
vertex -0.017773 -0.006469 0.041348
vertex -0.015170 -0.005522 0.044088
endloop
endfacet
facet normal -0.549062 -0.199842 0.811538
outer loop
vertex -0.042190 0.068714 0.044088
vertex -0.015170 -0.005522 0.044088
vertex -0.039219 0.069796 0.046365
endloop
endfacet
facet normal -0.549063 -0.199842 0.811537
outer loop
vertex -0.039219 0.069796 0.046365
vertex -0.015170 -0.005522 0.044088
vertex -0.012199 -0.004440 0.046365
endloop
endfacet
facet normal -0.423909 -0.154290 0.892466
outer loop
vertex -0.039219 0.069796 0.046365
vertex -0.012199 -0.004440 0.046365
vertex -0.035951 0.070985 0.048123
endloop
endfacet
facet normal -0.423908 -0.154290 0.892466
outer loop
vertex -0.035951 0.070985 0.048123
vertex -0.012199 -0.004440 0.046365
vertex -0.008932 -0.003251 0.048123
endloop
endfacet
facet normal -0.288458 -0.104990 0.951719
outer loop
vertex -0.035951 0.070985 0.048123
vertex -0.008932 -0.003251 0.048123
vertex -0.032467 0.072253 0.049319
endloop
endfacet
facet normal -0.288457 -0.104990 0.951719
outer loop
vertex -0.032467 0.072253 0.049319
vertex -0.008932 -0.003251 0.048123
vertex -0.005447 -0.001983 0.049319
endloop
endfacet
facet normal -0.146001 -0.053140 0.987856
outer loop
vertex -0.032467 0.072253 0.049319
vertex -0.005447 -0.001983 0.049319
vertex -0.028850 0.073569 0.049924
endloop
endfacet
facet normal -0.146004 -0.053140 0.987856
outer loop
vertex -0.028850 0.073569 0.049924
vertex -0.005447 -0.001983 0.049319
vertex -0.001831 -0.000666 0.049924
endloop
endfacet
facet normal 0.000000 0.000000 1.000000
outer loop
vertex -0.028850 0.073569 0.049924
vertex -0.001831 -0.000666 0.049924
vertex -0.025189 0.074902 0.049924
endloop
endfacet
facet normal 0.000000 0.000000 1.000000
outer loop
vertex -0.025189 0.074902 0.049924
vertex -0.001831 -0.000666 0.049924
vertex 0.001831 0.000666 0.049924
endloop
endfacet
facet normal 0.146003 0.053140 0.987856
outer loop
vertex -0.025189 0.074902 0.049924
vertex 0.001831 0.000666 0.049924
vertex -0.021572 0.076218 0.049319
endloop
endfacet
facet normal 0.146001 0.053140 0.987856
outer loop
vertex -0.021572 0.076218 0.049319
vertex 0.001831 0.000666 0.049924
vertex 0.005447 0.001983 0.049319
endloop
endfacet
facet normal 0.288459 0.104990 0.951719
outer loop
vertex -0.021572 0.076218 0.049319
vertex 0.005447 0.001983 0.049319
vertex -0.018088 0.077487 0.048123
endloop
endfacet
facet normal 0.288460 0.104990 0.951719
outer loop
vertex -0.018088 0.077487 0.048123
vertex 0.005447 0.001983 0.049319
vertex 0.008932 0.003251 0.048123
endloop
endfacet
facet normal 0.423908 0.154290 0.892467
outer loop
vertex -0.018088 0.077487 0.048123
vertex 0.008932 0.003251 0.048123
vertex -0.014820 0.078676 0.046365
endloop
endfacet
facet normal 0.423909 0.154290 0.892466
outer loop
vertex -0.014820 0.078676 0.046365
vertex 0.008932 0.003251 0.048123
vertex 0.012199 0.004440 0.046365
endloop
endfacet
facet normal 0.549062 0.199842 0.811538
outer loop
vertex -0.014820 0.078676 0.046365
vertex 0.012199 0.004440 0.046365
vertex -0.011849 0.079757 0.044088
endloop
endfacet
facet normal 0.549061 0.199843 0.811538
outer loop
vertex -0.011849 0.079757 0.044088
vertex 0.012199 0.004440 0.046365
vertex 0.015170 0.005522 0.044088
endloop
endfacet
facet normal 0.660882 0.240541 0.710897
outer loop
vertex -0.011849 0.079757 0.044088
vertex 0.015170 0.005522 0.044088
vertex -0.009246 0.080705 0.041348
endloop
endfacet
facet normal 0.660880 0.240541 0.710899
outer loop
vertex -0.009246 0.080705 0.041348
vertex 0.015170 0.005522 0.044088
vertex 0.017773 0.006469 0.041348
endloop
endfacet
facet normal 0.756648 0.275397 0.592992
outer loop
vertex -0.009246 0.080705 0.041348
vertex 0.017773 0.006469 0.041348
vertex -0.007075 0.081495 0.038211
endloop
endfacet
facet normal 0.756648 0.275397 0.592993
outer loop
vertex -0.007075 0.081495 0.038211
vertex 0.017773 0.006469 0.041348
vertex 0.019944 0.007259 0.038211
endloop
endfacet
facet normal 0.834038 0.303564 0.460684
outer loop
vertex -0.007075 0.081495 0.038211
vertex 0.019944 0.007259 0.038211
vertex -0.005389 0.082109 0.034753
endloop
endfacet
facet normal 0.834037 0.303565 0.460684
outer loop
vertex -0.005389 0.082109 0.034753
vertex 0.019944 0.007259 0.038211
vertex 0.021631 0.007873 0.034753
endloop
endfacet
facet normal 0.891169 0.324360 0.317188
outer loop
vertex -0.005389 0.082109 0.034753
vertex 0.021631 0.007873 0.034753
vertex -0.004227 0.082531 0.031058
endloop
endfacet
facet normal 0.891170 0.324359 0.317187
outer loop
vertex -0.004227 0.082531 0.031058
vertex 0.021631 0.007873 0.034753
vertex 0.022792 0.008296 0.031058
endloop
endfacet
facet normal 0.926657 0.337276 0.165986
outer loop
vertex -0.004227 0.082531 0.031058
vertex 0.022792 0.008296 0.031058
vertex -0.003620 0.082753 0.027216
endloop
endfacet
facet normal 0.926657 0.337276 0.165985
outer loop
vertex -0.003620 0.082753 0.027216
vertex 0.022792 0.008296 0.031058
vertex 0.023400 0.008517 0.027216
endloop
endfacet
facet normal 0.939638 0.342000 0.010753
outer loop
vertex -0.003620 0.082753 0.027216
vertex 0.023400 0.008517 0.027216
vertex -0.003580 0.082767 0.023320
endloop
endfacet
facet normal 0.939638 0.342000 0.010753
outer loop
vertex -0.003580 0.082767 0.023320
vertex 0.023400 0.008517 0.027216
vertex 0.023439 0.008531 0.023320
endloop
endfacet
facet normal 0.929797 0.338419 -0.144741
outer loop
vertex -0.003580 0.082767 0.023320
vertex 0.023439 0.008531 0.023320
vertex -0.004110 0.082574 0.019465
endloop
endfacet
facet normal 0.929797 0.338418 -0.144741
outer loop
vertex -0.004110 0.082574 0.019465
vertex 0.023439 0.008531 0.023320
vertex 0.022909 0.008338 0.019465
endloop
endfacet
facet normal 0.897373 0.326617 -0.296720
outer loop
vertex -0.004110 0.082574 0.019465
vertex 0.022909 0.008338 0.019465
vertex -0.005197 0.082179 0.015744
endloop
endfacet
facet normal 0.897373 0.326617 -0.296720
outer loop
vertex -0.005197 0.082179 0.015744
vertex 0.022909 0.008338 0.019465
vertex 0.021823 0.007943 0.015744
endloop
endfacet
facet normal 0.843154 0.306883 -0.441491
outer loop
vertex -0.005197 0.082179 0.015744
vertex 0.021823 0.007943 0.015744
vertex -0.006813 0.081590 0.012248
endloop
endfacet
facet normal 0.843154 0.306883 -0.441491
outer loop
vertex -0.006813 0.081590 0.012248
vertex 0.021823 0.007943 0.015744
vertex 0.020207 0.007355 0.012248
endloop
endfacet
facet normal 0.768456 0.279695 -0.575540
outer loop
vertex -0.006813 0.081590 0.012248
vertex 0.020207 0.007355 0.012248
vertex -0.008920 0.080823 0.009062
endloop
endfacet
facet normal 0.768455 0.279695 -0.575540
outer loop
vertex -0.008920 0.080823 0.009062
vertex 0.020207 0.007355 0.012248
vertex 0.018099 0.006588 0.009062
endloop
endfacet
facet normal 0.675094 0.245714 -0.695610
outer loop
vertex -0.008920 0.080823 0.009062
vertex 0.018099 0.006588 0.009062
vertex -0.011467 0.079896 0.006263
endloop
endfacet
facet normal 0.675094 0.245714 -0.695610
outer loop
vertex -0.011467 0.079896 0.006263
vertex 0.018099 0.006588 0.009062
vertex 0.015553 0.005661 0.006263
endloop
endfacet
facet normal 0.565335 0.205765 -0.798785
outer loop
vertex -0.011467 0.079896 0.006263
vertex 0.015553 0.005661 0.006263
vertex -0.014391 0.078832 0.003919
endloop
endfacet
facet normal -0.929797 -0.338419 -0.144741
outer loop
vertex -0.077478 0.139940 0.023320
vertex -0.076948 0.140133 0.019465
vertex -0.049929 0.065897 0.019465
endloop
endfacet
facet normal -0.897373 -0.326617 -0.296721
outer loop
vertex -0.049929 0.065897 0.019465
vertex -0.076948 0.140133 0.019465
vertex -0.048843 0.066293 0.015744
endloop
endfacet
facet normal -0.929797 -0.338419 -0.144739
outer loop
vertex -0.077478 0.139940 0.023320
vertex -0.049929 0.065897 0.019465
vertex -0.050459 0.065705 0.023320
endloop
endfacet
facet normal -0.939638 -0.342000 0.010752
outer loop
vertex -0.077439 0.139955 0.027216
vertex -0.077478 0.139940 0.023320
vertex -0.050459 0.065705 0.023320
endloop
endfacet
facet normal -0.939638 -0.342000 0.010754
outer loop
vertex -0.077439 0.139955 0.027216
vertex -0.050459 0.065705 0.023320
vertex -0.050419 0.065719 0.027216
endloop
endfacet
facet normal -0.926658 -0.337276 0.165985
outer loop
vertex -0.076831 0.140176 0.031058
vertex -0.077439 0.139955 0.027216
vertex -0.050419 0.065719 0.027216
endloop
endfacet
facet normal -0.926658 -0.337276 0.165983
outer loop
vertex -0.076831 0.140176 0.031058
vertex -0.050419 0.065719 0.027216
vertex -0.049812 0.065940 0.031058
endloop
endfacet
facet normal -0.891169 -0.324359 0.317188
outer loop
vertex -0.075670 0.140598 0.034753
vertex -0.076831 0.140176 0.031058
vertex -0.049812 0.065940 0.031058
endloop
endfacet
facet normal -0.891170 -0.324359 0.317186
outer loop
vertex -0.075670 0.140598 0.034753
vertex -0.049812 0.065940 0.031058
vertex -0.048650 0.066363 0.034753
endloop
endfacet
facet normal -0.834036 -0.303565 0.460687
outer loop
vertex -0.073983 0.141212 0.038211
vertex -0.075670 0.140598 0.034753
vertex -0.048650 0.066363 0.034753
endloop
endfacet
facet normal -0.834039 -0.303565 0.460682
outer loop
vertex -0.073983 0.141212 0.038211
vertex -0.048650 0.066363 0.034753
vertex -0.046964 0.066977 0.038211
endloop
endfacet
facet normal -0.756647 -0.275397 0.592993
outer loop
vertex -0.071812 0.142003 0.041348
vertex -0.073983 0.141212 0.038211
vertex -0.046964 0.066977 0.038211
endloop
endfacet
facet normal -0.756649 -0.275397 0.592992
outer loop
vertex -0.071812 0.142003 0.041348
vertex -0.046964 0.066977 0.038211
vertex -0.044793 0.067767 0.041348
endloop
endfacet
facet normal -0.660880 -0.240541 0.710899
outer loop
vertex -0.069210 0.142950 0.044088
vertex -0.071812 0.142003 0.041348
vertex -0.044793 0.067767 0.041348
endloop
endfacet
facet normal -0.660882 -0.240541 0.710897
outer loop
vertex -0.069210 0.142950 0.044088
vertex -0.044793 0.067767 0.041348
vertex -0.042190 0.068714 0.044088
endloop
endfacet
facet normal -0.549063 -0.199842 0.811537
outer loop
vertex -0.066238 0.144031 0.046365
vertex -0.069210 0.142950 0.044088
vertex -0.042190 0.068714 0.044088
endloop
endfacet
facet normal -0.549063 -0.199842 0.811538
outer loop
vertex -0.066238 0.144031 0.046365
vertex -0.042190 0.068714 0.044088
vertex -0.039219 0.069796 0.046365
endloop
endfacet
facet normal -0.423908 -0.154290 0.892467
outer loop
vertex -0.062971 0.145221 0.048123
vertex -0.066238 0.144031 0.046365
vertex -0.039219 0.069796 0.046365
endloop
endfacet
facet normal -0.423910 -0.154290 0.892466
outer loop
vertex -0.062971 0.145221 0.048123
vertex -0.039219 0.069796 0.046365
vertex -0.035951 0.070985 0.048123
endloop
endfacet
facet normal -0.288458 -0.104990 0.951719
outer loop
vertex -0.059487 0.146489 0.049319
vertex -0.062971 0.145221 0.048123
vertex -0.035951 0.070985 0.048123
endloop
endfacet
facet normal -0.288459 -0.104990 0.951719
outer loop
vertex -0.059487 0.146489 0.049319
vertex -0.035951 0.070985 0.048123
vertex -0.032467 0.072253 0.049319
endloop
endfacet
facet normal -0.146003 -0.053140 0.987856
outer loop
vertex -0.055870 0.147805 0.049924
vertex -0.059487 0.146489 0.049319
vertex -0.032467 0.072253 0.049319
endloop
endfacet
facet normal -0.146001 -0.053140 0.987856
outer loop
vertex -0.055870 0.147805 0.049924
vertex -0.032467 0.072253 0.049319
vertex -0.028850 0.073569 0.049924
endloop
endfacet
facet normal -0.000002 0.000000 1.000000
outer loop
vertex -0.052209 0.149138 0.049924
vertex -0.055870 0.147805 0.049924
vertex -0.028850 0.073569 0.049924
endloop
endfacet
facet normal 0.000001 0.000000 1.000000
outer loop
vertex -0.052209 0.149138 0.049924
vertex -0.028850 0.073569 0.049924
vertex -0.025189 0.074902 0.049924
endloop
endfacet
facet normal 0.146001 0.053140 0.987856
outer loop
vertex -0.048592 0.150454 0.049319
vertex -0.052209 0.149138 0.049924
vertex -0.025189 0.074902 0.049924
endloop
endfacet
facet normal 0.146002 0.053140 0.987856
outer loop
vertex -0.048592 0.150454 0.049319
vertex -0.025189 0.074902 0.049924
vertex -0.021572 0.076218 0.049319
endloop
endfacet
facet normal 0.288459 0.104990 0.951719
outer loop
vertex -0.045107 0.151722 0.048123
vertex -0.048592 0.150454 0.049319
vertex -0.021572 0.076218 0.049319
endloop
endfacet
facet normal 0.288458 0.104990 0.951719
outer loop
vertex -0.045107 0.151722 0.048123
vertex -0.021572 0.076218 0.049319
vertex -0.018088 0.077487 0.048123
endloop
endfacet
facet normal 0.423908 0.154290 0.892466
outer loop
vertex -0.041840 0.152912 0.046365
vertex -0.045107 0.151722 0.048123
vertex -0.018088 0.077487 0.048123
endloop
endfacet
facet normal 0.423908 0.154290 0.892467
outer loop
vertex -0.041840 0.152912 0.046365
vertex -0.018088 0.077487 0.048123
vertex -0.014820 0.078676 0.046365
endloop
endfacet
facet normal 0.549063 0.199843 0.811537
outer loop
vertex -0.038869 0.153993 0.044088
vertex -0.041840 0.152912 0.046365
vertex -0.014820 0.078676 0.046365
endloop
endfacet
facet normal 0.549061 0.199842 0.811538
outer loop
vertex -0.038869 0.153993 0.044088
vertex -0.014820 0.078676 0.046365
vertex -0.011849 0.079757 0.044088
endloop
endfacet
facet normal 0.660882 0.240542 0.710897
outer loop
vertex -0.036266 0.154940 0.041348
vertex -0.038869 0.153993 0.044088
vertex -0.011849 0.079757 0.044088
endloop
endfacet
facet normal 0.660881 0.240541 0.710898
outer loop
vertex -0.036266 0.154940 0.041348
vertex -0.011849 0.079757 0.044088
vertex -0.009246 0.080705 0.041348
endloop
endfacet
facet normal 0.756647 0.275397 0.592994
outer loop
vertex -0.034095 0.155731 0.038211
vertex -0.036266 0.154940 0.041348
vertex -0.009246 0.080705 0.041348
endloop
endfacet
facet normal 0.756648 0.275397 0.592993
outer loop
vertex -0.034095 0.155731 0.038211
vertex -0.009246 0.080705 0.041348
vertex -0.007075 0.081495 0.038211
endloop
endfacet
facet normal 0.834038 0.303565 0.460683
outer loop
vertex -0.032408 0.156344 0.034753
vertex -0.034095 0.155731 0.038211
vertex -0.007075 0.081495 0.038211
endloop
endfacet
facet normal 0.834037 0.303565 0.460685
outer loop
vertex -0.032408 0.156344 0.034753
vertex -0.007075 0.081495 0.038211
vertex -0.005389 0.082109 0.034753
endloop
endfacet
facet normal 0.891170 0.324360 0.317187
outer loop
vertex -0.031247 0.156767 0.031058
vertex -0.032408 0.156344 0.034753
vertex -0.005389 0.082109 0.034753
endloop
endfacet
facet normal 0.891170 0.324359 0.317188
outer loop
vertex -0.031247 0.156767 0.031058
vertex -0.005389 0.082109 0.034753
vertex -0.004227 0.082531 0.031058
endloop
endfacet
facet normal 0.926657 0.337276 0.165986
outer loop
vertex -0.030639 0.156988 0.027216
vertex -0.031247 0.156767 0.031058
vertex -0.004227 0.082531 0.031058
endloop
endfacet
facet normal 0.926658 0.337276 0.165984
outer loop
vertex -0.030639 0.156988 0.027216
vertex -0.004227 0.082531 0.031058
vertex -0.003620 0.082753 0.027216
endloop
endfacet
facet normal 0.939638 0.342001 0.010754
outer loop
vertex -0.030600 0.157003 0.023320
vertex -0.030639 0.156988 0.027216
vertex -0.003620 0.082753 0.027216
endloop
endfacet
facet normal 0.939638 0.342000 0.010753
outer loop
vertex -0.030600 0.157003 0.023320
vertex -0.003620 0.082753 0.027216
vertex -0.003580 0.082767 0.023320
endloop
endfacet
facet normal 0.929797 0.338419 -0.144743
outer loop
vertex -0.031130 0.156810 0.019465
vertex -0.030600 0.157003 0.023320
vertex -0.003580 0.082767 0.023320
endloop
endfacet
facet normal 0.929797 0.338418 -0.144740
outer loop
vertex -0.031130 0.156810 0.019465
vertex -0.003580 0.082767 0.023320
vertex -0.004110 0.082574 0.019465
endloop
endfacet
facet normal 0.897373 0.326617 -0.296720
outer loop
vertex -0.032216 0.156414 0.015744
vertex -0.031130 0.156810 0.019465
vertex -0.004110 0.082574 0.019465
endloop
endfacet
facet normal 0.897373 0.326617 -0.296719
outer loop
vertex -0.032216 0.156414 0.015744
vertex -0.004110 0.082574 0.019465
vertex -0.005197 0.082179 0.015744
endloop
endfacet
facet normal 0.843154 0.306883 -0.441491
outer loop
vertex -0.033833 0.155826 0.012248
vertex -0.032216 0.156414 0.015744
vertex -0.005197 0.082179 0.015744
endloop
endfacet
facet normal 0.843154 0.306883 -0.441491
outer loop
vertex -0.033833 0.155826 0.012248
vertex -0.005197 0.082179 0.015744
vertex -0.006813 0.081590 0.012248
endloop
endfacet
facet normal 0.768456 0.279695 -0.575540
outer loop
vertex -0.035940 0.155059 0.009062
vertex -0.033833 0.155826 0.012248
vertex -0.006813 0.081590 0.012248
endloop
endfacet
facet normal 0.768456 0.279695 -0.575540
outer loop
vertex -0.035940 0.155059 0.009062
vertex -0.006813 0.081590 0.012248
vertex -0.008920 0.080823 0.009062
endloop
endfacet
facet normal 0.675093 0.245714 -0.695611
outer loop
vertex -0.038487 0.154132 0.006263
vertex -0.035940 0.155059 0.009062
vertex -0.008920 0.080823 0.009062
endloop
endfacet
facet normal 0.675094 0.245714 -0.695610
outer loop
vertex -0.038487 0.154132 0.006263
vertex -0.008920 0.080823 0.009062
vertex -0.011467 0.079896 0.006263
endloop
endfacet
facet normal 0.565335 0.205765 -0.798785
outer loop
vertex -0.041411 0.153068 0.003919
vertex -0.038487 0.154132 0.006263
vertex -0.011467 0.079896 0.006263
endloop
endfacet
facet normal 0.565334 0.205765 -0.798785
outer loop
vertex -0.041411 0.153068 0.003919
vertex -0.011467 0.079896 0.006263
vertex -0.014391 0.078832 0.003919
endloop
endfacet
facet normal -0.939693 -0.342020 0.000000
outer loop
vertex 0.071662 -0.226127 0.000000
vertex 0.071662 -0.226127 0.002087
vertex -0.090456 0.219287 0.000000
endloop
endfacet
facet normal -0.939693 -0.342020 0.000000
outer loop
vertex -0.090456 0.219287 0.000000
vertex 0.071662 -0.226127 0.002087
vertex -0.090456 0.219287 0.002087
endloop
endfacet
facet normal -0.342021 0.939692 0.000000
outer loop
vertex -0.090456 0.219287 0.000000
vertex -0.090456 0.219287 0.002087
vertex -0.071662 0.226127 0.000000
endloop
endfacet
facet normal -0.342020 0.939693 0.000000
outer loop
vertex -0.071662 0.226127 0.000000
vertex -0.090456 0.219287 0.002087
vertex -0.071662 0.226127 0.002087
endloop
endfacet
facet normal -0.342020 0.939693 0.000000
outer loop
vertex -0.071662 0.226127 0.002087
vertex -0.090456 0.219287 0.002087
vertex -0.068517 0.227272 0.003861
endloop
endfacet
facet normal -0.342021 0.939692 -0.000020
outer loop
vertex -0.068517 0.227272 0.003861
vertex -0.090456 0.219287 0.002087
vertex -0.065659 0.228312 0.006120
endloop
endfacet
facet normal -0.342021 0.939692 0.000015
outer loop
vertex -0.065659 0.228312 0.006120
vertex -0.090456 0.219287 0.002087
vertex -0.063156 0.229223 0.008813
endloop
endfacet
facet normal -0.342019 0.939693 0.000000
outer loop
vertex -0.063156 0.229223 0.008813
vertex -0.090456 0.219287 0.002087
vertex -0.061063 0.229985 0.011878
endloop
endfacet
facet normal -0.342021 0.939692 0.000011
outer loop
vertex -0.061063 0.229985 0.011878
vertex -0.090456 0.219287 0.002087
vertex -0.059429 0.230580 0.015243
endloop
endfacet
facet normal -0.342019 0.939693 -0.000009
outer loop
vertex -0.059429 0.230580 0.015243
vertex -0.090456 0.219287 0.002087
vertex -0.058292 0.230993 0.018833
endloop
endfacet
facet normal -0.342021 0.939692 -0.000008
outer loop
vertex -0.058292 0.230993 0.018833
vertex -0.090456 0.219287 0.002087
vertex -0.057678 0.231217 0.022564
endloop
endfacet
facet normal -0.342021 0.939692 0.000014
outer loop
vertex -0.057678 0.231217 0.022564
vertex -0.090456 0.219287 0.002087
vertex -0.057601 0.231245 0.026352
endloop
endfacet
facet normal -0.342017 0.939694 0.000000
outer loop
vertex -0.057601 0.231245 0.026352
vertex -0.090456 0.219287 0.002087
vertex -0.058062 0.231077 0.030108
endloop
endfacet
facet normal -0.342022 0.939692 -0.000012
outer loop
vertex -0.058062 0.231077 0.030108
vertex -0.090456 0.219287 0.002087
vertex -0.059051 0.230717 0.033747
endloop
endfacet
facet normal -0.342021 0.939692 0.000000
outer loop
vertex -0.059051 0.230717 0.033747
vertex -0.090456 0.219287 0.002087
vertex -0.060546 0.230173 0.037185
endloop
endfacet
facet normal -0.342017 0.939694 0.000000
outer loop
vertex -0.060546 0.230173 0.037185
vertex -0.090456 0.219287 0.002087
vertex -0.062511 0.229458 0.040343
endloop
endfacet
facet normal -0.342022 0.939692 0.000005
outer loop
vertex -0.062511 0.229458 0.040343
vertex -0.090456 0.219287 0.002087
vertex -0.064902 0.228588 0.043149
endloop
endfacet
facet normal -0.342019 0.939693 0.000000
outer loop
vertex -0.064902 0.228588 0.043149
vertex -0.090456 0.219287 0.002087
vertex -0.067665 0.227582 0.045539
endloop
endfacet
facet normal -0.342021 0.939692 0.000000
outer loop
vertex -0.067665 0.227582 0.045539
vertex -0.090456 0.219287 0.002087
vertex -0.070735 0.226465 0.047456
endloop
endfacet
facet normal -0.342019 0.939693 -0.000005
outer loop
vertex -0.070735 0.226465 0.047456
vertex -0.090456 0.219287 0.002087
vertex -0.074041 0.225261 0.048859
endloop
endfacet
facet normal -0.342019 0.939693 0.000004
outer loop
vertex -0.074041 0.225261 0.048859
vertex -0.090456 0.219287 0.002087
vertex -0.093601 0.218142 0.003861
endloop
endfacet
facet normal -0.342022 0.939692 -0.000005
outer loop
vertex -0.074041 0.225261 0.048859
vertex -0.093601 0.218142 0.003861
vertex -0.096458 0.217102 0.006120
endloop
endfacet
facet normal -0.342016 0.939694 0.000005
outer loop
vertex -0.096458 0.217102 0.006120
vertex -0.098962 0.216191 0.008813
vertex -0.074041 0.225261 0.048859
endloop
endfacet
facet normal -0.342023 0.939692 -0.000001
outer loop
vertex -0.074041 0.225261 0.048859
vertex -0.098962 0.216191 0.008813
vertex -0.101055 0.215429 0.011878
endloop
endfacet
facet normal -0.342018 0.939693 -0.000006
outer loop
vertex -0.074041 0.225261 0.048859
vertex -0.101055 0.215429 0.011878
vertex -0.102688 0.214835 0.015243
endloop
endfacet
facet normal -0.342021 0.939692 0.000000
outer loop
vertex -0.102688 0.214835 0.015243
vertex -0.103825 0.214421 0.018833
vertex -0.074041 0.225261 0.048859
endloop
endfacet
facet normal -0.342020 0.939693 0.000005
outer loop
vertex -0.074041 0.225261 0.048859
vertex -0.103825 0.214421 0.018833
vertex -0.104439 0.214197 0.022564
endloop
endfacet
facet normal -0.342020 0.939693 -0.000004
outer loop
vertex -0.074041 0.225261 0.048859
vertex -0.104439 0.214197 0.022564
vertex -0.104517 0.214169 0.026352
endloop
endfacet
facet normal -0.342022 0.939692 0.000000
outer loop
vertex -0.104517 0.214169 0.026352
vertex -0.104056 0.214337 0.030108
vertex -0.074041 0.225261 0.048859
endloop
endfacet
facet normal -0.342019 0.939693 0.000000
outer loop
vertex -0.074041 0.225261 0.048859
vertex -0.104056 0.214337 0.030108
vertex -0.077509 0.223999 0.049713
endloop
endfacet
facet normal -0.342020 0.939693 0.000005
outer loop
vertex -0.077509 0.223999 0.049713
vertex -0.104056 0.214337 0.030108
vertex -0.103066 0.214697 0.033747
endloop
endfacet
facet normal -0.342019 0.939693 -0.000007
outer loop
vertex -0.077509 0.223999 0.049713
vertex -0.103066 0.214697 0.033747
vertex -0.101572 0.215241 0.037185
endloop
endfacet
facet normal -0.342022 0.939692 0.000000
outer loop
vertex -0.101572 0.215241 0.037185
vertex -0.099606 0.215956 0.040343
vertex -0.077509 0.223999 0.049713
endloop
endfacet
facet normal -0.342019 0.939693 0.000006
outer loop
vertex -0.077509 0.223999 0.049713
vertex -0.099606 0.215956 0.040343
vertex -0.097215 0.216827 0.043149
endloop
endfacet
facet normal -0.342020 0.939693 -0.000015
outer loop
vertex -0.077509 0.223999 0.049713
vertex -0.097215 0.216827 0.043149
vertex -0.094453 0.217832 0.045539
endloop
endfacet
facet normal -0.342019 0.939693 0.000000
outer loop
vertex -0.094453 0.217832 0.045539
vertex -0.091383 0.218949 0.047456
vertex -0.077509 0.223999 0.049713
endloop
endfacet
facet normal -0.342023 0.939691 0.000027
outer loop
vertex -0.077509 0.223999 0.049713
vertex -0.091383 0.218949 0.047456
vertex -0.088076 0.220153 0.048859
endloop
endfacet
facet normal -0.342019 0.939693 -0.000018
outer loop
vertex -0.077509 0.223999 0.049713
vertex -0.088076 0.220153 0.048859
vertex -0.084608 0.221415 0.049713
endloop
endfacet
facet normal -0.342023 0.939691 0.000054
outer loop
vertex -0.084608 0.221415 0.049713
vertex -0.081059 0.222707 0.050000
vertex -0.077509 0.223999 0.049713
endloop
endfacet
facet normal 0.342020 -0.939693 0.000000
outer loop
vertex 0.071662 -0.226127 0.000000
vertex 0.090456 -0.219287 0.000000
vertex 0.071662 -0.226127 0.002087
endloop
endfacet
facet normal 0.342021 -0.939692 0.000000
outer loop
vertex 0.071662 -0.226127 0.002087
vertex 0.090456 -0.219287 0.000000
vertex 0.090456 -0.219287 0.002087
endloop
endfacet
facet normal 0.342020 -0.939692 0.000003
outer loop
vertex 0.071662 -0.226127 0.002087
vertex 0.090456 -0.219287 0.002087
vertex 0.093601 -0.218142 0.003861
endloop
endfacet
facet normal 0.342021 -0.939692 0.000020
outer loop
vertex 0.093601 -0.218142 0.003861
vertex 0.096458 -0.217102 0.006120
vertex 0.071662 -0.226127 0.002087
endloop
endfacet
facet normal 0.342021 -0.939692 -0.000015
outer loop
vertex 0.071662 -0.226127 0.002087
vertex 0.096458 -0.217102 0.006120
vertex 0.098962 -0.216191 0.008813
endloop
endfacet
facet normal 0.342019 -0.939693 -0.000003
outer loop
vertex 0.071662 -0.226127 0.002087
vertex 0.098962 -0.216191 0.008813
vertex 0.101055 -0.215429 0.011878
endloop
endfacet
facet normal 0.342021 -0.939692 0.000000
outer loop
vertex 0.101055 -0.215429 0.011878
vertex 0.102688 -0.214835 0.015243
vertex 0.071662 -0.226127 0.002087
endloop
endfacet
facet normal 0.342019 -0.939693 0.000009
outer loop
vertex 0.071662 -0.226127 0.002087
vertex 0.102688 -0.214835 0.015243
vertex 0.103825 -0.214421 0.018833
endloop
endfacet
facet normal 0.342021 -0.939692 0.000005
outer loop
vertex 0.071662 -0.226127 0.002087
vertex 0.103825 -0.214421 0.018833
vertex 0.104439 -0.214197 0.022564
endloop
endfacet
facet normal 0.342021 -0.939692 -0.000014
outer loop
vertex 0.104439 -0.214197 0.022564
vertex 0.104517 -0.214169 0.026352
vertex 0.071662 -0.226127 0.002087
endloop
endfacet
facet normal 0.342018 -0.939693 0.000001
outer loop
vertex 0.071662 -0.226127 0.002087
vertex 0.104517 -0.214169 0.026352
vertex 0.104056 -0.214337 0.030108
endloop
endfacet
facet normal 0.342021 -0.939692 0.000003
outer loop
vertex 0.071662 -0.226127 0.002087
vertex 0.104056 -0.214337 0.030108
vertex 0.103066 -0.214697 0.033747
endloop
endfacet
facet normal 0.342020 -0.939693 0.000006
outer loop
vertex 0.103066 -0.214697 0.033747
vertex 0.101572 -0.215241 0.037185
vertex 0.071662 -0.226127 0.002087
endloop
endfacet
facet normal 0.342020 -0.939693 -0.000005
outer loop
vertex 0.071662 -0.226127 0.002087
vertex 0.101572 -0.215241 0.037185
vertex 0.099606 -0.215956 0.040343
endloop
endfacet
facet normal 0.342021 -0.939692 0.000002
outer loop
vertex 0.071662 -0.226127 0.002087
vertex 0.099606 -0.215956 0.040343
vertex 0.097215 -0.216827 0.043149
endloop
endfacet
facet normal 0.342019 -0.939693 0.000000
outer loop
vertex 0.097215 -0.216827 0.043149
vertex 0.094453 -0.217832 0.045539
vertex 0.071662 -0.226127 0.002087
endloop
endfacet
facet normal 0.342022 -0.939692 -0.000002
outer loop
vertex 0.071662 -0.226127 0.002087
vertex 0.094453 -0.217832 0.045539
vertex 0.091383 -0.218949 0.047456
endloop
endfacet
facet normal 0.342018 -0.939694 0.000003
outer loop
vertex 0.071662 -0.226127 0.002087
vertex 0.091383 -0.218949 0.047456
vertex 0.088076 -0.220153 0.048859
endloop
endfacet
facet normal 0.342019 -0.939693 0.000010
outer loop
vertex 0.084608 -0.221415 0.049713
vertex 0.058062 -0.231077 0.030108
vertex 0.088076 -0.220153 0.048859
endloop
endfacet
facet normal 0.342022 -0.939692 -0.000003
outer loop
vertex 0.088076 -0.220153 0.048859
vertex 0.058062 -0.231077 0.030108
vertex 0.057601 -0.231245 0.026352
endloop
endfacet
facet normal 0.342019 -0.939693 0.000001
outer loop
vertex 0.088076 -0.220153 0.048859
vertex 0.057601 -0.231245 0.026352
vertex 0.057678 -0.231217 0.022564
endloop
endfacet
facet normal 0.342023 -0.939691 0.000000
outer loop
vertex 0.081059 -0.222707 0.050000
vertex 0.077509 -0.223999 0.049713
vertex 0.084608 -0.221415 0.049713
endloop
endfacet
facet normal 0.342018 -0.939693 0.000018
outer loop
vertex 0.084608 -0.221415 0.049713
vertex 0.077509 -0.223999 0.049713
vertex 0.074041 -0.225261 0.048859
endloop
endfacet
facet normal 0.342023 -0.939691 -0.000018
outer loop
vertex 0.084608 -0.221415 0.049713
vertex 0.074041 -0.225261 0.048859
vertex 0.070735 -0.226465 0.047456
endloop
endfacet
facet normal 0.342020 -0.939693 0.000000
outer loop
vertex 0.070735 -0.226465 0.047456
vertex 0.067665 -0.227582 0.045539
vertex 0.084608 -0.221415 0.049713
endloop
endfacet
facet normal 0.342020 -0.939693 -0.000008
outer loop
vertex 0.084608 -0.221415 0.049713
vertex 0.067665 -0.227582 0.045539
vertex 0.064902 -0.228588 0.043149
endloop
endfacet
facet normal 0.342019 -0.939693 0.000000
outer loop
vertex 0.084608 -0.221415 0.049713
vertex 0.064902 -0.228588 0.043149
vertex 0.062511 -0.229458 0.040343
endloop
endfacet
facet normal 0.342021 -0.939692 0.000000
outer loop
vertex 0.062511 -0.229458 0.040343
vertex 0.060546 -0.230173 0.037185
vertex 0.084608 -0.221415 0.049713
endloop
endfacet
facet normal 0.342020 -0.939693 0.000006
outer loop
vertex 0.084608 -0.221415 0.049713
vertex 0.060546 -0.230173 0.037185
vertex 0.059051 -0.230717 0.033747
endloop
endfacet
facet normal 0.342020 -0.939693 -0.000007
outer loop
vertex 0.084608 -0.221415 0.049713
vertex 0.059051 -0.230717 0.033747
vertex 0.058062 -0.231077 0.030108
endloop
endfacet
facet normal 0.342021 -0.939692 -0.000007
outer loop
vertex 0.057678 -0.231217 0.022564
vertex 0.058292 -0.230993 0.018833
vertex 0.088076 -0.220153 0.048859
endloop
endfacet
facet normal 0.342021 -0.939692 0.000007
outer loop
vertex 0.088076 -0.220153 0.048859
vertex 0.058292 -0.230993 0.018833
vertex 0.059429 -0.230580 0.015243
endloop
endfacet
facet normal 0.342019 -0.939693 -0.000001
outer loop
vertex 0.088076 -0.220153 0.048859
vertex 0.059429 -0.230580 0.015243
vertex 0.061063 -0.229985 0.011878
endloop
endfacet
facet normal 0.342022 -0.939692 0.000005
outer loop
vertex 0.061063 -0.229985 0.011878
vertex 0.063156 -0.229223 0.008813
vertex 0.088076 -0.220153 0.048859
endloop
endfacet
facet normal 0.342018 -0.939694 -0.000007
outer loop
vertex 0.088076 -0.220153 0.048859
vertex 0.063156 -0.229223 0.008813
vertex 0.065659 -0.228312 0.006120
endloop
endfacet
facet normal 0.342019 -0.939693 0.000006
outer loop
vertex 0.088076 -0.220153 0.048859
vertex 0.065659 -0.228312 0.006120
vertex 0.068517 -0.227272 0.003861
endloop
endfacet
facet normal 0.342021 -0.939692 -0.000005
outer loop
vertex 0.068517 -0.227272 0.003861
vertex 0.071662 -0.226127 0.002087
vertex 0.088076 -0.220153 0.048859
endloop
endfacet
solid cylinder
