solid cylinder
facet normal 0.000000 0.000000 -1.000000
outer loop
vertex 0.090456 -0.219287 0.000000
vertex 0.071662 -0.226127 0.000000
vertex -0.071662 0.226127 0.000000
endloop
endfacet
facet normal 0.000000 0.000000 -1.000000
outer loop
vertex -0.071662 0.226127 0.000000
vertex 0.071662 -0.226127 0.000000
vertex -0.090456 0.219287 0.000000
endloop
endfacet
facet normal 0.939693 0.342020 0.000000
outer loop
vertex 0.090456 -0.219287 0.002087
vertex 0.090456 -0.219287 0.000000
vertex -0.071662 0.226127 0.002087
endloop
endfacet
facet normal 0.939693 0.342020 0.000000
outer loop
vertex -0.071662 0.226127 0.002087
vertex 0.090456 -0.219287 0.000000
vertex -0.071662 0.226127 0.000000
endloop
endfacet
facet normal -0.440083 -0.160063 -0.883576
outer loop
vertex 0.068517 -0.227272 0.003861
vertex 0.041411 -0.153068 0.003919
vertex 0.071662 -0.226127 0.002087
endloop
endfacet
facet normal -0.441848 -0.160819 -0.882558
outer loop
vertex 0.071662 -0.226127 0.002087
vertex 0.041411 -0.153068 0.003919
vertex 0.014391 -0.078832 0.003919
endloop
endfacet
facet normal -0.441843 -0.160818 -0.882560
outer loop
vertex 0.071662 -0.226127 0.002087
vertex 0.014391 -0.078832 0.003919
vertex -0.012628 -0.004596 0.003919
endloop
endfacet
facet normal -0.565334 -0.205765 -0.798785
outer loop
vertex -0.012628 -0.004596 0.003919
vertex 0.014391 -0.078832 0.003919
vertex -0.015553 -0.005661 0.006263
endloop
endfacet
facet normal -0.565334 -0.205765 -0.798785
outer loop
vertex -0.012628 -0.004596 0.003919
vertex -0.015553 -0.005661 0.006263
vertex -0.042572 0.068575 0.006263
endloop
endfacet
facet normal -0.675094 -0.245714 -0.695610
outer loop
vertex -0.042572 0.068575 0.006263
vertex -0.015553 -0.005661 0.006263
vertex -0.045119 0.067648 0.009062
endloop
endfacet
facet normal -0.675094 -0.245714 -0.695610
outer loop
vertex -0.042572 0.068575 0.006263
vertex -0.045119 0.067648 0.009062
vertex -0.072139 0.141884 0.009062
endloop
endfacet
facet normal -0.768455 -0.279695 -0.575541
outer loop
vertex -0.072139 0.141884 0.009062
vertex -0.045119 0.067648 0.009062
vertex -0.074246 0.141117 0.012248
endloop
endfacet
facet normal -0.768325 -0.280052 -0.575541
outer loop
vertex -0.072139 0.141884 0.009062
vertex -0.074246 0.141117 0.012248
vertex -0.101055 0.215429 0.011878
endloop
endfacet
facet normal -0.835030 -0.303534 -0.458903
outer loop
vertex -0.101055 0.215429 0.011878
vertex -0.074246 0.141117 0.012248
vertex -0.102688 0.214835 0.015243
endloop
endfacet
facet normal -0.842998 -0.307316 -0.441489
outer loop
vertex -0.102688 0.214835 0.015243
vertex -0.074246 0.141117 0.012248
vertex -0.075862 0.140529 0.015744
endloop
endfacet
facet normal -0.890625 -0.323687 -0.319396
outer loop
vertex -0.102688 0.214835 0.015243
vertex -0.075862 0.140529 0.015744
vertex -0.103825 0.214421 0.018833
endloop
endfacet
facet normal -0.897191 -0.327120 -0.296718
outer loop
vertex -0.103825 0.214421 0.018833
vertex -0.075862 0.140529 0.015744
vertex -0.076948 0.140133 0.019465
endloop
endfacet
facet normal -0.925775 -0.336405 -0.172548
outer loop
vertex -0.103825 0.214421 0.018833
vertex -0.076948 0.140133 0.019465
vertex -0.104439 0.214197 0.022564
endloop
endfacet
facet normal -0.929591 -0.338985 -0.144742
outer loop
vertex -0.104439 0.214197 0.022564
vertex -0.076948 0.140133 0.019465
vertex -0.077478 0.139940 0.023320
endloop
endfacet
facet normal -0.939669 -0.341392 -0.021747
outer loop
vertex -0.104439 0.214197 0.022564
vertex -0.077478 0.139940 0.023320
vertex -0.104517 0.214169 0.026352
endloop
endfacet
facet normal -0.939411 -0.342625 0.010754
outer loop
vertex -0.104517 0.214169 0.026352
vertex -0.077478 0.139940 0.023320
vertex -0.077439 0.139955 0.027216
endloop
endfacet
facet normal -0.931992 -0.338535 0.129558
outer loop
vertex -0.104517 0.214169 0.026352
vertex -0.077439 0.139955 0.027216
vertex -0.104056 0.214337 0.030108
endloop
endfacet
facet normal -0.926410 -0.337953 0.165986
outer loop
vertex -0.104056 0.214337 0.030108
vertex -0.077439 0.139955 0.027216
vertex -0.076831 0.140176 0.031058
endloop
endfacet
facet normal -0.902920 -0.327897 0.277885
outer loop
vertex -0.104056 0.214337 0.030108
vertex -0.076831 0.140176 0.031058
vertex -0.103066 0.214697 0.033747
endloop
endfacet
facet normal -0.890906 -0.325084 0.317187
outer loop
vertex -0.103066 0.214697 0.033747
vertex -0.076831 0.140176 0.031058
vertex -0.075670 0.140598 0.034753
endloop
endfacet
facet normal -0.853119 -0.309720 0.419835
outer loop
vertex -0.103066 0.214697 0.033747
vertex -0.075670 0.140598 0.034753
vertex -0.101572 0.215241 0.037185
endloop
endfacet
facet normal -0.833757 -0.304332 0.460685
outer loop
vertex -0.101572 0.215241 0.037185
vertex -0.075670 0.140598 0.034753
vertex -0.073983 0.141212 0.038211
endloop
endfacet
facet normal -0.783738 -0.284422 0.552140
outer loop
vertex -0.101572 0.215241 0.037185
vertex -0.073983 0.141212 0.038211
vertex -0.099606 0.215956 0.040343
endloop
endfacet
facet normal -0.756354 -0.276201 0.592994
outer loop
vertex -0.099606 0.215956 0.040343
vertex -0.073983 0.141212 0.038211
vertex -0.071812 0.142003 0.041348
endloop
endfacet
facet normal -0.696358 -0.252582 0.671780
outer loop
vertex -0.099606 0.215956 0.040343
vertex -0.071812 0.142003 0.041348
vertex -0.097215 0.216827 0.043149
endloop
endfacet
facet normal -0.660576 -0.241375 0.710898
outer loop
vertex -0.097215 0.216827 0.043149
vertex -0.071812 0.142003 0.041348
vertex -0.069210 0.142950 0.044088
endloop
endfacet
facet normal -0.593001 -0.214931 0.775986
outer loop
vertex -0.085077 0.190020 0.045000
vertex -0.095075 0.217606 0.045000
vertex -0.097215 0.216827 0.043149
endloop
endfacet
facet normal -0.593001 -0.214930 0.775986
outer loop
vertex -0.085077 0.190020 0.045000
vertex -0.097215 0.216827 0.043149
vertex -0.069210 0.142950 0.044088
endloop
endfacet
facet normal -0.548750 -0.200703 0.811537
outer loop
vertex -0.085077 0.190020 0.045000
vertex -0.069210 0.142950 0.044088
vertex -0.068020 0.143383 0.045000
endloop
endfacet
facet normal 0.549367 0.198981 0.811544
outer loop
vertex -0.056969 0.200250 0.045000
vertex -0.040058 0.153560 0.045000
vertex -0.038869 0.153993 0.044088
endloop
endfacet
facet normal 0.592422 0.216528 0.775984
outer loop
vertex -0.056969 0.200250 0.045000
vertex -0.038869 0.153993 0.044088
vertex -0.064902 0.228588 0.043149
endloop
endfacet
facet normal 0.592420 0.216527 0.775986
outer loop
vertex -0.056969 0.200250 0.045000
vertex -0.064902 0.228588 0.043149
vertex -0.067042 0.227809 0.045000
endloop
endfacet
facet normal 0.661184 0.239706 0.710899
outer loop
vertex -0.064902 0.228588 0.043149
vertex -0.038869 0.153993 0.044088
vertex -0.036266 0.154940 0.041348
endloop
endfacet
facet normal 0.695797 0.254122 0.671780
outer loop
vertex -0.064902 0.228588 0.043149
vertex -0.036266 0.154940 0.041348
vertex -0.062511 0.229458 0.040343
endloop
endfacet
facet normal 0.756941 0.274593 0.592991
outer loop
vertex -0.062511 0.229458 0.040343
vertex -0.036266 0.154940 0.041348
vertex -0.034095 0.155731 0.038211
endloop
endfacet
facet normal 0.783199 0.285895 0.552144
outer loop
vertex -0.062511 0.229458 0.040343
vertex -0.034095 0.155731 0.038211
vertex -0.060546 0.230173 0.037185
endloop
endfacet
facet normal 0.834315 0.302797 0.460687
outer loop
vertex -0.060546 0.230173 0.037185
vertex -0.034095 0.155731 0.038211
vertex -0.032408 0.156344 0.034753
endloop
endfacet
facet normal 0.852611 0.311115 0.419835
outer loop
vertex -0.060546 0.230173 0.037185
vertex -0.032408 0.156344 0.034753
vertex -0.059051 0.230717 0.033747
endloop
endfacet
facet normal 0.891433 0.323634 0.317188
outer loop
vertex -0.059051 0.230717 0.033747
vertex -0.032408 0.156344 0.034753
vertex -0.031247 0.156767 0.031058
endloop
endfacet
facet normal 0.902444 0.329202 0.277888
outer loop
vertex -0.059051 0.230717 0.033747
vertex -0.031247 0.156767 0.031058
vertex -0.058062 0.231077 0.030108
endloop
endfacet
facet normal 0.926904 0.336598 0.165985
outer loop
vertex -0.058062 0.231077 0.030108
vertex -0.031247 0.156767 0.031058
vertex -0.030639 0.156988 0.027216
endloop
endfacet
facet normal 0.931554 0.339740 0.129555
outer loop
vertex -0.058062 0.231077 0.030108
vertex -0.030639 0.156988 0.027216
vertex -0.057601 0.231245 0.026352
endloop
endfacet
facet normal 0.939866 0.341375 0.010754
outer loop
vertex -0.057601 0.231245 0.026352
vertex -0.030639 0.156988 0.027216
vertex -0.030600 0.157003 0.023320
endloop
endfacet
facet normal 0.939271 0.342486 -0.021744
outer loop
vertex -0.057601 0.231245 0.026352
vertex -0.030600 0.157003 0.023320
vertex -0.057678 0.231217 0.022564
endloop
endfacet
facet normal 0.930003 0.337851 -0.144741
outer loop
vertex -0.057678 0.231217 0.022564
vertex -0.030600 0.157003 0.023320
vertex -0.031130 0.156810 0.019465
endloop
endfacet
facet normal 0.925421 0.337376 -0.172551
outer loop
vertex -0.057678 0.231217 0.022564
vertex -0.031130 0.156810 0.019465
vertex -0.058292 0.230993 0.018833
endloop
endfacet
facet normal 0.897557 0.326115 -0.296717
outer loop
vertex -0.058292 0.230993 0.018833
vertex -0.031130 0.156810 0.019465
vertex -0.032216 0.156414 0.015744
endloop
endfacet
facet normal 0.890321 0.324524 -0.319393
outer loop
vertex -0.058292 0.230993 0.018833
vertex -0.032216 0.156414 0.015744
vertex -0.059429 0.230580 0.015243
endloop
endfacet
facet normal 0.843311 0.306450 -0.441491
outer loop
vertex -0.059429 0.230580 0.015243
vertex -0.032216 0.156414 0.015744
vertex -0.033833 0.155826 0.012248
endloop
endfacet
facet normal 0.834778 0.304226 -0.458903
outer loop
vertex -0.059429 0.230580 0.015243
vertex -0.033833 0.155826 0.012248
vertex -0.061063 0.229985 0.011878
endloop
endfacet
facet normal 0.768586 0.279338 -0.575540
outer loop
vertex -0.061063 0.229985 0.011878
vertex -0.033833 0.155826 0.012248
vertex -0.035940 0.155059 0.009062
endloop
endfacet
facet normal 0.760068 0.276945 -0.587876
outer loop
vertex -0.061063 0.229985 0.011878
vertex -0.035940 0.155059 0.009062
vertex -0.063156 0.229223 0.008813
endloop
endfacet
facet normal 0.675193 0.245438 -0.695611
outer loop
vertex -0.063156 0.229223 0.008813
vertex -0.035940 0.155059 0.009062
vertex -0.038487 0.154132 0.006263
endloop
endfacet
facet normal 0.667904 0.243306 -0.703354
outer loop
vertex -0.063156 0.229223 0.008813
vertex -0.038487 0.154132 0.006263
vertex -0.065659 0.228312 0.006120
endloop
endfacet
facet normal 0.565403 0.205575 -0.798786
outer loop
vertex -0.065659 0.228312 0.006120
vertex -0.038487 0.154132 0.006263
vertex -0.041411 0.153068 0.003919
endloop
endfacet
facet normal 0.560412 0.204080 -0.802677
outer loop
vertex -0.065659 0.228312 0.006120
vertex -0.041411 0.153068 0.003919
vertex -0.068517 0.227272 0.003861
endloop
endfacet
facet normal 0.440083 0.160063 -0.883576
outer loop
vertex -0.068517 0.227272 0.003861
vertex -0.041411 0.153068 0.003919
vertex -0.071662 0.226127 0.002087
endloop
endfacet
facet normal 0.441846 0.160819 -0.882559
outer loop
vertex -0.071662 0.226127 0.002087
vertex -0.041411 0.153068 0.003919
vertex -0.014391 0.078832 0.003919
endloop
endfacet
facet normal 0.441845 0.160818 -0.882559
outer loop
vertex -0.071662 0.226127 0.002087
vertex -0.014391 0.078832 0.003919
vertex 0.012628 0.004596 0.003919
endloop
endfacet
facet normal 0.565334 0.205765 -0.798785
outer loop
vertex 0.012628 0.004596 0.003919
vertex -0.014391 0.078832 0.003919
vertex 0.015553 0.005661 0.006263
endloop
endfacet
facet normal 0.565334 0.205765 -0.798785
outer loop
vertex 0.012628 0.004596 0.003919
vertex 0.015553 0.005661 0.006263
vertex 0.042572 -0.068575 0.006263
endloop
endfacet
facet normal 0.675094 0.245714 -0.695610
outer loop
vertex 0.042572 -0.068575 0.006263
vertex 0.015553 0.005661 0.006263
vertex 0.045119 -0.067648 0.009062
endloop
endfacet
facet normal 0.675094 0.245714 -0.695610
outer loop
vertex 0.042572 -0.068575 0.006263
vertex 0.045119 -0.067648 0.009062
vertex 0.072139 -0.141884 0.009062
endloop
endfacet
facet normal 0.768455 0.279695 -0.575541
outer loop
vertex 0.072139 -0.141884 0.009062
vertex 0.045119 -0.067648 0.009062
vertex 0.074246 -0.141117 0.012248
endloop
endfacet
facet normal 0.768325 0.280052 -0.575541
outer loop
vertex 0.072139 -0.141884 0.009062
vertex 0.074246 -0.141117 0.012248
vertex 0.101055 -0.215429 0.011878
endloop
endfacet
facet normal 0.835030 0.303534 -0.458904
outer loop
vertex 0.101055 -0.215429 0.011878
vertex 0.074246 -0.141117 0.012248
vertex 0.102688 -0.214835 0.015243
endloop
endfacet
facet normal 0.842998 0.307316 -0.441488
outer loop
vertex 0.102688 -0.214835 0.015243
vertex 0.074246 -0.141117 0.012248
vertex 0.075862 -0.140529 0.015744
endloop
endfacet
facet normal 0.890625 0.323687 -0.319396
outer loop
vertex 0.102688 -0.214835 0.015243
vertex 0.075862 -0.140529 0.015744
vertex 0.103825 -0.214421 0.018833
endloop
endfacet
facet normal 0.897191 0.327120 -0.296719
outer loop
vertex 0.103825 -0.214421 0.018833
vertex 0.075862 -0.140529 0.015744
vertex 0.076948 -0.140133 0.019465
endloop
endfacet
facet normal 0.925775 0.336405 -0.172548
outer loop
vertex 0.103825 -0.214421 0.018833
vertex 0.076948 -0.140133 0.019465
vertex 0.104439 -0.214197 0.022564
endloop
endfacet
facet normal 0.929591 0.338985 -0.144742
outer loop
vertex 0.104439 -0.214197 0.022564
vertex 0.076948 -0.140133 0.019465
vertex 0.077478 -0.139940 0.023320
endloop
endfacet
facet normal 0.939669 0.341392 -0.021744
outer loop
vertex 0.104439 -0.214197 0.022564
vertex 0.077478 -0.139940 0.023320
vertex 0.104517 -0.214169 0.026352
endloop
endfacet
facet normal 0.939411 0.342625 0.010751
outer loop
vertex 0.104517 -0.214169 0.026352
vertex 0.077478 -0.139940 0.023320
vertex 0.077439 -0.139955 0.027216
endloop
endfacet
facet normal 0.931992 0.338535 0.129558
outer loop
vertex 0.104517 -0.214169 0.026352
vertex 0.077439 -0.139955 0.027216
vertex 0.104056 -0.214337 0.030108
endloop
endfacet
facet normal 0.926410 0.337953 0.165986
outer loop
vertex 0.104056 -0.214337 0.030108
vertex 0.077439 -0.139955 0.027216
vertex 0.076831 -0.140176 0.031058
endloop
endfacet
facet normal 0.902920 0.327897 0.277885
outer loop
vertex 0.104056 -0.214337 0.030108
vertex 0.076831 -0.140176 0.031058
vertex 0.103066 -0.214697 0.033747
endloop
endfacet
facet normal 0.890905 0.325084 0.317187
outer loop
vertex 0.103066 -0.214697 0.033747
vertex 0.076831 -0.140176 0.031058
vertex 0.075670 -0.140598 0.034753
endloop
endfacet
facet normal 0.853119 0.309720 0.419835
outer loop
vertex 0.103066 -0.214697 0.033747
vertex 0.075670 -0.140598 0.034753
vertex 0.101572 -0.215241 0.037185
endloop
endfacet
facet normal 0.833757 0.304332 0.460686
outer loop
vertex 0.101572 -0.215241 0.037185
vertex 0.075670 -0.140598 0.034753
vertex 0.073983 -0.141212 0.038211
endloop
endfacet
facet normal 0.783737 0.284421 0.552143
outer loop
vertex 0.101572 -0.215241 0.037185
vertex 0.073983 -0.141212 0.038211
vertex 0.099606 -0.215956 0.040343
endloop
endfacet
facet normal 0.756355 0.276201 0.592992
outer loop
vertex 0.099606 -0.215956 0.040343
vertex 0.073983 -0.141212 0.038211
vertex 0.071812 -0.142003 0.041348
endloop
endfacet
facet normal 0.696359 0.252582 0.671778
outer loop
vertex 0.099606 -0.215956 0.040343
vertex 0.071812 -0.142003 0.041348
vertex 0.097215 -0.216827 0.043149
endloop
endfacet
facet normal 0.660576 0.241375 0.710899
outer loop
vertex 0.097215 -0.216827 0.043149
vertex 0.071812 -0.142003 0.041348
vertex 0.069210 -0.142950 0.044088
endloop
endfacet
facet normal 0.593004 0.214931 0.775984
outer loop
vertex 0.097215 -0.216827 0.043149
vertex 0.069210 -0.142950 0.044088
vertex 0.085077 -0.190020 0.045000
endloop
endfacet
facet normal 0.592999 0.214930 0.775988
outer loop
vertex 0.097215 -0.216827 0.043149
vertex 0.085077 -0.190020 0.045000
vertex 0.095075 -0.217605 0.045000
endloop
endfacet
facet normal 0.548745 0.200702 0.811540
outer loop
vertex 0.068020 -0.143383 0.045000
vertex 0.085077 -0.190020 0.045000
vertex 0.069210 -0.142950 0.044088
endloop
endfacet
facet normal -0.549372 -0.198982 0.811540
outer loop
vertex 0.038869 -0.153993 0.044088
vertex 0.056969 -0.200250 0.045000
vertex 0.040058 -0.153560 0.045000
endloop
endfacet
facet normal -0.592420 -0.216527 0.775986
outer loop
vertex 0.038869 -0.153993 0.044088
vertex 0.064902 -0.228588 0.043149
vertex 0.067042 -0.227809 0.045000
endloop
endfacet
facet normal -0.592420 -0.216523 0.775987
outer loop
vertex 0.038869 -0.153993 0.044088
vertex 0.067042 -0.227809 0.045000
vertex 0.056969 -0.200250 0.045000
endloop
endfacet
facet normal -0.661185 -0.239707 0.710898
outer loop
vertex 0.064902 -0.228588 0.043149
vertex 0.038869 -0.153993 0.044088
vertex 0.036266 -0.154940 0.041348
endloop
endfacet
facet normal -0.695797 -0.254122 0.671780
outer loop
vertex 0.064902 -0.228588 0.043149
vertex 0.036266 -0.154940 0.041348
vertex 0.062511 -0.229458 0.040343
endloop
endfacet
facet normal -0.756941 -0.274593 0.592991
outer loop
vertex 0.062511 -0.229458 0.040343
vertex 0.036266 -0.154940 0.041348
vertex 0.034095 -0.155731 0.038211
endloop
endfacet
facet normal -0.783199 -0.285895 0.552144
outer loop
vertex 0.062511 -0.229458 0.040343
vertex 0.034095 -0.155731 0.038211
vertex 0.060546 -0.230173 0.037185
endloop
endfacet
facet normal -0.834315 -0.302797 0.460687
outer loop
vertex 0.060546 -0.230173 0.037185
vertex 0.034095 -0.155731 0.038211
vertex 0.032408 -0.156344 0.034753
endloop
endfacet
facet normal -0.852611 -0.311115 0.419835
outer loop
vertex 0.060546 -0.230173 0.037185
vertex 0.032408 -0.156344 0.034753
vertex 0.059051 -0.230717 0.033747
endloop
endfacet
facet normal -0.891434 -0.323634 0.317185
outer loop
vertex 0.059051 -0.230717 0.033747
vertex 0.032408 -0.156344 0.034753
vertex 0.031247 -0.156767 0.031058
endloop
endfacet
facet normal -0.902444 -0.329202 0.277888
outer loop
vertex 0.059051 -0.230717 0.033747
vertex 0.031247 -0.156767 0.031058
vertex 0.058062 -0.231077 0.030108
endloop
endfacet
facet normal -0.926904 -0.336598 0.165985
outer loop
vertex 0.058062 -0.231077 0.030108
vertex 0.031247 -0.156767 0.031058
vertex 0.030639 -0.156988 0.027216
endloop
endfacet
facet normal -0.931553 -0.339740 0.129558
outer loop
vertex 0.058062 -0.231077 0.030108
vertex 0.030639 -0.156988 0.027216
vertex 0.057601 -0.231245 0.026352
endloop
endfacet
facet normal -0.939866 -0.341375 0.010754
outer loop
vertex 0.057601 -0.231245 0.026352
vertex 0.030639 -0.156988 0.027216
vertex 0.030600 -0.157003 0.023320
endloop
endfacet
facet normal -0.939271 -0.342486 -0.021747
outer loop
vertex 0.057601 -0.231245 0.026352
vertex 0.030600 -0.157003 0.023320
vertex 0.057678 -0.231217 0.022564
endloop
endfacet
facet normal -0.930003 -0.337851 -0.144741
outer loop
vertex 0.057678 -0.231217 0.022564
vertex 0.030600 -0.157003 0.023320
vertex 0.031130 -0.156810 0.019465
endloop
endfacet
facet normal -0.925421 -0.337376 -0.172551
outer loop
vertex 0.057678 -0.231217 0.022564
vertex 0.031130 -0.156810 0.019465
vertex 0.058292 -0.230993 0.018833
endloop
endfacet
facet normal -0.897557 -0.326115 -0.296718
outer loop
vertex 0.058292 -0.230993 0.018833
vertex 0.031130 -0.156810 0.019465
vertex 0.032216 -0.156414 0.015744
endloop
endfacet
facet normal -0.890321 -0.324524 -0.319393
outer loop
vertex 0.058292 -0.230993 0.018833
vertex 0.032216 -0.156414 0.015744
vertex 0.059429 -0.230580 0.015243
endloop
endfacet
facet normal -0.843312 -0.306451 -0.441489
outer loop
vertex 0.059429 -0.230580 0.015243
vertex 0.032216 -0.156414 0.015744
vertex 0.033833 -0.155826 0.012248
endloop
endfacet
facet normal -0.834777 -0.304226 -0.458906
outer loop
vertex 0.059429 -0.230580 0.015243
vertex 0.033833 -0.155826 0.012248
vertex 0.061063 -0.229985 0.011878
endloop
endfacet
facet normal -0.768585 -0.279338 -0.575541
outer loop
vertex 0.061063 -0.229985 0.011878
vertex 0.033833 -0.155826 0.012248
vertex 0.035940 -0.155059 0.009062
endloop
endfacet
facet normal -0.760069 -0.276946 -0.587875
outer loop
vertex 0.061063 -0.229985 0.011878
vertex 0.035940 -0.155059 0.009062
vertex 0.063156 -0.229223 0.008813
endloop
endfacet
facet normal -0.675194 -0.245437 -0.695611
outer loop
vertex 0.063156 -0.229223 0.008813
vertex 0.035940 -0.155059 0.009062
vertex 0.038487 -0.154132 0.006263
endloop
endfacet
facet normal -0.667905 -0.243306 -0.703352
outer loop
vertex 0.063156 -0.229223 0.008813
vertex 0.038487 -0.154132 0.006263
vertex 0.065659 -0.228312 0.006120
endloop
endfacet
facet normal -0.565402 -0.205575 -0.798786
outer loop
vertex 0.065659 -0.228312 0.006120
vertex 0.038487 -0.154132 0.006263
vertex 0.041411 -0.153068 0.003919
endloop
endfacet
facet normal -0.560410 -0.204080 -0.802678
outer loop
vertex 0.065659 -0.228312 0.006120
vertex 0.041411 -0.153068 0.003919
vertex 0.068517 -0.227272 0.003861
endloop
endfacet
facet normal 0.760262 0.276410 -0.587877
outer loop
vertex 0.101055 -0.215429 0.011878
vertex 0.098962 -0.216191 0.008813
vertex 0.072139 -0.141884 0.009062
endloop
endfacet
facet normal 0.674990 0.245989 -0.695614
outer loop
vertex 0.072139 -0.141884 0.009062
vertex 0.098962 -0.216191 0.008813
vertex 0.069592 -0.142811 0.006263
endloop
endfacet
facet normal 0.675093 0.245714 -0.695611
outer loop
vertex 0.072139 -0.141884 0.009062
vertex 0.069592 -0.142811 0.006263
vertex 0.042572 -0.068575 0.006263
endloop
endfacet
facet normal 0.565335 0.205765 -0.798785
outer loop
vertex 0.042572 -0.068575 0.006263
vertex 0.069592 -0.142811 0.006263
vertex 0.039648 -0.069639 0.003919
endloop
endfacet
facet normal 0.565334 0.205765 -0.798785
outer loop
vertex 0.042572 -0.068575 0.006263
vertex 0.039648 -0.069639 0.003919
vertex 0.012628 0.004596 0.003919
endloop
endfacet
facet normal 0.441845 0.160818 -0.882559
outer loop
vertex 0.012628 0.004596 0.003919
vertex 0.039648 -0.069639 0.003919
vertex -0.071662 0.226127 0.002087
endloop
endfacet
facet normal 0.668040 0.242938 -0.703352
outer loop
vertex 0.098962 -0.216191 0.008813
vertex 0.096458 -0.217102 0.006120
vertex 0.069592 -0.142811 0.006263
endloop
endfacet
facet normal 0.565266 0.205955 -0.798785
outer loop
vertex 0.069592 -0.142811 0.006263
vertex 0.096458 -0.217102 0.006120
vertex 0.066667 -0.143875 0.003919
endloop
endfacet
facet normal 0.565334 0.205765 -0.798786
outer loop
vertex 0.069592 -0.142811 0.006263
vertex 0.066667 -0.143875 0.003919
vertex 0.039648 -0.069639 0.003919
endloop
endfacet
facet normal 0.441846 0.160819 -0.882558
outer loop
vertex 0.039648 -0.069639 0.003919
vertex 0.066667 -0.143875 0.003919
vertex -0.071662 0.226127 0.002087
endloop
endfacet
facet normal 0.560479 0.203890 -0.802678
outer loop
vertex 0.096458 -0.217102 0.006120
vertex 0.093601 -0.218142 0.003861
vertex 0.066667 -0.143875 0.003919
endloop
endfacet
facet normal 0.449468 0.163690 -0.878171
outer loop
vertex 0.066667 -0.143875 0.003919
vertex 0.093601 -0.218142 0.003861
vertex -0.071662 0.226127 0.002087
endloop
endfacet
facet normal 0.440046 0.160164 -0.883576
outer loop
vertex 0.093601 -0.218142 0.003861
vertex 0.090456 -0.219287 0.002087
vertex -0.071662 0.226127 0.002087
endloop
endfacet
facet normal -0.760262 -0.276410 -0.587877
outer loop
vertex -0.101055 0.215429 0.011878
vertex -0.098962 0.216191 0.008813
vertex -0.072139 0.141884 0.009062
endloop
endfacet
facet normal -0.674991 -0.245989 -0.695612
outer loop
vertex -0.072139 0.141884 0.009062
vertex -0.098962 0.216191 0.008813
vertex -0.069592 0.142811 0.006263
endloop
endfacet
facet normal -0.675093 -0.245714 -0.695610
outer loop
vertex -0.072139 0.141884 0.009062
vertex -0.069592 0.142811 0.006263
vertex -0.042572 0.068575 0.006263
endloop
endfacet
facet normal -0.565335 -0.205765 -0.798785
outer loop
vertex -0.042572 0.068575 0.006263
vertex -0.069592 0.142811 0.006263
vertex -0.039648 0.069639 0.003919
endloop
endfacet
facet normal -0.565334 -0.205765 -0.798785
outer loop
vertex -0.042572 0.068575 0.006263
vertex -0.039648 0.069639 0.003919
vertex -0.012628 -0.004596 0.003919
endloop
endfacet
facet normal -0.441845 -0.160819 -0.882559
outer loop
vertex -0.012628 -0.004596 0.003919
vertex -0.039648 0.069639 0.003919
vertex 0.071662 -0.226127 0.002087
endloop
endfacet
facet normal -0.668041 -0.242938 -0.703351
outer loop
vertex -0.098962 0.216191 0.008813
vertex -0.096458 0.217102 0.006120
vertex -0.069592 0.142811 0.006263
endloop
endfacet
facet normal -0.565264 -0.205954 -0.798786
outer loop
vertex -0.069592 0.142811 0.006263
vertex -0.096458 0.217102 0.006120
vertex -0.066667 0.143875 0.003919
endloop
endfacet
facet normal -0.565334 -0.205765 -0.798786
outer loop
vertex -0.069592 0.142811 0.006263
vertex -0.066667 0.143875 0.003919
vertex -0.039648 0.069639 0.003919
endloop
endfacet
facet normal -0.441846 -0.160819 -0.882558
outer loop
vertex -0.039648 0.069639 0.003919
vertex -0.066667 0.143875 0.003919
vertex 0.071662 -0.226127 0.002087
endloop
endfacet
facet normal -0.560480 -0.203891 -0.802677
outer loop
vertex -0.096458 0.217102 0.006120
vertex -0.093601 0.218142 0.003861
vertex -0.066667 0.143875 0.003919
endloop
endfacet
facet normal -0.449470 -0.163690 -0.878170
outer loop
vertex -0.066667 0.143875 0.003919
vertex -0.093601 0.218142 0.003861
vertex 0.071662 -0.226127 0.002087
endloop
endfacet
facet normal -0.440046 -0.160164 -0.883576
outer loop
vertex -0.093601 0.218142 0.003861
vertex -0.090456 0.219287 0.002087
vertex 0.071662 -0.226127 0.002087
endloop
endfacet
facet normal -0.565334 -0.205765 -0.798785
outer loop
vertex 0.014391 -0.078832 0.003919
vertex 0.041411 -0.153068 0.003919
vertex 0.011467 -0.079896 0.006263
endloop
endfacet
facet normal -0.565333 -0.205765 -0.798786
outer loop
vertex 0.011467 -0.079896 0.006263
vertex 0.041411 -0.153068 0.003919
vertex 0.038487 -0.154132 0.006263
endloop
endfacet
facet normal -0.675095 -0.245714 -0.695609
outer loop
vertex 0.011467 -0.079896 0.006263
vertex 0.038487 -0.154132 0.006263
vertex 0.008920 -0.080823 0.009062
endloop
endfacet
facet normal -0.675094 -0.245714 -0.695610
outer loop
vertex 0.008920 -0.080823 0.009062
vertex 0.038487 -0.154132 0.006263
vertex 0.035940 -0.155059 0.009062
endloop
endfacet
facet normal -0.768457 -0.279695 -0.575538
outer loop
vertex 0.008920 -0.080823 0.009062
vertex 0.035940 -0.155059 0.009062
vertex 0.006813 -0.081590 0.012248
endloop
endfacet
facet normal -0.768454 -0.279694 -0.575542
outer loop
vertex 0.006813 -0.081590 0.012248
vertex 0.035940 -0.155059 0.009062
vertex 0.033833 -0.155826 0.012248
endloop
endfacet
facet normal -0.843155 -0.306883 -0.441489
outer loop
vertex 0.006813 -0.081590 0.012248
vertex 0.033833 -0.155826 0.012248
vertex 0.005197 -0.082179 0.015744
endloop
endfacet
facet normal -0.843154 -0.306883 -0.441492
outer loop
vertex 0.005197 -0.082179 0.015744
vertex 0.033833 -0.155826 0.012248
vertex 0.032216 -0.156414 0.015744
endloop
endfacet
facet normal -0.897373 -0.326617 -0.296719
outer loop
vertex 0.005197 -0.082179 0.015744
vertex 0.032216 -0.156414 0.015744
vertex 0.004110 -0.082574 0.019465
endloop
endfacet
facet normal -0.897373 -0.326617 -0.296719
outer loop
vertex 0.004110 -0.082574 0.019465
vertex 0.032216 -0.156414 0.015744
vertex 0.031130 -0.156810 0.019465
endloop
endfacet
facet normal -0.929797 -0.338418 -0.144741
outer loop
vertex 0.004110 -0.082574 0.019465
vertex 0.031130 -0.156810 0.019465
vertex 0.003580 -0.082767 0.023320
endloop
endfacet
facet normal -0.929797 -0.338419 -0.144740
outer loop
vertex 0.003580 -0.082767 0.023320
vertex 0.031130 -0.156810 0.019465
vertex 0.030600 -0.157003 0.023320
endloop
endfacet
facet normal -0.939638 -0.342000 0.010754
outer loop
vertex 0.003580 -0.082767 0.023320
vertex 0.030600 -0.157003 0.023320
vertex 0.003620 -0.082753 0.027216
endloop
endfacet
facet normal -0.939638 -0.342000 0.010751
outer loop
vertex 0.003620 -0.082753 0.027216
vertex 0.030600 -0.157003 0.023320
vertex 0.030639 -0.156988 0.027216
endloop
endfacet
facet normal -0.926657 -0.337276 0.165986
outer loop
vertex 0.003620 -0.082753 0.027216
vertex 0.030639 -0.156988 0.027216
vertex 0.004227 -0.082531 0.031058
endloop
endfacet
facet normal -0.926657 -0.337276 0.165987
outer loop
vertex 0.004227 -0.082531 0.031058
vertex 0.030639 -0.156988 0.027216
vertex 0.031247 -0.156767 0.031058
endloop
endfacet
facet normal -0.891170 -0.324359 0.317186
outer loop
vertex 0.004227 -0.082531 0.031058
vertex 0.031247 -0.156767 0.031058
vertex 0.005389 -0.082109 0.034753
endloop
endfacet
facet normal -0.891170 -0.324359 0.317186
outer loop
vertex 0.005389 -0.082109 0.034753
vertex 0.031247 -0.156767 0.031058
vertex 0.032408 -0.156344 0.034753
endloop
endfacet
facet normal -0.834037 -0.303565 0.460685
outer loop
vertex 0.005389 -0.082109 0.034753
vertex 0.032408 -0.156344 0.034753
vertex 0.007075 -0.081495 0.038211
endloop
endfacet
facet normal -0.834039 -0.303565 0.460682
outer loop
vertex 0.007075 -0.081495 0.038211
vertex 0.032408 -0.156344 0.034753
vertex 0.034095 -0.155731 0.038211
endloop
endfacet
facet normal -0.756647 -0.275398 0.592993
outer loop
vertex 0.007075 -0.081495 0.038211
vertex 0.034095 -0.155731 0.038211
vertex 0.009246 -0.080705 0.041348
endloop
endfacet
facet normal -0.756648 -0.275397 0.592992
outer loop
vertex 0.009246 -0.080705 0.041348
vertex 0.034095 -0.155731 0.038211
vertex 0.036266 -0.154940 0.041348
endloop
endfacet
facet normal -0.660882 -0.240541 0.710898
outer loop
vertex 0.009246 -0.080705 0.041348
vertex 0.036266 -0.154940 0.041348
vertex 0.011849 -0.079757 0.044088
endloop
endfacet
facet normal -0.660881 -0.240542 0.710898
outer loop
vertex 0.011849 -0.079757 0.044088
vertex 0.036266 -0.154940 0.041348
vertex 0.038869 -0.153993 0.044088
endloop
endfacet
facet normal -0.549064 -0.199841 0.811537
outer loop
vertex 0.029240 -0.123836 0.045000
vertex 0.013039 -0.079324 0.045000
vertex 0.011849 -0.079757 0.044088
endloop
endfacet
facet normal -0.549060 -0.199841 0.811540
outer loop
vertex 0.029240 -0.123836 0.045000
vertex 0.011849 -0.079757 0.044088
vertex 0.038869 -0.153993 0.044088
endloop
endfacet
facet normal -0.549060 -0.199842 0.811539
outer loop
vertex 0.038869 -0.153993 0.044088
vertex 0.040058 -0.153560 0.045000
vertex 0.029240 -0.123836 0.045000
endloop
endfacet
facet normal 0.549060 0.199842 0.811539
outer loop
vertex 0.041000 -0.069147 0.045000
vertex 0.051819 -0.098871 0.045000
vertex 0.042190 -0.068714 0.044088
endloop
endfacet
facet normal 0.549064 0.199842 0.811537
outer loop
vertex 0.069210 -0.142950 0.044088
vertex 0.042190 -0.068714 0.044088
vertex 0.051819 -0.098871 0.045000
endloop
endfacet
facet normal 0.549062 0.199842 0.811538
outer loop
vertex 0.069210 -0.142950 0.044088
vertex 0.051819 -0.098871 0.045000
vertex 0.068020 -0.143383 0.045000
endloop
endfacet
facet normal 0.660881 0.240541 0.710898
outer loop
vertex 0.042190 -0.068714 0.044088
vertex 0.069210 -0.142950 0.044088
vertex 0.044793 -0.067767 0.041348
endloop
endfacet
facet normal 0.660881 0.240541 0.710898
outer loop
vertex 0.044793 -0.067767 0.041348
vertex 0.069210 -0.142950 0.044088
vertex 0.071812 -0.142003 0.041348
endloop
endfacet
facet normal 0.756649 0.275397 0.592992
outer loop
vertex 0.044793 -0.067767 0.041348
vertex 0.071812 -0.142003 0.041348
vertex 0.046964 -0.066977 0.038211
endloop
endfacet
facet normal 0.756648 0.275397 0.592993
outer loop
vertex 0.046964 -0.066977 0.038211
vertex 0.071812 -0.142003 0.041348
vertex 0.073983 -0.141212 0.038211
endloop
endfacet
facet normal 0.834038 0.303564 0.460683
outer loop
vertex 0.046964 -0.066977 0.038211
vertex 0.073983 -0.141212 0.038211
vertex 0.048650 -0.066363 0.034753
endloop
endfacet
facet normal 0.834037 0.303565 0.460685
outer loop
vertex 0.048650 -0.066363 0.034753
vertex 0.073983 -0.141212 0.038211
vertex 0.075670 -0.140598 0.034753
endloop
endfacet
facet normal 0.891169 0.324360 0.317188
outer loop
vertex 0.048650 -0.066363 0.034753
vertex 0.075670 -0.140598 0.034753
vertex 0.049812 -0.065940 0.031058
endloop
endfacet
facet normal 0.891170 0.324360 0.317185
outer loop
vertex 0.049812 -0.065940 0.031058
vertex 0.075670 -0.140598 0.034753
vertex 0.076831 -0.140176 0.031058
endloop
endfacet
facet normal 0.926658 0.337276 0.165985
outer loop
vertex 0.049812 -0.065940 0.031058
vertex 0.076831 -0.140176 0.031058
vertex 0.050419 -0.065719 0.027216
endloop
endfacet
facet normal 0.926657 0.337275 0.165987
outer loop
vertex 0.050419 -0.065719 0.027216
vertex 0.076831 -0.140176 0.031058
vertex 0.077439 -0.139955 0.027216
endloop
endfacet
facet normal 0.939638 0.342001 0.010754
outer loop
vertex 0.050419 -0.065719 0.027216
vertex 0.077439 -0.139955 0.027216
vertex 0.050459 -0.065705 0.023320
endloop
endfacet
facet normal 0.939638 0.342000 0.010751
outer loop
vertex 0.050459 -0.065705 0.023320
vertex 0.077439 -0.139955 0.027216
vertex 0.077478 -0.139940 0.023320
endloop
endfacet
facet normal 0.929797 0.338418 -0.144741
outer loop
vertex 0.050459 -0.065705 0.023320
vertex 0.077478 -0.139940 0.023320
vertex 0.049929 -0.065897 0.019465
endloop
endfacet
facet normal 0.929797 0.338419 -0.144739
outer loop
vertex 0.049929 -0.065897 0.019465
vertex 0.077478 -0.139940 0.023320
vertex 0.076948 -0.140133 0.019465
endloop
endfacet
facet normal 0.897373 0.326617 -0.296720
outer loop
vertex 0.049929 -0.065897 0.019465
vertex 0.076948 -0.140133 0.019465
vertex 0.048843 -0.066293 0.015744
endloop
endfacet
facet normal 0.897373 0.326617 -0.296721
outer loop
vertex 0.048843 -0.066293 0.015744
vertex 0.076948 -0.140133 0.019465
vertex 0.075862 -0.140529 0.015744
endloop
endfacet
facet normal 0.843155 0.306883 -0.441490
outer loop
vertex 0.048843 -0.066293 0.015744
vertex 0.075862 -0.140529 0.015744
vertex 0.047226 -0.066881 0.012248
endloop
endfacet
facet normal 0.843153 0.306883 -0.441492
outer loop
vertex 0.047226 -0.066881 0.012248
vertex 0.075862 -0.140529 0.015744
vertex 0.074246 -0.141117 0.012248
endloop
endfacet
facet normal 0.768456 0.279695 -0.575539
outer loop
vertex 0.047226 -0.066881 0.012248
vertex 0.074246 -0.141117 0.012248
vertex 0.045119 -0.067648 0.009062
endloop
endfacet
facet normal -0.565334 -0.205765 -0.798785
outer loop
vertex 0.014391 -0.078832 0.003919
vertex 0.011467 -0.079896 0.006263
vertex -0.015553 -0.005661 0.006263
endloop
endfacet
facet normal -0.675094 -0.245714 -0.695610
outer loop
vertex -0.015553 -0.005661 0.006263
vertex 0.011467 -0.079896 0.006263
vertex -0.018099 -0.006588 0.009062
endloop
endfacet
facet normal -0.675094 -0.245714 -0.695610
outer loop
vertex -0.015553 -0.005661 0.006263
vertex -0.018099 -0.006588 0.009062
vertex -0.045119 0.067648 0.009062
endloop
endfacet
facet normal -0.768456 -0.279695 -0.575540
outer loop
vertex -0.045119 0.067648 0.009062
vertex -0.018099 -0.006588 0.009062
vertex -0.047226 0.066881 0.012248
endloop
endfacet
facet normal -0.768457 -0.279695 -0.575538
outer loop
vertex -0.045119 0.067648 0.009062
vertex -0.047226 0.066881 0.012248
vertex -0.074246 0.141117 0.012248
endloop
endfacet
facet normal -0.843153 -0.306883 -0.441492
outer loop
vertex -0.074246 0.141117 0.012248
vertex -0.047226 0.066881 0.012248
vertex -0.075862 0.140529 0.015744
endloop
endfacet
facet normal -0.675094 -0.245714 -0.695610
outer loop
vertex -0.018099 -0.006588 0.009062
vertex 0.011467 -0.079896 0.006263
vertex 0.008920 -0.080823 0.009062
endloop
endfacet
facet normal -0.768456 -0.279695 -0.575540
outer loop
vertex -0.018099 -0.006588 0.009062
vertex 0.008920 -0.080823 0.009062
vertex -0.020207 -0.007355 0.012248
endloop
endfacet
facet normal -0.768456 -0.279695 -0.575540
outer loop
vertex -0.020207 -0.007355 0.012248
vertex 0.008920 -0.080823 0.009062
vertex 0.006813 -0.081590 0.012248
endloop
endfacet
facet normal -0.843154 -0.306883 -0.441491
outer loop
vertex -0.020207 -0.007355 0.012248
vertex 0.006813 -0.081590 0.012248
vertex -0.021823 -0.007943 0.015744
endloop
endfacet
facet normal -0.843154 -0.306883 -0.441491
outer loop
vertex -0.021823 -0.007943 0.015744
vertex 0.006813 -0.081590 0.012248
vertex 0.005197 -0.082179 0.015744
endloop
endfacet
facet normal -0.897374 -0.326617 -0.296719
outer loop
vertex -0.021823 -0.007943 0.015744
vertex 0.005197 -0.082179 0.015744
vertex -0.022909 -0.008338 0.019465
endloop
endfacet
facet normal -0.897373 -0.326617 -0.296719
outer loop
vertex -0.022909 -0.008338 0.019465
vertex 0.005197 -0.082179 0.015744
vertex 0.004110 -0.082574 0.019465
endloop
endfacet
facet normal -0.929797 -0.338419 -0.144741
outer loop
vertex -0.022909 -0.008338 0.019465
vertex 0.004110 -0.082574 0.019465
vertex -0.023439 -0.008531 0.023320
endloop
endfacet
facet normal -0.929797 -0.338418 -0.144741
outer loop
vertex -0.023439 -0.008531 0.023320
vertex 0.004110 -0.082574 0.019465
vertex 0.003580 -0.082767 0.023320
endloop
endfacet
facet normal -0.939638 -0.342000 0.010752
outer loop
vertex -0.023439 -0.008531 0.023320
vertex 0.003580 -0.082767 0.023320
vertex -0.023400 -0.008517 0.027216
endloop
endfacet
facet normal -0.939638 -0.342001 0.010753
outer loop
vertex -0.023400 -0.008517 0.027216
vertex 0.003580 -0.082767 0.023320
vertex 0.003620 -0.082753 0.027216
endloop
endfacet
facet normal -0.926658 -0.337276 0.165985
outer loop
vertex -0.023400 -0.008517 0.027216
vertex 0.003620 -0.082753 0.027216
vertex -0.022792 -0.008296 0.031058
endloop
endfacet
facet normal -0.926657 -0.337275 0.165986
outer loop
vertex -0.022792 -0.008296 0.031058
vertex 0.003620 -0.082753 0.027216
vertex 0.004227 -0.082531 0.031058
endloop
endfacet
facet normal -0.891170 -0.324360 0.317186
outer loop
vertex -0.022792 -0.008296 0.031058
vertex 0.004227 -0.082531 0.031058
vertex -0.021631 -0.007873 0.034753
endloop
endfacet
facet normal -0.891170 -0.324359 0.317187
outer loop
vertex -0.021631 -0.007873 0.034753
vertex 0.004227 -0.082531 0.031058
vertex 0.005389 -0.082109 0.034753
endloop
endfacet
facet normal -0.834037 -0.303565 0.460684
outer loop
vertex -0.021631 -0.007873 0.034753
vertex 0.005389 -0.082109 0.034753
vertex -0.019944 -0.007259 0.038211
endloop
endfacet
facet normal -0.834038 -0.303564 0.460684
outer loop
vertex -0.019944 -0.007259 0.038211
vertex 0.005389 -0.082109 0.034753
vertex 0.007075 -0.081495 0.038211
endloop
endfacet
facet normal -0.756648 -0.275398 0.592993
outer loop
vertex -0.019944 -0.007259 0.038211
vertex 0.007075 -0.081495 0.038211
vertex -0.017773 -0.006469 0.041348
endloop
endfacet
facet normal -0.756648 -0.275397 0.592992
outer loop
vertex -0.017773 -0.006469 0.041348
vertex 0.007075 -0.081495 0.038211
vertex 0.009246 -0.080705 0.041348
endloop
endfacet
facet normal -0.660883 -0.240541 0.710897
outer loop
vertex -0.017773 -0.006469 0.041348
vertex 0.009246 -0.080705 0.041348
vertex -0.015170 -0.005522 0.044088
endloop
endfacet
facet normal -0.660881 -0.240541 0.710898
outer loop
vertex -0.015170 -0.005522 0.044088
vertex 0.009246 -0.080705 0.041348
vertex 0.011849 -0.079757 0.044088
endloop
endfacet
facet normal -0.549064 -0.199841 0.811537
outer loop
vertex -0.013981 -0.005089 0.045000
vertex -0.015170 -0.005522 0.044088
vertex 0.011849 -0.079757 0.044088
endloop
endfacet
facet normal -0.549063 -0.199842 0.811538
outer loop
vertex -0.013981 -0.005089 0.045000
vertex 0.011849 -0.079757 0.044088
vertex 0.002220 -0.049601 0.045000
endloop
endfacet
facet normal -0.549059 -0.199842 0.811540
outer loop
vertex 0.011849 -0.079757 0.044088
vertex 0.013039 -0.079324 0.045000
vertex 0.002220 -0.049601 0.045000
endloop
endfacet
facet normal 0.549063 0.199842 0.811537
outer loop
vertex 0.013981 0.005089 0.045000
vertex 0.024799 -0.024635 0.045000
vertex 0.015170 0.005522 0.044088
endloop
endfacet
facet normal 0.549060 0.199842 0.811540
outer loop
vertex 0.042190 -0.068714 0.044088
vertex 0.015170 0.005522 0.044088
vertex 0.024799 -0.024635 0.045000
endloop
endfacet
facet normal 0.549066 0.199841 0.811535
outer loop
vertex 0.042190 -0.068714 0.044088
vertex 0.024799 -0.024635 0.045000
vertex 0.041000 -0.069147 0.045000
endloop
endfacet
facet normal 0.660880 0.240541 0.710899
outer loop
vertex 0.015170 0.005522 0.044088
vertex 0.042190 -0.068714 0.044088
vertex 0.017773 0.006469 0.041348
endloop
endfacet
facet normal 0.660882 0.240541 0.710898
outer loop
vertex 0.017773 0.006469 0.041348
vertex 0.042190 -0.068714 0.044088
vertex 0.044793 -0.067767 0.041348
endloop
endfacet
facet normal 0.756648 0.275397 0.592992
outer loop
vertex 0.017773 0.006469 0.041348
vertex 0.044793 -0.067767 0.041348
vertex 0.019944 0.007259 0.038211
endloop
endfacet
facet normal 0.756647 0.275398 0.592993
outer loop
vertex 0.019944 0.007259 0.038211
vertex 0.044793 -0.067767 0.041348
vertex 0.046964 -0.066977 0.038211
endloop
endfacet
facet normal 0.834038 0.303564 0.460684
outer loop
vertex 0.019944 0.007259 0.038211
vertex 0.046964 -0.066977 0.038211
vertex 0.021631 0.007873 0.034753
endloop
endfacet
facet normal 0.834038 0.303565 0.460684
outer loop
vertex 0.021631 0.007873 0.034753
vertex 0.046964 -0.066977 0.038211
vertex 0.048650 -0.066363 0.034753
endloop
endfacet
facet normal 0.891170 0.324359 0.317187
outer loop
vertex 0.021631 0.007873 0.034753
vertex 0.048650 -0.066363 0.034753
vertex 0.022792 0.008296 0.031058
endloop
endfacet
facet normal 0.891170 0.324359 0.317187
outer loop
vertex 0.022792 0.008296 0.031058
vertex 0.048650 -0.066363 0.034753
vertex 0.049812 -0.065940 0.031058
endloop
endfacet
facet normal 0.926657 0.337276 0.165986
outer loop
vertex 0.022792 0.008296 0.031058
vertex 0.049812 -0.065940 0.031058
vertex 0.023400 0.008517 0.027216
endloop
endfacet
facet normal 0.926658 0.337275 0.165985
outer loop
vertex 0.023400 0.008517 0.027216
vertex 0.049812 -0.065940 0.031058
vertex 0.050419 -0.065719 0.027216
endloop
endfacet
facet normal 0.939638 0.342001 0.010753
outer loop
vertex 0.023400 0.008517 0.027216
vertex 0.050419 -0.065719 0.027216
vertex 0.023439 0.008531 0.023320
endloop
endfacet
facet normal 0.939638 0.342000 0.010753
outer loop
vertex 0.023439 0.008531 0.023320
vertex 0.050419 -0.065719 0.027216
vertex 0.050459 -0.065705 0.023320
endloop
endfacet
facet normal 0.929797 0.338418 -0.144741
outer loop
vertex 0.023439 0.008531 0.023320
vertex 0.050459 -0.065705 0.023320
vertex 0.022909 0.008338 0.019465
endloop
endfacet
facet normal 0.929797 0.338418 -0.144741
outer loop
vertex 0.022909 0.008338 0.019465
vertex 0.050459 -0.065705 0.023320
vertex 0.049929 -0.065897 0.019465
endloop
endfacet
facet normal 0.897373 0.326617 -0.296719
outer loop
vertex 0.022909 0.008338 0.019465
vertex 0.049929 -0.065897 0.019465
vertex 0.021823 0.007943 0.015744
endloop
endfacet
facet normal 0.897373 0.326617 -0.296720
outer loop
vertex 0.021823 0.007943 0.015744
vertex 0.049929 -0.065897 0.019465
vertex 0.048843 -0.066293 0.015744
endloop
endfacet
facet normal 0.843154 0.306883 -0.441491
outer loop
vertex 0.021823 0.007943 0.015744
vertex 0.048843 -0.066293 0.015744
vertex 0.020207 0.007355 0.012248
endloop
endfacet
facet normal 0.843154 0.306883 -0.441491
outer loop
vertex 0.020207 0.007355 0.012248
vertex 0.048843 -0.066293 0.015744
vertex 0.047226 -0.066881 0.012248
endloop
endfacet
facet normal 0.768456 0.279695 -0.575540
outer loop
vertex 0.020207 0.007355 0.012248
vertex 0.047226 -0.066881 0.012248
vertex 0.018099 0.006588 0.009062
endloop
endfacet
facet normal 0.768456 0.279695 -0.575540
outer loop
vertex 0.018099 0.006588 0.009062
vertex 0.047226 -0.066881 0.012248
vertex 0.045119 -0.067648 0.009062
endloop
endfacet
facet normal 0.675093 0.245714 -0.695610
outer loop
vertex 0.018099 0.006588 0.009062
vertex 0.045119 -0.067648 0.009062
vertex 0.015553 0.005661 0.006263
endloop
endfacet
facet normal -0.768456 -0.279695 -0.575540
outer loop
vertex -0.018099 -0.006588 0.009062
vertex -0.020207 -0.007355 0.012248
vertex -0.047226 0.066881 0.012248
endloop
endfacet
facet normal -0.843154 -0.306883 -0.441491
outer loop
vertex -0.047226 0.066881 0.012248
vertex -0.020207 -0.007355 0.012248
vertex -0.048843 0.066293 0.015744
endloop
endfacet
facet normal -0.843154 -0.306883 -0.441490
outer loop
vertex -0.047226 0.066881 0.012248
vertex -0.048843 0.066293 0.015744
vertex -0.075862 0.140529 0.015744
endloop
endfacet
facet normal -0.897373 -0.326617 -0.296721
outer loop
vertex -0.075862 0.140529 0.015744
vertex -0.048843 0.066293 0.015744
vertex -0.076948 0.140133 0.019465
endloop
endfacet
facet normal -0.843154 -0.306883 -0.441491
outer loop
vertex -0.048843 0.066293 0.015744
vertex -0.020207 -0.007355 0.012248
vertex -0.021823 -0.007943 0.015744
endloop
endfacet
facet normal -0.897373 -0.326617 -0.296720
outer loop
vertex -0.048843 0.066293 0.015744
vertex -0.021823 -0.007943 0.015744
vertex -0.049929 0.065897 0.019465
endloop
endfacet
facet normal -0.897373 -0.326617 -0.296720
outer loop
vertex -0.049929 0.065897 0.019465
vertex -0.021823 -0.007943 0.015744
vertex -0.022909 -0.008338 0.019465
endloop
endfacet
facet normal -0.929797 -0.338418 -0.144741
outer loop
vertex -0.049929 0.065897 0.019465
vertex -0.022909 -0.008338 0.019465
vertex -0.050459 0.065705 0.023320
endloop
endfacet
facet normal -0.929797 -0.338418 -0.144741
outer loop
vertex -0.050459 0.065705 0.023320
vertex -0.022909 -0.008338 0.019465
vertex -0.023439 -0.008531 0.023320
endloop
endfacet
facet normal -0.939638 -0.342000 0.010752
outer loop
vertex -0.050459 0.065705 0.023320
vertex -0.023439 -0.008531 0.023320
vertex -0.050419 0.065719 0.027216
endloop
endfacet
facet normal -0.939638 -0.342001 0.010753
outer loop
vertex -0.050419 0.065719 0.027216
vertex -0.023439 -0.008531 0.023320
vertex -0.023400 -0.008517 0.027216
endloop
endfacet
facet normal -0.926658 -0.337276 0.165985
outer loop
vertex -0.050419 0.065719 0.027216
vertex -0.023400 -0.008517 0.027216
vertex -0.049812 0.065940 0.031058
endloop
endfacet
facet normal -0.926657 -0.337276 0.165986
outer loop
vertex -0.049812 0.065940 0.031058
vertex -0.023400 -0.008517 0.027216
vertex -0.022792 -0.008296 0.031058
endloop
endfacet
facet normal -0.891170 -0.324359 0.317187
outer loop
vertex -0.049812 0.065940 0.031058
vertex -0.022792 -0.008296 0.031058
vertex -0.048650 0.066363 0.034753
endloop
endfacet
facet normal -0.891170 -0.324359 0.317186
outer loop
vertex -0.048650 0.066363 0.034753
vertex -0.022792 -0.008296 0.031058
vertex -0.021631 -0.007873 0.034753
endloop
endfacet
facet normal -0.834038 -0.303565 0.460684
outer loop
vertex -0.048650 0.066363 0.034753
vertex -0.021631 -0.007873 0.034753
vertex -0.046964 0.066977 0.038211
endloop
endfacet
facet normal -0.834038 -0.303564 0.460683
outer loop
vertex -0.046964 0.066977 0.038211
vertex -0.021631 -0.007873 0.034753
vertex -0.019944 -0.007259 0.038211
endloop
endfacet
facet normal -0.756647 -0.275398 0.592993
outer loop
vertex -0.046964 0.066977 0.038211
vertex -0.019944 -0.007259 0.038211
vertex -0.044793 0.067767 0.041348
endloop
endfacet
facet normal -0.756648 -0.275397 0.592992
outer loop
vertex -0.044793 0.067767 0.041348
vertex -0.019944 -0.007259 0.038211
vertex -0.017773 -0.006469 0.041348
endloop
endfacet
facet normal -0.660881 -0.240541 0.710898
outer loop
vertex -0.044793 0.067767 0.041348
vertex -0.017773 -0.006469 0.041348
vertex -0.042190 0.068714 0.044088
endloop
endfacet
facet normal -0.660880 -0.240541 0.710899
outer loop
vertex -0.042190 0.068714 0.044088
vertex -0.017773 -0.006469 0.041348
vertex -0.015170 -0.005522 0.044088
endloop
endfacet
facet normal -0.549065 -0.199841 0.811536
outer loop
vertex -0.024799 0.024635 0.045000
vertex -0.041000 0.069147 0.045000
vertex -0.042190 0.068714 0.044088
endloop
endfacet
facet normal -0.549059 -0.199842 0.811540
outer loop
vertex -0.024799 0.024635 0.045000
vertex -0.042190 0.068714 0.044088
vertex -0.015170 -0.005522 0.044088
endloop
endfacet
facet normal -0.549063 -0.199841 0.811538
outer loop
vertex -0.015170 -0.005522 0.044088
vertex -0.013981 -0.005089 0.045000
vertex -0.024799 0.024635 0.045000
endloop
endfacet
facet normal 0.549060 0.199842 0.811539
outer loop
vertex -0.013039 0.079324 0.045000
vertex -0.002220 0.049601 0.045000
vertex -0.011849 0.079757 0.044088
endloop
endfacet
facet normal 0.549064 0.199841 0.811537
outer loop
vertex 0.013981 0.005089 0.045000
vertex 0.015170 0.005522 0.044088
vertex -0.011849 0.079757 0.044088
endloop
endfacet
facet normal 0.549062 0.199842 0.811538
outer loop
vertex 0.013981 0.005089 0.045000
vertex -0.011849 0.079757 0.044088
vertex -0.002220 0.049601 0.045000
endloop
endfacet
facet normal 0.660881 0.240541 0.710898
outer loop
vertex -0.011849 0.079757 0.044088
vertex 0.015170 0.005522 0.044088
vertex -0.009246 0.080705 0.041348
endloop
endfacet
facet normal 0.660882 0.240541 0.710897
outer loop
vertex -0.009246 0.080705 0.041348
vertex 0.015170 0.005522 0.044088
vertex 0.017773 0.006469 0.041348
endloop
endfacet
facet normal 0.756648 0.275397 0.592993
outer loop
vertex -0.009246 0.080705 0.041348
vertex 0.017773 0.006469 0.041348
vertex -0.007075 0.081495 0.038211
endloop
endfacet
facet normal 0.756648 0.275398 0.592993
outer loop
vertex -0.007075 0.081495 0.038211
vertex 0.017773 0.006469 0.041348
vertex 0.019944 0.007259 0.038211
endloop
endfacet
facet normal 0.834038 0.303564 0.460684
outer loop
vertex -0.007075 0.081495 0.038211
vertex 0.019944 0.007259 0.038211
vertex -0.005389 0.082109 0.034753
endloop
endfacet
facet normal 0.834037 0.303565 0.460684
outer loop
vertex -0.005389 0.082109 0.034753
vertex 0.019944 0.007259 0.038211
vertex 0.021631 0.007873 0.034753
endloop
endfacet
facet normal 0.891170 0.324360 0.317187
outer loop
vertex -0.005389 0.082109 0.034753
vertex 0.021631 0.007873 0.034753
vertex -0.004227 0.082531 0.031058
endloop
endfacet
facet normal 0.891170 0.324360 0.317187
outer loop
vertex -0.004227 0.082531 0.031058
vertex 0.021631 0.007873 0.034753
vertex 0.022792 0.008296 0.031058
endloop
endfacet
facet normal 0.926658 0.337275 0.165986
outer loop
vertex -0.004227 0.082531 0.031058
vertex 0.022792 0.008296 0.031058
vertex -0.003620 0.082753 0.027216
endloop
endfacet
facet normal 0.926657 0.337275 0.165986
outer loop
vertex -0.003620 0.082753 0.027216
vertex 0.022792 0.008296 0.031058
vertex 0.023400 0.008517 0.027216
endloop
endfacet
facet normal 0.939638 0.342001 0.010753
outer loop
vertex -0.003620 0.082753 0.027216
vertex 0.023400 0.008517 0.027216
vertex -0.003580 0.082767 0.023320
endloop
endfacet
facet normal 0.939638 0.342000 0.010752
outer loop
vertex -0.003580 0.082767 0.023320
vertex 0.023400 0.008517 0.027216
vertex 0.023439 0.008531 0.023320
endloop
endfacet
facet normal 0.929797 0.338418 -0.144741
outer loop
vertex -0.003580 0.082767 0.023320
vertex 0.023439 0.008531 0.023320
vertex -0.004110 0.082574 0.019465
endloop
endfacet
facet normal 0.929797 0.338419 -0.144742
outer loop
vertex -0.004110 0.082574 0.019465
vertex 0.023439 0.008531 0.023320
vertex 0.022909 0.008338 0.019465
endloop
endfacet
facet normal 0.897374 0.326617 -0.296719
outer loop
vertex -0.004110 0.082574 0.019465
vertex 0.022909 0.008338 0.019465
vertex -0.005197 0.082179 0.015744
endloop
endfacet
facet normal 0.897373 0.326617 -0.296719
outer loop
vertex -0.005197 0.082179 0.015744
vertex 0.022909 0.008338 0.019465
vertex 0.021823 0.007943 0.015744
endloop
endfacet
facet normal 0.843154 0.306883 -0.441491
outer loop
vertex -0.005197 0.082179 0.015744
vertex 0.021823 0.007943 0.015744
vertex -0.006813 0.081590 0.012248
endloop
endfacet
facet normal 0.843154 0.306883 -0.441491
outer loop
vertex -0.006813 0.081590 0.012248
vertex 0.021823 0.007943 0.015744
vertex 0.020207 0.007355 0.012248
endloop
endfacet
facet normal 0.768456 0.279695 -0.575540
outer loop
vertex -0.006813 0.081590 0.012248
vertex 0.020207 0.007355 0.012248
vertex -0.008920 0.080823 0.009062
endloop
endfacet
facet normal 0.768455 0.279695 -0.575540
outer loop
vertex -0.008920 0.080823 0.009062
vertex 0.020207 0.007355 0.012248
vertex 0.018099 0.006588 0.009062
endloop
endfacet
facet normal 0.675094 0.245714 -0.695610
outer loop
vertex -0.008920 0.080823 0.009062
vertex 0.018099 0.006588 0.009062
vertex -0.011467 0.079896 0.006263
endloop
endfacet
facet normal 0.675094 0.245714 -0.695610
outer loop
vertex -0.011467 0.079896 0.006263
vertex 0.018099 0.006588 0.009062
vertex 0.015553 0.005661 0.006263
endloop
endfacet
facet normal 0.565334 0.205765 -0.798785
outer loop
vertex -0.011467 0.079896 0.006263
vertex 0.015553 0.005661 0.006263
vertex -0.014391 0.078832 0.003919
endloop
endfacet
facet normal -0.929797 -0.338419 -0.144741
outer loop
vertex -0.077478 0.139940 0.023320
vertex -0.076948 0.140133 0.019465
vertex -0.049929 0.065897 0.019465
endloop
endfacet
facet normal -0.897374 -0.326617 -0.296718
outer loop
vertex -0.049929 0.065897 0.019465
vertex -0.076948 0.140133 0.019465
vertex -0.048843 0.066293 0.015744
endloop
endfacet
facet normal -0.929797 -0.338418 -0.144741
outer loop
vertex -0.077478 0.139940 0.023320
vertex -0.049929 0.065897 0.019465
vertex -0.050459 0.065705 0.023320
endloop
endfacet
facet normal -0.939638 -0.342000 0.010752
outer loop
vertex -0.077439 0.139955 0.027216
vertex -0.077478 0.139940 0.023320
vertex -0.050459 0.065705 0.023320
endloop
endfacet
facet normal -0.939638 -0.342001 0.010754
outer loop
vertex -0.077439 0.139955 0.027216
vertex -0.050459 0.065705 0.023320
vertex -0.050419 0.065719 0.027216
endloop
endfacet
facet normal -0.926657 -0.337276 0.165985
outer loop
vertex -0.076831 0.140176 0.031058
vertex -0.077439 0.139955 0.027216
vertex -0.050419 0.065719 0.027216
endloop
endfacet
facet normal -0.926657 -0.337276 0.165985
outer loop
vertex -0.076831 0.140176 0.031058
vertex -0.050419 0.065719 0.027216
vertex -0.049812 0.065940 0.031058
endloop
endfacet
facet normal -0.891170 -0.324359 0.317188
outer loop
vertex -0.075670 0.140598 0.034753
vertex -0.076831 0.140176 0.031058
vertex -0.049812 0.065940 0.031058
endloop
endfacet
facet normal -0.891170 -0.324359 0.317186
outer loop
vertex -0.075670 0.140598 0.034753
vertex -0.049812 0.065940 0.031058
vertex -0.048650 0.066363 0.034753
endloop
endfacet
facet normal -0.834037 -0.303565 0.460685
outer loop
vertex -0.073983 0.141212 0.038211
vertex -0.075670 0.140598 0.034753
vertex -0.048650 0.066363 0.034753
endloop
endfacet
facet normal -0.834038 -0.303564 0.460684
outer loop
vertex -0.073983 0.141212 0.038211
vertex -0.048650 0.066363 0.034753
vertex -0.046964 0.066977 0.038211
endloop
endfacet
facet normal -0.756649 -0.275397 0.592992
outer loop
vertex -0.071812 0.142003 0.041348
vertex -0.073983 0.141212 0.038211
vertex -0.046964 0.066977 0.038211
endloop
endfacet
facet normal -0.756648 -0.275397 0.592993
outer loop
vertex -0.071812 0.142003 0.041348
vertex -0.046964 0.066977 0.038211
vertex -0.044793 0.067767 0.041348
endloop
endfacet
facet normal -0.660882 -0.240541 0.710897
outer loop
vertex -0.069210 0.142950 0.044088
vertex -0.071812 0.142003 0.041348
vertex -0.044793 0.067767 0.041348
endloop
endfacet
facet normal -0.660880 -0.240541 0.710899
outer loop
vertex -0.069210 0.142950 0.044088
vertex -0.044793 0.067767 0.041348
vertex -0.042190 0.068714 0.044088
endloop
endfacet
facet normal -0.549060 -0.199842 0.811540
outer loop
vertex -0.051819 0.098871 0.045000
vertex -0.068020 0.143383 0.045000
vertex -0.069210 0.142950 0.044088
endloop
endfacet
facet normal -0.549066 -0.199842 0.811536
outer loop
vertex -0.051819 0.098871 0.045000
vertex -0.069210 0.142950 0.044088
vertex -0.042190 0.068714 0.044088
endloop
endfacet
facet normal -0.549060 -0.199842 0.811539
outer loop
vertex -0.042190 0.068714 0.044088
vertex -0.041000 0.069147 0.045000
vertex -0.051819 0.098871 0.045000
endloop
endfacet
facet normal 0.549060 0.199842 0.811539
outer loop
vertex -0.040058 0.153560 0.045000
vertex -0.029240 0.123836 0.045000
vertex -0.038869 0.153993 0.044088
endloop
endfacet
facet normal 0.549060 0.199841 0.811540
outer loop
vertex -0.011849 0.079757 0.044088
vertex -0.038869 0.153993 0.044088
vertex -0.029240 0.123836 0.045000
endloop
endfacet
facet normal 0.549066 0.199841 0.811535
outer loop
vertex -0.011849 0.079757 0.044088
vertex -0.029240 0.123836 0.045000
vertex -0.013039 0.079324 0.045000
endloop
endfacet
facet normal 0.660881 0.240542 0.710898
outer loop
vertex -0.036266 0.154940 0.041348
vertex -0.038869 0.153993 0.044088
vertex -0.011849 0.079757 0.044088
endloop
endfacet
facet normal 0.660881 0.240541 0.710898
outer loop
vertex -0.036266 0.154940 0.041348
vertex -0.011849 0.079757 0.044088
vertex -0.009246 0.080705 0.041348
endloop
endfacet
facet normal 0.756649 0.275398 0.592992
outer loop
vertex -0.034095 0.155731 0.038211
vertex -0.036266 0.154940 0.041348
vertex -0.009246 0.080705 0.041348
endloop
endfacet
facet normal 0.756647 0.275397 0.592994
outer loop
vertex -0.034095 0.155731 0.038211
vertex -0.009246 0.080705 0.041348
vertex -0.007075 0.081495 0.038211
endloop
endfacet
facet normal 0.834039 0.303565 0.460682
outer loop
vertex -0.032408 0.156344 0.034753
vertex -0.034095 0.155731 0.038211
vertex -0.007075 0.081495 0.038211
endloop
endfacet
facet normal 0.834037 0.303565 0.460685
outer loop
vertex -0.032408 0.156344 0.034753
vertex -0.007075 0.081495 0.038211
vertex -0.005389 0.082109 0.034753
endloop
endfacet
facet normal 0.891170 0.324360 0.317187
outer loop
vertex -0.031247 0.156767 0.031058
vertex -0.032408 0.156344 0.034753
vertex -0.005389 0.082109 0.034753
endloop
endfacet
facet normal 0.891170 0.324359 0.317186
outer loop
vertex -0.031247 0.156767 0.031058
vertex -0.005389 0.082109 0.034753
vertex -0.004227 0.082531 0.031058
endloop
endfacet
facet normal 0.926657 0.337275 0.165986
outer loop
vertex -0.030639 0.156988 0.027216
vertex -0.031247 0.156767 0.031058
vertex -0.004227 0.082531 0.031058
endloop
endfacet
facet normal 0.926658 0.337275 0.165986
outer loop
vertex -0.030639 0.156988 0.027216
vertex -0.004227 0.082531 0.031058
vertex -0.003620 0.082753 0.027216
endloop
endfacet
facet normal 0.939638 0.342001 0.010752
outer loop
vertex -0.030600 0.157003 0.023320
vertex -0.030639 0.156988 0.027216
vertex -0.003620 0.082753 0.027216
endloop
endfacet
facet normal 0.939638 0.342000 0.010753
outer loop
vertex -0.030600 0.157003 0.023320
vertex -0.003620 0.082753 0.027216
vertex -0.003580 0.082767 0.023320
endloop
endfacet
facet normal 0.929797 0.338419 -0.144740
outer loop
vertex -0.031130 0.156810 0.019465
vertex -0.030600 0.157003 0.023320
vertex -0.003580 0.082767 0.023320
endloop
endfacet
facet normal 0.929797 0.338418 -0.144742
outer loop
vertex -0.031130 0.156810 0.019465
vertex -0.003580 0.082767 0.023320
vertex -0.004110 0.082574 0.019465
endloop
endfacet
facet normal 0.897373 0.326617 -0.296720
outer loop
vertex -0.032216 0.156414 0.015744
vertex -0.031130 0.156810 0.019465
vertex -0.004110 0.082574 0.019465
endloop
endfacet
facet normal 0.897374 0.326617 -0.296719
outer loop
vertex -0.032216 0.156414 0.015744
vertex -0.004110 0.082574 0.019465
vertex -0.005197 0.082179 0.015744
endloop
endfacet
facet normal 0.843154 0.306883 -0.441492
outer loop
vertex -0.033833 0.155826 0.012248
vertex -0.032216 0.156414 0.015744
vertex -0.005197 0.082179 0.015744
endloop
endfacet
facet normal 0.843154 0.306883 -0.441490
outer loop
vertex -0.033833 0.155826 0.012248
vertex -0.005197 0.082179 0.015744
vertex -0.006813 0.081590 0.012248
endloop
endfacet
facet normal 0.768455 0.279695 -0.575541
outer loop
vertex -0.035940 0.155059 0.009062
vertex -0.033833 0.155826 0.012248
vertex -0.006813 0.081590 0.012248
endloop
endfacet
facet normal 0.768456 0.279695 -0.575540
outer loop
vertex -0.035940 0.155059 0.009062
vertex -0.006813 0.081590 0.012248
vertex -0.008920 0.080823 0.009062
endloop
endfacet
facet normal 0.675094 0.245714 -0.695610
outer loop
vertex -0.038487 0.154132 0.006263
vertex -0.035940 0.155059 0.009062
vertex -0.008920 0.080823 0.009062
endloop
endfacet
facet normal 0.675094 0.245714 -0.695610
outer loop
vertex -0.038487 0.154132 0.006263
vertex -0.008920 0.080823 0.009062
vertex -0.011467 0.079896 0.006263
endloop
endfacet
facet normal 0.565334 0.205765 -0.798786
outer loop
vertex -0.041411 0.153068 0.003919
vertex -0.038487 0.154132 0.006263
vertex -0.011467 0.079896 0.006263
endloop
endfacet
facet normal 0.565335 0.205765 -0.798785
outer loop
vertex -0.041411 0.153068 0.003919
vertex -0.011467 0.079896 0.006263
vertex -0.014391 0.078832 0.003919
endloop
endfacet
facet normal -0.939693 -0.342020 0.000000
outer loop
vertex 0.071662 -0.226127 0.000000
vertex 0.071662 -0.226127 0.002087
vertex -0.090456 0.219287 0.000000
endloop
endfacet
facet normal -0.939693 -0.342020 0.000000
outer loop
vertex -0.090456 0.219287 0.000000
vertex 0.071662 -0.226127 0.002087
vertex -0.090456 0.219287 0.002087
endloop
endfacet
facet normal -0.342021 0.939692 0.000000
outer loop
vertex -0.090456 0.219287 0.000000
vertex -0.090456 0.219287 0.002087
vertex -0.071662 0.226127 0.000000
endloop
endfacet
facet normal -0.342020 0.939693 0.000000
outer loop
vertex -0.071662 0.226127 0.000000
vertex -0.090456 0.219287 0.002087
vertex -0.071662 0.226127 0.002087
endloop
endfacet
facet normal -0.342020 0.939692 0.000026
outer loop
vertex -0.071662 0.226127 0.002087
vertex -0.090456 0.219287 0.002087
vertex -0.068517 0.227272 0.003861
endloop
endfacet
facet normal -0.342022 0.939692 -0.000020
outer loop
vertex -0.068517 0.227272 0.003861
vertex -0.090456 0.219287 0.002087
vertex -0.065659 0.228312 0.006120
endloop
endfacet
facet normal -0.342020 0.939693 0.000015
outer loop
vertex -0.065659 0.228312 0.006120
vertex -0.090456 0.219287 0.002087
vertex -0.063156 0.229223 0.008813
endloop
endfacet
facet normal -0.342019 0.939693 0.000000
outer loop
vertex -0.063156 0.229223 0.008813
vertex -0.090456 0.219287 0.002087
vertex -0.061063 0.229985 0.011878
endloop
endfacet
facet normal -0.342022 0.939692 0.000011
outer loop
vertex -0.061063 0.229985 0.011878
vertex -0.090456 0.219287 0.002087
vertex -0.059429 0.230580 0.015243
endloop
endfacet
facet normal -0.342020 0.939693 -0.000009
outer loop
vertex -0.059429 0.230580 0.015243
vertex -0.090456 0.219287 0.002087
vertex -0.058292 0.230993 0.018833
endloop
endfacet
facet normal -0.342020 0.939693 -0.000008
outer loop
vertex -0.058292 0.230993 0.018833
vertex -0.090456 0.219287 0.002087
vertex -0.057678 0.231217 0.022564
endloop
endfacet
facet normal -0.342022 0.939692 0.000014
outer loop
vertex -0.057678 0.231217 0.022564
vertex -0.090456 0.219287 0.002087
vertex -0.057601 0.231245 0.026352
endloop
endfacet
facet normal -0.342018 0.939693 0.000000
outer loop
vertex -0.057601 0.231245 0.026352
vertex -0.090456 0.219287 0.002087
vertex -0.058062 0.231077 0.030108
endloop
endfacet
facet normal -0.342022 0.939692 -0.000012
outer loop
vertex -0.058062 0.231077 0.030108
vertex -0.090456 0.219287 0.002087
vertex -0.059051 0.230717 0.033747
endloop
endfacet
facet normal -0.342021 0.939692 0.000000
outer loop
vertex -0.059051 0.230717 0.033747
vertex -0.090456 0.219287 0.002087
vertex -0.060546 0.230173 0.037185
endloop
endfacet
facet normal -0.342018 0.939693 0.000000
outer loop
vertex -0.060546 0.230173 0.037185
vertex -0.090456 0.219287 0.002087
vertex -0.062511 0.229458 0.040343
endloop
endfacet
facet normal -0.342021 0.939692 0.000000
outer loop
vertex -0.062511 0.229458 0.040343
vertex -0.090456 0.219287 0.002087
vertex -0.064902 0.228588 0.043149
endloop
endfacet
facet normal -0.342020 0.939693 0.000000
outer loop
vertex -0.064902 0.228588 0.043149
vertex -0.090456 0.219287 0.002087
vertex -0.067947 0.227479 0.045000
endloop
endfacet
facet normal -0.342015 0.939694 -0.000016
outer loop
vertex -0.064902 0.228588 0.043149
vertex -0.067947 0.227479 0.045000
vertex -0.067042 0.227809 0.045000
endloop
endfacet
facet normal -0.342021 0.939692 0.000000
outer loop
vertex -0.071802 0.226076 0.045000
vertex -0.067947 0.227479 0.045000
vertex -0.090456 0.219287 0.002087
endloop
endfacet
facet normal -0.342022 0.939692 0.000000
outer loop
vertex -0.075396 0.224768 0.045000
vertex -0.071802 0.226076 0.045000
vertex -0.090456 0.219287 0.002087
endloop
endfacet
facet normal -0.342019 0.939693 0.000003
outer loop
vertex -0.075396 0.224768 0.045000
vertex -0.090456 0.219287 0.002087
vertex -0.093601 0.218142 0.003861
endloop
endfacet
facet normal -0.341977 0.939708 -0.000066
outer loop
vertex -0.075396 0.224768 0.045000
vertex -0.093601 0.218142 0.003861
vertex -0.075719 0.224651 0.045000
endloop
endfacet
facet normal -0.342020 0.939693 -0.000001
outer loop
vertex -0.075719 0.224651 0.045000
vertex -0.093601 0.218142 0.003861
vertex -0.096458 0.217102 0.006120
endloop
endfacet
facet normal -0.342014 0.939695 0.000000
outer loop
vertex -0.075719 0.224651 0.045000
vertex -0.096458 0.217102 0.006120
vertex -0.076065 0.224525 0.045000
endloop
endfacet
facet normal -0.342021 0.939692 0.000001
outer loop
vertex -0.076065 0.224525 0.045000
vertex -0.096458 0.217102 0.006120
vertex -0.098962 0.216191 0.008813
endloop
endfacet
facet normal -0.342030 0.939689 0.000064
outer loop
vertex -0.076065 0.224525 0.045000
vertex -0.098962 0.216191 0.008813
vertex -0.076443 0.224387 0.045000
endloop
endfacet
facet normal -0.342022 0.939692 -0.000002
outer loop
vertex -0.076443 0.224387 0.045000
vertex -0.098962 0.216191 0.008813
vertex -0.101055 0.215429 0.011878
endloop
endfacet
facet normal -0.342011 0.939696 0.000000
outer loop
vertex -0.076443 0.224387 0.045000
vertex -0.101055 0.215429 0.011878
vertex -0.076860 0.224235 0.045000
endloop
endfacet
facet normal -0.342018 0.939693 -0.000001
outer loop
vertex -0.076860 0.224235 0.045000
vertex -0.101055 0.215429 0.011878
vertex -0.102688 0.214835 0.015243
endloop
endfacet
facet normal -0.342015 0.939694 -0.000063
outer loop
vertex -0.076860 0.224235 0.045000
vertex -0.102688 0.214835 0.015243
vertex -0.077330 0.224064 0.045000
endloop
endfacet
facet normal -0.342022 0.939692 0.000007
outer loop
vertex -0.077330 0.224064 0.045000
vertex -0.102688 0.214835 0.015243
vertex -0.103825 0.214421 0.018833
endloop
endfacet
facet normal -0.342009 0.939697 -0.000062
outer loop
vertex -0.077330 0.224064 0.045000
vertex -0.103825 0.214421 0.018833
vertex -0.077869 0.223868 0.045000
endloop
endfacet
facet normal -0.342021 0.939692 0.000002
outer loop
vertex -0.077869 0.223868 0.045000
vertex -0.103825 0.214421 0.018833
vertex -0.104439 0.214197 0.022564
endloop
endfacet
facet normal -0.342031 0.939689 0.000062
outer loop
vertex -0.077869 0.223868 0.045000
vertex -0.104439 0.214197 0.022564
vertex -0.078502 0.223638 0.045000
endloop
endfacet
facet normal -0.342020 0.939693 -0.000010
outer loop
vertex -0.078502 0.223638 0.045000
vertex -0.104439 0.214197 0.022564
vertex -0.104517 0.214169 0.026352
endloop
endfacet
facet normal -0.342008 0.939697 0.000061
outer loop
vertex -0.078502 0.223638 0.045000
vertex -0.104517 0.214169 0.026352
vertex -0.079266 0.223360 0.045000
endloop
endfacet
facet normal -0.342022 0.939692 0.000002
outer loop
vertex -0.079266 0.223360 0.045000
vertex -0.104517 0.214169 0.026352
vertex -0.104056 0.214337 0.030108
endloop
endfacet
facet normal -0.342016 0.939694 -0.000062
outer loop
vertex -0.079266 0.223360 0.045000
vertex -0.104056 0.214337 0.030108
vertex -0.080218 0.223013 0.045000
endloop
endfacet
facet normal -0.342021 0.939692 0.000000
outer loop
vertex -0.083891 0.221676 0.045000
vertex -0.080218 0.223013 0.045000
vertex -0.104056 0.214337 0.030108
endloop
endfacet
facet normal -0.342019 0.939693 -0.000007
outer loop
vertex -0.083891 0.221676 0.045000
vertex -0.104056 0.214337 0.030108
vertex -0.103066 0.214697 0.033747
endloop
endfacet
facet normal -0.342027 0.939690 0.000067
outer loop
vertex -0.083891 0.221676 0.045000
vertex -0.103066 0.214697 0.033747
vertex -0.085053 0.221253 0.045000
endloop
endfacet
facet normal -0.342019 0.939693 -0.000008
outer loop
vertex -0.085053 0.221253 0.045000
vertex -0.103066 0.214697 0.033747
vertex -0.101572 0.215241 0.037185
endloop
endfacet
facet normal -0.342020 0.939692 0.000000
outer loop
vertex -0.085053 0.221253 0.045000
vertex -0.101572 0.215241 0.037185
vertex -0.086561 0.220704 0.045000
endloop
endfacet
facet normal -0.342022 0.939692 0.000003
outer loop
vertex -0.086561 0.220704 0.045000
vertex -0.101572 0.215241 0.037185
vertex -0.099606 0.215956 0.040343
endloop
endfacet
facet normal -0.342020 0.939693 0.000000
outer loop
vertex -0.086561 0.220704 0.045000
vertex -0.099606 0.215956 0.040343
vertex -0.088624 0.219954 0.045000
endloop
endfacet
facet normal -0.342018 0.939694 -0.000006
outer loop
vertex -0.088624 0.219954 0.045000
vertex -0.099606 0.215956 0.040343
vertex -0.097215 0.216827 0.043149
endloop
endfacet
facet normal -0.342021 0.939692 -0.000039
outer loop
vertex -0.088624 0.219954 0.045000
vertex -0.097215 0.216827 0.043149
vertex -0.091659 0.218849 0.045000
endloop
endfacet
facet normal -0.342019 0.939693 0.000035
outer loop
vertex -0.095075 0.217606 0.045000
vertex -0.091659 0.218849 0.045000
vertex -0.097215 0.216827 0.043149
endloop
endfacet
facet normal 0.342020 -0.939693 0.000000
outer loop
vertex 0.071662 -0.226127 0.000000
vertex 0.090456 -0.219287 0.000000
vertex 0.071662 -0.226127 0.002087
endloop
endfacet
facet normal 0.342021 -0.939692 0.000000
outer loop
vertex 0.071662 -0.226127 0.002087
vertex 0.090456 -0.219287 0.000000
vertex 0.090456 -0.219287 0.002087
endloop
endfacet
facet normal 0.342020 -0.939692 -0.000026
outer loop
vertex 0.071662 -0.226127 0.002087
vertex 0.090456 -0.219287 0.002087
vertex 0.093601 -0.218142 0.003861
endloop
endfacet
facet normal 0.342022 -0.939692 0.000020
outer loop
vertex 0.093601 -0.218142 0.003861
vertex 0.096458 -0.217102 0.006120
vertex 0.071662 -0.226127 0.002087
endloop
endfacet
facet normal 0.342020 -0.939693 -0.000002
outer loop
vertex 0.071662 -0.226127 0.002087
vertex 0.096458 -0.217102 0.006120
vertex 0.098962 -0.216191 0.008813
endloop
endfacet
facet normal 0.342019 -0.939693 -0.000005
outer loop
vertex 0.071662 -0.226127 0.002087
vertex 0.098962 -0.216191 0.008813
vertex 0.101055 -0.215429 0.011878
endloop
endfacet
facet normal 0.342022 -0.939692 0.000000
outer loop
vertex 0.101055 -0.215429 0.011878
vertex 0.102688 -0.214835 0.015243
vertex 0.071662 -0.226127 0.002087
endloop
endfacet
facet normal 0.342019 -0.939693 0.000008
outer loop
vertex 0.071662 -0.226127 0.002087
vertex 0.102688 -0.214835 0.015243
vertex 0.103825 -0.214421 0.018833
endloop
endfacet
facet normal 0.342020 -0.939693 0.000002
outer loop
vertex 0.071662 -0.226127 0.002087
vertex 0.103825 -0.214421 0.018833
vertex 0.104439 -0.214197 0.022564
endloop
endfacet
facet normal 0.342021 -0.939692 -0.000007
outer loop
vertex 0.104439 -0.214197 0.022564
vertex 0.104517 -0.214169 0.026352
vertex 0.071662 -0.226127 0.002087
endloop
endfacet
facet normal 0.342019 -0.939693 0.000001
outer loop
vertex 0.071662 -0.226127 0.002087
vertex 0.104517 -0.214169 0.026352
vertex 0.104056 -0.214337 0.030108
endloop
endfacet
facet normal 0.342022 -0.939692 0.000003
outer loop
vertex 0.071662 -0.226127 0.002087
vertex 0.104056 -0.214337 0.030108
vertex 0.103066 -0.214697 0.033747
endloop
endfacet
facet normal 0.342021 -0.939692 0.000006
outer loop
vertex 0.103066 -0.214697 0.033747
vertex 0.101572 -0.215241 0.037185
vertex 0.071662 -0.226127 0.002087
endloop
endfacet
facet normal 0.342019 -0.939693 -0.000004
outer loop
vertex 0.071662 -0.226127 0.002087
vertex 0.101572 -0.215241 0.037185
vertex 0.099606 -0.215956 0.040343
endloop
endfacet
facet normal 0.342021 -0.939692 -0.000002
outer loop
vertex 0.071662 -0.226127 0.002087
vertex 0.099606 -0.215956 0.040343
vertex 0.097215 -0.216827 0.043149
endloop
endfacet
facet normal 0.342019 -0.939693 0.000005
outer loop
vertex 0.094170 -0.217935 0.045000
vertex 0.071662 -0.226127 0.002087
vertex 0.097215 -0.216827 0.043149
endloop
endfacet
facet normal 0.342016 -0.939694 -0.000033
outer loop
vertex 0.094170 -0.217935 0.045000
vertex 0.097215 -0.216827 0.043149
vertex 0.095075 -0.217605 0.045000
endloop
endfacet
facet normal 0.342021 -0.939692 -0.000005
outer loop
vertex 0.090315 -0.219338 0.045000
vertex 0.071662 -0.226127 0.002087
vertex 0.094170 -0.217935 0.045000
endloop
endfacet
facet normal 0.342022 -0.939692 0.000000
outer loop
vertex 0.086722 -0.220646 0.045000
vertex 0.071662 -0.226127 0.002087
vertex 0.090315 -0.219338 0.045000
endloop
endfacet
facet normal 0.342021 -0.939692 0.000000
outer loop
vertex 0.078227 -0.223738 0.045000
vertex 0.058062 -0.231077 0.030108
vertex 0.081900 -0.222401 0.045000
endloop
endfacet
facet normal 0.342022 -0.939692 0.000000
outer loop
vertex 0.058062 -0.231077 0.030108
vertex 0.057601 -0.231245 0.026352
vertex 0.082851 -0.222055 0.045000
endloop
endfacet
facet normal 0.342015 -0.939694 0.000035
outer loop
vertex 0.058062 -0.231077 0.030108
vertex 0.082851 -0.222055 0.045000
vertex 0.081900 -0.222401 0.045000
endloop
endfacet
facet normal 0.342020 -0.939693 0.000000
outer loop
vertex 0.057601 -0.231245 0.026352
vertex 0.057678 -0.231217 0.022564
vertex 0.083615 -0.221777 0.045000
endloop
endfacet
facet normal 0.342009 -0.939697 0.000033
outer loop
vertex 0.057601 -0.231245 0.026352
vertex 0.083615 -0.221777 0.045000
vertex 0.082851 -0.222055 0.045000
endloop
endfacet
facet normal 0.342019 -0.939693 0.000000
outer loop
vertex 0.067042 -0.227809 0.045000
vertex 0.064902 -0.228588 0.043149
vertex 0.070459 -0.226565 0.045000
endloop
endfacet
facet normal 0.342018 -0.939694 0.000000
outer loop
vertex 0.064902 -0.228588 0.043149
vertex 0.062511 -0.229458 0.040343
vertex 0.073493 -0.225461 0.045000
endloop
endfacet
facet normal 0.342020 -0.939693 0.000019
outer loop
vertex 0.064902 -0.228588 0.043149
vertex 0.073493 -0.225461 0.045000
vertex 0.070459 -0.226565 0.045000
endloop
endfacet
facet normal 0.342022 -0.939692 0.000000
outer loop
vertex 0.062511 -0.229458 0.040343
vertex 0.060546 -0.230173 0.037185
vertex 0.075556 -0.224710 0.045000
endloop
endfacet
facet normal 0.342021 -0.939692 0.000011
outer loop
vertex 0.062511 -0.229458 0.040343
vertex 0.075556 -0.224710 0.045000
vertex 0.073493 -0.225461 0.045000
endloop
endfacet
facet normal 0.342019 -0.939693 0.000019
outer loop
vertex 0.060546 -0.230173 0.037185
vertex 0.059051 -0.230717 0.033747
vertex 0.077064 -0.224161 0.045000
endloop
endfacet
facet normal 0.342020 -0.939692 -0.000005
outer loop
vertex 0.060546 -0.230173 0.037185
vertex 0.077064 -0.224161 0.045000
vertex 0.075556 -0.224710 0.045000
endloop
endfacet
facet normal 0.342018 -0.939693 0.000000
outer loop
vertex 0.059051 -0.230717 0.033747
vertex 0.058062 -0.231077 0.030108
vertex 0.078227 -0.223738 0.045000
endloop
endfacet
facet normal 0.342023 -0.939691 -0.000050
outer loop
vertex 0.059051 -0.230717 0.033747
vertex 0.078227 -0.223738 0.045000
vertex 0.077064 -0.224161 0.045000
endloop
endfacet
facet normal 0.342021 -0.939692 0.000000
outer loop
vertex 0.057678 -0.231217 0.022564
vertex 0.058292 -0.230993 0.018833
vertex 0.084249 -0.221546 0.045000
endloop
endfacet
facet normal 0.342031 -0.939689 -0.000048
outer loop
vertex 0.057678 -0.231217 0.022564
vertex 0.084249 -0.221546 0.045000
vertex 0.083615 -0.221777 0.045000
endloop
endfacet
facet normal 0.342021 -0.939692 -0.000007
outer loop
vertex 0.058292 -0.230993 0.018833
vertex 0.059429 -0.230580 0.015243
vertex 0.084788 -0.221350 0.045000
endloop
endfacet
facet normal 0.342009 -0.939697 0.000046
outer loop
vertex 0.058292 -0.230993 0.018833
vertex 0.084788 -0.221350 0.045000
vertex 0.084249 -0.221546 0.045000
endloop
endfacet
facet normal 0.342017 -0.939694 0.000006
outer loop
vertex 0.059429 -0.230580 0.015243
vertex 0.061063 -0.229985 0.011878
vertex 0.085258 -0.221179 0.045000
endloop
endfacet
facet normal 0.342025 -0.939691 0.000049
outer loop
vertex 0.059429 -0.230580 0.015243
vertex 0.085258 -0.221179 0.045000
vertex 0.084788 -0.221350 0.045000
endloop
endfacet
facet normal 0.342023 -0.939692 0.000000
outer loop
vertex 0.061063 -0.229985 0.011878
vertex 0.063156 -0.229223 0.008813
vertex 0.085675 -0.221027 0.045000
endloop
endfacet
facet normal 0.342010 -0.939696 -0.000043
outer loop
vertex 0.061063 -0.229985 0.011878
vertex 0.085675 -0.221027 0.045000
vertex 0.085258 -0.221179 0.045000
endloop
endfacet
facet normal 0.342021 -0.939692 0.000000
outer loop
vertex 0.063156 -0.229223 0.008813
vertex 0.065659 -0.228312 0.006120
vertex 0.086052 -0.220890 0.045000
endloop
endfacet
facet normal 0.342021 -0.939692 -0.000059
outer loop
vertex 0.063156 -0.229223 0.008813
vertex 0.086052 -0.220890 0.045000
vertex 0.085675 -0.221027 0.045000
endloop
endfacet
facet normal 0.342018 -0.939693 0.000000
outer loop
vertex 0.065659 -0.228312 0.006120
vertex 0.068517 -0.227272 0.003861
vertex 0.086399 -0.220763 0.045000
endloop
endfacet
facet normal 0.342025 -0.939691 -0.000018
outer loop
vertex 0.065659 -0.228312 0.006120
vertex 0.086399 -0.220763 0.045000
vertex 0.086052 -0.220890 0.045000
endloop
endfacet
facet normal 0.342021 -0.939692 0.000000
outer loop
vertex 0.068517 -0.227272 0.003861
vertex 0.071662 -0.226127 0.002087
vertex 0.086722 -0.220646 0.045000
endloop
endfacet
facet normal 0.341978 -0.939708 0.000017
outer loop
vertex 0.068517 -0.227272 0.003861
vertex 0.086722 -0.220646 0.045000
vertex 0.086399 -0.220763 0.045000
endloop
endfacet
facet normal 0.000000 0.000000 1.000000
outer loop
vertex 0.094170 -0.217935 0.045000
vertex 0.095075 -0.217605 0.045000
vertex 0.085077 -0.190020 0.045000
endloop
endfacet
facet normal 0.000000 0.000000 1.000000
outer loop
vertex 0.068020 -0.143383 0.045000
vertex 0.051819 -0.098871 0.045000
vertex 0.041000 -0.069147 0.045000
endloop
endfacet
facet normal 0.000009 0.000000 1.000000
outer loop
vertex 0.094170 -0.217935 0.045000
vertex 0.085077 -0.190020 0.045000
vertex 0.068020 -0.143383 0.045000
endloop
endfacet
facet normal 1.000000 0.000000 0.000000
outer loop
vertex 0.086399 -0.220763 0.045000
vertex 0.086722 -0.220646 0.045000
vertex 0.090315 -0.219338 0.045000
endloop
endfacet
facet normal 0.000000 0.000000 1.000000
outer loop
vertex 0.090315 -0.219338 0.045000
vertex 0.094170 -0.217935 0.045000
vertex 0.068020 -0.143383 0.045000
endloop
endfacet
facet normal -0.894427 0.000000 0.447214
outer loop
vertex 0.041000 -0.069147 0.045000
vertex 0.024799 -0.024635 0.045000
vertex 0.013981 0.005089 0.045000
endloop
endfacet
facet normal 0.000001 0.000000 1.000000
outer loop
vertex 0.090315 -0.219338 0.045000
vertex 0.068020 -0.143383 0.045000
vertex 0.041000 -0.069147 0.045000
endloop
endfacet
facet normal -0.000001 0.000000 1.000000
outer loop
vertex 0.086399 -0.220763 0.045000
vertex 0.090315 -0.219338 0.045000
vertex 0.041000 -0.069147 0.045000
endloop
endfacet
facet normal 0.000000 0.000000 1.000000
outer loop
vertex 0.041000 -0.069147 0.045000
vertex 0.013981 0.005089 0.045000
vertex -0.002220 0.049601 0.045000
endloop
endfacet
facet normal -1.000000 0.000000 0.000000
outer loop
vertex -0.002220 0.049601 0.045000
vertex -0.013039 0.079324 0.045000
vertex -0.029240 0.123836 0.045000
endloop
endfacet
facet normal 0.000001 0.000000 1.000000
outer loop
vertex 0.086399 -0.220763 0.045000
vertex 0.041000 -0.069147 0.045000
vertex -0.002220 0.049601 0.045000
endloop
endfacet
facet normal -1.000000 0.000000 0.000000
outer loop
vertex 0.085258 -0.221179 0.045000
vertex 0.085675 -0.221027 0.045000
vertex 0.086052 -0.220890 0.045000
endloop
endfacet
facet normal 0.000018 0.000000 1.000000
outer loop
vertex 0.086052 -0.220890 0.045000
vertex 0.086399 -0.220763 0.045000
vertex -0.002220 0.049601 0.045000
endloop
endfacet
facet normal -0.000002 0.000000 1.000000
outer loop
vertex 0.086052 -0.220890 0.045000
vertex -0.002220 0.049601 0.045000
vertex -0.029240 0.123836 0.045000
endloop
endfacet
facet normal 1.000000 0.000000 0.000000
outer loop
vertex 0.084788 -0.221350 0.045000
vertex 0.085258 -0.221179 0.045000
vertex 0.086052 -0.220890 0.045000
endloop
endfacet
facet normal 0.000000 0.000000 0.000000
outer loop
vertex 0.082851 -0.222055 0.045000
vertex 0.083615 -0.221777 0.045000
vertex 0.084249 -0.221546 0.045000
endloop
endfacet
facet normal 0.000000 0.000000 0.000000
outer loop
vertex 0.084249 -0.221546 0.045000
vertex 0.084788 -0.221350 0.045000
vertex 0.086052 -0.220890 0.045000
endloop
endfacet
facet normal -0.000004 0.000000 1.000000
outer loop
vertex 0.086052 -0.220890 0.045000
vertex -0.029240 0.123836 0.045000
vertex -0.040058 0.153560 0.045000
endloop
endfacet
facet normal -0.000055 0.000000 1.000000
outer loop
vertex -0.040058 0.153560 0.045000
vertex -0.056969 0.200250 0.045000
vertex -0.067042 0.227809 0.045000
endloop
endfacet
facet normal -0.124035 0.000000 0.992278
outer loop
vertex -0.067042 0.227809 0.045000
vertex -0.067947 0.227479 0.045000
vertex -0.071802 0.226076 0.045000
endloop
endfacet
facet normal -1.000000 0.000000 0.000000
outer loop
vertex -0.075396 0.224768 0.045000
vertex -0.075719 0.224651 0.045000
vertex -0.076065 0.224525 0.045000
endloop
endfacet
facet normal 1.000000 0.000000 0.000000
outer loop
vertex -0.067042 0.227809 0.045000
vertex -0.071802 0.226076 0.045000
vertex -0.075396 0.224768 0.045000
endloop
endfacet
facet normal 0.000003 0.000000 1.000000
outer loop
vertex 0.086052 -0.220890 0.045000
vertex -0.040058 0.153560 0.045000
vertex -0.067042 0.227809 0.045000
endloop
endfacet
facet normal 0.000000 0.000000 1.000000
outer loop
vertex 0.081900 -0.222401 0.045000
vertex 0.082851 -0.222055 0.045000
vertex 0.084249 -0.221546 0.045000
endloop
endfacet
facet normal 0.000000 0.000000 1.000000
outer loop
vertex 0.084249 -0.221546 0.045000
vertex 0.086052 -0.220890 0.045000
vertex -0.067042 0.227809 0.045000
endloop
endfacet
facet normal 0.041631 0.000000 0.999133
outer loop
vertex -0.075396 0.224768 0.045000
vertex -0.076065 0.224525 0.045000
vertex -0.076443 0.224387 0.045000
endloop
endfacet
facet normal -0.000000 0.000000 1.000000
outer loop
vertex 0.084249 -0.221546 0.045000
vertex -0.067042 0.227809 0.045000
vertex -0.075396 0.224768 0.045000
endloop
endfacet
facet normal -0.062378 0.000000 -0.998053
outer loop
vertex 0.078227 -0.223738 0.045000
vertex 0.081900 -0.222401 0.045000
vertex 0.084249 -0.221546 0.045000
endloop
endfacet
facet normal -0.062378 0.000000 0.998053
outer loop
vertex 0.075556 -0.224710 0.045000
vertex 0.077064 -0.224161 0.045000
vertex 0.078227 -0.223738 0.045000
endloop
endfacet
facet normal 0.000000 0.000000 0.000000
outer loop
vertex 0.070459 -0.226565 0.045000
vertex 0.073493 -0.225461 0.045000
vertex 0.075556 -0.224710 0.045000
endloop
endfacet
facet normal 0.000001 0.000000 1.000000
outer loop
vertex 0.056969 -0.200250 0.045000
vertex 0.067042 -0.227809 0.045000
vertex 0.070459 -0.226565 0.045000
endloop
endfacet
facet normal 0.000000 0.000000 1.000000
outer loop
vertex 0.040058 -0.153560 0.045000
vertex 0.056969 -0.200250 0.045000
vertex 0.070459 -0.226565 0.045000
endloop
endfacet
facet normal 0.000000 0.000000 1.000000
outer loop
vertex 0.070459 -0.226565 0.045000
vertex 0.075556 -0.224710 0.045000
vertex 0.078227 -0.223738 0.045000
endloop
endfacet
facet normal 0.000000 0.000000 1.000000
outer loop
vertex 0.078227 -0.223738 0.045000
vertex 0.084249 -0.221546 0.045000
vertex -0.075396 0.224768 0.045000
endloop
endfacet
facet normal 0.000000 0.000000 0.000000
outer loop
vertex -0.076443 0.224387 0.045000
vertex -0.076860 0.224235 0.045000
vertex -0.077330 0.224064 0.045000
endloop
endfacet
facet normal 0.000007 0.000000 1.000000
outer loop
vertex 0.078227 -0.223738 0.045000
vertex -0.075396 0.224768 0.045000
vertex -0.076443 0.224387 0.045000
endloop
endfacet
facet normal -0.000000 0.000000 1.000000
outer loop
vertex 0.040058 -0.153560 0.045000
vertex 0.070459 -0.226565 0.045000
vertex 0.078227 -0.223738 0.045000
endloop
endfacet
facet normal 0.894427 0.000000 0.447214
outer loop
vertex 0.002220 -0.049601 0.045000
vertex 0.013039 -0.079324 0.045000
vertex 0.029240 -0.123836 0.045000
endloop
endfacet
facet normal 0.000000 0.000000 1.000000
outer loop
vertex 0.029240 -0.123836 0.045000
vertex 0.040058 -0.153560 0.045000
vertex 0.078227 -0.223738 0.045000
endloop
endfacet
facet normal -0.000010 0.000000 1.000000
outer loop
vertex 0.078227 -0.223738 0.045000
vertex -0.076443 0.224387 0.045000
vertex -0.077330 0.224064 0.045000
endloop
endfacet
facet normal 0.000000 0.000000 1.000000
outer loop
vertex -0.077330 0.224064 0.045000
vertex -0.077869 0.223868 0.045000
vertex -0.078502 0.223638 0.045000
endloop
endfacet
facet normal 0.000000 0.000000 1.000000
outer loop
vertex -0.078502 0.223638 0.045000
vertex -0.079266 0.223360 0.045000
vertex -0.080218 0.223013 0.045000
endloop
endfacet
facet normal -0.062378 0.000000 0.998053
outer loop
vertex -0.080218 0.223013 0.045000
vertex -0.083891 0.221676 0.045000
vertex -0.085053 0.221253 0.045000
endloop
endfacet
facet normal 0.000000 0.000000 0.000000
outer loop
vertex -0.085053 0.221253 0.045000
vertex -0.086561 0.220704 0.045000
vertex -0.088624 0.219954 0.045000
endloop
endfacet
facet normal 0.062378 0.000000 -0.998053
outer loop
vertex -0.088624 0.219954 0.045000
vertex -0.091659 0.218849 0.045000
vertex -0.095075 0.217606 0.045000
endloop
endfacet
facet normal -0.000110 0.000000 1.000000
outer loop
vertex -0.095075 0.217606 0.045000
vertex -0.085077 0.190020 0.045000
vertex -0.068020 0.143383 0.045000
endloop
endfacet
facet normal 0.000000 0.000000 1.000000
outer loop
vertex -0.068020 0.143383 0.045000
vertex -0.051819 0.098871 0.045000
vertex -0.041000 0.069147 0.045000
endloop
endfacet
facet normal 0.824042 0.000000 0.566529
outer loop
vertex -0.041000 0.069147 0.045000
vertex -0.024799 0.024635 0.045000
vertex -0.013981 -0.005089 0.045000
endloop
endfacet
facet normal 0.000000 0.000000 0.000000
outer loop
vertex -0.013981 -0.005089 0.045000
vertex 0.002220 -0.049601 0.045000
vertex 0.029240 -0.123836 0.045000
endloop
endfacet
facet normal 0.000000 0.000000 1.000000
outer loop
vertex 0.029240 -0.123836 0.045000
vertex 0.078227 -0.223738 0.045000
vertex -0.077330 0.224064 0.045000
endloop
endfacet
facet normal 1.000000 0.000000 0.000000
outer loop
vertex -0.078502 0.223638 0.045000
vertex -0.080218 0.223013 0.045000
vertex -0.085053 0.221253 0.045000
endloop
endfacet
facet normal 0.000003 0.000000 1.000000
outer loop
vertex 0.029240 -0.123836 0.045000
vertex -0.077330 0.224064 0.045000
vertex -0.078502 0.223638 0.045000
endloop
endfacet
facet normal 0.000000 0.000000 0.000000
outer loop
vertex -0.041000 0.069147 0.045000
vertex -0.013981 -0.005089 0.045000
vertex 0.029240 -0.123836 0.045000
endloop
endfacet
facet normal 0.000001 0.000000 1.000000
outer loop
vertex -0.088624 0.219954 0.045000
vertex -0.095075 0.217606 0.045000
vertex -0.068020 0.143383 0.045000
endloop
endfacet
facet normal 0.000000 0.000000 1.000000
outer loop
vertex -0.041000 0.069147 0.045000
vertex 0.029240 -0.123836 0.045000
vertex -0.078502 0.223638 0.045000
endloop
endfacet
facet normal 0.000000 0.000000 1.000000
outer loop
vertex -0.088624 0.219954 0.045000
vertex -0.068020 0.143383 0.045000
vertex -0.041000 0.069147 0.045000
endloop
endfacet
facet normal 0.000001 0.000000 1.000000
outer loop
vertex -0.041000 0.069147 0.045000
vertex -0.078502 0.223638 0.045000
vertex -0.085053 0.221253 0.045000
endloop
endfacet
facet normal -0.000003 0.000000 1.000000
outer loop
vertex -0.085053 0.221253 0.045000
vertex -0.088624 0.219954 0.045000
vertex -0.041000 0.069147 0.045000
endloop
endfacet
solid cylinder
