solid bottom
facet normal 0.000000 0.000000 -1.000000
outer loop
vertex -2.000000 0.3950000 0.000000
vertex 4.000000 0.3950000 0.000000
vertex 4.000000 -0.3950000 0.000000
endloop
endfacet
facet normal 0.000000 0.000000 -1.000000
outer loop
vertex -2.000000 0.3950000 0.000000
vertex 4.000000 -0.3950000 0.000000
vertex -2.000000 -0.3950000 0.000000
endloop
endfacet
endsolid bottom
solid frontAndBack
facet normal 0.000000 1.000000 0.000000
outer loop
vertex -2.000000 0.395000 0.000000
vertex -2.000000 0.395000 0.045000
vertex 4.000000 0.395000 0.045000
endloop
endfacet
facet normal 0.000000 1.000000 0.000000
outer loop
vertex -2.000000 0.395000 0.000000
vertex 4.000000 0.395000 0.045000
vertex 4.000000 0.395000 0.000000
endloop
endfacet
facet normal 0.000000 -1.000000 0.000000
outer loop
vertex 4.000000 -0.395000 0.000000
vertex 4.000000 -0.395000 0.045000
vertex -2.000000 -0.395000 0.045000
endloop
endfacet
facet normal 0.000000 -1.000000 0.000000
outer loop
vertex 4.000000 -0.395000 0.000000
vertex -2.000000 -0.395000 0.045000
vertex -2.000000 -0.395000 0.000000
endloop
endfacet
endsolid frontAndBack
solid outlet
facet normal 1.000000 0.000000 0.000000
outer loop
vertex 4.000000 0.395000 0.000000
vertex 4.000000 0.395000 0.045000
vertex 4.000000 -0.395000 0.045000
endloop
endfacet
facet normal 1.000000 0.000000 0.000000
outer loop
vertex 4.000000 0.395000 0.000000
vertex 4.000000 -0.395000 0.045000
vertex 4.000000 -0.395000 0.000000
endloop
endfacet
endsolid outlet
solid inlet
facet normal -1.000000 0.000000 0.000000
outer loop
vertex -2.000000 -0.395000 0.000000
vertex -2.000000 -0.395000 0.045000
vertex -2.000000 0.395000 0.045000
endloop
endfacet
facet normal -1.000000 0.000000 0.000000
outer loop
vertex -2.000000 -0.395000 0.000000
vertex -2.000000 0.395000 0.045000
vertex -2.000000 0.395000 0.000000
endloop
endfacet
endsolid inlet
solid top
facet normal 0.000000 0.000000 1.000000
outer loop
vertex 4.000000 0.395000 0.045000
vertex -2.000000 0.395000 0.045000
vertex -2.000000 -0.395000 0.045000
endloop
endfacet
facet normal 0.000000 0.000000 1.000000
outer loop
vertex 4.000000 0.395000 0.045000
vertex -2.000000 -0.395000 0.045000
vertex 4.000000 -0.395000 0.045000
endloop
endfacet
endsolid top
solid cylinder
facet normal 0.000000 0.000000 -1.000000
outer loop
vertex 0.160001 0.054369 0.000000
vertex 0.144680 0.041513 0.000000
vertex -0.144680 0.417474 0.000000
endloop
endfacet
facet normal 0.000000 0.000000 -1.000000
outer loop
vertex -0.144680 0.417474 0.000000
vertex 0.144680 0.041513 0.000000
vertex -0.160001 0.404618 0.000000
endloop
endfacet
facet normal 0.766044 0.642788 0.000000
outer loop
vertex 0.160001 0.054369 0.002087
vertex 0.160001 0.054369 0.000000
vertex -0.144680 0.417474 0.002087
endloop
endfacet
facet normal 0.766044 0.642788 0.000000
outer loop
vertex -0.144680 0.417474 0.002087
vertex 0.160001 0.054369 0.000000
vertex -0.144680 0.417474 0.000000
endloop
endfacet
facet normal -0.358798 -0.300927 -0.883576
outer loop
vertex 0.142116 0.039362 0.003861
vertex 0.091266 0.099820 0.003919
vertex 0.144680 0.041513 0.002087
endloop
endfacet
facet normal -0.360196 -0.302240 -0.882559
outer loop
vertex 0.144680 0.041513 0.002087
vertex 0.091266 0.099820 0.003919
vertex 0.040486 0.160338 0.003919
endloop
endfacet
facet normal -0.360196 -0.302240 -0.882559
outer loop
vertex 0.144680 0.041513 0.002087
vertex 0.040486 0.160338 0.003919
vertex -0.010295 0.220855 0.003919
endloop
endfacet
facet normal -0.460864 -0.386711 -0.798786
outer loop
vertex -0.010295 0.220855 0.003919
vertex 0.040486 0.160338 0.003919
vertex -0.012679 0.218855 0.006263
endloop
endfacet
facet normal -0.460866 -0.386713 -0.798784
outer loop
vertex -0.010295 0.220855 0.003919
vertex -0.012679 0.218855 0.006263
vertex -0.063459 0.279373 0.006263
endloop
endfacet
facet normal -0.550345 -0.461794 -0.695606
outer loop
vertex -0.063459 0.279373 0.006263
vertex -0.012679 0.218855 0.006263
vertex -0.065535 0.277630 0.009062
endloop
endfacet
facet normal -0.550344 -0.461794 -0.695606
outer loop
vertex -0.063459 0.279373 0.006263
vertex -0.065535 0.277630 0.009062
vertex -0.116315 0.338148 0.009062
endloop
endfacet
facet normal -0.626447 -0.525651 -0.575548
outer loop
vertex -0.116315 0.338148 0.009062
vertex -0.065535 0.277630 0.009062
vertex -0.118033 0.336707 0.012248
endloop
endfacet
facet normal -0.626211 -0.525950 -0.575531
outer loop
vertex -0.116315 0.338148 0.009062
vertex -0.118033 0.336707 0.012248
vertex -0.168641 0.397368 0.011878
endloop
endfacet
facet normal -0.680853 -0.570822 -0.458913
outer loop
vertex -0.168641 0.397368 0.011878
vertex -0.118033 0.336707 0.012248
vertex -0.169973 0.396251 0.015243
endloop
endfacet
facet normal -0.687050 -0.577104 -0.441491
outer loop
vertex -0.169973 0.396251 0.015243
vertex -0.118033 0.336707 0.012248
vertex -0.119351 0.335601 0.015744
endloop
endfacet
facet normal -0.726206 -0.608778 -0.319396
outer loop
vertex -0.169973 0.396251 0.015243
vertex -0.119351 0.335601 0.015744
vertex -0.170900 0.395473 0.018833
endloop
endfacet
facet normal -0.731203 -0.614249 -0.296714
outer loop
vertex -0.170900 0.395473 0.018833
vertex -0.119351 0.335601 0.015744
vertex -0.120236 0.334858 0.019465
endloop
endfacet
facet normal -0.754886 -0.632749 -0.172557
outer loop
vertex -0.170900 0.395473 0.018833
vertex -0.120236 0.334858 0.019465
vertex -0.171401 0.395053 0.022564
endloop
endfacet
facet normal -0.757590 -0.636480 -0.144743
outer loop
vertex -0.171401 0.395053 0.022564
vertex -0.120236 0.334858 0.019465
vertex -0.120668 0.334495 0.023320
endloop
endfacet
facet normal -0.766237 -0.642190 -0.021747
outer loop
vertex -0.171401 0.395053 0.022564
vertex -0.120668 0.334495 0.023320
vertex -0.171464 0.395000 0.026352
endloop
endfacet
facet normal -0.765572 -0.643260 0.010757
outer loop
vertex -0.171464 0.395000 0.026352
vertex -0.120668 0.334495 0.023320
vertex -0.120636 0.334522 0.027216
endloop
endfacet
facet normal -0.760000 -0.636879 0.129561
outer loop
vertex -0.171464 0.395000 0.026352
vertex -0.120636 0.334522 0.027216
vertex -0.171088 0.395315 0.030108
endloop
endfacet
facet normal -0.754954 -0.634423 0.165988
outer loop
vertex -0.171088 0.395315 0.030108
vertex -0.120636 0.334522 0.027216
vertex -0.120141 0.334938 0.031058
endloop
endfacet
facet normal -0.736319 -0.616936 0.277893
outer loop
vertex -0.171088 0.395315 0.030108
vertex -0.120141 0.334938 0.031058
vertex -0.170281 0.395992 0.033747
endloop
endfacet
facet normal -0.725993 -0.610189 0.317182
outer loop
vertex -0.170281 0.395992 0.033747
vertex -0.120141 0.334938 0.031058
vertex -0.119194 0.335732 0.034753
endloop
endfacet
facet normal -0.695734 -0.582821 0.419850
outer loop
vertex -0.170281 0.395992 0.033747
vertex -0.119194 0.335732 0.034753
vertex -0.169063 0.397014 0.037185
endloop
endfacet
facet normal -0.679391 -0.571145 0.460675
outer loop
vertex -0.169063 0.397014 0.037185
vertex -0.119194 0.335732 0.034753
vertex -0.117819 0.336886 0.038211
endloop
endfacet
facet normal -0.639189 -0.535319 0.552150
outer loop
vertex -0.169063 0.397014 0.037185
vertex -0.117819 0.336886 0.038211
vertex -0.167461 0.398359 0.040343
endloop
endfacet
facet normal -0.616278 -0.518235 0.592987
outer loop
vertex -0.167461 0.398359 0.040343
vertex -0.117819 0.336886 0.038211
vertex -0.116049 0.338371 0.041348
endloop
endfacet
facet normal -0.567975 -0.475517 0.671779
outer loop
vertex -0.167461 0.398359 0.040343
vertex -0.116049 0.338371 0.041348
vertex -0.165511 0.399995 0.043149
endloop
endfacet
facet normal -0.538188 -0.452753 0.710893
outer loop
vertex -0.165511 0.399995 0.043149
vertex -0.116049 0.338371 0.041348
vertex -0.113927 0.340151 0.044088
endloop
endfacet
facet normal -0.483725 -0.404784 0.775989
outer loop
vertex -0.165511 0.399995 0.043149
vertex -0.113927 0.340151 0.044088
vertex -0.163260 0.401884 0.045539
endloop
endfacet
facet normal -0.447012 -0.376282 0.811537
outer loop
vertex -0.163260 0.401884 0.045539
vertex -0.113927 0.340151 0.044088
vertex -0.111505 0.342184 0.046365
endloop
endfacet
facet normal -0.388385 -0.324753 0.862376
outer loop
vertex -0.163260 0.401884 0.045539
vertex -0.111505 0.342184 0.046365
vertex -0.160757 0.403984 0.047456
endloop
endfacet
facet normal -0.344973 -0.290689 0.892465
outer loop
vertex -0.160757 0.403984 0.047456
vertex -0.111505 0.342184 0.046365
vertex -0.108842 0.344419 0.048123
endloop
endfacet
facet normal -0.284125 -0.237246 0.928971
outer loop
vertex -0.160757 0.403984 0.047456
vertex -0.108842 0.344419 0.048123
vertex -0.158061 0.406246 0.048859
endloop
endfacet
facet normal -0.234543 -0.198046 0.951718
outer loop
vertex -0.158061 0.406246 0.048859
vertex -0.108842 0.344419 0.048123
vertex -0.106001 0.346802 0.049319
endloop
endfacet
facet normal -0.173362 -0.144289 0.974231
outer loop
vertex -0.158061 0.406246 0.048859
vertex -0.106001 0.346802 0.049319
vertex -0.155234 0.408618 0.049713
endloop
endfacet
facet normal -0.118404 -0.100605 0.987856
outer loop
vertex -0.155234 0.408618 0.049713
vertex -0.106001 0.346802 0.049319
vertex -0.103053 0.349276 0.049924
endloop
endfacet
facet normal -0.058623 -0.048004 0.997125
outer loop
vertex -0.155234 0.408618 0.049713
vertex -0.103053 0.349276 0.049924
vertex -0.152341 0.411046 0.050000
endloop
endfacet
facet normal 0.000619 -0.000737 1.000000
outer loop
vertex -0.152341 0.411046 0.050000
vertex -0.103053 0.349276 0.049924
vertex -0.100068 0.351781 0.049924
endloop
endfacet
facet normal 0.057455 0.049397 0.997125
outer loop
vertex -0.152341 0.411046 0.050000
vertex -0.100068 0.351781 0.049924
vertex -0.149447 0.413474 0.049713
endloop
endfacet
facet normal 0.119636 0.099135 0.987856
outer loop
vertex -0.149447 0.413474 0.049713
vertex -0.100068 0.351781 0.049924
vertex -0.097120 0.354255 0.049319
endloop
endfacet
facet normal 0.172200 0.145671 0.974231
outer loop
vertex -0.149447 0.413474 0.049713
vertex -0.097120 0.354255 0.049319
vertex -0.146620 0.415846 0.048859
endloop
endfacet
facet normal 0.235765 0.196589 0.951718
outer loop
vertex -0.146620 0.415846 0.048859
vertex -0.097120 0.354255 0.049319
vertex -0.094279 0.356638 0.048123
endloop
endfacet
facet normal 0.282981 0.238613 0.928970
outer loop
vertex -0.146620 0.415846 0.048859
vertex -0.094279 0.356638 0.048123
vertex -0.143924 0.418108 0.047456
endloop
endfacet
facet normal 0.346176 0.289254 0.892465
outer loop
vertex -0.143924 0.418108 0.047456
vertex -0.094279 0.356638 0.048123
vertex -0.091616 0.358873 0.046365
endloop
endfacet
facet normal 0.387260 0.326090 0.862377
outer loop
vertex -0.143924 0.418108 0.047456
vertex -0.091616 0.358873 0.046365
vertex -0.141422 0.420208 0.045539
endloop
endfacet
facet normal 0.448186 0.374879 0.811538
outer loop
vertex -0.141422 0.420208 0.045539
vertex -0.091616 0.358873 0.046365
vertex -0.089193 0.360906 0.044088
endloop
endfacet
facet normal 0.482642 0.406094 0.775980
outer loop
vertex -0.141422 0.420208 0.045539
vertex -0.089193 0.360906 0.044088
vertex -0.139170 0.422098 0.043149
endloop
endfacet
facet normal 0.539324 0.451387 0.710900
outer loop
vertex -0.139170 0.422098 0.043149
vertex -0.089193 0.360906 0.044088
vertex -0.087072 0.362686 0.041348
endloop
endfacet
facet normal 0.566922 0.476773 0.671779
outer loop
vertex -0.139170 0.422098 0.043149
vertex -0.087072 0.362686 0.041348
vertex -0.137220 0.423734 0.040343
endloop
endfacet
facet normal 0.617373 0.516921 0.592995
outer loop
vertex -0.137220 0.423734 0.040343
vertex -0.087072 0.362686 0.041348
vertex -0.085302 0.364171 0.038211
endloop
endfacet
facet normal 0.638186 0.536524 0.552142
outer loop
vertex -0.137220 0.423734 0.040343
vertex -0.085302 0.364171 0.038211
vertex -0.135618 0.425078 0.037185
endloop
endfacet
facet normal 0.680438 0.569890 0.460683
outer loop
vertex -0.135618 0.425078 0.037185
vertex -0.085302 0.364171 0.038211
vertex -0.083927 0.365325 0.034753
endloop
endfacet
facet normal 0.694787 0.583964 0.419829
outer loop
vertex -0.135618 0.425078 0.037185
vertex -0.083927 0.365325 0.034753
vertex -0.134400 0.426100 0.033747
endloop
endfacet
facet normal 0.726983 0.609004 0.317191
outer loop
vertex -0.134400 0.426100 0.033747
vertex -0.083927 0.365325 0.034753
vertex -0.082980 0.366119 0.031058
endloop
endfacet
facet normal 0.735425 0.618001 0.277893
outer loop
vertex -0.134400 0.426100 0.033747
vertex -0.082980 0.366119 0.031058
vertex -0.133594 0.426777 0.030108
endloop
endfacet
facet normal 0.755880 0.633316 0.166002
outer loop
vertex -0.133594 0.426777 0.030108
vertex -0.082980 0.366119 0.031058
vertex -0.082485 0.366535 0.027216
endloop
endfacet
facet normal 0.759178 0.637863 0.129536
outer loop
vertex -0.133594 0.426777 0.030108
vertex -0.082485 0.366535 0.027216
vertex -0.133218 0.427092 0.026352
endloop
endfacet
facet normal 0.766427 0.642241 0.010755
outer loop
vertex -0.133218 0.427092 0.026352
vertex -0.082485 0.366535 0.027216
vertex -0.082453 0.366562 0.023320
endloop
endfacet
facet normal 0.765489 0.643081 -0.021735
outer loop
vertex -0.133218 0.427092 0.026352
vertex -0.082453 0.366562 0.023320
vertex -0.133281 0.427039 0.022564
endloop
endfacet
facet normal 0.758364 0.635556 -0.144753
outer loop
vertex -0.133281 0.427039 0.022564
vertex -0.082453 0.366562 0.023320
vertex -0.082885 0.366200 0.019465
endloop
endfacet
facet normal 0.754223 0.633543 -0.172545
outer loop
vertex -0.133281 0.427039 0.022564
vertex -0.082885 0.366200 0.019465
vertex -0.133781 0.426619 0.018833
endloop
endfacet
facet normal 0.731888 0.613429 -0.296723
outer loop
vertex -0.133781 0.426619 0.018833
vertex -0.082885 0.366200 0.019465
vertex -0.083770 0.365456 0.015744
endloop
endfacet
facet normal 0.725634 0.609460 -0.319396
outer loop
vertex -0.133781 0.426619 0.018833
vertex -0.083770 0.365456 0.015744
vertex -0.134708 0.425842 0.015243
endloop
endfacet
facet normal 0.687643 0.576400 -0.441486
outer loop
vertex -0.134708 0.425842 0.015243
vertex -0.083770 0.365456 0.015744
vertex -0.085088 0.364351 0.012248
endloop
endfacet
facet normal 0.680383 0.571390 -0.458903
outer loop
vertex -0.134708 0.425842 0.015243
vertex -0.085088 0.364351 0.012248
vertex -0.136040 0.424724 0.011878
endloop
endfacet
facet normal 0.626693 0.525362 -0.575544
outer loop
vertex -0.136040 0.424724 0.011878
vertex -0.085088 0.364351 0.012248
vertex -0.086806 0.362909 0.009062
endloop
endfacet
facet normal 0.619513 0.520204 -0.587870
outer loop
vertex -0.136040 0.424724 0.011878
vertex -0.086806 0.362909 0.009062
vertex -0.137746 0.423293 0.008813
endloop
endfacet
facet normal 0.550532 0.461567 -0.695608
outer loop
vertex -0.137746 0.423293 0.008813
vertex -0.086806 0.362909 0.009062
vertex -0.088882 0.361167 0.006263
endloop
endfacet
facet normal 0.544411 0.457071 -0.703351
outer loop
vertex -0.137746 0.423293 0.008813
vertex -0.088882 0.361167 0.006263
vertex -0.139787 0.421580 0.006120
endloop
endfacet
facet normal 0.460993 0.386556 -0.798787
outer loop
vertex -0.139787 0.421580 0.006120
vertex -0.088882 0.361167 0.006263
vertex -0.091266 0.359167 0.003919
endloop
endfacet
facet normal 0.456815 0.383445 -0.802677
outer loop
vertex -0.139787 0.421580 0.006120
vertex -0.091266 0.359167 0.003919
vertex -0.142116 0.419626 0.003861
endloop
endfacet
facet normal 0.358795 0.300925 -0.883578
outer loop
vertex -0.142116 0.419626 0.003861
vertex -0.091266 0.359167 0.003919
vertex -0.144680 0.417474 0.002087
endloop
endfacet
facet normal 0.360188 0.302233 -0.882564
outer loop
vertex -0.144680 0.417474 0.002087
vertex -0.091266 0.359167 0.003919
vertex -0.040486 0.298649 0.003919
endloop
endfacet
facet normal 0.360197 0.302241 -0.882558
outer loop
vertex -0.144680 0.417474 0.002087
vertex -0.040486 0.298649 0.003919
vertex 0.010295 0.238132 0.003919
endloop
endfacet
facet normal 0.460869 0.386715 -0.798781
outer loop
vertex 0.010295 0.238132 0.003919
vertex -0.040486 0.298649 0.003919
vertex 0.012679 0.240132 0.006263
endloop
endfacet
facet normal 0.460865 0.386711 -0.798786
outer loop
vertex 0.010295 0.238132 0.003919
vertex 0.012679 0.240132 0.006263
vertex 0.063459 0.179615 0.006263
endloop
endfacet
facet normal 0.550342 0.461792 -0.695609
outer loop
vertex 0.063459 0.179615 0.006263
vertex 0.012679 0.240132 0.006263
vertex 0.065535 0.181357 0.009062
endloop
endfacet
facet normal 0.550340 0.461790 -0.695612
outer loop
vertex 0.063459 0.179615 0.006263
vertex 0.065535 0.181357 0.009062
vertex 0.116315 0.120839 0.009062
endloop
endfacet
facet normal 0.626451 0.525655 -0.575540
outer loop
vertex 0.116315 0.120839 0.009062
vertex 0.065535 0.181357 0.009062
vertex 0.118033 0.122281 0.012248
endloop
endfacet
facet normal 0.626206 0.525945 -0.575541
outer loop
vertex 0.116315 0.120839 0.009062
vertex 0.118033 0.122281 0.012248
vertex 0.168641 0.061619 0.011878
endloop
endfacet
facet normal 0.680857 0.570826 -0.458903
outer loop
vertex 0.168641 0.061619 0.011878
vertex 0.118033 0.122281 0.012248
vertex 0.169973 0.062736 0.015243
endloop
endfacet
facet normal 0.687050 0.577104 -0.441490
outer loop
vertex 0.169973 0.062736 0.015243
vertex 0.118033 0.122281 0.012248
vertex 0.119351 0.123386 0.015744
endloop
endfacet
facet normal 0.726207 0.608779 -0.319393
outer loop
vertex 0.169973 0.062736 0.015243
vertex 0.119351 0.123386 0.015744
vertex 0.170900 0.063514 0.018833
endloop
endfacet
facet normal 0.731202 0.614249 -0.296719
outer loop
vertex 0.170900 0.063514 0.018833
vertex 0.119351 0.123386 0.015744
vertex 0.120236 0.124130 0.019465
endloop
endfacet
facet normal 0.754886 0.632749 -0.172554
outer loop
vertex 0.170900 0.063514 0.018833
vertex 0.120236 0.124130 0.019465
vertex 0.171401 0.063934 0.022564
endloop
endfacet
facet normal 0.757590 0.636481 -0.144740
outer loop
vertex 0.171401 0.063934 0.022564
vertex 0.120236 0.124130 0.019465
vertex 0.120668 0.124492 0.023320
endloop
endfacet
facet normal 0.766237 0.642190 -0.021747
outer loop
vertex 0.171401 0.063934 0.022564
vertex 0.120668 0.124492 0.023320
vertex 0.171464 0.063987 0.026352
endloop
endfacet
facet normal 0.765573 0.643260 0.010754
outer loop
vertex 0.171464 0.063987 0.026352
vertex 0.120668 0.124492 0.023320
vertex 0.120636 0.124465 0.027216
endloop
endfacet
facet normal 0.760000 0.636879 0.129558
outer loop
vertex 0.171464 0.063987 0.026352
vertex 0.120636 0.124465 0.027216
vertex 0.171088 0.063672 0.030108
endloop
endfacet
facet normal 0.754954 0.634424 0.165984
outer loop
vertex 0.171088 0.063672 0.030108
vertex 0.120636 0.124465 0.027216
vertex 0.120141 0.124049 0.031058
endloop
endfacet
facet normal 0.736319 0.616937 0.277890
outer loop
vertex 0.171088 0.063672 0.030108
vertex 0.120141 0.124049 0.031058
vertex 0.170281 0.062995 0.033747
endloop
endfacet
facet normal 0.725991 0.610187 0.317189
outer loop
vertex 0.170281 0.062995 0.033747
vertex 0.120141 0.124049 0.031058
vertex 0.119194 0.123255 0.034753
endloop
endfacet
facet normal 0.695738 0.582825 0.419838
outer loop
vertex 0.170281 0.062995 0.033747
vertex 0.119194 0.123255 0.034753
vertex 0.169063 0.061973 0.037185
endloop
endfacet
facet normal 0.679388 0.571141 0.460684
outer loop
vertex 0.169063 0.061973 0.037185
vertex 0.119194 0.123255 0.034753
vertex 0.117819 0.122101 0.038211
endloop
endfacet
facet normal 0.639192 0.535322 0.552144
outer loop
vertex 0.169063 0.061973 0.037185
vertex 0.117819 0.122101 0.038211
vertex 0.167461 0.060628 0.040343
endloop
endfacet
facet normal 0.616275 0.518234 0.592991
outer loop
vertex 0.167461 0.060628 0.040343
vertex 0.117819 0.122101 0.038211
vertex 0.116049 0.120616 0.041348
endloop
endfacet
facet normal 0.567976 0.475517 0.671779
outer loop
vertex 0.167461 0.060628 0.040343
vertex 0.116049 0.120616 0.041348
vertex 0.165511 0.058993 0.043149
endloop
endfacet
facet normal 0.538183 0.452747 0.710900
outer loop
vertex 0.165511 0.058993 0.043149
vertex 0.116049 0.120616 0.041348
vertex 0.113927 0.118836 0.044088
endloop
endfacet
facet normal 0.483730 0.404788 0.775984
outer loop
vertex 0.165511 0.058993 0.043149
vertex 0.113927 0.118836 0.044088
vertex 0.163260 0.057103 0.045539
endloop
endfacet
facet normal 0.447012 0.376282 0.811537
outer loop
vertex 0.163260 0.057103 0.045539
vertex 0.113927 0.118836 0.044088
vertex 0.111505 0.116803 0.046365
endloop
endfacet
facet normal 0.388383 0.324752 0.862378
outer loop
vertex 0.163260 0.057103 0.045539
vertex 0.111505 0.116803 0.046365
vertex 0.160757 0.055003 0.047456
endloop
endfacet
facet normal 0.344972 0.290687 0.892466
outer loop
vertex 0.160757 0.055003 0.047456
vertex 0.111505 0.116803 0.046365
vertex 0.108842 0.114568 0.048123
endloop
endfacet
facet normal 0.284127 0.237248 0.928970
outer loop
vertex 0.160757 0.055003 0.047456
vertex 0.108842 0.114568 0.048123
vertex 0.158061 0.052741 0.048859
endloop
endfacet
facet normal 0.234544 0.198045 0.951718
outer loop
vertex 0.158061 0.052741 0.048859
vertex 0.108842 0.114568 0.048123
vertex 0.106001 0.112185 0.049319
endloop
endfacet
facet normal 0.173360 0.144288 0.974232
outer loop
vertex 0.158061 0.052741 0.048859
vertex 0.106001 0.112185 0.049319
vertex 0.155234 0.050369 0.049713
endloop
endfacet
facet normal 0.118405 0.100606 0.987856
outer loop
vertex 0.155234 0.050369 0.049713
vertex 0.106001 0.112185 0.049319
vertex 0.103053 0.109711 0.049924
endloop
endfacet
facet normal 0.058623 0.048004 0.997125
outer loop
vertex 0.155234 0.050369 0.049713
vertex 0.103053 0.109711 0.049924
vertex 0.152341 0.047941 0.050000
endloop
endfacet
facet normal -0.000619 0.000737 1.000000
outer loop
vertex 0.152341 0.047941 0.050000
vertex 0.103053 0.109711 0.049924
vertex 0.100068 0.107206 0.049924
endloop
endfacet
facet normal -0.057453 -0.049396 0.997125
outer loop
vertex 0.152341 0.047941 0.050000
vertex 0.100068 0.107206 0.049924
vertex 0.149447 0.045513 0.049713
endloop
endfacet
facet normal -0.119638 -0.099136 0.987856
outer loop
vertex 0.149447 0.045513 0.049713
vertex 0.100068 0.107206 0.049924
vertex 0.097120 0.104732 0.049319
endloop
endfacet
facet normal -0.172201 -0.145671 0.974231
outer loop
vertex 0.149447 0.045513 0.049713
vertex 0.097120 0.104732 0.049319
vertex 0.146620 0.043141 0.048859
endloop
endfacet
facet normal -0.235764 -0.196589 0.951718
outer loop
vertex 0.146620 0.043141 0.048859
vertex 0.097120 0.104732 0.049319
vertex 0.094279 0.102349 0.048123
endloop
endfacet
facet normal -0.282983 -0.238614 0.928969
outer loop
vertex 0.146620 0.043141 0.048859
vertex 0.094279 0.102349 0.048123
vertex 0.143924 0.040879 0.047456
endloop
endfacet
facet normal -0.346175 -0.289254 0.892466
outer loop
vertex 0.143924 0.040879 0.047456
vertex 0.094279 0.102349 0.048123
vertex 0.091616 0.100114 0.046365
endloop
endfacet
facet normal -0.387260 -0.326090 0.862378
outer loop
vertex 0.143924 0.040879 0.047456
vertex 0.091616 0.100114 0.046365
vertex 0.141422 0.038779 0.045539
endloop
endfacet
facet normal -0.448187 -0.374880 0.811537
outer loop
vertex 0.141422 0.038779 0.045539
vertex 0.091616 0.100114 0.046365
vertex 0.089193 0.098081 0.044088
endloop
endfacet
facet normal -0.482636 -0.406090 0.775985
outer loop
vertex 0.141422 0.038779 0.045539
vertex 0.089193 0.098081 0.044088
vertex 0.139170 0.036890 0.043149
endloop
endfacet
facet normal -0.539327 -0.451389 0.710897
outer loop
vertex 0.139170 0.036890 0.043149
vertex 0.089193 0.098081 0.044088
vertex 0.087072 0.096301 0.041348
endloop
endfacet
facet normal -0.566922 -0.476773 0.671779
outer loop
vertex 0.139170 0.036890 0.043149
vertex 0.087072 0.096301 0.041348
vertex 0.137220 0.035254 0.040343
endloop
endfacet
facet normal -0.617373 -0.516922 0.592994
outer loop
vertex 0.137220 0.035254 0.040343
vertex 0.087072 0.096301 0.041348
vertex 0.085302 0.094816 0.038211
endloop
endfacet
facet normal -0.638186 -0.536523 0.552144
outer loop
vertex 0.137220 0.035254 0.040343
vertex 0.085302 0.094816 0.038211
vertex 0.135618 0.033909 0.037185
endloop
endfacet
facet normal -0.680438 -0.569890 0.460683
outer loop
vertex 0.135618 0.033909 0.037185
vertex 0.085302 0.094816 0.038211
vertex 0.083927 0.093662 0.034753
endloop
endfacet
facet normal -0.694784 -0.583962 0.419837
outer loop
vertex 0.135618 0.033909 0.037185
vertex 0.083927 0.093662 0.034753
vertex 0.134400 0.032887 0.033747
endloop
endfacet
facet normal -0.726984 -0.609005 0.317188
outer loop
vertex 0.134400 0.032887 0.033747
vertex 0.083927 0.093662 0.034753
vertex 0.082980 0.092868 0.031058
endloop
endfacet
facet normal -0.735426 -0.618002 0.277889
outer loop
vertex 0.134400 0.032887 0.033747
vertex 0.082980 0.092868 0.031058
vertex 0.133594 0.032210 0.030108
endloop
endfacet
facet normal -0.755882 -0.633318 0.165985
outer loop
vertex 0.133594 0.032210 0.030108
vertex 0.082980 0.092868 0.031058
vertex 0.082485 0.092452 0.027216
endloop
endfacet
facet normal -0.759175 -0.637862 0.129558
outer loop
vertex 0.133594 0.032210 0.030108
vertex 0.082485 0.092452 0.027216
vertex 0.133218 0.031895 0.026352
endloop
endfacet
facet normal -0.766428 -0.642240 0.010754
outer loop
vertex 0.133218 0.031895 0.026352
vertex 0.082485 0.092452 0.027216
vertex 0.082453 0.092425 0.023320
endloop
endfacet
facet normal -0.765489 -0.643081 -0.021749
outer loop
vertex 0.133218 0.031895 0.026352
vertex 0.082453 0.092425 0.023320
vertex 0.133281 0.031948 0.022564
endloop
endfacet
facet normal -0.758365 -0.635557 -0.144740
outer loop
vertex 0.133281 0.031948 0.022564
vertex 0.082453 0.092425 0.023320
vertex 0.082885 0.092788 0.019465
endloop
endfacet
facet normal -0.754222 -0.633542 -0.172551
outer loop
vertex 0.133281 0.031948 0.022564
vertex 0.082885 0.092788 0.019465
vertex 0.133781 0.032368 0.018833
endloop
endfacet
facet normal -0.731889 -0.613430 -0.296720
outer loop
vertex 0.133781 0.032368 0.018833
vertex 0.082885 0.092788 0.019465
vertex 0.083770 0.093531 0.015744
endloop
endfacet
facet normal -0.725635 -0.609460 -0.319394
outer loop
vertex 0.133781 0.032368 0.018833
vertex 0.083770 0.093531 0.015744
vertex 0.134708 0.033146 0.015243
endloop
endfacet
facet normal -0.687641 -0.576399 -0.441491
outer loop
vertex 0.134708 0.033146 0.015243
vertex 0.083770 0.093531 0.015744
vertex 0.085088 0.094637 0.012248
endloop
endfacet
facet normal -0.680383 -0.571390 -0.458903
outer loop
vertex 0.134708 0.033146 0.015243
vertex 0.085088 0.094637 0.012248
vertex 0.136040 0.034263 0.011878
endloop
endfacet
facet normal -0.626695 -0.525363 -0.575541
outer loop
vertex 0.136040 0.034263 0.011878
vertex 0.085088 0.094637 0.012248
vertex 0.086806 0.096078 0.009062
endloop
endfacet
facet normal -0.619509 -0.520202 -0.587876
outer loop
vertex 0.136040 0.034263 0.011878
vertex 0.086806 0.096078 0.009062
vertex 0.137746 0.035695 0.008813
endloop
endfacet
facet normal -0.550531 -0.461566 -0.695609
outer loop
vertex 0.137746 0.035695 0.008813
vertex 0.086806 0.096078 0.009062
vertex 0.088882 0.097820 0.006263
endloop
endfacet
facet normal -0.544410 -0.457070 -0.703353
outer loop
vertex 0.137746 0.035695 0.008813
vertex 0.088882 0.097820 0.006263
vertex 0.139787 0.037407 0.006120
endloop
endfacet
facet normal -0.460994 -0.386557 -0.798786
outer loop
vertex 0.139787 0.037407 0.006120
vertex 0.088882 0.097820 0.006263
vertex 0.091266 0.099820 0.003919
endloop
endfacet
facet normal -0.456814 -0.383444 -0.802678
outer loop
vertex 0.139787 0.037407 0.006120
vertex 0.091266 0.099820 0.003919
vertex 0.142116 0.039362 0.003861
endloop
endfacet
facet normal 0.619875 0.519765 -0.587877
outer loop
vertex 0.168641 0.061619 0.011878
vertex 0.166935 0.060188 0.008813
vertex 0.116315 0.120839 0.009062
endloop
endfacet
facet normal 0.550153 0.462017 -0.695609
outer loop
vertex 0.116315 0.120839 0.009062
vertex 0.166935 0.060188 0.008813
vertex 0.114239 0.119097 0.006263
endloop
endfacet
facet normal 0.550341 0.461791 -0.695610
outer loop
vertex 0.116315 0.120839 0.009062
vertex 0.114239 0.119097 0.006263
vertex 0.063459 0.179615 0.006263
endloop
endfacet
facet normal 0.460867 0.386713 -0.798783
outer loop
vertex 0.063459 0.179615 0.006263
vertex 0.114239 0.119097 0.006263
vertex 0.061075 0.177614 0.003919
endloop
endfacet
facet normal 0.460864 0.386711 -0.798786
outer loop
vertex 0.063459 0.179615 0.006263
vertex 0.061075 0.177614 0.003919
vertex 0.010295 0.238132 0.003919
endloop
endfacet
facet normal 0.360203 0.302246 -0.882554
outer loop
vertex 0.010295 0.238132 0.003919
vertex 0.061075 0.177614 0.003919
vertex -0.144680 0.417474 0.002087
endloop
endfacet
facet normal 0.544662 0.456770 -0.703352
outer loop
vertex 0.166935 0.060188 0.008813
vertex 0.164894 0.058475 0.006120
vertex 0.114239 0.119097 0.006263
endloop
endfacet
facet normal 0.460736 0.386867 -0.798784
outer loop
vertex 0.114239 0.119097 0.006263
vertex 0.164894 0.058475 0.006120
vertex 0.111855 0.117097 0.003919
endloop
endfacet
facet normal 0.460866 0.386712 -0.798785
outer loop
vertex 0.114239 0.119097 0.006263
vertex 0.111855 0.117097 0.003919
vertex 0.061075 0.177614 0.003919
endloop
endfacet
facet normal 0.360195 0.302240 -0.882559
outer loop
vertex 0.061075 0.177614 0.003919
vertex 0.111855 0.117097 0.003919
vertex -0.144680 0.417474 0.002087
endloop
endfacet
facet normal 0.456942 0.383288 -0.802679
outer loop
vertex 0.164894 0.058475 0.006120
vertex 0.162565 0.056520 0.003861
vertex 0.111855 0.117097 0.003919
endloop
endfacet
facet normal 0.366374 0.307543 -0.878173
outer loop
vertex 0.111855 0.117097 0.003919
vertex 0.162565 0.056520 0.003861
vertex -0.144680 0.417474 0.002087
endloop
endfacet
facet normal 0.358730 0.301010 -0.883576
outer loop
vertex 0.162565 0.056520 0.003861
vertex 0.160001 0.054369 0.002087
vertex -0.144680 0.417474 0.002087
endloop
endfacet
facet normal -0.619874 -0.519764 -0.587878
outer loop
vertex -0.168641 0.397368 0.011878
vertex -0.166935 0.398800 0.008813
vertex -0.116315 0.338148 0.009062
endloop
endfacet
facet normal -0.550151 -0.462015 -0.695612
outer loop
vertex -0.116315 0.338148 0.009062
vertex -0.166935 0.398800 0.008813
vertex -0.114239 0.339890 0.006263
endloop
endfacet
facet normal -0.550340 -0.461790 -0.695612
outer loop
vertex -0.116315 0.338148 0.009062
vertex -0.114239 0.339890 0.006263
vertex -0.063459 0.279373 0.006263
endloop
endfacet
facet normal -0.460862 -0.386709 -0.798788
outer loop
vertex -0.063459 0.279373 0.006263
vertex -0.114239 0.339890 0.006263
vertex -0.061075 0.281373 0.003919
endloop
endfacet
facet normal -0.460862 -0.386709 -0.798788
outer loop
vertex -0.063459 0.279373 0.006263
vertex -0.061075 0.281373 0.003919
vertex -0.010295 0.220855 0.003919
endloop
endfacet
facet normal -0.360195 -0.302240 -0.882559
outer loop
vertex -0.010295 0.220855 0.003919
vertex -0.061075 0.281373 0.003919
vertex 0.144680 0.041513 0.002087
endloop
endfacet
facet normal -0.544663 -0.456771 -0.703351
outer loop
vertex -0.166935 0.398800 0.008813
vertex -0.164894 0.400512 0.006120
vertex -0.114239 0.339890 0.006263
endloop
endfacet
facet normal -0.460737 -0.386868 -0.798784
outer loop
vertex -0.114239 0.339890 0.006263
vertex -0.164894 0.400512 0.006120
vertex -0.111855 0.341891 0.003919
endloop
endfacet
facet normal -0.460867 -0.386713 -0.798784
outer loop
vertex -0.114239 0.339890 0.006263
vertex -0.111855 0.341891 0.003919
vertex -0.061075 0.281373 0.003919
endloop
endfacet
facet normal -0.360188 -0.302234 -0.882564
outer loop
vertex -0.061075 0.281373 0.003919
vertex -0.111855 0.341891 0.003919
vertex 0.144680 0.041513 0.002087
endloop
endfacet
facet normal -0.456940 -0.383286 -0.802681
outer loop
vertex -0.164894 0.400512 0.006120
vertex -0.162565 0.402467 0.003861
vertex -0.111855 0.341891 0.003919
endloop
endfacet
facet normal -0.366375 -0.307544 -0.878172
outer loop
vertex -0.111855 0.341891 0.003919
vertex -0.162565 0.402467 0.003861
vertex 0.144680 0.041513 0.002087
endloop
endfacet
facet normal -0.358730 -0.301010 -0.883576
outer loop
vertex -0.162565 0.402467 0.003861
vertex -0.160001 0.404618 0.002087
vertex 0.144680 0.041513 0.002087
endloop
endfacet
facet normal -0.460864 -0.386711 -0.798786
outer loop
vertex 0.040486 0.160338 0.003919
vertex 0.091266 0.099820 0.003919
vertex 0.038102 0.158338 0.006263
endloop
endfacet
facet normal -0.460865 -0.386712 -0.798785
outer loop
vertex 0.038102 0.158338 0.006263
vertex 0.091266 0.099820 0.003919
vertex 0.088882 0.097820 0.006263
endloop
endfacet
facet normal -0.550341 -0.461791 -0.695610
outer loop
vertex 0.038102 0.158338 0.006263
vertex 0.088882 0.097820 0.006263
vertex 0.036025 0.156595 0.009062
endloop
endfacet
facet normal -0.550343 -0.461792 -0.695608
outer loop
vertex 0.036025 0.156595 0.009062
vertex 0.088882 0.097820 0.006263
vertex 0.086806 0.096078 0.009062
endloop
endfacet
facet normal -0.626451 -0.525655 -0.575539
outer loop
vertex 0.036025 0.156595 0.009062
vertex 0.086806 0.096078 0.009062
vertex 0.034308 0.155154 0.012248
endloop
endfacet
facet normal -0.626450 -0.525654 -0.575542
outer loop
vertex 0.034308 0.155154 0.012248
vertex 0.086806 0.096078 0.009062
vertex 0.085088 0.094637 0.012248
endloop
endfacet
facet normal -0.687345 -0.576750 -0.441494
outer loop
vertex 0.034308 0.155154 0.012248
vertex 0.085088 0.094637 0.012248
vertex 0.032990 0.154048 0.015744
endloop
endfacet
facet normal -0.687345 -0.576751 -0.441492
outer loop
vertex 0.032990 0.154048 0.015744
vertex 0.085088 0.094637 0.012248
vertex 0.083770 0.093531 0.015744
endloop
endfacet
facet normal -0.731546 -0.613840 -0.296717
outer loop
vertex 0.032990 0.154048 0.015744
vertex 0.083770 0.093531 0.015744
vertex 0.032104 0.153305 0.019465
endloop
endfacet
facet normal -0.731546 -0.613839 -0.296719
outer loop
vertex 0.032104 0.153305 0.019465
vertex 0.083770 0.093531 0.015744
vertex 0.082885 0.092788 0.019465
endloop
endfacet
facet normal -0.757977 -0.636019 -0.144741
outer loop
vertex 0.032104 0.153305 0.019465
vertex 0.082885 0.092788 0.019465
vertex 0.031672 0.152943 0.023320
endloop
endfacet
facet normal -0.757978 -0.636019 -0.144741
outer loop
vertex 0.031672 0.152943 0.023320
vertex 0.082885 0.092788 0.019465
vertex 0.082453 0.092425 0.023320
endloop
endfacet
facet normal -0.766000 -0.642750 0.010751
outer loop
vertex 0.031672 0.152943 0.023320
vertex 0.082453 0.092425 0.023320
vertex 0.031704 0.152970 0.027216
endloop
endfacet
facet normal -0.766000 -0.642750 0.010752
outer loop
vertex 0.031704 0.152970 0.027216
vertex 0.082453 0.092425 0.023320
vertex 0.082485 0.092452 0.027216
endloop
endfacet
facet normal -0.755418 -0.633871 0.165988
outer loop
vertex 0.031704 0.152970 0.027216
vertex 0.082485 0.092452 0.027216
vertex 0.032200 0.153385 0.031058
endloop
endfacet
facet normal -0.755418 -0.633871 0.165987
outer loop
vertex 0.032200 0.153385 0.031058
vertex 0.082485 0.092452 0.027216
vertex 0.082980 0.092868 0.031058
endloop
endfacet
facet normal -0.726489 -0.609596 0.317186
outer loop
vertex 0.032200 0.153385 0.031058
vertex 0.082980 0.092868 0.031058
vertex 0.033147 0.154180 0.034753
endloop
endfacet
facet normal -0.726488 -0.609597 0.317186
outer loop
vertex 0.033147 0.154180 0.034753
vertex 0.082980 0.092868 0.031058
vertex 0.083927 0.093662 0.034753
endloop
endfacet
facet normal -0.679914 -0.570515 0.460684
outer loop
vertex 0.033147 0.154180 0.034753
vertex 0.083927 0.093662 0.034753
vertex 0.034522 0.155333 0.038211
endloop
endfacet
facet normal -0.679913 -0.570514 0.460686
outer loop
vertex 0.034522 0.155333 0.038211
vertex 0.083927 0.093662 0.034753
vertex 0.085302 0.094816 0.038211
endloop
endfacet
facet normal -0.616826 -0.517579 0.592991
outer loop
vertex 0.034522 0.155333 0.038211
vertex 0.085302 0.094816 0.038211
vertex 0.036291 0.156819 0.041348
endloop
endfacet
facet normal -0.616826 -0.517578 0.592992
outer loop
vertex 0.036291 0.156819 0.041348
vertex 0.085302 0.094816 0.038211
vertex 0.087072 0.096301 0.041348
endloop
endfacet
facet normal -0.538754 -0.452069 0.710899
outer loop
vertex 0.036291 0.156819 0.041348
vertex 0.087072 0.096301 0.041348
vertex 0.038413 0.158599 0.044088
endloop
endfacet
facet normal -0.538756 -0.452069 0.710898
outer loop
vertex 0.038413 0.158599 0.044088
vertex 0.087072 0.096301 0.041348
vertex 0.089193 0.098081 0.044088
endloop
endfacet
facet normal -0.447599 -0.375580 0.811539
outer loop
vertex 0.038413 0.158599 0.044088
vertex 0.089193 0.098081 0.044088
vertex 0.040835 0.160631 0.046365
endloop
endfacet
facet normal -0.447600 -0.375581 0.811537
outer loop
vertex 0.040835 0.160631 0.046365
vertex 0.089193 0.098081 0.044088
vertex 0.091616 0.100114 0.046365
endloop
endfacet
facet normal -0.345572 -0.289970 0.892467
outer loop
vertex 0.040835 0.160631 0.046365
vertex 0.091616 0.100114 0.046365
vertex 0.043499 0.162866 0.048123
endloop
endfacet
facet normal -0.345575 -0.289971 0.892466
outer loop
vertex 0.043499 0.162866 0.048123
vertex 0.091616 0.100114 0.046365
vertex 0.094279 0.102349 0.048123
endloop
endfacet
facet normal -0.235154 -0.197318 0.951719
outer loop
vertex 0.043499 0.162866 0.048123
vertex 0.094279 0.102349 0.048123
vertex 0.046340 0.165250 0.049319
endloop
endfacet
facet normal -0.235153 -0.197317 0.951719
outer loop
vertex 0.046340 0.165250 0.049319
vertex 0.094279 0.102349 0.048123
vertex 0.097120 0.104732 0.049319
endloop
endfacet
facet normal -0.119021 -0.099871 0.987856
outer loop
vertex 0.046340 0.165250 0.049319
vertex 0.097120 0.104732 0.049319
vertex 0.049288 0.167724 0.049924
endloop
endfacet
facet normal -0.119022 -0.099871 0.987856
outer loop
vertex 0.049288 0.167724 0.049924
vertex 0.097120 0.104732 0.049319
vertex 0.100068 0.107206 0.049924
endloop
endfacet
facet normal 0.000000 0.000000 1.000000
outer loop
vertex 0.049288 0.167724 0.049924
vertex 0.100068 0.107206 0.049924
vertex 0.052273 0.170228 0.049924
endloop
endfacet
facet normal 0.000000 0.000000 1.000000
outer loop
vertex 0.052273 0.170228 0.049924
vertex 0.100068 0.107206 0.049924
vertex 0.103053 0.109711 0.049924
endloop
endfacet
facet normal 0.119021 0.099870 0.987856
outer loop
vertex 0.052273 0.170228 0.049924
vertex 0.103053 0.109711 0.049924
vertex 0.055221 0.172702 0.049319
endloop
endfacet
facet normal 0.119022 0.099871 0.987856
outer loop
vertex 0.055221 0.172702 0.049319
vertex 0.103053 0.109711 0.049924
vertex 0.106001 0.112185 0.049319
endloop
endfacet
facet normal 0.235155 0.197318 0.951718
outer loop
vertex 0.055221 0.172702 0.049319
vertex 0.106001 0.112185 0.049319
vertex 0.058061 0.175086 0.048123
endloop
endfacet
facet normal 0.235153 0.197317 0.951719
outer loop
vertex 0.058061 0.175086 0.048123
vertex 0.106001 0.112185 0.049319
vertex 0.108842 0.114568 0.048123
endloop
endfacet
facet normal 0.345576 0.289971 0.892465
outer loop
vertex 0.058061 0.175086 0.048123
vertex 0.108842 0.114568 0.048123
vertex 0.060725 0.177321 0.046365
endloop
endfacet
facet normal 0.345573 0.289971 0.892466
outer loop
vertex 0.060725 0.177321 0.046365
vertex 0.108842 0.114568 0.048123
vertex 0.111505 0.116803 0.046365
endloop
endfacet
facet normal 0.447599 0.375580 0.811539
outer loop
vertex 0.060725 0.177321 0.046365
vertex 0.111505 0.116803 0.046365
vertex 0.063147 0.179353 0.044088
endloop
endfacet
facet normal 0.447599 0.375581 0.811538
outer loop
vertex 0.063147 0.179353 0.044088
vertex 0.111505 0.116803 0.046365
vertex 0.113927 0.118836 0.044088
endloop
endfacet
facet normal 0.538755 0.452069 0.710899
outer loop
vertex 0.063147 0.179353 0.044088
vertex 0.113927 0.118836 0.044088
vertex 0.065269 0.181134 0.041348
endloop
endfacet
facet normal 0.538756 0.452070 0.710897
outer loop
vertex 0.065269 0.181134 0.041348
vertex 0.113927 0.118836 0.044088
vertex 0.116049 0.120616 0.041348
endloop
endfacet
facet normal 0.616823 0.517576 0.592996
outer loop
vertex 0.065269 0.181134 0.041348
vertex 0.116049 0.120616 0.041348
vertex 0.067039 0.182619 0.038211
endloop
endfacet
facet normal 0.616825 0.517578 0.592992
outer loop
vertex 0.067039 0.182619 0.038211
vertex 0.116049 0.120616 0.041348
vertex 0.117819 0.122101 0.038211
endloop
endfacet
facet normal 0.679914 0.570516 0.460684
outer loop
vertex 0.067039 0.182619 0.038211
vertex 0.117819 0.122101 0.038211
vertex 0.068414 0.183773 0.034753
endloop
endfacet
facet normal 0.679913 0.570516 0.460684
outer loop
vertex 0.068414 0.183773 0.034753
vertex 0.117819 0.122101 0.038211
vertex 0.119194 0.123255 0.034753
endloop
endfacet
facet normal 0.726488 0.609597 0.317186
outer loop
vertex 0.068414 0.183773 0.034753
vertex 0.119194 0.123255 0.034753
vertex 0.069361 0.184567 0.031058
endloop
endfacet
facet normal 0.726488 0.609595 0.317189
outer loop
vertex 0.069361 0.184567 0.031058
vertex 0.119194 0.123255 0.034753
vertex 0.120141 0.124049 0.031058
endloop
endfacet
facet normal 0.755418 0.633871 0.165985
outer loop
vertex 0.069361 0.184567 0.031058
vertex 0.120141 0.124049 0.031058
vertex 0.069856 0.184983 0.027216
endloop
endfacet
facet normal 0.755418 0.633871 0.165989
outer loop
vertex 0.069856 0.184983 0.027216
vertex 0.120141 0.124049 0.031058
vertex 0.120636 0.124465 0.027216
endloop
endfacet
facet normal 0.766000 0.642750 0.010760
outer loop
vertex 0.069856 0.184983 0.027216
vertex 0.120636 0.124465 0.027216
vertex 0.069888 0.185010 0.023320
endloop
endfacet
facet normal 0.766000 0.642750 0.010747
outer loop
vertex 0.069888 0.185010 0.023320
vertex 0.120636 0.124465 0.027216
vertex 0.120668 0.124492 0.023320
endloop
endfacet
facet normal 0.757978 0.636019 -0.144741
outer loop
vertex 0.069888 0.185010 0.023320
vertex 0.120668 0.124492 0.023320
vertex 0.069456 0.184647 0.019465
endloop
endfacet
facet normal 0.757977 0.636018 -0.144745
outer loop
vertex 0.069456 0.184647 0.019465
vertex 0.120668 0.124492 0.023320
vertex 0.120236 0.124130 0.019465
endloop
endfacet
facet normal 0.731545 0.613840 -0.296720
outer loop
vertex 0.069456 0.184647 0.019465
vertex 0.120236 0.124130 0.019465
vertex 0.068570 0.183904 0.015744
endloop
endfacet
facet normal 0.731547 0.613840 -0.296714
outer loop
vertex 0.068570 0.183904 0.015744
vertex 0.120236 0.124130 0.019465
vertex 0.119351 0.123386 0.015744
endloop
endfacet
facet normal 0.687345 0.576751 -0.441491
outer loop
vertex 0.068570 0.183904 0.015744
vertex 0.119351 0.123386 0.015744
vertex 0.067253 0.182798 0.012248
endloop
endfacet
facet normal 0.687345 0.576751 -0.441492
outer loop
vertex 0.067253 0.182798 0.012248
vertex 0.119351 0.123386 0.015744
vertex 0.118033 0.122281 0.012248
endloop
endfacet
facet normal 0.626449 0.525653 -0.575543
outer loop
vertex 0.067253 0.182798 0.012248
vertex 0.118033 0.122281 0.012248
vertex 0.065535 0.181357 0.009062
endloop
endfacet
facet normal -0.460862 -0.386709 -0.798788
outer loop
vertex 0.040486 0.160338 0.003919
vertex 0.038102 0.158338 0.006263
vertex -0.012679 0.218855 0.006263
endloop
endfacet
facet normal -0.550345 -0.461794 -0.695606
outer loop
vertex -0.012679 0.218855 0.006263
vertex 0.038102 0.158338 0.006263
vertex -0.014755 0.217113 0.009062
endloop
endfacet
facet normal -0.550340 -0.461790 -0.695612
outer loop
vertex -0.012679 0.218855 0.006263
vertex -0.014755 0.217113 0.009062
vertex -0.065535 0.277630 0.009062
endloop
endfacet
facet normal -0.626449 -0.525653 -0.575543
outer loop
vertex -0.065535 0.277630 0.009062
vertex -0.014755 0.217113 0.009062
vertex -0.067253 0.276189 0.012248
endloop
endfacet
facet normal -0.626451 -0.525655 -0.575539
outer loop
vertex -0.065535 0.277630 0.009062
vertex -0.067253 0.276189 0.012248
vertex -0.118033 0.336707 0.012248
endloop
endfacet
facet normal -0.687343 -0.576750 -0.441496
outer loop
vertex -0.118033 0.336707 0.012248
vertex -0.067253 0.276189 0.012248
vertex -0.119351 0.335601 0.015744
endloop
endfacet
facet normal -0.550340 -0.461790 -0.695612
outer loop
vertex -0.014755 0.217113 0.009062
vertex 0.038102 0.158338 0.006263
vertex 0.036025 0.156595 0.009062
endloop
endfacet
facet normal -0.626449 -0.525653 -0.575543
outer loop
vertex -0.014755 0.217113 0.009062
vertex 0.036025 0.156595 0.009062
vertex -0.016473 0.215672 0.012248
endloop
endfacet
facet normal -0.626452 -0.525656 -0.575539
outer loop
vertex -0.016473 0.215672 0.012248
vertex 0.036025 0.156595 0.009062
vertex 0.034308 0.155154 0.012248
endloop
endfacet
facet normal -0.687347 -0.576753 -0.441486
outer loop
vertex -0.016473 0.215672 0.012248
vertex 0.034308 0.155154 0.012248
vertex -0.017790 0.214566 0.015744
endloop
endfacet
facet normal -0.687342 -0.576749 -0.441499
outer loop
vertex -0.017790 0.214566 0.015744
vertex 0.034308 0.155154 0.012248
vertex 0.032990 0.154048 0.015744
endloop
endfacet
facet normal -0.731545 -0.613839 -0.296719
outer loop
vertex -0.017790 0.214566 0.015744
vertex 0.032990 0.154048 0.015744
vertex -0.018676 0.213823 0.019465
endloop
endfacet
facet normal -0.731547 -0.613840 -0.296715
outer loop
vertex -0.018676 0.213823 0.019465
vertex 0.032990 0.154048 0.015744
vertex 0.032104 0.153305 0.019465
endloop
endfacet
facet normal -0.757977 -0.636019 -0.144741
outer loop
vertex -0.018676 0.213823 0.019465
vertex 0.032104 0.153305 0.019465
vertex -0.019108 0.213460 0.023320
endloop
endfacet
facet normal -0.757978 -0.636018 -0.144744
outer loop
vertex -0.019108 0.213460 0.023320
vertex 0.032104 0.153305 0.019465
vertex 0.031672 0.152943 0.023320
endloop
endfacet
facet normal -0.766000 -0.642750 0.010748
outer loop
vertex -0.019108 0.213460 0.023320
vertex 0.031672 0.152943 0.023320
vertex -0.019076 0.213487 0.027216
endloop
endfacet
facet normal -0.766000 -0.642750 0.010751
outer loop
vertex -0.019076 0.213487 0.027216
vertex 0.031672 0.152943 0.023320
vertex 0.031704 0.152970 0.027216
endloop
endfacet
facet normal -0.755417 -0.633870 0.165994
outer loop
vertex -0.019076 0.213487 0.027216
vertex 0.031704 0.152970 0.027216
vertex -0.018580 0.213903 0.031058
endloop
endfacet
facet normal -0.755418 -0.633871 0.165984
outer loop
vertex -0.018580 0.213903 0.031058
vertex 0.031704 0.152970 0.027216
vertex 0.032200 0.153385 0.031058
endloop
endfacet
facet normal -0.726488 -0.609594 0.317191
outer loop
vertex -0.018580 0.213903 0.031058
vertex 0.032200 0.153385 0.031058
vertex -0.017634 0.214697 0.034753
endloop
endfacet
facet normal -0.726489 -0.609597 0.317184
outer loop
vertex -0.017634 0.214697 0.034753
vertex 0.032200 0.153385 0.031058
vertex 0.033147 0.154180 0.034753
endloop
endfacet
facet normal -0.679915 -0.570516 0.460681
outer loop
vertex -0.017634 0.214697 0.034753
vertex 0.033147 0.154180 0.034753
vertex -0.016259 0.215851 0.038211
endloop
endfacet
facet normal -0.679913 -0.570515 0.460685
outer loop
vertex -0.016259 0.215851 0.038211
vertex 0.033147 0.154180 0.034753
vertex 0.034522 0.155333 0.038211
endloop
endfacet
facet normal -0.616825 -0.517578 0.592992
outer loop
vertex -0.016259 0.215851 0.038211
vertex 0.034522 0.155333 0.038211
vertex -0.014489 0.217336 0.041348
endloop
endfacet
facet normal -0.616822 -0.517575 0.592998
outer loop
vertex -0.014489 0.217336 0.041348
vertex 0.034522 0.155333 0.038211
vertex 0.036291 0.156819 0.041348
endloop
endfacet
facet normal -0.538759 -0.452073 0.710893
outer loop
vertex -0.014489 0.217336 0.041348
vertex 0.036291 0.156819 0.041348
vertex -0.012367 0.219116 0.044088
endloop
endfacet
facet normal -0.538755 -0.452069 0.710898
outer loop
vertex -0.012367 0.219116 0.044088
vertex 0.036291 0.156819 0.041348
vertex 0.038413 0.158599 0.044088
endloop
endfacet
facet normal -0.447600 -0.375581 0.811538
outer loop
vertex -0.012367 0.219116 0.044088
vertex 0.038413 0.158599 0.044088
vertex -0.009945 0.221149 0.046365
endloop
endfacet
facet normal -0.447598 -0.375580 0.811539
outer loop
vertex -0.009945 0.221149 0.046365
vertex 0.038413 0.158599 0.044088
vertex 0.040835 0.160631 0.046365
endloop
endfacet
facet normal -0.345575 -0.289973 0.892465
outer loop
vertex -0.009945 0.221149 0.046365
vertex 0.040835 0.160631 0.046365
vertex -0.007281 0.223384 0.048123
endloop
endfacet
facet normal -0.345574 -0.289970 0.892466
outer loop
vertex -0.007281 0.223384 0.048123
vertex 0.040835 0.160631 0.046365
vertex 0.043499 0.162866 0.048123
endloop
endfacet
facet normal -0.235152 -0.197317 0.951719
outer loop
vertex -0.007281 0.223384 0.048123
vertex 0.043499 0.162866 0.048123
vertex -0.004441 0.225767 0.049319
endloop
endfacet
facet normal -0.235155 -0.197318 0.951718
outer loop
vertex -0.004441 0.225767 0.049319
vertex 0.043499 0.162866 0.048123
vertex 0.046340 0.165250 0.049319
endloop
endfacet
facet normal -0.119021 -0.099870 0.987856
outer loop
vertex -0.004441 0.225767 0.049319
vertex 0.046340 0.165250 0.049319
vertex -0.001492 0.228241 0.049924
endloop
endfacet
facet normal -0.119022 -0.099871 0.987856
outer loop
vertex -0.001492 0.228241 0.049924
vertex 0.046340 0.165250 0.049319
vertex 0.049288 0.167724 0.049924
endloop
endfacet
facet normal 0.000000 0.000000 1.000000
outer loop
vertex -0.001492 0.228241 0.049924
vertex 0.049288 0.167724 0.049924
vertex 0.001492 0.230746 0.049924
endloop
endfacet
facet normal 0.000000 0.000000 1.000000
outer loop
vertex 0.001492 0.230746 0.049924
vertex 0.049288 0.167724 0.049924
vertex 0.052273 0.170228 0.049924
endloop
endfacet
facet normal 0.119021 0.099870 0.987856
outer loop
vertex 0.001492 0.230746 0.049924
vertex 0.052273 0.170228 0.049924
vertex 0.004441 0.233220 0.049319
endloop
endfacet
facet normal 0.119021 0.099871 0.987856
outer loop
vertex 0.004441 0.233220 0.049319
vertex 0.052273 0.170228 0.049924
vertex 0.055221 0.172702 0.049319
endloop
endfacet
facet normal 0.235155 0.197318 0.951718
outer loop
vertex 0.004441 0.233220 0.049319
vertex 0.055221 0.172702 0.049319
vertex 0.007281 0.235603 0.048123
endloop
endfacet
facet normal 0.235153 0.197318 0.951719
outer loop
vertex 0.007281 0.235603 0.048123
vertex 0.055221 0.172702 0.049319
vertex 0.058061 0.175086 0.048123
endloop
endfacet
facet normal 0.345576 0.289971 0.892465
outer loop
vertex 0.007281 0.235603 0.048123
vertex 0.058061 0.175086 0.048123
vertex 0.009945 0.237838 0.046365
endloop
endfacet
facet normal 0.345573 0.289971 0.892466
outer loop
vertex 0.009945 0.237838 0.046365
vertex 0.058061 0.175086 0.048123
vertex 0.060725 0.177321 0.046365
endloop
endfacet
facet normal 0.447599 0.375581 0.811538
outer loop
vertex 0.009945 0.237838 0.046365
vertex 0.060725 0.177321 0.046365
vertex 0.012367 0.239871 0.044088
endloop
endfacet
facet normal 0.447601 0.375582 0.811537
outer loop
vertex 0.012367 0.239871 0.044088
vertex 0.060725 0.177321 0.046365
vertex 0.063147 0.179353 0.044088
endloop
endfacet
facet normal 0.538755 0.452069 0.710899
outer loop
vertex 0.012367 0.239871 0.044088
vertex 0.063147 0.179353 0.044088
vertex 0.014489 0.241651 0.041348
endloop
endfacet
facet normal 0.538755 0.452070 0.710898
outer loop
vertex 0.014489 0.241651 0.041348
vertex 0.063147 0.179353 0.044088
vertex 0.065269 0.181134 0.041348
endloop
endfacet
facet normal 0.616824 0.517576 0.592996
outer loop
vertex 0.014489 0.241651 0.041348
vertex 0.065269 0.181134 0.041348
vertex 0.016259 0.243136 0.038211
endloop
endfacet
facet normal 0.616825 0.517579 0.592992
outer loop
vertex 0.016259 0.243136 0.038211
vertex 0.065269 0.181134 0.041348
vertex 0.067039 0.182619 0.038211
endloop
endfacet
facet normal 0.679915 0.570516 0.460681
outer loop
vertex 0.016259 0.243136 0.038211
vertex 0.067039 0.182619 0.038211
vertex 0.017634 0.244290 0.034753
endloop
endfacet
facet normal 0.679912 0.570514 0.460688
outer loop
vertex 0.017634 0.244290 0.034753
vertex 0.067039 0.182619 0.038211
vertex 0.068414 0.183773 0.034753
endloop
endfacet
facet normal 0.726487 0.609597 0.317187
outer loop
vertex 0.017634 0.244290 0.034753
vertex 0.068414 0.183773 0.034753
vertex 0.018580 0.245084 0.031058
endloop
endfacet
facet normal 0.726489 0.609595 0.317187
outer loop
vertex 0.018580 0.245084 0.031058
vertex 0.068414 0.183773 0.034753
vertex 0.069361 0.184567 0.031058
endloop
endfacet
facet normal 0.755418 0.633871 0.165988
outer loop
vertex 0.018580 0.245084 0.031058
vertex 0.069361 0.184567 0.031058
vertex 0.019076 0.245500 0.027216
endloop
endfacet
facet normal 0.755418 0.633871 0.165986
outer loop
vertex 0.019076 0.245500 0.027216
vertex 0.069361 0.184567 0.031058
vertex 0.069856 0.184983 0.027216
endloop
endfacet
facet normal 0.766000 0.642751 0.010742
outer loop
vertex 0.019076 0.245500 0.027216
vertex 0.069856 0.184983 0.027216
vertex 0.019108 0.245527 0.023320
endloop
endfacet
facet normal 0.766000 0.642750 0.010755
outer loop
vertex 0.019108 0.245527 0.023320
vertex 0.069856 0.184983 0.027216
vertex 0.069888 0.185010 0.023320
endloop
endfacet
facet normal 0.757978 0.636019 -0.144735
outer loop
vertex 0.019108 0.245527 0.023320
vertex 0.069888 0.185010 0.023320
vertex 0.018676 0.245165 0.019465
endloop
endfacet
facet normal 0.757977 0.636018 -0.144749
outer loop
vertex 0.018676 0.245165 0.019465
vertex 0.069888 0.185010 0.023320
vertex 0.069456 0.184647 0.019465
endloop
endfacet
facet normal 0.731547 0.613840 -0.296714
outer loop
vertex 0.018676 0.245165 0.019465
vertex 0.069456 0.184647 0.019465
vertex 0.017790 0.244421 0.015744
endloop
endfacet
facet normal 0.731546 0.613840 -0.296718
outer loop
vertex 0.017790 0.244421 0.015744
vertex 0.069456 0.184647 0.019465
vertex 0.068570 0.183904 0.015744
endloop
endfacet
facet normal 0.687345 0.576751 -0.441491
outer loop
vertex 0.017790 0.244421 0.015744
vertex 0.068570 0.183904 0.015744
vertex 0.016473 0.243316 0.012248
endloop
endfacet
facet normal 0.687344 0.576750 -0.441494
outer loop
vertex 0.016473 0.243316 0.012248
vertex 0.068570 0.183904 0.015744
vertex 0.067253 0.182798 0.012248
endloop
endfacet
facet normal 0.626451 0.525655 -0.575539
outer loop
vertex 0.016473 0.243316 0.012248
vertex 0.067253 0.182798 0.012248
vertex 0.014755 0.241874 0.009062
endloop
endfacet
facet normal 0.626450 0.525654 -0.575541
outer loop
vertex 0.014755 0.241874 0.009062
vertex 0.067253 0.182798 0.012248
vertex 0.065535 0.181357 0.009062
endloop
endfacet
facet normal 0.550342 0.461792 -0.695609
outer loop
vertex 0.014755 0.241874 0.009062
vertex 0.065535 0.181357 0.009062
vertex 0.012679 0.240132 0.006263
endloop
endfacet
facet normal -0.626451 -0.525655 -0.575539
outer loop
vertex -0.014755 0.217113 0.009062
vertex -0.016473 0.215672 0.012248
vertex -0.067253 0.276189 0.012248
endloop
endfacet
facet normal -0.687345 -0.576751 -0.441491
outer loop
vertex -0.067253 0.276189 0.012248
vertex -0.016473 0.215672 0.012248
vertex -0.068570 0.275083 0.015744
endloop
endfacet
facet normal -0.687347 -0.576753 -0.441487
outer loop
vertex -0.067253 0.276189 0.012248
vertex -0.068570 0.275083 0.015744
vertex -0.119351 0.335601 0.015744
endloop
endfacet
facet normal -0.731546 -0.613839 -0.296719
outer loop
vertex -0.119351 0.335601 0.015744
vertex -0.068570 0.275083 0.015744
vertex -0.120236 0.334858 0.019465
endloop
endfacet
facet normal -0.687345 -0.576751 -0.441491
outer loop
vertex -0.068570 0.275083 0.015744
vertex -0.016473 0.215672 0.012248
vertex -0.017790 0.214566 0.015744
endloop
endfacet
facet normal -0.731544 -0.613838 -0.296725
outer loop
vertex -0.068570 0.275083 0.015744
vertex -0.017790 0.214566 0.015744
vertex -0.069456 0.274340 0.019465
endloop
endfacet
facet normal -0.731545 -0.613839 -0.296721
outer loop
vertex -0.069456 0.274340 0.019465
vertex -0.017790 0.214566 0.015744
vertex -0.018676 0.213823 0.019465
endloop
endfacet
facet normal -0.757977 -0.636019 -0.144741
outer loop
vertex -0.069456 0.274340 0.019465
vertex -0.018676 0.213823 0.019465
vertex -0.069888 0.273978 0.023320
endloop
endfacet
facet normal -0.757978 -0.636019 -0.144736
outer loop
vertex -0.069888 0.273978 0.023320
vertex -0.018676 0.213823 0.019465
vertex -0.019108 0.213460 0.023320
endloop
endfacet
facet normal -0.766000 -0.642751 0.010754
outer loop
vertex -0.069888 0.273978 0.023320
vertex -0.019108 0.213460 0.023320
vertex -0.069856 0.274005 0.027216
endloop
endfacet
facet normal -0.766000 -0.642750 0.010758
outer loop
vertex -0.069856 0.274005 0.027216
vertex -0.019108 0.213460 0.023320
vertex -0.019076 0.213487 0.027216
endloop
endfacet
facet normal -0.755418 -0.633871 0.165988
outer loop
vertex -0.069856 0.274005 0.027216
vertex -0.019076 0.213487 0.027216
vertex -0.069361 0.274420 0.031058
endloop
endfacet
facet normal -0.755418 -0.633871 0.165985
outer loop
vertex -0.069361 0.274420 0.031058
vertex -0.019076 0.213487 0.027216
vertex -0.018580 0.213903 0.031058
endloop
endfacet
facet normal -0.726489 -0.609596 0.317186
outer loop
vertex -0.069361 0.274420 0.031058
vertex -0.018580 0.213903 0.031058
vertex -0.068414 0.275215 0.034753
endloop
endfacet
facet normal -0.726488 -0.609597 0.317185
outer loop
vertex -0.068414 0.275215 0.034753
vertex -0.018580 0.213903 0.031058
vertex -0.017634 0.214697 0.034753
endloop
endfacet
facet normal -0.679913 -0.570515 0.460686
outer loop
vertex -0.068414 0.275215 0.034753
vertex -0.017634 0.214697 0.034753
vertex -0.067039 0.276369 0.038211
endloop
endfacet
facet normal -0.679913 -0.570515 0.460686
outer loop
vertex -0.067039 0.276369 0.038211
vertex -0.017634 0.214697 0.034753
vertex -0.016259 0.215851 0.038211
endloop
endfacet
facet normal -0.616827 -0.517580 0.592988
outer loop
vertex -0.067039 0.276369 0.038211
vertex -0.016259 0.215851 0.038211
vertex -0.065269 0.277854 0.041348
endloop
endfacet
facet normal -0.616827 -0.517579 0.592989
outer loop
vertex -0.065269 0.277854 0.041348
vertex -0.016259 0.215851 0.038211
vertex -0.014489 0.217336 0.041348
endloop
endfacet
facet normal -0.538754 -0.452069 0.710899
outer loop
vertex -0.065269 0.277854 0.041348
vertex -0.014489 0.217336 0.041348
vertex -0.063147 0.279634 0.044088
endloop
endfacet
facet normal -0.538754 -0.452068 0.710900
outer loop
vertex -0.063147 0.279634 0.044088
vertex -0.014489 0.217336 0.041348
vertex -0.012367 0.219116 0.044088
endloop
endfacet
facet normal -0.447600 -0.375581 0.811538
outer loop
vertex -0.063147 0.279634 0.044088
vertex -0.012367 0.219116 0.044088
vertex -0.060725 0.281666 0.046365
endloop
endfacet
facet normal -0.447600 -0.375581 0.811537
outer loop
vertex -0.060725 0.281666 0.046365
vertex -0.012367 0.219116 0.044088
vertex -0.009945 0.221149 0.046365
endloop
endfacet
facet normal -0.345571 -0.289970 0.892467
outer loop
vertex -0.060725 0.281666 0.046365
vertex -0.009945 0.221149 0.046365
vertex -0.058061 0.283901 0.048123
endloop
endfacet
facet normal -0.345574 -0.289970 0.892467
outer loop
vertex -0.058061 0.283901 0.048123
vertex -0.009945 0.221149 0.046365
vertex -0.007281 0.223384 0.048123
endloop
endfacet
facet normal -0.235154 -0.197318 0.951719
outer loop
vertex -0.058061 0.283901 0.048123
vertex -0.007281 0.223384 0.048123
vertex -0.055221 0.286285 0.049319
endloop
endfacet
facet normal -0.235155 -0.197318 0.951718
outer loop
vertex -0.055221 0.286285 0.049319
vertex -0.007281 0.223384 0.048123
vertex -0.004441 0.225767 0.049319
endloop
endfacet
facet normal -0.119021 -0.099870 0.987856
outer loop
vertex -0.055221 0.286285 0.049319
vertex -0.004441 0.225767 0.049319
vertex -0.052273 0.288759 0.049924
endloop
endfacet
facet normal -0.119023 -0.099871 0.987856
outer loop
vertex -0.052273 0.288759 0.049924
vertex -0.004441 0.225767 0.049319
vertex -0.001492 0.228241 0.049924
endloop
endfacet
facet normal 0.000000 0.000000 1.000000
outer loop
vertex -0.052273 0.288759 0.049924
vertex -0.001492 0.228241 0.049924
vertex -0.049288 0.291263 0.049924
endloop
endfacet
facet normal 0.000000 0.000000 1.000000
outer loop
vertex -0.049288 0.291263 0.049924
vertex -0.001492 0.228241 0.049924
vertex 0.001492 0.230746 0.049924
endloop
endfacet
facet normal 0.119023 0.099872 0.987856
outer loop
vertex -0.049288 0.291263 0.049924
vertex 0.001492 0.230746 0.049924
vertex -0.046340 0.293737 0.049319
endloop
endfacet
facet normal 0.119023 0.099872 0.987856
outer loop
vertex -0.046340 0.293737 0.049319
vertex 0.001492 0.230746 0.049924
vertex 0.004441 0.233220 0.049319
endloop
endfacet
facet normal 0.235155 0.197318 0.951718
outer loop
vertex -0.046340 0.293737 0.049319
vertex 0.004441 0.233220 0.049319
vertex -0.043499 0.296121 0.048123
endloop
endfacet
facet normal 0.235152 0.197316 0.951719
outer loop
vertex -0.043499 0.296121 0.048123
vertex 0.004441 0.233220 0.049319
vertex 0.007281 0.235603 0.048123
endloop
endfacet
facet normal 0.345574 0.289969 0.892467
outer loop
vertex -0.043499 0.296121 0.048123
vertex 0.007281 0.235603 0.048123
vertex -0.040835 0.298356 0.046365
endloop
endfacet
facet normal 0.345574 0.289972 0.892466
outer loop
vertex -0.040835 0.298356 0.046365
vertex 0.007281 0.235603 0.048123
vertex 0.009945 0.237838 0.046365
endloop
endfacet
facet normal 0.447599 0.375581 0.811538
outer loop
vertex -0.040835 0.298356 0.046365
vertex 0.009945 0.237838 0.046365
vertex -0.038413 0.300388 0.044088
endloop
endfacet
facet normal 0.447596 0.375578 0.811541
outer loop
vertex -0.038413 0.300388 0.044088
vertex 0.009945 0.237838 0.046365
vertex 0.012367 0.239871 0.044088
endloop
endfacet
facet normal 0.538755 0.452069 0.710899
outer loop
vertex -0.038413 0.300388 0.044088
vertex 0.012367 0.239871 0.044088
vertex -0.036291 0.302169 0.041348
endloop
endfacet
facet normal 0.538756 0.452071 0.710897
outer loop
vertex -0.036291 0.302169 0.041348
vertex 0.012367 0.239871 0.044088
vertex 0.014489 0.241651 0.041348
endloop
endfacet
facet normal 0.616828 0.517579 0.592988
outer loop
vertex -0.036291 0.302169 0.041348
vertex 0.014489 0.241651 0.041348
vertex -0.034522 0.303654 0.038211
endloop
endfacet
facet normal 0.616822 0.517576 0.592997
outer loop
vertex -0.034522 0.303654 0.038211
vertex 0.014489 0.241651 0.041348
vertex 0.016259 0.243136 0.038211
endloop
endfacet
facet normal 0.679914 0.570516 0.460681
outer loop
vertex -0.034522 0.303654 0.038211
vertex 0.016259 0.243136 0.038211
vertex -0.033147 0.304808 0.034753
endloop
endfacet
facet normal 0.679915 0.570517 0.460680
outer loop
vertex -0.033147 0.304808 0.034753
vertex 0.016259 0.243136 0.038211
vertex 0.017634 0.244290 0.034753
endloop
endfacet
facet normal 0.726487 0.609595 0.317192
outer loop
vertex -0.033147 0.304808 0.034753
vertex 0.017634 0.244290 0.034753
vertex -0.032200 0.305602 0.031058
endloop
endfacet
facet normal 0.726490 0.609596 0.317183
outer loop
vertex -0.032200 0.305602 0.031058
vertex 0.017634 0.244290 0.034753
vertex 0.018580 0.245084 0.031058
endloop
endfacet
facet normal 0.755418 0.633872 0.165982
outer loop
vertex -0.032200 0.305602 0.031058
vertex 0.018580 0.245084 0.031058
vertex -0.031704 0.306018 0.027216
endloop
endfacet
facet normal 0.755417 0.633870 0.165992
outer loop
vertex -0.031704 0.306018 0.027216
vertex 0.018580 0.245084 0.031058
vertex 0.019076 0.245500 0.027216
endloop
endfacet
facet normal 0.766000 0.642751 0.010748
outer loop
vertex -0.031704 0.306018 0.027216
vertex 0.019076 0.245500 0.027216
vertex -0.031672 0.306045 0.023320
endloop
endfacet
facet normal 0.766000 0.642750 0.010757
outer loop
vertex -0.031672 0.306045 0.023320
vertex 0.019076 0.245500 0.027216
vertex 0.019108 0.245527 0.023320
endloop
endfacet
facet normal 0.757977 0.636018 -0.144747
outer loop
vertex -0.031672 0.306045 0.023320
vertex 0.019108 0.245527 0.023320
vertex -0.032104 0.305682 0.019465
endloop
endfacet
facet normal 0.757978 0.636019 -0.144734
outer loop
vertex -0.032104 0.305682 0.019465
vertex 0.019108 0.245527 0.023320
vertex 0.018676 0.245165 0.019465
endloop
endfacet
facet normal 0.731545 0.613840 -0.296720
outer loop
vertex -0.032104 0.305682 0.019465
vertex 0.018676 0.245165 0.019465
vertex -0.032990 0.304939 0.015744
endloop
endfacet
facet normal 0.731546 0.613839 -0.296719
outer loop
vertex -0.032990 0.304939 0.015744
vertex 0.018676 0.245165 0.019465
vertex 0.017790 0.244421 0.015744
endloop
endfacet
facet normal 0.687344 0.576750 -0.441496
outer loop
vertex -0.032990 0.304939 0.015744
vertex 0.017790 0.244421 0.015744
vertex -0.034308 0.303833 0.012248
endloop
endfacet
facet normal 0.687345 0.576751 -0.441492
outer loop
vertex -0.034308 0.303833 0.012248
vertex 0.017790 0.244421 0.015744
vertex 0.016473 0.243316 0.012248
endloop
endfacet
facet normal 0.626453 0.525657 -0.575535
outer loop
vertex -0.034308 0.303833 0.012248
vertex 0.016473 0.243316 0.012248
vertex -0.036025 0.302392 0.009062
endloop
endfacet
facet normal 0.626450 0.525654 -0.575542
outer loop
vertex -0.036025 0.302392 0.009062
vertex 0.016473 0.243316 0.012248
vertex 0.014755 0.241874 0.009062
endloop
endfacet
facet normal 0.550342 0.461792 -0.695609
outer loop
vertex -0.036025 0.302392 0.009062
vertex 0.014755 0.241874 0.009062
vertex -0.038102 0.300650 0.006263
endloop
endfacet
facet normal 0.550342 0.461792 -0.695610
outer loop
vertex -0.038102 0.300650 0.006263
vertex 0.014755 0.241874 0.009062
vertex 0.012679 0.240132 0.006263
endloop
endfacet
facet normal 0.460862 0.386709 -0.798788
outer loop
vertex -0.038102 0.300650 0.006263
vertex 0.012679 0.240132 0.006263
vertex -0.040486 0.298649 0.003919
endloop
endfacet
facet normal -0.757977 -0.636019 -0.144747
outer loop
vertex -0.120668 0.334495 0.023320
vertex -0.120236 0.334858 0.019465
vertex -0.069456 0.274340 0.019465
endloop
endfacet
facet normal -0.731548 -0.613841 -0.296708
outer loop
vertex -0.069456 0.274340 0.019465
vertex -0.120236 0.334858 0.019465
vertex -0.068570 0.275083 0.015744
endloop
endfacet
facet normal -0.757977 -0.636018 -0.144745
outer loop
vertex -0.120668 0.334495 0.023320
vertex -0.069456 0.274340 0.019465
vertex -0.069888 0.273978 0.023320
endloop
endfacet
facet normal -0.766000 -0.642751 0.010754
outer loop
vertex -0.120636 0.334522 0.027216
vertex -0.120668 0.334495 0.023320
vertex -0.069888 0.273978 0.023320
endloop
endfacet
facet normal -0.766000 -0.642750 0.010761
outer loop
vertex -0.120636 0.334522 0.027216
vertex -0.069888 0.273978 0.023320
vertex -0.069856 0.274005 0.027216
endloop
endfacet
facet normal -0.755419 -0.633871 0.165982
outer loop
vertex -0.120141 0.334938 0.031058
vertex -0.120636 0.334522 0.027216
vertex -0.069856 0.274005 0.027216
endloop
endfacet
facet normal -0.755418 -0.633871 0.165985
outer loop
vertex -0.120141 0.334938 0.031058
vertex -0.069856 0.274005 0.027216
vertex -0.069361 0.274420 0.031058
endloop
endfacet
facet normal -0.726488 -0.609594 0.317191
outer loop
vertex -0.119194 0.335732 0.034753
vertex -0.120141 0.334938 0.031058
vertex -0.069361 0.274420 0.031058
endloop
endfacet
facet normal -0.726488 -0.609597 0.317187
outer loop
vertex -0.119194 0.335732 0.034753
vertex -0.069361 0.274420 0.031058
vertex -0.068414 0.275215 0.034753
endloop
endfacet
facet normal -0.679913 -0.570515 0.460686
outer loop
vertex -0.117819 0.336886 0.038211
vertex -0.119194 0.335732 0.034753
vertex -0.068414 0.275215 0.034753
endloop
endfacet
facet normal -0.679916 -0.570517 0.460678
outer loop
vertex -0.117819 0.336886 0.038211
vertex -0.068414 0.275215 0.034753
vertex -0.067039 0.276369 0.038211
endloop
endfacet
facet normal -0.616823 -0.517576 0.592996
outer loop
vertex -0.116049 0.338371 0.041348
vertex -0.117819 0.336886 0.038211
vertex -0.067039 0.276369 0.038211
endloop
endfacet
facet normal -0.616826 -0.517578 0.592991
outer loop
vertex -0.116049 0.338371 0.041348
vertex -0.067039 0.276369 0.038211
vertex -0.065269 0.277854 0.041348
endloop
endfacet
facet normal -0.538759 -0.452073 0.710893
outer loop
vertex -0.113927 0.340151 0.044088
vertex -0.116049 0.338371 0.041348
vertex -0.065269 0.277854 0.041348
endloop
endfacet
facet normal -0.538755 -0.452069 0.710898
outer loop
vertex -0.113927 0.340151 0.044088
vertex -0.065269 0.277854 0.041348
vertex -0.063147 0.279634 0.044088
endloop
endfacet
facet normal -0.447599 -0.375581 0.811538
outer loop
vertex -0.111505 0.342184 0.046365
vertex -0.113927 0.340151 0.044088
vertex -0.063147 0.279634 0.044088
endloop
endfacet
facet normal -0.447599 -0.375580 0.811538
outer loop
vertex -0.111505 0.342184 0.046365
vertex -0.063147 0.279634 0.044088
vertex -0.060725 0.281666 0.046365
endloop
endfacet
facet normal -0.345575 -0.289973 0.892465
outer loop
vertex -0.108842 0.344419 0.048123
vertex -0.111505 0.342184 0.046365
vertex -0.060725 0.281666 0.046365
endloop
endfacet
facet normal -0.345578 -0.289973 0.892464
outer loop
vertex -0.108842 0.344419 0.048123
vertex -0.060725 0.281666 0.046365
vertex -0.058061 0.283901 0.048123
endloop
endfacet
facet normal -0.235151 -0.197316 0.951720
outer loop
vertex -0.106001 0.346802 0.049319
vertex -0.108842 0.344419 0.048123
vertex -0.058061 0.283901 0.048123
endloop
endfacet
facet normal -0.235153 -0.197317 0.951719
outer loop
vertex -0.106001 0.346802 0.049319
vertex -0.058061 0.283901 0.048123
vertex -0.055221 0.286285 0.049319
endloop
endfacet
facet normal -0.119019 -0.099870 0.987857
outer loop
vertex -0.103053 0.349276 0.049924
vertex -0.106001 0.346802 0.049319
vertex -0.055221 0.286285 0.049319
endloop
endfacet
facet normal -0.119023 -0.099872 0.987856
outer loop
vertex -0.103053 0.349276 0.049924
vertex -0.055221 0.286285 0.049319
vertex -0.052273 0.288759 0.049924
endloop
endfacet
facet normal 0.000002 0.000000 1.000000
outer loop
vertex -0.100068 0.351781 0.049924
vertex -0.103053 0.349276 0.049924
vertex -0.052273 0.288759 0.049924
endloop
endfacet
facet normal 0.000000 0.000000 1.000000
outer loop
vertex -0.100068 0.351781 0.049924
vertex -0.052273 0.288759 0.049924
vertex -0.049288 0.291263 0.049924
endloop
endfacet
facet normal 0.119021 0.099871 0.987856
outer loop
vertex -0.097120 0.354255 0.049319
vertex -0.100068 0.351781 0.049924
vertex -0.049288 0.291263 0.049924
endloop
endfacet
facet normal 0.119021 0.099871 0.987856
outer loop
vertex -0.097120 0.354255 0.049319
vertex -0.049288 0.291263 0.049924
vertex -0.046340 0.293737 0.049319
endloop
endfacet
facet normal 0.235152 0.197316 0.951719
outer loop
vertex -0.094279 0.356638 0.048123
vertex -0.097120 0.354255 0.049319
vertex -0.046340 0.293737 0.049319
endloop
endfacet
facet normal 0.235153 0.197317 0.951719
outer loop
vertex -0.094279 0.356638 0.048123
vertex -0.046340 0.293737 0.049319
vertex -0.043499 0.296121 0.048123
endloop
endfacet
facet normal 0.345574 0.289969 0.892467
outer loop
vertex -0.091616 0.358873 0.046365
vertex -0.094279 0.356638 0.048123
vertex -0.043499 0.296121 0.048123
endloop
endfacet
facet normal 0.345573 0.289971 0.892467
outer loop
vertex -0.091616 0.358873 0.046365
vertex -0.043499 0.296121 0.048123
vertex -0.040835 0.298356 0.046365
endloop
endfacet
facet normal 0.447595 0.375577 0.811542
outer loop
vertex -0.089193 0.360906 0.044088
vertex -0.091616 0.358873 0.046365
vertex -0.040835 0.298356 0.046365
endloop
endfacet
facet normal 0.447601 0.375582 0.811536
outer loop
vertex -0.089193 0.360906 0.044088
vertex -0.040835 0.298356 0.046365
vertex -0.038413 0.300388 0.044088
endloop
endfacet
facet normal 0.538760 0.452073 0.710893
outer loop
vertex -0.087072 0.362686 0.041348
vertex -0.089193 0.360906 0.044088
vertex -0.038413 0.300388 0.044088
endloop
endfacet
facet normal 0.538750 0.452066 0.710904
outer loop
vertex -0.087072 0.362686 0.041348
vertex -0.038413 0.300388 0.044088
vertex -0.036291 0.302169 0.041348
endloop
endfacet
facet normal 0.616825 0.517578 0.592992
outer loop
vertex -0.085302 0.364171 0.038211
vertex -0.087072 0.362686 0.041348
vertex -0.036291 0.302169 0.041348
endloop
endfacet
facet normal 0.616825 0.517578 0.592992
outer loop
vertex -0.085302 0.364171 0.038211
vertex -0.036291 0.302169 0.041348
vertex -0.034522 0.303654 0.038211
endloop
endfacet
facet normal 0.679915 0.570516 0.460681
outer loop
vertex -0.083927 0.365325 0.034753
vertex -0.085302 0.364171 0.038211
vertex -0.034522 0.303654 0.038211
endloop
endfacet
facet normal 0.679913 0.570515 0.460685
outer loop
vertex -0.083927 0.365325 0.034753
vertex -0.034522 0.303654 0.038211
vertex -0.033147 0.304808 0.034753
endloop
endfacet
facet normal 0.726485 0.609594 0.317197
outer loop
vertex -0.082980 0.366119 0.031058
vertex -0.083927 0.365325 0.034753
vertex -0.033147 0.304808 0.034753
endloop
endfacet
facet normal 0.726488 0.609595 0.317189
outer loop
vertex -0.082980 0.366119 0.031058
vertex -0.033147 0.304808 0.034753
vertex -0.032200 0.305602 0.031058
endloop
endfacet
facet normal 0.755419 0.633871 0.165982
outer loop
vertex -0.082485 0.366535 0.027216
vertex -0.082980 0.366119 0.031058
vertex -0.032200 0.305602 0.031058
endloop
endfacet
facet normal 0.755418 0.633871 0.165987
outer loop
vertex -0.082485 0.366535 0.027216
vertex -0.032200 0.305602 0.031058
vertex -0.031704 0.306018 0.027216
endloop
endfacet
facet normal 0.766000 0.642751 0.010748
outer loop
vertex -0.082453 0.366562 0.023320
vertex -0.082485 0.366535 0.027216
vertex -0.031704 0.306018 0.027216
endloop
endfacet
facet normal 0.766000 0.642750 0.010753
outer loop
vertex -0.082453 0.366562 0.023320
vertex -0.031704 0.306018 0.027216
vertex -0.031672 0.306045 0.023320
endloop
endfacet
facet normal 0.757978 0.636019 -0.144741
outer loop
vertex -0.082885 0.366200 0.019465
vertex -0.082453 0.366562 0.023320
vertex -0.031672 0.306045 0.023320
endloop
endfacet
facet normal 0.757977 0.636018 -0.144750
outer loop
vertex -0.082885 0.366200 0.019465
vertex -0.031672 0.306045 0.023320
vertex -0.032104 0.305682 0.019465
endloop
endfacet
facet normal 0.731548 0.613842 -0.296709
outer loop
vertex -0.083770 0.365456 0.015744
vertex -0.082885 0.366200 0.019465
vertex -0.032104 0.305682 0.019465
endloop
endfacet
facet normal 0.731542 0.613836 -0.296736
outer loop
vertex -0.083770 0.365456 0.015744
vertex -0.032104 0.305682 0.019465
vertex -0.032990 0.304939 0.015744
endloop
endfacet
facet normal 0.687347 0.576753 -0.441486
outer loop
vertex -0.085088 0.364351 0.012248
vertex -0.083770 0.365456 0.015744
vertex -0.032990 0.304939 0.015744
endloop
endfacet
facet normal 0.687345 0.576750 -0.441494
outer loop
vertex -0.085088 0.364351 0.012248
vertex -0.032990 0.304939 0.015744
vertex -0.034308 0.303833 0.012248
endloop
endfacet
facet normal 0.626451 0.525655 -0.575539
outer loop
vertex -0.086806 0.362909 0.009062
vertex -0.085088 0.364351 0.012248
vertex -0.034308 0.303833 0.012248
endloop
endfacet
facet normal 0.626451 0.525655 -0.575539
outer loop
vertex -0.086806 0.362909 0.009062
vertex -0.034308 0.303833 0.012248
vertex -0.036025 0.302392 0.009062
endloop
endfacet
facet normal 0.550344 0.461794 -0.695606
outer loop
vertex -0.088882 0.361167 0.006263
vertex -0.086806 0.362909 0.009062
vertex -0.036025 0.302392 0.009062
endloop
endfacet
facet normal 0.550338 0.461788 -0.695615
outer loop
vertex -0.088882 0.361167 0.006263
vertex -0.036025 0.302392 0.009062
vertex -0.038102 0.300650 0.006263
endloop
endfacet
facet normal 0.460867 0.386713 -0.798783
outer loop
vertex -0.091266 0.359167 0.003919
vertex -0.088882 0.361167 0.006263
vertex -0.038102 0.300650 0.006263
endloop
endfacet
facet normal 0.460869 0.386715 -0.798782
outer loop
vertex -0.091266 0.359167 0.003919
vertex -0.038102 0.300650 0.006263
vertex -0.040486 0.298649 0.003919
endloop
endfacet
facet normal -0.766044 -0.642788 0.000000
outer loop
vertex 0.144680 0.041513 0.000000
vertex 0.144680 0.041513 0.002087
vertex -0.160001 0.404618 0.000000
endloop
endfacet
facet normal -0.766044 -0.642788 0.000000
outer loop
vertex -0.160001 0.404618 0.000000
vertex 0.144680 0.041513 0.002087
vertex -0.160001 0.404618 0.002087
endloop
endfacet
facet normal -0.642787 0.766045 0.000000
outer loop
vertex -0.160001 0.404618 0.000000
vertex -0.160001 0.404618 0.002087
vertex -0.144680 0.417474 0.000000
endloop
endfacet
facet normal -0.642787 0.766045 0.000000
outer loop
vertex -0.144680 0.417474 0.000000
vertex -0.160001 0.404618 0.002087
vertex -0.144680 0.417474 0.002087
endloop
endfacet
facet normal -0.642787 0.766045 0.000000
outer loop
vertex -0.144680 0.417474 0.002087
vertex -0.160001 0.404618 0.002087
vertex -0.142116 0.419626 0.003861
endloop
endfacet
facet normal -0.642787 0.766045 0.000000
outer loop
vertex -0.142116 0.419626 0.003861
vertex -0.160001 0.404618 0.002087
vertex -0.139787 0.421580 0.006120
endloop
endfacet
facet normal -0.642787 0.766045 0.000000
outer loop
vertex -0.139787 0.421580 0.006120
vertex -0.160001 0.404618 0.002087
vertex -0.137746 0.423293 0.008813
endloop
endfacet
facet normal -0.642787 0.766045 0.000000
outer loop
vertex -0.137746 0.423293 0.008813
vertex -0.160001 0.404618 0.002087
vertex -0.136040 0.424724 0.011878
endloop
endfacet
facet normal -0.642789 0.766044 0.000000
outer loop
vertex -0.136040 0.424724 0.011878
vertex -0.160001 0.404618 0.002087
vertex -0.134708 0.425842 0.015243
endloop
endfacet
facet normal -0.642787 0.766045 0.000000
outer loop
vertex -0.134708 0.425842 0.015243
vertex -0.160001 0.404618 0.002087
vertex -0.133781 0.426619 0.018833
endloop
endfacet
facet normal -0.642787 0.766045 0.000000
outer loop
vertex -0.133781 0.426619 0.018833
vertex -0.160001 0.404618 0.002087
vertex -0.133281 0.427039 0.022564
endloop
endfacet
facet normal -0.642791 0.766042 0.000000
outer loop
vertex -0.133281 0.427039 0.022564
vertex -0.160001 0.404618 0.002087
vertex -0.133218 0.427092 0.026352
endloop
endfacet
facet normal -0.642788 0.766044 0.000000
outer loop
vertex -0.133218 0.427092 0.026352
vertex -0.160001 0.404618 0.002087
vertex -0.133594 0.426777 0.030108
endloop
endfacet
facet normal -0.642789 0.766043 0.000012
outer loop
vertex -0.133594 0.426777 0.030108
vertex -0.160001 0.404618 0.002087
vertex -0.134400 0.426100 0.033747
endloop
endfacet
facet normal -0.642787 0.766045 -0.000011
outer loop
vertex -0.134400 0.426100 0.033747
vertex -0.160001 0.404618 0.002087
vertex -0.135618 0.425078 0.037185
endloop
endfacet
facet normal -0.642786 0.766046 0.000000
outer loop
vertex -0.135618 0.425078 0.037185
vertex -0.160001 0.404618 0.002087
vertex -0.137220 0.423734 0.040343
endloop
endfacet
facet normal -0.642793 0.766040 0.000000
outer loop
vertex -0.137220 0.423734 0.040343
vertex -0.160001 0.404618 0.002087
vertex -0.139170 0.422098 0.043149
endloop
endfacet
facet normal -0.642785 0.766047 0.000000
outer loop
vertex -0.139170 0.422098 0.043149
vertex -0.160001 0.404618 0.002087
vertex -0.141422 0.420208 0.045539
endloop
endfacet
facet normal -0.642786 0.766046 0.000000
outer loop
vertex -0.141422 0.420208 0.045539
vertex -0.160001 0.404618 0.002087
vertex -0.143924 0.418108 0.047456
endloop
endfacet
facet normal -0.642783 0.766048 0.000000
outer loop
vertex -0.143924 0.418108 0.047456
vertex -0.160001 0.404618 0.002087
vertex -0.146620 0.415846 0.048859
endloop
endfacet
facet normal -0.642792 0.766041 0.000001
outer loop
vertex -0.146620 0.415846 0.048859
vertex -0.160001 0.404618 0.002087
vertex -0.162565 0.402467 0.003861
endloop
endfacet
facet normal -0.642787 0.766045 0.000000
outer loop
vertex -0.146620 0.415846 0.048859
vertex -0.162565 0.402467 0.003861
vertex -0.164894 0.400512 0.006120
endloop
endfacet
facet normal -0.642784 0.766047 -0.000010
outer loop
vertex -0.164894 0.400512 0.006120
vertex -0.166935 0.398800 0.008813
vertex -0.146620 0.415846 0.048859
endloop
endfacet
facet normal -0.642789 0.766043 -0.000001
outer loop
vertex -0.146620 0.415846 0.048859
vertex -0.166935 0.398800 0.008813
vertex -0.168641 0.397368 0.011878
endloop
endfacet
facet normal -0.642786 0.766046 0.000002
outer loop
vertex -0.146620 0.415846 0.048859
vertex -0.168641 0.397368 0.011878
vertex -0.169973 0.396251 0.015243
endloop
endfacet
facet normal -0.642787 0.766045 0.000012
outer loop
vertex -0.169973 0.396251 0.015243
vertex -0.170900 0.395473 0.018833
vertex -0.146620 0.415846 0.048859
endloop
endfacet
facet normal -0.642787 0.766045 -0.000008
outer loop
vertex -0.146620 0.415846 0.048859
vertex -0.170900 0.395473 0.018833
vertex -0.171401 0.395053 0.022564
endloop
endfacet
facet normal -0.642793 0.766040 0.000015
outer loop
vertex -0.146620 0.415846 0.048859
vertex -0.171401 0.395053 0.022564
vertex -0.171464 0.395000 0.026352
endloop
endfacet
facet normal -0.642787 0.766045 0.000000
outer loop
vertex -0.171464 0.395000 0.026352
vertex -0.171088 0.395315 0.030108
vertex -0.146620 0.415846 0.048859
endloop
endfacet
facet normal -0.642795 0.766039 0.000000
outer loop
vertex -0.146620 0.415846 0.048859
vertex -0.171088 0.395315 0.030108
vertex -0.149447 0.413474 0.049713
endloop
endfacet
facet normal -0.642790 0.766043 0.000011
outer loop
vertex -0.149447 0.413474 0.049713
vertex -0.171088 0.395315 0.030108
vertex -0.170281 0.395992 0.033747
endloop
endfacet
facet normal -0.642785 0.766047 -0.000020
outer loop
vertex -0.149447 0.413474 0.049713
vertex -0.170281 0.395992 0.033747
vertex -0.169063 0.397014 0.037185
endloop
endfacet
facet normal -0.642785 0.766046 0.000017
outer loop
vertex -0.169063 0.397014 0.037185
vertex -0.167461 0.398359 0.040343
vertex -0.149447 0.413474 0.049713
endloop
endfacet
facet normal -0.642790 0.766042 0.000006
outer loop
vertex -0.149447 0.413474 0.049713
vertex -0.167461 0.398359 0.040343
vertex -0.165511 0.399995 0.043149
endloop
endfacet
facet normal -0.642784 0.766047 -0.000004
outer loop
vertex -0.149447 0.413474 0.049713
vertex -0.165511 0.399995 0.043149
vertex -0.163260 0.401884 0.045539
endloop
endfacet
facet normal -0.642788 0.766044 -0.000044
outer loop
vertex -0.163260 0.401884 0.045539
vertex -0.160757 0.403984 0.047456
vertex -0.149447 0.413474 0.049713
endloop
endfacet
facet normal -0.642787 0.766045 0.000036
outer loop
vertex -0.149447 0.413474 0.049713
vertex -0.160757 0.403984 0.047456
vertex -0.158061 0.406246 0.048859
endloop
endfacet
facet normal -0.642783 0.766048 0.000036
outer loop
vertex -0.149447 0.413474 0.049713
vertex -0.158061 0.406246 0.048859
vertex -0.155234 0.408618 0.049713
endloop
endfacet
facet normal -0.642790 0.766042 -0.000215
outer loop
vertex -0.155234 0.408618 0.049713
vertex -0.152341 0.411046 0.050000
vertex -0.149447 0.413474 0.049713
endloop
endfacet
facet normal 0.642787 -0.766045 0.000000
outer loop
vertex 0.144680 0.041513 0.000000
vertex 0.160001 0.054369 0.000000
vertex 0.144680 0.041513 0.002087
endloop
endfacet
facet normal 0.642787 -0.766045 0.000000
outer loop
vertex 0.144680 0.041513 0.002087
vertex 0.160001 0.054369 0.000000
vertex 0.160001 0.054369 0.002087
endloop
endfacet
facet normal 0.642788 -0.766044 0.000009
outer loop
vertex 0.144680 0.041513 0.002087
vertex 0.160001 0.054369 0.002087
vertex 0.162565 0.056520 0.003861
endloop
endfacet
facet normal 0.642787 -0.766045 0.000000
outer loop
vertex 0.162565 0.056520 0.003861
vertex 0.164894 0.058475 0.006120
vertex 0.144680 0.041513 0.002087
endloop
endfacet
facet normal 0.642790 -0.766043 -0.000005
outer loop
vertex 0.144680 0.041513 0.002087
vertex 0.164894 0.058475 0.006120
vertex 0.166935 0.060188 0.008813
endloop
endfacet
facet normal 0.642787 -0.766045 0.000002
outer loop
vertex 0.144680 0.041513 0.002087
vertex 0.166935 0.060188 0.008813
vertex 0.168641 0.061619 0.011878
endloop
endfacet
facet normal 0.642787 -0.766045 -0.000003
outer loop
vertex 0.168641 0.061619 0.011878
vertex 0.169973 0.062736 0.015243
vertex 0.144680 0.041513 0.002087
endloop
endfacet
facet normal 0.642785 -0.766047 0.000003
outer loop
vertex 0.144680 0.041513 0.002087
vertex 0.169973 0.062736 0.015243
vertex 0.170900 0.063514 0.018833
endloop
endfacet
facet normal 0.642787 -0.766045 -0.000002
outer loop
vertex 0.144680 0.041513 0.002087
vertex 0.170900 0.063514 0.018833
vertex 0.171401 0.063934 0.022564
endloop
endfacet
facet normal 0.642789 -0.766043 0.000002
outer loop
vertex 0.171401 0.063934 0.022564
vertex 0.171464 0.063987 0.026352
vertex 0.144680 0.041513 0.002087
endloop
endfacet
facet normal 0.642788 -0.766044 -0.000002
outer loop
vertex 0.144680 0.041513 0.002087
vertex 0.171464 0.063987 0.026352
vertex 0.171088 0.063672 0.030108
endloop
endfacet
facet normal 0.642785 -0.766046 0.000001
outer loop
vertex 0.144680 0.041513 0.002087
vertex 0.171088 0.063672 0.030108
vertex 0.170281 0.062995 0.033747
endloop
endfacet
facet normal 0.642789 -0.766043 0.000000
outer loop
vertex 0.170281 0.062995 0.033747
vertex 0.169063 0.061973 0.037185
vertex 0.144680 0.041513 0.002087
endloop
endfacet
facet normal 0.642791 -0.766041 -0.000001
outer loop
vertex 0.144680 0.041513 0.002087
vertex 0.169063 0.061973 0.037185
vertex 0.167461 0.060628 0.040343
endloop
endfacet
facet normal 0.642784 -0.766048 -0.000000
outer loop
vertex 0.144680 0.041513 0.002087
vertex 0.167461 0.060628 0.040343
vertex 0.165511 0.058993 0.043149
endloop
endfacet
facet normal 0.642791 -0.766041 0.000000
outer loop
vertex 0.165511 0.058993 0.043149
vertex 0.163260 0.057103 0.045539
vertex 0.144680 0.041513 0.002087
endloop
endfacet
facet normal 0.642784 -0.766048 0.000000
outer loop
vertex 0.144680 0.041513 0.002087
vertex 0.163260 0.057103 0.045539
vertex 0.160757 0.055003 0.047456
endloop
endfacet
facet normal 0.642788 -0.766044 0.000001
outer loop
vertex 0.144680 0.041513 0.002087
vertex 0.160757 0.055003 0.047456
vertex 0.158061 0.052741 0.048859
endloop
endfacet
facet normal 0.642786 -0.766046 -0.000002
outer loop
vertex 0.155234 0.050369 0.049713
vertex 0.133594 0.032210 0.030108
vertex 0.158061 0.052741 0.048859
endloop
endfacet
facet normal 0.642787 -0.766045 0.000002
outer loop
vertex 0.158061 0.052741 0.048859
vertex 0.133594 0.032210 0.030108
vertex 0.133218 0.031895 0.026352
endloop
endfacet
facet normal 0.642791 -0.766042 -0.000002
outer loop
vertex 0.158061 0.052741 0.048859
vertex 0.133218 0.031895 0.026352
vertex 0.133281 0.031948 0.022564
endloop
endfacet
facet normal 0.642794 -0.766039 -0.000027
outer loop
vertex 0.152341 0.047941 0.050000
vertex 0.149447 0.045513 0.049713
vertex 0.155234 0.050369 0.049713
endloop
endfacet
facet normal 0.642785 -0.766046 0.000014
outer loop
vertex 0.155234 0.050369 0.049713
vertex 0.149447 0.045513 0.049713
vertex 0.146620 0.043141 0.048859
endloop
endfacet
facet normal 0.642788 -0.766044 -0.000011
outer loop
vertex 0.155234 0.050369 0.049713
vertex 0.146620 0.043141 0.048859
vertex 0.143924 0.040879 0.047456
endloop
endfacet
facet normal 0.642786 -0.766046 0.000006
outer loop
vertex 0.143924 0.040879 0.047456
vertex 0.141422 0.038779 0.045539
vertex 0.155234 0.050369 0.049713
endloop
endfacet
facet normal 0.642789 -0.766043 -0.000002
outer loop
vertex 0.155234 0.050369 0.049713
vertex 0.141422 0.038779 0.045539
vertex 0.139170 0.036890 0.043149
endloop
endfacet
facet normal 0.642788 -0.766044 -0.000003
outer loop
vertex 0.155234 0.050369 0.049713
vertex 0.139170 0.036890 0.043149
vertex 0.137220 0.035254 0.040343
endloop
endfacet
facet normal 0.642786 -0.766046 0.000006
outer loop
vertex 0.137220 0.035254 0.040343
vertex 0.135618 0.033909 0.037185
vertex 0.155234 0.050369 0.049713
endloop
endfacet
facet normal 0.642788 -0.766044 0.000001
outer loop
vertex 0.155234 0.050369 0.049713
vertex 0.135618 0.033909 0.037185
vertex 0.134400 0.032887 0.033747
endloop
endfacet
facet normal 0.642789 -0.766044 -0.000003
outer loop
vertex 0.155234 0.050369 0.049713
vertex 0.134400 0.032887 0.033747
vertex 0.133594 0.032210 0.030108
endloop
endfacet
facet normal 0.642788 -0.766044 0.000000
outer loop
vertex 0.133281 0.031948 0.022564
vertex 0.133781 0.032368 0.018833
vertex 0.158061 0.052741 0.048859
endloop
endfacet
facet normal 0.642787 -0.766045 -0.000002
outer loop
vertex 0.158061 0.052741 0.048859
vertex 0.133781 0.032368 0.018833
vertex 0.134708 0.033146 0.015243
endloop
endfacet
facet normal 0.642786 -0.766046 0.000002
outer loop
vertex 0.158061 0.052741 0.048859
vertex 0.134708 0.033146 0.015243
vertex 0.136040 0.034263 0.011878
endloop
endfacet
facet normal 0.642791 -0.766042 -0.000001
outer loop
vertex 0.136040 0.034263 0.011878
vertex 0.137746 0.035695 0.008813
vertex 0.158061 0.052741 0.048859
endloop
endfacet
facet normal 0.642787 -0.766045 0.000002
outer loop
vertex 0.158061 0.052741 0.048859
vertex 0.137746 0.035695 0.008813
vertex 0.139787 0.037407 0.006120
endloop
endfacet
facet normal 0.642785 -0.766046 0.000000
outer loop
vertex 0.158061 0.052741 0.048859
vertex 0.139787 0.037407 0.006120
vertex 0.142116 0.039362 0.003861
endloop
endfacet
facet normal 0.642793 -0.766040 -0.000001
outer loop
vertex 0.142116 0.039362 0.003861
vertex 0.144680 0.041513 0.002087
vertex 0.158061 0.052741 0.048859
endloop
endfacet
endsolid cylinder
