solid frontAndBack
facet normal 0.000000 -1.000000 0.000000
outer loop
vertex -20.000000 10.000000 0.000000
vertex 1.000000 10.000000 0.000000
vertex 1.000000 10.000000 13.508696
endloop
endfacet
facet normal 0.000000 -1.000000 0.000000
outer loop
vertex -20.000000 10.000000 0.000000
vertex 1.000000 10.000000 13.508696
vertex -20.000000 10.000000 13.508696
endloop
endfacet
facet normal 0.000000 -1.000000 0.000000
outer loop
vertex 1.000000 10.000000 13.508696
vertex 1.000000 10.000000 0.000000
vertex 20.000000 10.000000 0.000000
endloop
endfacet
facet normal 0.000000 -1.000000 0.000000
outer loop
vertex 1.000000 10.000000 13.508696
vertex 20.000000 10.000000 0.000000
vertex 20.000000 10.000000 6.818394
endloop
endfacet
facet normal 0.000000 -1.000000 0.000000
outer loop
vertex -20.000000 -10.000000 0.000000
vertex 1.000000 -10.000000 0.000000
vertex 1.000000 -10.000000 13.508696
endloop
endfacet
facet normal 0.000000 -1.000000 0.000000
outer loop
vertex -20.000000 -10.000000 0.000000
vertex 1.000000 -10.000000 13.508696
vertex -20.000000 -10.000000 13.508696
endloop
endfacet
facet normal 0.000000 -1.000000 0.000000
outer loop
vertex 1.000000 -10.000000 13.508696
vertex 1.000000 -10.000000 0.000000
vertex 20.000000 -10.000000 0.000000
endloop
endfacet
facet normal 0.000000 -1.000000 0.000000
outer loop
vertex 1.000000 -10.000000 13.508696
vertex 20.000000 -10.000000 0.000000
vertex 20.000000 -10.000000 6.818394
endloop
endfacet
solid frontAndBack
