solid frontAndBack
facet normal 0.000000 -1.000000 0.000000
outer loop
vertex -20.000000 10.000000 0.000000
vertex 1.000000 10.000000 0.000000
vertex 1.000000 10.000000 13.508696
endloop
endfacet
facet normal 0.000000 -1.000000 0.000000
outer loop
vertex -20.000000 10.000000 0.000000
vertex 1.000000 10.000000 13.508696
vertex -20.000000 10.000000 13.508696
endloop
endfacet
facet normal 0.000000 -1.000000 0.000000
outer loop
vertex 1.000000 10.000000 13.508696
vertex 1.000000 10.000000 0.000000
vertex 20.000000 10.000000 0.000000
endloop
endfacet
facet normal 0.000000 -1.000000 0.000000
outer loop
vertex 1.000000 10.000000 13.508696
vertex 20.000000 10.000000 0.000000
vertex 20.000000 10.000000 6.818394
endloop
endfacet
facet normal 0.000000 -1.000000 0.000000
outer loop
vertex -20.000000 -10.000000 0.000000
vertex 1.000000 -10.000000 0.000000
vertex 1.000000 -10.000000 13.508696
endloop
endfacet
facet normal 0.000000 -1.000000 0.000000
outer loop
vertex -20.000000 -10.000000 0.000000
vertex 1.000000 -10.000000 13.508696
vertex -20.000000 -10.000000 13.508696
endloop
endfacet
facet normal 0.000000 -1.000000 0.000000
outer loop
vertex 1.000000 -10.000000 13.508696
vertex 1.000000 -10.000000 0.000000
vertex 20.000000 -10.000000 0.000000
endloop
endfacet
facet normal 0.000000 -1.000000 0.000000
outer loop
vertex 1.000000 -10.000000 13.508696
vertex 20.000000 -10.000000 0.000000
vertex 20.000000 -10.000000 6.818394
endloop
endfacet
endsolid frontAndBack
solid inlet
facet normal 1.000000 0.000000 0.000000
outer loop
vertex -20.000000 -10.000000 13.508696
vertex -20.000000 -10.000000 8.000000
vertex -20.000000 10.000000 8.000000
endloop
endfacet
facet normal 1.000000 0.000000 0.000000
outer loop
vertex -20.000000 -10.000000 13.508696
vertex -20.000000 10.000000 8.000000
vertex -20.000000 10.000000 13.508696
endloop
endfacet
endsolid inlet
solid outlet
facet normal 1.000000 0.000000 0.000000
outer loop
vertex 20.000000 -10.000000 6.818394
vertex 20.000000 -10.000000 2.229316
vertex 20.000000 10.000000 2.229316
endloop
endfacet
facet normal 1.000000 0.000000 0.000000
outer loop
vertex 20.000000 -10.000000 6.818394
vertex 20.000000 10.000000 2.229316
vertex 20.000000 10.000000 6.818394
endloop
endfacet
endsolid outlet
solid top
facet normal 0.000000 0.000000 1.000000
outer loop
vertex -20.000000 -10.000000 13.508696
vertex 1.000000 -10.000000 13.508696
vertex 1.000000 10.000000 13.508696
endloop
endfacet
facet normal 0.000000 0.000000 1.000000
outer loop
vertex -20.000000 -10.000000 13.508696
vertex 1.000000 10.000000 13.508696
vertex -20.000000 10.000000 13.508696
endloop
endfacet
facet normal 0.332132 0.000000 0.943233
outer loop
vertex 1.000000 10.000000 13.508696
vertex 1.000000 -10.000000 13.508696
vertex 20.000000 -10.000000 6.818394
endloop
endfacet
facet normal 0.332132 0.000000 0.943233
outer loop
vertex 1.000000 10.000000 13.508696
vertex 20.000000 -10.000000 6.818394
vertex 20.000000 10.000000 6.818394
endloop
endfacet
endsolid top
solid obstacle
facet normal -1.000000 0.000000 0.000000
outer loop
vertex -20.000000 -10.000000 0.000000
vertex -20.000000 -10.000000 8.000000
vertex -20.000000 10.000000 8.000000
endloop
endfacet
facet normal -1.000000 0.000000 0.000000
outer loop
vertex -20.000000 -10.000000 0.000000
vertex -20.000000 10.000000 8.000000
vertex -20.000000 10.000000 0.000000
endloop
endfacet
facet normal 1.000000 0.000000 0.000000
outer loop
vertex 20.000000 10.000000 0.000000
vertex 20.000000 10.000000 2.229316
vertex 20.000000 -10.000000 2.229316
endloop
endfacet
facet normal 1.000000 0.000000 0.000000
outer loop
vertex 20.000000 10.000000 0.000000
vertex 20.000000 -10.000000 2.229316
vertex 20.000000 -10.000000 0.000000
endloop
endfacet
facet normal 0.567904 0.000000 0.823095
outer loop
vertex -3.211578 10.000000 3.316243
vertex -7.457154 10.000000 6.245531
vertex -7.457154 -10.000000 6.245531
endloop
endfacet
facet normal 0.567904 0.000000 0.823095
outer loop
vertex -3.211578 10.000000 3.316243
vertex -7.457154 -10.000000 6.245531
vertex -3.211578 -10.000000 3.316243
endloop
endfacet
facet normal 0.000000 0.000000 1.000000
outer loop
vertex 20.000000 10.000000 2.229316
vertex 10.000000 10.000000 2.229316
vertex 10.000000 -10.000000 2.229316
endloop
endfacet
facet normal 0.000000 0.000000 1.000000
outer loop
vertex 20.000000 10.000000 2.229316
vertex 10.000000 -10.000000 2.229316
vertex 20.000000 -10.000000 2.229316
endloop
endfacet
facet normal 0.000000 0.000000 1.000000
outer loop
vertex 10.000000 10.000000 2.229316
vertex 0.277688 10.000000 2.229316
vertex 0.277688 -10.000000 2.229316
endloop
endfacet
facet normal 0.000000 0.000000 1.000000
outer loop
vertex 10.000000 10.000000 2.229316
vertex 0.277688 -10.000000 2.229316
vertex 10.000000 -10.000000 2.229316
endloop
endfacet
facet normal 0.518818 0.000000 0.854885
outer loop
vertex -3.211578 10.000000 3.316243
vertex -3.211578 -10.000000 3.316243
vertex -2.813046 -10.000000 3.074379
endloop
endfacet
facet normal 0.518817 0.000000 0.854885
outer loop
vertex -3.211578 10.000000 3.316243
vertex -2.813046 -10.000000 3.074379
vertex -2.813046 10.000000 3.074379
endloop
endfacet
facet normal 0.435760 0.000000 0.900063
outer loop
vertex -2.813046 10.000000 3.074379
vertex -2.813046 -10.000000 3.074379
vertex -2.338525 -10.000000 2.844643
endloop
endfacet
facet normal 0.435760 0.000000 0.900063
outer loop
vertex -2.813046 10.000000 3.074379
vertex -2.338525 -10.000000 2.844643
vertex -2.338525 10.000000 2.844643
endloop
endfacet
facet normal 0.364372 0.000000 0.931254
outer loop
vertex -2.338525 10.000000 2.844643
vertex -2.338525 -10.000000 2.844643
vertex -1.811811 -10.000000 2.638555
endloop
endfacet
facet normal 0.364372 0.000000 0.931253
outer loop
vertex -2.338525 10.000000 2.844643
vertex -1.811811 -10.000000 2.638555
vertex -1.811811 10.000000 2.638555
endloop
endfacet
facet normal 0.297411 0.000000 0.954750
outer loop
vertex -1.811811 10.000000 2.638555
vertex -1.811811 -10.000000 2.638555
vertex -1.259314 -10.000000 2.466449
endloop
endfacet
facet normal 0.297409 0.000000 0.954750
outer loop
vertex -1.811811 10.000000 2.638555
vertex -1.259314 -10.000000 2.466449
vertex -1.259314 10.000000 2.466449
endloop
endfacet
facet normal 0.228950 0.000000 0.973438
outer loop
vertex -1.259314 10.000000 2.466449
vertex -1.259314 -10.000000 2.466449
vertex -0.708741 -10.000000 2.336956
endloop
endfacet
facet normal 0.228950 0.000000 0.973438
outer loop
vertex -1.259314 10.000000 2.466449
vertex -0.708741 -10.000000 2.336956
vertex -0.708741 10.000000 2.336956
endloop
endfacet
facet normal 0.152480 0.000000 0.988307
outer loop
vertex -0.708741 10.000000 2.336956
vertex -0.708741 -10.000000 2.336956
vertex -0.187697 -10.000000 2.256567
endloop
endfacet
facet normal 0.152479 0.000000 0.988307
outer loop
vertex -0.708741 10.000000 2.336956
vertex -0.187697 -10.000000 2.256567
vertex -0.187697 10.000000 2.256567
endloop
endfacet
facet normal 0.058456 0.000000 0.998290
outer loop
vertex -0.187697 10.000000 2.256567
vertex -0.187697 -10.000000 2.256567
vertex 0.277688 -10.000000 2.229316
endloop
endfacet
facet normal 0.058456 0.000000 0.998290
outer loop
vertex -0.187697 10.000000 2.256567
vertex 0.277688 -10.000000 2.229316
vertex 0.277688 10.000000 2.229316
endloop
endfacet
facet normal 0.000000 0.000000 1.000000
outer loop
vertex -13.089373 10.000000 8.000000
vertex -20.000000 10.000000 8.000000
vertex -20.000000 -10.000000 8.000000
endloop
endfacet
facet normal 0.000000 0.000000 1.000000
outer loop
vertex -13.089373 10.000000 8.000000
vertex -20.000000 -10.000000 8.000000
vertex -13.089373 -10.000000 8.000000
endloop
endfacet
facet normal 0.058457 0.000000 0.998290
outer loop
vertex -13.089373 10.000000 8.000000
vertex -13.089373 -10.000000 8.000000
vertex -12.338169 -10.000000 7.956012
endloop
endfacet
facet normal 0.058457 0.000000 0.998290
outer loop
vertex -13.089373 10.000000 8.000000
vertex -12.338169 -10.000000 7.956012
vertex -12.338169 10.000000 7.956012
endloop
endfacet
facet normal 0.152479 0.000000 0.988307
outer loop
vertex -12.338169 10.000000 7.956012
vertex -12.338169 -10.000000 7.956012
vertex -11.497124 -10.000000 7.826253
endloop
endfacet
facet normal 0.152479 0.000000 0.988307
outer loop
vertex -12.338169 10.000000 7.956012
vertex -11.497124 -10.000000 7.826253
vertex -11.497124 10.000000 7.826253
endloop
endfacet
facet normal 0.228950 0.000000 0.973438
outer loop
vertex -11.497124 10.000000 7.826253
vertex -11.497124 -10.000000 7.826253
vertex -10.608413 -10.000000 7.617230
endloop
endfacet
facet normal 0.228950 0.000000 0.973438
outer loop
vertex -11.497124 10.000000 7.826253
vertex -10.608413 -10.000000 7.617230
vertex -10.608413 10.000000 7.617230
endloop
endfacet
facet normal 0.297409 0.000000 0.954750
outer loop
vertex -10.608413 10.000000 7.617230
vertex -10.608413 -10.000000 7.617230
vertex -9.716598 -10.000000 7.339425
endloop
endfacet
facet normal 0.297411 0.000000 0.954750
outer loop
vertex -10.608413 10.000000 7.617230
vertex -9.716598 -10.000000 7.339425
vertex -9.716598 10.000000 7.339425
endloop
endfacet
facet normal 0.364373 0.000000 0.931253
outer loop
vertex -9.716598 10.000000 7.339425
vertex -9.716598 -10.000000 7.339425
vertex -8.866399 -10.000000 7.006766
endloop
endfacet
facet normal 0.364373 0.000000 0.931253
outer loop
vertex -9.716598 10.000000 7.339425
vertex -8.866399 -10.000000 7.006766
vertex -8.866399 10.000000 7.006766
endloop
endfacet
facet normal 0.435760 0.000000 0.900063
outer loop
vertex -8.866399 10.000000 7.006766
vertex -8.866399 -10.000000 7.006766
vertex -8.100449 -10.000000 6.635937
endloop
endfacet
facet normal 0.435758 0.000000 0.900064
outer loop
vertex -8.866399 10.000000 7.006766
vertex -8.100449 -10.000000 6.635937
vertex -8.100449 10.000000 6.635937
endloop
endfacet
facet normal 0.518818 0.000000 0.854885
outer loop
vertex -8.100449 10.000000 6.635937
vertex -8.100449 -10.000000 6.635937
vertex -7.457154 -10.000000 6.245531
endloop
endfacet
facet normal 0.518817 0.000000 0.854885
outer loop
vertex -8.100449 10.000000 6.635937
vertex -7.457154 -10.000000 6.245531
vertex -7.457154 10.000000 6.245531
endloop
endfacet
facet normal -1.000000 0.000000 0.000000
outer loop
vertex 14.504169 -5.000000 2.469190
vertex 14.504169 -5.000000 2.229316
vertex 14.504169 -10.000000 2.229316
endloop
endfacet
facet normal -1.000000 0.000000 0.000000
outer loop
vertex 14.504169 -10.000000 2.229316
vertex 14.504169 -10.000000 3.179392
vertex 14.504169 -5.500000 3.179392
endloop
endfacet
facet normal -1.000000 0.000000 0.000000
outer loop
vertex 14.504169 -5.500000 2.469190
vertex 14.504169 -5.000000 2.469190
vertex 14.504169 -10.000000 2.229316
endloop
endfacet
facet normal -1.000000 0.000000 0.000000
outer loop
vertex 14.504169 -10.000000 2.229316
vertex 14.504169 -5.500000 3.179392
vertex 14.504169 -5.500000 2.469190
endloop
endfacet
facet normal 1.000000 0.000000 0.000000
outer loop
vertex 15.042917 5.500000 2.469190
vertex 15.042917 5.000000 2.469190
vertex 15.042917 5.000000 2.229316
endloop
endfacet
facet normal 1.000000 0.000000 0.000000
outer loop
vertex 15.042917 5.000000 2.229316
vertex 15.042917 10.000000 2.229316
vertex 15.042917 10.000000 3.179392
endloop
endfacet
facet normal 1.000000 0.000000 0.000000
outer loop
vertex 15.042917 10.000000 3.179392
vertex 15.042917 5.500000 3.179392
vertex 15.042917 5.500000 2.469190
endloop
endfacet
facet normal 1.000000 0.000000 0.000000
outer loop
vertex 15.042917 5.000000 2.229316
vertex 15.042917 10.000000 3.179392
vertex 15.042917 5.500000 2.469190
endloop
endfacet
facet normal 0.000000 0.000000 -1.000000
outer loop
vertex 14.504169 5.000000 2.229316
vertex 14.504169 10.000000 2.229316
vertex 15.042917 10.000000 2.229316
endloop
endfacet
facet normal 0.000000 0.000000 -1.000000
outer loop
vertex 14.504169 5.000000 2.229316
vertex 15.042917 10.000000 2.229316
vertex 15.042917 5.000000 2.229316
endloop
endfacet
facet normal 0.000000 0.000000 1.000000
outer loop
vertex 15.042917 5.500000 3.179392
vertex 15.042917 10.000000 3.179392
vertex 14.504169 10.000000 3.179392
endloop
endfacet
facet normal 0.000000 0.000000 1.000000
outer loop
vertex 15.042917 5.500000 3.179392
vertex 14.504169 10.000000 3.179392
vertex 14.504169 5.500000 3.179392
endloop
endfacet
facet normal 0.000000 0.000000 1.000000
outer loop
vertex 14.504169 -5.500000 3.179392
vertex 14.504169 -10.000000 3.179392
vertex 15.042917 -10.000000 3.179392
endloop
endfacet
facet normal 0.000000 0.000000 1.000000
outer loop
vertex 14.504169 -5.500000 3.179392
vertex 15.042917 -10.000000 3.179392
vertex 15.042917 -5.500000 3.179392
endloop
endfacet
facet normal 0.000000 0.000000 1.000000
outer loop
vertex 14.504169 -0.500000 3.179392
vertex 14.504169 -4.500000 3.179392
vertex 15.042917 -4.500000 3.179392
endloop
endfacet
facet normal 0.000000 0.000000 1.000000
outer loop
vertex 14.504169 -0.500000 3.179392
vertex 15.042917 -4.500000 3.179392
vertex 15.042917 -0.500000 3.179392
endloop
endfacet
facet normal 0.000000 0.000000 1.000000
outer loop
vertex 14.504169 4.500000 3.179392
vertex 14.504169 0.500000 3.179392
vertex 15.042917 0.500000 3.179392
endloop
endfacet
facet normal 0.000000 0.000000 1.000000
outer loop
vertex 14.504169 4.500000 3.179392
vertex 15.042917 0.500000 3.179392
vertex 15.042917 4.500000 3.179392
endloop
endfacet
facet normal 0.000000 0.000000 -1.000000
outer loop
vertex 14.504169 -10.000000 2.229316
vertex 14.504169 -5.000000 2.229316
vertex 15.042917 -5.000000 2.229316
endloop
endfacet
facet normal 0.000000 0.000000 -1.000000
outer loop
vertex 14.504169 -10.000000 2.229316
vertex 15.042917 -5.000000 2.229316
vertex 15.042917 -10.000000 2.229316
endloop
endfacet
facet normal 0.000000 0.000000 -1.000000
outer loop
vertex 14.504169 -5.000000 2.229316
vertex 14.504169 0.000000 2.229316
vertex 15.042917 0.000000 2.229316
endloop
endfacet
facet normal 0.000000 0.000000 -1.000000
outer loop
vertex 14.504169 -5.000000 2.229316
vertex 15.042917 0.000000 2.229316
vertex 15.042917 -5.000000 2.229316
endloop
endfacet
facet normal 0.000000 0.000000 -1.000000
outer loop
vertex 14.504169 0.000000 2.229316
vertex 14.504169 5.000000 2.229316
vertex 15.042917 5.000000 2.229316
endloop
endfacet
facet normal 0.000000 0.000000 -1.000000
outer loop
vertex 14.504169 0.000000 2.229316
vertex 15.042917 5.000000 2.229316
vertex 15.042917 0.000000 2.229316
endloop
endfacet
facet normal 1.000000 0.000000 0.000000
outer loop
vertex 15.042917 -5.500000 2.469190
vertex 15.042917 -5.500000 3.179392
vertex 15.042917 -10.000000 3.179392
endloop
endfacet
facet normal 1.000000 0.000000 0.000000
outer loop
vertex 15.042917 -10.000000 3.179392
vertex 15.042917 -10.000000 2.229316
vertex 15.042917 -5.000000 2.229316
endloop
endfacet
facet normal 1.000000 0.000000 0.000000
outer loop
vertex 15.042917 -5.000000 2.229316
vertex 15.042917 -5.000000 2.469190
vertex 15.042917 -5.500000 2.469190
endloop
endfacet
facet normal 1.000000 -0.000001 0.000000
outer loop
vertex 15.042917 -10.000000 3.179392
vertex 15.042917 -5.000000 2.229316
vertex 15.042917 -5.500000 2.469190
endloop
endfacet
facet normal 1.000000 0.000000 0.000000
outer loop
vertex 15.042917 -4.500000 2.469190
vertex 15.042917 -5.000000 2.469190
vertex 15.042917 -5.000000 2.229316
endloop
endfacet
facet normal 1.000000 0.000000 0.000000
outer loop
vertex 15.042917 -5.000000 2.229316
vertex 15.042917 0.000000 2.229316
vertex 15.042917 0.000000 2.469190
endloop
endfacet
facet normal 1.000000 0.000000 0.000000
outer loop
vertex 15.042917 -0.500000 2.469190
vertex 15.042917 -0.500000 3.179392
vertex 15.042917 -4.500000 3.179392
endloop
endfacet
facet normal 1.000000 0.000000 0.000000
outer loop
vertex 15.042917 -5.000000 2.229316
vertex 15.042917 0.000000 2.469190
vertex 15.042917 -0.500000 2.469190
endloop
endfacet
facet normal 1.000000 0.000000 0.000000
outer loop
vertex 15.042917 -0.500000 2.469190
vertex 15.042917 -4.500000 3.179392
vertex 15.042917 -4.500000 2.469190
endloop
endfacet
facet normal 1.000000 0.000000 0.000000
outer loop
vertex 15.042917 -5.000000 2.229316
vertex 15.042917 -0.500000 2.469190
vertex 15.042917 -4.500000 2.469190
endloop
endfacet
facet normal 1.000000 0.000000 0.000000
outer loop
vertex 15.042917 0.500000 2.469190
vertex 15.042917 0.000000 2.469190
vertex 15.042917 0.000000 2.229316
endloop
endfacet
facet normal 1.000000 0.000000 0.000000
outer loop
vertex 15.042917 0.000000 2.229316
vertex 15.042917 5.000000 2.229316
vertex 15.042917 5.000000 2.469190
endloop
endfacet
facet normal 1.000000 0.000000 0.000000
outer loop
vertex 15.042917 4.500000 2.469190
vertex 15.042917 4.500000 3.179392
vertex 15.042917 0.500000 3.179392
endloop
endfacet
facet normal 1.000000 0.000000 0.000000
outer loop
vertex 15.042917 0.000000 2.229316
vertex 15.042917 5.000000 2.469190
vertex 15.042917 4.500000 2.469190
endloop
endfacet
facet normal 1.000000 0.000000 0.000000
outer loop
vertex 15.042917 4.500000 2.469190
vertex 15.042917 0.500000 3.179392
vertex 15.042917 0.500000 2.469190
endloop
endfacet
facet normal 1.000000 0.000000 0.000000
outer loop
vertex 15.042917 0.000000 2.229316
vertex 15.042917 4.500000 2.469190
vertex 15.042917 0.500000 2.469190
endloop
endfacet
facet normal -1.000000 0.000000 0.000000
outer loop
vertex 14.504169 5.500000 3.179392
vertex 14.504169 10.000000 3.179392
vertex 14.504169 10.000000 2.229316
endloop
endfacet
facet normal -1.000000 0.000000 0.000000
outer loop
vertex 14.504169 10.000000 2.229316
vertex 14.504169 5.000000 2.229316
vertex 14.504169 5.000000 2.469190
endloop
endfacet
facet normal -1.000000 0.000000 0.000000
outer loop
vertex 14.504169 5.500000 2.469190
vertex 14.504169 5.500000 3.179392
vertex 14.504169 10.000000 2.229316
endloop
endfacet
facet normal -1.000000 0.000000 0.000000
outer loop
vertex 14.504169 10.000000 2.229316
vertex 14.504169 5.000000 2.469190
vertex 14.504169 5.500000 2.469190
endloop
endfacet
facet normal -1.000000 0.000000 0.000000
outer loop
vertex 14.504169 5.000000 2.469190
vertex 14.504169 5.000000 2.229316
vertex 14.504169 0.000000 2.229316
endloop
endfacet
facet normal -1.000000 0.000000 0.000000
outer loop
vertex 14.504169 0.000000 2.229316
vertex 14.504169 0.000000 2.469190
vertex 14.504169 0.500000 2.469190
endloop
endfacet
facet normal -1.000000 0.000000 0.000000
outer loop
vertex 14.504169 0.500000 2.469190
vertex 14.504169 0.500000 3.179392
vertex 14.504169 4.500000 3.179392
endloop
endfacet
facet normal -1.000000 0.000000 0.000000
outer loop
vertex 14.504169 4.500000 2.469190
vertex 14.504169 5.000000 2.469190
vertex 14.504169 0.000000 2.229316
endloop
endfacet
facet normal -1.000000 0.000000 0.000000
outer loop
vertex 14.504169 0.500000 2.469190
vertex 14.504169 4.500000 3.179392
vertex 14.504169 4.500000 2.469190
endloop
endfacet
facet normal -1.000000 0.000000 0.000000
outer loop
vertex 14.504169 0.000000 2.229316
vertex 14.504169 0.500000 2.469190
vertex 14.504169 4.500000 2.469190
endloop
endfacet
facet normal -1.000000 0.000000 0.000000
outer loop
vertex 14.504169 0.000000 2.469190
vertex 14.504169 0.000000 2.229316
vertex 14.504169 -5.000000 2.229316
endloop
endfacet
facet normal -1.000000 0.000000 0.000000
outer loop
vertex 14.504169 -5.000000 2.229316
vertex 14.504169 -5.000000 2.469190
vertex 14.504169 -4.500000 2.469190
endloop
endfacet
facet normal -1.000000 0.000000 0.000000
outer loop
vertex 14.504169 -4.500000 2.469190
vertex 14.504169 -4.500000 3.179392
vertex 14.504169 -0.500000 3.179392
endloop
endfacet
facet normal -1.000000 0.000000 0.000000
outer loop
vertex 14.504169 -0.500000 2.469190
vertex 14.504169 0.000000 2.469190
vertex 14.504169 -5.000000 2.229316
endloop
endfacet
facet normal -1.000000 0.000000 0.000000
outer loop
vertex 14.504169 -4.500000 2.469190
vertex 14.504169 -0.500000 3.179392
vertex 14.504169 -0.500000 2.469190
endloop
endfacet
facet normal -1.000000 0.000000 0.000000
outer loop
vertex 14.504169 -5.000000 2.229316
vertex 14.504169 -4.500000 2.469190
vertex 14.504169 -0.500000 2.469190
endloop
endfacet
facet normal 0.000000 -1.000000 0.000000
outer loop
vertex 14.504169 -4.500000 3.179392
vertex 14.504169 -4.500000 2.469190
vertex 15.042917 -4.500000 2.469190
endloop
endfacet
facet normal 0.000000 -1.000000 0.000000
outer loop
vertex 14.504169 -4.500000 3.179392
vertex 15.042917 -4.500000 2.469190
vertex 15.042917 -4.500000 3.179392
endloop
endfacet
facet normal 0.000000 1.000000 0.000000
outer loop
vertex 15.042917 -5.500000 2.469190
vertex 14.504169 -5.500000 2.469190
vertex 14.504169 -5.500000 3.179392
endloop
endfacet
facet normal 0.000000 1.000000 0.000000
outer loop
vertex 15.042917 -5.500000 2.469190
vertex 14.504169 -5.500000 3.179392
vertex 15.042917 -5.500000 3.179392
endloop
endfacet
facet normal 0.000000 0.000000 1.000000
outer loop
vertex 15.042917 -5.000000 2.469190
vertex 15.042917 -4.500000 2.469190
vertex 14.504169 -4.500000 2.469190
endloop
endfacet
facet normal 0.000000 0.000000 1.000000
outer loop
vertex 14.504169 -5.000000 2.469190
vertex 14.504169 -5.500000 2.469190
vertex 15.042917 -5.500000 2.469190
endloop
endfacet
facet normal 0.000000 0.000000 1.000000
outer loop
vertex 15.042917 -5.000000 2.469190
vertex 14.504169 -4.500000 2.469190
vertex 14.504169 -5.000000 2.469190
endloop
endfacet
facet normal 0.000000 0.000000 1.000000
outer loop
vertex 15.042917 -5.000000 2.469190
vertex 14.504169 -5.000000 2.469190
vertex 15.042917 -5.500000 2.469190
endloop
endfacet
facet normal 0.000000 -1.000000 0.000000
outer loop
vertex 14.504169 0.500000 3.179392
vertex 14.504169 0.500000 2.469190
vertex 15.042917 0.500000 2.469190
endloop
endfacet
facet normal 0.000000 -1.000000 0.000000
outer loop
vertex 14.504169 0.500000 3.179392
vertex 15.042917 0.500000 2.469190
vertex 15.042917 0.500000 3.179392
endloop
endfacet
facet normal 0.000000 1.000000 0.000000
outer loop
vertex 14.504169 -0.500000 3.179392
vertex 15.042917 -0.500000 3.179392
vertex 15.042917 -0.500000 2.469190
endloop
endfacet
facet normal 0.000000 1.000000 0.000000
outer loop
vertex 14.504169 -0.500000 3.179392
vertex 15.042917 -0.500000 2.469190
vertex 14.504169 -0.500000 2.469190
endloop
endfacet
facet normal 0.000000 0.000000 1.000000
outer loop
vertex 14.504169 -0.500000 2.469190
vertex 15.042917 -0.500000 2.469190
vertex 15.042917 0.000000 2.469190
endloop
endfacet
facet normal 0.000000 0.000000 1.000000
outer loop
vertex 15.042917 0.000000 2.469190
vertex 15.042917 0.500000 2.469190
vertex 14.504169 0.500000 2.469190
endloop
endfacet
facet normal 0.000000 0.000000 1.000000
outer loop
vertex 14.504169 0.000000 2.469190
vertex 14.504169 -0.500000 2.469190
vertex 15.042917 0.000000 2.469190
endloop
endfacet
facet normal 0.000000 0.000000 1.000000
outer loop
vertex 15.042917 0.000000 2.469190
vertex 14.504169 0.500000 2.469190
vertex 14.504169 0.000000 2.469190
endloop
endfacet
facet normal 0.000000 -1.000000 0.000000
outer loop
vertex 14.504169 5.500000 2.469190
vertex 15.042917 5.500000 2.469190
vertex 15.042917 5.500000 3.179392
endloop
endfacet
facet normal 0.000000 -1.000000 0.000000
outer loop
vertex 14.504169 5.500000 2.469190
vertex 15.042917 5.500000 3.179392
vertex 14.504169 5.500000 3.179392
endloop
endfacet
facet normal 0.000000 1.000000 0.000000
outer loop
vertex 14.504169 4.500000 3.179392
vertex 15.042917 4.500000 3.179392
vertex 15.042917 4.500000 2.469190
endloop
endfacet
facet normal 0.000000 1.000000 0.000000
outer loop
vertex 14.504169 4.500000 3.179392
vertex 15.042917 4.500000 2.469190
vertex 14.504169 4.500000 2.469190
endloop
endfacet
facet normal 0.000000 0.000000 1.000000
outer loop
vertex 14.504169 4.500000 2.469190
vertex 15.042917 4.500000 2.469190
vertex 15.042917 5.000000 2.469190
endloop
endfacet
facet normal 0.000000 0.000000 1.000000
outer loop
vertex 15.042917 5.000000 2.469190
vertex 15.042917 5.500000 2.469190
vertex 14.504169 5.500000 2.469190
endloop
endfacet
facet normal 0.000000 0.000000 1.000000
outer loop
vertex 14.504169 5.000000 2.469190
vertex 14.504169 4.500000 2.469190
vertex 15.042917 5.000000 2.469190
endloop
endfacet
facet normal 0.000000 0.000000 1.000000
outer loop
vertex 15.042917 5.000000 2.469190
vertex 14.504169 5.500000 2.469190
vertex 14.504169 5.000000 2.469190
endloop
endfacet
facet normal 0.027177 0.999631 0.000000
outer loop
vertex -10.116068 -3.280602 7.463861
vertex -10.116068 -3.280602 13.508696
vertex -9.607632 -3.294425 13.508696
endloop
endfacet
facet normal 0.027179 0.999631 0.000000
outer loop
vertex -9.607632 -3.294425 13.508696
vertex -9.607632 -3.294425 7.296789
vertex -9.716597 -3.291463 7.339424
endloop
endfacet
facet normal 0.027177 0.999631 0.000000
outer loop
vertex -9.607632 -3.294425 13.508696
vertex -9.716597 -3.291463 7.339424
vertex -10.116068 -3.280602 7.463861
endloop
endfacet
facet normal 0.083443 0.996513 0.000000
outer loop
vertex -9.118733 -3.335363 13.508696
vertex -9.118733 -3.335363 7.105497
vertex -9.607632 -3.294425 7.296789
endloop
endfacet
facet normal 0.083443 0.996513 0.000000
outer loop
vertex -9.118733 -3.335363 13.508696
vertex -9.607632 -3.294425 7.296789
vertex -9.607632 -3.294425 13.508696
endloop
endfacet
facet normal 0.145965 0.989290 0.000000
outer loop
vertex -9.118733 -3.335363 13.508696
vertex -8.668162 -3.401843 13.508696
vertex -8.668162 -3.401843 6.910791
endloop
endfacet
facet normal 0.145964 0.989290 0.000000
outer loop
vertex -8.866399 -3.372594 7.006766
vertex -9.118733 -3.335363 7.105497
vertex -9.118733 -3.335363 13.508696
endloop
endfacet
facet normal 0.145966 0.989290 0.000000
outer loop
vertex -8.668162 -3.401843 6.910791
vertex -8.866399 -3.372594 7.006766
vertex -9.118733 -3.335363 13.508696
endloop
endfacet
facet normal 0.220940 0.975287 0.000000
outer loop
vertex -8.273233 -3.491309 13.508696
vertex -8.273233 -3.491309 6.719589
vertex -8.668162 -3.401843 6.910791
endloop
endfacet
facet normal 0.220939 0.975288 0.000000
outer loop
vertex -8.273233 -3.491309 13.508696
vertex -8.668162 -3.401843 6.910791
vertex -8.668162 -3.401843 13.508696
endloop
endfacet
facet normal 0.318800 0.947822 0.000000
outer loop
vertex -8.100448 -3.549426 6.635937
vertex -8.273233 -3.491309 6.719589
vertex -8.273233 -3.491309 13.508696
endloop
endfacet
facet normal 0.318802 0.947821 0.000000
outer loop
vertex -8.273233 -3.491309 13.508696
vertex -7.949123 -3.600324 13.508696
vertex -7.949123 -3.600324 6.544100
endloop
endfacet
facet normal 0.318803 0.947821 0.000000
outer loop
vertex -8.273233 -3.491309 13.508696
vertex -7.949123 -3.600324 6.544100
vertex -8.100448 -3.549426 6.635937
endloop
endfacet
facet normal 0.458855 0.888511 0.000000
outer loop
vertex -7.949123 -3.600324 6.544100
vertex -7.949123 -3.600324 13.508696
vertex -7.708288 -3.724699 13.508696
endloop
endfacet
facet normal 0.458853 0.888512 0.000000
outer loop
vertex -7.949123 -3.600324 6.544100
vertex -7.708288 -3.724699 13.508696
vertex -7.708288 -3.724699 6.397941
endloop
endfacet
facet normal 0.673032 0.739613 0.000000
outer loop
vertex -7.708288 -3.724699 6.397941
vertex -7.708288 -3.724699 13.508696
vertex -7.559983 -3.859653 13.508696
endloop
endfacet
facet normal 0.673031 0.739614 0.000000
outer loop
vertex -7.708288 -3.724699 6.397941
vertex -7.559983 -3.859653 13.508696
vertex -7.559983 -3.859653 6.307936
endloop
endfacet
facet normal 0.941841 0.336059 0.000000
outer loop
vertex -7.559983 -3.859653 6.307936
vertex -7.559983 -3.859653 13.508696
vertex -7.509906 -4.000000 13.508696
endloop
endfacet
facet normal 0.941840 0.336062 0.000000
outer loop
vertex -7.559983 -3.859653 6.307936
vertex -7.509906 -4.000000 13.508696
vertex -7.509906 -4.000000 6.277545
endloop
endfacet
facet normal 0.941840 -0.336062 0.000000
outer loop
vertex -7.509906 -4.000000 6.277545
vertex -7.509906 -4.000000 13.508696
vertex -7.559983 -4.140347 13.508696
endloop
endfacet
facet normal 0.941841 -0.336059 0.000000
outer loop
vertex -7.509906 -4.000000 6.277545
vertex -7.559983 -4.140347 13.508696
vertex -7.559983 -4.140347 6.307936
endloop
endfacet
facet normal 0.673034 -0.739612 0.000000
outer loop
vertex -7.559983 -4.140347 6.307936
vertex -7.559983 -4.140347 13.508696
vertex -7.708288 -4.275301 13.508696
endloop
endfacet
facet normal 0.673029 -0.739616 0.000000
outer loop
vertex -7.559983 -4.140347 6.307936
vertex -7.708288 -4.275301 13.508696
vertex -7.708288 -4.275301 6.397941
endloop
endfacet
facet normal 0.458854 -0.888512 0.000000
outer loop
vertex -7.708288 -4.275301 6.397941
vertex -7.708288 -4.275301 13.508696
vertex -7.949123 -4.399676 13.508696
endloop
endfacet
facet normal 0.458853 -0.888512 0.000000
outer loop
vertex -7.708288 -4.275301 6.397941
vertex -7.949123 -4.399676 13.508696
vertex -7.949123 -4.399676 6.544100
endloop
endfacet
facet normal 0.318800 -0.947822 0.000000
outer loop
vertex -8.100448 -4.450574 6.635937
vertex -7.949123 -4.399676 6.544100
vertex -7.949123 -4.399676 13.508696
endloop
endfacet
facet normal 0.318802 -0.947821 0.000000
outer loop
vertex -7.949123 -4.399676 13.508696
vertex -8.273233 -4.508691 13.508696
vertex -8.273233 -4.508691 6.719589
endloop
endfacet
facet normal 0.318801 -0.947822 -0.000000
outer loop
vertex -7.949123 -4.399676 13.508696
vertex -8.273233 -4.508691 6.719589
vertex -8.100448 -4.450574 6.635937
endloop
endfacet
facet normal 0.220941 -0.975287 0.000000
outer loop
vertex -8.273233 -4.508691 6.719589
vertex -8.273233 -4.508691 13.508696
vertex -8.668162 -4.598157 13.508696
endloop
endfacet
facet normal 0.220939 -0.975288 0.000000
outer loop
vertex -8.273233 -4.508691 6.719589
vertex -8.668162 -4.598157 13.508696
vertex -8.668162 -4.598157 6.910791
endloop
endfacet
facet normal 0.145964 -0.989290 0.000000
outer loop
vertex -8.866399 -4.627406 7.006766
vertex -8.668162 -4.598157 6.910791
vertex -8.668162 -4.598157 13.508696
endloop
endfacet
facet normal 0.145964 -0.989290 0.000000
outer loop
vertex -8.668162 -4.598157 13.508696
vertex -9.118733 -4.664637 13.508696
vertex -9.118733 -4.664637 7.105497
endloop
endfacet
facet normal 0.145964 -0.989290 -0.000000
outer loop
vertex -8.668162 -4.598157 13.508696
vertex -9.118733 -4.664637 7.105497
vertex -8.866399 -4.627406 7.006766
endloop
endfacet
facet normal 0.083443 -0.996513 0.000000
outer loop
vertex -9.118733 -4.664637 7.105497
vertex -9.118733 -4.664637 13.508696
vertex -9.607632 -4.705575 13.508696
endloop
endfacet
facet normal 0.083443 -0.996513 0.000000
outer loop
vertex -9.118733 -4.664637 7.105497
vertex -9.607632 -4.705575 13.508696
vertex -9.607632 -4.705575 7.296789
endloop
endfacet
facet normal 0.027178 -0.999631 0.000000
outer loop
vertex -9.716597 -4.708537 7.339424
vertex -9.607632 -4.705575 7.296789
vertex -9.607632 -4.705575 13.508696
endloop
endfacet
facet normal 0.027177 -0.999631 0.000000
outer loop
vertex -9.607632 -4.705575 13.508696
vertex -10.116068 -4.719398 13.508696
vertex -10.116068 -4.719398 7.463861
endloop
endfacet
facet normal 0.027177 -0.999631 -0.000000
outer loop
vertex -9.607632 -4.705575 13.508696
vertex -10.116068 -4.719398 7.463861
vertex -9.716597 -4.708537 7.339424
endloop
endfacet
facet normal -0.027177 -0.999631 0.000000
outer loop
vertex -10.608413 -4.706012 7.617229
vertex -10.116068 -4.719398 7.463861
vertex -10.116068 -4.719398 13.508696
endloop
endfacet
facet normal -0.027177 -0.999631 0.000000
outer loop
vertex -10.116068 -4.719398 13.508696
vertex -10.624505 -4.705575 13.508696
vertex -10.624505 -4.705575 7.621015
endloop
endfacet
facet normal -0.027189 -0.999630 -0.000004
outer loop
vertex -10.116068 -4.719398 13.508696
vertex -10.624505 -4.705575 7.621015
vertex -10.608413 -4.706012 7.617229
endloop
endfacet
facet normal -0.083443 -0.996513 0.000000
outer loop
vertex -10.624505 -4.705575 7.621015
vertex -10.624505 -4.705575 13.508696
vertex -11.113403 -4.664637 13.508696
endloop
endfacet
facet normal -0.083443 -0.996513 0.000000
outer loop
vertex -10.624505 -4.705575 7.621015
vertex -11.113403 -4.664637 13.508696
vertex -11.113403 -4.664637 7.736002
endloop
endfacet
facet normal -0.145964 -0.989290 0.000000
outer loop
vertex -11.497123 -4.608021 7.826252
vertex -11.113403 -4.664637 7.736002
vertex -11.113403 -4.664637 13.508696
endloop
endfacet
facet normal -0.145964 -0.989290 0.000000
outer loop
vertex -11.113403 -4.664637 13.508696
vertex -11.563974 -4.598157 13.508696
vertex -11.563974 -4.598157 7.836566
endloop
endfacet
facet normal -0.145963 -0.989290 -0.000001
outer loop
vertex -11.113403 -4.664637 13.508696
vertex -11.563974 -4.598157 7.836566
vertex -11.497123 -4.608021 7.826252
endloop
endfacet
facet normal -0.220941 -0.975287 0.000000
outer loop
vertex -11.563974 -4.598157 7.836566
vertex -11.563974 -4.598157 13.508696
vertex -11.958903 -4.508691 13.508696
endloop
endfacet
facet normal -0.220938 -0.975288 0.000000
outer loop
vertex -11.563974 -4.598157 7.836566
vertex -11.958903 -4.508691 13.508696
vertex -11.958903 -4.508691 7.897497
endloop
endfacet
facet normal -0.318803 -0.947821 0.000000
outer loop
vertex -11.958903 -4.508691 7.897497
vertex -11.958903 -4.508691 13.508696
vertex -12.283012 -4.399676 13.508696
endloop
endfacet
facet normal -0.318803 -0.947821 0.000000
outer loop
vertex -11.958903 -4.508691 7.897497
vertex -12.283012 -4.399676 13.508696
vertex -12.283012 -4.399676 7.947502
endloop
endfacet
facet normal -0.458851 -0.888513 0.000000
outer loop
vertex -12.283012 -4.399676 7.947502
vertex -12.283012 -4.399676 13.508696
vertex -12.523848 -4.275301 13.508696
endloop
endfacet
facet normal -0.458859 -0.888509 0.000000
outer loop
vertex -12.523848 -4.275301 13.508696
vertex -12.523848 -4.275301 7.966884
vertex -12.338169 -4.371192 7.956011
endloop
endfacet
facet normal -0.458847 -0.888515 0.000001
outer loop
vertex -12.523848 -4.275301 13.508696
vertex -12.338169 -4.371192 7.956011
vertex -12.283012 -4.399676 7.947502
endloop
endfacet
facet normal -0.673026 -0.739619 0.000000
outer loop
vertex -12.523848 -4.275301 13.508696
vertex -12.672153 -4.140347 13.508696
vertex -12.672153 -4.140347 7.975568
endloop
endfacet
facet normal -0.673031 -0.739615 0.000000
outer loop
vertex -12.523848 -4.275301 13.508696
vertex -12.672153 -4.140347 7.975568
vertex -12.523848 -4.275301 7.966884
endloop
endfacet
facet normal -0.941847 -0.336042 0.000000
outer loop
vertex -12.672153 -4.140347 7.975568
vertex -12.672153 -4.140347 13.508696
vertex -12.722230 -4.000000 13.508696
endloop
endfacet
facet normal -0.941843 -0.336052 0.000000
outer loop
vertex -12.672153 -4.140347 7.975568
vertex -12.722230 -4.000000 13.508696
vertex -12.722230 -4.000000 7.978501
endloop
endfacet
facet normal -0.941843 0.336052 0.000000
outer loop
vertex -12.722230 -4.000000 7.978501
vertex -12.722230 -4.000000 13.508696
vertex -12.672153 -3.859653 13.508696
endloop
endfacet
facet normal -0.941847 0.336042 0.000000
outer loop
vertex -12.722230 -4.000000 7.978501
vertex -12.672153 -3.859653 13.508696
vertex -12.672153 -3.859653 7.975568
endloop
endfacet
facet normal -0.673031 0.739615 0.000000
outer loop
vertex -12.523848 -3.724699 13.508696
vertex -12.523848 -3.724699 7.966884
vertex -12.672153 -3.859653 7.975568
endloop
endfacet
facet normal -0.673026 0.739619 0.000000
outer loop
vertex -12.523848 -3.724699 13.508696
vertex -12.672153 -3.859653 7.975568
vertex -12.672153 -3.859653 13.508696
endloop
endfacet
facet normal -0.458851 0.888513 0.000000
outer loop
vertex -12.523848 -3.724699 13.508696
vertex -12.283012 -3.600324 13.508696
vertex -12.283012 -3.600324 7.947502
endloop
endfacet
facet normal -0.458857 0.888510 0.000000
outer loop
vertex -12.338169 -3.628808 7.956011
vertex -12.523848 -3.724699 7.966884
vertex -12.523848 -3.724699 13.508696
endloop
endfacet
facet normal -0.458848 0.888515 0.000000
outer loop
vertex -12.283012 -3.600324 7.947502
vertex -12.338169 -3.628808 7.956011
vertex -12.523848 -3.724699 13.508696
endloop
endfacet
facet normal -0.318803 0.947821 0.000000
outer loop
vertex -11.958903 -3.491309 13.508696
vertex -11.958903 -3.491309 7.897497
vertex -12.283012 -3.600324 7.947502
endloop
endfacet
facet normal -0.318803 0.947821 0.000000
outer loop
vertex -11.958903 -3.491309 13.508696
vertex -12.283012 -3.600324 7.947502
vertex -12.283012 -3.600324 13.508696
endloop
endfacet
facet normal -0.220939 0.975288 0.000000
outer loop
vertex -11.563974 -3.401843 13.508696
vertex -11.563974 -3.401843 7.836566
vertex -11.958903 -3.491309 7.897497
endloop
endfacet
facet normal -0.220939 0.975288 0.000000
outer loop
vertex -11.563974 -3.401843 13.508696
vertex -11.958903 -3.491309 7.897497
vertex -11.958903 -3.491309 13.508696
endloop
endfacet
facet normal -0.145965 0.989290 0.000000
outer loop
vertex -11.563974 -3.401843 7.836566
vertex -11.563974 -3.401843 13.508696
vertex -11.113403 -3.335363 13.508696
endloop
endfacet
facet normal -0.145964 0.989290 0.000000
outer loop
vertex -11.113403 -3.335363 13.508696
vertex -11.113403 -3.335363 7.736002
vertex -11.497123 -3.391979 7.826252
endloop
endfacet
facet normal -0.145967 0.989289 0.000000
outer loop
vertex -11.113403 -3.335363 13.508696
vertex -11.497123 -3.391979 7.826252
vertex -11.563974 -3.401843 7.836566
endloop
endfacet
facet normal -0.083443 0.996513 0.000000
outer loop
vertex -10.624505 -3.294425 13.508696
vertex -10.624505 -3.294425 7.621015
vertex -11.113403 -3.335363 7.736002
endloop
endfacet
facet normal -0.083443 0.996513 0.000000
outer loop
vertex -10.624505 -3.294425 13.508696
vertex -11.113403 -3.335363 7.736002
vertex -11.113403 -3.335363 13.508696
endloop
endfacet
facet normal -0.027177 0.999631 0.000000
outer loop
vertex -10.624505 -3.294425 7.621015
vertex -10.624505 -3.294425 13.508696
vertex -10.116068 -3.280602 13.508696
endloop
endfacet
facet normal -0.027177 0.999631 0.000000
outer loop
vertex -10.116068 -3.280602 13.508696
vertex -10.116068 -3.280602 7.463861
vertex -10.608413 -3.293988 7.617229
endloop
endfacet
facet normal -0.027174 0.999631 -0.000001
outer loop
vertex -10.116068 -3.280602 13.508696
vertex -10.608413 -3.293988 7.617229
vertex -10.624505 -3.294425 7.621015
endloop
endfacet
facet normal -0.058459 0.000000 -0.998290
outer loop
vertex -12.338169 -3.628808 7.956011
vertex -12.338169 -4.371192 7.956011
vertex -12.523848 -4.275301 7.966884
endloop
endfacet
facet normal -0.058451 0.000003 -0.998290
outer loop
vertex -12.523848 -4.275301 7.966884
vertex -12.672153 -4.140347 7.975568
vertex -12.722230 -4.000000 7.978501
endloop
endfacet
facet normal -0.058451 -0.000002 -0.998290
outer loop
vertex -12.722230 -4.000000 7.978501
vertex -12.672153 -3.859653 7.975568
vertex -12.523848 -3.724699 7.966884
endloop
endfacet
facet normal -0.058453 0.000000 -0.998290
outer loop
vertex -12.523848 -3.724699 7.966884
vertex -12.338169 -3.628808 7.956011
vertex -12.523848 -4.275301 7.966884
endloop
endfacet
facet normal -0.058458 0.000000 -0.998290
outer loop
vertex -12.523848 -4.275301 7.966884
vertex -12.722230 -4.000000 7.978501
vertex -12.523848 -3.724699 7.966884
endloop
endfacet
facet normal -0.152491 0.000000 -0.988305
outer loop
vertex -11.497123 -3.391979 7.826252
vertex -11.497123 -4.608021 7.826252
vertex -11.563974 -4.598157 7.836566
endloop
endfacet
facet normal -0.152491 -0.000008 -0.988305
outer loop
vertex -11.563974 -4.598157 7.836566
vertex -11.958903 -4.508691 7.897497
vertex -12.283012 -4.399676 7.947502
endloop
endfacet
facet normal -0.152470 0.000000 -0.988308
outer loop
vertex -12.283012 -4.399676 7.947502
vertex -12.338169 -4.371192 7.956011
vertex -12.338169 -3.628808 7.956011
endloop
endfacet
facet normal -0.152516 0.000037 -0.988301
outer loop
vertex -12.338169 -3.628808 7.956011
vertex -12.283012 -3.600324 7.947502
vertex -11.958903 -3.491309 7.897497
endloop
endfacet
facet normal -0.152543 0.000000 -0.988297
outer loop
vertex -11.958903 -3.491309 7.897497
vertex -11.563974 -3.401843 7.836566
vertex -11.497123 -3.391979 7.826252
endloop
endfacet
facet normal -0.152478 0.000000 -0.988307
outer loop
vertex -11.497123 -3.391979 7.826252
vertex -11.563974 -4.598157 7.836566
vertex -12.283012 -4.399676 7.947502
endloop
endfacet
facet normal -0.152476 -0.000000 -0.988307
outer loop
vertex -12.283012 -4.399676 7.947502
vertex -12.338169 -3.628808 7.956011
vertex -11.958903 -3.491309 7.897497
endloop
endfacet
facet normal -0.152479 0.000000 -0.988307
outer loop
vertex -12.283012 -4.399676 7.947502
vertex -11.958903 -3.491309 7.897497
vertex -11.497123 -3.391979 7.826252
endloop
endfacet
facet normal -0.228967 0.000000 -0.973434
outer loop
vertex -10.608413 -3.293988 7.617229
vertex -10.608413 -4.706012 7.617229
vertex -10.624505 -4.705575 7.621015
endloop
endfacet
facet normal -0.228936 0.000000 -0.973441
outer loop
vertex -10.624505 -4.705575 7.621015
vertex -11.113403 -4.664637 7.736002
vertex -11.497123 -4.608021 7.826252
endloop
endfacet
facet normal -0.228950 0.000000 -0.973438
outer loop
vertex -11.497123 -4.608021 7.826252
vertex -11.497123 -3.391979 7.826252
vertex -11.113403 -3.335363 7.736002
endloop
endfacet
facet normal -0.228920 0.001141 -0.973445
outer loop
vertex -11.113403 -3.335363 7.736002
vertex -10.624505 -3.294425 7.621015
vertex -10.608413 -3.293988 7.617229
endloop
endfacet
facet normal -0.228951 -0.000000 -0.973438
outer loop
vertex -10.608413 -3.293988 7.617229
vertex -10.624505 -4.705575 7.621015
vertex -11.497123 -4.608021 7.826252
endloop
endfacet
facet normal -0.228950 0.000000 -0.973438
outer loop
vertex -11.497123 -4.608021 7.826252
vertex -11.113403 -3.335363 7.736002
vertex -10.608413 -3.293988 7.617229
endloop
endfacet
facet normal -0.297409 0.000000 -0.954750
outer loop
vertex -10.116068 -3.280602 7.463861
vertex -9.716597 -3.291463 7.339424
vertex -9.716597 -4.708537 7.339424
endloop
endfacet
facet normal -0.297412 0.000000 -0.954749
outer loop
vertex -9.716597 -4.708537 7.339424
vertex -10.116068 -4.719398 7.463861
vertex -10.608413 -4.706012 7.617229
endloop
endfacet
facet normal -0.297409 0.000000 -0.954750
outer loop
vertex -10.608413 -4.706012 7.617229
vertex -10.608413 -3.293988 7.617229
vertex -10.116068 -3.280602 7.463861
endloop
endfacet
facet normal -0.297410 0.000000 -0.954750
outer loop
vertex -9.716597 -4.708537 7.339424
vertex -10.608413 -4.706012 7.617229
vertex -10.116068 -3.280602 7.463861
endloop
endfacet
facet normal -0.364381 -0.000028 -0.931250
outer loop
vertex -9.607632 -3.294425 7.296789
vertex -9.118733 -3.335363 7.105497
vertex -8.866399 -3.372594 7.006766
endloop
endfacet
facet normal -0.364373 0.000000 -0.931253
outer loop
vertex -8.866399 -3.372594 7.006766
vertex -8.866399 -4.627406 7.006766
vertex -9.118733 -4.664637 7.105497
endloop
endfacet
facet normal -0.364382 -0.000166 -0.931250
outer loop
vertex -9.118733 -4.664637 7.105497
vertex -9.607632 -4.705575 7.296789
vertex -9.716597 -4.708537 7.339424
endloop
endfacet
facet normal -0.364378 0.000000 -0.931251
outer loop
vertex -9.716597 -4.708537 7.339424
vertex -9.716597 -3.291463 7.339424
vertex -9.607632 -3.294425 7.296789
endloop
endfacet
facet normal -0.364372 0.000000 -0.931254
outer loop
vertex -9.607632 -3.294425 7.296789
vertex -8.866399 -3.372594 7.006766
vertex -9.118733 -4.664637 7.105497
endloop
endfacet
facet normal -0.364372 0.000001 -0.931253
outer loop
vertex -9.118733 -4.664637 7.105497
vertex -9.716597 -4.708537 7.339424
vertex -9.607632 -3.294425 7.296789
endloop
endfacet
facet normal -0.435768 0.000000 -0.900059
outer loop
vertex -8.668162 -3.401843 6.910791
vertex -8.273233 -3.491309 6.719589
vertex -8.100448 -3.549426 6.635937
endloop
endfacet
facet normal -0.435757 0.000000 -0.900065
outer loop
vertex -8.100448 -3.549426 6.635937
vertex -8.100448 -4.450574 6.635937
vertex -8.273233 -4.508691 6.719589
endloop
endfacet
facet normal -0.435785 -0.000087 -0.900051
outer loop
vertex -8.273233 -4.508691 6.719589
vertex -8.668162 -4.598157 6.910791
vertex -8.866399 -4.627406 7.006766
endloop
endfacet
facet normal -0.435758 0.000000 -0.900064
outer loop
vertex -8.866399 -4.627406 7.006766
vertex -8.866399 -3.372594 7.006766
vertex -8.668162 -3.401843 6.910791
endloop
endfacet
facet normal -0.435759 0.000000 -0.900063
outer loop
vertex -8.668162 -3.401843 6.910791
vertex -8.100448 -3.549426 6.635937
vertex -8.273233 -4.508691 6.719589
endloop
endfacet
facet normal -0.435761 0.000001 -0.900063
outer loop
vertex -8.273233 -4.508691 6.719589
vertex -8.866399 -4.627406 7.006766
vertex -8.668162 -3.401843 6.910791
endloop
endfacet
facet normal -0.518814 0.000015 -0.854887
outer loop
vertex -7.949123 -3.600324 6.544100
vertex -7.708288 -3.724699 6.397941
vertex -7.559983 -3.859653 6.307936
endloop
endfacet
facet normal -0.518814 0.000000 -0.854887
outer loop
vertex -7.559983 -3.859653 6.307936
vertex -7.509906 -4.000000 6.277545
vertex -7.559983 -4.140347 6.307936
endloop
endfacet
facet normal -0.518817 -0.000015 -0.854885
outer loop
vertex -7.559983 -4.140347 6.307936
vertex -7.708288 -4.275301 6.397941
vertex -7.949123 -4.399676 6.544100
endloop
endfacet
facet normal -0.518815 0.000000 -0.854886
outer loop
vertex -7.949123 -4.399676 6.544100
vertex -8.100448 -4.450574 6.635937
vertex -8.100448 -3.549426 6.635937
endloop
endfacet
facet normal -0.518803 0.000010 -0.854894
outer loop
vertex -8.100448 -3.549426 6.635937
vertex -7.949123 -3.600324 6.544100
vertex -7.559983 -3.859653 6.307936
endloop
endfacet
facet normal -0.518818 0.000000 -0.854885
outer loop
vertex -7.559983 -3.859653 6.307936
vertex -7.559983 -4.140347 6.307936
vertex -7.949123 -4.399676 6.544100
endloop
endfacet
facet normal -0.518817 -0.000000 -0.854885
outer loop
vertex -7.559983 -3.859653 6.307936
vertex -7.949123 -4.399676 6.544100
vertex -8.100448 -3.549426 6.635937
endloop
endfacet
facet normal 0.027176 0.999631 0.000000
outer loop
vertex -10.116068 4.719398 13.508696
vertex -9.607631 4.705575 13.508696
vertex -9.607631 4.705575 7.296788
endloop
endfacet
facet normal 0.027177 0.999631 0.000000
outer loop
vertex -9.716597 4.708537 7.339424
vertex -10.116068 4.719398 7.463861
vertex -10.116068 4.719398 13.508696
endloop
endfacet
facet normal 0.027173 0.999631 0.000000
outer loop
vertex -9.607631 4.705575 7.296788
vertex -9.716597 4.708537 7.339424
vertex -10.116068 4.719398 13.508696
endloop
endfacet
facet normal 0.083442 0.996513 0.000000
outer loop
vertex -9.118732 4.664638 13.508696
vertex -9.118732 4.664638 7.105497
vertex -9.607631 4.705575 7.296788
endloop
endfacet
facet normal 0.083442 0.996513 0.000000
outer loop
vertex -9.118732 4.664638 13.508696
vertex -9.607631 4.705575 7.296788
vertex -9.607631 4.705575 13.508696
endloop
endfacet
facet normal 0.145965 0.989290 0.000000
outer loop
vertex -9.118732 4.664638 13.508696
vertex -8.668161 4.598158 13.508696
vertex -8.668161 4.598158 6.910791
endloop
endfacet
facet normal 0.145968 0.989289 0.000000
outer loop
vertex -8.866398 4.627406 7.006765
vertex -9.118732 4.664638 7.105497
vertex -9.118732 4.664638 13.508696
endloop
endfacet
facet normal 0.145962 0.989290 -0.000000
outer loop
vertex -8.668161 4.598158 6.910791
vertex -8.866398 4.627406 7.006765
vertex -9.118732 4.664638 13.508696
endloop
endfacet
facet normal 0.220941 0.975287 0.000000
outer loop
vertex -8.668161 4.598158 13.508696
vertex -8.273232 4.508691 13.508696
vertex -8.273232 4.508691 6.719589
endloop
endfacet
facet normal 0.220941 0.975287 0.000000
outer loop
vertex -8.668161 4.598158 13.508696
vertex -8.273232 4.508691 6.719589
vertex -8.668161 4.598158 6.910791
endloop
endfacet
facet normal 0.318800 0.947822 0.000000
outer loop
vertex -8.100448 4.450575 6.635936
vertex -8.273232 4.508691 6.719589
vertex -8.273232 4.508691 13.508696
endloop
endfacet
facet normal 0.318801 0.947822 0.000000
outer loop
vertex -8.273232 4.508691 13.508696
vertex -7.949123 4.399676 13.508696
vertex -7.949123 4.399676 6.544100
endloop
endfacet
facet normal 0.318802 0.947821 0.000000
outer loop
vertex -8.273232 4.508691 13.508696
vertex -7.949123 4.399676 6.544100
vertex -8.100448 4.450575 6.635936
endloop
endfacet
facet normal 0.458855 0.888511 0.000000
outer loop
vertex -7.949123 4.399676 6.544100
vertex -7.949123 4.399676 13.508696
vertex -7.708288 4.275302 13.508696
endloop
endfacet
facet normal 0.458853 0.888512 0.000000
outer loop
vertex -7.949123 4.399676 6.544100
vertex -7.708288 4.275302 13.508696
vertex -7.708288 4.275302 6.397941
endloop
endfacet
facet normal 0.673031 0.739615 0.000000
outer loop
vertex -7.708288 4.275302 6.397941
vertex -7.708288 4.275302 13.508696
vertex -7.559982 4.140347 13.508696
endloop
endfacet
facet normal 0.673030 0.739616 0.000000
outer loop
vertex -7.708288 4.275302 6.397941
vertex -7.559982 4.140347 13.508696
vertex -7.559982 4.140347 6.307936
endloop
endfacet
facet normal 0.941843 0.336052 0.000000
outer loop
vertex -7.559982 4.140347 6.307936
vertex -7.559982 4.140347 13.508696
vertex -7.509906 4.000000 13.508696
endloop
endfacet
facet normal 0.941842 0.336056 0.000000
outer loop
vertex -7.559982 4.140347 6.307936
vertex -7.509906 4.000000 13.508696
vertex -7.509906 4.000000 6.277545
endloop
endfacet
facet normal 0.941842 -0.336057 0.000000
outer loop
vertex -7.509906 4.000000 6.277545
vertex -7.509906 4.000000 13.508696
vertex -7.559982 3.859653 13.508696
endloop
endfacet
facet normal 0.941843 -0.336054 0.000000
outer loop
vertex -7.509906 4.000000 6.277545
vertex -7.559982 3.859653 13.508696
vertex -7.559982 3.859653 6.307936
endloop
endfacet
facet normal 0.673030 -0.739616 0.000000
outer loop
vertex -7.559982 3.859653 6.307936
vertex -7.559982 3.859653 13.508696
vertex -7.708288 3.724699 13.508696
endloop
endfacet
facet normal 0.673031 -0.739615 0.000000
outer loop
vertex -7.559982 3.859653 6.307936
vertex -7.708288 3.724699 13.508696
vertex -7.708288 3.724699 6.397941
endloop
endfacet
facet normal 0.458854 -0.888512 0.000000
outer loop
vertex -7.708288 3.724699 6.397941
vertex -7.708288 3.724699 13.508696
vertex -7.949123 3.600324 13.508696
endloop
endfacet
facet normal 0.458853 -0.888512 0.000000
outer loop
vertex -7.708288 3.724699 6.397941
vertex -7.949123 3.600324 13.508696
vertex -7.949123 3.600324 6.544100
endloop
endfacet
facet normal 0.318798 -0.947823 0.000000
outer loop
vertex -8.100448 3.549426 6.635936
vertex -7.949123 3.600324 6.544100
vertex -7.949123 3.600324 13.508696
endloop
endfacet
facet normal 0.318800 -0.947822 0.000000
outer loop
vertex -7.949123 3.600324 13.508696
vertex -8.273232 3.491310 13.508696
vertex -8.273232 3.491310 6.719589
endloop
endfacet
facet normal 0.318805 -0.947820 0.000000
outer loop
vertex -7.949123 3.600324 13.508696
vertex -8.273232 3.491310 6.719589
vertex -8.100448 3.549426 6.635936
endloop
endfacet
facet normal 0.220940 -0.975288 0.000000
outer loop
vertex -8.273232 3.491310 6.719589
vertex -8.273232 3.491310 13.508696
vertex -8.668161 3.401843 13.508696
endloop
endfacet
facet normal 0.220941 -0.975287 0.000000
outer loop
vertex -8.273232 3.491310 6.719589
vertex -8.668161 3.401843 13.508696
vertex -8.668161 3.401843 6.910791
endloop
endfacet
facet normal 0.145962 -0.989290 0.000000
outer loop
vertex -8.866398 3.372595 7.006765
vertex -8.668161 3.401843 6.910791
vertex -8.668161 3.401843 13.508696
endloop
endfacet
facet normal 0.145965 -0.989290 0.000000
outer loop
vertex -8.668161 3.401843 13.508696
vertex -9.118732 3.335363 13.508696
vertex -9.118732 3.335363 7.105497
endloop
endfacet
facet normal 0.145968 -0.989289 -0.000000
outer loop
vertex -8.668161 3.401843 13.508696
vertex -9.118732 3.335363 7.105497
vertex -8.866398 3.372595 7.006765
endloop
endfacet
facet normal 0.083442 -0.996513 0.000000
outer loop
vertex -9.118732 3.335363 7.105497
vertex -9.118732 3.335363 13.508696
vertex -9.607631 3.294426 13.508696
endloop
endfacet
facet normal 0.083442 -0.996513 0.000000
outer loop
vertex -9.118732 3.335363 7.105497
vertex -9.607631 3.294426 13.508696
vertex -9.607631 3.294426 7.296788
endloop
endfacet
facet normal 0.027178 -0.999631 0.000000
outer loop
vertex -9.716597 3.291463 7.339424
vertex -9.607631 3.294426 7.296788
vertex -9.607631 3.294426 13.508696
endloop
endfacet
facet normal 0.027177 -0.999631 0.000000
outer loop
vertex -9.607631 3.294426 13.508696
vertex -10.116068 3.280603 13.508696
vertex -10.116068 3.280603 7.463861
endloop
endfacet
facet normal 0.027177 -0.999631 0.000000
outer loop
vertex -9.607631 3.294426 13.508696
vertex -10.116068 3.280603 7.463861
vertex -9.716597 3.291463 7.339424
endloop
endfacet
facet normal -0.027177 -0.999631 0.000000
outer loop
vertex -10.608412 3.293988 7.617229
vertex -10.116068 3.280603 7.463861
vertex -10.116068 3.280603 13.508696
endloop
endfacet
facet normal -0.027177 -0.999631 0.000000
outer loop
vertex -10.116068 3.280603 13.508696
vertex -10.624505 3.294426 13.508696
vertex -10.624505 3.294426 7.621014
endloop
endfacet
facet normal -0.027189 -0.999630 0.000000
outer loop
vertex -10.116068 3.280603 13.508696
vertex -10.624505 3.294426 7.621014
vertex -10.608412 3.293988 7.617229
endloop
endfacet
facet normal -0.083442 -0.996513 0.000000
outer loop
vertex -10.624505 3.294426 7.621014
vertex -10.624505 3.294426 13.508696
vertex -11.113402 3.335363 13.508696
endloop
endfacet
facet normal -0.083442 -0.996513 0.000000
outer loop
vertex -10.624505 3.294426 7.621014
vertex -11.113402 3.335363 13.508696
vertex -11.113402 3.335363 7.736002
endloop
endfacet
facet normal -0.145966 -0.989290 0.000000
outer loop
vertex -11.497122 3.391980 7.826252
vertex -11.113402 3.335363 7.736002
vertex -11.113402 3.335363 13.508696
endloop
endfacet
facet normal -0.145965 -0.989290 0.000000
outer loop
vertex -11.113402 3.335363 13.508696
vertex -11.563973 3.401843 13.508696
vertex -11.563973 3.401843 7.836566
endloop
endfacet
facet normal -0.145958 -0.989291 -0.000000
outer loop
vertex -11.113402 3.335363 13.508696
vertex -11.563973 3.401843 7.836566
vertex -11.497122 3.391980 7.826252
endloop
endfacet
facet normal -0.220939 -0.975288 0.000000
outer loop
vertex -11.563973 3.401843 7.836566
vertex -11.563973 3.401843 13.508696
vertex -11.958902 3.491310 13.508696
endloop
endfacet
facet normal -0.220939 -0.975288 0.000000
outer loop
vertex -11.563973 3.401843 7.836566
vertex -11.958902 3.491310 13.508696
vertex -11.958902 3.491310 7.897497
endloop
endfacet
facet normal -0.318802 -0.947821 0.000000
outer loop
vertex -11.958902 3.491310 7.897497
vertex -11.958902 3.491310 13.508696
vertex -12.283012 3.600324 13.508696
endloop
endfacet
facet normal -0.318799 -0.947822 0.000000
outer loop
vertex -11.958902 3.491310 7.897497
vertex -12.283012 3.600324 13.508696
vertex -12.283012 3.600324 7.947501
endloop
endfacet
facet normal -0.458855 -0.888511 0.000000
outer loop
vertex -12.283012 3.600324 7.947501
vertex -12.283012 3.600324 13.508696
vertex -12.523848 3.724699 13.508696
endloop
endfacet
facet normal -0.458852 -0.888513 0.000000
outer loop
vertex -12.523848 3.724699 13.508696
vertex -12.523848 3.724699 7.966884
vertex -12.338168 3.628808 7.956011
endloop
endfacet
facet normal -0.458853 -0.888512 -0.000000
outer loop
vertex -12.523848 3.724699 13.508696
vertex -12.338168 3.628808 7.956011
vertex -12.283012 3.600324 7.947501
endloop
endfacet
facet normal -0.673030 -0.739615 0.000000
outer loop
vertex -12.523848 3.724699 7.966884
vertex -12.523848 3.724699 13.508696
vertex -12.672153 3.859653 13.508696
endloop
endfacet
facet normal -0.673027 -0.739618 0.000000
outer loop
vertex -12.523848 3.724699 7.966884
vertex -12.672153 3.859653 13.508696
vertex -12.672153 3.859653 7.975568
endloop
endfacet
facet normal -0.941847 -0.336043 0.000000
outer loop
vertex -12.672153 3.859653 7.975568
vertex -12.672153 3.859653 13.508696
vertex -12.722230 4.000000 13.508696
endloop
endfacet
facet normal -0.941843 -0.336053 0.000000
outer loop
vertex -12.672153 3.859653 7.975568
vertex -12.722230 4.000000 13.508696
vertex -12.722230 4.000000 7.978500
endloop
endfacet
facet normal -0.941843 0.336052 0.000000
outer loop
vertex -12.722230 4.000000 7.978500
vertex -12.722230 4.000000 13.508696
vertex -12.672153 4.140347 13.508696
endloop
endfacet
facet normal -0.941847 0.336042 0.000000
outer loop
vertex -12.722230 4.000000 7.978500
vertex -12.672153 4.140347 13.508696
vertex -12.672153 4.140347 7.975568
endloop
endfacet
facet normal -0.673032 0.739613 0.000000
outer loop
vertex -12.523848 4.275302 13.508696
vertex -12.523848 4.275302 7.966884
vertex -12.672153 4.140347 7.975568
endloop
endfacet
facet normal -0.673027 0.739618 0.000000
outer loop
vertex -12.523848 4.275302 13.508696
vertex -12.672153 4.140347 7.975568
vertex -12.672153 4.140347 13.508696
endloop
endfacet
facet normal -0.458855 0.888511 0.000000
outer loop
vertex -12.523848 4.275302 13.508696
vertex -12.283012 4.399676 13.508696
vertex -12.283012 4.399676 7.947501
endloop
endfacet
facet normal -0.458850 0.888514 0.000000
outer loop
vertex -12.338168 4.371192 7.956011
vertex -12.523848 4.275302 7.966884
vertex -12.523848 4.275302 13.508696
endloop
endfacet
facet normal -0.458851 0.888513 -0.000000
outer loop
vertex -12.283012 4.399676 7.947501
vertex -12.338168 4.371192 7.956011
vertex -12.523848 4.275302 13.508696
endloop
endfacet
facet normal -0.318802 0.947821 0.000000
outer loop
vertex -11.958902 4.508691 13.508696
vertex -11.958902 4.508691 7.897497
vertex -12.283012 4.399676 7.947501
endloop
endfacet
facet normal -0.318799 0.947822 0.000000
outer loop
vertex -11.958902 4.508691 13.508696
vertex -12.283012 4.399676 7.947501
vertex -12.283012 4.399676 13.508696
endloop
endfacet
facet normal -0.220940 0.975288 0.000000
outer loop
vertex -11.563973 4.598158 13.508696
vertex -11.563973 4.598158 7.836566
vertex -11.958902 4.508691 7.897497
endloop
endfacet
facet normal -0.220942 0.975287 0.000000
outer loop
vertex -11.563973 4.598158 13.508696
vertex -11.958902 4.508691 7.897497
vertex -11.958902 4.508691 13.508696
endloop
endfacet
facet normal -0.145965 0.989290 0.000000
outer loop
vertex -11.563973 4.598158 7.836566
vertex -11.563973 4.598158 13.508696
vertex -11.113402 4.664638 13.508696
endloop
endfacet
facet normal -0.145968 0.989289 0.000000
outer loop
vertex -11.113402 4.664638 13.508696
vertex -11.113402 4.664638 7.736002
vertex -11.497122 4.608021 7.826252
endloop
endfacet
facet normal -0.145951 0.989292 -0.000001
outer loop
vertex -11.113402 4.664638 13.508696
vertex -11.497122 4.608021 7.826252
vertex -11.563973 4.598158 7.836566
endloop
endfacet
facet normal -0.083442 0.996513 0.000000
outer loop
vertex -10.624505 4.705575 13.508696
vertex -10.624505 4.705575 7.621014
vertex -11.113402 4.664638 7.736002
endloop
endfacet
facet normal -0.083442 0.996513 0.000000
outer loop
vertex -10.624505 4.705575 13.508696
vertex -11.113402 4.664638 7.736002
vertex -11.113402 4.664638 13.508696
endloop
endfacet
facet normal -0.027176 0.999631 0.000000
outer loop
vertex -10.624505 4.705575 7.621014
vertex -10.624505 4.705575 13.508696
vertex -10.116068 4.719398 13.508696
endloop
endfacet
facet normal -0.027176 0.999631 0.000000
outer loop
vertex -10.116068 4.719398 13.508696
vertex -10.116068 4.719398 7.463861
vertex -10.608412 4.706013 7.617229
endloop
endfacet
facet normal -0.027189 0.999630 0.000005
outer loop
vertex -10.116068 4.719398 13.508696
vertex -10.608412 4.706013 7.617229
vertex -10.624505 4.705575 7.621014
endloop
endfacet
facet normal -0.058452 0.000000 -0.998290
outer loop
vertex -12.338168 4.371192 7.956011
vertex -12.338168 3.628808 7.956011
vertex -12.523848 3.724699 7.966884
endloop
endfacet
facet normal -0.058435 0.000003 -0.998291
outer loop
vertex -12.523848 3.724699 7.966884
vertex -12.672153 3.859653 7.975568
vertex -12.722230 4.000000 7.978500
endloop
endfacet
facet normal -0.058468 -0.000002 -0.998289
outer loop
vertex -12.722230 4.000000 7.978500
vertex -12.672153 4.140347 7.975568
vertex -12.523848 4.275302 7.966884
endloop
endfacet
facet normal -0.058462 0.000000 -0.998290
outer loop
vertex -12.523848 4.275302 7.966884
vertex -12.338168 4.371192 7.956011
vertex -12.523848 3.724699 7.966884
endloop
endfacet
facet normal -0.058454 0.000000 -0.998290
outer loop
vertex -12.523848 3.724699 7.966884
vertex -12.722230 4.000000 7.978500
vertex -12.523848 4.275302 7.966884
endloop
endfacet
facet normal -0.152469 0.000000 -0.988308
outer loop
vertex -11.497122 4.608021 7.826252
vertex -11.497122 3.391980 7.826252
vertex -11.563973 3.401843 7.836566
endloop
endfacet
facet normal -0.152475 0.000000 -0.988307
outer loop
vertex -11.563973 3.401843 7.836566
vertex -11.958902 3.491310 7.897497
vertex -12.283012 3.600324 7.947501
endloop
endfacet
facet normal -0.152496 0.000000 -0.988304
outer loop
vertex -12.283012 3.600324 7.947501
vertex -12.338168 3.628808 7.956011
vertex -12.338168 4.371192 7.956011
endloop
endfacet
facet normal -0.152459 0.000000 -0.988310
outer loop
vertex -12.338168 4.371192 7.956011
vertex -12.283012 4.399676 7.947501
vertex -11.958902 4.508691 7.897497
endloop
endfacet
facet normal -0.152424 -0.000056 -0.988315
outer loop
vertex -11.958902 4.508691 7.897497
vertex -11.563973 4.598158 7.836566
vertex -11.497122 4.608021 7.826252
endloop
endfacet
facet normal -0.152479 0.000000 -0.988307
outer loop
vertex -11.497122 4.608021 7.826252
vertex -11.563973 3.401843 7.836566
vertex -12.283012 3.600324 7.947501
endloop
endfacet
facet normal -0.152479 0.000000 -0.988307
outer loop
vertex -12.283012 3.600324 7.947501
vertex -12.338168 4.371192 7.956011
vertex -11.958902 4.508691 7.897497
endloop
endfacet
facet normal -0.152477 0.000000 -0.988307
outer loop
vertex -12.283012 3.600324 7.947501
vertex -11.958902 4.508691 7.897497
vertex -11.497122 4.608021 7.826252
endloop
endfacet
facet normal -0.228876 0.000000 -0.973456
outer loop
vertex -10.608412 4.706013 7.617229
vertex -10.608412 3.293988 7.617229
vertex -10.624505 3.294426 7.621014
endloop
endfacet
facet normal -0.228959 -0.000019 -0.973436
outer loop
vertex -10.624505 3.294426 7.621014
vertex -11.113402 3.335363 7.736002
vertex -11.497122 3.391980 7.826252
endloop
endfacet
facet normal -0.228950 0.000000 -0.973438
outer loop
vertex -11.497122 3.391980 7.826252
vertex -11.497122 4.608021 7.826252
vertex -11.113402 4.664638 7.736002
endloop
endfacet
facet normal -0.228822 -0.000701 -0.973468
outer loop
vertex -11.113402 4.664638 7.736002
vertex -10.624505 4.705575 7.621014
vertex -10.608412 4.706013 7.617229
endloop
endfacet
facet normal -0.228952 0.000000 -0.973438
outer loop
vertex -10.608412 4.706013 7.617229
vertex -10.624505 3.294426 7.621014
vertex -11.497122 3.391980 7.826252
endloop
endfacet
facet normal -0.228950 0.000000 -0.973438
outer loop
vertex -11.497122 3.391980 7.826252
vertex -11.113402 4.664638 7.736002
vertex -10.608412 4.706013 7.617229
endloop
endfacet
facet normal -0.297411 0.000000 -0.954749
outer loop
vertex -10.116068 4.719398 7.463861
vertex -9.716597 4.708537 7.339424
vertex -9.716597 3.291463 7.339424
endloop
endfacet
facet normal -0.297406 0.000000 -0.954751
outer loop
vertex -9.716597 3.291463 7.339424
vertex -10.116068 3.280603 7.463861
vertex -10.608412 3.293988 7.617229
endloop
endfacet
facet normal -0.297410 0.000000 -0.954750
outer loop
vertex -10.608412 3.293988 7.617229
vertex -10.608412 4.706013 7.617229
vertex -10.116068 4.719398 7.463861
endloop
endfacet
facet normal -0.297410 0.000000 -0.954750
outer loop
vertex -9.716597 3.291463 7.339424
vertex -10.608412 3.293988 7.617229
vertex -10.116068 4.719398 7.463861
endloop
endfacet
facet normal -0.364359 0.000074 -0.931259
outer loop
vertex -9.118732 3.335363 7.105497
vertex -9.607631 3.294426 7.296788
vertex -9.716597 3.291463 7.339424
endloop
endfacet
facet normal -0.364372 0.000000 -0.931253
outer loop
vertex -9.716597 3.291463 7.339424
vertex -9.716597 4.708537 7.339424
vertex -9.607631 4.705575 7.296788
endloop
endfacet
facet normal -0.364366 0.000014 -0.931256
outer loop
vertex -9.607631 4.705575 7.296788
vertex -9.118732 4.664638 7.105497
vertex -8.866398 4.627406 7.006765
endloop
endfacet
facet normal -0.364373 0.000000 -0.931253
outer loop
vertex -8.866398 4.627406 7.006765
vertex -8.866398 3.372595 7.006765
vertex -9.118732 3.335363 7.105497
endloop
endfacet
facet normal -0.364373 -0.000000 -0.931253
outer loop
vertex -9.118732 3.335363 7.105497
vertex -9.716597 3.291463 7.339424
vertex -9.607631 4.705575 7.296788
endloop
endfacet
facet normal -0.364370 -0.000000 -0.931254
outer loop
vertex -9.607631 4.705575 7.296788
vertex -8.866398 4.627406 7.006765
vertex -9.118732 3.335363 7.105497
endloop
endfacet
facet normal -0.435748 0.000052 -0.900069
outer loop
vertex -8.273232 3.491310 6.719589
vertex -8.668161 3.401843 6.910791
vertex -8.866398 3.372595 7.006765
endloop
endfacet
facet normal -0.435760 0.000000 -0.900063
outer loop
vertex -8.866398 3.372595 7.006765
vertex -8.866398 4.627406 7.006765
vertex -8.668161 4.598158 6.910791
endloop
endfacet
facet normal -0.435739 -0.000014 -0.900073
outer loop
vertex -8.668161 4.598158 6.910791
vertex -8.273232 4.508691 6.719589
vertex -8.100448 4.450575 6.635936
endloop
endfacet
facet normal -0.435762 0.000000 -0.900062
outer loop
vertex -8.100448 4.450575 6.635936
vertex -8.100448 3.549426 6.635936
vertex -8.273232 3.491310 6.719589
endloop
endfacet
facet normal -0.435759 -0.000000 -0.900064
outer loop
vertex -8.273232 3.491310 6.719589
vertex -8.866398 3.372595 7.006765
vertex -8.668161 4.598158 6.910791
endloop
endfacet
facet normal -0.435759 0.000000 -0.900063
outer loop
vertex -8.668161 4.598158 6.910791
vertex -8.100448 4.450575 6.635936
vertex -8.273232 3.491310 6.719589
endloop
endfacet
facet normal -0.518808 0.000016 -0.854891
outer loop
vertex -7.708288 3.724699 6.397941
vertex -7.949123 3.600324 6.544100
vertex -8.100448 3.549426 6.635936
endloop
endfacet
facet normal -0.518817 0.000000 -0.854886
outer loop
vertex -8.100448 3.549426 6.635936
vertex -8.100448 4.450575 6.635936
vertex -7.949123 4.399676 6.544100
endloop
endfacet
facet normal -0.518814 0.000007 -0.854887
outer loop
vertex -7.949123 4.399676 6.544100
vertex -7.708288 4.275302 6.397941
vertex -7.559982 4.140347 6.307936
endloop
endfacet
facet normal -0.518823 0.000000 -0.854882
outer loop
vertex -7.559982 4.140347 6.307936
vertex -7.509906 4.000000 6.277545
vertex -7.559982 3.859653 6.307936
endloop
endfacet
facet normal -0.518823 -0.000008 -0.854882
outer loop
vertex -7.559982 3.859653 6.307936
vertex -7.708288 3.724699 6.397941
vertex -8.100448 3.549426 6.635936
endloop
endfacet
facet normal -0.518818 0.000000 -0.854885
outer loop
vertex -8.100448 3.549426 6.635936
vertex -7.949123 4.399676 6.544100
vertex -7.559982 4.140347 6.307936
endloop
endfacet
facet normal -0.518817 0.000000 -0.854885
outer loop
vertex -8.100448 3.549426 6.635936
vertex -7.559982 4.140347 6.307936
vertex -7.559982 3.859653 6.307936
endloop
endfacet
facet normal -1.000000 0.000000 0.000000
outer loop
vertex 0.607247 -8.201021 2.229316
vertex 0.607247 -8.201021 3.451183
vertex 0.607247 -6.699995 3.451183
endloop
endfacet
facet normal -1.000000 0.000000 0.000000
outer loop
vertex 0.607247 -8.201021 2.229316
vertex 0.607247 -6.699995 3.451183
vertex 0.607247 -6.699995 2.229316
endloop
endfacet
facet normal 0.000000 1.000000 0.000000
outer loop
vertex 0.607247 -6.699995 2.229316
vertex 0.607247 -6.699995 3.451183
vertex 2.108273 -6.699995 3.451183
endloop
endfacet
facet normal 0.000000 1.000000 0.000000
outer loop
vertex 0.607247 -6.699995 2.229316
vertex 2.108273 -6.699995 3.451183
vertex 2.108273 -6.699995 2.229316
endloop
endfacet
facet normal 1.000000 0.000000 0.000000
outer loop
vertex 2.108273 -6.699995 2.229316
vertex 2.108273 -6.699995 3.451183
vertex 2.108273 -8.201021 3.451183
endloop
endfacet
facet normal 1.000000 0.000000 0.000000
outer loop
vertex 2.108273 -6.699995 2.229316
vertex 2.108273 -8.201021 3.451183
vertex 2.108273 -8.201021 2.229316
endloop
endfacet
facet normal 0.000000 -1.000000 0.000000
outer loop
vertex 2.108273 -8.201021 2.229316
vertex 2.108273 -8.201021 3.451183
vertex 0.607247 -8.201021 3.451183
endloop
endfacet
facet normal 0.000000 -1.000000 0.000000
outer loop
vertex 2.108273 -8.201021 2.229316
vertex 0.607247 -8.201021 3.451183
vertex 0.607247 -8.201021 2.229316
endloop
endfacet
facet normal 0.000000 0.000000 -1.000000
outer loop
vertex 0.607247 -6.699995 2.229316
vertex 2.108273 -6.699995 2.229316
vertex 2.108273 -8.201021 2.229316
endloop
endfacet
facet normal 0.000000 0.000000 -1.000000
outer loop
vertex 0.607247 -6.699995 2.229316
vertex 2.108273 -8.201021 2.229316
vertex 0.607247 -8.201021 2.229316
endloop
endfacet
facet normal 0.000000 0.000000 1.000000
outer loop
vertex 2.108273 -6.699995 3.451183
vertex 0.607247 -6.699995 3.451183
vertex 0.607247 -8.201021 3.451183
endloop
endfacet
facet normal 0.000000 0.000000 1.000000
outer loop
vertex 2.108273 -6.699995 3.451183
vertex 0.607247 -8.201021 3.451183
vertex 2.108273 -8.201021 3.451183
endloop
endfacet
facet normal -1.000000 0.000000 0.000000
outer loop
vertex 0.607247 -5.198968 2.229316
vertex 0.607247 -5.198968 3.451183
vertex 0.607247 -3.697942 3.451183
endloop
endfacet
facet normal -1.000000 0.000000 0.000000
outer loop
vertex 0.607247 -5.198968 2.229316
vertex 0.607247 -3.697942 3.451183
vertex 0.607247 -3.697942 2.229316
endloop
endfacet
facet normal 0.000000 1.000000 0.000000
outer loop
vertex 0.607247 -3.697942 2.229316
vertex 0.607247 -3.697942 3.451183
vertex 2.108273 -3.697942 3.451183
endloop
endfacet
facet normal 0.000000 1.000000 0.000000
outer loop
vertex 0.607247 -3.697942 2.229316
vertex 2.108273 -3.697942 3.451183
vertex 2.108273 -3.697942 2.229316
endloop
endfacet
facet normal 1.000000 0.000000 0.000000
outer loop
vertex 2.108273 -3.697942 2.229316
vertex 2.108273 -3.697942 3.451183
vertex 2.108273 -5.198968 3.451183
endloop
endfacet
facet normal 1.000000 0.000000 0.000000
outer loop
vertex 2.108273 -3.697942 2.229316
vertex 2.108273 -5.198968 3.451183
vertex 2.108273 -5.198968 2.229316
endloop
endfacet
facet normal 0.000000 -1.000000 0.000000
outer loop
vertex 2.108273 -5.198968 2.229316
vertex 2.108273 -5.198968 3.451183
vertex 0.607247 -5.198968 3.451183
endloop
endfacet
facet normal 0.000000 -1.000000 0.000000
outer loop
vertex 2.108273 -5.198968 2.229316
vertex 0.607247 -5.198968 3.451183
vertex 0.607247 -5.198968 2.229316
endloop
endfacet
facet normal 0.000000 0.000000 -1.000000
outer loop
vertex 0.607247 -3.697942 2.229316
vertex 2.108273 -3.697942 2.229316
vertex 2.108273 -5.198968 2.229316
endloop
endfacet
facet normal 0.000000 0.000000 -1.000000
outer loop
vertex 0.607247 -3.697942 2.229316
vertex 2.108273 -5.198968 2.229316
vertex 0.607247 -5.198968 2.229316
endloop
endfacet
facet normal 0.000000 0.000000 1.000000
outer loop
vertex 2.108273 -3.697942 3.451183
vertex 0.607247 -3.697942 3.451183
vertex 0.607247 -5.198968 3.451183
endloop
endfacet
facet normal 0.000000 0.000000 1.000000
outer loop
vertex 2.108273 -3.697942 3.451183
vertex 0.607247 -5.198968 3.451183
vertex 2.108273 -5.198968 3.451183
endloop
endfacet
facet normal -1.000000 0.000000 0.000000
outer loop
vertex 0.607247 -2.196915 2.229316
vertex 0.607247 -2.196915 3.451183
vertex 0.607247 -0.695889 3.451183
endloop
endfacet
facet normal -1.000000 0.000000 0.000000
outer loop
vertex 0.607247 -2.196915 2.229316
vertex 0.607247 -0.695889 3.451183
vertex 0.607247 -0.695889 2.229316
endloop
endfacet
facet normal 0.000000 1.000000 0.000000
outer loop
vertex 0.607247 -0.695889 2.229316
vertex 0.607247 -0.695889 3.451183
vertex 2.108273 -0.695889 3.451183
endloop
endfacet
facet normal 0.000000 1.000000 0.000000
outer loop
vertex 0.607247 -0.695889 2.229316
vertex 2.108273 -0.695889 3.451183
vertex 2.108273 -0.695889 2.229316
endloop
endfacet
facet normal 1.000000 0.000000 0.000000
outer loop
vertex 2.108273 -0.695889 2.229316
vertex 2.108273 -0.695889 3.451183
vertex 2.108273 -2.196915 3.451183
endloop
endfacet
facet normal 1.000000 0.000000 0.000000
outer loop
vertex 2.108273 -0.695889 2.229316
vertex 2.108273 -2.196915 3.451183
vertex 2.108273 -2.196915 2.229316
endloop
endfacet
facet normal 0.000000 -1.000000 0.000000
outer loop
vertex 2.108273 -2.196915 2.229316
vertex 2.108273 -2.196915 3.451183
vertex 0.607247 -2.196915 3.451183
endloop
endfacet
facet normal 0.000000 -1.000000 0.000000
outer loop
vertex 2.108273 -2.196915 2.229316
vertex 0.607247 -2.196915 3.451183
vertex 0.607247 -2.196915 2.229316
endloop
endfacet
facet normal 0.000000 0.000000 -1.000000
outer loop
vertex 0.607247 -0.695889 2.229316
vertex 2.108273 -0.695889 2.229316
vertex 2.108273 -2.196915 2.229316
endloop
endfacet
facet normal 0.000000 0.000000 -1.000000
outer loop
vertex 0.607247 -0.695889 2.229316
vertex 2.108273 -2.196915 2.229316
vertex 0.607247 -2.196915 2.229316
endloop
endfacet
facet normal 0.000000 0.000000 1.000000
outer loop
vertex 2.108273 -0.695889 3.451183
vertex 0.607247 -0.695889 3.451183
vertex 0.607247 -2.196915 3.451183
endloop
endfacet
facet normal 0.000000 0.000000 1.000000
outer loop
vertex 2.108273 -0.695889 3.451183
vertex 0.607247 -2.196915 3.451183
vertex 2.108273 -2.196915 3.451183
endloop
endfacet
facet normal -1.000000 0.000000 0.000000
outer loop
vertex 0.607247 0.805138 2.229316
vertex 0.607247 0.805138 3.451183
vertex 0.607247 2.306164 3.451183
endloop
endfacet
facet normal -1.000000 0.000000 0.000000
outer loop
vertex 0.607247 0.805138 2.229316
vertex 0.607247 2.306164 3.451183
vertex 0.607247 2.306164 2.229316
endloop
endfacet
facet normal 0.000000 1.000000 0.000000
outer loop
vertex 0.607247 2.306164 2.229316
vertex 0.607247 2.306164 3.451183
vertex 2.108273 2.306164 3.451183
endloop
endfacet
facet normal 0.000000 1.000000 0.000000
outer loop
vertex 0.607247 2.306164 2.229316
vertex 2.108273 2.306164 3.451183
vertex 2.108273 2.306164 2.229316
endloop
endfacet
facet normal 1.000000 0.000000 0.000000
outer loop
vertex 2.108273 2.306164 2.229316
vertex 2.108273 2.306164 3.451183
vertex 2.108273 0.805138 3.451183
endloop
endfacet
facet normal 1.000000 0.000000 0.000000
outer loop
vertex 2.108273 2.306164 2.229316
vertex 2.108273 0.805138 3.451183
vertex 2.108273 0.805138 2.229316
endloop
endfacet
facet normal 0.000000 -1.000000 0.000000
outer loop
vertex 2.108273 0.805138 2.229316
vertex 2.108273 0.805138 3.451183
vertex 0.607247 0.805138 3.451183
endloop
endfacet
facet normal 0.000000 -1.000000 0.000000
outer loop
vertex 2.108273 0.805138 2.229316
vertex 0.607247 0.805138 3.451183
vertex 0.607247 0.805138 2.229316
endloop
endfacet
facet normal 0.000000 0.000000 -1.000000
outer loop
vertex 0.607247 2.306164 2.229316
vertex 2.108273 2.306164 2.229316
vertex 2.108273 0.805138 2.229316
endloop
endfacet
facet normal 0.000000 0.000000 -1.000000
outer loop
vertex 0.607247 2.306164 2.229316
vertex 2.108273 0.805138 2.229316
vertex 0.607247 0.805138 2.229316
endloop
endfacet
facet normal 0.000000 0.000000 1.000000
outer loop
vertex 2.108273 2.306164 3.451183
vertex 0.607247 2.306164 3.451183
vertex 0.607247 0.805138 3.451183
endloop
endfacet
facet normal 0.000000 0.000000 1.000000
outer loop
vertex 2.108273 2.306164 3.451183
vertex 0.607247 0.805138 3.451183
vertex 2.108273 0.805138 3.451183
endloop
endfacet
facet normal -1.000000 0.000000 0.000000
outer loop
vertex 0.607247 3.807190 2.229316
vertex 0.607247 3.807190 3.451183
vertex 0.607247 5.308217 3.451183
endloop
endfacet
facet normal -1.000000 0.000000 0.000000
outer loop
vertex 0.607247 3.807190 2.229316
vertex 0.607247 5.308217 3.451183
vertex 0.607247 5.308217 2.229316
endloop
endfacet
facet normal 0.000000 1.000000 0.000000
outer loop
vertex 0.607247 5.308217 2.229316
vertex 0.607247 5.308217 3.451183
vertex 2.108273 5.308217 3.451183
endloop
endfacet
facet normal 0.000000 1.000000 0.000000
outer loop
vertex 0.607247 5.308217 2.229316
vertex 2.108273 5.308217 3.451183
vertex 2.108273 5.308217 2.229316
endloop
endfacet
facet normal 1.000000 0.000000 0.000000
outer loop
vertex 2.108273 5.308217 2.229316
vertex 2.108273 5.308217 3.451183
vertex 2.108273 3.807190 3.451183
endloop
endfacet
facet normal 1.000000 0.000000 0.000000
outer loop
vertex 2.108273 5.308217 2.229316
vertex 2.108273 3.807190 3.451183
vertex 2.108273 3.807190 2.229316
endloop
endfacet
facet normal 0.000000 -1.000000 0.000000
outer loop
vertex 2.108273 3.807190 2.229316
vertex 2.108273 3.807190 3.451183
vertex 0.607247 3.807190 3.451183
endloop
endfacet
facet normal 0.000000 -1.000000 0.000000
outer loop
vertex 2.108273 3.807190 2.229316
vertex 0.607247 3.807190 3.451183
vertex 0.607247 3.807190 2.229316
endloop
endfacet
facet normal 0.000000 0.000000 -1.000000
outer loop
vertex 0.607247 5.308217 2.229316
vertex 2.108273 5.308217 2.229316
vertex 2.108273 3.807190 2.229316
endloop
endfacet
facet normal 0.000000 0.000000 -1.000000
outer loop
vertex 0.607247 5.308217 2.229316
vertex 2.108273 3.807190 2.229316
vertex 0.607247 3.807190 2.229316
endloop
endfacet
facet normal 0.000000 0.000000 1.000000
outer loop
vertex 2.108273 5.308217 3.451183
vertex 0.607247 5.308217 3.451183
vertex 0.607247 3.807190 3.451183
endloop
endfacet
facet normal 0.000000 0.000000 1.000000
outer loop
vertex 2.108273 5.308217 3.451183
vertex 0.607247 3.807190 3.451183
vertex 2.108273 3.807190 3.451183
endloop
endfacet
facet normal -1.000000 0.000000 0.000000
outer loop
vertex 0.607247 6.809243 2.229316
vertex 0.607247 6.809243 3.451183
vertex 0.607247 8.310268 3.451183
endloop
endfacet
facet normal -1.000000 0.000000 0.000000
outer loop
vertex 0.607247 6.809243 2.229316
vertex 0.607247 8.310268 3.451183
vertex 0.607247 8.310268 2.229316
endloop
endfacet
facet normal 0.000000 1.000000 0.000000
outer loop
vertex 0.607247 8.310268 2.229316
vertex 0.607247 8.310268 3.451183
vertex 2.108273 8.310268 3.451183
endloop
endfacet
facet normal 0.000000 1.000000 0.000000
outer loop
vertex 0.607247 8.310268 2.229316
vertex 2.108273 8.310268 3.451183
vertex 2.108273 8.310268 2.229316
endloop
endfacet
facet normal 1.000000 0.000000 0.000000
outer loop
vertex 2.108273 8.310268 2.229316
vertex 2.108273 8.310268 3.451183
vertex 2.108273 6.809243 3.451183
endloop
endfacet
facet normal 1.000000 0.000000 0.000000
outer loop
vertex 2.108273 8.310268 2.229316
vertex 2.108273 6.809243 3.451183
vertex 2.108273 6.809243 2.229316
endloop
endfacet
facet normal 0.000000 -1.000000 0.000000
outer loop
vertex 2.108273 6.809243 2.229316
vertex 2.108273 6.809243 3.451183
vertex 0.607247 6.809243 3.451183
endloop
endfacet
facet normal 0.000000 -1.000000 0.000000
outer loop
vertex 2.108273 6.809243 2.229316
vertex 0.607247 6.809243 3.451183
vertex 0.607247 6.809243 2.229316
endloop
endfacet
facet normal 0.000000 0.000000 -1.000000
outer loop
vertex 0.607247 8.310268 2.229316
vertex 2.108273 8.310268 2.229316
vertex 2.108273 6.809243 2.229316
endloop
endfacet
facet normal 0.000000 0.000000 -1.000000
outer loop
vertex 0.607247 8.310268 2.229316
vertex 2.108273 6.809243 2.229316
vertex 0.607247 6.809243 2.229316
endloop
endfacet
facet normal 0.000000 0.000000 1.000000
outer loop
vertex 2.108273 8.310268 3.451183
vertex 0.607247 8.310268 3.451183
vertex 0.607247 6.809243 3.451183
endloop
endfacet
facet normal 0.000000 0.000000 1.000000
outer loop
vertex 2.108273 8.310268 3.451183
vertex 0.607247 6.809243 3.451183
vertex 2.108273 6.809243 3.451183
endloop
endfacet
facet normal -1.000000 0.000000 0.000000
outer loop
vertex 3.628100 -9.702047 2.229316
vertex 3.628100 -9.702047 3.451183
vertex 3.628100 -8.201021 3.451183
endloop
endfacet
facet normal -1.000000 0.000000 0.000000
outer loop
vertex 3.628100 -9.702047 2.229316
vertex 3.628100 -8.201021 3.451183
vertex 3.628100 -8.201021 2.229316
endloop
endfacet
facet normal 0.000000 1.000000 0.000000
outer loop
vertex 3.628100 -8.201021 2.229316
vertex 3.628100 -8.201021 3.451183
vertex 5.129127 -8.201021 3.451183
endloop
endfacet
facet normal 0.000000 1.000000 0.000000
outer loop
vertex 3.628100 -8.201021 2.229316
vertex 5.129127 -8.201021 3.451183
vertex 5.129127 -8.201021 2.229316
endloop
endfacet
facet normal 1.000000 0.000000 0.000000
outer loop
vertex 5.129127 -8.201021 2.229316
vertex 5.129127 -8.201021 3.451183
vertex 5.129127 -9.702047 3.451183
endloop
endfacet
facet normal 1.000000 0.000000 0.000000
outer loop
vertex 5.129127 -8.201021 2.229316
vertex 5.129127 -9.702047 3.451183
vertex 5.129127 -9.702047 2.229316
endloop
endfacet
facet normal 0.000000 -1.000000 0.000000
outer loop
vertex 5.129127 -9.702047 2.229316
vertex 5.129127 -9.702047 3.451183
vertex 3.628100 -9.702047 3.451183
endloop
endfacet
facet normal 0.000000 -1.000000 0.000000
outer loop
vertex 5.129127 -9.702047 2.229316
vertex 3.628100 -9.702047 3.451183
vertex 3.628100 -9.702047 2.229316
endloop
endfacet
facet normal 0.000000 0.000000 -1.000000
outer loop
vertex 3.628100 -8.201021 2.229316
vertex 5.129127 -8.201021 2.229316
vertex 5.129127 -9.702047 2.229316
endloop
endfacet
facet normal 0.000000 0.000000 -1.000000
outer loop
vertex 3.628100 -8.201021 2.229316
vertex 5.129127 -9.702047 2.229316
vertex 3.628100 -9.702047 2.229316
endloop
endfacet
facet normal 0.000000 0.000000 1.000000
outer loop
vertex 5.129127 -8.201021 3.451183
vertex 3.628100 -8.201021 3.451183
vertex 3.628100 -9.702047 3.451183
endloop
endfacet
facet normal 0.000000 0.000000 1.000000
outer loop
vertex 5.129127 -8.201021 3.451183
vertex 3.628100 -9.702047 3.451183
vertex 5.129127 -9.702047 3.451183
endloop
endfacet
facet normal -1.000000 0.000000 0.000000
outer loop
vertex 3.628100 -6.699995 2.229316
vertex 3.628100 -6.699995 3.451183
vertex 3.628100 -5.198968 3.451183
endloop
endfacet
facet normal -1.000000 0.000000 0.000000
outer loop
vertex 3.628100 -6.699995 2.229316
vertex 3.628100 -5.198968 3.451183
vertex 3.628100 -5.198968 2.229316
endloop
endfacet
facet normal 0.000000 1.000000 0.000000
outer loop
vertex 3.628100 -5.198968 2.229316
vertex 3.628100 -5.198968 3.451183
vertex 5.129127 -5.198968 3.451183
endloop
endfacet
facet normal 0.000000 1.000000 0.000000
outer loop
vertex 3.628100 -5.198968 2.229316
vertex 5.129127 -5.198968 3.451183
vertex 5.129127 -5.198968 2.229316
endloop
endfacet
facet normal 1.000000 0.000000 0.000000
outer loop
vertex 5.129127 -5.198968 2.229316
vertex 5.129127 -5.198968 3.451183
vertex 5.129127 -6.699995 3.451183
endloop
endfacet
facet normal 1.000000 0.000000 0.000000
outer loop
vertex 5.129127 -5.198968 2.229316
vertex 5.129127 -6.699995 3.451183
vertex 5.129127 -6.699995 2.229316
endloop
endfacet
facet normal 0.000000 -1.000000 0.000000
outer loop
vertex 5.129127 -6.699995 2.229316
vertex 5.129127 -6.699995 3.451183
vertex 3.628100 -6.699995 3.451183
endloop
endfacet
facet normal 0.000000 -1.000000 0.000000
outer loop
vertex 5.129127 -6.699995 2.229316
vertex 3.628100 -6.699995 3.451183
vertex 3.628100 -6.699995 2.229316
endloop
endfacet
facet normal 0.000000 0.000000 -1.000000
outer loop
vertex 3.628100 -5.198968 2.229316
vertex 5.129127 -5.198968 2.229316
vertex 5.129127 -6.699995 2.229316
endloop
endfacet
facet normal 0.000000 0.000000 -1.000000
outer loop
vertex 3.628100 -5.198968 2.229316
vertex 5.129127 -6.699995 2.229316
vertex 3.628100 -6.699995 2.229316
endloop
endfacet
facet normal 0.000000 0.000000 1.000000
outer loop
vertex 5.129127 -5.198968 3.451183
vertex 3.628100 -5.198968 3.451183
vertex 3.628100 -6.699995 3.451183
endloop
endfacet
facet normal 0.000000 0.000000 1.000000
outer loop
vertex 5.129127 -5.198968 3.451183
vertex 3.628100 -6.699995 3.451183
vertex 5.129127 -6.699995 3.451183
endloop
endfacet
facet normal -1.000000 0.000000 0.000000
outer loop
vertex 3.628100 -3.697942 2.229316
vertex 3.628100 -3.697942 3.451183
vertex 3.628100 -2.196916 3.451183
endloop
endfacet
facet normal -1.000000 0.000000 0.000000
outer loop
vertex 3.628100 -3.697942 2.229316
vertex 3.628100 -2.196916 3.451183
vertex 3.628100 -2.196916 2.229316
endloop
endfacet
facet normal 0.000000 1.000000 0.000000
outer loop
vertex 3.628100 -2.196916 2.229316
vertex 3.628100 -2.196916 3.451183
vertex 5.129127 -2.196916 3.451183
endloop
endfacet
facet normal 0.000000 1.000000 0.000000
outer loop
vertex 3.628100 -2.196916 2.229316
vertex 5.129127 -2.196916 3.451183
vertex 5.129127 -2.196916 2.229316
endloop
endfacet
facet normal 1.000000 0.000000 0.000000
outer loop
vertex 5.129127 -2.196916 2.229316
vertex 5.129127 -2.196916 3.451183
vertex 5.129127 -3.697942 3.451183
endloop
endfacet
facet normal 1.000000 0.000000 0.000000
outer loop
vertex 5.129127 -2.196916 2.229316
vertex 5.129127 -3.697942 3.451183
vertex 5.129127 -3.697942 2.229316
endloop
endfacet
facet normal 0.000000 -1.000000 0.000000
outer loop
vertex 5.129127 -3.697942 2.229316
vertex 5.129127 -3.697942 3.451183
vertex 3.628100 -3.697942 3.451183
endloop
endfacet
facet normal 0.000000 -1.000000 0.000000
outer loop
vertex 5.129127 -3.697942 2.229316
vertex 3.628100 -3.697942 3.451183
vertex 3.628100 -3.697942 2.229316
endloop
endfacet
facet normal 0.000000 0.000000 -1.000000
outer loop
vertex 3.628100 -2.196916 2.229316
vertex 5.129127 -2.196916 2.229316
vertex 5.129127 -3.697942 2.229316
endloop
endfacet
facet normal 0.000000 0.000000 -1.000000
outer loop
vertex 3.628100 -2.196916 2.229316
vertex 5.129127 -3.697942 2.229316
vertex 3.628100 -3.697942 2.229316
endloop
endfacet
facet normal 0.000000 0.000000 1.000000
outer loop
vertex 5.129127 -2.196916 3.451183
vertex 3.628100 -2.196916 3.451183
vertex 3.628100 -3.697942 3.451183
endloop
endfacet
facet normal 0.000000 0.000000 1.000000
outer loop
vertex 5.129127 -2.196916 3.451183
vertex 3.628100 -3.697942 3.451183
vertex 5.129127 -3.697942 3.451183
endloop
endfacet
facet normal -1.000000 0.000000 0.000000
outer loop
vertex 3.628100 -0.695889 2.229316
vertex 3.628100 -0.695889 3.451183
vertex 3.628100 0.805138 3.451183
endloop
endfacet
facet normal -1.000000 0.000000 0.000000
outer loop
vertex 3.628100 -0.695889 2.229316
vertex 3.628100 0.805138 3.451183
vertex 3.628100 0.805138 2.229316
endloop
endfacet
facet normal 0.000000 1.000000 0.000000
outer loop
vertex 3.628100 0.805138 2.229316
vertex 3.628100 0.805138 3.451183
vertex 5.129127 0.805138 3.451183
endloop
endfacet
facet normal 0.000000 1.000000 0.000000
outer loop
vertex 3.628100 0.805138 2.229316
vertex 5.129127 0.805138 3.451183
vertex 5.129127 0.805138 2.229316
endloop
endfacet
facet normal 1.000000 0.000000 0.000000
outer loop
vertex 5.129127 0.805138 2.229316
vertex 5.129127 0.805138 3.451183
vertex 5.129127 -0.695889 3.451183
endloop
endfacet
facet normal 1.000000 0.000000 0.000000
outer loop
vertex 5.129127 0.805138 2.229316
vertex 5.129127 -0.695889 3.451183
vertex 5.129127 -0.695889 2.229316
endloop
endfacet
facet normal 0.000000 -1.000000 0.000000
outer loop
vertex 5.129127 -0.695889 2.229316
vertex 5.129127 -0.695889 3.451183
vertex 3.628100 -0.695889 3.451183
endloop
endfacet
facet normal 0.000000 -1.000000 0.000000
outer loop
vertex 5.129127 -0.695889 2.229316
vertex 3.628100 -0.695889 3.451183
vertex 3.628100 -0.695889 2.229316
endloop
endfacet
facet normal 0.000000 0.000000 -1.000000
outer loop
vertex 3.628100 0.805138 2.229316
vertex 5.129127 0.805138 2.229316
vertex 5.129127 -0.695889 2.229316
endloop
endfacet
facet normal 0.000000 0.000000 -1.000000
outer loop
vertex 3.628100 0.805138 2.229316
vertex 5.129127 -0.695889 2.229316
vertex 3.628100 -0.695889 2.229316
endloop
endfacet
facet normal 0.000000 0.000000 1.000000
outer loop
vertex 5.129127 0.805138 3.451183
vertex 3.628100 0.805138 3.451183
vertex 3.628100 -0.695889 3.451183
endloop
endfacet
facet normal 0.000000 0.000000 1.000000
outer loop
vertex 5.129127 0.805138 3.451183
vertex 3.628100 -0.695889 3.451183
vertex 5.129127 -0.695889 3.451183
endloop
endfacet
facet normal -1.000000 0.000000 0.000000
outer loop
vertex 3.628100 2.306164 2.229316
vertex 3.628100 2.306164 3.451183
vertex 3.628100 3.807190 3.451183
endloop
endfacet
facet normal -1.000000 0.000000 0.000000
outer loop
vertex 3.628100 2.306164 2.229316
vertex 3.628100 3.807190 3.451183
vertex 3.628100 3.807190 2.229316
endloop
endfacet
facet normal 0.000000 1.000000 0.000000
outer loop
vertex 3.628100 3.807190 2.229316
vertex 3.628100 3.807190 3.451183
vertex 5.129127 3.807190 3.451183
endloop
endfacet
facet normal 0.000000 1.000000 0.000000
outer loop
vertex 3.628100 3.807190 2.229316
vertex 5.129127 3.807190 3.451183
vertex 5.129127 3.807190 2.229316
endloop
endfacet
facet normal 1.000000 0.000000 0.000000
outer loop
vertex 5.129127 3.807190 2.229316
vertex 5.129127 3.807190 3.451183
vertex 5.129127 2.306164 3.451183
endloop
endfacet
facet normal 1.000000 0.000000 0.000000
outer loop
vertex 5.129127 3.807190 2.229316
vertex 5.129127 2.306164 3.451183
vertex 5.129127 2.306164 2.229316
endloop
endfacet
facet normal 0.000000 -1.000000 0.000000
outer loop
vertex 5.129127 2.306164 2.229316
vertex 5.129127 2.306164 3.451183
vertex 3.628100 2.306164 3.451183
endloop
endfacet
facet normal 0.000000 -1.000000 0.000000
outer loop
vertex 5.129127 2.306164 2.229316
vertex 3.628100 2.306164 3.451183
vertex 3.628100 2.306164 2.229316
endloop
endfacet
facet normal 0.000000 0.000000 -1.000000
outer loop
vertex 3.628100 3.807190 2.229316
vertex 5.129127 3.807190 2.229316
vertex 5.129127 2.306164 2.229316
endloop
endfacet
facet normal 0.000000 0.000000 -1.000000
outer loop
vertex 3.628100 3.807190 2.229316
vertex 5.129127 2.306164 2.229316
vertex 3.628100 2.306164 2.229316
endloop
endfacet
facet normal 0.000000 0.000000 1.000000
outer loop
vertex 5.129127 3.807190 3.451183
vertex 3.628100 3.807190 3.451183
vertex 3.628100 2.306164 3.451183
endloop
endfacet
facet normal 0.000000 0.000000 1.000000
outer loop
vertex 5.129127 3.807190 3.451183
vertex 3.628100 2.306164 3.451183
vertex 5.129127 2.306164 3.451183
endloop
endfacet
facet normal -1.000000 0.000000 0.000000
outer loop
vertex 3.628100 5.308217 2.229316
vertex 3.628100 5.308217 3.451183
vertex 3.628100 6.809243 3.451183
endloop
endfacet
facet normal -1.000000 0.000000 0.000000
outer loop
vertex 3.628100 5.308217 2.229316
vertex 3.628100 6.809243 3.451183
vertex 3.628100 6.809243 2.229316
endloop
endfacet
facet normal 0.000000 1.000000 0.000000
outer loop
vertex 3.628100 6.809243 2.229316
vertex 3.628100 6.809243 3.451183
vertex 5.129127 6.809243 3.451183
endloop
endfacet
facet normal 0.000000 1.000000 0.000000
outer loop
vertex 3.628100 6.809243 2.229316
vertex 5.129127 6.809243 3.451183
vertex 5.129127 6.809243 2.229316
endloop
endfacet
facet normal 1.000000 0.000000 0.000000
outer loop
vertex 5.129127 6.809243 2.229316
vertex 5.129127 6.809243 3.451183
vertex 5.129127 5.308217 3.451183
endloop
endfacet
facet normal 1.000000 0.000000 0.000000
outer loop
vertex 5.129127 6.809243 2.229316
vertex 5.129127 5.308217 3.451183
vertex 5.129127 5.308217 2.229316
endloop
endfacet
facet normal 0.000000 -1.000000 0.000000
outer loop
vertex 5.129127 5.308217 2.229316
vertex 5.129127 5.308217 3.451183
vertex 3.628100 5.308217 3.451183
endloop
endfacet
facet normal 0.000000 -1.000000 0.000000
outer loop
vertex 5.129127 5.308217 2.229316
vertex 3.628100 5.308217 3.451183
vertex 3.628100 5.308217 2.229316
endloop
endfacet
facet normal 0.000000 0.000000 -1.000000
outer loop
vertex 3.628100 6.809243 2.229316
vertex 5.129127 6.809243 2.229316
vertex 5.129127 5.308217 2.229316
endloop
endfacet
facet normal 0.000000 0.000000 -1.000000
outer loop
vertex 3.628100 6.809243 2.229316
vertex 5.129127 5.308217 2.229316
vertex 3.628100 5.308217 2.229316
endloop
endfacet
facet normal 0.000000 0.000000 1.000000
outer loop
vertex 5.129127 6.809243 3.451183
vertex 3.628100 6.809243 3.451183
vertex 3.628100 5.308217 3.451183
endloop
endfacet
facet normal 0.000000 0.000000 1.000000
outer loop
vertex 5.129127 6.809243 3.451183
vertex 3.628100 5.308217 3.451183
vertex 5.129127 5.308217 3.451183
endloop
endfacet
facet normal -1.000000 0.000000 0.000000
outer loop
vertex 3.628100 8.310268 2.229316
vertex 3.628100 8.310268 3.451183
vertex 3.628100 9.811295 3.451183
endloop
endfacet
facet normal -1.000000 0.000000 0.000000
outer loop
vertex 3.628100 8.310268 2.229316
vertex 3.628100 9.811295 3.451183
vertex 3.628100 9.811295 2.229316
endloop
endfacet
facet normal 0.000000 1.000000 0.000000
outer loop
vertex 3.628100 9.811295 2.229316
vertex 3.628100 9.811295 3.451183
vertex 5.129127 9.811295 3.451183
endloop
endfacet
facet normal 0.000000 1.000000 0.000000
outer loop
vertex 3.628100 9.811295 2.229316
vertex 5.129127 9.811295 3.451183
vertex 5.129127 9.811295 2.229316
endloop
endfacet
facet normal 1.000000 0.000000 0.000000
outer loop
vertex 5.129127 9.811295 2.229316
vertex 5.129127 9.811295 3.451183
vertex 5.129127 8.310268 3.451183
endloop
endfacet
facet normal 1.000000 0.000000 0.000000
outer loop
vertex 5.129127 9.811295 2.229316
vertex 5.129127 8.310268 3.451183
vertex 5.129127 8.310268 2.229316
endloop
endfacet
facet normal 0.000000 -1.000000 0.000000
outer loop
vertex 5.129127 8.310268 2.229316
vertex 5.129127 8.310268 3.451183
vertex 3.628100 8.310268 3.451183
endloop
endfacet
facet normal 0.000000 -1.000000 0.000000
outer loop
vertex 5.129127 8.310268 2.229316
vertex 3.628100 8.310268 3.451183
vertex 3.628100 8.310268 2.229316
endloop
endfacet
facet normal 0.000000 0.000000 -1.000000
outer loop
vertex 3.628100 9.811295 2.229316
vertex 5.129127 9.811295 2.229316
vertex 5.129127 8.310268 2.229316
endloop
endfacet
facet normal 0.000000 0.000000 -1.000000
outer loop
vertex 3.628100 9.811295 2.229316
vertex 5.129127 8.310268 2.229316
vertex 3.628100 8.310268 2.229316
endloop
endfacet
facet normal 0.000000 0.000000 1.000000
outer loop
vertex 5.129127 9.811295 3.451183
vertex 3.628100 9.811295 3.451183
vertex 3.628100 8.310268 3.451183
endloop
endfacet
facet normal 0.000000 0.000000 1.000000
outer loop
vertex 5.129127 9.811295 3.451183
vertex 3.628100 8.310268 3.451183
vertex 5.129127 8.310268 3.451183
endloop
endfacet
endsolid obstacle
