solid bottom
facet normal 0.000000 0.000000 -1.000000
outer loop
vertex -2.000000 0.3950000 0.000000
vertex 4.000000 0.3950000 0.000000
vertex 4.000000 -0.3950000 0.000000
endloop
endfacet
facet normal 0.000000 0.000000 -1.000000
outer loop
vertex -2.000000 0.3950000 0.000000
vertex 4.000000 -0.3950000 0.000000
vertex -2.000000 -0.3950000 0.000000
endloop
endfacet
endsolid bottom
solid frontAndBack
facet normal 0.000000 1.000000 0.000000
outer loop
vertex -2.000000 0.395000 0.000000
vertex -2.000000 0.395000 0.100000
vertex 4.000000 0.395000 0.100000
endloop
endfacet
facet normal 0.000000 1.000000 0.000000
outer loop
vertex -2.000000 0.395000 0.000000
vertex 4.000000 0.395000 0.100000
vertex 4.000000 0.395000 0.000000
endloop
endfacet
facet normal 0.000000 -1.000000 0.000000
outer loop
vertex 4.000000 -0.395000 0.000000
vertex 4.000000 -0.395000 0.100000
vertex -2.000000 -0.395000 0.100000
endloop
endfacet
facet normal 0.000000 -1.000000 0.000000
outer loop
vertex 4.000000 -0.395000 0.000000
vertex -2.000000 -0.395000 0.100000
vertex -2.000000 -0.395000 0.000000
endloop
endfacet
endsolid frontAndBack
solid outlet
facet normal 1.000000 0.000000 0.000000
outer loop
vertex 4.000000 0.395000 0.000000
vertex 4.000000 0.395000 0.100000
vertex 4.000000 -0.395000 0.100000
endloop
endfacet
facet normal 1.000000 0.000000 0.000000
outer loop
vertex 4.000000 0.395000 0.000000
vertex 4.000000 -0.395000 0.100000
vertex 4.000000 -0.395000 0.000000
endloop
endfacet
endsolid outlet
solid inlet
facet normal -1.000000 0.000000 0.000000
outer loop
vertex -2.000000 -0.395000 0.000000
vertex -2.000000 -0.395000 0.100000
vertex -2.000000 0.395000 0.100000
endloop
endfacet
facet normal -1.000000 0.000000 0.000000
outer loop
vertex -2.000000 -0.395000 0.000000
vertex -2.000000 0.395000 0.100000
vertex -2.000000 0.395000 0.000000
endloop
endfacet
endsolid inlet
solid top
facet normal 0.000000 0.000000 1.000000
outer loop
vertex 4.000000 0.395000 0.100000
vertex -2.000000 0.395000 0.100000
vertex -2.000000 -0.395000 0.100000
endloop
endfacet
facet normal 0.000000 0.000000 1.000000
outer loop
vertex 4.000000 0.395000 0.100000
vertex -2.000000 -0.395000 0.100000
vertex 4.000000 -0.395000 0.100000
endloop
endfacet
endsolid top
solid cylinder
facet normal 0.000000 0.000000 -1.000000
outer loop
vertex 0.127160 -0.200248 0.000000
vertex 0.109840 -0.210248 0.000000
vertex -0.109840 0.210248 0.000000
endloop
endfacet
facet normal 0.000000 0.000000 -1.000000
outer loop
vertex -0.109840 0.210248 0.000000
vertex 0.109840 -0.210248 0.000000
vertex -0.127160 0.200248 0.000000
endloop
endfacet
facet normal 0.866025 0.500000 0.000000
outer loop
vertex 0.127160 -0.200248 0.002087
vertex 0.127160 -0.200248 0.000000
vertex -0.109840 0.210248 0.002087
endloop
endfacet
facet normal 0.866025 0.500000 0.000000
outer loop
vertex -0.109840 0.210248 0.002087
vertex 0.127160 -0.200248 0.000000
vertex -0.109840 0.210248 0.000000
endloop
endfacet
facet normal -0.405603 -0.234052 -0.883575
outer loop
vertex 0.106941 -0.211922 0.003861
vertex 0.067362 -0.143551 0.003919
vertex 0.109840 -0.210248 0.002087
endloop
endfacet
facet normal -0.407204 -0.235099 -0.882561
outer loop
vertex 0.109840 -0.210248 0.002087
vertex 0.067362 -0.143551 0.003919
vertex 0.027862 -0.075135 0.003919
endloop
endfacet
facet normal -0.407207 -0.235101 -0.882559
outer loop
vertex 0.109840 -0.210248 0.002087
vertex 0.027862 -0.075135 0.003919
vertex -0.011638 -0.006719 0.003919
endloop
endfacet
facet normal -0.521015 -0.300808 -0.798786
outer loop
vertex -0.011638 -0.006719 0.003919
vertex 0.027862 -0.075135 0.003919
vertex -0.014333 -0.008275 0.006263
endloop
endfacet
facet normal -0.521015 -0.300808 -0.798785
outer loop
vertex -0.011638 -0.006719 0.003919
vertex -0.014333 -0.008275 0.006263
vertex -0.053833 0.060141 0.006263
endloop
endfacet
facet normal -0.622170 -0.359210 -0.695610
outer loop
vertex -0.053833 0.060141 0.006263
vertex -0.014333 -0.008275 0.006263
vertex -0.056180 0.058786 0.009062
endloop
endfacet
facet normal -0.622171 -0.359210 -0.695609
outer loop
vertex -0.053833 0.060141 0.006263
vertex -0.056180 0.058786 0.009062
vertex -0.095681 0.127202 0.009062
endloop
endfacet
facet normal -0.708213 -0.408887 -0.575539
outer loop
vertex -0.095681 0.127202 0.009062
vertex -0.056180 0.058786 0.009062
vertex -0.097622 0.126080 0.012248
endloop
endfacet
facet normal -0.708023 -0.409216 -0.575539
outer loop
vertex -0.095681 0.127202 0.009062
vertex -0.097622 0.126080 0.012248
vertex -0.136928 0.194608 0.011878
endloop
endfacet
facet normal -0.769634 -0.443924 -0.458906
outer loop
vertex -0.136928 0.194608 0.011878
vertex -0.097622 0.126080 0.012248
vertex -0.138434 0.193739 0.015243
endloop
endfacet
facet normal -0.776825 -0.449031 -0.441490
outer loop
vertex -0.138434 0.193739 0.015243
vertex -0.097622 0.126080 0.012248
vertex -0.099112 0.125220 0.015744
endloop
endfacet
facet normal -0.820887 -0.473425 -0.319396
outer loop
vertex -0.138434 0.193739 0.015243
vertex -0.099112 0.125220 0.015744
vertex -0.139482 0.193134 0.018833
endloop
endfacet
facet normal -0.826757 -0.477946 -0.296716
outer loop
vertex -0.139482 0.193134 0.018833
vertex -0.099112 0.125220 0.015744
vertex -0.100113 0.124642 0.019465
endloop
endfacet
facet normal -0.853293 -0.492053 -0.172554
outer loop
vertex -0.139482 0.193134 0.018833
vertex -0.100113 0.124642 0.019465
vertex -0.140048 0.192808 0.022564
endloop
endfacet
facet normal -0.856604 -0.495257 -0.144741
outer loop
vertex -0.140048 0.192808 0.022564
vertex -0.100113 0.124642 0.019465
vertex -0.100602 0.124360 0.023320
endloop
endfacet
facet normal -0.866111 -0.499378 -0.021747
outer loop
vertex -0.140048 0.192808 0.022564
vertex -0.100602 0.124360 0.023320
vertex -0.140119 0.192766 0.026352
endloop
endfacet
facet normal -0.865643 -0.500547 0.010751
outer loop
vertex -0.140119 0.192766 0.026352
vertex -0.100602 0.124360 0.023320
vertex -0.100565 0.124381 0.027216
endloop
endfacet
facet normal -0.859047 -0.495230 0.129558
outer loop
vertex -0.140119 0.192766 0.026352
vertex -0.100565 0.124381 0.027216
vertex -0.139694 0.193012 0.030108
endloop
endfacet
facet normal -0.853651 -0.493689 0.165984
outer loop
vertex -0.139694 0.193012 0.030108
vertex -0.100565 0.124381 0.027216
vertex -0.100005 0.124705 0.031058
endloop
endfacet
facet normal -0.832262 -0.479704 0.277893
outer loop
vertex -0.139694 0.193012 0.030108
vertex -0.100005 0.124705 0.031058
vertex -0.138782 0.193538 0.033747
endloop
endfacet
facet normal -0.820920 -0.474851 0.317186
outer loop
vertex -0.138782 0.193538 0.033747
vertex -0.100005 0.124705 0.031058
vertex -0.098935 0.125323 0.034753
endloop
endfacet
facet normal -0.786374 -0.453156 0.419840
outer loop
vertex -0.138782 0.193538 0.033747
vertex -0.098935 0.125323 0.034753
vertex -0.137405 0.194333 0.037185
endloop
endfacet
facet normal -0.768246 -0.444490 0.460680
outer loop
vertex -0.137405 0.194333 0.037185
vertex -0.098935 0.125323 0.034753
vertex -0.097381 0.126220 0.038211
endloop
endfacet
facet normal -0.722438 -0.416194 0.552146
outer loop
vertex -0.137405 0.194333 0.037185
vertex -0.097381 0.126220 0.038211
vertex -0.135594 0.195379 0.040343
endloop
endfacet
facet normal -0.696902 -0.403345 0.592993
outer loop
vertex -0.135594 0.195379 0.040343
vertex -0.097381 0.126220 0.038211
vertex -0.095380 0.127375 0.041348
endloop
endfacet
facet normal -0.641922 -0.369667 0.671776
outer loop
vertex -0.135594 0.195379 0.040343
vertex -0.095380 0.127375 0.041348
vertex -0.133390 0.196651 0.043149
endloop
endfacet
facet normal -0.608627 -0.352416 0.710898
outer loop
vertex -0.133390 0.196651 0.043149
vertex -0.095380 0.127375 0.041348
vertex -0.092981 0.128760 0.044088
endloop
endfacet
facet normal -0.546670 -0.314639 0.775986
outer loop
vertex -0.133390 0.196651 0.043149
vertex -0.092981 0.128760 0.044088
vertex -0.130844 0.198121 0.045539
endloop
endfacet
facet normal -0.505559 -0.292942 0.811539
outer loop
vertex -0.130844 0.198121 0.045539
vertex -0.092981 0.128760 0.044088
vertex -0.090243 0.130341 0.046365
endloop
endfacet
facet normal -0.438875 -0.252377 0.862377
outer loop
vertex -0.130844 0.198121 0.045539
vertex -0.090243 0.130341 0.046365
vertex -0.128015 0.199755 0.047456
endloop
endfacet
facet normal -0.390207 -0.226367 0.892466
outer loop
vertex -0.128015 0.199755 0.047456
vertex -0.090243 0.130341 0.046365
vertex -0.087232 0.132080 0.048123
endloop
endfacet
facet normal -0.321010 -0.184306 0.928969
outer loop
vertex -0.128015 0.199755 0.047456
vertex -0.087232 0.132080 0.048123
vertex -0.124967 0.201514 0.048859
endloop
endfacet
facet normal -0.265370 -0.154309 0.951718
outer loop
vertex -0.124967 0.201514 0.048859
vertex -0.087232 0.132080 0.048123
vertex -0.084020 0.133934 0.049319
endloop
endfacet
facet normal -0.195782 -0.111992 0.974232
outer loop
vertex -0.124967 0.201514 0.048859
vertex -0.084020 0.133934 0.049319
vertex -0.121771 0.203359 0.049713
endloop
endfacet
facet normal -0.134077 -0.078516 0.987856
outer loop
vertex -0.121771 0.203359 0.049713
vertex -0.084020 0.133934 0.049319
vertex -0.080687 0.135858 0.049924
endloop
endfacet
facet normal -0.066067 -0.037095 0.997125
outer loop
vertex -0.121771 0.203359 0.049713
vertex -0.080687 0.135858 0.049924
vertex -0.118500 0.205248 0.050000
endloop
endfacet
facet normal 0.000481 -0.000833 1.000000
outer loop
vertex -0.118500 0.205248 0.050000
vertex -0.080687 0.135858 0.049924
vertex -0.077313 0.137806 0.049924
endloop
endfacet
facet normal 0.065159 0.038669 0.997125
outer loop
vertex -0.118500 0.205248 0.050000
vertex -0.077313 0.137806 0.049924
vertex -0.115229 0.207137 0.049713
endloop
endfacet
facet normal 0.135036 0.076855 0.987856
outer loop
vertex -0.115229 0.207137 0.049713
vertex -0.077313 0.137806 0.049924
vertex -0.073980 0.139730 0.049319
endloop
endfacet
facet normal 0.194878 0.113556 0.974232
outer loop
vertex -0.115229 0.207137 0.049713
vertex -0.073980 0.139730 0.049319
vertex -0.112033 0.208982 0.048859
endloop
endfacet
facet normal 0.266322 0.152663 0.951718
outer loop
vertex -0.112033 0.208982 0.048859
vertex -0.073980 0.139730 0.049319
vertex -0.070768 0.141585 0.048123
endloop
endfacet
facet normal 0.320119 0.185850 0.928969
outer loop
vertex -0.112033 0.208982 0.048859
vertex -0.070768 0.141585 0.048123
vertex -0.108985 0.210741 0.047456
endloop
endfacet
facet normal 0.391142 0.224746 0.892467
outer loop
vertex -0.108985 0.210741 0.047456
vertex -0.070768 0.141585 0.048123
vertex -0.067757 0.143323 0.046365
endloop
endfacet
facet normal 0.438001 0.253889 0.862378
outer loop
vertex -0.108985 0.210741 0.047456
vertex -0.067757 0.143323 0.046365
vertex -0.106156 0.212375 0.045539
endloop
endfacet
facet normal 0.506474 0.291357 0.811539
outer loop
vertex -0.106156 0.212375 0.045539
vertex -0.067757 0.143323 0.046365
vertex -0.065019 0.144904 0.044088
endloop
endfacet
facet normal 0.545822 0.316111 0.775985
outer loop
vertex -0.106156 0.212375 0.045539
vertex -0.065019 0.144904 0.044088
vertex -0.103610 0.213845 0.043149
endloop
endfacet
facet normal 0.609516 0.350878 0.710897
outer loop
vertex -0.103610 0.213845 0.043149
vertex -0.065019 0.144904 0.044088
vertex -0.062620 0.146289 0.041348
endloop
endfacet
facet normal 0.641101 0.371086 0.671777
outer loop
vertex -0.103610 0.213845 0.043149
vertex -0.062620 0.146289 0.041348
vertex -0.101406 0.215117 0.040343
endloop
endfacet
facet normal 0.697758 0.401864 0.592992
outer loop
vertex -0.101406 0.215117 0.040343
vertex -0.062620 0.146289 0.041348
vertex -0.060619 0.147444 0.038211
endloop
endfacet
facet normal 0.721653 0.417551 0.552149
outer loop
vertex -0.101406 0.215117 0.040343
vertex -0.060619 0.147444 0.038211
vertex -0.099595 0.216163 0.037185
endloop
endfacet
facet normal 0.769063 0.443076 0.460680
outer loop
vertex -0.099595 0.216163 0.037185
vertex -0.060619 0.147444 0.038211
vertex -0.059065 0.148342 0.034753
endloop
endfacet
facet normal 0.785633 0.454443 0.419837
outer loop
vertex -0.099595 0.216163 0.037185
vertex -0.059065 0.148342 0.034753
vertex -0.098218 0.216958 0.033747
endloop
endfacet
facet normal 0.821693 0.473514 0.317184
outer loop
vertex -0.098218 0.216958 0.033747
vertex -0.059065 0.148342 0.034753
vertex -0.057995 0.148959 0.031058
endloop
endfacet
facet normal 0.831567 0.480907 0.277893
outer loop
vertex -0.098218 0.216958 0.033747
vertex -0.057995 0.148959 0.031058
vertex -0.097306 0.217484 0.030108
endloop
endfacet
facet normal 0.854373 0.492439 0.165985
outer loop
vertex -0.097306 0.217484 0.030108
vertex -0.057995 0.148959 0.031058
vertex -0.057435 0.149283 0.027216
endloop
endfacet
facet normal 0.858406 0.496341 0.129558
outer loop
vertex -0.097306 0.217484 0.030108
vertex -0.057435 0.149283 0.027216
vertex -0.096881 0.217730 0.026352
endloop
endfacet
facet normal 0.866308 0.499395 0.010751
outer loop
vertex -0.096881 0.217730 0.026352
vertex -0.057435 0.149283 0.027216
vertex -0.057398 0.149304 0.023320
endloop
endfacet
facet normal 0.865529 0.500386 -0.021750
outer loop
vertex -0.096881 0.217730 0.026352
vertex -0.057398 0.149304 0.023320
vertex -0.096952 0.217689 0.022564
endloop
endfacet
facet normal 0.857207 0.494213 -0.144739
outer loop
vertex -0.096952 0.217689 0.022564
vertex -0.057398 0.149304 0.023320
vertex -0.057887 0.149022 0.019465
endloop
endfacet
facet normal 0.852777 0.492947 -0.172554
outer loop
vertex -0.096952 0.217689 0.022564
vertex -0.057887 0.149022 0.019465
vertex -0.097518 0.217362 0.018833
endloop
endfacet
facet normal 0.827291 0.477020 -0.296719
outer loop
vertex -0.097518 0.217362 0.018833
vertex -0.057887 0.149022 0.019465
vertex -0.058888 0.148444 0.015744
endloop
endfacet
facet normal 0.820442 0.474197 -0.319393
outer loop
vertex -0.097518 0.217362 0.018833
vertex -0.058888 0.148444 0.015744
vertex -0.098566 0.216757 0.015243
endloop
endfacet
facet normal 0.777286 0.448235 -0.441489
outer loop
vertex -0.098566 0.216757 0.015243
vertex -0.058888 0.148444 0.015744
vertex -0.060378 0.147584 0.012248
endloop
endfacet
facet normal 0.769267 0.444562 -0.458903
outer loop
vertex -0.098566 0.216757 0.015243
vertex -0.060378 0.147584 0.012248
vertex -0.100072 0.215888 0.011878
endloop
endfacet
facet normal 0.708403 0.408558 -0.575539
outer loop
vertex -0.100072 0.215888 0.011878
vertex -0.060378 0.147584 0.012248
vertex -0.062320 0.146463 0.009062
endloop
endfacet
facet normal 0.700427 0.404721 -0.587881
outer loop
vertex -0.100072 0.215888 0.011878
vertex -0.062320 0.146463 0.009062
vertex -0.102000 0.214774 0.008813
endloop
endfacet
facet normal 0.622319 0.358956 -0.695608
outer loop
vertex -0.102000 0.214774 0.008813
vertex -0.062320 0.146463 0.009062
vertex -0.064667 0.145107 0.006263
endloop
endfacet
facet normal 0.615509 0.355590 -0.703352
outer loop
vertex -0.102000 0.214774 0.008813
vertex -0.064667 0.145107 0.006263
vertex -0.104308 0.213442 0.006120
endloop
endfacet
facet normal 0.521116 0.300633 -0.798785
outer loop
vertex -0.104308 0.213442 0.006120
vertex -0.064667 0.145107 0.006263
vertex -0.067362 0.143551 0.003919
endloop
endfacet
facet normal 0.516458 0.298294 -0.802678
outer loop
vertex -0.104308 0.213442 0.006120
vertex -0.067362 0.143551 0.003919
vertex -0.106941 0.211922 0.003861
endloop
endfacet
facet normal 0.405603 0.234052 -0.883575
outer loop
vertex -0.106941 0.211922 0.003861
vertex -0.067362 0.143551 0.003919
vertex -0.109840 0.210248 0.002087
endloop
endfacet
facet normal 0.407203 0.235099 -0.882561
outer loop
vertex -0.109840 0.210248 0.002087
vertex -0.067362 0.143551 0.003919
vertex -0.027862 0.075135 0.003919
endloop
endfacet
facet normal 0.407209 0.235102 -0.882558
outer loop
vertex -0.109840 0.210248 0.002087
vertex -0.027862 0.075135 0.003919
vertex 0.011638 0.006719 0.003919
endloop
endfacet
facet normal 0.521015 0.300808 -0.798785
outer loop
vertex 0.011638 0.006719 0.003919
vertex -0.027862 0.075135 0.003919
vertex 0.014333 0.008275 0.006263
endloop
endfacet
facet normal 0.521015 0.300808 -0.798785
outer loop
vertex 0.011638 0.006719 0.003919
vertex 0.014333 0.008275 0.006263
vertex 0.053833 -0.060141 0.006263
endloop
endfacet
facet normal 0.622170 0.359210 -0.695610
outer loop
vertex 0.053833 -0.060141 0.006263
vertex 0.014333 0.008275 0.006263
vertex 0.056180 -0.058786 0.009062
endloop
endfacet
facet normal 0.622169 0.359210 -0.695611
outer loop
vertex 0.053833 -0.060141 0.006263
vertex 0.056180 -0.058786 0.009062
vertex 0.095681 -0.127202 0.009062
endloop
endfacet
facet normal 0.708213 0.408887 -0.575540
outer loop
vertex 0.095681 -0.127202 0.009062
vertex 0.056180 -0.058786 0.009062
vertex 0.097622 -0.126080 0.012248
endloop
endfacet
facet normal 0.708023 0.409216 -0.575539
outer loop
vertex 0.095681 -0.127202 0.009062
vertex 0.097622 -0.126080 0.012248
vertex 0.136928 -0.194608 0.011878
endloop
endfacet
facet normal 0.769633 0.443923 -0.458908
outer loop
vertex 0.136928 -0.194608 0.011878
vertex 0.097622 -0.126080 0.012248
vertex 0.138434 -0.193739 0.015243
endloop
endfacet
facet normal 0.776826 0.449032 -0.441488
outer loop
vertex 0.138434 -0.193739 0.015243
vertex 0.097622 -0.126080 0.012248
vertex 0.099112 -0.125220 0.015744
endloop
endfacet
facet normal 0.820887 0.473425 -0.319396
outer loop
vertex 0.138434 -0.193739 0.015243
vertex 0.099112 -0.125220 0.015744
vertex 0.139482 -0.193134 0.018833
endloop
endfacet
facet normal 0.826756 0.477946 -0.296719
outer loop
vertex 0.139482 -0.193134 0.018833
vertex 0.099112 -0.125220 0.015744
vertex 0.100113 -0.124642 0.019465
endloop
endfacet
facet normal 0.853294 0.492052 -0.172551
outer loop
vertex 0.139482 -0.193134 0.018833
vertex 0.100113 -0.124642 0.019465
vertex 0.140048 -0.192807 0.022564
endloop
endfacet
facet normal 0.856604 0.495257 -0.144741
outer loop
vertex 0.140048 -0.192807 0.022564
vertex 0.100113 -0.124642 0.019465
vertex 0.100602 -0.124360 0.023320
endloop
endfacet
facet normal 0.866111 0.499378 -0.021747
outer loop
vertex 0.140048 -0.192807 0.022564
vertex 0.100602 -0.124360 0.023320
vertex 0.140119 -0.192766 0.026352
endloop
endfacet
facet normal 0.865643 0.500547 0.010751
outer loop
vertex 0.140119 -0.192766 0.026352
vertex 0.100602 -0.124360 0.023320
vertex 0.100565 -0.124381 0.027216
endloop
endfacet
facet normal 0.859047 0.495231 0.129555
outer loop
vertex 0.140119 -0.192766 0.026352
vertex 0.100565 -0.124381 0.027216
vertex 0.139694 -0.193012 0.030108
endloop
endfacet
facet normal 0.853651 0.493689 0.165987
outer loop
vertex 0.139694 -0.193012 0.030108
vertex 0.100565 -0.124381 0.027216
vertex 0.100005 -0.124705 0.031058
endloop
endfacet
facet normal 0.832262 0.479704 0.277893
outer loop
vertex 0.139694 -0.193012 0.030108
vertex 0.100005 -0.124705 0.031058
vertex 0.138782 -0.193538 0.033747
endloop
endfacet
facet normal 0.820920 0.474851 0.317186
outer loop
vertex 0.138782 -0.193538 0.033747
vertex 0.100005 -0.124705 0.031058
vertex 0.098935 -0.125322 0.034753
endloop
endfacet
facet normal 0.786375 0.453157 0.419837
outer loop
vertex 0.138782 -0.193538 0.033747
vertex 0.098935 -0.125322 0.034753
vertex 0.137405 -0.194333 0.037185
endloop
endfacet
facet normal 0.768246 0.444490 0.460680
outer loop
vertex 0.137405 -0.194333 0.037185
vertex 0.098935 -0.125322 0.034753
vertex 0.097381 -0.126220 0.038211
endloop
endfacet
facet normal 0.722439 0.416195 0.552144
outer loop
vertex 0.137405 -0.194333 0.037185
vertex 0.097381 -0.126220 0.038211
vertex 0.135594 -0.195379 0.040343
endloop
endfacet
facet normal 0.696902 0.403344 0.592993
outer loop
vertex 0.135594 -0.195379 0.040343
vertex 0.097381 -0.126220 0.038211
vertex 0.095380 -0.127375 0.041348
endloop
endfacet
facet normal 0.641922 0.369667 0.671776
outer loop
vertex 0.135594 -0.195379 0.040343
vertex 0.095380 -0.127375 0.041348
vertex 0.133390 -0.196651 0.043149
endloop
endfacet
facet normal 0.608627 0.352416 0.710898
outer loop
vertex 0.133390 -0.196651 0.043149
vertex 0.095380 -0.127375 0.041348
vertex 0.092981 -0.128760 0.044088
endloop
endfacet
facet normal 0.546669 0.314638 0.775987
outer loop
vertex 0.133390 -0.196651 0.043149
vertex 0.092981 -0.128760 0.044088
vertex 0.130844 -0.198121 0.045539
endloop
endfacet
facet normal 0.505560 0.292942 0.811538
outer loop
vertex 0.130844 -0.198121 0.045539
vertex 0.092981 -0.128760 0.044088
vertex 0.090243 -0.130341 0.046365
endloop
endfacet
facet normal 0.438874 0.252376 0.862378
outer loop
vertex 0.130844 -0.198121 0.045539
vertex 0.090243 -0.130341 0.046365
vertex 0.128015 -0.199755 0.047456
endloop
endfacet
facet normal 0.390207 0.226367 0.892467
outer loop
vertex 0.128015 -0.199755 0.047456
vertex 0.090243 -0.130341 0.046365
vertex 0.087232 -0.132080 0.048123
endloop
endfacet
facet normal 0.321009 0.184307 0.928969
outer loop
vertex 0.128015 -0.199755 0.047456
vertex 0.087232 -0.132080 0.048123
vertex 0.124967 -0.201514 0.048859
endloop
endfacet
facet normal 0.265371 0.154309 0.951718
outer loop
vertex 0.124967 -0.201514 0.048859
vertex 0.087232 -0.132080 0.048123
vertex 0.084020 -0.133934 0.049319
endloop
endfacet
facet normal 0.195782 0.111993 0.974232
outer loop
vertex 0.124967 -0.201514 0.048859
vertex 0.084020 -0.133934 0.049319
vertex 0.121771 -0.203359 0.049713
endloop
endfacet
facet normal 0.134077 0.078516 0.987856
outer loop
vertex 0.121771 -0.203359 0.049713
vertex 0.084020 -0.133934 0.049319
vertex 0.080687 -0.135858 0.049924
endloop
endfacet
facet normal 0.066067 0.037095 0.997125
outer loop
vertex 0.121771 -0.203359 0.049713
vertex 0.080687 -0.135858 0.049924
vertex 0.118500 -0.205248 0.050000
endloop
endfacet
facet normal -0.000481 0.000833 1.000000
outer loop
vertex 0.118500 -0.205248 0.050000
vertex 0.080687 -0.135858 0.049924
vertex 0.077313 -0.137806 0.049924
endloop
endfacet
facet normal -0.065159 -0.038669 0.997125
outer loop
vertex 0.118500 -0.205248 0.050000
vertex 0.077313 -0.137806 0.049924
vertex 0.115229 -0.207137 0.049713
endloop
endfacet
facet normal -0.135036 -0.076855 0.987856
outer loop
vertex 0.115229 -0.207137 0.049713
vertex 0.077313 -0.137806 0.049924
vertex 0.073980 -0.139730 0.049319
endloop
endfacet
facet normal -0.194878 -0.113556 0.974232
outer loop
vertex 0.115229 -0.207137 0.049713
vertex 0.073980 -0.139730 0.049319
vertex 0.112033 -0.208982 0.048859
endloop
endfacet
facet normal -0.266321 -0.152663 0.951718
outer loop
vertex 0.112033 -0.208982 0.048859
vertex 0.073980 -0.139730 0.049319
vertex 0.070768 -0.141585 0.048123
endloop
endfacet
facet normal -0.320120 -0.185850 0.928969
outer loop
vertex 0.112033 -0.208982 0.048859
vertex 0.070768 -0.141585 0.048123
vertex 0.108985 -0.210741 0.047456
endloop
endfacet
facet normal -0.391142 -0.224746 0.892467
outer loop
vertex 0.108985 -0.210741 0.047456
vertex 0.070768 -0.141585 0.048123
vertex 0.067757 -0.143323 0.046365
endloop
endfacet
facet normal -0.438001 -0.253889 0.862378
outer loop
vertex 0.108985 -0.210741 0.047456
vertex 0.067757 -0.143323 0.046365
vertex 0.106156 -0.212375 0.045539
endloop
endfacet
facet normal -0.506475 -0.291358 0.811538
outer loop
vertex 0.106156 -0.212375 0.045539
vertex 0.067757 -0.143323 0.046365
vertex 0.065019 -0.144904 0.044088
endloop
endfacet
facet normal -0.545822 -0.316111 0.775985
outer loop
vertex 0.106156 -0.212375 0.045539
vertex 0.065019 -0.144904 0.044088
vertex 0.103610 -0.213845 0.043149
endloop
endfacet
facet normal -0.609515 -0.350878 0.710898
outer loop
vertex 0.103610 -0.213845 0.043149
vertex 0.065019 -0.144904 0.044088
vertex 0.062620 -0.146289 0.041348
endloop
endfacet
facet normal -0.641101 -0.371086 0.671777
outer loop
vertex 0.103610 -0.213845 0.043149
vertex 0.062620 -0.146289 0.041348
vertex 0.101406 -0.215117 0.040343
endloop
endfacet
facet normal -0.697757 -0.401863 0.592994
outer loop
vertex 0.101406 -0.215117 0.040343
vertex 0.062620 -0.146289 0.041348
vertex 0.060619 -0.147444 0.038211
endloop
endfacet
facet normal -0.721654 -0.417552 0.552147
outer loop
vertex 0.101406 -0.215117 0.040343
vertex 0.060619 -0.147444 0.038211
vertex 0.099595 -0.216163 0.037185
endloop
endfacet
facet normal -0.769063 -0.443076 0.460680
outer loop
vertex 0.099595 -0.216163 0.037185
vertex 0.060619 -0.147444 0.038211
vertex 0.059065 -0.148342 0.034753
endloop
endfacet
facet normal -0.785633 -0.454443 0.419837
outer loop
vertex 0.099595 -0.216163 0.037185
vertex 0.059065 -0.148342 0.034753
vertex 0.098218 -0.216958 0.033747
endloop
endfacet
facet normal -0.821692 -0.473514 0.317187
outer loop
vertex 0.098218 -0.216958 0.033747
vertex 0.059065 -0.148342 0.034753
vertex 0.057995 -0.148959 0.031058
endloop
endfacet
facet normal -0.831568 -0.480907 0.277890
outer loop
vertex 0.098218 -0.216958 0.033747
vertex 0.057995 -0.148959 0.031058
vertex 0.097306 -0.217484 0.030108
endloop
endfacet
facet normal -0.854373 -0.492439 0.165985
outer loop
vertex 0.097306 -0.217484 0.030108
vertex 0.057995 -0.148959 0.031058
vertex 0.057435 -0.149283 0.027216
endloop
endfacet
facet normal -0.858406 -0.496341 0.129558
outer loop
vertex 0.097306 -0.217484 0.030108
vertex 0.057435 -0.149283 0.027216
vertex 0.096881 -0.217730 0.026352
endloop
endfacet
facet normal -0.866308 -0.499395 0.010748
outer loop
vertex 0.096881 -0.217730 0.026352
vertex 0.057435 -0.149283 0.027216
vertex 0.057398 -0.149304 0.023320
endloop
endfacet
facet normal -0.865529 -0.500386 -0.021747
outer loop
vertex 0.096881 -0.217730 0.026352
vertex 0.057398 -0.149304 0.023320
vertex 0.096952 -0.217689 0.022564
endloop
endfacet
facet normal -0.857207 -0.494213 -0.144742
outer loop
vertex 0.096952 -0.217689 0.022564
vertex 0.057398 -0.149304 0.023320
vertex 0.057887 -0.149022 0.019465
endloop
endfacet
facet normal -0.852776 -0.492948 -0.172554
outer loop
vertex 0.096952 -0.217689 0.022564
vertex 0.057887 -0.149022 0.019465
vertex 0.097518 -0.217362 0.018833
endloop
endfacet
facet normal -0.827291 -0.477020 -0.296717
outer loop
vertex 0.097518 -0.217362 0.018833
vertex 0.057887 -0.149022 0.019465
vertex 0.058888 -0.148444 0.015744
endloop
endfacet
facet normal -0.820441 -0.474196 -0.319396
outer loop
vertex 0.097518 -0.217362 0.018833
vertex 0.058888 -0.148444 0.015744
vertex 0.098566 -0.216757 0.015243
endloop
endfacet
facet normal -0.777287 -0.448235 -0.441487
outer loop
vertex 0.098566 -0.216757 0.015243
vertex 0.058888 -0.148444 0.015744
vertex 0.060378 -0.147584 0.012248
endloop
endfacet
facet normal -0.769267 -0.444562 -0.458903
outer loop
vertex 0.098566 -0.216757 0.015243
vertex 0.060378 -0.147584 0.012248
vertex 0.100072 -0.215888 0.011878
endloop
endfacet
facet normal -0.708403 -0.408558 -0.575540
outer loop
vertex 0.100072 -0.215888 0.011878
vertex 0.060378 -0.147584 0.012248
vertex 0.062320 -0.146463 0.009062
endloop
endfacet
facet normal -0.700427 -0.404721 -0.587881
outer loop
vertex 0.100072 -0.215888 0.011878
vertex 0.062320 -0.146463 0.009062
vertex 0.102000 -0.214774 0.008813
endloop
endfacet
facet normal -0.622317 -0.358956 -0.695609
outer loop
vertex 0.102000 -0.214774 0.008813
vertex 0.062320 -0.146463 0.009062
vertex 0.064667 -0.145107 0.006263
endloop
endfacet
facet normal -0.615510 -0.355591 -0.703351
outer loop
vertex 0.102000 -0.214774 0.008813
vertex 0.064667 -0.145107 0.006263
vertex 0.104308 -0.213442 0.006120
endloop
endfacet
facet normal -0.521115 -0.300633 -0.798786
outer loop
vertex 0.104308 -0.213442 0.006120
vertex 0.064667 -0.145107 0.006263
vertex 0.067362 -0.143551 0.003919
endloop
endfacet
facet normal -0.516457 -0.298293 -0.802679
outer loop
vertex 0.104308 -0.213442 0.006120
vertex 0.067362 -0.143551 0.003919
vertex 0.106941 -0.211922 0.003861
endloop
endfacet
facet normal 0.700714 0.404228 -0.587877
outer loop
vertex 0.136928 -0.194608 0.011878
vertex 0.135000 -0.195722 0.008813
vertex 0.095681 -0.127202 0.009062
endloop
endfacet
facet normal 0.622025 0.359466 -0.695607
outer loop
vertex 0.095681 -0.127202 0.009062
vertex 0.135000 -0.195722 0.008813
vertex 0.093333 -0.128557 0.006263
endloop
endfacet
facet normal 0.622171 0.359210 -0.695609
outer loop
vertex 0.095681 -0.127202 0.009062
vertex 0.093333 -0.128557 0.006263
vertex 0.053833 -0.060141 0.006263
endloop
endfacet
facet normal 0.521015 0.300808 -0.798786
outer loop
vertex 0.053833 -0.060141 0.006263
vertex 0.093333 -0.128557 0.006263
vertex 0.051138 -0.061697 0.003919
endloop
endfacet
facet normal 0.521015 0.300808 -0.798785
outer loop
vertex 0.053833 -0.060141 0.006263
vertex 0.051138 -0.061697 0.003919
vertex 0.011638 0.006719 0.003919
endloop
endfacet
facet normal 0.407207 0.235101 -0.882559
outer loop
vertex 0.011638 0.006719 0.003919
vertex 0.051138 -0.061697 0.003919
vertex -0.109840 0.210248 0.002087
endloop
endfacet
facet normal 0.615705 0.355251 -0.703352
outer loop
vertex 0.135000 -0.195722 0.008813
vertex 0.132692 -0.197054 0.006120
vertex 0.093333 -0.128557 0.006263
endloop
endfacet
facet normal 0.520914 0.300983 -0.798786
outer loop
vertex 0.093333 -0.128557 0.006263
vertex 0.132692 -0.197054 0.006120
vertex 0.090638 -0.130113 0.003919
endloop
endfacet
facet normal 0.521015 0.300808 -0.798786
outer loop
vertex 0.093333 -0.128557 0.006263
vertex 0.090638 -0.130113 0.003919
vertex 0.051138 -0.061697 0.003919
endloop
endfacet
facet normal 0.407204 0.235100 -0.882560
outer loop
vertex 0.051138 -0.061697 0.003919
vertex 0.090638 -0.130113 0.003919
vertex -0.109840 0.210248 0.002087
endloop
endfacet
facet normal 0.516558 0.298118 -0.802679
outer loop
vertex 0.132692 -0.197054 0.006120
vertex 0.130059 -0.198574 0.003861
vertex 0.090638 -0.130113 0.003919
endloop
endfacet
facet normal 0.414219 0.239255 -0.878169
outer loop
vertex 0.090638 -0.130113 0.003919
vertex 0.130059 -0.198574 0.003861
vertex -0.109840 0.210248 0.002087
endloop
endfacet
facet normal 0.405549 0.234144 -0.883576
outer loop
vertex 0.130059 -0.198574 0.003861
vertex 0.127160 -0.200248 0.002087
vertex -0.109840 0.210248 0.002087
endloop
endfacet
facet normal -0.700713 -0.404228 -0.587879
outer loop
vertex -0.136928 0.194608 0.011878
vertex -0.135000 0.195722 0.008813
vertex -0.095681 0.127202 0.009062
endloop
endfacet
facet normal -0.622025 -0.359466 -0.695607
outer loop
vertex -0.095681 0.127202 0.009062
vertex -0.135000 0.195722 0.008813
vertex -0.093333 0.128557 0.006263
endloop
endfacet
facet normal -0.622169 -0.359210 -0.695610
outer loop
vertex -0.095681 0.127202 0.009062
vertex -0.093333 0.128557 0.006263
vertex -0.053833 0.060141 0.006263
endloop
endfacet
facet normal -0.521015 -0.300808 -0.798785
outer loop
vertex -0.053833 0.060141 0.006263
vertex -0.093333 0.128557 0.006263
vertex -0.051138 0.061697 0.003919
endloop
endfacet
facet normal -0.521015 -0.300808 -0.798785
outer loop
vertex -0.053833 0.060141 0.006263
vertex -0.051138 0.061697 0.003919
vertex -0.011638 -0.006719 0.003919
endloop
endfacet
facet normal -0.407205 -0.235100 -0.882560
outer loop
vertex -0.011638 -0.006719 0.003919
vertex -0.051138 0.061697 0.003919
vertex 0.109840 -0.210248 0.002087
endloop
endfacet
facet normal -0.615705 -0.355251 -0.703352
outer loop
vertex -0.135000 0.195722 0.008813
vertex -0.132692 0.197054 0.006120
vertex -0.093333 0.128557 0.006263
endloop
endfacet
facet normal -0.520913 -0.300983 -0.798786
outer loop
vertex -0.093333 0.128557 0.006263
vertex -0.132692 0.197054 0.006120
vertex -0.090638 0.130113 0.003919
endloop
endfacet
facet normal -0.521015 -0.300808 -0.798785
outer loop
vertex -0.093333 0.128557 0.006263
vertex -0.090638 0.130113 0.003919
vertex -0.051138 0.061697 0.003919
endloop
endfacet
facet normal -0.407206 -0.235101 -0.882559
outer loop
vertex -0.051138 0.061697 0.003919
vertex -0.090638 0.130113 0.003919
vertex 0.109840 -0.210248 0.002087
endloop
endfacet
facet normal -0.516558 -0.298118 -0.802679
outer loop
vertex -0.132692 0.197054 0.006120
vertex -0.130059 0.198574 0.003861
vertex -0.090638 0.130113 0.003919
endloop
endfacet
facet normal -0.414220 -0.239255 -0.878168
outer loop
vertex -0.090638 0.130113 0.003919
vertex -0.130059 0.198574 0.003861
vertex 0.109840 -0.210248 0.002087
endloop
endfacet
facet normal -0.405549 -0.234144 -0.883576
outer loop
vertex -0.130059 0.198574 0.003861
vertex -0.127160 0.200248 0.002087
vertex 0.109840 -0.210248 0.002087
endloop
endfacet
facet normal -0.521016 -0.300809 -0.798785
outer loop
vertex 0.027862 -0.075135 0.003919
vertex 0.067362 -0.143551 0.003919
vertex 0.025167 -0.076691 0.006263
endloop
endfacet
facet normal -0.521014 -0.300808 -0.798786
outer loop
vertex 0.025167 -0.076691 0.006263
vertex 0.067362 -0.143551 0.003919
vertex 0.064667 -0.145107 0.006263
endloop
endfacet
facet normal -0.622171 -0.359210 -0.695609
outer loop
vertex 0.025167 -0.076691 0.006263
vertex 0.064667 -0.145107 0.006263
vertex 0.022820 -0.078046 0.009062
endloop
endfacet
facet normal -0.622170 -0.359210 -0.695610
outer loop
vertex 0.022820 -0.078046 0.009062
vertex 0.064667 -0.145107 0.006263
vertex 0.062320 -0.146463 0.009062
endloop
endfacet
facet normal -0.708212 -0.408886 -0.575541
outer loop
vertex 0.022820 -0.078046 0.009062
vertex 0.062320 -0.146463 0.009062
vertex 0.020878 -0.079168 0.012248
endloop
endfacet
facet normal -0.708213 -0.408887 -0.575539
outer loop
vertex 0.020878 -0.079168 0.012248
vertex 0.062320 -0.146463 0.009062
vertex 0.060378 -0.147584 0.012248
endloop
endfacet
facet normal -0.777055 -0.448633 -0.441491
outer loop
vertex 0.020878 -0.079168 0.012248
vertex 0.060378 -0.147584 0.012248
vertex 0.019388 -0.080028 0.015744
endloop
endfacet
facet normal -0.777055 -0.448633 -0.441490
outer loop
vertex 0.019388 -0.080028 0.015744
vertex 0.060378 -0.147584 0.012248
vertex 0.058888 -0.148444 0.015744
endloop
endfacet
facet normal -0.827024 -0.477482 -0.296720
outer loop
vertex 0.019388 -0.080028 0.015744
vertex 0.058888 -0.148444 0.015744
vertex 0.018387 -0.080606 0.019465
endloop
endfacet
facet normal -0.827024 -0.477483 -0.296720
outer loop
vertex 0.018387 -0.080606 0.019465
vertex 0.058888 -0.148444 0.015744
vertex 0.057887 -0.149022 0.019465
endloop
endfacet
facet normal -0.856905 -0.494735 -0.144744
outer loop
vertex 0.018387 -0.080606 0.019465
vertex 0.057887 -0.149022 0.019465
vertex 0.017898 -0.080888 0.023320
endloop
endfacet
facet normal -0.856906 -0.494735 -0.144737
outer loop
vertex 0.017898 -0.080888 0.023320
vertex 0.057887 -0.149022 0.019465
vertex 0.057398 -0.149304 0.023320
endloop
endfacet
facet normal -0.865975 -0.499971 0.010751
outer loop
vertex 0.017898 -0.080888 0.023320
vertex 0.057398 -0.149304 0.023320
vertex 0.017935 -0.080867 0.027216
endloop
endfacet
facet normal -0.865975 -0.499971 0.010753
outer loop
vertex 0.017935 -0.080867 0.027216
vertex 0.057398 -0.149304 0.023320
vertex 0.057435 -0.149283 0.027216
endloop
endfacet
facet normal -0.854012 -0.493064 0.165988
outer loop
vertex 0.017935 -0.080867 0.027216
vertex 0.057435 -0.149283 0.027216
vertex 0.018495 -0.080543 0.031058
endloop
endfacet
facet normal -0.854012 -0.493065 0.165985
outer loop
vertex 0.018495 -0.080543 0.031058
vertex 0.057435 -0.149283 0.027216
vertex 0.057995 -0.148959 0.031058
endloop
endfacet
facet normal -0.821307 -0.474181 0.317186
outer loop
vertex 0.018495 -0.080543 0.031058
vertex 0.057995 -0.148959 0.031058
vertex 0.019565 -0.079926 0.034753
endloop
endfacet
facet normal -0.821306 -0.474182 0.317189
outer loop
vertex 0.019565 -0.079926 0.034753
vertex 0.057995 -0.148959 0.031058
vertex 0.059065 -0.148342 0.034753
endloop
endfacet
facet normal -0.768652 -0.443782 0.460686
outer loop
vertex 0.019565 -0.079926 0.034753
vertex 0.059065 -0.148342 0.034753
vertex 0.021119 -0.079028 0.038211
endloop
endfacet
facet normal -0.768654 -0.443782 0.460683
outer loop
vertex 0.021119 -0.079028 0.038211
vertex 0.059065 -0.148342 0.034753
vertex 0.060619 -0.147444 0.038211
endloop
endfacet
facet normal -0.697330 -0.402604 0.592992
outer loop
vertex 0.021119 -0.079028 0.038211
vertex 0.060619 -0.147444 0.038211
vertex 0.023120 -0.077873 0.041348
endloop
endfacet
facet normal -0.697331 -0.402604 0.592992
outer loop
vertex 0.023120 -0.077873 0.041348
vertex 0.060619 -0.147444 0.038211
vertex 0.062620 -0.146289 0.041348
endloop
endfacet
facet normal -0.609071 -0.351648 0.710898
outer loop
vertex 0.023120 -0.077873 0.041348
vertex 0.062620 -0.146289 0.041348
vertex 0.025519 -0.076488 0.044088
endloop
endfacet
facet normal -0.609072 -0.351647 0.710898
outer loop
vertex 0.025519 -0.076488 0.044088
vertex 0.062620 -0.146289 0.041348
vertex 0.065019 -0.144904 0.044088
endloop
endfacet
facet normal -0.506018 -0.292150 0.811538
outer loop
vertex 0.025519 -0.076488 0.044088
vertex 0.065019 -0.144904 0.044088
vertex 0.028257 -0.074907 0.046365
endloop
endfacet
facet normal -0.506018 -0.292149 0.811538
outer loop
vertex 0.028257 -0.074907 0.046365
vertex 0.065019 -0.144904 0.044088
vertex 0.067757 -0.143323 0.046365
endloop
endfacet
facet normal -0.390677 -0.225557 0.892466
outer loop
vertex 0.028257 -0.074907 0.046365
vertex 0.067757 -0.143323 0.046365
vertex 0.031268 -0.073168 0.048123
endloop
endfacet
facet normal -0.390677 -0.225557 0.892466
outer loop
vertex 0.031268 -0.073168 0.048123
vertex 0.067757 -0.143323 0.046365
vertex 0.070768 -0.141585 0.048123
endloop
endfacet
facet normal -0.265843 -0.153486 0.951719
outer loop
vertex 0.031268 -0.073168 0.048123
vertex 0.070768 -0.141585 0.048123
vertex 0.034480 -0.071314 0.049319
endloop
endfacet
facet normal -0.265845 -0.153485 0.951719
outer loop
vertex 0.034480 -0.071314 0.049319
vertex 0.070768 -0.141585 0.048123
vertex 0.073980 -0.139730 0.049319
endloop
endfacet
facet normal -0.134556 -0.077686 0.987856
outer loop
vertex 0.034480 -0.071314 0.049319
vertex 0.073980 -0.139730 0.049319
vertex 0.037813 -0.069390 0.049924
endloop
endfacet
facet normal -0.134556 -0.077686 0.987856
outer loop
vertex 0.037813 -0.069390 0.049924
vertex 0.073980 -0.139730 0.049319
vertex 0.077313 -0.137806 0.049924
endloop
endfacet
facet normal 0.000002 0.000000 1.000000
outer loop
vertex 0.037813 -0.069390 0.049924
vertex 0.077313 -0.137806 0.049924
vertex 0.041187 -0.067442 0.049924
endloop
endfacet
facet normal 0.000000 0.000000 1.000000
outer loop
vertex 0.041187 -0.067442 0.049924
vertex 0.077313 -0.137806 0.049924
vertex 0.080687 -0.135858 0.049924
endloop
endfacet
facet normal 0.134555 0.077686 0.987856
outer loop
vertex 0.041187 -0.067442 0.049924
vertex 0.080687 -0.135858 0.049924
vertex 0.044520 -0.065518 0.049319
endloop
endfacet
facet normal 0.134556 0.077686 0.987856
outer loop
vertex 0.044520 -0.065518 0.049319
vertex 0.080687 -0.135858 0.049924
vertex 0.084020 -0.133934 0.049319
endloop
endfacet
facet normal 0.265847 0.153486 0.951718
outer loop
vertex 0.044520 -0.065518 0.049319
vertex 0.084020 -0.133934 0.049319
vertex 0.047732 -0.063664 0.048123
endloop
endfacet
facet normal 0.265845 0.153485 0.951719
outer loop
vertex 0.047732 -0.063664 0.048123
vertex 0.084020 -0.133934 0.049319
vertex 0.087232 -0.132080 0.048123
endloop
endfacet
facet normal 0.390676 0.225557 0.892467
outer loop
vertex 0.047732 -0.063664 0.048123
vertex 0.087232 -0.132080 0.048123
vertex 0.050743 -0.061925 0.046365
endloop
endfacet
facet normal 0.390676 0.225557 0.892466
outer loop
vertex 0.050743 -0.061925 0.046365
vertex 0.087232 -0.132080 0.048123
vertex 0.090243 -0.130341 0.046365
endloop
endfacet
facet normal 0.506018 0.292149 0.811539
outer loop
vertex 0.050743 -0.061925 0.046365
vertex 0.090243 -0.130341 0.046365
vertex 0.053481 -0.060344 0.044088
endloop
endfacet
facet normal 0.506018 0.292150 0.811538
outer loop
vertex 0.053481 -0.060344 0.044088
vertex 0.090243 -0.130341 0.046365
vertex 0.092981 -0.128760 0.044088
endloop
endfacet
facet normal 0.609073 0.351648 0.710897
outer loop
vertex 0.053481 -0.060344 0.044088
vertex 0.092981 -0.128760 0.044088
vertex 0.055880 -0.058959 0.041348
endloop
endfacet
facet normal 0.609071 0.351648 0.710898
outer loop
vertex 0.055880 -0.058959 0.041348
vertex 0.092981 -0.128760 0.044088
vertex 0.095380 -0.127375 0.041348
endloop
endfacet
facet normal 0.697331 0.402603 0.592993
outer loop
vertex 0.055880 -0.058959 0.041348
vertex 0.095380 -0.127375 0.041348
vertex 0.057881 -0.057804 0.038211
endloop
endfacet
facet normal 0.697330 0.402604 0.592993
outer loop
vertex 0.057881 -0.057804 0.038211
vertex 0.095380 -0.127375 0.041348
vertex 0.097381 -0.126220 0.038211
endloop
endfacet
facet normal 0.768654 0.443781 0.460685
outer loop
vertex 0.057881 -0.057804 0.038211
vertex 0.097381 -0.126220 0.038211
vertex 0.059435 -0.056906 0.034753
endloop
endfacet
facet normal 0.768653 0.443783 0.460684
outer loop
vertex 0.059435 -0.056906 0.034753
vertex 0.097381 -0.126220 0.038211
vertex 0.098935 -0.125322 0.034753
endloop
endfacet
facet normal 0.821306 0.474182 0.317188
outer loop
vertex 0.059435 -0.056906 0.034753
vertex 0.098935 -0.125322 0.034753
vertex 0.060505 -0.056289 0.031058
endloop
endfacet
facet normal 0.821307 0.474181 0.317187
outer loop
vertex 0.060505 -0.056289 0.031058
vertex 0.098935 -0.125322 0.034753
vertex 0.100005 -0.124705 0.031058
endloop
endfacet
facet normal 0.854011 0.493065 0.165987
outer loop
vertex 0.060505 -0.056289 0.031058
vertex 0.100005 -0.124705 0.031058
vertex 0.061065 -0.055965 0.027216
endloop
endfacet
facet normal 0.854012 0.493064 0.165984
outer loop
vertex 0.061065 -0.055965 0.027216
vertex 0.100005 -0.124705 0.031058
vertex 0.100565 -0.124381 0.027216
endloop
endfacet
facet normal 0.865975 0.499971 0.010752
outer loop
vertex 0.061065 -0.055965 0.027216
vertex 0.100565 -0.124381 0.027216
vertex 0.061102 -0.055944 0.023320
endloop
endfacet
facet normal 0.865976 0.499971 0.010752
outer loop
vertex 0.061102 -0.055944 0.023320
vertex 0.100565 -0.124381 0.027216
vertex 0.100602 -0.124360 0.023320
endloop
endfacet
facet normal 0.856906 0.494736 -0.144738
outer loop
vertex 0.061102 -0.055944 0.023320
vertex 0.100602 -0.124360 0.023320
vertex 0.060613 -0.056226 0.019465
endloop
endfacet
facet normal 0.856906 0.494734 -0.144744
outer loop
vertex 0.060613 -0.056226 0.019465
vertex 0.100602 -0.124360 0.023320
vertex 0.100113 -0.124642 0.019465
endloop
endfacet
facet normal 0.827023 0.477483 -0.296720
outer loop
vertex 0.060613 -0.056226 0.019465
vertex 0.100113 -0.124642 0.019465
vertex 0.059612 -0.056804 0.015744
endloop
endfacet
facet normal 0.827024 0.477482 -0.296719
outer loop
vertex 0.059612 -0.056804 0.015744
vertex 0.100113 -0.124642 0.019465
vertex 0.099112 -0.125220 0.015744
endloop
endfacet
facet normal 0.777056 0.448633 -0.441490
outer loop
vertex 0.059612 -0.056804 0.015744
vertex 0.099112 -0.125220 0.015744
vertex 0.058122 -0.057664 0.012248
endloop
endfacet
facet normal 0.777054 0.448633 -0.441492
outer loop
vertex 0.058122 -0.057664 0.012248
vertex 0.099112 -0.125220 0.015744
vertex 0.097622 -0.126080 0.012248
endloop
endfacet
facet normal 0.708213 0.408886 -0.575540
outer loop
vertex 0.058122 -0.057664 0.012248
vertex 0.097622 -0.126080 0.012248
vertex 0.056180 -0.058786 0.009062
endloop
endfacet
facet normal -0.521015 -0.300808 -0.798785
outer loop
vertex 0.027862 -0.075135 0.003919
vertex 0.025167 -0.076691 0.006263
vertex -0.014333 -0.008275 0.006263
endloop
endfacet
facet normal -0.622169 -0.359210 -0.695610
outer loop
vertex -0.014333 -0.008275 0.006263
vertex 0.025167 -0.076691 0.006263
vertex -0.016680 -0.009630 0.009062
endloop
endfacet
facet normal -0.622170 -0.359210 -0.695610
outer loop
vertex -0.014333 -0.008275 0.006263
vertex -0.016680 -0.009630 0.009062
vertex -0.056180 0.058786 0.009062
endloop
endfacet
facet normal -0.708213 -0.408887 -0.575540
outer loop
vertex -0.056180 0.058786 0.009062
vertex -0.016680 -0.009630 0.009062
vertex -0.058122 0.057664 0.012248
endloop
endfacet
facet normal -0.708213 -0.408886 -0.575540
outer loop
vertex -0.056180 0.058786 0.009062
vertex -0.058122 0.057664 0.012248
vertex -0.097622 0.126080 0.012248
endloop
endfacet
facet normal -0.777054 -0.448633 -0.441493
outer loop
vertex -0.097622 0.126080 0.012248
vertex -0.058122 0.057664 0.012248
vertex -0.099112 0.125220 0.015744
endloop
endfacet
facet normal -0.622170 -0.359210 -0.695610
outer loop
vertex -0.016680 -0.009630 0.009062
vertex 0.025167 -0.076691 0.006263
vertex 0.022820 -0.078046 0.009062
endloop
endfacet
facet normal -0.708213 -0.408887 -0.575540
outer loop
vertex -0.016680 -0.009630 0.009062
vertex 0.022820 -0.078046 0.009062
vertex -0.018622 -0.010752 0.012248
endloop
endfacet
facet normal -0.708213 -0.408887 -0.575540
outer loop
vertex -0.018622 -0.010752 0.012248
vertex 0.022820 -0.078046 0.009062
vertex 0.020878 -0.079168 0.012248
endloop
endfacet
facet normal -0.777055 -0.448633 -0.441491
outer loop
vertex -0.018622 -0.010752 0.012248
vertex 0.020878 -0.079168 0.012248
vertex -0.020112 -0.011612 0.015744
endloop
endfacet
facet normal -0.777055 -0.448633 -0.441491
outer loop
vertex -0.020112 -0.011612 0.015744
vertex 0.020878 -0.079168 0.012248
vertex 0.019388 -0.080028 0.015744
endloop
endfacet
facet normal -0.827024 -0.477482 -0.296720
outer loop
vertex -0.020112 -0.011612 0.015744
vertex 0.019388 -0.080028 0.015744
vertex -0.021113 -0.012190 0.019465
endloop
endfacet
facet normal -0.827024 -0.477482 -0.296719
outer loop
vertex -0.021113 -0.012190 0.019465
vertex 0.019388 -0.080028 0.015744
vertex 0.018387 -0.080606 0.019465
endloop
endfacet
facet normal -0.856906 -0.494735 -0.144741
outer loop
vertex -0.021113 -0.012190 0.019465
vertex 0.018387 -0.080606 0.019465
vertex -0.021602 -0.012472 0.023320
endloop
endfacet
facet normal -0.856906 -0.494734 -0.144741
outer loop
vertex -0.021602 -0.012472 0.023320
vertex 0.018387 -0.080606 0.019465
vertex 0.017898 -0.080888 0.023320
endloop
endfacet
facet normal -0.865975 -0.499972 0.010752
outer loop
vertex -0.021602 -0.012472 0.023320
vertex 0.017898 -0.080888 0.023320
vertex -0.021565 -0.012451 0.027216
endloop
endfacet
facet normal -0.865975 -0.499971 0.010752
outer loop
vertex -0.021565 -0.012451 0.027216
vertex 0.017898 -0.080888 0.023320
vertex 0.017935 -0.080867 0.027216
endloop
endfacet
facet normal -0.854012 -0.493064 0.165986
outer loop
vertex -0.021565 -0.012451 0.027216
vertex 0.017935 -0.080867 0.027216
vertex -0.021005 -0.012127 0.031058
endloop
endfacet
facet normal -0.854012 -0.493064 0.165986
outer loop
vertex -0.021005 -0.012127 0.031058
vertex 0.017935 -0.080867 0.027216
vertex 0.018495 -0.080543 0.031058
endloop
endfacet
facet normal -0.821307 -0.474181 0.317186
outer loop
vertex -0.021005 -0.012127 0.031058
vertex 0.018495 -0.080543 0.031058
vertex -0.019935 -0.011510 0.034753
endloop
endfacet
facet normal -0.821306 -0.474182 0.317188
outer loop
vertex -0.019935 -0.011510 0.034753
vertex 0.018495 -0.080543 0.031058
vertex 0.019565 -0.079926 0.034753
endloop
endfacet
facet normal -0.768653 -0.443783 0.460684
outer loop
vertex -0.019935 -0.011510 0.034753
vertex 0.019565 -0.079926 0.034753
vertex -0.018381 -0.010612 0.038211
endloop
endfacet
facet normal -0.768653 -0.443782 0.460685
outer loop
vertex -0.018381 -0.010612 0.038211
vertex 0.019565 -0.079926 0.034753
vertex 0.021119 -0.079028 0.038211
endloop
endfacet
facet normal -0.697330 -0.402604 0.592993
outer loop
vertex -0.018381 -0.010612 0.038211
vertex 0.021119 -0.079028 0.038211
vertex -0.016380 -0.009457 0.041348
endloop
endfacet
facet normal -0.697331 -0.402603 0.592992
outer loop
vertex -0.016380 -0.009457 0.041348
vertex 0.021119 -0.079028 0.038211
vertex 0.023120 -0.077873 0.041348
endloop
endfacet
facet normal -0.609071 -0.351648 0.710898
outer loop
vertex -0.016380 -0.009457 0.041348
vertex 0.023120 -0.077873 0.041348
vertex -0.013981 -0.008072 0.044088
endloop
endfacet
facet normal -0.609071 -0.351648 0.710898
outer loop
vertex -0.013981 -0.008072 0.044088
vertex 0.023120 -0.077873 0.041348
vertex 0.025519 -0.076488 0.044088
endloop
endfacet
facet normal -0.506019 -0.292150 0.811537
outer loop
vertex -0.013981 -0.008072 0.044088
vertex 0.025519 -0.076488 0.044088
vertex -0.011243 -0.006491 0.046365
endloop
endfacet
facet normal -0.506019 -0.292150 0.811538
outer loop
vertex -0.011243 -0.006491 0.046365
vertex 0.025519 -0.076488 0.044088
vertex 0.028257 -0.074907 0.046365
endloop
endfacet
facet normal -0.390675 -0.225557 0.892467
outer loop
vertex -0.011243 -0.006491 0.046365
vertex 0.028257 -0.074907 0.046365
vertex -0.008232 -0.004752 0.048123
endloop
endfacet
facet normal -0.390678 -0.225557 0.892466
outer loop
vertex -0.008232 -0.004752 0.048123
vertex 0.028257 -0.074907 0.046365
vertex 0.031268 -0.073168 0.048123
endloop
endfacet
facet normal -0.265842 -0.153486 0.951720
outer loop
vertex -0.008232 -0.004752 0.048123
vertex 0.031268 -0.073168 0.048123
vertex -0.005020 -0.002898 0.049319
endloop
endfacet
facet normal -0.265847 -0.153486 0.951718
outer loop
vertex -0.005020 -0.002898 0.049319
vertex 0.031268 -0.073168 0.048123
vertex 0.034480 -0.071314 0.049319
endloop
endfacet
facet normal -0.134556 -0.077686 0.987856
outer loop
vertex -0.005020 -0.002898 0.049319
vertex 0.034480 -0.071314 0.049319
vertex -0.001687 -0.000974 0.049924
endloop
endfacet
facet normal -0.134556 -0.077686 0.987856
outer loop
vertex -0.001687 -0.000974 0.049924
vertex 0.034480 -0.071314 0.049319
vertex 0.037813 -0.069390 0.049924
endloop
endfacet
facet normal 0.000000 0.000000 1.000000
outer loop
vertex -0.001687 -0.000974 0.049924
vertex 0.037813 -0.069390 0.049924
vertex 0.001687 0.000974 0.049924
endloop
endfacet
facet normal 0.000001 0.000000 1.000000
outer loop
vertex 0.001687 0.000974 0.049924
vertex 0.037813 -0.069390 0.049924
vertex 0.041187 -0.067442 0.049924
endloop
endfacet
facet normal 0.134555 0.077686 0.987856
outer loop
vertex 0.001687 0.000974 0.049924
vertex 0.041187 -0.067442 0.049924
vertex 0.005020 0.002898 0.049319
endloop
endfacet
facet normal 0.134554 0.077686 0.987856
outer loop
vertex 0.005020 0.002898 0.049319
vertex 0.041187 -0.067442 0.049924
vertex 0.044520 -0.065518 0.049319
endloop
endfacet
facet normal 0.265849 0.153485 0.951718
outer loop
vertex 0.005020 0.002898 0.049319
vertex 0.044520 -0.065518 0.049319
vertex 0.008232 0.004752 0.048123
endloop
endfacet
facet normal 0.265844 0.153486 0.951719
outer loop
vertex 0.008232 0.004752 0.048123
vertex 0.044520 -0.065518 0.049319
vertex 0.047732 -0.063664 0.048123
endloop
endfacet
facet normal 0.390677 0.225557 0.892466
outer loop
vertex 0.008232 0.004752 0.048123
vertex 0.047732 -0.063664 0.048123
vertex 0.011243 0.006491 0.046365
endloop
endfacet
facet normal 0.390675 0.225557 0.892467
outer loop
vertex 0.011243 0.006491 0.046365
vertex 0.047732 -0.063664 0.048123
vertex 0.050743 -0.061925 0.046365
endloop
endfacet
facet normal 0.506019 0.292150 0.811537
outer loop
vertex 0.011243 0.006491 0.046365
vertex 0.050743 -0.061925 0.046365
vertex 0.013981 0.008072 0.044088
endloop
endfacet
facet normal 0.506018 0.292150 0.811538
outer loop
vertex 0.013981 0.008072 0.044088
vertex 0.050743 -0.061925 0.046365
vertex 0.053481 -0.060344 0.044088
endloop
endfacet
facet normal 0.609072 0.351648 0.710898
outer loop
vertex 0.013981 0.008072 0.044088
vertex 0.053481 -0.060344 0.044088
vertex 0.016380 0.009457 0.041348
endloop
endfacet
facet normal 0.609071 0.351648 0.710898
outer loop
vertex 0.016380 0.009457 0.041348
vertex 0.053481 -0.060344 0.044088
vertex 0.055880 -0.058959 0.041348
endloop
endfacet
facet normal 0.697331 0.402604 0.592992
outer loop
vertex 0.016380 0.009457 0.041348
vertex 0.055880 -0.058959 0.041348
vertex 0.018381 0.010612 0.038211
endloop
endfacet
facet normal 0.697330 0.402604 0.592994
outer loop
vertex 0.018381 0.010612 0.038211
vertex 0.055880 -0.058959 0.041348
vertex 0.057881 -0.057804 0.038211
endloop
endfacet
facet normal 0.768653 0.443782 0.460684
outer loop
vertex 0.018381 0.010612 0.038211
vertex 0.057881 -0.057804 0.038211
vertex 0.019935 0.011510 0.034753
endloop
endfacet
facet normal 0.768653 0.443782 0.460684
outer loop
vertex 0.019935 0.011510 0.034753
vertex 0.057881 -0.057804 0.038211
vertex 0.059435 -0.056906 0.034753
endloop
endfacet
facet normal 0.821306 0.474182 0.317188
outer loop
vertex 0.019935 0.011510 0.034753
vertex 0.059435 -0.056906 0.034753
vertex 0.021005 0.012127 0.031058
endloop
endfacet
facet normal 0.821308 0.474181 0.317185
outer loop
vertex 0.021005 0.012127 0.031058
vertex 0.059435 -0.056906 0.034753
vertex 0.060505 -0.056289 0.031058
endloop
endfacet
facet normal 0.854012 0.493065 0.165986
outer loop
vertex 0.021005 0.012127 0.031058
vertex 0.060505 -0.056289 0.031058
vertex 0.021565 0.012451 0.027216
endloop
endfacet
facet normal 0.854012 0.493064 0.165987
outer loop
vertex 0.021565 0.012451 0.027216
vertex 0.060505 -0.056289 0.031058
vertex 0.061065 -0.055965 0.027216
endloop
endfacet
facet normal 0.865975 0.499971 0.010753
outer loop
vertex 0.021565 0.012451 0.027216
vertex 0.061065 -0.055965 0.027216
vertex 0.021602 0.012472 0.023320
endloop
endfacet
facet normal 0.865975 0.499971 0.010752
outer loop
vertex 0.021602 0.012472 0.023320
vertex 0.061065 -0.055965 0.027216
vertex 0.061102 -0.055944 0.023320
endloop
endfacet
facet normal 0.856906 0.494735 -0.144741
outer loop
vertex 0.021602 0.012472 0.023320
vertex 0.061102 -0.055944 0.023320
vertex 0.021113 0.012190 0.019465
endloop
endfacet
facet normal 0.856906 0.494735 -0.144740
outer loop
vertex 0.021113 0.012190 0.019465
vertex 0.061102 -0.055944 0.023320
vertex 0.060613 -0.056226 0.019465
endloop
endfacet
facet normal 0.827023 0.477483 -0.296720
outer loop
vertex 0.021113 0.012190 0.019465
vertex 0.060613 -0.056226 0.019465
vertex 0.020112 0.011612 0.015744
endloop
endfacet
facet normal 0.827024 0.477482 -0.296720
outer loop
vertex 0.020112 0.011612 0.015744
vertex 0.060613 -0.056226 0.019465
vertex 0.059612 -0.056804 0.015744
endloop
endfacet
facet normal 0.777055 0.448633 -0.441491
outer loop
vertex 0.020112 0.011612 0.015744
vertex 0.059612 -0.056804 0.015744
vertex 0.018622 0.010752 0.012248
endloop
endfacet
facet normal 0.777055 0.448633 -0.441491
outer loop
vertex 0.018622 0.010752 0.012248
vertex 0.059612 -0.056804 0.015744
vertex 0.058122 -0.057664 0.012248
endloop
endfacet
facet normal 0.708212 0.408887 -0.575540
outer loop
vertex 0.018622 0.010752 0.012248
vertex 0.058122 -0.057664 0.012248
vertex 0.016680 0.009631 0.009062
endloop
endfacet
facet normal 0.708213 0.408887 -0.575540
outer loop
vertex 0.016680 0.009631 0.009062
vertex 0.058122 -0.057664 0.012248
vertex 0.056180 -0.058786 0.009062
endloop
endfacet
facet normal 0.622169 0.359210 -0.695610
outer loop
vertex 0.016680 0.009631 0.009062
vertex 0.056180 -0.058786 0.009062
vertex 0.014333 0.008275 0.006263
endloop
endfacet
facet normal -0.708213 -0.408887 -0.575540
outer loop
vertex -0.016680 -0.009630 0.009062
vertex -0.018622 -0.010752 0.012248
vertex -0.058122 0.057664 0.012248
endloop
endfacet
facet normal -0.777055 -0.448633 -0.441491
outer loop
vertex -0.058122 0.057664 0.012248
vertex -0.018622 -0.010752 0.012248
vertex -0.059612 0.056804 0.015744
endloop
endfacet
facet normal -0.777055 -0.448633 -0.441490
outer loop
vertex -0.058122 0.057664 0.012248
vertex -0.059612 0.056804 0.015744
vertex -0.099112 0.125220 0.015744
endloop
endfacet
facet normal -0.827024 -0.477483 -0.296718
outer loop
vertex -0.099112 0.125220 0.015744
vertex -0.059612 0.056804 0.015744
vertex -0.100113 0.124642 0.019465
endloop
endfacet
facet normal -0.777055 -0.448633 -0.441491
outer loop
vertex -0.059612 0.056804 0.015744
vertex -0.018622 -0.010752 0.012248
vertex -0.020112 -0.011612 0.015744
endloop
endfacet
facet normal -0.827024 -0.477482 -0.296720
outer loop
vertex -0.059612 0.056804 0.015744
vertex -0.020112 -0.011612 0.015744
vertex -0.060613 0.056226 0.019465
endloop
endfacet
facet normal -0.827024 -0.477482 -0.296719
outer loop
vertex -0.060613 0.056226 0.019465
vertex -0.020112 -0.011612 0.015744
vertex -0.021113 -0.012190 0.019465
endloop
endfacet
facet normal -0.856906 -0.494735 -0.144741
outer loop
vertex -0.060613 0.056226 0.019465
vertex -0.021113 -0.012190 0.019465
vertex -0.061102 0.055944 0.023320
endloop
endfacet
facet normal -0.856906 -0.494734 -0.144741
outer loop
vertex -0.061102 0.055944 0.023320
vertex -0.021113 -0.012190 0.019465
vertex -0.021602 -0.012472 0.023320
endloop
endfacet
facet normal -0.865975 -0.499972 0.010752
outer loop
vertex -0.061102 0.055944 0.023320
vertex -0.021602 -0.012472 0.023320
vertex -0.061065 0.055965 0.027216
endloop
endfacet
facet normal -0.865976 -0.499971 0.010753
outer loop
vertex -0.061065 0.055965 0.027216
vertex -0.021602 -0.012472 0.023320
vertex -0.021565 -0.012451 0.027216
endloop
endfacet
facet normal -0.854012 -0.493064 0.165987
outer loop
vertex -0.061065 0.055965 0.027216
vertex -0.021565 -0.012451 0.027216
vertex -0.060505 0.056289 0.031058
endloop
endfacet
facet normal -0.854012 -0.493065 0.165985
outer loop
vertex -0.060505 0.056289 0.031058
vertex -0.021565 -0.012451 0.027216
vertex -0.021005 -0.012127 0.031058
endloop
endfacet
facet normal -0.821308 -0.474181 0.317185
outer loop
vertex -0.060505 0.056289 0.031058
vertex -0.021005 -0.012127 0.031058
vertex -0.059435 0.056906 0.034753
endloop
endfacet
facet normal -0.821306 -0.474182 0.317188
outer loop
vertex -0.059435 0.056906 0.034753
vertex -0.021005 -0.012127 0.031058
vertex -0.019935 -0.011510 0.034753
endloop
endfacet
facet normal -0.768653 -0.443782 0.460685
outer loop
vertex -0.059435 0.056906 0.034753
vertex -0.019935 -0.011510 0.034753
vertex -0.057881 0.057804 0.038211
endloop
endfacet
facet normal -0.768653 -0.443782 0.460684
outer loop
vertex -0.057881 0.057804 0.038211
vertex -0.019935 -0.011510 0.034753
vertex -0.018381 -0.010612 0.038211
endloop
endfacet
facet normal -0.697329 -0.402604 0.592994
outer loop
vertex -0.057881 0.057804 0.038211
vertex -0.018381 -0.010612 0.038211
vertex -0.055880 0.058959 0.041348
endloop
endfacet
facet normal -0.697331 -0.402603 0.592993
outer loop
vertex -0.055880 0.058959 0.041348
vertex -0.018381 -0.010612 0.038211
vertex -0.016380 -0.009457 0.041348
endloop
endfacet
facet normal -0.609071 -0.351648 0.710898
outer loop
vertex -0.055880 0.058959 0.041348
vertex -0.016380 -0.009457 0.041348
vertex -0.053481 0.060344 0.044088
endloop
endfacet
facet normal -0.609071 -0.351648 0.710898
outer loop
vertex -0.053481 0.060344 0.044088
vertex -0.016380 -0.009457 0.041348
vertex -0.013981 -0.008072 0.044088
endloop
endfacet
facet normal -0.506019 -0.292150 0.811538
outer loop
vertex -0.053481 0.060344 0.044088
vertex -0.013981 -0.008072 0.044088
vertex -0.050743 0.061925 0.046365
endloop
endfacet
facet normal -0.506019 -0.292150 0.811537
outer loop
vertex -0.050743 0.061925 0.046365
vertex -0.013981 -0.008072 0.044088
vertex -0.011243 -0.006491 0.046365
endloop
endfacet
facet normal -0.390675 -0.225557 0.892467
outer loop
vertex -0.050743 0.061925 0.046365
vertex -0.011243 -0.006491 0.046365
vertex -0.047732 0.063664 0.048123
endloop
endfacet
facet normal -0.390678 -0.225557 0.892466
outer loop
vertex -0.047732 0.063664 0.048123
vertex -0.011243 -0.006491 0.046365
vertex -0.008232 -0.004752 0.048123
endloop
endfacet
facet normal -0.265843 -0.153486 0.951719
outer loop
vertex -0.047732 0.063664 0.048123
vertex -0.008232 -0.004752 0.048123
vertex -0.044520 0.065518 0.049319
endloop
endfacet
facet normal -0.265848 -0.153486 0.951718
outer loop
vertex -0.044520 0.065518 0.049319
vertex -0.008232 -0.004752 0.048123
vertex -0.005020 -0.002898 0.049319
endloop
endfacet
facet normal -0.134555 -0.077686 0.987856
outer loop
vertex -0.044520 0.065518 0.049319
vertex -0.005020 -0.002898 0.049319
vertex -0.041187 0.067442 0.049924
endloop
endfacet
facet normal -0.134555 -0.077686 0.987856
outer loop
vertex -0.041187 0.067442 0.049924
vertex -0.005020 -0.002898 0.049319
vertex -0.001687 -0.000974 0.049924
endloop
endfacet
facet normal 0.000000 0.000000 1.000000
outer loop
vertex -0.041187 0.067442 0.049924
vertex -0.001687 -0.000974 0.049924
vertex -0.037813 0.069390 0.049924
endloop
endfacet
facet normal -0.000001 0.000000 1.000000
outer loop
vertex -0.037813 0.069390 0.049924
vertex -0.001687 -0.000974 0.049924
vertex 0.001687 0.000974 0.049924
endloop
endfacet
facet normal 0.134556 0.077686 0.987856
outer loop
vertex -0.037813 0.069390 0.049924
vertex 0.001687 0.000974 0.049924
vertex -0.034480 0.071314 0.049319
endloop
endfacet
facet normal 0.134556 0.077686 0.987856
outer loop
vertex -0.034480 0.071314 0.049319
vertex 0.001687 0.000974 0.049924
vertex 0.005020 0.002898 0.049319
endloop
endfacet
facet normal 0.265848 0.153486 0.951718
outer loop
vertex -0.034480 0.071314 0.049319
vertex 0.005020 0.002898 0.049319
vertex -0.031268 0.073169 0.048123
endloop
endfacet
facet normal 0.265842 0.153486 0.951719
outer loop
vertex -0.031268 0.073169 0.048123
vertex 0.005020 0.002898 0.049319
vertex 0.008232 0.004752 0.048123
endloop
endfacet
facet normal 0.390677 0.225557 0.892466
outer loop
vertex -0.031268 0.073169 0.048123
vertex 0.008232 0.004752 0.048123
vertex -0.028257 0.074907 0.046365
endloop
endfacet
facet normal 0.390675 0.225557 0.892467
outer loop
vertex -0.028257 0.074907 0.046365
vertex 0.008232 0.004752 0.048123
vertex 0.011243 0.006491 0.046365
endloop
endfacet
facet normal 0.506019 0.292150 0.811538
outer loop
vertex -0.028257 0.074907 0.046365
vertex 0.011243 0.006491 0.046365
vertex -0.025519 0.076488 0.044088
endloop
endfacet
facet normal 0.506019 0.292150 0.811538
outer loop
vertex -0.025519 0.076488 0.044088
vertex 0.011243 0.006491 0.046365
vertex 0.013981 0.008072 0.044088
endloop
endfacet
facet normal 0.609072 0.351647 0.710898
outer loop
vertex -0.025519 0.076488 0.044088
vertex 0.013981 0.008072 0.044088
vertex -0.023120 0.077873 0.041348
endloop
endfacet
facet normal 0.609071 0.351648 0.710898
outer loop
vertex -0.023120 0.077873 0.041348
vertex 0.013981 0.008072 0.044088
vertex 0.016380 0.009457 0.041348
endloop
endfacet
facet normal 0.697332 0.402603 0.592992
outer loop
vertex -0.023120 0.077873 0.041348
vertex 0.016380 0.009457 0.041348
vertex -0.021119 0.079028 0.038211
endloop
endfacet
facet normal 0.697330 0.402604 0.592993
outer loop
vertex -0.021119 0.079028 0.038211
vertex 0.016380 0.009457 0.041348
vertex 0.018381 0.010612 0.038211
endloop
endfacet
facet normal 0.768653 0.443782 0.460684
outer loop
vertex -0.021119 0.079028 0.038211
vertex 0.018381 0.010612 0.038211
vertex -0.019565 0.079926 0.034753
endloop
endfacet
facet normal 0.768653 0.443782 0.460684
outer loop
vertex -0.019565 0.079926 0.034753
vertex 0.018381 0.010612 0.038211
vertex 0.019935 0.011510 0.034753
endloop
endfacet
facet normal 0.821306 0.474182 0.317188
outer loop
vertex -0.019565 0.079926 0.034753
vertex 0.019935 0.011510 0.034753
vertex -0.018495 0.080543 0.031058
endloop
endfacet
facet normal 0.821307 0.474181 0.317186
outer loop
vertex -0.018495 0.080543 0.031058
vertex 0.019935 0.011510 0.034753
vertex 0.021005 0.012127 0.031058
endloop
endfacet
facet normal 0.854012 0.493065 0.165986
outer loop
vertex -0.018495 0.080543 0.031058
vertex 0.021005 0.012127 0.031058
vertex -0.017935 0.080867 0.027216
endloop
endfacet
facet normal 0.854012 0.493064 0.165986
outer loop
vertex -0.017935 0.080867 0.027216
vertex 0.021005 0.012127 0.031058
vertex 0.021565 0.012451 0.027216
endloop
endfacet
facet normal 0.865975 0.499971 0.010751
outer loop
vertex -0.017935 0.080867 0.027216
vertex 0.021565 0.012451 0.027216
vertex -0.017898 0.080888 0.023320
endloop
endfacet
facet normal 0.865975 0.499971 0.010752
outer loop
vertex -0.017898 0.080888 0.023320
vertex 0.021565 0.012451 0.027216
vertex 0.021602 0.012472 0.023320
endloop
endfacet
facet normal 0.856906 0.494735 -0.144740
outer loop
vertex -0.017898 0.080888 0.023320
vertex 0.021602 0.012472 0.023320
vertex -0.018387 0.080606 0.019465
endloop
endfacet
facet normal 0.856906 0.494735 -0.144741
outer loop
vertex -0.018387 0.080606 0.019465
vertex 0.021602 0.012472 0.023320
vertex 0.021113 0.012190 0.019465
endloop
endfacet
facet normal 0.827023 0.477483 -0.296720
outer loop
vertex -0.018387 0.080606 0.019465
vertex 0.021113 0.012190 0.019465
vertex -0.019388 0.080028 0.015744
endloop
endfacet
facet normal 0.827024 0.477482 -0.296720
outer loop
vertex -0.019388 0.080028 0.015744
vertex 0.021113 0.012190 0.019465
vertex 0.020112 0.011612 0.015744
endloop
endfacet
facet normal 0.777055 0.448633 -0.441491
outer loop
vertex -0.019388 0.080028 0.015744
vertex 0.020112 0.011612 0.015744
vertex -0.020878 0.079168 0.012248
endloop
endfacet
facet normal 0.777055 0.448633 -0.441491
outer loop
vertex -0.020878 0.079168 0.012248
vertex 0.020112 0.011612 0.015744
vertex 0.018622 0.010752 0.012248
endloop
endfacet
facet normal 0.708212 0.408887 -0.575540
outer loop
vertex -0.020878 0.079168 0.012248
vertex 0.018622 0.010752 0.012248
vertex -0.022820 0.078047 0.009062
endloop
endfacet
facet normal 0.708213 0.408887 -0.575539
outer loop
vertex -0.022820 0.078047 0.009062
vertex 0.018622 0.010752 0.012248
vertex 0.016680 0.009631 0.009062
endloop
endfacet
facet normal 0.622169 0.359210 -0.695610
outer loop
vertex -0.022820 0.078047 0.009062
vertex 0.016680 0.009631 0.009062
vertex -0.025167 0.076691 0.006263
endloop
endfacet
facet normal 0.622169 0.359210 -0.695611
outer loop
vertex -0.025167 0.076691 0.006263
vertex 0.016680 0.009631 0.009062
vertex 0.014333 0.008275 0.006263
endloop
endfacet
facet normal 0.521015 0.300808 -0.798785
outer loop
vertex -0.025167 0.076691 0.006263
vertex 0.014333 0.008275 0.006263
vertex -0.027862 0.075135 0.003919
endloop
endfacet
facet normal -0.856906 -0.494734 -0.144744
outer loop
vertex -0.100602 0.124360 0.023320
vertex -0.100113 0.124642 0.019465
vertex -0.060613 0.056226 0.019465
endloop
endfacet
facet normal -0.827023 -0.477483 -0.296720
outer loop
vertex -0.060613 0.056226 0.019465
vertex -0.100113 0.124642 0.019465
vertex -0.059612 0.056804 0.015744
endloop
endfacet
facet normal -0.856906 -0.494735 -0.144739
outer loop
vertex -0.100602 0.124360 0.023320
vertex -0.060613 0.056226 0.019465
vertex -0.061102 0.055944 0.023320
endloop
endfacet
facet normal -0.865975 -0.499971 0.010752
outer loop
vertex -0.100565 0.124381 0.027216
vertex -0.100602 0.124360 0.023320
vertex -0.061102 0.055944 0.023320
endloop
endfacet
facet normal -0.865975 -0.499971 0.010752
outer loop
vertex -0.100565 0.124381 0.027216
vertex -0.061102 0.055944 0.023320
vertex -0.061065 0.055965 0.027216
endloop
endfacet
facet normal -0.854012 -0.493064 0.165985
outer loop
vertex -0.100005 0.124705 0.031058
vertex -0.100565 0.124381 0.027216
vertex -0.061065 0.055965 0.027216
endloop
endfacet
facet normal -0.854012 -0.493064 0.165987
outer loop
vertex -0.100005 0.124705 0.031058
vertex -0.061065 0.055965 0.027216
vertex -0.060505 0.056289 0.031058
endloop
endfacet
facet normal -0.821306 -0.474181 0.317187
outer loop
vertex -0.098935 0.125323 0.034753
vertex -0.100005 0.124705 0.031058
vertex -0.060505 0.056289 0.031058
endloop
endfacet
facet normal -0.821306 -0.474182 0.317187
outer loop
vertex -0.098935 0.125323 0.034753
vertex -0.060505 0.056289 0.031058
vertex -0.059435 0.056906 0.034753
endloop
endfacet
facet normal -0.768653 -0.443783 0.460684
outer loop
vertex -0.097381 0.126220 0.038211
vertex -0.098935 0.125323 0.034753
vertex -0.059435 0.056906 0.034753
endloop
endfacet
facet normal -0.768653 -0.443781 0.460685
outer loop
vertex -0.097381 0.126220 0.038211
vertex -0.059435 0.056906 0.034753
vertex -0.057881 0.057804 0.038211
endloop
endfacet
facet normal -0.697330 -0.402605 0.592992
outer loop
vertex -0.095380 0.127375 0.041348
vertex -0.097381 0.126220 0.038211
vertex -0.057881 0.057804 0.038211
endloop
endfacet
facet normal -0.697330 -0.402603 0.592994
outer loop
vertex -0.095380 0.127375 0.041348
vertex -0.057881 0.057804 0.038211
vertex -0.055880 0.058959 0.041348
endloop
endfacet
facet normal -0.609071 -0.351648 0.710898
outer loop
vertex -0.092981 0.128760 0.044088
vertex -0.095380 0.127375 0.041348
vertex -0.055880 0.058959 0.041348
endloop
endfacet
facet normal -0.609072 -0.351647 0.710898
outer loop
vertex -0.092981 0.128760 0.044088
vertex -0.055880 0.058959 0.041348
vertex -0.053481 0.060344 0.044088
endloop
endfacet
facet normal -0.506019 -0.292151 0.811537
outer loop
vertex -0.090243 0.130341 0.046365
vertex -0.092981 0.128760 0.044088
vertex -0.053481 0.060344 0.044088
endloop
endfacet
facet normal -0.506018 -0.292149 0.811538
outer loop
vertex -0.090243 0.130341 0.046365
vertex -0.053481 0.060344 0.044088
vertex -0.050743 0.061925 0.046365
endloop
endfacet
facet normal -0.390677 -0.225557 0.892466
outer loop
vertex -0.087232 0.132080 0.048123
vertex -0.090243 0.130341 0.046365
vertex -0.050743 0.061925 0.046365
endloop
endfacet
facet normal -0.390676 -0.225557 0.892467
outer loop
vertex -0.087232 0.132080 0.048123
vertex -0.050743 0.061925 0.046365
vertex -0.047732 0.063664 0.048123
endloop
endfacet
facet normal -0.265844 -0.153485 0.951719
outer loop
vertex -0.084020 0.133934 0.049319
vertex -0.087232 0.132080 0.048123
vertex -0.047732 0.063664 0.048123
endloop
endfacet
facet normal -0.265846 -0.153486 0.951719
outer loop
vertex -0.084020 0.133934 0.049319
vertex -0.047732 0.063664 0.048123
vertex -0.044520 0.065518 0.049319
endloop
endfacet
facet normal -0.134556 -0.077686 0.987856
outer loop
vertex -0.080687 0.135858 0.049924
vertex -0.084020 0.133934 0.049319
vertex -0.044520 0.065518 0.049319
endloop
endfacet
facet normal -0.134555 -0.077686 0.987856
outer loop
vertex -0.080687 0.135858 0.049924
vertex -0.044520 0.065518 0.049319
vertex -0.041187 0.067442 0.049924
endloop
endfacet
facet normal 0.000000 0.000000 1.000000
outer loop
vertex -0.077313 0.137806 0.049924
vertex -0.080687 0.135858 0.049924
vertex -0.041187 0.067442 0.049924
endloop
endfacet
facet normal -0.000001 0.000000 1.000000
outer loop
vertex -0.077313 0.137806 0.049924
vertex -0.041187 0.067442 0.049924
vertex -0.037813 0.069390 0.049924
endloop
endfacet
facet normal 0.134556 0.077686 0.987856
outer loop
vertex -0.073980 0.139730 0.049319
vertex -0.077313 0.137806 0.049924
vertex -0.037813 0.069390 0.049924
endloop
endfacet
facet normal 0.134556 0.077686 0.987856
outer loop
vertex -0.073980 0.139730 0.049319
vertex -0.037813 0.069390 0.049924
vertex -0.034480 0.071314 0.049319
endloop
endfacet
facet normal 0.265846 0.153486 0.951718
outer loop
vertex -0.070768 0.141585 0.048123
vertex -0.073980 0.139730 0.049319
vertex -0.034480 0.071314 0.049319
endloop
endfacet
facet normal 0.265844 0.153486 0.951719
outer loop
vertex -0.070768 0.141585 0.048123
vertex -0.034480 0.071314 0.049319
vertex -0.031268 0.073169 0.048123
endloop
endfacet
facet normal 0.390677 0.225557 0.892466
outer loop
vertex -0.067757 0.143323 0.046365
vertex -0.070768 0.141585 0.048123
vertex -0.031268 0.073169 0.048123
endloop
endfacet
facet normal 0.390676 0.225557 0.892466
outer loop
vertex -0.067757 0.143323 0.046365
vertex -0.031268 0.073169 0.048123
vertex -0.028257 0.074907 0.046365
endloop
endfacet
facet normal 0.506019 0.292150 0.811538
outer loop
vertex -0.065019 0.144904 0.044088
vertex -0.067757 0.143323 0.046365
vertex -0.028257 0.074907 0.046365
endloop
endfacet
facet normal 0.506018 0.292150 0.811538
outer loop
vertex -0.065019 0.144904 0.044088
vertex -0.028257 0.074907 0.046365
vertex -0.025519 0.076488 0.044088
endloop
endfacet
facet normal 0.609072 0.351647 0.710898
outer loop
vertex -0.062620 0.146289 0.041348
vertex -0.065019 0.144904 0.044088
vertex -0.025519 0.076488 0.044088
endloop
endfacet
facet normal 0.609072 0.351648 0.710897
outer loop
vertex -0.062620 0.146289 0.041348
vertex -0.025519 0.076488 0.044088
vertex -0.023120 0.077873 0.041348
endloop
endfacet
facet normal 0.697331 0.402604 0.592992
outer loop
vertex -0.060619 0.147444 0.038211
vertex -0.062620 0.146289 0.041348
vertex -0.023120 0.077873 0.041348
endloop
endfacet
facet normal 0.697329 0.402603 0.592994
outer loop
vertex -0.060619 0.147444 0.038211
vertex -0.023120 0.077873 0.041348
vertex -0.021119 0.079028 0.038211
endloop
endfacet
facet normal 0.768653 0.443782 0.460684
outer loop
vertex -0.059065 0.148342 0.034753
vertex -0.060619 0.147444 0.038211
vertex -0.021119 0.079028 0.038211
endloop
endfacet
facet normal 0.768653 0.443782 0.460685
outer loop
vertex -0.059065 0.148342 0.034753
vertex -0.021119 0.079028 0.038211
vertex -0.019565 0.079926 0.034753
endloop
endfacet
facet normal 0.821307 0.474182 0.317186
outer loop
vertex -0.057995 0.148959 0.031058
vertex -0.059065 0.148342 0.034753
vertex -0.019565 0.079926 0.034753
endloop
endfacet
facet normal 0.821307 0.474181 0.317185
outer loop
vertex -0.057995 0.148959 0.031058
vertex -0.019565 0.079926 0.034753
vertex -0.018495 0.080543 0.031058
endloop
endfacet
facet normal 0.854012 0.493065 0.165985
outer loop
vertex -0.057435 0.149283 0.027216
vertex -0.057995 0.148959 0.031058
vertex -0.018495 0.080543 0.031058
endloop
endfacet
facet normal 0.854012 0.493064 0.165990
outer loop
vertex -0.057435 0.149283 0.027216
vertex -0.018495 0.080543 0.031058
vertex -0.017935 0.080867 0.027216
endloop
endfacet
facet normal 0.865975 0.499971 0.010754
outer loop
vertex -0.057398 0.149304 0.023320
vertex -0.057435 0.149283 0.027216
vertex -0.017935 0.080867 0.027216
endloop
endfacet
facet normal 0.865975 0.499971 0.010750
outer loop
vertex -0.057398 0.149304 0.023320
vertex -0.017935 0.080867 0.027216
vertex -0.017898 0.080888 0.023320
endloop
endfacet
facet normal 0.856906 0.494735 -0.144741
outer loop
vertex -0.057887 0.149022 0.019465
vertex -0.057398 0.149304 0.023320
vertex -0.017898 0.080888 0.023320
endloop
endfacet
facet normal 0.856906 0.494734 -0.144743
outer loop
vertex -0.057887 0.149022 0.019465
vertex -0.017898 0.080888 0.023320
vertex -0.018387 0.080606 0.019465
endloop
endfacet
facet normal 0.827024 0.477483 -0.296717
outer loop
vertex -0.058888 0.148444 0.015744
vertex -0.057887 0.149022 0.019465
vertex -0.018387 0.080606 0.019465
endloop
endfacet
facet normal 0.827024 0.477482 -0.296719
outer loop
vertex -0.058888 0.148444 0.015744
vertex -0.018387 0.080606 0.019465
vertex -0.019388 0.080028 0.015744
endloop
endfacet
facet normal 0.777055 0.448633 -0.441491
outer loop
vertex -0.060378 0.147584 0.012248
vertex -0.058888 0.148444 0.015744
vertex -0.019388 0.080028 0.015744
endloop
endfacet
facet normal 0.777055 0.448633 -0.441492
outer loop
vertex -0.060378 0.147584 0.012248
vertex -0.019388 0.080028 0.015744
vertex -0.020878 0.079168 0.012248
endloop
endfacet
facet normal 0.708213 0.408887 -0.575539
outer loop
vertex -0.062320 0.146463 0.009062
vertex -0.060378 0.147584 0.012248
vertex -0.020878 0.079168 0.012248
endloop
endfacet
facet normal 0.708212 0.408886 -0.575541
outer loop
vertex -0.062320 0.146463 0.009062
vertex -0.020878 0.079168 0.012248
vertex -0.022820 0.078047 0.009062
endloop
endfacet
facet normal 0.622169 0.359210 -0.695611
outer loop
vertex -0.064667 0.145107 0.006263
vertex -0.062320 0.146463 0.009062
vertex -0.022820 0.078047 0.009062
endloop
endfacet
facet normal 0.622170 0.359210 -0.695610
outer loop
vertex -0.064667 0.145107 0.006263
vertex -0.022820 0.078047 0.009062
vertex -0.025167 0.076691 0.006263
endloop
endfacet
facet normal 0.521016 0.300809 -0.798784
outer loop
vertex -0.067362 0.143551 0.003919
vertex -0.064667 0.145107 0.006263
vertex -0.025167 0.076691 0.006263
endloop
endfacet
facet normal 0.521014 0.300808 -0.798786
outer loop
vertex -0.067362 0.143551 0.003919
vertex -0.025167 0.076691 0.006263
vertex -0.027862 0.075135 0.003919
endloop
endfacet
facet normal -0.866025 -0.500000 0.000000
outer loop
vertex 0.109840 -0.210248 0.000000
vertex 0.109840 -0.210248 0.002087
vertex -0.127160 0.200248 0.000000
endloop
endfacet
facet normal -0.866025 -0.500000 0.000000
outer loop
vertex -0.127160 0.200248 0.000000
vertex 0.109840 -0.210248 0.002087
vertex -0.127160 0.200248 0.002087
endloop
endfacet
facet normal -0.499999 0.866026 0.000000
outer loop
vertex -0.127160 0.200248 0.000000
vertex -0.127160 0.200248 0.002087
vertex -0.109840 0.210248 0.000000
endloop
endfacet
facet normal -0.500000 0.866025 0.000000
outer loop
vertex -0.109840 0.210248 0.000000
vertex -0.127160 0.200248 0.002087
vertex -0.109840 0.210248 0.002087
endloop
endfacet
facet normal -0.499999 0.866026 0.000000
outer loop
vertex -0.109840 0.210248 0.002087
vertex -0.127160 0.200248 0.002087
vertex -0.106941 0.211922 0.003861
endloop
endfacet
facet normal -0.500001 0.866025 0.000000
outer loop
vertex -0.106941 0.211922 0.003861
vertex -0.127160 0.200248 0.002087
vertex -0.104308 0.213442 0.006120
endloop
endfacet
facet normal -0.499999 0.866026 0.000000
outer loop
vertex -0.104308 0.213442 0.006120
vertex -0.127160 0.200248 0.002087
vertex -0.102000 0.214774 0.008813
endloop
endfacet
facet normal -0.500000 0.866026 0.000000
outer loop
vertex -0.102000 0.214774 0.008813
vertex -0.127160 0.200248 0.002087
vertex -0.100072 0.215888 0.011878
endloop
endfacet
facet normal -0.499999 0.866026 0.000000
outer loop
vertex -0.100072 0.215888 0.011878
vertex -0.127160 0.200248 0.002087
vertex -0.098566 0.216757 0.015243
endloop
endfacet
facet normal -0.500001 0.866025 0.000000
outer loop
vertex -0.098566 0.216757 0.015243
vertex -0.127160 0.200248 0.002087
vertex -0.097518 0.217362 0.018833
endloop
endfacet
facet normal -0.499998 0.866026 0.000000
outer loop
vertex -0.097518 0.217362 0.018833
vertex -0.127160 0.200248 0.002087
vertex -0.096952 0.217689 0.022564
endloop
endfacet
facet normal -0.500001 0.866025 0.000007
outer loop
vertex -0.096952 0.217689 0.022564
vertex -0.127160 0.200248 0.002087
vertex -0.096881 0.217730 0.026352
endloop
endfacet
facet normal -0.500001 0.866025 0.000000
outer loop
vertex -0.096881 0.217730 0.026352
vertex -0.127160 0.200248 0.002087
vertex -0.097306 0.217484 0.030108
endloop
endfacet
facet normal -0.500001 0.866025 0.000006
outer loop
vertex -0.097306 0.217484 0.030108
vertex -0.127160 0.200248 0.002087
vertex -0.098218 0.216958 0.033747
endloop
endfacet
facet normal -0.500000 0.866026 0.000006
outer loop
vertex -0.098218 0.216958 0.033747
vertex -0.127160 0.200248 0.002087
vertex -0.099595 0.216163 0.037185
endloop
endfacet
facet normal -0.499996 0.866028 -0.000011
outer loop
vertex -0.099595 0.216163 0.037185
vertex -0.127160 0.200248 0.002087
vertex -0.101406 0.215117 0.040343
endloop
endfacet
facet normal -0.500001 0.866025 0.000005
outer loop
vertex -0.101406 0.215117 0.040343
vertex -0.127160 0.200248 0.002087
vertex -0.103610 0.213845 0.043149
endloop
endfacet
facet normal -0.500003 0.866024 -0.000005
outer loop
vertex -0.103610 0.213845 0.043149
vertex -0.127160 0.200248 0.002087
vertex -0.106156 0.212375 0.045539
endloop
endfacet
facet normal -0.500000 0.866025 0.000005
outer loop
vertex -0.106156 0.212375 0.045539
vertex -0.127160 0.200248 0.002087
vertex -0.108985 0.210741 0.047456
endloop
endfacet
facet normal -0.499997 0.866027 -0.000002
outer loop
vertex -0.108985 0.210741 0.047456
vertex -0.127160 0.200248 0.002087
vertex -0.112033 0.208982 0.048859
endloop
endfacet
facet normal -0.500002 0.866024 0.000002
outer loop
vertex -0.112033 0.208982 0.048859
vertex -0.127160 0.200248 0.002087
vertex -0.130059 0.198574 0.003861
endloop
endfacet
facet normal -0.499999 0.866026 -0.000001
outer loop
vertex -0.112033 0.208982 0.048859
vertex -0.130059 0.198574 0.003861
vertex -0.132692 0.197054 0.006120
endloop
endfacet
facet normal -0.500000 0.866025 0.000000
outer loop
vertex -0.132692 0.197054 0.006120
vertex -0.135000 0.195722 0.008813
vertex -0.112033 0.208982 0.048859
endloop
endfacet
facet normal -0.500001 0.866025 0.000003
outer loop
vertex -0.112033 0.208982 0.048859
vertex -0.135000 0.195722 0.008813
vertex -0.136928 0.194608 0.011878
endloop
endfacet
facet normal -0.500002 0.866024 -0.000001
outer loop
vertex -0.112033 0.208982 0.048859
vertex -0.136928 0.194608 0.011878
vertex -0.138434 0.193739 0.015243
endloop
endfacet
facet normal -0.499994 0.866029 0.000000
outer loop
vertex -0.138434 0.193739 0.015243
vertex -0.139482 0.193134 0.018833
vertex -0.112033 0.208982 0.048859
endloop
endfacet
facet normal -0.500000 0.866025 0.000004
outer loop
vertex -0.112033 0.208982 0.048859
vertex -0.139482 0.193134 0.018833
vertex -0.140048 0.192808 0.022564
endloop
endfacet
facet normal -0.500000 0.866026 0.000000
outer loop
vertex -0.112033 0.208982 0.048859
vertex -0.140048 0.192808 0.022564
vertex -0.140119 0.192766 0.026352
endloop
endfacet
facet normal -0.500002 0.866024 -0.000008
outer loop
vertex -0.140119 0.192766 0.026352
vertex -0.139694 0.193012 0.030108
vertex -0.112033 0.208982 0.048859
endloop
endfacet
facet normal -0.499999 0.866026 0.000000
outer loop
vertex -0.112033 0.208982 0.048859
vertex -0.139694 0.193012 0.030108
vertex -0.115229 0.207137 0.049713
endloop
endfacet
facet normal -0.500002 0.866024 0.000002
outer loop
vertex -0.115229 0.207137 0.049713
vertex -0.139694 0.193012 0.030108
vertex -0.138782 0.193538 0.033747
endloop
endfacet
facet normal -0.499998 0.866027 -0.000005
outer loop
vertex -0.115229 0.207137 0.049713
vertex -0.138782 0.193538 0.033747
vertex -0.137405 0.194333 0.037185
endloop
endfacet
facet normal -0.500002 0.866024 0.000000
outer loop
vertex -0.137405 0.194333 0.037185
vertex -0.135594 0.195379 0.040343
vertex -0.115229 0.207137 0.049713
endloop
endfacet
facet normal -0.500001 0.866025 -0.000008
outer loop
vertex -0.115229 0.207137 0.049713
vertex -0.135594 0.195379 0.040343
vertex -0.133390 0.196651 0.043149
endloop
endfacet
facet normal -0.500002 0.866024 0.000011
outer loop
vertex -0.115229 0.207137 0.049713
vertex -0.133390 0.196651 0.043149
vertex -0.130844 0.198121 0.045539
endloop
endfacet
facet normal -0.499999 0.866026 0.000000
outer loop
vertex -0.130844 0.198121 0.045539
vertex -0.128015 0.199755 0.047456
vertex -0.115229 0.207137 0.049713
endloop
endfacet
facet normal -0.500000 0.866025 -0.000018
outer loop
vertex -0.115229 0.207137 0.049713
vertex -0.128015 0.199755 0.047456
vertex -0.124967 0.201514 0.048859
endloop
endfacet
facet normal -0.500004 0.866023 0.000018
outer loop
vertex -0.115229 0.207137 0.049713
vertex -0.124967 0.201514 0.048859
vertex -0.121771 0.203359 0.049713
endloop
endfacet
facet normal -0.500001 0.866025 0.000000
outer loop
vertex -0.121771 0.203359 0.049713
vertex -0.118500 0.205248 0.050000
vertex -0.115229 0.207137 0.049713
endloop
endfacet
facet normal 0.500000 -0.866025 0.000000
outer loop
vertex 0.109840 -0.210248 0.000000
vertex 0.127160 -0.200248 0.000000
vertex 0.109840 -0.210248 0.002087
endloop
endfacet
facet normal 0.499999 -0.866026 0.000000
outer loop
vertex 0.109840 -0.210248 0.002087
vertex 0.127160 -0.200248 0.000000
vertex 0.127160 -0.200248 0.002087
endloop
endfacet
facet normal 0.500000 -0.866026 0.000010
outer loop
vertex 0.109840 -0.210248 0.002087
vertex 0.127160 -0.200248 0.002087
vertex 0.130059 -0.198574 0.003861
endloop
endfacet
facet normal 0.500000 -0.866025 0.000000
outer loop
vertex 0.130059 -0.198574 0.003861
vertex 0.132692 -0.197054 0.006120
vertex 0.109840 -0.210248 0.002087
endloop
endfacet
facet normal 0.500000 -0.866025 -0.000005
outer loop
vertex 0.109840 -0.210248 0.002087
vertex 0.132692 -0.197054 0.006120
vertex 0.135000 -0.195722 0.008813
endloop
endfacet
facet normal 0.499999 -0.866026 0.000017
outer loop
vertex 0.109840 -0.210248 0.002087
vertex 0.135000 -0.195722 0.008813
vertex 0.136928 -0.194608 0.011878
endloop
endfacet
facet normal 0.500000 -0.866026 -0.000011
outer loop
vertex 0.136928 -0.194608 0.011878
vertex 0.138434 -0.193739 0.015243
vertex 0.109840 -0.210248 0.002087
endloop
endfacet
facet normal 0.500002 -0.866024 0.000007
outer loop
vertex 0.109840 -0.210248 0.002087
vertex 0.138434 -0.193739 0.015243
vertex 0.139482 -0.193134 0.018833
endloop
endfacet
facet normal 0.499998 -0.866026 -0.000004
outer loop
vertex 0.109840 -0.210248 0.002087
vertex 0.139482 -0.193134 0.018833
vertex 0.140048 -0.192807 0.022564
endloop
endfacet
facet normal 0.500000 -0.866026 0.000000
outer loop
vertex 0.140048 -0.192807 0.022564
vertex 0.140119 -0.192766 0.026352
vertex 0.109840 -0.210248 0.002087
endloop
endfacet
facet normal 0.500001 -0.866025 -0.000005
outer loop
vertex 0.109840 -0.210248 0.002087
vertex 0.140119 -0.192766 0.026352
vertex 0.139694 -0.193012 0.030108
endloop
endfacet
facet normal 0.499998 -0.866027 0.000001
outer loop
vertex 0.109840 -0.210248 0.002087
vertex 0.139694 -0.193012 0.030108
vertex 0.138782 -0.193538 0.033747
endloop
endfacet
facet normal 0.500000 -0.866026 0.000000
outer loop
vertex 0.138782 -0.193538 0.033747
vertex 0.137405 -0.194333 0.037185
vertex 0.109840 -0.210248 0.002087
endloop
endfacet
facet normal 0.500003 -0.866024 0.000003
outer loop
vertex 0.109840 -0.210248 0.002087
vertex 0.137405 -0.194333 0.037185
vertex 0.135594 -0.195379 0.040343
endloop
endfacet
facet normal 0.499997 -0.866027 -0.000001
outer loop
vertex 0.109840 -0.210248 0.002087
vertex 0.135594 -0.195379 0.040343
vertex 0.133390 -0.196651 0.043149
endloop
endfacet
facet normal 0.500001 -0.866025 0.000005
outer loop
vertex 0.133390 -0.196651 0.043149
vertex 0.130844 -0.198121 0.045539
vertex 0.109840 -0.210248 0.002087
endloop
endfacet
facet normal 0.499999 -0.866026 -0.000001
outer loop
vertex 0.109840 -0.210248 0.002087
vertex 0.130844 -0.198121 0.045539
vertex 0.128015 -0.199755 0.047456
endloop
endfacet
facet normal 0.499999 -0.866026 0.000002
outer loop
vertex 0.109840 -0.210248 0.002087
vertex 0.128015 -0.199755 0.047456
vertex 0.124967 -0.201514 0.048859
endloop
endfacet
facet normal 0.499999 -0.866026 0.000010
outer loop
vertex 0.121771 -0.203359 0.049713
vertex 0.097306 -0.217484 0.030108
vertex 0.124967 -0.201514 0.048859
endloop
endfacet
facet normal 0.499999 -0.866026 -0.000002
outer loop
vertex 0.124967 -0.201514 0.048859
vertex 0.097306 -0.217484 0.030108
vertex 0.096881 -0.217730 0.026352
endloop
endfacet
facet normal 0.500000 -0.866025 -0.000004
outer loop
vertex 0.124967 -0.201514 0.048859
vertex 0.096881 -0.217730 0.026352
vertex 0.096952 -0.217689 0.022564
endloop
endfacet
facet normal 0.500001 -0.866025 0.000000
outer loop
vertex 0.118500 -0.205248 0.050000
vertex 0.115229 -0.207137 0.049713
vertex 0.121771 -0.203359 0.049713
endloop
endfacet
facet normal 0.500004 -0.866023 0.000036
outer loop
vertex 0.121771 -0.203359 0.049713
vertex 0.115229 -0.207137 0.049713
vertex 0.112033 -0.208982 0.048859
endloop
endfacet
facet normal 0.500003 -0.866024 -0.000018
outer loop
vertex 0.121771 -0.203359 0.049713
vertex 0.112033 -0.208982 0.048859
vertex 0.108985 -0.210741 0.047456
endloop
endfacet
facet normal 0.500000 -0.866025 0.000000
outer loop
vertex 0.108985 -0.210741 0.047456
vertex 0.106156 -0.212375 0.045539
vertex 0.121771 -0.203359 0.049713
endloop
endfacet
facet normal 0.500000 -0.866026 -0.000008
outer loop
vertex 0.121771 -0.203359 0.049713
vertex 0.106156 -0.212375 0.045539
vertex 0.103610 -0.213845 0.043149
endloop
endfacet
facet normal 0.500001 -0.866025 0.000010
outer loop
vertex 0.121771 -0.203359 0.049713
vertex 0.103610 -0.213845 0.043149
vertex 0.101406 -0.215117 0.040343
endloop
endfacet
facet normal 0.500000 -0.866025 0.000000
outer loop
vertex 0.101406 -0.215117 0.040343
vertex 0.099595 -0.216163 0.037185
vertex 0.121771 -0.203359 0.049713
endloop
endfacet
facet normal 0.500000 -0.866026 -0.000002
outer loop
vertex 0.121771 -0.203359 0.049713
vertex 0.099595 -0.216163 0.037185
vertex 0.098218 -0.216958 0.033747
endloop
endfacet
facet normal 0.499999 -0.866026 0.000006
outer loop
vertex 0.121771 -0.203359 0.049713
vertex 0.098218 -0.216958 0.033747
vertex 0.097306 -0.217484 0.030108
endloop
endfacet
facet normal 0.500000 -0.866025 0.000000
outer loop
vertex 0.096952 -0.217689 0.022564
vertex 0.097518 -0.217362 0.018833
vertex 0.124967 -0.201514 0.048859
endloop
endfacet
facet normal 0.499999 -0.866026 0.000000
outer loop
vertex 0.124967 -0.201514 0.048859
vertex 0.097518 -0.217362 0.018833
vertex 0.098566 -0.216757 0.015243
endloop
endfacet
facet normal 0.500003 -0.866023 0.000002
outer loop
vertex 0.124967 -0.201514 0.048859
vertex 0.098566 -0.216757 0.015243
vertex 0.100072 -0.215888 0.011878
endloop
endfacet
facet normal 0.500000 -0.866025 0.000000
outer loop
vertex 0.100072 -0.215888 0.011878
vertex 0.102000 -0.214774 0.008813
vertex 0.124967 -0.201514 0.048859
endloop
endfacet
facet normal 0.499998 -0.866027 0.000005
outer loop
vertex 0.124967 -0.201514 0.048859
vertex 0.102000 -0.214774 0.008813
vertex 0.104308 -0.213442 0.006120
endloop
endfacet
facet normal 0.499997 -0.866027 -0.000001
outer loop
vertex 0.124967 -0.201514 0.048859
vertex 0.104308 -0.213442 0.006120
vertex 0.106941 -0.211922 0.003861
endloop
endfacet
facet normal 0.500005 -0.866023 -0.000005
outer loop
vertex 0.106941 -0.211922 0.003861
vertex 0.109840 -0.210248 0.002087
vertex 0.124967 -0.201514 0.048859
endloop
endfacet
solid cylinder
