solid cylinder
facet normal -1.000000 0.000000 0.000000
outer loop
vertex -0.025000 -0.237000 0.000000
vertex -0.025000 -0.237000 0.050000
vertex -0.025000 0.237000 0.050000
endloop
endfacet
facet normal -1.000000 0.000000 0.000000
outer loop
vertex -0.025000 -0.237000 0.000000
vertex -0.025000 0.237000 0.050000
vertex -0.025000 0.237000 0.000000
endloop
endfacet
facet normal 0.000000 1.000000 0.000000
outer loop
vertex -0.025000 0.237000 0.000000
vertex -0.025000 0.237000 0.050000
vertex 0.025000 0.237000 0.050000
endloop
endfacet
facet normal 0.000000 1.000000 0.000000
outer loop
vertex -0.025000 0.237000 0.000000
vertex 0.025000 0.237000 0.050000
vertex 0.025000 0.237000 0.000000
endloop
endfacet
facet normal 1.000000 0.000000 0.000000
outer loop
vertex 0.025000 0.237000 0.000000
vertex 0.025000 0.237000 0.050000
vertex 0.025000 -0.237000 0.050000
endloop
endfacet
facet normal 1.000000 0.000000 0.000000
outer loop
vertex 0.025000 0.237000 0.000000
vertex 0.025000 -0.237000 0.050000
vertex 0.025000 -0.237000 0.000000
endloop
endfacet
facet normal 0.000000 -1.000000 0.000000
outer loop
vertex 0.025000 -0.237000 0.000000
vertex 0.025000 -0.237000 0.050000
vertex -0.025000 -0.237000 0.050000
endloop
endfacet
facet normal 0.000000 -1.000000 0.000000
outer loop
vertex 0.025000 -0.237000 0.000000
vertex -0.025000 -0.237000 0.050000
vertex -0.025000 -0.237000 0.000000
endloop
endfacet
facet normal 0.000000 0.000000 -1.000000
outer loop
vertex -0.025000 0.237000 0.000000
vertex 0.025000 0.237000 0.000000
vertex 0.025000 -0.237000 0.000000
endloop
endfacet
facet normal 0.000000 0.000000 -1.000000
outer loop
vertex -0.025000 0.237000 0.000000
vertex 0.025000 -0.237000 0.000000
vertex -0.025000 -0.237000 0.000000
endloop
endfacet
facet normal 0.000000 0.000000 1.000000
outer loop
vertex 0.025000 0.237000 0.050000
vertex -0.025000 0.237000 0.050000
vertex -0.025000 -0.237000 0.050000
endloop
endfacet
facet normal 0.000000 0.000000 1.000000
outer loop
vertex 0.025000 0.237000 0.050000
vertex -0.025000 -0.237000 0.050000
vertex 0.025000 -0.237000 0.050000
endloop
endfacet
endsolid cylinder
